<?xml version="1.0" standalone="no"?>
<!DOCTYPE svg PUBLIC "-//W3C//DTD SVG 1.1//EN" "http://www.w3.org/Graphics/SVG/1.1/DTD/svg11.dtd" >
<svg xmlns="http://www.w3.org/2000/svg" xmlns:xlink="http://www.w3.org/1999/xlink" version="1.1">
<metadata>
Created by FontForge 20170731 at Tue May  2 20:44:04 2017
 By Aleksey,,,
Copyright (C)2015 Commercial Type.
</metadata>
<defs>
<font id="ActionCondMedium-Grade2" horiz-adv-x="274" >
  <font-face 
    font-family="Action Cond Medium Grade 2"
    font-weight="400"
    font-stretch="expanded"
    units-per-em="1000"
    panose-1="0 0 0 0 0 0 0 0 0 0"
    ascent="856"
    descent="-144"
    x-height="560"
    cap-height="714"
    bbox="-155 -150 520 879"
    underline-thickness="66"
    underline-position="-180"
    unicode-range="U+0020-FB00"
  />
<missing-glyph horiz-adv-x="500" 
 />
    <glyph glyph-name="f_f" unicode="ff" horiz-adv-x="289" 
d="M287 486h-36v-486h-84v486h-57v-486h-84v486h-28v74h28v65q0 94 77 94q15 0 37 -5v-71h-7q-14 0 -18.5 -7t-4.5 -26v-50h57v57q0 57 20 79.5t61 22.5q27 0 47 -5v-68h-10q-21 0 -27.5 -8t-6.5 -28v-50h36v-74z" />
    <glyph glyph-name=".notdef" horiz-adv-x="500" 
 />
    <glyph glyph-name=".null" horiz-adv-x="0" 
 />
    <glyph glyph-name="nonmarkingreturn" horiz-adv-x="333" 
 />
    <glyph glyph-name="space" unicode=" " horiz-adv-x="85" 
 />
    <glyph glyph-name="exclam" unicode="!" horiz-adv-x="136" 
d="M26 714h84v-201q0 -36 -5 -112t-11 -133l-5 -58h-43q-20 221 -20 303v201zM27 146h84v-146h-84v146z" />
    <glyph glyph-name="quotedbl" unicode="&#x22;" horiz-adv-x="252" 
d="M24 714h83v-128q0 -68 -18 -218h-49q-16 135 -16 218v128zM146 714h83v-128q0 -68 -18 -218h-49q-16 135 -16 218v128z" />
    <glyph glyph-name="numbersign" unicode="#" horiz-adv-x="269" 
d="M155 246v222h-41v-222h41zM155 77v114h-41v-114h-55v114h-39v55h39v222h-39v56h39v113h55v-113h41v113h55v-113h39v-56h-39v-222h39v-55h-39v-114h-55z" />
    <glyph glyph-name="dollar" unicode="$" horiz-adv-x="276" 
d="M163 191q0 63 -64 141q-79 92 -79 180q0 124 103 130v51h33v-51q47 -5 68.5 -34.5t21.5 -92.5v-62h-83v61q0 32 -6 44t-23 12q-30 0 -30 -49q0 -62 67 -143q76 -94 76 -175q0 -118 -91 -131v-51h-33v50q-55 2 -79 31.5t-24 97.5v58h84v-65q0 -25 6.5 -37t23.5 -12
q29 0 29 47z" />
    <glyph glyph-name="percent" unicode="%" horiz-adv-x="302" 
d="M201 526q0 -64 -26 -94.5t-72 -30.5q-97 0 -97 125v8q0 125 97 125q98 0 98 -125v-8zM134 509v42q0 26 -7 37t-24 11q-30 0 -30 -48v-42q0 -27 6 -37.5t24 -10.5q31 0 31 48zM19 220l-19 22l284 250l18 -21zM300 180q0 -63 -26.5 -94t-71.5 -31q-96 0 -96 125v9
q0 125 96 125q98 0 98 -125v-9zM233 164v42q0 26 -7 37t-24 11q-30 0 -30 -48v-42q0 -27 6 -37.5t24 -10.5q31 0 31 48z" />
    <glyph glyph-name="ampersand" unicode="&#x26;" horiz-adv-x="333" 
d="M251 0l-26 47q-34 -53 -97 -53q-110 0 -110 147v39q0 99 63 159q-53 116 -53 200v31q0 77 27 113.5t85 36.5q59 0 86 -36.5t27 -110.5v-40q0 -117 -88 -191l14 -31l42 -92q7 44 7 143l72 1q1 -146 -36 -233q62 -121 67 -130h-80zM109 549q0 -69 29 -144q33 46 33 133v49
q0 54 -31 54t-31 -54v-38zM143 73q31 0 48 40q-42 81 -71 141q-1 3 -3.5 8.5t-3.5 7.5q-12 -27 -12 -79v-50q0 -68 42 -68z" />
    <glyph glyph-name="quotesingle" unicode="'" horiz-adv-x="130" 
d="M24 714h83v-128q0 -68 -18 -218h-49q-16 135 -16 218v128z" />
    <glyph glyph-name="parenleft" unicode="(" horiz-adv-x="181" 
d="M32 38v590q0 101 25 142t94 41h33v-70h-24q-27 0 -37 -23t-10 -77v-616q0 -54 10 -77t37 -23h24v-69h-35q-67 0 -92 40.5t-25 141.5z" />
    <glyph glyph-name="parenright" unicode=")" horiz-adv-x="181" 
d="M149 38q0 -101 -25 -141.5t-92 -40.5h-35v69h24q26 0 36.5 23t10.5 77v616q0 53 -10 76.5t-37 23.5h-24v70h33q69 0 94 -41t25 -142v-590z" />
    <glyph glyph-name="asterisk" unicode="*" horiz-adv-x="259" 
d="M206 521l-64 59l-8 -87l-67 16l36 81l-86 -21l-3 70l88 -11l-46 76l66 25l16 -87l58 68l43 -54l-75 -44l80 -34z" />
    <glyph glyph-name="plus" unicode="+" horiz-adv-x="258" 
d="M248 204h-82v-82h-75v82h-81v75h81v81h75v-81h82v-75z" />
    <glyph glyph-name="comma" unicode="," horiz-adv-x="127" 
d="M19 -64v36q27 0 36 9t9 28h-42v135h84v-114q0 -50 -17 -72t-70 -22z" />
    <glyph glyph-name="hyphen" unicode="-" horiz-adv-x="215" 
d="M12 284h191v-79h-191v79z" />
    <glyph glyph-name="period" unicode="." horiz-adv-x="127" 
d="M22 146h84v-146h-84v146z" />
    <glyph glyph-name="slash" unicode="/" horiz-adv-x="206" 
d="M135 714h66l-130 -714h-67z" />
    <glyph glyph-name="zero" unicode="0" horiz-adv-x="286" 
d="M143 720q60 0 88.5 -32t28.5 -109v-444q0 -77 -28.5 -109t-88.5 -32q-61 0 -89 32t-28 109v444q0 77 28.5 109t88.5 32zM176 126v462q0 29 -7.5 41t-25.5 12q-33 0 -33 -53v-462q0 -29 7.5 -41t25.5 -12q33 0 33 53z" />
    <glyph glyph-name="one" unicode="1" horiz-adv-x="150" 
d="M9 593v51h18q25 0 33 17.5t8 53.5h53v-715h-84v593h-28z" />
    <glyph glyph-name="two" unicode="2" horiz-adv-x="286" 
d="M26 0v39q0 27 2 51t4 41.5t8.5 37.5t10 31t13.5 31t14.5 28t18.5 31t19 32q34 60 47 101.5t13 102.5v62q0 53 -33 53q-18 0 -25.5 -12t-7.5 -41v-123h-84v114q0 77 28.5 109t88.5 32t88.5 -32t28.5 -109v-49q0 -67 -17.5 -117.5t-59.5 -129.5q-6 -12 -20 -37t-20 -36
t-15.5 -31t-13.5 -33t-6.5 -30t-1.5 -34h154v-82h-234z" />
    <glyph glyph-name="three" unicode="3" horiz-adv-x="286" 
d="M143 -6q-61 0 -89 32t-28 109v142h84v-151q0 -29 7.5 -41t25.5 -12q33 0 33 53v194q0 31 -8.5 47.5t-32.5 16.5q-31 0 -55 -35l-48 35l139 251h-144v79h233v-72l-115 -196q12 3 26 3q89 0 89 -127v-187q0 -77 -28.5 -109t-88.5 -32z" />
    <glyph glyph-name="four" unicode="4" horiz-adv-x="286" 
d="M278 77h-43v-77h-84v77h-141v71q8 36 20 94.5t38.5 182.5t43.5 207l17 82h106v-560h43v-77zM134 443q-19 -113 -56 -289h73v209q0 62 9 235z" />
    <glyph glyph-name="five" unicode="5" horiz-adv-x="286" 
d="M143 -6q-61 0 -89 32t-28 109v142h84v-151q0 -29 7.5 -41t25.5 -12q33 0 33 53v191q0 31 -9 47t-33 16q-29 0 -48 -35l-59 29v340h231v-80h-153v-195q28 14 61 14q53 0 73.5 -36.5t20.5 -102.5v-179q0 -77 -28.5 -109t-88.5 -32z" />
    <glyph glyph-name="six" unicode="6" horiz-adv-x="286" 
d="M260 135q0 -77 -28 -109t-89 -32q-60 0 -88.5 32t-28.5 109v444q0 77 28.5 109t88.5 32q61 0 89 -32t28 -109v-87h-84v96q0 29 -7.5 41t-25.5 12q-33 0 -33 -53v-156q22 9 52 9q98 0 98 -125v-181zM143 73q18 0 25.5 12t7.5 41v183q0 29 -8.5 42.5t-29.5 13.5
q-10 0 -28 -4v-235q0 -53 33 -53z" />
    <glyph glyph-name="seven" unicode="7" horiz-adv-x="286" 
d="M125 0h-87q10 61 145 634h-159v80h237v-70z" />
    <glyph glyph-name="eight" unicode="8" horiz-adv-x="286" 
d="M143 -6q-61 0 -89 31.5t-28 108.5v112q0 90 56 121q-55 30 -55 114v99q0 77 28 108.5t88 31.5t88 -31.5t28 -108.5v-99q0 -83 -55 -114q56 -31 56 -121v-112q0 -77 -28 -108.5t-89 -31.5zM175 588q0 29 -7.5 41t-24.5 12q-32 0 -32 -53v-129q0 -30 7 -42t25 -12
q17 0 24.5 12t7.5 42v129zM176 275q0 54 -33 54t-33 -54v-149q0 -29 7.5 -41t25.5 -12q33 0 33 53v149z" />
    <glyph glyph-name="nine" unicode="9" horiz-adv-x="286" 
d="M148 348q10 0 28 4v236q0 53 -33 53q-18 0 -25.5 -12t-7.5 -41v-184q0 -29 8.5 -42.5t29.5 -13.5zM143 -6q-61 0 -89 32t-28 109v87h84v-96q0 -29 7.5 -41t25.5 -12q33 0 33 53v155q-23 -9 -52 -9q-98 0 -98 125v182q0 77 28 109t89 32q60 0 88.5 -32t28.5 -109v-444
q0 -77 -28.5 -109t-88.5 -32z" />
    <glyph glyph-name="colon" unicode=":" horiz-adv-x="127" 
d="M22 397h84v-146h-84v146zM22 146h84v-146h-84v146z" />
    <glyph glyph-name="semicolon" unicode=";" horiz-adv-x="127" 
d="M22 397h84v-146h-84v146zM20 -67v36q27 0 35.5 9t8.5 28h-42v136h84v-114q0 -50 -17 -72.5t-69 -22.5z" />
    <glyph glyph-name="less" unicode="&#x3c;" horiz-adv-x="196" 
d="M131 112l-117 111v47l117 111l50 -59l-91 -76l91 -74z" />
    <glyph glyph-name="equal" unicode="=" horiz-adv-x="258" 
d="M10 263v75h238v-75h-238zM10 145v75h238v-75h-238z" />
    <glyph glyph-name="greater" unicode="&#x3e;" horiz-adv-x="196" 
d="M64 112l-50 60l95 74l-95 76l50 59l117 -111v-47z" />
    <glyph glyph-name="question" unicode="?" horiz-adv-x="272" 
d="M152 221h-51q-16 102 -16 187q39 0 59 20.5t20 70.5v88q0 54 -32 54q-18 0 -25.5 -12.5t-7.5 -41.5v-96h-85v87q0 78 28 110t90 32q61 0 89 -32t28 -110v-78q0 -124 -85 -148q-4 -81 -12 -131zM84 146h84v-146h-84v146z" />
    <glyph glyph-name="at" unicode="@" horiz-adv-x="507" 
d="M258 -67q-233 0 -233 233v149q0 250 228 250q111 1 170 -50t59 -168v-123q0 -86 -30.5 -126t-103.5 -41h-52q0 2 -1 8.5t-2.5 16t-2.5 16.5q-29 -41 -72 -41q-71 0 -71 90v199q0 95 73 95q43 0 67 -38l12 33h59v-320q35 0 46 24t11 81v125q0 91 -37.5 124.5t-123.5 33.5
t-124 -44.5t-38 -144.5v-154q0 -91 43 -128.5t124 -37.5q82 0 161 33l18 -53q-67 -42 -180 -42zM253 123q15 0 29 8v235q-17 10 -30 10q-28 0 -28 -39v-178q0 -20 6.5 -28t22.5 -8z" />
    <glyph glyph-name="A" unicode="A" horiz-adv-x="266" 
d="M114 370l-14 -198h63l-14 198q-3 29 -18 286q-3 -43 -9 -152.5t-8 -133.5zM175 0l-7 97h-73l-7 -97h-85l73 714h119l68 -714h-88z" />
    <glyph glyph-name="B" unicode="B" horiz-adv-x="286" 
d="M134 0h-108v714h108q62 0 93.5 -35.5t31.5 -114.5v-88q0 -94 -49 -124q50 -30 50 -115v-88q0 -149 -126 -149zM130 635h-20v-250h17q28 0 38 15t10 55v114q0 35 -10 50.5t-35 15.5zM127 315h-17v-236h20q26 0 36 16t10 52v103q0 36 -10.5 50.5t-38.5 14.5z" />
    <glyph glyph-name="C" unicode="C" horiz-adv-x="286" 
d="M260 277v-142q0 -77 -28 -109t-89 -32t-89 32t-28 109v444q0 77 28.5 109t88.5 32t88.5 -32t28.5 -109v-152h-84v161q0 29 -7.5 41t-25.5 12t-25.5 -12t-7.5 -41v-462q0 -29 7.5 -41t25.5 -12t25.5 12t7.5 41v151h84z" />
    <glyph glyph-name="D" unicode="D" horiz-adv-x="286" 
d="M121 0h-95v714h93q73 0 107 -41t34 -129v-372q0 -172 -139 -172zM131 635h-21v-556h21q26 0 35.5 22.5t9.5 69.5v372q0 47 -9.5 69.5t-35.5 22.5z" />
    <glyph glyph-name="E" unicode="E" horiz-adv-x="210" 
d="M205 79v-79h-179v714h179v-79h-95v-235h83v-69h-83v-252h95z" />
    <glyph glyph-name="F" unicode="F" horiz-adv-x="210" 
d="M193 330h-83v-330h-84v714h179v-79h-95v-235h83v-70z" />
    <glyph glyph-name="G" unicode="G" horiz-adv-x="286" 
d="M214 0l-18 42q-26 -48 -77 -48q-41 0 -67 31t-26 99v455q0 75 28.5 108t88.5 33t88.5 -33t28.5 -108v-152h-84v161q0 53 -33 53t-33 -53v-465q0 -50 38 -50q13 0 28 11v198h-35v80h119v-362h-46z" />
    <glyph glyph-name="H" unicode="H" horiz-adv-x="286" 
d="M176 0v315h-66v-315h-84v714h84v-325h66v325h84v-714h-84z" />
    <glyph glyph-name="I" unicode="I" horiz-adv-x="137" 
d="M27 714h84v-714h-84v714z" />
    <glyph glyph-name="J" unicode="J" horiz-adv-x="278" 
d="M18 268h84v-142q0 -29 7.5 -41t25.5 -12q33 0 33 53v588h84v-579q0 -77 -28.5 -109t-88.5 -32q-61 0 -89 32t-28 109v133z" />
    <glyph glyph-name="K" unicode="K" horiz-adv-x="271" 
d="M117 320h-7v-320h-84v714h84v-325h7l65 325h84l-75 -343l76 -371h-84z" />
    <glyph glyph-name="L" unicode="L" horiz-adv-x="196" 
d="M196 0h-170v714h84v-635h86v-79z" />
    <glyph glyph-name="M" unicode="M" horiz-adv-x="360" 
d="M103 222v-222h-77v714h111l44 -399l48 399h105v-714h-82v223q0 118 13 373l-64 -518h-48l-60 510q10 -255 10 -366z" />
    <glyph glyph-name="N" unicode="N" horiz-adv-x="308" 
d="M100 248v-248h-74v714h114l94 -609q-26 282 -26 442v167h74v-714h-106l-87 594q11 -222 11 -346z" />
    <glyph glyph-name="O" unicode="O" horiz-adv-x="286" 
d="M143 720q60 0 88.5 -32t28.5 -109v-444q0 -77 -28.5 -109t-88.5 -32q-61 0 -89 32t-28 109v444q0 77 28.5 109t88.5 32zM176 126v462q0 29 -7.5 41t-25.5 12t-25.5 -12t-7.5 -41v-462q0 -29 7.5 -41t25.5 -12q33 0 33 53z" />
    <glyph glyph-name="P" unicode="P" horiz-adv-x="278" 
d="M131 635h-21v-341h21q25 0 35 17.5t10 54.5v194q0 38 -9.5 56.5t-35.5 18.5zM136 218h-26v-218h-84v714h109q125 0 125 -157v-183q0 -156 -124 -156z" />
    <glyph glyph-name="Q" unicode="Q" horiz-adv-x="286" 
d="M143 720q60 0 88.5 -32t28.5 -109v-444q0 -70 -22.5 -102.5t-70.5 -37.5q6 -34 52 -34q14 0 24 2l5 -57q-24 -8 -54 -8q-89 0 -85 99q-43 7 -63 39.5t-20 98.5v444q0 77 28.5 109t88.5 32zM176 126v462q0 29 -7.5 41t-25.5 12t-25.5 -12t-7.5 -41v-462q0 -29 7.5 -41
t25.5 -12q33 0 33 53z" />
    <glyph glyph-name="R" unicode="R" horiz-adv-x="286" 
d="M131 635h-21v-320h21q25 0 35 18t10 55v172q0 38 -9.5 56.5t-35.5 18.5zM176 0l-41 242h-25v-242h-84v714h109q125 0 125 -157v-161q0 -116 -69 -145q24 -13 38 -73l35 -178h-88z" />
    <glyph glyph-name="S" unicode="S" horiz-adv-x="277" 
d="M255 171v-35q0 -142 -116 -142q-60 0 -89 32.5t-29 104.5v103h84v-111q0 -50 34 -50q32 0 32 58v30q0 39 -12 64.5t-59 97.5q-76 113 -76 210v36q0 151 117 151q56 0 85.5 -31.5t29.5 -119.5v-95h-83v104q0 63 -32 63q-18 0 -26 -14.5t-8 -48.5v-28q0 -47 14 -81.5
t52 -92.5q47 -69 64.5 -109t17.5 -96z" />
    <glyph glyph-name="T" unicode="T" horiz-adv-x="247" 
d="M241 635h-76v-635h-84v635h-75v79h235v-79z" />
    <glyph glyph-name="U" unicode="U" horiz-adv-x="286" 
d="M176 714h84v-579q0 -77 -28.5 -109t-88.5 -32q-61 0 -89 32t-28 109v579h84v-588q0 -29 7.5 -41t25.5 -12q33 0 33 53v588z" />
    <glyph glyph-name="V" unicode="V" horiz-adv-x="265" 
d="M186 0h-111l-74 714h90l28 -382q3 -17 15 -231l15 234l28 379h87z" />
    <glyph glyph-name="W" unicode="W" horiz-adv-x="380" 
d="M57 0l-54 714h87l18 -423q0 -1 0.5 -13.5t1.5 -35.5t1 -45q2 21 4 44.5t3 36t1 13.5l35 423h75l36 -423q0 -1 1 -12.5t2.5 -33.5t2.5 -42q3 71 3 88l19 423h84l-60 -714h-92l-30 393q0 8 -5 78q-1 -17 -2.5 -36.5t-2.5 -29.5t-1 -12l-33 -393h-94z" />
    <glyph glyph-name="X" unicode="X" horiz-adv-x="256" 
d="M161 0l-43 252l-37 -252h-80q-1 0 14 65.5t35.5 153.5t32.5 135l-78 360h95q29 -169 45 -256l35 256h77q-55 -264 -78 -355l77 -359h-95z" />
    <glyph glyph-name="Y" unicode="Y" horiz-adv-x="258" 
d="M170 0h-85v192l-84 522h89l42 -395q5 53 15.5 154t17.5 169.5t7 71.5h86l-88 -527v-187z" />
    <glyph glyph-name="Z" unicode="Z" horiz-adv-x="207" 
d="M8 0v67l105 570q-13 -2 -39 -2h-66v79h191v-53l-109 -585q26 4 40 4h70v-80h-192z" />
    <glyph glyph-name="bracketleft" unicode="[" horiz-adv-x="151" 
d="M102 -75h29v-69h-104v955h104v-69h-29v-817z" />
    <glyph glyph-name="backslash" unicode="\" horiz-adv-x="206" 
d="M61 714l141 -714h-56l-141 714h56z" />
    <glyph glyph-name="bracketright" unicode="]" horiz-adv-x="151" 
d="M49 -75v817h-30v69h105v-955h-105v69h30z" />
    <glyph glyph-name="asciicircum" unicode="^" horiz-adv-x="216" 
d="M145 219l-36 438l-38 -438h-61l59 495h80l58 -495h-62z" />
    <glyph glyph-name="underscore" unicode="_" horiz-adv-x="280" 
d="M18 -114v66h56v-66h-56zM112 -114v66h56v-66h-56zM262 -114h-56v66h56v-66z" />
    <glyph glyph-name="grave" unicode="`" horiz-adv-x="240" 
d="M158 595h-39l-37 119h65z" />
    <glyph glyph-name="a" unicode="a" 
d="M180 0q-5 16 -8 33q-30 -39 -73 -39q-76 0 -76 94v116q0 64 38.5 92.5t104.5 20.5v120q0 31 -6.5 42.5t-22.5 11.5q-17 0 -23.5 -12t-6.5 -42v-73h-82v71q0 72 26.5 101.5t85.5 29.5q61 0 87 -31t26 -105v-430h-70zM136 70q16 0 30 8v185q-31 -1 -45 -12.5t-14 -42.5v-95
q0 -43 29 -43z" />
    <glyph glyph-name="b" unicode="b" 
d="M176 -6q-46 0 -75 35q-1 -4 -7 -29h-71v714h84v-175q29 27 68 27q75 0 75 -92v-391q0 -44 -20 -66.5t-54 -22.5zM138 70q28 0 28 36v348q0 36 -29 36q-17 0 -30 -9v-402q13 -9 31 -9z" />
    <glyph glyph-name="c" unicode="c" 
d="M250 203v-75q0 -76 -28 -105t-85 -29t-85.5 29t-28.5 105v304q0 76 28.5 105t85.5 29t85 -29t28 -105v-70h-84v81q0 26 -6.5 37t-22.5 11q-30 0 -30 -48v-326q0 -26 6.5 -36.5t23.5 -10.5q16 0 22.5 10.5t6.5 36.5v86h84z" />
    <glyph glyph-name="d" unicode="d" 
d="M180 0q-3 9 -7 29q-29 -35 -76 -35q-74 0 -74 89v391q0 92 74 92q44 0 69 -27v175h84v-714h-70zM136 70q16 0 30 9v402q-14 9 -30 9q-29 0 -29 -35v-349q0 -36 29 -36z" />
    <glyph glyph-name="e" unicode="e" 
d="M107 443v-132h59v132q0 26 -6.5 36.5t-22.5 10.5t-23 -10.5t-7 -36.5zM250 128q0 -76 -28 -105t-85 -29t-85.5 29t-28.5 105v304q0 76 28.5 105t85.5 29t85 -29t28 -105v-177h-143v-138q0 -26 6.5 -36.5t23.5 -10.5q16 0 22.5 10.5t6.5 36.5v92h84v-81z" />
    <glyph glyph-name="f" unicode="f" horiz-adv-x="148" 
d="M146 486h-36v-486h-84v486h-28v74h28v57q0 57 20 79.5t61 22.5q27 0 47 -5v-68h-10q-21 0 -27.5 -8t-6.5 -28v-50h36v-74z" />
    <glyph glyph-name="g" unicode="g" 
d="M166 443q0 26 -6.5 36.5t-22.5 10.5t-22.5 -10.5t-6.5 -36.5v-224q0 -26 6.5 -36.5t22.5 -10.5t22.5 10.5t6.5 36.5v224zM268 -44q0 -47 -31.5 -76.5t-94.5 -29.5q-128 0 -128 77q0 42 46 68q-32 20 -32 58q0 36 36 60q-40 29 -40 116v203q0 76 28 105t85 29q56 0 83 -26
q15 26 50 26q7 0 7 -7q0 -26 -4 -68q-6 0 -27 -7q4 -19 4 -52v-203q0 -76 -28 -104.5t-85 -28.5q-24 0 -40 4q-8 -8 -8 -15q0 -14 16.5 -20t69.5 -12q93 -12 93 -97zM141 -89q55 0 55 34q0 14 -12 20t-45 9q-29 3 -49 9q-13 -13 -13 -34q0 -38 64 -38z" />
    <glyph glyph-name="h" unicode="h" 
d="M138 490q-15 0 -31 -8v-482h-84v714h84v-182q28 34 70 34q73 0 73 -89v-477h-84v456q0 19 -6 26.5t-22 7.5z" />
    <glyph glyph-name="i" unicode="i" horiz-adv-x="132" 
d="M24 714h84v-119h-84v119zM24 560h84v-560h-84v560z" />
    <glyph glyph-name="j" unicode="j" horiz-adv-x="131" 
d="M24 714h84v-118h-84v118zM108 560v-605q0 -57 -20 -79.5t-61 -22.5q-27 0 -47 5v69h10q21 0 27.5 7.5t6.5 27.5v598h84z" />
    <glyph glyph-name="k" unicode="k" horiz-adv-x="252" 
d="M256 0h-86l-55 261h-8v-261h-84v714h84v-400h7l59 246h85l-74 -253z" />
    <glyph glyph-name="l" unicode="l" horiz-adv-x="131" 
d="M24 714h84v-714h-84v714z" />
    <glyph glyph-name="m" unicode="m" horiz-adv-x="415" 
d="M107 0h-84v560h71q6 -25 7 -29q29 35 76 35q46 0 64 -38q27 38 78 38q73 0 73 -87v-479h-84v455q0 35 -27 35q-17 0 -31 -8v-482h-84v455q0 35 -27 35q-19 0 -32 -9v-481z" />
    <glyph glyph-name="n" unicode="n" 
d="M107 0h-84v560h71q6 -25 7 -29q29 35 76 35q33 0 53 -22t20 -67v-477h-84v454q0 36 -28 36q-18 0 -31 -9v-481z" />
    <glyph glyph-name="o" unicode="o" 
d="M250 432v-304q0 -76 -28 -105t-85 -29t-85.5 29t-28.5 105v304q0 76 28.5 105t85.5 29t85 -29t28 -105zM137 490q-16 0 -23 -10.5t-7 -36.5v-326q0 -26 6.5 -36.5t23.5 -10.5q16 0 22.5 10.5t6.5 36.5v326q0 26 -6.5 36.5t-22.5 10.5z" />
    <glyph glyph-name="p" unicode="p" 
d="M177 -6q-41 0 -70 27v-165h-84v704h71q6 -25 7 -29q28 35 76 35q33 0 53 -23t20 -67v-392q0 -90 -73 -90zM138 70q28 0 28 36v348q0 36 -28 36q-15 0 -31 -8v-403q15 -9 31 -9z" />
    <glyph glyph-name="q" unicode="q" 
d="M250 -144h-84v166q-28 -28 -69 -28q-74 0 -74 93v390q0 89 74 89q48 0 76 -35q4 20 7 29h70v-704zM136 70q16 0 30 9v402q-14 9 -30 9q-29 0 -29 -36v-348q0 -36 29 -36z" />
    <glyph glyph-name="r" unicode="r" horiz-adv-x="182" 
d="M107 0h-84v560h67q6 -21 10 -48q22 52 64 52q8 0 16 -3v-89h-25q-37 0 -48 -24v-448z" />
    <glyph glyph-name="s" unicode="s" horiz-adv-x="259" 
d="M159 114q0 63 -64 141q-79 92 -79 180q0 131 113 131q60 0 86.5 -29t26.5 -99v-62h-83v61q0 32 -6 44t-23 12q-30 0 -30 -49q0 -62 67 -143q76 -94 76 -175q0 -132 -115 -132q-59 0 -85.5 29.5t-26.5 99.5v58h84v-65q0 -26 6.5 -37.5t23.5 -11.5q29 0 29 47z" />
    <glyph glyph-name="t" unicode="t" horiz-adv-x="151" 
d="M151 0q-18 -5 -48 -5q-73 0 -73 95v396h-26v74h26v106l84 10v-116h37v-74h-37v-387q0 -17 5.5 -23.5t20.5 -6.5h11v-69z" />
    <glyph glyph-name="u" unicode="u" 
d="M180 0q-5 16 -8 32q-28 -38 -75 -38q-33 0 -53.5 22t-20.5 67v477h84v-454q0 -36 28 -36q17 0 31 8v482h84v-560h-70z" />
    <glyph glyph-name="v" unicode="v" horiz-adv-x="246" 
d="M177 0h-111l-65 560h84l40 -480l38 480h82z" />
    <glyph glyph-name="w" unicode="w" horiz-adv-x="356" 
d="M43 0l-44 560h88l16 -377q0 -1 0.5 -11t1 -29.5t0.5 -35.5q1 16 2.5 35.5t2.5 29.5t1 11l30 377h75l30 -377q0 -1 6 -81q3 60 3 81l17 377h85l-55 -560h-98l-23 342l-1 8q0 8 -1 23.5t-2 29.5q-1 -15 -2 -29.5t-2 -22.5l-1 -8l-27 -343h-102z" />
    <glyph glyph-name="x" unicode="x" horiz-adv-x="246" 
d="M151 0l-38 191l-38 -191h-74q56 203 78 279l-74 281h90l41 -194l35 194h73q-55 -213 -73 -284l71 -276h-91z" />
    <glyph glyph-name="y" unicode="y" horiz-adv-x="246" 
d="M177 0q-10 -76 -44.5 -104t-100.5 -28v67q36 1 53 16t18 49h-37l-65 560h84l40 -480l38 480h82z" />
    <glyph glyph-name="z" unicode="z" horiz-adv-x="199" 
d="M13 0v67l87 423q-12 -2 -36 -2h-51v72h172v-67l-88 -424q30 4 41 4h47v-73h-172z" />
    <glyph glyph-name="braceleft" unicode="{" horiz-adv-x="156" 
d="M70 -148q-38 79 -38 253q0 108 20 184h-33v79h33q-20 75 -20 183q0 174 38 253l54 -14q-13 -81 -13 -220q0 -26 1.5 -65t2 -61.5t-1.5 -48.5t-9.5 -42t-21.5 -25q14 -9 21.5 -25t9.5 -42t1.5 -48.5t-2 -61.5t-1.5 -65q0 -139 13 -220z" />
    <glyph glyph-name="bar" unicode="|" horiz-adv-x="132" 
d="M34 800h64v-944h-64v944z" />
    <glyph glyph-name="braceright" unicode="}" horiz-adv-x="156" 
d="M125 105q0 -177 -39 -253l-53 14q13 81 13 220q0 26 -1.5 65t-2 61.5t1.5 48.5t9.5 42t21.5 25q-14 9 -21.5 25t-9.5 42t-1.5 48.5t2 61.5t1.5 65q0 129 -13 220l53 14q39 -76 39 -253q0 -105 -21 -183h34v-79h-33q20 -76 20 -184z" />
    <glyph glyph-name="asciitilde" unicode="~" horiz-adv-x="305" 
d="M194 213q-43 0 -62 24t-19 83v295q0 27 -4.5 36t-14.5 9q-12 0 -16.5 -9t-4.5 -36v-395h-49v390q0 62 21.5 86t64.5 24t63 -24t20 -86v-293q0 -27 4 -35.5t15 -8.5q12 0 16 9t4 35v397h50v-394q0 -59 -22.5 -83t-65.5 -24z" />
    <glyph glyph-name="uni00A0" unicode="&#xa0;" horiz-adv-x="85" 
 />
    <glyph glyph-name="exclamdown" unicode="&#xa1;" horiz-adv-x="136" 
d="M110 -144h-84v191q0 36 5 112t11 133l5 58h44q19 -221 19 -303v-191zM27 560h84v-146h-84v146z" />
    <glyph glyph-name="cent" unicode="&#xa2;" horiz-adv-x="278" 
d="M254 280v-75q0 -71 -24.5 -101t-73.5 -33v-50h-33v50q-48 4 -72 34t-24 100v304q0 69 24 99t72 34v51h33v-51q49 -3 73.5 -32.5t24.5 -100.5v-70h-84v81q0 26 -6.5 37t-22.5 11q-30 0 -30 -48v-326q0 -26 6.5 -36.5t23.5 -10.5q16 0 22.5 10.5t6.5 36.5v86h84z" />
    <glyph glyph-name="sterling" unicode="&#xa3;" horiz-adv-x="283" 
d="M263 150v-73h-247v66l59 2q-9 36 -21 96h-35v33h29l-6 39h-23v34h18q-11 83 -11 131v28q0 74 28 105.5t89 31.5q60 0 88 -30.5t28 -106.5v-118h-84v124q0 31 -6.5 44.5t-25.5 13.5t-26 -13.5t-7 -44.5v-48q0 -56 4 -117h76v-34h-73l3 -39h70v-33h-67q10 -81 12 -95z" />
    <glyph glyph-name="currency" unicode="&#xa4;" horiz-adv-x="276" 
d="M138 488q-17 0 -23 -11.5t-6 -42.5v-154q0 -31 6 -42t23 -11q18 0 24 11t6 42v154q0 31 -6 42.5t-24 11.5zM138 155q-14 0 -21 1q-9 -34 -6 -82h-65q-1 56 20 99q-41 29 -41 115v138q0 87 41 115q-21 43 -20 99h65q-3 -48 6 -82q7 1 21 1q15 0 21 -1q10 33 7 82h64
q1 -58 -19 -99q41 -28 41 -115v-138q0 -86 -41 -115q20 -41 19 -99h-64q3 49 -7 82q-6 -1 -21 -1z" />
    <glyph glyph-name="yen" unicode="&#xa5;" horiz-adv-x="263" 
d="M245 235h-73v-159h-84v159h-69v34h65l-6 29h-59v34h52l-63 305h83l43 -331q0 2 21.5 166t21.5 165h80l-67 -305h55v-34h-62l-6 -29h68v-34z" />
    <glyph glyph-name="brokenbar" unicode="&#xa6;" horiz-adv-x="138" 
d="M36 800h66l-11 -444h-44zM47 300h44l11 -444h-66z" />
    <glyph glyph-name="section" unicode="&#xa7;" horiz-adv-x="270" 
d="M101 372q0 -26 9.5 -45t39.5 -44q19 24 19 54q0 27 -9.5 46t-39.5 44q-19 -24 -19 -55zM132 -6q-56 0 -82.5 30.5t-26.5 99.5v68h82v-65q0 -29 6 -43t23 -14q30 0 30 48q0 33 -11.5 54.5t-50.5 52.5q-38 30 -54.5 61.5t-16.5 77.5q0 59 47 98q-55 52 -55 127
q0 126 115 126q55 0 82 -31t27 -99v-73h-82v70q0 29 -6 43t-23 14q-30 0 -30 -48q0 -35 11.5 -56.5t50.5 -52.5q38 -30 54.5 -60.5t16.5 -76.5q0 -58 -47 -97q55 -53 55 -128q0 -126 -115 -126z" />
    <glyph glyph-name="dieresis" unicode="&#xa8;" horiz-adv-x="201" 
d="M117 714h49v-119h-49v119zM35 714h49v-119h-49v119z" />
    <glyph glyph-name="copyright" unicode="&#xa9;" horiz-adv-x="348" 
d="M261 321v-75q0 -61 -20.5 -84t-66.5 -23q-45 0 -65.5 23t-20.5 84v223q0 61 20.5 84.5t65.5 23.5t66 -23.5t21 -84.5v-78h-61v84q0 25 -6 35t-20 10q-26 0 -26 -45v-234q0 -45 26 -45q14 0 20 9.5t6 35.5v80h61zM319 231q0 -80 -37.5 -120t-107.5 -40q-69 0 -107 40.5
t-38 119.5v252q0 79 38 119.5t107 40.5q70 0 107.5 -40t37.5 -120v-252zM174 101q59 0 87 30.5t28 99.5v252q0 67 -27.5 99t-87.5 32t-87 -32t-27 -99v-252q0 -69 28 -99.5t86 -30.5z" />
    <glyph glyph-name="ordfeminine" unicode="&#xaa;" horiz-adv-x="242" 
d="M123 449q15 0 24 16v74q-52 0 -52 -42v-8q0 -40 28 -40zM164 395q-3 6 -11 28q-20 -32 -62 -32q-31 0 -50.5 21t-19.5 63v11q0 45 34 70t92 23v41q0 40 -26 40q-25 0 -25 -40v-22h-72v21q0 48 25 74.5t73 26.5q99 0 99 -103v-222h-57zM32 321v37h184v-37h-184z" />
    <glyph glyph-name="guillemotleft" unicode="&#xab;" horiz-adv-x="230" 
d="M124 121h-65l-51 103l51 104h65l-52 -104zM218 121h-65l-51 103l51 104h65l-53 -104z" />
    <glyph glyph-name="logicalnot" unicode="&#xac;" horiz-adv-x="258" 
d="M248 122h-75v80h-163v74h238v-154z" />
    <glyph glyph-name="registered" unicode="&#xae;" horiz-adv-x="348" 
d="M319 231q0 -80 -37.5 -120t-107.5 -40q-69 0 -107 40.5t-38 119.5v252q0 79 38 119.5t107 40.5q70 0 107.5 -40t37.5 -120v-252zM174 101q59 0 87 30.5t28 99.5v252q0 67 -27.5 99t-87.5 32t-87 -32t-27 -99v-252q0 -69 28 -99.5t86 -30.5zM153 262v-104h-60v399h79
q46 0 67.5 -26.5t21.5 -86.5v-71q0 -70 -31 -95q7 -11 12 -32l21 -88h-66l-17 104h-27zM167 502h-14v-188h14q22 0 28 11t6 39v87q0 27 -6.5 39t-27.5 12z" />
    <glyph glyph-name="macron" unicode="&#xaf;" horiz-adv-x="202" 
d="M35 639h132v-44h-132v44z" />
    <glyph glyph-name="degree" unicode="&#xb0;" horiz-adv-x="254" 
d="M231 611v-6q0 -108 -104 -108q-53 0 -78.5 25t-25.5 83v6q0 109 104 109q52 0 78 -25.5t26 -83.5zM127 557q33 0 33 44v16q0 44 -33 44q-32 0 -32 -44v-16q0 -44 32 -44z" />
    <glyph glyph-name="plusminus" unicode="&#xb1;" horiz-adv-x="258" 
d="M248 257h-82v-71h-75v71h-81v73h81v70h75v-70h82v-73zM10 84v72h238v-72h-238z" />
    <glyph glyph-name="twosuperior" unicode="&#xb2;" horiz-adv-x="240" 
d="M17 397v60q42 30 57 41.5t37.5 32t29.5 38t7 38.5v14q0 37 -28 37q-29 0 -29 -45v-55h-73v47q0 56 26.5 85.5t75.5 29.5t75.5 -25t26.5 -68v-17q0 -86 -121 -151l122 4v-66h-206z" />
    <glyph glyph-name="threesuperior" unicode="&#xb3;" horiz-adv-x="242" 
d="M223 501q0 -51 -27 -80.5t-75 -29.5q-50 0 -76 25t-26 69v37h74v-28q0 -41 28 -41q29 0 29 44v28q0 40 -33 40q-19 0 -41 -20l-31 36l84 71l-108 -4v66h198v-51l-71 -50q34 -1 54.5 -24t20.5 -67v-21z" />
    <glyph glyph-name="acute" unicode="&#xb4;" horiz-adv-x="240" 
d="M81 595l11 119h65l-37 -119h-39z" />
    <glyph glyph-name="paragraph" unicode="&#xb6;" horiz-adv-x="326" 
d="M245 714h53v-714h-53v714zM208 714v-713h-54v184h-11q-26 0 -44 6t-35.5 23.5t-26.5 55t-9 94.5v159q0 107 30.5 149t99.5 42h50z" />
    <glyph glyph-name="periodcentered" unicode="&#xb7;" horiz-adv-x="127" 
d="M22 334h84v-146h-84v146z" />
    <glyph glyph-name="cedilla" unicode="&#xb8;" horiz-adv-x="292" 
d="M195 -67q0 -29 -18 -41.5t-73 -9.5v35h30q24 0 24 16q0 14 -24 14h-20v92h32v-59q49 -2 49 -47z" />
    <glyph glyph-name="onesuperior" unicode="&#xb9;" horiz-adv-x="236" 
d="M213 397h-190v60h58v146h-58v57h34q49 0 49 60h49v-263h58v-60z" />
    <glyph glyph-name="ordmasculine" unicode="&#xba;" horiz-adv-x="242" 
d="M31 321v37h180v-37h-180zM224 586v-61q0 -134 -103 -134q-52 0 -76.5 30.5t-24.5 103.5v61q0 134 101 134q53 0 78 -31t25 -103zM150 502v108q0 48 -29 48q-15 0 -21 -11t-6 -37v-108q0 -27 5.5 -38t21.5 -11q29 0 29 49z" />
    <glyph glyph-name="guillemotright" unicode="&#xbb;" horiz-adv-x="230" 
d="M76 121h-65l53 103l-53 104h65l52 -104zM170 121h-65l53 103l-53 104h65l51 -104z" />
    <glyph glyph-name="onequarter" unicode="&#xbc;" horiz-adv-x="271" 
d="M230 397h-190v60h58v146h-58v57h34q49 0 49 60h49v-263h58v-60zM132 129q0 51 2 125l-61 -162h59v37zM241 34h-36v-44h-73v44h-112l-3 47q6 15 15 39.5t28.5 76t31.5 85.5l13 35h100v-225h36v-58zM0 343v32h271v-32h-271z" />
    <glyph glyph-name="onehalf" unicode="&#xbd;" horiz-adv-x="271" 
d="M230 397h-190v60h58v146h-58v57h34q49 0 49 60h49v-263h58v-60zM33 0v60q42 30 57 41.5t37.5 32t29.5 38t7 38.5v14q0 37 -28 37q-29 0 -29 -45v-55h-73v47q0 56 26.5 85.5t75.5 29.5t75.5 -25t26.5 -68v-17q0 -86 -121 -151l122 4v-66h-206zM0 343v32h271v-32h-271z" />
    <glyph glyph-name="threequarters" unicode="&#xbe;" horiz-adv-x="271" 
d="M235 34h-36v-44h-73v44h-112l-3 47q6 15 15 39.5t28.5 76t31.5 85.5l13 35h100v-225h36v-58zM235 501q0 -51 -27 -80.5t-75 -29.5q-50 0 -76 25t-26 69v37h74v-28q0 -41 28 -41q29 0 29 44v28q0 40 -33 40q-19 0 -41 -20l-31 36l84 71l-108 -4v66h198v-51l-71 -50
q34 -1 54.5 -24t20.5 -67v-21zM0 343v32h271v-32h-271zM126 129q0 51 2 125l-61 -162h59v37z" />
    <glyph glyph-name="questiondown" unicode="&#xbf;" horiz-adv-x="272" 
d="M140 -145q-61 0 -89 32t-28 110v71q0 124 85 148q4 79 12 132h51q16 -102 16 -187q-39 0 -59 -21t-20 -71v-81q0 -54 32 -54q18 0 25.5 12t7.5 42v93h85v-84q0 -78 -28 -110t-90 -32zM104 560h84v-146h-84v146z" />
    <glyph glyph-name="Agrave" unicode="&#xc0;" horiz-adv-x="266" 
d="M114 370l-14 -198h63l-14 198q-3 29 -18 286q-3 -43 -9 -152.5t-8 -133.5zM175 0l-7 97h-73l-7 -97h-85l73 714h119l68 -714h-88zM161 734h-53l-32 48h65z" />
    <glyph glyph-name="Aacute" unicode="&#xc1;" horiz-adv-x="266" 
d="M114 370l-14 -198h63l-14 198q-3 29 -18 286q-3 -43 -9 -152.5t-8 -133.5zM175 0l-7 97h-73l-7 -97h-85l73 714h119l68 -714h-88zM114 734l20 48h65l-32 -48h-53z" />
    <glyph glyph-name="Acircumflex" unicode="&#xc2;" horiz-adv-x="266" 
d="M114 370l-14 -198h63l-14 198q-3 29 -18 286q-3 -43 -9 -152.5t-8 -133.5zM175 0l-7 97h-73l-7 -97h-85l73 714h119l68 -714h-88zM151 734l-17 26l-17 -26h-45l32 48h60l32 -48h-45z" />
    <glyph glyph-name="Atilde" unicode="&#xc3;" horiz-adv-x="266" 
d="M175 0l-7 97h-73l-7 -97h-85l73 714h119l68 -714h-88zM114 370l-14 -198h63l-14 198q-3 29 -18 286q-3 -43 -9 -152.5t-8 -133.5zM118 762h-7q0 -26 1 -28h-37q-3 10 -3 19q0 41 42 41q32 0 43 -27h5v27h37q0 -2 1 -5.5t1.5 -6.5t0.5 -6q0 -42 -42 -42q-32 0 -42 28z" />
    <glyph glyph-name="Adieresis" unicode="&#xc4;" horiz-adv-x="266" 
d="M114 370l-14 -198h63l-14 198q-3 29 -18 286q-3 -43 -9 -152.5t-8 -133.5zM175 0l-7 97h-73l-7 -97h-85l73 714h119l68 -714h-88zM53 734v45h71v-45h-71zM148 734v45h71v-45h-71z" />
    <glyph glyph-name="Aring" unicode="&#xc5;" horiz-adv-x="266" 
d="M114 370l-14 -198h63l-14 198q-3 29 -18 286q-3 -43 -9 -152.5t-8 -133.5zM175 0l-7 97h-73l-7 -97h-85l73 714h119l68 -714h-88zM186 776q0 -42 -43 -42h-15q-44 0 -44 42t44 42h15q43 0 43 -42zM156 776q0 15 -18 15h-6q-17 0 -17 -15t17 -15h6q18 0 18 15z" />
    <glyph glyph-name="AE" unicode="&#xc6;" horiz-adv-x="345" 
d="M123 307l-17 -145h54v478h-7q-7 -139 -30 -333zM160 0v87h-63l-10 -87h-88l96 714h244v-79h-95v-235h83v-69h-83v-252h95v-79h-179z" />
    <glyph glyph-name="Ccedilla" unicode="&#xc7;" horiz-adv-x="286" 
d="M200 -67q0 -29 -18 -41.5t-73 -9.5v35h30q24 0 24 16q0 14 -24 14h-20v48q-48 5 -70.5 37.5t-22.5 102.5v444q0 77 28.5 109t88.5 32t88.5 -32t28.5 -109v-152h-84v161q0 29 -7.5 41t-25.5 12t-25.5 -12t-7.5 -41v-462q0 -29 7.5 -41t25.5 -12t25.5 12t7.5 41v151h84
v-142q0 -75 -26 -107t-83 -34v-14q49 -2 49 -47z" />
    <glyph glyph-name="Egrave" unicode="&#xc8;" horiz-adv-x="210" 
d="M205 79v-79h-179v714h179v-79h-95v-235h83v-69h-83v-252h95zM148 734h-53l-32 48h65z" />
    <glyph glyph-name="Eacute" unicode="&#xc9;" horiz-adv-x="210" 
d="M205 79v-79h-179v714h179v-79h-95v-235h83v-69h-83v-252h95zM92 734l20 48h65l-32 -48h-53z" />
    <glyph glyph-name="Ecircumflex" unicode="&#xca;" horiz-adv-x="210" 
d="M205 79v-79h-179v714h179v-79h-95v-235h83v-69h-83v-252h95zM136 734l-17 26l-17 -26h-45l32 48h60l32 -48h-45z" />
    <glyph glyph-name="Edieresis" unicode="&#xcb;" horiz-adv-x="210" 
d="M205 79v-79h-179v714h179v-79h-95v-235h83v-69h-83v-252h95zM35 734v45h71v-45h-71zM130 734v45h71v-45h-71z" />
    <glyph glyph-name="Igrave" unicode="&#xcc;" horiz-adv-x="137" 
d="M27 714h84v-714h-84v714zM96 734h-53l-32 48h65z" />
    <glyph glyph-name="Iacute" unicode="&#xcd;" horiz-adv-x="137" 
d="M27 714h84v-714h-84v714zM45 734l20 48h65l-32 -48h-53z" />
    <glyph glyph-name="Icircumflex" unicode="&#xce;" horiz-adv-x="137" 
d="M27 714h84v-714h-84v714zM87 734l-17 26l-17 -26h-45l32 48h60l32 -48h-45z" />
    <glyph glyph-name="Idieresis" unicode="&#xcf;" horiz-adv-x="137" 
d="M27 714h84v-714h-84v714zM-14 734v45h71v-45h-71zM81 734v45h71v-45h-71z" />
    <glyph glyph-name="Eth" unicode="&#xd0;" horiz-adv-x="287" 
d="M-4 314v74h31v326h93q73 0 107 -41t34 -129v-372q0 -172 -139 -172h-95v314h-31zM132 635h-21v-247h33v-74h-33v-235h21q26 0 35.5 22.5t9.5 69.5v372q0 47 -9.5 69.5t-35.5 22.5z" />
    <glyph glyph-name="Ntilde" unicode="&#xd1;" horiz-adv-x="308" 
d="M100 248v-248h-74v714h114l94 -609q-26 282 -26 442v167h74v-714h-106l-87 594q11 -222 11 -346zM146 762h-7q0 -26 1 -28h-37q-3 10 -3 19q0 41 42 41q32 0 43 -27h5v27h37q0 -2 1 -5.5t1.5 -6.5t0.5 -6q0 -42 -42 -42q-32 0 -42 28z" />
    <glyph glyph-name="Ograve" unicode="&#xd2;" horiz-adv-x="286" 
d="M143 720q60 0 88.5 -32t28.5 -109v-444q0 -77 -28.5 -109t-88.5 -32q-61 0 -89 32t-28 109v444q0 77 28.5 109t88.5 32zM176 126v462q0 29 -7.5 41t-25.5 12t-25.5 -12t-7.5 -41v-462q0 -29 7.5 -41t25.5 -12q33 0 33 53zM169 734h-53l-32 48h65z" />
    <glyph glyph-name="Oacute" unicode="&#xd3;" horiz-adv-x="286" 
d="M143 720q60 0 88.5 -32t28.5 -109v-444q0 -77 -28.5 -109t-88.5 -32q-61 0 -89 32t-28 109v444q0 77 28.5 109t88.5 32zM176 126v462q0 29 -7.5 41t-25.5 12t-25.5 -12t-7.5 -41v-462q0 -29 7.5 -41t25.5 -12q33 0 33 53zM124 734l20 48h65l-32 -48h-53z" />
    <glyph glyph-name="Ocircumflex" unicode="&#xd4;" horiz-adv-x="286" 
d="M143 720q60 0 88.5 -32t28.5 -109v-444q0 -77 -28.5 -109t-88.5 -32q-61 0 -89 32t-28 109v444q0 77 28.5 109t88.5 32zM176 126v462q0 29 -7.5 41t-25.5 12t-25.5 -12t-7.5 -41v-462q0 -29 7.5 -41t25.5 -12q33 0 33 53zM156 734l-17 26l-17 -26h-45l32 48h60l32 -48
h-45z" />
    <glyph glyph-name="Otilde" unicode="&#xd5;" horiz-adv-x="286" 
d="M143 720q60 0 88.5 -32t28.5 -109v-444q0 -77 -28.5 -109t-88.5 -32q-61 0 -89 32t-28 109v444q0 77 28.5 109t88.5 32zM176 126v462q0 29 -7.5 41t-25.5 12t-25.5 -12t-7.5 -41v-462q0 -29 7.5 -41t25.5 -12q33 0 33 53zM126 762h-7q0 -26 1 -28h-37q-3 10 -3 19
q0 41 42 41q32 0 43 -27h5v27h37q0 -2 1 -5.5t1.5 -6.5t0.5 -6q0 -42 -42 -42q-32 0 -42 28z" />
    <glyph glyph-name="Odieresis" unicode="&#xd6;" horiz-adv-x="286" 
d="M143 720q60 0 88.5 -32t28.5 -109v-444q0 -77 -28.5 -109t-88.5 -32q-61 0 -89 32t-28 109v444q0 77 28.5 109t88.5 32zM176 126v462q0 29 -7.5 41t-25.5 12t-25.5 -12t-7.5 -41v-462q0 -29 7.5 -41t25.5 -12q33 0 33 53zM57 734v45h71v-45h-71zM152 734v45h71v-45h-71z
" />
    <glyph glyph-name="multiply" unicode="&#xd7;" horiz-adv-x="256" 
d="M186 131l-58 57l-57 -57l-53 52l58 58l-58 58l53 52l57 -57l58 57l53 -52l-58 -58l58 -58z" />
    <glyph glyph-name="Oslash" unicode="&#xd8;" horiz-adv-x="286" 
d="M143 720q60 0 88.5 -32t28.5 -109v-444q0 -77 -28.5 -109t-88.5 -32q-61 0 -89 32t-28 109v444q0 77 28.5 109t88.5 32zM110 588v-244l66 103v141q0 29 -7.5 41t-25.5 12t-25.5 -12t-7.5 -41zM143 73q33 0 33 53v241l-66 -103v-138q0 -29 7.5 -41t25.5 -12z" />
    <glyph glyph-name="Ugrave" unicode="&#xd9;" horiz-adv-x="286" 
d="M176 714h84v-579q0 -77 -28.5 -109t-88.5 -32q-61 0 -89 32t-28 109v579h84v-588q0 -29 7.5 -41t25.5 -12q33 0 33 53v588zM171 734h-53l-32 48h65z" />
    <glyph glyph-name="Uacute" unicode="&#xda;" horiz-adv-x="286" 
d="M176 714h84v-579q0 -77 -28.5 -109t-88.5 -32q-61 0 -89 32t-28 109v579h84v-588q0 -29 7.5 -41t25.5 -12q33 0 33 53v588zM124 734l20 48h65l-32 -48h-53z" />
    <glyph glyph-name="Ucircumflex" unicode="&#xdb;" horiz-adv-x="286" 
d="M176 714h84v-579q0 -77 -28.5 -109t-88.5 -32q-61 0 -89 32t-28 109v579h84v-588q0 -29 7.5 -41t25.5 -12q33 0 33 53v588zM158 734l-17 26l-17 -26h-45l32 48h60l32 -48h-45z" />
    <glyph glyph-name="Udieresis" unicode="&#xdc;" horiz-adv-x="286" 
d="M57 734v45h71v-45h-71zM152 734v45h71v-45h-71zM176 714h84v-579q0 -77 -28.5 -109t-88.5 -32q-61 0 -89 32t-28 109v579h84v-588q0 -29 7.5 -41t25.5 -12q33 0 33 53v588z" />
    <glyph glyph-name="Yacute" unicode="&#xdd;" horiz-adv-x="258" 
d="M170 0h-85v192l-84 522h89l42 -395q5 53 15.5 154t17.5 169.5t7 71.5h86l-88 -527v-187zM106 734l20 48h65l-32 -48h-53z" />
    <glyph glyph-name="Thorn" unicode="&#xde;" horiz-adv-x="286" 
d="M131 542h-21v-340h21q45 0 45 76v185q0 79 -45 79zM136 126h-26v-126h-84v714h84v-92h25q125 0 125 -162v-174q0 -160 -124 -160z" />
    <glyph glyph-name="germandbls" unicode="&#xdf;" horiz-adv-x="278" 
d="M255 133q0 -74 -28.5 -104t-97.5 -29v74q25 -1 33.5 12t8.5 44v223q0 26 -9 35.5t-33 9.5v73q25 0 33.5 12.5t8.5 42.5v60q0 31 -7 43t-24 12q-19 0 -26 -12t-7 -43v-586h-84v585q0 76 28.5 105.5t88.5 29.5q59 0 87 -29.5t28 -105.5v-38q0 -79 -47 -107q47 -22 47 -95
v-212z" />
    <glyph glyph-name="agrave" unicode="&#xe0;" 
d="M180 0q-5 16 -8 33q-30 -39 -73 -39q-76 0 -76 94v116q0 64 38.5 92.5t104.5 20.5v120q0 31 -6.5 42.5t-22.5 11.5q-17 0 -23.5 -12t-6.5 -42v-73h-82v71q0 72 26.5 101.5t85.5 29.5q61 0 87 -31t26 -105v-430h-70zM136 70q16 0 30 8v185q-31 -1 -45 -12.5t-14 -42.5v-95
q0 -43 29 -43zM158 595h-39l-37 119h65z" />
    <glyph glyph-name="aacute" unicode="&#xe1;" 
d="M180 0q-5 16 -8 33q-30 -39 -73 -39q-76 0 -76 94v116q0 64 38.5 92.5t104.5 20.5v120q0 31 -6.5 42.5t-22.5 11.5q-17 0 -23.5 -12t-6.5 -42v-73h-82v71q0 72 26.5 101.5t85.5 29.5q61 0 87 -31t26 -105v-430h-70zM136 70q16 0 30 8v185q-31 -1 -45 -12.5t-14 -42.5v-95
q0 -43 29 -43zM117 595l11 119h65l-37 -119h-39z" />
    <glyph glyph-name="acircumflex" unicode="&#xe2;" 
d="M180 0q-5 16 -8 33q-30 -39 -73 -39q-76 0 -76 94v116q0 64 38.5 92.5t104.5 20.5v120q0 31 -6.5 42.5t-22.5 11.5q-17 0 -23.5 -12t-6.5 -42v-73h-82v71q0 72 26.5 101.5t85.5 29.5q61 0 87 -31t26 -105v-430h-70zM136 70q16 0 30 8v185q-31 -1 -45 -12.5t-14 -42.5v-95
q0 -43 29 -43zM151 595l-18 86l-19 -86h-45l34 119h60l34 -119h-46z" />
    <glyph glyph-name="atilde" unicode="&#xe3;" 
d="M180 0q-5 16 -8 33q-30 -39 -73 -39q-76 0 -76 94v116q0 64 38.5 92.5t104.5 20.5v120q0 31 -6.5 42.5t-22.5 11.5q-17 0 -23.5 -12t-6.5 -42v-73h-82v71q0 72 26.5 101.5t85.5 29.5q61 0 87 -31t26 -105v-430h-70zM157 594q-22 0 -34 16.5t-13 43.5h-15q-2 -31 0 -59
h-30q-5 19 -5 43q0 65 49 65q43 0 47 -61h15q1 26 -1 57h30q5 -16 5 -41q0 -64 -48 -64zM136 70q16 0 30 8v185q-31 -1 -45 -12.5t-14 -42.5v-95q0 -43 29 -43z" />
    <glyph glyph-name="adieresis" unicode="&#xe4;" 
d="M180 0q-5 16 -8 33q-30 -39 -73 -39q-76 0 -76 94v116q0 64 38.5 92.5t104.5 20.5v120q0 31 -6.5 42.5t-22.5 11.5q-17 0 -23.5 -12t-6.5 -42v-73h-82v71q0 72 26.5 101.5t85.5 29.5q61 0 87 -31t26 -105v-430h-70zM136 70q16 0 30 8v185q-31 -1 -45 -12.5t-14 -42.5v-95
q0 -43 29 -43zM156 714h49v-119h-49v119zM74 714h49v-119h-49v119z" />
    <glyph glyph-name="aring" unicode="&#xe5;" 
d="M180 0q-5 16 -8 33q-30 -39 -73 -39q-76 0 -76 94v116q0 64 38.5 92.5t104.5 20.5v120q0 31 -6.5 42.5t-22.5 11.5q-17 0 -23.5 -12t-6.5 -42v-73h-82v71q0 72 26.5 101.5t85.5 29.5q61 0 87 -31t26 -105v-430h-70zM136 70q16 0 30 8v185q-31 -1 -45 -12.5t-14 -42.5v-95
q0 -43 29 -43zM196 642q0 -53 -49 -53h-17q-52 0 -52 53t52 53h17q49 0 49 -53zM161 642q0 19 -20 19h-8q-19 0 -19 -19t19 -19h8q20 0 20 19z" />
    <glyph glyph-name="ae" unicode="&#xe6;" horiz-adv-x="415" 
d="M280 -6q-78 0 -101 53q-27 -53 -81 -53q-33 0 -54 25.5t-21 71.5v111q0 64 38.5 92.5t104.5 20.5v119q0 32 -6.5 44.5t-22.5 12.5t-23 -12t-7 -43v-73h-82v70q0 73 26.5 103t85.5 30q46 0 71 -18q26 18 72 18q58 0 85.5 -29.5t27.5 -105.5v-184l-143 -1v-128
q0 -27 6.5 -37.5t23.5 -10.5q16 0 22.5 10.5t6.5 37.5v82h84v-71q0 -76 -28 -105.5t-85 -29.5zM138 69q18 0 32 11q-4 19 -4 49v136q-31 0 -44.5 -11t-14.5 -43v-100q0 -42 31 -42zM250 442v-139h59v139q0 48 -29 48q-16 0 -23 -10.5t-7 -37.5z" />
    <glyph glyph-name="ccedilla" unicode="&#xe7;" 
d="M194 -67q0 -29 -18 -41.5t-73 -9.5v35h30q24 0 24 16q0 14 -24 14h-20v49q-45 4 -67.5 34t-22.5 98v304q0 76 28.5 105t85.5 29t85 -29t28 -105v-70h-84v81q0 26 -6.5 37t-22.5 11q-30 0 -30 -48v-326q0 -26 6.5 -36.5t23.5 -10.5q16 0 22.5 10.5t6.5 36.5v86h84v-75
q0 -73 -26 -102.5t-79 -31.5v-14q49 -2 49 -47z" />
    <glyph glyph-name="egrave" unicode="&#xe8;" 
d="M107 443v-132h59v132q0 26 -6.5 36.5t-22.5 10.5t-23 -10.5t-7 -36.5zM250 128q0 -76 -28 -105t-85 -29t-85.5 29t-28.5 105v304q0 76 28.5 105t85.5 29t85 -29t28 -105v-177h-143v-138q0 -26 6.5 -36.5t23.5 -10.5q16 0 22.5 10.5t6.5 36.5v92h84v-81zM153 595h-39
l-37 119h65z" />
    <glyph glyph-name="eacute" unicode="&#xe9;" 
d="M107 443v-132h59v132q0 26 -6.5 36.5t-22.5 10.5t-23 -10.5t-7 -36.5zM250 128q0 -76 -28 -105t-85 -29t-85.5 29t-28.5 105v304q0 76 28.5 105t85.5 29t85 -29t28 -105v-177h-143v-138q0 -26 6.5 -36.5t23.5 -10.5q16 0 22.5 10.5t6.5 36.5v92h84v-81zM114 595l11 119
h65l-37 -119h-39z" />
    <glyph glyph-name="ecircumflex" unicode="&#xea;" 
d="M107 443v-132h59v132q0 26 -6.5 36.5t-22.5 10.5t-23 -10.5t-7 -36.5zM250 128q0 -76 -28 -105t-85 -29t-85.5 29t-28.5 105v304q0 76 28.5 105t85.5 29t85 -29t28 -105v-177h-143v-138q0 -26 6.5 -36.5t23.5 -10.5q16 0 22.5 10.5t6.5 36.5v92h84v-81zM151 595l-18 86
l-19 -86h-45l34 119h60l34 -119h-46z" />
    <glyph glyph-name="edieresis" unicode="&#xeb;" 
d="M152 714h49v-119h-49v119zM70 714h49v-119h-49v119zM107 443v-132h59v132q0 26 -6.5 36.5t-22.5 10.5t-23 -10.5t-7 -36.5zM250 128q0 -76 -28 -105t-85 -29t-85.5 29t-28.5 105v304q0 76 28.5 105t85.5 29t85 -29t28 -105v-177h-143v-138q0 -26 6.5 -36.5t23.5 -10.5
q16 0 22.5 10.5t6.5 36.5v92h84v-81z" />
    <glyph glyph-name="igrave" unicode="&#xec;" horiz-adv-x="132" 
d="M24 560h84v-560h-84v560zM87 595h-39l-37 119h65z" />
    <glyph glyph-name="iacute" unicode="&#xed;" horiz-adv-x="132" 
d="M24 560h84v-560h-84v560zM45 595l11 119h65l-37 -119h-39z" />
    <glyph glyph-name="icircumflex" unicode="&#xee;" horiz-adv-x="132" 
d="M24 560h84v-560h-84v560zM84 595l-18 86l-19 -86h-45l34 119h60l34 -119h-46z" />
    <glyph glyph-name="idieresis" unicode="&#xef;" horiz-adv-x="132" 
d="M24 560h84v-560h-84v560zM82 714h49v-119h-49v119zM0 714h49v-119h-49v119z" />
    <glyph glyph-name="eth" unicode="&#xf0;" 
d="M137 -5q-58 0 -86 29t-28 107v327q0 57 19 82t57 25q35 0 60 -25q-7 35 -25 63l-41 -22l-18 34l34 20q-10 11 -39 38l49 41q25 -18 51 -44l39 22l21 -37l-33 -18q53 -75 53 -198v-308q0 -78 -27.5 -107t-85.5 -29zM137 70q17 0 23 11t6 39v361q-14 8 -29 8
q-18 0 -24 -9.5t-6 -32.5v-327q0 -28 6.5 -39t23.5 -11z" />
    <glyph glyph-name="ntilde" unicode="&#xf1;" 
d="M107 0h-84v560h71q6 -25 7 -29q29 35 76 35q33 0 53 -22t20 -67v-477h-84v454q0 36 -28 36q-18 0 -31 -9v-481zM161 594q-22 0 -34 16.5t-13 43.5h-15q-2 -31 0 -59h-30q-5 19 -5 43q0 65 49 65q43 0 47 -61h15q1 26 -1 57h30q5 -16 5 -41q0 -64 -48 -64z" />
    <glyph glyph-name="ograve" unicode="&#xf2;" 
d="M250 432v-304q0 -76 -28 -105t-85 -29t-85.5 29t-28.5 105v304q0 76 28.5 105t85.5 29t85 -29t28 -105zM137 490q-16 0 -23 -10.5t-7 -36.5v-326q0 -26 6.5 -36.5t23.5 -10.5q16 0 22.5 10.5t6.5 36.5v326q0 26 -6.5 36.5t-22.5 10.5zM158 595h-39l-37 119h65z" />
    <glyph glyph-name="oacute" unicode="&#xf3;" 
d="M250 432v-304q0 -76 -28 -105t-85 -29t-85.5 29t-28.5 105v304q0 76 28.5 105t85.5 29t85 -29t28 -105zM137 490q-16 0 -23 -10.5t-7 -36.5v-326q0 -26 6.5 -36.5t23.5 -10.5q16 0 22.5 10.5t6.5 36.5v326q0 26 -6.5 36.5t-22.5 10.5zM114 595l11 119h65l-37 -119h-39z
" />
    <glyph glyph-name="ocircumflex" unicode="&#xf4;" 
d="M250 432v-304q0 -76 -28 -105t-85 -29t-85.5 29t-28.5 105v304q0 76 28.5 105t85.5 29t85 -29t28 -105zM137 490q-16 0 -23 -10.5t-7 -36.5v-326q0 -26 6.5 -36.5t23.5 -10.5q16 0 22.5 10.5t6.5 36.5v326q0 26 -6.5 36.5t-22.5 10.5zM151 595l-18 86l-19 -86h-45l34 119
h60l34 -119h-46z" />
    <glyph glyph-name="otilde" unicode="&#xf5;" 
d="M250 432v-304q0 -76 -28 -105t-85 -29t-85.5 29t-28.5 105v304q0 76 28.5 105t85.5 29t85 -29t28 -105zM137 490q-16 0 -23 -10.5t-7 -36.5v-326q0 -26 6.5 -36.5t23.5 -10.5q16 0 22.5 10.5t6.5 36.5v326q0 26 -6.5 36.5t-22.5 10.5zM161 594q-22 0 -34 16.5t-13 43.5
h-15q-2 -31 0 -59h-30q-5 19 -5 43q0 65 49 65q43 0 47 -61h15q1 26 -1 57h30q5 -16 5 -41q0 -64 -48 -64z" />
    <glyph glyph-name="odieresis" unicode="&#xf6;" 
d="M250 432v-304q0 -76 -28 -105t-85 -29t-85.5 29t-28.5 105v304q0 76 28.5 105t85.5 29t85 -29t28 -105zM137 490q-16 0 -23 -10.5t-7 -36.5v-326q0 -26 6.5 -36.5t23.5 -10.5q16 0 22.5 10.5t6.5 36.5v326q0 26 -6.5 36.5t-22.5 10.5zM152 714h49v-119h-49v119zM70 714
h49v-119h-49v119z" />
    <glyph glyph-name="divide" unicode="&#xf7;" horiz-adv-x="258" 
d="M129 311q-18 0 -30.5 12.5t-12.5 30.5t12.5 30.5t30.5 12.5t30.5 -12.5t12.5 -30.5t-12.5 -30.5t-30.5 -12.5zM129 86q-18 0 -30.5 12.5t-12.5 30.5t12.5 30.5t30.5 12.5t30.5 -12.5t12.5 -30.5t-12.5 -30.5t-30.5 -12.5zM10 204v75h238v-75h-238z" />
    <glyph glyph-name="oslash" unicode="&#xf8;" 
d="M250 432v-304q0 -76 -28 -105t-85 -29t-85.5 29t-28.5 105v304q0 76 28.5 105t85.5 29t85 -29t28 -105zM137 70q16 0 22.5 10.5t6.5 36.5v170l-59 -93v-77q0 -26 6.5 -36.5t23.5 -10.5zM137 490q-16 0 -23 -10.5t-7 -36.5v-170l59 93v77q0 26 -6.5 36.5t-22.5 10.5z" />
    <glyph glyph-name="ugrave" unicode="&#xf9;" 
d="M180 0q-5 16 -8 32q-28 -38 -75 -38q-33 0 -53.5 22t-20.5 67v477h84v-454q0 -36 28 -36q17 0 31 8v482h84v-560h-70zM157 595h-39l-37 119h65z" />
    <glyph glyph-name="uacute" unicode="&#xfa;" 
d="M180 0q-5 16 -8 32q-28 -38 -75 -38q-33 0 -53.5 22t-20.5 67v477h84v-454q0 -36 28 -36q17 0 31 8v482h84v-560h-70zM115 595l11 119h65l-37 -119h-39z" />
    <glyph glyph-name="ucircumflex" unicode="&#xfb;" 
d="M180 0q-5 16 -8 32q-28 -38 -75 -38q-33 0 -53.5 22t-20.5 67v477h84v-454q0 -36 28 -36q17 0 31 8v482h84v-560h-70zM155 595l-18 86l-19 -86h-45l34 119h60l34 -119h-46z" />
    <glyph glyph-name="udieresis" unicode="&#xfc;" 
d="M180 0q-5 16 -8 32q-28 -38 -75 -38q-33 0 -53.5 22t-20.5 67v477h84v-454q0 -36 28 -36q17 0 31 8v482h84v-560h-70zM71 714h49v-119h-49v119zM153 714h49v-119h-49v119z" />
    <glyph glyph-name="yacute" unicode="&#xfd;" horiz-adv-x="246" 
d="M177 0q-10 -76 -44.5 -104t-100.5 -28v67q36 1 53 16t18 49h-37l-65 560h84l40 -480l38 480h82zM104 595l11 119h65l-37 -119h-39z" />
    <glyph glyph-name="thorn" unicode="&#xfe;" 
d="M136 67q17 0 23.5 8t6.5 26v355q0 20 -6.5 29t-22.5 8q-12 1 -30 -7v-412q16 -7 29 -7zM170 -6q-37 0 -63 24v-162h-84v858h84v-174q28 26 66 26q77 0 77 -90v-388q0 -94 -80 -94z" />
    <glyph glyph-name="ydieresis" unicode="&#xff;" horiz-adv-x="246" 
d="M177 0q-10 -76 -44.5 -104t-100.5 -28v67q36 1 53 16t18 49h-37l-65 560h84l40 -480l38 480h82zM57 714h49v-119h-49v119zM139 714h49v-119h-49v119z" />
    <glyph glyph-name="Amacron" unicode="&#x100;" horiz-adv-x="266" 
d="M114 370l-14 -198h63l-14 198q-3 29 -18 286q-3 -43 -9 -152.5t-8 -133.5zM175 0l-7 97h-73l-7 -97h-85l73 714h119l68 -714h-88zM77 778h112v-44h-112v44z" />
    <glyph glyph-name="amacron" unicode="&#x101;" 
d="M180 0q-5 16 -8 33q-30 -39 -73 -39q-76 0 -76 94v116q0 64 38.5 92.5t104.5 20.5v120q0 31 -6.5 42.5t-22.5 11.5q-17 0 -23.5 -12t-6.5 -42v-73h-82v71q0 72 26.5 101.5t85.5 29.5q61 0 87 -31t26 -105v-430h-70zM136 70q16 0 30 8v185q-31 -1 -45 -12.5t-14 -42.5v-95
q0 -43 29 -43zM66 639h132v-44h-132v44z" />
    <glyph glyph-name="Abreve" unicode="&#x102;" horiz-adv-x="266" 
d="M114 370l-14 -198h63l-14 198q-3 29 -18 286q-3 -43 -9 -152.5t-8 -133.5zM175 0l-7 97h-73l-7 -97h-85l73 714h119l68 -714h-88zM197 782q0 -27 -13.5 -40t-47.5 -13q-36 0 -49.5 13t-13.5 40h41q0 -22 22 -22q20 0 20 22h41z" />
    <glyph glyph-name="abreve" unicode="&#x103;" 
d="M180 0q-5 16 -8 33q-30 -39 -73 -39q-76 0 -76 94v116q0 64 38.5 92.5t104.5 20.5v120q0 31 -6.5 42.5t-22.5 11.5q-17 0 -23.5 -12t-6.5 -42v-73h-82v71q0 72 26.5 101.5t85.5 29.5q61 0 87 -31t26 -105v-430h-70zM136 70q16 0 30 8v185q-31 -1 -45 -12.5t-14 -42.5v-95
q0 -43 29 -43zM195 714v-57q0 -37 -13 -52t-43 -15t-43 15t-13 52v57h41v-62q0 -25 15 -25q16 0 16 25v62h40z" />
    <glyph glyph-name="Aogonek" unicode="&#x104;" horiz-adv-x="266" 
d="M263 0h-31v-48q0 -34 30 -34v-62q-49 -4 -71 13t-22 63v31q0 21 6 38l-7 96h-73l-7 -97h-85l73 714h119zM114 370l-14 -198h63l-14 198q-3 29 -18 286q-3 -43 -9 -152.5t-8 -133.5z" />
    <glyph glyph-name="aogonek" unicode="&#x105;" 
d="M250 0h-29v-48q0 -34 30 -34v-62q-49 -4 -71 13t-22 63v31q0 36 16 58q-2 8 -2 12q-30 -39 -73 -39q-76 0 -76 94v116q0 64 38.5 92.5t104.5 20.5v120q0 31 -6.5 42.5t-22.5 11.5q-17 0 -23.5 -12t-6.5 -42v-73h-82v71q0 72 26.5 101.5t85.5 29.5q61 0 87 -31t26 -105
v-430zM136 70q16 0 30 8v185q-31 -1 -45 -12.5t-14 -42.5v-95q0 -43 29 -43z" />
    <glyph glyph-name="Cacute" unicode="&#x106;" horiz-adv-x="286" 
d="M260 277v-142q0 -77 -28 -109t-89 -32t-89 32t-28 109v444q0 77 28.5 109t88.5 32t88.5 -32t28.5 -109v-152h-84v161q0 29 -7.5 41t-25.5 12t-25.5 -12t-7.5 -41v-462q0 -29 7.5 -41t25.5 -12t25.5 12t7.5 41v151h84zM120 734l20 48h65l-32 -48h-53z" />
    <glyph glyph-name="cacute" unicode="&#x107;" 
d="M250 203v-75q0 -76 -28 -105t-85 -29t-85.5 29t-28.5 105v304q0 76 28.5 105t85.5 29t85 -29t28 -105v-70h-84v81q0 26 -6.5 37t-22.5 11q-30 0 -30 -48v-326q0 -26 6.5 -36.5t23.5 -10.5q16 0 22.5 10.5t6.5 36.5v86h84zM114 595l11 119h65l-37 -119h-39z" />
    <glyph glyph-name="Ccircumflex" unicode="&#x108;" horiz-adv-x="286" 
d="M260 277v-142q0 -77 -28 -109t-89 -32t-89 32t-28 109v444q0 77 28.5 109t88.5 32t88.5 -32t28.5 -109v-152h-84v161q0 29 -7.5 41t-25.5 12t-25.5 -12t-7.5 -41v-462q0 -29 7.5 -41t25.5 -12t25.5 12t7.5 41v151h84zM156 734l-17 26l-17 -26h-45l32 48h60l32 -48h-45z
" />
    <glyph glyph-name="ccircumflex" unicode="&#x109;" 
d="M250 203v-75q0 -76 -28 -105t-85 -29t-85.5 29t-28.5 105v304q0 76 28.5 105t85.5 29t85 -29t28 -105v-70h-84v81q0 26 -6.5 37t-22.5 11q-30 0 -30 -48v-326q0 -26 6.5 -36.5t23.5 -10.5q16 0 22.5 10.5t6.5 36.5v86h84zM152 595l-18 86l-19 -86h-45l34 119h60l34 -119
h-46z" />
    <glyph glyph-name="Cdotaccent" unicode="&#x10a;" horiz-adv-x="286" 
d="M260 277v-142q0 -77 -28 -109t-89 -32t-89 32t-28 109v444q0 77 28.5 109t88.5 32t88.5 -32t28.5 -109v-152h-84v161q0 29 -7.5 41t-25.5 12t-25.5 -12t-7.5 -41v-462q0 -29 7.5 -41t25.5 -12t25.5 12t7.5 41v151h84zM105 734v47h69v-47h-69z" />
    <glyph glyph-name="cdotaccent" unicode="&#x10b;" 
d="M250 203v-75q0 -76 -28 -105t-85 -29t-85.5 29t-28.5 105v304q0 76 28.5 105t85.5 29t85 -29t28 -105v-70h-84v81q0 26 -6.5 37t-22.5 11q-30 0 -30 -48v-326q0 -26 6.5 -36.5t23.5 -10.5q16 0 22.5 10.5t6.5 36.5v86h84zM110 714h44v-119h-44v119z" />
    <glyph glyph-name="Ccaron" unicode="&#x10c;" horiz-adv-x="286" 
d="M260 277v-142q0 -77 -28 -109t-89 -32t-89 32t-28 109v444q0 77 28.5 109t88.5 32t88.5 -32t28.5 -109v-152h-84v161q0 29 -7.5 41t-25.5 12t-25.5 -12t-7.5 -41v-462q0 -29 7.5 -41t25.5 -12t25.5 12t7.5 41v151h84zM113 734l-32 48h45l17 -26l17 26h45l-32 -48h-60z
" />
    <glyph glyph-name="ccaron" unicode="&#x10d;" 
d="M250 203v-75q0 -76 -28 -105t-85 -29t-85.5 29t-28.5 105v304q0 76 28.5 105t85.5 29t85 -29t28 -105v-70h-84v81q0 26 -6.5 37t-22.5 11q-30 0 -30 -48v-326q0 -26 6.5 -36.5t23.5 -10.5q16 0 22.5 10.5t6.5 36.5v86h84zM103 595l-34 119h45l19 -86l18 86h46l-34 -119
h-60z" />
    <glyph glyph-name="Dcaron" unicode="&#x10e;" horiz-adv-x="286" 
d="M121 0h-95v714h93q73 0 107 -41t34 -129v-372q0 -172 -139 -172zM131 635h-21v-556h21q26 0 35.5 22.5t9.5 69.5v372q0 47 -9.5 69.5t-35.5 22.5zM97 734l-32 48h45l17 -26l17 26h45l-32 -48h-60z" />
    <glyph glyph-name="dcaron" unicode="&#x10f;" 
d="M180 0q-3 9 -7 29q-29 -35 -76 -35q-74 0 -74 89v391q0 92 74 92q44 0 69 -27v175h84v-714h-70zM136 70q16 0 30 9v402q-14 9 -30 9q-29 0 -29 -35v-349q0 -36 29 -36zM282 714h53l-12 -131h-46z" />
    <glyph glyph-name="Dcroat" unicode="&#x110;" horiz-adv-x="287" 
d="M-4 313v74h31v327h93q73 0 107 -41t34 -129v-372q0 -172 -139 -172h-95v313h-31zM132 635h-21v-248h33v-74h-33v-234h21q26 0 35.5 22.5t9.5 69.5v372q0 47 -9.5 69.5t-35.5 22.5z" />
    <glyph glyph-name="dcroat" unicode="&#x111;" 
d="M117 597v60h49v57h84v-57h24v-60h-24v-597h-70q-3 9 -7 29q-29 -35 -76 -35q-74 0 -74 89v391q0 92 74 92q44 0 69 -27v58h-49zM136 70q16 0 30 9v402q-14 9 -30 9q-29 0 -29 -35v-349q0 -36 29 -36z" />
    <glyph glyph-name="Emacron" unicode="&#x112;" horiz-adv-x="210" 
d="M205 79v-79h-179v714h179v-79h-95v-235h83v-69h-83v-252h95zM62 778h112v-44h-112v44z" />
    <glyph glyph-name="emacron" unicode="&#x113;" 
d="M107 443v-132h59v132q0 26 -6.5 36.5t-22.5 10.5t-23 -10.5t-7 -36.5zM250 128q0 -76 -28 -105t-85 -29t-85.5 29t-28.5 105v304q0 76 28.5 105t85.5 29t85 -29t28 -105v-177h-143v-138q0 -26 6.5 -36.5t23.5 -10.5q16 0 22.5 10.5t6.5 36.5v92h84v-81zM67 639h132v-44
h-132v44z" />
    <glyph glyph-name="Ebreve" unicode="&#x114;" horiz-adv-x="210" 
d="M205 79v-79h-179v714h179v-79h-95v-235h83v-69h-83v-252h95zM180 782q0 -27 -13.5 -40t-47.5 -13q-36 0 -49.5 13t-13.5 40h41q0 -22 22 -22q20 0 20 22h41z" />
    <glyph glyph-name="ebreve" unicode="&#x115;" 
d="M107 443v-132h59v132q0 26 -6.5 36.5t-22.5 10.5t-23 -10.5t-7 -36.5zM250 128q0 -76 -28 -105t-85 -29t-85.5 29t-28.5 105v304q0 76 28.5 105t85.5 29t85 -29t28 -105v-177h-143v-138q0 -26 6.5 -36.5t23.5 -10.5q16 0 22.5 10.5t6.5 36.5v92h84v-81zM198 714v-57
q0 -37 -13 -52t-43 -15t-43 15t-13 52v57h41v-62q0 -25 15 -25q16 0 16 25v62h40z" />
    <glyph glyph-name="Edotaccent" unicode="&#x116;" horiz-adv-x="210" 
d="M205 79v-79h-179v714h179v-79h-95v-235h83v-69h-83v-252h95zM82 734v47h69v-47h-69z" />
    <glyph glyph-name="edotaccent" unicode="&#x117;" 
d="M107 443v-132h59v132q0 26 -6.5 36.5t-22.5 10.5t-23 -10.5t-7 -36.5zM250 128q0 -76 -28 -105t-85 -29t-85.5 29t-28.5 105v304q0 76 28.5 105t85.5 29t85 -29t28 -105v-177h-143v-138q0 -26 6.5 -36.5t23.5 -10.5q16 0 22.5 10.5t6.5 36.5v92h84v-81zM113 714h44v-119
h-44v119z" />
    <glyph glyph-name="Eogonek" unicode="&#x118;" horiz-adv-x="210" 
d="M205 79v-79h-28v-48q0 -34 30 -34v-62q-49 -4 -71 13t-22 63v31q0 19 5 37h-93v714h179v-79h-95v-235h83v-69h-83v-252h95z" />
    <glyph glyph-name="eogonek" unicode="&#x119;" 
d="M250 128q0 -77 -31 -108v-68q0 -34 30 -34v-62q-49 -4 -71 13t-22 63v31q0 20 4 32q-8 -1 -23 -1q-57 0 -85.5 29t-28.5 105v304q0 76 28.5 105t85.5 29t85 -29t28 -105v-177h-143v-138q0 -26 6.5 -36.5t23.5 -10.5q16 0 22.5 10.5t6.5 36.5v92h84v-81zM107 443v-132h59
v132q0 26 -6.5 36.5t-22.5 10.5t-23 -10.5t-7 -36.5z" />
    <glyph glyph-name="Ecaron" unicode="&#x11a;" horiz-adv-x="210" 
d="M205 79v-79h-179v714h179v-79h-95v-235h83v-69h-83v-252h95zM89 734l-32 48h45l17 -26l17 26h45l-32 -48h-60z" />
    <glyph glyph-name="ecaron" unicode="&#x11b;" 
d="M107 443v-132h59v132q0 26 -6.5 36.5t-22.5 10.5t-23 -10.5t-7 -36.5zM250 128q0 -76 -28 -105t-85 -29t-85.5 29t-28.5 105v304q0 76 28.5 105t85.5 29t85 -29t28 -105v-177h-143v-138q0 -26 6.5 -36.5t23.5 -10.5q16 0 22.5 10.5t6.5 36.5v92h84v-81zM103 595l-34 119
h45l19 -86l18 86h46l-34 -119h-60z" />
    <glyph glyph-name="Gcircumflex" unicode="&#x11c;" horiz-adv-x="286" 
d="M214 0l-18 42q-26 -48 -77 -48q-41 0 -67 31t-26 99v455q0 75 28.5 108t88.5 33t88.5 -33t28.5 -108v-152h-84v161q0 53 -33 53t-33 -53v-465q0 -50 38 -50q13 0 28 11v198h-35v80h119v-362h-46zM161 734l-17 26l-17 -26h-45l32 48h60l32 -48h-45z" />
    <glyph glyph-name="gcircumflex" unicode="&#x11d;" 
d="M166 443q0 26 -6.5 36.5t-22.5 10.5t-22.5 -10.5t-6.5 -36.5v-224q0 -26 6.5 -36.5t22.5 -10.5t22.5 10.5t6.5 36.5v224zM268 -44q0 -47 -31.5 -76.5t-94.5 -29.5q-128 0 -128 77q0 42 46 68q-32 20 -32 58q0 36 36 60q-40 29 -40 116v203q0 76 28 105t85 29q56 0 83 -26
q15 26 50 26q7 0 7 -7q0 -26 -4 -68q-6 0 -27 -7q4 -19 4 -52v-203q0 -76 -28 -104.5t-85 -28.5q-24 0 -40 4q-8 -8 -8 -15q0 -14 16.5 -20t69.5 -12q93 -12 93 -97zM141 -89q55 0 55 34q0 14 -12 20t-45 9q-29 3 -49 9q-13 -13 -13 -34q0 -38 64 -38zM156 595l-18 86
l-19 -86h-45l34 119h60l34 -119h-46z" />
    <glyph glyph-name="Gbreve" unicode="&#x11e;" horiz-adv-x="286" 
d="M214 0l-18 42q-26 -48 -77 -48q-41 0 -67 31t-26 99v455q0 75 28.5 108t88.5 33t88.5 -33t28.5 -108v-152h-84v161q0 53 -33 53t-33 -53v-465q0 -50 38 -50q13 0 28 11v198h-35v80h119v-362h-46zM203 782q0 -27 -13.5 -40t-47.5 -13q-36 0 -49.5 13t-13.5 40h41
q0 -22 22 -22q20 0 20 22h41z" />
    <glyph glyph-name="gbreve" unicode="&#x11f;" 
d="M166 443q0 26 -6.5 36.5t-22.5 10.5t-22.5 -10.5t-6.5 -36.5v-224q0 -26 6.5 -36.5t22.5 -10.5t22.5 10.5t6.5 36.5v224zM268 -44q0 -47 -31.5 -76.5t-94.5 -29.5q-128 0 -128 77q0 42 46 68q-32 20 -32 58q0 36 36 60q-40 29 -40 116v203q0 76 28 105t85 29q56 0 83 -26
q15 26 50 26q7 0 7 -7q0 -26 -4 -68q-6 0 -27 -7q4 -19 4 -52v-203q0 -76 -28 -104.5t-85 -28.5q-24 0 -40 4q-8 -8 -8 -15q0 -14 16.5 -20t69.5 -12q93 -12 93 -97zM141 -89q55 0 55 34q0 14 -12 20t-45 9q-29 3 -49 9q-13 -13 -13 -34q0 -38 64 -38zM196 714v-57
q0 -37 -13 -52t-43 -15t-43 15t-13 52v57h41v-62q0 -25 15 -25q16 0 16 25v62h40z" />
    <glyph glyph-name="Gdotaccent" unicode="&#x120;" horiz-adv-x="286" 
d="M214 0l-18 42q-26 -48 -77 -48q-41 0 -67 31t-26 99v455q0 75 28.5 108t88.5 33t88.5 -33t28.5 -108v-152h-84v161q0 53 -33 53t-33 -53v-465q0 -50 38 -50q13 0 28 11v198h-35v80h119v-362h-46zM105 734v47h69v-47h-69z" />
    <glyph glyph-name="gdotaccent" unicode="&#x121;" 
d="M166 443q0 26 -6.5 36.5t-22.5 10.5t-22.5 -10.5t-6.5 -36.5v-224q0 -26 6.5 -36.5t22.5 -10.5t22.5 10.5t6.5 36.5v224zM268 -44q0 -47 -31.5 -76.5t-94.5 -29.5q-128 0 -128 77q0 42 46 68q-32 20 -32 58q0 36 36 60q-40 29 -40 116v203q0 76 28 105t85 29q56 0 83 -26
q15 26 50 26q7 0 7 -7q0 -26 -4 -68q-6 0 -27 -7q4 -19 4 -52v-203q0 -76 -28 -104.5t-85 -28.5q-24 0 -40 4q-8 -8 -8 -15q0 -14 16.5 -20t69.5 -12q93 -12 93 -97zM141 -89q55 0 55 34q0 14 -12 20t-45 9q-29 3 -49 9q-13 -13 -13 -34q0 -38 64 -38zM112 714h44v-119h-44
v119z" />
    <glyph glyph-name="uni0122" unicode="&#x122;" horiz-adv-x="286" 
d="M214 0l-18 42q-26 -48 -77 -48q-41 0 -67 31t-26 99v455q0 75 28.5 108t88.5 33t88.5 -33t28.5 -108v-152h-84v161q0 53 -33 53t-33 -53v-465q0 -50 38 -50q13 0 28 11v198h-35v80h119v-362h-46zM176 -49q0 -36 -12 -52t-49 -15v26q21 0 27.5 4.5t7.5 16.5h-28v43h54v-23
z" />
    <glyph glyph-name="uni0123" unicode="&#x123;" 
d="M169 595h-62v55q0 40 12 56t52 16v-27q-19 0 -25.5 -6t-7.5 -20h31v-74zM166 443q0 26 -6.5 36.5t-22.5 10.5t-22.5 -10.5t-6.5 -36.5v-224q0 -26 6.5 -36.5t22.5 -10.5t22.5 10.5t6.5 36.5v224zM268 -44q0 -47 -31.5 -76.5t-94.5 -29.5q-128 0 -128 77q0 42 46 68
q-32 20 -32 58q0 36 36 60q-40 29 -40 116v203q0 76 28 105t85 29q56 0 83 -26q15 26 50 26q7 0 7 -7q0 -26 -4 -68q-6 0 -27 -7q4 -19 4 -52v-203q0 -76 -28 -104.5t-85 -28.5q-24 0 -40 4q-8 -8 -8 -15q0 -14 16.5 -20t69.5 -12q93 -12 93 -97zM141 -89q55 0 55 34
q0 14 -12 20t-45 9q-29 3 -49 9q-13 -13 -13 -34q0 -38 64 -38z" />
    <glyph glyph-name="Hcircumflex" unicode="&#x124;" horiz-adv-x="286" 
d="M176 0v315h-66v-315h-84v714h84v-325h66v325h84v-714h-84zM157 734l-17 26l-17 -26h-45l32 48h60l32 -48h-45z" />
    <glyph glyph-name="hcircumflex" unicode="&#x125;" 
d="M138 490q-15 0 -31 -8v-482h-84v714h84v-182q28 34 70 34q73 0 73 -89v-477h-84v456q0 19 -6 26.5t-22 7.5zM154 734l-17 26l-17 -26h-45l32 48h60l32 -48h-45z" />
    <glyph glyph-name="Hbar" unicode="&#x126;" horiz-adv-x="286" 
d="M6 517v70h20v127h84v-127h66v127h84v-127h20v-70h-20v-517h-84v315h-66v-315h-84v517h-20zM110 389h66v128h-66v-128z" />
    <glyph glyph-name="hbar" unicode="&#x127;" 
d="M0 597v60h23v57h84v-57h50v-60h-50v-65q28 34 70 34q73 0 73 -89v-477h-84v456q0 19 -6 26.5t-22 7.5q-15 0 -31 -8v-482h-84v597h-23z" />
    <glyph glyph-name="Itilde" unicode="&#x128;" horiz-adv-x="137" 
d="M27 714h84v-714h-84v714zM49 762h-7q0 -26 1 -28h-37q-3 10 -3 19q0 41 42 41q32 0 43 -27h5v27h37q0 -2 1 -5.5t1.5 -6.5t0.5 -6q0 -42 -42 -42q-31 0 -42 28z" />
    <glyph glyph-name="itilde" unicode="&#x129;" horiz-adv-x="132" 
d="M24 560h84v-560h-84v560zM90 594q-22 0 -34 16.5t-13 43.5h-15q-2 -31 0 -59h-30q-5 19 -5 43q0 65 49 65q43 0 47 -61h15q1 26 -1 57h30q5 -16 5 -41q0 -64 -48 -64z" />
    <glyph glyph-name="Imacron" unicode="&#x12a;" horiz-adv-x="137" 
d="M28 714h84v-714h-84v714zM15 778h112v-44h-112v44z" />
    <glyph glyph-name="imacron" unicode="&#x12b;" horiz-adv-x="132" 
d="M25 560h84v-560h-84v560zM1 639h132v-44h-132v44z" />
    <glyph glyph-name="Ibreve" unicode="&#x12c;" horiz-adv-x="137" 
d="M28 714h84v-714h-84v714zM133 782q0 -27 -13.5 -40t-47.5 -13q-36 0 -49.5 13t-13.5 40h41q0 -22 22 -22q20 0 20 22h41z" />
    <glyph glyph-name="ibreve" unicode="&#x12d;" horiz-adv-x="132" 
d="M24 560h84v-560h-84v560zM122 714v-57q0 -37 -13 -52t-43 -15t-43 15t-13 52v57h41v-62q0 -25 15 -25q16 0 16 25v62h40z" />
    <glyph glyph-name="Iogonek" unicode="&#x12e;" horiz-adv-x="137" 
d="M27 714h84v-714h-28v-48q0 -34 30 -34v-62q-49 -4 -71 13t-22 63v31q0 24 7 41v710z" />
    <glyph glyph-name="iogonek" unicode="&#x12f;" horiz-adv-x="132" 
d="M24 560h84v-560h-28v-48q0 -34 30 -34v-62q-49 -4 -71 13t-22 63v31q0 26 7 41v556zM24 714h84v-119h-84v119z" />
    <glyph glyph-name="Idotaccent" unicode="&#x130;" horiz-adv-x="137" 
d="M27 714h84v-714h-84v714zM34 734v47h69v-47h-69z" />
    <glyph glyph-name="dotlessi" unicode="&#x131;" horiz-adv-x="131" 
d="M24 560h84v-560h-84v560z" />
    <glyph glyph-name="IJ" unicode="&#x132;" horiz-adv-x="286" 
d="M26 714h84v-402h-84v402zM26 275h84v-149q0 -29 7.5 -41t25.5 -12q33 0 33 53v588h84v-579q0 -77 -28.5 -109t-88.5 -32q-61 0 -89 32t-28 109v140z" />
    <glyph glyph-name="ij" unicode="&#x133;" horiz-adv-x="270" 
d="M160 714h84v-119h-84v119zM113 -140q-46 0 -86 10l10 70q34 -8 60 -8q37 0 50 18t13 66v544h84v-546q0 -82 -33.5 -118t-97.5 -36zM26 560h84v-560h-84v560zM26 714h84v-119h-84v119z" />
    <glyph glyph-name="Jcircumflex" unicode="&#x134;" horiz-adv-x="278" 
d="M18 268h84v-142q0 -29 7.5 -41t25.5 -12q33 0 33 53v588h84v-579q0 -77 -28.5 -109t-88.5 -32q-61 0 -89 32t-28 109v133zM228 734l-17 26l-17 -26h-45l32 48h60l32 -48h-45z" />
    <glyph glyph-name="jcircumflex" unicode="&#x135;" horiz-adv-x="131" 
d="M-24 -142v69h10q21 0 27.5 7.5t6.5 27.5v598h84v-605q0 -57 -20 -79.5t-61 -22.5q-27 0 -47 5zM85 595l-18 86l-19 -86h-45l34 119h60l34 -119h-46z" />
    <glyph glyph-name="uni0136" unicode="&#x136;" horiz-adv-x="271" 
d="M117 320h-7v-320h-84v714h84v-325h7l65 325h84l-75 -343l76 -371h-84zM169 -49q0 -36 -12 -52t-49 -15v26q21 0 27.5 4.5t7.5 16.5h-28v43h54v-23z" />
    <glyph glyph-name="uni0137" unicode="&#x137;" horiz-adv-x="252" 
d="M256 0h-86l-55 261h-8v-261h-84v714h84v-400h7l59 246h85l-74 -253zM157 -49q0 -36 -12 -52t-49 -15v26q21 0 27.5 4.5t7.5 16.5h-28v43h54v-23z" />
    <glyph glyph-name="kgreenlandic" unicode="&#x138;" horiz-adv-x="252" 
d="M256 0h-86l-55 260h-8v-260h-84v560h84v-247h7l59 247h85l-74 -253z" />
    <glyph glyph-name="Lacute" unicode="&#x139;" horiz-adv-x="196" 
d="M196 0h-170v714h84v-635h86v-79zM42 734l20 48h65l-32 -48h-53z" />
    <glyph glyph-name="lacute" unicode="&#x13a;" horiz-adv-x="131" 
d="M40 734l20 48h65l-32 -48h-53zM24 714h84v-714h-84v714z" />
    <glyph glyph-name="uni013B" unicode="&#x13b;" horiz-adv-x="200" 
d="M196 0h-170v714h84v-635h86v-79zM138 -48q0 -36 -12 -52t-49 -15v26q21 0 27.5 4.5t7.5 16.5h-28v43h54v-23z" />
    <glyph glyph-name="uni013C" unicode="&#x13c;" horiz-adv-x="131" 
d="M24 714h84v-714h-84v714zM93 -49q0 -36 -12 -52t-49 -15v26q21 0 27.5 4.5t7.5 16.5h-28v43h54v-23z" />
    <glyph glyph-name="Lcaron" unicode="&#x13d;" horiz-adv-x="196" 
d="M196 0h-170v714h84v-635h86v-79zM139 714h53l-12 -131h-46z" />
    <glyph glyph-name="lcaron" unicode="&#x13e;" horiz-adv-x="131" 
d="M24 714h84v-714h-84v714zM140 714h53l-12 -131h-46z" />
    <glyph glyph-name="Ldot" unicode="&#x13f;" horiz-adv-x="200" 
d="M196 0h-170v714h84v-635h86v-79zM147 434h44v-119h-44v119z" />
    <glyph glyph-name="ldot" unicode="&#x140;" horiz-adv-x="178" 
d="M24 714h84v-714h-84v714zM134 467h44v-119h-44v119z" />
    <glyph glyph-name="Lslash" unicode="&#x141;" horiz-adv-x="201" 
d="M1 251v68l26 10v385h84v-352l65 26v-68l-65 -26v-215h86v-79h-170v261z" />
    <glyph glyph-name="lslash" unicode="&#x142;" horiz-adv-x="131" 
d="M24 714h84v-217l33 16v-64l-33 -16v-433h-84v392l-24 -11v64l24 11v258z" />
    <glyph glyph-name="Nacute" unicode="&#x143;" horiz-adv-x="308" 
d="M100 248v-248h-74v714h114l94 -609q-26 282 -26 442v167h74v-714h-106l-87 594q11 -222 11 -346zM125 734l20 48h65l-32 -48h-53z" />
    <glyph glyph-name="nacute" unicode="&#x144;" 
d="M107 0h-84v560h71q6 -25 7 -29q29 35 76 35q33 0 53 -22t20 -67v-477h-84v454q0 36 -28 36q-18 0 -31 -9v-481zM107 595l11 119h65l-37 -119h-39z" />
    <glyph glyph-name="uni0145" unicode="&#x145;" horiz-adv-x="308" 
d="M100 248v-248h-74v714h114l94 -609q-26 282 -26 442v167h74v-714h-106l-87 594q11 -222 11 -346zM181 -49q0 -36 -12 -52t-49 -15v26q21 0 27.5 4.5t7.5 16.5h-28v43h54v-23z" />
    <glyph glyph-name="uni0146" unicode="&#x146;" 
d="M107 0h-84v560h71q6 -25 7 -29q29 35 76 35q33 0 53 -22t20 -67v-477h-84v454q0 36 -28 36q-18 0 -31 -9v-481zM164 -49q0 -36 -12 -52t-49 -15v26q21 0 27.5 4.5t7.5 16.5h-28v43h54v-23z" />
    <glyph glyph-name="Ncaron" unicode="&#x147;" horiz-adv-x="308" 
d="M100 248v-248h-74v714h114l94 -609q-26 282 -26 442v167h74v-714h-106l-87 594q11 -222 11 -346zM120 734l-32 48h45l17 -26l17 26h45l-32 -48h-60z" />
    <glyph glyph-name="ncaron" unicode="&#x148;" 
d="M107 0h-84v560h71q6 -25 7 -29q29 35 76 35q33 0 53 -22t20 -67v-477h-84v454q0 36 -28 36q-18 0 -31 -9v-481zM99 595l-34 119h45l19 -86l18 86h46l-34 -119h-60z" />
    <glyph glyph-name="napostrophe" unicode="&#x149;" horiz-adv-x="296" 
d="M129 0h-84v560h71q6 -25 7 -29q29 35 76 35q33 0 53 -22t20 -67v-477h-84v454q0 36 -28 36q-18 0 -31 -9v-481zM-58 506v36q27 0 36 9t9 28h-42v135h84v-114q0 -50 -17 -72t-70 -22z" />
    <glyph glyph-name="Eng" unicode="&#x14a;" horiz-adv-x="308" 
d="M100 248v-248h-74v714h114l94 -609q-26 282 -26 442v167h74v-714h-1v-47q0 -57 -20 -79.5t-61 -22.5q-25 0 -50 5v59h13q21 0 28.5 7.5t7.5 27.5v50h-23l-87 594q11 -222 11 -346z" />
    <glyph glyph-name="eng" unicode="&#x14b;" 
d="M107 0h-84v560h71q6 -25 7 -29q29 35 76 35q33 0 53 -22t20 -67v-477h-1v-46q0 -57 -22.5 -80t-62.5 -23q-21 0 -46 5v59h13q21 0 27.5 8t6.5 30v125h1v376q0 36 -28 36q-18 0 -31 -9v-481z" />
    <glyph glyph-name="Omacron" unicode="&#x14c;" horiz-adv-x="286" 
d="M143 720q60 0 88.5 -32t28.5 -109v-444q0 -77 -28.5 -109t-88.5 -32q-61 0 -89 32t-28 109v444q0 77 28.5 109t88.5 32zM176 126v462q0 29 -7.5 41t-25.5 12t-25.5 -12t-7.5 -41v-462q0 -29 7.5 -41t25.5 -12q33 0 33 53zM86 778h112v-44h-112v44z" />
    <glyph glyph-name="omacron" unicode="&#x14d;" 
d="M250 432v-304q0 -76 -28 -105t-85 -29t-85.5 29t-28.5 105v304q0 76 28.5 105t85.5 29t85 -29t28 -105zM137 490q-16 0 -23 -10.5t-7 -36.5v-326q0 -26 6.5 -36.5t23.5 -10.5q16 0 22.5 10.5t6.5 36.5v326q0 26 -6.5 36.5t-22.5 10.5zM66 639h132v-44h-132v44z" />
    <glyph glyph-name="Obreve" unicode="&#x14e;" horiz-adv-x="286" 
d="M143 720q60 0 88.5 -32t28.5 -109v-444q0 -77 -28.5 -109t-88.5 -32q-61 0 -89 32t-28 109v444q0 77 28.5 109t88.5 32zM176 126v462q0 29 -7.5 41t-25.5 12t-25.5 -12t-7.5 -41v-462q0 -29 7.5 -41t25.5 -12q33 0 33 53zM207 782q0 -27 -13.5 -40t-47.5 -13
q-36 0 -49.5 13t-13.5 40h41q0 -22 22 -22q20 0 20 22h41z" />
    <glyph glyph-name="obreve" unicode="&#x14f;" 
d="M250 432v-304q0 -76 -28 -105t-85 -29t-85.5 29t-28.5 105v304q0 76 28.5 105t85.5 29t85 -29t28 -105zM137 490q-16 0 -23 -10.5t-7 -36.5v-326q0 -26 6.5 -36.5t23.5 -10.5q16 0 22.5 10.5t6.5 36.5v326q0 26 -6.5 36.5t-22.5 10.5zM190 714v-57q0 -37 -13 -52t-43 -15
t-43 15t-13 52v57h41v-62q0 -25 15 -25q16 0 16 25v62h40z" />
    <glyph glyph-name="Ohungarumlaut" unicode="&#x150;" horiz-adv-x="286" 
d="M143 720q60 0 88.5 -32t28.5 -109v-444q0 -77 -28.5 -109t-88.5 -32q-61 0 -89 32t-28 109v444q0 77 28.5 109t88.5 32zM176 126v462q0 29 -7.5 41t-25.5 12t-25.5 -12t-7.5 -41v-462q0 -29 7.5 -41t25.5 -12q33 0 33 53zM75 734l20 48h65l-32 -48h-53zM153 734l20 48h65
l-32 -48h-53z" />
    <glyph glyph-name="ohungarumlaut" unicode="&#x151;" 
d="M250 432v-304q0 -76 -28 -105t-85 -29t-85.5 29t-28.5 105v304q0 76 28.5 105t85.5 29t85 -29t28 -105zM137 490q-16 0 -23 -10.5t-7 -36.5v-326q0 -26 6.5 -36.5t23.5 -10.5q16 0 22.5 10.5t6.5 36.5v326q0 26 -6.5 36.5t-22.5 10.5zM72 595l11 119h65l-37 -119h-39z
M153 595l12 119h65l-38 -119h-39z" />
    <glyph glyph-name="OE" unicode="&#x152;" horiz-adv-x="362" 
d="M159 79h17v556h-17q-29 0 -39 -22t-10 -70v-372q0 -47 10.5 -69.5t38.5 -22.5zM169 0q-143 0 -143 172v372q0 88 35 129t109 41h186v-79h-96v-235h84v-69h-84v-252h96v-79h-187z" />
    <glyph glyph-name="oe" unicode="&#x153;" horiz-adv-x="415" 
d="M392 128q0 -76 -28 -105t-85 -29q-45 0 -71 16q-25 -16 -71 -16q-57 0 -85.5 29t-28.5 105v304q0 76 28.5 105t85.5 29q46 0 71 -17q25 17 71 17q57 0 85 -29t28 -105v-177h-142v-127q0 -17 -1 -24q3 -34 30 -34q16 0 22.5 10.5t6.5 36.5v92h84v-81zM137 490
q-16 0 -23 -10.5t-7 -36.5v-326q0 -26 6.5 -36.5t23.5 -10.5q25 0 28 34v352q-3 34 -28 34zM250 432v-121h58v132q0 26 -6.5 36.5t-22.5 10.5q-27 0 -30 -34q1 -8 1 -24z" />
    <glyph glyph-name="Racute" unicode="&#x154;" horiz-adv-x="286" 
d="M131 635h-21v-320h21q25 0 35 18t10 55v172q0 38 -9.5 56.5t-35.5 18.5zM176 0l-41 242h-25v-242h-84v714h109q125 0 125 -157v-161q0 -116 -69 -145q24 -13 38 -73l35 -178h-88zM104 734l20 48h65l-32 -48h-53z" />
    <glyph glyph-name="racute" unicode="&#x155;" horiz-adv-x="182" 
d="M107 0h-84v560h67q6 -21 10 -48q22 52 64 52q8 0 16 -3v-89h-25q-37 0 -48 -24v-448zM80 595l11 119h65l-37 -119h-39z" />
    <glyph glyph-name="uni0156" unicode="&#x156;" horiz-adv-x="286" 
d="M131 635h-21v-320h21q25 0 35 18t10 55v172q0 38 -9.5 56.5t-35.5 18.5zM176 0l-41 242h-25v-242h-84v714h109q125 0 125 -157v-161q0 -116 -69 -145q24 -13 38 -73l35 -178h-88zM169 -49q0 -36 -12 -52t-49 -15v26q21 0 27.5 4.5t7.5 16.5h-28v43h54v-23z" />
    <glyph glyph-name="uni0157" unicode="&#x157;" horiz-adv-x="178" 
d="M107 0h-84v560h67q6 -21 10 -48q22 52 64 52q8 0 16 -3v-89h-25q-37 0 -48 -24v-448zM93 -49q0 -36 -12 -52t-49 -15v26q21 0 27.5 4.5t7.5 16.5h-28v43h54v-23z" />
    <glyph glyph-name="Rcaron" unicode="&#x158;" horiz-adv-x="286" 
d="M131 635h-21v-320h21q25 0 35 18t10 55v172q0 38 -9.5 56.5t-35.5 18.5zM176 0l-41 242h-25v-242h-84v714h109q125 0 125 -157v-161q0 -116 -69 -145q24 -13 38 -73l35 -178h-88zM97 734l-32 48h45l17 -26l17 26h45l-32 -48h-60z" />
    <glyph glyph-name="rcaron" unicode="&#x159;" horiz-adv-x="182" 
d="M107 0h-84v560h67q6 -21 10 -48q22 52 64 52q8 0 16 -3v-89h-25q-37 0 -48 -24v-448zM68 595l-34 119h45l19 -86l18 86h46l-34 -119h-60z" />
    <glyph glyph-name="Sacute" unicode="&#x15a;" horiz-adv-x="277" 
d="M255 171v-35q0 -142 -116 -142q-60 0 -89 32.5t-29 104.5v103h84v-111q0 -50 34 -50q32 0 32 58v30q0 39 -12 64.5t-59 97.5q-76 113 -76 210v36q0 151 117 151q56 0 85.5 -31.5t29.5 -119.5v-95h-83v104q0 63 -32 63q-18 0 -26 -14.5t-8 -48.5v-28q0 -47 14 -81.5
t52 -92.5q47 -69 64.5 -109t17.5 -96zM116 734l20 48h65l-32 -48h-53z" />
    <glyph glyph-name="sacute" unicode="&#x15b;" horiz-adv-x="259" 
d="M159 114q0 63 -64 141q-79 92 -79 180q0 131 113 131q60 0 86.5 -29t26.5 -99v-62h-83v61q0 32 -6 44t-23 12q-30 0 -30 -49q0 -62 67 -143q76 -94 76 -175q0 -132 -115 -132q-59 0 -85.5 29.5t-26.5 99.5v58h84v-65q0 -26 6.5 -37.5t23.5 -11.5q29 0 29 47zM111 595
l11 119h65l-37 -119h-39z" />
    <glyph glyph-name="Scircumflex" unicode="&#x15c;" horiz-adv-x="277" 
d="M255 171v-35q0 -142 -116 -142q-60 0 -89 32.5t-29 104.5v103h84v-111q0 -50 34 -50q32 0 32 58v30q0 39 -12 64.5t-59 97.5q-76 113 -76 210v36q0 151 117 151q56 0 85.5 -31.5t29.5 -119.5v-95h-83v104q0 63 -32 63q-18 0 -26 -14.5t-8 -48.5v-28q0 -47 14 -81.5
t52 -92.5q47 -69 64.5 -109t17.5 -96zM156 734l-17 26l-17 -26h-45l32 48h60l32 -48h-45z" />
    <glyph glyph-name="scircumflex" unicode="&#x15d;" horiz-adv-x="259" 
d="M159 114q0 63 -64 141q-79 92 -79 180q0 131 113 131q60 0 86.5 -29t26.5 -99v-62h-83v61q0 32 -6 44t-23 12q-30 0 -30 -49q0 -62 67 -143q76 -94 76 -175q0 -132 -115 -132q-59 0 -85.5 29.5t-26.5 99.5v58h84v-65q0 -26 6.5 -37.5t23.5 -11.5q29 0 29 47zM150 595
l-18 86l-19 -86h-45l34 119h60l34 -119h-46z" />
    <glyph glyph-name="uni015E" unicode="&#x15e;" horiz-adv-x="277" 
d="M195 -67q0 -29 -18 -41.5t-73 -9.5v35h30q24 0 24 16q0 14 -24 14h-20v49q-93 10 -93 135v103h84v-111q0 -50 34 -50q32 0 32 58v30q0 39 -12 64.5t-59 97.5q-76 113 -76 210v36q0 151 117 151q56 0 85.5 -31.5t29.5 -119.5v-95h-83v104q0 63 -32 63q-18 0 -26 -14.5
t-8 -48.5v-28q0 -47 14 -81.5t52 -92.5q47 -69 64.5 -109t17.5 -96v-35q0 -137 -109 -142v-14q49 -2 49 -47z" />
    <glyph glyph-name="uni015F" unicode="&#x15f;" horiz-adv-x="259" 
d="M192 -67q0 -29 -18 -41.5t-73 -9.5v35h30q24 0 24 16q0 14 -24 14h-20v48q-50 4 -72.5 33.5t-22.5 94.5v58h84v-65q0 -26 6.5 -37.5t23.5 -11.5q29 0 29 47q0 63 -64 141q-79 92 -79 180q0 131 113 131q60 0 86.5 -29t26.5 -99v-62h-83v61q0 32 -6 44t-23 12
q-30 0 -30 -49q0 -62 67 -143q76 -94 76 -175q0 -124 -100 -131v-15q49 -2 49 -47z" />
    <glyph glyph-name="Scaron" unicode="&#x160;" horiz-adv-x="277" 
d="M255 171v-35q0 -142 -116 -142q-60 0 -89 32.5t-29 104.5v103h84v-111q0 -50 34 -50q32 0 32 58v30q0 39 -12 64.5t-59 97.5q-76 113 -76 210v36q0 151 117 151q56 0 85.5 -31.5t29.5 -119.5v-95h-83v104q0 63 -32 63q-18 0 -26 -14.5t-8 -48.5v-28q0 -47 14 -81.5
t52 -92.5q47 -69 64.5 -109t17.5 -96zM108 734l-32 48h45l17 -26l17 26h45l-32 -48h-60z" />
    <glyph glyph-name="scaron" unicode="&#x161;" horiz-adv-x="259" 
d="M159 114q0 63 -64 141q-79 92 -79 180q0 131 113 131q60 0 86.5 -29t26.5 -99v-62h-83v61q0 32 -6 44t-23 12q-30 0 -30 -49q0 -62 67 -143q76 -94 76 -175q0 -132 -115 -132q-59 0 -85.5 29.5t-26.5 99.5v58h84v-65q0 -26 6.5 -37.5t23.5 -11.5q29 0 29 47zM104 595
l-34 119h45l19 -86l18 86h46l-34 -119h-60z" />
    <glyph glyph-name="Tcommaaccent" unicode="&#x162;" horiz-adv-x="247" 
d="M241 635h-76v-635h-84v635h-75v79h235v-79zM148 -49q0 -36 -12 -52t-49 -15v26q21 0 27.5 4.5t7.5 16.5h-28v43h54v-23z" />
    <glyph glyph-name="tcommaaccent" unicode="&#x163;" horiz-adv-x="151" 
d="M151 0q-18 -5 -48 -5q-73 0 -73 95v396h-26v74h26v106l84 10v-116h37v-74h-37v-387q0 -17 5.5 -23.5t20.5 -6.5h11v-69zM114 -49q0 -36 -12 -52t-49 -15v26q21 0 27.5 4.5t7.5 16.5h-28v43h54v-23z" />
    <glyph glyph-name="Tcaron" unicode="&#x164;" horiz-adv-x="247" 
d="M241 635h-76v-635h-84v635h-75v79h235v-79zM92 734l-32 48h45l17 -26l17 26h45l-32 -48h-60z" />
    <glyph glyph-name="tcaron" unicode="&#x165;" horiz-adv-x="151" 
d="M151 0q-18 -5 -48 -5q-73 0 -73 95v396h-26v74h26v106l84 10v-116h37v-74h-37v-387q0 -17 5.5 -23.5t20.5 -6.5h11v-69zM148 714h53l-12 -131h-46z" />
    <glyph glyph-name="Tbar" unicode="&#x166;" horiz-adv-x="247" 
d="M48 313v74h33v248h-75v79h235v-79h-76v-248h31v-74h-31v-313h-84v313h-33z" />
    <glyph glyph-name="tbar" unicode="&#x167;" horiz-adv-x="151" 
d="M3 252v74h27v160h-26v74h26v106l84 10v-116h37v-74h-37v-160h37v-74h-37v-153q0 -17 5.5 -23.5t20.5 -6.5h11v-69q-18 -5 -48 -5q-73 0 -73 95v162h-27z" />
    <glyph glyph-name="Utilde" unicode="&#x168;" horiz-adv-x="286" 
d="M176 714h84v-579q0 -77 -28.5 -109t-88.5 -32q-61 0 -89 32t-28 109v579h84v-588q0 -29 7.5 -41t25.5 -12q33 0 33 53v588zM121 762h-7q0 -26 1 -28h-37q-3 10 -3 19q0 41 42 41q32 0 43 -27h5v27h37q0 -2 1 -5.5t1.5 -6.5t0.5 -6q0 -42 -42 -42q-31 0 -42 28z" />
    <glyph glyph-name="utilde" unicode="&#x169;" 
d="M180 0q-5 16 -8 32q-28 -38 -75 -38q-33 0 -53.5 22t-20.5 67v477h84v-454q0 -36 28 -36q17 0 31 8v482h84v-560h-70zM159 594q-22 0 -34 16.5t-13 43.5h-15q-2 -31 0 -59h-30q-5 19 -5 43q0 65 49 65q43 0 47 -61h15q1 26 -1 57h30q5 -16 5 -41q0 -64 -48 -64z" />
    <glyph glyph-name="Umacron" unicode="&#x16a;" horiz-adv-x="286" 
d="M176 714h84v-579q0 -77 -28.5 -109t-88.5 -32q-61 0 -89 32t-28 109v579h84v-588q0 -29 7.5 -41t25.5 -12q33 0 33 53v588zM86 778h112v-44h-112v44z" />
    <glyph glyph-name="umacron" unicode="&#x16b;" 
d="M180 0q-5 16 -8 32q-28 -38 -75 -38q-33 0 -53.5 22t-20.5 67v477h84v-454q0 -36 28 -36q17 0 31 8v482h84v-560h-70zM71 639h132v-44h-132v44z" />
    <glyph glyph-name="Ubreve" unicode="&#x16c;" horiz-adv-x="286" 
d="M176 714h84v-579q0 -77 -28.5 -109t-88.5 -32q-61 0 -89 32t-28 109v579h84v-588q0 -29 7.5 -41t25.5 -12q33 0 33 53v588zM204 782q0 -27 -13.5 -40t-47.5 -13q-36 0 -49.5 13t-13.5 40h41q0 -22 22 -22q20 0 20 22h41z" />
    <glyph glyph-name="ubreve" unicode="&#x16d;" 
d="M180 0q-5 16 -8 32q-28 -38 -75 -38q-33 0 -53.5 22t-20.5 67v477h84v-454q0 -36 28 -36q17 0 31 8v482h84v-560h-70zM193 714v-57q0 -37 -13 -52t-43 -15t-43 15t-13 52v57h41v-62q0 -25 15 -25q16 0 16 25v62h40z" />
    <glyph glyph-name="Uring" unicode="&#x16e;" horiz-adv-x="286" 
d="M176 714h84v-579q0 -77 -28.5 -109t-88.5 -32q-61 0 -89 32t-28 109v579h84v-588q0 -29 7.5 -41t25.5 -12q33 0 33 53v588zM190 776q0 -42 -43 -42h-15q-44 0 -44 42t44 42h15q43 0 43 -42zM160 776q0 15 -18 15h-6q-17 0 -17 -15t17 -15h6q18 0 18 15z" />
    <glyph glyph-name="uring" unicode="&#x16f;" 
d="M180 0q-5 16 -8 32q-28 -38 -75 -38q-33 0 -53.5 22t-20.5 67v477h84v-454q0 -36 28 -36q17 0 31 8v482h84v-560h-70zM195 648q0 -53 -49 -53h-17q-52 0 -52 53t52 53h17q49 0 49 -53zM160 648q0 19 -20 19h-8q-19 0 -19 -19t19 -19h8q20 0 20 19z" />
    <glyph glyph-name="Uhungarumlaut" unicode="&#x170;" horiz-adv-x="286" 
d="M176 714h84v-579q0 -77 -28.5 -109t-88.5 -32q-61 0 -89 32t-28 109v579h84v-588q0 -29 7.5 -41t25.5 -12q33 0 33 53v588zM78 734l20 48h65l-32 -48h-53zM156 734l20 48h65l-32 -48h-53z" />
    <glyph glyph-name="uhungarumlaut" unicode="&#x171;" 
d="M180 0q-5 16 -8 32q-28 -38 -75 -38q-33 0 -53.5 22t-20.5 67v477h84v-454q0 -36 28 -36q17 0 31 8v482h84v-560h-70zM155 595l12 119h65l-38 -119h-39zM74 595l11 119h65l-37 -119h-39z" />
    <glyph glyph-name="Uogonek" unicode="&#x172;" horiz-adv-x="286" 
d="M176 714h84v-579q0 -80 -32 -114v-69q0 -34 30 -34v-62q-49 -4 -71 13t-22 63v31q0 20 4 33q-16 -2 -26 -2q-61 0 -89 32t-28 109v579h84v-588q0 -29 7.5 -41t25.5 -12q33 0 33 53v588z" />
    <glyph glyph-name="uogonek" unicode="&#x173;" 
d="M250 0h-28v-48q0 -34 30 -34v-62q-49 -4 -71 13t-22 63v31q0 37 15 57q-2 8 -2 12q-28 -38 -75 -38q-33 0 -53.5 22t-20.5 67v477h84v-454q0 -36 28 -36q17 0 31 8v482h84v-560z" />
    <glyph glyph-name="Wcircumflex" unicode="&#x174;" horiz-adv-x="380" 
d="M57 0l-54 714h87l17 -385q0 -2 0.5 -18.5t1.5 -48t2 -59.5q2 28 4.5 59.5t4 48t1.5 18.5l33 385h75l32 -385q0 -2 1.5 -19t4 -49.5t4.5 -60.5q4 124 5 129l17 385h84l-60 -714h-92l-29 376q0 2 -1 14.5t-2.5 37t-2.5 46.5q-7 -94 -8 -98l-31 -376h-94zM205 734l-17 26
l-17 -26h-45l32 48h60l32 -48h-45z" />
    <glyph glyph-name="wcircumflex" unicode="&#x175;" horiz-adv-x="356" 
d="M43 0l-44 560h88l15 -349q0 -1 0.5 -16t1.5 -40t1 -47q8 100 8 103l28 349h75l28 -349q0 -3 8 -109q4 106 4 110l16 348h85l-55 -560h-98l-22 320q0 10 -5 85q-1 -19 -2.5 -40t-2.5 -32t-1 -12l-26 -321h-102zM195 595l-18 86l-19 -86h-45l34 119h60l34 -119h-46z" />
    <glyph glyph-name="Ycircumflex" unicode="&#x176;" horiz-adv-x="258" 
d="M170 0h-85v192l-84 522h89l42 -395q5 53 15.5 154t17.5 169.5t7 71.5h86l-88 -527v-187zM146 734l-17 26l-17 -26h-45l32 48h60l32 -48h-45z" />
    <glyph glyph-name="ycircumflex" unicode="&#x177;" horiz-adv-x="246" 
d="M177 0q-10 -76 -44.5 -104t-100.5 -28v67q36 1 53 16t18 49h-37l-65 560h84l40 -480l38 480h82zM141 595l-18 86l-19 -86h-45l34 119h60l34 -119h-46z" />
    <glyph glyph-name="Ydieresis" unicode="&#x178;" horiz-adv-x="258" 
d="M170 0h-85v192l-84 522h89l42 -395q5 53 15.5 154t17.5 169.5t7 71.5h86l-88 -527v-187zM49 734v45h71v-45h-71zM144 734v45h71v-45h-71z" />
    <glyph glyph-name="Zacute" unicode="&#x179;" horiz-adv-x="207" 
d="M8 0v67l105 570q-13 -2 -39 -2h-66v79h191v-53l-109 -585q26 4 40 4h70v-80h-192zM79 734l20 48h65l-32 -48h-53z" />
    <glyph glyph-name="zacute" unicode="&#x17a;" horiz-adv-x="199" 
d="M13 0v67l87 423q-12 -2 -36 -2h-51v72h172v-67l-88 -424q30 4 41 4h47v-73h-172zM80 595l11 119h65l-37 -119h-39z" />
    <glyph glyph-name="Zdotaccent" unicode="&#x17b;" horiz-adv-x="207" 
d="M8 0v67l105 570q-13 -2 -39 -2h-66v79h191v-53l-109 -585q26 4 40 4h70v-80h-192zM74 734v47h69v-47h-69z" />
    <glyph glyph-name="zdotaccent" unicode="&#x17c;" horiz-adv-x="199" 
d="M13 0v67l87 423q-12 -2 -36 -2h-51v72h172v-67l-88 -424q30 4 41 4h47v-73h-172zM75 714h44v-119h-44v119z" />
    <glyph glyph-name="Zcaron" unicode="&#x17d;" horiz-adv-x="207" 
d="M8 0v67l105 570q-13 -2 -39 -2h-66v79h191v-53l-109 -585q26 4 40 4h70v-80h-192zM80 734l-32 48h45l17 -26l17 26h45l-32 -48h-60z" />
    <glyph glyph-name="zcaron" unicode="&#x17e;" horiz-adv-x="199" 
d="M13 0v67l87 423q-12 -2 -36 -2h-51v72h172v-67l-88 -424q30 4 41 4h47v-73h-172zM70 595l-34 119h45l19 -86l18 86h46l-34 -119h-60z" />
    <glyph glyph-name="longs" unicode="&#x17f;" horiz-adv-x="140" 
d="M102 719q22 0 42 -5v-71h-7q-18 0 -23.5 -7.5t-5.5 -25.5v-610h-84v625q0 49 19 71.5t59 22.5z" />
    <glyph glyph-name="uni0192" unicode="&#x192;" horiz-adv-x="210" 
d="M148 173q0 -57 -20 -79.5t-61 -22.5q-17 0 -47 5v69h10q21 0 27.5 7.5t6.5 27.5v177h-33v44h33v140q0 57 20 79.5t61 22.5q27 0 47 -5v-69h-10q-21 0 -27.5 -7.5t-6.5 -27.5v-133h42v-44h-42v-184z" />
    <glyph glyph-name="Aringacute" unicode="&#x1fa;" horiz-adv-x="266" 
d="M114 370l-14 -198h63l-14 198q-3 29 -18 286q-3 -43 -9 -152.5t-8 -133.5zM175 0l-7 97h-73l-7 -97h-85l73 714h119l68 -714h-88zM186 776q0 -42 -43 -42h-15q-44 0 -44 42t44 42h15q43 0 43 -42zM156 776q0 15 -18 15h-6q-17 0 -17 -15t17 -15h6q18 0 18 15zM105 831
l20 48h65l-32 -48h-53z" />
    <glyph glyph-name="aringacute" unicode="&#x1fb;" 
d="M180 0q-5 16 -8 33q-30 -39 -73 -39q-76 0 -76 94v116q0 64 38.5 92.5t104.5 20.5v120q0 31 -6.5 42.5t-22.5 11.5q-17 0 -23.5 -12t-6.5 -42v-73h-82v71q0 72 26.5 101.5t85.5 29.5q61 0 87 -31t26 -105v-430h-70zM136 70q16 0 30 8v185q-31 -1 -45 -12.5t-14 -42.5v-95
q0 -43 29 -43zM196 642q0 -53 -49 -53h-17q-52 0 -52 53t52 53h17q49 0 49 -53zM121 712l11 119h65l-37 -119h-39zM161 642q0 19 -20 19h-8q-19 0 -19 -19t19 -19h8q20 0 20 19z" />
    <glyph glyph-name="AEacute" unicode="&#x1fc;" horiz-adv-x="345" 
d="M123 307l-17 -145h54v478h-7q-7 -139 -30 -333zM160 0v87h-63l-10 -87h-88l96 714h244v-79h-95v-235h83v-69h-83v-252h95v-79h-179zM160 734l20 48h65l-32 -48h-53z" />
    <glyph glyph-name="aeacute" unicode="&#x1fd;" horiz-adv-x="415" 
d="M280 -6q-78 0 -101 53q-27 -53 -81 -53q-33 0 -54 25.5t-21 71.5v111q0 64 38.5 92.5t104.5 20.5v119q0 32 -6.5 44.5t-22.5 12.5t-23 -12t-7 -43v-73h-82v70q0 73 26.5 103t85.5 30q46 0 71 -18q26 18 72 18q58 0 85.5 -29.5t27.5 -105.5v-184l-143 -1v-128
q0 -27 6.5 -37.5t23.5 -10.5q16 0 22.5 10.5t6.5 37.5v82h84v-71q0 -76 -28 -105.5t-85 -29.5zM138 69q18 0 32 11q-4 19 -4 49v136q-31 0 -44.5 -11t-14.5 -43v-100q0 -42 31 -42zM250 442v-139h59v139q0 48 -29 48q-16 0 -23 -10.5t-7 -37.5zM184 595l11 119h65l-37 -119
h-39z" />
    <glyph glyph-name="Oslashacute" unicode="&#x1fe;" horiz-adv-x="286" 
d="M116 734l20 48h65l-32 -48h-53zM143 720q60 0 88.5 -32t28.5 -109v-444q0 -77 -28.5 -109t-88.5 -32q-61 0 -89 32t-28 109v444q0 77 28.5 109t88.5 32zM110 588v-244l66 103v141q0 29 -7.5 41t-25.5 12t-25.5 -12t-7.5 -41zM143 73q33 0 33 53v241l-66 -103v-138
q0 -29 7.5 -41t25.5 -12z" />
    <glyph glyph-name="oslashacute" unicode="&#x1ff;" 
d="M250 432v-304q0 -76 -28 -105t-85 -29t-85.5 29t-28.5 105v304q0 76 28.5 105t85.5 29t85 -29t28 -105zM137 70q16 0 22.5 10.5t6.5 36.5v170l-59 -93v-77q0 -26 6.5 -36.5t23.5 -10.5zM137 490q-16 0 -23 -10.5t-7 -36.5v-170l59 93v77q0 26 -6.5 36.5t-22.5 10.5z
M112 595l11 119h65l-37 -119h-39z" />
    <glyph glyph-name="uni0218" unicode="&#x218;" horiz-adv-x="277" 
d="M255 171v-35q0 -142 -116 -142q-60 0 -89 32.5t-29 104.5v103h84v-111q0 -50 34 -50q32 0 32 58v30q0 39 -12 64.5t-59 97.5q-76 113 -76 210v36q0 151 117 151q56 0 85.5 -31.5t29.5 -119.5v-95h-83v104q0 63 -32 63q-18 0 -26 -14.5t-8 -48.5v-28q0 -47 14 -81.5
t52 -92.5q47 -69 64.5 -109t17.5 -96zM164 -49q0 -36 -12 -52t-49 -15v26q21 0 27.5 4.5t7.5 16.5h-28v43h54v-23z" />
    <glyph glyph-name="uni0219" unicode="&#x219;" horiz-adv-x="259" 
d="M159 114q0 63 -64 141q-79 92 -79 180q0 131 113 131q60 0 86.5 -29t26.5 -99v-62h-83v61q0 32 -6 44t-23 12q-30 0 -30 -49q0 -62 67 -143q76 -94 76 -175q0 -132 -115 -132q-59 0 -85.5 29.5t-26.5 99.5v58h84v-65q0 -26 6.5 -37.5t23.5 -11.5q29 0 29 47zM164 -49
q0 -36 -12 -52t-49 -15v26q21 0 27.5 4.5t7.5 16.5h-28v43h54v-23z" />
    <glyph glyph-name="uni021A" unicode="&#x21a;" horiz-adv-x="247" 
d="M241 635h-76v-635h-84v635h-75v79h235v-79zM148 -49q0 -36 -12 -52t-49 -15v26q21 0 27.5 4.5t7.5 16.5h-28v43h54v-23z" />
    <glyph glyph-name="uni021B" unicode="&#x21b;" horiz-adv-x="151" 
d="M151 0q-18 -5 -48 -5q-73 0 -73 95v396h-26v74h26v106l84 10v-116h37v-74h-37v-387q0 -17 5.5 -23.5t20.5 -6.5h11v-69zM114 -49q0 -36 -12 -52t-49 -15v26q21 0 27.5 4.5t7.5 16.5h-28v43h54v-23z" />
    <glyph glyph-name="uni0237" unicode="&#x237;" horiz-adv-x="131" 
d="M-20 -142v69h10q21 0 27.5 7.5t6.5 27.5v598h84v-605q0 -57 -20 -79.5t-61 -22.5q-27 0 -47 5z" />
    <glyph glyph-name="circumflex" unicode="&#x2c6;" horiz-adv-x="201" 
d="M122 595l-18 86l-19 -86h-45l34 119h60l34 -119h-46z" />
    <glyph glyph-name="caron" unicode="&#x2c7;" horiz-adv-x="201" 
d="M74 595l-34 119h45l19 -86l18 86h46l-34 -119h-60z" />
    <glyph glyph-name="breve" unicode="&#x2d8;" horiz-adv-x="172" 
d="M142 714v-57q0 -37 -13 -52t-43 -15t-43 15t-13 52v57h41v-62q0 -25 15 -25q16 0 16 25v62h40z" />
    <glyph glyph-name="dotaccent" unicode="&#x2d9;" horiz-adv-x="98" 
d="M27 714h44v-119h-44v119z" />
    <glyph glyph-name="ring" unicode="&#x2da;" horiz-adv-x="200" 
d="M155 648q0 -53 -49 -53h-17q-52 0 -52 53t52 53h17q49 0 49 -53zM120 648q0 19 -20 19h-8q-19 0 -19 -19t19 -19h8q20 0 20 19z" />
    <glyph glyph-name="ogonek" unicode="&#x2db;" horiz-adv-x="193" 
d="M102 50l8 -6v-92q0 -34 30 -34v-62q-49 -4 -71 13t-22 63v31q0 67 55 87z" />
    <glyph glyph-name="tilde" unicode="&#x2dc;" horiz-adv-x="203" 
d="M125 594q-22 0 -34 16.5t-13 43.5h-15q-2 -31 0 -59h-30q-5 19 -5 43q0 65 49 65q43 0 47 -61h15q1 26 -1 57h30q5 -16 5 -41q0 -64 -48 -64z" />
    <glyph glyph-name="hungarumlaut" unicode="&#x2dd;" horiz-adv-x="253" 
d="M47 595l11 119h65l-37 -119h-39zM128 595l12 119h65l-38 -119h-39z" />
    <glyph glyph-name="uni0394" unicode="&#x394;" horiz-adv-x="264" 
d="M1 0l73 714h119l69 -714h-261zM111 347l-19 -272h76l-20 272l-19 243q-8 -116 -18 -243z" />
    <glyph glyph-name="uni03BC" unicode="&#x3bc;" 
d="M180 0q-5 16 -8 32q-28 -38 -75 -38h-1q11 -51 11 -138h-84v704h84v-454q0 -36 28 -36q17 0 31 8v482h84v-560h-70z" />
    <glyph glyph-name="pi" unicode="&#x3c0;" horiz-adv-x="308" 
d="M310 0q-25 -5 -46 -5q-42 0 -62 22.5t-20 80.5v350h-58v-448h-84v448h-36v72h298v-72h-36v-347q0 -22 6.5 -29.5t25.5 -7.5h12v-64z" />
    <glyph glyph-name="Wgrave" unicode="&#x1e80;" horiz-adv-x="380" 
d="M57 0l-54 714h87l17 -385q0 -2 0.5 -18.5t1.5 -48t2 -59.5q2 28 4.5 59.5t4 48t1.5 18.5l33 385h75l32 -385q0 -2 1.5 -19t4 -49.5t4.5 -60.5q4 124 5 129l17 385h84l-60 -714h-92l-29 376q0 2 -1 14.5t-2.5 37t-2.5 46.5q-7 -94 -8 -98l-31 -376h-94zM216 734h-53
l-32 48h65z" />
    <glyph glyph-name="wgrave" unicode="&#x1e81;" horiz-adv-x="356" 
d="M43 0l-44 560h88l15 -349q0 -1 0.5 -16t1.5 -40t1 -47q8 100 8 103l28 349h75l28 -349q0 -3 8 -109q4 106 4 110l16 348h85l-55 -560h-98l-22 320q0 10 -5 85q-1 -19 -2.5 -40t-2.5 -32t-1 -12l-26 -321h-102zM197 595h-39l-37 119h65z" />
    <glyph glyph-name="Wacute" unicode="&#x1e82;" horiz-adv-x="380" 
d="M57 0l-54 714h87l17 -385q0 -2 0.5 -18.5t1.5 -48t2 -59.5q2 28 4.5 59.5t4 48t1.5 18.5l33 385h75l32 -385q0 -2 1.5 -19t4 -49.5t4.5 -60.5q4 124 5 129l17 385h84l-60 -714h-92l-29 376q0 2 -1 14.5t-2.5 37t-2.5 46.5q-7 -94 -8 -98l-31 -376h-94zM164 734l20 48h65
l-32 -48h-53z" />
    <glyph glyph-name="wacute" unicode="&#x1e83;" horiz-adv-x="356" 
d="M43 0l-44 560h88l15 -349q0 -1 0.5 -16t1.5 -40t1 -47q8 100 8 103l28 349h75l28 -349q0 -3 8 -109q4 106 4 110l16 348h85l-55 -560h-98l-22 320q0 10 -5 85q-1 -19 -2.5 -40t-2.5 -32t-1 -12l-26 -321h-102zM156 595l11 119h65l-37 -119h-39z" />
    <glyph glyph-name="Wdieresis" unicode="&#x1e84;" horiz-adv-x="380" 
d="M57 0l-54 714h87l17 -385q0 -2 0.5 -18.5t1.5 -48t2 -59.5q2 28 4.5 59.5t4 48t1.5 18.5l33 385h75l32 -385q0 -2 1.5 -19t4 -49.5t4.5 -60.5q4 124 5 129l17 385h84l-60 -714h-92l-29 376q0 2 -1 14.5t-2.5 37t-2.5 46.5q-7 -94 -8 -98l-31 -376h-94zM108 734v45h71v-45
h-71zM203 734v45h71v-45h-71z" />
    <glyph glyph-name="wdieresis" unicode="&#x1e85;" horiz-adv-x="356" 
d="M43 0l-44 560h88l15 -349q0 -1 0.5 -16t1.5 -40t1 -47q8 100 8 103l28 349h75l28 -349q0 -3 8 -109q4 106 4 110l16 348h85l-55 -560h-98l-22 320q0 10 -5 85q-1 -19 -2.5 -40t-2.5 -32t-1 -12l-26 -321h-102zM195 714h49v-119h-49v119zM113 714h49v-119h-49v119z" />
    <glyph glyph-name="Ygrave" unicode="&#x1ef2;" horiz-adv-x="258" 
d="M170 0h-85v192l-84 522h89l42 -395q5 53 15.5 154t17.5 169.5t7 71.5h86l-88 -527v-187zM161 734h-53l-32 48h65z" />
    <glyph glyph-name="ygrave" unicode="&#x1ef3;" horiz-adv-x="246" 
d="M177 0q-10 -76 -44.5 -104t-100.5 -28v67q36 1 53 16t18 49h-37l-65 560h84l40 -480l38 480h82zM146 595h-39l-37 119h65z" />
    <glyph glyph-name="uni2009" unicode="&#x2009;" horiz-adv-x="35" 
 />
    <glyph glyph-name="endash" unicode="&#x2013;" horiz-adv-x="342" 
d="M10 284h322v-79h-322v79z" />
    <glyph glyph-name="emdash" unicode="&#x2014;" horiz-adv-x="462" 
d="M10 284h442v-79h-442v79z" />
    <glyph glyph-name="uni2015" unicode="&#x2015;" horiz-adv-x="238" 
d="M41 272v74h148v-74h-148z" />
    <glyph glyph-name="quoteleft" unicode="&#x2018;" horiz-adv-x="127" 
d="M105 505h-84v115q0 50 17 72t70 22v-36q-27 0 -36 -9t-8 -28h41v-136z" />
    <glyph glyph-name="quoteright" unicode="&#x2019;" horiz-adv-x="128" 
d="M19 506v36q27 0 36 9t9 28h-42v135h84v-114q0 -50 -17 -72t-70 -22z" />
    <glyph glyph-name="quotesinglbase" unicode="&#x201a;" horiz-adv-x="128" 
d="M19 -64v36q27 0 36 9t9 28h-42v135h84v-114q0 -50 -17 -72t-70 -22z" />
    <glyph glyph-name="quotedblleft" unicode="&#x201c;" horiz-adv-x="248" 
d="M224 505h-84v115q0 50 16.5 72t69.5 22v-36q-27 0 -36 -9t-8 -28h42v-136zM108 505h-84v115q0 50 17 72t70 22v-36q-27 0 -36 -9t-8 -28h41v-136z" />
    <glyph glyph-name="quotedblright" unicode="&#x201d;" horiz-adv-x="248" 
d="M21 505v36q27 0 36 9t9 28h-42v135h84v-114q0 -50 -17 -72t-70 -22zM136 505v36q27 0 36 9t9 28h-42v135h84v-114q0 -50 -17 -72t-70 -22z" />
    <glyph glyph-name="quotedblbase" unicode="&#x201e;" horiz-adv-x="248" 
d="M21 -64v36q27 0 36 9t9 28h-42v135h84v-114q0 -50 -17 -72t-70 -22zM137 -64v36q27 0 36 9t9 28h-42v135h84v-114q0 -50 -17 -72t-70 -22z" />
    <glyph glyph-name="dagger" unicode="&#x2020;" horiz-adv-x="155" 
d="M120 496q0 -36 -8 -106.5t-16 -123.5l-7 -52h-25q-28 200 -28 282v55h-36v74h36v89h84v-89h35v-74h-35v-55z" />
    <glyph glyph-name="daggerdbl" unicode="&#x2021;" horiz-adv-x="155" 
d="M155 441h-38q-3 -42 -10 -98.5t-13 -92.5l-5 -36h-25q-19 133 -26 227h-38v70h36v40h-36v74h36v89h84v-89h35v-74h-35v-40h35v-70z" />
    <glyph glyph-name="bullet" unicode="&#x2022;" horiz-adv-x="260" 
d="M130 169q-37 0 -62.5 25.5t-25.5 62.5t25.5 63t62.5 26t62.5 -26t25.5 -63t-25.5 -62.5t-62.5 -25.5z" />
    <glyph glyph-name="ellipsis" unicode="&#x2026;" horiz-adv-x="387" 
d="M281 146h84v-146h-84v146zM152 146h84v-146h-84v146zM22 146h84v-146h-84v146z" />
    <glyph glyph-name="perthousand" unicode="&#x2030;" horiz-adv-x="513" 
d="M201 524q0 -64 -26 -94.5t-72 -30.5q-97 0 -97 125v9q0 124 97 124q98 0 98 -124v-9zM134 507v43q0 26 -7 36.5t-24 10.5q-16 0 -23 -10.5t-7 -36.5v-43q0 -26 6.5 -37t23.5 -11q31 0 31 48zM19 220l-19 22l284 250l18 -21zM300 182q0 -64 -26 -94.5t-72 -30.5
q-49 0 -72.5 30t-23.5 95v8q0 125 96 125q98 0 98 -125v-8zM506 182q0 -125 -98 -125q-49 0 -72.5 30t-23.5 95v8q0 125 96 125q98 0 98 -125v-8zM233 165v42q0 26 -7 37t-24 11q-30 0 -30 -48v-42q0 -27 6 -37.5t24 -10.5q31 0 31 48zM440 165v42q0 26 -7 37t-25 11
q-29 0 -29 -48v-42q0 -27 6 -37.5t23 -10.5q32 0 32 48z" />
    <glyph glyph-name="uni2032" unicode="&#x2032;" horiz-adv-x="130" 
d="M30 714h83l-6 -128q-4 -67 -30 -218h-48q-11 136 -6 218z" />
    <glyph glyph-name="uni2033" unicode="&#x2033;" horiz-adv-x="252" 
d="M31 714h83l-6 -128q-4 -67 -30 -218h-48q-11 136 -6 218zM151 714h83l-6 -128q-4 -67 -30 -218h-48q-11 136 -6 218z" />
    <glyph glyph-name="guilsinglleft" unicode="&#x2039;" horiz-adv-x="124" 
d="M120 121h-65l-52 103l52 104h65l-53 -104z" />
    <glyph glyph-name="guilsinglright" unicode="&#x203a;" horiz-adv-x="124" 
d="M68 121h-65l52 103l-52 104h65l51 -104z" />
    <glyph glyph-name="fraction" unicode="&#x2044;" horiz-adv-x="271" 
d="M0 343v32h271v-32h-271z" />
    <glyph glyph-name="Euro" unicode="&#x20ac;" horiz-adv-x="278" 
d="M5 345h20v29h-20v34h20v100q0 76 28.5 105t85.5 29t85 -29t28 -105v-70h-84v81q0 26 -6.5 37t-22.5 11q-30 0 -30 -48v-111h82v-34h-82v-29h82v-34h-82v-118q0 -26 6.5 -36.5t23.5 -10.5q16 0 22.5 10.5t6.5 36.5v86h84v-75q0 -76 -28 -105t-85 -29t-85.5 29t-28.5 105
v107h-20v34z" />
    <glyph glyph-name="uni2116" unicode="&#x2116;" horiz-adv-x="546" 
d="M327 321v37h182v-37h-182zM100 248v-248h-74v714h114l94 -609q-26 282 -26 442v167h74v-714h-106l-87 594q11 -222 11 -346zM520 586v-61q0 -134 -103 -134q-52 0 -76.5 30.5t-24.5 103.5v61q0 134 101 134q53 0 78 -31t25 -103zM446 502v108q0 48 -29 48q-15 0 -21 -11
t-6 -37v-108q0 -27 5.5 -38t21.5 -11q29 0 29 49z" />
    <glyph glyph-name="trademark" unicode="&#x2122;" horiz-adv-x="332" 
d="M130 671h-37v-274h-45v274h-38v43h120v-43zM193 475v-78h-45v317h60l23 -153l19 153h62v-317h-45v78q0 53 3 100l-26 -149h-27l-26 157q2 -66 2 -108z" />
    <glyph glyph-name="onethird" unicode="&#x2153;" horiz-adv-x="271" 
d="M0 343v32h271v-32h-271zM231 397h-190v60h58v146h-58v57h34q49 0 49 60h49v-263h58v-60zM136 -6q-50 0 -76 25t-26 69v37h74v-28q0 -41 28 -41q29 0 29 44v28q0 40 -33 40q-19 0 -41 -20l-31 36l85 71l-109 -4v66h198v-51l-70 -50q34 -1 54 -24t20 -67v-21
q0 -51 -27 -80.5t-75 -29.5z" />
    <glyph glyph-name="twothirds" unicode="&#x2154;" horiz-adv-x="271" 
d="M0 343v32h271v-32h-271zM36 397v60q42 30 57 41.5t37.5 32t29.5 38t7 38.5v14q0 37 -28 37q-29 0 -29 -45v-55h-73v47q0 56 26.5 85.5t75.5 29.5t75.5 -25t26.5 -68v-17q0 -86 -121 -151l122 4v-66h-206zM135 -6q-50 0 -76 25t-26 69v37h74v-28q0 -41 28 -41q29 0 29 44
v28q0 40 -33 40q-19 0 -41 -20l-31 36l85 71l-109 -4v66h198v-51l-70 -50q34 -1 54 -24t20 -67v-21q0 -51 -27 -80.5t-75 -29.5z" />
    <glyph glyph-name="oneeighth" unicode="&#x215b;" horiz-adv-x="271" 
d="M233 242v-15q0 -40 -36 -63q41 -22 41 -67v-20q0 -36 -28 -59.5t-75 -23.5t-75 22.5t-28 60.5v20q0 44 40 66q-36 20 -36 64v15q0 34 25.5 57.5t73.5 23.5t73 -23t25 -58zM231 397h-190v60h58v146h-58v57h34q49 0 49 60h49v-263h58v-60zM0 343v32h271v-32h-271zM135 56
q29 0 29 33v14q0 33 -29 33q-30 0 -30 -33v-14q0 -33 30 -33zM135 261q-28 0 -28 -32v-13q0 -34 28 -34t28 34v13q0 32 -28 32z" />
    <glyph glyph-name="threeeighths" unicode="&#x215c;" horiz-adv-x="271" 
d="M234 242v-15q0 -40 -36 -63q41 -22 41 -67v-20q0 -36 -28 -59.5t-75 -23.5t-75 22.5t-28 60.5v20q0 44 40 66q-36 20 -36 64v15q0 34 25.5 57.5t73.5 23.5t73 -23t25 -58zM238 501q0 -51 -27 -80.5t-75 -29.5q-50 0 -76 25t-26 69v37h74v-28q0 -41 28 -41q29 0 29 44v28
q0 40 -33 40q-19 0 -41 -20l-31 36l84 71l-108 -4v66h198v-51l-71 -50q34 -1 54.5 -24t20.5 -67v-21zM0 343v32h271v-32h-271zM136 56q29 0 29 33v14q0 33 -29 33q-30 0 -30 -33v-14q0 -33 30 -33zM136 261q-28 0 -28 -32v-13q0 -34 28 -34t28 34v13q0 32 -28 32z" />
    <glyph glyph-name="fiveeighths" unicode="&#x215d;" horiz-adv-x="271" 
d="M233 242v-15q0 -40 -36 -63q41 -22 41 -67v-20q0 -36 -28 -59.5t-75 -23.5t-75 22.5t-28 60.5v20q0 44 40 66q-36 20 -36 64v15q0 34 25.5 57.5t73.5 23.5t73 -23t25 -58zM133 391q-49 0 -75 25t-26 70v36h73v-28q0 -41 28 -41q29 0 29 44v27q0 19 -6 29t-25 10
q-23 0 -40 -25l-52 24v152h191v-67l-132 3v-51q21 15 55 15q40 0 61 -24.5t21 -66.5v-22q0 -50 -26.5 -80t-75.5 -30zM0 343v32h271v-32h-271zM135 56q29 0 29 33v14q0 33 -29 33q-30 0 -30 -33v-14q0 -33 30 -33zM135 261q-28 0 -28 -32v-13q0 -34 28 -34t28 34v13
q0 32 -28 32z" />
    <glyph glyph-name="seveneighths" unicode="&#x215e;" horiz-adv-x="271" 
d="M233 242v-15q0 -40 -36 -63q41 -22 41 -67v-20q0 -36 -28 -59.5t-75 -23.5t-75 22.5t-28 60.5v20q0 44 40 66q-36 20 -36 64v15q0 34 25.5 57.5t73.5 23.5t73 -23t25 -58zM140 397h-76q13 144 98 252l-127 -2v67h201v-53q-46 -59 -66 -115t-30 -149zM0 343v32h271v-32
h-271zM135 56q29 0 29 33v14q0 33 -29 33q-30 0 -30 -33v-14q0 -33 30 -33zM135 261q-28 0 -28 -32v-13q0 -34 28 -34t28 34v13q0 32 -28 32z" />
    <glyph glyph-name="uni2190" unicode="&#x2190;" horiz-adv-x="408" 
d="M378 302h-125l2 -82l-255 117l255 126l-2 -86h125v-75z" />
    <glyph glyph-name="arrowup" unicode="&#x2191;" horiz-adv-x="283" 
d="M259 326l-79 1v-241h-80v241l-75 -1l113 270z" />
    <glyph glyph-name="uni2192" unicode="&#x2192;" horiz-adv-x="408" 
d="M154 220l1 82h-125v75h125l-1 86l254 -126z" />
    <glyph glyph-name="arrowdown" unicode="&#x2193;" horiz-adv-x="283" 
d="M138 86l-113 271l75 -1v240h80v-240l79 1z" />
    <glyph glyph-name="minus" unicode="&#x2212;" horiz-adv-x="258" 
d="M10 204v75h238v-75h-238z" />
    <glyph glyph-name="approxequal" unicode="&#x2248;" horiz-adv-x="258" 
d="M93 289q-21 0 -21 -32h-65q0 53 21 79t57 26q19 0 45 -14.5t36 -14.5q20 0 20 32h65q0 -105 -77 -105q-19 0 -44.5 14.5t-36.5 14.5zM93 152q-21 0 -21 -32h-65q0 53 21 79t57 26q19 0 45 -14.5t36 -14.5q20 0 20 32h65q0 -105 -77 -105q-19 0 -44.5 14.5t-36.5 14.5z
" />
    <glyph glyph-name="notequal" unicode="&#x2260;" horiz-adv-x="258" 
d="M10 263v75h119l22 61h70l-22 -61h49v-75h-77l-15 -43h92v-75h-120l-21 -59h-70l21 59h-48v75h76l15 43h-91z" />
    <glyph glyph-name="lessequal" unicode="&#x2264;" horiz-adv-x="252" 
d="M168 162l-126 101v50l126 102l44 -62l-98 -65l98 -65zM12 69v71h228v-71h-228z" />
    <glyph glyph-name="greaterequal" unicode="&#x2265;" horiz-adv-x="252" 
d="M210 263l-126 -101l-45 61l99 65l-99 65l45 62l126 -102v-50zM240 140v-71h-228v71h228z" />
    <glyph glyph-name="uni24C5" unicode="&#x24c5;" horiz-adv-x="348" 
d="M167 502h-14v-188h14q22 0 28 11t6 39v87q0 27 -6.5 39t-27.5 12zM173 262h-20v-104h-60v399h79q46 0 67.5 -26.5t21.5 -86.5v-71q0 -59 -21.5 -85t-66.5 -26zM319 231q0 -80 -37.5 -120t-107.5 -40q-69 0 -107 40.5t-38 119.5v252q0 79 38 119.5t107 40.5
q70 0 107.5 -40t37.5 -120v-252zM174 101q59 0 87 30.5t28 99.5v252q0 67 -27.5 99t-87.5 32t-87 -32t-27 -99v-252q0 -69 28 -99.5t86 -30.5z" />
    <glyph glyph-name="uni25CB" unicode="&#x25cb;" horiz-adv-x="628" 
d="M459 231q0 -80 -37.5 -120t-107.5 -40q-69 0 -107 40.5t-38 119.5v252q0 79 38 119.5t107 40.5q70 0 107.5 -40t37.5 -120v-252zM314 101q59 0 87 30.5t28 99.5v252q0 67 -27.5 99t-87.5 32t-87 -32t-27 -99v-252q0 -69 28 -99.5t86 -30.5z" />
    <glyph glyph-name="zero.slash" unicode="&#xe401;" horiz-adv-x="286" 
d="M143 720q60 0 88.5 -32t28.5 -109v-444q0 -77 -28.5 -109t-88.5 -32q-61 0 -89 32t-28 109v444q0 77 28.5 109t88.5 32zM176 126v204h-66v-204q0 -29 7.5 -41t25.5 -12q33 0 33 53zM110 588v-188h66v188q0 29 -7.5 41t-25.5 12q-33 0 -33 -53z" />
    <glyph glyph-name="one.tab" unicode="&#xe450;" horiz-adv-x="286" 
d="M272 0h-256v80h85v501h-71v75h60q27 0 35 12t8 46h53v-634h86v-80z" />
    <glyph glyph-name="Jacute" horiz-adv-x="278" 
d="M18 268h84v-142q0 -29 7.5 -41t25.5 -12q33 0 33 53v588h84v-579q0 -77 -28.5 -109t-88.5 -32q-61 0 -89 32t-28 109v133zM183 734l20 48h65l-32 -48h-53z" />
    <glyph glyph-name="idotaccent" horiz-adv-x="132" 
d="M24 714h84v-119h-84v119zM24 560h84v-560h-84v560z" />
    <glyph glyph-name="jacute" horiz-adv-x="131" 
d="M48 595l11 119h65l-37 -119h-39zM-20 -142v69h10q21 0 27.5 7.5t6.5 27.5v598h84v-605q0 -57 -20 -79.5t-61 -22.5q-27 0 -47 5z" />
    <glyph glyph-name="f.short" horiz-adv-x="144" 
d="M139 486h-29v-486h-84v486h-28v74h28v65q0 94 77 94q23 0 36 -5v-71h-6q-14 0 -18.5 -7t-4.5 -26v-50h29v-74z" />
    <glyph glyph-name="j.tail" horiz-adv-x="131" 
d="M-23 -140q-46 0 -86 10l10 70q34 -8 60 -8q37 0 50 18t13 66v544h84v-546q0 -82 -33.5 -118t-97.5 -36z" />
    <glyph glyph-name="a.it" 
d="M180 0q-4 11 -9 36q-29 -42 -74 -42q-74 0 -74 89v391q0 92 74 92q46 0 75 -40q3 19 8 34h70v-560h-70zM136 67q16 0 30 8v410q-14 8 -30 8q-29 0 -29 -34v-358q0 -34 29 -34z" />
    <glyph glyph-name="aacute.it" 
d="M180 0q-4 11 -9 36q-29 -42 -74 -42q-74 0 -74 89v391q0 92 74 92q46 0 75 -40q3 19 8 34h70v-560h-70zM136 67q16 0 30 8v410q-14 8 -30 8q-29 0 -29 -34v-358q0 -34 29 -34zM118 595l11 119h65l-37 -119h-39z" />
    <glyph glyph-name="abreve.it" 
d="M180 0q-4 11 -9 36q-29 -42 -74 -42q-74 0 -74 89v391q0 92 74 92q46 0 75 -40q3 19 8 34h70v-560h-70zM136 67q16 0 30 8v410q-14 8 -30 8q-29 0 -29 -34v-358q0 -34 29 -34zM195 714v-57q0 -37 -13 -52t-43 -15t-43 15t-13 52v57h41v-62q0 -25 15 -25q16 0 16 25v62h40
z" />
    <glyph glyph-name="acircumflex.it" 
d="M180 0q-4 11 -9 36q-29 -42 -74 -42q-74 0 -74 89v391q0 92 74 92q46 0 75 -40q3 19 8 34h70v-560h-70zM136 67q16 0 30 8v410q-14 8 -30 8q-29 0 -29 -34v-358q0 -34 29 -34zM151 595l-18 86l-19 -86h-45l34 119h60l34 -119h-46z" />
    <glyph glyph-name="adieresis.it" 
d="M180 0q-4 11 -9 36q-29 -42 -74 -42q-74 0 -74 89v391q0 92 74 92q46 0 75 -40q3 19 8 34h70v-560h-70zM136 67q16 0 30 8v410q-14 8 -30 8q-29 0 -29 -34v-358q0 -34 29 -34zM156 714h49v-119h-49v119zM74 714h49v-119h-49v119z" />
    <glyph glyph-name="agrave.it" 
d="M180 0q-4 11 -9 36q-29 -42 -74 -42q-74 0 -74 89v391q0 92 74 92q46 0 75 -40q3 19 8 34h70v-560h-70zM136 67q16 0 30 8v410q-14 8 -30 8q-29 0 -29 -34v-358q0 -34 29 -34zM158 595h-39l-37 119h65z" />
    <glyph glyph-name="amacron.it" 
d="M180 0q-4 11 -9 36q-29 -42 -74 -42q-74 0 -74 89v391q0 92 74 92q46 0 75 -40q3 19 8 34h70v-560h-70zM136 67q16 0 30 8v410q-14 8 -30 8q-29 0 -29 -34v-358q0 -34 29 -34zM66 639h132v-44h-132v44z" />
    <glyph glyph-name="aogonek.it" 
d="M250 0h-28v-48q0 -34 30 -34v-62q-49 -4 -71 13t-22 63v31q0 35 15 57l-3 16q-29 -42 -74 -42q-74 0 -74 89v391q0 92 74 92q46 0 75 -40q3 19 8 34h70v-560zM136 67q16 0 30 8v410q-14 8 -30 8q-29 0 -29 -34v-358q0 -34 29 -34z" />
    <glyph glyph-name="aring.it" 
d="M180 0q-4 11 -9 36q-29 -42 -74 -42q-74 0 -74 89v391q0 92 74 92q46 0 75 -40q3 19 8 34h70v-560h-70zM136 67q16 0 30 8v410q-14 8 -30 8q-29 0 -29 -34v-358q0 -34 29 -34zM196 642q0 -53 -49 -53h-17q-52 0 -52 53t52 53h17q49 0 49 -53zM161 642q0 19 -20 19h-8
q-19 0 -19 -19t19 -19h8q20 0 20 19z" />
    <glyph glyph-name="aringacute.it" 
d="M180 0q-4 11 -9 36q-29 -42 -74 -42q-74 0 -74 89v391q0 92 74 92q46 0 75 -40q3 19 8 34h70v-560h-70zM136 67q16 0 30 8v410q-14 8 -30 8q-29 0 -29 -34v-358q0 -34 29 -34zM196 642q0 -53 -49 -53h-17q-52 0 -52 53t52 53h17q49 0 49 -53zM121 708l11 119h65l-37 -119
h-39zM161 642q0 19 -20 19h-8q-19 0 -19 -19t19 -19h8q20 0 20 19z" />
    <glyph glyph-name="atilde.it" 
d="M180 0q-4 11 -9 36q-29 -42 -74 -42q-74 0 -74 89v391q0 92 74 92q46 0 75 -40q3 19 8 34h70v-560h-70zM136 67q16 0 30 8v410q-14 8 -30 8q-29 0 -29 -34v-358q0 -34 29 -34zM157 594q-22 0 -34 16.5t-13 43.5h-15q-2 -31 0 -59h-30q-5 19 -5 43q0 65 49 65q43 0 47 -61
h15q1 26 -1 57h30q5 -16 5 -41q0 -64 -48 -64z" />
    <glyph glyph-name="g.it" 
d="M120 -140q-46 0 -86 10l10 70q34 -8 60 -8q36 0 49 18t13 66v13q-28 -35 -69 -35q-74 0 -74 89v391q0 92 74 92q46 0 75 -40q3 19 8 34h70v-546q0 -82 -33 -118t-97 -36zM136 67q16 0 30 8v410q-14 8 -30 8q-29 0 -29 -34v-358q0 -34 29 -34z" />
    <glyph glyph-name="gbreve.it" 
d="M120 -140q-46 0 -86 10l10 70q34 -8 60 -8q36 0 49 18t13 66v13q-28 -35 -69 -35q-74 0 -74 89v391q0 92 74 92q46 0 75 -40q3 19 8 34h70v-546q0 -82 -33 -118t-97 -36zM136 67q16 0 30 8v410q-14 8 -30 8q-29 0 -29 -34v-358q0 -34 29 -34zM194 714v-57q0 -37 -13 -52
t-43 -15t-43 15t-13 52v57h41v-62q0 -25 15 -25q16 0 16 25v62h40z" />
    <glyph glyph-name="gcircumflex.it" 
d="M120 -140q-46 0 -86 10l10 70q34 -8 60 -8q36 0 49 18t13 66v13q-28 -35 -69 -35q-74 0 -74 89v391q0 92 74 92q46 0 75 -40q3 19 8 34h70v-546q0 -82 -33 -118t-97 -36zM136 67q16 0 30 8v410q-14 8 -30 8q-29 0 -29 -34v-358q0 -34 29 -34zM154 595l-18 86l-19 -86h-45
l34 119h60l34 -119h-46z" />
    <glyph glyph-name="gcommaaccent.it" 
d="M120 -140q-46 0 -86 10l10 70q34 -8 60 -8q36 0 49 18t13 66v13q-28 -35 -69 -35q-74 0 -74 89v391q0 92 74 92q46 0 75 -40q3 19 8 34h70v-546q0 -82 -33 -118t-97 -36zM136 67q16 0 30 8v410q-14 8 -30 8q-29 0 -29 -34v-358q0 -34 29 -34zM169 595h-62v55
q0 40 12.5 56t51.5 16v-27q-19 0 -25 -6t-7 -20h30v-74z" />
    <glyph glyph-name="gdotaccent.it" 
d="M120 -140q-46 0 -86 10l10 70q34 -8 60 -8q36 0 49 18t13 66v13q-28 -35 -69 -35q-74 0 -74 89v391q0 92 74 92q46 0 75 -40q3 19 8 34h70v-546q0 -82 -33 -118t-97 -36zM136 67q16 0 30 8v410q-14 8 -30 8q-29 0 -29 -34v-358q0 -34 29 -34zM110 714h44v-119h-44v119z
" />
    <glyph glyph-name="space_uni0326" horiz-adv-x="121" 
d="M90 -49q0 -36 -12 -52t-49 -15v26q21 0 27.5 4.5t7.5 16.5h-28v43h54v-23z" />
    <glyph glyph-name="thinbar" horiz-adv-x="106" 
d="M50 779h6v-923h-6v923z" />
    <glyph glyph-name="caron.slovak" horiz-adv-x="97" 
d="M23 714h53l-12 -131h-46z" />
    <glyph glyph-name="dot" horiz-adv-x="131" 
d="M24 714h84v-119h-84v119z" />
    <glyph glyph-name="zero.num" horiz-adv-x="241" 
d="M223 586v-61q0 -134 -103 -134q-52 0 -76.5 30.5t-24.5 103.5v61q0 134 101 134q53 0 78 -31t25 -103zM149 502v108q0 48 -29 48q-15 0 -21 -11t-6 -37v-108q0 -27 5.5 -38t21.5 -11q29 0 29 49z" />
    <glyph glyph-name="one.num" horiz-adv-x="236" 
d="M213 397h-190v60h58v146h-58v57h34q49 0 49 60h49v-263h58v-60z" />
    <glyph glyph-name="two.num" horiz-adv-x="240" 
d="M17 397v60q42 30 57 41.5t37.5 32t29.5 38t7 38.5v14q0 37 -28 37q-29 0 -29 -45v-55h-73v47q0 56 26.5 85.5t75.5 29.5t75.5 -25t26.5 -68v-17q0 -86 -121 -151l122 4v-66h-206z" />
    <glyph glyph-name="three.num" horiz-adv-x="242" 
d="M121 391q-50 0 -76 25t-26 69v37h74v-28q0 -41 28 -41q29 0 29 44v28q0 40 -33 40q-19 0 -41 -20l-31 36l85 71l-109 -4v66h198v-51l-70 -50q34 -1 54 -24t20 -67v-21q0 -51 -27 -80.5t-75 -29.5z" />
    <glyph glyph-name="four.num" horiz-adv-x="239" 
d="M126 526q0 51 2 125l-61 -162h59v37zM235 431h-36v-44h-73v44h-112l-3 47q6 15 15 39.5t28.5 76t31.5 86.5l13 34h100v-225h36v-58z" />
    <glyph glyph-name="five.num" horiz-adv-x="239" 
d="M119 391q-49 0 -75 25t-26 70v36h73v-28q0 -41 28 -41q29 0 29 44v27q0 19 -6 29t-25 10q-23 0 -40 -25l-52 24v152h191v-67l-132 3v-51q21 15 55 15q40 0 61 -24.5t21 -66.5v-22q0 -50 -26.5 -80t-75.5 -30z" />
    <glyph glyph-name="six.num" horiz-adv-x="242" 
d="M222 491q0 -46 -26 -73t-73 -27q-53 0 -78.5 30.5t-25.5 102.5v61q0 135 102 135q47 0 73 -25t26 -69v-21h-71v6q0 25 -6 36t-22 11q-28 0 -28 -47v-27q26 8 47 8q36 0 59 -21t23 -67v-13zM122 453q27 0 27 45v9q0 38 -32 38q-11 0 -24 -5v-41q0 -24 6 -35t23 -11z" />
    <glyph glyph-name="seven.num" horiz-adv-x="242" 
d="M125 397h-76q13 142 98 252l-127 -2v67h201v-53q-46 -59 -66 -115t-30 -149z" />
    <glyph glyph-name="eight.num" horiz-adv-x="242" 
d="M121 391q-47 0 -75 22.5t-28 60.5l-1 20q0 44 41 67q-36 21 -36 63v15q0 34 25.5 57.5t73.5 23.5t73 -23t25 -58v-15q0 -43 -36 -63q41 -22 41 -67v-20q0 -36 -28 -59.5t-75 -23.5zM121 658q-28 0 -28 -32v-13q0 -34 28 -34t28 34v13q0 32 -28 32zM121 453q29 0 29 33v14
q0 33 -29 33q-30 0 -30 -33v-14q0 -33 30 -33z" />
    <glyph glyph-name="nine.num" horiz-adv-x="242" 
d="M125 564q9 0 23 4v43q0 25 -5.5 36t-21.5 11t-22 -11t-6 -35v-8q0 -40 32 -40zM121 391q-46 0 -72.5 25t-26.5 69v20h71v-5q0 -25 6 -36t22 -11q27 0 27 47v25q-21 -8 -45 -8q-36 0 -60 21.5t-24 66.5v14q0 47 26 74t74 27q53 0 78 -30.5t25 -102.5v-62q0 -134 -101 -134
z" />
    <glyph glyph-name="zero.den" horiz-adv-x="241" 
d="M223 189v-61q0 -134 -103 -134q-52 0 -76.5 30.5t-24.5 103.5v61q0 134 101 134q53 0 78 -31t25 -103zM149 105v108q0 48 -29 48q-15 0 -21 -11t-6 -37v-108q0 -27 5.5 -38t21.5 -11q29 0 29 49z" />
    <glyph glyph-name="one.den" horiz-adv-x="236" 
d="M213 0h-190v60h58v146h-58v57h34q49 0 49 60h49v-263h58v-60z" />
    <glyph glyph-name="two.den" horiz-adv-x="240" 
d="M17 0v60q42 30 57 41.5t37.5 32t29.5 38t7 38.5v14q0 37 -28 37q-29 0 -29 -45v-55h-73v47q0 56 26.5 85.5t75.5 29.5t75.5 -25t26.5 -68v-17q0 -86 -121 -151l122 4v-66h-206z" />
    <glyph glyph-name="three.den" horiz-adv-x="242" 
d="M121 -6q-50 0 -76 25t-26 69v37h74v-28q0 -41 28 -41q29 0 29 44v28q0 40 -33 40q-19 0 -41 -20l-31 36l85 71l-109 -4v66h198v-51l-70 -50q34 -1 54 -24t20 -67v-21q0 -51 -27 -80.5t-75 -29.5z" />
    <glyph glyph-name="four.den" horiz-adv-x="239" 
d="M126 129q0 51 2 125l-61 -162h59v37zM235 34h-36v-44h-73v44h-112l-3 47q6 15 15 39.5t28.5 76t31.5 85.5l13 35h100v-225h36v-58z" />
    <glyph glyph-name="five.den" horiz-adv-x="239" 
d="M119 -6q-49 0 -75 25t-26 70v36h73v-28q0 -41 28 -41q29 0 29 44v27q0 19 -6 29t-25 10q-23 0 -40 -25l-52 24v152h191v-67l-132 3v-51q21 15 55 15q40 0 61 -24.5t21 -66.5v-22q0 -50 -26.5 -80t-75.5 -30z" />
    <glyph glyph-name="six.den" horiz-adv-x="242" 
d="M222 94q0 -46 -26 -73t-73 -27q-53 0 -78.5 30.5t-25.5 102.5v61q0 135 102 135q47 0 73 -25t26 -69v-21h-71v6q0 25 -6 36t-22 11q-28 0 -28 -47v-27q26 8 47 8q36 0 59 -21t23 -67v-13zM122 56q27 0 27 45v9q0 38 -32 38q-11 0 -24 -5v-41q0 -24 6 -35t23 -11z" />
    <glyph glyph-name="seven.den" horiz-adv-x="242" 
d="M125 0h-76q13 142 98 252l-127 -2v67h201v-53q-46 -59 -66 -115t-30 -149z" />
    <glyph glyph-name="nine.den" horiz-adv-x="242" 
d="M125 167q9 0 23 4v43q0 25 -5.5 36t-21.5 11t-22 -11t-6 -35v-8q0 -40 32 -40zM121 -6q-46 0 -72.5 25t-26.5 69v20h71v-5q0 -25 6 -36t22 -11q27 0 27 47v25q-21 -8 -45 -8q-36 0 -60 21.5t-24 66.5v14q0 47 26 74t74 27q53 0 78 -30.5t25 -102.5v-62q0 -134 -101 -134z
" />
    <glyph glyph-name="zero.sub" horiz-adv-x="241" 
d="M223 139v-61q0 -134 -103 -134q-52 0 -76.5 30.5t-24.5 103.5v61q0 134 101 134q53 0 78 -31t25 -103zM149 55v108q0 48 -29 48q-15 0 -21 -11t-6 -37v-108q0 -27 5.5 -38t21.5 -11q29 0 29 49z" />
    <glyph glyph-name="one.sub" horiz-adv-x="236" 
d="M213 -50h-190v60h58v146h-58v57h34q49 0 49 60h49v-263h58v-60z" />
    <glyph glyph-name="two.sub" horiz-adv-x="240" 
d="M17 -50v60q42 30 57 41.5t37.5 32t29.5 38t7 38.5v14q0 37 -28 37q-29 0 -29 -45v-55h-73v47q0 56 26.5 85.5t75.5 29.5t75.5 -25t26.5 -68v-17q0 -86 -121 -151l122 4v-66h-206z" />
    <glyph glyph-name="three.sub" horiz-adv-x="242" 
d="M121 -56q-50 0 -76 25t-26 69v37h74v-28q0 -41 28 -41q29 0 29 44v28q0 40 -33 40q-19 0 -41 -20l-31 36l85 71l-109 -4v66h198v-51l-70 -50q34 -1 54 -24t20 -67v-21q0 -51 -27 -80.5t-75 -29.5z" />
    <glyph glyph-name="four.sub" horiz-adv-x="239" 
d="M126 79q0 51 2 125l-61 -162h59v37zM235 -16h-36v-44h-73v44h-112l-3 47q6 15 15 39.5t28.5 76t31.5 85.5l13 35h100v-225h36v-58z" />
    <glyph glyph-name="five.sub" horiz-adv-x="239" 
d="M119 -56q-49 0 -75 25t-26 70v36h73v-28q0 -41 28 -41q29 0 29 44v27q0 19 -6 29t-25 10q-23 0 -40 -25l-52 24v152h191v-67l-132 3v-51q21 15 55 15q40 0 61 -24.5t21 -66.5v-22q0 -50 -26.5 -80t-75.5 -30z" />
    <glyph glyph-name="six.sub" horiz-adv-x="242" 
d="M222 44q0 -46 -26 -73t-73 -27q-53 0 -78.5 30.5t-25.5 102.5v61q0 135 102 135q47 0 73 -25t26 -69v-21h-71v6q0 25 -6 36t-22 11q-28 0 -28 -47v-27q26 8 47 8q36 0 59 -21t23 -67v-13zM122 6q27 0 27 45v9q0 38 -32 38q-11 0 -24 -5v-41q0 -24 6 -35t23 -11z" />
    <glyph glyph-name="seven.sub" horiz-adv-x="242" 
d="M125 -50h-76q13 142 98 252l-127 -2v67h201v-53q-46 -59 -66 -115t-30 -149z" />
    <glyph glyph-name="eight.sub" horiz-adv-x="242" 
d="M121 -56q-47 0 -75 22.5t-28 60.5l-1 20q0 44 41 67q-36 21 -36 63v15q0 34 25.5 57.5t73.5 23.5t73 -23t25 -58v-15q0 -43 -36 -63q41 -22 41 -67v-20q0 -36 -28 -59.5t-75 -23.5zM121 211q-28 0 -28 -32v-13q0 -34 28 -34t28 34v13q0 32 -28 32zM121 6q29 0 29 33v14
q0 33 -29 33q-30 0 -30 -33v-14q0 -33 30 -33z" />
    <glyph glyph-name="nine.sub" horiz-adv-x="242" 
d="M125 117q9 0 23 4v43q0 25 -5.5 36t-21.5 11t-22 -11t-6 -35v-8q0 -40 32 -40zM121 -56q-46 0 -72.5 25t-26.5 69v20h71v-5q0 -25 6 -36t22 -11q27 0 27 47v25q-21 -8 -45 -8q-36 0 -60 21.5t-24 66.5v14q0 47 26 74t74 27q53 0 78 -30.5t25 -102.5v-62q0 -134 -101 -134
z" />
    <glyph glyph-name="zero.inf" horiz-adv-x="241" 
d="M223 189v-61q0 -134 -103 -134q-52 0 -76.5 30.5t-24.5 103.5v61q0 134 101 134q53 0 78 -31t25 -103zM149 105v108q0 48 -29 48q-15 0 -21 -11t-6 -37v-108q0 -27 5.5 -38t21.5 -11q29 0 29 49z" />
    <glyph glyph-name="one.inf" horiz-adv-x="236" 
d="M213 0h-190v60h58v146h-58v57h34q49 0 49 60h49v-263h58v-60z" />
    <glyph glyph-name="two.inf" horiz-adv-x="240" 
d="M17 0v60q42 30 57 41.5t37.5 32t29.5 38t7 38.5v14q0 37 -28 37q-29 0 -29 -45v-55h-73v47q0 56 26.5 85.5t75.5 29.5t75.5 -25t26.5 -68v-17q0 -86 -121 -151l122 4v-66h-206z" />
    <glyph glyph-name="three.inf" horiz-adv-x="242" 
d="M121 -6q-50 0 -76 25t-26 69v37h74v-28q0 -41 28 -41q29 0 29 44v28q0 40 -33 40q-19 0 -41 -20l-31 36l85 71l-109 -4v66h198v-51l-70 -50q34 -1 54 -24t20 -67v-21q0 -51 -27 -80.5t-75 -29.5z" />
    <glyph glyph-name="four.inf" horiz-adv-x="239" 
d="M126 129q0 51 2 125l-61 -162h59v37zM235 34h-36v-44h-73v44h-112l-3 47q6 15 15 39.5t28.5 76t31.5 85.5l13 35h100v-225h36v-58z" />
    <glyph glyph-name="five.inf" horiz-adv-x="239" 
d="M119 -6q-49 0 -75 25t-26 70v36h73v-28q0 -41 28 -41q29 0 29 44v27q0 19 -6 29t-25 10q-23 0 -40 -25l-52 24v152h191v-67l-132 3v-51q21 15 55 15q40 0 61 -24.5t21 -66.5v-22q0 -50 -26.5 -80t-75.5 -30z" />
    <glyph glyph-name="six.inf" horiz-adv-x="242" 
d="M222 94q0 -46 -26 -73t-73 -27q-53 0 -78.5 30.5t-25.5 102.5v61q0 135 102 135q47 0 73 -25t26 -69v-21h-71v6q0 25 -6 36t-22 11q-28 0 -28 -47v-27q26 8 47 8q36 0 59 -21t23 -67v-13zM122 56q27 0 27 45v9q0 38 -32 38q-11 0 -24 -5v-41q0 -24 6 -35t23 -11z" />
    <glyph glyph-name="seven.inf" horiz-adv-x="242" 
d="M125 0h-76q13 144 98 252l-127 -2v67h201v-53q-46 -59 -66 -115t-30 -149z" />
    <glyph glyph-name="eight.inf" horiz-adv-x="242" 
d="M219 242v-15q0 -40 -36 -63q41 -22 41 -67v-20q0 -36 -28 -59.5t-75 -23.5t-75 22.5t-28 60.5v20q0 44 40 66q-36 20 -36 64v15q0 34 25.5 57.5t73.5 23.5t73 -23t25 -58zM121 56q29 0 29 33v14q0 33 -29 33q-30 0 -30 -33v-14q0 -33 30 -33zM121 261q-28 0 -28 -32v-13
q0 -34 28 -34t28 34v13q0 32 -28 32z" />
    <glyph glyph-name="nine.inf" horiz-adv-x="242" 
d="M125 167q9 0 23 4v43q0 25 -5.5 36t-21.5 11t-22 -11t-6 -35v-8q0 -40 32 -40zM121 -6q-46 0 -72.5 25t-26.5 69v20h71v-5q0 -25 6 -36t22 -11q27 0 27 47v25q-21 -8 -45 -8q-36 0 -60 21.5t-24 66.5v14q0 47 26 74t74 27q53 0 78 -30.5t25 -102.5v-62q0 -134 -101 -134z
" />
    <glyph glyph-name="zero.sup" horiz-adv-x="241" 
d="M223 586v-61q0 -134 -103 -134q-52 0 -76.5 30.5t-24.5 103.5v61q0 134 101 134q53 0 78 -31t25 -103zM149 502v108q0 48 -29 48q-15 0 -21 -11t-6 -37v-108q0 -27 5.5 -38t21.5 -11q29 0 29 49z" />
    <glyph glyph-name="one.sup" horiz-adv-x="236" 
d="M213 397h-190v60h58v146h-58v57h34q49 0 49 60h49v-263h58v-60z" />
    <glyph glyph-name="two.sup" horiz-adv-x="240" 
d="M17 397v60q42 30 57 41.5t37.5 32t29.5 38t7 38.5v14q0 37 -28 37q-29 0 -29 -45v-55h-73v47q0 56 26.5 85.5t75.5 29.5t75.5 -25t26.5 -68v-17q0 -86 -121 -151l122 4v-66h-206z" />
    <glyph glyph-name="three.sup" horiz-adv-x="242" 
d="M223 501q0 -51 -27 -80.5t-75 -29.5q-50 0 -76 25t-26 69v37h74v-28q0 -41 28 -41q29 0 29 44v28q0 40 -33 40q-19 0 -41 -20l-31 36l84 71l-108 -4v66h198v-51l-71 -50q34 -1 54.5 -24t20.5 -67v-21z" />
    <glyph glyph-name="four.sup" horiz-adv-x="239" 
d="M126 526q0 51 2 125l-61 -162h59v37zM235 431h-36v-44h-73v44h-112l-3 47q6 15 15 39.5t28.5 76t31.5 86.5l13 34h100v-225h36v-58z" />
    <glyph glyph-name="five.sup" horiz-adv-x="239" 
d="M119 391q-49 0 -75 25t-26 70v36h73v-28q0 -41 28 -41q29 0 29 44v27q0 19 -6 29t-25 10q-23 0 -40 -25l-52 24v152h191v-67l-132 3v-51q21 15 55 15q40 0 61 -24.5t21 -66.5v-22q0 -50 -26.5 -80t-75.5 -30z" />
    <glyph glyph-name="six.sup" horiz-adv-x="242" 
d="M222 491q0 -46 -26 -73t-73 -27q-53 0 -78.5 30.5t-25.5 102.5v61q0 135 102 135q47 0 73 -25t26 -69v-21h-71v6q0 25 -6 36t-22 11q-28 0 -28 -47v-27q26 8 47 8q36 0 59 -21t23 -67v-13zM122 453q27 0 27 45v9q0 38 -32 38q-11 0 -24 -5v-41q0 -24 6 -35t23 -11z" />
    <glyph glyph-name="seven.sup" horiz-adv-x="242" 
d="M125 397h-76q13 144 98 252l-127 -2v67h201v-53q-46 -59 -66 -115t-30 -149z" />
    <glyph glyph-name="eight.sup" horiz-adv-x="242" 
d="M121 391q-47 0 -75 22.5t-28 60.5l-1 20q0 44 41 67q-36 21 -36 63v15q0 34 25.5 57.5t73.5 23.5t73 -23t25 -58v-15q0 -43 -36 -63q41 -22 41 -67v-20q0 -36 -28 -59.5t-75 -23.5zM121 658q-28 0 -28 -32v-13q0 -34 28 -34t28 34v13q0 32 -28 32zM121 453q29 0 29 33v14
q0 33 -29 33q-30 0 -30 -33v-14q0 -33 30 -33z" />
    <glyph glyph-name="nine.sup" horiz-adv-x="242" 
d="M125 564q9 0 23 4v43q0 25 -5.5 36t-21.5 11t-22 -11t-6 -35v-8q0 -40 32 -40zM121 391q-46 0 -72.5 25t-26.5 69v20h71v-5q0 -25 6 -36t22 -11q27 0 27 47v25q-21 -8 -45 -8q-36 0 -60 21.5t-24 66.5v14q0 47 26 74t74 27q53 0 78 -30.5t25 -102.5v-62q0 -134 -101 -134
z" />
    <glyph glyph-name="plus.sup" horiz-adv-x="258" 
d="M248 500h-82v-82h-75v82h-81v75h81v81h75v-81h82v-75z" />
    <glyph glyph-name="minus.sup" horiz-adv-x="258" 
d="M10 500v75h238v-75h-238z" />
    <glyph glyph-name="numbersign.sup" horiz-adv-x="269" 
d="M155 502v70h-41v-70h41zM155 360v87h-41v-87h-55v87h-39v55h39v70h-39v56h39v86h55v-86h41v86h55v-86h39v-56h-39v-70h39v-55h-39v-87h-55z" />
    <glyph glyph-name="one.alt" horiz-adv-x="138" 
d="M27 0v674q32 0 32 40h52v-714h-84z" />
    <glyph glyph-name="fraction.alt" horiz-adv-x="62" 
d="M-110 0h-45l327 714h45z" />
    <glyph glyph-name="colon.cap" horiz-adv-x="128" 
d="M22 517h84v-146h-84v146zM22 266h84v-146h-84v146z" />
    <glyph glyph-name="semicolon.cap" horiz-adv-x="128" 
d="M22 517h84v-146h-84v146zM20 53v36q27 0 35.5 9t8.5 28h-42v136h84v-114q0 -50 -17 -72.5t-69 -22.5z" />
    <glyph glyph-name="questiondown.cap" horiz-adv-x="281" 
d="M188 568h-84v146h84v-146zM141 -6q-61 0 -89.5 32t-28.5 110v78q0 124 85 148q4 90 11 131h53q14 -90 14 -187q-38 0 -58 -20.5t-20 -70.5v-88q0 -54 33 -54q17 0 24.5 12.5t7.5 41.5v96h85v-87q0 -78 -28 -110t-89 -32z" />
    <glyph glyph-name="exclamdown.cap" horiz-adv-x="137" 
d="M109 568h-84v146h84v-146zM109 0h-85v201q0 36 5.5 112t10.5 133l6 58h43q20 -221 20 -303v-201z" />
    <glyph glyph-name="periodcentered.cap" horiz-adv-x="127" 
d="M22 423h84v-146h-84v146z" />
    <glyph glyph-name="bullet.cap" horiz-adv-x="262" 
d="M130 262q-37 0 -62.5 25.5t-25.5 62.5t25.5 63t62.5 26t62.5 -26t25.5 -63t-25.5 -62.5t-62.5 -25.5z" />
    <glyph glyph-name="hyphen.cap" horiz-adv-x="215" 
d="M12 382h191v-80h-191v80z" />
    <glyph glyph-name="endash.cap" horiz-adv-x="342" 
d="M10 380h322v-79h-322v79z" />
    <glyph glyph-name="emdash.cap" horiz-adv-x="462" 
d="M10 380h442v-79h-442v79z" />
    <glyph glyph-name="guilsinglleft.cap" horiz-adv-x="124" 
d="M120 191h-65l-52 103l52 104h65l-53 -104z" />
    <glyph glyph-name="guilsinglright.cap" horiz-adv-x="124" 
d="M68 191h-65l52 103l-52 104h65l51 -104z" />
    <glyph glyph-name="guillemotleft.cap" horiz-adv-x="230" 
d="M124 193h-65l-51 103l51 104h65l-52 -104zM218 193h-65l-51 103l51 104h65l-53 -104z" />
    <glyph glyph-name="guillemotright.cap" horiz-adv-x="230" 
d="M76 193h-65l53 103l-53 104h65l52 -104zM170 193h-65l53 103l-53 104h65l51 -104z" />
    <glyph glyph-name="parenleft.cap" horiz-adv-x="198" 
d="M33 156v405q0 99 23 140.5t92 41.5h27v-69h-18q-27 0 -35.5 -22.5t-8.5 -76.5v-432q0 -54 9 -76.5t35 -22.5h18v-69h-28q-68 0 -91 41t-23 140z" />
    <glyph glyph-name="parenright.cap" horiz-adv-x="198" 
d="M165 156q0 -99 -23 -140t-91 -41h-28v69h18q26 0 35 22.5t9 76.5v432q0 54 -8.5 76.5t-35.5 22.5h-18v69h27q69 0 92 -41.5t23 -140.5v-405z" />
    <glyph glyph-name="bracketleft.cap" horiz-adv-x="155" 
d="M106 44h31v-69h-106v769h106v-69h-31v-631z" />
    <glyph glyph-name="bracketright.cap" horiz-adv-x="155" 
d="M49 44v631h-31v69h105v-769h-105v69h31z" />
    <glyph glyph-name="braceleft.cap" horiz-adv-x="148" 
d="M68 -19q-38 58 -38 197q0 88 20 149h-34v63h34q-21 64 -21 150q0 136 39 196l53 -11q-12 -66 -12 -171q0 -20 1.5 -51.5t1.5 -49.5t-2 -39.5t-9.5 -34.5t-21.5 -20q14 -7 21.5 -20t9.5 -34.5t2 -39.5t-1.5 -49.5t-1.5 -51.5q0 -108 13 -172z" />
    <glyph glyph-name="braceright.cap" horiz-adv-x="148" 
d="M119 178q0 -135 -38 -197l-54 11q13 64 13 172q0 20 -1.5 51.5t-2 49.5t1.5 39t9.5 34.5t21.5 20.5q-14 7 -21.5 20t-9.5 34.5t-2 39.5t1.5 49.5t1.5 51.5q0 112 -12 171l54 11q38 -62 38 -196q0 -89 -20 -150h33v-63h-33q20 -61 20 -149z" />
    <glyph glyph-name="grave.cap" horiz-adv-x="251" 
d="M168 734h-53l-32 48h65z" />
    <glyph glyph-name="dieresis.cap" horiz-adv-x="277" 
d="M55 734v45h71v-45h-71zM150 734v45h71v-45h-71z" />
    <glyph glyph-name="macron.cap" horiz-adv-x="186" 
d="M37 778h112v-44h-112v44z" />
    <glyph glyph-name="acute.cap" horiz-adv-x="251" 
d="M83 734l20 48h65l-32 -48h-53z" />
    <glyph glyph-name="circumflex.cap" horiz-adv-x="188" 
d="M111 734l-17 26l-17 -26h-45l32 48h60l32 -48h-45z" />
    <glyph glyph-name="caron.cap" horiz-adv-x="188" 
d="M64 734l-32 48h45l17 -26l17 26h45l-32 -48h-60z" />
    <glyph glyph-name="breve.cap" horiz-adv-x="207" 
d="M165 782q0 -27 -13.5 -40t-47.5 -13q-36 0 -49.5 13t-13.5 40h41q0 -22 22 -22q20 0 20 22h41z" />
    <glyph glyph-name="dotaccent.cap" horiz-adv-x="176" 
d="M53 734v47h69v-47h-69z" />
    <glyph glyph-name="ring.cap" horiz-adv-x="178" 
d="M140 776q0 -42 -43 -42h-15q-44 0 -44 42t44 42h15q43 0 43 -42zM110 776q0 15 -18 15h-6q-17 0 -17 -15t17 -15h6q18 0 18 15z" />
    <glyph glyph-name="tilde.cap" horiz-adv-x="202" 
d="M79 762h-7q0 -26 1 -28h-37q-3 10 -3 19q0 41 42 41q32 0 43 -27h5v27h37q0 -2 1 -5.5t1.5 -6.5t0.5 -6q0 -42 -42 -42q-31 0 -42 28z" />
    <glyph glyph-name="hungarumlaut.cap" horiz-adv-x="228" 
d="M32 734l20 48h65l-32 -48h-53zM110 734l20 48h65l-32 -48h-53z" />
    <glyph glyph-name="eight.den" horiz-adv-x="242" 
d="M121 -6q-47 0 -75 22.5t-28 60.5v20q0 45 41 67q-37 21 -37 63v15q0 34 25.5 57.5t73.5 23.5t73 -23t25 -58v-15q0 -43 -36 -63q41 -22 41 -67v-20q0 -36 -28 -59.5t-75 -23.5zM121 261q-28 0 -28 -32v-13q0 -34 28 -34t28 34v13q0 32 -28 32zM121 56q29 0 29 33v14
q0 33 -29 33q-30 0 -30 -33v-14q0 -33 30 -33z" />
    <glyph glyph-name="f_f.short" horiz-adv-x="285" 
d="M280 486h-29v-486h-84v486h-57v-486h-84v486h-28v74h28v65q0 94 77 94q15 0 37 -5v-71h-7q-14 0 -18.5 -7t-4.5 -26v-50h57v65q0 94 77 94q23 0 36 -5v-71h-6q-14 0 -18.5 -7t-4.5 -26v-50h29v-74z" />
    </font>
</defs>
</svg>
