<?xml version="1.0" standalone="no"?>
<!DOCTYPE svg PUBLIC "-//W3C//DTD SVG 1.1//EN" "http://www.w3.org/Graphics/SVG/1.1/DTD/svg11.dtd" >
<svg xmlns="http://www.w3.org/2000/svg" xmlns:xlink="http://www.w3.org/1999/xlink" version="1.1">
<metadata>
Created by FontForge 20170731 at Tue Jun  5 16:44:08 2018
 By Aleksey,,,
Copyright (c) 2018 by Connary Fagen. All rights reserved.
</metadata>
<defs>
<font id="AddingtonCF-Thin" horiz-adv-x="699" >
  <font-face 
    font-family="Addington CF Thin"
    font-weight="100"
    font-stretch="normal"
    units-per-em="1000"
    panose-1="0 0 2 0 0 0 0 0 0 0"
    ascent="800"
    descent="-200"
    x-height="440"
    cap-height="630"
    bbox="-174 -288 1095 893"
    underline-thickness="50"
    underline-position="-200"
    unicode-range="U+0020-FB02"
  />
<missing-glyph horiz-adv-x="488" 
d="M400 800v-975h-309v975h309zM325 735h-161v-32h63v-37h-64v-32h162v32h-65v37h65v32zM260 609h-97v-101h162v33h-65v68zM227 576v-35h-32v35h32zM325 481h-162v-32h64v-36h-64v-32h97v68h65v32zM325 423h-32v-65h-130v-33h162v98zM325 304h-98v-55h33v23h33v-46h-98v78
h-32v-110h162v110zM325 135h-162v-110h162v110zM293 103v-46h-98v46h98zM325 2h-162v-32h68l-68 -46v-32h162v32h-100l68 46h32v32z" />
    <glyph glyph-name="fi" unicode="fi" horiz-adv-x="580" 
d="M170 435v-5l109 9q-5 -16 -5 -40h-104v-330q0 -19 13.5 -30t27 -13.5t46.5 -6.5q10 -1 15 -2v-17h-246v17q3 0 14.5 2t14.5 3t12 3t12 4t8.5 6t7.5 8.5t4 11t2 14.5v330h-75v19l75 15q3 113 74.5 184t185.5 71q126 0 126 -60v-3q0 -17 -13.5 -29.5t-31.5 -12.5
q-17 0 -30 12t-14 29q0 37 -41 37q-80 0 -133.5 -59t-53.5 -167zM483 69q0 -16 4 -25.5t17 -15t18.5 -6.5t26.5 -5v-17h-197v17q21 3 27 4.5t18.5 7t16.5 15t4 25.5v251q0 30 -12.5 44t-53.5 19v15q36 5 58 18t52 40l21 -19v-368z" />
    <glyph glyph-name="fl" unicode="fl" horiz-adv-x="575" 
d="M471 69q0 -8 2 -14.5t4.5 -11t8 -8.5t9 -6t12 -4.5t12 -3t13.5 -2.5t12 -2v-17h-211v17q2 0 12 2t13.5 2.5t12 3t12 4.5t9 6t8 8.5t4.5 11t2 14.5v492q0 38 -31 60.5t-87 22.5q-57 0 -87.5 -32t-30.5 -122v-60l124 9q-5 -16 -5 -40h-119v-330q0 -19 13.5 -30t27 -13.5
t46.5 -6.5q10 -1 15 -2v-17h-246v17q3 0 14.5 2t14.5 3t12 3t12 4t8.5 6t7.5 8.5t4 11t2 14.5v330h-75v19l75 15v2q0 124 61 186t165 62q64 0 144 -28v-586z" />
    <glyph glyph-name="f_f" unicode="ff" horiz-adv-x="642" 
d="M620 698q65 0 86 -42q-3 -44 -40 -58q-24 60 -80 60q-38 0 -66 -34t-28 -119v-63l109 3h3h5q-5 -15 -5 -39h-112v-337q0 -27 20 -36t67 -14q3 -1 5 -1t5 -0.5t5 -0.5v-17h-246v17q3 0 14.5 2t14.5 3t12 3t12 4t8.5 6t7.5 8.5t4 11t2 14.5v337h-253v-337q0 -19 13.5 -30
t27 -13.5t46.5 -6.5q10 -1 15 -2v-17h-246v17q3 0 14.5 2t14.5 3t12 3t12 4t8.5 6t7.5 8.5t4 11t2 14.5v337h-75v19l75 15h1q6 110 59 169t132 59q59 0 82 -42q-5 -45 -40 -58q-8 25 -29.5 42t-50.5 17q-33 0 -59 -33.5t-26 -118.5v-41l253 6v3q0 125 52.5 190t144.5 65z
" />
    <glyph glyph-name="f_f_i" unicode="ffi" horiz-adv-x="907" 
d="M684 661q-78 0 -131.5 -57t-55.5 -162l111 3q-5 -15 -5 -39h-106v-337q0 -19 13.5 -30t27 -13.5t46.5 -6.5q3 -1 4 -1h3.5t4 -0.5t3.5 -0.5v-17h-246v17q3 0 14.5 2t14.5 3t12 3t12 4t8.5 6t7.5 8.5t4 11t2 14.5v337h-258v-337q0 -19 13.5 -30t27 -13.5t46.5 -6.5
q10 -1 15 -2v-17h-246v17q3 0 14.5 2t14.5 3t12 3t12 4t8.5 6t7.5 8.5t4 11t2 14.5v337h-75v19l75 15h1q6 111 58 169.5t130 58.5q60 0 82 -42q-5 -45 -40 -58q-8 25 -29.5 42t-50.5 17q-32 0 -57 -33.5t-25 -118.5v-41l258 7q5 109 76 178t184 69q126 0 126 -60v-3
q0 -17 -13.5 -29.5t-31.5 -12.5q-17 0 -30 12t-14 29q0 37 -41 37zM810 69q0 -16 4 -25.5t17 -15t18.5 -6.5t26.5 -5v-17h-197v17q21 3 27 4.5t18.5 7t16.5 15t4 25.5v251q0 30 -12.5 44t-53.5 19v15q36 5 58 18t52 40l21 -19v-368z" />
    <glyph glyph-name=".notdef" horiz-adv-x="488" 
d="M400 800v-975h-309v975h309zM325 735h-161v-32h63v-37h-64v-32h162v32h-65v37h65v32zM260 609h-97v-101h162v33h-65v68zM227 576v-35h-32v35h32zM325 481h-162v-32h64v-36h-64v-32h97v68h65v32zM325 423h-32v-65h-130v-33h162v98zM325 304h-98v-55h33v23h33v-46h-98v78
h-32v-110h162v110zM325 135h-162v-110h162v110zM293 103v-46h-98v46h98zM325 2h-162v-32h68l-68 -46v-32h162v32h-100l68 46h32v32z" />
    <glyph glyph-name=".null" horiz-adv-x="0" 
 />
    <glyph glyph-name="nonmarkingreturn" horiz-adv-x="333" 
 />
    <glyph glyph-name="space" unicode=" " horiz-adv-x="222" 
 />
    <glyph glyph-name="exclam" unicode="!" horiz-adv-x="205" 
d="M95 170l-36 427q-5 56 43 56t43 -56l-36 -427h-14zM112 -10q-21 0 -36 14t-15 35t15 35t36 14t36.5 -14t15.5 -35t-15.5 -35t-36.5 -14z" />
    <glyph glyph-name="quotedbl" unicode="&#x22;" horiz-adv-x="267" 
d="M68 388l-27 192q-3 20 6.5 35t23.5 15q19 0 29.5 -15t7.5 -35l-31 -192h-9zM185 388l-27 192q-2 20 7.5 35t23.5 15q19 0 29.5 -15t7.5 -35l-31 -192h-10z" />
    <glyph glyph-name="numbersign" unicode="#" horiz-adv-x="568" 
d="M517 425h-100l-47 -207h101l-11 -41h-100l-47 -207h-43l48 207h-135l-47 -207h-43l48 207h-100l11 41h98l48 207h-101l11 41h99l48 206h42l-47 -206h134l48 206h42l-47 -206h100zM327 218l48 207h-135l-47 -207h134z" />
    <glyph glyph-name="dollar" unicode="$" horiz-adv-x="502" 
d="M456 177q0 -67 -56 -110t-135 -48v-81h-25v80q-88 2 -181 57l-8 115h20q17 -62 61.5 -103t107.5 -43v257l-13 6q-36 17 -59.5 31t-50 35.5t-40 48t-13.5 58.5q0 56 43.5 94.5t132.5 41.5v81h25v-81q21 -1 41 -4t33 -7t28 -10.5t21.5 -10.5t19 -11.5t15.5 -9.5l3 -116h-18
q-16 58 -51.5 97.5t-91.5 45.5v-222q3 -1 8 -3.5l7 -3.5q38 -18 58.5 -29t53 -35t48.5 -54t16 -66zM135 499q0 -36 26 -64t79 -55v211q-51 -1 -78 -27t-27 -65zM265 45q50 6 81.5 37.5t31.5 77.5q0 44 -28.5 73t-84.5 56v-244z" />
    <glyph glyph-name="percent" unicode="%" horiz-adv-x="671" 
d="M533 630h56l-447 -630h-48l401 559q-42 -24 -92 -22t-98 28q6 -21 6 -47q0 -76 -46.5 -137t-112.5 -61q-46 0 -73.5 32.5t-27.5 85.5q0 74 49 133.5t115 59.5q30 0 50 -13v1q31 -17 53 -27.5t49.5 -21t49 -11t43 4t40 21.5t33.5 45zM170 347q46 0 81 54.5t35 117.5
q0 42 -17 65t-47 23q-32 0 -57 -30t-36 -69.5t-11 -78.5q0 -82 52 -82zM524 309q45 0 70.5 -30.5t25.5 -82.5q0 -76 -46.5 -137t-112.5 -61q-46 0 -73.5 32.5t-27.5 85.5q0 74 49 133.5t115 59.5zM479 25q46 0 81 54.5t35 117.5q0 42 -17 65t-47 23q-48 0 -76 -57.5
t-28 -120.5q0 -82 52 -82z" />
    <glyph glyph-name="ampersand" unicode="&#x26;" horiz-adv-x="718" 
d="M502 64q21 -25 80.5 -14t104.5 46v-20q-34 -38 -85 -62.5t-92 -23.5q-10 0 -18 3t-17 11t-13 12.5t-15.5 19t-15.5 19.5q-85 -65 -194 -65q-71 0 -136 50t-65 130q0 118 149 188q-32 53 -32 100q0 69 47 111.5t112 42.5q47 0 79.5 -23.5t32.5 -72.5q0 -97 -151 -181l5 -6
l162 -192q55 75 55 130q0 34 -88 34v26h265v-26q-100 5 -109 -40q-24 -95 -88 -165zM291 585q-79 0 -79 -97q0 -72 51 -140q58 40 82.5 82.5t24.5 77.5q0 33 -21.5 55t-57.5 22zM269 19q63 0 132 72l-167 200q-23 28 -33 44q-86 -55 -86 -149q0 -75 49.5 -121t104.5 -46z
" />
    <glyph glyph-name="quotesingle" unicode="'" horiz-adv-x="149" 
d="M68 388l-27 192q-3 20 6.5 35t23.5 15q19 0 29.5 -15t7.5 -35l-31 -192h-9z" />
    <glyph glyph-name="parenleft" unicode="(" horiz-adv-x="282" 
d="M250 -159q-199 161 -199 455t199 455l11 -6q-149 -148 -146 -449q3 -303 141 -444z" />
    <glyph glyph-name="parenright" unicode=")" horiz-adv-x="282" 
d="M32 -159l-6 11q138 141 141 444q3 301 -146 449l11 6q199 -161 199 -455t-199 -455z" />
    <glyph glyph-name="asterisk" unicode="*" horiz-adv-x="382" 
d="M184 527l-22 53q-11 23 0 36.5t29 13.5t29 -13.5t2 -36.5l-22 -53q-3 -7 -8 -7t-8 7zM147 495l-56 11q-26 3 -32.5 21t4.5 30q9 16 24 18t36 -19l32 -47q6 -6 3 -11t-11 -3zM234 495q-7 -1 -10 4t2 10l35 47q11 15 23 18t20.5 -2t15.5 -15q10 -12 3 -30t-32 -21zM61 407
q-10 12 -3 30t33 21l56 11q7 1 10 -4t-2 -10l-34 -47q-19 -20 -34.5 -18.5t-25.5 17.5zM320 407q-10 -15 -25.5 -17t-33.5 18l-35 47q-5 5 -2 10t10 4l57 -11q25 -3 32 -21t-3 -30zM191 334q-19 0 -29.5 12.5t0.5 37.5l20 53q3 7 9 7t9 -7l19 -53q11 -25 1 -37.5t-29 -12.5z
" />
    <glyph glyph-name="plus" unicode="+" horiz-adv-x="512" 
d="M441 269v-35h-167v-169h-35v169h-168v35h168v167h35v-167h167z" />
    <glyph glyph-name="comma" unicode="," horiz-adv-x="218" 
d="M50 -142l-9 15q32 15 52.5 39t24.5 46q1 5 1.5 9t-1.5 7t-3 5t-5 4t-5 3t-6 2l-5 2q-29 18 -29 48q0 22 15 36t36 14q25 0 43 -19.5t18 -52.5q0 -45 -32.5 -90.5t-94.5 -67.5z" />
    <glyph glyph-name="hyphen" unicode="-" horiz-adv-x="398" 
d="M61 241v24h276v-24h-276z" />
    <glyph glyph-name="period" unicode="." horiz-adv-x="205" 
d="M102 -10q-21 0 -36 14t-15 35t15 35t36 14t36.5 -14t15.5 -35t-15.5 -35t-36.5 -14z" />
    <glyph glyph-name="slash" unicode="/" horiz-adv-x="378" 
d="M31 -69l313 816l34 -14l-313 -816z" />
    <glyph glyph-name="zero" unicode="0" horiz-adv-x="548" 
d="M266 -9q-90 0 -157.5 62.5t-67.5 163.5q0 105 71 168.5t165 63.5q90 0 157.5 -62.5t67.5 -163.5q0 -105 -71 -168.5t-165 -63.5zM278 20q59 0 103.5 47t44.5 141t-47.5 153t-113.5 59q-59 0 -103.5 -47t-44.5 -141t47.5 -153t113.5 -59z" />
    <glyph glyph-name="one" unicode="1" horiz-adv-x="347" 
d="M206 69q0 -20 13 -31t27 -13.5t47 -6.5q5 -1 8 -1v-17h-255v17q64 7 79 18q16 11 16 34v302q0 35 -40 44q-13 3 -55 8v17h255v-17q-64 -7 -79 -18q-16 -11 -16 -34v-302z" />
    <glyph glyph-name="two" unicode="2" horiz-adv-x="450" 
d="M48 0l-7 19q14 11 65 52t73.5 61t56.5 54.5t48.5 64t14.5 57.5q0 35 -24 61.5t-74 26.5q-85 0 -131 -76l-18 10q23 57 72 88t109 31q64 0 104.5 -34t40.5 -87q0 -23 -9.5 -47t-23 -44t-36 -42.5t-40.5 -38t-45.5 -35t-41.5 -28.5t-38 -23.5t-26 -16.5h151q50 0 76.5 12
t43.5 53h20l-37 -129h-19l-2 11h-303z" />
    <glyph glyph-name="three" unicode="3" horiz-adv-x="466" 
d="M175 -190q-22 0 -43 3t-43 10t-35 21t-13 33q0 17 10.5 25t23.5 8q19 0 36.5 -18.5t38.5 -37.5t48 -19q50 0 103 45.5t53 115.5q0 63 -45.5 96t-106.5 33q-42 0 -91 -19l-10 23l72 34q75 35 107.5 63.5t32.5 73.5q0 40 -24 65t-75 25q-82 0 -141 -72l-15 13
q72 118 193 118q65 0 100 -34.5t33 -92.5q-3 -84 -110 -147q64 -5 108 -42t44 -109q0 -91 -72.5 -152.5t-178.5 -61.5z" />
    <glyph glyph-name="four" unicode="4" horiz-adv-x="507" 
d="M456 -5h-85v-101q0 -8 2 -14.5t4.5 -11t8.5 -8.5l9 -6t12.5 -4.5t12 -3t13.5 -2.5t13 -2v-17h-220v17q2 0 13 2t13.5 2.5t12 3t12.5 4.5l9 6t8.5 8.5t4.5 11t2 14.5v101h-259l-11 16l328 444h12v-424h95zM74 31h227v306z" />
    <glyph glyph-name="five" unicode="5" horiz-adv-x="495" 
d="M109 216q110 27 184 0.5t111 -78t37 -113.5q0 -87 -72.5 -151t-178.5 -64q-54 0 -101.5 16t-47.5 51q0 17 12 25t26 8q16 0 33 -11.5t29 -26t32.5 -26t43.5 -11.5q50 0 94.5 44.5t44.5 111.5q0 57 -31.5 104t-90 69t-142.5 -1l-20 19l93 258h170q34 0 48.5 1t29.5 7
t25 20h16l-29 -97h-256z" />
    <glyph glyph-name="six" unicode="6" horiz-adv-x="550" 
d="M283 -12q-109 0 -171 78t-61 191q1 150 110 261t246 119l13 -21q-51 -5 -101 -31.5t-92.5 -71.5t-68.5 -116.5t-26 -156.5q0 -99 40.5 -161.5t108.5 -62.5q64 0 104.5 53t40.5 130q0 84 -56.5 131t-173.5 24v20q126 50 219.5 -2t93.5 -164q0 -93 -63.5 -156.5
t-162.5 -63.5z" />
    <glyph glyph-name="seven" unicode="7" horiz-adv-x="494" 
d="M457 440l11 -15q-195 -309 -266 -615h-73q82 261 277 561h-231q-26 0 -37 -1t-27.5 -7.5t-28.5 -21.5t-25 -41h-16l48 157h16l2 -17h350z" />
    <glyph glyph-name="eight" unicode="8" horiz-adv-x="545" 
d="M357 341q58 -20 97.5 -63t39.5 -105q0 -78 -62 -133.5t-161 -55.5t-159.5 49t-60.5 129q0 112 125 171q-85 49 -85 139q0 65 48.5 111.5t132.5 46.5q81 0 128 -43t47 -104q0 -81 -90 -142zM274 606q-58 0 -83.5 -34t-25.5 -81q0 -34 19.5 -65.5t60.5 -45.5l75 -26
q64 50 64 124q0 30 -8.5 57t-34.5 49t-67 22zM281 10q70 0 103.5 37.5t33.5 99.5q0 60 -30.5 89.5t-100.5 53.5l-66 23q-2 1 -6 2.5t-5 1.5q-90 -50 -90 -151q0 -67 41 -111.5t120 -44.5z" />
    <glyph glyph-name="nine" unicode="9" horiz-adv-x="550" 
d="M267 449q109 0 171 -78t61 -191q-1 -150 -110 -261t-246 -119l-13 21q51 5 101 31.5t92.5 71.5t68.5 116.5t26 156.5q0 99 -40.5 161.5t-108.5 62.5q-64 0 -104.5 -53t-40.5 -130q0 -84 56.5 -131t173.5 -24v-20q-126 -50 -219.5 2t-93.5 164q0 93 64 156.5t162 63.5z
" />
    <glyph glyph-name="colon" unicode=":" horiz-adv-x="206" 
d="M102 332q-21 0 -36 14t-15 35t15 35t36 14t36.5 -14t15.5 -35t-15.5 -35t-36.5 -14zM103 -10q-21 0 -36 14t-15 35t15 35t36 14t36.5 -14t15.5 -35t-15.5 -35t-36.5 -14z" />
    <glyph glyph-name="semicolon" unicode=";" horiz-adv-x="226" 
d="M133 331q-20 0 -35.5 14.5t-15.5 34.5t15.5 34.5t35.5 14.5q21 0 37 -14t16 -35t-16 -35t-37 -14zM50 -142l-9 15q32 15 52.5 39t24.5 46q1 5 1.5 9t-1.5 7t-3 5t-5 4t-5 3t-6 2l-5 2q-29 18 -29 48q0 22 15 36t36 14q25 0 43 -19.5t18 -52.5q0 -45 -32.5 -90.5
t-94.5 -67.5z" />
    <glyph glyph-name="less" unicode="&#x3c;" horiz-adv-x="506" 
d="M435 62q-196 107 -364 171v35q168 64 364 171v-38q-24 -14 -54.5 -29.5t-54 -27t-60.5 -27.5t-54 -23.5t-56 -23.5t-47 -19q4 -2 69.5 -29.5t93 -39.5t77.5 -36.5t86 -45.5v-38z" />
    <glyph glyph-name="equal" unicode="=" horiz-adv-x="512" 
d="M71 324v35h370v-35h-370zM71 144v35h370v-35h-370z" />
    <glyph glyph-name="greater" unicode="&#x3e;" horiz-adv-x="506" 
d="M71 62v38q29 17 61.5 34t74.5 35.5t63 28t71 30.5t56 23q-236 97 -326 150v38q196 -107 364 -171v-35q-168 -64 -364 -171z" />
    <glyph glyph-name="question" unicode="?" horiz-adv-x="431" 
d="M192 186q-13 39 -7 65t26.5 58t42 58t38.5 64t17 76q0 52 -32.5 86t-107.5 34q-32 0 -45 -32q-19 -46 -31 -62.5t-30 -16.5q-32 0 -32 33q0 48 65.5 78.5t137.5 30.5q79 0 117.5 -42t38.5 -109q0 -46 -19.5 -83.5t-47 -62.5t-54.5 -49t-45 -56t-16 -70h-16zM203 -12
q-21 0 -36 14t-15 35t15 35t36 14t36.5 -14t15.5 -35t-15.5 -35t-36.5 -14z" />
    <glyph glyph-name="at" unicode="@" horiz-adv-x="804" 
d="M590 103q-14 0 -28 2.5t-31.5 9.5t-28 23.5t-10.5 41.5q-50 -74 -131 -74q-55 0 -89 35.5t-34 103.5q0 90 57.5 148.5t129.5 58.5q81 0 103 -83l14 70h50l-46 -236q-6 -36 10.5 -57.5t45.5 -21.5q38 0 77 49.5t39 134.5q0 130 -82.5 212.5t-211.5 82.5
q-136 0 -220.5 -94.5t-84.5 -228.5q0 -137 81 -229.5t210 -92.5q100 0 187 45l13 -15q-92 -56 -201 -56q-150 0 -254 101t-104 247q0 147 106 251t262 104q142 0 238 -93.5t96 -233.5q0 -97 -46.5 -151t-116.5 -54zM385 135q41 0 76.5 41.5t47.5 98.5l3 12q3 19 3 37
q0 47 -21.5 77t-61.5 30q-54 0 -90 -56t-36 -128q0 -55 23 -83.5t56 -28.5z" />
    <glyph glyph-name="A" unicode="A" 
d="M607 75q14 -33 27 -41.5t54 -16.5v-17h-231v17l17.5 3.5t17.5 4t14 4.5t11.5 6.5t5.5 9t1.5 13t-5.5 17.5l-57 132h-274l-55 -134q-4 -9 -5 -16.5t2 -12.5t5.5 -8.5t11 -6.5t13 -4.5t17 -4l17.5 -3.5v-17h-183v17q50 10 61 17q13 10 24 38l234 565h34zM200 236h250
l-128 297z" />
    <glyph glyph-name="B" unicode="B" horiz-adv-x="615" 
d="M393 330q176 -36 176 -160q0 -83 -69.5 -126.5t-202.5 -43.5h-266v17q51 10 64 20q19 16 19 59v438q0 23 -3.5 37t-17.5 22.5t-20.5 10.5t-33.5 7q-5 1 -8 2v17h266q109 0 169 -38.5t60 -109.5q0 -56 -36 -94.5t-97 -57.5zM445 471q0 55 -40 91.5t-130 36.5
q-50 -1 -67 -12t-17 -37v-207h101q76 0 114.5 34t38.5 94zM305 31q88 0 132 37t44 94q0 62 -52 107t-156 45h-82v-207q0 -39 24 -57.5t90 -18.5z" />
    <glyph glyph-name="C" unicode="C" horiz-adv-x="653" 
d="M383 -12q-144 0 -238 92t-94 240q0 141 92.5 233.5t248.5 92.5q117 0 194 -46q4 -91 7 -135h-30q-17 76 -68 113t-123 37q-104 0 -168 -70t-64 -202q0 -139 81.5 -225.5t197.5 -86.5q44 0 91.5 13t74.5 42l17 -17q-32 -35 -90 -58t-129 -23z" />
    <glyph glyph-name="D" unicode="D" horiz-adv-x="667" 
d="M260 630q74 0 136.5 -17.5t112.5 -53.5t78.5 -97.5t28.5 -142.5q0 -110 -49.5 -183.5t-127 -104.5t-179.5 -31h-229v17q51 10 64 20q19 16 19 59v438q0 23 -3.5 37t-17.5 22.5t-20.5 10.5t-33.5 7q-5 1 -8 2v17h229zM288 32q127 0 184 70.5t57 206.5q0 138 -64 213.5
t-215 75.5h-59v-470q0 -53 20.5 -74.5t76.5 -21.5z" />
    <glyph glyph-name="E" unicode="E" horiz-adv-x="576" 
d="M518 145h22l-41 -145h-468v17q51 10 64 20q19 16 19 59v438q0 23 -3.5 37t-17.5 22.5t-20.5 10.5t-33.5 7q-5 1 -8 2v17h466l9 -137h-22q-7 57 -27 81.5t-71 24.5h-101q-59 0 -76.5 -13t-17.5 -63v-190h89q86 0 110 17t29 67h16v-198h-16q-5 50 -29 67t-110 17h-89v-196
q0 -50 17.5 -63t76.5 -13h80q59 0 92 24.5t61 89.5z" />
    <glyph glyph-name="F" unicode="F" horiz-adv-x="531" 
d="M486 630l9 -137h-22q-7 57 -27 81.5t-71 24.5h-90q-59 0 -76.5 -13t-17.5 -63v-190h67q86 0 110 17t29 67h16v-198h-16q-5 50 -29 67t-110 17h-67v-207q0 -23 3.5 -37t17.5 -22.5t20.5 -10.5t33.5 -7q5 -1 8 -2v-17h-243v17q51 10 64 20q19 16 19 59v438q0 23 -3.5 37
t-17.5 22.5t-20.5 10.5t-33.5 7q-5 1 -8 2v17h455z" />
    <glyph glyph-name="G" unicode="G" horiz-adv-x="721" 
d="M418 -12q-173 0 -270 92.5t-97 239.5q0 141 93 233.5t249 92.5q122 0 199 -46q4 -91 7 -135h-30q-17 76 -67.5 113t-122.5 37q-107 0 -173 -73.5t-66 -196.5q0 -143 81 -234.5t222 -91.5q52 0 69.5 22t17.5 79v56q0 67 -21.5 87t-88.5 25v21h255v-21q-41 -5 -57 -19.5
t-16 -52.5v-78q0 -24 3 -43.5t6.5 -33t4.5 -18.5q-19 -22 -75 -38.5t-123 -16.5z" />
    <glyph glyph-name="H" unicode="H" horiz-adv-x="686" 
d="M655 613q-51 -10 -64 -20q-19 -16 -19 -59v-438q0 -23 3.5 -37t17.5 -22.5t20.5 -10.5t33.5 -7q5 -1 8 -2v-17h-243v17q51 10 64 20q19 16 19 59v206h-304v-206q0 -23 3.5 -37t17.5 -22.5t20.5 -10.5t33.5 -7q5 -1 8 -2v-17h-243v17q51 10 64 20q19 16 19 59v438
q0 23 -3.5 37t-17.5 22.5t-20.5 10.5t-33.5 7q-5 1 -8 2v17h243v-17q-51 -10 -64 -20q-19 -16 -19 -59v-203h304v203q0 23 -3.5 37t-17.5 22.5t-20.5 10.5t-33.5 7q-5 1 -8 2v17h243v-17z" />
    <glyph glyph-name="I" unicode="I" horiz-adv-x="305" 
d="M31 0v17q51 10 64 20q19 16 19 59v438q0 23 -3.5 37t-17.5 22.5t-20.5 10.5t-33.5 7q-5 1 -8 2v17h243v-17q-51 -10 -64 -20q-19 -16 -19 -59v-438q0 -23 3.5 -37t17.5 -22.5t20.5 -10.5t33.5 -7q5 -1 8 -2v-17h-243z" />
    <glyph glyph-name="J" unicode="J" horiz-adv-x="303" 
d="M7 -185q-3 9 0 21q68 24 86.5 56.5t18.5 113.5v528q0 24 -4.5 38.5t-20 22.5t-24.5 10.5t-39 7.5v17h248v-17q-51 -10 -64 -20q-19 -16 -19 -59v-538q0 -84 -50 -125t-132 -56z" />
    <glyph glyph-name="K" unicode="K" horiz-adv-x="661" 
d="M559 54q11 -15 17 -21t23 -11t46 -5v-17h-160q0 28 -28 67l-185 262l-81 -79v-154q0 -23 3.5 -37t17.5 -22.5t20.5 -10.5t33.5 -7q5 -1 8 -2v-17h-243v17q51 10 64 20q19 16 19 59v438q0 23 -3.5 37t-17.5 22.5t-20.5 10.5t-33.5 7q-5 1 -8 2v17h243v-17q-51 -10 -64 -20
q-19 -16 -19 -59v-234l262 257q23 22 11.5 39t-52.5 17v17h212v-17q-31 0 -55 -9.5t-33.5 -17.5t-31.5 -29l-181 -178z" />
    <glyph glyph-name="L" unicode="L" horiz-adv-x="573" 
d="M31 0v17q51 10 64 20q19 16 19 59v438q0 23 -3.5 37t-17.5 22.5t-20.5 10.5t-33.5 7q-5 1 -8 2v17h267v-17q-5 -1 -19.5 -3.5t-19.5 -3.5t-17 -4.5t-17 -6.5t-13.5 -9t-11.5 -13t-6 -17t-3 -22v-428q0 -50 17.5 -63t76.5 -13h83q58 0 91 26.5t62 94.5h21l-41 -151h-470z
" />
    <glyph glyph-name="M" unicode="M" horiz-adv-x="843" 
d="M730 96q1 -25 5.5 -39t18.5 -22t22.5 -10.5t35.5 -7.5v-17h-243v17q52 10 65 20q21 16 19 59l-19 454l-216 -550h-30l-220 509l-19 -413q-1 -23 3 -37t18.5 -22.5t23.5 -10.5t36 -7q7 -1 10 -2v-17h-209v17q51 10 63 20q19 16 21 59l21 438q1 23 -3 37t-16.5 22t-22 11
t-32.5 7q-7 1 -10 2v17h149q2 -13 31 -77l194 -447l172 447q25 66 27 77h166v-17q-52 -10 -65 -20q-19 -17 -17 -59z" />
    <glyph glyph-name="N" unicode="N" horiz-adv-x="703" 
d="M459 630h213v-17q-52 -10 -65 -20q-20 -17 -20 -59v-534h-33l-401 532v-436q0 -23 4 -37t19 -22.5t22 -10.5t36 -7q6 -1 9 -2v-17h-212v17q52 10 65 20q20 16 20 59v438q0 23 -4 37t-17.5 22.5t-21.5 10.5t-33 7q-2 1 -3 1t-3 0.5t-3 0.5v17h143l375 -493v397q0 23 -4 37
t-19 22.5t-22 10.5t-36 7q-6 1 -9 2v17z" />
    <glyph glyph-name="O" unicode="O" horiz-adv-x="735" 
d="M365 -12q-137 0 -225.5 94.5t-88.5 232.5q0 137 89.5 234t228.5 97q137 0 226 -95t89 -231q0 -139 -90 -235.5t-229 -96.5zM382 19q90 0 153.5 74t63.5 197q0 139 -73.5 232t-173.5 93q-89 0 -152.5 -74.5t-63.5 -195.5q0 -140 73 -233t173 -93z" />
    <glyph glyph-name="P" unicode="P" horiz-adv-x="586" 
d="M31 0v17q51 10 64 20q19 16 19 59v438q0 23 -3.5 37t-17.5 22.5t-20.5 10.5t-33.5 7q-5 1 -8 2v17h223q291 0 291 -185q0 -97 -80.5 -147.5t-228.5 -50.5q-12 0 -12 15.5t12 15.5q224 0 224 161q0 75 -48.5 117.5t-147.5 42.5q-43 0 -58 -11t-15 -35v-457q0 -23 3.5 -37
t17.5 -22.5t20.5 -10.5t33.5 -7q5 -1 8 -2v-17h-243z" />
    <glyph glyph-name="Q" unicode="Q" horiz-adv-x="708" 
d="M768 -89q6 -1 8.5 -2t4 -4t1.5 -9q-74 -71 -146 -71q-52 0 -118 40l-172 105q-26 16 -84 34h1q-97 31 -154.5 116t-57.5 195q0 137 89.5 234t228.5 97q137 0 226 -95t89 -231q0 -120 -69.5 -211t-182.5 -114q21 -8 46 -24l79 -53q59 -41 116 -41q49 0 95 34zM136 345
q0 -140 73 -233t173 -93q90 0 153.5 74t63.5 197q0 139 -73.5 232t-173.5 93q-89 0 -152.5 -74.5t-63.5 -195.5z" />
    <glyph glyph-name="R" unicode="R" horiz-adv-x="640" 
d="M485 116q25 -37 41 -57t42 -34.5t51 -6.5v-18q-27 -16 -53 -16q-49 0 -82 24t-71 82l-81 123q-26 37 -56.5 52t-84.5 17v-186q0 -23 3.5 -37t17.5 -22.5t20.5 -10.5t33.5 -7q5 -1 8 -2v-17h-243v17q51 10 64 20q19 16 19 59v438q0 23 -3.5 37t-17.5 22.5t-20.5 10.5
t-33.5 7q-5 1 -8 2v17h233q268 0 268 -173q0 -144 -192 -169q41 -11 79 -71zM272 599q-49 0 -65 -10.5t-16 -35.5v-241h81q95 0 137.5 35.5t42.5 103.5q0 148 -180 148z" />
    <glyph glyph-name="S" unicode="S" horiz-adv-x="502" 
d="M246 -12q-89 0 -187 63l-8 126h20q17 -70 63.5 -115.5t111.5 -45.5q56 0 94 36.5t38 91.5q0 30 -10.5 53.5t-34.5 43.5t-45.5 32.5t-60.5 32.5q-35 18 -59.5 33.5t-50.5 39t-39.5 53.5t-13.5 65q0 64 46.5 106.5t140.5 42.5q24 0 45.5 -3.5t36 -7t30.5 -11.5t23 -12.5
t20.5 -13.5l16.5 -11l3 -128h-18q-17 69 -57.5 114t-104.5 45q-53 0 -82 -28.5t-29 -72.5q0 -46 35 -80t110 -72q39 -20 58.5 -32t52.5 -38t49 -59t16 -73q0 -78 -62.5 -126.5t-147.5 -48.5z" />
    <glyph glyph-name="T" unicode="T" horiz-adv-x="607" 
d="M568 640l8 -172h-16q-11 73 -40 104.5t-105 31.5h-73v-508q0 -20 5 -33t10 -20.5t22.5 -13t26.5 -7t39 -5.5v-17h-283v17q30 4 39 5.5t26.5 7t22.5 13t10 20.5t5 33v508h-70q-78 0 -107.5 -31.5t-40.5 -104.5h-16l8 172l46 -10h437z" />
    <glyph glyph-name="U" unicode="U" horiz-adv-x="717" 
d="M356 -12q-34 0 -64.5 5.5t-64 23t-57.5 45t-40 76t-16 112.5v284q0 23 -3.5 37t-17.5 22.5t-20.5 10.5t-33.5 7q-5 1 -8 2v17h244v-17q-51 -10 -64 -20q-19 -16 -19 -59v-295q0 -210 179 -210q34 0 63 8t58.5 28t47 60.5t17.5 98.5v310q0 23 -4 37t-17.5 22.5t-21.5 10.5
t-33 7q-2 1 -3 1t-3 0.5t-3 0.5v17h214v-17q-56 -10 -69 -20q-21 -16 -21 -59v-290q0 -72 -21 -124t-57 -79.5t-76 -40t-86 -12.5z" />
    <glyph glyph-name="V" unicode="V" 
d="M505 630h183v-17q-50 -10 -61 -17q-13 -10 -24 -38l-234 -565h-34l-243 562q-14 33 -27 41.5t-54 16.5v17h231v-17l-17.5 -3.5t-17.5 -4t-14 -4.5t-11.5 -6.5t-5.5 -9t-1.5 -13t5.5 -17.5l197 -458l189 460q4 9 5 16.5t-2 12.5t-5.5 8.5t-11 6.5t-13 4.5t-17 4l-17.5 3.5
v17z" />
    <glyph glyph-name="W" unicode="W" horiz-adv-x="996" 
d="M305 -8l-211 557q-12 32 -25.5 40.5t-57.5 16.5v22h224v-22q-5 -2 -14 -4t-15 -4t-13 -4.5t-11 -6.5t-7.5 -9t-3 -12.5t3.5 -16.5l166 -445l125 358q17 47 -2.5 90.5t-69.5 55.5v22h134q0 -10 1.5 -22t3.5 -21t7 -24t7.5 -22t9.5 -25.5t9 -24.5l141 -386l142 402
q9 24 9.5 41t-3.5 27t-18 16.5t-27.5 9.5t-39.5 7v22h215v-22q-32 -6 -42.5 -9.5t-21.5 -14t-19 -33.5l-202 -558h-29l-173 463l-164 -464h-29z" />
    <glyph glyph-name="X" unicode="X" horiz-adv-x="704" 
d="M559 80q24 -35 45.5 -45t78.5 -18v-17h-261v17q50 9 57 18q10 12 -12 44l-138 205l-140 -202q-6 -8 -9.5 -15t-6.5 -12.5t-2 -9.5t0.5 -7t4 -5.5t6.5 -4t9.5 -3.5t11 -2.5t14 -2.5t14.5 -3v-17h-210v17q66 9 82 18q22 12 46 46l162 230l-156 233q-27 39 -48 50t-74 19v17
h254v-17q-32 -6 -43.5 -10.5t-12.5 -18.5t17 -40l121 -180l127 182q11 16 14.5 27t3 17t-12.5 11t-19 6.5t-29 5.5v17h204v-17q-54 -8 -75 -18.5t-48 -48.5l-147 -209z" />
    <glyph glyph-name="Y" unicode="Y" horiz-adv-x="644" 
d="M436 630h192v-17q-40 -8 -53 -16.5t-35 -45.5l-176 -284v-166q0 -25 4.5 -39t20.5 -22t26 -10.5t42 -7.5v-22h-263v22q59 10 73 21q20 15 20 58v158l-184 292q-24 37 -36 45.5t-51 16.5v17h229v-17q-40 -9 -55 -21.5t1 -40.5l156 -253l153 253q10 17 11.5 27.5t-9 16.5
t-19 8.5t-31.5 6.5q-11 2 -16 3v17z" />
    <glyph glyph-name="Z" unicode="Z" horiz-adv-x="583" 
d="M42 0l-11 15l397 594l-222 -4q-72 -1 -100.5 -31t-33.5 -101h-20v163l54 -6h437l-406 -609l249 4q69 1 97 32t43 102h21q-19 -102 -19 -159h-486z" />
    <glyph glyph-name="bracketleft" unicode="[" horiz-adv-x="263" 
d="M232 -166l-161 5v915l161 5v-15l-96 -12v-871l96 -12v-15z" />
    <glyph glyph-name="backslash" unicode="\" horiz-adv-x="378" 
d="M348 -69l-34 -14l-313 816l34 14z" />
    <glyph glyph-name="bracketright" unicode="]" horiz-adv-x="263" 
d="M31 -166v15l96 12v871l-96 12v15l161 -5v-915z" />
    <glyph glyph-name="asciicircum" unicode="^" horiz-adv-x="450" 
d="M64 369l-13 9l174 268l175 -267l-13 -10l-162 204z" />
    <glyph glyph-name="underscore" unicode="_" horiz-adv-x="608" 
d="M51 -47l2 27h504l-2 -27h-504z" />
    <glyph glyph-name="grave" unicode="`" horiz-adv-x="158" 
d="M132 516q-5 5 -22.5 25.5t-24.5 27.5t-20.5 21.5t-24.5 24t-23 17.5q5 12 25 26.5t36 14.5q30 -42 69 -145z" />
    <glyph glyph-name="a" unicode="a" horiz-adv-x="494" 
d="M398 88q0 -24 22 -28.5t53 13.5v-19q-17 -31 -66 -61q-32 0 -53 25t-21 58q-92 -83 -182 -83q-53 0 -84 29.5t-31 76.5q0 57 45 86t140 55q59 16 81.5 25t30.5 26v13q0 63 -29.5 87t-100.5 24q-35 0 -47 -30q-21 -47 -32 -63t-28 -16q-33 0 -33 33q0 46 69.5 78t143.5 32
q67 0 94.5 -36t27.5 -115v-210zM194 43q41 0 80 21.5t59 49.5v130l-112 -33q-64 -18 -88.5 -39.5t-24.5 -55.5q0 -39 25 -56t61 -17z" />
    <glyph glyph-name="b" unicode="b" horiz-adv-x="530" 
d="M253 -9q-75 0 -124.5 41.5t-49.5 114.5v405q0 52 -73 63v15q65 14 118 57l20 -19v-315q25 41 71 68.5t100 27.5q74 0 124 -57.5t50 -154.5q0 -109 -68 -177.5t-168 -68.5zM251 20q71 0 121.5 45t50.5 138q0 87 -43.5 138t-110.5 51q-43 0 -76 -21t-49 -51v-185
q0 -52 25.5 -83.5t81.5 -31.5z" />
    <glyph glyph-name="c" unicode="c" horiz-adv-x="475" 
d="M262 -9q-93 0 -157 61.5t-64 162.5q0 104 65.5 169t163.5 65q65 0 110.5 -28.5t45.5 -68.5q0 -21 -12 -31t-28 -10q-38 0 -57 65q-14 47 -66 47q-56 0 -103.5 -45.5t-47.5 -132.5q0 -88 52 -144.5t132 -56.5q87 0 126 65l15 -7q-18 -53 -65 -82t-110 -29z" />
    <glyph glyph-name="d" unicode="d" horiz-adv-x="544" 
d="M447 83q0 -30 12.5 -44.5t53.5 -21.5v-17h-127l8 91h-11q-63 -100 -163 -100q-75 0 -127 57.5t-52 152.5q0 107 71 177.5t168 70.5q58 0 102 -30v133q0 29 -16 43.5t-59 19.5v15q71 15 120 57l20 -19v-585zM261 46q49 0 79.5 30t41.5 70v183q0 35 -29.5 63.5t-82.5 28.5
q-67 0 -115.5 -47t-48.5 -135t45.5 -140.5t109.5 -52.5z" />
    <glyph glyph-name="e" unicode="e" horiz-adv-x="480" 
d="M422 107l15 -8q-18 -52 -64 -80t-107 -28q-94 0 -159.5 62t-65.5 163t60.5 167t157.5 66q66 0 111 -34t58.5 -78.5t-0.5 -83.5h-319v-4q0 -87 51.5 -145.5t136.5 -58.5q87 0 125 62zM247 421q-51 0 -89.5 -37t-46.5 -103h254q7 49 -24.5 94.5t-93.5 45.5z" />
    <glyph glyph-name="f" unicode="f" horiz-adv-x="320" 
d="M298 698q63 0 86 -42q-3 -44 -40 -58q-24 60 -80 60q-38 0 -66 -34t-28 -119v-68l112 8q-5 -15 -5 -39h-107v-337q0 -19 13.5 -30t27 -13.5t46.5 -6.5q10 -1 15 -2v-17h-246v17q3 0 14.5 2t14.5 3t12 3t12 4t8.5 6t7.5 8.5t4 11t2 14.5v337h-75v19l75 15v3
q0 125 52.5 190t144.5 65z" />
    <glyph glyph-name="g" unicode="g" horiz-adv-x="486" 
d="M445 429v-41l-86 11q37 -39 37 -92q0 -62 -47.5 -101t-119.5 -40h-53q-17 0 -28.5 -11.5t-11.5 -29.5q0 -43 44 -48l115 -11q87 -8 117 -22.5t30 -57.5q0 -75 -71 -123.5t-173 -50.5q-85 -1 -128.5 32t-43.5 84q0 19 30 47.5t69 50.5q-60 22 -60 69q0 14 28.5 44t50.5 43
q-40 18 -63 50.5t-23 74.5q0 63 48.5 102.5t120.5 39.5q36 0 69 -11q25 -9 149 -9zM227 190q28 0 48 11.5t29.5 31t13.5 37.5t4 37t-4 37.5t-13.5 38t-29.5 31.5t-48 12q-52 0 -73.5 -37.5t-21.5 -81.5t21.5 -80.5t73.5 -36.5zM287 4l-100 9q-43 4 -66.5 -21t-23.5 -60
q0 -33 27 -60.5t96 -27.5q80 0 117 34t37 78q0 28 -18.5 36t-68.5 12z" />
    <glyph glyph-name="h" unicode="h" horiz-adv-x="558" 
d="M466 69q0 -16 4 -25.5t17 -15t18.5 -6.5t26.5 -5v-17h-198v17q21 3 27.5 4.5t19 7t16.5 15t4 25.5v227q0 44 -22 71.5t-69 27.5q-81 0 -141 -73v-253q0 -13 4.5 -22t7.5 -13.5t16.5 -8.5t17 -4.5t22.5 -3.5v-17h-206v17q2 0 12 2t13.5 2.5t12 3t12 4.5t9 6t8 8.5t4.5 11
t2 14.5v483q0 52 -73 63v15q70 15 118 57l20 -19v-315h2q31 43 76.5 69.5t98.5 26.5q66 0 93 -40t27 -114v-226z" />
    <glyph glyph-name="i" unicode="i" horiz-adv-x="259" 
d="M121 583q-17 0 -30.5 12.5t-13.5 29.5q0 18 13.5 31t30.5 13q18 0 31.5 -13t13.5 -31q0 -17 -13.5 -29.5t-31.5 -12.5zM31 0v17q21 4 26.5 5t18.5 6.5t17 15t4 25.5v251q0 30 -12.5 44t-53.5 19v15q36 6 58.5 18.5t51.5 39.5l21 -19v-368q0 -16 4 -25.5t17 -15t18.5 -6.5
t26.5 -5v-17h-197z" />
    <glyph glyph-name="j" unicode="j" horiz-adv-x="238" 
d="M117 583q-17 0 -30.5 12.5t-13.5 29.5q0 18 13.5 31t30.5 13q18 0 31.5 -13t13.5 -31q0 -17 -13.5 -29.5t-31.5 -12.5zM5 -185q-4 4 -4 11t4 10q47 17 66.5 47t19.5 98v339q0 30 -12.5 44t-53.5 19v15q28 5 43 12t35 22.5t32 23.5l21 -19v-454q0 -148 -151 -168z" />
    <glyph glyph-name="k" unicode="k" horiz-adv-x="519" 
d="M434 53q13 -18 27.5 -24.5t46.5 -10.5v-18h-130q0 17 -18 48l-133 191l-58 -57v-113q0 -8 2 -14.5t4.5 -11t8 -8.5t9 -6t12 -4.5t12 -3t13.5 -2.5t12 -2v-17h-211v17q2 0 12 2t13.5 2.5t12 3t12 4.5t9 6t8 8.5t4.5 11t2 14.5v483q0 52 -73 63v15q70 15 118 57l20 -19
v-441l145 141q23 22 14 36t-47 18v18h189v-18q-66 -6 -105 -48l-95 -93z" />
    <glyph glyph-name="l" unicode="l" horiz-adv-x="273" 
d="M31 0v17q2 0 12 2t13.5 2.5t12 3t12 4.5t9 6t8 8.5t4.5 11t2 14.5v483q0 52 -73 63v15q70 15 118 57l20 -19v-599q0 -8 2 -14.5t4.5 -11t8 -8.5t9 -6t12 -4.5t12 -3t13.5 -2.5t12 -2v-17h-211z" />
    <glyph glyph-name="m" unicode="m" horiz-adv-x="792" 
d="M26 0v17q21 3 28.5 4.5t19 7t15 15t3.5 25.5v261q0 30 -12.5 42.5t-53.5 10.5v15q32 5 54.5 13.5t35 17t36.5 27.5l20 -19l-22 -84h9q32 43 73.5 69.5t83.5 26.5q43 0 70 -26.5t36 -69.5h10q61 96 150 96q58 0 87.5 -46t29.5 -108v-226q0 -16 3.5 -25.5t15 -15t19 -7
t29.5 -4.5v-17h-202v17q23 3 31.5 4.5t20 7t15 15t3.5 25.5v226q0 44 -21 72t-62 28q-68 0 -122 -75v-251q0 -16 3.5 -25.5t15 -15t19 -7t29.5 -4.5v-17h-202v17q23 3 31.5 4.5t20 7t15 15t3.5 25.5v226q0 43 -22.5 71.5t-60.5 28.5q-70 0 -124 -74v-252q0 -13 4.5 -22
t7.5 -13.5t16.5 -8.5t17 -4.5t22.5 -3.5v-17h-199z" />
    <glyph glyph-name="n" unicode="n" horiz-adv-x="546" 
d="M26 0v17q21 4 26.5 5t18.5 6.5t17 15t4 25.5v251q0 30 -12.5 44t-53.5 19v15q32 5 54.5 13.5t35 17t36.5 27.5l20 -19l-22 -84h9q73 96 175 96q66 0 93 -40t27 -114v-226q0 -16 4 -25.5t17 -15t18.5 -6.5t26.5 -5v-17h-198v17q21 3 27.5 4.5t19 7t16.5 15t4 25.5v225
q0 45 -22 73t-70 28q-79 0 -140 -74v-252q0 -13 4.5 -22t7.5 -13.5t16.5 -8.5t17 -4.5t22.5 -3.5v-17h-199z" />
    <glyph glyph-name="o" unicode="o" horiz-adv-x="543" 
d="M266 -9q-90 0 -157.5 62.5t-67.5 163.5q0 105 71 168.5t165 63.5q90 0 157.5 -62.5t67.5 -163.5q0 -105 -71 -168.5t-165 -63.5zM278 20q59 0 103.5 47t44.5 141t-47.5 153t-113.5 59q-59 0 -103.5 -47t-44.5 -141t47.5 -153t113.5 -59z" />
    <glyph glyph-name="p" unicode="p" horiz-adv-x="541" 
d="M328 449q71 0 121.5 -58t50.5 -154q0 -109 -66.5 -177.5t-171.5 -68.5q-59 0 -100 26v-120q0 -32 16.5 -41t63.5 -14v-17h-216v17q23 3 32 4.5t20.5 7t15 16t3.5 27.5v423q0 30 -13.5 44t-57.5 19v15q49 8 73.5 20.5t51.5 37.5l20 -19l-39 -113h20q24 50 70 87.5
t106 37.5zM273 20q64 0 112 46t48 145q0 80 -36.5 130.5t-99.5 50.5t-99 -43.5t-36 -77.5v-114q0 -56 26 -96.5t85 -40.5z" />
    <glyph glyph-name="q" unicode="q" horiz-adv-x="530" 
d="M438 -106q0 -16 3.5 -25.5t14.5 -15t19 -7t29 -4.5v-17h-217v17q53 5 69.5 13t16.5 39v183q-60 -86 -153 -86q-76 0 -127.5 57.5t-51.5 152.5q0 109 74.5 178.5t187.5 69.5q60 0 101 -22l34 13v-546zM261 44q78 0 112 79v220q0 31 -31.5 54t-76.5 23q-64 0 -111.5 -47
t-47.5 -135q0 -87 45.5 -140.5t109.5 -53.5z" />
    <glyph glyph-name="r" unicode="r" horiz-adv-x="384" 
d="M26 0v17q23 3 32 4.5t20.5 7t15 15t3.5 25.5v252q0 30 -13.5 44t-57.5 18v15q50 8 74 20t51 38l20 -19l-34 -119h20q36 69 70.5 103.5t83.5 34.5q23 0 42 -8v-73q-40 11 -63 11q-58 0 -93 -38.5t-35 -101.5v-177q0 -21 9.5 -32t21.5 -13.5t43 -6.5v-17h-210z" />
    <glyph glyph-name="s" unicode="s" horiz-adv-x="397" 
d="M184 -9q-46 0 -87 14t-54 26l-2 90h24q13 -47 46 -74.5t82 -27.5q44 0 71 21t27 59q0 18 -6 32t-21 24.5t-25 16t-35.5 15t-33.5 13.5q-57 22 -91.5 52t-34.5 77q0 53 41.5 86.5t115.5 33.5q70 0 123 -38l-3 -89h-20q-27 99 -113 99q-41 0 -62.5 -21t-21.5 -52
q0 -33 24 -51.5t76 -39.5q5 -2 22 -8.5t25.5 -10t24.5 -11t25 -14t21 -16.5t18.5 -20.5t11 -24.5t4.5 -30q0 -53 -47 -92t-125 -39z" />
    <glyph glyph-name="t" unicode="t" horiz-adv-x="316" 
d="M161 108q0 -25 13.5 -38t34.5 -13.5t41.5 3.5t39.5 12v-20q-36 -22 -126 -62q-25 0 -46.5 26t-21.5 57v333h-70v18q74 32 113 105h22v-95l122 15q-5 -15 -5 -43h-117v-298z" />
    <glyph glyph-name="u" unicode="u" horiz-adv-x="548" 
d="M215 -9q-128 0 -128 154v231q0 18 -8.5 27.5t-19 12.5t-33.5 7v17q72 -4 126 6v-298q0 -100 91 -100q79 0 148 56v272q0 18 -8.5 27.5t-19 12.5t-33.5 7v17q72 -4 126 6v-363q0 -30 12.5 -44.5t53.5 -21.5v-17h-127l6 77h-11q-88 -86 -175 -86z" />
    <glyph glyph-name="v" unicode="v" horiz-adv-x="503" 
d="M334 440h158v-17q-34 -4 -45.5 -11.5t-23.5 -36.5l-158 -381h-27l-159 381q-13 30 -24 37t-44 11v17h198v-17q-47 -7 -55 -18q-9 -10 -1 -30l120 -296l112 279q5 13 6 23t-3 16.5t-8.5 11t-13.5 7.5t-15 4t-17 3v17z" />
    <glyph glyph-name="w" unicode="w" horiz-adv-x="779" 
d="M223 -6l-143 386q-9 26 -21.5 33t-47.5 10v17h199v-17q-46 -6 -54 -18q-6 -9 0 -25l104 -286l99 239q15 41 1 68q-5 12 -15.5 15.5t-34.5 6.5v17h126q0 -35 18 -77l104 -270l100 248q8 21 8 35.5t-5 23t-17.5 13.5t-23.5 7t-29 3v17h177v-17q-34 -3 -46 -10t-23 -33
l-150 -386h-26l-134 342l-140 -342h-26z" />
    <glyph glyph-name="x" unicode="x" horiz-adv-x="522" 
d="M414 61q17 -24 33.5 -32t53.5 -12v-17h-213v17q13 2 19.5 3.5t15 4.5t11 7t2 11.5t-7.5 17.5l-88 128l-96 -128q-9 -12 -10.5 -20t8 -13t14.5 -6t24 -4q3 -1 5 -1v-17h-164v17q38 4 53 11t34 33l115 152l-113 164q-16 25 -32 33.5t-49 12.5v17h203v-17q-15 -2 -23.5 -4.5
t-16 -7.5t-6.5 -13.5t9 -20.5l79 -114l86 114q10 13 10.5 21.5t-9 13.5t-17.5 6.5t-25 4.5v17h159v-17q-33 -4 -47.5 -11.5t-34.5 -34.5l-105 -138z" />
    <glyph glyph-name="y" unicode="y" horiz-adv-x="497" 
d="M331 440h155v-17q-33 -4 -44 -11t-23 -35l-181 -424l-13.5 -33t-17 -33.5t-23.5 -34.5t-28 -22.5t-36 -10.5q-31 0 -62 23v51q124 -5 150 60l26 61l-156 364q-11 27 -22.5 34t-44.5 11v17h193v-17q-47 -7 -55 -18q-8 -10 -1 -27l119 -287l122 286q3 14 3.5 21.5t-10 12.5
t-19.5 7t-24 4q-5 1 -8 1v17z" />
    <glyph glyph-name="z" unicode="z" horiz-adv-x="443" 
d="M42 0l-11 15l286 405l-142 -3q-84 -1 -94 -103h-19v132l59 -6h289l-294 -420l145 3q63 1 90 26t41 77h20q-19 -66 -19 -126h-351z" />
    <glyph glyph-name="braceleft" unicode="{" horiz-adv-x="277" 
d="M238 -161q-67 25 -90 75.5t-23 128.5v155q0 23 -5 38t-20 25t-24 14t-35 14v13q26 10 35 14t24 14t20 25t5 38v155q0 78 23 128.5t90 75.5l8 -13q-20 -9 -32 -24.5t-17 -45t-6 -52t-1 -69.5v-130q0 -61 -27 -85t-77 -35v-5q50 -11 77 -35t27 -85v-130q0 -47 1 -69.5
t6 -52t17 -45t32 -24.5z" />
    <glyph glyph-name="bar" unicode="|" horiz-adv-x="190" 
d="M81 -175v821h28v-821h-28z" />
    <glyph glyph-name="braceright" unicode="}" horiz-adv-x="277" 
d="M39 -161l-8 13q20 9 32 24.5t17 45t6 52t1 69.5v130q0 61 27 85t77 35v5q-50 11 -77 35t-27 85v130q0 47 -1 69.5t-6 52t-17 45t-32 24.5l8 13q67 -25 90 -75.5t23 -128.5v-155q0 -23 5 -38t20 -25t24 -14t35 -14v-13q-26 -10 -35 -14t-24 -14t-20 -25t-5 -38v-155
q0 -78 -23 -128.5t-90 -75.5z" />
    <glyph glyph-name="asciitilde" unicode="~" horiz-adv-x="444" 
d="M293 196q-37 0 -64 17t-49 34t-47 17q-31 0 -47 -13t-16 -30h-17q-10 38 19.5 66.5t78.5 28.5q29 0 52 -11t36 -23.5t32 -23.5t40 -11q31 0 46.5 13t15.5 31h18q10 -38 -19.5 -66.5t-78.5 -28.5z" />
    <glyph glyph-name="exclamdown" unicode="&#xa1;" horiz-adv-x="205" 
d="M112 455q21 0 36.5 -14t15.5 -35t-15.5 -35t-36.5 -14t-36 14t-15 35t15 35t36 14zM95 275h14l36 -427q5 -56 -43 -56t-43 56z" />
    <glyph glyph-name="cent" unicode="&#xa2;" horiz-adv-x="475" 
d="M422 109l15 -7q-18 -53 -65 -82t-110 -29q-36 0 -72 11l-17 -63h-23l19 71q-58 25 -93 78.5t-35 126.5q0 104 65.5 169t163.5 65q13 0 19 -1l19 71h23l-20 -73q51 -9 83 -35t32 -59q0 -21 -12 -31t-28 -10q-38 0 -57 65q-8 26 -27 37l-94 -347q41 -22 88 -22q87 0 126 65
zM112 245q0 -109 76 -166l93 342q-10 2 -18 2q-56 0 -103.5 -45.5t-47.5 -132.5z" />
    <glyph glyph-name="sterling" unicode="&#xa3;" horiz-adv-x="580" 
d="M515 171q25 -19 25 -54q0 -47 -32 -81t-68 -47t-66 -13q-39 0 -101 40.5t-103 40.5q-67 0 -110 -62l-19 19q118 116 118 243v42h-96l4 30h92v53q0 125 59 190t158 65q81 0 103 -44q-3 -44 -40 -58q-10 26 -42 44t-71 18q-43 0 -67.5 -33t-24.5 -120v-115h193l-4 -30h-189
v-42q0 -120 -63 -163q12 4 23.5 4.5t23 -0.5t13.5 -1q52 0 114.5 -37t92.5 -37q39 0 39 41q0 31 -20 59z" />
    <glyph glyph-name="currency" unicode="&#xa4;" horiz-adv-x="599" 
d="M505 228q0 -81 -54 -140l55 -54l-15 -15l-54 54q-59 -54 -139 -54q-79 0 -137 53l-53 -53l-15 15l53 53q-53 59 -53 141q0 79 52 139l-52 51l15 16l52 -52q57 54 138 54q80 0 140 -55l53 53l15 -16l-53 -52q52 -60 52 -138zM115 228q0 -78 53.5 -134t130.5 -56
q76 0 131 56t55 134t-54.5 133t-131.5 55t-130.5 -55t-53.5 -133z" />
    <glyph glyph-name="yen" unicode="&#xa5;" horiz-adv-x="644" 
d="M436 630h192v-17q-40 -8 -53 -16.5t-35 -45.5l-163 -263h136v-28h-149v-59h149v-28h-149v-72q0 -25 4.5 -39t20.5 -22t26 -10.5t42 -7.5v-22h-263v22q59 10 73 21q20 15 20 58v72h-160v28h160v58l-1 1h-159v28h142l-166 263q-24 37 -36 45.5t-51 16.5v17h229v-17
q-40 -9 -55 -21.5t1 -40.5l156 -253l153 253q10 17 11.5 27.5t-9 16.5t-19 8.5t-31.5 6.5q-11 2 -16 3v17z" />
    <glyph glyph-name="brokenbar" unicode="&#xa6;" horiz-adv-x="190" 
d="M81 315v331h28v-331h-28zM81 -175v331h28v-331h-28z" />
    <glyph glyph-name="section" unicode="&#xa7;" horiz-adv-x="485" 
d="M322 83q92 -55 92 -129q0 -56 -42 -95t-127 -39q-23 0 -43 3t-33 6t-28.5 10t-20.5 10t-18.5 12t-14.5 10l-3 98h16q16 -49 54.5 -86t95.5 -37q48 0 74 25.5t26 59.5q0 36 -31.5 64t-100.5 66q-1 0 -22 11.5t-25 14t-23.5 14t-25.5 17.5t-21 18t-21 22.5t-14.5 24
t-11.5 28.5t-3 31q0 51 32.5 88t86.5 52q-91 56 -91 130q0 54 42 94t124 40q24 0 44.5 -3.5t37.5 -10.5t26.5 -12t23.5 -14.5t17 -11.5l3 -98h-16q-16 50 -52.5 87.5t-87.5 37.5q-47 0 -72.5 -26.5t-25.5 -59.5q0 -36 31.5 -65t97.5 -63q2 -1 21.5 -11.5t25.5 -14.5
t24 -14.5t25 -17.5t21.5 -19t21 -22.5t14.5 -24t11 -28.5t3 -31q0 -52 -32 -89t-85 -52zM123 267q0 -49 35.5 -81.5t107.5 -70.5l22 -12q36 8 57.5 33.5t21.5 63.5q0 48 -35.5 80.5t-107.5 71.5l-19 10q-37 -8 -59.5 -32.5t-22.5 -62.5z" />
    <glyph glyph-name="dieresis" unicode="&#xa8;" horiz-adv-x="281" 
d="M50 582q-17 0 -28 11t-11 28q0 18 11 29t28 11q18 0 29 -11t11 -29q0 -17 -11 -28t-29 -11zM230 582q-17 0 -28 11t-11 28q0 18 11 29t28 11q18 0 29 -11t11 -29q0 -17 -11 -28t-29 -11z" />
    <glyph glyph-name="copyright" unicode="&#xa9;" horiz-adv-x="685" 
d="M343 25q-121 0 -206.5 85.5t-85.5 206.5q0 120 85.5 205.5t206.5 85.5q120 0 205.5 -85.5t85.5 -205.5q0 -121 -85.5 -206.5t-205.5 -85.5zM343 45q109 0 188.5 81t79.5 191q0 111 -79 191t-189 80t-190 -80t-80 -191q0 -112 80 -192t190 -80zM355 149q-76 0 -125 46.5
t-49 120.5t47 121.5t128 47.5q65 0 103 -24l4 -69h-17q-9 37 -35 56.5t-62 19.5q-56 0 -89.5 -36.5t-33.5 -102.5q0 -69 42.5 -112.5t103.5 -43.5q56 0 83 28l9 -11q-39 -41 -109 -41z" />
    <glyph glyph-name="ordfeminine" unicode="&#xaa;" horiz-adv-x="345" 
d="M265 400q0 -9 6 -13t17.5 -3t24.5 9v-13q-10 -21 -42 -39q-21 0 -34 16t-13 37q-58 -53 -118 -53q-34 0 -54 19t-20 49q0 44 53 68q16 6 65 22q60 17 69 27q3 4 5 10v4q0 41 -19.5 56t-64.5 15q-22 0 -30 -18q-21 -51 -39 -51q-21 0 -21 22q0 30 44 50.5t93 20.5
q43 0 60.5 -23.5t17.5 -73.5v-138zM133 373q26 0 51.5 13.5t39.5 31.5v84l-72 -21q-42 -12 -58 -26t-16 -36q0 -23 16.5 -34.5t38.5 -11.5zM50 254v16h247v-16h-247z" />
    <glyph glyph-name="guillemotleft" unicode="&#xab;" horiz-adv-x="416" 
d="M51 229l154 134l7 -12l-98 -122l98 -123l-8 -12zM203 229l155 134l7 -12l-98 -122l98 -123l-9 -12z" />
    <glyph glyph-name="logicalnot" unicode="&#xac;" horiz-adv-x="559" 
d="M488 359v-216h-35v181h-382v35h417z" />
    <glyph glyph-name="uni00AD" unicode="&#xad;" horiz-adv-x="398" 
d="M61 241v24h276v-24h-276z" />
    <glyph glyph-name="registered" unicode="&#xae;" horiz-adv-x="685" 
d="M343 25q-121 0 -206.5 85.5t-85.5 206.5q0 120 85.5 205.5t206.5 85.5q120 0 205.5 -85.5t85.5 -205.5q0 -121 -85.5 -206.5t-205.5 -85.5zM343 45q109 0 188.5 81t79.5 191q0 111 -79 191t-189 80t-190 -80t-80 -191q0 -112 80 -192t190 -80zM464 155q-22 0 -37.5 12
t-33.5 39l-40 60q-22 31 -35 36v10q48 0 72 18t24 49q0 32 -24 51t-68 19q-22 0 -29.5 -6t-7.5 -18v-214q0 -16 5.5 -24t12 -9.5t22.5 -3.5v-11h-117v11q16 2 22.5 3.5t12 9.5t5.5 24v208q0 15 -6 23t-11 9t-23 5v11h111q135 0 135 -83q0 -34 -26.5 -55.5t-63.5 -26.5l5 -4
q5 -5 10 -9.5t13.5 -15.5t16.5 -24l18 -31q32 -49 53 -50v-10q-6 -3 -16 -3z" />
    <glyph glyph-name="macron" unicode="&#xaf;" horiz-adv-x="307" 
d="M6 607l15 30h280l-15 -30h-280z" />
    <glyph glyph-name="degree" unicode="&#xb0;" horiz-adv-x="365" 
d="M179 375q-52 0 -90 36t-38 95q0 61 40.5 97.5t94.5 36.5q52 0 90.5 -36t38.5 -95q0 -60 -41.5 -97t-94.5 -37zM187 396q30 0 54 26.5t24 79.5q0 52 -25.5 84.5t-61.5 32.5q-30 0 -54 -26.5t-24 -79.5q0 -52 26 -84.5t61 -32.5z" />
    <glyph glyph-name="plusminus" unicode="&#xb1;" horiz-adv-x="512" 
d="M274 370h167v-35h-167v-169h-35v169h-168v35h168v167h35v-167zM71 13v35h370v-35h-370z" />
    <glyph glyph-name="uni00B2" unicode="&#xb2;" horiz-adv-x="280" 
d="M44 393l-3 11q5 4 20 17t21 18t19 17t19.5 19t16.5 18t15 19t10.5 17.5t8 18.5t2.5 18q0 20 -12 34t-35 14q-41 0 -66 -42l-11 7q12 31 38.5 48.5t58.5 17.5q35 0 58 -20t23 -50q0 -23 -17 -48t-35 -40t-45.5 -35.5t-32.5 -24.5h66q27 0 40.5 6.5t22.5 29.5h13l-19 -70
h-176z" />
    <glyph glyph-name="uni00B3" unicode="&#xb3;" horiz-adv-x="267" 
d="M110 384q-27 0 -48 7.5t-21 22.5t17 15q9 0 25.5 -15.5t33.5 -15.5q23 0 42 16.5t19 44.5q0 27 -18 40.5t-45 13.5q-17 0 -36 -7l-5 12l31 12q32 12 45.5 22.5t13.5 28.5q0 32 -41 32t-64 -27l-10 8q32 47 92 47q29 0 47.5 -14t18.5 -37q0 -33 -56 -58q31 -2 53 -17
t22 -45q0 -37 -34 -61.5t-82 -24.5z" />
    <glyph glyph-name="acute" unicode="&#xb4;" horiz-adv-x="152" 
d="M26 516l-14 12q35 97 69 145q15 0 35 -14.5t26 -26.5q-10 -7 -21 -16.5t-18 -15.5t-20.5 -20.5t-17 -19t-20.5 -23.5t-19 -21z" />
    <glyph glyph-name="paragraph" unicode="&#xb6;" horiz-adv-x="643" 
d="M295 630h317v-17q-51 -10 -64 -20q-19 -16 -19 -59v-574q0 -60 -34.5 -97.5t-107.5 -37.5h-49v728q0 24 -11.5 35t-41.5 11q-74 0 -118.5 -49.5t-44.5 -120.5t43.5 -116t122.5 -45q12 0 12 -15.5t-12 -15.5q-108 0 -182.5 54.5t-74.5 143.5t75 142t189 53zM449 -40v593
q0 47 -35 47q-34 0 -34 -47v-702q23 1 37.5 10t21 26.5t8.5 33t2 39.5z" />
    <glyph glyph-name="periodcentered" unicode="&#xb7;" horiz-adv-x="205" 
d="M112 248q-21 0 -36 14t-15 35t15 35t36 14t36.5 -14t15.5 -35t-15.5 -35t-36.5 -14z" />
    <glyph glyph-name="cedilla" unicode="&#xb8;" horiz-adv-x="223" 
d="M67 -212l5 19q43 0 67 13.5t24 34.5q0 47 -106 47l50 98h37l-28 -55q44 0 70.5 -20t26.5 -53q0 -35 -34 -59.5t-112 -24.5z" />
    <glyph glyph-name="uni00B9" unicode="&#xb9;" horiz-adv-x="217" 
d="M46 398v10q22 2 30 6t8 16v165q0 11 -4 14.5t-12 1.5l-20 -5v11l77 33l8 -6v-214q0 -12 8 -16t30 -6v-10h-125z" />
    <glyph glyph-name="ordmasculine" unicode="&#xba;" horiz-adv-x="351" 
d="M172 340q-59 0 -102.5 40t-43.5 105q0 68 46.5 109t106.5 41q59 0 102.5 -40.5t43.5 -105.5q0 -67 -47 -108t-106 -41zM181 359q37 0 66 30t29 91q0 60 -30.5 97t-73.5 37q-39 0 -68 -29.5t-29 -90.5q0 -60 31.5 -97.5t74.5 -37.5zM50 254v16h250v-16h-250z" />
    <glyph glyph-name="guillemotright" unicode="&#xbb;" horiz-adv-x="416" 
d="M200 229l-153 -135l-8 12l98 123l-98 122l7 12zM353 229l-153 -135l-9 12l98 123l-98 122l7 12z" />
    <glyph glyph-name="onequarter" unicode="&#xbc;" horiz-adv-x="638" 
d="M199 408v-10h-125v10q22 2 30 6t8 16v165q0 11 -4 14.5t-12 1.5l-20 -5v11l77 33l8 -6v-214q0 -12 8 -16t30 -6zM503 636h28l-432 -641h-28zM550 32q0 -12 7.5 -16t29.5 -6v-10h-124v10q22 2 29.5 6t7.5 16v34h-108l-4 20l116 160h46v-160h37l-4 -20h-33v-34zM408 86h92
v127z" />
    <glyph glyph-name="onehalf" unicode="&#xbd;" horiz-adv-x="647" 
d="M74 398v10q22 2 30 6t8 16v165q0 11 -4 14.5t-12 1.5l-20 -5v11l77 33l8 -6v-214q0 -12 8 -16t30 -6v-10h-125zM71 -5l432 641h28l-432 -641h-28zM401 0l-3 11q5 4 20 17t21 18t19 17t19.5 19t16.5 18t15 19t10.5 17.5t8 18.5t2.5 18q0 20 -12 34t-35 14q-41 0 -66 -42
l-11 7q12 31 38.5 48.5t58.5 17.5q35 0 58 -20t23 -50q0 -23 -17 -48t-35 -40t-45.5 -35.5t-32.5 -24.5h66q27 0 40.5 6.5t22.5 29.5h13l-19 -70h-176z" />
    <glyph glyph-name="threequarters" unicode="&#xbe;" horiz-adv-x="722" 
d="M226 470q0 -37 -34 -61.5t-82 -24.5q-27 0 -48 7.5t-21 22.5t17 15q9 0 25.5 -15.5t33.5 -15.5q23 0 42 16.5t19 44.5q0 27 -18 40.5t-45 13.5q-17 0 -36 -7l-5 12l31 12q32 12 45.5 22.5t13.5 28.5q0 32 -41 32t-64 -27l-10 8q32 47 92 47q29 0 47.5 -14t18.5 -37
q0 -33 -56 -58q31 -2 53 -17t22 -45zM549 636h28l-432 -641h-28zM644 32q0 -12 7.5 -16t29.5 -6v-10h-124v10q22 2 29.5 6t7.5 16v34h-108l-4 20l116 160h46v-160h37l-4 -20h-33v-34zM502 86h92v127z" />
    <glyph glyph-name="questiondown" unicode="&#xbf;" horiz-adv-x="441" 
d="M238 455q20 0 35.5 -14.5t15.5 -34.5t-15.5 -34.5t-35.5 -14.5q-21 0 -37 14t-16 35t16 35t37 14zM249 257q13 -39 6.5 -65t-26.5 -58t-41.5 -58t-38.5 -64t-17 -76q0 -120 140 -120q32 0 45 31q18 46 30.5 63t30.5 17q32 0 32 -33q0 -48 -65.5 -78.5t-137.5 -30.5
q-80 0 -118 41.5t-38 109.5q0 46 19.5 83.5t46.5 62.5t54 49t45.5 56t16.5 70h16z" />
    <glyph glyph-name="Agrave" unicode="&#xc0;" 
d="M355 706q-5 5 -22.5 25.5t-24.5 27.5t-20.5 21.5t-24.5 24t-23 17.5q5 12 25 26.5t36 14.5q30 -42 69 -145zM607 75q14 -33 27 -41.5t54 -16.5v-17h-231v17l17.5 3.5t17.5 4t14 4.5t11.5 6.5t5.5 9t1.5 13t-5.5 17.5l-57 132h-274l-55 -134q-4 -9 -5 -16.5t2 -12.5
t5.5 -8.5t11 -6.5t13 -4.5t17 -4l17.5 -3.5v-17h-183v17q50 10 61 17q13 10 24 38l234 565h34zM200 236h250l-128 297z" />
    <glyph glyph-name="Aacute" unicode="&#xc1;" 
d="M451 822q-10 -7 -21 -16.5t-18 -15.5t-20.5 -20.5t-17 -19t-20.5 -23.5t-19 -21l-14 12q35 97 69 145q15 0 35 -14.5t26 -26.5zM607 75q14 -33 27 -41.5t54 -16.5v-17h-231v17l17.5 3.5t17.5 4t14 4.5t11.5 6.5t5.5 9t1.5 13t-5.5 17.5l-57 132h-274l-55 -134
q-4 -9 -5 -16.5t2 -12.5t5.5 -8.5t11 -6.5t13 -4.5t17 -4l17.5 -3.5v-17h-183v17q50 10 61 17q13 10 24 38l234 565h34zM200 236h250l-128 297z" />
    <glyph glyph-name="Acircumflex" unicode="&#xc2;" 
d="M351 812l-122 -98l-12 7l134 155l135 -153l-12 -9zM607 75q14 -33 27 -41.5t54 -16.5v-17h-231v17l17.5 3.5t17.5 4t14 4.5t11.5 6.5t5.5 9t1.5 13t-5.5 17.5l-57 132h-274l-55 -134q-4 -9 -5 -16.5t2 -12.5t5.5 -8.5t11 -6.5t13 -4.5t17 -4l17.5 -3.5v-17h-183v17
q50 10 61 17q13 10 24 38l234 565h34zM200 236h250l-128 297z" />
    <glyph glyph-name="Atilde" unicode="&#xc3;" 
d="M215 762h-15q-9 36 17.5 63t71.5 27q33 0 56.5 -17t43.5 -34.5t44 -17.5q28 0 42.5 12.5t14.5 27.5h15q9 -36 -17 -63.5t-71 -27.5q-34 0 -58 17t-44 34.5t-43 17.5q-28 0 -42.5 -12t-14.5 -27zM607 75q14 -33 27 -41.5t54 -16.5v-17h-231v17l17.5 3.5t17.5 4t14 4.5
t11.5 6.5t5.5 9t1.5 13t-5.5 17.5l-57 132h-274l-55 -134q-4 -9 -5 -16.5t2 -12.5t5.5 -8.5t11 -6.5t13 -4.5t17 -4l17.5 -3.5v-17h-183v17q50 10 61 17q13 10 24 38l234 565h34zM200 236h250l-128 297z" />
    <glyph glyph-name="Adieresis" unicode="&#xc4;" 
d="M260 772q-17 0 -28 11t-11 28q0 18 11 29t28 11q18 0 29 -11t11 -29q0 -17 -11 -28t-29 -11zM440 772q-17 0 -28 11t-11 28q0 18 11 29t28 11q18 0 29 -11t11 -29q0 -17 -11 -28t-29 -11zM607 75q14 -33 27 -41.5t54 -16.5v-17h-231v17l17.5 3.5t17.5 4t14 4.5t11.5 6.5
t5.5 9t1.5 13t-5.5 17.5l-57 132h-274l-55 -134q-4 -9 -5 -16.5t2 -12.5t5.5 -8.5t11 -6.5t13 -4.5t17 -4l17.5 -3.5v-17h-183v17q50 10 61 17q13 10 24 38l234 565h34zM200 236h250l-128 297z" />
    <glyph glyph-name="Aring" unicode="&#xc5;" 
d="M351 729q-34 0 -58 24t-24 58t24 58t58 24t57.5 -24t23.5 -58t-23.5 -58t-57.5 -24zM351 864q-21 0 -36.5 -16t-15.5 -37t15.5 -37t36.5 -16t36 16t15 37t-15 37t-36 16zM607 75q14 -33 27 -41.5t54 -16.5v-17h-231v17l17.5 3.5t17.5 4t14 4.5t11.5 6.5t5.5 9t1.5 13
t-5.5 17.5l-57 132h-274l-55 -134q-4 -9 -5 -16.5t2 -12.5t5.5 -8.5t11 -6.5t13 -4.5t17 -4l17.5 -3.5v-17h-183v17q50 10 61 17q13 10 24 38l234 565h34zM200 236h250l-128 297z" />
    <glyph glyph-name="AE" unicode="&#xc6;" horiz-adv-x="889" 
d="M831 145h22l-41 -145h-468v17q51 10 64 20q19 16 19 59v125h-214l-80 -139q-7 -11 -10 -19.5t0 -15t5 -10t12 -7.5t14 -5t18 -4t18 -4v-17h-179v17q40 8 53 17t35 47l262 449h-2q11 19 11 33t-3.5 21.5t-21.5 14t-25 7.5t-31 5q-4 1 -6.5 1.5t-5.5 0.5v17h533l9 -137h-22
q-7 57 -27 81.5t-71 24.5h-101q-59 0 -76.5 -13t-17.5 -63v-190h89q86 0 110 17t29 67h16v-198h-16q-5 50 -29 67t-110 17h-89v-196q0 -50 17.5 -63t76.5 -13h80q59 0 92 24.5t61 89.5zM230 250h197v284q0 29 -8 45z" />
    <glyph glyph-name="Ccedilla" unicode="&#xc7;" horiz-adv-x="653" 
d="M383 -12h-6l-22 -43q44 0 70.5 -20t26.5 -53q0 -35 -34 -59.5t-112 -24.5l5 19q43 0 67 13.5t24 34.5q0 47 -106 47l45 88q-128 14 -209 104t-81 226q0 141 92.5 233.5t248.5 92.5q117 0 194 -46q4 -91 7 -135h-30q-17 76 -68 113t-123 37q-104 0 -168 -70t-64 -202
q0 -139 81.5 -225.5t197.5 -86.5q44 0 91.5 13t74.5 42l17 -17q-32 -35 -90 -58t-129 -23z" />
    <glyph glyph-name="Egrave" unicode="&#xc8;" horiz-adv-x="576" 
d="M294 706q-5 5 -22.5 25.5t-24.5 27.5t-20.5 21.5t-24.5 24t-23 17.5q5 12 25 26.5t36 14.5q30 -42 69 -145zM518 145h22l-41 -145h-468v17q51 10 64 20q19 16 19 59v438q0 23 -3.5 37t-17.5 22.5t-20.5 10.5t-33.5 7q-5 1 -8 2v17h466l9 -137h-22q-7 57 -27 81.5
t-71 24.5h-101q-59 0 -76.5 -13t-17.5 -63v-190h89q86 0 110 17t29 67h16v-198h-16q-5 50 -29 67t-110 17h-89v-196q0 -50 17.5 -63t76.5 -13h80q59 0 92 24.5t61 89.5z" />
    <glyph glyph-name="Eacute" unicode="&#xc9;" horiz-adv-x="576" 
d="M389 822q-10 -7 -21 -16.5t-18 -15.5t-20.5 -20.5t-17 -19t-20.5 -23.5t-19 -21l-14 12q35 97 69 145q15 0 35 -14.5t26 -26.5zM518 145h22l-41 -145h-468v17q51 10 64 20q19 16 19 59v438q0 23 -3.5 37t-17.5 22.5t-20.5 10.5t-33.5 7q-5 1 -8 2v17h466l9 -137h-22
q-7 57 -27 81.5t-71 24.5h-101q-59 0 -76.5 -13t-17.5 -63v-190h89q86 0 110 17t29 67h16v-198h-16q-5 50 -29 67t-110 17h-89v-196q0 -50 17.5 -63t76.5 -13h80q59 0 92 24.5t61 89.5z" />
    <glyph glyph-name="Ecircumflex" unicode="&#xca;" horiz-adv-x="576" 
d="M289 812l-122 -98l-12 7l134 155l135 -153l-12 -9zM518 145h22l-41 -145h-468v17q51 10 64 20q19 16 19 59v438q0 23 -3.5 37t-17.5 22.5t-20.5 10.5t-33.5 7q-5 1 -8 2v17h466l9 -137h-22q-7 57 -27 81.5t-71 24.5h-101q-59 0 -76.5 -13t-17.5 -63v-190h89q86 0 110 17
t29 67h16v-198h-16q-5 50 -29 67t-110 17h-89v-196q0 -50 17.5 -63t76.5 -13h80q59 0 92 24.5t61 89.5z" />
    <glyph glyph-name="Edieresis" unicode="&#xcb;" horiz-adv-x="576" 
d="M199 772q-17 0 -28 11t-11 28q0 18 11 29t28 11q18 0 29 -11t11 -29q0 -17 -11 -28t-29 -11zM379 772q-17 0 -28 11t-11 28q0 18 11 29t28 11q18 0 29 -11t11 -29q0 -17 -11 -28t-29 -11zM518 145h22l-41 -145h-468v17q51 10 64 20q19 16 19 59v438q0 23 -3.5 37
t-17.5 22.5t-20.5 10.5t-33.5 7q-5 1 -8 2v17h466l9 -137h-22q-7 57 -27 81.5t-71 24.5h-101q-59 0 -76.5 -13t-17.5 -63v-190h89q86 0 110 17t29 67h16v-198h-16q-5 50 -29 67t-110 17h-89v-196q0 -50 17.5 -63t76.5 -13h80q59 0 92 24.5t61 89.5z" />
    <glyph glyph-name="Igrave" unicode="&#xcc;" horiz-adv-x="305" 
d="M158 706q-5 5 -22.5 25.5t-24.5 27.5t-20.5 21.5t-24.5 24t-23 17.5q5 12 25 26.5t36 14.5q30 -42 69 -145zM31 0v17q51 10 64 20q19 16 19 59v438q0 23 -3.5 37t-17.5 22.5t-20.5 10.5t-33.5 7q-5 1 -8 2v17h243v-17q-51 -10 -64 -20q-19 -16 -19 -59v-438
q0 -23 3.5 -37t17.5 -22.5t20.5 -10.5t33.5 -7q5 -1 8 -2v-17h-243z" />
    <glyph glyph-name="Iacute" unicode="&#xcd;" horiz-adv-x="305" 
d="M138 706l-14 12q35 97 69 145q15 0 35 -14.5t26 -26.5q-10 -7 -21 -16.5t-18 -15.5t-20.5 -20.5t-17 -19t-20.5 -23.5t-19 -21zM31 0v17q51 10 64 20q19 16 19 59v438q0 23 -3.5 37t-17.5 22.5t-20.5 10.5t-33.5 7q-5 1 -8 2v17h243v-17q-51 -10 -64 -20q-19 -16 -19 -59
v-438q0 -23 3.5 -37t17.5 -22.5t20.5 -10.5t33.5 -7q5 -1 8 -2v-17h-243z" />
    <glyph glyph-name="Icircumflex" unicode="&#xce;" horiz-adv-x="305" 
d="M154 876l135 -153l-12 -9l-123 98l-122 -98l-12 7zM31 0v17q51 10 64 20q19 16 19 59v438q0 23 -3.5 37t-17.5 22.5t-20.5 10.5t-33.5 7q-5 1 -8 2v17h243v-17q-51 -10 -64 -20q-19 -16 -19 -59v-438q0 -23 3.5 -37t17.5 -22.5t20.5 -10.5t33.5 -7q5 -1 8 -2v-17h-243z
" />
    <glyph glyph-name="Idieresis" unicode="&#xcf;" horiz-adv-x="305" 
d="M63 772q-17 0 -28 11t-11 28q0 18 11 29t28 11q18 0 29 -11t11 -29q0 -17 -11 -28t-29 -11zM243 772q-17 0 -28 11t-11 28q0 18 11 29t28 11q18 0 29 -11t11 -29q0 -17 -11 -28t-29 -11zM31 0v17q51 10 64 20q19 16 19 59v438q0 23 -3.5 37t-17.5 22.5t-20.5 10.5
t-33.5 7q-5 1 -8 2v17h243v-17q-51 -10 -64 -20q-19 -16 -19 -59v-438q0 -23 3.5 -37t17.5 -22.5t20.5 -10.5t33.5 -7q5 -1 8 -2v-17h-243z" />
    <glyph glyph-name="Eth" unicode="&#xd0;" horiz-adv-x="676" 
d="M269 630q74 0 136.5 -17.5t112.5 -53.5t78.5 -97.5t28.5 -142.5q0 -110 -49.5 -183.5t-127 -104.5t-179.5 -31h-229v17q51 10 64 20q19 16 19 59v202l-94 -3l10 32q56 -2 84 -2v209q0 23 -3.5 37t-17.5 22.5t-20.5 10.5t-33.5 7q-5 1 -8 2v17h229zM297 32q127 0 184 70.5
t57 206.5q0 138 -64 213.5t-215 75.5h-59v-274q64 0 129 3l-10 -32q-60 3 -119 3v-170q0 -53 20.5 -74.5t76.5 -21.5z" />
    <glyph glyph-name="Ntilde" unicode="&#xd1;" horiz-adv-x="703" 
d="M217 762h-15q-9 36 17.5 63t71.5 27q33 0 56.5 -17t43.5 -34.5t44 -17.5q28 0 42.5 12.5t14.5 27.5h15q9 -36 -17 -63.5t-71 -27.5q-34 0 -58 17t-44 34.5t-43 17.5q-28 0 -42.5 -12t-14.5 -27zM459 630h213v-17q-52 -10 -65 -20q-20 -17 -20 -59v-534h-33l-401 532v-436
q0 -23 4 -37t19 -22.5t22 -10.5t36 -7q6 -1 9 -2v-17h-212v17q52 10 65 20q20 16 20 59v438q0 23 -4 37t-17.5 22.5t-21.5 10.5t-33 7q-2 1 -3 1t-3 0.5t-3 0.5v17h143l375 -493v397q0 23 -4 37t-19 22.5t-22 10.5t-36 7q-6 1 -9 2v17z" />
    <glyph glyph-name="Ograve" unicode="&#xd2;" horiz-adv-x="735" 
d="M372 706q-5 5 -22.5 25.5t-24.5 27.5t-20.5 21.5t-24.5 24t-23 17.5q5 12 25 26.5t36 14.5q30 -42 69 -145zM365 -12q-137 0 -225.5 94.5t-88.5 232.5q0 137 89.5 234t228.5 97q137 0 226 -95t89 -231q0 -139 -90 -235.5t-229 -96.5zM382 19q90 0 153.5 74t63.5 197
q0 139 -73.5 232t-173.5 93q-89 0 -152.5 -74.5t-63.5 -195.5q0 -140 73 -233t173 -93z" />
    <glyph glyph-name="Oacute" unicode="&#xd3;" horiz-adv-x="735" 
d="M352 706l-14 12q35 97 69 145q15 0 35 -14.5t26 -26.5q-10 -7 -21 -16.5t-18 -15.5t-20.5 -20.5t-17 -19t-20.5 -23.5t-19 -21zM365 -12q-137 0 -225.5 94.5t-88.5 232.5q0 137 89.5 234t228.5 97q137 0 226 -95t89 -231q0 -139 -90 -235.5t-229 -96.5zM382 19
q90 0 153.5 74t63.5 197q0 139 -73.5 232t-173.5 93q-89 0 -152.5 -74.5t-63.5 -195.5q0 -140 73 -233t173 -93z" />
    <glyph glyph-name="Ocircumflex" unicode="&#xd4;" horiz-adv-x="735" 
d="M368 876l135 -153l-12 -9l-123 98l-122 -98l-12 7zM365 -12q-137 0 -225.5 94.5t-88.5 232.5q0 137 89.5 234t228.5 97q137 0 226 -95t89 -231q0 -139 -90 -235.5t-229 -96.5zM382 19q90 0 153.5 74t63.5 197q0 139 -73.5 232t-173.5 93q-89 0 -152.5 -74.5t-63.5 -195.5
q0 -140 73 -233t173 -93z" />
    <glyph glyph-name="Otilde" unicode="&#xd5;" horiz-adv-x="735" 
d="M434 732q-34 0 -58 17t-44 34.5t-43 17.5q-28 0 -42.5 -12t-14.5 -27h-15q-9 36 17.5 63t71.5 27q33 0 56.5 -17t43.5 -34.5t44 -17.5q28 0 42.5 12.5t14.5 27.5h15q9 -36 -17 -63.5t-71 -27.5zM365 -12q-137 0 -225.5 94.5t-88.5 232.5q0 137 89.5 234t228.5 97
q137 0 226 -95t89 -231q0 -139 -90 -235.5t-229 -96.5zM382 19q90 0 153.5 74t63.5 197q0 139 -73.5 232t-173.5 93q-89 0 -152.5 -74.5t-63.5 -195.5q0 -140 73 -233t173 -93z" />
    <glyph glyph-name="Odieresis" unicode="&#xd6;" horiz-adv-x="735" 
d="M277 772q-17 0 -28 11t-11 28q0 18 11 29t28 11q18 0 29 -11t11 -29q0 -17 -11 -28t-29 -11zM457 772q-17 0 -28 11t-11 28q0 18 11 29t28 11q18 0 29 -11t11 -29q0 -17 -11 -28t-29 -11zM365 -12q-137 0 -225.5 94.5t-88.5 232.5q0 137 89.5 234t228.5 97q137 0 226 -95
t89 -231q0 -139 -90 -235.5t-229 -96.5zM382 19q90 0 153.5 74t63.5 197q0 139 -73.5 232t-173.5 93q-89 0 -152.5 -74.5t-63.5 -195.5q0 -140 73 -233t173 -93z" />
    <glyph glyph-name="multiply" unicode="&#xd7;" horiz-adv-x="435" 
d="M364 373l-121 -121l121 -122l-25 -26l-121 122l-122 -122l-25 26l121 122l-121 121l25 26l122 -122l121 122z" />
    <glyph glyph-name="Oslash" unicode="&#xd8;" horiz-adv-x="735" 
d="M548 592q64 -45 100 -116.5t36 -155.5q0 -139 -90 -235.5t-229 -96.5q-91 0 -166 46l-52 -83l-18 13l51 82q-61 45 -95 115.5t-34 153.5q0 137 89.5 234t228.5 97q88 0 160 -42l57 91l18 -13zM136 345q0 -145 80 -242l281 450q-65 62 -145 62q-89 0 -152.5 -74.5
t-63.5 -195.5zM382 19q90 0 153.5 74t63.5 197q0 151 -86 247l-281 -451q65 -67 150 -67z" />
    <glyph glyph-name="Ugrave" unicode="&#xd9;" 
d="M357 706q-5 5 -22.5 25.5t-24.5 27.5t-20.5 21.5t-24.5 24t-23 17.5q5 12 24.5 26.5t35.5 14.5q34 -48 69 -145zM356 -12q-34 0 -64.5 5.5t-64 23t-57.5 45t-40 76t-16 112.5v284q0 23 -3.5 37t-17.5 22.5t-20.5 10.5t-33.5 7q-5 1 -8 2v17h244v-17q-51 -10 -64 -20
q-19 -16 -19 -59v-295q0 -210 179 -210q34 0 63 8t58.5 28t47 60.5t17.5 98.5v310q0 23 -4 37t-17.5 22.5t-21.5 10.5t-33 7q-2 1 -3 1t-3 0.5t-3 0.5v17h214v-17q-56 -10 -69 -20q-21 -16 -21 -59v-290q0 -72 -21 -124t-57 -79.5t-76 -40t-86 -12.5z" />
    <glyph glyph-name="Uacute" unicode="&#xda;" 
d="M337 706l-15 12q39 103 69 145q16 0 36 -14.5t25 -26.5q-12 -8 -23 -17.5t-24.5 -24t-20.5 -21.5t-24.5 -27.5t-22.5 -25.5zM356 -12q-34 0 -64.5 5.5t-64 23t-57.5 45t-40 76t-16 112.5v284q0 23 -3.5 37t-17.5 22.5t-20.5 10.5t-33.5 7q-5 1 -8 2v17h244v-17
q-51 -10 -64 -20q-19 -16 -19 -59v-295q0 -210 179 -210q34 0 63 8t58.5 28t47 60.5t17.5 98.5v310q0 23 -4 37t-17.5 22.5t-21.5 10.5t-33 7q-2 1 -3 1t-3 0.5t-3 0.5v17h214v-17q-56 -10 -69 -20q-21 -16 -21 -59v-290q0 -72 -21 -124t-57 -79.5t-76 -40t-86 -12.5z" />
    <glyph glyph-name="Ucircumflex" unicode="&#xdb;" 
d="M353 876l134 -153l-12 -9l-122 98l-123 -98l-12 7zM356 -12q-34 0 -64.5 5.5t-64 23t-57.5 45t-40 76t-16 112.5v284q0 23 -3.5 37t-17.5 22.5t-20.5 10.5t-33.5 7q-5 1 -8 2v17h244v-17q-51 -10 -64 -20q-19 -16 -19 -59v-295q0 -210 179 -210q34 0 63 8t58.5 28
t47 60.5t17.5 98.5v310q0 23 -4 37t-17.5 22.5t-21.5 10.5t-33 7q-2 1 -3 1t-3 0.5t-3 0.5v17h214v-17q-56 -10 -69 -20q-21 -16 -21 -59v-290q0 -72 -21 -124t-57 -79.5t-76 -40t-86 -12.5z" />
    <glyph glyph-name="Udieresis" unicode="&#xdc;" 
d="M262 772q-17 0 -28 11t-11 28q0 18 11 29t28 11q18 0 29 -11t11 -29q0 -17 -11 -28t-29 -11zM442 772q-17 0 -28 11t-11 28q0 18 11 29t28 11q18 0 29 -11t11 -29q0 -17 -11 -28t-29 -11zM356 -12q-34 0 -64.5 5.5t-64 23t-57.5 45t-40 76t-16 112.5v284q0 23 -3.5 37
t-17.5 22.5t-20.5 10.5t-33.5 7q-5 1 -8 2v17h244v-17q-51 -10 -64 -20q-19 -16 -19 -59v-295q0 -210 179 -210q34 0 63 8t58.5 28t47 60.5t17.5 98.5v310q0 23 -4 37t-17.5 22.5t-21.5 10.5t-33 7q-2 1 -3 1t-3 0.5t-3 0.5v17h214v-17q-56 -10 -69 -20q-21 -16 -21 -59
v-290q0 -72 -21 -124t-57 -79.5t-76 -40t-86 -12.5z" />
    <glyph glyph-name="Yacute" unicode="&#xdd;" horiz-adv-x="649" 
d="M425 822q-12 -8 -23 -17.5t-24.5 -24t-20.5 -21.5t-24.5 -27.5t-22.5 -25.5l-15 12q39 103 69 145q16 0 36 -14.5t25 -26.5zM436 630h192v-17q-40 -8 -53 -16.5t-35 -45.5l-176 -284v-166q0 -25 4.5 -39t20.5 -22t26 -10.5t42 -7.5v-22h-263v22q59 10 73 21q20 15 20 58
v158l-184 292q-24 37 -36 45.5t-51 16.5v17h229v-17q-40 -9 -55 -21.5t1 -40.5l156 -253l153 253q10 17 11.5 27.5t-9 16.5t-19 8.5t-31.5 6.5q-11 2 -16 3v17z" />
    <glyph glyph-name="Thorn" unicode="&#xde;" horiz-adv-x="562" 
d="M521 314q0 -52 -18.5 -91t-48 -62t-74.5 -37.5t-88.5 -19.5t-100.5 -7v-1q0 -23 3.5 -37t17.5 -22.5t20.5 -10.5t33.5 -7q5 -1 8 -2v-17h-243v17q51 10 64 20q19 16 19 59v438q0 23 -3.5 37t-17.5 22.5t-20.5 10.5t-33.5 7q-5 1 -8 2v17h243v-17q-51 -10 -64 -20
q-19 -16 -19 -59v-3q57 -2 100.5 -7t88.5 -19.5t74.5 -37.5t48 -62t18.5 -91zM434 314q0 90 -59 133t-184 51v-368q125 8 184 51t59 133z" />
    <glyph glyph-name="germandbls" unicode="&#xdf;" horiz-adv-x="536" 
d="M284 -13q-74 0 -74 42q0 13 10 22t24 9q21 0 59 -18.5t54 -18.5q25 0 54 22.5t29 52.5q0 48 -54 102l-109 111q5 6 24 26t24.5 26t18 22.5t16.5 26.5t8.5 26t4.5 32q0 28 -8 55.5t-33 52.5t-62 25q-46 0 -73.5 -34t-27.5 -82v-487h-138v17q2 0 12 2t13.5 2.5t12 3t12 4.5
t9 6t8 8.5t4.5 11t2 14.5v418q0 56 43 103t123 47q85 0 128.5 -43.5t42.5 -104.5q0 -25 -9.5 -47t-27 -40t-31 -29.5t-34 -25t-24.5 -16.5l17 2l93 -94q75 -75 75 -126q0 -34 -36.5 -64t-86 -46t-93.5 -16z" />
    <glyph glyph-name="agrave" unicode="&#xe0;" horiz-adv-x="494" 
d="M244 516q-5 5 -22.5 25.5t-24.5 27.5t-20.5 21.5t-24.5 24t-23 17.5q5 12 25 26.5t36 14.5q30 -42 69 -145zM398 88q0 -24 22 -28.5t53 13.5v-19q-17 -31 -66 -61q-32 0 -53 25t-21 58q-92 -83 -182 -83q-53 0 -84 29.5t-31 76.5q0 57 45 86t140 55q59 16 81.5 25
t30.5 26v13q0 63 -29.5 87t-100.5 24q-35 0 -47 -30q-21 -47 -32 -63t-28 -16q-33 0 -33 33q0 46 69.5 78t143.5 32q67 0 94.5 -36t27.5 -115v-210zM194 43q41 0 80 21.5t59 49.5v130l-112 -33q-64 -18 -88.5 -39.5t-24.5 -55.5q0 -39 25 -56t61 -17z" />
    <glyph glyph-name="aacute" unicode="&#xe1;" horiz-adv-x="494" 
d="M339 632q-12 -8 -23 -17.5t-24.5 -24t-20.5 -21.5t-24.5 -27.5t-22.5 -25.5l-14 12q35 97 69 145q16 0 35.5 -14.5t24.5 -26.5zM398 88q0 -24 22 -28.5t53 13.5v-19q-17 -31 -66 -61q-32 0 -53 25t-21 58q-92 -83 -182 -83q-53 0 -84 29.5t-31 76.5q0 57 45 86t140 55
q59 16 81.5 25t30.5 26v13q0 63 -29.5 87t-100.5 24q-35 0 -47 -30q-21 -47 -32 -63t-28 -16q-33 0 -33 33q0 46 69.5 78t143.5 32q67 0 94.5 -36t27.5 -115v-210zM194 43q41 0 80 21.5t59 49.5v130l-112 -33q-64 -18 -88.5 -39.5t-24.5 -55.5q0 -39 25 -56t61 -17z" />
    <glyph glyph-name="acircumflex" unicode="&#xe2;" horiz-adv-x="494" 
d="M240 622l-123 -98l-11 7l134 155l134 -153l-11 -9zM398 88q0 -24 22 -28.5t53 13.5v-19q-17 -31 -66 -61q-32 0 -53 25t-21 58q-92 -83 -182 -83q-53 0 -84 29.5t-31 76.5q0 57 45 86t140 55q59 16 81.5 25t30.5 26v13q0 63 -29.5 87t-100.5 24q-35 0 -47 -30
q-21 -47 -32 -63t-28 -16q-33 0 -33 33q0 46 69.5 78t143.5 32q67 0 94.5 -36t27.5 -115v-210zM194 43q41 0 80 21.5t59 49.5v130l-112 -33q-64 -18 -88.5 -39.5t-24.5 -55.5q0 -39 25 -56t61 -17z" />
    <glyph glyph-name="atilde" unicode="&#xe3;" horiz-adv-x="494" 
d="M104 572h-15q-9 36 17.5 63t71.5 27q33 0 56.5 -17t43.5 -34.5t44 -17.5q28 0 42.5 12.5t14.5 27.5h15q9 -36 -17.5 -63.5t-70.5 -27.5q-27 0 -48.5 11t-33 23.5t-28.5 23.5t-35 11q-28 0 -42.5 -12t-14.5 -27zM398 88q0 -24 22 -28.5t53 13.5v-19q-17 -31 -66 -61
q-32 0 -53 25t-21 58q-92 -83 -182 -83q-53 0 -84 29.5t-31 76.5q0 57 45 86t140 55q59 16 81.5 25t30.5 26v13q0 63 -29.5 87t-100.5 24q-35 0 -47 -30q-21 -47 -32 -63t-28 -16q-33 0 -33 33q0 46 69.5 78t143.5 32q67 0 94.5 -36t27.5 -115v-210zM194 43q41 0 80 21.5
t59 49.5v130l-112 -33q-64 -18 -88.5 -39.5t-24.5 -55.5q0 -39 25 -56t61 -17z" />
    <glyph glyph-name="adieresis" unicode="&#xe4;" horiz-adv-x="494" 
d="M149 582q-17 0 -28 11t-11 28q0 18 11 29t28 11q18 0 29 -11t11 -29q0 -17 -11 -28t-29 -11zM329 582q-17 0 -28 11t-11 28q0 18 11 29t28 11q18 0 29 -11t11 -29q0 -17 -11 -28t-29 -11zM398 88q0 -24 22 -28.5t53 13.5v-19q-17 -31 -66 -61q-32 0 -53 25t-21 58
q-92 -83 -182 -83q-53 0 -84 29.5t-31 76.5q0 57 45 86t140 55q59 16 81.5 25t30.5 26v13q0 63 -29.5 87t-100.5 24q-35 0 -47 -30q-21 -47 -32 -63t-28 -16q-33 0 -33 33q0 46 69.5 78t143.5 32q67 0 94.5 -36t27.5 -115v-210zM194 43q41 0 80 21.5t59 49.5v130l-112 -33
q-64 -18 -88.5 -39.5t-24.5 -55.5q0 -39 25 -56t61 -17z" />
    <glyph glyph-name="aring" unicode="&#xe5;" horiz-adv-x="494" 
d="M240 539q-34 0 -58 24t-24 58t24 58t58 24t57.5 -24t23.5 -58t-23.5 -58t-57.5 -24zM240 674q-21 0 -36.5 -16t-15.5 -37t15.5 -37t36.5 -16t36 16t15 37t-15 37t-36 16zM398 88q0 -24 22 -28.5t53 13.5v-19q-17 -31 -66 -61q-32 0 -53 25t-21 58q-92 -83 -182 -83
q-53 0 -84 29.5t-31 76.5q0 57 45 86t140 55q59 16 81.5 25t30.5 26v13q0 63 -29.5 87t-100.5 24q-35 0 -47 -30q-21 -47 -32 -63t-28 -16q-33 0 -33 33q0 46 69.5 78t143.5 32q67 0 94.5 -36t27.5 -115v-210zM194 43q41 0 80 21.5t59 49.5v130l-112 -33
q-64 -18 -88.5 -39.5t-24.5 -55.5q0 -39 25 -56t61 -17z" />
    <glyph glyph-name="ae" unicode="&#xe6;" horiz-adv-x="768" 
d="M710 107l15 -8q-18 -52 -64 -80t-107 -28q-69 0 -124.5 34.5t-81.5 95.5l7 -24q-100 -104 -204 -104q-53 0 -84 29.5t-31 76.5q0 57 45 86t140 55q59 16 81.5 25t30.5 26v13q0 63 -29.5 87t-100.5 24q-35 0 -47 -30q-19 -46 -31 -62.5t-29 -16.5q-33 0 -33 33
q0 46 69.5 78t143.5 32q89 0 112 -69q61 69 159 69q66 0 111 -34t58.5 -78.5t-0.5 -83.5h-318v-8h-1q2 -86 53 -143t135 -57q87 0 125 62zM535 421q-51 0 -89.5 -37t-46.5 -103h254q7 49 -24.5 94.5t-93.5 45.5zM194 43q46 0 88.5 26t61.5 60q-15 39 -15 87q0 19 1 28
l-109 -33q-64 -18 -88.5 -39.5t-24.5 -55.5q0 -39 25 -56t61 -17z" />
    <glyph glyph-name="ccedilla" unicode="&#xe7;" horiz-adv-x="478" 
d="M437 102q-17 -51 -62 -80t-106 -31l-23 -46q44 0 70.5 -20t26.5 -53q0 -35 -34 -59.5t-112 -24.5l5 19q43 0 67 13.5t24 34.5q0 47 -106 47l46 91q-83 9 -137.5 69t-54.5 153q0 104 65.5 169t163.5 65q65 0 110.5 -28.5t45.5 -68.5q0 -21 -12 -31t-28 -10q-38 0 -57 65
q-14 47 -66 47q-56 0 -103.5 -45.5t-47.5 -132.5q0 -88 52 -144.5t132 -56.5q87 0 126 65z" />
    <glyph glyph-name="egrave" unicode="&#xe8;" horiz-adv-x="484" 
d="M249 516q-5 5 -22.5 25.5t-24.5 27.5t-20.5 21.5t-24.5 24t-23 17.5q6 12 26 26.5t35 14.5q34 -48 69 -145zM422 107l15 -8q-18 -52 -64 -80t-107 -28q-94 0 -159.5 62t-65.5 163t60.5 167t157.5 66q66 0 111 -34t58.5 -78.5t-0.5 -83.5h-319v-4q0 -87 51.5 -145.5
t136.5 -58.5q87 0 125 62zM247 421q-51 0 -89.5 -37t-46.5 -103h254q7 49 -24.5 94.5t-93.5 45.5z" />
    <glyph glyph-name="eacute" unicode="&#xe9;" horiz-adv-x="484" 
d="M345 632q-12 -8 -23 -17.5t-24.5 -24t-20.5 -21.5t-24.5 -27.5t-22.5 -25.5l-15 12q35 97 69 145q15 0 35 -14.5t26 -26.5zM422 107l15 -8q-18 -52 -64 -80t-107 -28q-94 0 -159.5 62t-65.5 163t60.5 167t157.5 66q66 0 111 -34t58.5 -78.5t-0.5 -83.5h-319v-4
q0 -87 51.5 -145.5t136.5 -58.5q87 0 125 62zM247 421q-51 0 -89.5 -37t-46.5 -103h254q7 49 -24.5 94.5t-93.5 45.5z" />
    <glyph glyph-name="ecircumflex" unicode="&#xea;" horiz-adv-x="484" 
d="M245 622l-122 -98l-12 7l134 155l135 -153l-12 -9zM422 107l15 -8q-18 -52 -64 -80t-107 -28q-94 0 -159.5 62t-65.5 163t60.5 167t157.5 66q66 0 111 -34t58.5 -78.5t-0.5 -83.5h-319v-4q0 -87 51.5 -145.5t136.5 -58.5q87 0 125 62zM247 421q-51 0 -89.5 -37
t-46.5 -103h254q7 49 -24.5 94.5t-93.5 45.5z" />
    <glyph glyph-name="edieresis" unicode="&#xeb;" horiz-adv-x="484" 
d="M154 582q-17 0 -28 11t-11 28q0 18 11 29t28 11q19 0 30 -11t11 -29q0 -17 -11 -28t-30 -11zM334 582q-17 0 -28 11t-11 28q0 18 11 29t28 11q19 0 30 -11t11 -29q0 -17 -11 -28t-30 -11zM422 107l15 -8q-18 -52 -64 -80t-107 -28q-94 0 -159.5 62t-65.5 163t60.5 167
t157.5 66q66 0 111 -34t58.5 -78.5t-0.5 -83.5h-319v-4q0 -87 51.5 -145.5t136.5 -58.5q87 0 125 62zM247 421q-51 0 -89.5 -37t-46.5 -103h254q7 49 -24.5 94.5t-93.5 45.5z" />
    <glyph glyph-name="igrave" unicode="&#xec;" horiz-adv-x="263" 
d="M132 516q-5 5 -22.5 25.5t-24.5 27.5t-20.5 21.5t-24.5 24t-23 17.5q6 12 26 26.5t35 14.5q30 -42 69 -145zM31 0v17q21 4 26.5 5t18.5 6.5t17 15t4 25.5v251q0 30 -12.5 44t-53.5 19v15q28 5 43 12t35 22.5t32 23.5l21 -19v-368q0 -16 4 -25.5t17 -15t18.5 -6.5t26.5 -5
v-17h-197z" />
    <glyph glyph-name="iacute" unicode="&#xed;" horiz-adv-x="263" 
d="M112 516l-14 12q35 97 69 145q15 0 35 -14.5t26 -26.5q-10 -7 -21 -16.5t-18 -15.5t-20.5 -20.5t-17 -19t-20.5 -23.5t-19 -21zM31 0v17q21 4 26.5 5t18.5 6.5t17 15t4 25.5v251q0 30 -12.5 44t-53.5 19v15q28 5 43 12t35 22.5t32 23.5l21 -19v-368q0 -16 4 -25.5t17 -15
t18.5 -6.5t26.5 -5v-17h-197z" />
    <glyph glyph-name="icircumflex" unicode="&#xee;" horiz-adv-x="263" 
d="M128 686l135 -153l-12 -9l-123 98l-122 -98l-12 7zM31 0v17q21 4 26.5 5t18.5 6.5t17 15t4 25.5v251q0 30 -12.5 44t-53.5 19v15q28 5 43 12t35 22.5t32 23.5l21 -19v-368q0 -16 4 -25.5t17 -15t18.5 -6.5t26.5 -5v-17h-197z" />
    <glyph glyph-name="idieresis" unicode="&#xef;" horiz-adv-x="263" 
d="M37 582q-17 0 -28 11t-11 28q0 18 11 29t28 11q18 0 29 -11t11 -29q0 -17 -11 -28t-29 -11zM217 582q-17 0 -28 11t-11 28q0 18 11 29t28 11q18 0 29 -11t11 -29q0 -17 -11 -28t-29 -11zM31 0v17q21 4 26.5 5t18.5 6.5t17 15t4 25.5v251q0 30 -12.5 44t-53.5 19v15
q28 5 43 12t35 22.5t32 23.5l21 -19v-368q0 -16 4 -25.5t17 -15t18.5 -6.5t26.5 -5v-17h-197z" />
    <glyph glyph-name="eth" unicode="&#xf0;" horiz-adv-x="549" 
d="M355 545q65 -55 103.5 -129.5t39.5 -158.5q0 -116 -65.5 -191t-170.5 -75q-90 0 -155.5 62t-65.5 164q0 105 69.5 168.5t162.5 63.5q58 0 102 -20q-28 58 -71 99q-91 -30 -169 -61v31q58 16 151 46q-76 64 -164 72l12 21q105 -6 201 -77q66 23 128 49v-31zM276 23
q38 0 65.5 15t42 35.5t22.5 52.5t10 57t2 57q0 81 -46.5 129t-110.5 48q-59 0 -101.5 -45.5t-42.5 -139.5t46 -151.5t113 -57.5z" />
    <glyph glyph-name="ntilde" unicode="&#xf1;" horiz-adv-x="551" 
d="M340 542q-34 0 -58 17t-44 34.5t-43 17.5q-28 0 -42.5 -12t-14.5 -27h-15q-9 36 17.5 63t71.5 27q33 0 56.5 -17t43.5 -34.5t44 -17.5q28 0 42.5 12t14.5 28h15q9 -36 -17 -63.5t-71 -27.5zM26 0v17q21 4 26.5 5t18.5 6.5t17 15t4 25.5v251q0 30 -12.5 44t-53.5 19v15
q32 5 54.5 13.5t35 17t36.5 27.5l20 -19l-22 -84h9q73 96 175 96q66 0 93 -40t27 -114v-226q0 -16 4 -25.5t17 -15t18.5 -6.5t26.5 -5v-17h-198v17q21 3 27.5 4.5t19 7t16.5 15t4 25.5v225q0 45 -22 73t-70 28q-79 0 -140 -74v-252q0 -13 4.5 -22t7.5 -13.5t16.5 -8.5
t17 -4.5t22.5 -3.5v-17h-199z" />
    <glyph glyph-name="ograve" unicode="&#xf2;" horiz-adv-x="548" 
d="M279 516q-5 5 -22.5 25.5t-24.5 27.5t-20.5 21.5t-24.5 24t-23 17.5q5 12 24.5 26.5t35.5 14.5q34 -48 69 -145zM266 -9q-90 0 -157.5 62.5t-67.5 163.5q0 105 71 168.5t165 63.5q90 0 157.5 -62.5t67.5 -163.5q0 -105 -71 -168.5t-165 -63.5zM278 20q59 0 103.5 47
t44.5 141t-47.5 153t-113.5 59q-59 0 -103.5 -47t-44.5 -141t47.5 -153t113.5 -59z" />
    <glyph glyph-name="oacute" unicode="&#xf3;" horiz-adv-x="548" 
d="M259 516l-15 12q39 103 69 145q16 0 36 -14.5t25 -26.5q-12 -8 -23 -17.5t-24.5 -24t-20.5 -21.5t-24.5 -27.5t-22.5 -25.5zM266 -9q-90 0 -157.5 62.5t-67.5 163.5q0 105 71 168.5t165 63.5q90 0 157.5 -62.5t67.5 -163.5q0 -105 -71 -168.5t-165 -63.5zM278 20
q59 0 103.5 47t44.5 141t-47.5 153t-113.5 59q-59 0 -103.5 -47t-44.5 -141t47.5 -153t113.5 -59z" />
    <glyph glyph-name="ocircumflex" unicode="&#xf4;" horiz-adv-x="548" 
d="M275 686l134 -153l-12 -9l-122 98l-123 -98l-12 7zM266 -9q-90 0 -157.5 62.5t-67.5 163.5q0 105 71 168.5t165 63.5q90 0 157.5 -62.5t67.5 -163.5q0 -105 -71 -168.5t-165 -63.5zM278 20q59 0 103.5 47t44.5 141t-47.5 153t-113.5 59q-59 0 -103.5 -47t-44.5 -141
t47.5 -153t113.5 -59z" />
    <glyph glyph-name="otilde" unicode="&#xf5;" horiz-adv-x="548" 
d="M341 542q-27 0 -48.5 11t-33.5 23.5t-29 23.5t-35 11q-28 0 -42.5 -12t-14.5 -27h-15q-9 36 18 63t72 27q26 0 46.5 -11t32 -23.5t29 -23.5t36.5 -11q28 0 42.5 12.5t14.5 27.5h15q9 -36 -17.5 -63.5t-70.5 -27.5zM266 -9q-90 0 -157.5 62.5t-67.5 163.5q0 105 71 168.5
t165 63.5q90 0 157.5 -62.5t67.5 -163.5q0 -105 -71 -168.5t-165 -63.5zM278 20q59 0 103.5 47t44.5 141t-47.5 153t-113.5 59q-59 0 -103.5 -47t-44.5 -141t47.5 -153t113.5 -59z" />
    <glyph glyph-name="odieresis" unicode="&#xf6;" horiz-adv-x="548" 
d="M184 582q-17 0 -28 11t-11 28q0 18 11 29t28 11q18 0 29 -11t11 -29q0 -17 -11 -28t-29 -11zM364 582q-17 0 -28 11t-11 28q0 18 11 29t28 11q18 0 29 -11t11 -29q0 -17 -11 -28t-29 -11zM266 -9q-90 0 -157.5 62.5t-67.5 163.5q0 105 71 168.5t165 63.5
q90 0 157.5 -62.5t67.5 -163.5q0 -105 -71 -168.5t-165 -63.5zM278 20q59 0 103.5 47t44.5 141t-47.5 153t-113.5 59q-59 0 -103.5 -47t-44.5 -141t47.5 -153t113.5 -59z" />
    <glyph glyph-name="divide" unicode="&#xf7;" horiz-adv-x="512" 
d="M258 373q-11 0 -20.5 9.5t-9.5 22.5q0 12 9.5 21.5t20.5 9.5t20.5 -9.5t9.5 -21.5q0 -13 -9.5 -22.5t-20.5 -9.5zM71 234v35h370v-35h-370zM258 67q-11 0 -20.5 9.5t-9.5 22.5q0 12 9.5 21.5t20.5 9.5t20.5 -9.5t9.5 -21.5q0 -13 -9.5 -22.5t-20.5 -9.5z" />
    <glyph glyph-name="oslash" unicode="&#xf8;" horiz-adv-x="543" 
d="M405 411q97 -65 97 -188q0 -105 -71 -168.5t-165 -63.5q-57 0 -107 26l-42 -68l-18 15l40 65q-98 65 -98 188q0 105 71 168.5t165 63.5q59 0 108 -27l43 70l18 -15zM117 232q0 -96 51 -157l191 307q-43 38 -94 38q-59 0 -103.5 -47t-44.5 -141zM278 20q59 0 103.5 47
t44.5 141t-50 156l-191 -306q41 -38 93 -38z" />
    <glyph glyph-name="ugrave" unicode="&#xf9;" horiz-adv-x="552" 
d="M287 516q-5 5 -22.5 25.5t-24.5 27.5t-20.5 21.5t-24.5 24t-23 17.5q6 12 26 26.5t35 14.5q30 -42 69 -145zM215 -9q-128 0 -128 154v231q0 18 -8.5 27.5t-19 12.5t-33.5 7v17q72 -4 126 6v-298q0 -100 91 -100q79 0 148 56v272q0 18 -8.5 27.5t-19 12.5t-33.5 7v17
q72 -4 126 6v-363q0 -30 12.5 -44.5t53.5 -21.5v-17h-127l6 77h-11q-88 -86 -175 -86z" />
    <glyph glyph-name="uacute" unicode="&#xfa;" horiz-adv-x="552" 
d="M267 516l-14 12q35 97 69 145q15 0 35 -14.5t26 -26.5q-10 -7 -21 -16.5t-18 -15.5t-20.5 -20.5t-17 -19t-20.5 -23.5t-19 -21zM215 -9q-128 0 -128 154v231q0 18 -8.5 27.5t-19 12.5t-33.5 7v17q72 -4 126 6v-298q0 -100 91 -100q79 0 148 56v272q0 18 -8.5 27.5
t-19 12.5t-33.5 7v17q72 -4 126 6v-363q0 -30 12.5 -44.5t53.5 -21.5v-17h-127l6 77h-11q-88 -86 -175 -86z" />
    <glyph glyph-name="ucircumflex" unicode="&#xfb;" horiz-adv-x="552" 
d="M283 686l135 -153l-12 -9l-123 98l-122 -98l-12 7zM215 -9q-128 0 -128 154v231q0 18 -8.5 27.5t-19 12.5t-33.5 7v17q72 -4 126 6v-298q0 -100 91 -100q79 0 148 56v272q0 18 -8.5 27.5t-19 12.5t-33.5 7v17q72 -4 126 6v-363q0 -30 12.5 -44.5t53.5 -21.5v-17h-127
l6 77h-11q-88 -86 -175 -86z" />
    <glyph glyph-name="udieresis" unicode="&#xfc;" horiz-adv-x="552" 
d="M192 582q-17 0 -28 11t-11 28q0 18 11 29t28 11q18 0 29 -11t11 -29q0 -17 -11 -28t-29 -11zM372 582q-17 0 -28 11t-11 28q0 18 11 29t28 11q18 0 29 -11t11 -29q0 -17 -11 -28t-29 -11zM215 -9q-128 0 -128 154v231q0 18 -8.5 27.5t-19 12.5t-33.5 7v17q72 -4 126 6
v-298q0 -100 91 -100q79 0 148 56v272q0 18 -8.5 27.5t-19 12.5t-33.5 7v17q72 -4 126 6v-363q0 -30 12.5 -44.5t53.5 -21.5v-17h-127l6 77h-11q-88 -86 -175 -86z" />
    <glyph glyph-name="yacute" unicode="&#xfd;" horiz-adv-x="502" 
d="M353 632q-12 -8 -23 -17.5t-24.5 -24t-20.5 -21.5t-24.5 -27.5t-22.5 -25.5l-15 12q39 103 69 145q16 0 36 -14.5t25 -26.5zM331 440h155v-17q-33 -4 -44 -11t-23 -35l-181 -424l-13.5 -33t-17 -33.5t-23.5 -34.5t-28 -22.5t-36 -10.5q-31 0 -62 23v51q124 -5 150 60
l26 61l-156 364q-11 27 -22.5 34t-44.5 11v17h193v-17q-47 -7 -55 -18q-8 -10 -1 -27l119 -287l122 286q3 14 3.5 21.5t-10 12.5t-19.5 7t-24 4q-5 1 -8 1v17z" />
    <glyph glyph-name="thorn" unicode="&#xfe;" horiz-adv-x="527" 
d="M314 449q72 0 122 -57t50 -152q0 -111 -67.5 -180t-164.5 -69q-60 0 -107 33v-127q0 -32 16.5 -41t63.5 -14v-17h-214v17q21 3 29 4.5t19 7t14.5 16t3.5 27.5v244h1q-1 6 -1 18v380q0 52 -73 63v15q71 15 121 57l20 -19v-304q25 41 70.5 69.5t96.5 28.5zM256 21
q61 0 113.5 44.5t52.5 134.5q0 84 -45.5 138t-110.5 54q-40 0 -71.5 -21.5t-47.5 -50.5v-173q0 -53 27 -89.5t82 -36.5z" />
    <glyph glyph-name="ydieresis" unicode="&#xff;" horiz-adv-x="502" 
d="M163 582q-17 0 -28 11t-11 28q0 18 11 29t28 11q18 0 29 -11t11 -29q0 -17 -11 -28t-29 -11zM343 582q-17 0 -28 11t-11 28q0 18 11 29t28 11q18 0 29 -11t11 -29q0 -17 -11 -28t-29 -11zM331 440h155v-17q-33 -4 -44 -11t-23 -35l-181 -424l-13.5 -33t-17 -33.5
t-23.5 -34.5t-28 -22.5t-36 -10.5q-31 0 -62 23v51q124 -5 150 60l26 61l-156 364q-11 27 -22.5 34t-44.5 11v17h193v-17q-47 -7 -55 -18q-8 -10 -1 -27l119 -287l122 286q3 14 3.5 21.5t-10 12.5t-19.5 7t-24 4q-5 1 -8 1v17z" />
    <glyph glyph-name="Amacron" unicode="&#x100;" 
d="M499 827l-15 -30h-280l15 30h280zM607 75q14 -33 27 -41.5t54 -16.5v-17h-231v17l17.5 3.5t17.5 4t14 4.5t11.5 6.5t5.5 9t1.5 13t-5.5 17.5l-57 132h-274l-55 -134q-4 -9 -5 -16.5t2 -12.5t5.5 -8.5t11 -6.5t13 -4.5t17 -4l17.5 -3.5v-17h-183v17q50 10 61 17
q13 10 24 38l234 565h34zM200 236h250l-128 297z" />
    <glyph glyph-name="amacron" unicode="&#x101;" horiz-adv-x="494" 
d="M388 637l-15 -30h-280l15 30h280zM398 88q0 -24 22 -28.5t53 13.5v-19q-17 -31 -66 -61q-32 0 -53 25t-21 58q-92 -83 -182 -83q-53 0 -84 29.5t-31 76.5q0 57 45 86t140 55q59 16 81.5 25t30.5 26v13q0 63 -29.5 87t-100.5 24q-35 0 -47 -30q-21 -47 -32 -63t-28 -16
q-33 0 -33 33q0 46 69.5 78t143.5 32q67 0 94.5 -36t27.5 -115v-210zM194 43q41 0 80 21.5t59 49.5v130l-112 -33q-64 -18 -88.5 -39.5t-24.5 -55.5q0 -39 25 -56t61 -17z" />
    <glyph glyph-name="Abreve" unicode="&#x102;" 
d="M351 749q-63 0 -94 34t-31 86h17q12 -65 108 -65q97 0 107 65h17q0 -52 -30.5 -86t-93.5 -34zM607 75q14 -33 27 -41.5t54 -16.5v-17h-231v17l17.5 3.5t17.5 4t14 4.5t11.5 6.5t5.5 9t1.5 13t-5.5 17.5l-57 132h-274l-55 -134q-4 -9 -5 -16.5t2 -12.5t5.5 -8.5t11 -6.5
t13 -4.5t17 -4l17.5 -3.5v-17h-183v17q50 10 61 17q13 10 24 38l234 565h34zM200 236h250l-128 297z" />
    <glyph glyph-name="abreve" unicode="&#x103;" horiz-adv-x="494" 
d="M240 559q-63 0 -94 34t-31 86h17q12 -65 108 -65q97 0 107 65h17q0 -52 -30.5 -86t-93.5 -34zM398 88q0 -24 22 -28.5t53 13.5v-19q-17 -31 -66 -61q-32 0 -53 25t-21 58q-92 -83 -182 -83q-53 0 -84 29.5t-31 76.5q0 57 45 86t140 55q59 16 81.5 25t30.5 26v13
q0 63 -29.5 87t-100.5 24q-35 0 -47 -30q-21 -47 -32 -63t-28 -16q-33 0 -33 33q0 46 69.5 78t143.5 32q67 0 94.5 -36t27.5 -115v-210zM194 43q41 0 80 21.5t59 49.5v130l-112 -33q-64 -18 -88.5 -39.5t-24.5 -55.5q0 -39 25 -56t61 -17z" />
    <glyph glyph-name="Aogonek" unicode="&#x104;" 
d="M611 0q-39 -24 -57.5 -45.5t-18.5 -50.5q0 -26 14.5 -40t36.5 -14q20 0 54 13v-16q-34 -36 -85 -36q-40 0 -65 20t-25 61q0 30 22 61l71 47h-101v17l17.5 3.5t17.5 4t14 4.5t11.5 6.5t5.5 9t1.5 13t-5.5 17.5l-57 132h-274l-55 -134q-4 -9 -5 -16.5t2 -12.5t5.5 -8.5
t11 -6.5t13 -4.5t17 -4l17.5 -3.5v-17h-183v17q50 10 61 17q13 10 24 38l234 565h34l243 -562q10 -22 17 -31l4 3v-8q12 -13 60 -22v-17h-77zM200 236h250l-128 297z" />
    <glyph glyph-name="aogonek" unicode="&#x105;" horiz-adv-x="494" 
d="M398 88q0 -24 22 -28.5t53 13.5v-19q-17 -31 -66 -61q-9 0 -13 1q-58 -39 -58 -84q0 -26 14.5 -40t36.5 -14q20 0 54 13v-16q-34 -36 -85 -36q-40 0 -65 20t-25 61q0 30 22 61l75 50q-30 25 -30 67q-92 -83 -182 -83q-53 0 -84 29.5t-31 76.5q0 57 45 86t140 55
q59 16 81.5 25t30.5 26v13q0 63 -29.5 87t-100.5 24q-35 0 -47 -30q-21 -47 -32 -63t-28 -16q-33 0 -33 33q0 46 69.5 78t143.5 32q67 0 94.5 -36t27.5 -115v-210zM194 43q41 0 80 21.5t59 49.5v130l-112 -33q-64 -18 -88.5 -39.5t-24.5 -55.5q0 -39 25 -56t61 -17z" />
    <glyph glyph-name="Cacute" unicode="&#x106;" horiz-adv-x="653" 
d="M348 706l-14 12q35 97 69 145q15 0 35 -14.5t26 -26.5q-10 -7 -21 -16.5t-18 -15.5t-20.5 -20.5t-17 -19t-20.5 -23.5t-19 -21zM383 -12q-144 0 -238 92t-94 240q0 141 92.5 233.5t248.5 92.5q117 0 194 -46q4 -91 7 -135h-30q-17 76 -68 113t-123 37q-104 0 -168 -70
t-64 -202q0 -139 81.5 -225.5t197.5 -86.5q44 0 91.5 13t74.5 42l17 -17q-32 -35 -90 -58t-129 -23z" />
    <glyph glyph-name="cacute" unicode="&#x107;" horiz-adv-x="478" 
d="M239 516l-15 12q35 97 69 145q15 0 35 -14.5t26 -26.5q-12 -8 -23 -17.5t-24.5 -24t-20.5 -21.5t-24.5 -27.5t-22.5 -25.5zM262 -9q-93 0 -157 61.5t-64 162.5q0 104 65.5 169t163.5 65q65 0 110.5 -28.5t45.5 -68.5q0 -21 -12 -31t-28 -10q-38 0 -57 65q-14 47 -66 47
q-56 0 -103.5 -45.5t-47.5 -132.5q0 -88 52 -144.5t132 -56.5q87 0 126 65l15 -7q-18 -53 -65 -82t-110 -29z" />
    <glyph glyph-name="Cdotaccent" unicode="&#x10a;" horiz-adv-x="653" 
d="M364 763q-17 0 -30.5 12.5t-13.5 29.5q0 18 13.5 31t30.5 13q18 0 31.5 -13t13.5 -31q0 -17 -13.5 -29.5t-31.5 -12.5zM383 -12q-144 0 -238 92t-94 240q0 141 92.5 233.5t248.5 92.5q117 0 194 -46q4 -91 7 -135h-30q-17 76 -68 113t-123 37q-104 0 -168 -70t-64 -202
q0 -139 81.5 -225.5t197.5 -86.5q44 0 91.5 13t74.5 42l17 -17q-32 -35 -90 -58t-129 -23z" />
    <glyph glyph-name="cdotaccent" unicode="&#x10b;" horiz-adv-x="478" 
d="M254 573q-18 0 -31 12.5t-13 29.5q0 18 13 31t31 13t31 -13t13 -31q0 -17 -13 -29.5t-31 -12.5zM262 -9q-93 0 -157 61.5t-64 162.5q0 104 65.5 169t163.5 65q65 0 110.5 -28.5t45.5 -68.5q0 -21 -12 -31t-28 -10q-38 0 -57 65q-14 47 -66 47q-56 0 -103.5 -45.5
t-47.5 -132.5q0 -88 52 -144.5t132 -56.5q87 0 126 65l15 -7q-18 -53 -65 -82t-110 -29z" />
    <glyph glyph-name="Ccaron" unicode="&#x10c;" horiz-adv-x="653" 
d="M362 715l-134 155l12 7l122 -98l123 98l12 -8zM383 -12q-144 0 -238 92t-94 240q0 141 92.5 233.5t248.5 92.5q117 0 194 -46q4 -91 7 -135h-30q-17 76 -68 113t-123 37q-104 0 -168 -70t-64 -202q0 -139 81.5 -225.5t197.5 -86.5q44 0 91.5 13t74.5 42l17 -17
q-32 -35 -90 -58t-129 -23z" />
    <glyph glyph-name="ccaron" unicode="&#x10d;" horiz-adv-x="478" 
d="M252 525l-134 155l11 7l123 -98l123 98l11 -8zM262 -9q-93 0 -157 61.5t-64 162.5q0 104 65.5 169t163.5 65q65 0 110.5 -28.5t45.5 -68.5q0 -21 -12 -31t-28 -10q-38 0 -57 65q-14 47 -66 47q-56 0 -103.5 -45.5t-47.5 -132.5q0 -88 52 -144.5t132 -56.5q87 0 126 65
l15 -7q-18 -53 -65 -82t-110 -29z" />
    <glyph glyph-name="Dcaron" unicode="&#x10e;" horiz-adv-x="667" 
d="M467 869l-135 -154l-134 155l12 7l122 -98l123 98zM260 630q74 0 136.5 -17.5t112.5 -53.5t78.5 -97.5t28.5 -142.5q0 -110 -49.5 -183.5t-127 -104.5t-179.5 -31h-229v17q51 10 64 20q19 16 19 59v438q0 23 -3.5 37t-17.5 22.5t-20.5 10.5t-33.5 7q-5 1 -8 2v17h229z
M288 32q127 0 184 70.5t57 206.5q0 138 -64 213.5t-215 75.5h-59v-470q0 -53 20.5 -74.5t76.5 -21.5z" />
    <glyph glyph-name="dcaron" unicode="&#x10f;" horiz-adv-x="506" 
d="M447 83q0 -30 12.5 -44.5t53.5 -21.5v-17h-127l8 91h-11q-63 -100 -163 -100q-75 0 -127 57.5t-52 152.5q0 107 71 177.5t168 70.5q58 0 102 -30v133q0 29 -16 43.5t-59 19.5v15q71 15 120 57l20 -19v-585zM512 495l-19 -2q-2 14 -4.5 42t-4.5 43t-6 36.5t-10 38.5
q11 9 35.5 9t37.5 -10q0 -60 -29 -157zM261 46q49 0 79.5 30t41.5 70v183q0 35 -29.5 63.5t-82.5 28.5q-67 0 -115.5 -47t-48.5 -135t45.5 -140.5t109.5 -52.5z" />
    <glyph glyph-name="Dcroat" unicode="&#x110;" horiz-adv-x="676" 
d="M269 630q74 0 136.5 -17.5t112.5 -53.5t78.5 -97.5t28.5 -142.5q0 -110 -49.5 -183.5t-127 -104.5t-179.5 -31h-229v17q51 10 64 20q19 16 19 59v202l-94 -3l10 32q56 -2 84 -2v209q0 23 -3.5 37t-17.5 22.5t-20.5 10.5t-33.5 7q-5 1 -8 2v17h229zM297 32q127 0 184 70.5
t57 206.5q0 138 -64 213.5t-215 75.5h-59v-274q64 0 129 3l-10 -32q-60 3 -119 3v-170q0 -53 20.5 -74.5t76.5 -21.5z" />
    <glyph glyph-name="dcroat" unicode="&#x111;" horiz-adv-x="540" 
d="M447 83q0 -30 12.5 -44.5t53.5 -21.5v-17h-127l8 91h-11q-63 -100 -163 -100q-75 0 -127 57.5t-52 152.5q0 107 71 177.5t168 70.5q58 0 102 -30v75q-89 0 -180 -3l10 32q85 -3 170 -3v32q0 29 -16 43.5t-59 19.5v15q71 15 120 57l20 -19v-147q9 1 27.5 1t27.5 1l-10 -32
q-8 1 -23 1t-22 1v-410zM261 46q49 0 79.5 30t41.5 70v183q0 35 -29.5 63.5t-82.5 28.5q-67 0 -115.5 -47t-48.5 -135t45.5 -140.5t109.5 -52.5z" />
    <glyph glyph-name="Emacron" unicode="&#x112;" horiz-adv-x="576" 
d="M437 827l-15 -30h-280l15 30h280zM518 145h22l-41 -145h-468v17q51 10 64 20q19 16 19 59v438q0 23 -3.5 37t-17.5 22.5t-20.5 10.5t-33.5 7q-5 1 -8 2v17h466l9 -137h-22q-7 57 -27 81.5t-71 24.5h-101q-59 0 -76.5 -13t-17.5 -63v-190h89q86 0 110 17t29 67h16v-198
h-16q-5 50 -29 67t-110 17h-89v-196q0 -50 17.5 -63t76.5 -13h80q59 0 92 24.5t61 89.5z" />
    <glyph glyph-name="emacron" unicode="&#x113;" horiz-adv-x="484" 
d="M393 637l-15 -30h-280l15 30h280zM422 107l15 -8q-18 -52 -64 -80t-107 -28q-94 0 -159.5 62t-65.5 163t60.5 167t157.5 66q66 0 111 -34t58.5 -78.5t-0.5 -83.5h-319v-4q0 -87 51.5 -145.5t136.5 -58.5q87 0 125 62zM247 421q-51 0 -89.5 -37t-46.5 -103h254
q7 49 -24.5 94.5t-93.5 45.5z" />
    <glyph glyph-name="Edotaccent" unicode="&#x116;" horiz-adv-x="576" 
d="M289 763q-17 0 -30.5 12.5t-13.5 29.5q0 18 13.5 31t30.5 13q18 0 31.5 -13t13.5 -31q0 -17 -13.5 -29.5t-31.5 -12.5zM518 145h22l-41 -145h-468v17q51 10 64 20q19 16 19 59v438q0 23 -3.5 37t-17.5 22.5t-20.5 10.5t-33.5 7q-5 1 -8 2v17h466l9 -137h-22
q-7 57 -27 81.5t-71 24.5h-101q-59 0 -76.5 -13t-17.5 -63v-190h89q86 0 110 17t29 67h16v-198h-16q-5 50 -29 67t-110 17h-89v-196q0 -50 17.5 -63t76.5 -13h80q59 0 92 24.5t61 89.5z" />
    <glyph glyph-name="edotaccent" unicode="&#x117;" horiz-adv-x="484" 
d="M245 573q-18 0 -31 12.5t-13 29.5q0 18 13 31t31 13t31 -13t13 -31q0 -17 -13 -29.5t-31 -12.5zM422 107l15 -8q-18 -52 -64 -80t-107 -28q-94 0 -159.5 62t-65.5 163t60.5 167t157.5 66q66 0 111 -34t58.5 -78.5t-0.5 -83.5h-319v-4q0 -87 51.5 -145.5t136.5 -58.5
q87 0 125 62zM247 421q-51 0 -89.5 -37t-46.5 -103h254q7 49 -24.5 94.5t-93.5 45.5z" />
    <glyph glyph-name="Eogonek" unicode="&#x118;" horiz-adv-x="576" 
d="M465 0q-49 -28 -71 -50.5t-22 -55.5q0 -26 14.5 -40t36.5 -14q20 0 54 13v-16q-34 -36 -85 -36q-40 0 -65 20t-25 61q0 30 22 61l86 57h-379v17q51 10 64 20q19 16 19 59v438q0 23 -3.5 37t-17.5 22.5t-20.5 10.5t-33.5 7q-5 1 -8 2v17h466l9 -137h-22q-7 57 -27 81.5
t-71 24.5h-101q-59 0 -76.5 -13t-17.5 -63v-190h89q86 0 110 17t29 67h16v-198h-16q-5 50 -29 67t-110 17h-89v-196q0 -50 17.5 -63t76.5 -13h80q59 0 92 24.5t61 89.5h22l-41 -145h-34z" />
    <glyph glyph-name="eogonek" unicode="&#x119;" horiz-adv-x="484" 
d="M330 0q-49 -28 -71 -50.5t-22 -55.5q0 -26 14.5 -40t37.5 -14q19 0 53 13v-16q-34 -36 -84 -36q-40 0 -65.5 20t-25.5 61q0 30 22 61l72 48q-93 2 -156.5 64t-63.5 161q0 101 60.5 167t157.5 66q66 0 111 -34t58.5 -78.5t-0.5 -83.5h-319v-4q0 -87 51.5 -145.5
t136.5 -58.5q87 0 125 62l15 -8q-25 -74 -107 -99zM247 421q-51 0 -89.5 -37t-46.5 -103h254q7 49 -24.5 94.5t-93.5 45.5z" />
    <glyph glyph-name="Ecaron" unicode="&#x11a;" horiz-adv-x="576" 
d="M422 869l-135 -154l-134 155l12 7l122 -98l123 98zM518 145h22l-41 -145h-468v17q51 10 64 20q19 16 19 59v438q0 23 -3.5 37t-17.5 22.5t-20.5 10.5t-33.5 7q-5 1 -8 2v17h466l9 -137h-22q-7 57 -27 81.5t-71 24.5h-101q-59 0 -76.5 -13t-17.5 -63v-190h89q86 0 110 17
t29 67h16v-198h-16q-5 50 -29 67t-110 17h-89v-196q0 -50 17.5 -63t76.5 -13h80q59 0 92 24.5t61 89.5z" />
    <glyph glyph-name="ecaron" unicode="&#x11b;" horiz-adv-x="484" 
d="M377 679l-134 -154l-134 155l11 7l123 -98l123 98zM422 107l15 -8q-18 -52 -64 -80t-107 -28q-94 0 -159.5 62t-65.5 163t60.5 167t157.5 66q66 0 111 -34t58.5 -78.5t-0.5 -83.5h-319v-4q0 -87 51.5 -145.5t136.5 -58.5q87 0 125 62zM247 421q-51 0 -89.5 -37
t-46.5 -103h254q7 49 -24.5 94.5t-93.5 45.5z" />
    <glyph glyph-name="Gbreve" unicode="&#x11e;" horiz-adv-x="721" 
d="M362 749q-63 0 -94 34t-31 86h17q12 -65 108 -65q97 0 107 65h17q0 -52 -30.5 -86t-93.5 -34zM418 -12q-173 0 -270 92.5t-97 239.5q0 141 93 233.5t249 92.5q122 0 199 -46q4 -91 7 -135h-30q-17 76 -67.5 113t-122.5 37q-107 0 -173 -73.5t-66 -196.5q0 -143 81 -234.5
t222 -91.5q52 0 69.5 22t17.5 79v56q0 67 -21.5 87t-88.5 25v21h255v-21q-41 -5 -57 -19.5t-16 -52.5v-78q0 -24 3 -43.5t6.5 -33t4.5 -18.5q-19 -22 -75 -38.5t-123 -16.5z" />
    <glyph glyph-name="gbreve" unicode="&#x11f;" horiz-adv-x="490" 
d="M251 559q-63 0 -94 34t-31 86h17q12 -65 108 -65t108 65h17q0 -52 -31 -86t-94 -34zM445 429v-41l-86 11q37 -39 37 -92q0 -62 -47.5 -101t-119.5 -40h-53q-17 0 -28.5 -11.5t-11.5 -29.5q0 -43 44 -48l115 -11q87 -8 117 -22.5t30 -57.5q0 -75 -71 -123.5t-173 -50.5
q-85 -1 -128.5 32t-43.5 84q0 19 30 47.5t69 50.5q-60 22 -60 69q0 14 28.5 44t50.5 43q-40 18 -63 50.5t-23 74.5q0 63 48.5 102.5t120.5 39.5q36 0 69 -11q25 -9 149 -9zM227 190q28 0 48 11.5t29.5 31t13.5 37.5t4 37t-4 37.5t-13.5 38t-29.5 31.5t-48 12
q-52 0 -73.5 -37.5t-21.5 -81.5t21.5 -80.5t73.5 -36.5zM287 4l-100 9q-43 4 -66.5 -21t-23.5 -60q0 -33 27 -60.5t96 -27.5q80 0 117 34t37 78q0 28 -18.5 36t-68.5 12z" />
    <glyph glyph-name="Gdotaccent" unicode="&#x120;" horiz-adv-x="721" 
d="M361 763q-17 0 -30.5 12.5t-13.5 29.5q0 18 13.5 31t30.5 13q18 0 31.5 -13t13.5 -31q0 -17 -13.5 -29.5t-31.5 -12.5zM418 -12q-173 0 -270 92.5t-97 239.5q0 141 93 233.5t249 92.5q122 0 199 -46q4 -91 7 -135h-30q-17 76 -67.5 113t-122.5 37q-107 0 -173 -73.5
t-66 -196.5q0 -143 81 -234.5t222 -91.5q52 0 69.5 22t17.5 79v56q0 67 -21.5 87t-88.5 25v21h255v-21q-41 -5 -57 -19.5t-16 -52.5v-78q0 -24 3 -43.5t6.5 -33t4.5 -18.5q-19 -22 -75 -38.5t-123 -16.5z" />
    <glyph glyph-name="gdotaccent" unicode="&#x121;" horiz-adv-x="490" 
d="M251 573q-17 0 -30.5 12.5t-13.5 29.5q0 18 13.5 31t30.5 13q18 0 31.5 -13t13.5 -31q0 -17 -13.5 -29.5t-31.5 -12.5zM445 429v-41l-86 11q37 -39 37 -92q0 -62 -47.5 -101t-119.5 -40h-53q-17 0 -28.5 -11.5t-11.5 -29.5q0 -43 44 -48l115 -11q87 -8 117 -22.5
t30 -57.5q0 -75 -71 -123.5t-173 -50.5q-85 -1 -128.5 32t-43.5 84q0 19 30 47.5t69 50.5q-60 22 -60 69q0 14 28.5 44t50.5 43q-40 18 -63 50.5t-23 74.5q0 63 48.5 102.5t120.5 39.5q36 0 69 -11q25 -9 149 -9zM227 190q28 0 48 11.5t29.5 31t13.5 37.5t4 37t-4 37.5
t-13.5 38t-29.5 31.5t-48 12q-52 0 -73.5 -37.5t-21.5 -81.5t21.5 -80.5t73.5 -36.5zM287 4l-100 9q-43 4 -66.5 -21t-23.5 -60q0 -33 27 -60.5t96 -27.5q80 0 117 34t37 78q0 28 -18.5 36t-68.5 12z" />
    <glyph glyph-name="uni0122" unicode="&#x122;" horiz-adv-x="721" 
d="M418 -12q-173 0 -270 92.5t-97 239.5q0 141 93 233.5t249 92.5q122 0 199 -46q4 -91 7 -135h-30q-17 76 -67.5 113t-122.5 37q-107 0 -173 -73.5t-66 -196.5q0 -143 81 -234.5t222 -91.5q52 0 69.5 22t17.5 79v56q0 67 -21.5 87t-88.5 25v21h255v-21q-41 -5 -57 -19.5
t-16 -52.5v-78q0 -24 3 -43.5t6.5 -33t4.5 -18.5q-19 -22 -75 -38.5t-123 -16.5zM300 -288l-9 15q32 15 52.5 39t24.5 46q1 5 1.5 9.5t-1 7.5t-3 5t-5 3.5t-5.5 2.5t-6 2.5t-5 1.5q-29 18 -29 48q0 22 15 36t36 14q25 0 43 -19t18 -53q0 -45 -32.5 -90.5t-94.5 -67.5z" />
    <glyph glyph-name="uni0123" unicode="&#x123;" horiz-adv-x="486" 
d="M198 559q-25 0 -43 19.5t-18 53.5q0 45 32.5 90.5t94.5 66.5l9 -15q-33 -15 -53 -39t-23 -46q-3 -6 -1.5 -10.5t2 -7.5t4.5 -5.5t6 -3.5t6 -2.5t6 -2.5q29 -17 29 -47q0 -23 -15 -37t-36 -14zM445 429v-41l-86 11q37 -39 37 -92q0 -62 -47.5 -101t-119.5 -40h-53
q-17 0 -28.5 -11.5t-11.5 -29.5q0 -43 44 -48l115 -11q87 -8 117 -22.5t30 -57.5q0 -75 -71 -123.5t-173 -50.5q-85 -1 -128.5 32t-43.5 84q0 19 30 47.5t69 50.5q-60 22 -60 69q0 14 28.5 44t50.5 43q-40 18 -63 50.5t-23 74.5q0 63 48.5 102.5t120.5 39.5q36 0 69 -11
q25 -9 149 -9zM227 190q28 0 48 11.5t29.5 31t13.5 37.5t4 37t-4 37.5t-13.5 38t-29.5 31.5t-48 12q-52 0 -73.5 -37.5t-21.5 -81.5t21.5 -80.5t73.5 -36.5zM287 4l-100 9q-43 4 -66.5 -21t-23.5 -60q0 -33 27 -60.5t96 -27.5q80 0 117 34t37 78q0 28 -18.5 36t-68.5 12z
" />
    <glyph glyph-name="Hbar" unicode="&#x126;" horiz-adv-x="686" 
d="M655 613q-51 -10 -64 -20q-19 -16 -19 -59v-438q0 -23 3.5 -37t17.5 -22.5t20.5 -10.5t33.5 -7q5 -1 8 -2v-17h-243v17q51 10 64 20q19 16 19 59v206h-304v-206q0 -23 3.5 -37t17.5 -22.5t20.5 -10.5t33.5 -7q5 -1 8 -2v-17h-243v17q51 10 64 20q19 16 19 59v315h-16v29
h16v94q0 23 -3.5 37t-17.5 22.5t-20.5 10.5t-33.5 7q-5 1 -8 2v17h243v-17q-51 -10 -64 -20q-19 -16 -19 -59v-94h304v94q0 23 -3.5 37t-17.5 22.5t-20.5 10.5t-33.5 7q-5 1 -8 2v17h243v-17zM191 331h304v80h-304v-80z" />
    <glyph glyph-name="hbar" unicode="&#x127;" horiz-adv-x="575" 
d="M483 69q0 -16 4 -25.5t16.5 -15t18.5 -7t27 -4.5v-17h-199v17q45 7 56 17q12 12 12 35v227q0 44 -22 71.5t-69 27.5q-82 0 -142 -74v-252q0 -13 4.5 -22t7.5 -13.5t16.5 -8.5t17 -4.5t22.5 -3.5v-17h-206v17q2 0 12 2t13.5 2.5t12 3t12 4.5t9 6t8 8.5t4.5 11t2 14.5v425
l-89 -3l10 32q52 -2 79 -2v31q0 53 -73 63v15q70 15 118 57l20 -19v-148q73 0 146 3l-10 -32q-68 3 -136 3v-141h2q31 43 77 69.5t98 26.5q67 0 94 -40t27 -114v-226z" />
    <glyph glyph-name="Imacron" unicode="&#x12a;" horiz-adv-x="305" 
d="M7 797l15 30h280l-15 -30h-280zM31 0v17q51 10 64 20q19 16 19 59v438q0 23 -3.5 37t-17.5 22.5t-20.5 10.5t-33.5 7q-5 1 -8 2v17h243v-17q-51 -10 -64 -20q-19 -16 -19 -59v-438q0 -23 3.5 -37t17.5 -22.5t20.5 -10.5t33.5 -7q5 -1 8 -2v-17h-243z" />
    <glyph glyph-name="imacron" unicode="&#x12b;" horiz-adv-x="263" 
d="M-19 607l15 30h280l-15 -30h-280zM31 0v17q21 4 26.5 5t18.5 6.5t17 15t4 25.5v251q0 30 -12.5 44t-53.5 19v15q28 5 43 12t35 22.5t32 23.5l21 -19v-368q0 -16 4 -25.5t17 -15t18.5 -6.5t26.5 -5v-17h-197z" />
    <glyph glyph-name="Iogonek" unicode="&#x12e;" horiz-adv-x="305" 
d="M274 613q-51 -10 -64 -20q-19 -16 -19 -59v-438q0 -23 3.5 -37t17.5 -22.5t20.5 -10.5t33.5 -7q5 -1 8 -2v-17h-83q-49 -28 -71 -50.5t-22 -55.5q0 -26 14.5 -40t36.5 -14q20 0 54 13v-16q-34 -36 -85 -36q-40 0 -65 20t-25 61q0 30 22 61l86 57h-105v17q51 10 64 20
q19 16 19 59v438q0 23 -3.5 37t-17.5 22.5t-20.5 10.5t-33.5 7q-5 1 -8 2v17h243v-17z" />
    <glyph glyph-name="iogonek" unicode="&#x12f;" horiz-adv-x="263" 
d="M128 573q-18 0 -31.5 12.5t-13.5 29.5q0 18 13.5 31t31.5 13q17 0 30.5 -13t13.5 -31q0 -17 -13.5 -29.5t-30.5 -12.5zM176 0q-49 -28 -71 -50.5t-22 -55.5q0 -26 14.5 -40t37.5 -14q19 0 53 13v-16q-34 -36 -85 -36q-40 0 -65 20t-25 61q0 30 22 61l86 57h-90v17
q21 4 26.5 5t18.5 6.5t17 15t4 25.5v251q0 30 -12.5 44t-53.5 19v15q28 5 43 12t35 22.5t32 23.5l21 -19v-368q0 -23 11 -34l3 2v-5q12 -9 52 -15v-17h-52z" />
    <glyph glyph-name="Idotaccent" unicode="&#x130;" horiz-adv-x="305" 
d="M153 763q-17 0 -30.5 12.5t-13.5 29.5q0 18 13.5 31t30.5 13q18 0 31.5 -13t13.5 -31q0 -17 -13.5 -29.5t-31.5 -12.5zM31 0v17q51 10 64 20q19 16 19 59v438q0 23 -3.5 37t-17.5 22.5t-20.5 10.5t-33.5 7q-5 1 -8 2v17h243v-17q-51 -10 -64 -20q-19 -16 -19 -59v-438
q0 -23 3.5 -37t17.5 -22.5t20.5 -10.5t33.5 -7q5 -1 8 -2v-17h-243z" />
    <glyph glyph-name="dotlessi" unicode="&#x131;" horiz-adv-x="259" 
d="M31 0v17q21 4 26.5 5t18.5 6.5t17 15t4 25.5v251q0 30 -12.5 44t-53.5 19v15q28 5 43 12t35 22.5t32 23.5l21 -19v-368q0 -16 4 -25.5t17 -15t18.5 -6.5t26.5 -5v-17h-197z" />
    <glyph glyph-name="IJ" unicode="&#x132;" horiz-adv-x="608" 
d="M31 0v17q51 10 64 20q19 16 19 59v438q0 23 -3.5 37t-17.5 22.5t-20.5 10.5t-33.5 7q-5 1 -8 2v17h243v-17q-51 -10 -64 -20q-19 -16 -19 -59v-438q0 -23 3.5 -37t17.5 -22.5t20.5 -10.5t33.5 -7q5 -1 8 -2v-17h-243zM312 -185q-3 9 0 21q68 24 86.5 56.5t18.5 113.5v528
q0 24 -4.5 38.5t-20 22.5t-24.5 10.5t-39 7.5v17h248v-17q-51 -10 -64 -20q-19 -16 -19 -59v-538q0 -84 -50 -125t-132 -56z" />
    <glyph glyph-name="ij" unicode="&#x133;" horiz-adv-x="497" 
d="M121 583q-17 0 -30.5 12.5t-13.5 29.5q0 18 13.5 31t30.5 13q18 0 31.5 -13t13.5 -31q0 -17 -13.5 -29.5t-31.5 -12.5zM376 583q-17 0 -30.5 12.5t-13.5 29.5q0 18 13.5 31t30.5 13q18 0 31.5 -13t13.5 -31q0 -17 -13.5 -29.5t-31.5 -12.5zM31 0v17q21 4 26.5 5t18.5 6.5
t17 15t4 25.5v251q0 30 -12.5 44t-53.5 19v15q36 6 58.5 18.5t51.5 39.5l21 -19v-368q0 -16 4 -25.5t17 -15t18.5 -6.5t26.5 -5v-17h-197zM264 -185q-4 4 -4 11t4 10q47 17 66.5 47t19.5 98v339q0 30 -12.5 44t-53.5 19v15q28 5 43 12t35 22.5t32 23.5l21 -19v-454
q0 -148 -151 -168z" />
    <glyph glyph-name="uni0136" unicode="&#x136;" horiz-adv-x="661" 
d="M559 54q11 -15 17 -21t23 -11t46 -5v-17h-160q0 28 -28 67l-185 262l-81 -79v-154q0 -23 3.5 -37t17.5 -22.5t20.5 -10.5t33.5 -7q5 -1 8 -2v-17h-243v17q51 10 64 20q19 16 19 59v438q0 23 -3.5 37t-17.5 22.5t-20.5 10.5t-33.5 7q-5 1 -8 2v17h243v-17q-51 -10 -64 -20
q-19 -16 -19 -59v-234l262 257q23 22 11.5 39t-52.5 17v17h212v-17q-31 0 -55 -9.5t-33.5 -17.5t-31.5 -29l-181 -178zM335 -58q25 0 43 -19t18 -53q0 -45 -32.5 -90.5t-94.5 -67.5l-9 15q32 15 52.5 39t24.5 46q1 5 1.5 9.5t-1 7.5t-3 5t-5 3.5t-5.5 2.5t-6 2.5t-5 1.5
q-29 18 -29 48q0 22 15 36t36 14z" />
    <glyph glyph-name="uni0137" unicode="&#x137;" horiz-adv-x="521" 
d="M434 53q13 -18 27.5 -24.5t46.5 -10.5v-18h-130q0 17 -18 48l-133 191l-58 -57v-113q0 -8 2 -14.5t4.5 -11t8 -8.5t9 -6t12 -4.5t12 -3t13.5 -2.5t12 -2v-17h-211v17q2 0 12 2t13.5 2.5t12 3t12 4.5t9 6t8 8.5t4.5 11t2 14.5v483q0 52 -73 63v15q70 15 118 57l20 -19
v-441l145 141q23 22 14 36t-47 18v18h189v-18q-66 -6 -105 -48l-95 -93zM261 -58q25 0 43 -19t18 -53q0 -45 -32.5 -90.5t-94.5 -67.5l-9 15q33 15 53 39t23 46q2 5 2 9.5t-1.5 7.5t-3 5t-4.5 3.5l-5 2.5t-6 2.5t-5 1.5q-29 17 -29 48q0 22 15 36t36 14z" />
    <glyph glyph-name="Lacute" unicode="&#x139;" horiz-adv-x="573" 
d="M132 706l-14 12q35 97 69 145q15 0 35 -14.5t26 -26.5q-10 -7 -21 -16.5t-18 -15.5t-20.5 -20.5t-17 -19t-20.5 -23.5t-19 -21zM31 0v17q51 10 64 20q19 16 19 59v438q0 23 -3.5 37t-17.5 22.5t-20.5 10.5t-33.5 7q-5 1 -8 2v17h267v-17q-5 -1 -19.5 -3.5t-19.5 -3.5
t-17 -4.5t-17 -6.5t-13.5 -9t-11.5 -13t-6 -17t-3 -22v-428q0 -50 17.5 -63t76.5 -13h83q58 0 91 26.5t62 94.5h21l-41 -151h-470z" />
    <glyph glyph-name="lacute" unicode="&#x13a;" horiz-adv-x="277" 
d="M115 710l-14 12q35 97 69 145q15 0 35 -14.5t26 -26.5q-10 -7 -21 -16.5t-18 -15.5t-20.5 -20.5t-17 -19t-20.5 -23.5t-19 -21zM31 0v17q2 0 12 2t13.5 2.5t12 3t12 4.5t9 6t8 8.5t4.5 11t2 14.5v483q0 52 -73 63v15q70 15 118 57l20 -19v-599q0 -8 2 -14.5t4.5 -11
t8 -8.5t9 -6t12 -4.5t12 -3t13.5 -2.5t12 -2v-17h-211z" />
    <glyph glyph-name="uni013B" unicode="&#x13b;" horiz-adv-x="573" 
d="M31 0v17q51 10 64 20q19 16 19 59v438q0 23 -3.5 37t-17.5 22.5t-20.5 10.5t-33.5 7q-5 1 -8 2v17h267v-17q-5 -1 -19.5 -3.5t-19.5 -3.5t-17 -4.5t-17 -6.5t-13.5 -9t-11.5 -13t-6 -17t-3 -22v-428q0 -50 17.5 -63t76.5 -13h83q58 0 91 26.5t62 94.5h21l-41 -151h-470z
M227 -288l-9 15q32 15 52.5 39t24.5 46q1 5 1.5 9.5t-1 7.5t-3 5t-5 3.5t-5.5 2.5t-6 2.5t-5 1.5q-29 18 -29 48q0 22 15 36t36 14q25 0 43 -19t18 -53q0 -45 -32.5 -90.5t-94.5 -67.5z" />
    <glyph glyph-name="uni013C" unicode="&#x13c;" horiz-adv-x="277" 
d="M31 0v17q2 0 12 2t13.5 2.5t12 3t12 4.5t9 6t8 8.5t4.5 11t2 14.5v483q0 52 -73 63v15q70 15 118 57l20 -19v-599q0 -8 2 -14.5t4.5 -11t8 -8.5t9 -6t12 -4.5t12 -3t13.5 -2.5t12 -2v-17h-211zM78 -288l-9 15q33 15 53 39t23 46q2 5 2 9.5t-1.5 7.5t-3 5t-4.5 3.5l-5 2.5
t-6 2.5t-5 1.5q-29 17 -29 48q0 22 15 36t36 14q25 0 43 -19t18 -53q0 -45 -32.5 -90.5t-94.5 -67.5z" />
    <glyph glyph-name="Lcaron" unicode="&#x13d;" horiz-adv-x="578" 
d="M31 0v17q51 10 64 20q19 16 19 59v438q0 23 -3.5 37t-17.5 22.5t-20.5 10.5t-33.5 7q-5 1 -8 2v17h267v-17q-5 -1 -19.5 -3.5t-19.5 -3.5t-17 -4.5t-17 -6.5t-13.5 -9t-11.5 -13t-6 -17t-3 -22v-428q0 -50 17.5 -63t76.5 -13h83q58 0 91 26.5t62 94.5h21l-41 -151h-470z
M336 398l-9 15q33 15 53 39t23 46q1 5 1.5 9t-1 7t-3 5t-5 4t-5 3t-5.5 2.5t-5 1.5q-29 17 -29 48q0 22 15 36t36 14q25 0 43 -19.5t18 -52.5q0 -45 -32.5 -90.5t-94.5 -67.5z" />
    <glyph glyph-name="lcaron" unicode="&#x13e;" horiz-adv-x="227" 
d="M31 0v17q2 0 12 2t13.5 2.5t12 3t12 4.5t9 6t8 8.5t4.5 11t2 14.5v483q0 52 -73 63v15q70 15 118 57l20 -19v-599q0 -8 2 -14.5t4.5 -11t8 -8.5t9 -6t12 -4.5t12 -3t13.5 -2.5t12 -2v-17h-211zM233 495l-19 -2q-2 14 -4.5 42t-4.5 43t-6 36.5t-10 38.5q11 9 35.5 9
t37.5 -10q0 -60 -29 -157z" />
    <glyph glyph-name="Ldot" unicode="&#x13f;" horiz-adv-x="578" 
d="M31 0v17q51 10 64 20q19 16 19 59v438q0 23 -3.5 37t-17.5 22.5t-20.5 10.5t-33.5 7q-5 1 -8 2v17h267v-17q-5 -1 -19.5 -3.5t-19.5 -3.5t-17 -4.5t-17 -6.5t-13.5 -9t-11.5 -13t-6 -17t-3 -22v-428q0 -50 17.5 -63t76.5 -13h83q58 0 91 26.5t62 94.5h21l-41 -151h-470z
M367 261q-21 0 -36 14t-15 35t15 35t36 14t36.5 -14t15.5 -35t-15.5 -35t-36.5 -14z" />
    <glyph glyph-name="ldot" unicode="&#x140;" horiz-adv-x="280" 
d="M31 0v17q2 0 12 2t13.5 2.5t12 3t12 4.5t9 6t8 8.5t4.5 11t2 14.5v483q0 52 -73 63v15q70 15 118 57l20 -19v-599q0 -8 2 -14.5t4.5 -11t8 -8.5t9 -6t12 -4.5t12 -3t13.5 -2.5t12 -2v-17h-211zM266 289q-21 0 -36 14t-15 35t15 35t36 14t36.5 -14t15.5 -35t-15.5 -35
t-36.5 -14z" />
    <glyph glyph-name="Lslash" unicode="&#x141;" horiz-adv-x="587" 
d="M530 151h21l-41 -151h-470v17q51 10 64 20q19 16 19 59v223q-32 -11 -94 -35v31q62 18 94 28v191q0 23 -3.5 37t-17.5 22.5t-20.5 10.5t-33.5 7q-5 1 -8 2v17h267v-17q-5 -1 -19.5 -3.5t-19.5 -3.5t-17 -4.5t-17 -6.5t-13.5 -9t-11.5 -13t-6 -17t-3 -22v-166
q70 23 157 58v-32q-121 -37 -157 -49v-239q0 -50 17.5 -63t76.5 -13h83q58 0 91 26.5t62 94.5z" />
    <glyph glyph-name="lslash" unicode="&#x142;" horiz-adv-x="289" 
d="M185 69q0 -8 2 -14.5t4.5 -11t8 -8.5t9 -6t12 -4.5t12 -3t13.5 -2.5t12 -2v-17h-211v17q2 0 12 2t13.5 2.5t12 3t12 4.5t9 6t8 8.5t4.5 11t2 14.5v252q-60 -22 -89 -36v29q72 23 89 28v210q0 53 -73 63v15q70 15 118 57l20 -19v-302q29 10 57 24v-29l-57 -18v-274z" />
    <glyph glyph-name="Nacute" unicode="&#x143;" horiz-adv-x="703" 
d="M453 822q-10 -7 -21 -16.5t-18 -15.5t-20.5 -20.5t-17 -19t-20.5 -23.5t-19 -21l-14 12q35 97 69 145q15 0 35 -14.5t26 -26.5zM459 630h213v-17q-52 -10 -65 -20q-20 -17 -20 -59v-534h-33l-401 532v-436q0 -23 4 -37t19 -22.5t22 -10.5t36 -7q6 -1 9 -2v-17h-212v17
q52 10 65 20q20 16 20 59v438q0 23 -4 37t-17.5 22.5t-21.5 10.5t-33 7q-2 1 -3 1t-3 0.5t-3 0.5v17h143l375 -493v397q0 23 -4 37t-19 22.5t-22 10.5t-36 7q-6 1 -9 2v17z" />
    <glyph glyph-name="nacute" unicode="&#x144;" horiz-adv-x="551" 
d="M259 516l-15 12q35 97 69 145q15 0 35 -14.5t26 -26.5q-12 -8 -23 -17.5t-24.5 -24t-20.5 -21.5t-24.5 -27.5t-22.5 -25.5zM26 0v17q21 4 26.5 5t18.5 6.5t17 15t4 25.5v251q0 30 -12.5 44t-53.5 19v15q32 5 54.5 13.5t35 17t36.5 27.5l20 -19l-22 -84h9q73 96 175 96
q66 0 93 -40t27 -114v-226q0 -16 4 -25.5t17 -15t18.5 -6.5t26.5 -5v-17h-198v17q21 3 27.5 4.5t19 7t16.5 15t4 25.5v225q0 45 -22 73t-70 28q-79 0 -140 -74v-252q0 -13 4.5 -22t7.5 -13.5t16.5 -8.5t17 -4.5t22.5 -3.5v-17h-199z" />
    <glyph glyph-name="uni0145" unicode="&#x145;" horiz-adv-x="703" 
d="M459 630h213v-17q-52 -10 -65 -20q-20 -17 -20 -59v-534h-33l-401 532v-436q0 -23 4 -37t19 -22.5t22 -10.5t36 -7q6 -1 9 -2v-17h-212v17q52 10 65 20q20 16 20 59v438q0 23 -4 37t-17.5 22.5t-21.5 10.5t-33 7q-2 1 -3 1t-3 0.5t-3 0.5v17h143l375 -493v397q0 23 -4 37
t-19 22.5t-22 10.5t-36 7q-6 1 -9 2v17zM356 -58q25 0 43 -19t18 -53q0 -45 -32.5 -90.5t-94.5 -67.5l-9 15q32 15 52.5 39t24.5 46q1 5 1.5 9.5t-1 7.5t-3 5t-5 3.5t-5.5 2.5t-6 2.5t-5 1.5q-29 18 -29 48q0 22 15 36t36 14z" />
    <glyph glyph-name="uni0146" unicode="&#x146;" horiz-adv-x="551" 
d="M26 0v17q21 4 26.5 5t18.5 6.5t17 15t4 25.5v251q0 30 -12.5 44t-53.5 19v15q32 5 54.5 13.5t35 17t36.5 27.5l20 -19l-22 -84h9q73 96 175 96q66 0 93 -40t27 -114v-226q0 -16 4 -25.5t17 -15t18.5 -6.5t26.5 -5v-17h-198v17q21 3 27.5 4.5t19 7t16.5 15t4 25.5v225
q0 45 -22 73t-70 28q-79 0 -140 -74v-252q0 -13 4.5 -22t7.5 -13.5t16.5 -8.5t17 -4.5t22.5 -3.5v-17h-199zM212 -288l-9 15q32 15 52.5 39t24.5 46q1 5 1.5 9.5t-1 7.5t-3 5t-5 3.5t-5.5 2.5t-6 2.5t-5 1.5q-29 18 -29 48q0 22 15 36t36 14q25 0 43 -19t18 -53
q0 -45 -32.5 -90.5t-94.5 -67.5z" />
    <glyph glyph-name="Ncaron" unicode="&#x147;" horiz-adv-x="703" 
d="M485 869l-135 -154l-134 155l12 7l122 -98l123 98zM459 630h213v-17q-52 -10 -65 -20q-20 -17 -20 -59v-534h-33l-401 532v-436q0 -23 4 -37t19 -22.5t22 -10.5t36 -7q6 -1 9 -2v-17h-212v17q52 10 65 20q20 16 20 59v438q0 23 -4 37t-17.5 22.5t-21.5 10.5t-33 7
q-2 1 -3 1t-3 0.5t-3 0.5v17h143l375 -493v397q0 23 -4 37t-19 22.5t-22 10.5t-36 7q-6 1 -9 2v17z" />
    <glyph glyph-name="ncaron" unicode="&#x148;" horiz-adv-x="551" 
d="M272 525l-134 155l11 7l123 -98l123 98l11 -8zM26 0v17q21 4 26.5 5t18.5 6.5t17 15t4 25.5v251q0 30 -12.5 44t-53.5 19v15q32 5 54.5 13.5t35 17t36.5 27.5l20 -19l-22 -84h9q73 96 175 96q66 0 93 -40t27 -114v-226q0 -16 4 -25.5t17 -15t18.5 -6.5t26.5 -5v-17h-198
v17q21 3 27.5 4.5t19 7t16.5 15t4 25.5v225q0 45 -22 73t-70 28q-79 0 -140 -74v-252q0 -13 4.5 -22t7.5 -13.5t16.5 -8.5t17 -4.5t22.5 -3.5v-17h-199z" />
    <glyph glyph-name="Eng" unicode="&#x14a;" horiz-adv-x="703" 
d="M459 630h213v-17q-52 -10 -65 -20q-20 -17 -20 -59v-534h-1v-4q0 -84 -50 -125t-132 -56q-8 12 0 21q68 24 86.5 56.5t18.5 113.5v54l-356 472v-436q0 -23 4 -37t19 -22.5t22 -10.5t36 -7q6 -1 9 -2v-17h-212v17q52 10 65 20q20 16 20 59v438q0 23 -4 37t-17.5 22.5
t-21.5 10.5t-33 7q-2 1 -3 1t-3 0.5t-3 0.5v17h143l375 -493v397q0 23 -4 37t-19 22.5t-22 10.5t-36 7q-6 1 -9 2v17z" />
    <glyph glyph-name="eng" unicode="&#x14b;" horiz-adv-x="515" 
d="M334 449q66 0 93 -40t27 -114v-312q0 -148 -151 -168q-4 4 -4 11t4 10q47 17 66.5 47t19.5 98v313q0 45 -22 73t-70 28q-79 0 -140 -74v-252q0 -13 4.5 -22t7.5 -13.5t16.5 -8.5t17 -4.5t22.5 -3.5v-17h-199v17q21 4 26.5 5t18.5 6.5t17 15t4 25.5v251q0 30 -12.5 44
t-53.5 19v15q32 5 54.5 13.5t35 17t36.5 27.5l20 -19l-22 -84h9q73 96 175 96z" />
    <glyph glyph-name="Omacron" unicode="&#x14c;" horiz-adv-x="735" 
d="M221 797l15 30h280l-15 -30h-280zM365 -12q-137 0 -225.5 94.5t-88.5 232.5q0 137 89.5 234t228.5 97q137 0 226 -95t89 -231q0 -139 -90 -235.5t-229 -96.5zM382 19q90 0 153.5 74t63.5 197q0 139 -73.5 232t-173.5 93q-89 0 -152.5 -74.5t-63.5 -195.5q0 -140 73 -233
t173 -93z" />
    <glyph glyph-name="omacron" unicode="&#x14d;" horiz-adv-x="548" 
d="M127 607l15 30h280l-15 -30h-280zM266 -9q-90 0 -157.5 62.5t-67.5 163.5q0 105 71 168.5t165 63.5q90 0 157.5 -62.5t67.5 -163.5q0 -105 -71 -168.5t-165 -63.5zM278 20q59 0 103.5 47t44.5 141t-47.5 153t-113.5 59q-59 0 -103.5 -47t-44.5 -141t47.5 -153t113.5 -59z
" />
    <glyph glyph-name="Ohungarumlaut" unicode="&#x150;" horiz-adv-x="735" 
d="M258 706l-14 12q35 97 69 145q15 0 35 -14.5t26 -26.5q-10 -7 -21 -16.5t-18 -15.5t-20.5 -20.5t-17 -19t-20.5 -23.5t-19 -21zM399 706l-15 12q35 97 69 145q15 0 35 -14.5t26 -26.5q-12 -8 -23 -17.5t-24.5 -24t-20.5 -21.5t-24.5 -27.5t-22.5 -25.5zM365 -12
q-137 0 -225.5 94.5t-88.5 232.5q0 137 89.5 234t228.5 97q137 0 226 -95t89 -231q0 -139 -90 -235.5t-229 -96.5zM382 19q90 0 153.5 74t63.5 197q0 139 -73.5 232t-173.5 93q-89 0 -152.5 -74.5t-63.5 -195.5q0 -140 73 -233t173 -93z" />
    <glyph glyph-name="ohungarumlaut" unicode="&#x151;" horiz-adv-x="548" 
d="M165 516l-14 12q35 97 69 145q15 0 35 -14.5t26 -26.5q-10 -7 -21 -16.5t-18 -15.5t-20.5 -20.5t-17 -19t-20.5 -23.5t-19 -21zM306 516l-15 12q35 97 69 145q15 0 35 -14.5t26 -26.5q-12 -8 -23 -17.5t-24.5 -24t-20.5 -21.5t-24.5 -27.5t-22.5 -25.5zM266 -9
q-90 0 -157.5 62.5t-67.5 163.5q0 105 71 168.5t165 63.5q90 0 157.5 -62.5t67.5 -163.5q0 -105 -71 -168.5t-165 -63.5zM278 20q59 0 103.5 47t44.5 141t-47.5 153t-113.5 59q-59 0 -103.5 -47t-44.5 -141t47.5 -153t113.5 -59z" />
    <glyph glyph-name="OE" unicode="&#x152;" horiz-adv-x="1018" 
d="M960 145h22l-41 -145h-466q-44 -12 -111 -12q-137 0 -225 94t-88 233q0 137 89 233t228 96q56 0 105 -17v3h466l9 -137h-22q-7 57 -27 81.5t-71 24.5h-101q-59 0 -76.5 -13t-17.5 -63v-190h89q86 0 110 17t29 67h16v-198h-16q-5 50 -29 67t-110 17h-89v-196
q0 -50 17.5 -63t76.5 -13h80q59 0 92 24.5t61 89.5zM137 345q0 -141 72.5 -233.5t171.5 -92.5q48 0 96.5 29.5t78.5 82.5v349q-28 62 -83 97.5t-122 35.5q-89 0 -151.5 -73t-62.5 -195z" />
    <glyph glyph-name="oe" unicode="&#x153;" horiz-adv-x="873" 
d="M815 108l15 -8q-18 -52 -64 -80t-107 -28t-112 27.5t-81 76.5q-32 -50 -86.5 -77.5t-113.5 -27.5q-90 0 -157.5 62.5t-67.5 163.5q0 105 71 168.5t165 63.5q57 0 108.5 -27t81.5 -75q62 103 185 103q66 0 111 -34t59 -78.5t0 -83.5h-320v-4q0 -87 51.5 -145.5
t136.5 -58.5q87 0 125 62zM641 422q-52 0 -90.5 -37t-46.5 -103h254q7 49 -24 94.5t-93 45.5zM278 20q59 0 103.5 47t44.5 141t-47.5 153t-113.5 59q-59 0 -103.5 -47t-44.5 -141t47.5 -153t113.5 -59z" />
    <glyph glyph-name="Racute" unicode="&#x154;" horiz-adv-x="640" 
d="M414 822q-10 -7 -21 -16.5t-18 -15.5t-20.5 -20.5t-17 -19t-20.5 -23.5t-19 -21l-14 12q35 97 69 145q15 0 35 -14.5t26 -26.5zM485 116q25 -37 41 -57t42 -34.5t51 -6.5v-18q-27 -16 -53 -16q-49 0 -82 24t-71 82l-81 123q-26 37 -56.5 52t-84.5 17v-186q0 -23 3.5 -37
t17.5 -22.5t20.5 -10.5t33.5 -7q5 -1 8 -2v-17h-243v17q51 10 64 20q19 16 19 59v438q0 23 -3.5 37t-17.5 22.5t-20.5 10.5t-33.5 7q-5 1 -8 2v17h233q268 0 268 -173q0 -144 -192 -169q41 -11 79 -71zM272 599q-49 0 -65 -10.5t-16 -35.5v-241h81q95 0 137.5 35.5
t42.5 103.5q0 148 -180 148z" />
    <glyph glyph-name="racute" unicode="&#x155;" horiz-adv-x="377" 
d="M176 516l-14 12q35 97 69 145q15 0 35 -14.5t26 -26.5q-10 -7 -21 -16.5t-18 -15.5t-20.5 -20.5t-17 -19t-20.5 -23.5t-19 -21zM26 0v17q23 3 32 4.5t20.5 7t15 15t3.5 25.5v252q0 30 -13.5 44t-57.5 18v15q50 8 74 20t51 38l20 -19l-34 -119h20q36 69 70.5 103.5
t83.5 34.5q23 0 42 -8v-73q-40 11 -63 11q-58 0 -93 -38.5t-35 -101.5v-177q0 -21 9.5 -32t21.5 -13.5t43 -6.5v-17h-210z" />
    <glyph glyph-name="uni0156" unicode="&#x156;" horiz-adv-x="640" 
d="M485 116q25 -37 41 -57t42 -34.5t51 -6.5v-18q-27 -16 -53 -16q-49 0 -82 24t-71 82l-81 123q-26 37 -56.5 52t-84.5 17v-186q0 -23 3.5 -37t17.5 -22.5t20.5 -10.5t33.5 -7q5 -1 8 -2v-17h-243v17q51 10 64 20q19 16 19 59v438q0 23 -3.5 37t-17.5 22.5t-20.5 10.5
t-33.5 7q-5 1 -8 2v17h233q268 0 268 -173q0 -144 -192 -169q41 -11 79 -71zM272 599q-49 0 -65 -10.5t-16 -35.5v-241h81q95 0 137.5 35.5t42.5 103.5q0 148 -180 148zM325 -58q25 0 43 -19t18 -53q0 -45 -32.5 -90.5t-94.5 -67.5l-9 15q32 15 52.5 39t24.5 46q1 5 1.5 9.5
t-1 7.5t-3 5t-5 3.5t-5.5 2.5t-6 2.5t-5 1.5q-29 18 -29 48q0 22 15 36t36 14z" />
    <glyph glyph-name="uni0157" unicode="&#x157;" horiz-adv-x="377" 
d="M26 0v17q23 3 32 4.5t20.5 7t15 15t3.5 25.5v252q0 30 -13.5 44t-57.5 18v15q50 8 74 20t51 38l20 -19l-34 -119h20q36 69 70.5 103.5t83.5 34.5q23 0 42 -8v-73q-40 11 -63 11q-58 0 -93 -38.5t-35 -101.5v-177q0 -21 9.5 -32t21.5 -13.5t43 -6.5v-17h-210zM71 -288
l-9 15q33 15 53 39t23 46q1 5 1.5 9.5t-1 7.5t-3 5t-5 3.5t-5.5 2.5t-5.5 2.5t-4.5 1.5q-29 17 -29 48q0 22 15 36t36 14q25 0 43 -19t18 -53q0 -45 -32.5 -90.5t-94.5 -67.5z" />
    <glyph glyph-name="Rcaron" unicode="&#x158;" horiz-adv-x="640" 
d="M446 869l-135 -154l-134 155l12 7l122 -98l123 98zM485 116q25 -37 41 -57t42 -34.5t51 -6.5v-18q-27 -16 -53 -16q-49 0 -82 24t-71 82l-81 123q-26 37 -56.5 52t-84.5 17v-186q0 -23 3.5 -37t17.5 -22.5t20.5 -10.5t33.5 -7q5 -1 8 -2v-17h-243v17q51 10 64 20
q19 16 19 59v438q0 23 -3.5 37t-17.5 22.5t-20.5 10.5t-33.5 7q-5 1 -8 2v17h233q268 0 268 -173q0 -144 -192 -169q41 -11 79 -71zM272 599q-49 0 -65 -10.5t-16 -35.5v-241h81q95 0 137.5 35.5t42.5 103.5q0 148 -180 148z" />
    <glyph glyph-name="rcaron" unicode="&#x159;" horiz-adv-x="377" 
d="M190 525l-135 155l12 7l123 -98l122 98l12 -8zM26 0v17q23 3 32 4.5t20.5 7t15 15t3.5 25.5v252q0 30 -13.5 44t-57.5 18v15q50 8 74 20t51 38l20 -19l-34 -119h20q36 69 70.5 103.5t83.5 34.5q23 0 42 -8v-73q-40 11 -63 11q-58 0 -93 -38.5t-35 -101.5v-177
q0 -21 9.5 -32t21.5 -13.5t43 -6.5v-17h-210z" />
    <glyph glyph-name="Sacute" unicode="&#x15a;" horiz-adv-x="507" 
d="M238 706l-15 12q39 103 69 145q15 0 35 -14.5t26 -26.5q-12 -8 -23 -17.5t-24.5 -24t-20.5 -21.5t-24.5 -27.5t-22.5 -25.5zM246 -12q-89 0 -187 63l-8 126h20q17 -70 63.5 -115.5t111.5 -45.5q56 0 94 36.5t38 91.5q0 30 -10.5 53.5t-34.5 43.5t-45.5 32.5t-60.5 32.5
q-35 18 -59.5 33.5t-50.5 39t-39.5 53.5t-13.5 65q0 64 46.5 106.5t140.5 42.5q24 0 45.5 -3.5t36 -7t30.5 -11.5t23 -12.5t20.5 -13.5l16.5 -11l3 -128h-18q-17 69 -57.5 114t-104.5 45q-53 0 -82 -28.5t-29 -72.5q0 -46 35 -80t110 -72q39 -20 58.5 -32t52.5 -38t49 -59
t16 -73q0 -78 -62.5 -126.5t-147.5 -48.5z" />
    <glyph glyph-name="sacute" unicode="&#x15b;" horiz-adv-x="402" 
d="M181 516l-14 12q35 97 69 145q15 0 35 -14.5t26 -26.5q-10 -7 -21 -16.5t-18 -15.5t-20.5 -20.5t-17 -19t-20.5 -23.5t-19 -21zM184 -9q-46 0 -87 14t-54 26l-2 90h24q13 -47 46 -74.5t82 -27.5q44 0 71 21t27 59q0 18 -6 32t-21 24.5t-25 16t-35.5 15t-33.5 13.5
q-57 22 -91.5 52t-34.5 77q0 53 41.5 86.5t115.5 33.5q70 0 123 -38l-3 -89h-20q-27 99 -113 99q-41 0 -62.5 -21t-21.5 -52q0 -33 24 -51.5t76 -39.5q5 -2 22 -8.5t25.5 -10t24.5 -11t25 -14t21 -16.5t18.5 -20.5t11 -24.5t4.5 -30q0 -53 -47 -92t-125 -39z" />
    <glyph glyph-name="Scedilla" unicode="&#x15e;" horiz-adv-x="507" 
d="M456 163q0 -69 -50 -116t-125 -57l-23 -45q44 0 70.5 -20t26.5 -53q0 -35 -34 -59.5t-112 -24.5l5 19q43 0 67 13.5t24 34.5q0 47 -106 47l44 86q-88 1 -184 63l-8 126h20q17 -70 63.5 -115.5t111.5 -45.5q56 0 94 36.5t38 91.5q0 30 -10.5 53.5t-34.5 43.5t-45.5 32.5
t-60.5 32.5q-35 18 -59.5 33.5t-50.5 39t-39.5 53.5t-13.5 65q0 64 46.5 106.5t140.5 42.5q24 0 45.5 -3.5t36 -7t30.5 -11.5t23 -12.5t20.5 -13.5l16.5 -11l3 -128h-18q-17 69 -57.5 114t-104.5 45q-53 0 -82 -28.5t-29 -72.5q0 -46 35 -80t110 -72q39 -20 58.5 -32
t52.5 -38t49 -59t16 -73z" />
    <glyph glyph-name="scedilla" unicode="&#x15f;" horiz-adv-x="402" 
d="M356 122q0 -45 -35.5 -81.5t-96.5 -46.5l-25 -49q44 0 70 -20t26 -53q0 -35 -34 -59.5t-112 -24.5l5 19q44 0 68 13.5t24 34.5q0 47 -106 47l45 89h-1q-46 0 -87 14t-54 26l-2 90h24q13 -47 46 -74.5t82 -27.5q44 0 71 21t27 59q0 18 -6 32t-21 24.5t-25 16t-35.5 15
t-33.5 13.5q-57 22 -91.5 52t-34.5 77q0 53 41.5 86.5t115.5 33.5q70 0 123 -38l-3 -89h-20q-27 99 -113 99q-41 0 -62.5 -21t-21.5 -52q0 -33 24 -51.5t76 -39.5q5 -2 22 -8.5t25.5 -10t24.5 -11t25 -14t21 -16.5t18.5 -20.5t11 -24.5t4.5 -30z" />
    <glyph glyph-name="Scaron" unicode="&#x160;" horiz-adv-x="507" 
d="M249 715l-134 155l11 7l123 -98l123 98l11 -8zM246 -12q-89 0 -187 63l-8 126h20q17 -70 63.5 -115.5t111.5 -45.5q56 0 94 36.5t38 91.5q0 30 -10.5 53.5t-34.5 43.5t-45.5 32.5t-60.5 32.5q-35 18 -59.5 33.5t-50.5 39t-39.5 53.5t-13.5 65q0 64 46.5 106.5t140.5 42.5
q24 0 45.5 -3.5t36 -7t30.5 -11.5t23 -12.5t20.5 -13.5l16.5 -11l3 -128h-18q-17 69 -57.5 114t-104.5 45q-53 0 -82 -28.5t-29 -72.5q0 -46 35 -80t110 -72q39 -20 58.5 -32t52.5 -38t49 -59t16 -73q0 -78 -62.5 -126.5t-147.5 -48.5z" />
    <glyph glyph-name="scaron" unicode="&#x161;" horiz-adv-x="402" 
d="M195 525l-135 155l12 7l123 -98l122 98l12 -8zM184 -9q-46 0 -87 14t-54 26l-2 90h24q13 -47 46 -74.5t82 -27.5q44 0 71 21t27 59q0 18 -6 32t-21 24.5t-25 16t-35.5 15t-33.5 13.5q-57 22 -91.5 52t-34.5 77q0 53 41.5 86.5t115.5 33.5q70 0 123 -38l-3 -89h-20
q-27 99 -113 99q-41 0 -62.5 -21t-21.5 -52q0 -33 24 -51.5t76 -39.5q5 -2 22 -8.5t25.5 -10t24.5 -11t25 -14t21 -16.5t18.5 -20.5t11 -24.5t4.5 -30q0 -53 -47 -92t-125 -39z" />
    <glyph glyph-name="uni0162" unicode="&#x162;" horiz-adv-x="612" 
d="M568 640l8 -172h-16q-11 73 -40 104.5t-105 31.5h-73v-508q0 -20 5 -33t10 -20.5t22.5 -13t26.5 -7t39 -5.5v-17h-108l-29 -55q44 0 70.5 -20t26.5 -53q0 -35 -34 -59.5t-112 -24.5l5 19q43 0 67 13.5t24 34.5q0 47 -105 47l50 98h-138v17q30 4 39 5.5t26.5 7t22.5 13
t10 20.5t5 33v508h-70q-78 0 -107.5 -31.5t-40.5 -104.5h-16l8 172l46 -10h437z" />
    <glyph glyph-name="uni0163" unicode="&#x163;" horiz-adv-x="246" 
d="M290 72v-20q-38 -23 -104 -52h5l-29 -55q44 0 70.5 -20t26.5 -53q0 -35 -34 -59.5t-112 -24.5l5 19q43 0 67 13.5t24 34.5q0 47 -105 47l46 90q-22 8 -38 31.5t-16 49.5v333h-70v18q74 32 113 105h22v-95l122 15q-5 -15 -5 -43h-117v-298q0 -25 13.5 -38t34.5 -13.5
t41.5 3.5t39.5 12z" />
    <glyph glyph-name="Tcaron" unicode="&#x164;" horiz-adv-x="607" 
d="M439 860l-135 -154l-134 155l12 7l122 -98l123 98zM568 640l8 -172h-16q-11 73 -40 104.5t-105 31.5h-73v-508q0 -20 5 -33t10 -20.5t22.5 -13t26.5 -7t39 -5.5v-17h-283v17q30 4 39 5.5t26.5 7t22.5 13t10 20.5t5 33v508h-70q-78 0 -107.5 -31.5t-40.5 -104.5h-16l8 172
l46 -10h437z" />
    <glyph glyph-name="tcaron" unicode="&#x165;" horiz-adv-x="316" 
d="M207 489q-14 0 -14 14l-1 112q0 45 33 45q45 0 31 -44l-30 -112q-1 -6 -6.5 -10.5t-12.5 -4.5zM161 108q0 -25 13.5 -38t34.5 -13.5t41.5 3.5t39.5 12v-20q-36 -22 -126 -62q-25 0 -46.5 26t-21.5 57v333h-70v18q74 32 113 105h22v-95l122 15q-5 -15 -5 -43h-117v-298z
" />
    <glyph glyph-name="Tbar" unicode="&#x166;" horiz-adv-x="607" 
d="M568 640l8 -172h-16q-11 73 -40 104.5t-105 31.5h-73v-280q56 0 113 3l-10 -32l-103 3v-202q0 -20 5 -33t10 -20.5t22.5 -13t26.5 -7t39 -5.5v-17h-283v17q30 4 39 5.5t26.5 7t22.5 13t10 20.5t5 33v202q-109 -3 -110 -3l10 32l100 -3v280h-70q-78 0 -107.5 -31.5
t-40.5 -104.5h-16l8 172l46 -10h437z" />
    <glyph glyph-name="tbar" unicode="&#x167;" horiz-adv-x="325" 
d="M170 108q0 -25 13.5 -38t34.5 -13.5t41 3.5t40 12v-20q-36 -22 -126 -62q-25 0 -46.5 26t-21.5 57v181h-81l10 31h71v121h-70v18q74 32 113 105h22v-95l122 15q-5 -15 -5 -43h-117v-121h102l-10 -31h-92v-146z" />
    <glyph glyph-name="Umacron" unicode="&#x16a;" 
d="M205 797l15 30h280l-15 -30h-280zM356 -12q-34 0 -64.5 5.5t-64 23t-57.5 45t-40 76t-16 112.5v284q0 23 -3.5 37t-17.5 22.5t-20.5 10.5t-33.5 7q-5 1 -8 2v17h244v-17q-51 -10 -64 -20q-19 -16 -19 -59v-295q0 -210 179 -210q34 0 63 8t58.5 28t47 60.5t17.5 98.5v310
q0 23 -4 37t-17.5 22.5t-21.5 10.5t-33 7q-2 1 -3 1t-3 0.5t-3 0.5v17h214v-17q-56 -10 -69 -20q-21 -16 -21 -59v-290q0 -72 -21 -124t-57 -79.5t-76 -40t-86 -12.5z" />
    <glyph glyph-name="umacron" unicode="&#x16b;" horiz-adv-x="552" 
d="M136 607l15 30h280l-15 -30h-280zM215 -9q-128 0 -128 154v231q0 18 -8.5 27.5t-19 12.5t-33.5 7v17q72 -4 126 6v-298q0 -100 91 -100q79 0 148 56v272q0 18 -8.5 27.5t-19 12.5t-33.5 7v17q72 -4 126 6v-363q0 -30 12.5 -44.5t53.5 -21.5v-17h-127l6 77h-11
q-88 -86 -175 -86z" />
    <glyph glyph-name="ubreve" unicode="&#x16d;" horiz-adv-x="552" 
d="M283 559q-63 0 -94 34t-31 86h17q12 -65 108 -65t108 65h17q0 -52 -31 -86t-94 -34zM215 -9q-128 0 -128 154v231q0 18 -8.5 27.5t-19 12.5t-33.5 7v17q72 -4 126 6v-298q0 -100 91 -100q79 0 148 56v272q0 18 -8.5 27.5t-19 12.5t-33.5 7v17q72 -4 126 6v-363
q0 -30 12.5 -44.5t53.5 -21.5v-17h-127l6 77h-11q-88 -86 -175 -86z" />
    <glyph glyph-name="Uring" unicode="&#x16e;" 
d="M352 729q-34 0 -57.5 24t-23.5 58t23.5 58t57.5 24t58 -24t24 -58t-24 -58t-58 -24zM352 758q21 0 36.5 16t15.5 37t-15.5 37t-36.5 16t-36 -16t-15 -37t15 -37t36 -16zM356 -12q-34 0 -64.5 5.5t-64 23t-57.5 45t-40 76t-16 112.5v284q0 23 -3.5 37t-17.5 22.5
t-20.5 10.5t-33.5 7q-5 1 -8 2v17h244v-17q-51 -10 -64 -20q-19 -16 -19 -59v-295q0 -210 179 -210q34 0 63 8t58.5 28t47 60.5t17.5 98.5v310q0 23 -4 37t-17.5 22.5t-21.5 10.5t-33 7q-2 1 -3 1t-3 0.5t-3 0.5v17h214v-17q-56 -10 -69 -20q-21 -16 -21 -59v-290
q0 -72 -21 -124t-57 -79.5t-76 -40t-86 -12.5z" />
    <glyph glyph-name="uring" unicode="&#x16f;" horiz-adv-x="552" 
d="M283 539q-34 0 -58 24t-24 58t24 58t58 24t58 -24t24 -58t-24 -58t-58 -24zM283 568q21 0 36.5 16t15.5 37t-15.5 37t-36.5 16t-36.5 -16t-15.5 -37t15.5 -37t36.5 -16zM215 -9q-128 0 -128 154v231q0 18 -8.5 27.5t-19 12.5t-33.5 7v17q72 -4 126 6v-298q0 -100 91 -100
q79 0 148 56v272q0 18 -8.5 27.5t-19 12.5t-33.5 7v17q72 -4 126 6v-363q0 -30 12.5 -44.5t53.5 -21.5v-17h-127l6 77h-11q-88 -86 -175 -86z" />
    <glyph glyph-name="Uhungarumlaut" unicode="&#x170;" 
d="M243 706l-14 12q35 97 69 145q15 0 35 -14.5t26 -26.5q-10 -7 -21 -16.5t-18 -15.5t-20.5 -20.5t-17 -19t-20.5 -23.5t-19 -21zM384 706l-15 12q35 97 69 145q15 0 35 -14.5t26 -26.5q-12 -8 -23 -17.5t-24.5 -24t-20.5 -21.5t-24.5 -27.5t-22.5 -25.5zM356 -12
q-34 0 -64.5 5.5t-64 23t-57.5 45t-40 76t-16 112.5v284q0 23 -3.5 37t-17.5 22.5t-20.5 10.5t-33.5 7q-5 1 -8 2v17h244v-17q-51 -10 -64 -20q-19 -16 -19 -59v-295q0 -210 179 -210q34 0 63 8t58.5 28t47 60.5t17.5 98.5v310q0 23 -4 37t-17.5 22.5t-21.5 10.5t-33 7
q-2 1 -3 1t-3 0.5t-3 0.5v17h214v-17q-56 -10 -69 -20q-21 -16 -21 -59v-290q0 -72 -21 -124t-57 -79.5t-76 -40t-86 -12.5z" />
    <glyph glyph-name="uhungarumlaut" unicode="&#x171;" horiz-adv-x="552" 
d="M174 516l-15 12q39 103 69 145q15 0 35 -14.5t26 -26.5q-12 -8 -23 -17.5t-24.5 -24t-20.5 -21.5t-24.5 -27.5t-22.5 -25.5zM314 516l-15 12q39 103 69 145q16 0 36 -14.5t25 -26.5q-12 -8 -23 -17.5t-24.5 -24t-20.5 -21.5t-24.5 -27.5t-22.5 -25.5zM215 -9
q-128 0 -128 154v231q0 18 -8.5 27.5t-19 12.5t-33.5 7v17q72 -4 126 6v-298q0 -100 91 -100q79 0 148 56v272q0 18 -8.5 27.5t-19 12.5t-33.5 7v17q72 -4 126 6v-363q0 -30 12.5 -44.5t53.5 -21.5v-17h-127l6 77h-11q-88 -86 -175 -86z" />
    <glyph glyph-name="Uogonek" unicode="&#x172;" horiz-adv-x="683" 
d="M472 630h214v-17q-56 -10 -69 -20q-21 -16 -21 -59v-290q0 -120 -54 -180t-138 -73q-78 -36 -78 -97q0 -26 14.5 -40t37.5 -14q19 0 53 13v-16q-34 -36 -84 -36q-40 0 -65.5 20t-25.5 61q0 28 23 61l69 45q-43 1 -80 12t-74 38t-58.5 81t-21.5 131v284q0 23 -3.5 37
t-17.5 22.5t-20.5 10.5t-33.5 7q-5 1 -8 2v17h244v-17q-51 -10 -64 -20q-19 -16 -19 -59v-295q0 -210 179 -210q24 0 44 4l4 2v-2q60 11 99 56t39 135v310q0 23 -4 37t-17.5 22.5t-21.5 10.5t-33 7q-2 1 -3 1t-3 0.5t-3 0.5v17z" />
    <glyph glyph-name="uogonek" unicode="&#x173;" horiz-adv-x="552" 
d="M448 0q-49 -28 -71 -50.5t-22 -55.5q0 -26 14.5 -40t37.5 -14q19 0 53 13v-16q-34 -36 -84 -36q-40 0 -65.5 20t-25.5 61q0 30 22 61l88 59l6 75h-11q-88 -86 -175 -86q-128 0 -128 154v231q0 18 -8.5 27.5t-19 12.5t-33.5 7v17q72 -4 126 6v-298q0 -100 91 -100
q79 0 148 56v272q0 18 -8.5 27.5t-19 12.5t-33.5 7v17q72 -4 126 6v-363q0 -30 12.5 -44.5t53.5 -21.5v-17h-74z" />
    <glyph glyph-name="Wcircumflex" unicode="&#x174;" horiz-adv-x="1001" 
d="M502 876l134 -153l-12 -9l-122 98l-123 -98l-12 7zM305 -8l-211 557q-12 32 -25.5 40.5t-57.5 16.5v22h224v-22q-5 -2 -14 -4t-15 -4t-13 -4.5t-11 -6.5t-7.5 -9t-3 -12.5t3.5 -16.5l166 -445l125 358q17 47 -2.5 90.5t-69.5 55.5v22h134q0 -10 1.5 -22t3.5 -21t7 -24
t7.5 -22t9.5 -25.5t9 -24.5l141 -386l142 402q9 24 9.5 41t-3.5 27t-18 16.5t-27.5 9.5t-39.5 7v22h215v-22q-32 -6 -42.5 -9.5t-21.5 -14t-19 -33.5l-202 -558h-29l-173 463l-164 -464h-29z" />
    <glyph glyph-name="wcircumflex" unicode="&#x175;" horiz-adv-x="784" 
d="M392 686l134 -153l-12 -9l-122 98l-123 -98l-12 7zM223 -6l-143 386q-9 26 -21.5 33t-47.5 10v17h199v-17q-46 -6 -54 -18q-6 -9 0 -25l104 -286l99 239q15 41 1 68q-5 12 -15.5 15.5t-34.5 6.5v17h126q0 -35 18 -77l104 -270l100 248q8 21 8 35.5t-5 23t-17.5 13.5
t-23.5 7t-29 3v17h177v-17q-34 -3 -46 -10t-23 -33l-150 -386h-26l-134 342l-140 -342h-26z" />
    <glyph glyph-name="Ycircumflex" unicode="&#x176;" horiz-adv-x="649" 
d="M326 812l-123 -98l-12 7l135 155l134 -153l-12 -9zM436 630h192v-17q-40 -8 -53 -16.5t-35 -45.5l-176 -284v-166q0 -25 4.5 -39t20.5 -22t26 -10.5t42 -7.5v-22h-263v22q59 10 73 21q20 15 20 58v158l-184 292q-24 37 -36 45.5t-51 16.5v17h229v-17q-40 -9 -55 -21.5
t1 -40.5l156 -253l153 253q10 17 11.5 27.5t-9 16.5t-19 8.5t-31.5 6.5q-11 2 -16 3v17z" />
    <glyph glyph-name="ycircumflex" unicode="&#x177;" horiz-adv-x="502" 
d="M254 622l-123 -98l-12 7l135 155l134 -153l-12 -9zM331 440h155v-17q-33 -4 -44 -11t-23 -35l-181 -424l-13.5 -33t-17 -33.5t-23.5 -34.5t-28 -22.5t-36 -10.5q-31 0 -62 23v51q124 -5 150 60l26 61l-156 364q-11 27 -22.5 34t-44.5 11v17h193v-17q-47 -7 -55 -18
q-8 -10 -1 -27l119 -287l122 286q3 14 3.5 21.5t-10 12.5t-19.5 7t-24 4q-5 1 -8 1v17z" />
    <glyph glyph-name="Ydieresis" unicode="&#x178;" horiz-adv-x="649" 
d="M235 772q-17 0 -28 11t-11 28q0 18 11 29t28 11q18 0 29 -11t11 -29q0 -17 -11 -28t-29 -11zM415 772q-17 0 -28 11t-11 28q0 18 11 29t28 11q18 0 29 -11t11 -29q0 -17 -11 -28t-29 -11zM436 630h192v-17q-40 -8 -53 -16.5t-35 -45.5l-176 -284v-166q0 -25 4.5 -39
t20.5 -22t26 -10.5t42 -7.5v-22h-263v22q59 10 73 21q20 15 20 58v158l-184 292q-24 37 -36 45.5t-51 16.5v17h229v-17q-40 -9 -55 -21.5t1 -40.5l156 -253l153 253q10 17 11.5 27.5t-9 16.5t-19 8.5t-31.5 6.5q-11 2 -16 3v17z" />
    <glyph glyph-name="Zacute" unicode="&#x179;" horiz-adv-x="576" 
d="M276 706l-15 12q39 103 69 145q15 0 35 -14.5t26 -26.5q-12 -8 -23 -17.5t-24.5 -24t-20.5 -21.5t-24.5 -27.5t-22.5 -25.5zM42 0l-11 15l397 594l-222 -4q-72 -1 -100.5 -31t-33.5 -101h-20v163l54 -6h437l-406 -609l249 4q69 1 97 32t43 102h21q-19 -102 -19 -159h-486
z" />
    <glyph glyph-name="zacute" unicode="&#x17a;" horiz-adv-x="448" 
d="M210 516l-15 12q35 97 69 145q15 0 35 -14.5t26 -26.5q-12 -8 -23 -17.5t-24.5 -24t-20.5 -21.5t-24.5 -27.5t-22.5 -25.5zM42 0l-11 15l286 405l-142 -3q-84 -1 -94 -103h-19v132l59 -6h289l-294 -420l145 3q63 1 90 26t41 77h20q-19 -66 -19 -126h-351z" />
    <glyph glyph-name="Zdotaccent" unicode="&#x17b;" horiz-adv-x="576" 
d="M291 763q-17 0 -30.5 12.5t-13.5 29.5q0 18 13.5 31t30.5 13q18 0 31.5 -13t13.5 -31q0 -17 -13.5 -29.5t-31.5 -12.5zM42 0l-11 15l397 594l-222 -4q-72 -1 -100.5 -31t-33.5 -101h-20v163l54 -6h437l-406 -609l249 4q69 1 97 32t43 102h21q-19 -102 -19 -159h-486z" />
    <glyph glyph-name="zdotaccent" unicode="&#x17c;" horiz-adv-x="448" 
d="M225 573q-18 0 -31 12.5t-13 29.5q0 18 13 31t31 13t31 -13t13 -31q0 -17 -13 -29.5t-31 -12.5zM42 0l-11 15l286 405l-142 -3q-84 -1 -94 -103h-19v132l59 -6h289l-294 -420l145 3q63 1 90 26t41 77h20q-19 -66 -19 -126h-351z" />
    <glyph glyph-name="Zcaron" unicode="&#x17d;" horiz-adv-x="576" 
d="M289 715l-134 155l12 7l122 -98l123 98l12 -8zM42 0l-11 15l397 594l-222 -4q-72 -1 -100.5 -31t-33.5 -101h-20v163l54 -6h437l-406 -609l249 4q69 1 97 32t43 102h21q-19 -102 -19 -159h-486z" />
    <glyph glyph-name="zcaron" unicode="&#x17e;" horiz-adv-x="448" 
d="M223 525l-134 155l11 7l123 -98l123 98l11 -8zM42 0l-11 15l286 405l-142 -3q-84 -1 -94 -103h-19v132l59 -6h289l-294 -420l145 3q63 1 90 26t41 77h20q-19 -66 -19 -126h-351z" />
    <glyph glyph-name="florin" unicode="&#x192;" horiz-adv-x="556" 
d="M538 685q66 0 82 -42q-10 -44 -48 -58q-8 27 -27.5 45.5t-46.5 18.5q-37 0 -69.5 -35.5t-42.5 -121.5l-7 -55l112 8q-5 -15 -5 -39h-111l-41 -335q-15 -125 -74 -185.5t-152 -60.5q-66 0 -82 42q10 44 48 58q8 -27 27.5 -45.5t46.5 -18.5q37 0 69 35.5t43 121.5l46 388
h-71v19l75 15q17 121 77 183t151 62z" />
    <glyph glyph-name="uni0218" unicode="&#x218;" horiz-adv-x="507" 
d="M246 -12q-89 0 -187 63l-8 126h20q17 -70 63.5 -115.5t111.5 -45.5q56 0 94 36.5t38 91.5q0 30 -10.5 53.5t-34.5 43.5t-45.5 32.5t-60.5 32.5q-35 18 -59.5 33.5t-50.5 39t-39.5 53.5t-13.5 65q0 64 46.5 106.5t140.5 42.5q24 0 45.5 -3.5t36 -7t30.5 -11.5t23 -12.5
t20.5 -13.5l16.5 -11l3 -128h-18q-17 69 -57.5 114t-104.5 45q-53 0 -82 -28.5t-29 -72.5q0 -46 35 -80t110 -72q39 -20 58.5 -32t52.5 -38t49 -59t16 -73q0 -78 -62.5 -126.5t-147.5 -48.5zM194 -288l-9 15q32 15 52.5 39t24.5 46q1 5 1.5 9.5t-1 7.5t-3 5t-5 3.5t-5.5 2.5
t-6 2.5t-5 1.5q-29 18 -29 48q0 22 15 36t36 14q25 0 43 -19t18 -53q0 -45 -32.5 -90.5t-94.5 -67.5z" />
    <glyph glyph-name="uni0219" unicode="&#x219;" horiz-adv-x="402" 
d="M184 -9q-46 0 -87 14t-54 26l-2 90h24q13 -47 46 -74.5t82 -27.5q44 0 71 21t27 59q0 18 -6 32t-21 24.5t-25 16t-35.5 15t-33.5 13.5q-57 22 -91.5 52t-34.5 77q0 53 41.5 86.5t115.5 33.5q70 0 123 -38l-3 -89h-20q-27 99 -113 99q-41 0 -62.5 -21t-21.5 -52
q0 -33 24 -51.5t76 -39.5q5 -2 22 -8.5t25.5 -10t24.5 -11t25 -14t21 -16.5t18.5 -20.5t11 -24.5t4.5 -30q0 -53 -47 -92t-125 -39zM135 -288l-9 15q33 15 53 39t23 46q2 5 2 9.5t-1.5 7.5t-3 5t-4.5 3.5l-5 2.5t-6 2.5t-5 1.5q-29 17 -29 48q0 22 15 36t36 14q25 0 43 -19
t18 -53q0 -45 -32.5 -90.5t-94.5 -67.5z" />
    <glyph glyph-name="uni021A" unicode="&#x21a;" horiz-adv-x="612" 
d="M568 640l8 -172h-16q-11 73 -40 104.5t-105 31.5h-73v-508q0 -20 5 -33t10 -20.5t22.5 -13t26.5 -7t39 -5.5v-17h-283v17q30 4 39 5.5t26.5 7t22.5 13t10 20.5t5 33v508h-70q-78 0 -107.5 -31.5t-40.5 -104.5h-16l8 172l46 -10h437zM311 -58q25 0 42.5 -19t17.5 -53
q0 -45 -32.5 -90.5t-94.5 -67.5l-9 15q33 15 53 38.5t24 46.5q1 5 1.5 9.5t-1 7.5t-3 5t-5 3.5t-5.5 2.5t-5.5 2.5t-4.5 1.5q-29 17 -29 48q0 22 15 36t36 14z" />
    <glyph glyph-name="uni021B" unicode="&#x21b;" horiz-adv-x="246" 
d="M161 108q0 -25 13.5 -38t34.5 -13.5t41.5 3.5t39.5 12v-20q-36 -22 -126 -62q-25 0 -46.5 26t-21.5 57v333h-70v18q74 32 113 105h22v-95l122 15q-5 -15 -5 -43h-117v-298zM165 -58q25 0 42.5 -19t17.5 -53q0 -45 -32.5 -90.5t-94.5 -67.5l-9 15q32 15 52.5 39t24.5 46
q1 5 1.5 9.5t-1 7.5t-3 5t-5 3.5t-5.5 2.5t-6 2.5t-5 1.5q-28 17 -28 48q0 22 15 36t36 14z" />
    <glyph glyph-name="uni0237" unicode="&#x237;" horiz-adv-x="217" 
d="M5 -185q-4 4 -4 11t4 10q56 17 71 44t15 108v332q0 30 -12.5 44t-53.5 19v15q28 5 43 12t35 22.5t32 23.5l21 -19v-454q0 -148 -151 -168z" />
    <glyph glyph-name="circumflex" unicode="&#x2c6;" horiz-adv-x="290" 
d="M145 686l135 -153l-12 -9l-123 98l-122 -98l-12 7z" />
    <glyph glyph-name="caron" unicode="&#x2c7;" horiz-adv-x="290" 
d="M145 525l-134 155l12 7l122 -98l123 98l12 -8z" />
    <glyph glyph-name="breve" unicode="&#x2d8;" horiz-adv-x="271" 
d="M136 559q-63 0 -94 34t-31 86h17q12 -65 108 -65q97 0 107 65h17q0 -52 -30.5 -86t-93.5 -34z" />
    <glyph glyph-name="dotaccent" unicode="&#x2d9;" horiz-adv-x="110" 
d="M55 573q-17 0 -30.5 12.5t-13.5 29.5q0 18 13.5 31t30.5 13q18 0 31.5 -13t13.5 -31q0 -17 -13.5 -29.5t-31.5 -12.5z" />
    <glyph glyph-name="ring" unicode="&#x2da;" horiz-adv-x="185" 
d="M93 539q-34 0 -58 24t-24 58t24 58t58 24t57.5 -24t23.5 -58t-23.5 -58t-57.5 -24zM93 568q21 0 36 16t15 37t-15 37t-36 16t-36.5 -16t-15.5 -37t15.5 -37t36.5 -16z" />
    <glyph glyph-name="ogonek" unicode="&#x2db;" horiz-adv-x="197" 
d="M101 -183q-40 0 -65 20t-25 61q0 30 22 61l141 94v-37q-49 -28 -71 -50.5t-22 -55.5q0 -26 14.5 -40t36.5 -14q20 0 54 13v-16q-34 -36 -85 -36z" />
    <glyph glyph-name="tilde" unicode="&#x2dc;" horiz-adv-x="331" 
d="M230 542q-34 0 -58 17t-44 34.5t-43 17.5q-28 0 -42.5 -12t-14.5 -27h-15q-9 36 17.5 63t71.5 27q33 0 56.5 -17t43.5 -34.5t44 -17.5q28 0 42.5 12.5t14.5 27.5h15q9 -36 -17 -63.5t-71 -27.5z" />
    <glyph glyph-name="hungarumlaut" unicode="&#x2dd;" horiz-adv-x="292" 
d="M25 516l-14 12q35 97 69 145q15 0 35 -14.5t26 -26.5q-10 -7 -21 -16.5t-18 -15.5t-20.5 -20.5t-17 -19t-20.5 -23.5t-19 -21zM166 516l-15 12q35 97 69 145q15 0 35 -14.5t26 -26.5q-12 -8 -23 -17.5t-24.5 -24t-20.5 -21.5t-24.5 -27.5t-22.5 -25.5z" />
    <glyph glyph-name="acutecomb" unicode="&#x301;" horiz-adv-x="0" 
d="M-126 516l-14 12q35 97 69 145q15 0 35 -14.5t26 -26.5q-10 -7 -21 -16.5t-18 -15.5t-20.5 -20.5t-17 -19t-20.5 -23.5t-19 -21z" />
    <glyph glyph-name="uni0326" unicode="&#x326;" horiz-adv-x="0" 
d="M-131 -288l-9 15q32 15 52.5 39t24.5 46q1 5 1.5 9.5t-1 7.5t-3 5t-5 3.5t-5.5 2.5t-6 2.5t-5 1.5q-29 18 -29 48q0 22 15 36t36 14q25 0 43 -19t18 -53q0 -45 -32.5 -90.5t-94.5 -67.5z" />
    <glyph glyph-name="uni0394" unicode="&#x394;" horiz-adv-x="562" 
d="M11 0l270 634l270 -634h-540zM59 53h382l-188 448z" />
    <glyph glyph-name="uni03A9" unicode="&#x3a9;" horiz-adv-x="742" 
d="M671 100h20l-36 -100h-200v71q46 22 90.5 94t44.5 170q0 120 -62.5 195.5t-156.5 75.5t-156.5 -75.5t-62.5 -195.5q0 -98 44.5 -170t90.5 -94v-71h-200l-36 100h20q15 -20 36 -24.5t64 -4.5h54q-64 33 -112 107.5t-48 166.5q0 112 85.5 202t220.5 90t220.5 -90t85.5 -202
q0 -92 -48 -166.5t-112 -107.5h54q30 0 43.5 1t30 7.5t26.5 20.5z" />
    <glyph glyph-name="uni03BC" unicode="&#x3bc;" horiz-adv-x="548" 
d="M456 83q0 -30 12.5 -44.5t53.5 -21.5v-17h-127l6 77h-11q-88 -86 -175 -86q-93 0 -119 84v-14q0 -54 12 -92.5t27 -53.5t27 -27.5t12 -20.5q0 -43 -34 -61q-31 -17 -51 6q-13 15 -13 43v316h11v205q0 18 -8.5 27.5t-19 12.5t-33.5 7v17q72 -4 126 6v-298q0 -100 91 -100
q79 0 148 56v272q0 18 -8.5 27.5t-19 12.5t-33.5 7v17q72 -4 126 6v-363z" />
    <glyph glyph-name="pi" unicode="&#x3c0;" horiz-adv-x="636" 
d="M553 89q37 0 37 -48q0 -24 -20 -37.5t-55 -13.5q-109 0 -109 140v278h-159v-292q0 -57 -28.5 -89.5t-68.5 -32.5q-26 0 -59 12l-15 27q42 -10 74 10.5t32 72.5v292h-56q-32 0 -43.5 -24.5t-1.5 -64.5l-26 11q-20 46 -1.5 83.5t59.5 37.5h452v-43h-94v-345q0 -13 5.5 -24
t12.5 -11q15 0 22.5 9.5t9 21t9.5 21t23 9.5z" />
    <glyph glyph-name="Wgrave" unicode="&#x1e80;" horiz-adv-x="1001" 
d="M506 706q-5 5 -22.5 25.5t-24.5 27.5t-20.5 21.5t-24.5 24t-23 17.5q5 12 24.5 26.5t35.5 14.5q34 -48 69 -145zM305 -8l-211 557q-12 32 -25.5 40.5t-57.5 16.5v22h224v-22q-5 -2 -14 -4t-15 -4t-13 -4.5t-11 -6.5t-7.5 -9t-3 -12.5t3.5 -16.5l166 -445l125 358
q17 47 -2.5 90.5t-69.5 55.5v22h134q0 -10 1.5 -22t3.5 -21t7 -24t7.5 -22t9.5 -25.5t9 -24.5l141 -386l142 402q9 24 9.5 41t-3.5 27t-18 16.5t-27.5 9.5t-39.5 7v22h215v-22q-32 -6 -42.5 -9.5t-21.5 -14t-19 -33.5l-202 -558h-29l-173 463l-164 -464h-29z" />
    <glyph glyph-name="wgrave" unicode="&#x1e81;" horiz-adv-x="784" 
d="M396 516q-5 5 -22.5 25.5t-24.5 27.5t-20.5 21.5t-24.5 24t-23 17.5q5 12 24.5 26.5t35.5 14.5q34 -48 69 -145zM223 -6l-143 386q-9 26 -21.5 33t-47.5 10v17h199v-17q-46 -6 -54 -18q-6 -9 0 -25l104 -286l99 239q15 41 1 68q-5 12 -15.5 15.5t-34.5 6.5v17h126
q0 -35 18 -77l104 -270l100 248q8 21 8 35.5t-5 23t-17.5 13.5t-23.5 7t-29 3v17h177v-17q-34 -3 -46 -10t-23 -33l-150 -386h-26l-134 342l-140 -342h-26z" />
    <glyph glyph-name="Wacute" unicode="&#x1e82;" horiz-adv-x="1001" 
d="M486 706l-15 12q39 103 69 145q16 0 36 -14.5t25 -26.5q-12 -8 -23 -17.5t-24.5 -24t-20.5 -21.5t-24.5 -27.5t-22.5 -25.5zM305 -8l-211 557q-12 32 -25.5 40.5t-57.5 16.5v22h224v-22q-5 -2 -14 -4t-15 -4t-13 -4.5t-11 -6.5t-7.5 -9t-3 -12.5t3.5 -16.5l166 -445
l125 358q17 47 -2.5 90.5t-69.5 55.5v22h134q0 -10 1.5 -22t3.5 -21t7 -24t7.5 -22t9.5 -25.5t9 -24.5l141 -386l142 402q9 24 9.5 41t-3.5 27t-18 16.5t-27.5 9.5t-39.5 7v22h215v-22q-32 -6 -42.5 -9.5t-21.5 -14t-19 -33.5l-202 -558h-29l-173 463l-164 -464h-29z" />
    <glyph glyph-name="wacute" unicode="&#x1e83;" horiz-adv-x="784" 
d="M376 516l-15 12q39 103 69 145q16 0 36 -14.5t25 -26.5q-12 -8 -23 -17.5t-24.5 -24t-20.5 -21.5t-24.5 -27.5t-22.5 -25.5zM223 -6l-143 386q-9 26 -21.5 33t-47.5 10v17h199v-17q-46 -6 -54 -18q-6 -9 0 -25l104 -286l99 239q15 41 1 68q-5 12 -15.5 15.5t-34.5 6.5v17
h126q0 -35 18 -77l104 -270l100 248q8 21 8 35.5t-5 23t-17.5 13.5t-23.5 7t-29 3v17h177v-17q-34 -3 -46 -10t-23 -33l-150 -386h-26l-134 342l-140 -342h-26z" />
    <glyph glyph-name="Wdieresis" unicode="&#x1e84;" horiz-adv-x="1001" 
d="M411 772q-17 0 -28 11t-11 28q0 18 11 29t28 11q18 0 29 -11t11 -29q0 -17 -11 -28t-29 -11zM591 772q-17 0 -28 11t-11 28q0 18 11 29t28 11q18 0 29 -11t11 -29q0 -17 -11 -28t-29 -11zM305 -8l-211 557q-12 32 -25.5 40.5t-57.5 16.5v22h224v-22q-5 -2 -14 -4t-15 -4
t-13 -4.5t-11 -6.5t-7.5 -9t-3 -12.5t3.5 -16.5l166 -445l125 358q17 47 -2.5 90.5t-69.5 55.5v22h134q0 -10 1.5 -22t3.5 -21t7 -24t7.5 -22t9.5 -25.5t9 -24.5l141 -386l142 402q9 24 9.5 41t-3.5 27t-18 16.5t-27.5 9.5t-39.5 7v22h215v-22q-32 -6 -42.5 -9.5t-21.5 -14
t-19 -33.5l-202 -558h-29l-173 463l-164 -464h-29z" />
    <glyph glyph-name="wdieresis" unicode="&#x1e85;" horiz-adv-x="784" 
d="M301 582q-17 0 -28 11t-11 28q0 18 11 29t28 11q18 0 29 -11t11 -29q0 -17 -11 -28t-29 -11zM481 582q-17 0 -28 11t-11 28q0 18 11 29t28 11q18 0 29 -11t11 -29q0 -17 -11 -28t-29 -11zM223 -6l-143 386q-9 26 -21.5 33t-47.5 10v17h199v-17q-46 -6 -54 -18
q-6 -9 0 -25l104 -286l99 239q15 41 1 68q-5 12 -15.5 15.5t-34.5 6.5v17h126q0 -35 18 -77l104 -270l100 248q8 21 8 35.5t-5 23t-17.5 13.5t-23.5 7t-29 3v17h177v-17q-34 -3 -46 -10t-23 -33l-150 -386h-26l-134 342l-140 -342h-26z" />
    <glyph glyph-name="uni1E9E" unicode="&#x1e9e;" horiz-adv-x="683" 
d="M421 342q95 -7 155.5 -52t60.5 -128q0 -77 -52 -129.5t-147 -52.5q-68 0 -124 32q-2 55 -17 122h21q31 -72 56.5 -99.5t62.5 -27.5q50 0 82.5 38.5t32.5 97.5q0 81 -63 128t-171 47l172 261q-60 20 -118 20q-33 0 -62 -10t-57 -33.5t-44.5 -70.5t-16.5 -113v-276
q0 -25 3.5 -39t16 -22t21.5 -10.5t36 -7.5v-17h-238v17q51 10 64 20q19 16 19 59v265q0 82 23.5 140t62.5 85.5t77.5 39t80.5 11.5q115 0 217 -62z" />
    <glyph glyph-name="uni1EBC" unicode="&#x1ebc;" horiz-adv-x="576" 
d="M153 762h-15q-9 36 17.5 63t71.5 27q33 0 56.5 -17t43.5 -34.5t44 -17.5q28 0 42.5 12.5t14.5 27.5h15q9 -36 -17 -63.5t-71 -27.5q-34 0 -58 17t-44 34.5t-43 17.5q-28 0 -42.5 -12t-14.5 -27zM518 145h22l-41 -145h-468v17q51 10 64 20q19 16 19 59v438q0 23 -3.5 37
t-17.5 22.5t-20.5 10.5t-33.5 7q-5 1 -8 2v17h466l9 -137h-22q-7 57 -27 81.5t-71 24.5h-101q-59 0 -76.5 -13t-17.5 -63v-190h89q86 0 110 17t29 67h16v-198h-16q-5 50 -29 67t-110 17h-89v-196q0 -50 17.5 -63t76.5 -13h80q59 0 92 24.5t61 89.5z" />
    <glyph glyph-name="uni1EBD" unicode="&#x1ebd;" horiz-adv-x="484" 
d="M109 572h-15q-9 36 17.5 63t71.5 27q33 0 56.5 -17t43.5 -34.5t44 -17.5q28 0 42.5 12t14.5 28h15q9 -36 -17 -63.5t-71 -27.5q-34 0 -58 17t-44 34.5t-43 17.5q-28 0 -42.5 -12t-14.5 -27zM422 107l15 -8q-18 -52 -64 -80t-107 -28q-94 0 -159.5 62t-65.5 163t60.5 167
t157.5 66q66 0 111 -34t58.5 -78.5t-0.5 -83.5h-319v-4q0 -87 51.5 -145.5t136.5 -58.5q87 0 125 62zM247 421q-51 0 -89.5 -37t-46.5 -103h254q7 49 -24.5 94.5t-93.5 45.5z" />
    <glyph glyph-name="Ygrave" unicode="&#x1ef2;" horiz-adv-x="649" 
d="M330 706q-5 5 -22.5 25.5t-24.5 27.5t-20.5 21.5t-24.5 24t-23 17.5q5 12 24.5 26.5t35.5 14.5q34 -48 69 -145zM436 630h192v-17q-40 -8 -53 -16.5t-35 -45.5l-176 -284v-166q0 -25 4.5 -39t20.5 -22t26 -10.5t42 -7.5v-22h-263v22q59 10 73 21q20 15 20 58v158
l-184 292q-24 37 -36 45.5t-51 16.5v17h229v-17q-40 -9 -55 -21.5t1 -40.5l156 -253l153 253q10 17 11.5 27.5t-9 16.5t-19 8.5t-31.5 6.5q-11 2 -16 3v17z" />
    <glyph glyph-name="ygrave" unicode="&#x1ef3;" horiz-adv-x="502" 
d="M258 516q-5 5 -22.5 25.5t-24.5 27.5t-20.5 21.5t-24.5 24t-23 17.5q5 12 24.5 26.5t35.5 14.5q34 -48 69 -145zM331 440h155v-17q-33 -4 -44 -11t-23 -35l-181 -424l-13.5 -33t-17 -33.5t-23.5 -34.5t-28 -22.5t-36 -10.5q-31 0 -62 23v51q124 -5 150 60l26 61l-156 364
q-11 27 -22.5 34t-44.5 11v17h193v-17q-47 -7 -55 -18q-8 -10 -1 -27l119 -287l122 286q3 14 3.5 21.5t-10 12.5t-19.5 7t-24 4q-5 1 -8 1v17z" />
    <glyph glyph-name="endash" unicode="&#x2013;" horiz-adv-x="667" 
d="M51 249v16h565v-16h-565z" />
    <glyph glyph-name="emdash" unicode="&#x2014;" horiz-adv-x="921" 
d="M51 249v16h819v-16h-819z" />
    <glyph glyph-name="uni2015" unicode="&#x2015;" horiz-adv-x="921" 
d="M51 249v16h819v-16h-819z" />
    <glyph glyph-name="quoteleft" unicode="&#x2018;" horiz-adv-x="218" 
d="M168 642l9 -15q-33 -15 -53 -38.5t-24 -46.5q-1 -5 -1.5 -9.5t1 -7.5t3 -5t5 -3.5t5.5 -2.5t5.5 -2.5t4.5 -1.5q29 -17 29 -48q0 -22 -15 -36t-36 -14q-25 0 -42.5 19t-17.5 53q0 45 32.5 90.5t94.5 67.5z" />
    <glyph glyph-name="quoteright" unicode="&#x2019;" horiz-adv-x="218" 
d="M50 417l-9 15q32 15 52.5 39t24.5 46q1 5 1.5 9.5t-1 7.5t-3 5t-5 3.5t-5.5 2.5t-6 2.5t-5 1.5q-29 18 -29 48q0 22 15 36t36 14q25 0 43 -19t18 -53q0 -45 -32.5 -90.5t-94.5 -67.5z" />
    <glyph glyph-name="quotesinglbase" unicode="&#x201a;" horiz-adv-x="218" 
d="M50 -142l-9 15q32 15 52.5 39t24.5 46q1 5 1.5 9t-1.5 7t-3 5t-5 4t-5 3t-6 2l-5 2q-29 18 -29 48q0 22 15 36t36 14q25 0 43 -19.5t18 -52.5q0 -45 -32.5 -90.5t-94.5 -67.5z" />
    <glyph glyph-name="quotedblleft" unicode="&#x201c;" horiz-adv-x="389" 
d="M168 642l9 -15q-33 -15 -53 -38.5t-24 -46.5q-1 -5 -1.5 -9.5t1 -7.5t3 -5t5 -3.5t5.5 -2.5t5.5 -2.5t4.5 -1.5q29 -17 29 -48q0 -22 -15 -36t-36 -14q-25 0 -42.5 19t-17.5 53q0 45 32.5 90.5t94.5 67.5zM339 642l9 -15q-33 -15 -53 -38.5t-24 -46.5q-1 -5 -1.5 -9.5
t1 -7.5t3 -5t5 -3.5t5.5 -2.5t5.5 -2.5t4.5 -1.5q29 -17 29 -48q0 -22 -15 -36t-36 -14q-25 0 -42.5 19t-17.5 53q0 45 32.5 90.5t94.5 67.5z" />
    <glyph glyph-name="quotedblright" unicode="&#x201d;" horiz-adv-x="389" 
d="M50 417l-9 15q32 15 52.5 39t24.5 46q1 5 1.5 9.5t-1 7.5t-3 5t-5 3.5t-5.5 2.5t-6 2.5t-5 1.5q-29 18 -29 48q0 22 15 36t36 14q25 0 43 -19t18 -53q0 -45 -32.5 -90.5t-94.5 -67.5zM221 417l-9 15q32 15 52.5 39t24.5 46q1 5 1.5 9.5t-1 7.5t-3 5t-5 3.5t-5.5 2.5
t-6 2.5t-5 1.5q-29 18 -29 48q0 22 15 36t36 14q25 0 43 -19t18 -53q0 -45 -32.5 -90.5t-94.5 -67.5z" />
    <glyph glyph-name="quotedblbase" unicode="&#x201e;" horiz-adv-x="389" 
d="M50 -137l-9 15q32 15 52.5 39t24.5 46q1 5 1.5 9t-1.5 7t-3 5t-5 4t-5 3t-6 3l-5 1q-29 18 -29 48q0 22 15 36t36 14q25 0 43 -19.5t18 -52.5q0 -45 -32.5 -90.5t-94.5 -67.5zM221 -137l-9 15q32 15 52.5 39t24.5 46q1 5 1.5 9t-1.5 7t-3 5t-5 4t-5 3t-6 3l-5 1
q-29 18 -29 48q0 22 15 36t36 14q25 0 43 -19.5t18 -52.5q0 -45 -32.5 -90.5t-94.5 -67.5z" />
    <glyph glyph-name="dagger" unicode="&#x2020;" horiz-adv-x="512" 
d="M253 -1l-36 334l32 59v56q-30 -1 -68.5 -23t-55.5 -22q-15 0 -29.5 15.5t-14.5 36.5q0 20 14.5 35.5t29.5 15.5q16 0 55 -21.5t69 -21.5q1 25 -20 64t-21 57t15 33t33 15t33 -15t15 -33t-20.5 -57t-19.5 -64q30 0 68.5 21.5t54.5 21.5t30.5 -15.5t14.5 -35.5
q0 -21 -14.5 -36.5t-30.5 -15.5t-54.5 22t-68.5 23v-56l32 -59l-36 -334h-7z" />
    <glyph glyph-name="daggerdbl" unicode="&#x2021;" horiz-adv-x="537" 
d="M256 5q-18 0 -33 15t-15 33t21 57t20 64q-30 0 -69 -22t-55 -22q-15 0 -29.5 15.5t-14.5 36.5t14.5 36.5t29.5 15.5q17 0 55.5 -22t68.5 -23v56l-32 78l32 69v56q-30 -1 -68.5 -23t-55.5 -22q-15 0 -29.5 15.5t-14.5 36.5q0 20 14.5 35.5t29.5 15.5q16 0 55 -21.5
t69 -21.5q1 25 -20 64t-21 57t15 33t33 15t33 -15t15 -33t-20.5 -57t-19.5 -64q30 0 68.5 21.5t54.5 21.5t30.5 -15.5t14.5 -35.5q0 -21 -14.5 -36.5t-30.5 -15.5t-54.5 22t-68.5 23v-56l32 -69l-32 -78v-56q30 1 68.5 23t54.5 22t30.5 -15.5t14.5 -36.5t-14.5 -36.5
t-30.5 -15.5t-54.5 22t-68.5 22q-1 -25 19.5 -64t20.5 -57t-15 -33t-33 -15z" />
    <glyph glyph-name="bullet" unicode="&#x2022;" horiz-adv-x="263" 
d="M132 204q-28 0 -49.5 21t-21.5 50t21.5 50t49.5 21t49 -21t21 -50t-21 -50t-49 -21z" />
    <glyph glyph-name="ellipsis" unicode="&#x2026;" horiz-adv-x="556" 
d="M102 -10q-21 0 -36 14t-15 35t15 35t36 14t36.5 -14t15.5 -35t-15.5 -35t-36.5 -14zM277 -10q-20 0 -35.5 14.5t-15.5 34.5t15.5 34.5t35.5 14.5q21 0 37 -14t16 -35t-16 -35t-37 -14zM453 -10q-21 0 -36 14t-15 35t15 35t36 14t36.5 -14t15.5 -35t-15.5 -35t-36.5 -14z
" />
    <glyph glyph-name="perthousand" unicode="&#x2030;" horiz-adv-x="958" 
d="M533 630h56l-447 -630h-48l401 559q-42 -24 -92 -22t-98 28q6 -21 6 -47q0 -76 -46.5 -137t-112.5 -61q-46 0 -73.5 32.5t-27.5 85.5q0 74 49 133.5t115 59.5q30 0 50 -13v1q31 -17 53 -27.5t49.5 -21t49 -11t43 4t40 21.5t33.5 45zM170 347q46 0 81 54.5t35 117.5
q0 42 -17 65t-47 23q-32 0 -57 -30t-36 -69.5t-11 -78.5q0 -82 52 -82zM524 309q45 0 70.5 -30.5t25.5 -82.5q0 -76 -46.5 -137t-112.5 -61q-46 0 -73.5 32.5t-27.5 85.5q0 74 49 133.5t115 59.5zM811 309q45 0 70.5 -30.5t25.5 -82.5q0 -76 -46.5 -137t-111.5 -61
q-46 0 -74 32.5t-28 85.5q0 74 49 133.5t115 59.5zM479 25q46 0 81 54.5t35 117.5q0 42 -17 65t-47 23q-48 0 -76 -57.5t-28 -120.5q0 -82 52 -82zM766 25q47 0 81.5 54t34.5 118q0 42 -17 65t-46 23q-48 0 -76.5 -57.5t-28.5 -120.5q0 -82 52 -82z" />
    <glyph glyph-name="guilsinglleft" unicode="&#x2039;" horiz-adv-x="263" 
d="M51 229l154 134l7 -12l-98 -122l98 -123l-8 -12z" />
    <glyph glyph-name="guilsinglright" unicode="&#x203a;" horiz-adv-x="263" 
d="M200 229l-153 -135l-8 12l98 123l-98 122l7 12z" />
    <glyph glyph-name="fraction" unicode="&#x2044;" horiz-adv-x="112" 
d="M-174 -5l432 641h28l-432 -641h-28z" />
    <glyph glyph-name="Euro" unicode="&#x20ac;" horiz-adv-x="750" 
d="M683 86l17 -17q-32 -35 -90 -58t-129 -23q-126 0 -215.5 72.5t-110.5 192.5h-104l5 25h95q-2 28 -2 42t2 40h-78l5 25h77q21 116 110 188.5t225 72.5q117 0 194 -46q4 -91 7 -135h-30q-17 76 -68 113t-123 37q-95 0 -157.5 -59t-72.5 -171h233l-5 -25h-230v-17
q0 -30 5 -65h208l-5 -25h-198q25 -102 99.5 -162t169.5 -60q44 0 91.5 13t74.5 42z" />
    <glyph glyph-name="uni210D" unicode="&#x210d;" horiz-adv-x="686" 
d="M655 613q-51 -10 -64 -20q-19 -16 -19 -59v-438q0 -23 3.5 -37t17.5 -22.5t20.5 -10.5t33.5 -7q5 -1 8 -2v-17h-624v17q51 10 64 20q19 16 19 59v438q0 23 -3.5 37t-17.5 22.5t-20.5 10.5t-33.5 7q-5 1 -8 2v17h624v-17zM414 613q-22 -4 -28.5 -5.5t-21 -7.5t-18.5 -13
t-8.5 -20.5t-4.5 -32.5v-203h162v203q0 19 -4.5 32.5t-8.5 20.5t-18.5 13t-21 7.5t-28.5 5.5zM191 331h64v203q0 52 -32 66q-32 -14 -32 -66v-203zM223 30q32 14 32 66v206h-64v-206q0 -52 32 -66zM414 17q22 4 28.5 5.5t21 7.5t18.5 13t8.5 20.5t4.5 32.5v206h-162v-206
q0 -19 4.5 -32.5t8.5 -20.5t18.5 -13t21 -7.5t28.5 -5.5z" />
    <glyph glyph-name="trademark" unicode="&#x2122;" horiz-adv-x="796" 
d="M96 299v17q42 4 50 12q9 9 9 32v250h-40q-37 0 -52.5 -17.5t-20.5 -56.5h-11l3 94h287l5 -94h-11q-7 40 -22 57t-52 17h-41l1 -250q0 -32 20 -39q8 -2 40 -5v-17h-165zM359 299v17q33 4 40 12q8 11 8 32v212q0 30 -23 37q-5 2 -26 6v15h88l119 -270l104 270h97v-15
q-34 -7 -41 -15q-7 -9 -7 -28l2 -212q0 -14 1.5 -22t9 -12.5t11 -5.5t17.5 -3q4 -1 6 -1v-17h-139v17q32 4 39 12q8 9 8 32l1 219l-113 -280h-19l-114 258l-3 -197q0 -6 1 -11t1.5 -9t3 -7t3.5 -5t5.5 -4t6 -2.5t7.5 -2t7.5 -1.5t9 -1t9.5 -1v-17h-120z" />
    <glyph glyph-name="oneeighth" unicode="&#x215b;" horiz-adv-x="646" 
d="M199 408v-10h-125v10q22 2 30 6t8 16v165q0 11 -4 14.5t-12 1.5l-20 -5v11l77 33l8 -6v-214q0 -12 8 -16t30 -6zM503 636h28l-432 -641h-28zM553 132q54 -23 54 -67q0 -33 -28.5 -54t-73.5 -21q-42 0 -69.5 19t-27.5 51q0 41 44 63q-28 22 -28 54q0 28 23.5 47.5
t60.5 19.5q35 0 56.5 -18t21.5 -42q0 -29 -33 -52zM508 227q-22 0 -32.5 -10.5t-10.5 -25.5q0 -28 43 -43l26 -9q21 17 21 44q0 18 -11.5 31t-35.5 13zM508 7q52 0 52 43q0 17 -10 26t-39 20l-27 10q-10 3 -15 7q-29 -19 -29 -50q0 -25 18 -40.5t50 -15.5z" />
    <glyph glyph-name="threeeighths" unicode="&#x215c;" horiz-adv-x="752" 
d="M226 470q0 -37 -34 -61.5t-82 -24.5q-27 0 -48 7.5t-21 22.5t17 15q9 0 25.5 -15.5t33.5 -15.5q23 0 42 16.5t19 44.5q0 27 -18 40.5t-45 13.5q-17 0 -36 -7l-5 12l31 12q32 12 45.5 22.5t13.5 28.5q0 32 -41 32t-64 -27l-10 8q32 47 92 47q29 0 47.5 -14t18.5 -37
q0 -33 -56 -58q31 -2 53 -17t22 -45zM560 636h28l-432 -641h-28zM658 132q54 -23 54 -67q0 -33 -28.5 -54t-73.5 -21q-42 0 -69.5 19t-27.5 51q0 41 44 63q-28 22 -28 54q0 28 23.5 47.5t60.5 19.5q35 0 56.5 -18t21.5 -42q0 -29 -33 -52zM613 227q-22 0 -32.5 -10.5
t-10.5 -25.5q0 -28 43 -43l26 -9q21 17 21 44q0 18 -11.5 31t-35.5 13zM613 7q52 0 52 43q0 17 -10 26t-39 20l-27 10q-10 3 -15 7q-29 -19 -29 -50q0 -25 18 -40.5t50 -15.5z" />
    <glyph glyph-name="fiveeighths" unicode="&#x215d;" horiz-adv-x="732" 
d="M227 481q0 -39 -34.5 -65t-82.5 -26q-25 0 -47 7.5t-22 22.5t17 15q10 0 26 -15.5t35 -15.5q23 0 41 16.5t18 43.5q0 63 -113 56l-7 8l39 112h67q39 0 48 12h9l-17 -49h-102l-17 -50q82 5 112 -18t30 -54zM539 636h28l-432 -641h-28zM637 132q54 -23 54 -67
q0 -33 -28.5 -54t-73.5 -21q-42 0 -69.5 19t-27.5 51q0 41 44 63q-28 22 -28 54q0 28 23.5 47.5t60.5 19.5q35 0 56.5 -18t21.5 -42q0 -29 -33 -52zM592 227q-22 0 -32.5 -10.5t-10.5 -25.5q0 -28 43 -43l26 -9q21 17 21 44q0 18 -11.5 31t-35.5 13zM592 7q52 0 52 43
q0 17 -10 26t-39 20l-27 10q-10 3 -15 7q-29 -19 -29 -50q0 -25 18 -40.5t50 -15.5z" />
    <glyph glyph-name="seveneighths" unicode="&#x215e;" horiz-adv-x="692" 
d="M110 398h-33q29 95 105 213h-83q-14 0 -20.5 -1.5t-14.5 -8t-14 -19.5h-9l21 66l18 -4h133l5 -6q-80 -122 -108 -240zM514 636h28l-432 -641h-28zM612 132q54 -23 54 -67q0 -33 -28.5 -54t-73.5 -21q-42 0 -69.5 19t-27.5 51q0 41 44 63q-28 22 -28 54q0 28 23.5 47.5
t60.5 19.5q35 0 56.5 -18t21.5 -42q0 -29 -33 -52zM567 227q-22 0 -32.5 -10.5t-10.5 -25.5q0 -28 43 -43l26 -9q21 17 21 44q0 18 -11.5 31t-35.5 13zM567 7q52 0 52 43q0 17 -10 26t-39 20l-27 10q-10 3 -15 7q-29 -19 -29 -50q0 -25 18 -40.5t50 -15.5z" />
    <glyph glyph-name="partialdiff" unicode="&#x2202;" horiz-adv-x="550" 
d="M277 -12q-98 0 -162 63.5t-64 156.5q0 112 93.5 164t219.5 2v-20q-117 23 -173.5 -24t-56.5 -131q0 -77 40.5 -130t104.5 -53q68 0 108.5 62.5t40.5 161.5q0 85 -26 156.5t-68.5 116.5t-92.5 71.5t-101 31.5l13 21q137 -8 246 -119t110 -261q1 -113 -61 -191t-171 -78z
" />
    <glyph glyph-name="emptyset" unicode="&#x2205;" horiz-adv-x="536" 
d="M437 373q59 -65 59 -153q0 -95 -66.5 -162t-161.5 -67q-86 0 -151 57l-55 -55l-17 18l54 55q-59 64 -59 154q0 94 67 161t161 67q88 0 153 -59l55 56l17 -16zM64 220q0 -79 53 -137l286 288q-59 52 -135 52q-84 0 -144 -59.5t-60 -143.5zM268 16q84 0 143.5 59.5
t59.5 144.5q0 76 -52 135l-285 -289q58 -50 134 -50z" />
    <glyph glyph-name="product" unicode="&#x220f;" horiz-adv-x="606" 
d="M535 800v-1000h-35v965h-394v-965h-35v1000h464z" />
    <glyph glyph-name="summation" unicode="&#x2211;" horiz-adv-x="572" 
d="M501 800v-35h-389l305 -466l-305 -464h389v-35h-430v35l290 465l-290 465v35h430z" />
    <glyph glyph-name="minus" unicode="&#x2212;" horiz-adv-x="512" 
d="M71 234v35h370v-35h-370z" />
    <glyph glyph-name="radical" unicode="&#x221a;" horiz-adv-x="691" 
d="M283 -185l-156 324q-19 41 -34.5 56.5t-51.5 28.5v27h91l161 -318l291 868h97v-22q-44 -13 -56.5 -25t-25.5 -50z" />
    <glyph glyph-name="infinity" unicode="&#x221e;" horiz-adv-x="675" 
d="M198 83q-66 0 -111.5 49t-45.5 139q0 88 42.5 136t102.5 48q82 0 144 -94q51 93 145 93q67 0 113 -49t46 -139q0 -88 -43 -136t-103 -48q-82 0 -144 95q-52 -94 -146 -94zM177 155q34 0 64 23.5t47 71.5l25 74q-47 67 -123 67q-48 0 -83.5 -26.5t-35.5 -91.5
q0 -62 31.5 -90t74.5 -28zM484 146q47 0 83 26.5t36 91.5q0 62 -31.5 90t-74.5 28q-77 0 -111 -94l-26 -75q48 -67 124 -67z" />
    <glyph glyph-name="integral" unicode="&#x222b;" horiz-adv-x="646" 
d="M108 -175q-66 0 -82 42q10 44 48 58q8 -26 27 -43t47 -17q37 0 69 34t43 119l49 412q15 126 75.5 190.5t153.5 64.5q66 0 82 -42q-10 -44 -48 -58q-8 26 -27 43t-47 17q-38 0 -70 -34t-42 -119l-52 -421q-15 -125 -74 -185.5t-152 -60.5z" />
    <glyph glyph-name="approxequal" unicode="&#x2248;" horiz-adv-x="527" 
d="M311 285q-40 0 -69.5 17t-53 34t-50.5 17q-34 0 -51 -13t-17 -30h-19q-11 38 21 66.5t86 28.5q31 0 56 -11t39 -23.5t34.5 -23.5t43.5 -11q33 0 50 13t17 31h19q11 -38 -21 -66.5t-85 -28.5zM311 115q-40 0 -69.5 17t-53 34t-50.5 17q-34 0 -51 -13t-17 -30h-19
q-11 38 21 66.5t86 28.5q31 0 56 -11t39 -23.5t34.5 -23.5t43.5 -11q33 0 50 13t17 31h19q11 -38 -21 -66.5t-85 -28.5z" />
    <glyph glyph-name="notequal" unicode="&#x2260;" horiz-adv-x="512" 
d="M441 324h-134l-60 -145h194v-35h-209l-60 -144h-39l60 144h-122v35h137l60 145h-197v35h212l57 137h39l-57 -137h119v-35z" />
    <glyph glyph-name="lessequal" unicode="&#x2264;" horiz-adv-x="506" 
d="M435 144q-196 107 -364 171v35q168 64 364 171v-38q-24 -14 -54.5 -29.5t-54 -27t-60.5 -27.5t-54 -23.5t-56 -23.5t-47 -19q4 -2 69.5 -29.5t93 -39.5t77.5 -36.5t86 -45.5v-38zM435 13h-370v35h370v-35z" />
    <glyph glyph-name="greaterequal" unicode="&#x2265;" horiz-adv-x="506" 
d="M71 144v38q29 17 61.5 34t74.5 35.5t63 28t71 30.5t56 23q-236 97 -326 150v38q196 -107 364 -171v-35q-168 -64 -364 -171zM71 13v35h370v-35h-370z" />
    <glyph glyph-name="lozenge" unicode="&#x25ca;" horiz-adv-x="605" 
d="M302 -18l-251 328l251 329l252 -329zM302 40l208 270l-208 271l-207 -271z" />
    <glyph glyph-name="M.ss01" horiz-adv-x="801" 
d="M770 613q-51 -10 -63 -20q-19 -16 -19 -59v-438q0 -23 5 -37.5t14.5 -21.5t23.5 -11.5t31 -7.5q5 0 8 -1v-17h-243v17q52 10 65 20q19 16 19 59l-1 446l-213 -542h-30l-217 503v-407q0 -23 4 -37t19 -22.5t22 -10.5t36 -7q6 -1 9 -2v-17h-209v17q52 10 65 20q19 16 19 59
v438q0 23 -4 37t-17.5 22.5t-21 10.5t-32.5 7q-6 1 -9 2v17h149q2 -13 31 -77l193 -446l172 446q25 66 27 77h167v-17z" />
    <glyph glyph-name="W.ss01" horiz-adv-x="933" 
d="M739 630h183v-17q-50 -10 -60 -17q-14 -10 -25 -38l-231 -565h-36l-105 249l-102 -249h-34l-237 562q-14 33 -27 41.5t-54 16.5v17h668v-17q-50 -10 -60 -17q-14 -10 -25 -38l-86 -212l104 -254l188 465q4 9 5 16.5t-2.5 12.5t-5.5 8.5t-11 6.5t-13 4t-17 4t-17 4v17z
M370 94l77 191l-114 270q-15 36 -30.5 46.5t-57.5 10.5q-41 0 -60 -12.5t-4 -44.5zM490 612q-44 0 -63 -12.5t-5 -44.5l68 -165l67 167q13 31 -6.5 43t-60.5 12z" />
    <glyph glyph-name="i.loclTRK" horiz-adv-x="263" 
d="M128 573q-18 0 -31.5 12.5t-13.5 29.5q0 18 13.5 31t31.5 13q17 0 30.5 -13t13.5 -31q0 -17 -13.5 -29.5t-30.5 -12.5zM31 0v17q21 4 26.5 5t18.5 6.5t17 15t4 25.5v251q0 30 -12.5 44t-53.5 19v15q28 5 43 12t35 22.5t32 23.5l21 -19v-368q0 -16 4 -25.5t17 -15
t18.5 -6.5t26.5 -5v-17h-197z" />
    <glyph glyph-name="T_h" horiz-adv-x="1121" 
d="M1029 69q0 -16 4 -25.5t17 -15t18.5 -6.5t26.5 -5v-17h-198v17q21 3 27.5 4.5t19 7t16.5 15t4 25.5v227q0 44 -22 71.5t-69 27.5q-81 0 -141 -73v-253q0 -13 4.5 -22t7.5 -13.5t16.5 -8.5t17 -4.5t22.5 -3.5v-17h-206v17q2 0 12 2t13.5 2.5t12 3t12 4.5t9 6t8 8.5t4.5 11
t2 14.5v399q0 73 -28 104.5t-118 31.5h-146v-508q0 -14 2.5 -25t4.5 -18t11.5 -13t13 -9t19.5 -6t21.5 -4t28.5 -4v-17h-279v17q23 3 28.5 4t21.5 4t19.5 6t13 9t11.5 13t4.5 18t2.5 25v508h-102q-78 0 -108 -31.5t-41 -104.5h-16l8 172l46 -10h509q70 15 118 57l20 -19
v-315h2q31 43 76.5 69.5t98.5 26.5q66 0 93 -40t27 -114v-226z" />
    <glyph glyph-name="f_b" horiz-adv-x="862" 
d="M648 449q72 0 122.5 -57t50.5 -152q0 -111 -69 -180t-169 -69q-74 0 -125.5 47t-51.5 121v402q0 38 -30 60.5t-88 22.5q-57 0 -87.5 -32t-30.5 -122v-60l124 9q-5 -16 -5 -40h-119v-330q0 -19 13.5 -30t27 -13.5t46.5 -6.5q10 -1 15 -2v-17h-246v17q3 0 14.5 2t14.5 3
t12 3t12 4t8.5 6t7.5 8.5t4 11t2 14.5v330h-75v19l75 15v2q0 124 61 186t165 62q63 0 147 -28v-304q25 41 72 69.5t102 28.5zM590 21q61 0 113.5 44.5t52.5 134.5q0 84 -46 138t-111 54q-44 0 -76.5 -21t-48.5 -51v-173q0 -53 28.5 -89.5t87.5 -36.5z" />
    <glyph glyph-name="f_h" horiz-adv-x="853" 
d="M755 69q0 -13 4 -22t8 -13.5t17 -8.5t18.5 -4.5t24.5 -3.5v-17h-204v17q21 3 27 4.5t19 7t17 15t4 25.5v227q0 44 -18.5 67.5t-65.5 23.5q-66 0 -135 -63v-255q0 -8 2 -14.5t4.5 -11t8 -8.5t9 -6t12 -4.5t12 -3t13.5 -2.5t12 -2v-17h-211v17q2 0 12 2t13.5 2.5t12 3
t12 4.5t9 6t8 8.5t4.5 11t2 14.5v492q0 38 -31 60.5t-87 22.5q-57 0 -87.5 -32t-30.5 -122v-60l124 9q-5 -16 -5 -40h-119v-330q0 -19 13.5 -30t27 -13.5t46.5 -6.5q10 -1 15 -2v-17h-246v17q3 0 14.5 2t14.5 3t12 3t12 4t8.5 6t7.5 8.5t4 11t2 14.5v330h-75v19l75 15v2
q0 124 61 186t165 62q64 0 144 -28v-300h1q31 31 50.5 48t51.5 31.5t67 14.5q64 0 89 -41t25 -113v-226z" />
    <glyph glyph-name="f_j" horiz-adv-x="548" 
d="M487 628v-3q0 -17 -13.5 -29.5t-31.5 -12.5q-17 0 -30 12t-14 29q0 37 -41 37q-80 0 -133.5 -59t-53.5 -167v-5l104 9q-5 -16 -5 -40h-99v-330q0 -19 13.5 -30t27 -13.5t46.5 -6.5q10 -1 15 -2v-17h-246v17q3 0 14.5 2t14.5 3t12 3t12 4t8.5 6t7.5 8.5t4 11t2 14.5v330
h-75v19l75 15q3 113 74.5 184t185.5 71q126 0 126 -60zM350 398q28 5 43 12t35 22.5t32 23.5l21 -19v-454q0 -148 -151 -168q-4 4 -4 11t4 10q47 17 66.5 47t19.5 98v339q0 30 -12.5 44t-53.5 19v15z" />
    <glyph glyph-name="f_k" horiz-adv-x="815" 
d="M736 53q13 -18 27.5 -24.5t46.5 -10.5v-18h-130q0 17 -18 48l-133 191l-58 -57v-113q0 -8 2 -14.5t4.5 -11t8 -8.5t9 -6t12 -4.5t12 -3t13.5 -2.5t12 -2v-17h-211v17q2 0 12 2t13.5 2.5t12 3t12 4.5t9 6t8 8.5t4.5 11t2 14.5v492q0 38 -31 60.5t-87 22.5q-57 0 -87.5 -32
t-30.5 -122v-60l124 9q-5 -16 -5 -40h-119v-330q0 -19 13.5 -30t27 -13.5t46.5 -6.5q10 -1 15 -2v-17h-246v17q3 0 14.5 2t14.5 3t12 3t12 4t8.5 6t7.5 8.5t4 11t2 14.5v330h-75v19l75 15v2q0 124 61 186t165 62q64 0 144 -28v-428l145 141q23 22 14 36t-47 18v18h189v-18
q-66 -6 -105 -48l-95 -93z" />
    <glyph glyph-name="t_t" horiz-adv-x="621" 
d="M466 108q0 -25 13.5 -38t34.5 -13.5t41.5 3.5t39.5 12v-20q-33 -20 -126 -62q-25 0 -46.5 26t-21.5 57v333h-240v-298q0 -25 13.5 -38t34 -13t42 7t39.5 18v-20q-35 -31 -126 -72q-25 0 -46.5 26t-21.5 57v333h-70v23q79 35 113 100h22v-99l170 -1l8 -1q66 30 105 101h22
v-95l123 15q-5 -15 -5 -43h-118v-298z" />
    <glyph glyph-name="a.sc" horiz-adv-x="605" 
d="M518 75q14 -33 26.5 -41.5t49.5 -16.5v-17h-221v17l18 4.5t18.5 5t13 5.5t10.5 9t2 14t-5 20l-46 112h-206l-50 -114q-4 -9 -5 -16.5t1.5 -12.5t5.5 -8.5t10.5 -6.5t12 -4.5t15.5 -4t16 -3.5v-17h-173v17q46 10 56 18q12 10 24 37l203 458h34zM191 216h181l-88 213z" />
    <glyph glyph-name="aacute.sc" horiz-adv-x="605" 
d="M404 722q-10 -7 -21 -16.5t-18 -15.5t-20.5 -20.5t-17 -19t-20.5 -23.5t-19 -21l-14 12q35 97 69 145q15 0 35 -14.5t26 -26.5zM518 75q14 -33 26.5 -41.5t49.5 -16.5v-17h-221v17l18 4.5t18.5 5t13 5.5t10.5 9t2 14t-5 20l-46 112h-206l-50 -114q-4 -9 -5 -16.5
t1.5 -12.5t5.5 -8.5t10.5 -6.5t12 -4.5t15.5 -4t16 -3.5v-17h-173v17q46 10 56 18q12 10 24 37l203 458h34zM191 216h181l-88 213z" />
    <glyph glyph-name="abreve.sc" horiz-adv-x="605" 
d="M304 649q-63 0 -94 34t-31 86h17q12 -65 108 -65q97 0 107 65h17q0 -52 -30.5 -86t-93.5 -34zM518 75q14 -33 26.5 -41.5t49.5 -16.5v-17h-221v17l18 4.5t18.5 5t13 5.5t10.5 9t2 14t-5 20l-46 112h-206l-50 -114q-4 -9 -5 -16.5t1.5 -12.5t5.5 -8.5t10.5 -6.5t12 -4.5
t15.5 -4t16 -3.5v-17h-173v17q46 10 56 18q12 10 24 37l203 458h34zM191 216h181l-88 213z" />
    <glyph glyph-name="acircumflex.sc" horiz-adv-x="605" 
d="M304 712l-122 -98l-12 7l134 155l135 -153l-12 -9zM518 75q14 -33 26.5 -41.5t49.5 -16.5v-17h-221v17l18 4.5t18.5 5t13 5.5t10.5 9t2 14t-5 20l-46 112h-206l-50 -114q-4 -9 -5 -16.5t1.5 -12.5t5.5 -8.5t10.5 -6.5t12 -4.5t15.5 -4t16 -3.5v-17h-173v17q46 10 56 18
q12 10 24 37l203 458h34zM191 216h181l-88 213z" />
    <glyph glyph-name="adieresis.sc" horiz-adv-x="605" 
d="M214 672q-17 0 -28 11t-11 28q0 18 11 29t28 11q18 0 29 -11t11 -29q0 -17 -11 -28t-29 -11zM394 672q-17 0 -28 11t-11 28q0 18 11 29t28 11q18 0 29 -11t11 -29q0 -17 -11 -28t-29 -11zM518 75q14 -33 26.5 -41.5t49.5 -16.5v-17h-221v17l18 4.5t18.5 5t13 5.5t10.5 9
t2 14t-5 20l-46 112h-206l-50 -114q-4 -9 -5 -16.5t1.5 -12.5t5.5 -8.5t10.5 -6.5t12 -4.5t15.5 -4t16 -3.5v-17h-173v17q46 10 56 18q12 10 24 37l203 458h34zM191 216h181l-88 213z" />
    <glyph glyph-name="agrave.sc" horiz-adv-x="605" 
d="M308 606q-5 5 -22.5 25.5t-24.5 27.5t-20.5 21.5t-24.5 24t-23 17.5q5 12 25 26.5t36 14.5q30 -42 69 -145zM518 75q14 -33 26.5 -41.5t49.5 -16.5v-17h-221v17l18 4.5t18.5 5t13 5.5t10.5 9t2 14t-5 20l-46 112h-206l-50 -114q-4 -9 -5 -16.5t1.5 -12.5t5.5 -8.5
t10.5 -6.5t12 -4.5t15.5 -4t16 -3.5v-17h-173v17q46 10 56 18q12 10 24 37l203 458h34zM191 216h181l-88 213z" />
    <glyph glyph-name="amacron.sc" horiz-adv-x="605" 
d="M452 727l-15 -30h-280l15 30h280zM518 75q14 -33 26.5 -41.5t49.5 -16.5v-17h-221v17l18 4.5t18.5 5t13 5.5t10.5 9t2 14t-5 20l-46 112h-206l-50 -114q-4 -9 -5 -16.5t1.5 -12.5t5.5 -8.5t10.5 -6.5t12 -4.5t15.5 -4t16 -3.5v-17h-173v17q46 10 56 18q12 10 24 37
l203 458h34zM191 216h181l-88 213z" />
    <glyph glyph-name="aogonek.sc" horiz-adv-x="605" 
d="M515 0q-49 -28 -71 -50.5t-22 -55.5q0 -26 14.5 -40t36.5 -14q20 0 54 13v-16q-34 -36 -85 -36q-40 0 -65 20t-25 61q0 30 22 61l86 57h-87v17l18 4.5t18.5 5t13 5.5t10.5 9t2 14t-5 20l-46 112h-206l-50 -114q-4 -9 -5 -16.5t1.5 -12.5t5.5 -8.5t10.5 -6.5t12 -4.5
t15.5 -4t16 -3.5v-17h-173v17q46 10 56 18q12 10 24 37l203 458h34l190 -455q14 -33 26.5 -41.5t49.5 -16.5v-17h-79zM191 216h181l-88 213z" />
    <glyph glyph-name="aring.sc" horiz-adv-x="605" 
d="M304 629q-34 0 -58 24t-24 58t24 58t58 24t57.5 -24t23.5 -58t-23.5 -58t-57.5 -24zM304 764q-21 0 -36.5 -16t-15.5 -37t15.5 -37t36.5 -16t36 16t15 37t-15 37t-36 16zM518 75q14 -33 26.5 -41.5t49.5 -16.5v-17h-221v17l18 4.5t18.5 5t13 5.5t10.5 9t2 14t-5 20
l-46 112h-206l-50 -114q-4 -9 -5 -16.5t1.5 -12.5t5.5 -8.5t10.5 -6.5t12 -4.5t15.5 -4t16 -3.5v-17h-173v17q46 10 56 18q12 10 24 37l203 458h34zM191 216h181l-88 213z" />
    <glyph glyph-name="atilde.sc" horiz-adv-x="605" 
d="M168 662h-15q-9 36 17.5 63t71.5 27q33 0 56.5 -17t43.5 -34.5t44 -17.5q28 0 42.5 12.5t14.5 27.5h15q9 -36 -17 -63.5t-71 -27.5q-34 0 -58 17t-44 34.5t-43 17.5q-28 0 -42.5 -12t-14.5 -27zM518 75q14 -33 26.5 -41.5t49.5 -16.5v-17h-221v17l18 4.5t18.5 5t13 5.5
t10.5 9t2 14t-5 20l-46 112h-206l-50 -114q-4 -9 -5 -16.5t1.5 -12.5t5.5 -8.5t10.5 -6.5t12 -4.5t15.5 -4t16 -3.5v-17h-173v17q46 10 56 18q12 10 24 37l203 458h34zM191 216h181l-88 213z" />
    <glyph glyph-name="ae.sc" horiz-adv-x="853" 
d="M795 135h22l-41 -135h-445v17q47 10 59 20q19 16 19 59v111h-189l-84 -134q-5 -8 -7 -14.5t-2.5 -11t3 -8.5t6 -6.5t10 -5t11 -3.5t13.5 -3.5l14 -3.5v-17h-173v17q39 8 54 16.5t34 38.5l271 432q-16 4 -39 9v17h443l9 -127h-22q-7 50 -27 73t-71 23h-83q-59 0 -76.5 -13
t-17.5 -63v-140h89q72 0 94 16t27 58h16v-178h-16q-5 42 -27 58t-94 16h-89v-146q0 -50 17.5 -63t76.5 -13h62q58 0 91.5 23t61.5 81zM236 234h173v200q0 37 -14 54z" />
    <glyph glyph-name="b.sc" horiz-adv-x="583" 
d="M373 280q164 -32 164 -136q0 -71 -66 -107.5t-189 -36.5h-251v17q47 10 59 20q19 16 19 59v338q0 23 -4 37t-16 22t-20 11t-29 7q-6 1 -9 2v17h251q212 0 212 -124q0 -44 -33 -76t-88 -50zM405 401q0 98 -140 98q-50 -1 -64.5 -11.5t-14.5 -37.5v-159h91q128 0 128 110z
M290 31q76 0 113.5 29t37.5 73q0 53 -45.5 91.5t-137.5 38.5h-72v-156q0 -40 21.5 -58t82.5 -18z" />
    <glyph glyph-name="c.sc" horiz-adv-x="596" 
d="M327 -12q-121 0 -198.5 76t-77.5 194q0 124 81.5 204t205.5 80q53 0 106 -14t84 -32q4 -91 7 -135h-30q-17 74 -71 112t-121 38q-78 0 -125.5 -52t-47.5 -158q0 -126 66 -198t156 -72q41 0 90.5 13t76.5 42l16 -17q-31 -34 -91.5 -57.5t-126.5 -23.5z" />
    <glyph glyph-name="cacute.sc" horiz-adv-x="596" 
d="M313 606l-14 12q35 97 69 145q15 0 35 -14.5t26 -26.5q-10 -7 -21 -16.5t-18 -15.5t-20.5 -20.5t-17 -19t-20.5 -23.5t-19 -21zM327 -12q-121 0 -198.5 76t-77.5 194q0 124 81.5 204t205.5 80q53 0 106 -14t84 -32q4 -91 7 -135h-30q-17 74 -71 112t-121 38
q-78 0 -125.5 -52t-47.5 -158q0 -126 66 -198t156 -72q41 0 90.5 13t76.5 42l16 -17q-31 -34 -91.5 -57.5t-126.5 -23.5z" />
    <glyph glyph-name="ccaron.sc" horiz-adv-x="596" 
d="M326 615l-134 155l12 7l122 -98l123 98l12 -8zM327 -12q-121 0 -198.5 76t-77.5 194q0 124 81.5 204t205.5 80q53 0 106 -14t84 -32q4 -91 7 -135h-30q-17 74 -71 112t-121 38q-78 0 -125.5 -52t-47.5 -158q0 -126 66 -198t156 -72q41 0 90.5 13t76.5 42l16 -17
q-31 -34 -91.5 -57.5t-126.5 -23.5z" />
    <glyph glyph-name="ccedilla.sc" horiz-adv-x="596" 
d="M327 -12h-1l-22 -43q44 0 70.5 -20t26.5 -53q0 -35 -34 -59.5t-112 -24.5l5 19q43 0 67 13.5t24 34.5q0 47 -106 47l45 88q-106 12 -172.5 85.5t-66.5 182.5q0 124 81.5 204t205.5 80q53 0 106 -14t84 -32q4 -91 7 -135h-30q-17 74 -71 112t-121 38q-78 0 -125.5 -52
t-47.5 -158q0 -126 66 -198t156 -72q41 0 90.5 13t76.5 42l16 -17q-31 -34 -91.5 -57.5t-126.5 -23.5z" />
    <glyph glyph-name="cdotaccent.sc" horiz-adv-x="596" 
d="M328 663q-17 0 -30.5 12.5t-13.5 29.5q0 18 13.5 31t30.5 13q18 0 31.5 -13t13.5 -31q0 -17 -13.5 -29.5t-31.5 -12.5zM327 -12q-121 0 -198.5 76t-77.5 194q0 124 81.5 204t205.5 80q53 0 106 -14t84 -32q4 -91 7 -135h-30q-17 74 -71 112t-121 38q-78 0 -125.5 -52
t-47.5 -158q0 -126 66 -198t156 -72q41 0 90.5 13t76.5 42l16 -17q-31 -34 -91.5 -57.5t-126.5 -23.5z" />
    <glyph glyph-name="d.sc" horiz-adv-x="623" 
d="M261 530q136 0 223.5 -68t87.5 -193q0 -129 -86.5 -199t-224.5 -70h-230v17q47 10 59 20q19 16 19 59v338q0 23 -4 37t-16 22t-20 11t-29 7q-6 1 -9 2v17h230zM289 32q109 0 152.5 61t43.5 166q0 50 -10 89t-34 75t-72 55.5t-118 19.5h-65v-370q0 -53 21.5 -74.5
t81.5 -21.5z" />
    <glyph glyph-name="dcaron.sc" horiz-adv-x="623" 
d="M444 769l-135 -154l-134 155l12 7l122 -98l123 98zM261 530q136 0 223.5 -68t87.5 -193q0 -129 -86.5 -199t-224.5 -70h-230v17q47 10 59 20q19 16 19 59v338q0 23 -4 37t-16 22t-20 11t-29 7q-6 1 -9 2v17h230zM289 32q109 0 152.5 61t43.5 166q0 50 -10 89t-34 75
t-72 55.5t-118 19.5h-65v-370q0 -53 21.5 -74.5t81.5 -21.5z" />
    <glyph glyph-name="e.sc" horiz-adv-x="553" 
d="M495 135h22l-41 -135h-445v17q47 10 59 20q19 16 19 59v338q0 23 -4 37t-16 22t-20 11t-29 7q-6 1 -9 2v17h443l9 -127h-22q-7 50 -27 73t-71 23h-83q-59 0 -76.5 -13t-17.5 -63v-140h89q72 0 94 16t27 58h16v-178h-16q-5 42 -27 58t-94 16h-89v-146q0 -50 17.5 -63
t76.5 -13h62q58 0 91.5 23t61.5 81z" />
    <glyph glyph-name="eacute.sc" horiz-adv-x="553" 
d="M376 722q-10 -7 -21 -16.5t-18 -15.5t-20.5 -20.5t-17 -19t-20.5 -23.5t-19 -21l-14 12q35 97 69 145q15 0 35 -14.5t26 -26.5zM495 135h22l-41 -135h-445v17q47 10 59 20q19 16 19 59v338q0 23 -4 37t-16 22t-20 11t-29 7q-6 1 -9 2v17h443l9 -127h-22q-7 50 -27 73
t-71 23h-83q-59 0 -76.5 -13t-17.5 -63v-140h89q72 0 94 16t27 58h16v-178h-16q-5 42 -27 58t-94 16h-89v-146q0 -50 17.5 -63t76.5 -13h62q58 0 91.5 23t61.5 81z" />
    <glyph glyph-name="ecaron.sc" horiz-adv-x="553" 
d="M409 769l-135 -154l-134 155l12 7l122 -98l123 98zM495 135h22l-41 -135h-445v17q47 10 59 20q19 16 19 59v338q0 23 -4 37t-16 22t-20 11t-29 7q-6 1 -9 2v17h443l9 -127h-22q-7 50 -27 73t-71 23h-83q-59 0 -76.5 -13t-17.5 -63v-140h89q72 0 94 16t27 58h16v-178h-16
q-5 42 -27 58t-94 16h-89v-146q0 -50 17.5 -63t76.5 -13h62q58 0 91.5 23t61.5 81z" />
    <glyph glyph-name="ecircumflex.sc" horiz-adv-x="553" 
d="M276 712l-122 -98l-12 7l134 155l135 -153l-12 -9zM495 135h22l-41 -135h-445v17q47 10 59 20q19 16 19 59v338q0 23 -4 37t-16 22t-20 11t-29 7q-6 1 -9 2v17h443l9 -127h-22q-7 50 -27 73t-71 23h-83q-59 0 -76.5 -13t-17.5 -63v-140h89q72 0 94 16t27 58h16v-178h-16
q-5 42 -27 58t-94 16h-89v-146q0 -50 17.5 -63t76.5 -13h62q58 0 91.5 23t61.5 81z" />
    <glyph glyph-name="edieresis.sc" horiz-adv-x="553" 
d="M186 672q-17 0 -28 11t-11 28q0 18 11 29t28 11q18 0 29 -11t11 -29q0 -17 -11 -28t-29 -11zM366 672q-17 0 -28 11t-11 28q0 18 11 29t28 11q18 0 29 -11t11 -29q0 -17 -11 -28t-29 -11zM495 135h22l-41 -135h-445v17q47 10 59 20q19 16 19 59v338q0 23 -4 37t-16 22
t-20 11t-29 7q-6 1 -9 2v17h443l9 -127h-22q-7 50 -27 73t-71 23h-83q-59 0 -76.5 -13t-17.5 -63v-140h89q72 0 94 16t27 58h16v-178h-16q-5 42 -27 58t-94 16h-89v-146q0 -50 17.5 -63t76.5 -13h62q58 0 91.5 23t61.5 81z" />
    <glyph glyph-name="edotaccent.sc" horiz-adv-x="553" 
d="M276 663q-17 0 -30.5 12.5t-13.5 29.5q0 18 13.5 31t30.5 13q18 0 31.5 -13t13.5 -31q0 -17 -13.5 -29.5t-31.5 -12.5zM495 135h22l-41 -135h-445v17q47 10 59 20q19 16 19 59v338q0 23 -4 37t-16 22t-20 11t-29 7q-6 1 -9 2v17h443l9 -127h-22q-7 50 -27 73t-71 23h-83
q-59 0 -76.5 -13t-17.5 -63v-140h89q72 0 94 16t27 58h16v-178h-16q-5 42 -27 58t-94 16h-89v-146q0 -50 17.5 -63t76.5 -13h62q58 0 91.5 23t61.5 81z" />
    <glyph glyph-name="egrave.sc" horiz-adv-x="553" 
d="M280 606q-5 5 -22.5 25.5t-24.5 27.5t-20.5 21.5t-24.5 24t-23 17.5q5 12 25 26.5t36 14.5q30 -42 69 -145zM495 135h22l-41 -135h-445v17q47 10 59 20q19 16 19 59v338q0 23 -4 37t-16 22t-20 11t-29 7q-6 1 -9 2v17h443l9 -127h-22q-7 50 -27 73t-71 23h-83
q-59 0 -76.5 -13t-17.5 -63v-140h89q72 0 94 16t27 58h16v-178h-16q-5 42 -27 58t-94 16h-89v-146q0 -50 17.5 -63t76.5 -13h62q58 0 91.5 23t61.5 81z" />
    <glyph glyph-name="emacron.sc" horiz-adv-x="553" 
d="M424 727l-15 -30h-280l15 30h280zM495 135h22l-41 -135h-445v17q47 10 59 20q19 16 19 59v338q0 23 -4 37t-16 22t-20 11t-29 7q-6 1 -9 2v17h443l9 -127h-22q-7 50 -27 73t-71 23h-83q-59 0 -76.5 -13t-17.5 -63v-140h89q72 0 94 16t27 58h16v-178h-16q-5 42 -27 58
t-94 16h-89v-146q0 -50 17.5 -63t76.5 -13h62q58 0 91.5 23t61.5 81z" />
    <glyph glyph-name="eogonek.sc" horiz-adv-x="553" 
d="M436 0q-49 -28 -71 -50.5t-22 -55.5q0 -26 14.5 -40t36.5 -14q20 0 54 13v-16q-34 -36 -85 -36q-40 0 -65 20t-25 61q0 30 22 61l86 57h-350v17q47 10 59 20q19 16 19 59v338q0 23 -4 37t-16 22t-20 11t-29 7q-6 1 -9 2v17h443l9 -127h-22q-7 50 -27 73t-71 23h-83
q-59 0 -76.5 -13t-17.5 -63v-140h89q72 0 94 16t27 58h16v-178h-16q-5 42 -27 58t-94 16h-89v-146q0 -50 17.5 -63t76.5 -13h62q58 0 91.5 23t61.5 81h22l-41 -135h-40z" />
    <glyph glyph-name="uni1EBD.sc" horiz-adv-x="553" 
d="M140 662h-15q-9 36 17.5 63t71.5 27q33 0 56.5 -17t43.5 -34.5t44 -17.5q28 0 42.5 12.5t14.5 27.5h15q9 -36 -17 -63.5t-71 -27.5q-34 0 -58 17t-44 34.5t-43 17.5q-28 0 -42.5 -12t-14.5 -27zM495 135h22l-41 -135h-445v17q47 10 59 20q19 16 19 59v338q0 23 -4 37
t-16 22t-20 11t-29 7q-6 1 -9 2v17h443l9 -127h-22q-7 50 -27 73t-71 23h-83q-59 0 -76.5 -13t-17.5 -63v-140h89q72 0 94 16t27 58h16v-178h-16q-5 42 -27 58t-94 16h-89v-146q0 -50 17.5 -63t76.5 -13h62q58 0 91.5 23t61.5 81z" />
    <glyph glyph-name="f.sc" horiz-adv-x="519" 
d="M474 530l9 -127h-22q-7 50 -27 73t-71 23h-83q-59 0 -76.5 -13t-17.5 -63v-140h89q72 0 94 16t27 58h16v-178h-16q-5 42 -27 58t-94 16h-89v-146q0 -27 4.5 -44t18.5 -26t24.5 -12t35.5 -8v-17h-238v17q47 10 59 20q19 16 19 59v338q0 23 -4 37t-16 22t-20 11t-29 7
q-6 1 -9 2v17h443z" />
    <glyph glyph-name="g.sc" horiz-adv-x="659" 
d="M350 -12q-132 0 -215.5 75.5t-83.5 194.5q0 124 81.5 204t205.5 80q52 0 104 -14t83 -32q4 -91 7 -135h-29q-15 77 -68.5 113.5t-123.5 36.5q-77 0 -124 -52t-47 -155q0 -135 70.5 -210t167.5 -75q47 0 69 23.5t22 84.5v38q0 56 -23 75.5t-96 23.5v22h263v-22
q-38 -5 -54.5 -16t-16.5 -36v-61q0 -37 7.5 -72t7.5 -36q-17 -22 -79.5 -38.5t-127.5 -16.5z" />
    <glyph glyph-name="gbreve.sc" horiz-adv-x="659" 
d="M339 649q-63 0 -94 34t-31 86h17q12 -65 108 -65q97 0 107 65h17q0 -52 -30.5 -86t-93.5 -34zM350 -12q-132 0 -215.5 75.5t-83.5 194.5q0 124 81.5 204t205.5 80q52 0 104 -14t83 -32q4 -91 7 -135h-29q-15 77 -68.5 113.5t-123.5 36.5q-77 0 -124 -52t-47 -155
q0 -135 70.5 -210t167.5 -75q47 0 69 23.5t22 84.5v38q0 56 -23 75.5t-96 23.5v22h263v-22q-38 -5 -54.5 -16t-16.5 -36v-61q0 -37 7.5 -72t7.5 -36q-17 -22 -79.5 -38.5t-127.5 -16.5z" />
    <glyph glyph-name="uni0123.sc" horiz-adv-x="659" 
d="M350 -12q-132 0 -215.5 75.5t-83.5 194.5q0 124 81.5 204t205.5 80q52 0 104 -14t83 -32q4 -91 7 -135h-29q-15 77 -68.5 113.5t-123.5 36.5q-77 0 -124 -52t-47 -155q0 -135 70.5 -210t167.5 -75q47 0 69 23.5t22 84.5v38q0 56 -23 75.5t-96 23.5v22h263v-22
q-38 -5 -54.5 -16t-16.5 -36v-61q0 -37 7.5 -72t7.5 -36q-17 -22 -79.5 -38.5t-127.5 -16.5zM277 -288l-9 15q32 15 52.5 39t24.5 46q1 5 1.5 9.5t-1 7.5t-3 5t-5 3.5t-5.5 2.5t-6 2.5t-5 1.5q-29 18 -29 48q0 22 15 36t36 14q25 0 43 -19t18 -53q0 -45 -32.5 -90.5
t-94.5 -67.5z" />
    <glyph glyph-name="gdotaccent.sc" horiz-adv-x="659" 
d="M339 663q-17 0 -30.5 12.5t-13.5 29.5q0 18 13.5 31t30.5 13q18 0 31.5 -13t13.5 -31q0 -17 -13.5 -29.5t-31.5 -12.5zM350 -12q-132 0 -215.5 75.5t-83.5 194.5q0 124 81.5 204t205.5 80q52 0 104 -14t83 -32q4 -91 7 -135h-29q-15 77 -68.5 113.5t-123.5 36.5
q-77 0 -124 -52t-47 -155q0 -135 70.5 -210t167.5 -75q47 0 69 23.5t22 84.5v38q0 56 -23 75.5t-96 23.5v22h263v-22q-38 -5 -54.5 -16t-16.5 -36v-61q0 -37 7.5 -72t7.5 -36q-17 -22 -79.5 -38.5t-127.5 -16.5z" />
    <glyph glyph-name="h.sc" horiz-adv-x="651" 
d="M620 513q-47 -10 -59 -20q-19 -16 -19 -59v-338q0 -23 4 -37t16 -22t20 -11t29 -7q6 -1 9 -2v-17h-233v17q47 10 59 20q19 16 19 59v156h-279v-156q0 -23 4 -37t16 -22t20 -11t29 -7q6 -1 9 -2v-17h-233v17q47 10 59 20q19 16 19 59v338q0 23 -4 37t-16 22t-20 11t-29 7
q-6 1 -9 2v17h233v-17q-47 -10 -59 -20q-19 -16 -19 -59v-153h279v153q0 23 -4 37t-16 22t-20 11t-29 7q-6 1 -9 2v17h233v-17z" />
    <glyph glyph-name="hbar.sc" horiz-adv-x="651" 
d="M620 513q-47 -10 -59 -20q-19 -16 -19 -59v-338q0 -23 4 -37t16 -22t20 -11t29 -7q6 -1 9 -2v-17h-233v17q47 10 59 20q19 16 19 59v156h-279v-156q0 -23 4 -37t16 -22t20 -11t29 -7q6 -1 9 -2v-17h-233v17q47 10 59 20q19 16 19 59v338q0 23 -4 37t-16 22t-20 11t-29 7
q-6 1 -9 2v17h233v-17q-47 -10 -59 -20q-19 -16 -19 -59v-56h279v56q0 23 -4 37t-16 22t-20 11t-29 7q-6 1 -9 2v17h233v-17zM186 281h279v68h-279v-68z" />
    <glyph glyph-name="i.sc" horiz-adv-x="295" 
d="M31 0v17q47 10 59 20q19 16 19 59v338q0 23 -4 37t-16 22t-20 11t-29 7q-6 1 -9 2v17h233v-17q-47 -10 -59 -20q-19 -16 -19 -59v-338q0 -23 4 -37t16 -22t20 -11t29 -7q6 -1 9 -2v-17h-233z" />
    <glyph glyph-name="iacute.sc" horiz-adv-x="295" 
d="M133 606l-14 12q35 97 69 145q15 0 35 -14.5t26 -26.5q-10 -7 -21 -16.5t-18 -15.5t-20.5 -20.5t-17 -19t-20.5 -23.5t-19 -21zM31 0v17q47 10 59 20q19 16 19 59v338q0 23 -4 37t-16 22t-20 11t-29 7q-6 1 -9 2v17h233v-17q-47 -10 -59 -20q-19 -16 -19 -59v-338
q0 -23 4 -37t16 -22t20 -11t29 -7q6 -1 9 -2v-17h-233z" />
    <glyph glyph-name="icircumflex.sc" horiz-adv-x="295" 
d="M149 776l135 -153l-12 -9l-123 98l-122 -98l-12 7zM31 0v17q47 10 59 20q19 16 19 59v338q0 23 -4 37t-16 22t-20 11t-29 7q-6 1 -9 2v17h233v-17q-47 -10 -59 -20q-19 -16 -19 -59v-338q0 -23 4 -37t16 -22t20 -11t29 -7q6 -1 9 -2v-17h-233z" />
    <glyph glyph-name="idieresis.sc" horiz-adv-x="295" 
d="M58 672q-17 0 -28 11t-11 28q0 18 11 29t28 11q18 0 29 -11t11 -29q0 -17 -11 -28t-29 -11zM238 672q-17 0 -28 11t-11 28q0 18 11 29t28 11q18 0 29 -11t11 -29q0 -17 -11 -28t-29 -11zM31 0v17q47 10 59 20q19 16 19 59v338q0 23 -4 37t-16 22t-20 11t-29 7q-6 1 -9 2
v17h233v-17q-47 -10 -59 -20q-19 -16 -19 -59v-338q0 -23 4 -37t16 -22t20 -11t29 -7q6 -1 9 -2v-17h-233z" />
    <glyph glyph-name="i.sc.loclTRK" horiz-adv-x="295" 
d="M148 663q-17 0 -30.5 12.5t-13.5 29.5q0 18 13.5 31t30.5 13q18 0 31.5 -13t13.5 -31q0 -17 -13.5 -29.5t-31.5 -12.5zM31 0v17q47 10 59 20q19 16 19 59v338q0 23 -4 37t-16 22t-20 11t-29 7q-6 1 -9 2v17h233v-17q-47 -10 -59 -20q-19 -16 -19 -59v-338q0 -23 4 -37
t16 -22t20 -11t29 -7q6 -1 9 -2v-17h-233z" />
    <glyph glyph-name="igrave.sc" horiz-adv-x="295" 
d="M153 606q-5 5 -22.5 25.5t-24.5 27.5t-20.5 21.5t-24.5 24t-23 17.5q5 12 25 26.5t36 14.5q30 -42 69 -145zM31 0v17q47 10 59 20q19 16 19 59v338q0 23 -4 37t-16 22t-20 11t-29 7q-6 1 -9 2v17h233v-17q-47 -10 -59 -20q-19 -16 -19 -59v-338q0 -23 4 -37t16 -22
t20 -11t29 -7q6 -1 9 -2v-17h-233z" />
    <glyph glyph-name="ij.sc" horiz-adv-x="599" 
d="M31 0v17q47 10 59 20q19 16 19 59v338q0 23 -4 37t-16 22t-20 11t-29 7q-6 1 -9 2v17h233v-17q-47 -10 -59 -20q-19 -16 -19 -59v-338q0 -23 4 -37t16 -22t20 -11t29 -7q6 -1 9 -2v-17h-233zM304 -185q-5 12 0 21q68 24 86.5 56.5t18.5 113.5v428q0 24 -4.5 38.5
t-20 22.5t-24.5 10.5t-39 7.5v17h248v-17q-51 -10 -64 -20q-19 -16 -19 -59v-438q0 -84 -50 -125t-132 -56z" />
    <glyph glyph-name="imacron.sc" horiz-adv-x="295" 
d="M2 697l15 30h280l-15 -30h-280zM31 0v17q47 10 59 20q19 16 19 59v338q0 23 -4 37t-16 22t-20 11t-29 7q-6 1 -9 2v17h233v-17q-47 -10 -59 -20q-19 -16 -19 -59v-338q0 -23 4 -37t16 -22t20 -11t29 -7q6 -1 9 -2v-17h-233z" />
    <glyph glyph-name="iogonek.sc" horiz-adv-x="295" 
d="M264 513q-47 -10 -59 -20q-19 -16 -19 -59v-338q0 -23 4 -37t16 -22t20 -11t29 -7q6 -1 9 -2v-17h-78q-49 -28 -71 -50.5t-22 -55.5q0 -26 14.5 -40t36.5 -14q20 0 54 13v-16q-34 -36 -85 -36q-40 0 -65 20t-25 61q0 30 22 61l86 57h-100v17q47 10 59 20q19 16 19 59v338
q0 23 -4 37t-16 22t-20 11t-29 7q-6 1 -9 2v17h233v-17z" />
    <glyph glyph-name="j.sc" horiz-adv-x="305" 
d="M9 -185q-5 12 0 21q68 24 86.5 56.5t18.5 113.5v428q0 24 -4.5 38.5t-20 22.5t-24.5 10.5t-39 7.5v17h248v-17q-51 -10 -64 -20q-19 -16 -19 -59v-438q0 -84 -50 -125t-132 -56z" />
    <glyph glyph-name="k.sc" horiz-adv-x="576" 
d="M477 54q12 -15 18.5 -21t22.5 -11t42 -5v-17h-154q0 23 -30 67l-139 197l-51 -54v-114q0 -23 4 -37t16 -22t20 -11t29 -7q6 -1 9 -2v-17h-233v17q47 10 59 20q19 16 19 59v338q0 23 -4 37t-16 22t-20 11t-29 7q-6 1 -9 2v17h233v-17q-47 -10 -59 -20q-19 -16 -19 -59
v-173l184 196q22 23 10.5 39.5t-53.5 16.5v17h214v-17q-31 0 -55 -9t-35 -18t-30 -29l-133 -139z" />
    <glyph glyph-name="uni0137.sc" horiz-adv-x="576" 
d="M477 54q12 -15 18.5 -21t22.5 -11t42 -5v-17h-154q0 23 -30 67l-139 197l-51 -54v-114q0 -23 4 -37t16 -22t20 -11t29 -7q6 -1 9 -2v-17h-233v17q47 10 59 20q19 16 19 59v338q0 23 -4 37t-16 22t-20 11t-29 7q-6 1 -9 2v17h233v-17q-47 -10 -59 -20q-19 -16 -19 -59
v-173l184 196q22 23 10.5 39.5t-53.5 16.5v17h214v-17q-31 0 -55 -9t-35 -18t-30 -29l-133 -139zM294 -58q25 0 43 -19t18 -53q0 -45 -32.5 -90.5t-94.5 -67.5l-9 15q32 15 52.5 39t24.5 46q1 5 1.5 9.5t-1 7.5t-3 5t-5 3.5t-5.5 2.5t-6 2.5t-5 1.5q-29 18 -29 48
q0 22 15 36t36 14z" />
    <glyph glyph-name="l.sc" horiz-adv-x="532" 
d="M31 0v17q47 10 59 20q19 16 19 59v338q0 23 -4 37t-16 22t-20 11t-29 7q-6 1 -9 2v17h257v-17q-4 -1 -20 -4t-21.5 -4.5t-18 -5.5t-17.5 -9l-12.5 -12.5t-10 -18.5t-2.5 -25v-328q0 -50 16.5 -63t71.5 -13h53q58 0 91 26.5t62 94.5h21l-41 -151h-429z" />
    <glyph glyph-name="lacute.sc" horiz-adv-x="532" 
d="M127 606l-14 12q35 97 69 145q15 0 35 -14.5t26 -26.5q-10 -7 -21 -16.5t-18 -15.5t-20.5 -20.5t-17 -19t-20.5 -23.5t-19 -21zM31 0v17q47 10 59 20q19 16 19 59v338q0 23 -4 37t-16 22t-20 11t-29 7q-6 1 -9 2v17h257v-17q-4 -1 -20 -4t-21.5 -4.5t-18 -5.5t-17.5 -9
l-12.5 -12.5t-10 -18.5t-2.5 -25v-328q0 -50 16.5 -63t71.5 -13h53q58 0 91 26.5t62 94.5h21l-41 -151h-429z" />
    <glyph glyph-name="lcaron.sc" horiz-adv-x="532" 
d="M140 615l-134 155l12 7l122 -98l123 98l12 -8zM31 0v17q47 10 59 20q19 16 19 59v338q0 23 -4 37t-16 22t-20 11t-29 7q-6 1 -9 2v17h257v-17q-4 -1 -20 -4t-21.5 -4.5t-18 -5.5t-17.5 -9l-12.5 -12.5t-10 -18.5t-2.5 -25v-328q0 -50 16.5 -63t71.5 -13h53q58 0 91 26.5
t62 94.5h21l-41 -151h-429z" />
    <glyph glyph-name="uni013C.sc" horiz-adv-x="532" 
d="M31 0v17q47 10 59 20q19 16 19 59v338q0 23 -4 37t-16 22t-20 11t-29 7q-6 1 -9 2v17h257v-17q-4 -1 -20 -4t-21.5 -4.5t-18 -5.5t-17.5 -9l-12.5 -12.5t-10 -18.5t-2.5 -25v-328q0 -50 16.5 -63t71.5 -13h53q58 0 91 26.5t62 94.5h21l-41 -151h-429zM192 -288l-9 15
q32 15 52.5 39t24.5 46q1 5 1.5 9.5t-1 7.5t-3 5t-5 3.5t-5.5 2.5t-6 2.5t-5 1.5q-29 18 -29 48q0 22 15 36t36 14q25 0 43 -19t18 -53q0 -45 -32.5 -90.5t-94.5 -67.5z" />
    <glyph glyph-name="ldot.sc" horiz-adv-x="600" 
d="M31 0v17q47 10 59 20q19 16 19 59v338q0 23 -4 37t-16 22t-20 11t-29 7q-6 1 -9 2v17h257v-17q-4 -1 -20 -4t-21.5 -4.5t-18 -5.5t-17.5 -9l-12.5 -12.5t-10 -18.5t-2.5 -25v-328q0 -50 16.5 -63t71.5 -13h53q58 0 91 26.5t62 94.5h21l-41 -151h-429zM313 218
q-21 0 -36 14t-15 35t15 35t36 14t36.5 -14t15.5 -35t-15.5 -35t-36.5 -14z" />
    <glyph glyph-name="lslash.sc" horiz-adv-x="532" 
d="M480 151h21l-41 -151h-429v17q47 10 59 20q19 16 19 59v126q-28 -10 -84 -32v41q56 16 84 25v178q0 23 -4 37t-16 22t-20 11t-29 7q-6 1 -9 2v17h257v-17q-4 -1 -20 -4t-21.5 -4.5t-18 -5.5t-17.5 -9l-12.5 -12.5t-10 -18.5t-2.5 -25v-154q84 28 191 70v-41
q-97 -28 -191 -60v-143q0 -50 16.5 -63t71.5 -13h53q58 0 91 26.5t62 94.5z" />
    <glyph glyph-name="m.sc" horiz-adv-x="743" 
d="M635 96q1 -24 5.5 -38.5t18 -22.5t21 -10.5t32.5 -7.5v-17h-233v17q49 10 61 20q20 17 18 59l-15 353l-175 -449h-30l-178 410l-16 -314q-1 -23 3 -37t17.5 -22t22.5 -11t33 -7q7 -1 10 -2v-17h-199v17q26 6 33 8t21.5 10t19 22.5t5.5 38.5l18 338q0 10 -1 18.5
t-1.5 14.5t-4.5 11.5t-5.5 9t-8.5 7.5t-8.5 5.5t-11.5 4t-11.5 3t-13.5 3t-13 2.5v17h144q2 -10 6 -21.5t13 -29.5t12 -26l151 -345l130 345q25 66 27 77h162v-17q-48 -10 -60 -20q-19 -16 -17 -59z" />
    <glyph glyph-name="n.sc" horiz-adv-x="653" 
d="M422 530h200v-17q-37 9 -58.5 -10.5t-21.5 -68.5v-434h-33l-361 440v-344q0 -23 4 -37t17.5 -22.5t21.5 -10.5t33 -7q6 -1 9 -2v-17h-202v17q48 10 60 20q20 17 20 59v338q0 23 -4 37t-16.5 22t-20.5 11t-30 7q-6 1 -9 2v17h138l335 -393v297q0 98 -82 79v17z" />
    <glyph glyph-name="nacute.sc" horiz-adv-x="653" 
d="M428 722q-10 -7 -21 -16.5t-18 -15.5t-20.5 -20.5t-17 -19t-20.5 -23.5t-19 -21l-14 12q35 97 69 145q15 0 35 -14.5t26 -26.5zM422 530h200v-17q-37 9 -58.5 -10.5t-21.5 -68.5v-434h-33l-361 440v-344q0 -23 4 -37t17.5 -22.5t21.5 -10.5t33 -7q6 -1 9 -2v-17h-202v17
q48 10 60 20q20 17 20 59v338q0 23 -4 37t-16.5 22t-20.5 11t-30 7q-6 1 -9 2v17h138l335 -393v297q0 98 -82 79v17z" />
    <glyph glyph-name="ncaron.sc" horiz-adv-x="653" 
d="M460 769l-135 -154l-134 155l12 7l122 -98l123 98zM422 530h200v-17q-37 9 -58.5 -10.5t-21.5 -68.5v-434h-33l-361 440v-344q0 -23 4 -37t17.5 -22.5t21.5 -10.5t33 -7q6 -1 9 -2v-17h-202v17q48 10 60 20q20 17 20 59v338q0 23 -4 37t-16.5 22t-20.5 11t-30 7
q-6 1 -9 2v17h138l335 -393v297q0 98 -82 79v17z" />
    <glyph glyph-name="uni0146.sc" horiz-adv-x="653" 
d="M422 530h200v-17q-37 9 -58.5 -10.5t-21.5 -68.5v-434h-33l-361 440v-344q0 -23 4 -37t17.5 -22.5t21.5 -10.5t33 -7q6 -1 9 -2v-17h-202v17q48 10 60 20q20 17 20 59v338q0 23 -4 37t-16.5 22t-20.5 11t-30 7q-6 1 -9 2v17h138l335 -393v297q0 98 -82 79v17zM331 -58
q25 0 43 -19t18 -53q0 -45 -32.5 -90.5t-94.5 -67.5l-9 15q32 15 52.5 39t24.5 46q1 5 1.5 9.5t-1 7.5t-3 5t-5 3.5t-5.5 2.5t-6 2.5t-5 1.5q-29 18 -29 48q0 22 15 36t36 14z" />
    <glyph glyph-name="ntilde.sc" horiz-adv-x="653" 
d="M192 662h-15q-9 36 17.5 63t71.5 27q33 0 56.5 -17t43.5 -34.5t44 -17.5q28 0 42.5 12.5t14.5 27.5h15q9 -36 -17 -63.5t-71 -27.5q-34 0 -58 17t-44 34.5t-43 17.5q-28 0 -42.5 -12t-14.5 -27zM422 530h200v-17q-37 9 -58.5 -10.5t-21.5 -68.5v-434h-33l-361 440v-344
q0 -23 4 -37t17.5 -22.5t21.5 -10.5t33 -7q6 -1 9 -2v-17h-202v17q48 10 60 20q20 17 20 59v338q0 23 -4 37t-16.5 22t-20.5 11t-30 7q-6 1 -9 2v17h138l335 -393v297q0 98 -82 79v17z" />
    <glyph glyph-name="o.sc" horiz-adv-x="662" 
d="M329 -12q-127 0 -202.5 81.5t-75.5 193.5q0 70 32 132.5t98 104.5t152 42q126 0 202 -82t76 -192q0 -112 -76.5 -196t-205.5 -84zM346 19q86 0 133 59t47 160q0 115 -58 194t-152 79q-86 0 -133 -59t-47 -159q0 -117 57.5 -195.5t152.5 -78.5z" />
    <glyph glyph-name="oacute.sc" horiz-adv-x="662" 
d="M315 606l-14 12q35 97 69 145q15 0 35 -14.5t26 -26.5q-10 -7 -21 -16.5t-18 -15.5t-20.5 -20.5t-17 -19t-20.5 -23.5t-19 -21zM329 -12q-127 0 -202.5 81.5t-75.5 193.5q0 70 32 132.5t98 104.5t152 42q126 0 202 -82t76 -192q0 -112 -76.5 -196t-205.5 -84zM346 19
q86 0 133 59t47 160q0 115 -58 194t-152 79q-86 0 -133 -59t-47 -159q0 -117 57.5 -195.5t152.5 -78.5z" />
    <glyph glyph-name="ocircumflex.sc" horiz-adv-x="662" 
d="M331 776l135 -153l-12 -9l-123 98l-122 -98l-12 7zM329 -12q-127 0 -202.5 81.5t-75.5 193.5q0 70 32 132.5t98 104.5t152 42q126 0 202 -82t76 -192q0 -112 -76.5 -196t-205.5 -84zM346 19q86 0 133 59t47 160q0 115 -58 194t-152 79q-86 0 -133 -59t-47 -159
q0 -117 57.5 -195.5t152.5 -78.5z" />
    <glyph glyph-name="odieresis.sc" horiz-adv-x="662" 
d="M240 672q-17 0 -28 11t-11 28q0 18 11 29t28 11q18 0 29 -11t11 -29q0 -17 -11 -28t-29 -11zM420 672q-17 0 -28 11t-11 28q0 18 11 29t28 11q18 0 29 -11t11 -29q0 -17 -11 -28t-29 -11zM329 -12q-127 0 -202.5 81.5t-75.5 193.5q0 70 32 132.5t98 104.5t152 42
q126 0 202 -82t76 -192q0 -112 -76.5 -196t-205.5 -84zM346 19q86 0 133 59t47 160q0 115 -58 194t-152 79q-86 0 -133 -59t-47 -159q0 -117 57.5 -195.5t152.5 -78.5z" />
    <glyph glyph-name="ograve.sc" horiz-adv-x="662" 
d="M335 606q-5 5 -22.5 25.5t-24.5 27.5t-20.5 21.5t-24.5 24t-23 17.5q5 12 25 26.5t36 14.5q30 -42 69 -145zM329 -12q-127 0 -202.5 81.5t-75.5 193.5q0 70 32 132.5t98 104.5t152 42q126 0 202 -82t76 -192q0 -112 -76.5 -196t-205.5 -84zM346 19q86 0 133 59t47 160
q0 115 -58 194t-152 79q-86 0 -133 -59t-47 -159q0 -117 57.5 -195.5t152.5 -78.5z" />
    <glyph glyph-name="ohungarumlaut.sc" horiz-adv-x="662" 
d="M221 606l-14 12q35 97 69 145q15 0 35 -14.5t26 -26.5q-10 -7 -21 -16.5t-18 -15.5t-20.5 -20.5t-17 -19t-20.5 -23.5t-19 -21zM362 606l-15 12q35 97 69 145q15 0 35 -14.5t26 -26.5q-12 -8 -23 -17.5t-24.5 -24t-20.5 -21.5t-24.5 -27.5t-22.5 -25.5zM329 -12
q-127 0 -202.5 81.5t-75.5 193.5q0 70 32 132.5t98 104.5t152 42q126 0 202 -82t76 -192q0 -112 -76.5 -196t-205.5 -84zM346 19q86 0 133 59t47 160q0 115 -58 194t-152 79q-86 0 -133 -59t-47 -159q0 -117 57.5 -195.5t152.5 -78.5z" />
    <glyph glyph-name="omacron.sc" horiz-adv-x="662" 
d="M184 697l15 30h280l-15 -30h-280zM329 -12q-127 0 -202.5 81.5t-75.5 193.5q0 70 32 132.5t98 104.5t152 42q126 0 202 -82t76 -192q0 -112 -76.5 -196t-205.5 -84zM346 19q86 0 133 59t47 160q0 115 -58 194t-152 79q-86 0 -133 -59t-47 -159q0 -117 57.5 -195.5
t152.5 -78.5z" />
    <glyph glyph-name="oslash.sc" horiz-adv-x="662" 
d="M487 499q59 -38 91.5 -100t32.5 -131q0 -112 -76.5 -196t-205.5 -84q-76 0 -141 34l-44 -71l-20 13l44 70q-56 38 -86.5 99t-30.5 130q0 70 32 132.5t98 104.5t152 42q76 0 133 -31l52 83l20 -13zM136 293q0 -126 65 -205l237 377q-52 46 -122 46q-86 0 -133 -59
t-47 -159zM346 19q86 0 133 59t47 160q0 131 -71 210l-237 -378q54 -51 128 -51z" />
    <glyph glyph-name="otilde.sc" horiz-adv-x="662" 
d="M397 632q-34 0 -58 17t-44 34.5t-43 17.5q-28 0 -42.5 -12t-14.5 -27h-15q-9 36 17.5 63t71.5 27q33 0 56.5 -17t43.5 -34.5t44 -17.5q28 0 42.5 12.5t14.5 27.5h15q9 -36 -17 -63.5t-71 -27.5zM329 -12q-127 0 -202.5 81.5t-75.5 193.5q0 70 32 132.5t98 104.5t152 42
q126 0 202 -82t76 -192q0 -112 -76.5 -196t-205.5 -84zM346 19q86 0 133 59t47 160q0 115 -58 194t-152 79q-86 0 -133 -59t-47 -159q0 -117 57.5 -195.5t152.5 -78.5z" />
    <glyph glyph-name="oe.sc" horiz-adv-x="948" 
d="M890 135h22l-41 -135h-445q-40 -12 -97 -12q-127 0 -202.5 81.5t-75.5 193.5q0 70 32 132.5t98 104.5t152 42q55 0 95 -12h441l9 -127h-22q-7 50 -27 73t-71 23h-83q-59 0 -76.5 -13t-17.5 -63v-140h89q72 0 94 16t27 58h16v-178h-16q-5 42 -27 58t-94 16h-89v-146
q0 -50 17.5 -63t76.5 -13h62q58 0 91.5 23t61.5 81zM136 293q0 -117 57.5 -195.5t152.5 -78.5q158 0 158 219q0 119 -48 196t-140 77q-86 0 -133 -59t-47 -159z" />
    <glyph glyph-name="p.sc" horiz-adv-x="549" 
d="M31 0v17q47 10 59 20q19 16 19 59v338q0 23 -4 37t-16 22t-20 11t-29 7q-6 1 -9 2v17h218q121 0 190 -45t69 -140q0 -97 -72.5 -147.5t-204.5 -50.5q-12 0 -12 14t12 14q192 0 192 164q0 75 -40 117.5t-124 42.5q-43 0 -58 -11t-15 -35v-357q0 -23 4 -37t16 -22t20 -11
t29 -7q6 -1 9 -2v-17h-233z" />
    <glyph glyph-name="q.sc" horiz-adv-x="671" 
d="M732 -89q6 -1 8 -2t3.5 -4t1.5 -9q-73 -71 -146 -71q-51 0 -117 40l-172 105q-18 11 -54.5 24t-45.5 18q-75 32 -117 101t-42 150q0 70 32 132.5t98 104.5t152 42q126 0 202 -82t76 -192q0 -96 -58 -174t-158 -99q27 -11 46 -24l80 -53q57 -41 116 -41q49 0 95 34z
M316 511q-86 0 -133 -59t-47 -159q0 -117 57.5 -195.5t152.5 -78.5q86 0 133 59t47 160q0 115 -58 194t-152 79z" />
    <glyph glyph-name="r.sc" horiz-adv-x="568" 
d="M423 116q47 -67 68 -84q29 -24 56 -14v-18q-18 -16 -48 -16q-46 0 -78 24.5t-70 81.5l-56 83q-40 56 -109 65v-142q0 -23 4 -37t16 -22t20 -11t29 -7q6 -1 9 -2v-17h-233v17q47 10 59 20q19 16 19 59v338q0 23 -4 37t-16 22t-20 11t-29 7q-6 1 -9 2v17h221
q130 0 191.5 -34t61.5 -110q0 -66 -49 -100.5t-155 -41.5q45 -12 80 -66zM257 499q-42 0 -56.5 -11t-14.5 -35v-181h71q91 0 129.5 28.5t38.5 81.5q0 117 -168 117z" />
    <glyph glyph-name="racute.sc" horiz-adv-x="568" 
d="M379 722q-10 -7 -21 -16.5t-18 -15.5t-20.5 -20.5t-17 -19t-20.5 -23.5t-19 -21l-14 12q35 97 69 145q15 0 35 -14.5t26 -26.5zM423 116q47 -67 68 -84q29 -24 56 -14v-18q-18 -16 -48 -16q-46 0 -78 24.5t-70 81.5l-56 83q-40 56 -109 65v-142q0 -23 4 -37t16 -22
t20 -11t29 -7q6 -1 9 -2v-17h-233v17q47 10 59 20q19 16 19 59v338q0 23 -4 37t-16 22t-20 11t-29 7q-6 1 -9 2v17h221q130 0 191.5 -34t61.5 -110q0 -66 -49 -100.5t-155 -41.5q45 -12 80 -66zM257 499q-42 0 -56.5 -11t-14.5 -35v-181h71q91 0 129.5 28.5t38.5 81.5
q0 117 -168 117z" />
    <glyph glyph-name="rcaron.sc" horiz-adv-x="568" 
d="M411 769l-135 -154l-134 155l12 7l122 -98l123 98zM423 116q47 -67 68 -84q29 -24 56 -14v-18q-18 -16 -48 -16q-46 0 -78 24.5t-70 81.5l-56 83q-40 56 -109 65v-142q0 -23 4 -37t16 -22t20 -11t29 -7q6 -1 9 -2v-17h-233v17q47 10 59 20q19 16 19 59v338q0 23 -4 37
t-16 22t-20 11t-29 7q-6 1 -9 2v17h221q130 0 191.5 -34t61.5 -110q0 -66 -49 -100.5t-155 -41.5q45 -12 80 -66zM257 499q-42 0 -56.5 -11t-14.5 -35v-181h71q91 0 129.5 28.5t38.5 81.5q0 117 -168 117z" />
    <glyph glyph-name="uni0157.sc" horiz-adv-x="568" 
d="M423 116q47 -67 68 -84q29 -24 56 -14v-18q-18 -16 -48 -16q-46 0 -78 24.5t-70 81.5l-56 83q-40 56 -109 65v-142q0 -23 4 -37t16 -22t20 -11t29 -7q6 -1 9 -2v-17h-233v17q47 10 59 20q19 16 19 59v338q0 23 -4 37t-16 22t-20 11t-29 7q-6 1 -9 2v17h221
q130 0 191.5 -34t61.5 -110q0 -66 -49 -100.5t-155 -41.5q45 -12 80 -66zM257 499q-42 0 -56.5 -11t-14.5 -35v-181h71q91 0 129.5 28.5t38.5 81.5q0 117 -168 117zM290 -58q25 0 43 -19t18 -53q0 -45 -32.5 -90.5t-94.5 -67.5l-9 15q32 15 52.5 39t24.5 46q1 5 1.5 9.5
t-1 7.5t-3 5t-5 3.5t-5.5 2.5t-6 2.5t-5 1.5q-29 18 -29 48q0 22 15 36t36 14z" />
    <glyph glyph-name="s.sc" horiz-adv-x="476" 
d="M230 -12q-88 0 -173 53l-6 109h23q15 -59 54.5 -96.5t93.5 -37.5q50 0 81.5 27.5t31.5 69.5q0 40 -31 70t-94 56q-35 14 -57 26t-47 31.5t-37.5 46.5t-12.5 62q0 60 46.5 98.5t131.5 38.5q22 0 42.5 -3t34 -6.5t30 -11t22.5 -10.5t19 -11.5t14 -8.5l3 -111h-22
q-30 134 -136 134q-47 0 -72 -23.5t-25 -60.5q0 -36 21.5 -59t77.5 -48q8 -4 33.5 -15.5t34.5 -16.5t30 -16.5t30 -19t23 -21t20 -26.5t11 -30.5t5 -36.5q0 -67 -56 -110t-144 -43z" />
    <glyph glyph-name="sacute.sc" horiz-adv-x="476" 
d="M214 606l-14 12q35 97 69 145q15 0 35 -14.5t26 -26.5q-10 -7 -21 -16.5t-18 -15.5t-20.5 -20.5t-17 -19t-20.5 -23.5t-19 -21zM230 -12q-88 0 -173 53l-6 109h23q15 -59 54.5 -96.5t93.5 -37.5q50 0 81.5 27.5t31.5 69.5q0 40 -31 70t-94 56q-35 14 -57 26t-47 31.5
t-37.5 46.5t-12.5 62q0 60 46.5 98.5t131.5 38.5q22 0 42.5 -3t34 -6.5t30 -11t22.5 -10.5t19 -11.5t14 -8.5l3 -111h-22q-30 134 -136 134q-47 0 -72 -23.5t-25 -60.5q0 -36 21.5 -59t77.5 -48q8 -4 33.5 -15.5t34.5 -16.5t30 -16.5t30 -19t23 -21t20 -26.5t11 -30.5
t5 -36.5q0 -67 -56 -110t-144 -43z" />
    <glyph glyph-name="scaron.sc" horiz-adv-x="476" 
d="M228 615l-134 155l12 7l122 -98l123 98l12 -8zM230 -12q-88 0 -173 53l-6 109h23q15 -59 54.5 -96.5t93.5 -37.5q50 0 81.5 27.5t31.5 69.5q0 40 -31 70t-94 56q-35 14 -57 26t-47 31.5t-37.5 46.5t-12.5 62q0 60 46.5 98.5t131.5 38.5q22 0 42.5 -3t34 -6.5t30 -11
t22.5 -10.5t19 -11.5t14 -8.5l3 -111h-22q-30 134 -136 134q-47 0 -72 -23.5t-25 -60.5q0 -36 21.5 -59t77.5 -48q8 -4 33.5 -15.5t34.5 -16.5t30 -16.5t30 -19t23 -21t20 -26.5t11 -30.5t5 -36.5q0 -67 -56 -110t-144 -43z" />
    <glyph glyph-name="scedilla.sc" horiz-adv-x="476" 
d="M430 141q0 -60 -45 -101t-119 -50l-23 -45q44 0 70.5 -20t26.5 -53q0 -35 -34 -59.5t-112 -24.5l5 19q43 0 67 13.5t24 34.5q0 47 -106 47l44 86q-88 1 -171 53l-6 109h23q15 -59 54.5 -96.5t93.5 -37.5q50 0 81.5 27.5t31.5 69.5q0 40 -31 70t-94 56q-35 14 -57 26
t-47 31.5t-37.5 46.5t-12.5 62q0 60 46.5 98.5t131.5 38.5q22 0 42.5 -3t34 -6.5t30 -11t22.5 -10.5t19 -11.5t14 -8.5l3 -111h-22q-30 134 -136 134q-47 0 -72 -23.5t-25 -60.5q0 -36 21.5 -59t77.5 -48q8 -4 33.5 -15.5t34.5 -16.5t30 -16.5t30 -19t23 -21t20 -26.5
t11 -30.5t5 -36.5z" />
    <glyph glyph-name="uni0219.sc" horiz-adv-x="476" 
d="M230 -12q-88 0 -173 53l-6 109h23q15 -59 54.5 -96.5t93.5 -37.5q50 0 81.5 27.5t31.5 69.5q0 40 -31 70t-94 56q-35 14 -57 26t-47 31.5t-37.5 46.5t-12.5 62q0 60 46.5 98.5t131.5 38.5q22 0 42.5 -3t34 -6.5t30 -11t22.5 -10.5t19 -11.5t14 -8.5l3 -111h-22
q-30 134 -136 134q-47 0 -72 -23.5t-25 -60.5q0 -36 21.5 -59t77.5 -48q8 -4 33.5 -15.5t34.5 -16.5t30 -16.5t30 -19t23 -21t20 -26.5t11 -30.5t5 -36.5q0 -67 -56 -110t-144 -43zM179 -288l-9 15q32 15 52.5 39t24.5 46q1 5 1.5 9.5t-1 7.5t-3 5t-5 3.5t-5.5 2.5t-6 2.5
t-5 1.5q-29 18 -29 48q0 22 15 36t36 14q25 0 43 -19t18 -53q0 -45 -32.5 -90.5t-94.5 -67.5z" />
    <glyph glyph-name="germandbls.sc" horiz-adv-x="675" 
d="M416 302q93 -8 153 -47.5t60 -107.5q0 -66 -54 -116.5t-148 -50.5q-65 0 -121 32q-2 55 -17 122h20q31 -73 57 -102t61 -29q49 0 83 38t34 85q0 65 -64 108.5t-170 43.5l172 206q-50 25 -117 25q-79 0 -126 -42t-47 -127v-244q0 -25 3 -39t15 -22t19.5 -10.5t30.5 -7.5
v-17h-229v17q51 10 64 20q19 16 19 59v243q0 55 20 96t53 63.5t70.5 33t77.5 10.5q56 0 122 -17.5t109 -44.5z" />
    <glyph glyph-name="t.sc" horiz-adv-x="567" 
d="M528 540l8 -172h-16q-11 73 -38.5 104.5t-96.5 31.5h-63v-408q0 -20 5 -33t9.5 -20.5t21.5 -13t25.5 -7t36.5 -5.5v-17h-273v17q28 4 36.5 5.5t25.5 7t21.5 13t9.5 20.5t5 33v408h-60q-71 0 -99 -31.5t-39 -104.5h-16l8 172l46 -10h397z" />
    <glyph glyph-name="tbar.sc" horiz-adv-x="567" 
d="M528 540l8 -172h-16q-11 73 -38.5 104.5t-96.5 31.5h-63v-242l102 3l-10 -36l-92 3v-136q0 -20 5 -33t9.5 -20.5t21.5 -13t25.5 -7t36.5 -5.5v-17h-273v17q28 4 36.5 5.5t25.5 7t21.5 13t9.5 20.5t5 33v136l-103 -3l10 36l93 -3v242h-60q-71 0 -99 -31.5t-39 -104.5h-16
l8 172l46 -10h397z" />
    <glyph glyph-name="tcaron.sc" horiz-adv-x="567" 
d="M417 769l-135 -154l-134 155l12 7l122 -98l123 98zM528 540l8 -172h-16q-11 73 -38.5 104.5t-96.5 31.5h-63v-408q0 -20 5 -33t9.5 -20.5t21.5 -13t25.5 -7t36.5 -5.5v-17h-273v17q28 4 36.5 5.5t25.5 7t21.5 13t9.5 20.5t5 33v408h-60q-71 0 -99 -31.5t-39 -104.5h-16
l8 172l46 -10h397z" />
    <glyph glyph-name="uni0163.sc" horiz-adv-x="567" 
d="M528 540l8 -172h-16q-11 73 -38.5 104.5t-96.5 31.5h-63v-408q0 -20 5 -33t9.5 -20.5t21.5 -13t25.5 -7t36.5 -5.5v-17h-106l-28 -55q44 0 70.5 -20t26.5 -53q0 -35 -34 -59.5t-112 -24.5l5 19q43 0 67 13.5t24 34.5q0 47 -106 47l50 98h-130v17q28 4 36.5 5.5t25.5 7
t21.5 13t9.5 20.5t5 33v408h-60q-71 0 -99 -31.5t-39 -104.5h-16l8 172l46 -10h397z" />
    <glyph glyph-name="uni021B.sc" horiz-adv-x="567" 
d="M528 540l8 -172h-16q-11 73 -38.5 104.5t-96.5 31.5h-63v-408q0 -20 5 -33t9.5 -20.5t21.5 -13t25.5 -7t36.5 -5.5v-17h-273v17q28 4 36.5 5.5t25.5 7t21.5 13t9.5 20.5t5 33v408h-60q-71 0 -99 -31.5t-39 -104.5h-16l8 172l46 -10h397zM288 -58q25 0 43 -19t18 -53
q0 -45 -32.5 -90.5t-94.5 -67.5l-9 15q32 15 52.5 39t24.5 46q1 5 1.5 9.5t-1 7.5t-3 5t-5 3.5t-5.5 2.5t-6 2.5t-5 1.5q-29 18 -29 48q0 22 15 36t36 14z" />
    <glyph glyph-name="u.sc" horiz-adv-x="677" 
d="M334 -12q-42 0 -77.5 10.5t-71 36.5t-56 81t-20.5 134v184q0 23 -4 37t-16 22t-20 11t-29 7q-6 1 -9 2v17h234v-17q-47 -10 -59 -20q-19 -16 -19 -59v-195q0 -210 164 -210q32 0 59.5 8.5t54 28.5t42 60.5t15.5 97.5v210q0 23 -4 37t-16.5 22t-20.5 11t-30 7q-6 1 -9 2
v17h204v-17q-52 -10 -65 -20q-20 -17 -20 -59v-190q0 -72 -19 -124t-52.5 -80t-71.5 -40t-84 -12z" />
    <glyph glyph-name="uacute.sc" horiz-adv-x="677" 
d="M323 613l-14 12q35 97 69 145q15 0 35 -14.5t26 -26.5q-10 -7 -21 -16.5t-18 -15.5t-20.5 -20.5t-17 -19t-20.5 -23.5t-19 -21zM334 -12q-42 0 -77.5 10.5t-71 36.5t-56 81t-20.5 134v184q0 23 -4 37t-16 22t-20 11t-29 7q-6 1 -9 2v17h234v-17q-47 -10 -59 -20
q-19 -16 -19 -59v-195q0 -210 164 -210q32 0 59.5 8.5t54 28.5t42 60.5t15.5 97.5v210q0 23 -4 37t-16.5 22t-20.5 11t-30 7q-6 1 -9 2v17h204v-17q-52 -10 -65 -20q-20 -17 -20 -59v-190q0 -72 -19 -124t-52.5 -80t-71.5 -40t-84 -12z" />
    <glyph glyph-name="ubreve.sc" horiz-adv-x="677" 
d="M339 656q-63 0 -94 34t-31 86h17q12 -65 108 -65q97 0 107 65h17q0 -52 -30.5 -86t-93.5 -34zM334 -12q-42 0 -77.5 10.5t-71 36.5t-56 81t-20.5 134v184q0 23 -4 37t-16 22t-20 11t-29 7q-6 1 -9 2v17h234v-17q-47 -10 -59 -20q-19 -16 -19 -59v-195q0 -210 164 -210
q32 0 59.5 8.5t54 28.5t42 60.5t15.5 97.5v210q0 23 -4 37t-16.5 22t-20.5 11t-30 7q-6 1 -9 2v17h204v-17q-52 -10 -65 -20q-20 -17 -20 -59v-190q0 -72 -19 -124t-52.5 -80t-71.5 -40t-84 -12z" />
    <glyph glyph-name="ucircumflex.sc" horiz-adv-x="677" 
d="M339 783l135 -153l-12 -9l-123 98l-122 -98l-12 7zM334 -12q-42 0 -77.5 10.5t-71 36.5t-56 81t-20.5 134v184q0 23 -4 37t-16 22t-20 11t-29 7q-6 1 -9 2v17h234v-17q-47 -10 -59 -20q-19 -16 -19 -59v-195q0 -210 164 -210q32 0 59.5 8.5t54 28.5t42 60.5t15.5 97.5
v210q0 23 -4 37t-16.5 22t-20.5 11t-30 7q-6 1 -9 2v17h204v-17q-52 -10 -65 -20q-20 -17 -20 -59v-190q0 -72 -19 -124t-52.5 -80t-71.5 -40t-84 -12z" />
    <glyph glyph-name="udieresis.sc" horiz-adv-x="677" 
d="M249 679q-17 0 -28 11t-11 28q0 18 11 29t28 11q18 0 29 -11t11 -29q0 -17 -11 -28t-29 -11zM429 679q-17 0 -28 11t-11 28q0 18 11 29t28 11q18 0 29 -11t11 -29q0 -17 -11 -28t-29 -11zM334 -12q-42 0 -77.5 10.5t-71 36.5t-56 81t-20.5 134v184q0 23 -4 37t-16 22
t-20 11t-29 7q-6 1 -9 2v17h234v-17q-47 -10 -59 -20q-19 -16 -19 -59v-195q0 -210 164 -210q32 0 59.5 8.5t54 28.5t42 60.5t15.5 97.5v210q0 23 -4 37t-16.5 22t-20.5 11t-30 7q-6 1 -9 2v17h204v-17q-52 -10 -65 -20q-20 -17 -20 -59v-190q0 -72 -19 -124t-52.5 -80
t-71.5 -40t-84 -12z" />
    <glyph glyph-name="ugrave.sc" horiz-adv-x="677" 
d="M343 613q-5 5 -22.5 25.5t-24.5 27.5t-20.5 21.5t-24.5 24t-23 17.5q5 12 25 26.5t36 14.5q30 -42 69 -145zM334 -12q-42 0 -77.5 10.5t-71 36.5t-56 81t-20.5 134v184q0 23 -4 37t-16 22t-20 11t-29 7q-6 1 -9 2v17h234v-17q-47 -10 -59 -20q-19 -16 -19 -59v-195
q0 -210 164 -210q32 0 59.5 8.5t54 28.5t42 60.5t15.5 97.5v210q0 23 -4 37t-16.5 22t-20.5 11t-30 7q-6 1 -9 2v17h204v-17q-52 -10 -65 -20q-20 -17 -20 -59v-190q0 -72 -19 -124t-52.5 -80t-71.5 -40t-84 -12z" />
    <glyph glyph-name="uhungarumlaut.sc" horiz-adv-x="677" 
d="M230 613l-14 12q35 97 69 145q15 0 35 -14.5t26 -26.5q-10 -7 -21 -16.5t-18 -15.5t-20.5 -20.5t-17 -19t-20.5 -23.5t-19 -21zM371 613l-15 12q35 97 69 145q15 0 35 -14.5t26 -26.5q-12 -8 -23 -17.5t-24.5 -24t-20.5 -21.5t-24.5 -27.5t-22.5 -25.5zM334 -12
q-42 0 -77.5 10.5t-71 36.5t-56 81t-20.5 134v184q0 23 -4 37t-16 22t-20 11t-29 7q-6 1 -9 2v17h234v-17q-47 -10 -59 -20q-19 -16 -19 -59v-195q0 -210 164 -210q32 0 59.5 8.5t54 28.5t42 60.5t15.5 97.5v210q0 23 -4 37t-16.5 22t-20.5 11t-30 7q-6 1 -9 2v17h204v-17
q-52 -10 -65 -20q-20 -17 -20 -59v-190q0 -72 -19 -124t-52.5 -80t-71.5 -40t-84 -12z" />
    <glyph glyph-name="umacron.sc" horiz-adv-x="677" 
d="M192 704l15 30h280l-15 -30h-280zM334 -12q-42 0 -77.5 10.5t-71 36.5t-56 81t-20.5 134v184q0 23 -4 37t-16 22t-20 11t-29 7q-6 1 -9 2v17h234v-17q-47 -10 -59 -20q-19 -16 -19 -59v-195q0 -210 164 -210q32 0 59.5 8.5t54 28.5t42 60.5t15.5 97.5v210q0 23 -4 37
t-16.5 22t-20.5 11t-30 7q-6 1 -9 2v17h204v-17q-52 -10 -65 -20q-20 -17 -20 -59v-190q0 -72 -19 -124t-52.5 -80t-71.5 -40t-84 -12z" />
    <glyph glyph-name="uogonek.sc" horiz-adv-x="677" 
d="M442 530h204v-17q-52 -10 -65 -20q-20 -17 -20 -59v-190q0 -203 -148 -246q-47 -27 -68.5 -49.5t-21.5 -54.5q0 -26 14.5 -40t36.5 -14q20 0 54 13v-16q-34 -36 -85 -36q-40 0 -65 20t-25 61q0 30 22 61l68 45h-9q-42 0 -77.5 10.5t-71 36.5t-56 81t-20.5 134v184
q0 23 -4 37t-16 22t-20 11t-29 7q-6 1 -9 2v17h234v-17q-47 -10 -59 -20q-19 -16 -19 -59v-195q0 -210 164 -210q32 0 59.5 8.5t54 28.5t42 60.5t15.5 97.5v210q0 23 -4 37t-16.5 22t-20.5 11t-30 7q-6 1 -9 2v17z" />
    <glyph glyph-name="uring.sc" horiz-adv-x="677" 
d="M339 636q-34 0 -58 24t-24 58t24 58t58 24t57.5 -24t23.5 -58t-23.5 -58t-57.5 -24zM339 665q21 0 36 16t15 37t-15 37t-36 16t-36.5 -16t-15.5 -37t15.5 -37t36.5 -16zM334 -12q-42 0 -77.5 10.5t-71 36.5t-56 81t-20.5 134v184q0 23 -4 37t-16 22t-20 11t-29 7
q-6 1 -9 2v17h234v-17q-47 -10 -59 -20q-19 -16 -19 -59v-195q0 -210 164 -210q32 0 59.5 8.5t54 28.5t42 60.5t15.5 97.5v210q0 23 -4 37t-16.5 22t-20.5 11t-30 7q-6 1 -9 2v17h204v-17q-52 -10 -65 -20q-20 -17 -20 -59v-190q0 -72 -19 -124t-52.5 -80t-71.5 -40t-84 -12
z" />
    <glyph glyph-name="v.sc" horiz-adv-x="605" 
d="M421 530h173v-17q-46 -10 -56 -18q-13 -11 -24 -37l-203 -458h-34l-190 455q-14 33 -26.5 41.5t-49.5 16.5v17h221v-17l-18 -4.5t-18.5 -5t-13 -5.5t-10.5 -9t-2 -14t5 -20l146 -354l156 356q4 9 5 16.5t-1.5 12.5t-5.5 8.5t-10.5 6.5t-12 4.5t-15.5 4t-16 3.5v17z" />
    <glyph glyph-name="w.sc" horiz-adv-x="847" 
d="M264 0l-175 451q-13 32 -25.5 40.5t-52.5 16.5v22h221v-22q-5 -2 -14.5 -4t-15.5 -4l-13.5 -4.5t-11.5 -6.5t-7.5 -9t-3 -12.5t3.5 -16.5l130 -343l91 254q17 45 -1.5 89.5t-65.5 56.5v22h130q0 -40 37 -139l107 -282l106 298q20 57 2.5 74.5t-76.5 26.5v22h206v-22
q-29 -6 -39 -9.5t-20.5 -14t-18.5 -33.5l-166 -450h-29l-140 355l-130 -356h-29z" />
    <glyph glyph-name="wacute.sc" horiz-adv-x="847" 
d="M409 606l-14 12q35 97 69 145q15 0 35 -14.5t26 -26.5q-10 -7 -21 -16.5t-18 -15.5t-20.5 -20.5t-17 -19t-20.5 -23.5t-19 -21zM264 0l-175 451q-13 32 -25.5 40.5t-52.5 16.5v22h221v-22q-5 -2 -14.5 -4t-15.5 -4l-13.5 -4.5t-11.5 -6.5t-7.5 -9t-3 -12.5t3.5 -16.5
l130 -343l91 254q17 45 -1.5 89.5t-65.5 56.5v22h130q0 -40 37 -139l107 -282l106 298q20 57 2.5 74.5t-76.5 26.5v22h206v-22q-29 -6 -39 -9.5t-20.5 -14t-18.5 -33.5l-166 -450h-29l-140 355l-130 -356h-29z" />
    <glyph glyph-name="wcircumflex.sc" horiz-adv-x="847" 
d="M425 776l135 -153l-12 -9l-123 98l-122 -98l-12 7zM264 0l-175 451q-13 32 -25.5 40.5t-52.5 16.5v22h221v-22q-5 -2 -14.5 -4t-15.5 -4l-13.5 -4.5t-11.5 -6.5t-7.5 -9t-3 -12.5t3.5 -16.5l130 -343l91 254q17 45 -1.5 89.5t-65.5 56.5v22h130q0 -40 37 -139l107 -282
l106 298q20 57 2.5 74.5t-76.5 26.5v22h206v-22q-29 -6 -39 -9.5t-20.5 -14t-18.5 -33.5l-166 -450h-29l-140 355l-130 -356h-29z" />
    <glyph glyph-name="wdieresis.sc" horiz-adv-x="847" 
d="M334 672q-17 0 -28 11t-11 28q0 18 11 29t28 11q18 0 29 -11t11 -29q0 -17 -11 -28t-29 -11zM514 672q-17 0 -28 11t-11 28q0 18 11 29t28 11q18 0 29 -11t11 -29q0 -17 -11 -28t-29 -11zM264 0l-175 451q-13 32 -25.5 40.5t-52.5 16.5v22h221v-22q-5 -2 -14.5 -4
t-15.5 -4l-13.5 -4.5t-11.5 -6.5t-7.5 -9t-3 -12.5t3.5 -16.5l130 -343l91 254q17 45 -1.5 89.5t-65.5 56.5v22h130q0 -40 37 -139l107 -282l106 298q20 57 2.5 74.5t-76.5 26.5v22h206v-22q-29 -6 -39 -9.5t-20.5 -14t-18.5 -33.5l-166 -450h-29l-140 355l-130 -356h-29z
" />
    <glyph glyph-name="wgrave.sc" horiz-adv-x="847" 
d="M429 606q-5 5 -22.5 25.5t-24.5 27.5t-20.5 21.5t-24.5 24t-23 17.5q5 12 25 26.5t36 14.5q30 -42 69 -145zM264 0l-175 451q-13 32 -25.5 40.5t-52.5 16.5v22h221v-22q-5 -2 -14.5 -4t-15.5 -4l-13.5 -4.5t-11.5 -6.5t-7.5 -9t-3 -12.5t3.5 -16.5l130 -343l91 254
q17 45 -1.5 89.5t-65.5 56.5v22h130q0 -40 37 -139l107 -282l106 298q20 57 2.5 74.5t-76.5 26.5v22h206v-22q-29 -6 -39 -9.5t-20.5 -14t-18.5 -33.5l-166 -450h-29l-140 355l-130 -356h-29z" />
    <glyph glyph-name="x.sc" horiz-adv-x="619" 
d="M479 80q22 -32 45 -43.5t74 -19.5v-17h-252v17q20 4 31 8t18 10.5t4.5 17t-13.5 26.5l-101 153l-105 -150q-9 -13 -14 -22t-5 -15t0.5 -10t8 -7t11.5 -4t17 -3.5t19 -3.5v-17h-200v17q6 1 19.5 3t17.5 2.5t14.5 2.5t13.5 4t11 5t12 7t10.5 10t12 13t12.5 17l127 178
l-123 185q-25 39 -45.5 50t-70.5 19v17h243v-17q-22 -5 -31.5 -8t-17 -10t-3.5 -19t18 -32l88 -132l95 133q18 25 17.5 38t-12 18t-36.5 10q-5 1 -7 1v17h194v-17q-48 -8 -69 -19t-49 -48l-115 -160z" />
    <glyph glyph-name="y.sc" horiz-adv-x="571" 
d="M373 530h182v-17q-35 -8 -48 -17.5t-35 -44.5l-145 -234v-116q0 -24 4.5 -38.5t20 -22.5t24.5 -10.5t39 -7.5v-22h-253v22q55 10 68 20q20 16 20 59v108l-152 242q-24 39 -35 46.5t-47 15.5v17h219v-17q-15 -4 -22.5 -6.5t-18 -7.5t-13.5 -11t-2.5 -15.5t7.5 -21.5
l124 -202l122 202q5 8 8 15t2.5 12.5t-1.5 9t-5.5 7t-8 5.5t-11.5 4t-12.5 3t-15 3t-15.5 3v17z" />
    <glyph glyph-name="yacute.sc" horiz-adv-x="571" 
d="M396 722q-10 -7 -21 -16.5t-18 -15.5t-20.5 -20.5t-17 -19t-20.5 -23.5t-19 -21l-14 12q35 97 69 145q15 0 35 -14.5t26 -26.5zM373 530h182v-17q-35 -8 -48 -17.5t-35 -44.5l-145 -234v-116q0 -24 4.5 -38.5t20 -22.5t24.5 -10.5t39 -7.5v-22h-253v22q55 10 68 20
q20 16 20 59v108l-152 242q-24 39 -35 46.5t-47 15.5v17h219v-17q-15 -4 -22.5 -6.5t-18 -7.5t-13.5 -11t-2.5 -15.5t7.5 -21.5l124 -202l122 202q5 8 8 15t2.5 12.5t-1.5 9t-5.5 7t-8 5.5t-11.5 4t-12.5 3t-15 3t-15.5 3v17z" />
    <glyph glyph-name="ycircumflex.sc" horiz-adv-x="571" 
d="M296 712l-122 -98l-12 7l134 155l135 -153l-12 -9zM373 530h182v-17q-35 -8 -48 -17.5t-35 -44.5l-145 -234v-116q0 -24 4.5 -38.5t20 -22.5t24.5 -10.5t39 -7.5v-22h-253v22q55 10 68 20q20 16 20 59v108l-152 242q-24 39 -35 46.5t-47 15.5v17h219v-17
q-15 -4 -22.5 -6.5t-18 -7.5t-13.5 -11t-2.5 -15.5t7.5 -21.5l124 -202l122 202q5 8 8 15t2.5 12.5t-1.5 9t-5.5 7t-8 5.5t-11.5 4t-12.5 3t-15 3t-15.5 3v17z" />
    <glyph glyph-name="ydieresis.sc" horiz-adv-x="571" 
d="M206 672q-17 0 -28 11t-11 28q0 18 11 29t28 11q18 0 29 -11t11 -29q0 -17 -11 -28t-29 -11zM386 672q-17 0 -28 11t-11 28q0 18 11 29t28 11q18 0 29 -11t11 -29q0 -17 -11 -28t-29 -11zM373 530h182v-17q-35 -8 -48 -17.5t-35 -44.5l-145 -234v-116q0 -24 4.5 -38.5
t20 -22.5t24.5 -10.5t39 -7.5v-22h-253v22q55 10 68 20q20 16 20 59v108l-152 242q-24 39 -35 46.5t-47 15.5v17h219v-17q-15 -4 -22.5 -6.5t-18 -7.5t-13.5 -11t-2.5 -15.5t7.5 -21.5l124 -202l122 202q5 8 8 15t2.5 12.5t-1.5 9t-5.5 7t-8 5.5t-11.5 4t-12.5 3t-15 3
t-15.5 3v17z" />
    <glyph glyph-name="ygrave.sc" horiz-adv-x="571" 
d="M301 606q-5 5 -22.5 25.5t-24.5 27.5t-20.5 21.5t-24.5 24t-23 17.5q5 12 25 26.5t36 14.5q30 -42 69 -145zM373 530h182v-17q-35 -8 -48 -17.5t-35 -44.5l-145 -234v-116q0 -24 4.5 -38.5t20 -22.5t24.5 -10.5t39 -7.5v-22h-253v22q55 10 68 20q20 16 20 59v108
l-152 242q-24 39 -35 46.5t-47 15.5v17h219v-17q-15 -4 -22.5 -6.5t-18 -7.5t-13.5 -11t-2.5 -15.5t7.5 -21.5l124 -202l122 202q5 8 8 15t2.5 12.5t-1.5 9t-5.5 7t-8 5.5t-11.5 4t-12.5 3t-15 3t-15.5 3v17z" />
    <glyph glyph-name="z.sc" horiz-adv-x="539" 
d="M42 0l-11 15l353 494l-178 -4q-72 -1 -100.5 -30.5t-33.5 -96.5h-20v158l54 -6h393l-362 -509l205 4q69 1 97 31t43 98h21q-19 -95 -19 -154h-442z" />
    <glyph glyph-name="zacute.sc" horiz-adv-x="539" 
d="M251 606l-14 12q35 97 69 145q15 0 35 -14.5t26 -26.5q-10 -7 -21 -16.5t-18 -15.5t-20.5 -20.5t-17 -19t-20.5 -23.5t-19 -21zM42 0l-11 15l353 494l-178 -4q-72 -1 -100.5 -30.5t-33.5 -96.5h-20v158l54 -6h393l-362 -509l205 4q69 1 97 31t43 98h21q-19 -95 -19 -154
h-442z" />
    <glyph glyph-name="zcaron.sc" horiz-adv-x="539" 
d="M265 615l-134 155l12 7l122 -98l123 98l12 -8zM42 0l-11 15l353 494l-178 -4q-72 -1 -100.5 -30.5t-33.5 -96.5h-20v158l54 -6h393l-362 -509l205 4q69 1 97 31t43 98h21q-19 -95 -19 -154h-442z" />
    <glyph glyph-name="zdotaccent.sc" horiz-adv-x="539" 
d="M267 663q-17 0 -30.5 12.5t-13.5 29.5q0 18 13.5 31t30.5 13q18 0 31.5 -13t13.5 -31q0 -17 -13.5 -29.5t-31.5 -12.5zM42 0l-11 15l353 494l-178 -4q-72 -1 -100.5 -30.5t-33.5 -96.5h-20v158l54 -6h393l-362 -509l205 4q69 1 97 31t43 98h21q-19 -95 -19 -154h-442z
" />
    <glyph glyph-name="zero.lf" horiz-adv-x="605" 
d="M300 -9q-117 0 -183 91.5t-66 228.5q0 138 67 232t186 94q117 0 183.5 -91.5t66.5 -229.5t-67.5 -231.5t-186.5 -93.5zM317 22q68 0 110 71t42 193q0 140 -51.5 230t-130.5 90q-68 0 -109.5 -71.5t-41.5 -193.5q0 -139 51 -229t130 -90z" />
    <glyph glyph-name="one.lf" horiz-adv-x="352" 
d="M46 0v17q64 7 79 18q16 11 16 34v474q0 23 -8.5 30t-32.5 0l-50 -13v17l141 69l20 -16v-561q0 -20 13 -31t27 -13.5t47 -6.5q5 -1 8 -1v-17h-260z" />
    <glyph glyph-name="two.lf" horiz-adv-x="549" 
d="M49 0l-8 18q22 20 76 66t77 66.5t64 59t60 62.5t42 56.5t32 61t9 57.5q0 54 -36 93.5t-103 39.5q-28 0 -56 -7t-63 -34t-55 -72l-26 13q25 76 90 116.5t138 40.5q87 0 142.5 -51.5t55.5 -131.5q0 -48 -23 -93t-65.5 -86.5t-84.5 -75.5t-100 -78.5t-93 -76.5h210
q60 0 92.5 21t62.5 81h21l-48 -162h-21l-2 16h-388z" />
    <glyph glyph-name="three.lf" horiz-adv-x="519" 
d="M188 -12q-27 0 -51 3t-48 10t-38.5 20.5t-14.5 33.5q0 17 12 25t26 8q16 0 32 -11.5t28 -26t33 -26t47 -11.5q62 0 121.5 49t59.5 120q0 65 -49 98t-116 33q-48 0 -103 -19l-8 23l79 34q83 35 119.5 63.5t36.5 72.5q0 39 -27.5 65t-81.5 26q-42 0 -91 -17t-82 -56l-17 13
q38 57 99 88t128 31q72 0 113 -35t39 -92q-1 -45 -33 -80t-93 -67q72 -5 121 -42.5t49 -110.5q0 -97 -82 -159.5t-208 -62.5z" />
    <glyph glyph-name="four.lf" horiz-adv-x="507" 
d="M456 170h-85v-101q0 -28 18.5 -37t57.5 -14q6 -1 9 -1v-17h-240v17q56 8 70 18q15 11 15 34v101h-259l-11 16l328 454h12v-434h95zM74 206h227v314z" />
    <glyph glyph-name="five.lf" horiz-adv-x="499" 
d="M109 394q110 27 184.5 1t112.5 -78t38 -114q0 -87 -74 -151t-180 -64q-54 0 -101.5 16t-47.5 51q0 17 12 25t26 8q16 0 33 -11.5t29 -26t32.5 -26t43.5 -11.5q50 0 94 44.5t44 111.5q0 57 -31.5 104t-89.5 69t-142 -1l-20 19l97 270h170q34 0 48.5 1t29.5 7t25 20h16
l-29 -97h-255z" />
    <glyph glyph-name="six.lf" horiz-adv-x="550" 
d="M283 -12q-109 0 -171 78t-61 191q1 150 110 261t246 119l13 -21q-51 -5 -101 -31.5t-92.5 -71.5t-68.5 -116.5t-26 -156.5q0 -99 40.5 -161.5t108.5 -62.5q64 0 104.5 53t40.5 130q0 84 -56.5 131t-173.5 24v20q126 50 219.5 -2t93.5 -164q0 -93 -63.5 -156.5
t-162.5 -63.5z" />
    <glyph glyph-name="seven.lf" horiz-adv-x="494" 
d="M457 630l11 -15q-195 -309 -266 -615h-73q86 274 265 561h-219q-26 0 -37 -1t-27.5 -7.5t-28.5 -21.5t-25 -41h-16l48 157h16l2 -17h350z" />
    <glyph glyph-name="eight.lf" horiz-adv-x="543" 
d="M356 341q59 -21 98 -64t39 -104q0 -78 -63 -133.5t-160 -55.5t-158 50.5t-61 127.5q0 53 32.5 98t91.5 74q-84 50 -84 138q0 66 47 112t132 46q82 0 128.5 -43t46.5 -102q0 -82 -89 -144zM272 603q-56 0 -81.5 -33t-25.5 -77q0 -35 19.5 -67.5t59.5 -45.5l72 -25
q65 51 65 126q0 47 -25 84.5t-84 37.5zM281 13q69 0 102.5 37t33.5 97t-30.5 89.5t-100.5 53.5l-65 23q-8 3 -10 4q-91 -52 -91 -151q0 -66 41 -109.5t120 -43.5z" />
    <glyph glyph-name="nine.lf" horiz-adv-x="550" 
d="M267 637q109 0 171 -78t61 -191q-1 -150 -110 -261t-246 -119l-13 21q51 5 101 31.5t92.5 71.5t68.5 116.5t26 156.5q0 99 -40.5 161.5t-108.5 62.5q-64 0 -104.5 -53t-40.5 -130q0 -84 56.5 -131t173.5 -24v-20q-126 -50 -219.5 2t-93.5 164q0 93 64 156.5t162 63.5z
" />
    <glyph glyph-name="zero.tf" horiz-adv-x="602" 
d="M299 -9q-117 0 -183.5 91.5t-66.5 228.5q0 138 67.5 232t186.5 94q117 0 183 -91.5t66 -229.5t-67 -231.5t-186 -93.5zM316 22q68 0 109.5 71t41.5 193q0 140 -51 230t-130 90q-68 0 -109.5 -71.5t-41.5 -193.5q0 -139 51 -229t130 -90z" />
    <glyph glyph-name="one.tf" horiz-adv-x="602" 
d="M151 0v17q80 6 98 17q17 12 17 35v474q0 23 -8 30t-33 0l-70 -13v17l161 69l20 -16v-561q0 -33 39 -43q19 -4 76 -9v-17h-300z" />
    </font>
</defs>
</svg>
