<?xml version="1.0" standalone="no"?>
<!DOCTYPE svg PUBLIC "-//W3C//DTD SVG 1.1//EN" "http://www.w3.org/Graphics/SVG/1.1/DTD/svg11.dtd" >
<svg xmlns="http://www.w3.org/2000/svg" xmlns:xlink="http://www.w3.org/1999/xlink" version="1.1">
<metadata>
Created by FontForge 20170731 at Tue Jun  5 16:44:09 2018
 By Aleksey,,,
Copyright (c) 2018 by Connary Fagen. All rights reserved.
</metadata>
<defs>
<font id="AddingtonCF-Bold" horiz-adv-x="586" >
  <font-face 
    font-family="Addington CF"
    font-weight="700"
    font-stretch="normal"
    units-per-em="1000"
    panose-1="0 0 8 0 0 0 0 0 0 0"
    ascent="800"
    descent="-200"
    x-height="440"
    cap-height="630"
    bbox="-187 -371 1185 909"
    underline-thickness="50"
    underline-position="-200"
    unicode-range="U+0020-FB02"
  />
<missing-glyph horiz-adv-x="488" 
d="M400 800v-975h-309v975h309zM325 735h-161v-32h63v-37h-64v-32h162v32h-65v37h65v32zM260 609h-97v-101h162v33h-65v68zM227 576v-35h-32v35h32zM325 481h-162v-32h64v-36h-64v-32h97v68h65v32zM325 423h-32v-65h-130v-33h162v98zM325 304h-98v-55h33v23h33v-46h-98v78
h-32v-110h162v110zM325 135h-162v-110h162v110zM293 103v-46h-98v46h98zM325 2h-162v-32h68l-68 -46v-32h162v32h-100l68 46h32v32z" />
    <glyph glyph-name="fi" unicode="fi" horiz-adv-x="689" 
d="M392 658q-17 0 -36 -5t-41 -18t-39.5 -33t-29.5 -54.5t-12 -77.5v-23l93 11q-5 -27 -5 -59h-88v-311q0 -30 24 -41t81 -17v-30h-329v30q40 6 57.5 17t17.5 41v311h-75v29l75 15h1q4 65 35 116t78.5 80t99.5 44t104 15q118 0 178 -44q37 -24 37 -67v-1q-1 -34 -26 -58.5
t-60 -24.5t-60.5 25t-25.5 59v2v1q0 5 1 7q1 18 0.5 31.5t-14 21.5t-41.5 8zM608 88q0 -31 13.5 -40.5t52.5 -17.5v-30h-277v30q39 8 52.5 17.5t13.5 40.5v219q0 30 -12.5 44t-53.5 19v28q130 23 190 58l21 -19v-349z" />
    <glyph glyph-name="fl" unicode="fl" horiz-adv-x="674" 
d="M586 88q0 -31 14.5 -40.5t58.5 -17.5v-30h-291v30q44 8 58.5 17.5t14.5 40.5v454q0 41 -30 71.5t-88 30.5q-36 0 -62.5 -26t-26.5 -86v-86l108 12q-5 -28 -5 -59h-103v-311q0 -30 24 -41t81 -17v-30h-329v30q40 6 57.5 17t17.5 41v311h-75v29l75 15q3 120 84 185t206 65
q56 0 120.5 -10.5t90.5 -27.5v-567z" />
    <glyph glyph-name="f_f" unicode="ff" horiz-adv-x="767" 
d="M847 624q1 -29 -32.5 -50.5t-74.5 -23.5q-8 28 -15.5 46t-23.5 35t-35 17q-65 0 -65 -111v-87l123 5h5h8q-5 -27 -5 -59h-131v-308q0 -30 24 -41t81 -17v-30h-329v30q40 6 57.5 17t17.5 41v308h-218v-308q0 -30 24 -41t81 -17v-30h-329v30q40 6 57.5 17t17.5 41v308h-75
v29l75 15h1q6 111 74.5 172.5t158.5 61.5q99 0 126 -74q1 -29 -29.5 -50.5t-70.5 -23.5q-6 36 -23.5 67t-37.5 31q-11 0 -21 -7t-19.5 -33.5t-9.5 -70.5v-77l218 8q1 119 80.5 186.5t177.5 67.5q110 0 137 -74z" />
    <glyph glyph-name="f_f_i" unicode="ffi" horiz-adv-x="1064" 
d="M767 658q-17 0 -36 -5t-41 -18t-39.5 -33t-29.5 -54.5t-12 -77.5v-19l95 4q-5 -27 -5 -59h-90v-308q0 -30 24 -41t81 -17v-30h-329v30q40 6 57.5 17t17.5 41v308h-226v-308q0 -30 24 -41t81 -17v-30h-329v30q40 6 57.5 17t17.5 41v308h-75v29l75 15h1q4 75 39 129.5
t84.5 79.5t106.5 25q99 0 126 -74q1 -29 -29.5 -50.5t-70.5 -23.5q-6 36 -23.5 67t-37.5 31q-11 0 -20 -7t-18 -33.5t-9 -70.5v-76l227 8q3 52 25 95t54.5 72t73.5 48.5t82.5 28.5t81.5 9q118 0 178 -44q37 -24 37 -67v-1q-1 -34 -26 -58.5t-60 -24.5t-60.5 25t-25.5 59v2v1
q0 5 1 7q1 18 0.5 31.5t-14 21.5t-41.5 8zM983 88q0 -31 13.5 -40.5t52.5 -17.5v-30h-277v30q39 8 52.5 17.5t13.5 40.5v219q0 30 -12.5 44t-53.5 19v28q130 23 190 58l21 -19v-349z" />
    <glyph glyph-name=".notdef" horiz-adv-x="488" 
d="M400 800v-975h-309v975h309zM325 735h-161v-32h63v-37h-64v-32h162v32h-65v37h65v32zM260 609h-97v-101h162v33h-65v68zM227 576v-35h-32v35h32zM325 481h-162v-32h64v-36h-64v-32h97v68h65v32zM325 423h-32v-65h-130v-33h162v98zM325 304h-98v-55h33v23h33v-46h-98v78
h-32v-110h162v110zM325 135h-162v-110h162v110zM293 103v-46h-98v46h98zM325 2h-162v-32h68l-68 -46v-32h162v32h-100l68 46h32v32z" />
    <glyph glyph-name=".null" horiz-adv-x="0" 
 />
    <glyph glyph-name="nonmarkingreturn" horiz-adv-x="333" 
 />
    <glyph glyph-name="space" unicode=" " horiz-adv-x="196" 
 />
    <glyph glyph-name="exclam" unicode="!" horiz-adv-x="240" 
d="M101 202l-55 379q-5 38 15.5 55t59.5 17t59.5 -17t15.5 -55l-55 -379h-40zM128 -10q-35 0 -59 24.5t-24 59.5q0 33 24.5 57t58.5 24q33 0 57 -24t24 -57q0 -35 -24 -59.5t-57 -24.5z" />
    <glyph glyph-name="quotedbl" unicode="&#x22;" horiz-adv-x="321" 
d="M74 388l-43 176q-8 30 7.5 48t48.5 18q29 0 43 -18t7 -48l-41 -176h-22zM227 388l-43 176q-8 30 7.5 48t48.5 18q29 0 43 -18t7 -48l-41 -176h-22z" />
    <glyph glyph-name="numbersign" unicode="#" horiz-adv-x="565" 
d="M523 409h-99l-40 -175h100l-14 -57h-100l-47 -207h-66l48 207h-112l-47 -207h-66l48 207h-100l14 57h99l40 175h-100l14 57h99l48 206h65l-47 -206h111l48 206h65l-47 -206h100zM318 234l40 175h-111l-40 -175h111z" />
    <glyph glyph-name="dollar" unicode="$" horiz-adv-x="547" 
d="M517 194q0 -73 -60 -120t-160 -55v-81h-41v80q-131 1 -213 57l-8 120h33q21 -65 69 -102.5t115 -37.5h4v204q-2 1 -6.5 2.5t-6.5 2.5q-42 16 -71.5 31t-61.5 38t-48.5 54.5t-16.5 69.5q0 70 56 112t155 47v81h41v-81q17 -1 34 -3.5t29.5 -5t26.5 -7t22.5 -7.5t20.5 -8.5
t16 -8t14 -7.5t11 -6l3 -122h-31q-21 64 -54.5 99.5t-91.5 38.5v-177q38 -15 57.5 -23.5t56 -29.5t55.5 -40t35 -49.5t16 -65.5zM186 499q0 -24 15 -42.5t55 -37.5v157q-35 -7 -52.5 -28.5t-17.5 -48.5zM297 61q34 10 52.5 33t18.5 54q0 52 -71 91v-178z" />
    <glyph glyph-name="percent" unicode="%" horiz-adv-x="709" 
d="M536 630h69l-447 -630h-61l390 544q-73 -46 -171 -6q1 -6 1 -17q0 -77 -48 -137.5t-120 -60.5q-51 0 -81 32.5t-30 85.5q0 75 52 134t125 59q46 0 73 -27q43 -27 71 -38.5t59 -13.5t59 17t59 58zM173 360q41 0 72 53t31 106q0 35 -16.5 56.5t-40.5 21.5q-41 0 -68 -54.5
t-27 -107.5q0 -33 13 -54t36 -21zM569 309q49 0 75.5 -30t26.5 -83q0 -77 -48 -137.5t-120 -60.5q-51 0 -81 32.5t-30 85.5q0 75 52 134t125 59zM527 35q41 0 72 53t31 106q0 35 -16.5 56.5t-40.5 21.5q-41 0 -68 -54.5t-27 -107.5q0 -33 13 -54t36 -21z" />
    <glyph glyph-name="ampersand" unicode="&#x26;" horiz-adv-x="756" 
d="M569 74q16 -18 68 -6.5t101 44.5v-36q-41 -38 -96.5 -62.5t-96.5 -23.5q-53 0 -103 48q-83 -48 -170 -48q-36 0 -70 5.5t-67 18.5t-57.5 33t-39.5 51.5t-15 71.5q0 71 41.5 112t116.5 71q-41 61 -41 105q0 68 64.5 111t145.5 43q58 0 103 -24.5t45 -77.5q0 -81 -155 -170
l9 -11l139 -163q26 47 26 82q0 27 -26 38.5t-58 11.5v35h290v-35q-45 -3 -68 -16.5t-41 -55.5q-26 -60 -77 -114zM317 572q-22 0 -38 -19t-16 -52q0 -58 55 -130q55 52 55 121q0 34 -15 57t-41 23zM169 189q0 -70 40.5 -113.5t94.5 -43.5t106 41l-182 218l-14 17
q-45 -43 -45 -119z" />
    <glyph glyph-name="quotesingle" unicode="'" horiz-adv-x="168" 
d="M74 388l-43 176q-8 30 7.5 48t48.5 18q29 0 43 -18t7 -48l-41 -176h-22z" />
    <glyph glyph-name="parenleft" unicode="(" horiz-adv-x="333" 
d="M288 -159q-123 69 -186.5 187t-63.5 268t63.5 268t186.5 187l37 -6q-148 -189 -146 -449t141 -444z" />
    <glyph glyph-name="parenright" unicode=")" horiz-adv-x="333" 
d="M45 -159l-32 11q139 184 141 444t-146 449l37 6q123 -69 186.5 -187t63.5 -268t-63.5 -268t-186.5 -187z" />
    <glyph glyph-name="asterisk" unicode="*" horiz-adv-x="356" 
d="M168 517l-25 63q-11 29 1.5 44.5t33.5 15.5t33.5 -15.5t0.5 -44.5l-25 -63q-3 -7 -9.5 -7t-9.5 7zM141 489l-66 11q-30 5 -38 25.5t4 34.5q11 18 29.5 20.5t39.5 -21.5l42 -53q4 -6 0.5 -12t-11.5 -5zM215 489q-9 -1 -12.5 4.5t1.5 12.5l41 53q22 24 40.5 21.5
t28.5 -20.5q12 -15 4.5 -34.5t-37.5 -25.5zM42 404q-12 15 -4.5 34.5t37.5 25.5l66 11q9 1 12.5 -4.5t-1.5 -12.5l-41 -53q-22 -24 -40 -21.5t-29 20.5zM314 404q-7 -11 -17 -17t-24.5 -2.5t-27.5 20.5l-41 53q-5 7 -1.5 12.5t12.5 4.5l66 -11q30 -6 37.5 -25.5t-4.5 -34.5z
M178 324q-21 0 -33.5 15.5t-1.5 44.5l26 63q3 7 9 7t9 -7l26 -63q11 -29 -1.5 -44.5t-33.5 -15.5z" />
    <glyph glyph-name="plus" unicode="+" horiz-adv-x="486" 
d="M428 301v-99h-135v-137h-99v137h-136v99h136v135h99v-135h135z" />
    <glyph glyph-name="comma" unicode="," horiz-adv-x="250" 
d="M34 -158l-9 31q82 25 99 82q6 33 -17 48q-48 27 -48 73q0 32 23.5 55.5t59.5 23.5q35 0 59 -27t24 -74q0 -71 -52.5 -134t-138.5 -78z" />
    <glyph glyph-name="hyphen" unicode="-" horiz-adv-x="436" 
d="M48 222v75h340v-75h-340z" />
    <glyph glyph-name="period" unicode="." horiz-adv-x="234" 
d="M118 -10q-35 0 -59 24.5t-24 59.5q0 33 24.5 57t58.5 24q33 0 57 -24t24 -57q0 -35 -24 -59.5t-57 -24.5z" />
    <glyph glyph-name="slash" unicode="/" horiz-adv-x="404" 
d="M18 -59l313 816l85 -37l-313 -816z" />
    <glyph glyph-name="zero" unicode="0" horiz-adv-x="535" 
d="M263 -9q-104 0 -171 61t-67 165q0 107 71.5 169.5t177.5 62.5q104 0 171 -61t67 -165q0 -107 -71.5 -169.5t-177.5 -62.5zM278 30q40 0 62 43t22 122q0 53 -8 98.5t-32.5 81t-62.5 35.5q-40 0 -62 -43t-22 -122q0 -53 8 -98.5t32.5 -81t62.5 -35.5z" />
    <glyph glyph-name="one" unicode="1" horiz-adv-x="401" 
d="M273 88q0 -31 18 -41t77 -17v-30h-335v30q59 7 77 17t18 41v264q0 31 -18 41t-77 17v30h335v-30q-59 -7 -77 -17t-18 -41v-264z" />
    <glyph glyph-name="two" unicode="2" horiz-adv-x="440" 
d="M38 0l-10 22q53 43 85.5 72.5t69 68.5t54 76t17.5 72q0 69 -72 69q-67 0 -109 -66l-27 16q25 57 75 88t112 31q69 0 115 -36t46 -91q0 -31 -16 -62t-41.5 -56t-54 -45.5t-57.5 -37.5t-47 -27q-3 -1 -4.5 -2t-3.5 -2l-4 -2h103q24 0 37.5 1.5t29.5 7.5t27 19t20 34h29
l-43 -161h-29l-2 11h-300z" />
    <glyph glyph-name="three" unicode="3" horiz-adv-x="492" 
d="M191 -190q-61 0 -112 21t-51 59q0 19 11.5 30.5t29.5 11.5q14 0 26 -8.5t22 -20t21 -23.5t27.5 -20.5t35.5 -8.5q44 0 77.5 37t33.5 102q0 68 -35.5 101.5t-96.5 33.5q-37 0 -79 -16l-10 33l69 31q72 33 99.5 57t27.5 64q0 38 -23 59t-60 21q-78 0 -131 -69l-25 23
q35 59 87.5 90t112.5 31q69 0 118 -35t50 -92q1 -51 -37.5 -84.5t-110.5 -62.5q34 -2 66.5 -11.5t62.5 -27.5t48.5 -48.5t18.5 -69.5q0 -87 -86.5 -147.5t-186.5 -60.5z" />
    <glyph glyph-name="four" unicode="4" horiz-adv-x="561" 
d="M523 -5h-85v-82q0 -31 15 -41t60 -17v-30h-300v30q45 7 60 17t15 41v82h-252l-18 26l360 434h60v-405h95zM93 50h195v236z" />
    <glyph glyph-name="five" unicode="5" horiz-adv-x="508" 
d="M135 216q78 12 134.5 2t94 -28.5t59.5 -49.5t31 -59.5t9 -58.5q0 -87 -75 -149.5t-188 -62.5q-37 0 -74 7t-67.5 26.5t-30.5 46.5q0 19 13 30.5t32 11.5q15 0 27 -8.5t21 -20t19 -23.5t26 -20.5t38 -8.5q49 0 81.5 38.5t32.5 98.5q0 25 -6.5 48.5t-23 48t-43.5 38.5
t-68.5 19.5t-97.5 -8.5l-17 19l100 287h167q40 0 58.5 1t38.5 8t31 22h26l-48 -138h-260z" />
    <glyph glyph-name="six" unicode="6" horiz-adv-x="563" 
d="M283 -12q-121 0 -185 75t-63 194q0 82 35 153.5t90.5 119t122.5 75.5t134 32l19 -37q-108 -10 -180.5 -101.5t-72.5 -258.5q0 -214 111 -214q100 0 100 167q0 91 -38 137.5t-112 29.5v33q32 18 71.5 21.5t78.5 -9t71.5 -37t52.5 -65t20 -89.5q0 -96 -70.5 -161
t-184.5 -65z" />
    <glyph glyph-name="seven" unicode="7" horiz-adv-x="516" 
d="M492 440l11 -15q-205 -296 -279 -615h-101q74 238 273 523h-205q-58 0 -85 -12.5t-49 -62.5h-29l61 199h29l2 -17h372z" />
    <glyph glyph-name="eight" unicode="8" horiz-adv-x="564" 
d="M398 347q128 -61 128 -171q0 -85 -73.5 -137t-178.5 -52q-97 0 -166.5 47.5t-69.5 127.5q0 98 104 158q-61 58 -61 136q0 75 61 124.5t146 49.5q79 0 132 -46t53 -107q0 -73 -75 -130zM287 590q-40 0 -63.5 -27t-23.5 -62q0 -80 99 -115l47 -17q44 44 44 106q0 45 -27 80
t-76 35zM278 26q50 0 79 29t29 79q0 38 -19.5 62.5t-73.5 45.5l-69 26q-24 10 -41 20q-57 -47 -57 -116q0 -64 44.5 -105t107.5 -41z" />
    <glyph glyph-name="nine" unicode="9" horiz-adv-x="563" 
d="M280 449q121 0 185 -75t63 -194q0 -82 -35 -153.5t-90.5 -119t-122.5 -75.5t-134 -32l-19 37q108 10 180.5 101.5t72.5 258.5q0 214 -111 214q-100 0 -100 -167q0 -91 38 -137.5t112 -29.5v-33q-32 -18 -71.5 -21.5t-78.5 9t-71.5 37t-52.5 65t-20 89.5q0 96 70.5 161
t184.5 65z" />
    <glyph glyph-name="colon" unicode=":" horiz-adv-x="241" 
d="M118 300q-35 0 -59 24.5t-24 59.5q0 33 24.5 57t58.5 24q33 0 57 -24t24 -57q0 -35 -24 -59.5t-57 -24.5zM119 -10q-35 0 -59 24.5t-24 59.5q0 33 24.5 57t58.5 24q33 0 57 -24t24 -57q0 -35 -24 -59.5t-57 -24.5z" />
    <glyph glyph-name="semicolon" unicode=";" horiz-adv-x="255" 
d="M143 299q-35 0 -59 24.5t-24 59.5q0 33 24.5 57t58.5 24q33 0 57 -24t24 -57q0 -35 -24 -59.5t-57 -24.5zM34 -158l-9 31q82 25 99 82q6 33 -17 48q-48 27 -48 73q0 32 23.5 55.5t59.5 23.5q35 0 59 -27t24 -74q0 -71 -52.5 -134t-138.5 -78z" />
    <glyph glyph-name="less" unicode="&#x3c;" horiz-adv-x="496" 
d="M438 30q-159 86 -380 171v99q221 85 380 171v-118q-62 -31 -87.5 -42.5t-68 -26.5t-106.5 -33q91 -26 133.5 -43.5t128.5 -59.5v-118z" />
    <glyph glyph-name="equal" unicode="=" horiz-adv-x="486" 
d="M58 292v99h370v-99h-370zM58 112v99h370v-99h-370z" />
    <glyph glyph-name="greater" unicode="&#x3e;" horiz-adv-x="496" 
d="M58 30v118q62 31 87.5 42.5t68 26.5t106.5 34q-91 26 -133.5 43t-128.5 59v118q159 -86 380 -171v-99q-221 -85 -380 -171z" />
    <glyph glyph-name="question" unicode="?" horiz-adv-x="498" 
d="M221 202q-15 39 -11.5 62.5t18.5 52t32.5 51.5t31.5 60.5t14 78.5q0 61 -29.5 84t-85.5 23q-26 0 -35 -25q-22 -58 -42 -81.5t-45 -23.5q-23 0 -37 15t-14 34q0 35 45 65t104 45t112 15q84 0 137.5 -43t53.5 -118q0 -46 -23.5 -83.5t-56 -61t-65 -45t-54 -48t-18.5 -57.5
h-32zM232 -9q-35 0 -59 24.5t-24 59.5q0 33 24.5 57t58.5 24q33 0 57 -24t24 -57q0 -35 -24 -59.5t-57 -24.5z" />
    <glyph glyph-name="at" unicode="@" horiz-adv-x="775" 
d="M608 439l-49 -236q-8 -42 -1.5 -55.5t28.5 -13.5q49 0 82.5 51t33.5 129q0 129 -79 209t-205 80q-134 0 -213.5 -92t-79.5 -231q0 -129 81 -220.5t214 -91.5q84 0 183 61l26 -15q-98 -82 -230 -82q-152 0 -256.5 101t-104.5 247q0 148 107.5 251.5t267.5 103.5
q151 0 237.5 -93.5t86.5 -227.5q0 -91 -48.5 -151t-114.5 -60q-12 0 -24.5 2t-30 8t-30 21t-15.5 36q-49 -64 -126 -64q-55 0 -92 33.5t-37 102.5q0 91 61.5 150.5t134.5 59.5q72 0 98 -65l10 52h85zM372 141q40 0 71.5 35t44.5 88l5 25q3 19 3 38q0 91 -70 91
q-54 0 -84 -56.5t-30 -124.5q0 -96 60 -96z" />
    <glyph glyph-name="A" unicode="A" horiz-adv-x="683" 
d="M604 85q8 -17 13 -26t18.5 -15t18.5 -7t34 -7v-30h-314v30l17.5 3.5t17 4t13 4.5t11.5 6t6 8.5t2 12.5t-5 16l-40 93h-230l-39 -92q-4 -9 -5 -16.5t2 -12.5t5.5 -8.5t11 -6.5t13 -4.5t17 -4l17.5 -3.5v-30h-193v30q41 8 54 16.5t28 41.5l240 549h47zM184 220h193l-98 225
z" />
    <glyph glyph-name="B" unicode="B" horiz-adv-x="689" 
d="M476 331q183 -40 183 -161q0 -86 -90 -128t-240 -42h-314v30q51 10 64 20q19 16 19 59v412q0 23 -3.5 37t-17.5 22.5t-20.5 10.5t-33.5 7q-5 1 -8 2v30h314q129 0 208 -36t79 -112q0 -108 -140 -151zM451 471q0 25 -3.5 42t-14.5 35.5t-37 28t-67 9.5h-10
q-37 -1 -50.5 -12.5t-13.5 -36.5v-188h69q42 0 69 9t39 27.5t15.5 37.5t3.5 48zM353 44q77 0 104 31.5t27 89.5q0 28 -6 50t-23 45t-55 35.5t-95 12.5h-50v-188q0 -39 21.5 -57.5t76.5 -18.5z" />
    <glyph glyph-name="C" unicode="C" horiz-adv-x="659" 
d="M377 -12q-154 0 -248 92t-94 230q0 146 101.5 241t258.5 95q120 0 197 -46q4 -91 7 -135h-46q-31 137 -165 137q-97 0 -142 -69t-45 -180q0 -133 68.5 -219.5t181.5 -86.5q99 0 147 52l26 -27q-32 -36 -97.5 -60t-149.5 -24z" />
    <glyph glyph-name="D" unicode="D" horiz-adv-x="731" 
d="M324 630q69 0 132.5 -18t118.5 -53.5t88 -97.5t33 -142q0 -82 -32.5 -145.5t-87 -100t-118.5 -55t-134 -18.5h-309v30q51 10 64 20q19 16 19 59v412q0 23 -3.5 37t-17.5 22.5t-20.5 10.5t-33.5 7q-5 1 -8 2v30h309zM352 42q83 0 130 71.5t47 195.5q0 127 -54 203t-161 76
h-59v-450q0 -53 20.5 -74.5t76.5 -21.5z" />
    <glyph glyph-name="E" unicode="E" horiz-adv-x="605" 
d="M550 158h35l-41 -158h-529v30q51 10 64 20q19 16 19 59v412q0 23 -3.5 37t-17.5 22.5t-20.5 10.5t-33.5 7q-5 1 -8 2v30h527l9 -150h-35q-7 57 -27 81.5t-71 24.5h-69q-59 0 -76.5 -13t-17.5 -63v-171h57q86 0 110 17t29 67h29v-210h-29q-5 50 -29 67t-110 17h-57v-177
q0 -50 17.5 -63t76.5 -13h48q59 0 92 24.5t61 89.5z" />
    <glyph glyph-name="F" unicode="F" horiz-adv-x="576" 
d="M547 630l9 -150h-35q-7 57 -27 81.5t-71 24.5h-74q-59 0 -76.5 -13t-17.5 -63v-171h67q86 0 110 17t29 67h29v-210h-29q-5 50 -29 67t-110 17h-67v-188q0 -23 3.5 -37t17.5 -22.5t20.5 -10.5t33.5 -7q5 -1 8 -2v-30h-323v30q51 10 64 20q19 16 19 59v412q0 23 -3.5 37
t-17.5 22.5t-20.5 10.5t-33.5 7q-5 1 -8 2v30h532z" />
    <glyph glyph-name="G" unicode="G" horiz-adv-x="705" 
d="M386 -12q-161 0 -256 91.5t-95 230.5q0 146 102 241t259 95q125 0 202 -46q4 -91 7 -135h-46q-31 137 -177 137q-95 0 -138 -64t-43 -190q0 -143 46.5 -229.5t125.5 -86.5q60 0 86 25.5t26 84.5v24q0 63 -20.5 83.5t-82.5 25.5v34h293v-34q-57 -9 -57 -69v-14
q0 -112 17 -149q-38 -23 -104 -39t-145 -16z" />
    <glyph glyph-name="H" unicode="H" horiz-adv-x="750" 
d="M735 600q-51 -10 -64 -20q-19 -16 -19 -59v-412q0 -23 3.5 -37t17.5 -22.5t20.5 -10.5t33.5 -7q5 -1 8 -2v-30h-323v30q51 10 64 20q19 16 19 59v183h-240v-183q0 -23 3.5 -37t17.5 -22.5t20.5 -10.5t33.5 -7q5 -1 8 -2v-30h-323v30q51 10 64 20q19 16 19 59v412
q0 23 -3.5 37t-17.5 22.5t-20.5 10.5t-33.5 7q-5 1 -8 2v30h323v-30q-51 -10 -64 -20q-19 -16 -19 -59v-187h240v187q0 23 -3.5 37t-17.5 22.5t-20.5 10.5t-33.5 7q-5 1 -8 2v30h323v-30z" />
    <glyph glyph-name="I" unicode="I" horiz-adv-x="353" 
d="M15 0v30q51 10 64 20q19 16 19 59v412q0 23 -3.5 37t-17.5 22.5t-20.5 10.5t-33.5 7q-5 1 -8 2v30h323v-30q-51 -10 -64 -20q-19 -16 -19 -59v-412q0 -23 3.5 -37t17.5 -22.5t20.5 -10.5t33.5 -7q5 -1 8 -2v-30h-323z" />
    <glyph glyph-name="J" unicode="J" horiz-adv-x="357" 
d="M-3 -185q-6 7 -6 18.5t6 18.5q67 24 86 56t19 108v505q0 30 -10.5 46.5t-21.5 20.5t-41 10q-5 1 -8 2v30h321v-30q-51 -10 -64 -20q-19 -16 -19 -59v-515q0 -38 -16 -68.5t-39.5 -49.5t-61.5 -34t-69 -23t-76 -16z" />
    <glyph glyph-name="K" unicode="K" horiz-adv-x="728" 
d="M642 54q12 -17 27.5 -20.5t58.5 -3.5v-30h-243q0 20 -34 70l-154 233l-42 -42v-152q0 -23 3.5 -37t17.5 -22.5t20.5 -10.5t33.5 -7q5 -1 8 -2v-30h-323v30q51 10 64 20q19 16 19 59v412q0 23 -3.5 37t-17.5 22.5t-20.5 10.5t-33.5 7q-5 1 -8 2v30h323v-30
q-51 -10 -64 -20q-19 -16 -19 -59v-196l236 232q44 43 -41 43v30h225v-30q-47 0 -71.5 -9.5t-48.5 -33.5l-154 -152z" />
    <glyph glyph-name="L" unicode="L" horiz-adv-x="605" 
d="M15 0v30q51 10 64 20q19 16 19 59v412q0 23 -3.5 37t-17.5 22.5t-20.5 10.5t-33.5 7q-5 1 -8 2v30h312v-30q-25 -5 -34 -7.5t-20.5 -10.5t-14.5 -22t-3 -39v-399q0 -50 17.5 -63t76.5 -13h51q61 0 94.5 24t58.5 94h37l-41 -164h-534z" />
    <glyph glyph-name="M" unicode="M" horiz-adv-x="907" 
d="M807 109q1 -30 12.5 -46.5t22.5 -20.5t42 -10q5 -1 8 -2v-30h-323v30q51 10 64 20q19 16 17 59l-16 440l-216 -549h-30l-219 508l-17 -399q-1 -24 3 -38.5t20 -22.5t25 -10.5t40 -7.5v-30h-225v30q52 10 65 21q20 16 22 58l18 412q1 23 -3 37t-16.5 22t-22 11t-32.5 7
q-7 1 -10 2v30h245q2 -13 31 -77l145 -338l131 338q25 66 27 77h256v-30q-52 -10 -65 -20q-19 -17 -17 -59z" />
    <glyph glyph-name="N" unicode="N" horiz-adv-x="693" 
d="M456 630h222v-30q-52 -10 -65 -20q-20 -17 -20 -59v-521h-65l-381 535v-426q0 -23 4 -37t19 -22.5t22 -10.5t36 -7q6 -1 9 -2v-30h-222v30q52 10 65 20q20 16 20 59v412q0 23 -4 37t-17.5 22.5t-21.5 10.5t-33 7q-2 1 -3 1t-3 0.5t-3 0.5v30h242l289 -413v304q0 23 -4 37
t-19 22.5t-22 10.5t-36 7q-6 1 -9 2v30z" />
    <glyph glyph-name="O" unicode="O" horiz-adv-x="722" 
d="M359 -12q-140 0 -232 90.5t-92 233.5q0 147 92.5 240.5t235.5 93.5q141 0 232.5 -91t91.5 -238q0 -143 -93 -236t-235 -93zM376 32q146 0 146 255q0 146 -45 230.5t-131 84.5q-146 0 -146 -260q0 -142 45.5 -226t130.5 -84z" />
    <glyph glyph-name="P" unicode="P" horiz-adv-x="653" 
d="M15 0v30q51 10 64 20q19 16 19 59v412q0 23 -3.5 37t-17.5 22.5t-20.5 10.5t-33.5 7q-5 1 -8 2v30h303q307 0 307 -185q0 -100 -88 -152t-237 -52q-12 0 -12 21.5t12 21.5q93 0 126.5 42t33.5 113q0 67 -27 107t-105 40q-43 0 -58 -11t-15 -35v-431q0 -23 3.5 -37
t17.5 -22.5t20.5 -10.5t33.5 -7q5 -1 8 -2v-30h-323z" />
    <glyph glyph-name="Q" unicode="Q" horiz-adv-x="756" 
d="M826 -76q7 -2 13.5 -10.5t6.5 -17.5q-79 -71 -188 -71q-80 0 -146 40l-172 105q-29 17 -60 26q-110 24 -177.5 109.5t-67.5 206.5q0 147 92.5 240.5t235.5 93.5q141 0 232.5 -91t91.5 -238q0 -114 -60.5 -198t-161.5 -115q56 -3 96 -27l54 -30q4 -2 16.5 -9t17.5 -9.5
t16 -8.5t17 -8.5t15.5 -6t17 -5t16 -3t16.5 -1.5q40 0 79 28zM346 602q-146 0 -146 -260q0 -142 45.5 -226t130.5 -84q146 0 146 255q0 146 -45 230.5t-131 84.5z" />
    <glyph glyph-name="R" unicode="R" horiz-adv-x="720" 
d="M578 113q21 -39 58.5 -66.5t78.5 -15.5v-31q-37 -16 -98 -16q-138 0 -191 93l-56 98q-31 53 -55.5 72.5t-59.5 21.5v-160q0 -23 3.5 -37t17.5 -22.5t20.5 -10.5t33.5 -7q5 -1 8 -2v-30h-323v30q51 10 64 20q19 16 19 59v412q0 23 -3.5 37t-17.5 22.5t-20.5 10.5t-33.5 7
q-5 1 -8 2v30h303q294 0 294 -176q0 -147 -195 -177q74 -13 114 -82zM323 586q-40 0 -54 -11t-14 -35v-228h39q89 0 120.5 36.5t31.5 96.5q0 141 -123 141z" />
    <glyph glyph-name="S" unicode="S" horiz-adv-x="547" 
d="M262 -12q-135 0 -219 63l-8 132h33q21 -72 69 -113t115 -41q54 0 85 28.5t31 73.5q0 39 -29.5 69t-95.5 58q-42 18 -71.5 34.5t-61.5 42t-48.5 60t-16.5 76.5q0 82 62 128.5t170 46.5q17 0 33.5 -1.5t31.5 -4.5t27 -5.5t24.5 -7.5t20.5 -8t18.5 -9t15 -8.5t13.5 -8
t10 -6.5l3 -134h-31q-21 73 -57 112.5t-98 39.5q-52 0 -77 -26t-25 -62q0 -32 22.5 -55.5t87.5 -51.5q38 -17 58 -26t56 -31.5t55.5 -44t35.5 -55t16 -71.5q0 -87 -70.5 -140.5t-184.5 -53.5z" />
    <glyph glyph-name="T" unicode="T" horiz-adv-x="601" 
d="M578 640l8 -182h-29q-11 68 -41.5 99t-106.5 31h-29v-479q0 -24 4.5 -38.5t20 -22.5t24 -10.5t38.5 -7.5v-30h-331v30q54 10 67 20q20 16 20 59v479h-28q-78 0 -109 -31t-42 -99h-29l8 182l59 -10h437z" />
    <glyph glyph-name="U" unicode="U" horiz-adv-x="720" 
d="M362 -12q-264 0 -264 265v268q0 23 -3.5 37t-17.5 22.5t-20.5 10.5t-33.5 7q-5 1 -8 2v30h324v-30q-51 -10 -64 -20q-19 -16 -19 -59v-285q0 -201 150 -201q21 0 40 3.5t42 15.5t39.5 31.5t28 55.5t11.5 83v297q0 23 -4 37t-17.5 22.5t-21.5 10.5t-33 7q-2 1 -3 1t-3 0.5
t-3 0.5v30h223v-30q-56 -10 -69 -20q-21 -16 -21 -59v-277q0 -256 -253 -256z" />
    <glyph glyph-name="V" unicode="V" horiz-adv-x="683" 
d="M495 630h193v-30q-41 -8 -54 -16.5t-28 -41.5l-240 -549h-47l-240 552q-8 17 -13 26t-18.5 15t-18.5 7t-34 7v30h314v-30l-17.5 -3.5t-17 -4t-13 -4.5t-11.5 -6t-6 -8.5t-2 -12.5t5 -16l157 -360l152 359q4 9 5 16.5t-2 12.5t-5.5 8.5t-11 6.5t-13 4.5t-17 4l-17.5 3.5
v30z" />
    <glyph glyph-name="W" unicode="W" horiz-adv-x="1025" 
d="M289 -8l-211 560q-12 32 -25.5 40.5t-57.5 16.5v22h317v-22q-50 -8 -60.5 -16.5t0.5 -40.5l124 -358l96 271q21 54 3.5 93.5t-75.5 49.5v22h234q0 -43 34 -136l106 -299l110 312q9 24 9.5 41t-3.5 27t-18 16.5t-27.5 9.5t-39.5 7v22h225v-22q-32 -6 -42.5 -9.5t-21.5 -14
t-19 -33.5l-202 -558h-58l-173 460l-167 -461h-58z" />
    <glyph glyph-name="X" unicode="X" horiz-adv-x="749" 
d="M617 93q14 -20 24 -30.5t29 -17.5t28 -8.5t46 -6.5v-30h-348v30q4 1 14.5 3t14 2.5t11 2.5t9 3t6 3.5t4 5.5t0.5 7t-1.5 9t-6 11.5t-9.5 14.5l-115 168l-131 -165q-7 -8 -11 -15t-7.5 -12.5t-3 -9.5t0.5 -7t4 -5.5t6 -4t9.5 -3.5t11.5 -2.5t14 -2.5l15 -3v-30h-226v30
q65 9 83 19q20 11 48 45l162 202l-162 235q-27 39 -48.5 50t-76.5 19v30h340v-30q-22 -4 -28.5 -5.5t-17.5 -6.5t-10.5 -11t4.5 -17.5t16 -28.5l96 -139l114 141q13 16 17 27t4 17t-12.5 11t-19 6.5t-29.5 5.5v30h220v-30q-53 -8 -73.5 -18t-52.5 -49l-144 -176z" />
    <glyph glyph-name="Y" unicode="Y" horiz-adv-x="673" 
d="M468 630h205v-30q-39 -8 -51 -16.5t-37 -45.5l-163 -258v-179q0 -25 4.5 -39t20.5 -22t26 -10.5t42 -7.5v-22h-343v22q59 10 73 21q20 15 20 58v160l-178 277q-24 37 -36 45.5t-51 16.5v30h322v-30q-7 -2 -25 -5t-24 -5t-13.5 -8t-5 -17t13.5 -27l133 -212l131 212
q10 17 11.5 27.5t-9 16.5t-19 8.5t-31.5 6.5q-11 2 -16 3v30z" />
    <glyph glyph-name="Z" unicode="Z" horiz-adv-x="615" 
d="M26 0l-11 15l381 581l-177 -4q-72 -1 -100.5 -31t-33.5 -101h-33v176l67 -6h472l-390 -596l220 4q69 1 97 32t43 102h34q-19 -102 -19 -172h-550z" />
    <glyph glyph-name="bracketleft" unicode="[" horiz-adv-x="333" 
d="M315 -166l-257 18v889l257 18v-28l-112 -31v-807l112 -31v-28z" />
    <glyph glyph-name="backslash" unicode="\" horiz-adv-x="404" 
d="M386 -59l-85 -37l-313 816l85 37z" />
    <glyph glyph-name="bracketright" unicode="]" horiz-adv-x="333" 
d="M18 -166v28l112 31v807l-112 31v28l257 -18v-889z" />
    <glyph glyph-name="asciicircum" unicode="^" horiz-adv-x="444" 
d="M54 363l-16 21l184 262l184 -264l-16 -19l-168 181z" />
    <glyph glyph-name="underscore" unicode="_" horiz-adv-x="646" 
d="M38 -76l-1 56h571l1 -56h-571z" />
    <glyph glyph-name="grave" unicode="`" horiz-adv-x="168" 
d="M132 500q-52 55 -128 103q10 29 39 51t57 22q52 -73 69 -154z" />
    <glyph glyph-name="a" unicode="a" horiz-adv-x="539" 
d="M459 98q0 -24 21.5 -28.5t53.5 13.5v-29q-69 -48 -130 -61q-32 0 -60 24t-30 55q-75 -79 -166 -79q-53 0 -90.5 26t-37.5 80q0 25 10 45t25.5 33.5t42.5 25.5t52.5 20.5t65.5 19.5q7 2 11 3q5 2 18.5 5.5t20.5 6.5l17.5 7.5t18 11t12.5 14.5v19q0 56 -21.5 75.5
t-70.5 19.5q-21 0 -31 -26q-21 -59 -41 -82t-48 -23q-22 0 -35.5 15t-13.5 34q0 35 45 65.5t102 45.5t105 15q75 0 114.5 -41t39.5 -113v-197zM226 59q46 0 88 56v116l-74 -20q-37 -11 -55.5 -33t-18.5 -49q0 -29 16 -49.5t44 -20.5z" />
    <glyph glyph-name="b" unicode="b" horiz-adv-x="572" 
d="M282 -9q-112 0 -165.5 41t-53.5 115v392q0 17 -1 24.5t-7.5 17t-22 14t-42.5 7.5v28q112 13 198 57l20 -19v-318q23 42 62 70.5t87 28.5q74 0 132 -58.5t58 -156.5q0 -113 -75.5 -178t-189.5 -65zM289 33q49 0 77 50.5t28 129.5q0 70 -23.5 116.5t-69.5 46.5
q-56 0 -93 -69v-172q0 -39 20.5 -70.5t60.5 -31.5z" />
    <glyph glyph-name="c" unicode="c" horiz-adv-x="485" 
d="M272 -9q-110 0 -178.5 61.5t-68.5 165.5q0 108 71.5 169.5t183.5 61.5q86 0 133.5 -35t47.5 -81q0 -24 -14.5 -39t-41.5 -15q-29 0 -45.5 18.5t-27.5 62.5q-8 30 -19.5 40t-30.5 10q-51 0 -80 -39t-29 -110q0 -82 42.5 -135t115.5 -53q32 0 62.5 9.5t44.5 26.5l21 -17
q-18 -48 -67 -74.5t-120 -26.5z" />
    <glyph glyph-name="d" unicode="d" horiz-adv-x="598" 
d="M517 96q0 -30 12.5 -44.5t53.5 -21.5v-30h-200l8 91h-15q-25 -43 -66 -71.5t-93 -28.5q-74 0 -133 55.5t-59 157.5q0 114 74.5 179.5t174.5 65.5q56 0 98 -22v112q0 29 -16 43.5t-59 19.5v28q112 12 200 57l20 -19v-572zM287 68q32 0 53.5 22t31.5 53v226q-21 39 -76 39
q-52 0 -86 -44t-34 -125q0 -76 31.5 -123.5t79.5 -47.5z" />
    <glyph glyph-name="e" unicode="e" horiz-adv-x="496" 
d="M329 71q33 0 63.5 11.5t45.5 30.5l21 -17q-18 -49 -68.5 -77t-121.5 -28q-108 0 -176 62t-68 166q0 105 70.5 167.5t169.5 62.5q56 0 100.5 -21t67.5 -53.5t31 -72t-10 -75.5h-278q9 -73 49.5 -114.5t103.5 -41.5zM257 408q-37 0 -60.5 -35.5t-23.5 -104.5h147
q11 56 -5.5 98t-57.5 42z" />
    <glyph glyph-name="f" unicode="f" horiz-adv-x="400" 
d="M480 624q1 -29 -32.5 -50.5t-74.5 -23.5q-8 28 -15.5 46t-23.5 35t-35 17q-65 0 -65 -111v-95l128 13q-5 -27 -5 -59h-123v-308q0 -30 24 -41t81 -17v-30h-329v30q40 6 57.5 17t17.5 41v308h-75v29l75 15v3q0 119 80 187t178 68q110 0 137 -74z" />
    <glyph glyph-name="g" unicode="g" horiz-adv-x="534" 
d="M509 432v-82l-97 17q16 -28 16 -63q0 -61 -48.5 -102.5t-139.5 -41.5h-1h-18q-50 0 -50 -29q0 -21 44 -25l96 -8q108 -10 145 -31t37 -71q0 -86 -78.5 -137t-206.5 -50q-100 1 -149 33t-49 73q0 20 26 45.5t64 42.5q-54 24 -54 70q0 21 36 53t77 45q-52 16 -79.5 52
t-27.5 81q0 61 49 103t139 42q37 0 69 -8q31 -9 200 -9zM240 193q36 0 51 33.5t15 77.5t-15 78t-51 34t-51 -34t-15 -78t15 -77.5t51 -33.5zM306 -25l-122 9q-35 2 -53 -13.5t-18 -41.5q0 -72 133 -72q67 0 107 21t40 56q0 20 -19 28.5t-68 12.5z" />
    <glyph glyph-name="h" unicode="h" horiz-adv-x="600" 
d="M524 88q0 -31 13.5 -40.5t52.5 -17.5v-30h-266v30q22 6 31 9.5t16.5 15.5t7.5 33v192q0 89 -59 89q-45 0 -87 -50v-231q0 -21 7.5 -33t16.5 -15.5t31 -9.5v-30h-273v30q44 8 58.5 17.5t14.5 40.5v451q0 17 -1 24.5t-7.5 17t-22 14t-42.5 7.5v28q110 12 198 57l20 -19
v-306q39 43 74.5 65t86.5 22q72 0 101 -45t29 -109v-207z" />
    <glyph glyph-name="i" unicode="i" horiz-adv-x="307" 
d="M150 503q-35 0 -60.5 25t-25.5 59t25.5 58t60.5 24t60.5 -24t25.5 -58t-25.5 -59t-60.5 -25zM15 0v30q39 8 52.5 17.5t13.5 40.5v219q0 30 -12.5 44t-53.5 19v28q130 23 190 58l21 -19v-349q0 -31 13.5 -40.5t52.5 -17.5v-30h-277z" />
    <glyph glyph-name="j" unicode="j" horiz-adv-x="289" 
d="M143 503q-35 0 -60.5 25t-25.5 59t25.5 58t60.5 24t60.5 -24t25.5 -58t-25.5 -59t-60.5 -25zM-11 -185q-8 17 0 34q47 15 66.5 51.5t19.5 102.5v304q0 30 -12.5 44t-53.5 19v28q134 21 190 58l21 -19v-454q0 -42 -24.5 -74.5t-64 -51t-73.5 -28t-69 -14.5z" />
    <glyph glyph-name="k" unicode="k" horiz-adv-x="618" 
d="M536 66q13 -18 29.5 -24.5t57.5 -10.5v-31h-223q0 37 -18 61l-99 142l-50 -48v-67q0 -31 14.5 -40.5t58.5 -17.5v-30h-291v30q44 8 58.5 17.5t14.5 40.5v451q0 17 -1 24.5t-7.5 17t-22 14t-42.5 7.5v28q110 12 198 57l20 -19v-452l151 142q46 43 -36 51v31h218v-31
q-32 -2 -57 -12t-38 -19.5t-36 -29.5l-58 -56z" />
    <glyph glyph-name="l" unicode="l" horiz-adv-x="321" 
d="M15 0v30q44 8 58.5 17.5t14.5 40.5v451q0 17 -1 24.5t-7.5 17t-22 14t-42.5 7.5v28q110 12 198 57l20 -19v-580q0 -31 14.5 -40.5t58.5 -17.5v-30h-291z" />
    <glyph glyph-name="m" unicode="m" horiz-adv-x="885" 
d="M10 0v30q20 4 29.5 7t19.5 9t13.5 16t3.5 26v229q0 30 -12.5 42.5t-53.5 10.5v28q119 18 190 58l20 -19l-35 -84h28q25 32 42.5 49t49.5 32t72 15q106 0 131 -96h4q32 46 68.5 71t94.5 25q136 0 136 -154v-207q0 -21 9 -33t19.5 -15.5t35.5 -9.5v-30h-269v30q18 5 25.5 7
t17.5 8.5t13.5 16.5t3.5 26v194q0 47 -15 67t-46 20q-46 0 -90 -49v-232q0 -16 3.5 -26t14 -16.5t18 -9t25.5 -6.5v-30h-269v30q25 6 35 9.5t19 15.5t9 33v194q0 47 -14.5 67t-45.5 20q-47 0 -89 -51v-230q0 -21 7.5 -33t16.5 -15.5t31 -9.5v-30h-266z" />
    <glyph glyph-name="n" unicode="n" horiz-adv-x="588" 
d="M10 0v30q39 8 52.5 17.5t13.5 40.5v219q0 30 -12.5 44t-53.5 19v28q119 18 190 58l20 -19l-35 -84h28q42 48 78.5 72t90.5 24q72 0 101 -45t29 -109v-207q0 -31 13.5 -40.5t52.5 -17.5v-30h-266v30q22 6 31 9.5t16.5 15.5t7.5 33v193q0 88 -57 88q-51 0 -89 -51v-230
q0 -21 7.5 -33t16.5 -15.5t31 -9.5v-30h-266z" />
    <glyph glyph-name="o" unicode="o" horiz-adv-x="537" 
d="M263 -9q-104 0 -171 61t-67 165q0 107 71.5 169.5t177.5 62.5q104 0 171 -61t67 -165q0 -107 -71.5 -169.5t-177.5 -62.5zM278 30q40 0 62 43t22 122q0 53 -8 98.5t-32.5 81t-62.5 35.5q-40 0 -62 -43t-22 -122q0 -53 8 -98.5t32.5 -81t62.5 -35.5z" />
    <glyph glyph-name="p" unicode="p" horiz-adv-x="592" 
d="M382 449q74 0 129.5 -58t55.5 -157q0 -113 -73.5 -178t-170.5 -65q-49 0 -97 17v-95q0 -17 3.5 -27t18 -16.5t22.5 -8t36 -6.5v-30h-296v30q25 5 32 6.5t19.5 8t16 16.5t3.5 27v394q0 30 -13.5 44t-57.5 19v28q112 14 205 58l20 -19l-39 -113h11q24 50 71 87.5t104 37.5z
M315 33q49 0 74 46t25 122q0 77 -26.5 126t-71.5 49q-38 0 -64 -37.5t-26 -67.5v-114q0 -52 22 -88t67 -36z" />
    <glyph glyph-name="q" unicode="q" horiz-adv-x="600" 
d="M521 -87q0 -21 9 -33t20 -15.5t37 -9.5v-30h-297v30q52 7 69 17t17 41v172q-63 -94 -159 -94q-73 0 -132.5 56t-59.5 157q0 116 81.5 180.5t209.5 64.5q65 0 134 -21l71 12v-527zM287 70q34 0 57 23.5t32 55.5v188q0 31 -22 52t-57 21q-52 0 -86.5 -44.5t-34.5 -124.5
q0 -77 31.5 -124t79.5 -47z" />
    <glyph glyph-name="r" unicode="r" horiz-adv-x="432" 
d="M10 0v30q22 4 31.5 7t20.5 9t15 16t4 26v220q0 30 -13.5 44t-57.5 18v28q120 19 205 58l20 -19l-18 -122h30q28 72 58 106.5t73 34.5q20 0 39 -8v-131q-30 15 -66 15q-63 0 -94 -41.5t-31 -98.5v-104q0 -16 4 -26t15 -16t21.5 -9t33.5 -7v-30h-290z" />
    <glyph glyph-name="s" unicode="s" horiz-adv-x="407" 
d="M181 -9q-85 0 -154 40l-2 96h46q18 -48 45 -73t77 -25q72 0 72 54q0 26 -20 42.5t-69 32.5q-29 10 -51.5 20.5t-47.5 28.5t-38.5 45t-13.5 61q0 65 50 100.5t132 35.5q69 0 139 -38l1 -95h-46q-28 95 -103 95q-29 0 -45.5 -12.5t-16.5 -34.5q0 -44 81 -72
q35 -12 58.5 -22.5t51 -29.5t41.5 -46t14 -62q0 -71 -56 -106t-145 -35z" />
    <glyph glyph-name="t" unicode="t" horiz-adv-x="380" 
d="M241 118q0 -81 129 -36v-30q-83 -43 -174 -62q-46 0 -73 24.5t-27 58.5v323h-86v34q105 35 193 105h38v-98l132 12q-5 -28 -5 -53h-127v-278z" />
    <glyph glyph-name="u" unicode="u" horiz-adv-x="580" 
d="M205 -9q-74 0 -104 44.5t-30 109.5v221q0 18 -8.5 27.5t-19 12.5t-33.5 7v27q135 -7 206 6v-295q0 -40 17.5 -60.5t47.5 -20.5q38 0 78 47v249q0 18 -8.5 27.5t-19 12.5t-33.5 7v27q135 -7 206 6v-350q0 -30 12.5 -44.5t53.5 -21.5v-30h-191l6 80h-17q-38 -43 -74 -66
t-89 -23z" />
    <glyph glyph-name="v" unicode="v" horiz-adv-x="506" 
d="M344 440h167v-30q-35 -4 -49 -11.5t-26 -36.5l-158 -368h-46l-166 368q-13 29 -25 36.5t-46 11.5v30h268v-30q-45 -7 -53 -18q-7 -11 1 -30l94 -209l80 186q10 22 10.5 36t-9.5 21t-17.5 9t-24.5 5v30z" />
    <glyph glyph-name="w" unicode="w" horiz-adv-x="805" 
d="M217 -6l-153 373q-11 26 -23 33t-46 10v30h269v-30q-46 -6 -54 -18q-6 -9 0 -25l82 -219l73 182q17 38 5 58q-11 18 -50 22v30h196q0 -40 18 -90l78 -203l65 165q13 32 15.5 51.5t-8 29t-24.5 12.5t-43 5v30h193v-30q-34 -3 -46 -10t-23 -33l-154 -373h-51l-134 326
l-134 -326h-51z" />
    <glyph glyph-name="x" unicode="x" horiz-adv-x="554" 
d="M459 74q19 -24 36 -32t54 -12v-30h-280v30q16 2 24 4t16 7t7 13t-10 20l-77 103l-88 -103q-11 -13 -12.5 -21t9 -12.5t16.5 -6t25 -4.5v-30h-174v30q37 4 52 11t38 33l113 131l-120 159q-19 25 -35.5 33.5t-49.5 12.5v30h271v-30q-15 -2 -23.5 -4.5t-15.5 -7.5
t-5.5 -13.5t10.5 -20.5l63 -84l73 84q11 13 12 21.5t-8 13.5t-17 6.5t-25 4.5v30h169v-30q-31 -4 -46.5 -12t-38.5 -34l-98 -112z" />
    <glyph glyph-name="y" unicode="y" horiz-adv-x="523" 
d="M357 440h171v-30q-34 -4 -46.5 -11t-24.5 -35l-168 -389q-68 -159 -163 -159q-36 0 -71 23v83q71 -16 116.5 -8t68.5 55l-172 393q-13 29 -26 36.5t-47 11.5v30h273v-30q-44 -7 -51.5 -17.5t1.5 -30.5l96 -223l97 225q4 9 4.5 15.5t-3 11.5t-6.5 7.5t-12 5t-13.5 3
t-16.5 2.5q-5 1 -7 1v30z" />
    <glyph glyph-name="z" unicode="z" horiz-adv-x="485" 
d="M26 0l-11 15l267 386l-110 -3q-84 -1 -94 -103h-35v151l59 -6h362l-278 -401l120 3q60 1 86.5 27.5t41.5 78.5h36q-19 -81 -19 -148h-425z" />
    <glyph glyph-name="braceleft" unicode="{" horiz-adv-x="331" 
d="M305 -161q-64 13 -104.5 33.5t-59 49.5t-24 55.5t-5.5 65.5v155q0 23 -23.5 47.5t-60.5 37.5v25q37 13 60.5 37.5t23.5 47.5v155q0 39 5.5 65.5t24 55.5t59 49.5t104.5 33.5l8 -26q-38 -16 -47 -53.5t-9 -124.5v-130q0 -42 -31 -75t-73 -42v-11q42 -9 73 -42t31 -75v-130
q0 -46 1 -67t6 -47.5t17 -40.5t32 -23z" />
    <glyph glyph-name="bar" unicode="|" horiz-adv-x="196" 
d="M68 -175v821h60v-821h-60z" />
    <glyph glyph-name="braceright" unicode="}" horiz-adv-x="331" 
d="M26 -161l-8 26q38 16 47 53.5t9 124.5v130q0 42 31 75t73 42v11q-42 9 -73 42t-31 75v130q0 46 -1 67t-6 47.5t-17 40.5t-32 23l8 26q64 -13 104.5 -33.5t59 -49.5t24 -55.5t5.5 -65.5v-155q0 -23 23.5 -47.5t60.5 -37.5v-25q-37 -13 -60.5 -37.5t-23.5 -47.5v-155
q0 -39 -5.5 -65.5t-24 -55.5t-59 -49.5t-104.5 -33.5z" />
    <glyph glyph-name="asciitilde" unicode="~" horiz-adv-x="482" 
d="M319 167q-44 0 -97.5 37.5t-94.5 37.5q-25 0 -44 -17.5t-19 -32.5h-24q-9 59 28 94.5t93 35.5q45 0 99 -37.5t93 -37.5q26 0 45.5 17.5t19.5 32.5h24q9 -59 -28.5 -94.5t-94.5 -35.5z" />
    <glyph glyph-name="exclamdown" unicode="&#xa1;" horiz-adv-x="240" 
d="M128 455q33 0 57 -24.5t24 -59.5q0 -33 -24 -57t-57 -24q-34 0 -58.5 24t-24.5 57q0 35 24 59.5t59 24.5zM101 243h40l55 -379q5 -38 -15.5 -55t-59.5 -17t-59.5 17t-15.5 55z" />
    <glyph glyph-name="cent" unicode="&#xa2;" horiz-adv-x="485" 
d="M331 73q32 0 62.5 9.5t44.5 26.5l21 -17q-18 -48 -67 -74.5t-120 -26.5q-38 0 -67 7l-16 -59h-52l20 74q-62 25 -97 78.5t-35 126.5q0 107 70.5 168t180.5 63l19 70h52l-20 -73q64 -10 99 -42t35 -71q0 -24 -14.5 -39t-41.5 -15q-29 0 -45.5 18.5t-27.5 62.5
q-7 26 -18 39l-79 -292q39 -34 96 -34zM173 261q0 -59 23 -105l69 253q-43 -7 -67.5 -45.5t-24.5 -102.5z" />
    <glyph glyph-name="sterling" unicode="&#xa3;" horiz-adv-x="622" 
d="M553 193q41 -23 41 -82q0 -63 -62 -100.5t-136 -37.5q-50 0 -92.5 22.5t-76 45t-60.5 22.5q-45 0 -97 -68l-42 45q60 57 81 98t24 123h-96l17 71h79v50q0 121 78 188t187 67q115 0 142 -73q1 -29 -32.5 -50.5t-74.5 -23.5q-2 6 -6 22t-6.5 23t-8.5 19t-12.5 18t-17 10.5
t-24.5 4.5q-31 0 -55 -24t-24 -87v-144h151l-17 -71h-137q-13 -64 -84 -131q29 12 55 12q29 0 58.5 -18t49 -40t44 -40t45.5 -18q36 0 36 41q0 31 -20 59z" />
    <glyph glyph-name="currency" unicode="&#xa4;" horiz-adv-x="573" 
d="M495 228q0 -64 -36 -116l79 -78l-60 -60l-79 79q-51 -34 -114 -34q-60 0 -112 33l-78 -78l-60 60l78 77q-36 52 -36 117q0 61 34 114l-76 76l60 61l77 -77q49 34 113 34q62 0 115 -35l78 78l60 -61l-77 -77q34 -52 34 -113zM166 228q0 -50 35 -88t85 -38t86 38t36 88
t-36 87t-86 37t-85 -37t-35 -87z" />
    <glyph glyph-name="yen" unicode="&#xa5;" horiz-adv-x="673" 
d="M468 630h205v-30q-39 -8 -51 -16.5t-37 -45.5l-140 -221h119v-54h-142v-46h142v-54h-142v-62q0 -25 4.5 -39t20.5 -22t26 -10.5t42 -7.5v-22h-343v22q59 10 73 21q20 15 20 58v62h-151v54h151v44l-1 2h-150v54h115l-142 221q-24 37 -36 45.5t-51 16.5v30h322v-30
q-7 -2 -25 -5t-24 -5t-13.5 -8t-5 -17t13.5 -27l133 -212l131 212q10 17 11.5 27.5t-9 16.5t-19 8.5t-31.5 6.5q-11 2 -16 3v30z" />
    <glyph glyph-name="brokenbar" unicode="&#xa6;" horiz-adv-x="196" 
d="M68 315v331h60v-331h-60zM68 -175v331h60v-331h-60z" />
    <glyph glyph-name="section" unicode="&#xa7;" horiz-adv-x="511" 
d="M391 101q71 -54 71 -131q0 -70 -54 -110t-147 -40q-76 0 -161 51l-3 104h29q15 -52 47 -85.5t80 -33.5q40 0 60.5 21.5t20.5 53.5q0 28 -20.5 46.5t-79.5 41.5q-37 15 -65.5 30t-62.5 40t-52.5 60t-18.5 77q0 95 90 139q-68 53 -68 131q0 70 53.5 110t144.5 40
q76 0 152 -52l3 -104h-29q-14 51 -45.5 84.5t-72.5 33.5q-37 0 -57.5 -21t-20.5 -52q0 -29 19 -47.5t78 -42.5q29 -12 51.5 -22t52 -29t49 -39.5t33 -50.5t13.5 -64q0 -95 -90 -139zM171 261q0 -36 24.5 -58t86.5 -46q18 -7 41 -17q22 23 22 63q0 38 -24.5 59.5t-86.5 44.5
l-42 18q-21 -25 -21 -64z" />
    <glyph glyph-name="dieresis" unicode="&#xa8;" horiz-adv-x="364" 
d="M69 550q-29 0 -50 21t-21 50q0 28 21 48.5t50 20.5q28 0 48.5 -20.5t20.5 -48.5q0 -29 -20.5 -50t-48.5 -21zM297 550q-29 0 -50 21t-21 50q0 28 21 48.5t50 20.5q28 0 48.5 -20.5t20.5 -48.5q0 -29 -20.5 -50t-48.5 -21z" />
    <glyph glyph-name="copyright" unicode="&#xa9;" horiz-adv-x="653" 
d="M327 25q-121 0 -206.5 85.5t-85.5 206.5q0 120 85.5 205.5t206.5 85.5q120 0 205.5 -85.5t85.5 -205.5q0 -121 -85.5 -206.5t-205.5 -85.5zM327 61q105 0 178.5 75t73.5 181q0 104 -74 179.5t-178 75.5q-105 0 -178 -75.5t-73 -179.5q0 -105 73 -180.5t178 -75.5z
M339 149q-80 0 -128.5 47t-48.5 117q0 74 52.5 123t131.5 49q65 0 103 -24l4 -69h-23q-16 66 -91 66q-46 0 -68.5 -35t-22.5 -88q0 -66 35 -109t95 -43q51 0 74 24l12 -14q-37 -44 -125 -44z" />
    <glyph glyph-name="ordfeminine" unicode="&#xaa;" horiz-adv-x="358" 
d="M297 410q0 -16 14 -19.5t34 8.5v-19q-45 -31 -84 -39q-21 0 -39.5 16t-19.5 35q-49 -51 -106 -51q-35 0 -59 17t-24 51q0 40 31.5 58.5t102.5 37.5q45 12 55 26v15q0 36 -14 49t-45 13q-15 0 -20 -18q-12 -37 -25 -52t-33 -15q-13 0 -22 9.5t-9 21.5q0 34 56.5 57.5
t106.5 23.5q48 0 74 -26.5t26 -73.5v-125zM146 383q28 0 56 35v77l-47 -14q-48 -14 -48 -52q0 -20 10 -33t29 -13zM53 190v80h250v-80h-250z" />
    <glyph glyph-name="guillemotleft" unicode="&#xab;" horiz-adv-x="406" 
d="M38 219l148 144l20 -15l-79 -129l79 -129l-18 -15zM200 219l148 144l20 -15l-79 -129l79 -129l-18 -15z" />
    <glyph glyph-name="logicalnot" unicode="&#xac;" horiz-adv-x="565" 
d="M507 391v-248h-99v149h-350v99h449z" />
    <glyph glyph-name="uni00AD" unicode="&#xad;" horiz-adv-x="436" 
d="M48 222v75h340v-75h-340z" />
    <glyph glyph-name="registered" unicode="&#xae;" horiz-adv-x="653" 
d="M327 25q-121 0 -206.5 85.5t-85.5 206.5q0 120 85.5 205.5t206.5 85.5q120 0 205.5 -85.5t85.5 -205.5q0 -121 -85.5 -206.5t-205.5 -85.5zM327 61q105 0 178.5 75t73.5 181q0 104 -74 179.5t-178 75.5q-105 0 -178 -75.5t-73 -179.5q0 -105 73 -180.5t178 -75.5z
M470 161q-67 0 -90 39l-27 47q-20 36 -38 45v20q47 0 63.5 17.5t16.5 49.5q0 64 -63 64q-20 0 -27 -4.5t-7 -16.5v-205q0 -16 6 -24t11 -10t23 -6v-14h-156v14q29 7 35 16q5 8 5 24v196q0 15 -5.5 23.5t-12 11t-22.5 5.5v14h147q144 0 144 -86q0 -35 -26 -56t-64 -29
q27 -5 61 -63l9 -15q22 -36 40 -40v-14q-10 -3 -23 -3z" />
    <glyph glyph-name="macron" unicode="&#xaf;" horiz-adv-x="281" 
d="M-7 585l15 52h280l-15 -52h-280z" />
    <glyph glyph-name="degree" unicode="&#xb0;" horiz-adv-x="359" 
d="M176 375q-60 0 -99 35.5t-39 95.5q0 62 41.5 98t103.5 36q60 0 99 -35.5t39 -95.5q0 -62 -41 -98t-104 -36zM184 399q59 0 59 93q0 50 -16 87t-52 37q-59 0 -59 -93q0 -30 5.5 -56t21.5 -47t41 -21z" />
    <glyph glyph-name="plusminus" unicode="&#xb1;" horiz-adv-x="486" 
d="M293 402h135v-99h-135v-137h-99v137h-136v99h136v135h99v-135zM58 -19v99h370v-99h-370z" />
    <glyph glyph-name="uni00B2" unicode="&#xb2;" horiz-adv-x="254" 
d="M31 393l-3 11q5 4 20 17t21 18t19 17t19.5 19t16.5 18t15 19t10.5 17.5t8 18.5t2.5 18q0 20 -12 34t-35 14q-41 0 -66 -42l-11 7q12 31 38.5 48.5t58.5 17.5q35 0 58 -20t23 -50q0 -23 -17 -48t-35 -40t-45.5 -35.5t-32.5 -24.5h66q27 0 40.5 6.5t22.5 29.5h13l-19 -70
h-176z" />
    <glyph glyph-name="uni00B3" unicode="&#xb3;" horiz-adv-x="241" 
d="M97 384q-27 0 -48 7.5t-21 22.5t17 15q9 0 25.5 -15.5t33.5 -15.5q23 0 42 16.5t19 44.5q0 27 -18 40.5t-45 13.5q-17 0 -36 -7l-5 12l31 12q32 12 45.5 22.5t13.5 28.5q0 32 -41 32t-64 -27l-10 8q32 47 92 47q29 0 47.5 -14t18.5 -37q0 -33 -56 -58q31 -2 53 -17
t22 -45q0 -37 -34 -61.5t-82 -24.5z" />
    <glyph glyph-name="acute" unicode="&#xb4;" horiz-adv-x="171" 
d="M36 500l-37 22q17 81 69 154q28 0 57 -22t39 -51q-76 -48 -128 -103z" />
    <glyph glyph-name="paragraph" unicode="&#xb6;" horiz-adv-x="717" 
d="M301 630h401v-30q-51 -10 -64 -20q-19 -16 -19 -59v-523q0 -88 -54.5 -130.5t-145.5 -42.5h-75v715q0 24 -11.5 35t-41.5 11q-118 0 -118 -157q0 -155 121 -155q12 0 12 -21.5t-12 -21.5q-124 0 -200 52t-76 152q0 99 76 147t207 48zM481 -5v545q0 31 -9.5 42.5
t-31.5 11.5q-21 0 -31 -12t-10 -42v-675q47 5 64.5 33.5t17.5 96.5z" />
    <glyph glyph-name="periodcentered" unicode="&#xb7;" horiz-adv-x="240" 
d="M128 216q-35 0 -59 24.5t-24 59.5q0 33 24.5 57t58.5 24q33 0 57 -24t24 -57q0 -35 -24 -59.5t-57 -24.5z" />
    <glyph glyph-name="cedilla" unicode="&#xb8;" horiz-adv-x="249" 
d="M73 -212l5 29q88 0 88 44q0 41 -115 41l50 98h53l-19 -39q43 0 79.5 -22.5t36.5 -63.5q0 -87 -178 -87z" />
    <glyph glyph-name="uni00B9" unicode="&#xb9;" horiz-adv-x="191" 
d="M33 398v10q22 2 30 6t8 16v165q0 11 -4 14.5t-12 1.5l-20 -5v11l77 33l8 -6v-214q0 -12 8 -16t30 -6v-10h-125z" />
    <glyph glyph-name="ordmasculine" unicode="&#xba;" horiz-adv-x="351" 
d="M172 340q-67 0 -109.5 39t-42.5 106q0 69 45.5 109.5t113.5 40.5q67 0 109.5 -39.5t42.5 -106.5q0 -69 -45 -109t-114 -40zM181 365q53 0 53 105q0 58 -15 99.5t-50 41.5q-52 0 -52 -107q0 -139 64 -139zM53 190v80h247v-80h-247z" />
    <glyph glyph-name="guillemotright" unicode="&#xbb;" horiz-adv-x="406" 
d="M226 219l-150 -144l-18 15l79 129l-79 129l20 15zM388 219l-150 -144l-18 15l79 129l-79 129l20 15z" />
    <glyph glyph-name="onequarter" unicode="&#xbc;" horiz-adv-x="504" 
d="M145 408v-10h-125v10q22 2 30 6t8 16v165q0 11 -4 14.5t-12 1.5l-20 -5v11l77 33l8 -6v-214q0 -12 8 -16t30 -6zM423 636h28l-432 -641h-28zM444 32q0 -12 7.5 -16t29.5 -6v-10h-124v10q22 2 29.5 6t7.5 16v34h-108l-4 20l116 160h46v-160h37l-4 -20h-33v-34zM302 86h92
v127z" />
    <glyph glyph-name="onehalf" unicode="&#xbd;" horiz-adv-x="513" 
d="M20 398v10q22 2 30 6t8 16v165q0 11 -4 14.5t-12 1.5l-20 -5v11l77 33l8 -6v-214q0 -12 8 -16t30 -6v-10h-125zM-9 -5l432 641h28l-432 -641h-28zM295 0l-3 11q5 4 20 17t21 18t19 17t19.5 19t16.5 18t15 19t10.5 17.5t8 18.5t2.5 18q0 20 -12 34t-35 14q-41 0 -66 -42
l-11 7q12 31 38.5 48.5t58.5 17.5q35 0 58 -20t23 -50q0 -23 -17 -48t-35 -40t-45.5 -35.5t-32.5 -24.5h66q27 0 40.5 6.5t22.5 29.5h13l-19 -70h-176z" />
    <glyph glyph-name="threequarters" unicode="&#xbe;" horiz-adv-x="680" 
d="M213 470q0 -37 -34 -61.5t-82 -24.5q-27 0 -48 7.5t-21 22.5t17 15q9 0 25.5 -15.5t33.5 -15.5q23 0 42 16.5t19 44.5q0 27 -18 40.5t-45 13.5q-17 0 -36 -7l-5 12l31 12q32 12 45.5 22.5t13.5 28.5q0 32 -41 32t-64 -27l-10 8q32 47 92 47q29 0 47.5 -14t18.5 -37
q0 -33 -56 -58q31 -2 53 -17t22 -45zM520 636h28l-432 -641h-28zM615 32q0 -12 7.5 -16t29.5 -6v-10h-124v10q22 2 29.5 6t7.5 16v34h-108l-4 20l116 160h46v-160h37l-4 -20h-33v-34zM473 86h92v127z" />
    <glyph glyph-name="questiondown" unicode="&#xbf;" horiz-adv-x="508" 
d="M276 455q35 0 59 -24.5t24 -59.5q0 -33 -24.5 -57t-58.5 -24q-33 0 -57 24t-24 57q0 35 24 59.5t57 24.5zM287 244q15 -39 11.5 -62.5t-18.5 -52t-32.5 -51.5t-31.5 -60.5t-14 -78.5q0 -61 29.5 -84t85.5 -23q26 0 35 25q22 58 42 81.5t45 23.5q23 0 37 -15t14 -34
q0 -35 -45 -65t-104 -45t-112 -15q-84 0 -137.5 43t-53.5 118q0 46 23.5 83.5t56 61t65 45t54 48t18.5 57.5h32z" />
    <glyph glyph-name="Agrave" unicode="&#xc0;" horiz-adv-x="683" 
d="M352 690q-52 55 -128 103q10 29 39 51t57 22q52 -73 69 -154zM604 85q8 -17 13 -26t18.5 -15t18.5 -7t34 -7v-30h-314v30l17.5 3.5t17 4t13 4.5t11.5 6t6 8.5t2 12.5t-5 16l-40 93h-230l-39 -92q-4 -9 -5 -16.5t2 -12.5t5.5 -8.5t11 -6.5t13 -4.5t17 -4l17.5 -3.5v-30
h-193v30q41 8 54 16.5t28 41.5l240 549h47zM184 220h193l-98 225z" />
    <glyph glyph-name="Aacute" unicode="&#xc1;" horiz-adv-x="683" 
d="M473 793q-76 -48 -128 -103l-37 22q17 81 69 154q28 0 57 -22t39 -51zM604 85q8 -17 13 -26t18.5 -15t18.5 -7t34 -7v-30h-314v30l17.5 3.5t17 4t13 4.5t11.5 6t6 8.5t2 12.5t-5 16l-40 93h-230l-39 -92q-4 -9 -5 -16.5t2 -12.5t5.5 -8.5t11 -6.5t13 -4.5t17 -4
l17.5 -3.5v-30h-193v30q41 8 54 16.5t28 41.5l240 549h47zM184 220h193l-98 225z" />
    <glyph glyph-name="Acircumflex" unicode="&#xc2;" horiz-adv-x="683" 
d="M332 790l-129 -79l-15 20l144 148l144 -150l-15 -18zM604 85q8 -17 13 -26t18.5 -15t18.5 -7t34 -7v-30h-314v30l17.5 3.5t17 4t13 4.5t11.5 6t6 8.5t2 12.5t-5 16l-40 93h-230l-39 -92q-4 -9 -5 -16.5t2 -12.5t5.5 -8.5t11 -6.5t13 -4.5t17 -4l17.5 -3.5v-30h-193v30
q41 8 54 16.5t28 41.5l240 549h47zM184 220h193l-98 225z" />
    <glyph glyph-name="Atilde" unicode="&#xc3;" horiz-adv-x="683" 
d="M170 720h-31q-8 59 29 95.5t89 36.5q41 0 90.5 -37.5t85.5 -37.5q23 0 40 18t17 34h31q9 -59 -29 -95.5t-91 -36.5q-40 0 -88.5 37.5t-85.5 37.5q-23 0 -40 -18t-17 -34zM604 85q8 -17 13 -26t18.5 -15t18.5 -7t34 -7v-30h-314v30l17.5 3.5t17 4t13 4.5t11.5 6t6 8.5
t2 12.5t-5 16l-40 93h-230l-39 -92q-4 -9 -5 -16.5t2 -12.5t5.5 -8.5t11 -6.5t13 -4.5t17 -4l17.5 -3.5v-30h-193v30q41 8 54 16.5t28 41.5l240 549h47zM184 220h193l-98 225z" />
    <glyph glyph-name="Adieresis" unicode="&#xc4;" horiz-adv-x="683" 
d="M225 740q-29 0 -50 21t-21 50q0 28 21 48.5t50 20.5q28 0 48.5 -20.5t20.5 -48.5q0 -29 -20.5 -50t-48.5 -21zM453 740q-29 0 -50 21t-21 50q0 28 21 48.5t50 20.5q28 0 48.5 -20.5t20.5 -48.5q0 -29 -20.5 -50t-48.5 -21zM604 85q8 -17 13 -26t18.5 -15t18.5 -7t34 -7
v-30h-314v30l17.5 3.5t17 4t13 4.5t11.5 6t6 8.5t2 12.5t-5 16l-40 93h-230l-39 -92q-4 -9 -5 -16.5t2 -12.5t5.5 -8.5t11 -6.5t13 -4.5t17 -4l17.5 -3.5v-30h-193v30q41 8 54 16.5t28 41.5l240 549h47zM184 220h193l-98 225z" />
    <glyph glyph-name="Aring" unicode="&#xc5;" horiz-adv-x="683" 
d="M338 713q-43 0 -72 28.5t-29 69.5t29 69.5t72 28.5t72 -28.5t29 -69.5t-29 -69.5t-72 -28.5zM338 848q-18 0 -28.5 -10t-10.5 -27t10.5 -27t28.5 -10t28.5 10t10.5 27t-10.5 27t-28.5 10zM604 85q8 -17 13 -26t18.5 -15t18.5 -7t34 -7v-30h-314v30l17.5 3.5t17 4t13 4.5
t11.5 6t6 8.5t2 12.5t-5 16l-40 93h-230l-39 -92q-4 -9 -5 -16.5t2 -12.5t5.5 -8.5t11 -6.5t13 -4.5t17 -4l17.5 -3.5v-30h-193v30q41 8 54 16.5t28 41.5l240 549h47zM184 220h193l-98 225z" />
    <glyph glyph-name="AE" unicode="&#xc6;" horiz-adv-x="902" 
d="M847 158h35l-41 -158h-529v30q51 10 64 20q19 16 19 59v99h-194l-65 -113q-5 -10 -7 -18t-2.5 -13.5t3.5 -10t7 -7t11.5 -5.5t13 -4t16 -3.5t15.5 -3.5v-30h-198v30q40 8 53 17t35 47l245 423h-1q33 57 -22 73q-11 3 -54 10v30h588l9 -150h-35q-7 57 -27 81.5t-71 24.5
h-69q-59 0 -76.5 -13t-17.5 -63v-171h57q86 0 110 17t29 67h29v-210h-29q-5 50 -29 67t-110 17h-57v-177q0 -50 17.5 -63t76.5 -13h48q59 0 92 24.5t61 89.5zM225 250h170v271q0 10 -2 24z" />
    <glyph glyph-name="Ccedilla" unicode="&#xc7;" horiz-adv-x="659" 
d="M377 -12h-6l-13 -27q43 0 79.5 -22.5t36.5 -63.5q0 -87 -178 -87l5 29q88 0 88 44q0 41 -115 41l46 90q-131 17 -208 105.5t-77 212.5q0 146 101.5 241t258.5 95q120 0 197 -46q4 -91 7 -135h-46q-31 137 -165 137q-97 0 -142 -69t-45 -180q0 -133 68.5 -219.5
t181.5 -86.5q99 0 147 52l26 -27q-32 -36 -97.5 -60t-149.5 -24z" />
    <glyph glyph-name="Egrave" unicode="&#xc8;" horiz-adv-x="605" 
d="M316 690q-52 55 -128 103q10 29 39 51t57 22q52 -73 69 -154zM550 158h35l-41 -158h-529v30q51 10 64 20q19 16 19 59v412q0 23 -3.5 37t-17.5 22.5t-20.5 10.5t-33.5 7q-5 1 -8 2v30h527l9 -150h-35q-7 57 -27 81.5t-71 24.5h-69q-59 0 -76.5 -13t-17.5 -63v-171h57
q86 0 110 17t29 67h29v-210h-29q-5 50 -29 67t-110 17h-57v-177q0 -50 17.5 -63t76.5 -13h48q59 0 92 24.5t61 89.5z" />
    <glyph glyph-name="Eacute" unicode="&#xc9;" horiz-adv-x="605" 
d="M437 793q-76 -48 -128 -103l-37 22q17 81 69 154q28 0 57 -22t39 -51zM550 158h35l-41 -158h-529v30q51 10 64 20q19 16 19 59v412q0 23 -3.5 37t-17.5 22.5t-20.5 10.5t-33.5 7q-5 1 -8 2v30h527l9 -150h-35q-7 57 -27 81.5t-71 24.5h-69q-59 0 -76.5 -13t-17.5 -63
v-171h57q86 0 110 17t29 67h29v-210h-29q-5 50 -29 67t-110 17h-57v-177q0 -50 17.5 -63t76.5 -13h48q59 0 92 24.5t61 89.5z" />
    <glyph glyph-name="Ecircumflex" unicode="&#xca;" horiz-adv-x="605" 
d="M296 790l-129 -79l-15 20l144 148l144 -150l-15 -18zM550 158h35l-41 -158h-529v30q51 10 64 20q19 16 19 59v412q0 23 -3.5 37t-17.5 22.5t-20.5 10.5t-33.5 7q-5 1 -8 2v30h527l9 -150h-35q-7 57 -27 81.5t-71 24.5h-69q-59 0 -76.5 -13t-17.5 -63v-171h57q86 0 110 17
t29 67h29v-210h-29q-5 50 -29 67t-110 17h-57v-177q0 -50 17.5 -63t76.5 -13h48q59 0 92 24.5t61 89.5z" />
    <glyph glyph-name="Edieresis" unicode="&#xcb;" horiz-adv-x="605" 
d="M189 740q-29 0 -50 21t-21 50q0 28 21 48.5t50 20.5q28 0 48.5 -20.5t20.5 -48.5q0 -29 -20.5 -50t-48.5 -21zM417 740q-29 0 -50 21t-21 50q0 28 21 48.5t50 20.5q28 0 48.5 -20.5t20.5 -48.5q0 -29 -20.5 -50t-48.5 -21zM550 158h35l-41 -158h-529v30q51 10 64 20
q19 16 19 59v412q0 23 -3.5 37t-17.5 22.5t-20.5 10.5t-33.5 7q-5 1 -8 2v30h527l9 -150h-35q-7 57 -27 81.5t-71 24.5h-69q-59 0 -76.5 -13t-17.5 -63v-171h57q86 0 110 17t29 67h29v-210h-29q-5 50 -29 67t-110 17h-57v-177q0 -50 17.5 -63t76.5 -13h48q59 0 92 24.5
t61 89.5z" />
    <glyph glyph-name="Igrave" unicode="&#xcc;" horiz-adv-x="353" 
d="M190 690q-52 55 -128 103q10 29 39 51t57 22q52 -73 69 -154zM15 0v30q51 10 64 20q19 16 19 59v412q0 23 -3.5 37t-17.5 22.5t-20.5 10.5t-33.5 7q-5 1 -8 2v30h323v-30q-51 -10 -64 -20q-19 -16 -19 -59v-412q0 -23 3.5 -37t17.5 -22.5t20.5 -10.5t33.5 -7q5 -1 8 -2
v-30h-323z" />
    <glyph glyph-name="Iacute" unicode="&#xcd;" horiz-adv-x="353" 
d="M183 690l-37 22q17 81 69 154q28 0 57 -22t39 -51q-76 -48 -128 -103zM15 0v30q51 10 64 20q19 16 19 59v412q0 23 -3.5 37t-17.5 22.5t-20.5 10.5t-33.5 7q-5 1 -8 2v30h323v-30q-51 -10 -64 -20q-19 -16 -19 -59v-412q0 -23 3.5 -37t17.5 -22.5t20.5 -10.5t33.5 -7
q5 -1 8 -2v-30h-323z" />
    <glyph glyph-name="Icircumflex" unicode="&#xce;" horiz-adv-x="353" 
d="M170 879l144 -150l-15 -18l-129 79l-129 -79l-15 20zM15 0v30q51 10 64 20q19 16 19 59v412q0 23 -3.5 37t-17.5 22.5t-20.5 10.5t-33.5 7q-5 1 -8 2v30h323v-30q-51 -10 -64 -20q-19 -16 -19 -59v-412q0 -23 3.5 -37t17.5 -22.5t20.5 -10.5t33.5 -7q5 -1 8 -2v-30h-323z
" />
    <glyph glyph-name="Idieresis" unicode="&#xcf;" horiz-adv-x="353" 
d="M63 740q-29 0 -50 21t-21 50q0 28 21 48.5t50 20.5q28 0 48.5 -20.5t20.5 -48.5q0 -29 -20.5 -50t-48.5 -21zM291 740q-29 0 -50 21t-21 50q0 28 21 48.5t50 20.5q28 0 48.5 -20.5t20.5 -48.5q0 -29 -20.5 -50t-48.5 -21zM15 0v30q51 10 64 20q19 16 19 59v412
q0 23 -3.5 37t-17.5 22.5t-20.5 10.5t-33.5 7q-5 1 -8 2v30h323v-30q-51 -10 -64 -20q-19 -16 -19 -59v-412q0 -23 3.5 -37t17.5 -22.5t20.5 -10.5t33.5 -7q5 -1 8 -2v-30h-323z" />
    <glyph glyph-name="Eth" unicode="&#xd0;" horiz-adv-x="727" 
d="M320 630q69 0 132.5 -18t118.5 -53.5t88 -97.5t33 -142q0 -82 -32.5 -145.5t-87 -100t-118.5 -55t-134 -18.5h-309v30q51 10 64 20q19 16 19 59v182q-13 -1 -38 -1t-37 -1l10 44q11 -1 32.5 -1t32.5 -1v190q0 23 -3.5 37t-17.5 22.5t-20.5 10.5t-33.5 7q-5 1 -8 2v30h309
zM348 42q83 0 130 71.5t47 195.5q0 127 -54 203t-161 76h-59v-258q75 0 148 3l-10 -44l-138 3v-154q0 -53 20.5 -74.5t76.5 -21.5z" />
    <glyph glyph-name="Ntilde" unicode="&#xd1;" horiz-adv-x="693" 
d="M178 720h-31q-8 59 29 95.5t89 36.5q41 0 90.5 -37.5t85.5 -37.5q23 0 40 18t17 34h31q9 -59 -29 -95.5t-91 -36.5q-40 0 -88.5 37.5t-85.5 37.5q-23 0 -40 -18t-17 -34zM456 630h222v-30q-52 -10 -65 -20q-20 -17 -20 -59v-521h-65l-381 535v-426q0 -23 4 -37t19 -22.5
t22 -10.5t36 -7q6 -1 9 -2v-30h-222v30q52 10 65 20q20 16 20 59v412q0 23 -4 37t-17.5 22.5t-21.5 10.5t-33 7q-2 1 -3 1t-3 0.5t-3 0.5v30h242l289 -413v304q0 23 -4 37t-19 22.5t-22 10.5t-36 7q-6 1 -9 2v30z" />
    <glyph glyph-name="Ograve" unicode="&#xd2;" horiz-adv-x="722" 
d="M375 690q-52 55 -128 103q10 29 39 51t57 22q52 -73 69 -154zM359 -12q-140 0 -232 90.5t-92 233.5q0 147 92.5 240.5t235.5 93.5q141 0 232.5 -91t91.5 -238q0 -143 -93 -236t-235 -93zM376 32q146 0 146 255q0 146 -45 230.5t-131 84.5q-146 0 -146 -260
q0 -142 45.5 -226t130.5 -84z" />
    <glyph glyph-name="Oacute" unicode="&#xd3;" horiz-adv-x="722" 
d="M368 690l-37 22q17 81 69 154q28 0 57 -22t39 -51q-76 -48 -128 -103zM359 -12q-140 0 -232 90.5t-92 233.5q0 147 92.5 240.5t235.5 93.5q141 0 232.5 -91t91.5 -238q0 -143 -93 -236t-235 -93zM376 32q146 0 146 255q0 146 -45 230.5t-131 84.5q-146 0 -146 -260
q0 -142 45.5 -226t130.5 -84z" />
    <glyph glyph-name="Ocircumflex" unicode="&#xd4;" horiz-adv-x="722" 
d="M355 879l144 -150l-15 -18l-129 79l-129 -79l-15 20zM359 -12q-140 0 -232 90.5t-92 233.5q0 147 92.5 240.5t235.5 93.5q141 0 232.5 -91t91.5 -238q0 -143 -93 -236t-235 -93zM376 32q146 0 146 255q0 146 -45 230.5t-131 84.5q-146 0 -146 -260q0 -142 45.5 -226
t130.5 -84z" />
    <glyph glyph-name="Otilde" unicode="&#xd5;" horiz-adv-x="722" 
d="M424 697q-40 0 -88.5 37.5t-85.5 37.5q-23 0 -40 -18t-17 -34h-31q-8 59 29 95.5t89 36.5q41 0 90.5 -37.5t85.5 -37.5q23 0 40 18t17 34h31q9 -59 -29 -95.5t-91 -36.5zM359 -12q-140 0 -232 90.5t-92 233.5q0 147 92.5 240.5t235.5 93.5q141 0 232.5 -91t91.5 -238
q0 -143 -93 -236t-235 -93zM376 32q146 0 146 255q0 146 -45 230.5t-131 84.5q-146 0 -146 -260q0 -142 45.5 -226t130.5 -84z" />
    <glyph glyph-name="Odieresis" unicode="&#xd6;" horiz-adv-x="722" 
d="M248 740q-29 0 -50 21t-21 50q0 28 21 48.5t50 20.5q28 0 48.5 -20.5t20.5 -48.5q0 -29 -20.5 -50t-48.5 -21zM476 740q-29 0 -50 21t-21 50q0 28 21 48.5t50 20.5q28 0 48.5 -20.5t20.5 -48.5q0 -29 -20.5 -50t-48.5 -21zM359 -12q-140 0 -232 90.5t-92 233.5
q0 147 92.5 240.5t235.5 93.5q141 0 232.5 -91t91.5 -238q0 -143 -93 -236t-235 -93zM376 32q146 0 146 255q0 146 -45 230.5t-131 84.5q-146 0 -146 -260q0 -142 45.5 -226t130.5 -84z" />
    <glyph glyph-name="multiply" unicode="&#xd7;" horiz-adv-x="454" 
d="M396 351l-99 -99l99 -100l-70 -70l-99 99l-99 -99l-70 70l99 100l-99 99l70 70l99 -99l99 99z" />
    <glyph glyph-name="Oslash" unicode="&#xd8;" horiz-adv-x="722" 
d="M546 594q66 -42 103.5 -114t37.5 -163q0 -143 -93 -236t-235 -93q-90 0 -166 41l-49 -78l-21 13l49 78q-64 43 -100.5 113t-36.5 157q0 147 92.5 240.5t235.5 93.5q89 0 162 -39l55 88l21 -13zM200 342q0 -123 33 -201l240 383q-45 78 -127 78q-146 0 -146 -260zM376 32
q146 0 146 255q0 131 -36 211l-240 -383q47 -83 130 -83z" />
    <glyph glyph-name="Ugrave" unicode="&#xd9;" horiz-adv-x="728" 
d="M376 690q-52 55 -128 103q10 29 39 51t57 22q52 -73 69 -154zM362 -12q-264 0 -264 265v268q0 23 -3.5 37t-17.5 22.5t-20.5 10.5t-33.5 7q-5 1 -8 2v30h324v-30q-51 -10 -64 -20q-19 -16 -19 -59v-285q0 -201 150 -201q21 0 40 3.5t42 15.5t39.5 31.5t28 55.5t11.5 83
v297q0 23 -4 37t-17.5 22.5t-21.5 10.5t-33 7q-2 1 -3 1t-3 0.5t-3 0.5v30h223v-30q-56 -10 -69 -20q-21 -16 -21 -59v-277q0 -256 -253 -256z" />
    <glyph glyph-name="Uacute" unicode="&#xda;" horiz-adv-x="728" 
d="M369 690l-37 22q17 81 69 154q28 0 57 -22t39 -51q-76 -48 -128 -103zM362 -12q-264 0 -264 265v268q0 23 -3.5 37t-17.5 22.5t-20.5 10.5t-33.5 7q-5 1 -8 2v30h324v-30q-51 -10 -64 -20q-19 -16 -19 -59v-285q0 -201 150 -201q21 0 40 3.5t42 15.5t39.5 31.5t28 55.5
t11.5 83v297q0 23 -4 37t-17.5 22.5t-21.5 10.5t-33 7q-2 1 -3 1t-3 0.5t-3 0.5v30h223v-30q-56 -10 -69 -20q-21 -16 -21 -59v-277q0 -256 -253 -256z" />
    <glyph glyph-name="Ucircumflex" unicode="&#xdb;" horiz-adv-x="728" 
d="M356 879l144 -150l-15 -18l-129 79l-129 -79l-15 20zM362 -12q-264 0 -264 265v268q0 23 -3.5 37t-17.5 22.5t-20.5 10.5t-33.5 7q-5 1 -8 2v30h324v-30q-51 -10 -64 -20q-19 -16 -19 -59v-285q0 -201 150 -201q21 0 40 3.5t42 15.5t39.5 31.5t28 55.5t11.5 83v297
q0 23 -4 37t-17.5 22.5t-21.5 10.5t-33 7q-2 1 -3 1t-3 0.5t-3 0.5v30h223v-30q-56 -10 -69 -20q-21 -16 -21 -59v-277q0 -256 -253 -256z" />
    <glyph glyph-name="Udieresis" unicode="&#xdc;" horiz-adv-x="728" 
d="M249 740q-29 0 -50 21t-21 50q0 28 21 48.5t50 20.5q28 0 48.5 -20.5t20.5 -48.5q0 -29 -20.5 -50t-48.5 -21zM477 740q-29 0 -50 21t-21 50q0 28 21 48.5t50 20.5q28 0 48.5 -20.5t20.5 -48.5q0 -29 -20.5 -50t-48.5 -21zM362 -12q-264 0 -264 265v268q0 23 -3.5 37
t-17.5 22.5t-20.5 10.5t-33.5 7q-5 1 -8 2v30h324v-30q-51 -10 -64 -20q-19 -16 -19 -59v-285q0 -201 150 -201q21 0 40 3.5t42 15.5t39.5 31.5t28 55.5t11.5 83v297q0 23 -4 37t-17.5 22.5t-21.5 10.5t-33 7q-2 1 -3 1t-3 0.5t-3 0.5v30h223v-30q-56 -10 -69 -20
q-21 -16 -21 -59v-277q0 -256 -253 -256z" />
    <glyph glyph-name="Yacute" unicode="&#xdd;" horiz-adv-x="671" 
d="M470 793q-76 -48 -128 -103l-37 22q17 81 69 154q28 0 57 -22t39 -51zM468 630h205v-30q-39 -8 -51 -16.5t-37 -45.5l-163 -258v-179q0 -25 4.5 -39t20.5 -22t26 -10.5t42 -7.5v-22h-343v22q59 10 73 21q20 15 20 58v160l-178 277q-24 37 -36 45.5t-51 16.5v30h322v-30
q-7 -2 -25 -5t-24 -5t-13.5 -8t-5 -17t13.5 -27l133 -212l131 212q10 17 11.5 27.5t-9 16.5t-19 8.5t-31.5 6.5q-11 2 -16 3v30z" />
    <glyph glyph-name="Thorn" unicode="&#xde;" horiz-adv-x="616" 
d="M588 314q0 -184 -333 -186v-19q0 -23 3.5 -37t17.5 -22.5t20.5 -10.5t33.5 -7q5 -1 8 -2v-30h-323v30q51 10 64 20q19 16 19 59v412q0 23 -3.5 37t-17.5 22.5t-20.5 10.5t-33.5 7q-5 1 -8 2v30h323v-30q-51 -10 -64 -20q-19 -16 -19 -59v-21q333 -2 333 -186zM421 314
q0 73 -35.5 107t-130.5 37v-288q95 3 130.5 37t35.5 107z" />
    <glyph glyph-name="germandbls" unicode="&#xdf;" horiz-adv-x="613" 
d="M531 274q62 -62 62 -119q0 -48 -48 -88.5t-105 -60t-98 -19.5q-35 0 -61 16.5t-26 44.5q0 25 17.5 37.5t38.5 12.5q20 0 57.5 -32.5t46.5 -32.5q20 0 32 22.5t12 48.5q0 30 -44 74l-119 117q90 97 90 194q0 50 -19 79t-55 29q-26 0 -43 -11t-24.5 -34.5t-9.5 -47
t-2 -62.5v-442h-218v30q44 8 58.5 17.5t14.5 40.5v351q0 102 62 150t162 48q94 0 149 -38.5t54 -103.5q-1 -70 -74 -132z" />
    <glyph glyph-name="agrave" unicode="&#xe0;" horiz-adv-x="539" 
d="M276 500q-52 55 -128 103q10 29 39 51t57 22q52 -73 69 -154zM459 98q0 -24 21.5 -28.5t53.5 13.5v-29q-69 -48 -130 -61q-32 0 -60 24t-30 55q-75 -79 -166 -79q-53 0 -90.5 26t-37.5 80q0 25 10 45t25.5 33.5t42.5 25.5t52.5 20.5t65.5 19.5q7 2 11 3q5 2 18.5 5.5
t20.5 6.5l17.5 7.5t18 11t12.5 14.5v19q0 56 -21.5 75.5t-70.5 19.5q-21 0 -31 -26q-21 -59 -41 -82t-48 -23q-22 0 -35.5 15t-13.5 34q0 35 45 65.5t102 45.5t105 15q75 0 114.5 -41t39.5 -113v-197zM226 59q46 0 88 56v116l-74 -20q-37 -11 -55.5 -33t-18.5 -49
q0 -29 16 -49.5t44 -20.5z" />
    <glyph glyph-name="aacute" unicode="&#xe1;" horiz-adv-x="539" 
d="M397 603q-76 -48 -128 -103l-37 22q17 81 69 154q28 0 57 -22t39 -51zM459 98q0 -24 21.5 -28.5t53.5 13.5v-29q-69 -48 -130 -61q-32 0 -60 24t-30 55q-75 -79 -166 -79q-53 0 -90.5 26t-37.5 80q0 25 10 45t25.5 33.5t42.5 25.5t52.5 20.5t65.5 19.5q7 2 11 3
q5 2 18.5 5.5t20.5 6.5l17.5 7.5t18 11t12.5 14.5v19q0 56 -21.5 75.5t-70.5 19.5q-21 0 -31 -26q-21 -59 -41 -82t-48 -23q-22 0 -35.5 15t-13.5 34q0 35 45 65.5t102 45.5t105 15q75 0 114.5 -41t39.5 -113v-197zM226 59q46 0 88 56v116l-74 -20q-37 -11 -55.5 -33
t-18.5 -49q0 -29 16 -49.5t44 -20.5z" />
    <glyph glyph-name="acircumflex" unicode="&#xe2;" horiz-adv-x="539" 
d="M256 600l-129 -79l-15 20l144 148l144 -150l-15 -18zM459 98q0 -24 21.5 -28.5t53.5 13.5v-29q-69 -48 -130 -61q-32 0 -60 24t-30 55q-75 -79 -166 -79q-53 0 -90.5 26t-37.5 80q0 25 10 45t25.5 33.5t42.5 25.5t52.5 20.5t65.5 19.5q7 2 11 3q5 2 18.5 5.5t20.5 6.5
l17.5 7.5t18 11t12.5 14.5v19q0 56 -21.5 75.5t-70.5 19.5q-21 0 -31 -26q-21 -59 -41 -82t-48 -23q-22 0 -35.5 15t-13.5 34q0 35 45 65.5t102 45.5t105 15q75 0 114.5 -41t39.5 -113v-197zM226 59q46 0 88 56v116l-74 -20q-37 -11 -55.5 -33t-18.5 -49q0 -29 16 -49.5
t44 -20.5z" />
    <glyph glyph-name="atilde" unicode="&#xe3;" horiz-adv-x="539" 
d="M94 530h-31q-8 59 29 95.5t89 36.5q41 0 90.5 -37.5t85.5 -37.5q23 0 40 18t17 34h31q9 -59 -29 -95.5t-91 -36.5q-40 0 -88.5 37.5t-85.5 37.5q-23 0 -40 -18t-17 -34zM459 98q0 -24 21.5 -28.5t53.5 13.5v-29q-69 -48 -130 -61q-32 0 -60 24t-30 55q-75 -79 -166 -79
q-53 0 -90.5 26t-37.5 80q0 25 10 45t25.5 33.5t42.5 25.5t52.5 20.5t65.5 19.5q7 2 11 3q5 2 18.5 5.5t20.5 6.5l17.5 7.5t18 11t12.5 14.5v19q0 56 -21.5 75.5t-70.5 19.5q-21 0 -31 -26q-21 -59 -41 -82t-48 -23q-22 0 -35.5 15t-13.5 34q0 35 45 65.5t102 45.5t105 15
q75 0 114.5 -41t39.5 -113v-197zM226 59q46 0 88 56v116l-74 -20q-37 -11 -55.5 -33t-18.5 -49q0 -29 16 -49.5t44 -20.5z" />
    <glyph glyph-name="adieresis" unicode="&#xe4;" horiz-adv-x="539" 
d="M149 550q-29 0 -50 21t-21 50q0 28 21 48.5t50 20.5q28 0 48.5 -20.5t20.5 -48.5q0 -29 -20.5 -50t-48.5 -21zM377 550q-29 0 -50 21t-21 50q0 28 21 48.5t50 20.5q28 0 48.5 -20.5t20.5 -48.5q0 -29 -20.5 -50t-48.5 -21zM459 98q0 -24 21.5 -28.5t53.5 13.5v-29
q-69 -48 -130 -61q-32 0 -60 24t-30 55q-75 -79 -166 -79q-53 0 -90.5 26t-37.5 80q0 25 10 45t25.5 33.5t42.5 25.5t52.5 20.5t65.5 19.5q7 2 11 3q5 2 18.5 5.5t20.5 6.5l17.5 7.5t18 11t12.5 14.5v19q0 56 -21.5 75.5t-70.5 19.5q-21 0 -31 -26q-21 -59 -41 -82t-48 -23
q-22 0 -35.5 15t-13.5 34q0 35 45 65.5t102 45.5t105 15q75 0 114.5 -41t39.5 -113v-197zM226 59q46 0 88 56v116l-74 -20q-37 -11 -55.5 -33t-18.5 -49q0 -29 16 -49.5t44 -20.5z" />
    <glyph glyph-name="aring" unicode="&#xe5;" horiz-adv-x="539" 
d="M262 523q-43 0 -72 28.5t-29 69.5t29 69.5t72 28.5t72 -28.5t29 -69.5t-29 -69.5t-72 -28.5zM262 658q-18 0 -28.5 -10t-10.5 -27t10.5 -27t28.5 -10t28.5 10t10.5 27t-10.5 27t-28.5 10zM459 98q0 -24 21.5 -28.5t53.5 13.5v-29q-69 -48 -130 -61q-32 0 -60 24t-30 55
q-75 -79 -166 -79q-53 0 -90.5 26t-37.5 80q0 25 10 45t25.5 33.5t42.5 25.5t52.5 20.5t65.5 19.5q7 2 11 3q5 2 18.5 5.5t20.5 6.5l17.5 7.5t18 11t12.5 14.5v19q0 56 -21.5 75.5t-70.5 19.5q-21 0 -31 -26q-21 -59 -41 -82t-48 -23q-22 0 -35.5 15t-13.5 34q0 35 45 65.5
t102 45.5t105 15q75 0 114.5 -41t39.5 -113v-197zM226 59q46 0 88 56v116l-74 -20q-37 -11 -55.5 -33t-18.5 -49q0 -29 16 -49.5t44 -20.5z" />
    <glyph glyph-name="ae" unicode="&#xe6;" horiz-adv-x="784" 
d="M617 71q33 0 63.5 11.5t45.5 30.5l21 -17q-18 -49 -68.5 -77t-121.5 -28q-73 0 -129.5 29.5t-86.5 82.5q-88 -110 -193 -110q-53 0 -90.5 26t-37.5 80q0 25 10 45t25.5 33.5t42.5 25.5t52.5 20.5t65.5 19.5q7 2 11 3q5 2 18.5 5.5t20.5 6.5l17.5 7.5t18 11t12.5 14.5v19
q0 56 -21.5 75.5t-70.5 19.5q-21 0 -31 -26q-22 -60 -41.5 -82.5t-47.5 -22.5q-22 0 -35.5 15t-13.5 34q0 35 45 65.5t102 45.5t105 15q71 0 111 -38q61 38 137 38q56 0 100.5 -21t67.5 -53.5t31 -72t-10 -75.5h-278q9 -73 49.5 -114.5t103.5 -41.5zM545 408
q-37 0 -60.5 -35.5t-23.5 -104.5h147q11 56 -5.5 98t-57.5 42zM226 59q54 0 101 76q-14 39 -14 84v12l-73 -20q-37 -11 -55.5 -33t-18.5 -49q0 -29 16 -49.5t44 -20.5z" />
    <glyph glyph-name="ccedilla" unicode="&#xe7;" horiz-adv-x="484" 
d="M331 73q32 0 62.5 9.5t44.5 26.5l21 -17q-18 -48 -67 -74.5t-120 -26.5h-8l-15 -30q43 0 79.5 -22.5t36.5 -63.5q0 -87 -178 -87l5 29q88 0 88 44q0 41 -115 41l48 94q-86 16 -137 74.5t-51 147.5q0 108 71.5 169.5t183.5 61.5q86 0 133.5 -35t47.5 -81q0 -24 -14.5 -39
t-41.5 -15q-29 0 -45.5 18.5t-27.5 62.5q-8 30 -19.5 40t-30.5 10q-51 0 -80 -39t-29 -110q0 -82 42.5 -135t115.5 -53z" />
    <glyph glyph-name="egrave" unicode="&#xe8;" horiz-adv-x="494" 
d="M259 500q-52 55 -128 103q10 29 39 51t57 22q52 -73 69 -154zM329 71q33 0 63.5 11.5t45.5 30.5l21 -17q-18 -49 -68.5 -77t-121.5 -28q-108 0 -176 62t-68 166q0 105 70.5 167.5t169.5 62.5q56 0 100.5 -21t67.5 -53.5t31 -72t-10 -75.5h-278q9 -73 49.5 -114.5
t103.5 -41.5zM257 408q-37 0 -60.5 -35.5t-23.5 -104.5h147q11 56 -5.5 98t-57.5 42z" />
    <glyph glyph-name="eacute" unicode="&#xe9;" horiz-adv-x="494" 
d="M380 603q-76 -48 -128 -103l-37 22q17 81 69 154q28 0 57 -22t39 -51zM329 71q33 0 63.5 11.5t45.5 30.5l21 -17q-18 -49 -68.5 -77t-121.5 -28q-108 0 -176 62t-68 166q0 105 70.5 167.5t169.5 62.5q56 0 100.5 -21t67.5 -53.5t31 -72t-10 -75.5h-278q9 -73 49.5 -114.5
t103.5 -41.5zM257 408q-37 0 -60.5 -35.5t-23.5 -104.5h147q11 56 -5.5 98t-57.5 42z" />
    <glyph glyph-name="ecircumflex" unicode="&#xea;" horiz-adv-x="494" 
d="M239 600l-129 -79l-15 20l144 148l144 -150l-15 -18zM329 71q33 0 63.5 11.5t45.5 30.5l21 -17q-18 -49 -68.5 -77t-121.5 -28q-108 0 -176 62t-68 166q0 105 70.5 167.5t169.5 62.5q56 0 100.5 -21t67.5 -53.5t31 -72t-10 -75.5h-278q9 -73 49.5 -114.5t103.5 -41.5z
M257 408q-37 0 -60.5 -35.5t-23.5 -104.5h147q11 56 -5.5 98t-57.5 42z" />
    <glyph glyph-name="edieresis" unicode="&#xeb;" horiz-adv-x="494" 
d="M132 550q-29 0 -50 21t-21 50q0 28 21 48.5t50 20.5q28 0 48.5 -20.5t20.5 -48.5q0 -29 -20.5 -50t-48.5 -21zM360 550q-29 0 -50 21t-21 50q0 28 21 48.5t50 20.5q28 0 48.5 -20.5t20.5 -48.5q0 -29 -20.5 -50t-48.5 -21zM329 71q33 0 63.5 11.5t45.5 30.5l21 -17
q-18 -49 -68.5 -77t-121.5 -28q-108 0 -176 62t-68 166q0 105 70.5 167.5t169.5 62.5q56 0 100.5 -21t67.5 -53.5t31 -72t-10 -75.5h-278q9 -73 49.5 -114.5t103.5 -41.5zM257 408q-37 0 -60.5 -35.5t-23.5 -104.5h147q11 56 -5.5 98t-57.5 42z" />
    <glyph glyph-name="igrave" unicode="&#xec;" horiz-adv-x="305" 
d="M161 500q-52 55 -128 103q10 29 39 51t57 22q52 -73 69 -154zM15 0v30q39 8 52.5 17.5t13.5 40.5v219q0 30 -12.5 44t-53.5 19v28q134 21 190 58l21 -19v-349q0 -31 13.5 -40.5t52.5 -17.5v-30h-277z" />
    <glyph glyph-name="iacute" unicode="&#xed;" horiz-adv-x="305" 
d="M154 500l-37 22q17 81 69 154q28 0 57 -22t39 -51q-76 -48 -128 -103zM15 0v30q39 8 52.5 17.5t13.5 40.5v219q0 30 -12.5 44t-53.5 19v28q134 21 190 58l21 -19v-349q0 -31 13.5 -40.5t52.5 -17.5v-30h-277z" />
    <glyph glyph-name="icircumflex" unicode="&#xee;" horiz-adv-x="305" 
d="M141 689l144 -150l-15 -18l-129 79l-129 -79l-15 20zM15 0v30q39 8 52.5 17.5t13.5 40.5v219q0 30 -12.5 44t-53.5 19v28q134 21 190 58l21 -19v-349q0 -31 13.5 -40.5t52.5 -17.5v-30h-277z" />
    <glyph glyph-name="idieresis" unicode="&#xef;" horiz-adv-x="305" 
d="M34 550q-29 0 -50 21t-21 50q0 28 21 48.5t50 20.5q28 0 48.5 -20.5t20.5 -48.5q0 -29 -20.5 -50t-48.5 -21zM262 550q-29 0 -50 21t-21 50q0 28 21 48.5t50 20.5q28 0 48.5 -20.5t20.5 -48.5q0 -29 -20.5 -50t-48.5 -21zM15 0v30q39 8 52.5 17.5t13.5 40.5v219
q0 30 -12.5 44t-53.5 19v28q134 21 190 58l21 -19v-349q0 -31 13.5 -40.5t52.5 -17.5v-30h-277z" />
    <glyph glyph-name="eth" unicode="&#xf0;" horiz-adv-x="543" 
d="M359 542q150 -114 149 -285q0 -137 -59.5 -201.5t-186.5 -64.5q-104 0 -170.5 61t-66.5 165q0 107 71 169.5t177 62.5q29 0 44 -1q-24 41 -47 64q-84 -29 -164 -61v57q42 12 126 38q-60 46 -139 54l19 37q103 -6 202 -64q75 26 184 68v-57q-65 -18 -139 -42zM276 29
q12 0 24.5 6t27 21t23.5 47t9 76q0 43 -4.5 80.5t-15 73.5t-31.5 57t-51 21q-40 0 -61.5 -43.5t-21.5 -122.5q0 -39 5 -74t15.5 -68.5t31 -53.5t49.5 -20z" />
    <glyph glyph-name="ntilde" unicode="&#xf1;" 
d="M353 507q-40 0 -88.5 37.5t-85.5 37.5q-23 0 -40 -18t-17 -34h-31q-8 59 29 95.5t89 36.5q41 0 90.5 -37.5t85.5 -37.5q23 0 40 18t17 34h31q9 -59 -29 -95.5t-91 -36.5zM10 0v30q39 8 52.5 17.5t13.5 40.5v219q0 30 -12.5 44t-53.5 19v28q119 18 190 58l20 -19l-35 -84
h28q42 48 78.5 72t90.5 24q72 0 101 -45t29 -109v-207q0 -31 13.5 -40.5t52.5 -17.5v-30h-266v30q22 6 31 9.5t16.5 15.5t7.5 33v193q0 88 -57 88q-51 0 -89 -51v-230q0 -21 7.5 -33t16.5 -15.5t31 -9.5v-30h-266z" />
    <glyph glyph-name="ograve" unicode="&#xf2;" horiz-adv-x="535" 
d="M282 500q-52 55 -128 103q10 29 39 51t57 22q52 -73 69 -154zM263 -9q-104 0 -171 61t-67 165q0 107 71.5 169.5t177.5 62.5q104 0 171 -61t67 -165q0 -107 -71.5 -169.5t-177.5 -62.5zM278 30q40 0 62 43t22 122q0 53 -8 98.5t-32.5 81t-62.5 35.5q-40 0 -62 -43
t-22 -122q0 -53 8 -98.5t32.5 -81t62.5 -35.5z" />
    <glyph glyph-name="oacute" unicode="&#xf3;" horiz-adv-x="535" 
d="M275 500l-37 22q17 81 69 154q28 0 57 -22t39 -51q-76 -48 -128 -103zM263 -9q-104 0 -171 61t-67 165q0 107 71.5 169.5t177.5 62.5q104 0 171 -61t67 -165q0 -107 -71.5 -169.5t-177.5 -62.5zM278 30q40 0 62 43t22 122q0 53 -8 98.5t-32.5 81t-62.5 35.5
q-40 0 -62 -43t-22 -122q0 -53 8 -98.5t32.5 -81t62.5 -35.5z" />
    <glyph glyph-name="ocircumflex" unicode="&#xf4;" horiz-adv-x="535" 
d="M262 689l144 -150l-15 -18l-129 79l-129 -79l-15 20zM263 -9q-104 0 -171 61t-67 165q0 107 71.5 169.5t177.5 62.5q104 0 171 -61t67 -165q0 -107 -71.5 -169.5t-177.5 -62.5zM278 30q40 0 62 43t22 122q0 53 -8 98.5t-32.5 81t-62.5 35.5q-40 0 -62 -43t-22 -122
q0 -53 8 -98.5t32.5 -81t62.5 -35.5z" />
    <glyph glyph-name="otilde" unicode="&#xf5;" horiz-adv-x="535" 
d="M331 507q-40 0 -88.5 37.5t-85.5 37.5q-23 0 -40 -18t-17 -34h-31q-8 59 29 95.5t89 36.5q41 0 90.5 -37.5t85.5 -37.5q23 0 40 18t17 34h31q9 -59 -29 -95.5t-91 -36.5zM263 -9q-104 0 -171 61t-67 165q0 107 71.5 169.5t177.5 62.5q104 0 171 -61t67 -165
q0 -107 -71.5 -169.5t-177.5 -62.5zM278 30q40 0 62 43t22 122q0 53 -8 98.5t-32.5 81t-62.5 35.5q-40 0 -62 -43t-22 -122q0 -53 8 -98.5t32.5 -81t62.5 -35.5z" />
    <glyph glyph-name="odieresis" unicode="&#xf6;" horiz-adv-x="535" 
d="M155 550q-29 0 -50 21t-21 50q0 28 21 48.5t50 20.5q28 0 48.5 -20.5t20.5 -48.5q0 -29 -20.5 -50t-48.5 -21zM383 550q-29 0 -50 21t-21 50q0 28 21 48.5t50 20.5q28 0 48.5 -20.5t20.5 -48.5q0 -29 -20.5 -50t-48.5 -21zM263 -9q-104 0 -171 61t-67 165
q0 107 71.5 169.5t177.5 62.5q104 0 171 -61t67 -165q0 -107 -71.5 -169.5t-177.5 -62.5zM278 30q40 0 62 43t22 122q0 53 -8 98.5t-32.5 81t-62.5 35.5q-40 0 -62 -43t-22 -122q0 -53 8 -98.5t32.5 -81t62.5 -35.5z" />
    <glyph glyph-name="divide" unicode="&#xf7;" horiz-adv-x="486" 
d="M245 335q-30 0 -50.5 20.5t-20.5 49.5t20.5 49t50.5 20q29 0 49 -20t20 -49t-20 -49.5t-49 -20.5zM58 202v99h370v-99h-370zM245 29q-30 0 -50.5 20.5t-20.5 49.5t20.5 49t50.5 20q29 0 49 -20t20 -49t-20 -49.5t-49 -20.5z" />
    <glyph glyph-name="oslash" unicode="&#xf8;" horiz-adv-x="537" 
d="M408 416q104 -63 104 -193q0 -107 -71.5 -169.5t-177.5 -62.5q-60 0 -108 21l-38 -60l-21 12l37 59q-51 28 -79.5 78t-28.5 116q0 107 71.5 169.5t177.5 62.5q60 0 112 -22l39 62l21 -12zM175 245q0 -76 16 -129l146 232q-27 62 -78 62q-40 0 -62 -43t-22 -122zM278 30
q40 0 62 43t22 122q0 71 -15 124l-145 -231q27 -58 76 -58z" />
    <glyph glyph-name="ugrave" unicode="&#xf9;" horiz-adv-x="578" 
d="M300 500q-52 55 -128 103q10 29 39 51t57 22q52 -73 69 -154zM205 -9q-74 0 -104 44.5t-30 109.5v221q0 18 -8.5 27.5t-19 12.5t-33.5 7v27q135 -7 206 6v-295q0 -40 17.5 -60.5t47.5 -20.5q38 0 78 47v249q0 18 -8.5 27.5t-19 12.5t-33.5 7v27q135 -7 206 6v-350
q0 -30 12.5 -44.5t53.5 -21.5v-30h-191l6 80h-17q-38 -43 -74 -66t-89 -23z" />
    <glyph glyph-name="uacute" unicode="&#xfa;" horiz-adv-x="578" 
d="M293 500l-37 22q17 81 69 154q28 0 57 -22t39 -51q-76 -48 -128 -103zM205 -9q-74 0 -104 44.5t-30 109.5v221q0 18 -8.5 27.5t-19 12.5t-33.5 7v27q135 -7 206 6v-295q0 -40 17.5 -60.5t47.5 -20.5q38 0 78 47v249q0 18 -8.5 27.5t-19 12.5t-33.5 7v27q135 -7 206 6
v-350q0 -30 12.5 -44.5t53.5 -21.5v-30h-191l6 80h-17q-38 -43 -74 -66t-89 -23z" />
    <glyph glyph-name="ucircumflex" unicode="&#xfb;" horiz-adv-x="578" 
d="M280 689l144 -150l-15 -18l-129 79l-129 -79l-15 20zM205 -9q-74 0 -104 44.5t-30 109.5v221q0 18 -8.5 27.5t-19 12.5t-33.5 7v27q135 -7 206 6v-295q0 -40 17.5 -60.5t47.5 -20.5q38 0 78 47v249q0 18 -8.5 27.5t-19 12.5t-33.5 7v27q135 -7 206 6v-350
q0 -30 12.5 -44.5t53.5 -21.5v-30h-191l6 80h-17q-38 -43 -74 -66t-89 -23z" />
    <glyph glyph-name="udieresis" unicode="&#xfc;" horiz-adv-x="578" 
d="M173 550q-29 0 -50 21t-21 50q0 28 21 48.5t50 20.5q28 0 48.5 -20.5t20.5 -48.5q0 -29 -20.5 -50t-48.5 -21zM401 550q-29 0 -50 21t-21 50q0 28 21 48.5t50 20.5q28 0 48.5 -20.5t20.5 -48.5q0 -29 -20.5 -50t-48.5 -21zM205 -9q-74 0 -104 44.5t-30 109.5v221
q0 18 -8.5 27.5t-19 12.5t-33.5 7v27q135 -7 206 6v-295q0 -40 17.5 -60.5t47.5 -20.5q38 0 78 47v249q0 18 -8.5 27.5t-19 12.5t-33.5 7v27q135 -7 206 6v-350q0 -30 12.5 -44.5t53.5 -21.5v-30h-191l6 80h-17q-38 -43 -74 -66t-89 -23z" />
    <glyph glyph-name="yacute" unicode="&#xfd;" horiz-adv-x="521" 
d="M398 603q-76 -48 -128 -103l-37 22q17 81 69 154q28 0 57 -22t39 -51zM357 440h171v-30q-34 -4 -46.5 -11t-24.5 -35l-168 -389q-68 -159 -163 -159q-36 0 -71 23v83q71 -16 116.5 -8t68.5 55l-172 393q-13 29 -26 36.5t-47 11.5v30h273v-30q-44 -7 -51.5 -17.5
t1.5 -30.5l96 -223l97 225q4 9 4.5 15.5t-3 11.5t-6.5 7.5t-12 5t-13.5 3t-16.5 2.5q-5 1 -7 1v30z" />
    <glyph glyph-name="thorn" unicode="&#xfe;" horiz-adv-x="572" 
d="M283 -9q-44 0 -75 7v-85q0 -17 3.5 -27t18 -16.5t22.5 -8t36 -6.5v-30h-291v30q45 10 54 19q12 12 12 39v613q0 17 -1 24.5t-7.5 17t-22 14t-42.5 7.5v28q112 13 198 57l20 -19v-304q23 42 62 70t89 28q74 0 131 -59.5t57 -159.5q0 -112 -74.5 -175.5t-189.5 -63.5z
M208 307v-160q0 -43 21 -79.5t69 -36.5q95 0 95 172q0 77 -23 125t-69 48q-56 0 -93 -69z" />
    <glyph glyph-name="ydieresis" unicode="&#xff;" horiz-adv-x="521" 
d="M150 550q-29 0 -50 21t-21 50q0 28 21 48.5t50 20.5q28 0 48.5 -20.5t20.5 -48.5q0 -29 -20.5 -50t-48.5 -21zM378 550q-29 0 -50 21t-21 50q0 28 21 48.5t50 20.5q28 0 48.5 -20.5t20.5 -48.5q0 -29 -20.5 -50t-48.5 -21zM357 440h171v-30q-34 -4 -46.5 -11t-24.5 -35
l-168 -389q-68 -159 -163 -159q-36 0 -71 23v83q71 -16 116.5 -8t68.5 55l-172 393q-13 29 -26 36.5t-47 11.5v30h273v-30q-44 -7 -51.5 -17.5t1.5 -30.5l96 -223l97 225q4 9 4.5 15.5t-3 11.5t-6.5 7.5t-12 5t-13.5 3t-16.5 2.5q-5 1 -7 1v30z" />
    <glyph glyph-name="Amacron" unicode="&#x100;" horiz-adv-x="683" 
d="M486 827l-15 -52h-280l15 52h280zM604 85q8 -17 13 -26t18.5 -15t18.5 -7t34 -7v-30h-314v30l17.5 3.5t17 4t13 4.5t11.5 6t6 8.5t2 12.5t-5 16l-40 93h-230l-39 -92q-4 -9 -5 -16.5t2 -12.5t5.5 -8.5t11 -6.5t13 -4.5t17 -4l17.5 -3.5v-30h-193v30q41 8 54 16.5t28 41.5
l240 549h47zM184 220h193l-98 225z" />
    <glyph glyph-name="amacron" unicode="&#x101;" horiz-adv-x="539" 
d="M410 637l-15 -52h-280l15 52h280zM459 98q0 -24 21.5 -28.5t53.5 13.5v-29q-69 -48 -130 -61q-32 0 -60 24t-30 55q-75 -79 -166 -79q-53 0 -90.5 26t-37.5 80q0 25 10 45t25.5 33.5t42.5 25.5t52.5 20.5t65.5 19.5q7 2 11 3q5 2 18.5 5.5t20.5 6.5l17.5 7.5t18 11
t12.5 14.5v19q0 56 -21.5 75.5t-70.5 19.5q-21 0 -31 -26q-21 -59 -41 -82t-48 -23q-22 0 -35.5 15t-13.5 34q0 35 45 65.5t102 45.5t105 15q75 0 114.5 -41t39.5 -113v-197zM226 59q46 0 88 56v116l-74 -20q-37 -11 -55.5 -33t-18.5 -49q0 -29 16 -49.5t44 -20.5z" />
    <glyph glyph-name="Abreve" unicode="&#x102;" horiz-adv-x="683" 
d="M338 720q-70 0 -115 39t-45 110h33q17 -68 127 -68t127 68h33q0 -71 -45 -110t-115 -39zM604 85q8 -17 13 -26t18.5 -15t18.5 -7t34 -7v-30h-314v30l17.5 3.5t17 4t13 4.5t11.5 6t6 8.5t2 12.5t-5 16l-40 93h-230l-39 -92q-4 -9 -5 -16.5t2 -12.5t5.5 -8.5t11 -6.5
t13 -4.5t17 -4l17.5 -3.5v-30h-193v30q41 8 54 16.5t28 41.5l240 549h47zM184 220h193l-98 225z" />
    <glyph glyph-name="abreve" unicode="&#x103;" horiz-adv-x="539" 
d="M262 530q-70 0 -115 39t-45 110h33q17 -68 127 -68t127 68h33q0 -71 -45 -110t-115 -39zM459 98q0 -24 21.5 -28.5t53.5 13.5v-29q-69 -48 -130 -61q-32 0 -60 24t-30 55q-75 -79 -166 -79q-53 0 -90.5 26t-37.5 80q0 25 10 45t25.5 33.5t42.5 25.5t52.5 20.5t65.5 19.5
q7 2 11 3q5 2 18.5 5.5t20.5 6.5l17.5 7.5t18 11t12.5 14.5v19q0 56 -21.5 75.5t-70.5 19.5q-21 0 -31 -26q-21 -59 -41 -82t-48 -23q-22 0 -35.5 15t-13.5 34q0 35 45 65.5t102 45.5t105 15q75 0 114.5 -41t39.5 -113v-197zM226 59q46 0 88 56v116l-74 -20
q-37 -11 -55.5 -33t-18.5 -49q0 -29 16 -49.5t44 -20.5z" />
    <glyph glyph-name="Aogonek" unicode="&#x104;" horiz-adv-x="683" 
d="M599 0q-58 -37 -58 -80q0 -26 15 -43t40 -17q15 0 31 6v-22q-37 -33 -91 -33q-43 0 -71.5 20.5t-28.5 66.5q0 35 19 58l66 44h-147v30l17.5 3.5t17 4t13 4.5t11.5 6t6 8.5t2 12.5t-5 16l-40 93h-230l-39 -92q-4 -9 -5 -16.5t2 -12.5t5.5 -8.5t11 -6.5t13 -4.5t17 -4
l17.5 -3.5v-30h-193v30q41 8 54 16.5t28 41.5l240 549h47l240 -552q8 -17 13 -26t18.5 -15t18.5 -7t34 -7v-30h-89zM184 220h193l-98 225z" />
    <glyph glyph-name="aogonek" unicode="&#x105;" horiz-adv-x="539" 
d="M480 16q-74 -43 -74 -90q0 -26 15 -43t40 -17q15 0 31 6v-22q-37 -33 -91 -33q-43 0 -71.5 20.5t-28.5 66.5q0 35 19 58l55 37q-25 9 -42.5 29.5t-18.5 43.5q-75 -79 -166 -79q-53 0 -90.5 26t-37.5 80q0 25 10 45t25.5 33.5t42.5 25.5t52.5 20.5t65.5 19.5q7 2 11 3
q5 2 18.5 5.5t20.5 6.5l17.5 7.5t18 11t12.5 14.5v19q0 56 -21.5 75.5t-70.5 19.5q-21 0 -31 -26q-21 -59 -41 -82t-48 -23q-22 0 -35.5 15t-13.5 34q0 35 45 65.5t102 45.5t105 15q75 0 114.5 -41t39.5 -113v-197q0 -24 21.5 -28.5t53.5 13.5v-29q-38 -26 -54 -34v-4z
M226 59q46 0 88 56v116l-74 -20q-37 -11 -55.5 -33t-18.5 -49q0 -29 16 -49.5t44 -20.5z" />
    <glyph glyph-name="Cacute" unicode="&#x106;" horiz-adv-x="659" 
d="M374 690l-37 22q17 81 69 154q28 0 57 -22t39 -51q-76 -48 -128 -103zM377 -12q-154 0 -248 92t-94 230q0 146 101.5 241t258.5 95q120 0 197 -46q4 -91 7 -135h-46q-31 137 -165 137q-97 0 -142 -69t-45 -180q0 -133 68.5 -219.5t181.5 -86.5q99 0 147 52l26 -27
q-32 -36 -97.5 -60t-149.5 -24z" />
    <glyph glyph-name="cacute" unicode="&#x107;" horiz-adv-x="484" 
d="M261 500l-37 22q17 81 69 154q28 0 57 -22t39 -51q-76 -48 -128 -103zM272 -9q-110 0 -178.5 61.5t-68.5 165.5q0 108 71.5 169.5t183.5 61.5q86 0 133.5 -35t47.5 -81q0 -24 -14.5 -39t-41.5 -15q-29 0 -45.5 18.5t-27.5 62.5q-8 30 -19.5 40t-30.5 10q-51 0 -80 -39
t-29 -110q0 -82 42.5 -135t115.5 -53q32 0 62.5 9.5t44.5 26.5l21 -17q-18 -48 -67 -74.5t-120 -26.5z" />
    <glyph glyph-name="Cdotaccent" unicode="&#x10a;" horiz-adv-x="659" 
d="M367 683q-35 0 -60.5 25t-25.5 59t25.5 58t60.5 24t60.5 -24t25.5 -58t-25.5 -59t-60.5 -25zM377 -12q-154 0 -248 92t-94 230q0 146 101.5 241t258.5 95q120 0 197 -46q4 -91 7 -135h-46q-31 137 -165 137q-97 0 -142 -69t-45 -180q0 -133 68.5 -219.5t181.5 -86.5
q99 0 147 52l26 -27q-32 -36 -97.5 -60t-149.5 -24z" />
    <glyph glyph-name="cdotaccent" unicode="&#x10b;" horiz-adv-x="484" 
d="M254 493q-35 0 -60.5 25t-25.5 59t25.5 58t60.5 24t60.5 -24t25.5 -58t-25.5 -59t-60.5 -25zM272 -9q-110 0 -178.5 61.5t-68.5 165.5q0 108 71.5 169.5t183.5 61.5q86 0 133.5 -35t47.5 -81q0 -24 -14.5 -39t-41.5 -15q-29 0 -45.5 18.5t-27.5 62.5q-8 30 -19.5 40
t-30.5 10q-51 0 -80 -39t-29 -110q0 -82 42.5 -135t115.5 -53q32 0 62.5 9.5t44.5 26.5l21 -17q-18 -48 -67 -74.5t-120 -26.5z" />
    <glyph glyph-name="Ccaron" unicode="&#x10c;" horiz-adv-x="659" 
d="M365 709l-144 148l15 20l129 -79l129 79l15 -18zM377 -12q-154 0 -248 92t-94 230q0 146 101.5 241t258.5 95q120 0 197 -46q4 -91 7 -135h-46q-31 137 -165 137q-97 0 -142 -69t-45 -180q0 -133 68.5 -219.5t181.5 -86.5q99 0 147 52l26 -27q-32 -36 -97.5 -60
t-149.5 -24z" />
    <glyph glyph-name="ccaron" unicode="&#x10d;" horiz-adv-x="484" 
d="M252 519l-144 148l15 20l129 -79l129 79l15 -18zM272 -9q-110 0 -178.5 61.5t-68.5 165.5q0 108 71.5 169.5t183.5 61.5q86 0 133.5 -35t47.5 -81q0 -24 -14.5 -39t-41.5 -15q-29 0 -45.5 18.5t-27.5 62.5q-8 30 -19.5 40t-30.5 10q-51 0 -80 -39t-29 -110
q0 -82 42.5 -135t115.5 -53q32 0 62.5 9.5t44.5 26.5l21 -17q-18 -48 -67 -74.5t-120 -26.5z" />
    <glyph glyph-name="Dcaron" unicode="&#x10e;" horiz-adv-x="731" 
d="M508 859l-144 -150l-144 148l15 20l129 -79l129 79zM324 630q69 0 132.5 -18t118.5 -53.5t88 -97.5t33 -142q0 -82 -32.5 -145.5t-87 -100t-118.5 -55t-134 -18.5h-309v30q51 10 64 20q19 16 19 59v412q0 23 -3.5 37t-17.5 22.5t-20.5 10.5t-33.5 7q-5 1 -8 2v30h309z
M352 42q83 0 130 71.5t47 195.5q0 127 -54 203t-161 76h-59v-450q0 -53 20.5 -74.5t76.5 -21.5z" />
    <glyph glyph-name="dcaron" unicode="&#x10f;" horiz-adv-x="656" 
d="M517 96q0 -30 12.5 -44.5t53.5 -21.5v-30h-200l8 91h-15q-25 -43 -66 -71.5t-93 -28.5q-74 0 -133 55.5t-59 157.5q0 114 74.5 179.5t174.5 65.5q56 0 98 -22v112q0 29 -16 43.5t-59 19.5v28q112 12 200 57l20 -19v-572zM567 656q25 16 61 17t60 -15q0 -89 -35 -166
l-42 4q-9 78 -44 160zM287 68q32 0 53.5 22t31.5 53v226q-21 39 -76 39q-52 0 -86 -44t-34 -125q0 -76 31.5 -123.5t79.5 -47.5z" />
    <glyph glyph-name="Dcroat" unicode="&#x110;" horiz-adv-x="727" 
d="M320 630q69 0 132.5 -18t118.5 -53.5t88 -97.5t33 -142q0 -82 -32.5 -145.5t-87 -100t-118.5 -55t-134 -18.5h-309v30q51 10 64 20q19 16 19 59v182q-13 -1 -38 -1t-37 -1l10 44q11 -1 32.5 -1t32.5 -1v190q0 23 -3.5 37t-17.5 22.5t-20.5 10.5t-33.5 7q-5 1 -8 2v30h309
zM348 42q83 0 130 71.5t47 195.5q0 127 -54 203t-161 76h-59v-258q75 0 148 3l-10 -44l-138 3v-154q0 -53 20.5 -74.5t76.5 -21.5z" />
    <glyph glyph-name="dcroat" unicode="&#x111;" horiz-adv-x="604" 
d="M517 96q0 -30 12.5 -44.5t53.5 -21.5v-30h-200l8 91h-15q-25 -43 -66 -71.5t-93 -28.5q-74 0 -133 55.5t-59 157.5q0 114 74.5 179.5t174.5 65.5q56 0 98 -22v61q-80 0 -160 -3l10 44q75 -3 150 -3v13q0 29 -16 43.5t-59 19.5v28q112 12 200 57l20 -19v-141q13 1 38 1
t37 1l-10 -44q-11 1 -32.5 1t-32.5 1v-391zM287 68q32 0 53.5 22t31.5 53v226q-21 39 -76 39q-52 0 -86 -44t-34 -125q0 -76 31.5 -123.5t79.5 -47.5z" />
    <glyph glyph-name="Emacron" unicode="&#x112;" horiz-adv-x="605" 
d="M450 827l-15 -52h-280l15 52h280zM550 158h35l-41 -158h-529v30q51 10 64 20q19 16 19 59v412q0 23 -3.5 37t-17.5 22.5t-20.5 10.5t-33.5 7q-5 1 -8 2v30h527l9 -150h-35q-7 57 -27 81.5t-71 24.5h-69q-59 0 -76.5 -13t-17.5 -63v-171h57q86 0 110 17t29 67h29v-210h-29
q-5 50 -29 67t-110 17h-57v-177q0 -50 17.5 -63t76.5 -13h48q59 0 92 24.5t61 89.5z" />
    <glyph glyph-name="emacron" unicode="&#x113;" horiz-adv-x="494" 
d="M393 637l-15 -52h-280l15 52h280zM329 71q33 0 63.5 11.5t45.5 30.5l21 -17q-18 -49 -68.5 -77t-121.5 -28q-108 0 -176 62t-68 166q0 105 70.5 167.5t169.5 62.5q56 0 100.5 -21t67.5 -53.5t31 -72t-10 -75.5h-278q9 -73 49.5 -114.5t103.5 -41.5zM257 408
q-37 0 -60.5 -35.5t-23.5 -104.5h147q11 56 -5.5 98t-57.5 42z" />
    <glyph glyph-name="Edotaccent" unicode="&#x116;" horiz-adv-x="605" 
d="M302 683q-35 0 -60.5 25t-25.5 59t25.5 58t60.5 24t60.5 -24t25.5 -58t-25.5 -59t-60.5 -25zM550 158h35l-41 -158h-529v30q51 10 64 20q19 16 19 59v412q0 23 -3.5 37t-17.5 22.5t-20.5 10.5t-33.5 7q-5 1 -8 2v30h527l9 -150h-35q-7 57 -27 81.5t-71 24.5h-69
q-59 0 -76.5 -13t-17.5 -63v-171h57q86 0 110 17t29 67h29v-210h-29q-5 50 -29 67t-110 17h-57v-177q0 -50 17.5 -63t76.5 -13h48q59 0 92 24.5t61 89.5z" />
    <glyph glyph-name="edotaccent" unicode="&#x117;" horiz-adv-x="494" 
d="M245 493q-35 0 -60.5 25t-25.5 59t25.5 58t60.5 24t60.5 -24t25.5 -58t-25.5 -59t-60.5 -25zM329 71q33 0 63.5 11.5t45.5 30.5l21 -17q-18 -49 -68.5 -77t-121.5 -28q-108 0 -176 62t-68 166q0 105 70.5 167.5t169.5 62.5q56 0 100.5 -21t67.5 -53.5t31 -72t-10 -75.5
h-278q9 -73 49.5 -114.5t103.5 -41.5zM257 408q-37 0 -60.5 -35.5t-23.5 -104.5h147q11 56 -5.5 98t-57.5 42z" />
    <glyph glyph-name="Eogonek" unicode="&#x118;" horiz-adv-x="605" 
d="M494 0q-74 -43 -74 -90q0 -26 15 -43t40 -17q15 0 31 6v-22q-37 -33 -91 -33q-43 0 -71.5 20.5t-28.5 66.5q0 35 19 58l81 54h-400v30q51 10 64 20q19 16 19 59v412q0 23 -3.5 37t-17.5 22.5t-20.5 10.5t-33.5 7q-5 1 -8 2v30h527l9 -150h-35q-7 57 -27 81.5t-71 24.5
h-69q-59 0 -76.5 -13t-17.5 -63v-171h57q86 0 110 17t29 67h29v-210h-29q-5 50 -29 67t-110 17h-57v-177q0 -50 17.5 -63t76.5 -13h48q59 0 92 24.5t61 89.5h35l-41 -158h-50z" />
    <glyph glyph-name="eogonek" unicode="&#x119;" horiz-adv-x="494" 
d="M329 71q33 0 63.5 11.5t45.5 30.5l21 -17q-26 -72 -116 -96q-74 -43 -74 -90q0 -26 15 -43t40 -17q15 0 31 6v-22q-37 -33 -91 -33q-43 0 -71.5 20.5t-28.5 66.5q0 35 19 58l68 45q-101 6 -163.5 67t-62.5 161q0 105 70.5 167.5t169.5 62.5q56 0 100.5 -21t67.5 -53.5
t31 -72t-10 -75.5h-278q9 -73 49.5 -114.5t103.5 -41.5zM257 408q-37 0 -60.5 -35.5t-23.5 -104.5h147q11 56 -5.5 98t-57.5 42z" />
    <glyph glyph-name="Ecaron" unicode="&#x11a;" horiz-adv-x="605" 
d="M444 859l-144 -150l-144 148l15 20l129 -79l129 79zM550 158h35l-41 -158h-529v30q51 10 64 20q19 16 19 59v412q0 23 -3.5 37t-17.5 22.5t-20.5 10.5t-33.5 7q-5 1 -8 2v30h527l9 -150h-35q-7 57 -27 81.5t-71 24.5h-69q-59 0 -76.5 -13t-17.5 -63v-171h57q86 0 110 17
t29 67h29v-210h-29q-5 50 -29 67t-110 17h-57v-177q0 -50 17.5 -63t76.5 -13h48q59 0 92 24.5t61 89.5z" />
    <glyph glyph-name="ecaron" unicode="&#x11b;" horiz-adv-x="494" 
d="M387 669l-144 -150l-144 148l15 20l129 -79l129 79zM329 71q33 0 63.5 11.5t45.5 30.5l21 -17q-18 -49 -68.5 -77t-121.5 -28q-108 0 -176 62t-68 166q0 105 70.5 167.5t169.5 62.5q56 0 100.5 -21t67.5 -53.5t31 -72t-10 -75.5h-278q9 -73 49.5 -114.5t103.5 -41.5z
M257 408q-37 0 -60.5 -35.5t-23.5 -104.5h147q11 56 -5.5 98t-57.5 42z" />
    <glyph glyph-name="Gbreve" unicode="&#x11e;" horiz-adv-x="705" 
d="M352 720q-70 0 -115 39t-45 110h33q17 -68 127 -68t127 68h33q0 -71 -45 -110t-115 -39zM386 -12q-161 0 -256 91.5t-95 230.5q0 146 102 241t259 95q125 0 202 -46q4 -91 7 -135h-46q-31 137 -177 137q-95 0 -138 -64t-43 -190q0 -143 46.5 -229.5t125.5 -86.5
q60 0 86 25.5t26 84.5v24q0 63 -20.5 83.5t-82.5 25.5v34h293v-34q-57 -9 -57 -69v-14q0 -112 17 -149q-38 -23 -104 -39t-145 -16z" />
    <glyph glyph-name="gbreve" unicode="&#x11f;" horiz-adv-x="532" 
d="M264 530q-70 0 -115 39t-45 110h33q17 -68 127 -68t127 68h33q0 -71 -45 -110t-115 -39zM509 432v-82l-97 17q16 -28 16 -63q0 -61 -48.5 -102.5t-139.5 -41.5h-1h-18q-50 0 -50 -29q0 -21 44 -25l96 -8q108 -10 145 -31t37 -71q0 -86 -78.5 -137t-206.5 -50
q-100 1 -149 33t-49 73q0 20 26 45.5t64 42.5q-54 24 -54 70q0 21 36 53t77 45q-52 16 -79.5 52t-27.5 81q0 61 49 103t139 42q37 0 69 -8q31 -9 200 -9zM240 193q36 0 51 33.5t15 77.5t-15 78t-51 34t-51 -34t-15 -78t15 -77.5t51 -33.5zM306 -25l-122 9q-35 2 -53 -13.5
t-18 -41.5q0 -72 133 -72q67 0 107 21t40 56q0 20 -19 28.5t-68 12.5z" />
    <glyph glyph-name="Gdotaccent" unicode="&#x120;" horiz-adv-x="705" 
d="M352 683q-35 0 -60.5 25t-25.5 59t25.5 58t60.5 24t60.5 -24t25.5 -58t-25.5 -59t-60.5 -25zM386 -12q-161 0 -256 91.5t-95 230.5q0 146 102 241t259 95q125 0 202 -46q4 -91 7 -135h-46q-31 137 -177 137q-95 0 -138 -64t-43 -190q0 -143 46.5 -229.5t125.5 -86.5
q60 0 86 25.5t26 84.5v24q0 63 -20.5 83.5t-82.5 25.5v34h293v-34q-57 -9 -57 -69v-14q0 -112 17 -149q-38 -23 -104 -39t-145 -16z" />
    <glyph glyph-name="gdotaccent" unicode="&#x121;" horiz-adv-x="532" 
d="M264 493q-35 0 -60.5 25t-25.5 59t25.5 58t60.5 24t60.5 -24t25.5 -58t-25.5 -59t-60.5 -25zM509 432v-82l-97 17q16 -28 16 -63q0 -61 -48.5 -102.5t-139.5 -41.5h-1h-18q-50 0 -50 -29q0 -21 44 -25l96 -8q108 -10 145 -31t37 -71q0 -86 -78.5 -137t-206.5 -50
q-100 1 -149 33t-49 73q0 20 26 45.5t64 42.5q-54 24 -54 70q0 21 36 53t77 45q-52 16 -79.5 52t-27.5 81q0 61 49 103t139 42q37 0 69 -8q31 -9 200 -9zM240 193q36 0 51 33.5t15 77.5t-15 78t-51 34t-51 -34t-15 -78t15 -77.5t51 -33.5zM306 -25l-122 9q-35 2 -53 -13.5
t-18 -41.5q0 -72 133 -72q67 0 107 21t40 56q0 20 -19 28.5t-68 12.5z" />
    <glyph glyph-name="uni0122" unicode="&#x122;" horiz-adv-x="705" 
d="M386 -12q-161 0 -256 91.5t-95 230.5q0 146 102 241t259 95q125 0 202 -46q4 -91 7 -135h-46q-31 137 -177 137q-95 0 -138 -64t-43 -190q0 -143 46.5 -229.5t125.5 -86.5q60 0 86 25.5t26 84.5v24q0 63 -20.5 83.5t-82.5 25.5v34h293v-34q-57 -9 -57 -69v-14
q0 -112 17 -149q-38 -23 -104 -39t-145 -16zM258 -371l-9 31q82 25 99 82q6 33 -17 48q-48 27 -48 73q0 32 23.5 55.5t59.5 23.5q35 0 59 -27t24 -74q0 -71 -52.5 -134t-138.5 -78z" />
    <glyph glyph-name="uni0123" unicode="&#x123;" horiz-adv-x="534" 
d="M246 489q-35 0 -59 27t-24 74q0 71 52.5 134t138.5 78l9 -31q-82 -25 -99 -82q-6 -33 17 -48q48 -27 48 -73q0 -32 -23.5 -55.5t-59.5 -23.5zM509 432v-82l-97 17q16 -28 16 -63q0 -61 -48.5 -102.5t-139.5 -41.5h-1h-18q-50 0 -50 -29q0 -21 44 -25l96 -8
q108 -10 145 -31t37 -71q0 -86 -78.5 -137t-206.5 -50q-100 1 -149 33t-49 73q0 20 26 45.5t64 42.5q-54 24 -54 70q0 21 36 53t77 45q-52 16 -79.5 52t-27.5 81q0 61 49 103t139 42q37 0 69 -8q31 -9 200 -9zM240 193q36 0 51 33.5t15 77.5t-15 78t-51 34t-51 -34t-15 -78
t15 -77.5t51 -33.5zM306 -25l-122 9q-35 2 -53 -13.5t-18 -41.5q0 -72 133 -72q67 0 107 21t40 56q0 20 -19 28.5t-68 12.5z" />
    <glyph glyph-name="Hbar" unicode="&#x126;" horiz-adv-x="750" 
d="M735 600q-51 -10 -64 -20q-19 -16 -19 -59v-412q0 -23 3.5 -37t17.5 -22.5t20.5 -10.5t33.5 -7q5 -1 8 -2v-30h-323v30q51 10 64 20q19 16 19 59v183h-240v-183q0 -23 3.5 -37t17.5 -22.5t20.5 -10.5t33.5 -7q5 -1 8 -2v-30h-323v30q51 10 64 20q19 16 19 59v412
q0 23 -3.5 37t-17.5 22.5t-20.5 10.5t-33.5 7q-5 1 -8 2v30h323v-30q-51 -10 -64 -20q-19 -16 -19 -59v-81h240v81q0 23 -3.5 37t-17.5 22.5t-20.5 10.5t-33.5 7q-5 1 -8 2v30h323v-30zM255 334h240v64h-240v-64z" />
    <glyph glyph-name="hbar" unicode="&#x127;" horiz-adv-x="597" 
d="M521 88q0 -31 13.5 -40.5t52.5 -17.5v-30h-266v30q22 6 31 9.5t16.5 15.5t7.5 33v192q0 89 -59 89q-45 0 -87 -50v-231q0 -21 7.5 -33t16.5 -15.5t31 -9.5v-30h-273v30q44 8 58.5 17.5t14.5 40.5v399q-11 -1 -34.5 -1t-35.5 -1l10 44q10 -1 30 -1t30 -1v12q0 17 -1 24.5
t-7.5 17t-22 14t-42.5 7.5v28q110 12 198 57l20 -19v-142q82 0 165 3l-10 -44q-78 3 -155 3v-126q39 43 74.5 65t86.5 22q72 0 101 -45t29 -109v-207z" />
    <glyph glyph-name="Imacron" unicode="&#x12a;" horiz-adv-x="353" 
d="M29 775l15 52h280l-15 -52h-280zM15 0v30q51 10 64 20q19 16 19 59v412q0 23 -3.5 37t-17.5 22.5t-20.5 10.5t-33.5 7q-5 1 -8 2v30h323v-30q-51 -10 -64 -20q-19 -16 -19 -59v-412q0 -23 3.5 -37t17.5 -22.5t20.5 -10.5t33.5 -7q5 -1 8 -2v-30h-323z" />
    <glyph glyph-name="imacron" unicode="&#x12b;" horiz-adv-x="305" 
d="M0 585l15 52h280l-15 -52h-280zM15 0v30q39 8 52.5 17.5t13.5 40.5v219q0 30 -12.5 44t-53.5 19v28q134 21 190 58l21 -19v-349q0 -31 13.5 -40.5t52.5 -17.5v-30h-277z" />
    <glyph glyph-name="Iogonek" unicode="&#x12e;" horiz-adv-x="353" 
d="M338 600q-51 -10 -64 -20q-19 -16 -19 -59v-412q0 -23 3.5 -37t17.5 -22.5t20.5 -10.5t33.5 -7q5 -1 8 -2v-30h-83q-74 -43 -74 -90q0 -26 15 -43t40 -17q15 0 31 6v-22q-37 -33 -91 -33q-43 0 -71.5 20.5t-28.5 66.5q0 35 19 58l81 54h-161v30q51 10 64 20q19 16 19 59
v412q0 23 -3.5 37t-17.5 22.5t-20.5 10.5t-33.5 7q-5 1 -8 2v30h323v-30z" />
    <glyph glyph-name="iogonek" unicode="&#x12f;" horiz-adv-x="305" 
d="M147 493q-35 0 -60.5 25t-25.5 59t25.5 58t60.5 24t60.5 -24t25.5 -58t-25.5 -59t-60.5 -25zM224 0q-74 -43 -74 -90q0 -26 15 -43t40 -17q15 0 31 6v-22q-37 -33 -91 -33q-43 0 -71.5 20.5t-28.5 66.5q0 35 19 58l81 54h-130v30q39 8 52.5 17.5t13.5 40.5v219
q0 30 -12.5 44t-53.5 19v28q134 21 190 58l21 -19v-349q0 -31 13.5 -40.5t52.5 -17.5v-30h-68z" />
    <glyph glyph-name="Idotaccent" unicode="&#x130;" horiz-adv-x="353" 
d="M176 683q-35 0 -60.5 25t-25.5 59t25.5 58t60.5 24t60.5 -24t25.5 -58t-25.5 -59t-60.5 -25zM15 0v30q51 10 64 20q19 16 19 59v412q0 23 -3.5 37t-17.5 22.5t-20.5 10.5t-33.5 7q-5 1 -8 2v30h323v-30q-51 -10 -64 -20q-19 -16 -19 -59v-412q0 -23 3.5 -37t17.5 -22.5
t20.5 -10.5t33.5 -7q5 -1 8 -2v-30h-323z" />
    <glyph glyph-name="dotlessi" unicode="&#x131;" horiz-adv-x="307" 
d="M15 0v30q39 8 52.5 17.5t13.5 40.5v219q0 30 -12.5 44t-53.5 19v28q134 21 190 58l21 -19v-349q0 -31 13.5 -40.5t52.5 -17.5v-30h-277z" />
    <glyph glyph-name="IJ" unicode="&#x132;" horiz-adv-x="710" 
d="M15 0v30q51 10 64 20q19 16 19 59v412q0 23 -3.5 37t-17.5 22.5t-20.5 10.5t-33.5 7q-5 1 -8 2v30h323v-30q-51 -10 -64 -20q-19 -16 -19 -59v-412q0 -23 3.5 -37t17.5 -22.5t20.5 -10.5t33.5 -7q5 -1 8 -2v-30h-323zM350 -185q-6 7 -6 18.5t6 18.5q67 24 86 56t19 108
v505q0 30 -10.5 46.5t-21.5 20.5t-41 10q-5 1 -8 2v30h321v-30q-51 -10 -64 -20q-19 -16 -19 -59v-515q0 -38 -16 -68.5t-39.5 -49.5t-61.5 -34t-69 -23t-76 -16z" />
    <glyph glyph-name="ij" unicode="&#x133;" horiz-adv-x="596" 
d="M150 503q-35 0 -60.5 25t-25.5 59t25.5 58t60.5 24t60.5 -24t25.5 -58t-25.5 -59t-60.5 -25zM450 503q-35 0 -60.5 25t-25.5 59t25.5 58t60.5 24t60.5 -24t25.5 -58t-25.5 -59t-60.5 -25zM15 0v30q39 8 52.5 17.5t13.5 40.5v219q0 30 -12.5 44t-53.5 19v28q130 23 190 58
l21 -19v-349q0 -31 13.5 -40.5t52.5 -17.5v-30h-277zM296 -185q-8 17 0 34q47 15 66.5 51.5t19.5 102.5v304q0 30 -12.5 44t-53.5 19v28q134 21 190 58l21 -19v-454q0 -42 -24.5 -74.5t-64 -51t-73.5 -28t-69 -14.5z" />
    <glyph glyph-name="uni0136" unicode="&#x136;" horiz-adv-x="728" 
d="M642 54q12 -17 27.5 -20.5t58.5 -3.5v-30h-243q0 20 -34 70l-154 233l-42 -42v-152q0 -23 3.5 -37t17.5 -22.5t20.5 -10.5t33.5 -7q5 -1 8 -2v-30h-323v30q51 10 64 20q19 16 19 59v412q0 23 -3.5 37t-17.5 22.5t-20.5 10.5t-33.5 7q-5 1 -8 2v30h323v-30
q-51 -10 -64 -20q-19 -16 -19 -59v-196l236 232q44 43 -41 43v30h225v-30q-47 0 -71.5 -9.5t-48.5 -33.5l-154 -152zM380 -58q35 0 59 -27t24 -74q0 -71 -52.5 -134t-138.5 -78l-9 31q82 25 99 82q6 33 -17 48q-48 27 -48 73q0 32 23.5 55.5t59.5 23.5z" />
    <glyph glyph-name="uni0137" unicode="&#x137;" horiz-adv-x="617" 
d="M536 66q13 -18 29.5 -24.5t57.5 -10.5v-31h-223q0 37 -18 61l-99 142l-50 -48v-67q0 -31 14.5 -40.5t58.5 -17.5v-30h-291v30q44 8 58.5 17.5t14.5 40.5v451q0 17 -1 24.5t-7.5 17t-22 14t-42.5 7.5v28q110 12 198 57l20 -19v-452l151 142q46 43 -36 51v31h218v-31
q-32 -2 -57 -12t-38 -19.5t-36 -29.5l-58 -56zM322 -58q35 0 59 -27t24 -74q0 -71 -52.5 -134t-138.5 -78l-9 31q82 25 99 82q6 33 -17 48q-48 27 -48 73q0 32 23.5 55.5t59.5 23.5z" />
    <glyph glyph-name="Lacute" unicode="&#x139;" horiz-adv-x="605" 
d="M193 690l-37 22q17 81 69 154q28 0 57 -22t39 -51q-76 -48 -128 -103zM15 0v30q51 10 64 20q19 16 19 59v412q0 23 -3.5 37t-17.5 22.5t-20.5 10.5t-33.5 7q-5 1 -8 2v30h312v-30q-25 -5 -34 -7.5t-20.5 -10.5t-14.5 -22t-3 -39v-399q0 -50 17.5 -63t76.5 -13h51
q61 0 94.5 24t58.5 94h37l-41 -164h-534z" />
    <glyph glyph-name="lacute" unicode="&#x13a;" horiz-adv-x="319" 
d="M141 694l-37 22q17 81 69 154q28 0 57 -22t39 -51q-76 -48 -128 -103zM15 0v30q44 8 58.5 17.5t14.5 40.5v451q0 17 -1 24.5t-7.5 17t-22 14t-42.5 7.5v28q110 12 198 57l20 -19v-580q0 -31 14.5 -40.5t58.5 -17.5v-30h-291z" />
    <glyph glyph-name="uni013B" unicode="&#x13b;" horiz-adv-x="605" 
d="M15 0v30q51 10 64 20q19 16 19 59v412q0 23 -3.5 37t-17.5 22.5t-20.5 10.5t-33.5 7q-5 1 -8 2v30h312v-30q-25 -5 -34 -7.5t-20.5 -10.5t-14.5 -22t-3 -39v-399q0 -50 17.5 -63t76.5 -13h51q61 0 94.5 24t58.5 94h37l-41 -164h-534zM211 -371l-9 31q82 25 99 82
q6 33 -17 48q-48 27 -48 73q0 32 23.5 55.5t59.5 23.5q35 0 59 -27t24 -74q0 -71 -52.5 -134t-138.5 -78z" />
    <glyph glyph-name="uni013C" unicode="&#x13c;" horiz-adv-x="319" 
d="M15 0v30q44 8 58.5 17.5t14.5 40.5v451q0 17 -1 24.5t-7.5 17t-22 14t-42.5 7.5v28q110 12 198 57l20 -19v-580q0 -31 14.5 -40.5t58.5 -17.5v-30h-291zM65 -371l-9 31q82 25 99 82q6 33 -17 48q-48 27 -48 73q0 32 23.5 55.5t59.5 23.5q35 0 59 -27t24 -74
q0 -71 -52.5 -134t-138.5 -78z" />
    <glyph glyph-name="Lcaron" unicode="&#x13d;" horiz-adv-x="610" 
d="M390 318l-9 31q82 25 99 82q6 33 -17 48q-48 27 -48 73q0 32 23.5 55.5t59.5 23.5q35 0 59 -27t24 -74q0 -71 -52.5 -134t-138.5 -78zM15 0v30q51 10 64 20q19 16 19 59v412q0 23 -3.5 37t-17.5 22.5t-20.5 10.5t-33.5 7q-5 1 -8 2v30h312v-30q-25 -5 -34 -7.5
t-20.5 -10.5t-14.5 -22t-3 -39v-399q0 -50 17.5 -63t76.5 -13h51q61 0 94.5 24t58.5 94h37l-41 -164h-534z" />
    <glyph glyph-name="lcaron" unicode="&#x13e;" horiz-adv-x="361" 
d="M15 0v30q44 8 58.5 17.5t14.5 40.5v451q0 17 -1 24.5t-7.5 17t-22 14t-42.5 7.5v28q110 12 198 57l20 -19v-580q0 -31 14.5 -40.5t58.5 -17.5v-30h-291zM358 492l-42 4q-9 78 -44 160q25 16 61 17t60 -15q0 -89 -35 -166z" />
    <glyph glyph-name="Ldot" unicode="&#x13f;" horiz-adv-x="610" 
d="M15 0v30q51 10 64 20q19 16 19 59v412q0 23 -3.5 37t-17.5 22.5t-20.5 10.5t-33.5 7q-5 1 -8 2v30h312v-30q-25 -5 -34 -7.5t-20.5 -10.5t-14.5 -22t-3 -39v-399q0 -50 17.5 -63t76.5 -13h51q61 0 94.5 24t58.5 94h37l-41 -164h-534zM450 229q-35 0 -59 24.5t-24 59.5
q0 33 24.5 57t58.5 24q33 0 57 -24t24 -57q0 -35 -24 -59.5t-57 -24.5z" />
    <glyph glyph-name="ldot" unicode="&#x140;" horiz-adv-x="440" 
d="M15 0v30q44 8 58.5 17.5t14.5 40.5v451q0 17 -1 24.5t-7.5 17t-22 14t-42.5 7.5v28q110 12 198 57l20 -19v-580q0 -31 14.5 -40.5t58.5 -17.5v-30h-291zM378 254q-35 0 -59 24.5t-24 59.5q0 33 24.5 57t58.5 24q33 0 57 -24t24 -57q0 -35 -24 -59.5t-57 -24.5z" />
    <glyph glyph-name="Lslash" unicode="&#x141;" horiz-adv-x="606" 
d="M549 164h37l-41 -164h-534v30q51 10 64 20q19 16 19 59v178q-25 -9 -75 -29v57q50 14 75 22v184q0 23 -3.5 37t-17.5 22.5t-20.5 10.5t-33.5 7q-5 1 -8 2v30h312v-30q-25 -5 -34 -7.5t-20.5 -10.5t-14.5 -22t-3 -39v-132q78 26 160 59v-57q-88 -25 -160 -48v-221
q0 -50 17.5 -63t76.5 -13h51q61 0 94.5 24t58.5 94z" />
    <glyph glyph-name="lslash" unicode="&#x142;" horiz-adv-x="318" 
d="M306 361q-26 -7 -76 -23v-250q0 -31 14.5 -40.5t58.5 -17.5v-30h-291v30q44 8 58.5 17.5t14.5 40.5v198q-9 -3 -70 -27v55q38 10 70 21v204q0 17 -1 24.5t-7.5 17t-22 14t-42.5 7.5v28q110 12 198 57l20 -19v-282l76 30v-55z" />
    <glyph glyph-name="Nacute" unicode="&#x143;" horiz-adv-x="693" 
d="M481 793q-76 -48 -128 -103l-37 22q17 81 69 154q28 0 57 -22t39 -51zM456 630h222v-30q-52 -10 -65 -20q-20 -17 -20 -59v-521h-65l-381 535v-426q0 -23 4 -37t19 -22.5t22 -10.5t36 -7q6 -1 9 -2v-30h-222v30q52 10 65 20q20 16 20 59v412q0 23 -4 37t-17.5 22.5
t-21.5 10.5t-33 7q-2 1 -3 1t-3 0.5t-3 0.5v30h242l289 -413v304q0 23 -4 37t-19 22.5t-22 10.5t-36 7q-6 1 -9 2v30z" />
    <glyph glyph-name="nacute" unicode="&#x144;" 
d="M297 500l-37 22q17 81 69 154q28 0 57 -22t39 -51q-76 -48 -128 -103zM10 0v30q39 8 52.5 17.5t13.5 40.5v219q0 30 -12.5 44t-53.5 19v28q119 18 190 58l20 -19l-35 -84h28q42 48 78.5 72t90.5 24q72 0 101 -45t29 -109v-207q0 -31 13.5 -40.5t52.5 -17.5v-30h-266v30
q22 6 31 9.5t16.5 15.5t7.5 33v193q0 88 -57 88q-51 0 -89 -51v-230q0 -21 7.5 -33t16.5 -15.5t31 -9.5v-30h-266z" />
    <glyph glyph-name="uni0145" unicode="&#x145;" horiz-adv-x="693" 
d="M456 630h222v-30q-52 -10 -65 -20q-20 -17 -20 -59v-521h-65l-381 535v-426q0 -23 4 -37t19 -22.5t22 -10.5t36 -7q6 -1 9 -2v-30h-222v30q52 10 65 20q20 16 20 59v412q0 23 -4 37t-17.5 22.5t-21.5 10.5t-33 7q-2 1 -3 1t-3 0.5t-3 0.5v30h242l289 -413v304q0 23 -4 37
t-19 22.5t-22 10.5t-36 7q-6 1 -9 2v30zM360 -58q35 0 59 -27t24 -74q0 -71 -52.5 -134t-138.5 -78l-9 31q82 25 99 82q6 33 -17 48q-48 27 -48 73q0 32 23.5 55.5t59.5 23.5z" />
    <glyph glyph-name="uni0146" unicode="&#x146;" 
d="M10 0v30q39 8 52.5 17.5t13.5 40.5v219q0 30 -12.5 44t-53.5 19v28q119 18 190 58l20 -19l-35 -84h28q42 48 78.5 72t90.5 24q72 0 101 -45t29 -109v-207q0 -31 13.5 -40.5t52.5 -17.5v-30h-266v30q22 6 31 9.5t16.5 15.5t7.5 33v193q0 88 -57 88q-51 0 -89 -51v-230
q0 -21 7.5 -33t16.5 -15.5t31 -9.5v-30h-266zM196 -371l-9 31q82 25 99 82q6 33 -17 48q-48 27 -48 73q0 32 23.5 55.5t59.5 23.5q35 0 59 -27t24 -74q0 -71 -52.5 -134t-138.5 -78z" />
    <glyph glyph-name="Ncaron" unicode="&#x147;" horiz-adv-x="693" 
d="M488 859l-144 -150l-144 148l15 20l129 -79l129 79zM456 630h222v-30q-52 -10 -65 -20q-20 -17 -20 -59v-521h-65l-381 535v-426q0 -23 4 -37t19 -22.5t22 -10.5t36 -7q6 -1 9 -2v-30h-222v30q52 10 65 20q20 16 20 59v412q0 23 -4 37t-17.5 22.5t-21.5 10.5t-33 7
q-2 1 -3 1t-3 0.5t-3 0.5v30h242l289 -413v304q0 23 -4 37t-19 22.5t-22 10.5t-36 7q-6 1 -9 2v30z" />
    <glyph glyph-name="ncaron" unicode="&#x148;" 
d="M288 519l-144 148l15 20l129 -79l129 79l15 -18zM10 0v30q39 8 52.5 17.5t13.5 40.5v219q0 30 -12.5 44t-53.5 19v28q119 18 190 58l20 -19l-35 -84h28q42 48 78.5 72t90.5 24q72 0 101 -45t29 -109v-207q0 -31 13.5 -40.5t52.5 -17.5v-30h-266v30q22 6 31 9.5t16.5 15.5
t7.5 33v193q0 88 -57 88q-51 0 -89 -51v-230q0 -21 7.5 -33t16.5 -15.5t31 -9.5v-30h-266z" />
    <glyph glyph-name="Eng" unicode="&#x14a;" horiz-adv-x="693" 
d="M456 630h222v-30q-52 -10 -65 -20q-20 -17 -20 -59v-366h3v-149q0 -38 -16 -68.5t-39.5 -49.5t-61.5 -34t-69 -23t-76 -16q-4 7 -4 18t4 19q67 24 86 56t19 108v109l-292 410v-426q0 -23 4 -37t19 -22.5t22 -10.5t36 -7q6 -1 9 -2v-30h-222v30q52 10 65 20q20 16 20 59
v412q0 23 -4 37t-17.5 22.5t-21.5 10.5t-33 7q-2 1 -3 1t-3 0.5t-3 0.5v30h242l289 -413v304q0 23 -4 37t-19 22.5t-22 10.5t-36 7q-6 1 -9 2v30z" />
    <glyph glyph-name="eng" unicode="&#x14b;" horiz-adv-x="557" 
d="M382 449q72 0 101 -45t29 -109v-312q0 -42 -24.5 -74.5t-64 -51t-73.5 -28t-69 -14.5q-8 17 0 34q47 15 66.5 51.5t19.5 102.5v278q0 88 -57 88q-51 0 -89 -51v-230q0 -21 7.5 -33t16.5 -15.5t31 -9.5v-30h-266v30q39 8 52.5 17.5t13.5 40.5v219q0 30 -12.5 44t-53.5 19
v28q119 18 190 58l20 -19l-35 -84h28q42 48 78.5 72t90.5 24z" />
    <glyph glyph-name="Omacron" unicode="&#x14c;" horiz-adv-x="722" 
d="M214 775l15 52h280l-15 -52h-280zM359 -12q-140 0 -232 90.5t-92 233.5q0 147 92.5 240.5t235.5 93.5q141 0 232.5 -91t91.5 -238q0 -143 -93 -236t-235 -93zM376 32q146 0 146 255q0 146 -45 230.5t-131 84.5q-146 0 -146 -260q0 -142 45.5 -226t130.5 -84z" />
    <glyph glyph-name="omacron" unicode="&#x14d;" horiz-adv-x="535" 
d="M121 585l15 52h280l-15 -52h-280zM263 -9q-104 0 -171 61t-67 165q0 107 71.5 169.5t177.5 62.5q104 0 171 -61t67 -165q0 -107 -71.5 -169.5t-177.5 -62.5zM278 30q40 0 62 43t22 122q0 53 -8 98.5t-32.5 81t-62.5 35.5q-40 0 -62 -43t-22 -122q0 -53 8 -98.5t32.5 -81
t62.5 -35.5z" />
    <glyph glyph-name="Ohungarumlaut" unicode="&#x150;" horiz-adv-x="722" 
d="M252 690l-37 22q17 81 69 154q28 0 57 -22t39 -51q-76 -48 -128 -103zM437 690l-37 22q17 81 69 154q28 0 57 -22t39 -51q-76 -48 -128 -103zM359 -12q-140 0 -232 90.5t-92 233.5q0 147 92.5 240.5t235.5 93.5q141 0 232.5 -91t91.5 -238q0 -143 -93 -236t-235 -93z
M376 32q146 0 146 255q0 146 -45 230.5t-131 84.5q-146 0 -146 -260q0 -142 45.5 -226t130.5 -84z" />
    <glyph glyph-name="ohungarumlaut" unicode="&#x151;" horiz-adv-x="535" 
d="M159 500l-37 22q17 81 69 154q28 0 57 -22t39 -51q-76 -48 -128 -103zM344 500l-37 22q17 81 69 154q28 0 57 -22t39 -51q-76 -48 -128 -103zM263 -9q-104 0 -171 61t-67 165q0 107 71.5 169.5t177.5 62.5q104 0 171 -61t67 -165q0 -107 -71.5 -169.5t-177.5 -62.5z
M278 30q40 0 62 43t22 122q0 53 -8 98.5t-32.5 81t-62.5 35.5q-40 0 -62 -43t-22 -122q0 -53 8 -98.5t32.5 -81t62.5 -35.5z" />
    <glyph glyph-name="OE" unicode="&#x152;" horiz-adv-x="1015" 
d="M960 158h35l-41 -158h-509q-41 -12 -84 -12q-140 0 -233 90.5t-93 233.5q0 147 93.5 241t236.5 94q58 0 112 -17h475l9 -150h-35q-7 57 -27 81.5t-71 24.5h-69q-59 0 -76.5 -13t-17.5 -63v-171h57q86 0 110 17t29 67h29v-210h-29q-5 50 -29 67t-110 17h-57v-177
q0 -50 17.5 -63t76.5 -13h48q59 0 92 24.5t61 89.5zM201 342q0 -141 46 -225.5t131 -84.5q57 0 86 25.5t44 78.5v324q-16 68 -56.5 105.5t-103.5 37.5q-147 0 -147 -261z" />
    <glyph glyph-name="oe" unicode="&#x153;" horiz-adv-x="835" 
d="M668 72q33 0 63.5 11.5t45.5 30.5l21 -17q-18 -49 -68.5 -77t-121.5 -28q-103 0 -172 58q-70 -59 -173 -59q-104 0 -171 61t-67 165q0 107 71.5 169.5t177.5 62.5q101 0 166 -56q68 57 164 57q56 0 100.5 -21t67.5 -53.5t31 -72t-10 -75.5h-278q9 -73 49.5 -114.5
t103.5 -41.5zM278 30q40 0 62 43t22 122q0 53 -8 98.5t-32.5 81t-62.5 35.5q-40 0 -62 -43t-22 -122q0 -53 8 -98.5t32.5 -81t62.5 -35.5zM596 409q-37 0 -60.5 -35.5t-23.5 -104.5h147q11 56 -5.5 98t-57.5 42z" />
    <glyph glyph-name="Racute" unicode="&#x154;" horiz-adv-x="720" 
d="M487 793q-76 -48 -128 -103l-37 22q17 81 69 154q28 0 57 -22t39 -51zM578 113q21 -39 58.5 -66.5t78.5 -15.5v-31q-37 -16 -98 -16q-138 0 -191 93l-56 98q-31 53 -55.5 72.5t-59.5 21.5v-160q0 -23 3.5 -37t17.5 -22.5t20.5 -10.5t33.5 -7q5 -1 8 -2v-30h-323v30
q51 10 64 20q19 16 19 59v412q0 23 -3.5 37t-17.5 22.5t-20.5 10.5t-33.5 7q-5 1 -8 2v30h303q294 0 294 -176q0 -147 -195 -177q74 -13 114 -82zM323 586q-40 0 -54 -11t-14 -35v-228h39q89 0 120.5 36.5t31.5 96.5q0 141 -123 141z" />
    <glyph glyph-name="racute" unicode="&#x155;" horiz-adv-x="435" 
d="M218 500l-37 22q17 81 69 154q28 0 57 -22t39 -51q-76 -48 -128 -103zM10 0v30q22 4 31.5 7t20.5 9t15 16t4 26v220q0 30 -13.5 44t-57.5 18v28q120 19 205 58l20 -19l-18 -122h30q28 72 58 106.5t73 34.5q20 0 39 -8v-131q-30 15 -66 15q-63 0 -94 -41.5t-31 -98.5v-104
q0 -16 4 -26t15 -16t21.5 -9t33.5 -7v-30h-290z" />
    <glyph glyph-name="uni0156" unicode="&#x156;" horiz-adv-x="720" 
d="M578 113q21 -39 58.5 -66.5t78.5 -15.5v-31q-37 -16 -98 -16q-138 0 -191 93l-56 98q-31 53 -55.5 72.5t-59.5 21.5v-160q0 -23 3.5 -37t17.5 -22.5t20.5 -10.5t33.5 -7q5 -1 8 -2v-30h-323v30q51 10 64 20q19 16 19 59v412q0 23 -3.5 37t-17.5 22.5t-20.5 10.5t-33.5 7
q-5 1 -8 2v30h303q294 0 294 -176q0 -147 -195 -177q74 -13 114 -82zM323 586q-40 0 -54 -11t-14 -35v-228h39q89 0 120.5 36.5t31.5 96.5q0 141 -123 141zM373 -58q35 0 59 -27t24 -74q0 -71 -52.5 -134t-138.5 -78l-9 31q82 25 99 82q6 33 -17 48q-48 27 -48 73
q0 32 23.5 55.5t59.5 23.5z" />
    <glyph glyph-name="uni0157" unicode="&#x157;" horiz-adv-x="435" 
d="M10 0v30q22 4 31.5 7t20.5 9t15 16t4 26v220q0 30 -13.5 44t-57.5 18v28q120 19 205 58l20 -19l-18 -122h30q28 72 58 106.5t73 34.5q20 0 39 -8v-131q-30 15 -66 15q-63 0 -94 -41.5t-31 -98.5v-104q0 -16 4 -26t15 -16t21.5 -9t33.5 -7v-30h-290zM61 -371l-9 31
q82 25 99 82q6 33 -17 48q-48 27 -48 73q0 32 23.5 55.5t59.5 23.5q35 0 59 -27t24 -74q0 -71 -52.5 -134t-138.5 -78z" />
    <glyph glyph-name="Rcaron" unicode="&#x158;" horiz-adv-x="720" 
d="M494 859l-144 -150l-144 148l15 20l129 -79l129 79zM578 113q21 -39 58.5 -66.5t78.5 -15.5v-31q-37 -16 -98 -16q-138 0 -191 93l-56 98q-31 53 -55.5 72.5t-59.5 21.5v-160q0 -23 3.5 -37t17.5 -22.5t20.5 -10.5t33.5 -7q5 -1 8 -2v-30h-323v30q51 10 64 20
q19 16 19 59v412q0 23 -3.5 37t-17.5 22.5t-20.5 10.5t-33.5 7q-5 1 -8 2v30h303q294 0 294 -176q0 -147 -195 -177q74 -13 114 -82zM323 586q-40 0 -54 -11t-14 -35v-228h39q89 0 120.5 36.5t31.5 96.5q0 141 -123 141z" />
    <glyph glyph-name="rcaron" unicode="&#x159;" horiz-adv-x="435" 
d="M209 519l-144 148l15 20l129 -79l129 79l15 -18zM10 0v30q22 4 31.5 7t20.5 9t15 16t4 26v220q0 30 -13.5 44t-57.5 18v28q120 19 205 58l20 -19l-18 -122h30q28 72 58 106.5t73 34.5q20 0 39 -8v-131q-30 15 -66 15q-63 0 -94 -41.5t-31 -98.5v-104q0 -16 4 -26t15 -16
t21.5 -9t33.5 -7v-30h-290z" />
    <glyph glyph-name="Sacute" unicode="&#x15a;" horiz-adv-x="545" 
d="M273 690l-37 22q17 81 69 154q28 0 57 -22t39 -51q-76 -48 -128 -103zM262 -12q-135 0 -219 63l-8 132h33q21 -72 69 -113t115 -41q54 0 85 28.5t31 73.5q0 39 -29.5 69t-95.5 58q-42 18 -71.5 34.5t-61.5 42t-48.5 60t-16.5 76.5q0 82 62 128.5t170 46.5q17 0 33.5 -1.5
t31.5 -4.5t27 -5.5t24.5 -7.5t20.5 -8t18.5 -9t15 -8.5t13.5 -8t10 -6.5l3 -134h-31q-21 73 -57 112.5t-98 39.5q-52 0 -77 -26t-25 -62q0 -32 22.5 -55.5t87.5 -51.5q38 -17 58 -26t56 -31.5t55.5 -44t35.5 -55t16 -71.5q0 -87 -70.5 -140.5t-184.5 -53.5z" />
    <glyph glyph-name="sacute" unicode="&#x15b;" horiz-adv-x="405" 
d="M207 500l-37 22q17 81 69 154q28 0 57 -22t39 -51q-76 -48 -128 -103zM181 -9q-85 0 -154 40l-2 96h46q18 -48 45 -73t77 -25q72 0 72 54q0 26 -20 42.5t-69 32.5q-29 10 -51.5 20.5t-47.5 28.5t-38.5 45t-13.5 61q0 65 50 100.5t132 35.5q69 0 139 -38l1 -95h-46
q-28 95 -103 95q-29 0 -45.5 -12.5t-16.5 -34.5q0 -44 81 -72q35 -12 58.5 -22.5t51 -29.5t41.5 -46t14 -62q0 -71 -56 -106t-145 -35z" />
    <glyph glyph-name="Scedilla" unicode="&#x15e;" horiz-adv-x="545" 
d="M517 182q0 -81 -62 -133.5t-164 -59.5l-14 -28q43 0 79.5 -22.5t36.5 -63.5q0 -87 -178 -87l5 29q88 0 88 44q0 41 -115 41l44 87q-121 6 -194 62l-8 132h33q21 -72 69 -113t115 -41q54 0 85 28.5t31 73.5q0 39 -29.5 69t-95.5 58q-42 18 -71.5 34.5t-61.5 42t-48.5 60
t-16.5 76.5q0 82 62 128.5t170 46.5q17 0 33.5 -1.5t31.5 -4.5t27 -5.5t24.5 -7.5t20.5 -8t18.5 -9t15 -8.5t13.5 -8t10 -6.5l3 -134h-31q-21 73 -57 112.5t-98 39.5q-52 0 -77 -26t-25 -62q0 -32 22.5 -55.5t87.5 -51.5q38 -17 58 -26t56 -31.5t55.5 -44t35.5 -55t16 -71.5
z" />
    <glyph glyph-name="scedilla" unicode="&#x15f;" horiz-adv-x="405" 
d="M382 132q0 -62 -44 -97t-117 -42l-16 -32q43 0 79.5 -22.5t36.5 -63.5q0 -87 -178 -87l5 29q88 0 88 44q0 41 -115 41l46 89q-77 3 -140 40l-2 96h46q18 -48 45 -73t77 -25q72 0 72 54q0 26 -20 42.5t-69 32.5q-29 10 -51.5 20.5t-47.5 28.5t-38.5 45t-13.5 61
q0 65 50 100.5t132 35.5q69 0 139 -38l1 -95h-46q-28 95 -103 95q-29 0 -45.5 -12.5t-16.5 -34.5q0 -44 81 -72q35 -12 58.5 -22.5t51 -29.5t41.5 -46t14 -62z" />
    <glyph glyph-name="Scaron" unicode="&#x160;" horiz-adv-x="545" 
d="M265 709l-144 148l15 20l129 -79l129 79l15 -18zM262 -12q-135 0 -219 63l-8 132h33q21 -72 69 -113t115 -41q54 0 85 28.5t31 73.5q0 39 -29.5 69t-95.5 58q-42 18 -71.5 34.5t-61.5 42t-48.5 60t-16.5 76.5q0 82 62 128.5t170 46.5q17 0 33.5 -1.5t31.5 -4.5t27 -5.5
t24.5 -7.5t20.5 -8t18.5 -9t15 -8.5t13.5 -8t10 -6.5l3 -134h-31q-21 73 -57 112.5t-98 39.5q-52 0 -77 -26t-25 -62q0 -32 22.5 -55.5t87.5 -51.5q38 -17 58 -26t56 -31.5t55.5 -44t35.5 -55t16 -71.5q0 -87 -70.5 -140.5t-184.5 -53.5z" />
    <glyph glyph-name="scaron" unicode="&#x161;" horiz-adv-x="405" 
d="M198 519l-144 148l15 20l129 -79l129 79l15 -18zM181 -9q-85 0 -154 40l-2 96h46q18 -48 45 -73t77 -25q72 0 72 54q0 26 -20 42.5t-69 32.5q-29 10 -51.5 20.5t-47.5 28.5t-38.5 45t-13.5 61q0 65 50 100.5t132 35.5q69 0 139 -38l1 -95h-46q-28 95 -103 95
q-29 0 -45.5 -12.5t-16.5 -34.5q0 -44 81 -72q35 -12 58.5 -22.5t51 -29.5t41.5 -46t14 -62q0 -71 -56 -106t-145 -35z" />
    <glyph glyph-name="uni0162" unicode="&#x162;" horiz-adv-x="599" 
d="M578 640l8 -182h-29q-11 68 -41.5 99t-106.5 31h-29v-479q0 -24 4.5 -38.5t20 -22.5t24 -10.5t38.5 -7.5v-30h-143l-19 -39q43 0 79.5 -22.5t36.5 -63.5q0 -87 -178 -87l5 29q88 0 88 44q0 41 -115 41l50 98h-135v30q54 10 67 20q20 16 20 59v479h-28q-78 0 -109 -31
t-42 -99h-29l8 182l59 -10h437z" />
    <glyph glyph-name="uni0163" unicode="&#x163;" horiz-adv-x="412" 
d="M241 118q0 -81 129 -36v-30q-77 -39 -160 -59l-16 -32q43 0 79.5 -22.5t36.5 -63.5q0 -87 -178 -87l5 29q88 0 88 44q0 41 -115 41l48 93q-30 9 -46 30.5t-16 47.5v323h-86v34q105 35 193 105h38v-98l132 12q-5 -28 -5 -53h-127v-278z" />
    <glyph glyph-name="Tcaron" unicode="&#x164;" horiz-adv-x="601" 
d="M442 850l-144 -150l-144 148l15 20l129 -79l129 79zM578 640l8 -182h-29q-11 68 -41.5 99t-106.5 31h-29v-479q0 -24 4.5 -38.5t20 -22.5t24 -10.5t38.5 -7.5v-30h-331v30q54 10 67 20q20 16 20 59v479h-28q-78 0 -109 -31t-42 -99h-29l8 182l59 -10h437z" />
    <glyph glyph-name="tcaron" unicode="&#x165;" horiz-adv-x="380" 
d="M293 473q-26 0 -26 30l2 106q0 51 46 51q26 0 38 -14t5 -40l-33 -105q-10 -28 -32 -28zM241 118q0 -81 129 -36v-30q-83 -43 -174 -62q-46 0 -73 24.5t-27 58.5v323h-86v34q105 35 193 105h38v-98l132 12q-5 -28 -5 -53h-127v-278z" />
    <glyph glyph-name="Tbar" unicode="&#x166;" horiz-adv-x="601" 
d="M578 640l8 -182h-29q-11 68 -41.5 99t-106.5 31h-29v-258l110 3l-10 -44q-66 2 -100 2v-182q0 -24 4.5 -38.5t20 -22.5t24 -10.5t38.5 -7.5v-30h-331v30q54 10 67 20q20 16 20 59v183l-113 -3l10 44q68 -2 103 -2v257h-28q-78 0 -109 -31t-42 -99h-29l8 182l59 -10h437z
" />
    <glyph glyph-name="tbar" unicode="&#x167;" horiz-adv-x="376" 
d="M237 118q0 -81 129 -36v-30q-83 -43 -174 -62q-46 0 -73 24.5t-27 58.5v171h-78l10 44h68v108h-86v34q105 35 193 105h38v-98l132 12q-5 -28 -5 -53h-127v-108h137l-10 -44h-127v-126z" />
    <glyph glyph-name="Umacron" unicode="&#x16a;" horiz-adv-x="728" 
d="M215 775l15 52h280l-15 -52h-280zM362 -12q-264 0 -264 265v268q0 23 -3.5 37t-17.5 22.5t-20.5 10.5t-33.5 7q-5 1 -8 2v30h324v-30q-51 -10 -64 -20q-19 -16 -19 -59v-285q0 -201 150 -201q21 0 40 3.5t42 15.5t39.5 31.5t28 55.5t11.5 83v297q0 23 -4 37t-17.5 22.5
t-21.5 10.5t-33 7q-2 1 -3 1t-3 0.5t-3 0.5v30h223v-30q-56 -10 -69 -20q-21 -16 -21 -59v-277q0 -256 -253 -256z" />
    <glyph glyph-name="umacron" unicode="&#x16b;" horiz-adv-x="578" 
d="M139 585l15 52h280l-15 -52h-280zM205 -9q-74 0 -104 44.5t-30 109.5v221q0 18 -8.5 27.5t-19 12.5t-33.5 7v27q135 -7 206 6v-295q0 -40 17.5 -60.5t47.5 -20.5q38 0 78 47v249q0 18 -8.5 27.5t-19 12.5t-33.5 7v27q135 -7 206 6v-350q0 -30 12.5 -44.5t53.5 -21.5v-30
h-191l6 80h-17q-38 -43 -74 -66t-89 -23z" />
    <glyph glyph-name="ubreve" unicode="&#x16d;" horiz-adv-x="578" 
d="M286 530q-70 0 -115 39t-45 110h33q17 -68 127 -68t127 68h33q0 -71 -45 -110t-115 -39zM205 -9q-74 0 -104 44.5t-30 109.5v221q0 18 -8.5 27.5t-19 12.5t-33.5 7v27q135 -7 206 6v-295q0 -40 17.5 -60.5t47.5 -20.5q38 0 78 47v249q0 18 -8.5 27.5t-19 12.5t-33.5 7v27
q135 -7 206 6v-350q0 -30 12.5 -44.5t53.5 -21.5v-30h-191l6 80h-17q-38 -43 -74 -66t-89 -23z" />
    <glyph glyph-name="Uring" unicode="&#x16e;" horiz-adv-x="728" 
d="M362 713q-43 0 -72 28.5t-29 69.5t29 69.5t72 28.5t72 -28.5t29 -69.5t-29 -69.5t-72 -28.5zM362 774q18 0 28.5 10t10.5 27t-10.5 27t-28.5 10t-28.5 -10t-10.5 -27t10.5 -27t28.5 -10zM362 -12q-264 0 -264 265v268q0 23 -3.5 37t-17.5 22.5t-20.5 10.5t-33.5 7
q-5 1 -8 2v30h324v-30q-51 -10 -64 -20q-19 -16 -19 -59v-285q0 -201 150 -201q21 0 40 3.5t42 15.5t39.5 31.5t28 55.5t11.5 83v297q0 23 -4 37t-17.5 22.5t-21.5 10.5t-33 7q-2 1 -3 1t-3 0.5t-3 0.5v30h223v-30q-56 -10 -69 -20q-21 -16 -21 -59v-277q0 -256 -253 -256z
" />
    <glyph glyph-name="uring" unicode="&#x16f;" horiz-adv-x="578" 
d="M286 523q-43 0 -72 28.5t-29 69.5t29 69.5t72 28.5t72 -28.5t29 -69.5t-29 -69.5t-72 -28.5zM286 584q18 0 28.5 10t10.5 27t-10.5 27t-28.5 10t-28.5 -10t-10.5 -27t10.5 -27t28.5 -10zM205 -9q-74 0 -104 44.5t-30 109.5v221q0 18 -8.5 27.5t-19 12.5t-33.5 7v27
q135 -7 206 6v-295q0 -40 17.5 -60.5t47.5 -20.5q38 0 78 47v249q0 18 -8.5 27.5t-19 12.5t-33.5 7v27q135 -7 206 6v-350q0 -30 12.5 -44.5t53.5 -21.5v-30h-191l6 80h-17q-38 -43 -74 -66t-89 -23z" />
    <glyph glyph-name="Uhungarumlaut" unicode="&#x170;" horiz-adv-x="728" 
d="M253 690l-37 22q17 81 69 154q28 0 57 -22t39 -51q-76 -48 -128 -103zM438 690l-37 22q17 81 69 154q28 0 57 -22t39 -51q-76 -48 -128 -103zM362 -12q-264 0 -264 265v268q0 23 -3.5 37t-17.5 22.5t-20.5 10.5t-33.5 7q-5 1 -8 2v30h324v-30q-51 -10 -64 -20
q-19 -16 -19 -59v-285q0 -201 150 -201q21 0 40 3.5t42 15.5t39.5 31.5t28 55.5t11.5 83v297q0 23 -4 37t-17.5 22.5t-21.5 10.5t-33 7q-2 1 -3 1t-3 0.5t-3 0.5v30h223v-30q-56 -10 -69 -20q-21 -16 -21 -59v-277q0 -256 -253 -256z" />
    <glyph glyph-name="uhungarumlaut" unicode="&#x171;" horiz-adv-x="578" 
d="M177 500l-37 22q17 81 69 154q28 0 57 -22t39 -51q-76 -48 -128 -103zM362 500l-37 22q17 81 69 154q28 0 57 -22t39 -51q-76 -48 -128 -103zM205 -9q-74 0 -104 44.5t-30 109.5v221q0 18 -8.5 27.5t-19 12.5t-33.5 7v27q135 -7 206 6v-295q0 -40 17.5 -60.5t47.5 -20.5
q38 0 78 47v249q0 18 -8.5 27.5t-19 12.5t-33.5 7v27q135 -7 206 6v-350q0 -30 12.5 -44.5t53.5 -21.5v-30h-191l6 80h-17q-38 -43 -74 -66t-89 -23z" />
    <glyph glyph-name="Uogonek" unicode="&#x172;" horiz-adv-x="725" 
d="M482 630h223v-30q-56 -10 -69 -20q-21 -16 -21 -59v-277q0 -201 -154 -244v-2q-74 -30 -74 -88q0 -26 15 -43t40 -17q15 0 31 6v-22q-37 -33 -91 -33q-43 0 -71.5 20.5t-28.5 66.5q0 35 19 58l71 42h-10q-264 0 -264 265v268q0 23 -3.5 37t-17.5 22.5t-20.5 10.5t-33.5 7
q-5 1 -8 2v30h324v-30q-51 -10 -64 -20q-19 -16 -19 -59v-285q0 -201 150 -201q21 0 40 3.5t42 15.5t39.5 31.5t28 55.5t11.5 83v297q0 23 -4 37t-17.5 22.5t-21.5 10.5t-33 7q-2 1 -3 1t-3 0.5t-3 0.5v30z" />
    <glyph glyph-name="uogonek" unicode="&#x173;" horiz-adv-x="578" 
d="M461 0q-74 -43 -74 -90q0 -26 15 -43t40 -17q15 0 31 6v-22q-37 -33 -91 -33q-43 0 -71.5 20.5t-28.5 66.5q0 35 19 58l81 54h-3l6 80h-17q-38 -43 -74 -66t-89 -23q-74 0 -104 44.5t-30 109.5v221q0 18 -8.5 27.5t-19 12.5t-33.5 7v27q135 -7 206 6v-295
q0 -40 17.5 -60.5t47.5 -20.5q38 0 78 47v249q0 18 -8.5 27.5t-19 12.5t-33.5 7v27q135 -7 206 6v-350q0 -30 12.5 -44.5t53.5 -21.5v-30h-109z" />
    <glyph glyph-name="Wcircumflex" unicode="&#x174;" horiz-adv-x="1023" 
d="M505 879l144 -150l-15 -18l-129 79l-129 -79l-15 20zM289 -8l-211 560q-12 32 -25.5 40.5t-57.5 16.5v22h317v-22q-50 -8 -60.5 -16.5t0.5 -40.5l124 -358l96 271q21 54 3.5 93.5t-75.5 49.5v22h234q0 -43 34 -136l106 -299l110 312q9 24 9.5 41t-3.5 27t-18 16.5
t-27.5 9.5t-39.5 7v22h225v-22q-32 -6 -42.5 -9.5t-21.5 -14t-19 -33.5l-202 -558h-58l-173 460l-167 -461h-58z" />
    <glyph glyph-name="wcircumflex" unicode="&#x175;" horiz-adv-x="803" 
d="M395 689l144 -150l-15 -18l-129 79l-129 -79l-15 20zM217 -6l-153 373q-11 26 -23 33t-46 10v30h269v-30q-46 -6 -54 -18q-6 -9 0 -25l82 -219l73 182q17 38 5 58q-11 18 -50 22v30h196q0 -40 18 -90l78 -203l65 165q13 32 15.5 51.5t-8 29t-24.5 12.5t-43 5v30h193v-30
q-34 -3 -46 -10t-23 -33l-154 -373h-51l-134 326l-134 -326h-51z" />
    <glyph glyph-name="Ycircumflex" unicode="&#x176;" horiz-adv-x="671" 
d="M329 790l-129 -79l-15 20l144 148l144 -150l-15 -18zM468 630h205v-30q-39 -8 -51 -16.5t-37 -45.5l-163 -258v-179q0 -25 4.5 -39t20.5 -22t26 -10.5t42 -7.5v-22h-343v22q59 10 73 21q20 15 20 58v160l-178 277q-24 37 -36 45.5t-51 16.5v30h322v-30q-7 -2 -25 -5
t-24 -5t-13.5 -8t-5 -17t13.5 -27l133 -212l131 212q10 17 11.5 27.5t-9 16.5t-19 8.5t-31.5 6.5q-11 2 -16 3v30z" />
    <glyph glyph-name="ycircumflex" unicode="&#x177;" horiz-adv-x="521" 
d="M257 600l-129 -79l-15 20l144 148l144 -150l-15 -18zM357 440h171v-30q-34 -4 -46.5 -11t-24.5 -35l-168 -389q-68 -159 -163 -159q-36 0 -71 23v83q71 -16 116.5 -8t68.5 55l-172 393q-13 29 -26 36.5t-47 11.5v30h273v-30q-44 -7 -51.5 -17.5t1.5 -30.5l96 -223l97 225
q4 9 4.5 15.5t-3 11.5t-6.5 7.5t-12 5t-13.5 3t-16.5 2.5q-5 1 -7 1v30z" />
    <glyph glyph-name="Ydieresis" unicode="&#x178;" horiz-adv-x="671" 
d="M222 740q-29 0 -50 21t-21 50q0 28 21 48.5t50 20.5q28 0 48.5 -20.5t20.5 -48.5q0 -29 -20.5 -50t-48.5 -21zM450 740q-29 0 -50 21t-21 50q0 28 21 48.5t50 20.5q28 0 48.5 -20.5t20.5 -48.5q0 -29 -20.5 -50t-48.5 -21zM468 630h205v-30q-39 -8 -51 -16.5t-37 -45.5
l-163 -258v-179q0 -25 4.5 -39t20.5 -22t26 -10.5t42 -7.5v-22h-343v22q59 10 73 21q20 15 20 58v160l-178 277q-24 37 -36 45.5t-51 16.5v30h322v-30q-7 -2 -25 -5t-24 -5t-13.5 -8t-5 -17t13.5 -27l133 -212l131 212q10 17 11.5 27.5t-9 16.5t-19 8.5t-31.5 6.5
q-11 2 -16 3v30z" />
    <glyph glyph-name="Zacute" unicode="&#x179;" horiz-adv-x="618" 
d="M311 690l-37 22q17 81 69 154q28 0 57 -22t39 -51q-76 -48 -128 -103zM26 0l-11 15l381 581l-177 -4q-72 -1 -100.5 -31t-33.5 -101h-33v176l67 -6h472l-390 -596l220 4q69 1 97 32t43 102h34q-19 -102 -19 -172h-550z" />
    <glyph glyph-name="zacute" unicode="&#x17a;" horiz-adv-x="483" 
d="M248 500l-37 22q17 81 69 154q28 0 57 -22t39 -51q-76 -48 -128 -103zM26 0l-11 15l267 386l-110 -3q-84 -1 -94 -103h-35v151l59 -6h362l-278 -401l120 3q60 1 86.5 27.5t41.5 78.5h36q-19 -81 -19 -148h-425z" />
    <glyph glyph-name="Zdotaccent" unicode="&#x17b;" horiz-adv-x="618" 
d="M304 683q-35 0 -60.5 25t-25.5 59t25.5 58t60.5 24t60.5 -24t25.5 -58t-25.5 -59t-60.5 -25zM26 0l-11 15l381 581l-177 -4q-72 -1 -100.5 -31t-33.5 -101h-33v176l67 -6h472l-390 -596l220 4q69 1 97 32t43 102h34q-19 -102 -19 -172h-550z" />
    <glyph glyph-name="zdotaccent" unicode="&#x17c;" horiz-adv-x="483" 
d="M241 493q-35 0 -60.5 25t-25.5 59t25.5 58t60.5 24t60.5 -24t25.5 -58t-25.5 -59t-60.5 -25zM26 0l-11 15l267 386l-110 -3q-84 -1 -94 -103h-35v151l59 -6h362l-278 -401l120 3q60 1 86.5 27.5t41.5 78.5h36q-19 -81 -19 -148h-425z" />
    <glyph glyph-name="Zcaron" unicode="&#x17d;" horiz-adv-x="618" 
d="M302 709l-144 148l15 20l129 -79l129 79l15 -18zM26 0l-11 15l381 581l-177 -4q-72 -1 -100.5 -31t-33.5 -101h-33v176l67 -6h472l-390 -596l220 4q69 1 97 32t43 102h34q-19 -102 -19 -172h-550z" />
    <glyph glyph-name="zcaron" unicode="&#x17e;" horiz-adv-x="483" 
d="M239 519l-144 148l15 20l129 -79l129 79l15 -18zM26 0l-11 15l267 386l-110 -3q-84 -1 -94 -103h-35v151l59 -6h362l-278 -401l120 3q60 1 86.5 27.5t41.5 78.5h36q-19 -81 -19 -148h-425z" />
    <glyph glyph-name="florin" unicode="&#x192;" horiz-adv-x="655" 
d="M608 685q109 0 127 -74q-2 -29 -37.5 -50.5t-77.5 -23.5q-4 27 -9.5 45t-18.5 34.5t-33 16.5q-66 0 -80 -109l-10 -82l128 13q-5 -27 -5 -59h-128l-37 -312q-10 -81 -58.5 -142t-109.5 -89t-122 -28q-109 0 -127 74q2 29 37.5 50.5t77.5 23.5q4 -27 9.5 -45t18.5 -34.5
t33 -16.5q66 0 80 109l49 410h-70v29l75 15q12 78 60.5 135.5t108 83.5t119.5 26z" />
    <glyph glyph-name="uni0218" unicode="&#x218;" horiz-adv-x="545" 
d="M262 -12q-135 0 -219 63l-8 132h33q21 -72 69 -113t115 -41q54 0 85 28.5t31 73.5q0 39 -29.5 69t-95.5 58q-42 18 -71.5 34.5t-61.5 42t-48.5 60t-16.5 76.5q0 82 62 128.5t170 46.5q17 0 33.5 -1.5t31.5 -4.5t27 -5.5t24.5 -7.5t20.5 -8t18.5 -9t15 -8.5t13.5 -8
t10 -6.5l3 -134h-31q-21 73 -57 112.5t-98 39.5q-52 0 -77 -26t-25 -62q0 -32 22.5 -55.5t87.5 -51.5q38 -17 58 -26t56 -31.5t55.5 -44t35.5 -55t16 -71.5q0 -87 -70.5 -140.5t-184.5 -53.5zM178 -371l-9 31q82 25 99 82q6 33 -17 48q-48 27 -48 73q0 32 23.5 55.5
t59.5 23.5q35 0 59 -27t24 -74q0 -71 -52.5 -134t-138.5 -78z" />
    <glyph glyph-name="uni0219" unicode="&#x219;" horiz-adv-x="405" 
d="M181 -9q-85 0 -154 40l-2 96h46q18 -48 45 -73t77 -25q72 0 72 54q0 26 -20 42.5t-69 32.5q-29 10 -51.5 20.5t-47.5 28.5t-38.5 45t-13.5 61q0 65 50 100.5t132 35.5q69 0 139 -38l1 -95h-46q-28 95 -103 95q-29 0 -45.5 -12.5t-16.5 -34.5q0 -44 81 -72
q35 -12 58.5 -22.5t51 -29.5t41.5 -46t14 -62q0 -71 -56 -106t-145 -35zM106 -371l-9 31q82 25 99 82q6 33 -17 48q-48 27 -48 73q0 32 23.5 55.5t59.5 23.5q35 0 59 -27t24 -74q0 -71 -52.5 -134t-138.5 -78z" />
    <glyph glyph-name="uni021A" unicode="&#x21a;" horiz-adv-x="599" 
d="M578 640l8 -182h-29q-11 68 -41.5 99t-106.5 31h-29v-479q0 -24 4.5 -38.5t20 -22.5t24 -10.5t38.5 -7.5v-30h-331v30q54 10 67 20q20 16 20 59v479h-28q-78 0 -109 -31t-42 -99h-29l8 182l59 -10h437zM314 -58q35 0 59 -27t24 -74q0 -71 -52.5 -134t-138.5 -78l-9 31
q82 25 99 82q6 33 -17 48q-48 27 -48 73q0 32 23.5 55.5t59.5 23.5z" />
    <glyph glyph-name="uni021B" unicode="&#x21b;" horiz-adv-x="412" 
d="M241 118q0 -81 129 -36v-30q-83 -43 -174 -62q-46 0 -73 24.5t-27 58.5v323h-86v34q105 35 193 105h38v-98l132 12q-5 -28 -5 -53h-127v-278zM203 -58q35 0 59 -27t24 -74q0 -71 -52.5 -134t-138.5 -78l-9 31q82 25 99 82q6 33 -17 48q-48 27 -48 73q0 32 23.5 55.5
t59.5 23.5z" />
    <glyph glyph-name="uni0237" unicode="&#x237;" horiz-adv-x="265" 
d="M-11 -185q-8 17 0 34q54 17 70 42.5t16 96.5v319q0 30 -12.5 44t-53.5 19v28q134 21 190 58l21 -19v-454q0 -42 -24.5 -74.5t-64 -51t-73.5 -28t-69 -14.5z" />
    <glyph glyph-name="circumflex" unicode="&#x2c6;" horiz-adv-x="296" 
d="M142 689l144 -150l-15 -18l-129 79l-129 -79l-15 20z" />
    <glyph glyph-name="caron" unicode="&#x2c7;" horiz-adv-x="284" 
d="M142 519l-144 148l15 20l129 -79l129 79l15 -18z" />
    <glyph glyph-name="breve" unicode="&#x2d8;" horiz-adv-x="316" 
d="M158 530q-70 0 -115 39t-45 110h33q17 -68 127 -68t127 68h33q0 -71 -45 -110t-115 -39z" />
    <glyph glyph-name="dotaccent" unicode="&#x2d9;" horiz-adv-x="168" 
d="M84 493q-35 0 -60.5 25t-25.5 59t25.5 58t60.5 24t60.5 -24t25.5 -58t-25.5 -59t-60.5 -25z" />
    <glyph glyph-name="ring" unicode="&#x2da;" horiz-adv-x="198" 
d="M99 523q-43 0 -72 28.5t-29 69.5t29 69.5t72 28.5t72 -28.5t29 -69.5t-29 -69.5t-72 -28.5zM99 584q18 0 28.5 10t10.5 27t-10.5 27t-28.5 10t-28.5 -10t-10.5 -27t10.5 -27t28.5 -10z" />
    <glyph glyph-name="ogonek" unicode="&#x2db;" horiz-adv-x="187" 
d="M98 -183q-43 0 -71.5 20.5t-28.5 66.5q0 35 19 58l160 107v-53q-74 -43 -74 -90q0 -26 15 -43t40 -17q15 0 31 6v-22q-37 -33 -91 -33z" />
    <glyph glyph-name="tilde" unicode="&#x2dc;" horiz-adv-x="382" 
d="M262 507q-40 0 -88.5 37.5t-85.5 37.5q-23 0 -40 -18t-17 -34h-31q-8 59 29 95.5t89 36.5q41 0 90.5 -37.5t85.5 -37.5q23 0 40 18t17 34h31q9 -59 -29 -95.5t-91 -36.5z" />
    <glyph glyph-name="hungarumlaut" unicode="&#x2dd;" horiz-adv-x="346" 
d="M35 500l-37 22q17 81 69 154q28 0 57 -22t39 -51q-76 -48 -128 -103zM220 500l-37 22q17 81 69 154q28 0 57 -22t39 -51q-76 -48 -128 -103z" />
    <glyph glyph-name="acutecomb" unicode="&#x301;" horiz-adv-x="0" 
d="M-135 500l-37 22q17 81 69 154q28 0 57 -22t39 -51q-76 -48 -128 -103z" />
    <glyph glyph-name="uni0326" unicode="&#x326;" horiz-adv-x="0" 
d="M-176 -371l-9 31q82 25 99 82q6 33 -17 48q-48 27 -48 73q0 32 23.5 55.5t59.5 23.5q35 0 59 -27t24 -74q0 -71 -52.5 -134t-138.5 -78z" />
    <glyph glyph-name="uni0394" unicode="&#x394;" horiz-adv-x="594" 
d="M-5 0l302 634l302 -634h-604zM91 117h318l-156 355z" />
    <glyph glyph-name="uni03A9" unicode="&#x3a9;" horiz-adv-x="742" 
d="M687 132h20l-36 -132h-232v103q37 18 67 85.5t30 146.5q0 117 -43 187.5t-122 70.5t-122 -70.5t-43 -187.5q0 -79 30 -146.5t67 -85.5v-103h-232l-36 132h20q15 -20 38.5 -24.5t83.5 -4.5q-60 53 -84 84q-54 72 -54 158q0 128 94.5 210t237.5 82t237.5 -82t94.5 -210
q0 -43 -12 -81t-36.5 -69t-39.5 -46.5t-42 -38.5q-5 -5 -8 -7q60 0 83.5 4.5t38.5 24.5z" />
    <glyph glyph-name="uni03BC" unicode="&#x3bc;" horiz-adv-x="580" 
d="M504 96q0 -30 12.5 -44.5t53.5 -21.5v-30h-191l6 80h-17q-38 -43 -74 -66t-89 -23q-23 0 -39 4q5 -42 16.5 -68.5t20.5 -38.5t9 -21q0 -35 -33 -55.5t-66.5 -9t-33.5 52.5v226q-8 28 -8 64v221q0 18 -8.5 27.5t-19 12.5t-33.5 7v27q135 -7 206 6v-295q0 -40 17.5 -60.5
t47.5 -20.5q38 0 78 47v249q0 18 -8.5 27.5t-19 12.5t-33.5 7v27q135 -7 206 6v-350z" />
    <glyph glyph-name="pi" unicode="&#x3c0;" horiz-adv-x="764" 
d="M684 134q47 0 47 -48q0 -50 -43.5 -73t-95.5 -23q-62 0 -113 34t-51 106v214h-95v-215q0 -65 -45.5 -100t-105.5 -35q-52 0 -85 12l-8 40q42 -10 70.5 10.5t28.5 72.5v215h-36q-83 0 -65 -73l-38 21q-16 41 -14.5 76t32 59t84.5 24h516v-107h-94v-217q0 -77 34 -77
q9 0 17 13t13 29t17 29t30 13z" />
    <glyph glyph-name="Wgrave" unicode="&#x1e80;" horiz-adv-x="1023" 
d="M525 690q-52 55 -128 103q10 29 39 51t57 22q52 -73 69 -154zM289 -8l-211 560q-12 32 -25.5 40.5t-57.5 16.5v22h317v-22q-50 -8 -60.5 -16.5t0.5 -40.5l124 -358l96 271q21 54 3.5 93.5t-75.5 49.5v22h234q0 -43 34 -136l106 -299l110 312q9 24 9.5 41t-3.5 27
t-18 16.5t-27.5 9.5t-39.5 7v22h225v-22q-32 -6 -42.5 -9.5t-21.5 -14t-19 -33.5l-202 -558h-58l-173 460l-167 -461h-58z" />
    <glyph glyph-name="wgrave" unicode="&#x1e81;" horiz-adv-x="803" 
d="M415 500q-52 55 -128 103q10 29 39 51t57 22q52 -73 69 -154zM217 -6l-153 373q-11 26 -23 33t-46 10v30h269v-30q-46 -6 -54 -18q-6 -9 0 -25l82 -219l73 182q17 38 5 58q-11 18 -50 22v30h196q0 -40 18 -90l78 -203l65 165q13 32 15.5 51.5t-8 29t-24.5 12.5t-43 5v30
h193v-30q-34 -3 -46 -10t-23 -33l-154 -373h-51l-134 326l-134 -326h-51z" />
    <glyph glyph-name="Wacute" unicode="&#x1e82;" horiz-adv-x="1023" 
d="M518 690l-37 22q17 81 69 154q28 0 57 -22t39 -51q-76 -48 -128 -103zM289 -8l-211 560q-12 32 -25.5 40.5t-57.5 16.5v22h317v-22q-50 -8 -60.5 -16.5t0.5 -40.5l124 -358l96 271q21 54 3.5 93.5t-75.5 49.5v22h234q0 -43 34 -136l106 -299l110 312q9 24 9.5 41t-3.5 27
t-18 16.5t-27.5 9.5t-39.5 7v22h225v-22q-32 -6 -42.5 -9.5t-21.5 -14t-19 -33.5l-202 -558h-58l-173 460l-167 -461h-58z" />
    <glyph glyph-name="wacute" unicode="&#x1e83;" horiz-adv-x="803" 
d="M408 500l-37 22q17 81 69 154q28 0 57 -22t39 -51q-76 -48 -128 -103zM217 -6l-153 373q-11 26 -23 33t-46 10v30h269v-30q-46 -6 -54 -18q-6 -9 0 -25l82 -219l73 182q17 38 5 58q-11 18 -50 22v30h196q0 -40 18 -90l78 -203l65 165q13 32 15.5 51.5t-8 29t-24.5 12.5
t-43 5v30h193v-30q-34 -3 -46 -10t-23 -33l-154 -373h-51l-134 326l-134 -326h-51z" />
    <glyph glyph-name="Wdieresis" unicode="&#x1e84;" horiz-adv-x="1023" 
d="M398 740q-29 0 -50 21t-21 50q0 28 21 48.5t50 20.5q28 0 48.5 -20.5t20.5 -48.5q0 -29 -20.5 -50t-48.5 -21zM626 740q-29 0 -50 21t-21 50q0 28 21 48.5t50 20.5q28 0 48.5 -20.5t20.5 -48.5q0 -29 -20.5 -50t-48.5 -21zM289 -8l-211 560q-12 32 -25.5 40.5t-57.5 16.5
v22h317v-22q-50 -8 -60.5 -16.5t0.5 -40.5l124 -358l96 271q21 54 3.5 93.5t-75.5 49.5v22h234q0 -43 34 -136l106 -299l110 312q9 24 9.5 41t-3.5 27t-18 16.5t-27.5 9.5t-39.5 7v22h225v-22q-32 -6 -42.5 -9.5t-21.5 -14t-19 -33.5l-202 -558h-58l-173 460l-167 -461h-58z
" />
    <glyph glyph-name="wdieresis" unicode="&#x1e85;" horiz-adv-x="803" 
d="M288 550q-29 0 -50 21t-21 50q0 28 21 48.5t50 20.5q28 0 48.5 -20.5t20.5 -48.5q0 -29 -20.5 -50t-48.5 -21zM516 550q-29 0 -50 21t-21 50q0 28 21 48.5t50 20.5q28 0 48.5 -20.5t20.5 -48.5q0 -29 -20.5 -50t-48.5 -21zM217 -6l-153 373q-11 26 -23 33t-46 10v30h269
v-30q-46 -6 -54 -18q-6 -9 0 -25l82 -219l73 182q17 38 5 58q-11 18 -50 22v30h196q0 -40 18 -90l78 -203l65 165q13 32 15.5 51.5t-8 29t-24.5 12.5t-43 5v30h193v-30q-34 -3 -46 -10t-23 -33l-154 -373h-51l-134 326l-134 -326h-51z" />
    <glyph glyph-name="uni1E9E" unicode="&#x1e9e;" horiz-adv-x="773" 
d="M555 350q84 -13 136 -57.5t52 -117.5q0 -83 -66.5 -139t-174.5 -56q-84 0 -140 32q-2 55 -17 122h34q27 -67 53.5 -90.5t62.5 -23.5q51 0 76.5 32.5t25.5 87.5q0 87 -61 132.5t-170 45.5l153 255q-31 16 -89 16q-34 0 -61 -7.5t-54.5 -28t-43 -66t-15.5 -112.5v-266
q0 -29 8 -45.5t17 -21t29 -10.5q5 -1 7 -2v-30h-302v30q51 10 64 20q19 16 19 59v249q0 279 279 279q133 0 313 -62z" />
    <glyph glyph-name="uni1EBC" unicode="&#x1ebc;" horiz-adv-x="605" 
d="M134 720h-31q-8 59 29 95.5t89 36.5q41 0 90.5 -37.5t85.5 -37.5q23 0 40 18t17 34h31q9 -59 -29 -95.5t-91 -36.5q-40 0 -88.5 37.5t-85.5 37.5q-23 0 -40 -18t-17 -34zM550 158h35l-41 -158h-529v30q51 10 64 20q19 16 19 59v412q0 23 -3.5 37t-17.5 22.5t-20.5 10.5
t-33.5 7q-5 1 -8 2v30h527l9 -150h-35q-7 57 -27 81.5t-71 24.5h-69q-59 0 -76.5 -13t-17.5 -63v-171h57q86 0 110 17t29 67h29v-210h-29q-5 50 -29 67t-110 17h-57v-177q0 -50 17.5 -63t76.5 -13h48q59 0 92 24.5t61 89.5z" />
    <glyph glyph-name="uni1EBD" unicode="&#x1ebd;" horiz-adv-x="494" 
d="M77 530h-31q-8 59 29 95.5t89 36.5q41 0 90.5 -37.5t85.5 -37.5q23 0 40 18t17 34h31q9 -59 -29 -95.5t-91 -36.5q-40 0 -88.5 37.5t-85.5 37.5q-23 0 -40 -18t-17 -34zM329 71q33 0 63.5 11.5t45.5 30.5l21 -17q-18 -49 -68.5 -77t-121.5 -28q-108 0 -176 62t-68 166
q0 105 70.5 167.5t169.5 62.5q56 0 100.5 -21t67.5 -53.5t31 -72t-10 -75.5h-278q9 -73 49.5 -114.5t103.5 -41.5zM257 408q-37 0 -60.5 -35.5t-23.5 -104.5h147q11 56 -5.5 98t-57.5 42z" />
    <glyph glyph-name="Ygrave" unicode="&#x1ef2;" horiz-adv-x="671" 
d="M349 690q-52 55 -128 103q10 29 39 51t57 22q52 -73 69 -154zM468 630h205v-30q-39 -8 -51 -16.5t-37 -45.5l-163 -258v-179q0 -25 4.5 -39t20.5 -22t26 -10.5t42 -7.5v-22h-343v22q59 10 73 21q20 15 20 58v160l-178 277q-24 37 -36 45.5t-51 16.5v30h322v-30
q-7 -2 -25 -5t-24 -5t-13.5 -8t-5 -17t13.5 -27l133 -212l131 212q10 17 11.5 27.5t-9 16.5t-19 8.5t-31.5 6.5q-11 2 -16 3v30z" />
    <glyph glyph-name="ygrave" unicode="&#x1ef3;" horiz-adv-x="521" 
d="M277 500q-52 55 -128 103q10 29 39 51t57 22q52 -73 69 -154zM357 440h171v-30q-34 -4 -46.5 -11t-24.5 -35l-168 -389q-68 -159 -163 -159q-36 0 -71 23v83q71 -16 116.5 -8t68.5 55l-172 393q-13 29 -26 36.5t-47 11.5v30h273v-30q-44 -7 -51.5 -17.5t1.5 -30.5
l96 -223l97 225q4 9 4.5 15.5t-3 11.5t-6.5 7.5t-12 5t-13.5 3t-16.5 2.5q-5 1 -7 1v30z" />
    <glyph glyph-name="endash" unicode="&#x2013;" horiz-adv-x="641" 
d="M38 230v67h565v-67h-565z" />
    <glyph glyph-name="emdash" unicode="&#x2014;" horiz-adv-x="895" 
d="M38 230v67h819v-67h-819z" />
    <glyph glyph-name="uni2015" unicode="&#x2015;" horiz-adv-x="895" 
d="M38 230v67h819v-67h-819z" />
    <glyph glyph-name="quoteleft" unicode="&#x2018;" horiz-adv-x="256" 
d="M222 645l9 -31q-82 -25 -99 -82q-6 -33 17 -48q48 -27 48 -73q0 -32 -23.5 -55.5t-59.5 -23.5q-35 0 -59 27t-24 74q0 71 52.5 134t138.5 78z" />
    <glyph glyph-name="quoteright" unicode="&#x2019;" horiz-adv-x="256" 
d="M34 334l-9 31q82 25 99 82q6 33 -17 48q-48 27 -48 73q0 32 23.5 55.5t59.5 23.5q35 0 59 -27t24 -74q0 -71 -52.5 -134t-138.5 -78z" />
    <glyph glyph-name="quotesinglbase" unicode="&#x201a;" horiz-adv-x="256" 
d="M34 -158l-9 31q82 25 99 82q6 33 -17 48q-48 27 -48 73q0 32 23.5 55.5t59.5 23.5q35 0 59 -27t24 -74q0 -71 -52.5 -134t-138.5 -78z" />
    <glyph glyph-name="quotedblleft" unicode="&#x201c;" horiz-adv-x="491" 
d="M222 645l9 -31q-82 -25 -99 -82q-6 -33 17 -48q48 -27 48 -73q0 -32 -23.5 -55.5t-59.5 -23.5q-35 0 -59 27t-24 74q0 71 52.5 134t138.5 78zM457 645l9 -31q-82 -25 -99 -82q-6 -33 17 -48q48 -27 48 -73q0 -32 -23.5 -55.5t-59.5 -23.5q-35 0 -59 27t-24 74
q0 71 52.5 134t138.5 78z" />
    <glyph glyph-name="quotedblright" unicode="&#x201d;" horiz-adv-x="491" 
d="M34 334l-9 31q82 25 99 82q6 33 -17 48q-48 27 -48 73q0 32 23.5 55.5t59.5 23.5q35 0 59 -27t24 -74q0 -71 -52.5 -134t-138.5 -78zM269 334l-9 31q82 25 99 82q6 33 -17 48q-48 27 -48 73q0 32 23.5 55.5t59.5 23.5q35 0 59 -27t24 -74q0 -71 -52.5 -134t-138.5 -78z
" />
    <glyph glyph-name="quotedblbase" unicode="&#x201e;" horiz-adv-x="491" 
d="M34 -153l-9 31q82 25 99 82q6 33 -17 48q-48 27 -48 73q0 32 23.5 55.5t59.5 23.5q35 0 59 -27t24 -74q0 -71 -52.5 -134t-138.5 -78zM269 -153l-9 31q82 25 99 82q6 33 -17 48q-48 27 -48 73q0 32 23.5 55.5t59.5 23.5q35 0 59 -27t24 -74q0 -71 -52.5 -134t-138.5 -78z
" />
    <glyph glyph-name="dagger" unicode="&#x2020;" horiz-adv-x="538" 
d="M259 2l-55 325l51 68v50q-27 1 -62 -22t-55 -23q-32 0 -51 16t-19 42t19 42t51 16q20 0 55 -23.5t62 -23.5q-1 32 -25.5 66.5t-24.5 51.5q0 28 17 46t47 18t47 -18t17 -46q0 -17 -24.5 -51.5t-25.5 -66.5q27 0 62 23.5t55 23.5q32 0 51 -16t19 -42t-19 -42t-51 -16
q-20 0 -55 23t-62 22v-50l51 -68l-55 -325h-20z" />
    <glyph glyph-name="daggerdbl" unicode="&#x2021;" horiz-adv-x="540" 
d="M269 -27q-30 0 -47 18t-17 46q0 17 24.5 51.5t25.5 66.5q-27 0 -62 -23.5t-55 -23.5q-32 0 -51 16t-19 42t19 42t51 16q20 0 55 -23t62 -22v50l-51 88l51 78v50q-27 1 -62 -22t-55 -23q-32 0 -51 16t-19 42t19 42t51 16q20 0 55 -23.5t62 -23.5q-1 32 -25.5 66.5
t-24.5 51.5q0 28 17 46t47 18t47 -18t17 -46q0 -17 -24.5 -51.5t-25.5 -66.5q27 0 62 23.5t55 23.5q32 0 51 -16t19 -42t-19 -42t-51 -16q-20 0 -55 23t-62 22v-50l51 -78l-51 -88v-50q27 -1 62 22t55 23q32 0 51 -16t19 -42t-19 -42t-51 -16q-20 0 -55 23.5t-62 23.5
q1 -32 25.5 -66.5t24.5 -51.5q0 -28 -17 -46t-47 -18z" />
    <glyph glyph-name="bullet" unicode="&#x2022;" horiz-adv-x="404" 
d="M202 73q-64 0 -109 44.5t-45 109.5t45 109.5t109 44.5t109 -44.5t45 -109.5t-45 -109.5t-109 -44.5z" />
    <glyph glyph-name="ellipsis" unicode="&#x2026;" horiz-adv-x="706" 
d="M118 -10q-35 0 -59 24.5t-24 59.5q0 33 24.5 57t58.5 24q33 0 57 -24t24 -57q0 -35 -24 -59.5t-57 -24.5zM351 -10q-35 0 -59 24.5t-24 59.5q0 33 24.5 57t58.5 24q33 0 57 -24t24 -57q0 -35 -24 -59.5t-57 -24.5zM584 -10q-35 0 -59 24.5t-24 59.5q0 33 24.5 57t58.5 24
q33 0 57 -24t24 -57q0 -35 -24 -59.5t-57 -24.5z" />
    <glyph glyph-name="perthousand" unicode="&#x2030;" horiz-adv-x="1025" 
d="M536 630h69l-447 -630h-61l390 544q-73 -46 -171 -6q1 -6 1 -17q0 -77 -48 -137.5t-120 -60.5q-51 0 -81 32.5t-30 85.5q0 75 52 134t125 59q46 0 73 -27q43 -27 71 -38.5t59 -13.5t59 17t59 58zM173 360q41 0 72 53t31 106q0 35 -16.5 56.5t-40.5 21.5q-41 0 -68 -54.5
t-27 -107.5q0 -33 13 -54t36 -21zM569 309q49 0 75.5 -30t26.5 -83q0 -77 -48 -137.5t-120 -60.5q-51 0 -81 32.5t-30 85.5q0 75 52 134t125 59zM885 309q49 0 75.5 -30t26.5 -83q0 -77 -48 -137.5t-120 -60.5q-51 0 -81 32.5t-30 85.5q0 75 52 134t125 59zM527 35
q41 0 72 53t31 106q0 35 -16.5 56.5t-40.5 21.5q-41 0 -68 -54.5t-27 -107.5q0 -33 13 -54t36 -21zM843 35q41 0 72 53t31 106q0 35 -16.5 56.5t-40.5 21.5q-41 0 -68 -54.5t-27 -107.5q0 -33 13 -54t36 -21z" />
    <glyph glyph-name="guilsinglleft" unicode="&#x2039;" horiz-adv-x="244" 
d="M38 219l148 144l20 -15l-79 -129l79 -129l-18 -15z" />
    <glyph glyph-name="guilsinglright" unicode="&#x203a;" horiz-adv-x="244" 
d="M226 219l-150 -144l-18 15l79 129l-79 129l20 15z" />
    <glyph glyph-name="fraction" unicode="&#x2044;" horiz-adv-x="86" 
d="M-187 -5l432 641h28l-432 -641h-28z" />
    <glyph glyph-name="Euro" unicode="&#x20ac;" horiz-adv-x="776" 
d="M712 99l26 -27q-32 -36 -97.5 -60t-149.5 -24q-121 0 -207 59t-118 155h-131l18 89h97q-1 6 -1 19q0 21 1 31h-87l18 89h89q37 99 127.5 157.5t211.5 58.5q120 0 197 -46q4 -91 7 -135h-46q-31 137 -165 137q-151 0 -181 -172h184l-18 -89h-172q2 -34 4 -50h158l-18 -89
h-116q30 -72 88 -113.5t134 -41.5q99 0 147 52z" />
    <glyph glyph-name="uni210D" unicode="&#x210d;" horiz-adv-x="750" 
d="M735 600q-51 -10 -64 -20q-19 -16 -19 -59v-412q0 -23 3.5 -37t17.5 -22.5t20.5 -10.5t33.5 -7q5 -1 8 -2v-30h-720v30q51 10 64 20q19 16 19 59v412q0 23 -3.5 37t-17.5 22.5t-20.5 10.5t-33.5 7q-5 1 -8 2v30h720v-30zM495 521q0 57 -40 69q-29 -13 -29 -69v-187h69
v187zM255 334h54v187q0 52 -23 66q-31 -14 -31 -66v-187zM286 43q23 14 23 66v183h-54v-183q0 -52 31 -66zM455 40q40 12 40 69v183h-69v-183q0 -56 29 -69z" />
    <glyph glyph-name="trademark" unicode="&#x2122;" horiz-adv-x="863" 
d="M80 299v20q20 5 27.5 7.5t14.5 12t7 27.5v238h-17q-37 0 -52.5 -18.5t-23.5 -55.5h-18l6 100h300l5 -100h-20q-5 35 -21 54.5t-50 19.5h-19l1 -238q0 -25 10 -33t37 -14v-20h-187zM378 299v20q16 4 21.5 5.5t14.5 6.5t12 13.5t3 21.5v196q0 14 -2.5 23t-12 13.5t-13.5 6
t-21 4.5v21h140l93 -206l82 206h148v-21q-2 0 -5 -1q-17 -3 -24 -6t-13 -12.5t-6 -27.5l-1 -196q0 -13 3 -21.5t12 -13.5t14.5 -6.5t21.5 -5.5v-20h-187v20q19 4 26.5 7t14 12.5t6.5 27.5l-2 213l-113 -280h-16l-117 258l3 -191q0 -26 9.5 -33.5t38.5 -13.5v-20h-130z" />
    <glyph glyph-name="oneeighth" unicode="&#x215b;" horiz-adv-x="544" 
d="M145 408v-10h-125v10q22 2 30 6t8 16v165q0 11 -4 14.5t-12 1.5l-20 -5v11l77 33l8 -6v-214q0 -12 8 -16t30 -6zM423 636h28l-432 -641h-28zM447 132q54 -23 54 -67q0 -33 -28.5 -54t-73.5 -21q-42 0 -69.5 19t-27.5 51q0 41 44 63q-28 22 -28 54q0 28 23.5 47.5
t60.5 19.5q35 0 56.5 -18t21.5 -42q0 -29 -33 -52zM402 227q-22 0 -32.5 -10.5t-10.5 -25.5q0 -28 43 -43l26 -9q21 17 21 44q0 18 -11.5 31t-35.5 13zM402 7q52 0 52 43q0 17 -10 26t-39 20l-27 10q-10 3 -15 7q-29 -19 -29 -50q0 -25 18 -40.5t50 -15.5z" />
    <glyph glyph-name="threeeighths" unicode="&#x215c;" horiz-adv-x="698" 
d="M213 470q0 -37 -34 -61.5t-82 -24.5q-27 0 -48 7.5t-21 22.5t17 15q9 0 25.5 -15.5t33.5 -15.5q23 0 42 16.5t19 44.5q0 27 -18 40.5t-45 13.5q-17 0 -36 -7l-5 12l31 12q32 12 45.5 22.5t13.5 28.5q0 32 -41 32t-64 -27l-10 8q32 47 92 47q29 0 47.5 -14t18.5 -37
q0 -33 -56 -58q31 -2 53 -17t22 -45zM518 636h28l-432 -641h-28zM616 132q54 -23 54 -67q0 -33 -28.5 -54t-73.5 -21q-42 0 -69.5 19t-27.5 51q0 41 44 63q-28 22 -28 54q0 28 23.5 47.5t60.5 19.5q35 0 56.5 -18t21.5 -42q0 -29 -33 -52zM571 227q-22 0 -32.5 -10.5
t-10.5 -25.5q0 -28 43 -43l26 -9q21 17 21 44q0 18 -11.5 31t-35.5 13zM571 7q52 0 52 43q0 17 -10 26t-39 20l-27 10q-10 3 -15 7q-29 -19 -29 -50q0 -25 18 -40.5t50 -15.5z" />
    <glyph glyph-name="fiveeighths" unicode="&#x215d;" horiz-adv-x="703" 
d="M214 481q0 -39 -34 -65t-83 -26q-25 0 -47 7.5t-22 22.5t17 15q9 0 26 -15.5t35 -15.5q23 0 41 16.5t18 43.5q0 63 -113 56l-7 8l39 112h67q39 0 48 12h9l-17 -49h-102l-17 -50q82 5 112 -18t30 -54zM526 636h28l-432 -641h-28zM624 132q54 -23 54 -67q0 -33 -28.5 -54
t-73.5 -21q-42 0 -69.5 19t-27.5 51q0 41 44 63q-28 22 -28 54q0 28 23.5 47.5t60.5 19.5q35 0 56.5 -18t21.5 -42q0 -29 -33 -52zM579 227q-22 0 -32.5 -10.5t-10.5 -25.5q0 -28 43 -43l26 -9q21 17 21 44q0 18 -11.5 31t-35.5 13zM579 7q52 0 52 43q0 17 -10 26t-39 20
l-27 10q-10 3 -15 7q-29 -19 -29 -50q0 -25 18 -40.5t50 -15.5z" />
    <glyph glyph-name="seveneighths" unicode="&#x215e;" horiz-adv-x="666" 
d="M97 398h-33q29 95 105 213h-83q-14 0 -20.5 -1.5t-14.5 -8t-14 -19.5h-9l21 66l18 -4h133l5 -6q-80 -122 -108 -240zM501 636h28l-432 -641h-28zM599 132q54 -23 54 -67q0 -33 -28.5 -54t-73.5 -21q-42 0 -69.5 19t-27.5 51q0 41 44 63q-28 22 -28 54q0 28 23.5 47.5
t60.5 19.5q35 0 56.5 -18t21.5 -42q0 -29 -33 -52zM554 227q-22 0 -32.5 -10.5t-10.5 -25.5q0 -28 43 -43l26 -9q21 17 21 44q0 18 -11.5 31t-35.5 13zM554 7q52 0 52 43q0 17 -10 26t-39 20l-27 10q-10 3 -15 7q-29 -19 -29 -50q0 -25 18 -40.5t50 -15.5z" />
    <glyph glyph-name="partialdiff" unicode="&#x2202;" horiz-adv-x="563" 
d="M290 -12q-114 0 -184.5 65t-70.5 161q0 49 20 89.5t52.5 65t71.5 37t78.5 9t71.5 -21.5v-33q-74 17 -112 -29.5t-38 -137.5q0 -167 100 -167q111 0 111 214q0 167 -72.5 258.5t-180.5 101.5l19 37q67 -4 134 -32t122.5 -75.5t90.5 -119t35 -153.5q1 -119 -63 -194
t-185 -75z" />
    <glyph glyph-name="emptyset" unicode="&#x2205;" horiz-adv-x="514" 
d="M487 419l-54 -53q53 -64 53 -146q0 -95 -66.5 -162t-161.5 -67q-83 0 -147 54l-55 -55l-30 31l55 55q-51 62 -51 144q0 94 67 161t161 67q82 0 144 -51l55 54zM77 220q0 -63 37 -111l256 255q-50 37 -112 37q-76 0 -128.5 -52.5t-52.5 -128.5zM439 220q0 64 -38 113
l-257 -255q50 -40 114 -40q76 0 128.5 53t52.5 129z" />
    <glyph glyph-name="product" unicode="&#x220f;" horiz-adv-x="644" 
d="M586 800v-1000h-99v901h-330v-901h-99v1000h528z" />
    <glyph glyph-name="summation" unicode="&#x2211;" horiz-adv-x="546" 
d="M488 800v-99h-301l281 -402l-281 -400h301v-99h-430v99l290 401l-290 401v99h430z" />
    <glyph glyph-name="minus" unicode="&#x2212;" horiz-adv-x="486" 
d="M58 202v99h370v-99h-370z" />
    <glyph glyph-name="radical" unicode="&#x221a;" horiz-adv-x="813" 
d="M277 -200l-153 323q-20 40 -38 55t-58 30v43h171l148 -331l339 881h129v-54q-46 -12 -69.5 -32t-44.5 -75l-321 -840h-103z" />
    <glyph glyph-name="infinity" unicode="&#x221e;" horiz-adv-x="678" 
d="M208 29q-76 0 -128 65.5t-52 160.5q0 87 46.5 143.5t111.5 56.5q79 0 134 -88q64 90 152 90q76 0 127 -65t51 -161q0 -87 -46 -143.5t-110 -56.5q-79 0 -134 88q-62 -90 -152 -90zM164 149q64 0 95 79l35 93q-43 51 -104 51q-47 0 -80 -29.5t-33 -88.5q0 -53 24.5 -79
t62.5 -26zM490 114q47 0 80 29.5t33 88.5q0 53 -24.5 79t-62.5 26q-65 0 -95 -81l-35 -91q43 -51 104 -51z" />
    <glyph glyph-name="integral" unicode="&#x222b;" horiz-adv-x="748" 
d="M137 -175q-109 0 -127 74q2 29 37.5 50.5t77.5 23.5q16 -98 61 -98q66 0 80 111l53 444q15 119 103 187t186 68q109 0 127 -74q-2 -29 -37.5 -50.5t-77.5 -23.5q-16 98 -61 98q-66 0 -80 -111l-52 -440q-10 -81 -58.5 -142t-109.5 -89t-122 -28z" />
    <glyph glyph-name="approxequal" unicode="&#x2248;" horiz-adv-x="588" 
d="M339 256q-47 0 -105.5 37.5t-102.5 37.5q-27 0 -47.5 -17.5t-20.5 -32.5h-26q-10 59 30 94.5t101 35.5q40 0 73.5 -18.5t66 -37.5t68.5 -19q28 0 49 17.5t21 32.5h26q10 -59 -30.5 -94.5t-102.5 -35.5zM339 86q-47 0 -105.5 37.5t-102.5 37.5q-27 0 -47.5 -17.5
t-20.5 -32.5h-26q-10 59 30 94.5t101 35.5q40 0 73.5 -18.5t66 -37.5t68.5 -19q28 0 49 17.5t21 32.5h26q10 -59 -30.5 -94.5t-102.5 -35.5z" />
    <glyph glyph-name="notequal" unicode="&#x2260;" horiz-adv-x="486" 
d="M428 292h-115l-34 -81h149v-99h-190l-47 -112h-103l47 112h-77v99h118l34 81h-152v99h193l44 105h103l-44 -105h74v-99z" />
    <glyph glyph-name="lessequal" unicode="&#x2264;" horiz-adv-x="496" 
d="M438 112q-159 86 -380 171v99q221 85 380 171v-118q-62 -31 -87.5 -42.5t-68 -26.5t-106.5 -33q91 -26 133.5 -43.5t128.5 -59.5v-118zM438 -19h-370v99h370v-99z" />
    <glyph glyph-name="greaterequal" unicode="&#x2265;" horiz-adv-x="496" 
d="M58 112v118q62 31 87.5 42.5t68 26.5t106.5 34q-91 26 -133.5 43t-128.5 59v118q159 -86 380 -171v-99q-221 -85 -380 -171zM58 -19v99h370v-99h-370z" />
    <glyph glyph-name="lozenge" unicode="&#x25ca;" horiz-adv-x="592" 
d="M296 -18l-258 328l258 329l258 -329zM296 66l188 244l-188 245l-188 -245z" />
    <glyph glyph-name="M.ss01" horiz-adv-x="871" 
d="M771 109q0 -23 4 -37t17.5 -22.5t21.5 -10.5t33 -7q6 -1 9 -2v-30h-323v30q28 5 36 7.5t22.5 10.5t18.5 22.5t4 38.5l-1 433l-213 -542h-30l-217 503v-394q0 -52 32 -66q12 -5 55 -13v-30h-225v30q53 10 66 20q21 17 21 59v412q0 23 -4 37t-17.5 22.5t-21 10.5t-32.5 7
q-6 1 -9 2v30h245q2 -13 31 -77l145 -338l131 338q25 66 27 77h256v-30q-51 -10 -63 -20q-19 -16 -19 -59v-412z" />
    <glyph glyph-name="W.ss01" horiz-adv-x="914" 
d="M726 630h193v-30q-42 -8 -55 -16.5t-27 -41.5l-234 -549h-52l-95 225l-96 -225h-47l-234 552q-8 17 -13 26t-18.5 15t-18.5 7t-34 7v30h681v-30q-42 -8 -55 -16.5t-27 -41.5l-53 -123l98 -234l148 359q4 9 5.5 16.5t-1.5 12.5t-5.5 8.5t-11.5 6.5l-13.5 4.5t-17 4
l-17.5 3.5v30zM398 191l34 83l-115 271q-23 54 -43 54q-6 0 -13 -4.5t-13 -16.5t3 -33zM516 599q-14 0 -26 -13t-1 -41l28 -67l27 66q12 28 -1 41.5t-27 13.5z" />
    <glyph glyph-name="i.loclTRK" horiz-adv-x="305" 
d="M147 493q-35 0 -60.5 25t-25.5 59t25.5 58t60.5 24t60.5 -24t25.5 -58t-25.5 -59t-60.5 -25zM15 0v30q39 8 52.5 17.5t13.5 40.5v219q0 30 -12.5 44t-53.5 19v28q134 21 190 58l21 -19v-349q0 -31 13.5 -40.5t52.5 -17.5v-30h-277z" />
    <glyph glyph-name="T_h" horiz-adv-x="1195" 
d="M1119 88q0 -31 13.5 -40.5t52.5 -17.5v-30h-266v30q22 6 31 9.5t16.5 15.5t7.5 33v192q0 89 -59 89q-45 0 -87 -50v-231q0 -21 7.5 -33t16.5 -15.5t31 -9.5v-30h-273v30q44 8 58.5 17.5t14.5 40.5v416q-7 43 -38.5 63.5t-104.5 20.5h-123v-479q0 -23 5 -37.5t15 -22
t24 -11.5t33 -7q5 0 8 -1v-30h-327v30q52 10 65 20q20 16 20 59v479h-64q-78 0 -108 -30.5t-41 -99.5h-29l8 182l59 -10h525q110 12 198 57l20 -19v-306q39 43 74.5 65t86.5 22q72 0 101 -45t29 -109v-207z" />
    <glyph glyph-name="f_b" horiz-adv-x="948" 
d="M734 449q74 0 131.5 -59.5t57.5 -159.5q0 -112 -74.5 -175.5t-188.5 -63.5q-111 0 -165 46.5t-54 121.5v383q0 41 -30.5 71.5t-87.5 30.5q-36 0 -62.5 -26t-26.5 -86v-86l108 12q-5 -28 -5 -59h-103v-311q0 -30 24 -41t81 -17v-30h-329v30q40 6 57.5 17t17.5 41v311h-75
v29l75 15q3 120 84 185t206 65q56 0 120.5 -10.5t90.5 -27.5v-304q23 42 61.5 70t86.5 28zM673 31q96 0 96 172q0 76 -23.5 124.5t-69.5 48.5q-53 0 -90 -69v-160q0 -43 20.5 -79.5t66.5 -36.5z" />
    <glyph glyph-name="f_h" horiz-adv-x="968" 
d="M902 88q0 -21 7.5 -33t17 -15.5t31.5 -9.5v-30h-258v30q23 6 32.5 9.5t17 15.5t7.5 33v192q0 94 -58 94q-49 0 -113 -54v-232q0 -31 14.5 -40.5t58.5 -17.5v-30h-291v30q44 8 58.5 17.5t14.5 40.5v454q0 41 -30 71.5t-88 30.5q-36 0 -62.5 -26t-26.5 -86v-86l108 12
q-5 -28 -5 -59h-103v-311q0 -30 24 -41t81 -17v-30h-329v30q40 6 57.5 17t17.5 41v311h-75v29l75 15q3 120 84 185t206 65q56 0 120.5 -10.5t90.5 -27.5v-300h4q81 94 179 94q51 0 82 -24.5t41 -56.5t10 -73v-207z" />
    <glyph glyph-name="f_j" horiz-adv-x="663" 
d="M618 587v-1q-1 -34 -26 -58.5t-60 -24.5t-60.5 25t-25.5 59v2v1q0 5 1 7q1 18 0.5 31.5t-14 21.5t-41.5 8q-17 0 -36 -5t-41 -18t-39.5 -33t-29.5 -54.5t-12 -77.5v-23l88 11q-5 -27 -5 -59h-83v-311q0 -30 24 -41t81 -17v-30h-329v30q40 6 57.5 17t17.5 41v311h-75v29
l75 15h1q4 65 35 116t78.5 80t99.5 44t104 15q118 0 178 -44q37 -24 37 -67zM398 398q134 21 190 58l21 -19v-454q0 -42 -24.5 -74.5t-64 -51t-73.5 -28t-69 -14.5q-8 17 0 34q47 15 66.5 51.5t19.5 102.5v304q0 30 -12.5 44t-53.5 19v28z" />
    <glyph glyph-name="f_k" horiz-adv-x="981" 
d="M886 66q13 -18 29.5 -24.5t57.5 -10.5v-31h-223q0 37 -18 61l-99 142l-47 -45v-70q0 -31 14.5 -40.5t58.5 -17.5v-30h-291v30q44 8 58.5 17.5t14.5 40.5v454q0 41 -30 71.5t-88 30.5q-36 0 -62.5 -26t-26.5 -86v-86l108 12q-5 -28 -5 -59h-103v-311q0 -30 24 -41t81 -17
v-30h-329v30q40 6 57.5 17t17.5 41v311h-75v29l75 15q3 120 84 185t206 65q56 0 120.5 -10.5t90.5 -27.5v-436l148 139q46 43 -36 51v31h218v-31q-32 -2 -57 -12t-38 -19.5t-36 -29.5l-58 -56z" />
    <glyph glyph-name="t_t" horiz-adv-x="762" 
d="M623 118q0 -81 129 -36v-30q-83 -43 -174 -62q-46 0 -73 24.5t-27 58.5v323h-237v-278q0 -25 12 -38t32 -12.5t41.5 6.5t43.5 18v-30q-64 -49 -174 -72q-46 0 -73 24.5t-27 58.5v323h-86v36q109 36 193 103h38v-105l151 -1v1q105 35 193 105h38v-98l132 12q-5 -28 -5 -53
h-127v-278z" />
    <glyph glyph-name="a.sc" 
d="M512 85q13 -30 25 -38t44 -15q6 -1 10 -2v-30h-304v30q5 1 16 3.5t16 4t12.5 4.5t10.5 6t6 8.5t1.5 12.5t-5.5 16l-33 73h-159l-30 -72q-4 -9 -5 -16.5t1.5 -12.5t5.5 -8.5t10.5 -6.5t12 -4.5t15.5 -4t16 -3.5v-30h-183v30q38 8 50.5 16.5t26.5 41.5l193 442h47zM170 200
h122l-63 141z" />
    <glyph glyph-name="aacute.sc" 
d="M423 693q-76 -48 -128 -103l-37 22q17 81 69 154q28 0 57 -22t39 -51zM512 85q13 -30 25 -38t44 -15q6 -1 10 -2v-30h-304v30q5 1 16 3.5t16 4t12.5 4.5t10.5 6t6 8.5t1.5 12.5t-5.5 16l-33 73h-159l-30 -72q-4 -9 -5 -16.5t1.5 -12.5t5.5 -8.5t10.5 -6.5t12 -4.5
t15.5 -4t16 -3.5v-30h-183v30q38 8 50.5 16.5t26.5 41.5l193 442h47zM170 200h122l-63 141z" />
    <glyph glyph-name="abreve.sc" 
d="M288 620q-70 0 -115 39t-45 110h33q17 -68 127 -68t127 68h33q0 -71 -45 -110t-115 -39zM512 85q13 -30 25 -38t44 -15q6 -1 10 -2v-30h-304v30q5 1 16 3.5t16 4t12.5 4.5t10.5 6t6 8.5t1.5 12.5t-5.5 16l-33 73h-159l-30 -72q-4 -9 -5 -16.5t1.5 -12.5t5.5 -8.5
t10.5 -6.5t12 -4.5t15.5 -4t16 -3.5v-30h-183v30q38 8 50.5 16.5t26.5 41.5l193 442h47zM170 200h122l-63 141z" />
    <glyph glyph-name="acircumflex.sc" 
d="M282 690l-129 -79l-15 20l144 148l144 -150l-15 -18zM512 85q13 -30 25 -38t44 -15q6 -1 10 -2v-30h-304v30q5 1 16 3.5t16 4t12.5 4.5t10.5 6t6 8.5t1.5 12.5t-5.5 16l-33 73h-159l-30 -72q-4 -9 -5 -16.5t1.5 -12.5t5.5 -8.5t10.5 -6.5t12 -4.5t15.5 -4t16 -3.5v-30
h-183v30q38 8 50.5 16.5t26.5 41.5l193 442h47zM170 200h122l-63 141z" />
    <glyph glyph-name="adieresis.sc" 
d="M175 640q-29 0 -50 21t-21 50q0 28 21 48.5t50 20.5q28 0 48.5 -20.5t20.5 -48.5q0 -29 -20.5 -50t-48.5 -21zM403 640q-29 0 -50 21t-21 50q0 28 21 48.5t50 20.5q28 0 48.5 -20.5t20.5 -48.5q0 -29 -20.5 -50t-48.5 -21zM512 85q13 -30 25 -38t44 -15q6 -1 10 -2v-30
h-304v30q5 1 16 3.5t16 4t12.5 4.5t10.5 6t6 8.5t1.5 12.5t-5.5 16l-33 73h-159l-30 -72q-4 -9 -5 -16.5t1.5 -12.5t5.5 -8.5t10.5 -6.5t12 -4.5t15.5 -4t16 -3.5v-30h-183v30q38 8 50.5 16.5t26.5 41.5l193 442h47zM170 200h122l-63 141z" />
    <glyph glyph-name="agrave.sc" 
d="M302 590q-52 55 -128 103q10 29 39 51t57 22q52 -73 69 -154zM512 85q13 -30 25 -38t44 -15q6 -1 10 -2v-30h-304v30q5 1 16 3.5t16 4t12.5 4.5t10.5 6t6 8.5t1.5 12.5t-5.5 16l-33 73h-159l-30 -72q-4 -9 -5 -16.5t1.5 -12.5t5.5 -8.5t10.5 -6.5t12 -4.5t15.5 -4
t16 -3.5v-30h-183v30q38 8 50.5 16.5t26.5 41.5l193 442h47zM170 200h122l-63 141z" />
    <glyph glyph-name="amacron.sc" 
d="M436 727l-15 -52h-280l15 52h280zM512 85q13 -30 25 -38t44 -15q6 -1 10 -2v-30h-304v30q5 1 16 3.5t16 4t12.5 4.5t10.5 6t6 8.5t1.5 12.5t-5.5 16l-33 73h-159l-30 -72q-4 -9 -5 -16.5t1.5 -12.5t5.5 -8.5t10.5 -6.5t12 -4.5t15.5 -4t16 -3.5v-30h-183v30
q38 8 50.5 16.5t26.5 41.5l193 442h47zM170 200h122l-63 141z" />
    <glyph glyph-name="aogonek.sc" 
d="M496 0q-74 -43 -74 -90q0 -26 15 -43t40 -17q15 0 31 6v-22q-37 -33 -91 -33q-43 0 -71.5 20.5t-28.5 66.5q0 35 19 58l81 54h-130v30q5 1 16 3.5t16 4t12.5 4.5t10.5 6t6 8.5t1.5 12.5t-5.5 16l-33 73h-159l-30 -72q-4 -9 -5 -16.5t1.5 -12.5t5.5 -8.5t10.5 -6.5
t12 -4.5t15.5 -4t16 -3.5v-30h-183v30q38 8 50.5 16.5t26.5 41.5l193 442h47l200 -445q13 -30 25 -38t44 -15q6 -1 10 -2v-30h-95zM170 200h122l-63 141z" />
    <glyph glyph-name="aring.sc" 
d="M288 613q-43 0 -72 28.5t-29 69.5t29 69.5t72 28.5t72 -28.5t29 -69.5t-29 -69.5t-72 -28.5zM288 748q-18 0 -28.5 -10t-10.5 -27t10.5 -27t28.5 -10t28.5 10t10.5 27t-10.5 27t-28.5 10zM512 85q13 -30 25 -38t44 -15q6 -1 10 -2v-30h-304v30q5 1 16 3.5t16 4t12.5 4.5
t10.5 6t6 8.5t1.5 12.5t-5.5 16l-33 73h-159l-30 -72q-4 -9 -5 -16.5t1.5 -12.5t5.5 -8.5t10.5 -6.5t12 -4.5t15.5 -4t16 -3.5v-30h-183v30q38 8 50.5 16.5t26.5 41.5l193 442h47zM170 200h122l-63 141z" />
    <glyph glyph-name="atilde.sc" 
d="M120 620h-31q-8 59 29 95.5t89 36.5q41 0 90.5 -37.5t85.5 -37.5q23 0 40 18t17 34h31q9 -59 -29 -95.5t-91 -36.5q-40 0 -88.5 37.5t-85.5 37.5q-23 0 -40 -18t-17 -34zM512 85q13 -30 25 -38t44 -15q6 -1 10 -2v-30h-304v30q5 1 16 3.5t16 4t12.5 4.5t10.5 6t6 8.5
t1.5 12.5t-5.5 16l-33 73h-159l-30 -72q-4 -9 -5 -16.5t1.5 -12.5t5.5 -8.5t10.5 -6.5t12 -4.5t15.5 -4t16 -3.5v-30h-183v30q38 8 50.5 16.5t26.5 41.5l193 442h47zM170 200h122l-63 141z" />
    <glyph glyph-name="ae.sc" horiz-adv-x="885" 
d="M830 148h35l-41 -148h-506v30q47 10 59 20q19 16 19 59v69h-202l-58 -92q-4 -6 -6.5 -11.5t-3.5 -9.5t0 -8t2 -6.5t5 -5t6 -4t8 -3.5t9 -2.5t11 -2.5t11 -3v-30h-183v30q39 8 54.5 17t36.5 41l261 406q-11 3 -29 6v30h504l9 -140h-35q-7 50 -27 73t-71 23h-51
q-59 0 -76.5 -13t-17.5 -63v-121h57q72 0 94 16t27 58h29v-190h-29q-5 42 -27 58t-94 16h-57v-127q0 -50 17.5 -63t76.5 -13h30q58 0 91.5 23t61.5 81zM219 218h177v203q0 39 -15 55z" />
    <glyph glyph-name="b.sc" horiz-adv-x="653" 
d="M475 278q148 -33 148 -134q0 -144 -309 -144h-299v30q47 10 59 20q19 16 19 59v312q0 23 -4 37t-16 22t-20 11t-29 7q-6 1 -9 2v30h299q266 0 266 -130q0 -86 -105 -122zM421 388q0 46 -19.5 72t-82.5 26h-9q-35 -1 -47.5 -12.5t-12.5 -36.5v-143h59q66 0 89 25.5
t23 68.5zM338 44q68 0 92 27t24 78q0 23 -5 39t-21 32.5t-50.5 24.5t-87.5 8h-40v-133q0 -40 18 -58t70 -18z" />
    <glyph glyph-name="c.sc" horiz-adv-x="590" 
d="M337 -12q-133 0 -217.5 78t-84.5 202q0 120 84.5 197t228.5 77q106 0 183 -46q4 -91 7 -135h-46q-31 137 -141 137q-80 0 -115 -55.5t-35 -141.5q0 -111 54 -182.5t149 -71.5q77 0 125 52l26 -27q-76 -84 -218 -84z" />
    <glyph glyph-name="cacute.sc" horiz-adv-x="590" 
d="M329 590l-37 22q17 81 69 154q28 0 57 -22t39 -51q-76 -48 -128 -103zM337 -12q-133 0 -217.5 78t-84.5 202q0 120 84.5 197t228.5 77q106 0 183 -46q4 -91 7 -135h-46q-31 137 -141 137q-80 0 -115 -55.5t-35 -141.5q0 -111 54 -182.5t149 -71.5q77 0 125 52l26 -27
q-76 -84 -218 -84z" />
    <glyph glyph-name="ccaron.sc" horiz-adv-x="590" 
d="M320 609l-144 148l15 20l129 -79l129 79l15 -18zM337 -12q-133 0 -217.5 78t-84.5 202q0 120 84.5 197t228.5 77q106 0 183 -46q4 -91 7 -135h-46q-31 137 -141 137q-80 0 -115 -55.5t-35 -141.5q0 -111 54 -182.5t149 -71.5q77 0 125 52l26 -27q-76 -84 -218 -84z" />
    <glyph glyph-name="ccedilla.sc" horiz-adv-x="590" 
d="M555 72q-71 -79 -203 -84l-13 -27q43 0 79.5 -22.5t36.5 -63.5q0 -87 -178 -87l5 29q88 0 88 44q0 41 -115 41l45 88q-118 11 -191.5 87.5t-73.5 190.5q0 120 84.5 197t228.5 77q106 0 183 -46q4 -91 7 -135h-46q-31 137 -141 137q-80 0 -115 -55.5t-35 -141.5
q0 -111 54 -182.5t149 -71.5q77 0 125 52z" />
    <glyph glyph-name="cdotaccent.sc" horiz-adv-x="590" 
d="M322 583q-35 0 -60.5 25t-25.5 59t25.5 58t60.5 24t60.5 -24t25.5 -58t-25.5 -59t-60.5 -25zM337 -12q-133 0 -217.5 78t-84.5 202q0 120 84.5 197t228.5 77q106 0 183 -46q4 -91 7 -135h-46q-31 137 -141 137q-80 0 -115 -55.5t-35 -141.5q0 -111 54 -182.5t149 -71.5
q77 0 125 52l26 -27q-76 -84 -218 -84z" />
    <glyph glyph-name="d.sc" horiz-adv-x="652" 
d="M309 530q80 0 148.5 -28.5t114 -89t45.5 -143.5q0 -127 -90.5 -198t-217.5 -71h-294v30q47 10 59 20q19 16 19 59v312q0 23 -4 37t-16 22t-20 11t-29 7q-6 1 -9 2v30h294zM337 42q113 0 113 217q0 229 -151 229h-49v-350q0 -53 19 -74.5t68 -21.5z" />
    <glyph glyph-name="dcaron.sc" horiz-adv-x="652" 
d="M469 759l-144 -150l-144 148l15 20l129 -79l129 79zM309 530q80 0 148.5 -28.5t114 -89t45.5 -143.5q0 -127 -90.5 -198t-217.5 -71h-294v30q47 10 59 20q19 16 19 59v312q0 23 -4 37t-16 22t-20 11t-29 7q-6 1 -9 2v30h294zM337 42q113 0 113 217q0 229 -151 229h-49
v-350q0 -53 19 -74.5t68 -21.5z" />
    <glyph glyph-name="e.sc" horiz-adv-x="582" 
d="M527 148h35l-41 -148h-506v30q47 10 59 20q19 16 19 59v312q0 23 -4 37t-16 22t-20 11t-29 7q-6 1 -9 2v30h504l9 -140h-35q-7 50 -27 73t-71 23h-51q-59 0 -76.5 -13t-17.5 -63v-121h57q72 0 94 16t27 58h29v-190h-29q-5 42 -27 58t-94 16h-57v-127q0 -50 17.5 -63
t76.5 -13h30q58 0 91.5 23t61.5 81z" />
    <glyph glyph-name="eacute.sc" horiz-adv-x="582" 
d="M427 693q-76 -48 -128 -103l-37 22q17 81 69 154q28 0 57 -22t39 -51zM527 148h35l-41 -148h-506v30q47 10 59 20q19 16 19 59v312q0 23 -4 37t-16 22t-20 11t-29 7q-6 1 -9 2v30h504l9 -140h-35q-7 50 -27 73t-71 23h-51q-59 0 -76.5 -13t-17.5 -63v-121h57q72 0 94 16
t27 58h29v-190h-29q-5 42 -27 58t-94 16h-57v-127q0 -50 17.5 -63t76.5 -13h30q58 0 91.5 23t61.5 81z" />
    <glyph glyph-name="ecaron.sc" horiz-adv-x="582" 
d="M434 759l-144 -150l-144 148l15 20l129 -79l129 79zM527 148h35l-41 -148h-506v30q47 10 59 20q19 16 19 59v312q0 23 -4 37t-16 22t-20 11t-29 7q-6 1 -9 2v30h504l9 -140h-35q-7 50 -27 73t-71 23h-51q-59 0 -76.5 -13t-17.5 -63v-121h57q72 0 94 16t27 58h29v-190h-29
q-5 42 -27 58t-94 16h-57v-127q0 -50 17.5 -63t76.5 -13h30q58 0 91.5 23t61.5 81z" />
    <glyph glyph-name="ecircumflex.sc" horiz-adv-x="582" 
d="M286 690l-129 -79l-15 20l144 148l144 -150l-15 -18zM527 148h35l-41 -148h-506v30q47 10 59 20q19 16 19 59v312q0 23 -4 37t-16 22t-20 11t-29 7q-6 1 -9 2v30h504l9 -140h-35q-7 50 -27 73t-71 23h-51q-59 0 -76.5 -13t-17.5 -63v-121h57q72 0 94 16t27 58h29v-190
h-29q-5 42 -27 58t-94 16h-57v-127q0 -50 17.5 -63t76.5 -13h30q58 0 91.5 23t61.5 81z" />
    <glyph glyph-name="edieresis.sc" horiz-adv-x="582" 
d="M179 640q-29 0 -50 21t-21 50q0 28 21 48.5t50 20.5q28 0 48.5 -20.5t20.5 -48.5q0 -29 -20.5 -50t-48.5 -21zM407 640q-29 0 -50 21t-21 50q0 28 21 48.5t50 20.5q28 0 48.5 -20.5t20.5 -48.5q0 -29 -20.5 -50t-48.5 -21zM527 148h35l-41 -148h-506v30q47 10 59 20
q19 16 19 59v312q0 23 -4 37t-16 22t-20 11t-29 7q-6 1 -9 2v30h504l9 -140h-35q-7 50 -27 73t-71 23h-51q-59 0 -76.5 -13t-17.5 -63v-121h57q72 0 94 16t27 58h29v-190h-29q-5 42 -27 58t-94 16h-57v-127q0 -50 17.5 -63t76.5 -13h30q58 0 91.5 23t61.5 81z" />
    <glyph glyph-name="edotaccent.sc" horiz-adv-x="582" 
d="M292 583q-35 0 -60.5 25t-25.5 59t25.5 58t60.5 24t60.5 -24t25.5 -58t-25.5 -59t-60.5 -25zM527 148h35l-41 -148h-506v30q47 10 59 20q19 16 19 59v312q0 23 -4 37t-16 22t-20 11t-29 7q-6 1 -9 2v30h504l9 -140h-35q-7 50 -27 73t-71 23h-51q-59 0 -76.5 -13
t-17.5 -63v-121h57q72 0 94 16t27 58h29v-190h-29q-5 42 -27 58t-94 16h-57v-127q0 -50 17.5 -63t76.5 -13h30q58 0 91.5 23t61.5 81z" />
    <glyph glyph-name="egrave.sc" horiz-adv-x="582" 
d="M306 590q-52 55 -128 103q10 29 39 51t57 22q52 -73 69 -154zM527 148h35l-41 -148h-506v30q47 10 59 20q19 16 19 59v312q0 23 -4 37t-16 22t-20 11t-29 7q-6 1 -9 2v30h504l9 -140h-35q-7 50 -27 73t-71 23h-51q-59 0 -76.5 -13t-17.5 -63v-121h57q72 0 94 16t27 58h29
v-190h-29q-5 42 -27 58t-94 16h-57v-127q0 -50 17.5 -63t76.5 -13h30q58 0 91.5 23t61.5 81z" />
    <glyph glyph-name="emacron.sc" horiz-adv-x="582" 
d="M440 727l-15 -52h-280l15 52h280zM527 148h35l-41 -148h-506v30q47 10 59 20q19 16 19 59v312q0 23 -4 37t-16 22t-20 11t-29 7q-6 1 -9 2v30h504l9 -140h-35q-7 50 -27 73t-71 23h-51q-59 0 -76.5 -13t-17.5 -63v-121h57q72 0 94 16t27 58h29v-190h-29q-5 42 -27 58
t-94 16h-57v-127q0 -50 17.5 -63t76.5 -13h30q58 0 91.5 23t61.5 81z" />
    <glyph glyph-name="eogonek.sc" horiz-adv-x="582" 
d="M481 0q-74 -43 -74 -90q0 -26 15 -43t40 -17q15 0 31 6v-22q-37 -33 -91 -33q-43 0 -71.5 20.5t-28.5 66.5q0 35 19 58l81 54h-387v30q47 10 59 20q19 16 19 59v312q0 23 -4 37t-16 22t-20 11t-29 7q-6 1 -9 2v30h504l9 -140h-35q-7 50 -27 73t-71 23h-51
q-59 0 -76.5 -13t-17.5 -63v-121h57q72 0 94 16t27 58h29v-190h-29q-5 42 -27 58t-94 16h-57v-127q0 -50 17.5 -63t76.5 -13h30q58 0 91.5 23t61.5 81h35l-41 -148h-40z" />
    <glyph glyph-name="uni1EBD.sc" horiz-adv-x="582" 
d="M124 620h-31q-8 59 29 95.5t89 36.5q41 0 90.5 -37.5t85.5 -37.5q23 0 40 18t17 34h31q9 -59 -29 -95.5t-91 -36.5q-40 0 -88.5 37.5t-85.5 37.5q-23 0 -40 -18t-17 -34zM527 148h35l-41 -148h-506v30q47 10 59 20q19 16 19 59v312q0 23 -4 37t-16 22t-20 11t-29 7
q-6 1 -9 2v30h504l9 -140h-35q-7 50 -27 73t-71 23h-51q-59 0 -76.5 -13t-17.5 -63v-121h57q72 0 94 16t27 58h29v-190h-29q-5 42 -27 58t-94 16h-57v-127q0 -50 17.5 -63t76.5 -13h30q58 0 91.5 23t61.5 81z" />
    <glyph glyph-name="f.sc" horiz-adv-x="548" 
d="M519 530l9 -140h-35q-7 50 -27 73t-71 23h-51q-59 0 -76.5 -13t-17.5 -63v-121h57q72 0 94 16t27 58h29v-190h-29q-5 42 -27 58t-94 16h-57v-127q0 -48 19 -64.5t64 -25.5v-30h-318v30q47 10 59 20q19 16 19 59v312q0 23 -4 37t-16 22t-20 11t-29 7q-6 1 -9 2v30h504z
" />
    <glyph glyph-name="g.sc" horiz-adv-x="656" 
d="M353 -12q-150 0 -234 77.5t-84 202.5q0 121 87 197.5t235 76.5q107 0 184 -46q4 -91 7 -135h-48q-38 137 -144 137q-82 0 -118.5 -56t-36.5 -148q0 -48 8.5 -93t26 -83.5t47.5 -62t69 -23.5q42 0 65 25.5t23 72.5v25q0 63 -18 80.5t-69 22.5v34h273v-34q-29 -5 -43.5 -21
t-14.5 -51v-16q0 -88 18 -127q-97 -55 -233 -55z" />
    <glyph glyph-name="gbreve.sc" horiz-adv-x="656" 
d="M339 620q-70 0 -115 39t-45 110h33q17 -68 127 -68t127 68h33q0 -71 -45 -110t-115 -39zM353 -12q-150 0 -234 77.5t-84 202.5q0 121 87 197.5t235 76.5q107 0 184 -46q4 -91 7 -135h-48q-38 137 -144 137q-82 0 -118.5 -56t-36.5 -148q0 -48 8.5 -93t26 -83.5t47.5 -62
t69 -23.5q42 0 65 25.5t23 72.5v25q0 63 -18 80.5t-69 22.5v34h273v-34q-29 -5 -43.5 -21t-14.5 -51v-16q0 -88 18 -127q-97 -55 -233 -55z" />
    <glyph glyph-name="uni0123.sc" horiz-adv-x="656" 
d="M353 -12q-150 0 -234 77.5t-84 202.5q0 121 87 197.5t235 76.5q107 0 184 -46q4 -91 7 -135h-48q-38 137 -144 137q-82 0 -118.5 -56t-36.5 -148q0 -48 8.5 -93t26 -83.5t47.5 -62t69 -23.5q42 0 65 25.5t23 72.5v25q0 63 -18 80.5t-69 22.5v34h273v-34q-29 -5 -43.5 -21
t-14.5 -51v-16q0 -88 18 -127q-97 -55 -233 -55zM245 -371l-9 31q82 25 99 82q6 33 -17 48q-48 27 -48 73q0 32 23.5 55.5t59.5 23.5q35 0 59 -27t24 -74q0 -71 -52.5 -134t-138.5 -78z" />
    <glyph glyph-name="gdotaccent.sc" horiz-adv-x="656" 
d="M339 583q-35 0 -60.5 25t-25.5 59t25.5 58t60.5 24t60.5 -24t25.5 -58t-25.5 -59t-60.5 -25zM353 -12q-150 0 -234 77.5t-84 202.5q0 121 87 197.5t235 76.5q107 0 184 -46q4 -91 7 -135h-48q-38 137 -144 137q-82 0 -118.5 -56t-36.5 -148q0 -48 8.5 -93t26 -83.5
t47.5 -62t69 -23.5q42 0 65 25.5t23 72.5v25q0 63 -18 80.5t-69 22.5v34h273v-34q-29 -5 -43.5 -21t-14.5 -51v-16q0 -88 18 -127q-97 -55 -233 -55z" />
    <glyph glyph-name="h.sc" horiz-adv-x="709" 
d="M694 500q-47 -10 -59 -20q-19 -16 -19 -59v-312q0 -23 4 -37t16 -22t20 -11t29 -7q6 -1 9 -2v-30h-313v30q47 10 59 20q19 16 19 59v133h-209v-133q0 -23 4 -37t16 -22t20 -11t29 -7q6 -1 9 -2v-30h-313v30q47 10 59 20q19 16 19 59v312q0 23 -4 37t-16 22t-20 11t-29 7
q-6 1 -9 2v30h313v-30q-47 -10 -59 -20q-19 -16 -19 -59v-137h209v137q0 23 -4 37t-16 22t-20 11t-29 7q-6 1 -9 2v30h313v-30z" />
    <glyph glyph-name="hbar.sc" horiz-adv-x="709" 
d="M694 500q-47 -10 -59 -20q-19 -16 -19 -59v-312q0 -23 4 -37t16 -22t20 -11t29 -7q6 -1 9 -2v-30h-313v30q47 10 59 20q19 16 19 59v133h-209v-133q0 -23 4 -37t16 -22t20 -11t29 -7q6 -1 9 -2v-30h-313v30q47 10 59 20q19 16 19 59v312q0 23 -4 37t-16 22t-20 11t-29 7
q-6 1 -9 2v30h313v-30q-47 -10 -59 -20q-19 -16 -19 -59v-33h209v33q0 23 -4 37t-16 22t-20 11t-29 7q-6 1 -9 2v30h313v-30zM250 284h209v62h-209v-62z" />
    <glyph glyph-name="i.sc" horiz-adv-x="349" 
d="M18 0v30q47 10 59 20q19 16 19 59v312q0 23 -4 37t-16 22t-20 11t-29 7q-6 1 -9 2v30h313v-30q-47 -10 -59 -20q-19 -16 -19 -59v-312q0 -23 4 -37t16 -22t20 -11t29 -7q6 -1 9 -2v-30h-313z" />
    <glyph glyph-name="iacute.sc" horiz-adv-x="349" 
d="M181 590l-37 22q17 81 69 154q28 0 57 -22t39 -51q-76 -48 -128 -103zM18 0v30q47 10 59 20q19 16 19 59v312q0 23 -4 37t-16 22t-20 11t-29 7q-6 1 -9 2v30h313v-30q-47 -10 -59 -20q-19 -16 -19 -59v-312q0 -23 4 -37t16 -22t20 -11t29 -7q6 -1 9 -2v-30h-313z" />
    <glyph glyph-name="icircumflex.sc" horiz-adv-x="349" 
d="M168 779l144 -150l-15 -18l-129 79l-129 -79l-15 20zM18 0v30q47 10 59 20q19 16 19 59v312q0 23 -4 37t-16 22t-20 11t-29 7q-6 1 -9 2v30h313v-30q-47 -10 -59 -20q-19 -16 -19 -59v-312q0 -23 4 -37t16 -22t20 -11t29 -7q6 -1 9 -2v-30h-313z" />
    <glyph glyph-name="idieresis.sc" horiz-adv-x="349" 
d="M61 640q-29 0 -50 21t-21 50q0 28 21 48.5t50 20.5q28 0 48.5 -20.5t20.5 -48.5q0 -29 -20.5 -50t-48.5 -21zM289 640q-29 0 -50 21t-21 50q0 28 21 48.5t50 20.5q28 0 48.5 -20.5t20.5 -48.5q0 -29 -20.5 -50t-48.5 -21zM18 0v30q47 10 59 20q19 16 19 59v312
q0 23 -4 37t-16 22t-20 11t-29 7q-6 1 -9 2v30h313v-30q-47 -10 -59 -20q-19 -16 -19 -59v-312q0 -23 4 -37t16 -22t20 -11t29 -7q6 -1 9 -2v-30h-313z" />
    <glyph glyph-name="i.sc.loclTRK" horiz-adv-x="349" 
d="M174 583q-35 0 -60.5 25t-25.5 59t25.5 58t60.5 24t60.5 -24t25.5 -58t-25.5 -59t-60.5 -25zM18 0v30q47 10 59 20q19 16 19 59v312q0 23 -4 37t-16 22t-20 11t-29 7q-6 1 -9 2v30h313v-30q-47 -10 -59 -20q-19 -16 -19 -59v-312q0 -23 4 -37t16 -22t20 -11t29 -7
q6 -1 9 -2v-30h-313z" />
    <glyph glyph-name="igrave.sc" horiz-adv-x="349" 
d="M188 590q-52 55 -128 103q10 29 39 51t57 22q52 -73 69 -154zM18 0v30q47 10 59 20q19 16 19 59v312q0 23 -4 37t-16 22t-20 11t-29 7q-6 1 -9 2v30h313v-30q-47 -10 -59 -20q-19 -16 -19 -59v-312q0 -23 4 -37t16 -22t20 -11t29 -7q6 -1 9 -2v-30h-313z" />
    <glyph glyph-name="ij.sc" horiz-adv-x="705" 
d="M18 0v30q47 10 59 20q19 16 19 59v312q0 23 -4 37t-16 22t-20 11t-29 7q-6 1 -9 2v30h313v-30q-47 -10 -59 -20q-19 -16 -19 -59v-312q0 -23 4 -37t16 -22t20 -11t29 -7q6 -1 9 -2v-30h-313zM345 -185q-5 7 -5 18t5 19q67 24 86 56t19 108v405q0 30 -10.5 46.5
t-21.5 20.5t-41 10q-5 1 -8 2v30h321v-30q-51 -10 -64 -20q-19 -16 -19 -59v-415q0 -38 -16 -68.5t-39.5 -49.5t-61.5 -34t-69 -23t-76 -16z" />
    <glyph glyph-name="imacron.sc" horiz-adv-x="349" 
d="M27 675l15 52h280l-15 -52h-280zM18 0v30q47 10 59 20q19 16 19 59v312q0 23 -4 37t-16 22t-20 11t-29 7q-6 1 -9 2v30h313v-30q-47 -10 -59 -20q-19 -16 -19 -59v-312q0 -23 4 -37t16 -22t20 -11t29 -7q6 -1 9 -2v-30h-313z" />
    <glyph glyph-name="iogonek.sc" horiz-adv-x="349" 
d="M331 500q-47 -10 -59 -20q-19 -16 -19 -59v-312q0 -23 4 -37t16 -22t20 -11t29 -7q6 -1 9 -2v-30h-78q-74 -43 -74 -90q0 -26 15 -43t40 -17q15 0 31 6v-22q-37 -33 -91 -33q-43 0 -71.5 20.5t-28.5 66.5q0 35 19 58l81 54h-156v30q47 10 59 20q19 16 19 59v312
q0 23 -4 37t-16 22t-20 11t-29 7q-6 1 -9 2v30h313v-30z" />
    <glyph glyph-name="j.sc" horiz-adv-x="356" 
d="M-4 -185q-5 7 -5 18t5 19q67 24 86 56t19 108v405q0 30 -10.5 46.5t-21.5 20.5t-41 10q-5 1 -8 2v30h321v-30q-51 -10 -64 -20q-19 -16 -19 -59v-415q0 -38 -16 -68.5t-39.5 -49.5t-61.5 -34t-69 -23t-76 -16z" />
    <glyph glyph-name="k.sc" horiz-adv-x="666" 
d="M583 54q10 -17 26.5 -20.5t56.5 -3.5v-30h-238q0 20 -33 70l-110 169l-35 -36v-94q0 -23 4 -37t16 -22t20 -11t29 -7q6 -1 9 -2v-30h-313v30q47 10 59 20q19 16 19 59v312q0 23 -4 37t-16 22t-20 11t-29 7q-6 1 -9 2v30h313v-30q-47 -10 -59 -20q-19 -16 -19 -59v-153
l181 189q40 43 -24 43v30h208v-30q-47 0 -72 -9.5t-48 -33.5l-108 -111z" />
    <glyph glyph-name="uni0137.sc" horiz-adv-x="666" 
d="M583 54q10 -17 26.5 -20.5t56.5 -3.5v-30h-238q0 20 -33 70l-110 169l-35 -36v-94q0 -23 4 -37t16 -22t20 -11t29 -7q6 -1 9 -2v-30h-313v30q47 10 59 20q19 16 19 59v312q0 23 -4 37t-16 22t-20 11t-29 7q-6 1 -9 2v30h313v-30q-47 -10 -59 -20q-19 -16 -19 -59v-153
l181 189q40 43 -24 43v30h208v-30q-47 0 -72 -9.5t-48 -33.5l-108 -111zM349 -58q35 0 59 -27t24 -74q0 -71 -52.5 -134t-138.5 -78l-9 31q82 25 99 82q6 33 -17 48q-48 27 -48 73q0 32 23.5 55.5t59.5 23.5z" />
    <glyph glyph-name="l.sc" horiz-adv-x="564" 
d="M15 0v30q47 10 59 20q19 16 19 59v312q0 23 -4 37t-16 22t-20 11t-29 7q-6 1 -9 2v30h302v-30q-23 -5 -31 -7.5t-19 -10.5t-14 -22t-3 -39v-299q0 -50 16.5 -63t71.5 -13h21q61 0 94.5 24t58.5 94h37l-41 -164h-493z" />
    <glyph glyph-name="lacute.sc" horiz-adv-x="564" 
d="M188 590l-37 22q17 81 69 154q28 0 57 -22t39 -51q-76 -48 -128 -103zM15 0v30q47 10 59 20q19 16 19 59v312q0 23 -4 37t-16 22t-20 11t-29 7q-6 1 -9 2v30h302v-30q-23 -5 -31 -7.5t-19 -10.5t-14 -22t-3 -39v-299q0 -50 16.5 -63t71.5 -13h21q61 0 94.5 24t58.5 94h37
l-41 -164h-493z" />
    <glyph glyph-name="lcaron.sc" horiz-adv-x="564" 
d="M179 609l-144 148l15 20l129 -79l129 79l15 -18zM15 0v30q47 10 59 20q19 16 19 59v312q0 23 -4 37t-16 22t-20 11t-29 7q-6 1 -9 2v30h302v-30q-23 -5 -31 -7.5t-19 -10.5t-14 -22t-3 -39v-299q0 -50 16.5 -63t71.5 -13h21q61 0 94.5 24t58.5 94h37l-41 -164h-493z" />
    <glyph glyph-name="uni013C.sc" horiz-adv-x="564" 
d="M15 0v30q47 10 59 20q19 16 19 59v312q0 23 -4 37t-16 22t-20 11t-29 7q-6 1 -9 2v30h302v-30q-23 -5 -31 -7.5t-19 -10.5t-14 -22t-3 -39v-299q0 -50 16.5 -63t71.5 -13h21q61 0 94.5 24t58.5 94h37l-41 -164h-493zM176 -371l-9 31q82 25 99 82q6 33 -17 48
q-48 27 -48 73q0 32 23.5 55.5t59.5 23.5q35 0 59 -27t24 -74q0 -71 -52.5 -134t-138.5 -78z" />
    <glyph glyph-name="ldot.sc" horiz-adv-x="600" 
d="M15 0v30q47 10 59 20q19 16 19 59v312q0 23 -4 37t-16 22t-20 11t-29 7q-6 1 -9 2v30h302v-30q-23 -5 -31 -7.5t-19 -10.5t-14 -22t-3 -39v-299q0 -50 16.5 -63t71.5 -13h21q61 0 94.5 24t58.5 94h37l-41 -164h-493zM383 186q-35 0 -59 24.5t-24 59.5q0 33 24.5 57
t58.5 24q33 0 57 -24t24 -57q0 -35 -24 -59.5t-57 -24.5z" />
    <glyph glyph-name="lslash.sc" horiz-adv-x="564" 
d="M512 164h37l-41 -164h-493v30q47 10 59 20q19 16 19 59v107q-14 -5 -68 -26v41q16 4 68 20v170q0 23 -4 37t-16 22t-20 11t-29 7q-6 1 -9 2v30h302v-30q-23 -5 -31 -7.5t-19 -10.5t-14 -22t-3 -39v-119q72 26 127 48v-41q-70 -20 -127 -39v-148q0 -50 16.5 -63t71.5 -13
h21q61 0 94.5 24t58.5 94z" />
    <glyph glyph-name="m.sc" horiz-adv-x="813" 
d="M718 109q1 -23 5.5 -37t17 -22.5t19.5 -10.5t30 -7q5 -1 8 -2v-30h-313v30q48 10 59 20q19 16 17 59l-13 340l-177 -449h-30l-180 410l-14 -301q-1 -23 2.5 -37t17 -22.5t21.5 -10.5t33 -7q6 -1 9 -2v-30h-215v30q48 10 61 20q19 17 21 59l15 312q0 10 -1 18.5t-1.5 14.5
t-4.5 11.5t-5.5 9t-8.5 7.5t-8.5 5.5t-11.5 4t-11.5 3t-13.5 3t-13 2.5v30h240q2 -10 6 -21.5t13 -29.5t12 -26l106 -239l92 239q25 66 27 77h251v-30q-48 -10 -60 -20q-19 -16 -17 -59z" />
    <glyph glyph-name="n.sc" horiz-adv-x="643" 
d="M412 530h216v-30q-10 -4 -31 -11t-28 -11.5t-14 -18.5t-7 -38v-421h-65l-341 442v-333q0 -23 4 -37t17.5 -22.5t21.5 -10.5t33 -7q6 -1 9 -2v-30h-212v30q48 10 60 20q20 17 20 59v312q0 23 -4 37t-16.5 22t-20.5 11t-30 7q-6 1 -9 2v30h237l249 -313v204q0 19 -3.5 31.5
t-13 19.5t-18 10.5t-26 8.5t-28.5 9v30z" />
    <glyph glyph-name="nacute.sc" horiz-adv-x="643" 
d="M456 693q-76 -48 -128 -103l-37 22q17 81 69 154q28 0 57 -22t39 -51zM412 530h216v-30q-10 -4 -31 -11t-28 -11.5t-14 -18.5t-7 -38v-421h-65l-341 442v-333q0 -23 4 -37t17.5 -22.5t21.5 -10.5t33 -7q6 -1 9 -2v-30h-212v30q48 10 60 20q20 17 20 59v312q0 23 -4 37
t-16.5 22t-20.5 11t-30 7q-6 1 -9 2v30h237l249 -313v204q0 19 -3.5 31.5t-13 19.5t-18 10.5t-26 8.5t-28.5 9v30z" />
    <glyph glyph-name="ncaron.sc" horiz-adv-x="643" 
d="M463 759l-144 -150l-144 148l15 20l129 -79l129 79zM412 530h216v-30q-10 -4 -31 -11t-28 -11.5t-14 -18.5t-7 -38v-421h-65l-341 442v-333q0 -23 4 -37t17.5 -22.5t21.5 -10.5t33 -7q6 -1 9 -2v-30h-212v30q48 10 60 20q20 17 20 59v312q0 23 -4 37t-16.5 22t-20.5 11
t-30 7q-6 1 -9 2v30h237l249 -313v204q0 19 -3.5 31.5t-13 19.5t-18 10.5t-26 8.5t-28.5 9v30z" />
    <glyph glyph-name="uni0146.sc" horiz-adv-x="643" 
d="M412 530h216v-30q-10 -4 -31 -11t-28 -11.5t-14 -18.5t-7 -38v-421h-65l-341 442v-333q0 -23 4 -37t17.5 -22.5t21.5 -10.5t33 -7q6 -1 9 -2v-30h-212v30q48 10 60 20q20 17 20 59v312q0 23 -4 37t-16.5 22t-20.5 11t-30 7q-6 1 -9 2v30h237l249 -313v204q0 19 -3.5 31.5
t-13 19.5t-18 10.5t-26 8.5t-28.5 9v30zM335 -58q35 0 59 -27t24 -74q0 -71 -52.5 -134t-138.5 -78l-9 31q82 25 99 82q6 33 -17 48q-48 27 -48 73q0 32 23.5 55.5t59.5 23.5z" />
    <glyph glyph-name="ntilde.sc" horiz-adv-x="643" 
d="M153 620h-31q-8 59 29 95.5t89 36.5q41 0 90.5 -37.5t85.5 -37.5q23 0 40 18t17 34h31q9 -59 -29 -95.5t-91 -36.5q-40 0 -88.5 37.5t-85.5 37.5q-23 0 -40 -18t-17 -34zM412 530h216v-30q-10 -4 -31 -11t-28 -11.5t-14 -18.5t-7 -38v-421h-65l-341 442v-333q0 -23 4 -37
t17.5 -22.5t21.5 -10.5t33 -7q6 -1 9 -2v-30h-212v30q48 10 60 20q20 17 20 59v312q0 23 -4 37t-16.5 22t-20.5 11t-30 7q-6 1 -9 2v30h237l249 -313v204q0 19 -3.5 31.5t-13 19.5t-18 10.5t-26 8.5t-28.5 9v30z" />
    <glyph glyph-name="o.sc" horiz-adv-x="668" 
d="M332 -12q-132 0 -214.5 76t-82.5 196q0 125 83 203.5t218 78.5q133 0 215 -76.5t82 -200.5q0 -121 -83.5 -199t-217.5 -78zM349 32q57 0 88 56t31 147q0 117 -38.5 190t-110.5 73q-57 0 -88 -56.5t-31 -151.5q0 -113 38.5 -185.5t110.5 -72.5z" />
    <glyph glyph-name="oacute.sc" horiz-adv-x="668" 
d="M341 590l-37 22q17 81 69 154q28 0 57 -22t39 -51q-76 -48 -128 -103zM332 -12q-132 0 -214.5 76t-82.5 196q0 125 83 203.5t218 78.5q133 0 215 -76.5t82 -200.5q0 -121 -83.5 -199t-217.5 -78zM349 32q57 0 88 56t31 147q0 117 -38.5 190t-110.5 73q-57 0 -88 -56.5
t-31 -151.5q0 -113 38.5 -185.5t110.5 -72.5z" />
    <glyph glyph-name="ocircumflex.sc" horiz-adv-x="668" 
d="M328 779l144 -150l-15 -18l-129 79l-129 -79l-15 20zM332 -12q-132 0 -214.5 76t-82.5 196q0 125 83 203.5t218 78.5q133 0 215 -76.5t82 -200.5q0 -121 -83.5 -199t-217.5 -78zM349 32q57 0 88 56t31 147q0 117 -38.5 190t-110.5 73q-57 0 -88 -56.5t-31 -151.5
q0 -113 38.5 -185.5t110.5 -72.5z" />
    <glyph glyph-name="odieresis.sc" horiz-adv-x="668" 
d="M221 640q-29 0 -50 21t-21 50q0 28 21 48.5t50 20.5q28 0 48.5 -20.5t20.5 -48.5q0 -29 -20.5 -50t-48.5 -21zM449 640q-29 0 -50 21t-21 50q0 28 21 48.5t50 20.5q28 0 48.5 -20.5t20.5 -48.5q0 -29 -20.5 -50t-48.5 -21zM332 -12q-132 0 -214.5 76t-82.5 196
q0 125 83 203.5t218 78.5q133 0 215 -76.5t82 -200.5q0 -121 -83.5 -199t-217.5 -78zM349 32q57 0 88 56t31 147q0 117 -38.5 190t-110.5 73q-57 0 -88 -56.5t-31 -151.5q0 -113 38.5 -185.5t110.5 -72.5z" />
    <glyph glyph-name="ograve.sc" horiz-adv-x="668" 
d="M348 590q-52 55 -128 103q10 29 39 51t57 22q52 -73 69 -154zM332 -12q-132 0 -214.5 76t-82.5 196q0 125 83 203.5t218 78.5q133 0 215 -76.5t82 -200.5q0 -121 -83.5 -199t-217.5 -78zM349 32q57 0 88 56t31 147q0 117 -38.5 190t-110.5 73q-57 0 -88 -56.5t-31 -151.5
q0 -113 38.5 -185.5t110.5 -72.5z" />
    <glyph glyph-name="ohungarumlaut.sc" horiz-adv-x="668" 
d="M225 590l-37 22q17 81 69 154q28 0 57 -22t39 -51q-76 -48 -128 -103zM410 590l-37 22q17 81 69 154q28 0 57 -22t39 -51q-76 -48 -128 -103zM332 -12q-132 0 -214.5 76t-82.5 196q0 125 83 203.5t218 78.5q133 0 215 -76.5t82 -200.5q0 -121 -83.5 -199t-217.5 -78z
M349 32q57 0 88 56t31 147q0 117 -38.5 190t-110.5 73q-57 0 -88 -56.5t-31 -151.5q0 -113 38.5 -185.5t110.5 -72.5z" />
    <glyph glyph-name="omacron.sc" horiz-adv-x="668" 
d="M187 675l15 52h280l-15 -52h-280zM332 -12q-132 0 -214.5 76t-82.5 196q0 125 83 203.5t218 78.5q133 0 215 -76.5t82 -200.5q0 -121 -83.5 -199t-217.5 -78zM349 32q57 0 88 56t31 147q0 117 -38.5 190t-110.5 73q-57 0 -88 -56.5t-31 -151.5q0 -113 38.5 -185.5
t110.5 -72.5z" />
    <glyph glyph-name="oslash.sc" horiz-adv-x="668" 
d="M494 506q66 -35 102.5 -97t36.5 -144q0 -121 -83.5 -199t-217.5 -78q-80 0 -144 29l-41 -66l-20 13l40 64q-62 35 -97 95.5t-35 136.5q0 125 83 203.5t218 78.5q75 0 136 -26l49 78l20 -13zM200 290q0 -99 28 -164l195 311q-40 61 -104 61q-57 0 -88 -56.5t-31 -151.5z
M349 32q57 0 88 56t31 147q0 106 -32 178l-195 -312q39 -69 108 -69z" />
    <glyph glyph-name="otilde.sc" horiz-adv-x="668" 
d="M397 597q-40 0 -88.5 37.5t-85.5 37.5q-23 0 -40 -18t-17 -34h-31q-8 59 29 95.5t89 36.5q41 0 90.5 -37.5t85.5 -37.5q23 0 40 18t17 34h31q9 -59 -29 -95.5t-91 -36.5zM332 -12q-132 0 -214.5 76t-82.5 196q0 125 83 203.5t218 78.5q133 0 215 -76.5t82 -200.5
q0 -121 -83.5 -199t-217.5 -78zM349 32q57 0 88 56t31 147q0 117 -38.5 190t-110.5 73q-57 0 -88 -56.5t-31 -151.5q0 -113 38.5 -185.5t110.5 -72.5z" />
    <glyph glyph-name="oe.sc" horiz-adv-x="967" 
d="M947 148l-41 -148h-479q-43 -12 -95 -12q-132 0 -214.5 76t-82.5 196q0 125 83 203.5t218 78.5q51 0 96 -12h472l9 -140h-35q-7 50 -27 73t-71 23h-51q-59 0 -76.5 -13t-17.5 -63v-121h57q72 0 94 16t27 58h29v-190h-29q-5 42 -27 58t-94 16h-57v-127q0 -50 17.5 -63
t76.5 -13h30q58 0 91.5 23t61.5 81h35zM200 290q0 -113 38.5 -185.5t110.5 -72.5q58 0 93.5 57t35.5 146q0 115 -43 189t-116 74q-57 0 -88 -56.5t-31 -151.5z" />
    <glyph glyph-name="p.sc" horiz-adv-x="616" 
d="M15 0v30q47 10 59 20q19 16 19 59v312q0 23 -4 37t-16 22t-20 11t-29 7q-6 1 -9 2v30h298q59 0 106.5 -9.5t86.5 -30.5t60.5 -58t21.5 -87q0 -99 -80 -151.5t-213 -52.5q-12 0 -12 22t12 22q128 0 128 154q0 147 -110 147q-35 0 -49 -11t-14 -35v-331q0 -23 4 -37t16 -22
t20 -11t29 -7q6 -1 9 -2v-30h-313z" />
    <glyph glyph-name="q.sc" horiz-adv-x="729" 
d="M799 -76q7 -2 13.5 -10.5t6.5 -17.5q-79 -71 -188 -71q-80 0 -146 40l-172 105q-24 15 -55 25q-102 20 -162.5 91.5t-60.5 173.5q0 125 83 203.5t218 78.5q133 0 215 -76.5t82 -200.5q0 -94 -52 -164t-142 -97q55 -3 95 -27l54 -30q4 -2 16.5 -9t17.5 -9.5t16 -8.5
t17 -8.5t15.5 -6t17 -5t16 -3t16.5 -1.5q40 0 79 28zM319 498q-57 0 -88 -56.5t-31 -151.5q0 -113 38.5 -185.5t110.5 -72.5q57 0 88 56t31 147q0 117 -38.5 190t-110.5 73z" />
    <glyph glyph-name="r.sc" horiz-adv-x="658" 
d="M525 113q20 -45 54.5 -69.5t73.5 -12.5v-31q-29 -16 -93 -16q-142 0 -187 93l-27 58q-24 48 -46 68t-50 24v-118q0 -23 4 -37t16 -22t20 -11t29 -7q6 -1 9 -2v-30h-313v30q47 10 59 20q19 16 19 59v312q0 23 -4 37t-16 22t-20 11t-29 7q-6 1 -9 2v30h288q68 0 115 -5.5
t87 -20.5t60 -44.5t20 -73.5q0 -118 -153 -147q26 -10 41.5 -29t32.5 -54zM308 486q-33 0 -45.5 -11t-12.5 -35v-168h29q86 0 113 28t27 76q0 49 -23 79.5t-88 30.5z" />
    <glyph glyph-name="racute.sc" horiz-adv-x="658" 
d="M452 693q-76 -48 -128 -103l-37 22q17 81 69 154q28 0 57 -22t39 -51zM525 113q20 -45 54.5 -69.5t73.5 -12.5v-31q-29 -16 -93 -16q-142 0 -187 93l-27 58q-24 48 -46 68t-50 24v-118q0 -23 4 -37t16 -22t20 -11t29 -7q6 -1 9 -2v-30h-313v30q47 10 59 20q19 16 19 59
v312q0 23 -4 37t-16 22t-20 11t-29 7q-6 1 -9 2v30h288q68 0 115 -5.5t87 -20.5t60 -44.5t20 -73.5q0 -118 -153 -147q26 -10 41.5 -29t32.5 -54zM308 486q-33 0 -45.5 -11t-12.5 -35v-168h29q86 0 113 28t27 76q0 49 -23 79.5t-88 30.5z" />
    <glyph glyph-name="rcaron.sc" horiz-adv-x="658" 
d="M459 759l-144 -150l-144 148l15 20l129 -79l129 79zM525 113q20 -45 54.5 -69.5t73.5 -12.5v-31q-29 -16 -93 -16q-142 0 -187 93l-27 58q-24 48 -46 68t-50 24v-118q0 -23 4 -37t16 -22t20 -11t29 -7q6 -1 9 -2v-30h-313v30q47 10 59 20q19 16 19 59v312q0 23 -4 37
t-16 22t-20 11t-29 7q-6 1 -9 2v30h288q68 0 115 -5.5t87 -20.5t60 -44.5t20 -73.5q0 -118 -153 -147q26 -10 41.5 -29t32.5 -54zM308 486q-33 0 -45.5 -11t-12.5 -35v-168h29q86 0 113 28t27 76q0 49 -23 79.5t-88 30.5z" />
    <glyph glyph-name="uni0157.sc" horiz-adv-x="658" 
d="M525 113q20 -45 54.5 -69.5t73.5 -12.5v-31q-29 -16 -93 -16q-142 0 -187 93l-27 58q-24 48 -46 68t-50 24v-118q0 -23 4 -37t16 -22t20 -11t29 -7q6 -1 9 -2v-30h-313v30q47 10 59 20q19 16 19 59v312q0 23 -4 37t-16 22t-20 11t-29 7q-6 1 -9 2v30h288q68 0 115 -5.5
t87 -20.5t60 -44.5t20 -73.5q0 -118 -153 -147q26 -10 41.5 -29t32.5 -54zM308 486q-33 0 -45.5 -11t-12.5 -35v-168h29q86 0 113 28t27 76q0 49 -23 79.5t-88 30.5zM338 -58q35 0 59 -27t24 -74q0 -71 -52.5 -134t-138.5 -78l-9 31q82 25 99 82q6 33 -17 48q-48 27 -48 73
q0 32 23.5 55.5t59.5 23.5z" />
    <glyph glyph-name="s.sc" horiz-adv-x="463" 
d="M220 -12q-108 0 -179 53l-6 109h29q46 -121 152 -121q43 0 65 21t22 57q0 33 -21.5 53.5t-77.5 46.5q-80 36 -123.5 78.5t-43.5 109.5q0 69 51 108t140 39q22 0 42.5 -3t34 -6.5t30 -11t22.5 -10.5t19 -11.5t14 -8.5l3 -111h-29q-44 121 -129 121q-40 0 -57.5 -19
t-17.5 -46q0 -26 22 -47.5t83 -49.5q37 -16 60.5 -28.5t51.5 -35t42 -53.5t14 -71q0 -75 -60 -119t-153 -44z" />
    <glyph glyph-name="sacute.sc" horiz-adv-x="463" 
d="M240 590l-37 22q17 81 69 154q28 0 57 -22t39 -51q-76 -48 -128 -103zM220 -12q-108 0 -179 53l-6 109h29q46 -121 152 -121q43 0 65 21t22 57q0 33 -21.5 53.5t-77.5 46.5q-80 36 -123.5 78.5t-43.5 109.5q0 69 51 108t140 39q22 0 42.5 -3t34 -6.5t30 -11t22.5 -10.5
t19 -11.5t14 -8.5l3 -111h-29q-44 121 -129 121q-40 0 -57.5 -19t-17.5 -46q0 -26 22 -47.5t83 -49.5q37 -16 60.5 -28.5t51.5 -35t42 -53.5t14 -71q0 -75 -60 -119t-153 -44z" />
    <glyph glyph-name="scaron.sc" horiz-adv-x="463" 
d="M231 609l-144 148l15 20l129 -79l129 79l15 -18zM220 -12q-108 0 -179 53l-6 109h29q46 -121 152 -121q43 0 65 21t22 57q0 33 -21.5 53.5t-77.5 46.5q-80 36 -123.5 78.5t-43.5 109.5q0 69 51 108t140 39q22 0 42.5 -3t34 -6.5t30 -11t22.5 -10.5t19 -11.5t14 -8.5
l3 -111h-29q-44 121 -129 121q-40 0 -57.5 -19t-17.5 -46q0 -26 22 -47.5t83 -49.5q37 -16 60.5 -28.5t51.5 -35t42 -53.5t14 -71q0 -75 -60 -119t-153 -44z" />
    <glyph glyph-name="scedilla.sc" horiz-adv-x="463" 
d="M433 151q0 -70 -51.5 -113t-134.5 -49l-14 -28q43 0 79.5 -22.5t36.5 -63.5q0 -87 -178 -87l5 29q88 0 88 44q0 41 -115 41l44 87q-90 7 -152 52l-6 109h29q46 -121 152 -121q43 0 65 21t22 57q0 33 -21.5 53.5t-77.5 46.5q-80 36 -123.5 78.5t-43.5 109.5q0 69 51 108
t140 39q22 0 42.5 -3t34 -6.5t30 -11t22.5 -10.5t19 -11.5t14 -8.5l3 -111h-29q-44 121 -129 121q-40 0 -57.5 -19t-17.5 -46q0 -26 22 -47.5t83 -49.5q37 -16 60.5 -28.5t51.5 -35t42 -53.5t14 -71z" />
    <glyph glyph-name="uni0219.sc" horiz-adv-x="463" 
d="M220 -12q-108 0 -179 53l-6 109h29q46 -121 152 -121q43 0 65 21t22 57q0 33 -21.5 53.5t-77.5 46.5q-80 36 -123.5 78.5t-43.5 109.5q0 69 51 108t140 39q22 0 42.5 -3t34 -6.5t30 -11t22.5 -10.5t19 -11.5t14 -8.5l3 -111h-29q-44 121 -129 121q-40 0 -57.5 -19
t-17.5 -46q0 -26 22 -47.5t83 -49.5q37 -16 60.5 -28.5t51.5 -35t42 -53.5t14 -71q0 -75 -60 -119t-153 -44zM134 -371l-9 31q82 25 99 82q6 33 -17 48q-48 27 -48 73q0 32 23.5 55.5t59.5 23.5q35 0 59 -27t24 -74q0 -71 -52.5 -134t-138.5 -78z" />
    <glyph glyph-name="germandbls.sc" horiz-adv-x="755" 
d="M542 309q80 -13 131.5 -55t51.5 -107q0 -78 -71.5 -122.5t-168.5 -44.5q-85 0 -141 32q-2 55 -17 122h33q27 -68 54.5 -93t63.5 -25q39 0 70 25t31 79q0 73 -61.5 115.5t-169.5 42.5l153 200q-45 21 -94 21q-29 0 -51 -6.5t-47 -25.5t-39 -63t-14 -109v-186
q0 -10 1 -18.5t2 -14.5t3.5 -11.5t4.5 -9t6.5 -7t6 -5.5t8 -4.5t8.5 -3t9 -2.5t9 -3v-30h-299v30q51 10 64 20q19 16 19 59v179q0 63 15.5 109.5t40.5 74t62.5 43.5t74 21.5t82.5 5.5q73 0 139 -14.5t160 -47.5z" />
    <glyph glyph-name="t.sc" horiz-adv-x="561" 
d="M538 540l8 -182h-29q-11 68 -40 99t-98 31h-19v-379q0 -23 4 -37t17 -22.5t21 -10.5t31 -7q6 -1 9 -2v-30h-321v30q50 10 63 20q19 17 19 59v379h-18q-71 0 -100.5 -31t-40.5 -99h-29l8 182l59 -10h397z" />
    <glyph glyph-name="tbar.sc" horiz-adv-x="561" 
d="M379 488h-19v-226l128 3l-10 -36l-118 3v-123q0 -23 4 -37t17 -22.5t21 -10.5t31 -7q6 -1 9 -2v-30h-321v30q50 10 63 20q19 17 19 59v123l-125 -3l10 36l115 -3v226h-18q-71 0 -100.5 -31t-40.5 -99h-29l8 182l59 -10h397l59 10l8 -182h-29q-11 68 -40 99t-98 31z" />
    <glyph glyph-name="tcaron.sc" horiz-adv-x="561" 
d="M423 759l-144 -150l-144 148l15 20l129 -79l129 79zM538 540l8 -182h-29q-11 68 -40 99t-98 31h-19v-379q0 -23 4 -37t17 -22.5t21 -10.5t31 -7q6 -1 9 -2v-30h-321v30q50 10 63 20q19 17 19 59v379h-18q-71 0 -100.5 -31t-40.5 -99h-29l8 182l59 -10h397z" />
    <glyph glyph-name="uni0163.sc" horiz-adv-x="561" 
d="M538 540l8 -182h-29q-11 68 -40 99t-98 31h-19v-379q0 -23 4 -37t17 -22.5t21 -10.5t31 -7q6 -1 9 -2v-30h-137l-19 -39q43 0 79.5 -22.5t36.5 -63.5q0 -87 -178 -87l5 29q88 0 88 44q0 41 -115 41l50 98h-131v30q50 10 63 20q19 17 19 59v379h-18q-71 0 -100.5 -31
t-40.5 -99h-29l8 182l59 -10h397z" />
    <glyph glyph-name="uni021B.sc" horiz-adv-x="561" 
d="M538 540l8 -182h-29q-11 68 -40 99t-98 31h-19v-379q0 -23 4 -37t17 -22.5t21 -10.5t31 -7q6 -1 9 -2v-30h-321v30q50 10 63 20q19 17 19 59v379h-18q-71 0 -100.5 -31t-40.5 -99h-29l8 182l59 -10h397zM295 -58q35 0 59 -27t24 -74q0 -71 -52.5 -134t-138.5 -78l-9 31
q82 25 99 82q6 33 -17 48q-48 27 -48 73q0 32 23.5 55.5t59.5 23.5z" />
    <glyph glyph-name="u.sc" horiz-adv-x="680" 
d="M347 -12q-36 0 -68.5 6t-67.5 23.5t-60 46t-41.5 77t-16.5 112.5v168q0 23 -4 37t-16 22t-20 11t-29 7q-6 1 -9 2v30h314v-30q-47 -10 -59 -20q-19 -16 -19 -59v-185q0 -201 135 -201q26 0 48 7t46 25.5t38 58.5t14 98v197q0 23 -4 37t-16.5 22t-20.5 11t-30 7q-6 1 -9 2
v30h213v-30q-52 -10 -65 -20q-20 -17 -20 -59v-177q0 -142 -63 -199t-170 -57z" />
    <glyph glyph-name="uacute.sc" horiz-adv-x="680" 
d="M346 597l-37 22q17 81 69 154q28 0 57 -22t39 -51q-76 -48 -128 -103zM347 -12q-36 0 -68.5 6t-67.5 23.5t-60 46t-41.5 77t-16.5 112.5v168q0 23 -4 37t-16 22t-20 11t-29 7q-6 1 -9 2v30h314v-30q-47 -10 -59 -20q-19 -16 -19 -59v-185q0 -201 135 -201q26 0 48 7
t46 25.5t38 58.5t14 98v197q0 23 -4 37t-16.5 22t-20.5 11t-30 7q-6 1 -9 2v30h213v-30q-52 -10 -65 -20q-20 -17 -20 -59v-177q0 -142 -63 -199t-170 -57z" />
    <glyph glyph-name="ubreve.sc" horiz-adv-x="680" 
d="M339 627q-70 0 -115 39t-45 110h33q17 -68 127 -68t127 68h33q0 -71 -45 -110t-115 -39zM347 -12q-36 0 -68.5 6t-67.5 23.5t-60 46t-41.5 77t-16.5 112.5v168q0 23 -4 37t-16 22t-20 11t-29 7q-6 1 -9 2v30h314v-30q-47 -10 -59 -20q-19 -16 -19 -59v-185
q0 -201 135 -201q26 0 48 7t46 25.5t38 58.5t14 98v197q0 23 -4 37t-16.5 22t-20.5 11t-30 7q-6 1 -9 2v30h213v-30q-52 -10 -65 -20q-20 -17 -20 -59v-177q0 -142 -63 -199t-170 -57z" />
    <glyph glyph-name="ucircumflex.sc" horiz-adv-x="680" 
d="M333 786l144 -150l-15 -18l-129 79l-129 -79l-15 20zM347 -12q-36 0 -68.5 6t-67.5 23.5t-60 46t-41.5 77t-16.5 112.5v168q0 23 -4 37t-16 22t-20 11t-29 7q-6 1 -9 2v30h314v-30q-47 -10 -59 -20q-19 -16 -19 -59v-185q0 -201 135 -201q26 0 48 7t46 25.5t38 58.5
t14 98v197q0 23 -4 37t-16.5 22t-20.5 11t-30 7q-6 1 -9 2v30h213v-30q-52 -10 -65 -20q-20 -17 -20 -59v-177q0 -142 -63 -199t-170 -57z" />
    <glyph glyph-name="udieresis.sc" horiz-adv-x="680" 
d="M226 647q-29 0 -50 21t-21 50q0 28 21 48.5t50 20.5q28 0 48.5 -20.5t20.5 -48.5q0 -29 -20.5 -50t-48.5 -21zM454 647q-29 0 -50 21t-21 50q0 28 21 48.5t50 20.5q28 0 48.5 -20.5t20.5 -48.5q0 -29 -20.5 -50t-48.5 -21zM347 -12q-36 0 -68.5 6t-67.5 23.5t-60 46
t-41.5 77t-16.5 112.5v168q0 23 -4 37t-16 22t-20 11t-29 7q-6 1 -9 2v30h314v-30q-47 -10 -59 -20q-19 -16 -19 -59v-185q0 -201 135 -201q26 0 48 7t46 25.5t38 58.5t14 98v197q0 23 -4 37t-16.5 22t-20.5 11t-30 7q-6 1 -9 2v30h213v-30q-52 -10 -65 -20q-20 -17 -20 -59
v-177q0 -142 -63 -199t-170 -57z" />
    <glyph glyph-name="ugrave.sc" horiz-adv-x="680" 
d="M353 597q-52 55 -128 103q10 29 39 51t57 22q52 -73 69 -154zM347 -12q-36 0 -68.5 6t-67.5 23.5t-60 46t-41.5 77t-16.5 112.5v168q0 23 -4 37t-16 22t-20 11t-29 7q-6 1 -9 2v30h314v-30q-47 -10 -59 -20q-19 -16 -19 -59v-185q0 -201 135 -201q26 0 48 7t46 25.5
t38 58.5t14 98v197q0 23 -4 37t-16.5 22t-20.5 11t-30 7q-6 1 -9 2v30h213v-30q-52 -10 -65 -20q-20 -17 -20 -59v-177q0 -142 -63 -199t-170 -57z" />
    <glyph glyph-name="uhungarumlaut.sc" horiz-adv-x="680" 
d="M230 597l-37 22q17 81 69 154q28 0 57 -22t39 -51q-76 -48 -128 -103zM415 597l-37 22q17 81 69 154q28 0 57 -22t39 -51q-76 -48 -128 -103zM347 -12q-36 0 -68.5 6t-67.5 23.5t-60 46t-41.5 77t-16.5 112.5v168q0 23 -4 37t-16 22t-20 11t-29 7q-6 1 -9 2v30h314v-30
q-47 -10 -59 -20q-19 -16 -19 -59v-185q0 -201 135 -201q26 0 48 7t46 25.5t38 58.5t14 98v197q0 23 -4 37t-16.5 22t-20.5 11t-30 7q-6 1 -9 2v30h213v-30q-52 -10 -65 -20q-20 -17 -20 -59v-177q0 -142 -63 -199t-170 -57z" />
    <glyph glyph-name="umacron.sc" horiz-adv-x="680" 
d="M192 682l15 52h280l-15 -52h-280zM347 -12q-36 0 -68.5 6t-67.5 23.5t-60 46t-41.5 77t-16.5 112.5v168q0 23 -4 37t-16 22t-20 11t-29 7q-6 1 -9 2v30h314v-30q-47 -10 -59 -20q-19 -16 -19 -59v-185q0 -201 135 -201q26 0 48 7t46 25.5t38 58.5t14 98v197q0 23 -4 37
t-16.5 22t-20.5 11t-30 7q-6 1 -9 2v30h213v-30q-52 -10 -65 -20q-20 -17 -20 -59v-177q0 -142 -63 -199t-170 -57z" />
    <glyph glyph-name="uogonek.sc" horiz-adv-x="680" 
d="M452 530h213v-30q-52 -10 -65 -20q-20 -17 -20 -59v-177q0 -204 -143 -245q-73 -42 -73 -89q0 -26 15 -43t40 -17q15 0 31 6v-22q-37 -33 -91 -33q-43 0 -71.5 20.5t-28.5 66.5q0 35 19 58l63 42q-36 1 -67.5 7.5t-66 24.5t-58.5 46t-40 76t-16 111v168q0 23 -4 37
t-16 22t-20 11t-29 7q-6 1 -9 2v30h314v-30q-47 -10 -59 -20q-19 -16 -19 -59v-185q0 -201 135 -201q8 0 28 2l24 16v-10q94 31 94 181v197q0 23 -4 37t-16.5 22t-20.5 11t-30 7q-6 1 -9 2v30z" />
    <glyph glyph-name="uring.sc" horiz-adv-x="680" 
d="M339 620q-43 0 -72 28.5t-29 69.5t29 69.5t72 28.5t72 -28.5t29 -69.5t-29 -69.5t-72 -28.5zM339 681q18 0 28.5 10t10.5 27t-10.5 27t-28.5 10t-28.5 -10t-10.5 -27t10.5 -27t28.5 -10zM347 -12q-36 0 -68.5 6t-67.5 23.5t-60 46t-41.5 77t-16.5 112.5v168q0 23 -4 37
t-16 22t-20 11t-29 7q-6 1 -9 2v30h314v-30q-47 -10 -59 -20q-19 -16 -19 -59v-185q0 -201 135 -201q26 0 48 7t46 25.5t38 58.5t14 98v197q0 23 -4 37t-16.5 22t-20.5 11t-30 7q-6 1 -9 2v30h213v-30q-52 -10 -65 -20q-20 -17 -20 -59v-177q0 -142 -63 -199t-170 -57z" />
    <glyph glyph-name="v.sc" 
d="M408 530h183v-30q-38 -8 -50.5 -16.5t-26.5 -41.5l-193 -442h-47l-200 445q-13 30 -25 38t-44 15q-6 1 -10 2v30h304v-30q-5 -1 -16 -3.5t-16 -4t-12.5 -4.5t-10.5 -6t-6 -8.5t-1.5 -12.5t5.5 -16l115 -256l107 255q4 9 5 16.5t-1.5 12.5t-5.5 8.5t-10.5 6.5t-12 4.5
t-15.5 4t-16 3.5v30z" />
    <glyph glyph-name="w.sc" horiz-adv-x="866" 
d="M245 0l-172 451q-13 32 -25.5 40.5t-52.5 16.5v22h295v-22q-21 -5 -28 -7t-15 -8t-7 -15.5t7 -26.5l85 -253l59 167q41 123 -67 143v22h229q0 -42 34 -136l69 -195l74 208q20 57 2.5 74.5t-76.5 26.5v22h215v-22q-29 -6 -39 -9.5t-20.5 -14t-18.5 -33.5l-166 -450h-58
l-136 352l-130 -353h-58z" />
    <glyph glyph-name="wacute.sc" horiz-adv-x="866" 
d="M438 590l-37 22q17 81 69 154q28 0 57 -22t39 -51q-76 -48 -128 -103zM245 0l-172 451q-13 32 -25.5 40.5t-52.5 16.5v22h295v-22q-21 -5 -28 -7t-15 -8t-7 -15.5t7 -26.5l85 -253l59 167q41 123 -67 143v22h229q0 -42 34 -136l69 -195l74 208q20 57 2.5 74.5t-76.5 26.5
v22h215v-22q-29 -6 -39 -9.5t-20.5 -14t-18.5 -33.5l-166 -450h-58l-136 352l-130 -353h-58z" />
    <glyph glyph-name="wcircumflex.sc" horiz-adv-x="866" 
d="M425 779l144 -150l-15 -18l-129 79l-129 -79l-15 20zM245 0l-172 451q-13 32 -25.5 40.5t-52.5 16.5v22h295v-22q-21 -5 -28 -7t-15 -8t-7 -15.5t7 -26.5l85 -253l59 167q41 123 -67 143v22h229q0 -42 34 -136l69 -195l74 208q20 57 2.5 74.5t-76.5 26.5v22h215v-22
q-29 -6 -39 -9.5t-20.5 -14t-18.5 -33.5l-166 -450h-58l-136 352l-130 -353h-58z" />
    <glyph glyph-name="wdieresis.sc" horiz-adv-x="866" 
d="M318 640q-29 0 -50 21t-21 50q0 28 21 48.5t50 20.5q28 0 48.5 -20.5t20.5 -48.5q0 -29 -20.5 -50t-48.5 -21zM546 640q-29 0 -50 21t-21 50q0 28 21 48.5t50 20.5q28 0 48.5 -20.5t20.5 -48.5q0 -29 -20.5 -50t-48.5 -21zM245 0l-172 451q-13 32 -25.5 40.5t-52.5 16.5
v22h295v-22q-21 -5 -28 -7t-15 -8t-7 -15.5t7 -26.5l85 -253l59 167q41 123 -67 143v22h229q0 -42 34 -136l69 -195l74 208q20 57 2.5 74.5t-76.5 26.5v22h215v-22q-29 -6 -39 -9.5t-20.5 -14t-18.5 -33.5l-166 -450h-58l-136 352l-130 -353h-58z" />
    <glyph glyph-name="wgrave.sc" horiz-adv-x="866" 
d="M445 590q-52 55 -128 103q10 29 39 51t57 22q52 -73 69 -154zM245 0l-172 451q-13 32 -25.5 40.5t-52.5 16.5v22h295v-22q-21 -5 -28 -7t-15 -8t-7 -15.5t7 -26.5l85 -253l59 167q41 123 -67 143v22h229q0 -42 34 -136l69 -195l74 208q20 57 2.5 74.5t-76.5 26.5v22h215
v-22q-29 -6 -39 -9.5t-20.5 -14t-18.5 -33.5l-166 -450h-58l-136 352l-130 -353h-58z" />
    <glyph glyph-name="x.sc" horiz-adv-x="670" 
d="M543 93q26 -36 46.5 -45t75.5 -18v-30h-338v30q6 1 19 3.5t16.5 3.5t11 4t8 6.5t0.5 9.5t-5 14.5t-13 20.5l-85 119l-86 -116q-18 -24 -18.5 -37t10 -17.5t35.5 -9.5q5 -1 7 -1v-30h-216v30q63 10 80 20q21 12 46 44l116 153l-131 184q-28 39 -49 50t-71 19v30h330v-30
q-21 -4 -26.5 -5.5t-16 -6.5t-9.5 -11t5 -17.5t16 -28.5l61 -86l68 90q12 16 15.5 27t4 17t-10.5 11t-17 6.5t-27 5.5v30h210v-30q-57 -10 -75 -20q-21 -14 -46 -47l-96 -126z" />
    <glyph glyph-name="y.sc" horiz-adv-x="600" 
d="M405 530h195v-30q-37 -8 -47.5 -15.5t-35.5 -46.5l-132 -208v-129q0 -24 4.5 -38.5t20 -22.5t24.5 -10.5t39 -7.5v-22h-333v22q55 10 68 20q20 16 20 59v110l-146 227q-25 38 -36 46.5t-46 15.5v30h312v-30q-5 -1 -22 -4.5t-22.5 -6t-12.5 -8.5t-4.5 -16.5t12.5 -26.5
l101 -161l100 161q5 8 8 15t2.5 12.5t-1.5 9t-5.5 7t-8 5.5t-11.5 4t-12.5 3t-15 3t-15.5 3v30z" />
    <glyph glyph-name="yacute.sc" horiz-adv-x="600" 
d="M444 693q-76 -48 -128 -103l-37 22q17 81 69 154q28 0 57 -22t39 -51zM405 530h195v-30q-37 -8 -47.5 -15.5t-35.5 -46.5l-132 -208v-129q0 -24 4.5 -38.5t20 -22.5t24.5 -10.5t39 -7.5v-22h-333v22q55 10 68 20q20 16 20 59v110l-146 227q-25 38 -36 46.5t-46 15.5v30
h312v-30q-5 -1 -22 -4.5t-22.5 -6t-12.5 -8.5t-4.5 -16.5t12.5 -26.5l101 -161l100 161q5 8 8 15t2.5 12.5t-1.5 9t-5.5 7t-8 5.5t-11.5 4t-12.5 3t-15 3t-15.5 3v30z" />
    <glyph glyph-name="ycircumflex.sc" horiz-adv-x="600" 
d="M303 690l-129 -79l-15 20l144 148l144 -150l-15 -18zM405 530h195v-30q-37 -8 -47.5 -15.5t-35.5 -46.5l-132 -208v-129q0 -24 4.5 -38.5t20 -22.5t24.5 -10.5t39 -7.5v-22h-333v22q55 10 68 20q20 16 20 59v110l-146 227q-25 38 -36 46.5t-46 15.5v30h312v-30
q-5 -1 -22 -4.5t-22.5 -6t-12.5 -8.5t-4.5 -16.5t12.5 -26.5l101 -161l100 161q5 8 8 15t2.5 12.5t-1.5 9t-5.5 7t-8 5.5t-11.5 4t-12.5 3t-15 3t-15.5 3v30z" />
    <glyph glyph-name="ydieresis.sc" horiz-adv-x="600" 
d="M196 640q-29 0 -50 21t-21 50q0 28 21 48.5t50 20.5q28 0 48.5 -20.5t20.5 -48.5q0 -29 -20.5 -50t-48.5 -21zM424 640q-29 0 -50 21t-21 50q0 28 21 48.5t50 20.5q28 0 48.5 -20.5t20.5 -48.5q0 -29 -20.5 -50t-48.5 -21zM405 530h195v-30q-37 -8 -47.5 -15.5
t-35.5 -46.5l-132 -208v-129q0 -24 4.5 -38.5t20 -22.5t24.5 -10.5t39 -7.5v-22h-333v22q55 10 68 20q20 16 20 59v110l-146 227q-25 38 -36 46.5t-46 15.5v30h312v-30q-5 -1 -22 -4.5t-22.5 -6t-12.5 -8.5t-4.5 -16.5t12.5 -26.5l101 -161l100 161q5 8 8 15t2.5 12.5
t-1.5 9t-5.5 7t-8 5.5t-11.5 4t-12.5 3t-15 3t-15.5 3v30z" />
    <glyph glyph-name="ygrave.sc" horiz-adv-x="600" 
d="M323 590q-52 55 -128 103q10 29 39 51t57 22q52 -73 69 -154zM405 530h195v-30q-37 -8 -47.5 -15.5t-35.5 -46.5l-132 -208v-129q0 -24 4.5 -38.5t20 -22.5t24.5 -10.5t39 -7.5v-22h-333v22q55 10 68 20q20 16 20 59v110l-146 227q-25 38 -36 46.5t-46 15.5v30h312v-30
q-5 -1 -22 -4.5t-22.5 -6t-12.5 -8.5t-4.5 -16.5t12.5 -26.5l101 -161l100 161q5 8 8 15t2.5 12.5t-1.5 9t-5.5 7t-8 5.5t-11.5 4t-12.5 3t-15 3t-15.5 3v30z" />
    <glyph glyph-name="z.sc" horiz-adv-x="571" 
d="M26 0l-11 15l337 481l-133 -4q-72 -3 -100.5 -31.5t-33.5 -95.5h-33v171l67 -6h428l-346 -496l176 4q69 1 97 31t43 98h34q-19 -95 -19 -167h-506z" />
    <glyph glyph-name="zacute.sc" horiz-adv-x="571" 
d="M290 590l-37 22q17 81 69 154q28 0 57 -22t39 -51q-76 -48 -128 -103zM26 0l-11 15l337 481l-133 -4q-72 -3 -100.5 -31.5t-33.5 -95.5h-33v171l67 -6h428l-346 -496l176 4q69 1 97 31t43 98h34q-19 -95 -19 -167h-506z" />
    <glyph glyph-name="zcaron.sc" horiz-adv-x="571" 
d="M281 609l-144 148l15 20l129 -79l129 79l15 -18zM26 0l-11 15l337 481l-133 -4q-72 -3 -100.5 -31.5t-33.5 -95.5h-33v171l67 -6h428l-346 -496l176 4q69 1 97 31t43 98h34q-19 -95 -19 -167h-506z" />
    <glyph glyph-name="zdotaccent.sc" horiz-adv-x="571" 
d="M283 583q-35 0 -60.5 25t-25.5 59t25.5 58t60.5 24t60.5 -24t25.5 -58t-25.5 -59t-60.5 -25zM26 0l-11 15l337 481l-133 -4q-72 -3 -100.5 -31.5t-33.5 -95.5h-33v171l67 -6h428l-346 -496l176 4q69 1 97 31t43 98h34q-19 -95 -19 -167h-506z" />
    <glyph glyph-name="zero.lf" horiz-adv-x="624" 
d="M310 -9q-121 0 -196.5 89.5t-75.5 230.5q0 142 76.5 234t199.5 92q121 0 196.5 -89.5t75.5 -231.5t-76.5 -233.5t-199.5 -91.5zM327 32q55 0 77.5 64t22.5 190q0 143 -31.5 226.5t-98.5 83.5q-55 0 -77.5 -64t-22.5 -191q0 -142 31.5 -225.5t98.5 -83.5z" />
    <glyph glyph-name="one.lf" horiz-adv-x="406" 
d="M33 0v30q59 7 77 17t18 41v404q0 28 -11 37.5t-30 5.5l-50 -10v30l221 91l20 -16v-542q0 -31 18 -41t77 -17v-30h-340z" />
    <glyph glyph-name="two.lf" horiz-adv-x="571" 
d="M36 0l-8 31q11 9 46 39.5t50 44t47 42.5t47.5 46t41 44.5t38 48t26.5 45.5t20 48t6 45q0 48 -27.5 81t-82.5 33q-95 0 -162 -103l-32 19q35 83 103 128t151 45q87 0 147 -49.5t60 -123.5q0 -41 -20 -83.5t-49 -76.5t-68.5 -69t-70.5 -57t-63 -44.5t-40 -28.5h149
q29 0 45 1t36.5 5.5t33 13t25 25t21.5 41.5h37l-54 -213h-37l-2 22h-414z" />
    <glyph glyph-name="three.lf" horiz-adv-x="532" 
d="M207 -12q-70 0 -127 21t-57 59q0 19 13 30.5t32 11.5q18 0 36 -12.5t31 -28t36.5 -28t52.5 -12.5q54 0 96.5 38t42.5 109q0 68 -43.5 102.5t-111.5 34.5q-41 0 -87 -16l-12 33l76 31q85 35 116 58t31 65q0 40 -28 59t-75 19q-97 0 -157 -67l-27 23q40 60 103 89.5
t131 29.5q77 0 125 -34.5t49 -92.5q1 -51 -36.5 -85t-111.5 -62q51 -3 93.5 -18.5t74 -51.5t31.5 -89q0 -94 -89 -155t-208 -61z" />
    <glyph glyph-name="four.lf" horiz-adv-x="561" 
d="M523 170h-85v-82q0 -31 16.5 -41t68.5 -17v-30h-320v30q52 7 68.5 17t16.5 41v82h-252l-18 26l360 444h60v-415h95zM92 225h196v244z" />
    <glyph glyph-name="five.lf" horiz-adv-x="512" 
d="M135 394q78 13 134 2.5t92.5 -29t57.5 -49.5t29.5 -59.5t8.5 -58.5q0 -88 -72.5 -150t-184.5 -62q-37 0 -74 7t-67.5 26.5t-30.5 46.5q0 19 13 30.5t32 11.5q15 0 27 -8.5t21 -20t19 -23.5t26 -20.5t38 -8.5q49 0 82.5 38.5t33.5 98.5q0 32 -11 61t-38.5 56.5t-74 34.5
t-117.5 -6l-17 19l104 299h167q40 0 58.5 1t38.5 8t31 22h26l-48 -138h-260z" />
    <glyph glyph-name="six.lf" horiz-adv-x="563" 
d="M283 -12q-121 0 -185 75t-63 194q0 82 35 153.5t90.5 119t122.5 75.5t134 32l19 -37q-108 -10 -180.5 -101.5t-72.5 -258.5q0 -214 111 -214q100 0 100 167q0 91 -38 137.5t-112 29.5v33q32 18 71.5 21.5t78.5 -9t71.5 -37t52.5 -65t20 -89.5q0 -96 -70.5 -161
t-184.5 -65z" />
    <glyph glyph-name="seven.lf" horiz-adv-x="516" 
d="M492 630l11 -15q-205 -296 -279 -615h-101q77 246 262 523h-194q-58 0 -85 -12.5t-49 -62.5h-29l61 199h29l2 -17h372z" />
    <glyph glyph-name="eight.lf" horiz-adv-x="569" 
d="M400 347q131 -62 131 -171q0 -85 -74 -137t-181 -52q-99 0 -168.5 46.5t-69.5 128.5q0 98 100 157q-60 60 -60 134q0 75 63 126t148 51q77 0 131 -46t54 -109q0 -74 -74 -128zM288 587q-42 0 -66.5 -26.5t-24.5 -61.5q0 -75 101 -113l48 -17q45 42 45 102q0 46 -27.5 81
t-75.5 35zM281 29q50 0 80 28t30 77q0 37 -21.5 62t-77.5 46l-71 26q-20 7 -40 18q-55 -45 -55 -114q0 -63 45 -103t110 -40z" />
    <glyph glyph-name="nine.lf" horiz-adv-x="563" 
d="M280 637q121 0 185 -75t63 -194q0 -82 -35 -153.5t-90.5 -119t-122.5 -75.5t-134 -32l-19 37q108 10 180.5 101.5t72.5 258.5q0 214 -111 214q-100 0 -100 -167q0 -91 38 -137.5t112 -29.5v-33q-32 -18 -71.5 -21.5t-78.5 9t-71.5 37t-52.5 65t-20 89.5q0 96 70.5 161
t184.5 65z" />
    <glyph glyph-name="zero.tf" horiz-adv-x="576" 
d="M286 -9q-121 0 -196.5 89.5t-75.5 230.5q0 142 76.5 234t199.5 92q121 0 196.5 -89.5t75.5 -231.5t-76.5 -233.5t-199.5 -91.5zM303 32q55 0 77.5 64t22.5 190q0 143 -31.5 226.5t-98.5 83.5q-55 0 -77.5 -64t-22.5 -191q0 -142 31.5 -225.5t98.5 -83.5z" />
    <glyph glyph-name="one.tf" horiz-adv-x="576" 
d="M97 0v30q74 7 94.5 16.5t20.5 41.5v404q0 28 -11 37.5t-30 5.5l-70 -10v30l241 91l20 -16v-542q0 -32 20.5 -41.5t94.5 -16.5v-30h-380z" />
    <glyph glyph-name="two.tf" horiz-adv-x="576" 
d="M33 0l-8 31q11 9 46 39.5t50 44t47 42.5t47.5 46t41 44.5t38 48t26.5 45.5t20 48t6 45q0 48 -27.5 81t-82.5 33q-95 0 -162 -103l-32 19q35 83 103 128t151 45q87 0 147 -49.5t60 -123.5q0 -41 -20 -83.5t-49 -76.5t-68.5 -69t-70.5 -57t-63 -44.5t-40 -28.5h149
q29 0 45 1t36.5 5.5t33 13t25 25t21.5 41.5h37l-54 -213h-37l-2 22h-414z" />
    <glyph glyph-name="three.tf" horiz-adv-x="576" 
d="M236 -12q-70 0 -127 21t-57 59q0 19 13 30.5t32 11.5q23 0 44 -20t48 -40.5t64 -20.5q54 0 96.5 38t42.5 109q0 68 -43.5 102.5t-111.5 34.5q-41 0 -87 -16l-12 33l76 31q85 35 116 58t31 65q0 40 -28 59t-75 19q-97 0 -157 -67l-27 23q40 60 103 89.5t131 29.5
q77 0 125 -34.5t49 -92.5q1 -51 -36.5 -85t-111.5 -62q51 -3 93.5 -18.5t74 -51.5t31.5 -89q0 -94 -89 -155t-208 -61z" />
    <glyph glyph-name="four.tf" horiz-adv-x="576" 
d="M513 170h-85v-82q0 -31 16.5 -41t68.5 -17v-30h-320v30q52 7 68.5 17t16.5 41v82h-252l-18 26l360 444h60v-415h95zM82 225h196v244z" />
    <glyph glyph-name="five.tf" horiz-adv-x="576" 
d="M149 394q78 13 134 2.5t92.5 -29t57.5 -49.5t29.5 -59.5t8.5 -58.5q0 -88 -72.5 -150t-184.5 -62q-37 0 -74 7t-67.5 26.5t-30.5 46.5q0 19 13 30.5t32 11.5q15 0 27 -8.5t21 -20t19 -23.5t26 -20.5t38 -8.5q49 0 82.5 38.5t33.5 98.5q0 32 -11 61t-38.5 56.5t-74 34.5
t-117.5 -6l-17 19l104 299h167q40 0 58.5 1t38.5 8t31 22h26l-48 -138h-260z" />
    <glyph glyph-name="six.tf" horiz-adv-x="576" 
d="M273 -12q-121 0 -185 75t-63 194q0 82 35 153.5t90.5 119t122.5 75.5t134 32l19 -37q-108 -10 -180.5 -101.5t-72.5 -258.5q0 -214 111 -214q100 0 100 167q0 91 -38 137.5t-112 29.5v33q32 18 71.5 21.5t78.5 -9t71.5 -37t52.5 -65t20 -89.5q0 -96 -70.5 -161
t-184.5 -65z" />
    <glyph glyph-name="seven.tf" horiz-adv-x="576" 
d="M520 630l11 -15q-205 -296 -279 -615h-101q77 246 262 523h-194q-58 0 -85 -12.5t-49 -62.5h-29l61 199h29l2 -17h372z" />
    <glyph glyph-name="eight.tf" horiz-adv-x="576" 
d="M403 347q131 -62 131 -171q0 -85 -74 -137t-181 -52q-99 0 -168.5 46.5t-69.5 128.5q0 98 100 157q-60 60 -60 134q0 75 63 126t148 51q77 0 131 -46t54 -109q0 -74 -74 -128zM291 587q-42 0 -66.5 -26.5t-24.5 -61.5q0 -75 101 -113l48 -17q45 42 45 102q0 46 -27.5 81
t-75.5 35zM284 29q50 0 80 28t30 77q0 37 -21.5 62t-77.5 46l-71 26q-20 7 -40 18q-55 -45 -55 -114q0 -63 45 -103t110 -40z" />
    <glyph glyph-name="nine.tf" horiz-adv-x="576" 
d="M286 637q121 0 185 -75t63 -194q0 -82 -35 -153.5t-90.5 -119t-122.5 -75.5t-134 -32l-19 37q108 10 180.5 101.5t72.5 258.5q0 214 -111 214q-100 0 -100 -167q0 -91 38 -137.5t112 -29.5v-33q-32 -18 -71.5 -21.5t-78.5 9t-71.5 37t-52.5 65t-20 89.5q0 96 70.5 161
t184.5 65z" />
    <glyph glyph-name="zero.dnom" horiz-adv-x="272" 
d="M135 -10q-48 0 -77.5 36t-29.5 91q0 56 30 93t79 37q48 0 77.5 -36t29.5 -92t-30 -92.5t-79 -36.5zM142 6q47 0 47 101q0 56 -15.5 90t-43.5 34q-47 0 -47 -102q0 -55 15.5 -89t43.5 -34z" />
    <glyph glyph-name="one.dnom" horiz-adv-x="191" 
d="M33 0v10q22 2 30 6t8 16v165q0 11 -4 14.5t-12 1.5l-20 -5v11l77 33l8 -6v-214q0 -12 8 -16t30 -6v-10h-125z" />
    <glyph glyph-name="two.dnom" horiz-adv-x="254" 
d="M31 0l-3 11q5 4 20 17t21 18t19 17t19.5 19t16.5 18t15 19t10.5 17.5t8 18.5t2.5 18q0 20 -12 34t-35 14q-41 0 -66 -42l-11 7q12 31 38.5 48.5t58.5 17.5q35 0 58 -20t23 -50q0 -23 -17 -48t-35 -40t-45.5 -35.5t-32.5 -24.5h66q27 0 40.5 6.5t22.5 29.5h13l-19 -70
h-176z" />
    <glyph glyph-name="three.dnom" horiz-adv-x="241" 
d="M97 -10q-27 0 -48 7.5t-21 22.5t17 15q9 0 25.5 -15.5t33.5 -15.5q23 0 42 16.5t19 44.5q0 27 -18 40.5t-45 13.5q-17 0 -36 -7l-5 12l31 12q32 12 45.5 22.5t13.5 28.5q0 32 -41 32t-64 -27l-10 8q32 47 92 47q29 0 47.5 -14t18.5 -37q0 -33 -56 -58q31 -2 53 -17
t22 -45q0 -37 -34 -61.5t-82 -24.5z" />
    <glyph glyph-name="four.dnom" horiz-adv-x="245" 
d="M180 32q0 -12 7.5 -16t29.5 -6v-10h-124v10q22 2 29.5 6t7.5 16v34h-108l-4 20l116 160h46v-160h37l-4 -20h-33v-34zM38 86h92v127z" />
    <glyph glyph-name="five.dnom" horiz-adv-x="239" 
d="M72 153q82 5 112 -18t30 -54q0 -39 -34 -65t-83 -26q-25 0 -47 7.5t-22 22.5t17 15q9 0 26 -15.5t35 -15.5q23 0 41 16.5t18 43.5q0 63 -113 56l-7 8l39 112h67q39 0 48 12h9l-17 -49h-102z" />
    <glyph glyph-name="six.dnom" horiz-adv-x="264" 
d="M137 -10q-47 0 -75 30t-27 76q1 62 48.5 105t104.5 46l7 -13q-44 -4 -76.5 -41.5t-32.5 -102.5q0 -38 14 -61.5t39 -23.5q24 0 36.5 19.5t12.5 49.5q0 73 -76 68v13q46 14 86.5 -7.5t40.5 -67.5q0 -39 -29 -64.5t-73 -25.5z" />
    <glyph glyph-name="seven.dnom" horiz-adv-x="218" 
d="M200 246l5 -6q-80 -122 -108 -240h-33q29 95 105 213h-83q-14 0 -20.5 -1.5t-14.5 -8t-14 -19.5h-9l21 66l18 -4h133z" />
    <glyph glyph-name="eight.dnom" horiz-adv-x="275" 
d="M183 132q54 -23 54 -67q0 -33 -28.5 -54t-73.5 -21q-42 0 -69.5 19t-27.5 51q0 41 44 63q-28 22 -28 54q0 28 23.5 47.5t60.5 19.5q35 0 56.5 -18t21.5 -42q0 -29 -33 -52zM138 227q-22 0 -32.5 -10.5t-10.5 -25.5q0 -28 43 -43l26 -9q21 17 21 44q0 18 -11.5 31
t-35.5 13zM138 7q52 0 52 43q0 17 -10 26t-39 20l-27 10q-10 3 -15 7q-29 -19 -29 -50q0 -25 18 -40.5t50 -15.5z" />
    <glyph glyph-name="nine.dnom" horiz-adv-x="264" 
d="M127 243q47 0 75 -30t27 -76q-1 -62 -48.5 -105t-104.5 -46l-7 13q44 4 76.5 41.5t32.5 102.5q0 38 -14 61.5t-39 23.5q-24 0 -36.5 -19.5t-12.5 -49.5q0 -73 76 -68v-13q-46 -14 -86.5 7.5t-40.5 67.5q0 39 29 64.5t73 25.5z" />
    <glyph glyph-name="zero.numr" horiz-adv-x="272" 
d="M135 389q-48 0 -77.5 36t-29.5 91q0 56 30 93t79 37q48 0 77.5 -36t29.5 -92t-30 -92.5t-79 -36.5zM142 405q47 0 47 101q0 56 -15.5 90t-43.5 34q-47 0 -47 -102q0 -55 15.5 -89t43.5 -34z" />
    <glyph glyph-name="one.numr" horiz-adv-x="191" 
d="M33 398v10q22 2 30 6t8 16v165q0 11 -4 14.5t-12 1.5l-20 -5v11l77 33l8 -6v-214q0 -12 8 -16t30 -6v-10h-125z" />
    <glyph glyph-name="two.numr" horiz-adv-x="254" 
d="M31 393l-3 11q5 4 20 17t21 18t19 17t19.5 19t16.5 18t15 19t10.5 17.5t8 18.5t2.5 18q0 20 -12 34t-35 14q-41 0 -66 -42l-11 7q12 31 38.5 48.5t58.5 17.5q35 0 58 -20t23 -50q0 -23 -17 -48t-35 -40t-45.5 -35.5t-32.5 -24.5h66q27 0 40.5 6.5t22.5 29.5h13l-19 -70
h-176z" />
    <glyph glyph-name="three.numr" horiz-adv-x="241" 
d="M97 384q-27 0 -48 7.5t-21 22.5t17 15q9 0 25.5 -15.5t33.5 -15.5q23 0 42 16.5t19 44.5q0 27 -18 40.5t-45 13.5q-17 0 -36 -7l-5 12l31 12q32 12 45.5 22.5t13.5 28.5q0 32 -41 32t-64 -27l-10 8q32 47 92 47q29 0 47.5 -14t18.5 -37q0 -33 -56 -58q31 -2 53 -17
t22 -45q0 -37 -34 -61.5t-82 -24.5z" />
    <glyph glyph-name="four.numr" horiz-adv-x="245" 
d="M180 423q0 -12 7.5 -16t29.5 -6v-10h-124v10q22 2 29.5 6t7.5 16v34h-108l-4 20l116 160h46v-160h37l-4 -20h-33v-34zM38 477h92v127z" />
    <glyph glyph-name="five.numr" horiz-adv-x="239" 
d="M72 553q82 5 112 -18t30 -54q0 -39 -34 -65t-83 -26q-25 0 -47 7.5t-22 22.5t17 15q9 0 26 -15.5t35 -15.5q23 0 41 16.5t18 43.5q0 63 -113 56l-7 8l39 112h67q39 0 48 12h9l-17 -49h-102z" />
    <glyph glyph-name="six.numr" horiz-adv-x="264" 
d="M137 383q-47 0 -75 30t-27 76q1 62 48.5 105t104.5 46l7 -13q-44 -4 -76.5 -41.5t-32.5 -102.5q0 -38 14 -61.5t39 -23.5q24 0 36.5 19.5t12.5 49.5q0 73 -76 68v13q46 14 86.5 -7.5t40.5 -67.5q0 -39 -29 -64.5t-73 -25.5z" />
    <glyph glyph-name="seven.numr" horiz-adv-x="218" 
d="M200 644l5 -6q-80 -122 -108 -240h-33q29 95 105 213h-83q-14 0 -20.5 -1.5t-14.5 -8t-14 -19.5h-9l21 66l18 -4h133z" />
    <glyph glyph-name="eight.numr" horiz-adv-x="275" 
d="M183 530q54 -23 54 -67q0 -33 -28.5 -54t-73.5 -21q-42 0 -69.5 19t-27.5 51q0 41 44 63q-28 22 -28 54q0 28 23.5 47.5t60.5 19.5q35 0 56.5 -18t21.5 -42q0 -29 -33 -52zM138 625q-22 0 -32.5 -10.5t-10.5 -25.5q0 -28 43 -43l26 -9q21 17 21 44q0 18 -11.5 31
t-35.5 13zM138 405q52 0 52 43q0 17 -10 26t-39 20l-27 10q-10 3 -15 7q-29 -19 -29 -50q0 -25 18 -40.5t50 -15.5z" />
    <glyph glyph-name="nine.numr" horiz-adv-x="264" 
d="M127 637q47 0 75 -30t27 -76q-1 -62 -48.5 -105t-104.5 -46l-7 13q44 4 76.5 41.5t32.5 102.5q0 38 -14 61.5t-39 23.5q-24 0 -36.5 -19.5t-12.5 -49.5q0 -73 76 -68v-13q-46 -14 -86.5 7.5t-40.5 67.5q0 39 29 64.5t73 25.5z" />
    </font>
</defs>
</svg>
