<?xml version="1.0" standalone="no"?>
<!DOCTYPE svg PUBLIC "-//W3C//DTD SVG 1.1//EN" "http://www.w3.org/Graphics/SVG/1.1/DTD/svg11.dtd" >
<svg xmlns="http://www.w3.org/2000/svg" xmlns:xlink="http://www.w3.org/1999/xlink" version="1.1">
<metadata>
Created by FontForge 20170731 at Tue Jun  5 16:44:14 2018
 By Aleksey,,,
Copyright (c) 2018 by Connary Fagen. All rights reserved.
</metadata>
<defs>
<font id="AddingtonCF-MediumItalic" horiz-adv-x="660" >
  <font-face 
    font-family="Addington CF Medium"
    font-weight="500"
    font-style="italic"
    font-stretch="normal"
    units-per-em="1000"
    panose-1="0 0 6 0 0 0 0 0 0 0"
    ascent="800"
    descent="-200"
    x-height="437"
    cap-height="630"
    bbox="-315 -332 1055 902"
    underline-thickness="50"
    underline-position="-200"
    slope="-18"
    unicode-range="U+0020-FB02"
  />
<missing-glyph horiz-adv-x="488" 
d="M400 800v-975h-309v975h309zM325 735h-161v-32h63v-37h-64v-32h162v32h-65v37h65v32zM260 609h-97v-101h162v33h-65v68zM227 576v-35h-32v35h32zM325 481h-162v-32h64v-36h-64v-32h97v68h65v32zM325 423h-32v-65h-130v-33h162v98zM325 304h-98v-55h33v23h33v-46h-98v78
h-32v-110h162v110zM325 135h-162v-110h162v110zM293 103v-46h-98v46h98zM325 2h-162v-32h68l-68 -46v-32h162v32h-100l68 46h32v32z" />
    <glyph glyph-name="fi" unicode="fi" horiz-adv-x="624" 
d="M650 632q5 -12 5 -24q0 -25 -19 -43t-44 -18q-26 0 -45 18t-19 43q0 8 4 22q13 48 -48 48q-55 0 -105.5 -35t-74.5 -121l-26 -92h106l-14 -42l-102 5l-88 -310q-37 -132 -101.5 -200.5t-145.5 -68.5q-45 0 -70.5 20t-25.5 48q0 20 13.5 34t33.5 14q22 0 32.5 -16.5
t9.5 -36.5q-1 -33 32 -33q32 0 56 31.5t47 114.5l114 408l-110 6l8 26h111q39 138 117.5 208t188.5 70q63 0 104.5 -21t55.5 -55zM549 437q30 0 42 -20t1 -48l-108 -259q-19 -45 -1 -41q25 5 87 89l17 -18q-98 -150 -171 -150q-30 0 -41.5 20.5t-0.5 47.5l108 259
q19 46 0 41q-26 -6 -88 -89l-16 18q97 150 171 150z" />
    <glyph glyph-name="fl" unicode="fl" horiz-adv-x="597" 
d="M463 110q-16 -45 1 -41q23 7 85 91l17 -18q-98 -152 -176 -152q-26 0 -37.5 16.5t-1.5 43.5l200 580q0 20 -19 34t-53 14q-23 0 -46 -6.5t-48.5 -22.5t-47 -48.5t-34.5 -78.5l-26 -92h110l-14 -42l-106 6l-87 -311q-37 -132 -101.5 -200.5t-145.5 -68.5q-44 0 -70 20
t-26 48q0 20 13.5 34t33.5 14q22 0 32.5 -16.5t9.5 -36.5q-1 -33 32 -33q32 0 56 31.5t47 114.5l114 408l-107 6l8 26h108q38 137 113.5 207.5t174.5 70.5q63 0 116.5 -25t53.5 -53z" />
    <glyph glyph-name="f_f" unicode="ff" horiz-adv-x="698" 
d="M749 698q45 0 69.5 -19.5t24.5 -46.5q0 -21 -13.5 -35.5t-33.5 -14.5q-40 0 -40 51q0 35 -36 35q-32 0 -54 -30.5t-46 -115.5l-26 -92h110l-14 -42l-107 3l-87 -308q-37 -132 -101.5 -200.5t-145.5 -68.5q-45 0 -70.5 20t-25.5 48q0 20 14 34t34 14q22 0 32 -16.5
t9 -36.5q-1 -33 33 -33q31 0 54.5 31.5t47.5 114.5l113 403l-222 7l-98 -347q-37 -133 -101.5 -201.5t-145.5 -68.5q-45 0 -70.5 20t-25.5 48q0 21 13.5 34.5t33.5 13.5q22 0 32.5 -16.5t9.5 -35.5q-1 -34 32 -34q32 0 55.5 31t47.5 115l123 440v1l1 2l-108 3l8 25h108
q39 117 101.5 177.5t138.5 60.5q45 0 69.5 -19.5t24.5 -47.5q0 -21 -13.5 -35t-33.5 -14q-22 0 -31 15.5t-9 34.5q0 36 -36 36q-32 0 -54 -30.5t-46 -115.5l-18 -62h224q38 132 103 200t146 68z" />
    <glyph glyph-name="f_f_i" unicode="ffi" horiz-adv-x="940" 
d="M966 632q5 -12 5 -24q0 -25 -19 -43t-44 -18q-26 0 -45 18t-19 43q0 8 4 22q13 48 -48 48q-55 0 -105.5 -35t-74.5 -121l-26 -92h110l-14 -42l-107 3l-87 -308q-37 -132 -101.5 -200.5t-145.5 -68.5q-45 0 -70.5 20t-25.5 48q0 20 14 34t34 14q22 0 32 -16.5t9 -36.5
q-1 -33 33 -33q31 0 55 31.5t47 114.5l113 403l-222 7l-98 -347q-37 -133 -101.5 -201.5t-145.5 -68.5q-45 0 -70.5 20t-25.5 48q0 21 13.5 34.5t33.5 13.5q22 0 32.5 -16.5t9.5 -35.5q-1 -34 32 -34q32 0 55.5 31t47.5 115l123 440v1l1 2l-108 3l8 25h108
q39 117 101.5 177.5t138.5 60.5q45 0 69.5 -19.5t24.5 -47.5q0 -21 -13.5 -35t-33.5 -14q-22 0 -31 15.5t-9 34.5q0 36 -36 36q-32 0 -54 -30.5t-46 -115.5l-18 -62h224q39 138 117.5 208t188.5 70q63 0 104.5 -21t55.5 -55zM865 437q30 0 42 -20t1 -48l-108 -259
q-19 -45 -1 -41q25 5 87 89l17 -18q-98 -150 -171 -150q-30 0 -41.5 20.5t-0.5 47.5l108 259q19 46 0 41q-26 -6 -88 -89l-16 18q97 150 171 150z" />
    <glyph glyph-name=".notdef" horiz-adv-x="488" 
d="M400 800v-975h-309v975h309zM325 735h-161v-32h63v-37h-64v-32h162v32h-65v37h65v32zM260 609h-97v-101h162v33h-65v68zM227 576v-35h-32v35h32zM325 481h-162v-32h64v-36h-64v-32h97v68h65v32zM325 423h-32v-65h-130v-33h162v98zM325 304h-98v-55h33v23h33v-46h-98v78
h-32v-110h162v110zM325 135h-162v-110h162v110zM293 103v-46h-98v46h98zM325 2h-162v-32h68l-68 -46v-32h162v32h-100l68 46h32v32z" />
    <glyph glyph-name=".null" horiz-adv-x="0" 
 />
    <glyph glyph-name="nonmarkingreturn" horiz-adv-x="333" 
 />
    <glyph glyph-name="space" unicode=" " horiz-adv-x="187" 
 />
    <glyph glyph-name="exclam" unicode="!" horiz-adv-x="229" 
d="M78 187l90 403q14 63 66 63q32 0 43 -17.5t-3 -53.5l-170 -395h-26zM63 -10q-28 0 -48.5 20t-20.5 48q0 27 20.5 46.5t48.5 19.5q27 0 47 -19.5t20 -46.5q0 -28 -20 -48t-47 -20z" />
    <glyph glyph-name="quotedbl" unicode="&#x22;" horiz-adv-x="268" 
d="M110 388l30 190q3 25 16.5 38.5t34.5 13.5q23 0 30 -20t-6 -45l-91 -177h-14zM239 388l30 190q3 25 16.5 38.5t34.5 13.5q23 0 30 -20t-6 -45l-91 -177h-14z" />
    <glyph glyph-name="numbersign" unicode="#" horiz-adv-x="473" 
d="M502 417h-89l-73 -190h91l-20 -50h-90l-79 -207h-51l80 207h-109l-79 -207h-51l80 207h-90l20 50h89l73 190h-91l20 49h90l79 206h49l-79 -206h110l79 206h50l-79 -206h90zM290 227l73 190h-109l-73 -190h109z" />
    <glyph glyph-name="dollar" unicode="$" horiz-adv-x="486" 
d="M416 612q73 -9 113 -52l-36 -115h-21q16 119 -69 135l-84 -207q1 0 1 -0.5t1 -0.5q65 -47 88 -75q34 -43 34 -91q0 -79 -77.5 -133t-185.5 -54h-3l-33 -81h-31l33 83q-87 9 -136 58l31 115h22q-7 -61 19 -98t78 -43l97 240l-6 4q-37 27 -53 39.5t-35.5 43.5t-19.5 66
q0 74 66.5 121.5t164.5 47.5h13l33 82h30zM247 478q0 -43 49 -87l78 192q-55 0 -91 -31t-36 -74zM334 179q0 49 -54 96l-90 -223q61 4 102.5 40.5t41.5 86.5z" />
    <glyph glyph-name="percent" unicode="%" horiz-adv-x="691" 
d="M670 636l63 -6l-651 -630h-57l565 543q-36 -15 -73 -15q-52 0 -99 29q-2 -80 -75.5 -157.5t-152.5 -77.5q-37 0 -57.5 21t-20.5 58q0 81 75.5 156.5t157.5 75.5q42 0 59 -25q70 -50 122 -50q66 0 144 78zM211 354q53 0 115.5 77.5t62.5 132.5q0 38 -38 38
q-51 0 -110.5 -80.5t-59.5 -136.5q0 -31 30 -31zM573 309q73 0 73 -72q0 -81 -74 -160t-154 -79q-38 0 -58.5 21t-20.5 58q0 80 76 156t158 76zM439 31q53 0 115.5 77.5t62.5 132.5q0 37 -38 37q-51 0 -111 -80t-60 -136q0 -31 31 -31z" />
    <glyph glyph-name="ampersand" unicode="&#x26;" horiz-adv-x="652" 
d="M683 427q13 -48 -19.5 -84t-78.5 -36q-31 0 -70 27q10 -134 -70 -240t-205 -106q-96 0 -149.5 62t-53.5 150q0 83 45 148.5t109 93.5t124 14l41 90q21 55 19 71t-14.5 32t-12.5 31t9.5 25.5t27.5 10.5q22 0 33 -14.5t8.5 -45t-21.5 -71.5l-225 -493q37 -12 75 -12
q78 0 136 44t81 107t11 126q-18 10 -36 10q-28 0 -46.5 -20t-17.5 -42h-18q-12 50 19 86t78 36q32 0 74.5 -29.5t66.5 -29.5q27 0 45 19.5t17 39.5h18zM71 233q0 -89 83 -131l126 278q-30 20 -66.5 15.5t-68 -23t-53 -56t-21.5 -83.5z" />
    <glyph glyph-name="quotesingle" unicode="'" horiz-adv-x="139" 
d="M110 388l30 190q3 25 16.5 38.5t34.5 13.5q23 0 30 -20t-6 -45l-91 -177h-14z" />
    <glyph glyph-name="parenleft" unicode="(" horiz-adv-x="282" 
d="M119 -156q-94 91 -94 253q0 186 108.5 372t276.5 286l21 -15q-141 -126 -235 -332.5t-94 -389.5q0 -99 32 -171z" />
    <glyph glyph-name="parenright" unicode=")" horiz-adv-x="283" 
d="M222 755q94 -91 94 -252q0 -123 -49.5 -250.5t-137.5 -235t-199 -173.5l-21 15q142 125 236 332t94 390q0 99 -32 171z" />
    <glyph glyph-name="asterisk" unicode="*" horiz-adv-x="373" 
d="M265 522l-24 58q-11 27 0.5 41.5t31.5 14.5t31.5 -14.5t1.5 -41.5l-24 -58q-3 -8 -8.5 -8t-8.5 8zM233 492l-61 11q-28 5 -35.5 23.5t4.5 32.5q10 17 26.5 19t37.5 -20l38 -50q5 -6 1.5 -11.5t-11.5 -4.5zM313 492q-7 -1 -10.5 4.5t1.5 11.5l38 50q20 22 36.5 20
t27.5 -19q12 -14 4.5 -32.5t-35.5 -23.5zM140 406q-11 13 -3.5 32t35.5 23l61 11q8 1 11.5 -4.5t-1.5 -10.5l-38 -50q-21 -22 -38 -20t-27 19zM406 406q-10 -17 -27 -19t-37 20l-38 50q-5 5 -1.5 10.5t10.5 4.5l62 -11q28 -4 35.5 -23t-4.5 -32zM273 329q-20 0 -31.5 14
t-0.5 41l23 59q3 7 9 7t9 -7l23 -59q11 -27 -0.5 -41t-31.5 -14z" />
    <glyph glyph-name="plus" unicode="+" horiz-adv-x="425" 
d="M405 286l-23 -69h-135l-49 -152h-67l49 152h-136l23 69h135l49 150h67l-49 -150h136z" />
    <glyph glyph-name="comma" unicode="," horiz-adv-x="218" 
d="M-57 -151l-8 24q78 27 100 90q7 22 -15 36q-36 27 -36 57q0 28 21 48t50 20t48.5 -21.5t19.5 -57.5q0 -60 -50 -118.5t-130 -77.5z" />
    <glyph glyph-name="hyphen" unicode="-" horiz-adv-x="417" 
d="M54 231v51h310v-51h-310z" />
    <glyph glyph-name="period" unicode="." horiz-adv-x="227" 
d="M63 -10q-28 0 -48.5 20t-20.5 48q0 27 20.5 46.5t48.5 19.5q27 0 47 -19.5t20 -46.5q0 -28 -20 -48t-47 -20z" />
    <glyph glyph-name="slash" unicode="/" horiz-adv-x="356" 
d="M-67 -64l546 817l48 -31l-546 -817z" />
    <glyph glyph-name="zero" unicode="0" horiz-adv-x="497" 
d="M174 -9q-68 0 -109.5 40t-41.5 110q0 116 90 207t210 91q69 0 110 -40t41 -110q0 -115 -90.5 -206.5t-209.5 -91.5zM188 26q49 0 93.5 51t69 117t24.5 119q0 42 -16.5 66.5t-49.5 24.5q-48 0 -93 -50t-69.5 -116t-24.5 -120q0 -92 66 -92z" />
    <glyph glyph-name="one" unicode="1" horiz-adv-x="350" 
d="M181 81q-10 -31 4.5 -41t60.5 -16l-7 -24h-268l7 25q50 6 73.5 18t34.5 43l83 256q11 34 -3 46.5t-59 18.5l7 23h268l-7 -24q-49 -6 -74 -20.5t-36 -48.5z" />
    <glyph glyph-name="two" unicode="2" horiz-adv-x="409" 
d="M-24 0l-3 25q5 4 52 35.5t63.5 44t57.5 43t59.5 49t43.5 45t35 49t10 42.5q0 46 -55 46q-70 0 -137 -77l-16 25q39 56 92 84t107 28q49 0 77.5 -26t28.5 -68q0 -21 -6.5 -41t-22 -40t-28.5 -36t-39.5 -35.5t-40.5 -30.5t-46.5 -29.5t-42 -24t-42 -22.5t-33.5 -18l110 4
q42 0 71 14t58 55l22 -6l-83 -146h-23l2 11h-271z" />
    <glyph glyph-name="three" unicode="3" horiz-adv-x="434" 
d="M43 -190q-48 0 -83 18t-35 54q0 39 36 39q17 0 28 -12.5t16.5 -27.5t19.5 -27.5t35 -12.5q58 0 119.5 67t61.5 132q0 39 -26.5 58t-67.5 19q-34 0 -88 -22l-1 29l73 35q40 19 64 32t53.5 34t44 44.5t14.5 49.5q0 27 -16 42t-44 15q-72 0 -152 -80l-12 30q97 113 208 113
q49 0 77 -25t28 -69q0 -61 -49.5 -104.5t-128.5 -78.5q50 -2 86.5 -30t36.5 -82q0 -91 -96.5 -165.5t-201.5 -74.5z" />
    <glyph glyph-name="four" unicode="4" horiz-adv-x="467" 
d="M437 445l-133 -409h86l-24 -46h-77l-27 -84q-10 -30 1.5 -41t44.5 -17l-5 -23h-236l6 25q37 6 58 18.5t31 42.5l26 79h-229l-7 22l451 433h34zM14 36h189l87 264z" />
    <glyph glyph-name="five" unicode="5" horiz-adv-x="455" 
d="M427 341h-239l-80 -122q125 16 184 -27t59 -119q0 -69 -45 -130.5t-114.5 -97t-141.5 -35.5q-50 0 -88 17.5t-38 51.5q0 42 43 42q17 0 28.5 -12.5t17.5 -27.5t20 -27.5t36 -12.5q60 0 116.5 68.5t56.5 139.5q0 58 -45.5 89t-139.5 12l-13 20l167 260h153q44 0 70 6.5
t46 26.5h23z" />
    <glyph glyph-name="six" unicode="6" horiz-adv-x="514" 
d="M199 -12q-76 0 -114.5 44.5t-38.5 121.5q0 111 70.5 221.5t181 182.5t221.5 79l10 -30q-95 -9 -187.5 -91.5t-148 -192.5t-55.5 -203q0 -96 68 -96q70 0 129 86.5t59 167.5q0 87 -86 87q-20 0 -50 -6l9 22q40 27 93 27q59 0 95.5 -37t36.5 -103q0 -108 -89.5 -194
t-203.5 -86z" />
    <glyph glyph-name="seven" unicode="7" horiz-adv-x="464" 
d="M503 430l5 -20q-274 -293 -432 -604h-84q141 246 411 535h-189q-46 0 -74 -14t-66 -65h-25l112 185h21l-4 -17h325z" />
    <glyph glyph-name="eight" unicode="8" horiz-adv-x="504" 
d="M381 346q79 -46 79 -126q0 -94 -85.5 -161.5t-193.5 -67.5q-73 0 -116.5 36.5t-43.5 100.5q0 66 46.5 120.5t123.5 87.5q-36 40 -36 96q0 84 68 144.5t157 60.5q63 0 97.5 -32.5t34.5 -82.5q0 -52 -36 -98t-95 -78zM377 604q-53 0 -90 -43t-37 -91q0 -61 66 -92l29 -14
q47 29 75 73.5t28 91.5q0 34 -18 54.5t-53 20.5zM187 25q66 0 117.5 51t51.5 110q0 30 -19 51t-64 43l-28 15q-17 9 -27 16q-60 -29 -93.5 -77.5t-33.5 -105.5q0 -48 26 -75.5t70 -27.5z" />
    <glyph glyph-name="nine" unicode="9" horiz-adv-x="514" 
d="M314 440q76 0 115 -44.5t39 -121.5q0 -83 -42.5 -169.5t-109 -153t-153 -111.5t-169.5 -50l-10 31q71 7 144 58t126.5 122.5t87.5 154.5t34 152q0 96 -68 96q-70 0 -129 -86.5t-59 -167.5q0 -87 85 -87q21 0 50 6l-9 -22q-38 -27 -92 -27q-59 0 -96 37t-37 103
q0 108 89.5 194t203.5 86z" />
    <glyph glyph-name="colon" unicode=":" horiz-adv-x="230" 
d="M169 315q-28 0 -48 20t-20 48q0 27 20 46.5t48 19.5t48 -19.5t20 -46.5q0 -28 -20 -48t-48 -20zM63 -10q-28 0 -48.5 20t-20.5 48q0 27 20.5 46.5t48.5 19.5q27 0 47 -19.5t20 -46.5q0 -28 -20 -48t-47 -20z" />
    <glyph glyph-name="semicolon" unicode=";" horiz-adv-x="218" 
d="M159 314q-28 0 -48 20t-20 48q0 27 20 46.5t48 19.5t48 -19.5t20 -46.5q0 -28 -20 -48t-48 -20zM-57 -151l-8 24q78 27 100 90q7 22 -15 36q-36 27 -36 57q0 28 21 48t50 20t48.5 -21.5t19.5 -57.5q0 -60 -50 -118.5t-130 -77.5z" />
    <glyph glyph-name="less" unicode="&#x3c;" horiz-adv-x="447" 
d="M466 453l-23 -85q-145 -73 -313 -129q118 -46 226 -126l-20 -71q-124 93 -279 170l18 69q197 73 391 172z" />
    <glyph glyph-name="equal" unicode="=" horiz-adv-x="421" 
d="M74 307l22 69h333l-22 -69h-333zM16 127l22 69h333l-22 -69h-333z" />
    <glyph glyph-name="greater" unicode="&#x3e;" horiz-adv-x="446" 
d="M2 42l23 84q138 70 313 130q-118 44 -226 125l19 72q125 -94 280 -170l-19 -69q-197 -74 -390 -172z" />
    <glyph glyph-name="question" unicode="?" horiz-adv-x="434" 
d="M191 188q-1 39 13.5 73t39.5 61.5t51.5 54.5t52.5 65t40 79q17 51 -1.5 75t-75.5 24q-23 0 -53 -40q-32 -47 -51.5 -64t-38.5 -17q-29 0 -29 33q0 39 44.5 69.5t99 43.5t100.5 13q74 0 103.5 -45t6.5 -115q-15 -46 -46 -82.5t-66.5 -60t-69.5 -46.5t-61.5 -53.5
t-37.5 -67.5h-21zM169 -11q-28 0 -48 20t-20 48t20 47t48 19t48 -19t20 -47t-20 -48t-48 -20z" />
    <glyph glyph-name="at" unicode="@" horiz-adv-x="800" 
d="M554 103q-41 0 -62.5 18t-17.5 50q-72 -65 -146 -65q-42 0 -67.5 23t-25.5 68q0 93 83 174t174 81q80 0 82 -79l35 66h69l-126 -242q-11 -23 -14.5 -36.5t3 -22t24.5 -8.5q76 0 137.5 90.5t61.5 189.5q0 86 -55.5 139.5t-151.5 53.5q-107 0 -208 -65.5t-162.5 -168
t-61.5 -206.5q0 -90 53.5 -145t152.5 -55q97 0 208 58l18 -23q-109 -66 -235 -66q-122 0 -194.5 69.5t-72.5 181.5q0 115 72 220.5t187 168.5t237 63q117 0 182.5 -62t65.5 -164q0 -115 -73 -210.5t-172 -95.5zM351 138q41 0 88 39t80 94l20 37q18 41 18 68q0 48 -48 48
q-45 0 -93 -42t-78 -98.5t-30 -99.5q0 -46 43 -46z" />
    <glyph glyph-name="A" unicode="A" horiz-adv-x="634" 
d="M516 86q2 -33 12.5 -43.5t44.5 -18.5l-6 -24h-248l7 25l25.5 6t21.5 7t19 10.5t10.5 16t3.5 23.5l-5 104h-229l-77 -110q-14 -20 -13 -31.5t8.5 -15t28.5 -9.5q4 -1 7 -2l-7 -24h-171l7 25q38 7 55 18t42 45l393 549h37zM194 224h205l-14 274z" />
    <glyph glyph-name="B" unicode="B" horiz-adv-x="602" 
d="M617 508q0 -60 -49.5 -107.5t-127.5 -72.5q115 -29 115 -130q0 -66 -47.5 -112t-120 -66t-162.5 -20h-267l7 25q31 6 46.5 11.5t32 23.5t26.5 50l135 415q8 25 9 39.5t-8 23t-18.5 11.5t-30.5 7l6 24h262q90 0 141 -30.5t51 -91.5zM328 346q76 0 130 53t54 119
q0 37 -23 56.5t-79 19.5q-48 0 -66 -14t-28 -44l-62 -190h74zM443 215q0 96 -139 96h-61l-66 -203q-13 -38 -1 -54.5t57 -16.5q90 0 150 53.5t60 124.5z" />
    <glyph glyph-name="C" unicode="C" horiz-adv-x="583" 
d="M282 -13q-107 0 -161.5 59t-54.5 162q0 109 56.5 209.5t154.5 164t209 63.5t158 -57l-32 -131h-31q6 76 -18.5 114t-87.5 38q-83 0 -152.5 -64t-105.5 -153t-36 -174q0 -84 40 -131.5t112 -47.5q100 0 166 58l12 -32q-38 -34 -99.5 -56t-129.5 -22z" />
    <glyph glyph-name="D" unicode="D" horiz-adv-x="649" 
d="M407 630q108 0 179.5 -53.5t71.5 -163.5q0 -166 -135 -289.5t-320 -123.5h-245l7 25q31 6 46.5 11.5t32 23.5t26.5 50l135 415q8 25 9 39.5t-8 23t-18.5 11.5t-30.5 7l6 24h244zM234 36q83 0 157 63.5t116 157.5t42 186q0 151 -159 151h-55l-152 -467q-17 -52 -6 -71.5
t57 -19.5z" />
    <glyph glyph-name="E" unicode="E" horiz-adv-x="557" 
d="M164 630h450l-40 -144h-25q16 58 5.5 83t-57.5 25h-76q-51 0 -74 -17t-39 -68l-56 -173h62q76 0 105.5 20t50.5 71h22l-69 -211h-21q13 54 -2 69t-94 15h-66l-63 -193q-9 -26 -10.5 -39.5t7 -21t21 -8.5t42.5 -1h56q52 0 91.5 27.5t87.5 93.5h29l-90 -158h-453l7 25
q31 6 46.5 11.5t32 23.5t26.5 50l135 415q8 25 9 39.5t-8 23t-18.5 11.5t-30.5 7z" />
    <glyph glyph-name="F" unicode="F" horiz-adv-x="521" 
d="M165 630h447l-41 -144h-24q15 58 5 83t-57 25h-74q-51 0 -73.5 -16.5t-39.5 -68.5l-56 -173h57q76 0 106 20t51 71h21l-68 -211h-22q11 33 7.5 52t-25.5 25.5t-77 6.5h-62l-65 -199q-7 -23 -8.5 -37t7 -22t15 -10.5t26.5 -6.5q5 -1 8 -2l-5 -23h-258l5 25q31 6 46 11.5
t32 23.5t27 50l137 420q8 23 9 36.5t-6.5 21.5t-15 10.5t-26.5 6.5q-6 1 -9 2z" />
    <glyph glyph-name="G" unicode="G" horiz-adv-x="654" 
d="M301 -13q-118 0 -178 58.5t-59 160.5q1 110 61.5 212t162.5 164.5t215 62.5q117 0 164 -57q-29 -106 -35 -131h-30q19 152 -115 152q-85 0 -158.5 -68.5t-113.5 -166t-41 -191.5q-1 -75 33.5 -117t100.5 -42q52 0 82 27.5t49 86.5l13 39q11 34 13.5 53t-6 30t-23.5 15
t-47 6l8 27h255l-10 -29q-65 -9 -87 -76l-18 -55q-22 -65 -24 -116q-32 -18 -91 -31.5t-121 -13.5z" />
    <glyph glyph-name="H" unicode="H" horiz-adv-x="691" 
d="M537 630h261l-8 -25q-45 -8 -67.5 -23.5t-37.5 -61.5l-136 -415q-6 -20 -7 -33.5t1 -21.5t12.5 -13.5t17.5 -7.5t25 -6l-6 -23h-257l7 24q43 8 65 24t37 62l61 187h-268l-62 -192q-6 -20 -7 -33.5t1 -21.5t12.5 -13.5t17.5 -7.5t25 -6l-6 -23h-258l7 24q43 8 65 23.5
t37 62.5l135 415q8 25 9 39.5t-8 23t-18 11.5t-31 7l7 24h260l-8 -25q-45 -8 -67.5 -23.5t-37.5 -61.5l-61 -187h268l62 192q8 25 9 39.5t-8 23t-18.5 11.5t-30.5 7z" />
    <glyph glyph-name="I" unicode="I" horiz-adv-x="316" 
d="M-40 0l7 24q43 8 65 23.5t37 62.5l135 415q8 25 9 39.5t-8 23t-18 11.5t-31 7l7 24h260l-8 -25q-45 -8 -67.5 -23.5t-37.5 -61.5l-135 -415q-6 -20 -7 -33.5t1 -21.5t12.5 -13.5t17.5 -7.5t25 -6l-6 -23h-258z" />
    <glyph glyph-name="J" unicode="J" horiz-adv-x="308" 
d="M-123 -181l10 34q67 19 96.5 53t55.5 113l164 506q7 20 7.5 33.5t-1.5 21t-12.5 13t-18.5 7.5t-27 6l6 24h268l-8 -25q-25 -4 -38 -8t-28 -13t-24.5 -24t-17.5 -40l-170 -526q-50 -153 -262 -175z" />
    <glyph glyph-name="K" unicode="K" horiz-adv-x="662" 
d="M722 606q-30 0 -56 -8.5t-41.5 -18.5t-37.5 -28l-209 -168l138 -306q13 -28 31 -40.5t56 -13.5l-7 -23h-188q11 42 -5 80l-105 240l-72 -58l-51 -157q-6 -20 -7 -33.5t1 -21.5t12.5 -13.5t17.5 -7.5t25 -6l-6 -23h-258l7 24q43 8 65 23.5t37 62.5l135 415q8 25 9 39.5
t-8 23t-18 11.5t-31 7l7 24h260l-8 -25q-45 -8 -67.5 -23.5t-37.5 -61.5l-64 -198l296 237q27 22 21 34.5t-44 13.5l7 23h204z" />
    <glyph glyph-name="L" unicode="L" horiz-adv-x="533" 
d="M-42 0l7 25q31 6 46.5 11.5t32 23.5t26.5 50l135 415q8 25 9 39.5t-8 23t-18.5 11.5t-30.5 7l6 24h269l-8 -25q-49 -8 -73.5 -23.5t-39.5 -61.5l-134 -412q-14 -46 -2.5 -58.5t62.5 -12.5h59q53 0 92.5 28.5t87.5 99.5l26 -7l-88 -158h-456z" />
    <glyph glyph-name="M" unicode="M" horiz-adv-x="808" 
d="M670 105q-7 -25 -7.5 -39.5t7.5 -22.5t17 -11t29 -7l-6 -25h-257l5 25q31 6 46.5 11.5t32 23.5t25.5 50l130 446l-375 -556h-27l-32 508l-148 -403q-9 -24 -9.5 -39t9 -23t19.5 -11t32 -7l-5 -25h-196l6 25q30 6 45.5 11.5t32.5 23.5t29 50l152 415q7 20 8 33.5
t-0.5 20.5t-13.5 13t-17 7t-25 6l8 25h176q-1 -12 1 -83l27 -384l262 390q43 66 49 77h198l-8 -25q-26 -6 -36 -9.5t-25.5 -12t-24.5 -24t-16 -39.5z" />
    <glyph glyph-name="N" unicode="N" horiz-adv-x="635" 
d="M554 630h198l-7 -24q-44 -7 -68 -23.5t-39 -62.5l-169 -520h-43l-177 534l-140 -429q-7 -20 -7.5 -33.5t2 -21.5t13 -13.5t19 -7.5t27.5 -6l-6 -23h-198l6 24q45 8 68.5 24t38.5 62l135 415q6 20 7 33.5t-1 21.5t-12 13t-17.5 7.5t-24.5 5.5l6 24h167l152 -460l118 355
q15 46 2 60t-57 22z" />
    <glyph glyph-name="O" unicode="O" horiz-adv-x="675" 
d="M267 -13q-95 0 -149 57.5t-54 154.5q0 110 56.5 213.5t152.5 168t202 64.5q96 0 149.5 -57t53.5 -154q0 -110 -57 -213.5t-152.5 -168.5t-201.5 -65zM285 23q74 0 141 73t103 173.5t36 189.5q0 71 -27.5 110.5t-81.5 39.5q-56 0 -109 -43.5t-89.5 -108.5t-58.5 -141
t-22 -141q0 -72 27.5 -112t80.5 -40z" />
    <glyph glyph-name="P" unicode="P" horiz-adv-x="580" 
d="M-42 0l7 25q31 6 46.5 11.5t32 23.5t26.5 50l135 415q8 25 9 39.5t-8 23t-18.5 11.5t-30.5 7l6 24h238q219 0 219 -146q0 -110 -103 -175t-250 -65q-8 0 -9 9t3.5 18.5t11.5 9.5q99 0 169 67.5t70 154.5q0 91 -106 91q-44 0 -62 -14.5t-28 -43.5l-139 -431
q-8 -25 -9 -39.5t8.5 -23t20 -11.5t35.5 -8l-5 -23h-269z" />
    <glyph glyph-name="Q" unicode="Q" 
d="M488 -114q37 0 79 23l11 -24q-84 -60 -151 -60q-54 0 -96 44l-101 105q-11 12 -31 22q-65 19 -100 72t-35 131q0 110 56.5 213.5t152.5 168t202 64.5q96 0 149.5 -57t53.5 -154q0 -149 -100.5 -278.5t-240.5 -160.5q18 -8 34 -26l36 -41q37 -42 81 -42zM456 609
q-56 0 -109 -43.5t-89.5 -108.5t-58.5 -141t-22 -141q0 -72 27.5 -112t80.5 -40q74 0 141 73t103 173.5t36 189.5q0 71 -27.5 110.5t-81.5 39.5z" />
    <glyph glyph-name="R" unicode="R" horiz-adv-x="618" 
d="M609 495q0 -89 -66.5 -143.5t-175.5 -70.5q52 -16 67 -81l22 -91q11 -43 35.5 -68.5t63.5 -13.5l-6 -30q-27 -13 -71 -13q-56 0 -83.5 25.5t-40.5 79.5l-26 110q-11 44 -32 59t-64 17l-55 -170q-8 -25 -9 -39.5t8.5 -23t20 -11.5t35.5 -8l-5 -23h-269l7 25
q31 6 46.5 11.5t32 23.5t26.5 50l135 415q8 25 9 39.5t-8 23t-18.5 11.5t-30.5 7l6 24h242q204 0 204 -135zM292 312q90 0 150 59.5t60 139.5q0 83 -97 83q-70 0 -88 -55l-73 -227h48z" />
    <glyph glyph-name="S" unicode="S" horiz-adv-x="487" 
d="M176 -11q-110 0 -170 67l31 125h22q-8 -73 23 -114.5t92 -41.5q65 0 110.5 41t45.5 100q0 37 -21 67t-62 62q-28 22 -39.5 32t-31.5 32t-28.5 46.5t-8.5 53.5q0 81 66.5 133.5t164.5 52.5q101 0 155 -60l-36 -127h-21q9 71 -15 111t-82 40q-55 0 -91.5 -33.5t-36.5 -81.5
q0 -57 74 -117q63 -50 86 -80q36 -48 36 -102q0 -87 -77.5 -146.5t-185.5 -59.5z" />
    <glyph glyph-name="T" unicode="T" horiz-adv-x="583" 
d="M625 630l51 10l-50 -177h-21q14 75 -1.5 104.5t-84.5 29.5h-47l-159 -492q-15 -47 -1 -60.5t66 -21.5l-6 -23h-285l7 24q51 8 74 23.5t38 62.5l158 487h-45q-69 0 -107.5 -34.5t-72.5 -106.5h-23l67 184l45 -10h397z" />
    <glyph glyph-name="U" unicode="U" horiz-adv-x="654" 
d="M271 -11q-35 0 -64 7t-55.5 26t-41 48.5t-13.5 78t21 110.5l86 266q8 25 9 39.5t-8 23t-18 11.5t-31 7l7 24h260l-8 -25q-44 -8 -66.5 -23.5t-37.5 -61.5l-93 -289q-16 -49 -18 -86.5t6 -58t24.5 -33t32.5 -16.5t36 -4q29 0 57.5 9t59.5 30t58.5 61.5t46.5 97.5l95 294
q6 20 6.5 33.5t-1.5 21t-12.5 13t-18 7.5t-24.5 6l7 24h198l-8 -25q-33 -6 -49 -11.5t-33 -23.5t-28 -50l-92 -283q-81 -248 -290 -248z" />
    <glyph glyph-name="V" unicode="V" horiz-adv-x="649" 
d="M595 630h171l-7 -24q-38 -7 -55 -18.5t-42 -45.5l-392 -549h-37l-34 552q-2 33 -12.5 43.5t-45.5 18.5l7 23h248l-7 -25q-27 -5 -42 -9.5t-27 -18t-11 -34.5l20 -412l291 418q11 16 14 26t-6 16.5t-14 8t-26 7.5z" />
    <glyph glyph-name="W" unicode="W" horiz-adv-x="938" 
d="M206 -8l-6 546q-1 38 -12 49.5t-47 19.5l7 23h247l-7 -25q-40 -6 -59.5 -18t-19.5 -43l1 -393l205 319q33 49 30 87t-48 50l6 23h166q-13 -42 -15 -144l3 -333l237 371q16 26 21 41t-5.5 23.5t-21 11t-40.5 7.5l6 23h201l-7 -25q-39 -7 -60.5 -20.5t-48.5 -56.5
l-348 -536h-40l-5 463l-300 -463h-40z" />
    <glyph glyph-name="X" unicode="X" horiz-adv-x="680" 
d="M571 630h199l-8 -24q-48 -8 -72.5 -20.5t-65.5 -51.5l-195 -191l74 -252q10 -36 29 -47.5t68 -19.5l-8 -24h-281l9 25q44 7 60.5 19t6.5 48l-52 182l-187 -190q-17 -17 -23.5 -27.5t0 -17t16 -9t33.5 -6.5l-8 -24h-209l8 25q54 7 78 18t64 51l218 214l-65 226
q-11 39 -29.5 52t-64.5 21l7 23h273l-7 -25q-46 -8 -60.5 -21.5t-4.5 -51.5l45 -155l167 168q40 40 23 51q-8 4 -44 11z" />
    <glyph glyph-name="Y" unicode="Y" horiz-adv-x="598" 
d="M550 630h185l-7 -25q-41 -7 -58 -17.5t-51 -48.5l-239 -269l-53 -164q-15 -47 -1 -61t66 -22l-6 -23h-284l7 24q50 8 73.5 24t38.5 63l50 153l-67 276q-9 38 -20 49t-48 18l7 23h257l-7 -25q-23 -5 -33 -7.5t-24.5 -10t-18 -19.5t0.5 -29l56 -229l204 234q20 23 19 36
t-9.5 16.5t-35.5 8.5q-5 1 -8 2z" />
    <glyph glyph-name="Z" unicode="Z" horiz-adv-x="561" 
d="M-22 0l-6 15l539 587l-175 -4q-65 -1 -102 -34t-65 -105h-25l57 177l53 -6h411l-553 -602l208 11q63 3 99 36t74 105h29q-57 -113 -78 -180h-466z" />
    <glyph glyph-name="bracketleft" unicode="[" horiz-adv-x="253" 
d="M113 -166l-188 12l294 901l194 12l-7 -22l-101 -22l-273 -837l87 -22z" />
    <glyph glyph-name="backslash" unicode="\" horiz-adv-x="471" 
d="M377 -64l-56 -26l-211 816l57 27z" />
    <glyph glyph-name="bracketright" unicode="]" horiz-adv-x="248" 
d="M189 759l187 -12l-293 -901l-194 -12l7 22l101 22l273 837l-87 22z" />
    <glyph glyph-name="asciicircum" unicode="^" horiz-adv-x="446" 
d="M112 366l-14 15l179 265l180 -265l-15 -15l-165 192z" />
    <glyph glyph-name="underscore" unicode="_" horiz-adv-x="627" 
d="M44 -63v43h540l-1 -43h-539z" />
    <glyph glyph-name="grave" unicode="`" horiz-adv-x="186" 
d="M256 508q-66 70 -122 109q8 21 32.5 39.5t47.5 18.5q44 -62 69 -150z" />
    <glyph glyph-name="a" unicode="a" horiz-adv-x="481" 
d="M341 110q-16 -45 1 -41q23 6 86 91l17 -18q-99 -152 -172 -152q-29 0 -40 20t-1 48l35 101q-42 -48 -71 -78t-68 -60.5t-61 -30.5q-24 0 -42.5 25.5t-18.5 75.5q0 81 49.5 162t131.5 133.5t168 52.5q47 0 98 -9zM130 77q25 0 155 132l60 172q-34 21 -63 21
q-61 0 -122.5 -94.5t-61.5 -174.5q0 -56 32 -56z" />
    <glyph glyph-name="b" unicode="b" horiz-adv-x="480" 
d="M383 439q43 0 68.5 -29t25.5 -84q0 -75 -46.5 -153.5t-120.5 -130t-147 -51.5q-68 0 -99 41t-12 95l143 418q13 39 -1.5 53.5t-66.5 14.5l9 29l174 23l10 -15l-109 -323q81 112 172 112zM178 20q44 0 91.5 57t76.5 131.5t29 129.5q0 54 -38 54q-36 0 -81.5 -50.5
t-86.5 -138.5l-29 -86q-13 -32 -4.5 -64.5t42.5 -32.5z" />
    <glyph glyph-name="c" unicode="c" horiz-adv-x="379" 
d="M284 439q48 0 73 -26.5t25 -65.5q0 -28 -13 -45.5t-36 -17.5q-47 0 -40 72q3 32 -2 43.5t-22 11.5q-59 0 -108 -84.5t-49 -162.5q0 -46 21 -73t56 -27q29 0 63.5 18t57.5 50l13 -21q-31 -56 -86.5 -88.5t-103.5 -32.5q-52 0 -86.5 37t-34.5 100q0 109 87 210.5t185 101.5
z" />
    <glyph glyph-name="d" unicode="d" horiz-adv-x="485" 
d="M350 110q-15 -45 1 -41q23 7 85 91l17 -18q-98 -152 -175 -152q-27 0 -38 16.5t-2 43.5l44 126q-38 -43 -55.5 -62t-53.5 -55t-62 -52.5t-44 -16.5q-24 0 -43 25.5t-19 75.5q0 80 50 161.5t128 134t154 52.5q17 0 35 -3l38 109q13 39 -1.5 53.5t-67.5 14.5l10 29l174 23
l10 -15zM130 77q24 0 168 146l53 152q-38 25 -70 25q-61 0 -122 -94t-61 -173q0 -56 32 -56z" />
    <glyph glyph-name="e" unicode="e" horiz-adv-x="374" 
d="M377 365q0 -123 -266 -180q-2 -22 -2 -31q0 -40 19 -65t53 -25q28 0 60.5 16t56.5 47l14 -19q-33 -57 -86.5 -87t-102.5 -30q-51 0 -82 35.5t-31 95.5q0 111 93 214t192 103q42 0 62 -21t20 -53zM255 403q-39 0 -80 -59.5t-58 -129.5q81 17 126.5 53.5t45.5 86.5
q0 49 -34 49z" />
    <glyph glyph-name="f" unicode="f" horiz-adv-x="382" 
d="M433 698q45 0 69.5 -19.5t24.5 -46.5q0 -21 -13.5 -35.5t-33.5 -14.5q-40 0 -40 51q0 35 -36 35q-32 0 -54 -30.5t-46 -115.5l-26 -92h110l-15 -42l-105 6l-88 -311q-37 -132 -101.5 -200.5t-145.5 -68.5q-45 0 -70.5 20t-25.5 48q0 20 13.5 34t33.5 14q22 0 32.5 -16.5
t9.5 -36.5q-1 -33 32 -33q32 0 55.5 31t47.5 115l115 409l-108 6l8 25h108q38 132 103 200t146 68z" />
    <glyph glyph-name="g" unicode="g" horiz-adv-x="455" 
d="M486 416l-15 -63l-85 25q8 -21 8 -44q0 -73 -64 -126.5t-144 -53.5q-24 0 -43 6q-33 -13 -33 -30q0 -16 28 -26l85 -36q38 -16 53 -23t34 -19.5t25 -26t6 -32.5q0 -49 -42.5 -86t-101.5 -54t-121 -17q-80 0 -116.5 29.5t-34.5 72.5q1 26 40 54.5t96 60.5l12 6
q-32 15 -45.5 28.5t-13.5 33.5q0 21 29.5 42.5t68.5 36.5q-41 27 -41 84q0 73 64 126.5t144 53.5q41 0 69 -17q18 -5 138 -5zM195 178q46 0 80 62t34 121q0 54 -38 54q-45 0 -80 -62.5t-35 -122.5q0 -52 39 -52zM254 -72q0 20 -16.5 32.5t-57.5 28.5l-71 29
q-42 -27 -73 -59.5t-32 -56.5q-2 -63 93 -63q63 0 110 25.5t47 63.5z" />
    <glyph glyph-name="h" unicode="h" horiz-adv-x="496" 
d="M419 439q37 0 60 -21.5t20 -67.5q-3 -60 -45 -145.5t-100.5 -149.5t-101.5 -64q-21 0 -41.5 13.5t-20.5 38.5q0 18 11.5 29.5t27.5 11.5q17 0 24.5 -15t10.5 -30.5t8 -15.5q33 0 74.5 116.5t45.5 182.5q1 26 -3.5 40.5t-10.5 17t-15 2.5q-57 0 -134.5 -116t-128.5 -266
h-91l186 545q13 39 -1.5 53.5t-66.5 14.5l9 29l175 23l10 -15l-103 -311l-57 -124l6 1q127 223 252 223z" />
    <glyph glyph-name="i" unicode="i" horiz-adv-x="282" 
d="M250 547q-26 0 -45 18t-19 43t19 43t45 18q25 0 44 -18t19 -43t-19 -43t-44 -18zM228 158l17 -18q-98 -150 -171 -150q-30 0 -41.5 20.5t-0.5 47.5l108 259q19 46 0 41q-26 -6 -88 -89l-16 18q97 150 171 150q30 0 42 -20t1 -48l-108 -259q-19 -45 -1 -41q25 5 87 89z
" />
    <glyph glyph-name="j" unicode="j" horiz-adv-x="266" 
d="M267 547q-25 0 -44 18t-19 43t19 43t44 18q26 0 45 -18t19 -43t-19 -43t-45 -18zM222 435q29 0 39.5 -20t0.5 -50l-94 -290q-41 -125 -93.5 -187.5t-128.5 -62.5q-47 0 -72 22t-25 55q0 26 15 41t37 15q24 0 34 -19t4 -53q-6 -32 23 -32t45.5 28.5t45.5 117.5l102 315
q16 51 -5 41q-24 -11 -82 -89l-16 18q97 150 170 150z" />
    <glyph glyph-name="k" unicode="k" horiz-adv-x="493" 
d="M8 0l187 545q13 39 -1.5 53.5t-66.5 14.5l9 29l175 23l10 -15l-222 -650h-91zM525 406q-40 -3 -73.5 -20t-82.5 -53l-78 -58l59 -189q22 -71 85 -15l6 -22q-60 -59 -105 -59q-54 0 -76 74l-54 189l126 91q78 56 -1 62l8 24h195z" />
    <glyph glyph-name="l" unicode="l" horiz-adv-x="271" 
d="M136 110q-15 -45 1 -41q23 7 85 91l17 -18q-98 -152 -175 -152q-27 0 -38 16.5t-2 43.5l172 495q13 39 -1.5 53.5t-67.5 14.5l10 29l174 23l10 -15z" />
    <glyph glyph-name="m" unicode="m" horiz-adv-x="771" 
d="M717 160l17 -18q-98 -152 -176 -152q-27 0 -38 16.5t-1 43.5l85 214q12 31 17.5 48.5t7 31t-3 18.5t-15.5 5q-37 0 -117.5 -115t-135.5 -252h-88l93 261q11 32 16.5 49.5t7 32t-3 19.5t-15.5 5q-37 0 -117.5 -115.5t-134.5 -251.5h-88l113 317q17 47 -1 42
q-24 -5 -87 -90l-16 18q97 150 174 150q26 0 34.5 -16.5t-2.5 -43.5l-77 -192h13q142 252 249 252q96 0 14 -179l-34 -73h13q142 252 249 252q98 0 23 -179l-61 -148q-18 -43 -2 -40q24 4 85 86z" />
    <glyph glyph-name="n" unicode="n" horiz-adv-x="528" 
d="M475 160l17 -18q-99 -152 -176 -152q-27 0 -38.5 16.5t-0.5 43.5l84 214q12 30 18 48.5t7 31.5t-3.5 18t-15.5 5q-37 0 -117.5 -115.5t-134.5 -251.5h-88l113 317q17 47 -1 42q-24 -5 -87 -90l-16 18q97 150 174 150q26 0 34.5 -16.5t-2.5 -43.5l-77 -192h13
q142 252 248 252q99 0 24 -179l-62 -148q-19 -44 -1 -40q25 5 85 86q2 2 3 4z" />
    <glyph glyph-name="o" unicode="o" horiz-adv-x="438" 
d="M131 -10q-55 0 -88 30.5t-33 96.5q0 120 93 221t204 101q55 0 88 -30t33 -95q0 -120 -93 -222t-204 -102zM163 20q42 0 82.5 56.5t63 128t22.5 123.5q0 39 -14.5 60t-40.5 21q-43 0 -83.5 -54.5t-63 -124.5t-22.5 -123q0 -39 15 -63t41 -24z" />
    <glyph glyph-name="p" unicode="p" horiz-adv-x="471" 
d="M114 -16l-26 -73q-6 -18 -6 -29q0 -16 14 -22.5t49 -10.5l-7 -24h-236l7 24q38 7 57 19t31 45l158 449q-46 -24 -101 -71l-11 26q67 65 129 93l46 131l94 11l-39 -112q11 2 30 2q69 0 113.5 -34t44.5 -105q0 -107 -100.5 -204t-246.5 -115zM267 394h-10l-133 -380
q106 19 173.5 100.5t67.5 173.5q0 106 -98 106z" />
    <glyph glyph-name="q" unicode="q" horiz-adv-x="440" 
d="M272 -89q-13 -35 -0.5 -46t56.5 -16l-6 -24h-235l7 24q38 7 57 19t31 45l87 249q-151 -172 -202 -172q-24 0 -43 25.5t-19 75.5q0 80 50 161.5t128 134t154 52.5q28 0 61 -9h55zM130 77q24 0 156 134l59 168q-34 21 -64 21q-61 0 -122 -94t-61 -173q0 -56 32 -56z" />
    <glyph glyph-name="r" unicode="r" horiz-adv-x="419" 
d="M405 437q44 0 44 -47q0 -34 -24.5 -65.5t-56.5 -31.5q-22 0 -26.5 11t2.5 23.5t8.5 23.5t-9.5 11q-35 0 -100.5 -108t-126.5 -256q-44 -3 -88 0l113 319q5 15 6.5 24.5t0 13.5t-5.5 4q-24 0 -90 -90l-16 18q97 150 175 150q26 0 33.5 -16.5t-3.5 -43.5l-76 -194h13
q129 254 227 254z" />
    <glyph glyph-name="s" unicode="s" horiz-adv-x="324" 
d="M326 376q0 -66 -103 -148q36 -50 36 -94q0 -63 -55.5 -103.5t-121.5 -40.5q-49 0 -74.5 23.5t-25.5 52.5q0 32 28 56l25 -4q2 -32 28 -62t59 -30q23 0 38.5 16.5t15.5 44.5q0 32 -25.5 68.5t-51 75t-25.5 75.5q0 58 51 95.5t113 37.5q35 0 61.5 -15t26.5 -48zM214 240
q50 58 50 111q0 25 -12 40.5t-32 15.5q-23 0 -43 -16t-20 -44q0 -9 3 -19t5.5 -16.5t10.5 -19t11 -16.5t14 -18.5t13 -17.5z" />
    <glyph glyph-name="t" unicode="t" horiz-adv-x="311" 
d="M247 394l-118 -319q-5 -13 6 -10q31 8 105 87l17 18l16 -19q-128 -160 -198 -160q-26 0 -38.5 24.5t-2.5 52.5l121 332l-85 5l8 25h88l40 111l99 11l-45 -122h90l-14 -42z" />
    <glyph glyph-name="u" unicode="u" horiz-adv-x="529" 
d="M53 268l-17 18q97 151 175 151q27 0 39 -17t0 -45l-83 -211q-12 -29 -18 -48t-7 -32t4 -18.5t16 -5.5q38 0 119.5 115.5t135.5 258.5h88l-116 -324q-16 -46 0 -41q25 7 86 90l17 -18q-97 -151 -175 -151q-27 0 -38 16.5t0 43.5l77 195l-8 -1q-80 -142 -137.5 -198
t-107.5 -56q-102 0 -25 180l62 146q19 44 1 41q-25 -4 -84 -84q-2 -2 -4 -5z" />
    <glyph glyph-name="v" unicode="v" horiz-adv-x="448" 
d="M103 -10q-36 0 -52.5 23.5t-4.5 56.5l93 249q16 43 -1 40q-23 -6 -86 -90l-16 18q97 150 171 150q27 0 39 -17.5t1 -48.5l-102 -291q-15 -43 15 -43q39 0 93.5 53.5t94 125t39.5 119.5q0 31 -14.5 42t-48.5 -3l-9 18q22 16 48 28t52 18t43.5 -5t17.5 -41
q0 -61 -64.5 -157.5t-154.5 -170.5t-154 -74z" />
    <glyph glyph-name="w" unicode="w" horiz-adv-x="700" 
d="M567 392q22 16 48 28t52 18t43.5 -5t17.5 -41q0 -61 -64.5 -157.5t-154.5 -170.5t-154 -74q-36 0 -52.5 23.5t-4.5 56.5l18 49q-56 -58 -113 -93.5t-100 -35.5q-36 0 -52.5 23.5t-4.5 56.5l93 249q16 43 -1 40q-23 -6 -86 -90l-16 18q97 150 171 150q27 0 39 -17.5
t1 -48.5l-102 -291q-15 -43 15 -43q48 0 115.5 77.5t97.5 157.5l1 1l17 46q16 43 -1 40q-23 -6 -86 -90l-16 18q97 150 171 150q27 0 39 -17.5t1 -48.5l-102 -291q-15 -43 15 -43q39 0 93.5 53.5t94 125t39.5 119.5q0 31 -14.5 42t-48.5 -3z" />
    <glyph glyph-name="x" unicode="x" horiz-adv-x="462" 
d="M405 293q-22 0 -26.5 11t2.5 23.5t8.5 23.5t-9.5 11q-36 0 -108 -120l32 -131q10 -40 20 -41q10 0 41 42q27 38 35 49l16 -18q-6 -10 -18 -28q-32 -50 -46.5 -70.5t-34 -36t-40.5 -15.5q-24 0 -33 14.5t-18 51.5l-24 97q-100 -163 -176 -163q-44 0 -44 47q0 35 24.5 66
t56.5 31q22 0 26.5 -11t-2.5 -23.5t-8.5 -23.5t9.5 -11q36 0 107 119l-32 132q-8 31 -15 38t-18.5 -4.5t-33.5 -42.5q-4 -6 -6.5 -9.5t-6.5 -9.5t-8 -11.5t-8 -10.5l-16 18q65 102 83 122q27 28 56 28q24 0 33 -14.5t18 -51.5l24 -98q99 164 177 164q44 0 44 -47
q0 -34 -24.5 -65.5t-56.5 -31.5z" />
    <glyph glyph-name="y" unicode="y" horiz-adv-x="452" 
d="M315 392q22 16 48 28t52 18t43.5 -5t17.5 -41q0 -53 -62.5 -150.5t-147.5 -190.5t-180.5 -162.5t-153.5 -69.5q-27 0 -47 15t-20 41q0 23 13.5 36.5t36.5 13.5t46.5 -24.5t44.5 -24.5q42 0 125 71l8 372q1 41 -9 41.5t-52 -55.5q-2 -4 -8 -11q-11 -16 -18 -25l-16 18
q52 82 85.5 116t67.5 34q23 0 30.5 -15.5t6.5 -50.5l-8 -338q72 79 120.5 161.5t48.5 140.5q0 31 -14.5 42t-48.5 -3z" />
    <glyph glyph-name="z" unicode="z" horiz-adv-x="389" 
d="M240 73q28 0 44 17.5t35 58.5h25l-55 -157q-47 -5 -123.5 13.5t-108.5 18.5q-49 0 -84 -24l-13 18l344 312q-41 -1 -88 13.5t-67 14.5q-28 0 -44 -18t-35 -59h-25l56 157q47 5 123.5 -13.5t108.5 -18.5q48 0 83 24l13 -18l-344 -311q41 1 88 -13.5t67 -14.5z" />
    <glyph glyph-name="braceleft" unicode="{" horiz-adv-x="285" 
d="M133 -159q-41 13 -64 34.5t-27 50.5t0 57.5t17 66.5l50 155q10 32 -2 50.5t-44 33.5l1 19q90 32 108 92l51 155q13 39 25.5 65t34.5 54t57 47.5t84 32.5l5 -24q-28 -11 -49.5 -40.5t-33 -58.5t-31.5 -90l-42 -130q-30 -90 -128 -113l-7 -8q37 -10 54.5 -41.5t1.5 -82.5
l-43 -130q-33 -105 -34 -132q0 -34 25 -48z" />
    <glyph glyph-name="bar" unicode="|" horiz-adv-x="309" 
d="M139 -175v821h45v-821h-45z" />
    <glyph glyph-name="braceright" unicode="}" horiz-adv-x="285" 
d="M206 754q41 -13 64 -34.5t27 -50.5t0 -57.5t-17 -66.5l-50 -155q-10 -32 2 -50t44 -33l-1 -19q-90 -32 -108 -93l-51 -155q-26 -80 -67 -127t-135 -72l-4 24q39 16 62 58.5t52 130.5l42 130q30 90 128 113l7 8q-37 10 -54.5 41.5t-1.5 82.5l43 130q33 105 34 132
q0 34 -25 48z" />
    <glyph glyph-name="asciitilde" unicode="~" horiz-adv-x="445" 
d="M283 181q-27 0 -46 11.5t-28.5 24.5t-25 24.5t-36.5 11.5q-26 0 -50 -19t-28 -35l-15 13q8 49 45.5 78t84.5 29q27 0 46 -11.5t28.5 -24.5t25 -24.5t36.5 -11.5q26 0 49.5 18.5t29.5 35.5l14 -13q-7 -48 -45 -77.5t-85 -29.5z" />
    <glyph glyph-name="exclamdown" unicode="&#xa1;" horiz-adv-x="229" 
d="M172 455q28 0 48 -19.5t20 -47.5t-20 -47t-48 -19t-48 19t-20 47t20 47.5t48 19.5zM156 258l-90 -403q-8 -36 -24 -49.5t-41 -13.5q-33 0 -44 17.5t3 53.5l171 395h25z" />
    <glyph glyph-name="cent" unicode="&#xa2;" horiz-adv-x="379" 
d="M330 430q52 -22 52 -83q0 -28 -13 -45.5t-36 -17.5q-47 0 -40 72q0 2 0.5 5.5t0.5 4.5l-159 -277q22 -25 54 -25q29 0 63.5 18t57.5 50l13 -21q-31 -56 -86.5 -88.5t-103.5 -32.5q-28 0 -48 10l-35 -61h-39l45 79q-44 37 -44 109q0 109 87 210.5t185 101.5h11l46 80h40z
M112 164q0 -19 5 -39l162 285q-3 1 -10 1q-59 0 -108 -84.5t-49 -162.5z" />
    <glyph glyph-name="sterling" unicode="&#xa3;" horiz-adv-x="552" 
d="M485 637q46 0 71.5 -18t24.5 -55q-6 -20 -29.5 -33.5t-49.5 -12.5q-1 32 -16.5 53t-46.5 21q-75 0 -120 -138l-40 -123h153l-26 -52h-144l-1 -3q-35 -106 -112 -158q14 5 32 5q27 0 51 -15.5t38 -33.5t32.5 -33.5t36.5 -15.5q24 0 41.5 24.5t17.5 53.5q0 16 -4 27l82 49
q14 -12 14 -38q0 -70 -65.5 -118.5t-136.5 -48.5q-41 0 -70.5 21.5t-53.5 43t-51 21.5q-49 0 -116 -69l-24 35q76 63 117 115t69 138h-86l26 52h78l19 58q40 121 120 184.5t169 63.5z" />
    <glyph glyph-name="currency" unicode="&#xa4;" horiz-adv-x="673" 
d="M547 228q0 -71 -43 -127l67 -67l-39 -39l-67 67q-56 -43 -126 -43q-69 0 -124 41l-66 -65l-39 39l66 65q-44 57 -44 129q0 70 43 126l-65 64l39 40l65 -65q54 43 125 43q72 0 127 -44l66 66l39 -40l-66 -65q42 -57 42 -125zM191 228q0 -63 43.5 -108.5t105.5 -45.5
q61 0 105.5 46t44.5 108t-44.5 107.5t-105.5 45.5q-62 0 -105.5 -45t-43.5 -108z" />
    <glyph glyph-name="yen" unicode="&#xa5;" horiz-adv-x="598" 
d="M550 630h185l-7 -25q-41 -7 -58 -17.5t-51 -48.5l-209 -235h104l-14 -42h-122l-17 -52h122l-14 -42h-122l-20 -62q-15 -47 -1 -61t66 -22l-6 -23h-284l7 24q50 8 73.5 24t38.5 63l19 57h-149l14 42h148l18 52h-149l14 42h126l-58 236q-9 38 -20 49t-48 18l7 23h257
l-7 -25q-23 -5 -33 -7.5t-24.5 -10t-18 -19.5t0.5 -29l56 -229l204 234q20 23 19 36t-9.5 16.5t-35.5 8.5q-5 1 -8 2z" />
    <glyph glyph-name="brokenbar" unicode="&#xa6;" horiz-adv-x="309" 
d="M139 315v331h45v-331h-45zM139 -175v331h45v-331h-45z" />
    <glyph glyph-name="section" unicode="&#xa7;" horiz-adv-x="502" 
d="M386 646q39 0 71.5 -11.5t43 -19.5t27.5 -24l-25 -91h-22q1 50 -22 82t-72 32q-46 0 -82 -26.5t-36 -72.5q0 -28 17 -47.5t61 -45.5q25 -12 44 -24t41 -31t34 -45t12 -57q0 -63 -43.5 -109t-114.5 -68q48 -41 48 -97q0 -77 -66 -124t-161 -47q-89 0 -149 54l27 98h20
q-2 -54 22 -87.5t75 -33.5q52 0 90 27t38 72q0 27 -18.5 47.5t-63.5 46.5q-131 61 -131 157q0 63 43.5 109t114.5 67q-45 40 -45 97q0 76 65 124t157 48zM367 236q0 16 -5.5 28.5t-19 25t-26.5 21.5t-37 23q-26 13 -31 16q-38 -15 -61.5 -44.5t-23.5 -67.5q0 -34 20 -56
t66 -50q9 -4 27 -14q39 17 65 51t26 67z" />
    <glyph glyph-name="dieresis" unicode="&#xa8;" horiz-adv-x="330" 
d="M195 565q-24 0 -40 16.5t-16 39.5t16 39.5t40 16.5q23 0 39 -16.5t16 -39.5t-16 -39.5t-39 -16.5zM400 565q-23 0 -39.5 16.5t-16.5 39.5t16.5 39.5t39.5 16.5t39.5 -16.5t16.5 -39.5t-16.5 -39.5t-39.5 -16.5z" />
    <glyph glyph-name="copyright" unicode="&#xa9;" horiz-adv-x="708" 
d="M388 25q-121 0 -206.5 85.5t-85.5 206.5q0 120 85.5 205.5t206.5 85.5q120 0 205.5 -85.5t85.5 -205.5q0 -121 -85.5 -206.5t-205.5 -85.5zM388 54q107 0 183 77.5t76 185.5t-76 185.5t-183 77.5q-108 0 -184 -77.5t-76 -185.5t76 -185.5t184 -77.5zM400 149
q-79 0 -127.5 47t-48.5 119q0 74 50 122t130 48q65 0 103 -24l4 -69h-20q-17 71 -94 71q-51 0 -78.5 -36t-27.5 -95q0 -67 38.5 -110t98.5 -43q55 0 79 25l10 -12q-37 -43 -117 -43z" />
    <glyph glyph-name="ordfeminine" unicode="&#xaa;" horiz-adv-x="348" 
d="M324 424q-11 -33 3 -26q17 10 53 58l11 -12q-66 -98 -111 -98q-18 0 -25 13t0 32l23 65q-98 -110 -130 -110q-17 0 -29.5 19.5t-10.5 56.5q5 77 72 145.5t140 68.5q20 0 42 -6h34zM188 403q15 0 101 86l37 108q-25 14 -43 14q-36 0 -74 -57t-41 -106q-4 -45 20 -45z
M45 220l16 50h249l-16 -50h-249z" />
    <glyph glyph-name="guillemotleft" unicode="&#xab;" horiz-adv-x="404" 
d="M47 221l182 139l8 -13l-121 -126l39 -126l-17 -14zM205 221l181 139l8 -13l-120 -126l38 -126l-17 -14z" />
    <glyph glyph-name="logicalnot" unicode="&#xac;" horiz-adv-x="510" 
d="M509 376l-76 -233h-75l51 164h-325l22 69h403z" />
    <glyph glyph-name="uni00AD" unicode="&#xad;" horiz-adv-x="417" 
d="M54 231v51h310v-51h-310z" />
    <glyph glyph-name="registered" unicode="&#xae;" horiz-adv-x="708" 
d="M388 25q-121 0 -206.5 85.5t-85.5 206.5q0 120 85.5 205.5t206.5 85.5q120 0 205.5 -85.5t85.5 -205.5q0 -121 -85.5 -206.5t-205.5 -85.5zM388 54q107 0 183 77.5t76 185.5t-76 185.5t-183 77.5q-108 0 -184 -77.5t-76 -185.5t76 -185.5t184 -77.5zM520 158
q-53 0 -81 45l-33 53q-22 35 -36 41v15q87 0 87 67t-76 67q-21 0 -28.5 -5t-7.5 -17v-210q0 -16 6 -24t12 -9.5t22 -4.5v-13h-138v13q16 3 22 4.5t12 9.5t6 24v202q0 15 -5.5 23.5t-12 10.5t-22.5 5v12h131q139 0 139 -84q0 -35 -26 -56t-64 -28q23 -7 54 -58l13 -23
q27 -42 46 -44v-13q-8 -3 -20 -3z" />
    <glyph glyph-name="macron" unicode="&#xaf;" horiz-adv-x="289" 
d="M127 596l15 41h280l-15 -41h-280z" />
    <glyph glyph-name="degree" unicode="&#xb0;" horiz-adv-x="375" 
d="M279 375q-56 0 -94.5 35.5t-38.5 95.5q0 61 41 97.5t99 36.5q56 0 95 -35.5t39 -95.5q0 -61 -41.5 -97.5t-99.5 -36.5zM287 398q30 0 49 25.5t19 73.5q0 50 -20.5 85.5t-56.5 35.5q-29 0 -48.5 -25.5t-19.5 -73.5q0 -49 21 -85t56 -36z" />
    <glyph glyph-name="plusminus" unicode="&#xb1;" horiz-adv-x="458" 
d="M302 387h136l-23 -69h-135l-49 -152h-67l49 152h-136l23 69h135l49 150h67zM10 -4l22 69h333l-22 -69h-333z" />
    <glyph glyph-name="uni00B2" unicode="&#xb2;" horiz-adv-x="247" 
d="M98 393v16q8 6 40 28.5t50 36t41.5 34t35 38.5t11.5 34q0 13 -8.5 23.5t-24.5 10.5q-33 0 -73 -48l-6 20q40 59 100 59q27 0 42 -15t15 -41q0 -22 -11 -43t-32.5 -39t-40 -31t-45 -29.5t-36.5 -23.5l57 4q43 0 72 43l11 -7l-40 -70h-158z" />
    <glyph glyph-name="uni00B3" unicode="&#xb3;" horiz-adv-x="231" 
d="M147 384q-21 0 -37 6t-16 18q0 10 6.5 15.5t14.5 5.5t17.5 -15.5t25.5 -15.5q29 0 53.5 25.5t24.5 54.5q0 35 -42 35q-16 0 -35 -7l-1 12l32 12q35 13 53.5 26.5t18.5 35.5q0 21 -29 21q-37 0 -66 -27l-6 8q44 47 98 47q46 0 46 -37q0 -42 -73 -72q52 -4 52 -45
q0 -39 -44 -71t-93 -32z" />
    <glyph glyph-name="acute" unicode="&#xb4;" horiz-adv-x="126" 
d="M131 508l-26 17q25 88 69 150q22 0 46.5 -18.5t32.5 -39.5q-56 -39 -122 -109z" />
    <glyph glyph-name="paragraph" unicode="&#xb6;" horiz-adv-x="694" 
d="M434 630h364l-5 -25q-26 -5 -39 -8.5t-29 -12.5t-26.5 -24.5t-18.5 -39.5l-178 -547q-47 -148 -218 -148h-66l11 33l225 695q8 23 1 31t-36 8q-81 0 -146.5 -75.5t-65.5 -157.5q0 -88 101 -88q8 0 10.5 -9.5t-1.5 -18.5t-11 -9q-98 0 -156 41t-58 119q0 74 48.5 128.5
t125 81t168.5 26.5zM579 553q9 29 5 36.5t-23 7.5q-44 0 -62 -58l-221 -680q45 5 71 36t46 90z" />
    <glyph glyph-name="periodcentered" unicode="&#xb7;" horiz-adv-x="230" 
d="M141 231q-28 0 -48 20t-20 48q0 27 20 46.5t48 19.5t48 -19.5t20 -46.5q0 -28 -20 -48t-48 -20z" />
    <glyph glyph-name="cedilla" unicode="&#xb8;" horiz-adv-x="199" 
d="M-83 -212l5 24q46 0 68 13.5t22 32.5q0 44 -111 44l50 98h46l-24 -47q44 0 76 -21.5t32 -58.5q0 -39 -40.5 -62t-123.5 -23z" />
    <glyph glyph-name="uni00B9" unicode="&#xb9;" horiz-adv-x="191" 
d="M100 398l3 11q38 5 45 28l48 146q2 6 3 11t0.5 8.5t-2.5 5.5t-6 1l-20 -3l4 11l78 33l6 -6l-68 -212q-4 -12 1.5 -16.5t24.5 -6.5l-3 -11h-114z" />
    <glyph glyph-name="ordmasculine" unicode="&#xba;" horiz-adv-x="327" 
d="M193 345q-35 0 -56.5 21t-21.5 65q0 78 56 141t124 63q77 0 77 -85q0 -77 -55.5 -141t-123.5 -64zM207 365q41 0 72.5 72t31.5 126q0 24 -8.5 38.5t-21.5 14.5q-41 0 -72.5 -71.5t-31.5 -123.5q0 -26 8.5 -41t21.5 -15zM48 220l16 50h249l-16 -50h-249z" />
    <glyph glyph-name="guillemotright" unicode="&#xbb;" horiz-adv-x="403" 
d="M198 227l-182 -140l-8 14l121 126l-39 126l17 13zM355 227l-181 -140l-8 14l120 126l-38 126l17 13z" />
    <glyph glyph-name="onequarter" unicode="&#xbc;" horiz-adv-x="508" 
d="M217 409l-3 -11h-114l3 11q38 5 45 28l48 146q2 6 3 11t0.5 8.5t-2.5 5.5t-6 1l-20 -3l4 11l78 33l6 -6l-68 -212q-4 -12 1.5 -16.5t24.5 -6.5zM561 636h25l-598 -641h-25zM425 246h42l-52 -160h33l-10 -20h-30l-11 -34q-4 -12 1.5 -16t24.5 -6l-3 -10h-112l4 10
q21 2 28.5 6t11.5 16l11 34h-97l3 20zM287 86h83l41 127z" />
    <glyph glyph-name="onehalf" unicode="&#xbd;" horiz-adv-x="539" 
d="M100 398l3 11q38 5 45 28l48 146q2 6 3 11t0.5 8.5t-2.5 5.5t-6 1l-20 -3l4 11l78 33l6 -6l-68 -212q-4 -12 1.5 -16.5t24.5 -6.5l-3 -11h-114zM-37 -5l598 641h25l-598 -641h-25zM262 0v16q8 6 40 28.5t50 36t41.5 34t35 38.5t11.5 34q0 13 -8.5 23.5t-24.5 10.5
q-33 0 -73 -48l-6 20q40 59 100 59q27 0 42 -15t15 -41q0 -22 -11 -43t-32.5 -39t-40 -31t-45 -29.5t-36.5 -23.5l57 4q43 0 72 43l11 -7l-40 -70h-158z" />
    <glyph glyph-name="threequarters" unicode="&#xbe;" horiz-adv-x="672" 
d="M147 384q-21 0 -37 6t-16 18q0 10 6.5 15.5t14.5 5.5t17.5 -15.5t25.5 -15.5q29 0 53.5 25.5t24.5 54.5q0 35 -42 35q-16 0 -35 -7l-1 12l32 12q35 13 53.5 26.5t18.5 35.5q0 21 -29 21q-37 0 -66 -27l-6 8q44 47 98 47q46 0 46 -37q0 -42 -73 -72q52 -4 52 -45
q0 -39 -44 -71t-93 -32zM652 636h25l-597 -641h-25zM575 246h42l-52 -160h33l-10 -20h-30l-11 -34q-4 -12 1.5 -16t24.5 -6l-3 -10h-112l4 10q21 2 28.5 6t11.5 16l11 34h-97l3 20zM437 86h83l41 127z" />
    <glyph glyph-name="questiondown" unicode="&#xbf;" horiz-adv-x="436" 
d="M272 455q28 0 48 -19.5t20 -47.5t-20 -47t-48 -19t-48 19t-20 47t20 47.5t48 19.5zM250 257q1 -39 -13.5 -73t-39.5 -61.5t-51.5 -54.5t-52.5 -65t-40 -79q-17 -52 1.5 -76t75.5 -24q24 0 53 41q32 46 51.5 63t38.5 17q29 0 29 -32q0 -39 -44.5 -69.5t-99 -44
t-100.5 -13.5q-74 0 -104 45t-7 115q15 46 46.5 82.5t67 60.5t69.5 47t61.5 53.5t37.5 67.5h21z" />
    <glyph glyph-name="Agrave" unicode="&#xc0;" horiz-adv-x="634" 
d="M465 698q-66 70 -122 109q8 21 32.5 39.5t47.5 18.5q44 -62 69 -150zM516 86q2 -33 12.5 -43.5t44.5 -18.5l-6 -24h-248l7 25l25.5 6t21.5 7t19 10.5t10.5 16t3.5 23.5l-5 104h-229l-77 -110q-14 -20 -13 -31.5t8.5 -15t28.5 -9.5q4 -1 7 -2l-7 -24h-171l7 25q38 7 55 18
t42 45l393 549h37zM194 224h205l-14 274z" />
    <glyph glyph-name="Aacute" unicode="&#xc1;" horiz-adv-x="634" 
d="M589 807q-56 -39 -122 -109l-26 17q25 88 69 150q22 0 46.5 -18.5t32.5 -39.5zM516 86q2 -33 12.5 -43.5t44.5 -18.5l-6 -24h-248l7 25l25.5 6t21.5 7t19 10.5t10.5 16t3.5 23.5l-5 104h-229l-77 -110q-14 -20 -13 -31.5t8.5 -15t28.5 -9.5q4 -1 7 -2l-7 -24h-171l7 25
q38 7 55 18t42 45l393 549h37zM194 224h205l-14 274z" />
    <glyph glyph-name="Acircumflex" unicode="&#xc2;" horiz-adv-x="634" 
d="M542 878l79 -151l-16 -14l-85 88l-141 -88l-10 13zM516 86q2 -33 12.5 -43.5t44.5 -18.5l-6 -24h-248l7 25l25.5 6t21.5 7t19 10.5t10.5 16t3.5 23.5l-5 104h-229l-77 -110q-14 -20 -13 -31.5t8.5 -15t28.5 -9.5q4 -1 7 -2l-7 -24h-171l7 25q38 7 55 18t42 45l393 549h37
zM194 224h205l-14 274z" />
    <glyph glyph-name="Atilde" unicode="&#xc3;" horiz-adv-x="634" 
d="M662 833l16 -13q-7 -48 -42.5 -77t-78.5 -29q-20 0 -35 7.5t-24 18t-17 21t-19.5 18t-26.5 7.5q-25 0 -47 -18.5t-27 -34.5l-17 13q8 48 43 77t78 29q25 0 42 -11t25 -25t22 -25t32 -11q26 0 48 18t28 35zM516 86q2 -33 12.5 -43.5t44.5 -18.5l-6 -24h-248l7 25l25.5 6
t21.5 7t19 10.5t10.5 16t3.5 23.5l-5 104h-229l-77 -110q-14 -20 -13 -31.5t8.5 -15t28.5 -9.5q4 -1 7 -2l-7 -24h-171l7 25q38 7 55 18t42 45l393 549h37zM194 224h205l-14 274z" />
    <glyph glyph-name="Adieresis" unicode="&#xc4;" horiz-adv-x="634" 
d="M383 755q-24 0 -40 16.5t-16 39.5t16 39.5t40 16.5q23 0 39 -16.5t16 -39.5t-16 -39.5t-39 -16.5zM588 867q23 0 39.5 -16.5t16.5 -39.5t-16.5 -39.5t-39.5 -16.5t-39.5 16.5t-16.5 39.5t16.5 39.5t39.5 16.5zM516 86q2 -33 12.5 -43.5t44.5 -18.5l-6 -24h-248l7 25
l25.5 6t21.5 7t19 10.5t10.5 16t3.5 23.5l-5 104h-229l-77 -110q-14 -20 -13 -31.5t8.5 -15t28.5 -9.5q4 -1 7 -2l-7 -24h-171l7 25q38 7 55 18t42 45l393 549h37zM194 224h205l-14 274z" />
    <glyph glyph-name="Aring" unicode="&#xc5;" horiz-adv-x="634" 
d="M526 902q39 0 65.5 -26.5t26.5 -64.5t-26.5 -64t-65.5 -26t-65.5 26t-26.5 64t26.5 64.5t65.5 26.5zM526 767q19 0 32 12.5t13 31.5t-13 32t-32 13q-20 0 -32.5 -13t-12.5 -32t12.5 -31.5t32.5 -12.5zM516 86q2 -33 12.5 -43.5t44.5 -18.5l-6 -24h-248l7 25l25.5 6
t21.5 7t19 10.5t10.5 16t3.5 23.5l-5 104h-229l-77 -110q-14 -20 -13 -31.5t8.5 -15t28.5 -9.5q4 -1 7 -2l-7 -24h-171l7 25q38 7 55 18t42 45l393 549h37zM194 224h205l-14 274z" />
    <glyph glyph-name="AE" unicode="&#xc6;" horiz-adv-x="909" 
d="M966 630l-40 -144h-25q16 58 5.5 83t-57.5 25h-76q-51 0 -74 -17t-39 -68l-56 -173h62q76 0 105.5 20t50.5 71h22l-69 -211h-21q13 54 -2 69t-94 15h-66l-63 -193q-9 -26 -10.5 -39.5t7 -21t21 -8.5t42.5 -1h56q52 0 91.5 27.5t87.5 93.5h29l-90 -158h-452l7 25
q31 6 46 11.5t31.5 23.5t26.5 50l27 82h-236l-114 -118q-13 -13 -18.5 -21.5t-2.5 -13.5t5.5 -6.5t14 -4.5t16.5 -5l-12 -23h-155l13 25q39 8 58.5 18.5t51.5 43.5l485 504q-10 8 -46 15l7 24h450zM458 221l99 304q7 22 8 33l-325 -337h218z" />
    <glyph glyph-name="Ccedilla" unicode="&#xc7;" horiz-adv-x="583" 
d="M486 645q111 0 158 -57l-32 -131h-31q6 76 -18.5 114t-87.5 38q-83 0 -152.5 -64t-105.5 -153t-36 -174q0 -84 40 -131.5t112 -47.5q100 0 166 58l12 -32q-37 -34 -96 -55.5t-125 -22.5l-17 -34q43 0 75 -21.5t32 -58.5q0 -39 -40.5 -62t-122.5 -23l5 24q45 0 67 13.5
t22 32.5q0 44 -110 44l44 87q-89 10 -134 68t-45 151q0 109 56.5 209.5t154.5 164t209 63.5z" />
    <glyph glyph-name="Egrave" unicode="&#xc8;" horiz-adv-x="557" 
d="M413 698q-66 70 -122 109q8 21 32.5 39.5t47.5 18.5q44 -62 69 -150zM164 630h450l-40 -144h-25q16 58 5.5 83t-57.5 25h-76q-51 0 -74 -17t-39 -68l-56 -173h62q76 0 105.5 20t50.5 71h22l-69 -211h-21q13 54 -2 69t-94 15h-66l-63 -193q-9 -26 -10.5 -39.5t7 -21
t21 -8.5t42.5 -1h56q52 0 91.5 27.5t87.5 93.5h29l-90 -158h-453l7 25q31 6 46.5 11.5t32 23.5t26.5 50l135 415q8 25 9 39.5t-8 23t-18.5 11.5t-30.5 7z" />
    <glyph glyph-name="Eacute" unicode="&#xc9;" horiz-adv-x="557" 
d="M537 807q-56 -39 -122 -109l-26 17q25 88 69 150q22 0 46.5 -18.5t32.5 -39.5zM164 630h450l-40 -144h-25q16 58 5.5 83t-57.5 25h-76q-51 0 -74 -17t-39 -68l-56 -173h62q76 0 105.5 20t50.5 71h22l-69 -211h-21q13 54 -2 69t-94 15h-66l-63 -193q-9 -26 -10.5 -39.5
t7 -21t21 -8.5t42.5 -1h56q52 0 91.5 27.5t87.5 93.5h29l-90 -158h-453l7 25q31 6 46.5 11.5t32 23.5t26.5 50l135 415q8 25 9 39.5t-8 23t-18.5 11.5t-30.5 7z" />
    <glyph glyph-name="Ecircumflex" unicode="&#xca;" horiz-adv-x="557" 
d="M468 801l-141 -88l-10 13l173 152l79 -151l-16 -14zM164 630h450l-40 -144h-25q16 58 5.5 83t-57.5 25h-76q-51 0 -74 -17t-39 -68l-56 -173h62q76 0 105.5 20t50.5 71h22l-69 -211h-21q13 54 -2 69t-94 15h-66l-63 -193q-9 -26 -10.5 -39.5t7 -21t21 -8.5t42.5 -1h56
q52 0 91.5 27.5t87.5 93.5h29l-90 -158h-453l7 25q31 6 46.5 11.5t32 23.5t26.5 50l135 415q8 25 9 39.5t-8 23t-18.5 11.5t-30.5 7z" />
    <glyph glyph-name="Edieresis" unicode="&#xcb;" horiz-adv-x="557" 
d="M331 755q-24 0 -40 16.5t-16 39.5t16 39.5t40 16.5q23 0 39 -16.5t16 -39.5t-16 -39.5t-39 -16.5zM536 755q-23 0 -39.5 16.5t-16.5 39.5t16.5 39.5t39.5 16.5t39.5 -16.5t16.5 -39.5t-16.5 -39.5t-39.5 -16.5zM164 630h450l-40 -144h-25q16 58 5.5 83t-57.5 25h-76
q-51 0 -74 -17t-39 -68l-56 -173h62q76 0 105.5 20t50.5 71h22l-69 -211h-21q13 54 -2 69t-94 15h-66l-63 -193q-9 -26 -10.5 -39.5t7 -21t21 -8.5t42.5 -1h56q52 0 91.5 27.5t87.5 93.5h29l-90 -158h-453l7 25q31 6 46.5 11.5t32 23.5t26.5 50l135 415q8 25 9 39.5t-8 23
t-18.5 11.5t-30.5 7z" />
    <glyph glyph-name="Igrave" unicode="&#xcc;" horiz-adv-x="316" 
d="M293 698q-66 70 -122 109q8 21 32.5 39.5t47.5 18.5q44 -62 69 -150zM-40 0l7 24q43 8 65 23.5t37 62.5l135 415q8 25 9 39.5t-8 23t-18 11.5t-31 7l7 24h260l-8 -25q-45 -8 -67.5 -23.5t-37.5 -61.5l-135 -415q-6 -20 -7 -33.5t1 -21.5t12.5 -13.5t17.5 -7.5t25 -6
l-6 -23h-258z" />
    <glyph glyph-name="Iacute" unicode="&#xcd;" horiz-adv-x="316" 
d="M295 698l-26 17q25 88 69 150q22 0 46.5 -18.5t32.5 -39.5q-56 -39 -122 -109zM-40 0l7 24q43 8 65 23.5t37 62.5l135 415q8 25 9 39.5t-8 23t-18 11.5t-31 7l7 24h260l-8 -25q-45 -8 -67.5 -23.5t-37.5 -61.5l-135 -415q-6 -20 -7 -33.5t1 -21.5t12.5 -13.5t17.5 -7.5
t25 -6l-6 -23h-258z" />
    <glyph glyph-name="Icircumflex" unicode="&#xce;" horiz-adv-x="316" 
d="M370 878l79 -151l-16 -14l-85 88l-141 -88l-10 13zM-40 0l7 24q43 8 65 23.5t37 62.5l135 415q8 25 9 39.5t-8 23t-18 11.5t-31 7l7 24h260l-8 -25q-45 -8 -67.5 -23.5t-37.5 -61.5l-135 -415q-6 -20 -7 -33.5t1 -21.5t12.5 -13.5t17.5 -7.5t25 -6l-6 -23h-258z" />
    <glyph glyph-name="Idieresis" unicode="&#xcf;" horiz-adv-x="316" 
d="M211 755q-24 0 -40 16.5t-16 39.5t16 39.5t40 16.5q23 0 39 -16.5t16 -39.5t-16 -39.5t-39 -16.5zM416 755q-23 0 -39.5 16.5t-16.5 39.5t16.5 39.5t39.5 16.5t39.5 -16.5t16.5 -39.5t-16.5 -39.5t-39.5 -16.5zM-40 0l7 24q43 8 65 23.5t37 62.5l135 415q8 25 9 39.5
t-8 23t-18 11.5t-31 7l7 24h260l-8 -25q-45 -8 -67.5 -23.5t-37.5 -61.5l-135 -415q-6 -20 -7 -33.5t1 -21.5t12.5 -13.5t17.5 -7.5t25 -6l-6 -23h-258z" />
    <glyph glyph-name="Eth" unicode="&#xd0;" horiz-adv-x="683" 
d="M441 630q108 0 179.5 -53.5t71.5 -163.5q0 -166 -135 -289.5t-320 -123.5h-245l7 25q31 6 46.5 11.5t32 23.5t26.5 50l60 185l-109 -3l10 38l110 -3l64 198q8 25 9 39.5t-8 23t-18.5 11.5t-30.5 7l6 24h244zM268 36q83 0 157 63.5t116 157.5t42 186q0 151 -159 151h-55
l-87 -267l116 3l-10 -38l-116 3l-55 -168q-17 -52 -6 -71.5t57 -19.5z" />
    <glyph glyph-name="Ntilde" unicode="&#xd1;" horiz-adv-x="635" 
d="M431 786q-25 0 -47 -18.5t-27 -34.5l-17 13q8 48 43 77t78 29q25 0 42 -11t25 -25t22 -25t32 -11q26 0 48 18t28 35l16 -13q-7 -48 -42.5 -77t-78.5 -29q-20 0 -35 7.5t-24 18t-17 21t-19.5 18t-26.5 7.5zM554 630h198l-7 -24q-44 -7 -68 -23.5t-39 -62.5l-169 -520h-43
l-177 534l-140 -429q-7 -20 -7.5 -33.5t2 -21.5t13 -13.5t19 -7.5t27.5 -6l-6 -23h-198l6 24q45 8 68.5 24t38.5 62l135 415q6 20 7 33.5t-1 21.5t-12 13t-17.5 7.5t-24.5 5.5l6 24h167l152 -460l118 355q15 46 2 60t-57 22z" />
    <glyph glyph-name="Ograve" unicode="&#xd2;" horiz-adv-x="675" 
d="M473 698q-66 70 -122 109q8 21 32.5 39.5t47.5 18.5q44 -62 69 -150zM267 -13q-95 0 -149 57.5t-54 154.5q0 110 56.5 213.5t152.5 168t202 64.5q96 0 149.5 -57t53.5 -154q0 -110 -57 -213.5t-152.5 -168.5t-201.5 -65zM285 23q74 0 141 73t103 173.5t36 189.5
q0 71 -27.5 110.5t-81.5 39.5q-56 0 -109 -43.5t-89.5 -108.5t-58.5 -141t-22 -141q0 -72 27.5 -112t80.5 -40z" />
    <glyph glyph-name="Oacute" unicode="&#xd3;" horiz-adv-x="675" 
d="M475 698l-26 17q25 88 69 150q22 0 46.5 -18.5t32.5 -39.5q-56 -39 -122 -109zM267 -13q-95 0 -149 57.5t-54 154.5q0 110 56.5 213.5t152.5 168t202 64.5q96 0 149.5 -57t53.5 -154q0 -110 -57 -213.5t-152.5 -168.5t-201.5 -65zM285 23q74 0 141 73t103 173.5t36 189.5
q0 71 -27.5 110.5t-81.5 39.5q-56 0 -109 -43.5t-89.5 -108.5t-58.5 -141t-22 -141q0 -72 27.5 -112t80.5 -40z" />
    <glyph glyph-name="Ocircumflex" unicode="&#xd4;" horiz-adv-x="675" 
d="M550 878l79 -151l-16 -14l-85 88l-141 -88l-10 13zM267 -13q-95 0 -149 57.5t-54 154.5q0 110 56.5 213.5t152.5 168t202 64.5q96 0 149.5 -57t53.5 -154q0 -110 -57 -213.5t-152.5 -168.5t-201.5 -65zM285 23q74 0 141 73t103 173.5t36 189.5q0 71 -27.5 110.5
t-81.5 39.5q-56 0 -109 -43.5t-89.5 -108.5t-58.5 -141t-22 -141q0 -72 27.5 -112t80.5 -40z" />
    <glyph glyph-name="Otilde" unicode="&#xd5;" horiz-adv-x="675" 
d="M565 714q-20 0 -35 7.5t-24 18t-17 21t-19.5 18t-26.5 7.5q-25 0 -47 -18.5t-27 -34.5l-17 13q8 48 43 77t78 29q25 0 42 -11t25 -25t22 -25t32 -11q26 0 48 18t28 35l16 -13q-7 -48 -42.5 -77t-78.5 -29zM267 -13q-95 0 -149 57.5t-54 154.5q0 110 56.5 213.5t152.5 168
t202 64.5q96 0 149.5 -57t53.5 -154q0 -110 -57 -213.5t-152.5 -168.5t-201.5 -65zM285 23q74 0 141 73t103 173.5t36 189.5q0 71 -27.5 110.5t-81.5 39.5q-56 0 -109 -43.5t-89.5 -108.5t-58.5 -141t-22 -141q0 -72 27.5 -112t80.5 -40z" />
    <glyph glyph-name="Odieresis" unicode="&#xd6;" horiz-adv-x="675" 
d="M391 755q-24 0 -40 16.5t-16 39.5t16 39.5t40 16.5q23 0 39 -16.5t16 -39.5t-16 -39.5t-39 -16.5zM596 755q-23 0 -39.5 16.5t-16.5 39.5t16.5 39.5t39.5 16.5t39.5 -16.5t16.5 -39.5t-16.5 -39.5t-39.5 -16.5zM267 -13q-95 0 -149 57.5t-54 154.5q0 110 56.5 213.5
t152.5 168t202 64.5q96 0 149.5 -57t53.5 -154q0 -110 -57 -213.5t-152.5 -168.5t-201.5 -65zM285 23q74 0 141 73t103 173.5t36 189.5q0 71 -27.5 110.5t-81.5 39.5q-56 0 -109 -43.5t-89.5 -108.5t-58.5 -141t-22 -141q0 -72 27.5 -112t80.5 -40z" />
    <glyph glyph-name="multiply" unicode="&#xd7;" horiz-adv-x="397" 
d="M390 359l-134 -109l61 -108l-61 -49l-61 107l-135 -110l-29 55l134 109l-62 108l62 49l61 -107l135 110z" />
    <glyph glyph-name="Oslash" unicode="&#xd8;" horiz-adv-x="675" 
d="M574 624q104 -50 104 -190q0 -110 -57 -213.5t-152.5 -168.5t-201.5 -65q-44 0 -83 14l-31 -50l-19 13l29 46q-99 53 -99 189q0 110 56.5 213.5t152.5 168t202 64.5q43 0 77 -12l39 62l19 -13zM177 175q0 -67 23 -105l323 516q-26 23 -67 23q-56 0 -109 -43.5
t-89.5 -108.5t-58.5 -141t-22 -141zM285 23q74 0 141 73t103 173.5t36 189.5q0 69 -26 109l-324 -518q25 -27 70 -27z" />
    <glyph glyph-name="Ugrave" unicode="&#xd9;" horiz-adv-x="654" 
d="M471 698q-66 70 -122 109q8 21 32.5 39.5t47.5 18.5q44 -62 69 -150zM271 -11q-35 0 -64 7t-55.5 26t-41 48.5t-13.5 78t21 110.5l86 266q8 25 9 39.5t-8 23t-18 11.5t-31 7l7 24h260l-8 -25q-44 -8 -66.5 -23.5t-37.5 -61.5l-93 -289q-16 -49 -18 -86.5t6 -58t24.5 -33
t32.5 -16.5t36 -4q29 0 57.5 9t59.5 30t58.5 61.5t46.5 97.5l95 294q6 20 6.5 33.5t-1.5 21t-12.5 13t-18 7.5t-24.5 6l7 24h198l-8 -25q-33 -6 -49 -11.5t-33 -23.5t-28 -50l-92 -283q-81 -248 -290 -248z" />
    <glyph glyph-name="Uacute" unicode="&#xda;" horiz-adv-x="654" 
d="M473 698l-26 17q25 88 69 150q22 0 46.5 -18.5t32.5 -39.5q-56 -39 -122 -109zM271 -11q-35 0 -64 7t-55.5 26t-41 48.5t-13.5 78t21 110.5l86 266q8 25 9 39.5t-8 23t-18 11.5t-31 7l7 24h260l-8 -25q-44 -8 -66.5 -23.5t-37.5 -61.5l-93 -289q-16 -49 -18 -86.5t6 -58
t24.5 -33t32.5 -16.5t36 -4q29 0 57.5 9t59.5 30t58.5 61.5t46.5 97.5l95 294q6 20 6.5 33.5t-1.5 21t-12.5 13t-18 7.5t-24.5 6l7 24h198l-8 -25q-33 -6 -49 -11.5t-33 -23.5t-28 -50l-92 -283q-81 -248 -290 -248z" />
    <glyph glyph-name="Ucircumflex" unicode="&#xdb;" horiz-adv-x="654" 
d="M548 878l79 -151l-16 -14l-85 88l-141 -88l-10 13zM271 -11q-35 0 -64 7t-55.5 26t-41 48.5t-13.5 78t21 110.5l86 266q8 25 9 39.5t-8 23t-18 11.5t-31 7l7 24h260l-8 -25q-44 -8 -66.5 -23.5t-37.5 -61.5l-93 -289q-16 -49 -18 -86.5t6 -58t24.5 -33t32.5 -16.5t36 -4
q29 0 57.5 9t59.5 30t58.5 61.5t46.5 97.5l95 294q6 20 6.5 33.5t-1.5 21t-12.5 13t-18 7.5t-24.5 6l7 24h198l-8 -25q-33 -6 -49 -11.5t-33 -23.5t-28 -50l-92 -283q-81 -248 -290 -248z" />
    <glyph glyph-name="Udieresis" unicode="&#xdc;" horiz-adv-x="654" 
d="M389 755q-24 0 -40 16.5t-16 39.5t16 39.5t40 16.5q23 0 39 -16.5t16 -39.5t-16 -39.5t-39 -16.5zM594 755q-23 0 -39.5 16.5t-16.5 39.5t16.5 39.5t39.5 16.5t39.5 -16.5t16.5 -39.5t-16.5 -39.5t-39.5 -16.5zM271 -11q-35 0 -64 7t-55.5 26t-41 48.5t-13.5 78t21 110.5
l86 266q8 25 9 39.5t-8 23t-18 11.5t-31 7l7 24h260l-8 -25q-44 -8 -66.5 -23.5t-37.5 -61.5l-93 -289q-16 -49 -18 -86.5t6 -58t24.5 -33t32.5 -16.5t36 -4q29 0 57.5 9t59.5 30t58.5 61.5t46.5 97.5l95 294q6 20 6.5 33.5t-1.5 21t-12.5 13t-18 7.5t-24.5 6l7 24h198
l-8 -25q-33 -6 -49 -11.5t-33 -23.5t-28 -50l-92 -283q-81 -248 -290 -248z" />
    <glyph glyph-name="Yacute" unicode="&#xdd;" horiz-adv-x="598" 
d="M564 807q-56 -39 -122 -109l-26 17q25 88 69 150q22 0 46.5 -18.5t32.5 -39.5zM550 630h185l-7 -25q-41 -7 -58 -17.5t-51 -48.5l-239 -269l-53 -164q-15 -47 -1 -61t66 -22l-6 -23h-284l7 24q50 8 73.5 24t38.5 63l50 153l-67 276q-9 38 -20 49t-48 18l7 23h257l-7 -25
q-23 -5 -33 -7.5t-24.5 -10t-18 -19.5t0.5 -29l56 -229l204 234q20 23 19 36t-9.5 16.5t-35.5 8.5q-5 1 -8 2z" />
    <glyph glyph-name="Thorn" unicode="&#xde;" horiz-adv-x="544" 
d="M179 119l-4 -14q-6 -20 -7 -33.5t1 -21.5t12.5 -13.5t17.5 -7.5t25 -6l-6 -23h-258l7 24q43 8 65 23.5t37 62.5l135 415q8 25 9 39.5t-8 23t-18 11.5t-31 7l7 24h260l-8 -25q-45 -8 -67.5 -23.5t-37.5 -61.5l-3 -11q51 -2 89.5 -9t73 -22.5t53 -45.5t18.5 -73
q0 -62 -29 -108.5t-80.5 -73.5t-114 -41t-138.5 -17zM294 472l-102 -314q107 11 173 67.5t66 141.5q0 54 -32 77.5t-105 27.5z" />
    <glyph glyph-name="germandbls" unicode="&#xdf;" horiz-adv-x="536" 
d="M394 343l60 -90q28 -43 28 -87q0 -74 -85.5 -126.5t-164.5 -52.5q-68 0 -68 48q0 21 13 33t34 12t47 -25.5t36 -25.5q29 0 59.5 35.5t30.5 70.5q0 27 -17 58l-70 115q72 62 113.5 116.5t41.5 114.5q0 61 -51 61q-43 0 -76 -40.5t-54 -103.5l-148 -456h-163l6 25
q36 6 57 18.5t31 42.5l124 383q26 79 87 123.5t141 44.5q66 0 99.5 -28.5t33.5 -77.5q0 -56 -40 -100.5t-105 -87.5z" />
    <glyph glyph-name="agrave" unicode="&#xe0;" horiz-adv-x="481" 
d="M308 498q-66 70 -122 109q8 21 32.5 39.5t47.5 18.5q44 -62 69 -150zM341 110q-16 -45 1 -41q23 6 86 91l17 -18q-99 -152 -172 -152q-29 0 -40 20t-1 48l35 101q-42 -48 -71 -78t-68 -60.5t-61 -30.5q-24 0 -42.5 25.5t-18.5 75.5q0 81 49.5 162t131.5 133.5t168 52.5
q47 0 98 -9zM130 77q25 0 155 132l60 172q-34 21 -63 21q-61 0 -122.5 -94.5t-61.5 -174.5q0 -56 32 -56z" />
    <glyph glyph-name="aacute" unicode="&#xe1;" horiz-adv-x="481" 
d="M432 607q-56 -39 -122 -109l-26 17q25 88 69 150q22 0 46.5 -18.5t32.5 -39.5zM341 110q-16 -45 1 -41q23 6 86 91l17 -18q-99 -152 -172 -152q-29 0 -40 20t-1 48l35 101q-42 -48 -71 -78t-68 -60.5t-61 -30.5q-24 0 -42.5 25.5t-18.5 75.5q0 81 49.5 162t131.5 133.5
t168 52.5q47 0 98 -9zM130 77q25 0 155 132l60 172q-34 21 -63 21q-61 0 -122.5 -94.5t-61.5 -174.5q0 -56 32 -56z" />
    <glyph glyph-name="acircumflex" unicode="&#xe2;" horiz-adv-x="481" 
d="M363 601l-141 -88l-10 13l173 152l79 -151l-16 -14zM453 430l-112 -320q-16 -45 1 -41q23 6 86 91l17 -18q-99 -152 -172 -152q-29 0 -40 20t-1 48l35 101q-42 -48 -71 -78t-68 -60.5t-61 -30.5q-24 0 -42.5 25.5t-18.5 75.5q0 81 49.5 162t131.5 133.5t168 52.5
q47 0 98 -9zM285 209l60 172q-34 21 -63 21q-61 0 -122.5 -94.5t-61.5 -174.5q0 -56 32 -56q25 0 155 132z" />
    <glyph glyph-name="atilde" unicode="&#xe3;" horiz-adv-x="481" 
d="M505 633l16 -13q-7 -48 -42.5 -77t-78.5 -29q-20 0 -35 7.5t-24 18t-17 21t-19.5 18t-26.5 7.5q-25 0 -47 -18.5t-27 -34.5l-17 13q8 48 43 77t78 29q25 0 42 -11t25 -25t22 -25t32 -11q26 0 48 18t28 35zM453 430l-112 -320q-16 -45 1 -41q23 6 86 91l17 -18
q-99 -152 -172 -152q-29 0 -40 20t-1 48l35 101q-42 -48 -71 -78t-68 -60.5t-61 -30.5q-24 0 -42.5 25.5t-18.5 75.5q0 81 49.5 162t131.5 133.5t168 52.5q47 0 98 -9zM285 209l60 172q-34 21 -63 21q-61 0 -122.5 -94.5t-61.5 -174.5q0 -56 32 -56q25 0 155 132z" />
    <glyph glyph-name="adieresis" unicode="&#xe4;" horiz-adv-x="481" 
d="M226 555q-24 0 -40 16.5t-16 39.5t16 39.5t40 16.5q23 0 39 -16.5t16 -39.5t-16 -39.5t-39 -16.5zM431 667q23 0 39.5 -16.5t16.5 -39.5t-16.5 -39.5t-39.5 -16.5t-39.5 16.5t-16.5 39.5t16.5 39.5t39.5 16.5zM453 430l-112 -320q-16 -45 1 -41q23 6 86 91l17 -18
q-99 -152 -172 -152q-29 0 -40 20t-1 48l35 101q-42 -48 -71 -78t-68 -60.5t-61 -30.5q-24 0 -42.5 25.5t-18.5 75.5q0 81 49.5 162t131.5 133.5t168 52.5q47 0 98 -9zM285 209l60 172q-34 21 -63 21q-61 0 -122.5 -94.5t-61.5 -174.5q0 -56 32 -56q25 0 155 132z" />
    <glyph glyph-name="aring" unicode="&#xe5;" horiz-adv-x="481" 
d="M369 521q-39 0 -65.5 26t-26.5 64t26.5 64.5t65.5 26.5t65.5 -26.5t26.5 -64.5t-26.5 -64t-65.5 -26zM369 656q-20 0 -32.5 -13t-12.5 -32t12.5 -31.5t32.5 -12.5q19 0 32 12.5t13 31.5t-13 32t-32 13zM453 430l-112 -320q-16 -45 1 -41q23 6 86 91l17 -18
q-99 -152 -172 -152q-29 0 -40 20t-1 48l35 101q-42 -48 -71 -78t-68 -60.5t-61 -30.5q-24 0 -42.5 25.5t-18.5 75.5q0 81 49.5 162t131.5 133.5t168 52.5q47 0 98 -9zM285 209l60 172q-34 21 -63 21q-61 0 -122.5 -94.5t-61.5 -174.5q0 -56 32 -56q25 0 155 132z" />
    <glyph glyph-name="ae" unicode="&#xe6;" horiz-adv-x="627" 
d="M629 365q0 -123 -265 -180q-2 -22 -2 -31q0 -40 18.5 -65t53.5 -25q27 0 60 16t57 47l13 -19q-33 -57 -86.5 -87t-101.5 -30q-52 0 -83 35.5t-31 95.5q0 10 2 32q-143 -164 -196 -164q-25 0 -44.5 30t-16.5 87q6 119 110 225.5t218 106.5q54 0 109 -30q54 30 103 30
q42 0 62 -21t20 -53zM542 354q0 49 -35 49q-38 0 -79 -59t-58 -130q81 17 126.5 54t45.5 86zM131 78q25 0 143 120q29 91 102 159q-19 19 -45.5 31t-48.5 12q-59 0 -119 -88.5t-64 -164.5q-2 -29 6 -49t26 -20z" />
    <glyph glyph-name="ccedilla" unicode="&#xe7;" horiz-adv-x="379" 
d="M284 439q48 0 73 -26.5t25 -65.5q0 -28 -13 -45.5t-36 -17.5q-47 0 -40 72q3 32 -2 43.5t-22 11.5q-59 0 -108 -84.5t-49 -162.5q0 -46 21 -73t56 -27q29 0 63.5 18t57.5 50l13 -21q-29 -52 -78.5 -83.5t-97.5 -36.5l-18 -38q43 0 75 -21.5t32 -58.5q0 -39 -40.5 -62
t-122.5 -23l5 24q45 0 67 13.5t22 32.5q0 44 -110 44l47 91q-41 10 -66.5 45t-25.5 89q0 109 87 210.5t185 101.5z" />
    <glyph glyph-name="egrave" unicode="&#xe8;" horiz-adv-x="374" 
d="M260 498q-66 70 -122 109q8 21 32.5 39.5t47.5 18.5q44 -62 69 -150zM377 365q0 -123 -266 -180q-2 -22 -2 -31q0 -40 19 -65t53 -25q28 0 60.5 16t56.5 47l14 -19q-33 -57 -86.5 -87t-102.5 -30q-51 0 -82 35.5t-31 95.5q0 111 93 214t192 103q42 0 62 -21t20 -53z
M255 403q-39 0 -80 -59.5t-58 -129.5q81 17 126.5 53.5t45.5 86.5q0 49 -34 49z" />
    <glyph glyph-name="eacute" unicode="&#xe9;" horiz-adv-x="374" 
d="M384 607q-56 -39 -122 -109l-26 17q25 88 69 150q22 0 46.5 -18.5t32.5 -39.5zM295 439q42 0 62 -21t20 -53q0 -123 -266 -180q-2 -22 -2 -31q0 -40 19 -65t53 -25q28 0 60.5 16t56.5 47l14 -19q-33 -57 -86.5 -87t-102.5 -30q-51 0 -82 35.5t-31 95.5q0 111 93 214
t192 103zM117 214q81 17 126.5 53.5t45.5 86.5q0 49 -34 49q-39 0 -80 -59.5t-58 -129.5z" />
    <glyph glyph-name="ecircumflex" unicode="&#xea;" horiz-adv-x="374" 
d="M337 678l79 -151l-16 -14l-85 88l-141 -88l-10 13zM295 439q42 0 62 -21t20 -53q0 -123 -266 -180q-2 -22 -2 -31q0 -40 19 -65t53 -25q28 0 60.5 16t56.5 47l14 -19q-33 -57 -86.5 -87t-102.5 -30q-51 0 -82 35.5t-31 95.5q0 111 93 214t192 103zM117 214
q81 17 126.5 53.5t45.5 86.5q0 49 -34 49q-39 0 -80 -59.5t-58 -129.5z" />
    <glyph glyph-name="edieresis" unicode="&#xeb;" horiz-adv-x="374" 
d="M177 555q-24 0 -40 16.5t-16 39.5t16 39.5t40 16.5q23 0 39 -16.5t16 -39.5t-16 -39.5t-39 -16.5zM382 667q23 0 39.5 -16.5t16.5 -39.5t-16.5 -39.5t-39.5 -16.5t-39.5 16.5t-16.5 39.5t16.5 39.5t39.5 16.5zM295 439q42 0 62 -21t20 -53q0 -123 -266 -180
q-2 -22 -2 -31q0 -40 19 -65t53 -25q28 0 60.5 16t56.5 47l14 -19q-33 -57 -86.5 -87t-102.5 -30q-51 0 -82 35.5t-31 95.5q0 111 93 214t192 103zM117 214q81 17 126.5 53.5t45.5 86.5q0 49 -34 49q-39 0 -80 -59.5t-58 -129.5z" />
    <glyph glyph-name="igrave" unicode="&#xec;" horiz-adv-x="282" 
d="M206 498q-66 70 -122 109q8 21 32.5 39.5t47.5 18.5q44 -62 69 -150zM228 158l17 -18q-98 -150 -171 -150q-30 0 -41.5 20.5t-0.5 47.5l108 259q19 46 0 41q-26 -6 -88 -89l-16 18q97 150 171 150q30 0 42 -20t1 -48l-108 -259q-19 -45 -1 -41q25 5 87 89z" />
    <glyph glyph-name="iacute" unicode="&#xed;" horiz-adv-x="282" 
d="M208 498l-26 17q25 88 69 150q22 0 46.5 -18.5t32.5 -39.5q-56 -39 -122 -109zM228 158l17 -18q-98 -150 -171 -150q-30 0 -41.5 20.5t-0.5 47.5l108 259q19 46 0 41q-26 -6 -88 -89l-16 18q97 150 171 150q30 0 42 -20t1 -48l-108 -259q-19 -45 -1 -41q25 5 87 89z" />
    <glyph glyph-name="icircumflex" unicode="&#xee;" horiz-adv-x="282" 
d="M283 678l79 -151l-16 -14l-85 88l-141 -88l-10 13zM228 158l17 -18q-98 -150 -171 -150q-30 0 -41.5 20.5t-0.5 47.5l108 259q19 46 0 41q-26 -6 -88 -89l-16 18q97 150 171 150q30 0 42 -20t1 -48l-108 -259q-19 -45 -1 -41q25 5 87 89z" />
    <glyph glyph-name="idieresis" unicode="&#xef;" horiz-adv-x="282" 
d="M124 555q-24 0 -40 16.5t-16 39.5t16 39.5t40 16.5q23 0 39 -16.5t16 -39.5t-16 -39.5t-39 -16.5zM329 555q-23 0 -39.5 16.5t-16.5 39.5t16.5 39.5t39.5 16.5t39.5 -16.5t16.5 -39.5t-16.5 -39.5t-39.5 -16.5zM228 158l17 -18q-98 -150 -171 -150q-30 0 -41.5 20.5
t-0.5 47.5l108 259q19 46 0 41q-26 -6 -88 -89l-16 18q97 150 171 150q30 0 42 -20t1 -48l-108 -259q-19 -45 -1 -41q25 5 87 89z" />
    <glyph glyph-name="eth" unicode="&#xf0;" horiz-adv-x="508" 
d="M570 629l-11 -50q-65 -18 -129 -39q57 -75 57 -176q0 -95 -39.5 -180t-113 -139t-162.5 -54q-67 0 -108 40t-41 109q0 120 90 214.5t209 94.5q14 0 37 -2t29 -2q-6 43 -22 74q-89 -30 -173 -63l11 50q55 15 142 43q-42 52 -116 60l19 28q90 -6 155 -68q80 26 166 60z
M187 26q48 0 92.5 51.5t69.5 120.5t25 126q0 90 -66 90q-48 0 -92.5 -52t-69 -120t-24.5 -125q0 -42 16.5 -66.5t48.5 -24.5z" />
    <glyph glyph-name="ntilde" unicode="&#xf1;" horiz-adv-x="528" 
d="M429 514q-20 0 -35 7.5t-24 18t-17 21t-19.5 18t-26.5 7.5q-25 0 -47 -18.5t-27 -34.5l-17 13q8 48 43 77t78 29q25 0 42 -11t25 -25t22 -25t32 -11q26 0 48 18t28 35l16 -13q-7 -48 -42.5 -77t-78.5 -29zM475 160l17 -18q-99 -152 -176 -152q-27 0 -38.5 16.5t-0.5 43.5
l84 214q12 30 18 48.5t7 31.5t-3.5 18t-15.5 5q-37 0 -117.5 -115.5t-134.5 -251.5h-88l113 317q17 47 -1 42q-24 -5 -87 -90l-16 18q97 150 174 150q26 0 34.5 -16.5t-2.5 -43.5l-77 -192h13q142 252 248 252q99 0 24 -179l-62 -148q-19 -44 -1 -40q25 5 85 86q2 2 3 4z
" />
    <glyph glyph-name="ograve" unicode="&#xf2;" horiz-adv-x="438" 
d="M302 498q-66 70 -122 109q8 21 32.5 39.5t47.5 18.5q44 -62 69 -150zM131 -10q-55 0 -88 30.5t-33 96.5q0 120 93 221t204 101q55 0 88 -30t33 -95q0 -120 -93 -222t-204 -102zM163 20q42 0 82.5 56.5t63 128t22.5 123.5q0 39 -14.5 60t-40.5 21q-43 0 -83.5 -54.5
t-63 -124.5t-22.5 -123q0 -39 15 -63t41 -24z" />
    <glyph glyph-name="oacute" unicode="&#xf3;" horiz-adv-x="438" 
d="M304 498l-26 17q25 88 69 150q22 0 46.5 -18.5t32.5 -39.5q-56 -39 -122 -109zM131 -10q-55 0 -88 30.5t-33 96.5q0 120 93 221t204 101q55 0 88 -30t33 -95q0 -120 -93 -222t-204 -102zM163 20q42 0 82.5 56.5t63 128t22.5 123.5q0 39 -14.5 60t-40.5 21
q-43 0 -83.5 -54.5t-63 -124.5t-22.5 -123q0 -39 15 -63t41 -24z" />
    <glyph glyph-name="ocircumflex" unicode="&#xf4;" horiz-adv-x="438" 
d="M379 678l79 -151l-16 -14l-85 88l-141 -88l-10 13zM131 -10q-55 0 -88 30.5t-33 96.5q0 120 93 221t204 101q55 0 88 -30t33 -95q0 -120 -93 -222t-204 -102zM163 20q42 0 82.5 56.5t63 128t22.5 123.5q0 39 -14.5 60t-40.5 21q-43 0 -83.5 -54.5t-63 -124.5t-22.5 -123
q0 -39 15 -63t41 -24z" />
    <glyph glyph-name="otilde" unicode="&#xf5;" horiz-adv-x="438" 
d="M395 514q-20 0 -35 7.5t-24 18t-17 21t-19.5 18t-26.5 7.5q-25 0 -47 -18.5t-27 -34.5l-17 13q8 48 43 77t78 29q25 0 42 -11t25 -25t22 -25t32 -11q26 0 48 18t28 35l16 -13q-7 -48 -42.5 -77t-78.5 -29zM131 -10q-55 0 -88 30.5t-33 96.5q0 120 93 221t204 101
q55 0 88 -30t33 -95q0 -120 -93 -222t-204 -102zM163 20q42 0 82.5 56.5t63 128t22.5 123.5q0 39 -14.5 60t-40.5 21q-43 0 -83.5 -54.5t-63 -124.5t-22.5 -123q0 -39 15 -63t41 -24z" />
    <glyph glyph-name="odieresis" unicode="&#xf6;" horiz-adv-x="438" 
d="M220 555q-24 0 -40 16.5t-16 39.5t16 39.5t40 16.5q23 0 39 -16.5t16 -39.5t-16 -39.5t-39 -16.5zM425 555q-23 0 -39.5 16.5t-16.5 39.5t16.5 39.5t39.5 16.5t39.5 -16.5t16.5 -39.5t-16.5 -39.5t-39.5 -16.5zM131 -10q-55 0 -88 30.5t-33 96.5q0 120 93 221t204 101
q55 0 88 -30t33 -95q0 -120 -93 -222t-204 -102zM163 20q42 0 82.5 56.5t63 128t22.5 123.5q0 39 -14.5 60t-40.5 21q-43 0 -83.5 -54.5t-63 -124.5t-22.5 -123q0 -39 15 -63t41 -24z" />
    <glyph glyph-name="divide" unicode="&#xf7;" horiz-adv-x="420" 
d="M262 353q-21 0 -36 15.5t-15 36.5t15 36t36 15t36 -15t15 -36t-15 -36.5t-36 -15.5zM44 217l23 69h333l-23 -69h-333zM172 47q-21 0 -36 15.5t-15 36.5t15 36t36 15t36 -15t15 -36t-15 -36.5t-36 -15.5z" />
    <glyph glyph-name="oslash" unicode="&#xf8;" horiz-adv-x="438" 
d="M363 429q65 -25 65 -115q0 -120 -93 -222t-204 -102q-23 0 -39 4l-28 -44l-19 14l24 38q-59 28 -59 115q0 120 93 221t204 101q17 0 33 -3l34 55l19 -14zM107 107q0 -22 4 -37l202 323q-16 16 -37 16q-43 0 -83.5 -54.5t-63 -124.5t-22.5 -123zM163 20q42 0 82.5 56.5
t63 128t22.5 123.5q0 23 -6 41l-203 -326q16 -23 41 -23z" />
    <glyph glyph-name="ugrave" unicode="&#xf9;" horiz-adv-x="529" 
d="M337 498q-66 70 -122 109q8 21 32.5 39.5t47.5 18.5q44 -62 69 -150zM53 268l-17 18q97 151 175 151q27 0 39 -17t0 -45l-83 -211q-12 -29 -18 -48t-7 -32t4 -18.5t16 -5.5q38 0 119.5 115.5t135.5 258.5h88l-116 -324q-16 -46 0 -41q25 7 86 90l17 -18
q-97 -151 -175 -151q-27 0 -38 16.5t0 43.5l77 195l-8 -1q-80 -142 -137.5 -198t-107.5 -56q-102 0 -25 180l62 146q19 44 1 41q-25 -4 -84 -84q-2 -2 -4 -5z" />
    <glyph glyph-name="uacute" unicode="&#xfa;" horiz-adv-x="529" 
d="M339 498l-26 17q25 88 69 150q22 0 46.5 -18.5t32.5 -39.5q-56 -39 -122 -109zM53 268l-17 18q97 151 175 151q27 0 39 -17t0 -45l-83 -211q-12 -29 -18 -48t-7 -32t4 -18.5t16 -5.5q38 0 119.5 115.5t135.5 258.5h88l-116 -324q-16 -46 0 -41q25 7 86 90l17 -18
q-97 -151 -175 -151q-27 0 -38 16.5t0 43.5l77 195l-8 -1q-80 -142 -137.5 -198t-107.5 -56q-102 0 -25 180l62 146q19 44 1 41q-25 -4 -84 -84q-2 -2 -4 -5z" />
    <glyph glyph-name="ucircumflex" unicode="&#xfb;" horiz-adv-x="529" 
d="M414 678l79 -151l-16 -14l-85 88l-141 -88l-10 13zM53 268l-17 18q97 151 175 151q27 0 39 -17t0 -45l-83 -211q-12 -29 -18 -48t-7 -32t4 -18.5t16 -5.5q38 0 119.5 115.5t135.5 258.5h88l-116 -324q-16 -46 0 -41q25 7 86 90l17 -18q-97 -151 -175 -151q-27 0 -38 16.5
t0 43.5l77 195l-8 -1q-80 -142 -137.5 -198t-107.5 -56q-102 0 -25 180l62 146q19 44 1 41q-25 -4 -84 -84q-2 -2 -4 -5z" />
    <glyph glyph-name="udieresis" unicode="&#xfc;" horiz-adv-x="529" 
d="M255 555q-24 0 -40 16.5t-16 39.5t16 39.5t40 16.5q23 0 39 -16.5t16 -39.5t-16 -39.5t-39 -16.5zM460 555q-23 0 -39.5 16.5t-16.5 39.5t16.5 39.5t39.5 16.5t39.5 -16.5t16.5 -39.5t-16.5 -39.5t-39.5 -16.5zM53 268l-17 18q97 151 175 151q27 0 39 -17t0 -45l-83 -211
q-12 -29 -18 -48t-7 -32t4 -18.5t16 -5.5q38 0 119.5 115.5t135.5 258.5h88l-116 -324q-16 -46 0 -41q25 7 86 90l17 -18q-97 -151 -175 -151q-27 0 -38 16.5t0 43.5l77 195l-8 -1q-80 -142 -137.5 -198t-107.5 -56q-102 0 -25 180l62 146q19 44 1 41q-25 -4 -84 -84
q-2 -2 -4 -5z" />
    <glyph glyph-name="yacute" unicode="&#xfd;" horiz-adv-x="452" 
d="M420 607q-56 -39 -122 -109l-26 17q25 88 69 150q22 0 46.5 -18.5t32.5 -39.5zM315 392q22 16 48 28t52 18t43.5 -5t17.5 -41q0 -53 -62.5 -150.5t-147.5 -190.5t-180.5 -162.5t-153.5 -69.5q-27 0 -47 15t-20 41q0 23 13.5 36.5t36.5 13.5t46.5 -24.5t44.5 -24.5
q42 0 125 71l8 372q1 41 -9 41.5t-52 -55.5q-2 -4 -8 -11q-11 -16 -18 -25l-16 18q52 82 85.5 116t67.5 34q23 0 30.5 -15.5t6.5 -50.5l-8 -338q72 79 120.5 161.5t48.5 140.5q0 31 -14.5 42t-48.5 -3z" />
    <glyph glyph-name="thorn" unicode="&#xfe;" horiz-adv-x="468" 
d="M105 -4l-30 -85q-12 -35 0 -46t57 -16l-7 -24h-234l7 24q38 7 56.5 19t30.5 45l159 451q-44 -18 -95 -49l-10 26q63 45 121 69l48 135q14 39 -1 53.5t-67 14.5l9 29l174 23l10 -15l-74 -213q12 2 31 2q77 0 122.5 -33.5t45.5 -103.5q0 -111 -102 -203t-251 -103zM262 394
q-12 0 -19 -1l-128 -369q109 12 176 91t67 177q0 54 -24 78t-72 24z" />
    <glyph glyph-name="ydieresis" unicode="&#xff;" horiz-adv-x="452" 
d="M214 555q-24 0 -40 16.5t-16 39.5t16 39.5t40 16.5q23 0 39 -16.5t16 -39.5t-16 -39.5t-39 -16.5zM419 555q-23 0 -39.5 16.5t-16.5 39.5t16.5 39.5t39.5 16.5t39.5 -16.5t16.5 -39.5t-16.5 -39.5t-39.5 -16.5zM315 392q22 16 48 28t52 18t43.5 -5t17.5 -41
q0 -53 -62.5 -150.5t-147.5 -190.5t-180.5 -162.5t-153.5 -69.5q-27 0 -47 15t-20 41q0 23 13.5 36.5t36.5 13.5t46.5 -24.5t44.5 -24.5q42 0 125 71l8 372q1 41 -9 41.5t-52 -55.5q-2 -4 -8 -11q-11 -16 -18 -25l-16 18q52 82 85.5 116t67.5 34q23 0 30.5 -15.5t6.5 -50.5
l-8 -338q72 79 120.5 161.5t48.5 140.5q0 31 -14.5 42t-48.5 -3z" />
    <glyph glyph-name="Amacron" unicode="&#x100;" horiz-adv-x="634" 
d="M382 827h280l-15 -41h-280zM516 86q2 -33 12.5 -43.5t44.5 -18.5l-6 -24h-248l7 25l25.5 6t21.5 7t19 10.5t10.5 16t3.5 23.5l-5 104h-229l-77 -110q-14 -20 -13 -31.5t8.5 -15t28.5 -9.5q4 -1 7 -2l-7 -24h-171l7 25q38 7 55 18t42 45l393 549h37zM194 224h205l-14 274z
" />
    <glyph glyph-name="amacron" unicode="&#x101;" horiz-adv-x="481" 
d="M225 627h280l-15 -41h-280zM453 430l-112 -320q-16 -45 1 -41q23 6 86 91l17 -18q-99 -152 -172 -152q-29 0 -40 20t-1 48l35 101q-42 -48 -71 -78t-68 -60.5t-61 -30.5q-24 0 -42.5 25.5t-18.5 75.5q0 81 49.5 162t131.5 133.5t168 52.5q47 0 98 -9zM285 209l60 172
q-34 21 -63 21q-61 0 -122.5 -94.5t-61.5 -174.5q0 -56 32 -56q25 0 155 132z" />
    <glyph glyph-name="Abreve" unicode="&#x102;" horiz-adv-x="634" 
d="M650 876h22q-21 -70 -65 -106t-102 -36q-63 0 -86.5 40t-2.5 102h22q-7 -38 12.5 -55.5t64.5 -17.5q97 -1 135 73zM516 86q2 -33 12.5 -43.5t44.5 -18.5l-6 -24h-248l7 25l25.5 6t21.5 7t19 10.5t10.5 16t3.5 23.5l-5 104h-229l-77 -110q-14 -20 -13 -31.5t8.5 -15
t28.5 -9.5q4 -1 7 -2l-7 -24h-171l7 25q38 7 55 18t42 45l393 549h37zM194 224h205l-14 274z" />
    <glyph glyph-name="abreve" unicode="&#x103;" horiz-adv-x="481" 
d="M493 676h22q-21 -70 -65 -106t-102 -36q-63 0 -86.5 40t-2.5 102h22q-7 -38 12.5 -55.5t64.5 -17.5q97 -1 135 73zM453 430l-112 -320q-16 -45 1 -41q23 6 86 91l17 -18q-99 -152 -172 -152q-29 0 -40 20t-1 48l35 101q-42 -48 -71 -78t-68 -60.5t-61 -30.5
q-24 0 -42.5 25.5t-18.5 75.5q0 81 49.5 162t131.5 133.5t168 52.5q47 0 98 -9zM285 209l60 172q-34 21 -63 21q-61 0 -122.5 -94.5t-61.5 -174.5q0 -56 32 -56q25 0 155 132z" />
    <glyph glyph-name="Aogonek" unicode="&#x104;" horiz-adv-x="634" 
d="M516 86q2 -33 12.5 -43.5t44.5 -18.5l-6 -24h-70q-49 -27 -73.5 -50.5t-24.5 -56.5q0 -22 12.5 -35t34.5 -13q18 0 47 9l-7 -19q-41 -34 -93 -34q-84 0 -84 70q0 41 29 73l91 56h-110l7 25l25.5 6t21.5 7t19 10.5t10.5 16t3.5 23.5l-5 104h-229l-77 -110
q-14 -20 -13 -31.5t8.5 -15t28.5 -9.5q4 -1 7 -2l-7 -24h-171l7 25q38 7 55 18t42 45l393 549h37zM194 224h205l-14 274z" />
    <glyph glyph-name="aogonek" unicode="&#x105;" horiz-adv-x="494" 
d="M341 110q-16 -45 1 -41q23 6 86 91l17 -18q-51 -78 -96 -117v-7q-45 -32 -63 -52.5t-18 -47.5q0 -25 15 -41t39 -16q18 0 41 9v-19q-36 -34 -88 -34q-41 0 -68 20.5t-27 63.5q0 33 20 59l54 33q-40 15 -22 65l35 101q-42 -48 -71 -78t-68 -60.5t-61 -30.5
q-24 0 -42.5 25.5t-18.5 75.5q0 81 49.5 162t131.5 133.5t168 52.5q47 0 98 -9zM130 77q25 0 155 132l60 172q-34 21 -63 21q-61 0 -122.5 -94.5t-61.5 -174.5q0 -56 32 -56z" />
    <glyph glyph-name="Cacute" unicode="&#x106;" horiz-adv-x="583" 
d="M421 698l-26 17q25 88 69 150q22 0 46.5 -18.5t32.5 -39.5q-56 -39 -122 -109zM282 -13q-107 0 -161.5 59t-54.5 162q0 109 56.5 209.5t154.5 164t209 63.5t158 -57l-32 -131h-31q6 76 -18.5 114t-87.5 38q-83 0 -152.5 -64t-105.5 -153t-36 -174q0 -84 40 -131.5
t112 -47.5q100 0 166 58l12 -32q-38 -34 -99.5 -56t-129.5 -22z" />
    <glyph glyph-name="cacute" unicode="&#x107;" horiz-adv-x="379" 
d="M267 498l-26 17q25 88 69 150q22 0 46.5 -18.5t32.5 -39.5q-56 -39 -122 -109zM284 439q48 0 73 -26.5t25 -65.5q0 -28 -13 -45.5t-36 -17.5q-47 0 -40 72q3 32 -2 43.5t-22 11.5q-59 0 -108 -84.5t-49 -162.5q0 -46 21 -73t56 -27q29 0 63.5 18t57.5 50l13 -21
q-31 -56 -86.5 -88.5t-103.5 -32.5q-52 0 -86.5 37t-34.5 100q0 109 87 210.5t185 101.5z" />
    <glyph glyph-name="Cdotaccent" unicode="&#x10a;" horiz-adv-x="583" 
d="M470 721q-27 0 -47 19t-20 45q0 27 20 45.5t47 18.5t46.5 -18.5t19.5 -45.5q0 -26 -20 -45t-46 -19zM282 -13q-107 0 -161.5 59t-54.5 162q0 109 56.5 209.5t154.5 164t209 63.5t158 -57l-32 -131h-31q6 76 -18.5 114t-87.5 38q-83 0 -152.5 -64t-105.5 -153t-36 -174
q0 -84 40 -131.5t112 -47.5q100 0 166 58l12 -32q-38 -34 -99.5 -56t-129.5 -22z" />
    <glyph glyph-name="cdotaccent" unicode="&#x10b;" horiz-adv-x="379" 
d="M315 521q-27 0 -47 19t-20 45q0 27 20 45.5t47 18.5t46.5 -18.5t19.5 -45.5q0 -26 -20 -45t-46 -19zM284 439q48 0 73 -26.5t25 -65.5q0 -28 -13 -45.5t-36 -17.5q-47 0 -40 72q3 32 -2 43.5t-22 11.5q-59 0 -108 -84.5t-49 -162.5q0 -46 21 -73t56 -27q29 0 63.5 18
t57.5 50l13 -21q-31 -56 -86.5 -88.5t-103.5 -32.5q-52 0 -86.5 37t-34.5 100q0 109 87 210.5t185 101.5z" />
    <glyph glyph-name="Ccaron" unicode="&#x10c;" horiz-adv-x="583" 
d="M446 712l-79 151l16 14l85 -88l141 88l10 -13zM282 -13q-107 0 -161.5 59t-54.5 162q0 109 56.5 209.5t154.5 164t209 63.5t158 -57l-32 -131h-31q6 76 -18.5 114t-87.5 38q-83 0 -152.5 -64t-105.5 -153t-36 -174q0 -84 40 -131.5t112 -47.5q100 0 166 58l12 -32
q-38 -34 -99.5 -56t-129.5 -22z" />
    <glyph glyph-name="ccaron" unicode="&#x10d;" horiz-adv-x="379" 
d="M292 512l-79 151l16 14l85 -88l141 88l10 -13zM284 439q48 0 73 -26.5t25 -65.5q0 -28 -13 -45.5t-36 -17.5q-47 0 -40 72q3 32 -2 43.5t-22 11.5q-59 0 -108 -84.5t-49 -162.5q0 -46 21 -73t56 -27q29 0 63.5 18t57.5 50l13 -21q-31 -56 -86.5 -88.5t-103.5 -32.5
q-52 0 -86.5 37t-34.5 100q0 109 87 210.5t185 101.5z" />
    <glyph glyph-name="Dcaron" unicode="&#x10e;" horiz-adv-x="649" 
d="M658 864l-173 -152l-79 151l16 14l85 -88l141 88zM407 630q108 0 179.5 -53.5t71.5 -163.5q0 -166 -135 -289.5t-320 -123.5h-245l7 25q31 6 46.5 11.5t32 23.5t26.5 50l135 415q8 25 9 39.5t-8 23t-18.5 11.5t-30.5 7l6 24h244zM234 36q83 0 157 63.5t116 157.5t42 186
q0 151 -159 151h-55l-152 -467q-17 -52 -6 -71.5t57 -19.5z" />
    <glyph glyph-name="dcaron" unicode="&#x10f;" horiz-adv-x="528" 
d="M535 650l-185 -540q-15 -45 1 -41q23 7 85 91l17 -18q-98 -152 -175 -152q-27 0 -38 16.5t-2 43.5l44 126q-38 -43 -55.5 -62t-53.5 -55t-62 -52.5t-44 -16.5q-24 0 -43 25.5t-19 75.5q0 80 50 161.5t128 134t154 52.5q17 0 35 -3l38 109q13 39 -1.5 53.5t-67.5 14.5
l10 29l174 23zM578 655q17 8 44 2.5t37 -23.5q-19 -68 -77 -157l-24 14q21 104 20 164zM298 223l53 152q-38 25 -70 25q-61 0 -122 -94t-61 -173q0 -56 32 -56q24 0 168 146z" />
    <glyph glyph-name="Dcroat" unicode="&#x110;" horiz-adv-x="683" 
d="M441 630q108 0 179.5 -53.5t71.5 -163.5q0 -166 -135 -289.5t-320 -123.5h-245l7 25q31 6 46.5 11.5t32 23.5t26.5 50l60 185l-109 -3l10 38l110 -3l64 198q8 25 9 39.5t-8 23t-18.5 11.5t-30.5 7l6 24h244zM268 36q83 0 157 63.5t116 157.5t42 186q0 151 -159 151h-55
l-87 -267l116 3l-10 -38l-116 3l-55 -168q-17 -52 -6 -71.5t57 -19.5z" />
    <glyph glyph-name="dcroat" unicode="&#x111;" horiz-adv-x="485" 
d="M480 490l-130 -380q-15 -45 1 -41q23 7 85 91l17 -18q-98 -152 -175 -152q-27 0 -38 16.5t-2 43.5l44 126q-38 -43 -55.5 -62t-53.5 -55t-62 -52.5t-44 -16.5q-24 0 -43 25.5t-19 75.5q0 80 50 161.5t128 134t154 52.5q17 0 35 -3l19 55q-81 0 -164 -3l10 38
q83 -3 165 -3l8 22q13 39 -1.5 53.5t-67.5 14.5l10 29l174 23l10 -15l-43 -126q26 0 78 2l-10 -38q-54 2 -80 2zM298 223l53 152q-38 25 -70 25q-61 0 -122 -94t-61 -173q0 -56 32 -56q24 0 168 146z" />
    <glyph glyph-name="Emacron" unicode="&#x112;" horiz-adv-x="557" 
d="M611 827l-15 -41h-280l15 41h280zM164 630h450l-40 -144h-25q16 58 5.5 83t-57.5 25h-76q-51 0 -74 -17t-39 -68l-56 -173h62q76 0 105.5 20t50.5 71h22l-69 -211h-21q13 54 -2 69t-94 15h-66l-63 -193q-9 -26 -10.5 -39.5t7 -21t21 -8.5t42.5 -1h56q52 0 91.5 27.5
t87.5 93.5h29l-90 -158h-453l7 25q31 6 46.5 11.5t32 23.5t26.5 50l135 415q8 25 9 39.5t-8 23t-18.5 11.5t-30.5 7z" />
    <glyph glyph-name="emacron" unicode="&#x113;" horiz-adv-x="374" 
d="M177 627h280l-15 -41h-280zM295 439q42 0 62 -21t20 -53q0 -123 -266 -180q-2 -22 -2 -31q0 -40 19 -65t53 -25q28 0 60.5 16t56.5 47l14 -19q-33 -57 -86.5 -87t-102.5 -30q-51 0 -82 35.5t-31 95.5q0 111 93 214t192 103zM117 214q81 17 126.5 53.5t45.5 86.5
q0 49 -34 49q-39 0 -80 -59.5t-58 -129.5z" />
    <glyph glyph-name="Edotaccent" unicode="&#x116;" horiz-adv-x="557" 
d="M464 721q-27 0 -47 19t-20 45q0 27 20 45.5t47 18.5t46.5 -18.5t19.5 -45.5q0 -26 -20 -45t-46 -19zM164 630h450l-40 -144h-25q16 58 5.5 83t-57.5 25h-76q-51 0 -74 -17t-39 -68l-56 -173h62q76 0 105.5 20t50.5 71h22l-69 -211h-21q13 54 -2 69t-94 15h-66l-63 -193
q-9 -26 -10.5 -39.5t7 -21t21 -8.5t42.5 -1h56q52 0 91.5 27.5t87.5 93.5h29l-90 -158h-453l7 25q31 6 46.5 11.5t32 23.5t26.5 50l135 415q8 25 9 39.5t-8 23t-18.5 11.5t-30.5 7z" />
    <glyph glyph-name="edotaccent" unicode="&#x117;" horiz-adv-x="374" 
d="M310 521q-27 0 -47 19t-20 45q0 27 20 45.5t47 18.5t46.5 -18.5t19.5 -45.5q0 -26 -20 -45t-46 -19zM377 365q0 -123 -266 -180q-2 -22 -2 -31q0 -40 19 -65t53 -25q28 0 60.5 16t56.5 47l14 -19q-33 -57 -86.5 -87t-102.5 -30q-51 0 -82 35.5t-31 95.5q0 111 93 214
t192 103q42 0 62 -21t20 -53zM255 403q-39 0 -80 -59.5t-58 -129.5q81 17 126.5 53.5t45.5 86.5q0 49 -34 49z" />
    <glyph glyph-name="Eogonek" unicode="&#x118;" horiz-adv-x="557" 
d="M164 630h450l-40 -144h-25q16 58 5.5 83t-57.5 25h-76q-51 0 -74 -17t-39 -68l-56 -173h62q76 0 105.5 20t50.5 71h22l-69 -211h-21q13 54 -2 69t-94 15h-66l-63 -193q-9 -26 -10.5 -39.5t7 -21t21 -8.5t42.5 -1h56q52 0 91.5 27.5t87.5 93.5h29l-90 -158h-50
q-39 -23 -59.5 -45t-20.5 -52q0 -22 12.5 -35t34.5 -13q18 0 47 9l-7 -19q-41 -34 -93 -34q-84 0 -84 70q0 41 29 73l74 46h-336l7 25q31 6 46.5 11.5t32 23.5t26.5 50l135 415q8 25 9 39.5t-8 23t-18.5 11.5t-30.5 7z" />
    <glyph glyph-name="eogonek" unicode="&#x119;" horiz-adv-x="374" 
d="M377 365q0 -123 -266 -180q-2 -22 -2 -31q0 -40 19 -65t53 -25q28 0 60.5 16t56.5 47l14 -19q-43 -74 -124 -105q-86 -47 -86 -100q0 -22 12.5 -35t34.5 -13q18 0 47 9l-7 -19q-41 -34 -93 -34q-84 0 -84 70q0 41 29 73l62 39q-43 6 -68 40.5t-25 88.5q0 111 93 214
t192 103q42 0 62 -21t20 -53zM255 403q-39 0 -80 -59.5t-58 -129.5q81 17 126.5 53.5t45.5 86.5q0 49 -34 49z" />
    <glyph glyph-name="Ecaron" unicode="&#x11a;" horiz-adv-x="557" 
d="M613 864l-173 -152l-79 151l16 14l85 -88l141 88zM164 630h450l-40 -144h-25q16 58 5.5 83t-57.5 25h-76q-51 0 -74 -17t-39 -68l-56 -173h62q76 0 105.5 20t50.5 71h22l-69 -211h-21q13 54 -2 69t-94 15h-66l-63 -193q-9 -26 -10.5 -39.5t7 -21t21 -8.5t42.5 -1h56
q52 0 91.5 27.5t87.5 93.5h29l-90 -158h-453l7 25q31 6 46.5 11.5t32 23.5t26.5 50l135 415q8 25 9 39.5t-8 23t-18.5 11.5t-30.5 7z" />
    <glyph glyph-name="ecaron" unicode="&#x11b;" horiz-adv-x="374" 
d="M460 664l-173 -152l-79 151l16 14l85 -88l141 88zM295 439q42 0 62 -21t20 -53q0 -123 -266 -180q-2 -22 -2 -31q0 -40 19 -65t53 -25q28 0 60.5 16t56.5 47l14 -19q-33 -57 -86.5 -87t-102.5 -30q-51 0 -82 35.5t-31 95.5q0 111 93 214t192 103zM117 214
q81 17 126.5 53.5t45.5 86.5q0 49 -34 49q-39 0 -80 -59.5t-58 -129.5z" />
    <glyph glyph-name="Gbreve" unicode="&#x11e;" horiz-adv-x="654" 
d="M502 734q-63 0 -86.5 40t-2.5 102h22q-7 -38 12.5 -55.5t64.5 -17.5q97 -1 135 73h22q-21 -70 -65 -106t-102 -36zM301 -13q-118 0 -178 58.5t-59 160.5q1 110 61.5 212t162.5 164.5t215 62.5q117 0 164 -57q-29 -106 -35 -131h-30q19 152 -115 152q-85 0 -158.5 -68.5
t-113.5 -166t-41 -191.5q-1 -75 33.5 -117t100.5 -42q52 0 82 27.5t49 86.5l13 39q11 34 13.5 53t-6 30t-23.5 15t-47 6l8 27h255l-10 -29q-65 -9 -87 -76l-18 -55q-22 -65 -24 -116q-32 -18 -91 -31.5t-121 -13.5z" />
    <glyph glyph-name="gbreve" unicode="&#x11f;" horiz-adv-x="455" 
d="M334 534q-63 0 -86.5 40t-2.5 102h22q-7 -38 12.5 -55.5t64.5 -17.5q97 -1 135 73h22q-21 -70 -65 -106t-102 -36zM348 421q18 -5 138 -5l-15 -63l-85 25q8 -21 8 -44q0 -73 -64 -126.5t-144 -53.5q-24 0 -43 6q-33 -13 -33 -30q0 -16 28 -26l85 -36q38 -16 53 -23
t34 -19.5t25 -26t6 -32.5q0 -49 -42.5 -86t-101.5 -54t-121 -17q-80 0 -116.5 29.5t-34.5 72.5q1 26 40 54.5t96 60.5l12 6q-32 15 -45.5 28.5t-13.5 33.5q0 21 29.5 42.5t68.5 36.5q-41 27 -41 84q0 73 64 126.5t144 53.5q41 0 69 -17zM195 178q46 0 80 62t34 121
q0 54 -38 54q-45 0 -80 -62.5t-35 -122.5q0 -52 39 -52zM254 -72q0 20 -16.5 32.5t-57.5 28.5l-71 29q-42 -27 -73 -59.5t-32 -56.5q-2 -63 93 -63q63 0 110 25.5t47 63.5z" />
    <glyph glyph-name="Gdotaccent" unicode="&#x120;" horiz-adv-x="654" 
d="M512 721q-27 0 -47 19t-20 45q0 27 20 45.5t47 18.5t46.5 -18.5t19.5 -45.5q0 -26 -20 -45t-46 -19zM301 -13q-118 0 -178 58.5t-59 160.5q1 110 61.5 212t162.5 164.5t215 62.5q117 0 164 -57q-29 -106 -35 -131h-30q19 152 -115 152q-85 0 -158.5 -68.5t-113.5 -166
t-41 -191.5q-1 -75 33.5 -117t100.5 -42q52 0 82 27.5t49 86.5l13 39q11 34 13.5 53t-6 30t-23.5 15t-47 6l8 27h255l-10 -29q-65 -9 -87 -76l-18 -55q-22 -65 -24 -116q-32 -18 -91 -31.5t-121 -13.5z" />
    <glyph glyph-name="gdotaccent" unicode="&#x121;" horiz-adv-x="455" 
d="M344 521q-27 0 -47 19t-20 45q0 27 20 45.5t47 18.5t46.5 -18.5t19.5 -45.5q0 -26 -20 -45t-46 -19zM486 416l-15 -63l-85 25q8 -21 8 -44q0 -73 -64 -126.5t-144 -53.5q-24 0 -43 6q-33 -13 -33 -30q0 -16 28 -26l85 -36q38 -16 53 -23t34 -19.5t25 -26t6 -32.5
q0 -49 -42.5 -86t-101.5 -54t-121 -17q-80 0 -116.5 29.5t-34.5 72.5q1 26 40 54.5t96 60.5l12 6q-32 15 -45.5 28.5t-13.5 33.5q0 21 29.5 42.5t68.5 36.5q-41 27 -41 84q0 73 64 126.5t144 53.5q41 0 69 -17q18 -5 138 -5zM195 178q46 0 80 62t34 121q0 54 -38 54
q-45 0 -80 -62.5t-35 -122.5q0 -52 39 -52zM254 -72q0 20 -16.5 32.5t-57.5 28.5l-71 29q-42 -27 -73 -59.5t-32 -56.5q-2 -63 93 -63q63 0 110 25.5t47 63.5z" />
    <glyph glyph-name="uni0122" unicode="&#x122;" horiz-adv-x="654" 
d="M301 -13q-118 0 -178 58.5t-59 160.5q1 110 61.5 212t162.5 164.5t215 62.5q117 0 164 -57q-29 -106 -35 -131h-30q19 152 -115 152q-85 0 -158.5 -68.5t-113.5 -166t-41 -191.5q-1 -75 33.5 -117t100.5 -42q52 0 82 27.5t49 86.5l13 39q11 34 13.5 53t-6 30t-23.5 15
t-47 6l8 27h255l-10 -29q-65 -9 -87 -76l-18 -55q-22 -65 -24 -116q-32 -18 -91 -31.5t-121 -13.5zM102 -332l-8 24q79 27 99 89q7 22 -15 37q-35 24 -35 56q0 28 21 48t50 20t48.5 -21.5t19.5 -57.5q0 -59 -50 -117.5t-130 -77.5z" />
    <glyph glyph-name="uni0123" unicode="&#x123;" horiz-adv-x="455" 
d="M298 522q-29 0 -48.5 21.5t-19.5 57.5q0 59 50 118t130 77l8 -24q-78 -27 -100 -89q-7 -22 15 -37q35 -24 35 -56q0 -28 -20.5 -48t-49.5 -20zM486 416l-15 -63l-85 25q8 -21 8 -44q0 -73 -64 -126.5t-144 -53.5q-24 0 -43 6q-33 -13 -33 -30q0 -16 28 -26l85 -36
q38 -16 53 -23t34 -19.5t25 -26t6 -32.5q0 -49 -42.5 -86t-101.5 -54t-121 -17q-80 0 -116.5 29.5t-34.5 72.5q1 26 40 54.5t96 60.5l12 6q-32 15 -45.5 28.5t-13.5 33.5q0 21 29.5 42.5t68.5 36.5q-41 27 -41 84q0 73 64 126.5t144 53.5q41 0 69 -17q18 -5 138 -5zM195 178
q46 0 80 62t34 121q0 54 -38 54q-45 0 -80 -62.5t-35 -122.5q0 -52 39 -52zM254 -72q0 20 -16.5 32.5t-57.5 28.5l-71 29q-42 -27 -73 -59.5t-32 -56.5q-2 -63 93 -63q63 0 110 25.5t47 63.5z" />
    <glyph glyph-name="Hbar" unicode="&#x126;" horiz-adv-x="691" 
d="M537 630h261l-8 -25q-45 -8 -67.5 -23.5t-37.5 -61.5l-136 -415q-6 -20 -7 -33.5t1 -21.5t12.5 -13.5t17.5 -7.5t25 -6l-6 -23h-257l7 24q43 8 65 24t37 62l61 187h-268l-62 -192q-6 -20 -7 -33.5t1 -21.5t12.5 -13.5t17.5 -7.5t25 -6l-6 -23h-258l7 24q43 8 65 23.5
t37 62.5l135 415q8 25 9 39.5t-8 23t-18 11.5t-31 7l7 24h260l-8 -25q-45 -8 -67.5 -23.5t-37.5 -61.5l-26 -80h267l28 85q8 25 9 39.5t-8 23t-18.5 11.5t-30.5 7zM249 333h268l23 71h-268z" />
    <glyph glyph-name="hbar" unicode="&#x127;" horiz-adv-x="496" 
d="M419 439q37 0 60 -21.5t20 -67.5q-3 -60 -45 -145.5t-100.5 -149.5t-101.5 -64q-21 0 -41.5 13.5t-20.5 38.5q0 18 11.5 29.5t27.5 11.5q17 0 24.5 -15t10.5 -30.5t8 -15.5q33 0 74.5 116.5t45.5 182.5q1 26 -3.5 40.5t-10.5 17t-15 2.5q-57 0 -134.5 -116t-128.5 -266
h-91l167 490q-28 0 -86 -2l10 38q58 -2 88 -2l7 21q13 39 -1.5 53.5t-66.5 14.5l9 29l175 23l10 -15l-42 -127q77 0 153 3l-10 -38q-76 3 -154 3l-50 -152l-57 -124l6 1q127 223 252 223z" />
    <glyph glyph-name="Imacron" unicode="&#x12a;" horiz-adv-x="316" 
d="M196 786l15 41h280l-15 -41h-280zM-40 0l7 24q43 8 65 23.5t37 62.5l135 415q8 25 9 39.5t-8 23t-18 11.5t-31 7l7 24h260l-8 -25q-45 -8 -67.5 -23.5t-37.5 -61.5l-135 -415q-6 -20 -7 -33.5t1 -21.5t12.5 -13.5t17.5 -7.5t25 -6l-6 -23h-258z" />
    <glyph glyph-name="imacron" unicode="&#x12b;" horiz-adv-x="282" 
d="M108 586l15 41h280l-15 -41h-280zM228 158l17 -18q-98 -150 -171 -150q-30 0 -41.5 20.5t-0.5 47.5l108 259q19 46 0 41q-26 -6 -88 -89l-16 18q97 150 171 150q30 0 42 -20t1 -48l-108 -259q-19 -45 -1 -41q25 5 87 89z" />
    <glyph glyph-name="Iogonek" unicode="&#x12e;" horiz-adv-x="316" 
d="M163 630h260l-8 -25q-45 -8 -67.5 -23.5t-37.5 -61.5l-135 -415q-6 -20 -7 -33.5t1 -21.5t12.5 -13.5t17.5 -7.5t25 -6l-6 -23h-65q-49 -27 -73.5 -50.5t-24.5 -56.5q0 -22 12.5 -35t34.5 -13q18 0 47 9l-7 -19q-41 -34 -93 -34q-37 0 -61 17t-24 53q0 41 30 73l91 56
h-125l7 24q43 8 65 23.5t37 62.5l135 415q8 25 9 39.5t-8 23t-18 11.5t-31 7z" />
    <glyph glyph-name="iogonek" unicode="&#x12f;" horiz-adv-x="282" 
d="M257 649q27 0 46.5 -18.5t19.5 -45.5q0 -26 -20 -45t-46 -19q-27 0 -47 19t-20 45q0 27 20 45.5t47 18.5zM207 437q30 0 42 -20t1 -48l-108 -259q-19 -45 -1 -41q25 5 87 89l17 -18q-62 -95 -114 -130h-1l-2 -1q-8 -6 -16 -9q-79 -47 -79 -97q0 -22 12.5 -35t34.5 -13
q18 0 47 9l-7 -19q-41 -34 -93 -34q-85 0 -85 70q0 41 30 73l72 44q-28 20 -12 60l108 259q19 46 0 41q-26 -6 -88 -89l-16 18q97 150 171 150z" />
    <glyph glyph-name="Idotaccent" unicode="&#x130;" horiz-adv-x="316" 
d="M344 721q-27 0 -47 19t-20 45q0 27 20 45.5t47 18.5t46.5 -18.5t19.5 -45.5q0 -26 -20 -45t-46 -19zM-40 0l7 24q43 8 65 23.5t37 62.5l135 415q8 25 9 39.5t-8 23t-18 11.5t-31 7l7 24h260l-8 -25q-45 -8 -67.5 -23.5t-37.5 -61.5l-135 -415q-6 -20 -7 -33.5t1 -21.5
t12.5 -13.5t17.5 -7.5t25 -6l-6 -23h-258z" />
    <glyph glyph-name="dotlessi" unicode="&#x131;" horiz-adv-x="282" 
d="M228 158l17 -18q-98 -150 -171 -150q-30 0 -41.5 20.5t-0.5 47.5l108 259q19 46 0 41q-26 -6 -88 -89l-16 18q97 150 171 150q30 0 42 -20t1 -48l-108 -259q-19 -45 -1 -41q25 5 87 89z" />
    <glyph glyph-name="IJ" unicode="&#x132;" horiz-adv-x="624" 
d="M-40 0l7 24q43 8 65 23.5t37 62.5l135 415q8 25 9 39.5t-8 23t-18 11.5t-31 7l7 24h260l-8 -25q-45 -8 -67.5 -23.5t-37.5 -61.5l-135 -415q-6 -20 -7 -33.5t1 -21.5t12.5 -13.5t17.5 -7.5t25 -6l-6 -23h-258zM194 -181l10 34q67 19 96 52.5t55 113.5l164 506
q7 20 7.5 33.5t-1.5 21t-12.5 13t-18.5 7.5t-27 6l6 24h268l-8 -25q-25 -4 -38 -8t-28 -13t-24.5 -24t-17.5 -40l-170 -526q-50 -153 -261 -175z" />
    <glyph glyph-name="ij" unicode="&#x133;" horiz-adv-x="548" 
d="M250 547q-26 0 -45 18t-19 43t19 43t45 18q25 0 44 -18t19 -43t-19 -43t-44 -18zM549 547q-25 0 -44 18t-19 43t19 43t44 18q26 0 45 -18t19 -43t-19 -43t-45 -18zM228 158l17 -18q-98 -150 -171 -150q-30 0 -41.5 20.5t-0.5 47.5l108 259q19 46 0 41q-26 -6 -88 -89
l-16 18q97 150 171 150q30 0 42 -20t1 -48l-108 -259q-19 -45 -1 -41q25 5 87 89zM504 435q29 0 39.5 -20t0.5 -50l-94 -290q-41 -125 -93.5 -187.5t-127.5 -62.5q-47 0 -72 22t-25 55q0 26 15 41t36 15q25 0 35 -19t3 -53q-6 -32 23 -32t45.5 28.5t45.5 117.5l102 315
q16 51 -5 41q-24 -11 -82 -89l-16 18q97 150 170 150z" />
    <glyph glyph-name="uni0136" unicode="&#x136;" horiz-adv-x="662" 
d="M722 606q-30 0 -56 -8.5t-41.5 -18.5t-37.5 -28l-209 -168l138 -306q13 -28 31 -40.5t56 -13.5l-7 -23h-188q11 42 -5 80l-105 240l-72 -58l-51 -157q-6 -20 -7 -33.5t1 -21.5t12.5 -13.5t17.5 -7.5t25 -6l-6 -23h-258l7 24q43 8 65 23.5t37 62.5l135 415q8 25 9 39.5
t-8 23t-18 11.5t-31 7l7 24h260l-8 -25q-45 -8 -67.5 -23.5t-37.5 -61.5l-64 -198l296 237q27 22 21 34.5t-44 13.5l7 23h204zM229 -58q29 0 48.5 -21.5t19.5 -57.5q0 -59 -50 -117.5t-130 -77.5l-8 24q79 27 99 89q7 22 -15 37q-35 24 -35 56q0 28 21 48t50 20z" />
    <glyph glyph-name="uni0137" unicode="&#x137;" horiz-adv-x="493" 
d="M8 0l187 545q13 39 -1.5 53.5t-66.5 14.5l9 29l175 23l10 -15l-222 -650h-91zM525 406q-40 -3 -73.5 -20t-82.5 -53l-78 -58l59 -189q22 -71 85 -15l6 -22q-60 -59 -105 -59q-54 0 -76 74l-54 189l126 91q78 56 -1 62l8 24h195zM31 -332l-8 24q79 27 99 89q7 22 -15 37
q-35 24 -35 56q0 28 21 48t50 20t48.5 -21.5t19.5 -57.5q0 -59 -50 -117.5t-130 -77.5z" />
    <glyph glyph-name="Lacute" unicode="&#x139;" horiz-adv-x="533" 
d="M288 698l-26 17q25 88 69 150q22 0 46.5 -18.5t32.5 -39.5q-56 -39 -122 -109zM-42 0l7 25q31 6 46.5 11.5t32 23.5t26.5 50l135 415q8 25 9 39.5t-8 23t-18.5 11.5t-30.5 7l6 24h269l-8 -25q-49 -8 -73.5 -23.5t-39.5 -61.5l-134 -412q-14 -46 -2.5 -58.5t62.5 -12.5h59
q53 0 92.5 28.5t87.5 99.5l26 -7l-88 -158h-456z" />
    <glyph glyph-name="lacute" unicode="&#x13a;" horiz-adv-x="271" 
d="M246 698l-26 17q25 88 69 150q22 0 46.5 -18.5t32.5 -39.5q-56 -39 -122 -109zM136 110q-15 -45 1 -41q23 7 85 91l17 -18q-98 -152 -175 -152q-27 0 -38 16.5t-2 43.5l172 495q13 39 -1.5 53.5t-67.5 14.5l10 29l174 23l10 -15z" />
    <glyph glyph-name="uni013B" unicode="&#x13b;" horiz-adv-x="533" 
d="M-42 0l7 25q31 6 46.5 11.5t32 23.5t26.5 50l135 415q8 25 9 39.5t-8 23t-18.5 11.5t-30.5 7l6 24h269l-8 -25q-49 -8 -73.5 -23.5t-39.5 -61.5l-134 -412q-14 -46 -2.5 -58.5t62.5 -12.5h59q53 0 92.5 28.5t87.5 99.5l26 -7l-88 -158h-456zM55 -332l-8 24q79 27 99 89
q7 22 -15 37q-35 24 -35 56q0 28 21 48t50 20t48.5 -21.5t19.5 -57.5q0 -59 -50 -117.5t-130 -77.5z" />
    <glyph glyph-name="uni013C" unicode="&#x13c;" horiz-adv-x="271" 
d="M136 110q-15 -45 1 -41q23 7 85 91l17 -18q-98 -152 -175 -152q-27 0 -38 16.5t-2 43.5l172 495q13 39 -1.5 53.5t-67.5 14.5l10 29l174 23l10 -15zM-83 -332l-8 24q78 27 100 89q7 22 -15 37q-35 24 -35 56q0 28 21 48t50 20t48.5 -21.5t19.5 -57.5q0 -59 -50.5 -118
t-130.5 -77z" />
    <glyph glyph-name="Lcaron" unicode="&#x13d;" horiz-adv-x="533" 
d="M424 366l-8 24q78 27 100 89q7 22 -15 37q-35 24 -35 56q0 28 20.5 48t49.5 20t48.5 -21.5t19.5 -57.5q0 -59 -50 -118t-130 -77zM-42 0l7 25q31 6 46.5 11.5t32 23.5t26.5 50l135 415q8 25 9 39.5t-8 23t-18.5 11.5t-30.5 7l6 24h269l-8 -25q-49 -8 -73.5 -23.5
t-39.5 -61.5l-134 -412q-14 -46 -2.5 -58.5t62.5 -12.5h59q53 0 92.5 28.5t87.5 99.5l26 -7l-88 -158h-456z" />
    <glyph glyph-name="lcaron" unicode="&#x13e;" horiz-adv-x="299" 
d="M357 487l-24 14q21 104 20 164q17 8 44 2.5t37 -23.5q-19 -68 -77 -157zM136 110q-15 -45 1 -41q23 7 85 91l17 -18q-98 -152 -175 -152q-27 0 -38 16.5t-2 43.5l172 495q13 39 -1.5 53.5t-67.5 14.5l10 29l174 23l10 -15z" />
    <glyph glyph-name="Ldot" unicode="&#x13f;" horiz-adv-x="533" 
d="M-42 0l7 25q31 6 46.5 11.5t32 23.5t26.5 50l135 415q8 25 9 39.5t-8 23t-18.5 11.5t-30.5 7l6 24h269l-8 -25q-49 -8 -73.5 -23.5t-39.5 -61.5l-134 -412q-14 -46 -2.5 -58.5t62.5 -12.5h59q53 0 92.5 28.5t87.5 99.5l26 -7l-88 -158h-456zM382 244q-28 0 -48 20t-20 48
q0 27 20 46.5t48 19.5t48 -19.5t20 -46.5q0 -28 -20 -48t-48 -20z" />
    <glyph glyph-name="ldot" unicode="&#x140;" horiz-adv-x="363" 
d="M136 110q-15 -45 1 -41q23 7 85 91l17 -18q-98 -152 -175 -152q-27 0 -38 16.5t-2 43.5l172 495q13 39 -1.5 53.5t-67.5 14.5l10 29l174 23l10 -15zM349 271q-28 0 -48 19.5t-20 47.5t20 47t48 19q27 0 47 -19.5t20 -46.5q0 -28 -20 -47.5t-47 -19.5z" />
    <glyph glyph-name="Lslash" unicode="&#x141;" horiz-adv-x="551" 
d="M494 165l26 -7l-88 -158h-456l7 25q31 6 46 11.5t32 23.5t27 50l53 165q-15 -6 -45 -17.5t-45 -17.5v45q84 25 104 31l67 209q8 25 9 39.5t-8 23t-18.5 11.5t-30.5 7l7 24h268l-8 -25q-48 -8 -72.5 -23.5t-39.5 -61.5l-53 -163q60 21 137 51v-45q-50 -14 -150 -46
l-68 -209q-14 -46 -3 -58.5t62 -12.5h60q53 0 92.5 28.5t87.5 99.5z" />
    <glyph glyph-name="lslash" unicode="&#x142;" horiz-adv-x="271" 
d="M321 650l-93 -271q33 13 62 25v-43q-33 -9 -76 -23l-78 -228q-15 -45 1 -41q23 7 85 91l17 -18q-98 -152 -175 -152q-27 0 -38 16.5t-2 43.5l87 251q-32 -12 -74 -30v43q49 13 88 27l71 204q13 39 -1.5 53.5t-67.5 14.5l10 29l174 23z" />
    <glyph glyph-name="Nacute" unicode="&#x143;" horiz-adv-x="635" 
d="M584 807q-56 -39 -122 -109l-26 17q25 88 69 150q22 0 46.5 -18.5t32.5 -39.5zM554 630h198l-7 -24q-44 -7 -68 -23.5t-39 -62.5l-169 -520h-43l-177 534l-140 -429q-7 -20 -7.5 -33.5t2 -21.5t13 -13.5t19 -7.5t27.5 -6l-6 -23h-198l6 24q45 8 68.5 24t38.5 62l135 415
q6 20 7 33.5t-1 21.5t-12 13t-17.5 7.5t-24.5 5.5l6 24h167l152 -460l118 355q15 46 2 60t-57 22z" />
    <glyph glyph-name="nacute" unicode="&#x144;" horiz-adv-x="528" 
d="M338 498l-26 17q25 88 69 150q22 0 46.5 -18.5t32.5 -39.5q-56 -39 -122 -109zM475 160l17 -18q-99 -152 -176 -152q-27 0 -38.5 16.5t-0.5 43.5l84 214q12 30 18 48.5t7 31.5t-3.5 18t-15.5 5q-37 0 -117.5 -115.5t-134.5 -251.5h-88l113 317q17 47 -1 42
q-24 -5 -87 -90l-16 18q97 150 174 150q26 0 34.5 -16.5t-2.5 -43.5l-77 -192h13q142 252 248 252q99 0 24 -179l-62 -148q-19 -44 -1 -40q25 5 85 86q2 2 3 4z" />
    <glyph glyph-name="uni0145" unicode="&#x145;" horiz-adv-x="635" 
d="M554 630h198l-7 -24q-44 -7 -68 -23.5t-39 -62.5l-169 -520h-43l-177 534l-140 -429q-7 -20 -7.5 -33.5t2 -21.5t13 -13.5t19 -7.5t27.5 -6l-6 -23h-198l6 24q45 8 68.5 24t38.5 62l135 415q6 20 7 33.5t-1 21.5t-12 13t-17.5 7.5t-24.5 5.5l6 24h167l152 -460l118 355
q15 46 2 60t-57 22zM218 -58q29 0 48.5 -21.5t19.5 -57.5q0 -59 -50 -117.5t-130 -77.5l-8 24q79 27 99 89q7 22 -15 37q-35 24 -35 56q0 28 21 48t50 20z" />
    <glyph glyph-name="uni0146" unicode="&#x146;" horiz-adv-x="528" 
d="M475 160l17 -18q-99 -152 -176 -152q-27 0 -38.5 16.5t-0.5 43.5l84 214q12 30 18 48.5t7 31.5t-3.5 18t-15.5 5q-37 0 -117.5 -115.5t-134.5 -251.5h-88l113 317q17 47 -1 42q-24 -5 -87 -90l-16 18q97 150 174 150q26 0 34.5 -16.5t-2.5 -43.5l-77 -192h13
q142 252 248 252q99 0 24 -179l-62 -148q-19 -44 -1 -40q25 5 85 86q2 2 3 4zM47 -332l-8 24q79 27 99 89q7 22 -15 37q-35 24 -35 56q0 28 21 48t50 20t48.5 -21.5t19.5 -57.5q0 -59 -50 -117.5t-130 -77.5z" />
    <glyph glyph-name="Ncaron" unicode="&#x147;" horiz-adv-x="635" 
d="M660 864l-173 -152l-79 151l16 14l85 -88l141 88zM554 630h198l-7 -24q-44 -7 -68 -23.5t-39 -62.5l-169 -520h-43l-177 534l-140 -429q-7 -20 -7.5 -33.5t2 -21.5t13 -13.5t19 -7.5t27.5 -6l-6 -23h-198l6 24q45 8 68.5 24t38.5 62l135 415q6 20 7 33.5t-1 21.5t-12 13
t-17.5 7.5t-24.5 5.5l6 24h167l152 -460l118 355q15 46 2 60t-57 22z" />
    <glyph glyph-name="ncaron" unicode="&#x148;" horiz-adv-x="528" 
d="M363 512l-79 151l16 14l85 -88l141 88l10 -13zM475 160l17 -18q-99 -152 -176 -152q-27 0 -38.5 16.5t-0.5 43.5l84 214q12 30 18 48.5t7 31.5t-3.5 18t-15.5 5q-37 0 -117.5 -115.5t-134.5 -251.5h-88l113 317q17 47 -1 42q-24 -5 -87 -90l-16 18q97 150 174 150
q26 0 34.5 -16.5t-2.5 -43.5l-77 -192h13q142 252 248 252q99 0 24 -179l-62 -148q-19 -44 -1 -40q25 5 85 86q2 2 3 4z" />
    <glyph glyph-name="Eng" unicode="&#x14a;" horiz-adv-x="635" 
d="M554 630h198l-7 -24q-44 -7 -68 -23.5t-39 -62.5l-125 -386h3l-45 -140q-15 -46 -42 -79t-64.5 -51.5t-71.5 -28t-78 -16.5q-7 14 4 34q68 19 97.5 53t54.5 113l24 75l-146 440l-140 -429q-7 -20 -7.5 -33.5t2 -21.5t13 -13.5t19 -7.5t27.5 -6l-6 -23h-198l6 24
q45 8 68.5 24t38.5 62l135 415q6 20 7 33.5t-1 21.5t-12 13t-17.5 7.5t-24.5 5.5l6 24h167l152 -460l118 355q15 46 2 60t-57 22z" />
    <glyph glyph-name="eng" unicode="&#x14b;" horiz-adv-x="492" 
d="M426 437q53 0 55.5 -51.5t-28.5 -127.5l-64 -183q-46 -129 -95 -189.5t-119 -60.5q-52 0 -77.5 22t-25.5 55q0 26 15 41t36 15q25 0 35 -19t3 -53q-6 -32 23 -32t44.5 28t46.5 118l90 264q11 31 15.5 49t6 31t-3.5 18t-16 5q-37 0 -117.5 -115.5t-134.5 -251.5h-88
l113 317q17 47 -1 42q-24 -5 -87 -90l-16 18q97 150 174 150q26 0 34.5 -16.5t-2.5 -43.5l-77 -192h13q142 252 248 252z" />
    <glyph glyph-name="Omacron" unicode="&#x14c;" horiz-adv-x="675" 
d="M375 786l15 41h280l-15 -41h-280zM267 -13q-95 0 -149 57.5t-54 154.5q0 110 56.5 213.5t152.5 168t202 64.5q96 0 149.5 -57t53.5 -154q0 -110 -57 -213.5t-152.5 -168.5t-201.5 -65zM285 23q74 0 141 73t103 173.5t36 189.5q0 71 -27.5 110.5t-81.5 39.5
q-56 0 -109 -43.5t-89.5 -108.5t-58.5 -141t-22 -141q0 -72 27.5 -112t80.5 -40z" />
    <glyph glyph-name="omacron" unicode="&#x14d;" horiz-adv-x="438" 
d="M205 586l15 41h280l-15 -41h-280zM131 -10q-55 0 -88 30.5t-33 96.5q0 120 93 221t204 101q55 0 88 -30t33 -95q0 -120 -93 -222t-204 -102zM163 20q42 0 82.5 56.5t63 128t22.5 123.5q0 39 -14.5 60t-40.5 21q-43 0 -83.5 -54.5t-63 -124.5t-22.5 -123q0 -39 15 -63
t41 -24z" />
    <glyph glyph-name="Ohungarumlaut" unicode="&#x150;" horiz-adv-x="675" 
d="M414 698l-26 17q25 88 69 150q22 0 46.5 -18.5t32.5 -39.5q-56 -39 -122 -109zM578 698l-26 17q25 88 69 150q22 0 46.5 -18.5t32.5 -39.5q-56 -39 -122 -109zM267 -13q-95 0 -149 57.5t-54 154.5q0 110 56.5 213.5t152.5 168t202 64.5q96 0 149.5 -57t53.5 -154
q0 -110 -57 -213.5t-152.5 -168.5t-201.5 -65zM285 23q74 0 141 73t103 173.5t36 189.5q0 71 -27.5 110.5t-81.5 39.5q-56 0 -109 -43.5t-89.5 -108.5t-58.5 -141t-22 -141q0 -72 27.5 -112t80.5 -40z" />
    <glyph glyph-name="ohungarumlaut" unicode="&#x151;" horiz-adv-x="438" 
d="M243 498l-26 17q25 88 69 150q22 0 46.5 -18.5t32.5 -39.5q-56 -39 -122 -109zM407 498l-26 17q25 88 69 150q22 0 46.5 -18.5t32.5 -39.5q-56 -39 -122 -109zM131 -10q-55 0 -88 30.5t-33 96.5q0 120 93 221t204 101q55 0 88 -30t33 -95q0 -120 -93 -222t-204 -102z
M163 20q42 0 82.5 56.5t63 128t22.5 123.5q0 39 -14.5 60t-40.5 21q-43 0 -83.5 -54.5t-63 -124.5t-22.5 -123q0 -39 15 -63t41 -24z" />
    <glyph glyph-name="OE" unicode="&#x152;" horiz-adv-x="946" 
d="M565 630h439l-41 -144h-24q15 58 5 83t-58 25h-75q-51 0 -74 -17t-40 -68l-56 -173h62q76 0 106 20t51 71h21l-68 -211h-22q11 33 7.5 52t-25.5 25.5t-77 6.5h-67l-62 -193q-9 -26 -10.5 -39.5t7 -21t20.5 -8.5t42 -1h57q52 0 91.5 27.5t86.5 93.5h29l-90 -158h-440
q-45 -12 -93 -12q-96 0 -150 57.5t-54 154.5q0 108 57.5 211t154.5 169t204 66q46 0 86 -16zM479 168l93 287q9 70 -19.5 111.5t-92.5 41.5q-76 0 -144 -73.5t-105.5 -173t-37.5 -186.5q0 -71 29 -110t83 -39q107 0 194 142z" />
    <glyph glyph-name="oe" unicode="&#x153;" horiz-adv-x="670" 
d="M673 366q0 -123 -265 -180q-2 -22 -2 -31q0 -40 18.5 -65t53.5 -25q27 0 60 16t57 47l13 -19q-33 -57 -86.5 -87t-101.5 -30q-39 0 -67 20.5t-39 57.5q-88 -80 -183 -80q-55 0 -88 30.5t-33 96.5q0 120 93 221t204 101q94 0 115 -78q84 79 169 79q42 0 62 -21t20 -53z
M163 20q42 0 82.5 56.5t63 128t22.5 123.5q0 39 -14.5 60t-40.5 21q-43 0 -83.5 -54.5t-63 -124.5t-22.5 -123q0 -39 15 -63t41 -24zM551 404q-38 0 -79 -59t-58 -130q81 17 126.5 54t45.5 86t-35 49z" />
    <glyph glyph-name="Racute" unicode="&#x154;" horiz-adv-x="618" 
d="M538 807q-56 -39 -122 -109l-26 17q25 88 69 150q22 0 46.5 -18.5t32.5 -39.5zM609 495q0 -89 -66.5 -143.5t-175.5 -70.5q52 -16 67 -81l22 -91q11 -43 35.5 -68.5t63.5 -13.5l-6 -30q-27 -13 -71 -13q-56 0 -83.5 25.5t-40.5 79.5l-26 110q-11 44 -32 59t-64 17
l-55 -170q-8 -25 -9 -39.5t8.5 -23t20 -11.5t35.5 -8l-5 -23h-269l7 25q31 6 46.5 11.5t32 23.5t26.5 50l135 415q8 25 9 39.5t-8 23t-18.5 11.5t-30.5 7l6 24h242q204 0 204 -135zM292 312q90 0 150 59.5t60 139.5q0 83 -97 83q-70 0 -88 -55l-73 -227h48z" />
    <glyph glyph-name="racute" unicode="&#x155;" horiz-adv-x="419" 
d="M281 498l-26 17q25 88 69 150q22 0 46.5 -18.5t32.5 -39.5q-56 -39 -122 -109zM405 437q44 0 44 -47q0 -34 -24.5 -65.5t-56.5 -31.5q-22 0 -26.5 11t2.5 23.5t8.5 23.5t-9.5 11q-35 0 -100.5 -108t-126.5 -256q-44 -3 -88 0l113 319q5 15 6.5 24.5t0 13.5t-5.5 4
q-24 0 -90 -90l-16 18q97 150 175 150q26 0 33.5 -16.5t-3.5 -43.5l-76 -194h13q129 254 227 254z" />
    <glyph glyph-name="uni0156" unicode="&#x156;" horiz-adv-x="618" 
d="M609 495q0 -89 -66.5 -143.5t-175.5 -70.5q52 -16 67 -81l22 -91q11 -43 35.5 -68.5t63.5 -13.5l-6 -30q-27 -13 -71 -13q-56 0 -83.5 25.5t-40.5 79.5l-26 110q-11 44 -32 59t-64 17l-55 -170q-8 -25 -9 -39.5t8.5 -23t20 -11.5t35.5 -8l-5 -23h-269l7 25
q31 6 46.5 11.5t32 23.5t26.5 50l135 415q8 25 9 39.5t-8 23t-18.5 11.5t-30.5 7l6 24h242q204 0 204 -135zM292 312q90 0 150 59.5t60 139.5q0 83 -97 83q-70 0 -88 -55l-73 -227h48zM202 -58q29 0 48.5 -21.5t19.5 -57.5q0 -59 -50 -117.5t-130 -77.5l-8 24q79 27 99 89
q7 22 -15 37q-35 24 -35 56q0 28 21 48t50 20z" />
    <glyph glyph-name="uni0157" unicode="&#x157;" horiz-adv-x="419" 
d="M405 437q44 0 44 -47q0 -34 -24.5 -65.5t-56.5 -31.5q-22 0 -26.5 11t2.5 23.5t8.5 23.5t-9.5 11q-35 0 -100.5 -108t-126.5 -256q-44 -3 -88 0l113 319q5 15 6.5 24.5t0 13.5t-5.5 4q-24 0 -90 -90l-16 18q97 150 175 150q26 0 33.5 -16.5t-3.5 -43.5l-76 -194h13
q129 254 227 254zM-76 -332l-8 24q80 28 100 89q7 22 -15 37q-35 24 -35 56q0 28 21 48t50 20t48.5 -21.5t19.5 -57.5q0 -59 -50.5 -118t-130.5 -77z" />
    <glyph glyph-name="Rcaron" unicode="&#x158;" horiz-adv-x="618" 
d="M614 864l-173 -152l-79 151l16 14l85 -88l141 88zM405 630q204 0 204 -135q0 -89 -66.5 -143.5t-175.5 -70.5q52 -16 67 -81l22 -91q11 -43 35.5 -68.5t63.5 -13.5l-6 -30q-27 -13 -71 -13q-56 0 -83.5 25.5t-40.5 79.5l-26 110q-11 44 -32 59t-64 17l-55 -170
q-8 -25 -9 -39.5t8.5 -23t20 -11.5t35.5 -8l-5 -23h-269l7 25q31 6 46.5 11.5t32 23.5t26.5 50l135 415q8 25 9 39.5t-8 23t-18.5 11.5t-30.5 7l6 24h242zM292 312q90 0 150 59.5t60 139.5q0 83 -97 83q-70 0 -88 -55l-73 -227h48z" />
    <glyph glyph-name="rcaron" unicode="&#x159;" horiz-adv-x="419" 
d="M306 512l-79 151l16 14l85 -88l141 88l10 -13zM405 437q44 0 44 -47q0 -34 -24.5 -65.5t-56.5 -31.5q-22 0 -26.5 11t2.5 23.5t8.5 23.5t-9.5 11q-35 0 -100.5 -108t-126.5 -256q-44 -3 -88 0l113 319q5 15 6.5 24.5t0 13.5t-5.5 4q-24 0 -90 -90l-16 18q97 150 175 150
q26 0 33.5 -16.5t-3.5 -43.5l-76 -194h13q129 254 227 254z" />
    <glyph glyph-name="Sacute" unicode="&#x15a;" horiz-adv-x="487" 
d="M380 698l-26 17q25 88 69 150q22 0 46.5 -18.5t32.5 -39.5q-56 -39 -122 -109zM176 -11q-110 0 -170 67l31 125h22q-8 -73 23 -114.5t92 -41.5q65 0 110.5 41t45.5 100q0 37 -21 67t-62 62q-28 22 -39.5 32t-31.5 32t-28.5 46.5t-8.5 53.5q0 81 66.5 133.5t164.5 52.5
q101 0 155 -60l-36 -127h-21q9 71 -15 111t-82 40q-55 0 -91.5 -33.5t-36.5 -81.5q0 -57 74 -117q63 -50 86 -80q36 -48 36 -102q0 -87 -77.5 -146.5t-185.5 -59.5z" />
    <glyph glyph-name="sacute" unicode="&#x15b;" horiz-adv-x="324" 
d="M356 607q-56 -39 -122 -109l-26 17q25 88 69 150q22 0 46.5 -18.5t32.5 -39.5zM238 439q35 0 61.5 -15t26.5 -48q0 -66 -103 -148q36 -50 36 -94q0 -63 -55.5 -103.5t-121.5 -40.5q-49 0 -74.5 23.5t-25.5 52.5q0 32 28 56l25 -4q2 -32 28 -62t59 -30q23 0 38.5 16.5
t15.5 44.5q0 32 -25.5 68.5t-51 75t-25.5 75.5q0 58 51 95.5t113 37.5zM214 240q50 58 50 111q0 25 -12 40.5t-32 15.5q-23 0 -43 -16t-20 -44q0 -9 3 -19t5.5 -16.5t10.5 -19t11 -16.5t14 -18.5t13 -17.5z" />
    <glyph glyph-name="Scedilla" unicode="&#x15e;" horiz-adv-x="487" 
d="M370 645q101 0 155 -60l-36 -127h-21q9 71 -15 111t-82 40q-55 0 -91.5 -33.5t-36.5 -81.5q0 -57 74 -117q63 -50 86 -80q36 -48 36 -102q0 -83 -71 -141.5t-173 -63.5l-18 -37q43 0 75 -21.5t32 -58.5q0 -39 -40.5 -62t-122.5 -23l5 24q45 0 67 13.5t22 32.5
q0 44 -110 44l45 88q-92 8 -144 66l31 125h22q-8 -73 23 -114.5t92 -41.5q65 0 110.5 41t45.5 100q0 37 -21 67t-62 62q-28 22 -39.5 32t-31.5 32t-28.5 46.5t-8.5 53.5q0 81 66.5 133.5t164.5 52.5z" />
    <glyph glyph-name="scedilla" unicode="&#x15f;" horiz-adv-x="324" 
d="M326 376q0 -66 -103 -148q36 -50 36 -94q0 -54 -42.5 -92t-100.5 -49l-20 -40q43 0 75 -21.5t32 -58.5q0 -39 -40.5 -62t-122.5 -23l5 24q45 0 67 13.5t22 32.5q0 44 -110 44l45 88q-43 3 -65 26t-22 50q0 32 28 56l25 -4q2 -32 28 -62t59 -30q23 0 38.5 16.5t15.5 44.5
q0 32 -25.5 68.5t-51 75t-25.5 75.5q0 58 51 95.5t113 37.5q35 0 61.5 -15t26.5 -48zM214 240q50 58 50 111q0 25 -12 40.5t-32 15.5q-23 0 -43 -16t-20 -44q0 -9 3 -19t5.5 -16.5t10.5 -19t11 -16.5t14 -18.5t13 -17.5z" />
    <glyph glyph-name="Scaron" unicode="&#x160;" horiz-adv-x="487" 
d="M405 712l-79 151l16 14l85 -88l141 88l10 -13zM176 -11q-110 0 -170 67l31 125h22q-8 -73 23 -114.5t92 -41.5q65 0 110.5 41t45.5 100q0 37 -21 67t-62 62q-28 22 -39.5 32t-31.5 32t-28.5 46.5t-8.5 53.5q0 81 66.5 133.5t164.5 52.5q101 0 155 -60l-36 -127h-21
q9 71 -15 111t-82 40q-55 0 -91.5 -33.5t-36.5 -81.5q0 -57 74 -117q63 -50 86 -80q36 -48 36 -102q0 -87 -77.5 -146.5t-185.5 -59.5z" />
    <glyph glyph-name="scaron" unicode="&#x161;" horiz-adv-x="324" 
d="M432 664l-173 -152l-79 151l16 14l85 -88l141 88zM238 439q35 0 61.5 -15t26.5 -48q0 -66 -103 -148q36 -50 36 -94q0 -63 -55.5 -103.5t-121.5 -40.5q-49 0 -74.5 23.5t-25.5 52.5q0 32 28 56l25 -4q2 -32 28 -62t59 -30q23 0 38.5 16.5t15.5 44.5q0 32 -25.5 68.5
t-51 75t-25.5 75.5q0 58 51 95.5t113 37.5zM214 240q50 58 50 111q0 25 -12 40.5t-32 15.5q-23 0 -43 -16t-20 -44q0 -9 3 -19t5.5 -16.5t10.5 -19t11 -16.5t14 -18.5t13 -17.5z" />
    <glyph glyph-name="uni0162" unicode="&#x162;" horiz-adv-x="583" 
d="M625 630l51 10l-50 -177h-21q14 75 -1.5 104.5t-84.5 29.5h-47l-159 -492q-15 -47 -1 -60.5t66 -21.5l-6 -23h-123l-23 -47q43 0 75 -21.5t32 -58.5q0 -39 -40.5 -62t-122.5 -23l5 24q45 0 67 13.5t22 32.5q0 44 -110 44l50 98h-117l7 24q51 8 74 23.5t38 62.5l158 487
h-45q-69 0 -107.5 -34.5t-72.5 -106.5h-23l67 184l45 -10h397z" />
    <glyph glyph-name="uni0163" unicode="&#x163;" horiz-adv-x="311" 
d="M247 394l-118 -319q-5 -13 6 -10q31 8 105 87l17 18l16 -19q-97 -121 -164 -151l-23 -47q43 0 75 -21.5t32 -58.5q0 -39 -40.5 -62t-122.5 -23l5 24q45 0 67 13.5t22 32.5q0 44 -110 44l47 91q-20 7 -27.5 29.5t0.5 45.5l121 332l-85 5l8 25h88l40 111l99 11l-45 -122h90
l-14 -42z" />
    <glyph glyph-name="Tcaron" unicode="&#x164;" horiz-adv-x="583" 
d="M627 864l-173 -152l-79 151l16 14l85 -88l141 88zM625 630l51 10l-50 -177h-21q14 75 -1.5 104.5t-84.5 29.5h-47l-159 -492q-15 -47 -1 -60.5t66 -21.5l-6 -23h-285l7 24q51 8 74 23.5t38 62.5l158 487h-45q-69 0 -107.5 -34.5t-72.5 -106.5h-23l67 184l45 -10h397z" />
    <glyph glyph-name="tcaron" unicode="&#x165;" horiz-adv-x="310" 
d="M410 660q26 0 33 -19t-12 -50l-58 -91q-13 -19 -28 -19q-10 0 -15 8.5t-1 20.5l35 107q15 43 46 43zM305 552l-45 -122h90l-14 -42l-89 6l-118 -319q-5 -13 6 -10q31 8 105 87l17 18l16 -19q-128 -160 -198 -160q-26 0 -38.5 24.5t-2.5 52.5l121 332l-85 5l8 25h88
l40 111z" />
    <glyph glyph-name="Tbar" unicode="&#x166;" horiz-adv-x="583" 
d="M625 630l51 10l-50 -177h-21q14 75 -1.5 104.5t-84.5 29.5h-47l-87 -270l111 3l-10 -38l-112 3l-61 -190q-15 -47 -1 -60.5t66 -21.5l-6 -23h-285l7 24q51 8 74 23.5t38 62.5l60 185l-112 -3l10 38l113 -3l87 270h-45q-69 0 -107.5 -34.5t-72.5 -106.5h-23l67 184l45 -10
h397z" />
    <glyph glyph-name="tbar" unicode="&#x167;" horiz-adv-x="313" 
d="M336 388l-89 6l-18 -49h106l-15 -42l-104 7l-87 -235q-5 -13 6 -10q31 8 105 87l17 18l16 -19q-128 -160 -198 -160q-26 0 -38.5 24.5t-2.5 52.5l90 248l-68 4l8 25h71l20 55l-85 5l8 25h88l40 111l99 11l-45 -122h90z" />
    <glyph glyph-name="Umacron" unicode="&#x16a;" horiz-adv-x="654" 
d="M373 786l15 41h280l-15 -41h-280zM271 -11q-35 0 -64 7t-55.5 26t-41 48.5t-13.5 78t21 110.5l86 266q8 25 9 39.5t-8 23t-18 11.5t-31 7l7 24h260l-8 -25q-44 -8 -66.5 -23.5t-37.5 -61.5l-93 -289q-16 -49 -18 -86.5t6 -58t24.5 -33t32.5 -16.5t36 -4q29 0 57.5 9
t59.5 30t58.5 61.5t46.5 97.5l95 294q6 20 6.5 33.5t-1.5 21t-12.5 13t-18 7.5t-24.5 6l7 24h198l-8 -25q-33 -6 -49 -11.5t-33 -23.5t-28 -50l-92 -283q-81 -248 -290 -248z" />
    <glyph glyph-name="umacron" unicode="&#x16b;" horiz-adv-x="529" 
d="M240 586l15 41h280l-15 -41h-280zM53 268l-17 18q97 151 175 151q27 0 39 -17t0 -45l-83 -211q-12 -29 -18 -48t-7 -32t4 -18.5t16 -5.5q38 0 119.5 115.5t135.5 258.5h88l-116 -324q-16 -46 0 -41q25 7 86 90l17 -18q-97 -151 -175 -151q-27 0 -38 16.5t0 43.5l77 195
l-8 -1q-80 -142 -137.5 -198t-107.5 -56q-102 0 -25 180l62 146q19 44 1 41q-25 -4 -84 -84q-2 -2 -4 -5z" />
    <glyph glyph-name="ubreve" unicode="&#x16d;" horiz-adv-x="529" 
d="M378 534q-63 0 -86.5 40t-2.5 102h22q-7 -38 12.5 -55.5t64.5 -17.5q97 -1 135 73h22q-21 -70 -65 -106t-102 -36zM53 268l-17 18q97 151 175 151q27 0 39 -17t0 -45l-83 -211q-12 -29 -18 -48t-7 -32t4 -18.5t16 -5.5q38 0 119.5 115.5t135.5 258.5h88l-116 -324
q-16 -46 0 -41q25 7 86 90l17 -18q-97 -151 -175 -151q-27 0 -38 16.5t0 43.5l77 195l-8 -1q-80 -142 -137.5 -198t-107.5 -56q-102 0 -25 180l62 146q19 44 1 41q-25 -4 -84 -84q-2 -2 -4 -5z" />
    <glyph glyph-name="Uring" unicode="&#x16e;" horiz-adv-x="654" 
d="M532 721q-39 0 -65.5 26t-26.5 64t26.5 64.5t65.5 26.5t65.5 -26.5t26.5 -64.5t-26.5 -64t-65.5 -26zM532 767q19 0 32 12.5t13 31.5t-13 32t-32 13q-20 0 -32.5 -13t-12.5 -32t12.5 -31.5t32.5 -12.5zM271 -11q-35 0 -64 7t-55.5 26t-41 48.5t-13.5 78t21 110.5l86 266
q8 25 9 39.5t-8 23t-18 11.5t-31 7l7 24h260l-8 -25q-44 -8 -66.5 -23.5t-37.5 -61.5l-93 -289q-16 -49 -18 -86.5t6 -58t24.5 -33t32.5 -16.5t36 -4q29 0 57.5 9t59.5 30t58.5 61.5t46.5 97.5l95 294q6 20 6.5 33.5t-1.5 21t-12.5 13t-18 7.5t-24.5 6l7 24h198l-8 -25
q-33 -6 -49 -11.5t-33 -23.5t-28 -50l-92 -283q-81 -248 -290 -248z" />
    <glyph glyph-name="uring" unicode="&#x16f;" horiz-adv-x="529" 
d="M398 521q-39 0 -65.5 26t-26.5 64t26.5 64.5t65.5 26.5t65.5 -26.5t26.5 -64.5t-26.5 -64t-65.5 -26zM398 567q19 0 32 12.5t13 31.5t-13 32t-32 13q-20 0 -32.5 -13t-12.5 -32t12.5 -31.5t32.5 -12.5zM53 268l-17 18q97 151 175 151q27 0 39 -17t0 -45l-83 -211
q-12 -29 -18 -48t-7 -32t4 -18.5t16 -5.5q38 0 119.5 115.5t135.5 258.5h88l-116 -324q-16 -46 0 -41q25 7 86 90l17 -18q-97 -151 -175 -151q-27 0 -38 16.5t0 43.5l77 195l-8 -1q-80 -142 -137.5 -198t-107.5 -56q-102 0 -25 180l62 146q19 44 1 41q-25 -4 -84 -84
q-2 -2 -4 -5z" />
    <glyph glyph-name="Uhungarumlaut" unicode="&#x170;" horiz-adv-x="654" 
d="M412 698l-26 17q25 88 69 150q22 0 46.5 -18.5t32.5 -39.5q-56 -39 -122 -109zM576 698l-26 17q25 88 69 150q22 0 46.5 -18.5t32.5 -39.5q-56 -39 -122 -109zM271 -11q-35 0 -64 7t-55.5 26t-41 48.5t-13.5 78t21 110.5l86 266q8 25 9 39.5t-8 23t-18 11.5t-31 7l7 24
h260l-8 -25q-44 -8 -66.5 -23.5t-37.5 -61.5l-93 -289q-16 -49 -18 -86.5t6 -58t24.5 -33t32.5 -16.5t36 -4q29 0 57.5 9t59.5 30t58.5 61.5t46.5 97.5l95 294q6 20 6.5 33.5t-1.5 21t-12.5 13t-18 7.5t-24.5 6l7 24h198l-8 -25q-33 -6 -49 -11.5t-33 -23.5t-28 -50
l-92 -283q-81 -248 -290 -248z" />
    <glyph glyph-name="uhungarumlaut" unicode="&#x171;" horiz-adv-x="529" 
d="M278 498l-26 17q25 88 69 150q22 0 46.5 -18.5t32.5 -39.5q-56 -39 -122 -109zM442 498l-26 17q25 88 69 150q22 0 46.5 -18.5t32.5 -39.5q-56 -39 -122 -109zM53 268l-17 18q97 151 175 151q27 0 39 -17t0 -45l-83 -211q-12 -29 -18 -48t-7 -32t4 -18.5t16 -5.5
q38 0 119.5 115.5t135.5 258.5h88l-116 -324q-16 -46 0 -41q25 7 86 90l17 -18q-97 -151 -175 -151q-27 0 -38 16.5t0 43.5l77 195l-8 -1q-80 -142 -137.5 -198t-107.5 -56q-102 0 -25 180l62 146q19 44 1 41q-25 -4 -84 -84q-2 -2 -4 -5z" />
    <glyph glyph-name="Uogonek" unicode="&#x172;" horiz-adv-x="654" 
d="M573 630h198l-8 -25q-33 -6 -49 -11.5t-33 -23.5t-28 -50l-92 -283q-70 -214 -238 -244q-92 -27 -92 -83q0 -23 12.5 -36t34.5 -13q20 0 45 10l-5 -21q-38 -33 -92 -33q-86 0 -86 70q0 41 30 73l70 31q-39 4 -68.5 18.5t-52.5 46t-22.5 81t21.5 122.5l86 266q8 25 9 39.5
t-8 23t-18 11.5t-31 7l7 24h260l-8 -25q-44 -8 -66.5 -23.5t-37.5 -61.5l-93 -289q-16 -49 -18 -86.5t6 -58t24.5 -33t32.5 -16.5t36 -4q29 0 57.5 9t59.5 30t58.5 61.5t46.5 97.5l95 294q6 20 6.5 33.5t-1.5 21t-12.5 13t-18 7.5t-24.5 6z" />
    <glyph glyph-name="uogonek" unicode="&#x173;" horiz-adv-x="529" 
d="M389 110q-16 -46 0 -41q25 7 86 90l17 -18q-75 -116 -138 -143q-77 -44 -77 -95q0 -22 12.5 -35t34.5 -13q18 0 47 9l-7 -19q-41 -34 -93 -34q-84 0 -84 70q0 41 29 73l71 44q-23 16 -8 52l77 195l-8 -1q-80 -142 -137.5 -198t-107.5 -56q-102 0 -25 180l62 146
q19 44 1 41q-25 -4 -84 -84q-2 -2 -4 -5l-17 18q97 151 175 151q27 0 39 -17t0 -45l-83 -211q-12 -29 -18 -48t-7 -32t4 -18.5t16 -5.5q38 0 119.5 115.5t135.5 258.5h88z" />
    <glyph glyph-name="Wcircumflex" unicode="&#x174;" horiz-adv-x="938" 
d="M679 878l79 -151l-16 -14l-85 88l-141 -88l-10 13zM206 -8l-6 546q-1 38 -12 49.5t-47 19.5l7 23h247l-7 -25q-40 -6 -59.5 -18t-19.5 -43l1 -393l205 319q33 49 30 87t-48 50l6 23h166q-13 -42 -15 -144l3 -333l237 371q16 26 21 41t-5.5 23.5t-21 11t-40.5 7.5l6 23
h201l-7 -25q-39 -7 -60.5 -20.5t-48.5 -56.5l-348 -536h-40l-5 463l-300 -463h-40z" />
    <glyph glyph-name="wcircumflex" unicode="&#x175;" horiz-adv-x="700" 
d="M468 601l-141 -88l-10 13l173 152l79 -151l-16 -14zM567 392q22 16 48 28t52 18t43.5 -5t17.5 -41q0 -61 -64.5 -157.5t-154.5 -170.5t-154 -74q-36 0 -52.5 23.5t-4.5 56.5l18 49q-56 -58 -113 -93.5t-100 -35.5q-36 0 -52.5 23.5t-4.5 56.5l93 249q16 43 -1 40
q-23 -6 -86 -90l-16 18q97 150 171 150q27 0 39 -17.5t1 -48.5l-102 -291q-15 -43 15 -43q48 0 115.5 77.5t97.5 157.5l1 1l17 46q16 43 -1 40q-23 -6 -86 -90l-16 18q97 150 171 150q27 0 39 -17.5t1 -48.5l-102 -291q-15 -43 15 -43q39 0 93.5 53.5t94 125t39.5 119.5
q0 31 -14.5 42t-48.5 -3z" />
    <glyph glyph-name="Ycircumflex" unicode="&#x176;" horiz-adv-x="598" 
d="M495 801l-141 -88l-10 13l173 152l79 -151l-16 -14zM550 630h185l-7 -25q-41 -7 -58 -17.5t-51 -48.5l-239 -269l-53 -164q-15 -47 -1 -61t66 -22l-6 -23h-284l7 24q50 8 73.5 24t38.5 63l50 153l-67 276q-9 38 -20 49t-48 18l7 23h257l-7 -25q-23 -5 -33 -7.5t-24.5 -10
t-18 -19.5t0.5 -29l56 -229l204 234q20 23 19 36t-9.5 16.5t-35.5 8.5q-5 1 -8 2z" />
    <glyph glyph-name="ycircumflex" unicode="&#x177;" horiz-adv-x="452" 
d="M351 601l-141 -88l-10 13l173 152l79 -151l-16 -14zM315 392q22 16 48 28t52 18t43.5 -5t17.5 -41q0 -53 -62.5 -150.5t-147.5 -190.5t-180.5 -162.5t-153.5 -69.5q-27 0 -47 15t-20 41q0 23 13.5 36.5t36.5 13.5t46.5 -24.5t44.5 -24.5q42 0 125 71l8 372q1 41 -9 41.5
t-52 -55.5q-2 -4 -8 -11q-11 -16 -18 -25l-16 18q52 82 85.5 116t67.5 34q23 0 30.5 -15.5t6.5 -50.5l-8 -338q72 79 120.5 161.5t48.5 140.5q0 31 -14.5 42t-48.5 -3z" />
    <glyph glyph-name="Ydieresis" unicode="&#x178;" horiz-adv-x="598" 
d="M358 755q-24 0 -40 16.5t-16 39.5t16 39.5t40 16.5q23 0 39 -16.5t16 -39.5t-16 -39.5t-39 -16.5zM563 755q-23 0 -39.5 16.5t-16.5 39.5t16.5 39.5t39.5 16.5t39.5 -16.5t16.5 -39.5t-16.5 -39.5t-39.5 -16.5zM550 630h185l-7 -25q-41 -7 -58 -17.5t-51 -48.5l-239 -269
l-53 -164q-15 -47 -1 -61t66 -22l-6 -23h-284l7 24q50 8 73.5 24t38.5 63l50 153l-67 276q-9 38 -20 49t-48 18l7 23h257l-7 -25q-23 -5 -33 -7.5t-24.5 -10t-18 -19.5t0.5 -29l56 -229l204 234q20 23 19 36t-9.5 16.5t-35.5 8.5q-5 1 -8 2z" />
    <glyph glyph-name="Zacute" unicode="&#x179;" horiz-adv-x="561" 
d="M423 698l-26 17q25 88 69 150q22 0 46.5 -18.5t32.5 -39.5q-56 -39 -122 -109zM-22 0l-6 15l539 587l-175 -4q-65 -1 -102 -34t-65 -105h-25l57 177l53 -6h411l-553 -602l208 11q63 3 99 36t74 105h29q-57 -113 -78 -180h-466z" />
    <glyph glyph-name="zacute" unicode="&#x17a;" horiz-adv-x="389" 
d="M270 498l-26 17q25 88 69 150q22 0 46.5 -18.5t32.5 -39.5q-56 -39 -122 -109zM240 73q28 0 44 17.5t35 58.5h25l-55 -157q-47 -5 -123.5 13.5t-108.5 18.5q-49 0 -84 -24l-13 18l344 312q-41 -1 -88 13.5t-67 14.5q-28 0 -44 -18t-35 -59h-25l56 157q47 5 123.5 -13.5
t108.5 -18.5q48 0 83 24l13 -18l-344 -311q41 1 88 -13.5t67 -14.5z" />
    <glyph glyph-name="Zdotaccent" unicode="&#x17b;" horiz-adv-x="561" 
d="M471 721q-27 0 -47 19t-20 45q0 27 20 45.5t47 18.5t46.5 -18.5t19.5 -45.5q0 -26 -20 -45t-46 -19zM-22 0l-6 15l539 587l-175 -4q-65 -1 -102 -34t-65 -105h-25l57 177l53 -6h411l-553 -602l208 11q63 3 99 36t74 105h29q-57 -113 -78 -180h-466z" />
    <glyph glyph-name="zdotaccent" unicode="&#x17c;" horiz-adv-x="389" 
d="M318 521q-27 0 -47 19t-20 45q0 27 20 45.5t47 18.5t46.5 -18.5t19.5 -45.5q0 -26 -20 -45t-46 -19zM240 73q28 0 44 17.5t35 58.5h25l-55 -157q-47 -5 -123.5 13.5t-108.5 18.5q-49 0 -84 -24l-13 18l344 312q-41 -1 -88 13.5t-67 14.5q-28 0 -44 -18t-35 -59h-25
l56 157q47 5 123.5 -13.5t108.5 -18.5q48 0 83 24l13 -18l-344 -311q41 1 88 -13.5t67 -14.5z" />
    <glyph glyph-name="Zcaron" unicode="&#x17d;" horiz-adv-x="561" 
d="M448 712l-79 151l16 14l85 -88l141 88l10 -13zM-22 0l-6 15l539 587l-175 -4q-65 -1 -102 -34t-65 -105h-25l57 177l53 -6h411l-553 -602l208 11q63 3 99 36t74 105h29q-57 -113 -78 -180h-466z" />
    <glyph glyph-name="zcaron" unicode="&#x17e;" horiz-adv-x="389" 
d="M295 512l-79 151l16 14l85 -88l141 88l10 -13zM240 73q28 0 44 17.5t35 58.5h25l-55 -157q-47 -5 -123.5 13.5t-108.5 18.5q-49 0 -84 -24l-13 18l344 312q-41 -1 -88 13.5t-67 14.5q-28 0 -44 -18t-35 -59h-25l56 157q47 5 123.5 -13.5t108.5 -18.5q48 0 83 24l13 -18
l-344 -311q41 1 88 -13.5t67 -14.5z" />
    <glyph glyph-name="florin" unicode="&#x192;" horiz-adv-x="527" 
d="M593 685q38 0 59 -18t17 -54q-9 -20 -34.5 -33.5t-52.5 -12.5q4 73 -35 73q-29 0 -65.5 -31.5t-68.5 -105.5l-29 -66l111 7q-14 -27 -21 -50l-107 3l-141 -325q-52 -121 -138 -184t-172 -63q-38 0 -59 18t-18 54q10 20 35.5 33.5t52.5 12.5q-6 -73 34 -73q30 0 66.5 31.5
t68.5 106.5l170 391l-62 2l8 24l71 15q52 119 138.5 182t171.5 63z" />
    <glyph glyph-name="uni0218" unicode="&#x218;" horiz-adv-x="487" 
d="M176 -11q-110 0 -170 67l31 125h22q-8 -73 23 -114.5t92 -41.5q65 0 110.5 41t45.5 100q0 37 -21 67t-62 62q-28 22 -39.5 32t-31.5 32t-28.5 46.5t-8.5 53.5q0 81 66.5 133.5t164.5 52.5q101 0 155 -60l-36 -127h-21q9 71 -15 111t-82 40q-55 0 -91.5 -33.5t-36.5 -81.5
q0 -57 74 -117q63 -50 86 -80q36 -48 36 -102q0 -87 -77.5 -146.5t-185.5 -59.5zM24 -332l-8 24q79 27 99 89q7 22 -15 37q-35 24 -35 56q0 28 21 48t50 20t48.5 -21.5t19.5 -57.5q0 -59 -50 -117.5t-130 -77.5z" />
    <glyph glyph-name="uni0219" unicode="&#x219;" horiz-adv-x="324" 
d="M326 376q0 -66 -103 -148q36 -50 36 -94q0 -63 -55.5 -103.5t-121.5 -40.5q-49 0 -74.5 23.5t-25.5 52.5q0 32 28 56l25 -4q2 -32 28 -62t59 -30q23 0 38.5 16.5t15.5 44.5q0 32 -25.5 68.5t-51 75t-25.5 75.5q0 58 51 95.5t113 37.5q35 0 61.5 -15t26.5 -48zM214 240
q50 58 50 111q0 25 -12 40.5t-32 15.5q-23 0 -43 -16t-20 -44q0 -9 3 -19t5.5 -16.5t10.5 -19t11 -16.5t14 -18.5t13 -17.5zM55 -58q29 0 48.5 -21.5t19.5 -57.5q0 -59 -50.5 -118t-130.5 -77l-8 24q80 28 100 89q7 22 -15 37q-35 24 -35 56q0 28 21 48t50 20z" />
    <glyph glyph-name="uni021A" unicode="&#x21a;" horiz-adv-x="583" 
d="M625 630l51 10l-50 -177h-21q14 75 -1.5 104.5t-84.5 29.5h-47l-159 -492q-15 -47 -1 -60.5t66 -21.5l-6 -23h-285l7 24q51 8 74 23.5t38 62.5l158 487h-45q-69 0 -107.5 -34.5t-72.5 -106.5h-23l67 184l45 -10h397zM185 -58q29 0 48.5 -21.5t19.5 -57.5
q0 -59 -50 -117.5t-130 -77.5l-8 24q79 27 99 89q7 22 -15 37q-35 24 -35 56q0 28 21 48t50 20z" />
    <glyph glyph-name="uni021B" unicode="&#x21b;" horiz-adv-x="311" 
d="M247 394l-118 -319q-5 -13 6 -10q31 8 105 87l17 18l16 -19q-128 -160 -198 -160q-26 0 -38.5 24.5t-2.5 52.5l121 332l-85 5l8 25h88l40 111l99 11l-45 -122h90l-14 -42zM45 -58q29 0 48.5 -21.5t19.5 -57.5q0 -59 -50.5 -118t-130.5 -77l-8 24q80 28 100 89
q7 22 -15 37q-35 24 -35 56q0 28 21 48t50 20z" />
    <glyph glyph-name="uni0237" unicode="&#x237;" horiz-adv-x="265" 
d="M221 435q28 0 39 -19.5t2 -48.5l-97 -292q-42 -127 -92.5 -188.5t-121.5 -61.5q-53 0 -78 23.5t-23 57.5q1 24 15.5 39t35.5 15q24 0 33.5 -20t2.5 -54q-6 -31 23 -31q30 0 46.5 29t44.5 116l102 315q15 46 -2 42q-22 -6 -84 -90l-17 18q98 150 171 150z" />
    <glyph glyph-name="circumflex" unicode="&#x2c6;" horiz-adv-x="259" 
d="M281 688l79 -151l-16 -14l-85 88l-141 -88l-10 13z" />
    <glyph glyph-name="caron" unicode="&#x2c7;" horiz-adv-x="259" 
d="M231 522l-79 151l16 14l85 -88l141 88l10 -13z" />
    <glyph glyph-name="breve" unicode="&#x2d8;" horiz-adv-x="263" 
d="M247 544q-63 0 -86.5 40t-2.5 102h22q-7 -38 12.5 -55.5t64.5 -17.5q97 -1 135 73h22q-21 -70 -65 -106t-102 -36z" />
    <glyph glyph-name="dotaccent" unicode="&#x2d9;" horiz-adv-x="146" 
d="M197 531q-27 0 -47 19t-20 45q0 27 20 45.5t47 18.5t46.5 -18.5t19.5 -45.5q0 -26 -20 -45t-46 -19z" />
    <glyph glyph-name="ring" unicode="&#x2da;" horiz-adv-x="201" 
d="M233 531q-39 0 -65.5 26t-26.5 64t26.5 64.5t65.5 26.5t65.5 -26.5t26.5 -64.5t-26.5 -64t-65.5 -26zM233 577q19 0 32 12.5t13 31.5t-13 32t-32 13q-20 0 -32.5 -13t-12.5 -32t12.5 -31.5t32.5 -12.5z" />
    <glyph glyph-name="ogonek" unicode="&#x2db;" horiz-adv-x="202" 
d="M-13 -183q-85 0 -85 70q0 41 30 73l165 102l-6 -46q-49 -27 -73.5 -50.5t-24.5 -56.5q0 -22 12.5 -35t34.5 -13q18 0 47 9l-7 -19q-41 -34 -93 -34z" />
    <glyph glyph-name="tilde" unicode="&#x2dc;" horiz-adv-x="321" 
d="M329 524q-20 0 -35 7.5t-24 18t-17 21t-19.5 18t-26.5 7.5q-25 0 -47 -18.5t-27 -34.5l-17 13q8 48 43 77t78 29q25 0 42 -11t25 -25t22 -25t32 -11q26 0 48 18t28 35l16 -13q-7 -48 -42.5 -77t-78.5 -29z" />
    <glyph glyph-name="hungarumlaut" unicode="&#x2dd;" horiz-adv-x="290" 
d="M131 508l-26 17q25 88 69 150q22 0 46.5 -18.5t32.5 -39.5q-56 -39 -122 -109zM295 508l-26 17q25 88 69 150q22 0 46.5 -18.5t32.5 -39.5q-56 -39 -122 -109z" />
    <glyph glyph-name="acutecomb" unicode="&#x301;" horiz-adv-x="0" 
d="M5 508l-26 17q25 88 69 150q22 0 46.5 -18.5t32.5 -39.5q-56 -39 -122 -109z" />
    <glyph glyph-name="uni0326" unicode="&#x326;" horiz-adv-x="0" 
d="M-307 -332l-8 24q78 27 100 89q7 22 -15 37q-35 24 -35 56q0 28 20.5 48t49.5 20q30 0 49.5 -21.5t19.5 -57.5q0 -59 -50.5 -118t-130.5 -77z" />
    <glyph glyph-name="uni0394" unicode="&#x394;" horiz-adv-x="531" 
d="M-53 0l463 634l54 -634h-517zM44 87h314l-24 399z" />
    <glyph glyph-name="uni03A9" unicode="&#x3a9;" horiz-adv-x="687" 
d="M467 88q52 0 76.5 5t44.5 24h20l-71 -117h-195l28 88q79 36 145 160.5t66 222.5q0 60 -28 94t-80 34q-72 0 -139.5 -65t-106.5 -155t-39 -169q0 -45 13.5 -77t32.5 -45l-28 -88h-195l5 117h15q7 -19 27.5 -24t69.5 -5h25q-28 24 -48 68.5t-20 101.5q0 96 56 184.5
t147 141.5t188 53q99 0 154.5 -56.5t55.5 -146.5q0 -106 -64.5 -196.5t-167.5 -149.5h13z" />
    <glyph glyph-name="uni03BC" unicode="&#x3bc;" horiz-adv-x="529" 
d="M389 110q-16 -46 0 -41q25 7 86 90l17 -18q-97 -151 -175 -151q-27 0 -38 16.5t0 43.5l77 195l-8 -1q-80 -142 -137.5 -198t-107.5 -56q-52 0 -57 51q-28 -73 -25 -102.5t13 -52t6 -33.5q-8 -23 -29.5 -37.5t-43.5 -14.5q-23 0 -32 14.5t3 46.5l193 439h3l6 15
q19 44 1 41q-25 -4 -84 -84q-2 -2 -4 -5l-17 18q97 151 175 151q27 0 39 -17t0 -45l-83 -211q-12 -29 -18 -48t-7 -32t4 -18.5t16 -5.5q38 0 119.5 115.5t135.5 258.5h88z" />
    <glyph glyph-name="pi" unicode="&#x3c0;" horiz-adv-x="640" 
d="M529 374l-92 -284q-17 -50 3 -50q17 0 41.5 36.5t46.5 36.5q19 0 25 -17.5t-3 -43.5q-10 -33 -42.5 -47.5t-70.5 -14.5q-56 0 -80 40t-1 107l76 237h-113l-83 -258q-20 -60 -61.5 -91t-86.5 -31q-32 0 -62 15l-6 30q34 -10 70.5 14t53.5 77l79 244h-38q-32 0 -55 -24
t-26 -63l-19 29q-4 56 27 95.5t87 39.5h440l-25 -77h-85z" />
    <glyph glyph-name="Wgrave" unicode="&#x1e80;" horiz-adv-x="938" 
d="M602 698q-66 70 -122 109q8 21 32.5 39.5t47.5 18.5q44 -62 69 -150zM206 -8l-6 546q-1 38 -12 49.5t-47 19.5l7 23h247l-7 -25q-40 -6 -59.5 -18t-19.5 -43l1 -393l205 319q33 49 30 87t-48 50l6 23h166q-13 -42 -15 -144l3 -333l237 371q16 26 21 41t-5.5 23.5t-21 11
t-40.5 7.5l6 23h201l-7 -25q-39 -7 -60.5 -20.5t-48.5 -56.5l-348 -536h-40l-5 463l-300 -463h-40z" />
    <glyph glyph-name="wgrave" unicode="&#x1e81;" horiz-adv-x="700" 
d="M413 498q-66 70 -122 109q8 21 32.5 39.5t47.5 18.5q44 -62 69 -150zM567 392q22 16 48 28t52 18t43.5 -5t17.5 -41q0 -61 -64.5 -157.5t-154.5 -170.5t-154 -74q-36 0 -52.5 23.5t-4.5 56.5l18 49q-56 -58 -113 -93.5t-100 -35.5q-36 0 -52.5 23.5t-4.5 56.5l93 249
q16 43 -1 40q-23 -6 -86 -90l-16 18q97 150 171 150q27 0 39 -17.5t1 -48.5l-102 -291q-15 -43 15 -43q48 0 115.5 77.5t97.5 157.5l1 1l17 46q16 43 -1 40q-23 -6 -86 -90l-16 18q97 150 171 150q27 0 39 -17.5t1 -48.5l-102 -291q-15 -43 15 -43q39 0 93.5 53.5t94 125
t39.5 119.5q0 31 -14.5 42t-48.5 -3z" />
    <glyph glyph-name="Wacute" unicode="&#x1e82;" horiz-adv-x="938" 
d="M604 698l-26 17q25 88 69 150q22 0 46.5 -18.5t32.5 -39.5q-56 -39 -122 -109zM206 -8l-6 546q-1 38 -12 49.5t-47 19.5l7 23h247l-7 -25q-40 -6 -59.5 -18t-19.5 -43l1 -393l205 319q33 49 30 87t-48 50l6 23h166q-13 -42 -15 -144l3 -333l237 371q16 26 21 41
t-5.5 23.5t-21 11t-40.5 7.5l6 23h201l-7 -25q-39 -7 -60.5 -20.5t-48.5 -56.5l-348 -536h-40l-5 463l-300 -463h-40z" />
    <glyph glyph-name="wacute" unicode="&#x1e83;" horiz-adv-x="700" 
d="M537 607q-56 -39 -122 -109l-26 17q25 88 69 150q22 0 46.5 -18.5t32.5 -39.5zM567 392q22 16 48 28t52 18t43.5 -5t17.5 -41q0 -61 -64.5 -157.5t-154.5 -170.5t-154 -74q-36 0 -52.5 23.5t-4.5 56.5l18 49q-56 -58 -113 -93.5t-100 -35.5q-36 0 -52.5 23.5t-4.5 56.5
l93 249q16 43 -1 40q-23 -6 -86 -90l-16 18q97 150 171 150q27 0 39 -17.5t1 -48.5l-102 -291q-15 -43 15 -43q48 0 115.5 77.5t97.5 157.5l1 1l17 46q16 43 -1 40q-23 -6 -86 -90l-16 18q97 150 171 150q27 0 39 -17.5t1 -48.5l-102 -291q-15 -43 15 -43q39 0 93.5 53.5
t94 125t39.5 119.5q0 31 -14.5 42t-48.5 -3z" />
    <glyph glyph-name="Wdieresis" unicode="&#x1e84;" horiz-adv-x="938" 
d="M520 755q-24 0 -40 16.5t-16 39.5t16 39.5t40 16.5q23 0 39 -16.5t16 -39.5t-16 -39.5t-39 -16.5zM725 755q-23 0 -39.5 16.5t-16.5 39.5t16.5 39.5t39.5 16.5t39.5 -16.5t16.5 -39.5t-16.5 -39.5t-39.5 -16.5zM206 -8l-6 546q-1 38 -12 49.5t-47 19.5l7 23h247l-7 -25
q-40 -6 -59.5 -18t-19.5 -43l1 -393l205 319q33 49 30 87t-48 50l6 23h166q-13 -42 -15 -144l3 -333l237 371q16 26 21 41t-5.5 23.5t-21 11t-40.5 7.5l6 23h201l-7 -25q-39 -7 -60.5 -20.5t-48.5 -56.5l-348 -536h-40l-5 463l-300 -463h-40z" />
    <glyph glyph-name="wdieresis" unicode="&#x1e85;" horiz-adv-x="700" 
d="M331 555q-24 0 -40 16.5t-16 39.5t16 39.5t40 16.5q23 0 39 -16.5t16 -39.5t-16 -39.5t-39 -16.5zM536 555q-23 0 -39.5 16.5t-16.5 39.5t16.5 39.5t39.5 16.5t39.5 -16.5t16.5 -39.5t-16.5 -39.5t-39.5 -16.5zM567 392q22 16 48 28t52 18t43.5 -5t17.5 -41
q0 -61 -64.5 -157.5t-154.5 -170.5t-154 -74q-36 0 -52.5 23.5t-4.5 56.5l18 49q-56 -58 -113 -93.5t-100 -35.5q-36 0 -52.5 23.5t-4.5 56.5l93 249q16 43 -1 40q-23 -6 -86 -90l-16 18q97 150 171 150q27 0 39 -17.5t1 -48.5l-102 -291q-15 -43 15 -43q48 0 115.5 77.5
t97.5 157.5l1 1l17 46q16 43 -1 40q-23 -6 -86 -90l-16 18q97 150 171 150q27 0 39 -17.5t1 -48.5l-102 -291q-15 -43 15 -43q39 0 93.5 53.5t94 125t39.5 119.5q0 31 -14.5 42t-48.5 -3z" />
    <glyph glyph-name="uni1E9E" unicode="&#x1e9e;" horiz-adv-x="669" 
d="M493 346q60 -8 96.5 -41.5t36.5 -92.5q0 -92 -79.5 -162t-181.5 -70q-75 0 -110 43q15 67 22 118h21q2 -76 16 -101.5t44 -25.5q63 0 111.5 64.5t48.5 129.5q0 110 -164 110l231 261q-28 16 -78 16q-33 0 -63.5 -10t-64.5 -33.5t-64 -70.5t-52 -114l-85 -262
q-8 -23 -9.5 -37.5t4.5 -22.5t13.5 -12t23.5 -8l-5 -25h-245l6 25q31 6 46 11.5t31.5 23.5t26.5 50l84 257q87 270 320 270q108 0 223 -65z" />
    <glyph glyph-name="uni1EBC" unicode="&#x1ebc;" horiz-adv-x="557" 
d="M384 786q-25 0 -47 -18.5t-27 -34.5l-17 13q8 48 43 77t78 29q25 0 42 -11t25 -25t22 -25t32 -11q26 0 48 18t28 35l16 -13q-7 -48 -42.5 -77t-78.5 -29q-20 0 -35 7.5t-24 18t-17 21t-19.5 18t-26.5 7.5zM157 606l7 24h450l-40 -144h-25q16 58 5.5 83t-57.5 25h-76
q-51 0 -74 -17t-39 -68l-56 -173h62q76 0 105.5 20t50.5 71h22l-69 -211h-21q13 54 -2 69t-94 15h-66l-63 -193q-9 -26 -10.5 -39.5t7 -21t21 -8.5t42.5 -1h56q52 0 91.5 27.5t87.5 93.5h29l-90 -158h-453l7 25q31 6 46.5 11.5t32 23.5t26.5 50l135 415q8 25 9 39.5t-8 23
t-18.5 11.5t-30.5 7z" />
    <glyph glyph-name="uni1EBD" unicode="&#x1ebd;" horiz-adv-x="374" 
d="M457 633l16 -13q-7 -48 -42.5 -77t-78.5 -29q-20 0 -35 7.5t-24 18t-17 21t-19.5 18t-26.5 7.5q-25 0 -47 -18.5t-27 -34.5l-17 13q8 48 43 77t78 29q25 0 42 -11t25 -25t22 -25t32 -11q26 0 48 18t28 35zM295 439q42 0 62 -21t20 -53q0 -123 -266 -180q-2 -22 -2 -31
q0 -40 19 -65t53 -25q28 0 60.5 16t56.5 47l14 -19q-33 -57 -86.5 -87t-102.5 -30q-51 0 -82 35.5t-31 95.5q0 111 93 214t192 103zM117 214q81 17 126.5 53.5t45.5 86.5q0 49 -34 49q-39 0 -80 -59.5t-58 -129.5z" />
    <glyph glyph-name="Ygrave" unicode="&#x1ef2;" horiz-adv-x="598" 
d="M440 698q-66 70 -122 109q8 21 32.5 39.5t47.5 18.5q44 -62 69 -150zM550 630h185l-7 -25q-41 -7 -58 -17.5t-51 -48.5l-239 -269l-53 -164q-15 -47 -1 -61t66 -22l-6 -23h-284l7 24q50 8 73.5 24t38.5 63l50 153l-67 276q-9 38 -20 49t-48 18l7 23h257l-7 -25
q-23 -5 -33 -7.5t-24.5 -10t-18 -19.5t0.5 -29l56 -229l204 234q20 23 19 36t-9.5 16.5t-35.5 8.5q-5 1 -8 2z" />
    <glyph glyph-name="ygrave" unicode="&#x1ef3;" horiz-adv-x="452" 
d="M296 498q-66 70 -122 109q8 21 32.5 39.5t47.5 18.5q44 -62 69 -150zM315 392q22 16 48 28t52 18t43.5 -5t17.5 -41q0 -53 -62.5 -150.5t-147.5 -190.5t-180.5 -162.5t-153.5 -69.5q-27 0 -47 15t-20 41q0 23 13.5 36.5t36.5 13.5t46.5 -24.5t44.5 -24.5q42 0 125 71
l8 372q1 41 -9 41.5t-52 -55.5q-2 -4 -8 -11q-11 -16 -18 -25l-16 18q52 82 85.5 116t67.5 34q23 0 30.5 -15.5t6.5 -50.5l-8 -338q72 79 120.5 161.5t48.5 140.5q0 31 -14.5 42t-48.5 -3z" />
    <glyph glyph-name="endash" unicode="&#x2013;" horiz-adv-x="652" 
d="M44 239v43h565v-43h-565z" />
    <glyph glyph-name="emdash" unicode="&#x2014;" horiz-adv-x="906" 
d="M44 239v43h819v-43h-819z" />
    <glyph glyph-name="uni2015" unicode="&#x2015;" horiz-adv-x="906" 
d="M44 239v43h819v-43h-819z" />
    <glyph glyph-name="quoteleft" unicode="&#x2018;" horiz-adv-x="220" 
d="M300 644l8 -24q-79 -27 -99 -90q-7 -22 15 -36q35 -24 35 -57q0 -28 -21 -47.5t-50 -19.5t-48.5 21t-19.5 58q0 59 50 117.5t130 77.5z" />
    <glyph glyph-name="quoteright" unicode="&#x2019;" horiz-adv-x="217" 
d="M113 373l-8 24q79 27 99 90q7 22 -15 36q-35 24 -35 57q0 28 21 47.5t50 19.5t48.5 -21t19.5 -58q0 -59 -50 -117.5t-130 -77.5z" />
    <glyph glyph-name="quotesinglbase" unicode="&#x201a;" horiz-adv-x="218" 
d="M-57 -151l-8 24q78 27 100 90q7 22 -15 36q-36 27 -36 57q0 28 21 48t50 20t48.5 -21.5t19.5 -57.5q0 -60 -50 -118.5t-130 -77.5z" />
    <glyph glyph-name="quotedblleft" unicode="&#x201c;" horiz-adv-x="417" 
d="M300 644l8 -24q-79 -27 -99 -90q-7 -22 15 -36q35 -24 35 -57q0 -28 -21 -47.5t-50 -19.5t-48.5 21t-19.5 58q0 59 50 117.5t130 77.5zM497 644l8 -24q-79 -27 -99 -90q-7 -22 15 -36q35 -24 35 -57q0 -28 -21 -47.5t-50 -19.5t-48.5 21t-19.5 58q0 59 50 117.5t130 77.5
z" />
    <glyph glyph-name="quotedblright" unicode="&#x201d;" horiz-adv-x="414" 
d="M113 373l-8 24q79 27 99 90q7 22 -15 36q-35 24 -35 57q0 28 21 47.5t50 19.5t48.5 -21t19.5 -58q0 -59 -50 -117.5t-130 -77.5zM310 373l-8 24q79 27 99 90q7 22 -15 36q-35 24 -35 57q0 28 21 47.5t50 19.5t48.5 -21t19.5 -58q0 -59 -50 -117.5t-130 -77.5z" />
    <glyph glyph-name="quotedblbase" unicode="&#x201e;" horiz-adv-x="414" 
d="M-56 -146l-8 24q78 27 100 90q7 22 -15 37q-36 25 -36 56q0 28 21 48t50 20t48.5 -21.5t19.5 -57.5q0 -60 -50 -118.5t-130 -77.5zM141 -146l-8 24q78 27 100 90q7 22 -15 37q-35 24 -35 56q0 28 20.5 48t49.5 20t48.5 -21.5t19.5 -57.5q0 -60 -50 -118.5t-130 -77.5z
" />
    <glyph glyph-name="dagger" unicode="&#x2020;" horiz-adv-x="427" 
d="M138 1l65 329l58 64l20 53q-26 -1 -65.5 -23t-54.5 -22q-23 0 -33.5 20t-0.5 48q6 19 23.5 30.5t37.5 11.5q16 0 43 -21t55 -17q10 27 2.5 65.5t-0.5 59.5q5 18 22 30.5t38 12.5q23 0 32.5 -21t-0.5 -49q-4 -14 -36 -49t-43 -64q26 4 66.5 28.5t56.5 24.5q23 0 33 -20
t1 -49q-6 -18 -23.5 -29.5t-37.5 -11.5q-18 0 -44.5 22t-51.5 23l-20 -53l17 -64l-147 -329h-13z" />
    <glyph glyph-name="daggerdbl" unicode="&#x2021;" horiz-adv-x="427" 
d="M145 -12q-24 0 -33.5 21.5t0.5 48.5q5 15 37 49.5t43 63.5q-26 -4 -66.5 -28t-56.5 -24q-23 0 -33.5 20t-0.5 48q6 19 23.5 30.5t37.5 11.5q18 0 44 -22.5t51 -22.5l21 53l-12 83l61 74l20 53q-26 -1 -65.5 -23t-54.5 -22q-23 0 -33.5 20t-0.5 48q6 19 23.5 30.5
t37.5 11.5q16 0 43 -21t55 -17q10 27 2.5 65.5t-0.5 59.5q5 18 22 30.5t38 12.5q23 0 32.5 -21t-0.5 -49q-4 -14 -36 -49t-43 -64q26 4 66.5 28.5t56.5 24.5q23 0 33 -20t1 -49q-6 -18 -23.5 -29.5t-37.5 -11.5q-18 0 -44.5 22t-51.5 23l-20 -53l15 -74l-64 -83l-21 -53
q26 0 66 22.5t55 22.5q23 0 33 -20t1 -49q-6 -18 -23.5 -29.5t-37.5 -11.5q-16 0 -43 20.5t-55 16.5q-10 -27 -2.5 -65t0.5 -60q-6 -18 -23 -30.5t-37 -12.5z" />
    <glyph glyph-name="bullet" unicode="&#x2022;" horiz-adv-x="329" 
d="M176 135q-48 0 -81.5 33.5t-33.5 81.5q0 47 33.5 81t81.5 34q47 0 81 -34t34 -81q0 -48 -34 -81.5t-81 -33.5z" />
    <glyph glyph-name="ellipsis" unicode="&#x2026;" horiz-adv-x="641" 
d="M63 -10q-28 0 -48.5 20t-20.5 48q0 27 20.5 46.5t48.5 19.5q27 0 47 -19.5t20 -46.5q0 -28 -20 -48t-47 -20zM269 -10q-28 0 -48 20t-20 48q0 27 20 46.5t48 19.5q27 0 47 -19.5t20 -46.5q0 -28 -20 -48t-47 -20zM475 -10q-28 0 -48 20t-20 48q0 27 20 46.5t48 19.5
q27 0 47 -19.5t20 -46.5q0 -28 -20 -48t-47 -20z" />
    <glyph glyph-name="perthousand" unicode="&#x2030;" horiz-adv-x="1031" 
d="M670 636l63 -6l-651 -630h-57l565 543q-36 -15 -73 -15q-52 0 -99 29q-2 -80 -75.5 -157.5t-152.5 -77.5q-37 0 -57.5 21t-20.5 58q0 81 75.5 156.5t157.5 75.5q42 0 59 -25q70 -50 122 -50q66 0 144 78zM211 354q53 0 115.5 77.5t62.5 132.5q0 38 -38 38
q-51 0 -110.5 -80.5t-59.5 -136.5q0 -31 30 -31zM573 309q73 0 73 -72q0 -81 -74 -160t-154 -79q-38 0 -58.5 21t-20.5 58q0 80 76 156t158 76zM913 309q73 0 73 -72q0 -81 -74 -160t-154 -79q-38 0 -58.5 21t-20.5 58q0 80 76 156t158 76zM439 31q53 0 115.5 77.5
t62.5 132.5q0 37 -38 37q-51 0 -111 -80t-60 -136q0 -31 31 -31zM779 31q53 0 115.5 77.5t62.5 132.5q0 37 -38 37q-51 0 -111 -80t-60 -136q0 -31 31 -31z" />
    <glyph glyph-name="guilsinglleft" unicode="&#x2039;" horiz-adv-x="246" 
d="M47 221l182 139l8 -13l-121 -126l39 -126l-17 -14z" />
    <glyph glyph-name="guilsinglright" unicode="&#x203a;" horiz-adv-x="246" 
d="M197 224l-182 -140l-8 14l121 126l-39 126l17 13z" />
    <glyph glyph-name="fraction" unicode="&#x2044;" horiz-adv-x="101" 
d="M-228 -5l598 641h25l-598 -641h-25z" />
    <glyph glyph-name="Euro" unicode="&#x20ac;" horiz-adv-x="703" 
d="M606 645q111 0 158 -57l-32 -131h-30q6 76 -19 114t-88 38q-79 0 -144 -56t-105 -144h168l-30 -59h-161q-9 -28 -16 -65h145l-30 -59h-121v-8q0 -84 40 -131.5t113 -47.5q99 0 165 58l13 -32q-38 -34 -99.5 -56t-130.5 -22q-106 0 -161 59t-55 162v18h-135l30 59h113
q6 34 18 65h-98l30 59h95q56 104 154.5 170t212.5 66z" />
    <glyph glyph-name="trademark" unicode="&#x2122;" horiz-adv-x="914" 
d="M208 299v19q17 2 24 3.5t15.5 6.5t11 13t2.5 22v244h-27q-37 0 -52.5 -18t-22.5 -56h-15l5 97h294l5 -97h-16q-6 37 -21.5 55.5t-50.5 18.5h-30l1 -244q0 -26 11 -33.5t42 -11.5v-19h-176zM489 299v19q15 3 21 4t14.5 5.5t11.5 13t3 22.5v204q0 14 -2.5 22t-12 12.5
t-13.5 6t-21 4.5v18h116l105 -236l92 236h124v-18q-2 0 -5 -1q-13 -3 -18.5 -4.5t-12.5 -6t-9.5 -12.5t-2.5 -21l1 -204q0 -14 2.5 -22.5t10.5 -13t14 -6t21 -3.5v-19h-165v19q19 3 26.5 5.5t14 12t6.5 27.5v216l-113 -280h-18l-115 258v-194q0 -26 10.5 -33.5t40.5 -11.5
v-19h-126z" />
    <glyph glyph-name="oneeighth" unicode="&#x215b;" horiz-adv-x="549" 
d="M217 409l-3 -11h-114l3 11q38 5 45 28l48 146q2 6 3 11t0.5 8.5t-2.5 5.5t-6 1l-20 -3l4 11l78 33l6 -6l-68 -212q-4 -12 1.5 -16.5t24.5 -6.5zM561 636h25l-598 -641h-25zM432 244q31 0 45 -18t6 -42q-10 -29 -47 -52q42 -23 27 -67q-11 -34 -43.5 -54.5t-72.5 -20.5
q-38 0 -56.5 19t-8.5 51q15 41 60 63q-17 23 -7 54q9 28 36.5 47.5t60.5 19.5zM454 183q7 15 0.5 29.5t-28.5 14.5q-38 0 -50 -36q-10 -28 25 -43l20 -9q25 17 33 44zM416 50q5 17 -1 26t-28 20l-22 10q-8 4 -11 7q-31 -18 -42 -50q-8 -25 3 -40.5t40 -15.5q47 0 61 43z" />
    <glyph glyph-name="threeeighths" unicode="&#x215c;" horiz-adv-x="698" 
d="M147 384q-21 0 -37 6t-16 18q0 10 6.5 15.5t14.5 5.5t17.5 -15.5t25.5 -15.5q29 0 53.5 25.5t24.5 54.5q0 35 -42 35q-16 0 -35 -7l-1 12l32 12q35 13 53.5 26.5t18.5 35.5q0 21 -29 21q-37 0 -66 -27l-6 8q44 47 98 47q46 0 46 -37q0 -42 -73 -72q52 -4 52 -45
q0 -39 -44 -71t-93 -32zM656 636h25l-597 -641h-25zM587 244q31 0 45 -18t6 -42q-10 -29 -47 -52q42 -23 27 -67q-11 -34 -43.5 -54.5t-72.5 -20.5q-38 0 -56.5 19t-8.5 51q15 41 60 63q-17 23 -7 54q9 28 36.5 47.5t60.5 19.5zM609 183q7 15 0.5 29.5t-28.5 14.5
q-38 0 -50 -36q-10 -28 25 -43l20 -9q25 17 33 44zM571 50q5 17 -1 26t-28 20l-22 10q-8 4 -11 7q-31 -18 -42 -50q-8 -25 3 -40.5t40 -15.5q47 0 61 43z" />
    <glyph glyph-name="fiveeighths" unicode="&#x215d;" horiz-adv-x="693" 
d="M149 390q-53 0 -53 24q0 8 6.5 14.5t14.5 6.5q9 0 18.5 -15.5t26.5 -15.5q27 0 51 25.5t24 53.5q0 43 -86 37l-4 8l72 112h60q35 0 47 12h8l-31 -49h-92l-32 -50q109 7 109 -50q0 -43 -44.5 -78t-94.5 -35zM651 636h25l-597 -641h-25zM581 244q31 0 45 -18t6 -42
q-10 -29 -47 -52q42 -23 27 -67q-11 -34 -43.5 -54.5t-72.5 -20.5q-38 0 -56.5 19t-8.5 51q15 41 60 63q-17 23 -7 54q9 28 36.5 47.5t60.5 19.5zM603 183q7 15 0.5 29.5t-28.5 14.5q-38 0 -50 -36q-10 -28 25 -43l20 -9q25 17 33 44zM565 50q5 17 -1 26t-28 20l-22 10
q-8 4 -11 7q-31 -18 -42 -50q-8 -25 3 -40.5t40 -15.5q47 0 61 43z" />
    <glyph glyph-name="seveneighths" unicode="&#x215e;" horiz-adv-x="655" 
d="M155 398h-29q56 95 163 213h-74q-18 0 -29 -5t-25 -24h-8l40 66l15 -4h120l2 -6q-113 -125 -175 -240zM626 636h25l-597 -641h-25zM556 244q31 0 45 -18t6 -42q-10 -29 -47 -52q42 -23 27 -67q-11 -34 -43.5 -54.5t-72.5 -20.5q-38 0 -56.5 19t-8.5 51q15 41 60 63
q-17 23 -7 54q9 28 36.5 47.5t60.5 19.5zM578 183q7 15 0.5 29.5t-28.5 14.5q-38 0 -50 -36q-10 -28 25 -43l20 -9q25 17 33 44zM540 50q5 17 -1 26t-28 20l-22 10q-8 4 -11 7q-31 -18 -42 -50q-8 -25 3 -40.5t40 -15.5q47 0 61 43z" />
    <glyph glyph-name="partialdiff" unicode="&#x2202;" horiz-adv-x="560" 
d="M221 -12q-86 0 -134.5 44.5t-48.5 116.5q0 66 36.5 125.5t91.5 92t120 42t123 -22.5l-3 -25q-51 11 -101 -6.5t-85.5 -53.5t-57.5 -86t-22 -102q0 -88 78 -88q63 0 119 63t86 149t30 162q0 95 -50.5 149t-129.5 61l22 28q110 -6 187.5 -83.5t77.5 -195.5
q0 -146 -100 -258t-239 -112z" />
    <glyph glyph-name="emptyset" unicode="&#x2205;" horiz-adv-x="524" 
d="M558 424l-73 -55q35 -64 7 -149q-31 -95 -119 -162t-183 -67q-84 0 -131 55l-73 -55l-16 26l72 54q-33 63 -6 149q31 95 119.5 161.5t182.5 66.5q84 0 131 -55l73 55zM73 220q-22 -70 3 -123l359 271q-39 44 -108 44q-80 0 -154.5 -56t-99.5 -136zM456 220q22 70 -5 123
l-358 -271q39 -44 109 -44q80 0 154 56t100 136z" />
    <glyph glyph-name="product" unicode="&#x220f;" horiz-adv-x="554" 
d="M691 800l-325 -1000h-66l302 931h-315l-303 -931h-66l326 1000h447z" />
    <glyph glyph-name="summation" unicode="&#x2211;" horiz-adv-x="538" 
d="M674 800l-22 -69h-343l153 -432l-423 -430h333l-22 -69h-431l22 69l431 442l-150 420l22 69h430z" />
    <glyph glyph-name="minus" unicode="&#x2212;" horiz-adv-x="420" 
d="M44 217l23 69h333l-23 -69h-333z" />
    <glyph glyph-name="radical" unicode="&#x221a;" horiz-adv-x="758" 
d="M149 -200l-48 337q-6 39 -18 52.5t-46 28.5l9 33h132l48 -325l601 875h115l-11 -41q-47 -12 -72.5 -30.5t-58.5 -65.5l-602 -864h-49z" />
    <glyph glyph-name="infinity" unicode="&#x221e;" horiz-adv-x="636" 
d="M150 55q-48 0 -75.5 33t-27.5 91q0 96 61.5 186t140.5 90q77 0 103 -91q79 92 160 92q48 0 75.5 -33t27.5 -91q0 -98 -61 -187.5t-140 -89.5q-77 0 -103 91q-78 -91 -161 -91zM140 152q67 0 127 93l57 83q-19 53 -79 53q-63 0 -112.5 -56t-49.5 -115q0 -58 57 -58z
M419 129q62 0 111.5 56.5t49.5 115.5q0 57 -56 57q-68 0 -129 -93l-57 -83q19 -53 81 -53z" />
    <glyph glyph-name="integral" unicode="&#x222b;" horiz-adv-x="527" 
d="M-84 -175q-38 0 -59 18t-18 54q10 20 35.5 33.5t52.5 12.5q-6 -73 34 -73q30 0 66.5 31.5t68.5 106.5l186 429q52 121 138.5 184.5t172.5 63.5q38 0 59 -18t17 -54q-9 -20 -34.5 -33.5t-52.5 -12.5q4 73 -35 73q-29 0 -65.5 -31.5t-68.5 -105.5l-187 -431
q-52 -121 -138 -184t-172 -63z" />
    <glyph glyph-name="approxequal" unicode="&#x2248;" horiz-adv-x="475" 
d="M331 270q-24 0 -42 7.5t-28.5 18t-20 21t-23.5 18t-33 7.5q-29 0 -54.5 -19t-30.5 -35l-16 13q9 49 49.5 78t91.5 29q24 0 41.5 -7.5t28 -18t20.5 -21t24 -18t33 -7.5q29 0 54.5 19t30.5 35l16 -13q-8 -48 -49 -77.5t-92 -29.5zM276 100q-24 0 -42 7.5t-28.5 18t-20 21
t-23.5 18t-33 7.5q-29 0 -54.5 -19t-30.5 -35l-16 13q9 49 49.5 78t91.5 29q24 0 41.5 -7.5t28 -18t20.5 -21t24 -18t33 -7.5q29 0 54.5 19t30.5 35l16 -13q-8 -48 -49 -77.5t-92 -29.5z" />
    <glyph glyph-name="notequal" unicode="&#x2260;" horiz-adv-x="421" 
d="M407 307h-123l-46 -111h133l-22 -69h-140l-53 -127h-73l53 127h-120l22 69h127l46 111h-137l22 69h144l50 120h73l-50 -120h116z" />
    <glyph glyph-name="lessequal" unicode="&#x2264;" horiz-adv-x="669" 
d="M511 124q-193 98 -390 172l-19 69q155 76 280 170l19 -72q-108 -81 -226 -125q175 -60 313 -130zM544 -4h-333l-22 69h333z" />
    <glyph glyph-name="greaterequal" unicode="&#x2265;" horiz-adv-x="453" 
d="M28 124l23 84q143 71 313 130q-118 44 -226 125l20 72q124 -93 279 -170l-18 -69q-197 -73 -391 -172zM-5 -4l23 69h333l-23 -69h-333z" />
    <glyph glyph-name="lozenge" unicode="&#x25ca;" horiz-adv-x="597" 
d="M223 -18l-148 328l362 329l148 -329zM246 54l281 256l-114 257l-280 -257z" />
    <glyph glyph-name="M.ss01" horiz-adv-x="772" 
d="M877 630l-6 -25q-30 -6 -45 -11.5t-31 -23.5t-27 -50l-135 -415q-8 -24 -9 -39t8.5 -23t17.5 -11t29 -8l-5 -24h-257l6 25q30 6 45.5 11.5t32 23.5t26.5 50l139 430l-367 -540h-27l-32 504l-129 -399q-8 -25 -9 -39.5t8.5 -22.5t18.5 -11t32 -8l-5 -24h-196l6 25
q31 6 46.5 11.5t32.5 23.5t27 50l139 424q4 14 6.5 24.5t0 17.5t-3.5 11.5t-9 8t-11 4.5t-16 3.5t-17 3.5l5 23h177q-2 -13 3 -83l26 -383l260 389q33 48 47 77h198z" />
    <glyph glyph-name="W.ss01" horiz-adv-x="859" 
d="M804 630h170l-6 -25q-39 -8 -56 -18.5t-39 -43.5l-389 -550h-40l-12 236l-167 -236h-37l-29 553q-1 33 -11.5 43t-44.5 18l5 23h607l-5 -25q-39 -8 -56.5 -18.5t-39.5 -43.5l-117 -165l13 -235l280 407q5 7 7.5 12.5t4.5 10t1.5 8.5t-0.5 6.5t-3.5 5t-5 4t-7 3.5t-8 2.5
t-9.5 2.5t-10 3zM335 148l94 137l-14 261q-1 33 -10.5 46t-30.5 13q-24 0 -43.5 -15.5t-18.5 -45.5zM592 605q-27 0 -46 -15.5t-18 -45.5l6 -106l77 112q19 33 12 44t-31 11z" />
    <glyph glyph-name="i.loclTRK" horiz-adv-x="282" 
d="M257 521q-27 0 -47 19t-20 45q0 27 20 45.5t47 18.5t46.5 -18.5t19.5 -45.5q0 -26 -20 -45t-46 -19zM228 158l17 -18q-98 -150 -171 -150q-30 0 -41.5 20.5t-0.5 47.5l108 259q19 46 0 41q-26 -6 -88 -89l-16 18q97 150 171 150q30 0 42 -20t1 -48l-108 -259
q-19 -45 -1 -41q25 5 87 89z" />
    <glyph glyph-name="T_h" horiz-adv-x="1009" 
d="M932 439q37 0 59.5 -21.5t20.5 -67.5q-2 -60 -44 -145.5t-100.5 -149.5t-101.5 -64q-21 0 -41.5 13.5t-20.5 38.5q0 18 11.5 29.5t27.5 11.5q17 0 24.5 -15t10 -30.5t7.5 -15.5q33 0 74.5 116.5t45.5 182.5q1 20 -1 33t-7 18.5t-9.5 7t-10.5 1.5q-57 0 -135 -116
t-129 -266h-90l162 471q39 125 -80 125h-98l-159 -491q-15 -47 -1 -60.5t66 -21.5l-6 -23h-285l7 24q51 8 74.5 23.5t38.5 62.5l158 486h-81q-69 0 -107.5 -34t-72.5 -106h-23l67 184l45 -10h431l165 35l10 -15l-102 -311l-58 -124l7 1q126 223 251 223z" />
    <glyph glyph-name="f_b" horiz-adv-x="807" 
d="M711 439q42 0 67 -29t25 -83q0 -75 -46.5 -154t-120.5 -130.5t-147 -51.5q-68 0 -98.5 41t-11.5 95l172 503q0 20 -19.5 34t-52.5 14q-23 0 -45.5 -6.5t-48 -22.5t-47 -48.5t-34.5 -78.5l-26 -92h110l-15 -42l-105 6l-88 -311q-37 -132 -101.5 -200.5t-145.5 -68.5
q-44 0 -70 20t-26 48q0 20 13.5 34t33.5 14q22 0 32.5 -16.5t9.5 -36.5q-1 -33 32 -33q32 0 55.5 31t47.5 115l115 409l-108 6l8 25h108q39 138 114 208t174 70q63 0 115.5 -25t53.5 -53l-102 -301q83 110 172 110zM504 20q45 0 92.5 57t76.5 132t29 131q0 52 -37 52
q-35 0 -80.5 -48.5t-85.5 -131.5l-32 -95q-14 -32 -5 -64.5t42 -32.5z" />
    <glyph glyph-name="f_h" horiz-adv-x="822" 
d="M745 439q37 0 59.5 -21.5t20.5 -67.5q-2 -60 -44 -145.5t-100.5 -149.5t-101.5 -64q-21 0 -41.5 13.5t-20.5 38.5q0 18 11.5 29.5t27.5 11.5q17 0 24.5 -15t10 -30.5t7.5 -15.5q33 0 74.5 116.5t45.5 182.5q1 20 -1 33t-7 18.5t-9.5 7t-10.5 1.5q-57 0 -135 -116
t-129 -266h-91l216 630q0 20 -19 34t-53 14q-23 0 -46 -6.5t-48.5 -22.5t-47 -48.5t-34.5 -78.5l-26 -92h110l-14 -42l-106 6l-87 -311q-37 -132 -101.5 -200.5t-145.5 -68.5q-45 0 -70.5 20t-25.5 48q0 20 13.5 34t33.5 14q22 0 32.5 -16.5t9.5 -36.5q-1 -33 32 -33
q32 0 56 31.5t47 114.5l115 409l-108 6l8 25h108q38 137 113.5 207.5t174.5 70.5q63 0 116.5 -25t53.5 -53l-97 -291l-58 -124l7 1q126 223 251 223z" />
    <glyph glyph-name="f_j" horiz-adv-x="591" 
d="M650 632q5 -12 5 -24q0 -25 -19 -43t-44 -18q-26 0 -45 18t-19 43q0 8 4 22q13 48 -48 48q-55 0 -105.5 -35t-74.5 -121l-26 -92h106l-14 -42l-102 5l-88 -310q-37 -132 -101.5 -200.5t-145.5 -68.5q-45 0 -70.5 20t-25.5 48q0 20 13.5 34t33.5 14q22 0 32.5 -16.5
t9.5 -36.5q-1 -33 32 -33q32 0 56 31.5t47 114.5l114 408l-110 6l8 26h111q39 138 117.5 208t188.5 70q63 0 104.5 -21t55.5 -55zM547 435q28 0 39 -20t1 -50l-95 -290q-41 -125 -93.5 -187.5t-127.5 -62.5q-47 0 -72 22t-25 55q0 26 15 41t37 15q24 0 34 -19t4 -53
q-6 -32 23 -32t45.5 29.5t44.5 116.5l102 315q15 46 -2 42q-22 -6 -84 -90l-17 18q98 150 171 150z" />
    <glyph glyph-name="f_k" horiz-adv-x="821" 
d="M472 708q63 0 116.5 -25t53.5 -53l-215 -630h-91l215 630q0 20 -19 34t-53 14q-52 0 -101.5 -34.5t-73.5 -121.5l-26 -92h109l-14 -42l-105 6l-87 -311q-38 -132 -102.5 -200.5t-145.5 -68.5q-44 0 -70 20t-26 48q0 20 13.5 34t33.5 14q22 0 32.5 -16.5t9.5 -36.5
q-1 -33 32 -33q32 0 56 31.5t48 114.5l113 408l-107 6l8 26h108q39 137 114 207.5t174 70.5zM852 406q-39 -3 -73 -20.5t-83 -52.5l-78 -58l60 -193q21 -68 86 -10l6 -22q-61 -60 -107 -60q-54 0 -76 74l-54 189l127 91q77 56 -2 62l8 24h195z" />
    <glyph glyph-name="t_t" horiz-adv-x="634" 
d="M569 394l-117 -319q-5 -13 6 -10q31 8 105 87l17 18l16 -19q-128 -160 -199 -160q-26 0 -38.5 24.5t-2.5 52.5l116 320h-136l-89 6l-118 -319q-5 -13 6 -10q31 8 105 87l17 18l16 -19q-128 -160 -198 -160q-26 0 -38.5 24.5t-2.5 52.5l121 332l-85 5l8 25h88l40 111
l99 11l-45 -122h228l40 111l99 11l-45 -122h91l-15 -42z" />
    <glyph glyph-name="a.sc" horiz-adv-x="588" 
d="M468 85q3 -32 15 -43t46 -17l-8 -25h-258l8 25q20 4 30 7t23 9.5t18 18t4 27.5l-6 77h-181l-66 -90q-8 -11 -10.5 -18.5t-2.5 -12t6.5 -8t10.5 -4.5t16 -3t16 -3l-8 -25h-173l8 25q37 7 54 17.5t41 44.5l334 443h40zM184 199h153l-16 188z" />
    <glyph glyph-name="aacute.sc" horiz-adv-x="588" 
d="M507 707q-56 -39 -122 -109l-26 17q25 88 69 150q22 0 46.5 -18.5t32.5 -39.5zM468 85q3 -32 15 -43t46 -17l-8 -25h-258l8 25q20 4 30 7t23 9.5t18 18t4 27.5l-6 77h-181l-66 -90q-8 -11 -10.5 -18.5t-2.5 -12t6.5 -8t10.5 -4.5t16 -3t16 -3l-8 -25h-173l8 25
q37 7 54 17.5t41 44.5l334 443h40zM184 199h153l-16 188z" />
    <glyph glyph-name="abreve.sc" horiz-adv-x="588" 
d="M569 776h22q-21 -70 -65 -106t-102 -36q-63 0 -86.5 40t-2.5 102h22q-7 -38 12.5 -55.5t64.5 -17.5q97 -1 135 73zM468 85q3 -32 15 -43t46 -17l-8 -25h-258l8 25q20 4 30 7t23 9.5t18 18t4 27.5l-6 77h-181l-66 -90q-8 -11 -10.5 -18.5t-2.5 -12t6.5 -8t10.5 -4.5t16 -3
t16 -3l-8 -25h-173l8 25q37 7 54 17.5t41 44.5l334 443h40zM184 199h153l-16 188z" />
    <glyph glyph-name="acircumflex.sc" horiz-adv-x="588" 
d="M438 701l-141 -88l-10 13l173 152l79 -151l-16 -14zM468 85q3 -32 15 -43t46 -17l-8 -25h-258l8 25q20 4 30 7t23 9.5t18 18t4 27.5l-6 77h-181l-66 -90q-8 -11 -10.5 -18.5t-2.5 -12t6.5 -8t10.5 -4.5t16 -3t16 -3l-8 -25h-173l8 25q37 7 54 17.5t41 44.5l334 443h40z
M184 199h153l-16 188z" />
    <glyph glyph-name="adieresis.sc" horiz-adv-x="588" 
d="M301 655q-24 0 -40 16.5t-16 39.5t16 39.5t40 16.5q23 0 39 -16.5t16 -39.5t-16 -39.5t-39 -16.5zM506 767q23 0 39.5 -16.5t16.5 -39.5t-16.5 -39.5t-39.5 -16.5t-39.5 16.5t-16.5 39.5t16.5 39.5t39.5 16.5zM468 85q3 -32 15 -43t46 -17l-8 -25h-258l8 25q20 4 30 7
t23 9.5t18 18t4 27.5l-6 77h-181l-66 -90q-8 -11 -10.5 -18.5t-2.5 -12t6.5 -8t10.5 -4.5t16 -3t16 -3l-8 -25h-173l8 25q37 7 54 17.5t41 44.5l334 443h40zM184 199h153l-16 188z" />
    <glyph glyph-name="agrave.sc" horiz-adv-x="588" 
d="M383 598q-66 70 -122 109q8 21 32.5 39.5t47.5 18.5q44 -62 69 -150zM468 85q3 -32 15 -43t46 -17l-8 -25h-258l8 25q20 4 30 7t23 9.5t18 18t4 27.5l-6 77h-181l-66 -90q-8 -11 -10.5 -18.5t-2.5 -12t6.5 -8t10.5 -4.5t16 -3t16 -3l-8 -25h-173l8 25q37 7 54 17.5
t41 44.5l334 443h40zM184 199h153l-16 188z" />
    <glyph glyph-name="amacron.sc" horiz-adv-x="588" 
d="M301 727h280l-15 -41h-280zM468 85q3 -32 15 -43t46 -17l-8 -25h-258l8 25q20 4 30 7t23 9.5t18 18t4 27.5l-6 77h-181l-66 -90q-8 -11 -10.5 -18.5t-2.5 -12t6.5 -8t10.5 -4.5t16 -3t16 -3l-8 -25h-173l8 25q37 7 54 17.5t41 44.5l334 443h40zM184 199h153l-16 188z" />
    <glyph glyph-name="aogonek.sc" horiz-adv-x="588" 
d="M468 85q3 -32 15 -43t46 -17l-8 -25h-109q-49 -27 -73.5 -50.5t-24.5 -56.5q0 -22 12.5 -35t34.5 -13q18 0 47 9l-7 -19q-41 -34 -93 -34q-84 0 -84 70q0 41 29 73l91 56h-81l8 25q20 4 30 7t23 9.5t18 18t4 27.5l-6 77h-181l-66 -90q-8 -11 -10.5 -18.5t-2.5 -12t6.5 -8
t10.5 -4.5t16 -3t16 -3l-8 -25h-173l8 25q37 7 54 17.5t41 44.5l334 443h40zM184 199h153l-16 188z" />
    <glyph glyph-name="aring.sc" horiz-adv-x="588" 
d="M444 621q-39 0 -65.5 26t-26.5 64t26.5 64.5t65.5 26.5t65.5 -26.5t26.5 -64.5t-26.5 -64t-65.5 -26zM444 756q-20 0 -32.5 -13t-12.5 -32t12.5 -31.5t32.5 -12.5q19 0 32 12.5t13 31.5t-13 32t-32 13zM468 85q3 -32 15 -43t46 -17l-8 -25h-258l8 25q20 4 30 7t23 9.5
t18 18t4 27.5l-6 77h-181l-66 -90q-8 -11 -10.5 -18.5t-2.5 -12t6.5 -8t10.5 -4.5t16 -3t16 -3l-8 -25h-173l8 25q37 7 54 17.5t41 44.5l334 443h40zM184 199h153l-16 188z" />
    <glyph glyph-name="atilde.sc" horiz-adv-x="588" 
d="M581 733l16 -13q-7 -48 -42.5 -77t-78.5 -29q-20 0 -35 7.5t-24 18t-17 21t-19.5 18t-26.5 7.5q-25 0 -47 -18.5t-27 -34.5l-17 13q8 48 43 77t78 29q25 0 42 -11t25 -25t22 -25t32 -11q26 0 48 18t28 35zM468 85q3 -32 15 -43t46 -17l-8 -25h-258l8 25q20 4 30 7t23 9.5
t18 18t4 27.5l-6 77h-181l-66 -90q-8 -11 -10.5 -18.5t-2.5 -12t6.5 -8t10.5 -4.5t16 -3t16 -3l-8 -25h-173l8 25q37 7 54 17.5t41 44.5l334 443h40zM184 199h153l-16 188z" />
    <glyph glyph-name="ae.sc" horiz-adv-x="840" 
d="M863 530l-35 -134h-26q9 54 -2 75t-61 21h-64q-56 0 -80 -16t-41 -67l-40 -123h68q69 0 98.5 19t48.5 62h21l-62 -191h-21q9 46 -5.5 60t-86.5 14h-73l-46 -143q-6 -18 -8.5 -29t0 -19.5t5.5 -12t15 -5.5t21.5 -2.5t32.5 -0.5h44q56 0 97 24.5t88 83.5h29l-86 -146h-465
l7 25q31 6 46 11.5t32 23.5t27 50l27 82h-170l-99 -118q-6 -8 -10 -14t-5.5 -10.5t0.5 -8t4 -5.5t7.5 -4t9 -2.5t12 -2t12.5 -2.5l-8 -25h-173l8 25q39 7 59.5 18.5t47.5 43.5l350 417q-2 0 -7.5 1.5t-8.5 2.5l5 22h461zM446 434q13 40 3 55l-222 -263h152z" />
    <glyph glyph-name="b.sc" horiz-adv-x="603" 
d="M592 429q0 -58 -42 -96t-112 -57q111 -29 111 -106q0 -48 -27 -83t-75 -53t-101.5 -26t-117.5 -8h-269l7 25q30 6 45 11.5t31.5 23.5t26.5 50l105 324q7 22 8.5 33.5t-7 19.5t-17.5 11t-34 9l6 23h266q196 0 196 -101zM314 293q67 0 114.5 44t47.5 104q0 51 -93 51
q-43 0 -63 -14t-29 -42l-47 -143h70zM427 187q0 71 -138 71h-56l-49 -151q-14 -41 1.5 -55t64.5 -14q74 0 125.5 43.5t51.5 105.5z" />
    <glyph glyph-name="c.sc" horiz-adv-x="566" 
d="M261 -12q-97 0 -153 51.5t-56 137.5q0 148 117 256.5t273 108.5q112 0 165 -57q-6 -24 -18 -69t-16 -62h-33q13 150 -113 150q-68 0 -126 -50t-89.5 -123.5t-31.5 -146.5q0 -68 36.5 -106t101.5 -38q36 0 81 14.5t81 43.5l15 -32q-42 -34 -104.5 -56t-129.5 -22z" />
    <glyph glyph-name="cacute.sc" horiz-adv-x="566" 
d="M390 598l-26 17q25 88 69 150q22 0 46.5 -18.5t32.5 -39.5q-56 -39 -122 -109zM261 -12q-97 0 -153 51.5t-56 137.5q0 148 117 256.5t273 108.5q112 0 165 -57q-6 -24 -18 -69t-16 -62h-33q13 150 -113 150q-68 0 -126 -50t-89.5 -123.5t-31.5 -146.5q0 -68 36.5 -106
t101.5 -38q36 0 81 14.5t81 43.5l15 -32q-42 -34 -104.5 -56t-129.5 -22z" />
    <glyph glyph-name="ccaron.sc" horiz-adv-x="566" 
d="M415 612l-79 151l16 14l85 -88l141 88l10 -13zM261 -12q-97 0 -153 51.5t-56 137.5q0 148 117 256.5t273 108.5q112 0 165 -57q-6 -24 -18 -69t-16 -62h-33q13 150 -113 150q-68 0 -126 -50t-89.5 -123.5t-31.5 -146.5q0 -68 36.5 -106t101.5 -38q36 0 81 14.5t81 43.5
l15 -32q-42 -34 -104.5 -56t-129.5 -22z" />
    <glyph glyph-name="ccedilla.sc" horiz-adv-x="566" 
d="M442 542q112 0 165 -57q-6 -24 -18 -69t-16 -62h-33q13 150 -113 150q-68 0 -126 -50t-89.5 -123.5t-31.5 -146.5q0 -68 36.5 -106t101.5 -38q36 0 81 14.5t81 43.5l15 -32q-42 -34 -104.5 -56t-129.5 -22q-16 0 -23 1l-18 -36q43 0 75 -21.5t32 -58.5q0 -39 -40.5 -62
t-122.5 -23l5 24q45 0 67 13.5t22 32.5q0 44 -110 44l47 93q-68 16 -105.5 64t-37.5 118q0 148 117 256.5t273 108.5z" />
    <glyph glyph-name="cdotaccent.sc" horiz-adv-x="566" 
d="M438 621q-27 0 -47 19t-20 45q0 27 20 45.5t47 18.5t46.5 -18.5t19.5 -45.5q0 -26 -20 -45t-46 -19zM261 -12q-97 0 -153 51.5t-56 137.5q0 148 117 256.5t273 108.5q112 0 165 -57q-6 -24 -18 -69t-16 -62h-33q13 150 -113 150q-68 0 -126 -50t-89.5 -123.5
t-31.5 -146.5q0 -68 36.5 -106t101.5 -38q36 0 81 14.5t81 43.5l15 -32q-42 -34 -104.5 -56t-129.5 -22z" />
    <glyph glyph-name="d.sc" horiz-adv-x="627" 
d="M386 530q101 0 165.5 -48.5t64.5 -136.5q0 -96 -56 -176t-146.5 -124.5t-194.5 -44.5h-260l7 26q31 6 46 11.5t32.5 23t27.5 49.5l105 324q10 44 4 53t-43 18q-7 2 -10 3l5 22h253zM251 38q65 0 124.5 55t92.5 134.5t33 155.5q0 110 -131 110h-58l-119 -366
q-17 -53 -5.5 -71t63.5 -18z" />
    <glyph glyph-name="dcaron.sc" horiz-adv-x="627" 
d="M597 764l-173 -152l-79 151l16 14l85 -88l141 88zM386 530q101 0 165.5 -48.5t64.5 -136.5q0 -96 -56 -176t-146.5 -124.5t-194.5 -44.5h-260l7 26q31 6 46 11.5t32.5 23t27.5 49.5l105 324q10 44 4 53t-43 18q-7 2 -10 3l5 22h253zM251 38q65 0 124.5 55t92.5 134.5
t33 155.5q0 110 -131 110h-58l-119 -366q-17 -53 -5.5 -71t63.5 -18z" />
    <glyph glyph-name="e.sc" horiz-adv-x="570" 
d="M132 530h461l-35 -134h-26q9 54 -2 75t-61 21h-64q-56 0 -80 -16t-41 -67l-40 -123h68q69 0 98.5 19t48.5 62h21l-62 -191h-21q9 46 -5.5 60t-86.5 14h-73l-46 -143q-6 -18 -8.5 -29t0 -19.5t5.5 -12t15 -5.5t21.5 -2.5t32.5 -0.5h44q56 0 97 24.5t88 83.5h29l-86 -146
h-465l7 25q31 6 46 11.5t32 23.5t27 50l105 324q4 12 5.5 22t2 16.5t-2.5 11.5t-5 8t-9.5 6t-11 4t-13.5 3l-15 3z" />
    <glyph glyph-name="eacute.sc" horiz-adv-x="570" 
d="M494 707q-56 -39 -122 -109l-26 17q25 88 69 150q22 0 46.5 -18.5t32.5 -39.5zM132 530h461l-35 -134h-26q9 54 -2 75t-61 21h-64q-56 0 -80 -16t-41 -67l-40 -123h68q69 0 98.5 19t48.5 62h21l-62 -191h-21q9 46 -5.5 60t-86.5 14h-73l-46 -143q-6 -18 -8.5 -29t0 -19.5
t5.5 -12t15 -5.5t21.5 -2.5t32.5 -0.5h44q56 0 97 24.5t88 83.5h29l-86 -146h-465l7 25q31 6 46 11.5t32 23.5t27 50l105 324q4 12 5.5 22t2 16.5t-2.5 11.5t-5 8t-9.5 6t-11 4t-13.5 3l-15 3z" />
    <glyph glyph-name="ecaron.sc" horiz-adv-x="570" 
d="M570 764l-173 -152l-79 151l16 14l85 -88l141 88zM132 530h461l-35 -134h-26q9 54 -2 75t-61 21h-64q-56 0 -80 -16t-41 -67l-40 -123h68q69 0 98.5 19t48.5 62h21l-62 -191h-21q9 46 -5.5 60t-86.5 14h-73l-46 -143q-6 -18 -8.5 -29t0 -19.5t5.5 -12t15 -5.5t21.5 -2.5
t32.5 -0.5h44q56 0 97 24.5t88 83.5h29l-86 -146h-465l7 25q31 6 46 11.5t32 23.5t27 50l105 324q4 12 5.5 22t2 16.5t-2.5 11.5t-5 8t-9.5 6t-11 4t-13.5 3l-15 3z" />
    <glyph glyph-name="ecircumflex.sc" horiz-adv-x="570" 
d="M425 701l-141 -88l-10 13l173 152l79 -151l-16 -14zM132 530h461l-35 -134h-26q9 54 -2 75t-61 21h-64q-56 0 -80 -16t-41 -67l-40 -123h68q69 0 98.5 19t48.5 62h21l-62 -191h-21q9 46 -5.5 60t-86.5 14h-73l-46 -143q-6 -18 -8.5 -29t0 -19.5t5.5 -12t15 -5.5
t21.5 -2.5t32.5 -0.5h44q56 0 97 24.5t88 83.5h29l-86 -146h-465l7 25q31 6 46 11.5t32 23.5t27 50l105 324q4 12 5.5 22t2 16.5t-2.5 11.5t-5 8t-9.5 6t-11 4t-13.5 3l-15 3z" />
    <glyph glyph-name="edieresis.sc" horiz-adv-x="570" 
d="M288 655q-24 0 -40 16.5t-16 39.5t16 39.5t40 16.5q23 0 39 -16.5t16 -39.5t-16 -39.5t-39 -16.5zM493 655q-23 0 -39.5 16.5t-16.5 39.5t16.5 39.5t39.5 16.5t39.5 -16.5t16.5 -39.5t-16.5 -39.5t-39.5 -16.5zM132 530h461l-35 -134h-26q9 54 -2 75t-61 21h-64
q-56 0 -80 -16t-41 -67l-40 -123h68q69 0 98.5 19t48.5 62h21l-62 -191h-21q9 46 -5.5 60t-86.5 14h-73l-46 -143q-6 -18 -8.5 -29t0 -19.5t5.5 -12t15 -5.5t21.5 -2.5t32.5 -0.5h44q56 0 97 24.5t88 83.5h29l-86 -146h-465l7 25q31 6 46 11.5t32 23.5t27 50l105 324
q4 12 5.5 22t2 16.5t-2.5 11.5t-5 8t-9.5 6t-11 4t-13.5 3l-15 3z" />
    <glyph glyph-name="edotaccent.sc" horiz-adv-x="570" 
d="M420 621q-27 0 -47 19t-20 45q0 27 20 45.5t47 18.5t46.5 -18.5t19.5 -45.5q0 -26 -20 -45t-46 -19zM132 530h461l-35 -134h-26q9 54 -2 75t-61 21h-64q-56 0 -80 -16t-41 -67l-40 -123h68q69 0 98.5 19t48.5 62h21l-62 -191h-21q9 46 -5.5 60t-86.5 14h-73l-46 -143
q-6 -18 -8.5 -29t0 -19.5t5.5 -12t15 -5.5t21.5 -2.5t32.5 -0.5h44q56 0 97 24.5t88 83.5h29l-86 -146h-465l7 25q31 6 46 11.5t32 23.5t27 50l105 324q4 12 5.5 22t2 16.5t-2.5 11.5t-5 8t-9.5 6t-11 4t-13.5 3l-15 3z" />
    <glyph glyph-name="egrave.sc" horiz-adv-x="570" 
d="M370 598q-66 70 -122 109q8 21 32.5 39.5t47.5 18.5q44 -62 69 -150zM132 530h461l-35 -134h-26q9 54 -2 75t-61 21h-64q-56 0 -80 -16t-41 -67l-40 -123h68q69 0 98.5 19t48.5 62h21l-62 -191h-21q9 46 -5.5 60t-86.5 14h-73l-46 -143q-6 -18 -8.5 -29t0 -19.5t5.5 -12
t15 -5.5t21.5 -2.5t32.5 -0.5h44q56 0 97 24.5t88 83.5h29l-86 -146h-465l7 25q31 6 46 11.5t32 23.5t27 50l105 324q4 12 5.5 22t2 16.5t-2.5 11.5t-5 8t-9.5 6t-11 4t-13.5 3l-15 3z" />
    <glyph glyph-name="emacron.sc" horiz-adv-x="570" 
d="M567 727l-15 -41h-280l15 41h280zM132 530h461l-35 -134h-26q9 54 -2 75t-61 21h-64q-56 0 -80 -16t-41 -67l-40 -123h68q69 0 98.5 19t48.5 62h21l-62 -191h-21q9 46 -5.5 60t-86.5 14h-73l-46 -143q-6 -18 -8.5 -29t0 -19.5t5.5 -12t15 -5.5t21.5 -2.5t32.5 -0.5h44
q56 0 97 24.5t88 83.5h29l-86 -146h-465l7 25q31 6 46 11.5t32 23.5t27 50l105 324q4 12 5.5 22t2 16.5t-2.5 11.5t-5 8t-9.5 6t-11 4t-13.5 3l-15 3z" />
    <glyph glyph-name="eogonek.sc" horiz-adv-x="570" 
d="M132 530h461l-35 -134h-26q9 54 -2 75t-61 21h-64q-56 0 -80 -16t-41 -67l-40 -123h68q69 0 98.5 19t48.5 62h21l-62 -191h-21q9 46 -5.5 60t-86.5 14h-73l-46 -143q-6 -18 -8.5 -29t0 -19.5t5.5 -12t15 -5.5t21.5 -2.5t32.5 -0.5h44q56 0 97 24.5t88 83.5h29l-86 -146
h-40q-49 -27 -73.5 -50.5t-24.5 -56.5q0 -22 12.5 -35t34.5 -13q18 0 47 9l-7 -19q-41 -34 -93 -34q-84 0 -84 70q0 41 29 73l91 56h-357l7 25q31 6 46 11.5t32 23.5t27 50l105 324q4 12 5.5 22t2 16.5t-2.5 11.5t-5 8t-9.5 6t-11 4t-13.5 3l-15 3z" />
    <glyph glyph-name="uni1EBD.sc" horiz-adv-x="570" 
d="M340 686q-25 0 -47 -18.5t-27 -34.5l-17 13q8 48 43 77t78 29q25 0 42 -11t25 -25t22 -25t32 -11q26 0 48 18t28 35l16 -13q-7 -48 -42.5 -77t-78.5 -29q-20 0 -35 7.5t-24 18t-17 21t-19.5 18t-26.5 7.5zM132 530h461l-35 -134h-26q9 54 -2 75t-61 21h-64q-56 0 -80 -16
t-41 -67l-40 -123h68q69 0 98.5 19t48.5 62h21l-62 -191h-21q9 46 -5.5 60t-86.5 14h-73l-46 -143q-6 -18 -8.5 -29t0 -19.5t5.5 -12t15 -5.5t21.5 -2.5t32.5 -0.5h44q56 0 97 24.5t88 83.5h29l-86 -146h-465l7 25q31 6 46 11.5t32 23.5t27 50l105 324q4 12 5.5 22t2 16.5
t-2.5 11.5t-5 8t-9.5 6t-11 4t-13.5 3l-15 3z" />
    <glyph glyph-name="f.sc" horiz-adv-x="537" 
d="M132 530h461l-35 -134h-26q9 54 -2 75t-61 21h-64q-56 0 -80 -16t-41 -67l-40 -123h68q69 0 98.5 19t48.5 62h21l-62 -191h-21q9 46 -5.5 60t-86.5 14h-73l-46 -143q-7 -21 -7.5 -35.5t1 -22t13.5 -13.5t17.5 -7.5t26.5 -5.5l-5 -23h-273l7 25q31 6 46 11.5t32 23.5
t27 50l105 324q4 12 5.5 22t2 16.5t-2.5 11.5t-5 8t-9.5 6t-11 4t-13.5 3l-15 3z" />
    <glyph glyph-name="g.sc" horiz-adv-x="643" 
d="M278 -12q-139 0 -195.5 80.5t-14.5 208.5q38 118 142 191.5t235 73.5q113 0 164 -57q-26 -93 -34 -123h-34q14 142 -111 142q-78 0 -139.5 -58.5t-94.5 -160.5q-37 -110 -10 -184.5t107 -74.5q91 0 127 110l10 31q10 31 12 48.5t-7.5 27.5t-24 13t-45.5 6l7 27h260
l-7 -29q-69 -10 -87 -69l-12 -37q-23 -68 -23 -121q-33 -17 -97.5 -31t-127.5 -14z" />
    <glyph glyph-name="gbreve.sc" horiz-adv-x="643" 
d="M449 634q-63 0 -86.5 40t-2.5 102h22q-7 -38 12.5 -55.5t64.5 -17.5q97 -1 135 73h22q-21 -70 -65 -106t-102 -36zM278 -12q-139 0 -195.5 80.5t-14.5 208.5q38 118 142 191.5t235 73.5q113 0 164 -57q-26 -93 -34 -123h-34q14 142 -111 142q-78 0 -139.5 -58.5
t-94.5 -160.5q-37 -110 -10 -184.5t107 -74.5q91 0 127 110l10 31q10 31 12 48.5t-7.5 27.5t-24 13t-45.5 6l7 27h260l-7 -29q-69 -10 -87 -69l-12 -37q-23 -68 -23 -121q-33 -17 -97.5 -31t-127.5 -14z" />
    <glyph glyph-name="uni0123.sc" horiz-adv-x="643" 
d="M278 -12q-139 0 -195.5 80.5t-14.5 208.5q38 118 142 191.5t235 73.5q113 0 164 -57q-26 -93 -34 -123h-34q14 142 -111 142q-78 0 -139.5 -58.5t-94.5 -160.5q-37 -110 -10 -184.5t107 -74.5q91 0 127 110l10 31q10 31 12 48.5t-7.5 27.5t-24 13t-45.5 6l7 27h260
l-7 -29q-69 -10 -87 -69l-12 -37q-23 -68 -23 -121q-33 -17 -97.5 -31t-127.5 -14zM87 -332l-8 24q79 27 99 89q7 22 -15 37q-35 24 -35 56q0 28 21 48t50 20t48.5 -21.5t19.5 -57.5q0 -59 -50 -117.5t-130 -77.5z" />
    <glyph glyph-name="gdotaccent.sc" horiz-adv-x="643" 
d="M459 621q-27 0 -47 19t-20 45q0 27 20 45.5t47 18.5t46.5 -18.5t19.5 -45.5q0 -26 -20 -45t-46 -19zM278 -12q-139 0 -195.5 80.5t-14.5 208.5q38 118 142 191.5t235 73.5q113 0 164 -57q-26 -93 -34 -123h-34q14 142 -111 142q-78 0 -139.5 -58.5t-94.5 -160.5
q-37 -110 -10 -184.5t107 -74.5q91 0 127 110l10 31q10 31 12 48.5t-7.5 27.5t-24 13t-45.5 6l7 27h260l-7 -29q-69 -10 -87 -69l-12 -37q-23 -68 -23 -121q-33 -17 -97.5 -31t-127.5 -14z" />
    <glyph glyph-name="h.sc" horiz-adv-x="697" 
d="M503 530h267l-6 -25q-31 -6 -46 -11.5t-32 -22.5t-26 -47l-106 -326q-3 -10 -4.5 -18t-2.5 -14t0.5 -11t2 -8.5t5 -6.5t6 -4.5t9 -4t9.5 -3t11.5 -2.5t12.5 -3l-6 -23h-268l7 25q31 6 46 11.5t32 23t27 47.5l46 140h-255l-48 -149q-3 -10 -4.5 -18t-2.5 -14t0.5 -11
t2 -8.5t5 -6.5t6 -4.5t9 -4t9.5 -3t11.5 -2.5t12.5 -3l-6 -23h-268l7 25q31 6 46 11.5t32 23t27 47.5l105 323q4 11 6 20t1 16t-0.5 11.5t-4.5 9t-6 6.5t-9 4.5t-10 3.5t-13 3t-13 3l6 23h267l-6 -25q-31 -6 -46 -11.5t-32 -22.5t-26 -47l-46 -141h254l48 147q4 11 6 20
t1 16t-0.5 11.5t-4.5 9t-6 6.5t-9 4.5t-10 3.5t-13 3t-13 3z" />
    <glyph glyph-name="hbar.sc" horiz-adv-x="697" 
d="M503 530h267l-6 -25q-31 -6 -46 -11.5t-32 -22.5t-26 -47l-106 -326q-3 -10 -4.5 -18t-2.5 -14t0.5 -11t2 -8.5t5 -6.5t6 -4.5t9 -4t9.5 -3t11.5 -2.5t12.5 -3l-6 -23h-268l7 25q31 6 46 11.5t32 23t27 47.5l46 140h-255l-48 -149q-3 -10 -4.5 -18t-2.5 -14t0.5 -11
t2 -8.5t5 -6.5t6 -4.5t9 -4t9.5 -3t11.5 -2.5t12.5 -3l-6 -23h-268l7 25q31 6 46 11.5t32 23t27 47.5l105 323q4 11 6 20t1 16t-0.5 11.5t-4.5 9t-6 6.5t-9 4.5t-10 3.5t-13 3t-13 3l6 23h267l-6 -25q-31 -6 -46 -11.5t-32 -22.5t-26 -47l-9 -28h254l11 34q4 11 6 20t1 16
t-0.5 11.5t-4.5 9t-6 6.5t-9 4.5t-10 3.5t-13 3t-13 3zM244 283h254l25 77h-254z" />
    <glyph glyph-name="i.sc" horiz-adv-x="327" 
d="M-41 0l7 25q31 6 46 11.5t32 23t27 47.5l105 323q4 11 6 20t1 16t-0.5 11.5t-4.5 9t-6 6.5t-9 4.5t-10 3.5t-13 3t-13 3l6 23h267l-6 -25q-31 -6 -46 -11.5t-32 -22.5t-26 -47l-106 -326q-3 -10 -4.5 -18t-2.5 -14t0.5 -11t2 -8.5t5 -6.5t6 -4.5t9 -4t9.5 -3t11.5 -2.5
t12.5 -3l-6 -23h-268z" />
    <glyph glyph-name="iacute.sc" horiz-adv-x="327" 
d="M250 598l-26 17q25 88 69 150q22 0 46.5 -18.5t32.5 -39.5q-56 -39 -122 -109zM-41 0l7 25q31 6 46 11.5t32 23t27 47.5l105 323q4 11 6 20t1 16t-0.5 11.5t-4.5 9t-6 6.5t-9 4.5t-10 3.5t-13 3t-13 3l6 23h267l-6 -25q-31 -6 -46 -11.5t-32 -22.5t-26 -47l-106 -326
q-3 -10 -4.5 -18t-2.5 -14t0.5 -11t2 -8.5t5 -6.5t6 -4.5t9 -4t9.5 -3t11.5 -2.5t12.5 -3l-6 -23h-268z" />
    <glyph glyph-name="icircumflex.sc" horiz-adv-x="327" 
d="M325 778l79 -151l-16 -14l-85 88l-141 -88l-10 13zM-41 0l7 25q31 6 46 11.5t32 23t27 47.5l105 323q4 11 6 20t1 16t-0.5 11.5t-4.5 9t-6 6.5t-9 4.5t-10 3.5t-13 3t-13 3l6 23h267l-6 -25q-31 -6 -46 -11.5t-32 -22.5t-26 -47l-106 -326q-3 -10 -4.5 -18t-2.5 -14
t0.5 -11t2 -8.5t5 -6.5t6 -4.5t9 -4t9.5 -3t11.5 -2.5t12.5 -3l-6 -23h-268z" />
    <glyph glyph-name="idieresis.sc" horiz-adv-x="327" 
d="M166 655q-24 0 -40 16.5t-16 39.5t16 39.5t40 16.5q23 0 39 -16.5t16 -39.5t-16 -39.5t-39 -16.5zM371 655q-23 0 -39.5 16.5t-16.5 39.5t16.5 39.5t39.5 16.5t39.5 -16.5t16.5 -39.5t-16.5 -39.5t-39.5 -16.5zM-41 0l7 25q31 6 46 11.5t32 23t27 47.5l105 323q4 11 6 20
t1 16t-0.5 11.5t-4.5 9t-6 6.5t-9 4.5t-10 3.5t-13 3t-13 3l6 23h267l-6 -25q-31 -6 -46 -11.5t-32 -22.5t-26 -47l-106 -326q-3 -10 -4.5 -18t-2.5 -14t0.5 -11t2 -8.5t5 -6.5t6 -4.5t9 -4t9.5 -3t11.5 -2.5t12.5 -3l-6 -23h-268z" />
    <glyph glyph-name="i.sc.loclTRK" horiz-adv-x="327" 
d="M299 621q-27 0 -47 19t-20 45q0 27 20 45.5t47 18.5t46.5 -18.5t19.5 -45.5q0 -26 -20 -45t-46 -19zM-41 0l7 25q31 6 46 11.5t32 23t27 47.5l105 323q4 11 6 20t1 16t-0.5 11.5t-4.5 9t-6 6.5t-9 4.5t-10 3.5t-13 3t-13 3l6 23h267l-6 -25q-31 -6 -46 -11.5t-32 -22.5
t-26 -47l-106 -326q-3 -10 -4.5 -18t-2.5 -14t0.5 -11t2 -8.5t5 -6.5t6 -4.5t9 -4t9.5 -3t11.5 -2.5t12.5 -3l-6 -23h-268z" />
    <glyph glyph-name="igrave.sc" horiz-adv-x="327" 
d="M248 598q-66 70 -122 109q8 21 32.5 39.5t47.5 18.5q44 -62 69 -150zM-41 0l7 25q31 6 46 11.5t32 23t27 47.5l105 323q4 11 6 20t1 16t-0.5 11.5t-4.5 9t-6 6.5t-9 4.5t-10 3.5t-13 3t-13 3l6 23h267l-6 -25q-31 -6 -46 -11.5t-32 -22.5t-26 -47l-106 -326
q-3 -10 -4.5 -18t-2.5 -14t0.5 -11t2 -8.5t5 -6.5t6 -4.5t9 -4t9.5 -3t11.5 -2.5t12.5 -3l-6 -23h-268z" />
    <glyph glyph-name="ij.sc" horiz-adv-x="651" 
d="M-41 0l7 25q31 6 46 11.5t32 23t27 47.5l105 323q4 11 6 20t1 16t-0.5 11.5t-4.5 9t-6 6.5t-9 4.5t-10 3.5t-13 3t-13 3l6 23h267l-6 -25q-31 -6 -46 -11.5t-32 -22.5t-26 -47l-106 -326q-3 -10 -4.5 -18t-2.5 -14t0.5 -11t2 -8.5t5 -6.5t6 -4.5t9 -4t9.5 -3t11.5 -2.5
t12.5 -3l-6 -23h-268zM204 -181l11 34q72 19 102 52.5t55 113.5l135 415q5 14 7 24.5t-0.5 17.5t-3.5 11.5t-10 8t-12 4.5t-17 3.5t-19 3.5l4 23h278l-5 -25q-33 -6 -49.5 -11.5t-34 -23.5t-27.5 -50l-138 -426q-12 -37 -34.5 -66t-48 -47t-60 -31t-65 -19.5t-68.5 -11.5z
" />
    <glyph glyph-name="imacron.sc" horiz-adv-x="327" 
d="M151 686l15 41h280l-15 -41h-280zM-41 0l7 25q31 6 46 11.5t32 23t27 47.5l105 323q4 11 6 20t1 16t-0.5 11.5t-4.5 9t-6 6.5t-9 4.5t-10 3.5t-13 3t-13 3l6 23h267l-6 -25q-31 -6 -46 -11.5t-32 -22.5t-26 -47l-106 -326q-3 -10 -4.5 -18t-2.5 -14t0.5 -11t2 -8.5
t5 -6.5t6 -4.5t9 -4t9.5 -3t11.5 -2.5t12.5 -3l-6 -23h-268z" />
    <glyph glyph-name="iogonek.sc" horiz-adv-x="327" 
d="M133 530h267l-6 -25q-31 -6 -46 -11.5t-32 -22.5t-26 -47l-106 -326q-3 -10 -4.5 -18t-2.5 -14t0.5 -11t2 -8.5t5 -6.5t6 -4.5t9 -4t9.5 -3t11.5 -2.5t12.5 -3l-6 -23h-97q-49 -27 -73.5 -50.5t-24.5 -56.5q0 -22 12.5 -35t34.5 -13q18 0 47 9l-7 -19q-41 -34 -93 -34
q-85 0 -85 70q0 41 30 73l91 56h-103l7 25q31 6 46 11.5t32 23t27 47.5l105 323q4 11 6 20t1 16t-0.5 11.5t-4.5 9t-6 6.5t-9 4.5t-10 3.5t-13 3t-13 3z" />
    <glyph glyph-name="j.sc" horiz-adv-x="325" 
d="M-123 -181l10 34q72 19 102.5 52.5t55.5 113.5l135 415q5 14 7 24.5t-0.5 17.5t-3.5 11.5t-10 8t-12 4.5t-17 3.5t-19 3.5l4 23h278l-5 -25q-33 -6 -49.5 -11.5t-34 -23.5t-27.5 -50l-138 -426q-15 -46 -44 -79t-69 -51.5t-77 -28t-86 -16.5z" />
    <glyph glyph-name="k.sc" horiz-adv-x="614" 
d="M667 506q-44 0 -74.5 -13t-63.5 -40l-145 -116l101 -279q7 -19 22 -26.5t47 -7.5l-6 -24h-189q9 29 -7 75l-66 184l-67 -54l-35 -107q-3 -10 -4.5 -18t-2.5 -14t0.5 -11t2 -8.5t5 -6.5t6 -4.5t9 -4t9.5 -3t11.5 -2.5t12.5 -3l-6 -23h-268l7 25q31 6 46 11.5t32 23
t27 47.5l105 323q4 11 6 20t1 16t-0.5 11.5t-4.5 9t-6 6.5t-9 4.5t-10 3.5t-13 3t-13 3l6 23h267l-6 -25q-31 -6 -46 -11.5t-32 -22.5t-26 -47l-52 -160l242 197q53 45 -18 45l7 24h204z" />
    <glyph glyph-name="uni0137.sc" horiz-adv-x="614" 
d="M667 506q-44 0 -74.5 -13t-63.5 -40l-145 -116l101 -279q7 -19 22 -26.5t47 -7.5l-6 -24h-189q9 29 -7 75l-66 184l-67 -54l-35 -107q-3 -10 -4.5 -18t-2.5 -14t0.5 -11t2 -8.5t5 -6.5t6 -4.5t9 -4t9.5 -3t11.5 -2.5t12.5 -3l-6 -23h-268l7 25q31 6 46 11.5t32 23
t27 47.5l105 323q4 11 6 20t1 16t-0.5 11.5t-4.5 9t-6 6.5t-9 4.5t-10 3.5t-13 3t-13 3l6 23h267l-6 -25q-31 -6 -46 -11.5t-32 -22.5t-26 -47l-52 -160l242 197q53 45 -18 45l7 24h204zM183 -58q29 0 48.5 -21.5t19.5 -57.5q0 -59 -50 -117.5t-130 -77.5l-8 24q79 27 99 89
q7 22 -15 37q-35 24 -35 56q0 28 21 48t50 20z" />
    <glyph glyph-name="l.sc" horiz-adv-x="534" 
d="M-40 0l6 26q31 6 46 11.5t33 23.5t28 50l105 324q5 14 7 24.5t0 17.5t-3 11.5t-9 8t-11 4.5t-15 3.5t-17 3.5l3 22h273l-5 -26q-24 -5 -35.5 -8.5t-29 -12.5t-28 -24.5t-18.5 -39.5l-102 -312q-6 -18 -9 -29t-0.5 -19t4.5 -12t14 -6t20 -2h30h35q57 0 99.5 28t92.5 98
l29 -7l-92 -158h-451z" />
    <glyph glyph-name="lacute.sc" horiz-adv-x="534" 
d="M266 598l-26 17q25 88 69 150q22 0 46.5 -18.5t32.5 -39.5q-56 -39 -122 -109zM-40 0l6 26q31 6 46 11.5t33 23.5t28 50l105 324q5 14 7 24.5t0 17.5t-3 11.5t-9 8t-11 4.5t-15 3.5t-17 3.5l3 22h273l-5 -26q-24 -5 -35.5 -8.5t-29 -12.5t-28 -24.5t-18.5 -39.5
l-102 -312q-6 -18 -9 -29t-0.5 -19t4.5 -12t14 -6t20 -2h30h35q57 0 99.5 28t92.5 98l29 -7l-92 -158h-451z" />
    <glyph glyph-name="lcaron.sc" horiz-adv-x="534" 
d="M291 612l-79 151l16 14l85 -88l141 88l10 -13zM-40 0l6 26q31 6 46 11.5t33 23.5t28 50l105 324q5 14 7 24.5t0 17.5t-3 11.5t-9 8t-11 4.5t-15 3.5t-17 3.5l3 22h273l-5 -26q-24 -5 -35.5 -8.5t-29 -12.5t-28 -24.5t-18.5 -39.5l-102 -312q-6 -18 -9 -29t-0.5 -19
t4.5 -12t14 -6t20 -2h30h35q57 0 99.5 28t92.5 98l29 -7l-92 -158h-451z" />
    <glyph glyph-name="uni013C.sc" horiz-adv-x="534" 
d="M-40 0l6 26q31 6 46 11.5t33 23.5t28 50l105 324q5 14 7 24.5t0 17.5t-3 11.5t-9 8t-11 4.5t-15 3.5t-17 3.5l3 22h273l-5 -26q-24 -5 -35.5 -8.5t-29 -12.5t-28 -24.5t-18.5 -39.5l-102 -312q-6 -18 -9 -29t-0.5 -19t4.5 -12t14 -6t20 -2h30h35q57 0 99.5 28t92.5 98
l29 -7l-92 -158h-451zM60 -332l-8 24q79 27 99 89q7 22 -15 37q-35 24 -35 56q0 28 21 48t50 20t48.5 -21.5t19.5 -57.5q0 -59 -50 -117.5t-130 -77.5z" />
    <glyph glyph-name="ldot.sc" horiz-adv-x="534" 
d="M-40 0l6 26q31 6 46 11.5t33 23.5t28 50l105 324q5 14 7 24.5t0 17.5t-3 11.5t-9 8t-11 4.5t-15 3.5t-17 3.5l3 22h273l-5 -26q-24 -5 -35.5 -8.5t-29 -12.5t-28 -24.5t-18.5 -39.5l-102 -312q-6 -18 -9 -29t-0.5 -19t4.5 -12t14 -6t20 -2h30h35q57 0 99.5 28t92.5 98
l29 -7l-92 -158h-451zM375 206q-28 0 -48 20t-20 48q0 27 20 46.5t48 19.5q27 0 47 -19.5t20 -46.5q0 -28 -20 -48t-47 -20z" />
    <glyph glyph-name="lslash.sc" horiz-adv-x="534" 
d="M474 165l29 -7l-92 -158h-451l6 26q31 6 46 11.5t33 23.5t28 50l33 101q-50 -18 -75 -28v41q29 8 87 26l60 184q5 14 7 24.5t0 17.5t-3 11.5t-9 8t-11 4.5t-15 3.5t-17 3.5l3 22h273l-5 -26q-24 -5 -35.5 -8.5t-29 -12.5t-28 -24.5t-18.5 -39.5l-41 -125q54 18 134 50
v-41q-77 -22 -146 -45l-49 -151q-6 -18 -9 -29t-0.5 -19t4.5 -12t14 -6t20 -2h30h35q57 0 99.5 28t92.5 98z" />
    <glyph glyph-name="m.sc" horiz-adv-x="772" 
d="M829 530l-5 -26q-31 -6 -46.5 -11.5t-33 -23.5t-26.5 -50l-89 -324q-4 -14 -6 -24.5t0.5 -17.5t3.5 -11.5t8.5 -8t10.5 -4.5t15.5 -3.5t16.5 -3.5l-3 -22h-267l4 26q32 6 47 11.5t33 23.5t27 50l95 336l-315 -447h-29l-40 411l-118 -316q-6 -16 -7 -28t-1 -18.5t9 -11
l12 -6t19.5 -4.5t21.5 -4l-3 -23h-203l6 26q31 6 46 11.5t33.5 23.5t29.5 50l122 324q6 16 7 28t1 18.5t-8.5 11.5t-11 6.5t-18.5 4.5t-19 4l3 22h188q-3 -13 2 -84l31 -282l204 296q32 46 35 70h218z" />
    <glyph glyph-name="n.sc" horiz-adv-x="635" 
d="M514 530h203l-5 -25q-47 -6 -69.5 -22t-38.5 -63l-137 -420h-47l-197 441l-112 -341q-14 -44 -1 -56.5t58 -19.5q5 -1 8 -1l-4 -23h-213l7 25q30 5 46.5 10.5t33.5 24t27 50.5l106 324q5 14 7 24.5t-0.5 18t-4 11.5t-9.5 7.5t-11.5 5t-16 4t-16.5 3.5l4 22h185l167 -350
l81 248q6 20 6.5 33.5t-2.5 21t-13.5 13t-19.5 7l-27 4.5z" />
    <glyph glyph-name="nacute.sc" horiz-adv-x="635" 
d="M526 707q-56 -39 -122 -109l-26 17q25 88 69 150q22 0 46.5 -18.5t32.5 -39.5zM514 530h203l-5 -25q-47 -6 -69.5 -22t-38.5 -63l-137 -420h-47l-197 441l-112 -341q-14 -44 -1 -56.5t58 -19.5q5 -1 8 -1l-4 -23h-213l7 25q30 5 46.5 10.5t33.5 24t27 50.5l106 324
q5 14 7 24.5t-0.5 18t-4 11.5t-9.5 7.5t-11.5 5t-16 4t-16.5 3.5l4 22h185l167 -350l81 248q6 20 6.5 33.5t-2.5 21t-13.5 13t-19.5 7l-27 4.5z" />
    <glyph glyph-name="ncaron.sc" horiz-adv-x="635" 
d="M602 764l-173 -152l-79 151l16 14l85 -88l141 88zM514 530h203l-5 -25q-47 -6 -69.5 -22t-38.5 -63l-137 -420h-47l-197 441l-112 -341q-14 -44 -1 -56.5t58 -19.5q5 -1 8 -1l-4 -23h-213l7 25q30 5 46.5 10.5t33.5 24t27 50.5l106 324q5 14 7 24.5t-0.5 18t-4 11.5
t-9.5 7.5t-11.5 5t-16 4t-16.5 3.5l4 22h185l167 -350l81 248q6 20 6.5 33.5t-2.5 21t-13.5 13t-19.5 7l-27 4.5z" />
    <glyph glyph-name="uni0146.sc" horiz-adv-x="635" 
d="M514 530h203l-5 -25q-47 -6 -69.5 -22t-38.5 -63l-137 -420h-47l-197 441l-112 -341q-14 -44 -1 -56.5t58 -19.5q5 -1 8 -1l-4 -23h-213l7 25q30 5 46.5 10.5t33.5 24t27 50.5l106 324q5 14 7 24.5t-0.5 18t-4 11.5t-9.5 7.5t-11.5 5t-16 4t-16.5 3.5l4 22h185l167 -350
l81 248q6 20 6.5 33.5t-2.5 21t-13.5 13t-19.5 7l-27 4.5zM193 -58q29 0 48.5 -21.5t19.5 -57.5q0 -59 -50 -117.5t-130 -77.5l-8 24q79 27 99 89q7 22 -15 37q-35 24 -35 56q0 28 21 48t50 20z" />
    <glyph glyph-name="ntilde.sc" horiz-adv-x="635" 
d="M373 686q-25 0 -47 -18.5t-27 -34.5l-17 13q8 48 43 77t78 29q25 0 42 -11t25 -25t22 -25t32 -11q26 0 48 18t28 35l16 -13q-7 -48 -42.5 -77t-78.5 -29q-20 0 -35 7.5t-24 18t-17 21t-19.5 18t-26.5 7.5zM514 530h203l-5 -25q-47 -6 -69.5 -22t-38.5 -63l-137 -420h-47
l-197 441l-112 -341q-14 -44 -1 -56.5t58 -19.5q5 -1 8 -1l-4 -23h-213l7 25q30 5 46.5 10.5t33.5 24t27 50.5l106 324q5 14 7 24.5t-0.5 18t-4 11.5t-9.5 7.5t-11.5 5t-16 4t-16.5 3.5l4 22h185l167 -350l81 248q6 20 6.5 33.5t-2.5 21t-13.5 13t-19.5 7l-27 4.5z" />
    <glyph glyph-name="o.sc" 
d="M259 -12q-99 0 -153 52t-54 137q0 95 53 179.5t141.5 135t186.5 50.5q99 0 153.5 -52t54.5 -138q0 -144 -116 -254t-266 -110zM278 26q65 0 123 57t89.5 137.5t31.5 155.5q0 60 -27.5 94t-80.5 34q-65 0 -123 -57.5t-89 -137.5t-31 -155q0 -59 27 -93.5t80 -34.5z" />
    <glyph glyph-name="oacute.sc" 
d="M417 598l-26 17q25 88 69 150q22 0 46.5 -18.5t32.5 -39.5q-56 -39 -122 -109zM259 -12q-99 0 -153 52t-54 137q0 95 53 179.5t141.5 135t186.5 50.5q99 0 153.5 -52t54.5 -138q0 -144 -116 -254t-266 -110zM278 26q65 0 123 57t89.5 137.5t31.5 155.5q0 60 -27.5 94
t-80.5 34q-65 0 -123 -57.5t-89 -137.5t-31 -155q0 -59 27 -93.5t80 -34.5z" />
    <glyph glyph-name="ocircumflex.sc" 
d="M492 778l79 -151l-16 -14l-85 88l-141 -88l-10 13zM259 -12q-99 0 -153 52t-54 137q0 95 53 179.5t141.5 135t186.5 50.5q99 0 153.5 -52t54.5 -138q0 -144 -116 -254t-266 -110zM278 26q65 0 123 57t89.5 137.5t31.5 155.5q0 60 -27.5 94t-80.5 34q-65 0 -123 -57.5
t-89 -137.5t-31 -155q0 -59 27 -93.5t80 -34.5z" />
    <glyph glyph-name="odieresis.sc" 
d="M333 655q-24 0 -40 16.5t-16 39.5t16 39.5t40 16.5q23 0 39 -16.5t16 -39.5t-16 -39.5t-39 -16.5zM538 655q-23 0 -39.5 16.5t-16.5 39.5t16.5 39.5t39.5 16.5t39.5 -16.5t16.5 -39.5t-16.5 -39.5t-39.5 -16.5zM259 -12q-99 0 -153 52t-54 137q0 95 53 179.5t141.5 135
t186.5 50.5q99 0 153.5 -52t54.5 -138q0 -144 -116 -254t-266 -110zM278 26q65 0 123 57t89.5 137.5t31.5 155.5q0 60 -27.5 94t-80.5 34q-65 0 -123 -57.5t-89 -137.5t-31 -155q0 -59 27 -93.5t80 -34.5z" />
    <glyph glyph-name="ograve.sc" 
d="M415 598q-66 70 -122 109q8 21 32.5 39.5t47.5 18.5q44 -62 69 -150zM259 -12q-99 0 -153 52t-54 137q0 95 53 179.5t141.5 135t186.5 50.5q99 0 153.5 -52t54.5 -138q0 -144 -116 -254t-266 -110zM278 26q65 0 123 57t89.5 137.5t31.5 155.5q0 60 -27.5 94t-80.5 34
q-65 0 -123 -57.5t-89 -137.5t-31 -155q0 -59 27 -93.5t80 -34.5z" />
    <glyph glyph-name="ohungarumlaut.sc" 
d="M356 598l-26 17q25 88 69 150q22 0 46.5 -18.5t32.5 -39.5q-56 -39 -122 -109zM520 598l-26 17q25 88 69 150q22 0 46.5 -18.5t32.5 -39.5q-56 -39 -122 -109zM259 -12q-99 0 -153 52t-54 137q0 95 53 179.5t141.5 135t186.5 50.5q99 0 153.5 -52t54.5 -138
q0 -144 -116 -254t-266 -110zM278 26q65 0 123 57t89.5 137.5t31.5 155.5q0 60 -27.5 94t-80.5 34q-65 0 -123 -57.5t-89 -137.5t-31 -155q0 -59 27 -93.5t80 -34.5z" />
    <glyph glyph-name="omacron.sc" 
d="M317 686l15 41h280l-15 -41h-280zM259 -12q-99 0 -153 52t-54 137q0 95 53 179.5t141.5 135t186.5 50.5q99 0 153.5 -52t54.5 -138q0 -144 -116 -254t-266 -110zM278 26q65 0 123 57t89.5 137.5t31.5 155.5q0 60 -27.5 94t-80.5 34q-65 0 -123 -57.5t-89 -137.5t-31 -155
q0 -59 27 -93.5t80 -34.5z" />
    <glyph glyph-name="oslash.sc" 
d="M521 528q58 -20 89 -66t31 -110q0 -144 -116 -254t-266 -110q-38 0 -65 7l-28 -45l-19 14l23 38q-57 20 -87.5 66t-30.5 109q0 95 53 179.5t141.5 135t186.5 50.5q37 0 65 -7l28 46l19 -14zM171 154q0 -66 32 -99l267 435q-23 14 -56 14q-65 0 -123 -57.5t-89 -137.5
t-31 -155zM278 26q65 0 123 57t89.5 137.5t31.5 155.5q0 67 -33 100l-268 -436q25 -14 57 -14z" />
    <glyph glyph-name="otilde.sc" 
d="M507 614q-20 0 -35 7.5t-24 18t-17 21t-19.5 18t-26.5 7.5q-25 0 -47 -18.5t-27 -34.5l-17 13q8 48 43 77t78 29q25 0 42 -11t25 -25t22 -25t32 -11q26 0 48 18t28 35l16 -13q-7 -48 -42.5 -77t-78.5 -29zM259 -12q-99 0 -153 52t-54 137q0 95 53 179.5t141.5 135
t186.5 50.5q99 0 153.5 -52t54.5 -138q0 -144 -116 -254t-266 -110zM278 26q65 0 123 57t89.5 137.5t31.5 155.5q0 60 -27.5 94t-80.5 34q-65 0 -123 -57.5t-89 -137.5t-31 -155q0 -59 27 -93.5t80 -34.5z" />
    <glyph glyph-name="oe.sc" horiz-adv-x="946" 
d="M517 530h453l-35 -134h-27q10 53 -1.5 74.5t-61.5 21.5h-63q-56 0 -80.5 -16t-40.5 -67l-40 -123h68q69 0 98 19t48 62h22l-62 -191h-21q9 46 -6 60t-87 14h-72l-46 -143q-9 -27 -10.5 -40t8.5 -20t22.5 -8t45.5 -1h44q56 0 97 25t87 83h29l-86 -146h-453
q-42 -12 -88 -12q-99 0 -153 52t-54 137q0 95 53 179.5t141.5 135t186.5 50.5q49 0 84 -12zM171 154q0 -59 27 -93.5t80 -34.5q61 0 113 49.5t86 125.5l34 102q11 44 11 73q0 60 -27.5 94t-80.5 34q-65 0 -123 -57.5t-89 -137.5t-31 -155z" />
    <glyph glyph-name="p.sc" horiz-adv-x="582" 
d="M-42 0l8 25q31 6 46 11.5t32 23.5t27 50l105 324q4 12 5.5 22t2 16.5t-2.5 11.5t-5 8t-9.5 6t-11 4t-13.5 3l-15 3l5 22h251q96 0 152.5 -32.5t56.5 -100.5q0 -80 -48.5 -138.5t-125.5 -86.5t-171 -28q-13 0 -9 17q5 15 15 16q91 0 156.5 73t65.5 166q0 76 -89 76
q-45 0 -64.5 -14t-30.5 -48l-105 -325q-7 -20 -7 -34.5t1.5 -21.5t13 -12.5t16.5 -6.5t24 -5l-7 -25h-269z" />
    <glyph glyph-name="q.sc" horiz-adv-x="646" 
d="M474 -114q37 0 79 23l11 -24q-84 -60 -151 -60q-54 0 -96 44l-101 105q-11 12 -37 25q-62 18 -94.5 65.5t-32.5 112.5q0 95 53 179.5t141.5 135t186.5 50.5q99 0 153.5 -52t54.5 -138q0 -127 -92.5 -230.5t-223.5 -127.5q18 -10 32 -25l36 -41q37 -42 81 -42zM414 504
q-65 0 -123 -57.5t-89 -137.5t-31 -155q0 -59 27 -93.5t80 -34.5q65 0 123 57t89.5 137.5t31.5 155.5q0 60 -27.5 94t-80.5 34z" />
    <glyph glyph-name="r.sc" horiz-adv-x="601" 
d="M595 408q0 -142 -221 -168q32 -11 50 -70l20 -61q16 -49 37.5 -71.5t60.5 -11.5l-10 -28q-25 -14 -71 -14q-57 0 -83.5 24.5t-44.5 80.5l-23 70q-13 40 -30.5 55.5t-52.5 18.5l-41 -128q-7 -20 -7 -34.5t1.5 -21.5t13 -12.5t16.5 -6.5t24 -5l-7 -25h-269l8 25
q31 6 46 11.5t32 23.5t27 50l105 324q4 12 5.5 22t2 16.5t-2.5 11.5t-5 8t-9.5 6t-11 4t-13.5 3l-15 3l5 22h247q111 0 163.5 -26.5t52.5 -95.5zM284 272q85 0 139.5 42t54.5 102q0 40 -21 58t-74 18q-71 0 -89 -53l-54 -167h44z" />
    <glyph glyph-name="racute.sc" horiz-adv-x="601" 
d="M505 707q-56 -39 -122 -109l-26 17q25 88 69 150q22 0 46.5 -18.5t32.5 -39.5zM595 408q0 -142 -221 -168q32 -11 50 -70l20 -61q16 -49 37.5 -71.5t60.5 -11.5l-10 -28q-25 -14 -71 -14q-57 0 -83.5 24.5t-44.5 80.5l-23 70q-13 40 -30.5 55.5t-52.5 18.5l-41 -128
q-7 -20 -7 -34.5t1.5 -21.5t13 -12.5t16.5 -6.5t24 -5l-7 -25h-269l8 25q31 6 46 11.5t32 23.5t27 50l105 324q4 12 5.5 22t2 16.5t-2.5 11.5t-5 8t-9.5 6t-11 4t-13.5 3l-15 3l5 22h247q111 0 163.5 -26.5t52.5 -95.5zM284 272q85 0 139.5 42t54.5 102q0 40 -21 58t-74 18
q-71 0 -89 -53l-54 -167h44z" />
    <glyph glyph-name="rcaron.sc" horiz-adv-x="601" 
d="M581 764l-173 -152l-79 151l16 14l85 -88l141 88zM595 408q0 -142 -221 -168q32 -11 50 -70l20 -61q16 -49 37.5 -71.5t60.5 -11.5l-10 -28q-25 -14 -71 -14q-57 0 -83.5 24.5t-44.5 80.5l-23 70q-13 40 -30.5 55.5t-52.5 18.5l-41 -128q-7 -20 -7 -34.5t1.5 -21.5
t13 -12.5t16.5 -6.5t24 -5l-7 -25h-269l8 25q31 6 46 11.5t32 23.5t27 50l105 324q4 12 5.5 22t2 16.5t-2.5 11.5t-5 8t-9.5 6t-11 4t-13.5 3l-15 3l5 22h247q111 0 163.5 -26.5t52.5 -95.5zM284 272q85 0 139.5 42t54.5 102q0 40 -21 58t-74 18q-71 0 -89 -53l-54 -167h44z
" />
    <glyph glyph-name="uni0157.sc" horiz-adv-x="601" 
d="M595 408q0 -142 -221 -168q32 -11 50 -70l20 -61q16 -49 37.5 -71.5t60.5 -11.5l-10 -28q-25 -14 -71 -14q-57 0 -83.5 24.5t-44.5 80.5l-23 70q-13 40 -30.5 55.5t-52.5 18.5l-41 -128q-7 -20 -7 -34.5t1.5 -21.5t13 -12.5t16.5 -6.5t24 -5l-7 -25h-269l8 25
q31 6 46 11.5t32 23.5t27 50l105 324q4 12 5.5 22t2 16.5t-2.5 11.5t-5 8t-9.5 6t-11 4t-13.5 3l-15 3l5 22h247q111 0 163.5 -26.5t52.5 -95.5zM284 272q85 0 139.5 42t54.5 102q0 40 -21 58t-74 18q-71 0 -89 -53l-54 -167h44zM222 -58q29 0 48.5 -21.5t19.5 -57.5
q0 -59 -50 -117.5t-130 -77.5l-8 24q79 27 99 89q7 22 -15 37q-35 24 -35 56q0 28 21 48t50 20z" />
    <glyph glyph-name="s.sc" horiz-adv-x="460" 
d="M160 -12q-100 0 -157 57l29 103h23q-4 -60 24.5 -92.5t79.5 -32.5q57 0 94 32.5t37 79.5q0 28 -18 49.5t-58 44.5q-25 14 -39.5 24.5t-32.5 28t-26.5 40t-8.5 51.5q0 78 63 123.5t150 45.5q98 0 150 -55l-30 -107h-23q8 127 -91 127q-51 0 -80 -26t-29 -67q0 -48 68 -88
q1 -1 19 -11.5t22 -13t19.5 -13.5t20.5 -17t15.5 -18t14.5 -22.5t7.5 -25t3.5 -30.5q0 -82 -74.5 -134.5t-172.5 -52.5z" />
    <glyph glyph-name="sacute.sc" horiz-adv-x="460" 
d="M316 598l-26 17q25 88 69 150q22 0 46.5 -18.5t32.5 -39.5q-56 -39 -122 -109zM160 -12q-100 0 -157 57l29 103h23q-4 -60 24.5 -92.5t79.5 -32.5q57 0 94 32.5t37 79.5q0 28 -18 49.5t-58 44.5q-25 14 -39.5 24.5t-32.5 28t-26.5 40t-8.5 51.5q0 78 63 123.5t150 45.5
q98 0 150 -55l-30 -107h-23q8 127 -91 127q-51 0 -80 -26t-29 -67q0 -48 68 -88q1 -1 19 -11.5t22 -13t19.5 -13.5t20.5 -17t15.5 -18t14.5 -22.5t7.5 -25t3.5 -30.5q0 -82 -74.5 -134.5t-172.5 -52.5z" />
    <glyph glyph-name="scaron.sc" horiz-adv-x="460" 
d="M341 612l-79 151l16 14l85 -88l141 88l10 -13zM160 -12q-100 0 -157 57l29 103h23q-4 -60 24.5 -92.5t79.5 -32.5q57 0 94 32.5t37 79.5q0 28 -18 49.5t-58 44.5q-25 14 -39.5 24.5t-32.5 28t-26.5 40t-8.5 51.5q0 78 63 123.5t150 45.5q98 0 150 -55l-30 -107h-23
q8 127 -91 127q-51 0 -80 -26t-29 -67q0 -48 68 -88q1 -1 19 -11.5t22 -13t19.5 -13.5t20.5 -17t15.5 -18t14.5 -22.5t7.5 -25t3.5 -30.5q0 -82 -74.5 -134.5t-172.5 -52.5z" />
    <glyph glyph-name="scedilla.sc" horiz-adv-x="460" 
d="M320 542q98 0 150 -55l-30 -107h-23q8 127 -91 127q-51 0 -80 -26t-29 -67q0 -48 68 -88q1 -1 19 -11.5t22 -13t19.5 -13.5t20.5 -17t15.5 -18t14.5 -22.5t7.5 -25t3.5 -30.5q0 -81 -73.5 -133.5t-170.5 -53.5l-17 -35q43 0 75 -21.5t32 -58.5q0 -39 -40.5 -62
t-122.5 -23l5 24q45 0 67 13.5t22 32.5q0 44 -110 44l45 89q-72 10 -116 54l29 103h23q-4 -60 24.5 -92.5t79.5 -32.5q57 0 94 32.5t37 79.5q0 28 -18 49.5t-58 44.5q-25 14 -39.5 24.5t-32.5 28t-26.5 40t-8.5 51.5q0 78 63 123.5t150 45.5z" />
    <glyph glyph-name="uni0219.sc" horiz-adv-x="460" 
d="M160 -12q-100 0 -157 57l29 103h23q-4 -60 24.5 -92.5t79.5 -32.5q57 0 94 32.5t37 79.5q0 28 -18 49.5t-58 44.5q-25 14 -39.5 24.5t-32.5 28t-26.5 40t-8.5 51.5q0 78 63 123.5t150 45.5q98 0 150 -55l-30 -107h-23q8 127 -91 127q-51 0 -80 -26t-29 -67q0 -48 68 -88
q1 -1 19 -11.5t22 -13t19.5 -13.5t20.5 -17t15.5 -18t14.5 -22.5t7.5 -25t3.5 -30.5q0 -82 -74.5 -134.5t-172.5 -52.5zM-8 -332l-8 24q80 27 100 89q7 22 -15 37q-35 24 -35 56q0 28 21 48t50 20t48.5 -21.5t19.5 -57.5q0 -59 -50.5 -118t-130.5 -77z" />
    <glyph glyph-name="germandbls.sc" horiz-adv-x="677" 
d="M493 316q60 -8 96 -41.5t36 -92.5q0 -89 -77.5 -145.5t-179.5 -56.5q-81 0 -114 43q15 67 22 118h21q1 -74 18 -101t54 -27q58 0 102.5 52.5t44.5 115.5q0 55 -43.5 86t-120.5 22l202 192q-42 18 -88 18q-63 0 -118.5 -32.5t-77.5 -99.5l-86 -262q-12 -30 -9.5 -46.5
t10 -22t27.5 -11.5l-4 -25h-248l6 25q30 6 45.5 11.5t32 23.5t26.5 50l84 257q16 50 47.5 85t71 52.5t76.5 25t78 7.5q119 0 234 -65z" />
    <glyph glyph-name="t.sc" horiz-adv-x="579" 
d="M584 530l54 10l-49 -177h-22q12 71 -4 102t-83 31h-42l-129 -400q-3 -11 -5 -19.5t-1.5 -15t1 -11t5 -8.5t6.5 -6t10.5 -4t12 -3t15 -3t16.5 -3l-6 -23h-290l7 25q27 5 41 8.5t30.5 12.5t27 24.5t18.5 39.5l125 386h-34q-69 0 -108.5 -31.5t-72.5 -101.5h-22l65 177
l49 -10h385z" />
    <glyph glyph-name="tbar.sc" horiz-adv-x="579" 
d="M584 530l54 10l-49 -177h-22q12 71 -4 102t-83 31h-42l-61 -190l102 3l-10 -36l-102 3l-58 -180q-3 -11 -5 -19.5t-1.5 -15t1 -11t5 -8.5t6.5 -6t10.5 -4t12 -3t15 -3t16.5 -3l-6 -23h-290l7 25q27 5 41 8.5t30.5 12.5t27 24.5t18.5 39.5l54 166l-102 -3l10 36l102 -3
l61 190h-34q-69 0 -108.5 -31.5t-72.5 -101.5h-22l65 177l49 -10h385z" />
    <glyph glyph-name="tcaron.sc" horiz-adv-x="579" 
d="M576 764l-173 -152l-79 151l16 14l85 -88l141 88zM584 530l54 10l-49 -177h-22q12 71 -4 102t-83 31h-42l-129 -400q-3 -11 -5 -19.5t-1.5 -15t1 -11t5 -8.5t6.5 -6t10.5 -4t12 -3t15 -3t16.5 -3l-6 -23h-290l7 25q27 5 41 8.5t30.5 12.5t27 24.5t18.5 39.5l125 386h-34
q-69 0 -108.5 -31.5t-72.5 -101.5h-22l65 177l49 -10h385z" />
    <glyph glyph-name="uni0163.sc" horiz-adv-x="579" 
d="M584 530l54 10l-49 -177h-22q12 71 -4 102t-83 31h-42l-129 -400q-3 -11 -5 -19.5t-1.5 -15t1 -11t5 -8.5t6.5 -6t10.5 -4t12 -3t15 -3t16.5 -3l-6 -23h-122l-23 -47q43 0 75 -21.5t32 -58.5q0 -39 -40.5 -62t-122.5 -23l5 24q45 0 67 13.5t22 32.5q0 44 -110 44l50 98
h-123l7 25q27 5 41 8.5t30.5 12.5t27 24.5t18.5 39.5l125 386h-34q-69 0 -108.5 -31.5t-72.5 -101.5h-22l65 177l49 -10h385z" />
    <glyph glyph-name="uni021B.sc" horiz-adv-x="579" 
d="M584 530l54 10l-49 -177h-22q12 71 -4 102t-83 31h-42l-129 -400q-3 -11 -5 -19.5t-1.5 -15t1 -11t5 -8.5t6.5 -6t10.5 -4t12 -3t15 -3t16.5 -3l-6 -23h-290l7 25q27 5 41 8.5t30.5 12.5t27 24.5t18.5 39.5l125 386h-34q-69 0 -108.5 -31.5t-72.5 -101.5h-22l65 177
l49 -10h385zM177 -58q29 0 48.5 -21.5t19.5 -57.5q0 -59 -50 -117.5t-130 -77.5l-8 24q79 27 99 89q7 22 -15 37q-35 24 -35 56q0 28 21 48t50 20z" />
    <glyph glyph-name="u.sc" 
d="M273 -12q-35 0 -65 6.5t-57.5 24.5t-42 46.5t-14.5 76t20 108.5l61 184q5 14 7 24.5t-0.5 18t-4 11.5t-9.5 7.5t-11.5 5t-16 4t-16.5 3.5l6 22h268l-6 -25q-30 -6 -45 -11.5t-32.5 -23.5t-27.5 -50l-61 -189q-64 -197 72 -197q66 0 127.5 44t97.5 153l66 203q5 14 7 24.5
t-0.5 18t-4 11.5t-9.5 7.5t-11.5 5t-16.5 4t-17 3.5l6 22h202l-8 -25q-33 -6 -49 -11.5t-34 -23.5t-28 -50l-62 -192q-77 -240 -291 -240z" />
    <glyph glyph-name="uacute.sc" 
d="M418 598l-26 17q25 88 69 150q22 0 46.5 -18.5t32.5 -39.5q-56 -39 -122 -109zM273 -12q-35 0 -65 6.5t-57.5 24.5t-42 46.5t-14.5 76t20 108.5l61 184q5 14 7 24.5t-0.5 18t-4 11.5t-9.5 7.5t-11.5 5t-16 4t-16.5 3.5l6 22h268l-6 -25q-30 -6 -45 -11.5t-32.5 -23.5
t-27.5 -50l-61 -189q-64 -197 72 -197q66 0 127.5 44t97.5 153l66 203q5 14 7 24.5t-0.5 18t-4 11.5t-9.5 7.5t-11.5 5t-16.5 4t-17 3.5l6 22h202l-8 -25q-33 -6 -49 -11.5t-34 -23.5t-28 -50l-62 -192q-77 -240 -291 -240z" />
    <glyph glyph-name="ubreve.sc" 
d="M456 634q-63 0 -86.5 40t-2.5 102h22q-7 -38 12.5 -55.5t64.5 -17.5q97 -1 135 73h22q-21 -70 -65 -106t-102 -36zM273 -12q-35 0 -65 6.5t-57.5 24.5t-42 46.5t-14.5 76t20 108.5l61 184q5 14 7 24.5t-0.5 18t-4 11.5t-9.5 7.5t-11.5 5t-16 4t-16.5 3.5l6 22h268l-6 -25
q-30 -6 -45 -11.5t-32.5 -23.5t-27.5 -50l-61 -189q-64 -197 72 -197q66 0 127.5 44t97.5 153l66 203q5 14 7 24.5t-0.5 18t-4 11.5t-9.5 7.5t-11.5 5t-16.5 4t-17 3.5l6 22h202l-8 -25q-33 -6 -49 -11.5t-34 -23.5t-28 -50l-62 -192q-77 -240 -291 -240z" />
    <glyph glyph-name="ucircumflex.sc" 
d="M493 778l79 -151l-16 -14l-85 88l-141 -88l-10 13zM273 -12q-35 0 -65 6.5t-57.5 24.5t-42 46.5t-14.5 76t20 108.5l61 184q5 14 7 24.5t-0.5 18t-4 11.5t-9.5 7.5t-11.5 5t-16 4t-16.5 3.5l6 22h268l-6 -25q-30 -6 -45 -11.5t-32.5 -23.5t-27.5 -50l-61 -189
q-64 -197 72 -197q66 0 127.5 44t97.5 153l66 203q5 14 7 24.5t-0.5 18t-4 11.5t-9.5 7.5t-11.5 5t-16.5 4t-17 3.5l6 22h202l-8 -25q-33 -6 -49 -11.5t-34 -23.5t-28 -50l-62 -192q-77 -240 -291 -240z" />
    <glyph glyph-name="udieresis.sc" 
d="M334 655q-24 0 -40 16.5t-16 39.5t16 39.5t40 16.5q23 0 39 -16.5t16 -39.5t-16 -39.5t-39 -16.5zM539 655q-23 0 -39.5 16.5t-16.5 39.5t16.5 39.5t39.5 16.5t39.5 -16.5t16.5 -39.5t-16.5 -39.5t-39.5 -16.5zM273 -12q-35 0 -65 6.5t-57.5 24.5t-42 46.5t-14.5 76
t20 108.5l61 184q5 14 7 24.5t-0.5 18t-4 11.5t-9.5 7.5t-11.5 5t-16 4t-16.5 3.5l6 22h268l-6 -25q-30 -6 -45 -11.5t-32.5 -23.5t-27.5 -50l-61 -189q-64 -197 72 -197q66 0 127.5 44t97.5 153l66 203q5 14 7 24.5t-0.5 18t-4 11.5t-9.5 7.5t-11.5 5t-16.5 4t-17 3.5l6 22
h202l-8 -25q-33 -6 -49 -11.5t-34 -23.5t-28 -50l-62 -192q-77 -240 -291 -240z" />
    <glyph glyph-name="ugrave.sc" 
d="M416 598q-66 70 -122 109q8 21 32.5 39.5t47.5 18.5q44 -62 69 -150zM273 -12q-35 0 -65 6.5t-57.5 24.5t-42 46.5t-14.5 76t20 108.5l61 184q5 14 7 24.5t-0.5 18t-4 11.5t-9.5 7.5t-11.5 5t-16 4t-16.5 3.5l6 22h268l-6 -25q-30 -6 -45 -11.5t-32.5 -23.5t-27.5 -50
l-61 -189q-64 -197 72 -197q66 0 127.5 44t97.5 153l66 203q5 14 7 24.5t-0.5 18t-4 11.5t-9.5 7.5t-11.5 5t-16.5 4t-17 3.5l6 22h202l-8 -25q-33 -6 -49 -11.5t-34 -23.5t-28 -50l-62 -192q-77 -240 -291 -240z" />
    <glyph glyph-name="uhungarumlaut.sc" 
d="M357 598l-26 17q25 88 69 150q22 0 46.5 -18.5t32.5 -39.5q-56 -39 -122 -109zM521 598l-26 17q25 88 69 150q22 0 46.5 -18.5t32.5 -39.5q-56 -39 -122 -109zM273 -12q-35 0 -65 6.5t-57.5 24.5t-42 46.5t-14.5 76t20 108.5l61 184q5 14 7 24.5t-0.5 18t-4 11.5
t-9.5 7.5t-11.5 5t-16 4t-16.5 3.5l6 22h268l-6 -25q-30 -6 -45 -11.5t-32.5 -23.5t-27.5 -50l-61 -189q-64 -197 72 -197q66 0 127.5 44t97.5 153l66 203q5 14 7 24.5t-0.5 18t-4 11.5t-9.5 7.5t-11.5 5t-16.5 4t-17 3.5l6 22h202l-8 -25q-33 -6 -49 -11.5t-34 -23.5
t-28 -50l-62 -192q-77 -240 -291 -240z" />
    <glyph glyph-name="umacron.sc" 
d="M318 686l15 41h280l-15 -41h-280zM273 -12q-35 0 -65 6.5t-57.5 24.5t-42 46.5t-14.5 76t20 108.5l61 184q5 14 7 24.5t-0.5 18t-4 11.5t-9.5 7.5t-11.5 5t-16 4t-16.5 3.5l6 22h268l-6 -25q-30 -6 -45 -11.5t-32.5 -23.5t-27.5 -50l-61 -189q-64 -197 72 -197
q66 0 127.5 44t97.5 153l66 203q5 14 7 24.5t-0.5 18t-4 11.5t-9.5 7.5t-11.5 5t-16.5 4t-17 3.5l6 22h202l-8 -25q-33 -6 -49 -11.5t-34 -23.5t-28 -50l-62 -192q-77 -240 -291 -240z" />
    <glyph glyph-name="uogonek.sc" 
d="M543 530h202l-8 -25q-33 -6 -49 -11.5t-34 -23.5t-28 -50l-62 -192q-74 -230 -274 -240q-49 -27 -73.5 -50.5t-24.5 -56.5q0 -22 12.5 -35t34.5 -13q18 0 47 9l-7 -19q-41 -34 -93 -34q-84 0 -84 70q0 41 29 73l96 59q-38 6 -65.5 21t-48 45.5t-19.5 77t20 115.5l61 184
q5 14 7 24.5t-0.5 18t-4 11.5t-9.5 7.5t-11.5 5t-16 4t-16.5 3.5l6 22h268l-6 -25q-30 -6 -45 -11.5t-32.5 -23.5t-27.5 -50l-61 -189q-64 -197 72 -197q66 0 127.5 44t97.5 153l66 203q5 14 7 24.5t-0.5 18t-4 11.5t-9.5 7.5t-11.5 5t-16.5 4t-17 3.5z" />
    <glyph glyph-name="uring.sc" 
d="M477 621q-39 0 -65.5 26t-26.5 64t26.5 64.5t65.5 26.5t65.5 -26.5t26.5 -64.5t-26.5 -64t-65.5 -26zM477 667q19 0 32 12.5t13 31.5t-13 32t-32 13q-20 0 -32.5 -13t-12.5 -32t12.5 -31.5t32.5 -12.5zM273 -12q-35 0 -65 6.5t-57.5 24.5t-42 46.5t-14.5 76t20 108.5
l61 184q5 14 7 24.5t-0.5 18t-4 11.5t-9.5 7.5t-11.5 5t-16 4t-16.5 3.5l6 22h268l-6 -25q-30 -6 -45 -11.5t-32.5 -23.5t-27.5 -50l-61 -189q-64 -197 72 -197q66 0 127.5 44t97.5 153l66 203q5 14 7 24.5t-0.5 18t-4 11.5t-9.5 7.5t-11.5 5t-16.5 4t-17 3.5l6 22h202
l-8 -25q-33 -6 -49 -11.5t-34 -23.5t-28 -50l-62 -192q-77 -240 -291 -240z" />
    <glyph glyph-name="v.sc" horiz-adv-x="603" 
d="M514 530h173l-7 -25q-38 -7 -55.5 -17.5t-42.5 -43.5l-331 -444h-41l-43 445q-4 37 -13.5 45.5t-44.5 14.5l6 25h256l-6 -25q-42 -5 -62 -17.5t-17 -43.5l33 -294l222 302q12 16 14 26t-6 15.5t-16.5 7.5t-24.5 4z" />
    <glyph glyph-name="w.sc" horiz-adv-x="858" 
d="M186 -4l-18 447q-1 35 -13 45t-47 17l7 25h253l-7 -26q-37 -5 -56 -17t-19 -43l9 -290l143 217q35 49 31.5 86t-49.5 48l6 25h175q-13 -42 -13 -144l10 -231l172 259q18 28 24 45t-2.5 26t-21 12.5t-40.5 7.5l7 25h205l-8 -26q-39 -7 -56 -17t-39 -43l-307 -447h-43
l-16 358l-244 -359h-43z" />
    <glyph glyph-name="wacute.sc" horiz-adv-x="858" 
d="M514 598l-26 17q25 88 69 150q22 0 46.5 -18.5t32.5 -39.5q-56 -39 -122 -109zM186 -4l-18 447q-1 35 -13 45t-47 17l7 25h253l-7 -26q-37 -5 -56 -17t-19 -43l9 -290l143 217q35 49 31.5 86t-49.5 48l6 25h175q-13 -42 -13 -144l10 -231l172 259q18 28 24 45t-2.5 26
t-21 12.5t-40.5 7.5l7 25h205l-8 -26q-39 -7 -56 -17t-39 -43l-307 -447h-43l-16 358l-244 -359h-43z" />
    <glyph glyph-name="wcircumflex.sc" horiz-adv-x="858" 
d="M589 778l79 -151l-16 -14l-85 88l-141 -88l-10 13zM186 -4l-18 447q-1 35 -13 45t-47 17l7 25h253l-7 -26q-37 -5 -56 -17t-19 -43l9 -290l143 217q35 49 31.5 86t-49.5 48l6 25h175q-13 -42 -13 -144l10 -231l172 259q18 28 24 45t-2.5 26t-21 12.5t-40.5 7.5l7 25h205
l-8 -26q-39 -7 -56 -17t-39 -43l-307 -447h-43l-16 358l-244 -359h-43z" />
    <glyph glyph-name="wdieresis.sc" horiz-adv-x="858" 
d="M430 655q-24 0 -40 16.5t-16 39.5t16 39.5t40 16.5q23 0 39 -16.5t16 -39.5t-16 -39.5t-39 -16.5zM635 655q-23 0 -39.5 16.5t-16.5 39.5t16.5 39.5t39.5 16.5t39.5 -16.5t16.5 -39.5t-16.5 -39.5t-39.5 -16.5zM186 -4l-18 447q-1 35 -13 45t-47 17l7 25h253l-7 -26
q-37 -5 -56 -17t-19 -43l9 -290l143 217q35 49 31.5 86t-49.5 48l6 25h175q-13 -42 -13 -144l10 -231l172 259q18 28 24 45t-2.5 26t-21 12.5t-40.5 7.5l7 25h205l-8 -26q-39 -7 -56 -17t-39 -43l-307 -447h-43l-16 358l-244 -359h-43z" />
    <glyph glyph-name="wgrave.sc" horiz-adv-x="858" 
d="M512 598q-66 70 -122 109q8 21 32.5 39.5t47.5 18.5q44 -62 69 -150zM186 -4l-18 447q-1 35 -13 45t-47 17l7 25h253l-7 -26q-37 -5 -56 -17t-19 -43l9 -290l143 217q35 49 31.5 86t-49.5 48l6 25h175q-13 -42 -13 -144l10 -231l172 259q18 28 24 45t-2.5 26t-21 12.5
t-40.5 7.5l7 25h205l-8 -26q-39 -7 -56 -17t-39 -43l-307 -447h-43l-16 358l-244 -359h-43z" />
    <glyph glyph-name="x.sc" horiz-adv-x="652" 
d="M684 504q-46 -6 -70 -18t-67 -52l-153 -142l70 -202q12 -35 33.5 -46t70.5 -19l-9 -25h-288l7 25q44 8 60 20.5t4 46.5l-46 132l-140 -141q-23 -23 -26 -34t5 -15t35 -10l-6 -24h-205l8 25q51 8 75.5 19.5t65.5 49.5l176 165l-58 166q-15 46 -35.5 59.5t-66.5 19.5l8 26
h280l-8 -26q-18 -4 -27.5 -6.5t-20 -7.5t-14 -12.5t-3.5 -19t6 -27.5l36 -104l115 114q27 27 31.5 40t-5 16.5t-36.5 6.5l7 26h198z" />
    <glyph glyph-name="y.sc" horiz-adv-x="550" 
d="M474 530h181l-8 -24q-36 -6 -51 -16t-50 -49l-210 -222l-37 -116q-5 -17 -7.5 -28.5t2 -20t7 -13t15 -8.5t18 -5t24.5 -5l-7 -23h-278l8 25q29 5 41 8.5t29.5 12t27 23.5t17.5 39l35 104l-65 231q-11 39 -21 48.5t-42 14.5l7 24h246l-8 -24q-26 -5 -40.5 -10t-26 -19
t-5.5 -36l53 -182l174 193q14 16 18.5 26t-4.5 15.5t-16 7t-29 4.5q-4 1 -6 1z" />
    <glyph glyph-name="yacute.sc" horiz-adv-x="550" 
d="M529 707q-56 -39 -122 -109l-26 17q25 88 69 150q22 0 46.5 -18.5t32.5 -39.5zM474 530h181l-8 -24q-36 -6 -51 -16t-50 -49l-210 -222l-37 -116q-5 -17 -7.5 -28.5t2 -20t7 -13t15 -8.5t18 -5t24.5 -5l-7 -23h-278l8 25q29 5 41 8.5t29.5 12t27 23.5t17.5 39l35 104
l-65 231q-11 39 -21 48.5t-42 14.5l7 24h246l-8 -24q-26 -5 -40.5 -10t-26 -19t-5.5 -36l53 -182l174 193q14 16 18.5 26t-4.5 15.5t-16 7t-29 4.5q-4 1 -6 1z" />
    <glyph glyph-name="ycircumflex.sc" horiz-adv-x="550" 
d="M460 701l-141 -88l-10 13l173 152l79 -151l-16 -14zM474 530h181l-8 -24q-36 -6 -51 -16t-50 -49l-210 -222l-37 -116q-5 -17 -7.5 -28.5t2 -20t7 -13t15 -8.5t18 -5t24.5 -5l-7 -23h-278l8 25q29 5 41 8.5t29.5 12t27 23.5t17.5 39l35 104l-65 231q-11 39 -21 48.5
t-42 14.5l7 24h246l-8 -24q-26 -5 -40.5 -10t-26 -19t-5.5 -36l53 -182l174 193q14 16 18.5 26t-4.5 15.5t-16 7t-29 4.5q-4 1 -6 1z" />
    <glyph glyph-name="ydieresis.sc" horiz-adv-x="550" 
d="M323 655q-24 0 -40 16.5t-16 39.5t16 39.5t40 16.5q23 0 39 -16.5t16 -39.5t-16 -39.5t-39 -16.5zM528 655q-23 0 -39.5 16.5t-16.5 39.5t16.5 39.5t39.5 16.5t39.5 -16.5t16.5 -39.5t-16.5 -39.5t-39.5 -16.5zM474 530h181l-8 -24q-36 -6 -51 -16t-50 -49l-210 -222
l-37 -116q-5 -17 -7.5 -28.5t2 -20t7 -13t15 -8.5t18 -5t24.5 -5l-7 -23h-278l8 25q29 5 41 8.5t29.5 12t27 23.5t17.5 39l35 104l-65 231q-11 39 -21 48.5t-42 14.5l7 24h246l-8 -24q-26 -5 -40.5 -10t-26 -19t-5.5 -36l53 -182l174 193q14 16 18.5 26t-4.5 15.5t-16 7
t-29 4.5q-4 1 -6 1z" />
    <glyph glyph-name="ygrave.sc" horiz-adv-x="550" 
d="M405 598q-66 70 -122 109q8 21 32.5 39.5t47.5 18.5q44 -62 69 -150zM474 530h181l-8 -24q-36 -6 -51 -16t-50 -49l-210 -222l-37 -116q-5 -17 -7.5 -28.5t2 -20t7 -13t15 -8.5t18 -5t24.5 -5l-7 -23h-278l8 25q29 5 41 8.5t29.5 12t27 23.5t17.5 39l35 104l-65 231
q-11 39 -21 48.5t-42 14.5l7 24h246l-8 -24q-26 -5 -40.5 -10t-26 -19t-5.5 -36l53 -182l174 193q14 16 18.5 26t-4.5 15.5t-16 7t-29 4.5q-4 1 -6 1z" />
    <glyph glyph-name="z.sc" horiz-adv-x="556" 
d="M-21 0l-7 15l492 487l-147 -4q-70 -1 -109.5 -33.5t-66.5 -100.5h-26l55 172l58 -6h400l-506 -502l182 7q45 1 80.5 20.5t54.5 42t46 64.5h26q-58 -115 -73 -162h-459z" />
    <glyph glyph-name="zacute.sc" horiz-adv-x="556" 
d="M369 598l-26 17q25 88 69 150q22 0 46.5 -18.5t32.5 -39.5q-56 -39 -122 -109zM-21 0l-7 15l492 487l-147 -4q-70 -1 -109.5 -33.5t-66.5 -100.5h-26l55 172l58 -6h400l-506 -502l182 7q45 1 80.5 20.5t54.5 42t46 64.5h26q-58 -115 -73 -162h-459z" />
    <glyph glyph-name="zcaron.sc" horiz-adv-x="556" 
d="M394 612l-79 151l16 14l85 -88l141 88l10 -13zM-21 0l-7 15l492 487l-147 -4q-70 -1 -109.5 -33.5t-66.5 -100.5h-26l55 172l58 -6h400l-506 -502l182 7q45 1 80.5 20.5t54.5 42t46 64.5h26q-58 -115 -73 -162h-459z" />
    <glyph glyph-name="zdotaccent.sc" horiz-adv-x="556" 
d="M417 621q-27 0 -47 19t-20 45q0 27 20 45.5t47 18.5t46.5 -18.5t19.5 -45.5q0 -26 -20 -45t-46 -19zM-21 0l-7 15l492 487l-147 -4q-70 -1 -109.5 -33.5t-66.5 -100.5h-26l55 172l58 -6h400l-506 -502l182 7q45 1 80.5 20.5t54.5 42t46 64.5h26q-58 -115 -73 -162h-459z
" />
    <glyph glyph-name="zero.lf" horiz-adv-x="572" 
d="M216 -9q-77 0 -117.5 49t-40.5 134q0 78 29 161t77 149.5t116 109.5t140 43q77 0 117.5 -49t40.5 -134q0 -78 -29 -161t-77 -149.5t-116 -109.5t-140 -43zM234 28q45 0 91 51t78 124t52 152t20 136q0 110 -73 110q-59 0 -117.5 -85t-91.5 -192.5t-33 -185.5
q0 -110 74 -110z" />
    <glyph glyph-name="one.lf" horiz-adv-x="352" 
d="M-29 0l6 25q50 7 73.5 18.5t34.5 42.5l138 428q9 26 4 34.5t-26 3.5l-50 -10l7 24l191 80l13 -16l-177 -549q-10 -31 4 -41t60 -17l-5 -23h-273z" />
    <glyph glyph-name="two.lf" horiz-adv-x="527" 
d="M-33 0v30q16 12 58.5 42.5t66.5 48.5t65.5 49.5t67.5 54t60 53t55 56t41 53.5t29.5 54.5t9.5 50.5q0 33 -18.5 52t-56.5 19q-42 0 -93 -26.5t-100 -86.5l-20 28q52 79 124 119t142 40q62 0 98.5 -35.5t36.5 -94.5q0 -55 -30 -108t-84.5 -100t-105 -82.5t-118 -79
t-97.5 -65.5l159 5q57 1 96 21t80 78l26 -6l-107 -189h-27l4 19h-362z" />
    <glyph glyph-name="three.lf" horiz-adv-x="484" 
d="M114 -12q-52 0 -92 18t-40 52q0 42 44 42q16 0 28 -12t19 -27t24 -27t42 -12q70 0 139 69.5t69 138.5q0 43 -29.5 63.5t-75.5 20.5q-38 0 -97 -21l-3 30l78 33q87 36 138.5 73t51.5 85q0 29 -19 45.5t-52 16.5q-36 0 -84 -20.5t-92 -60.5l-15 29q54 57 118 85t122 28
q56 0 86 -26t30 -74q0 -61 -47 -100t-138 -80q57 1 95.5 -27.5t38.5 -86.5q0 -102 -107 -178.5t-232 -76.5z" />
    <glyph glyph-name="four.lf" horiz-adv-x="492" 
d="M511 640l-136 -419h86l-24 -46h-77l-31 -94q-10 -30 3 -40.5t53 -17.5l-5 -23h-254l5 25q44 7 66.5 18.5t32.5 42.5l29 89h-229l-7 22l453 443h35zM84 221h190l89 272z" />
    <glyph glyph-name="five.lf" horiz-adv-x="458" 
d="M500 541h-238l-94 -143q132 19 195 -24t63 -122q0 -70 -47 -132t-119 -97t-148 -35q-52 0 -91 18t-39 55q0 18 11 28.5t28 10.5q19 0 31.5 -12.5t19 -27.5t22.5 -27.5t40 -12.5q64 0 122.5 66t58.5 140q0 61 -48.5 93t-149.5 10l-13 20l180 281h153q44 0 70 6.5t46 26.5
h23z" />
    <glyph glyph-name="six.lf" horiz-adv-x="514" 
d="M199 -12q-76 0 -114.5 44.5t-38.5 121.5q0 111 70.5 221.5t181 182.5t221.5 79l10 -30q-95 -9 -187.5 -91.5t-148 -192.5t-55.5 -203q0 -96 68 -96q70 0 129 86.5t59 167.5q0 87 -86 87q-20 0 -50 -6l9 22q40 27 93 27q59 0 95.5 -37t36.5 -103q0 -108 -89.5 -194
t-203.5 -86z" />
    <glyph glyph-name="seven.lf" horiz-adv-x="464" 
d="M568 630l5 -20q-276 -295 -436 -610h-83q144 251 414 541h-189q-46 0 -74 -14t-66 -65h-25l112 185h21l-4 -17h325z" />
    <glyph glyph-name="eight.lf" horiz-adv-x="504" 
d="M381 346q79 -46 79 -126q0 -94 -85.5 -161.5t-193.5 -67.5q-73 0 -116.5 36.5t-43.5 100.5q0 66 46.5 120.5t123.5 87.5q-36 40 -36 96q0 84 68 144.5t157 60.5q63 0 97.5 -32.5t34.5 -82.5q0 -52 -36 -98t-95 -78zM377 604q-53 0 -90 -43t-37 -91q0 -61 66 -92l29 -14
q47 29 75 73.5t28 91.5q0 34 -18 54.5t-53 20.5zM187 25q66 0 117.5 51t51.5 110q0 30 -19 51t-64 43l-28 15q-17 9 -27 16q-60 -29 -93.5 -77.5t-33.5 -105.5q0 -48 26 -75.5t70 -27.5z" />
    <glyph glyph-name="nine.lf" horiz-adv-x="514" 
d="M379 637q76 0 114.5 -44.5t38.5 -121.5q0 -111 -70.5 -221.5t-181 -182.5t-221.5 -79l-10 31q95 9 187.5 91.5t148 192.5t55.5 203q0 96 -68 96q-70 0 -129 -86.5t-59 -167.5q0 -87 86 -87q26 0 50 6l-9 -23q-38 -26 -93 -26q-59 0 -95.5 36.5t-36.5 102.5
q0 108 89.5 194t203.5 86z" />
    <glyph glyph-name="zero.tf" horiz-adv-x="587" 
d="M228 -9q-78 0 -118.5 49t-40.5 134q0 105 48.5 212t134 179t179.5 72q78 0 118.5 -49t40.5 -134q0 -78 -29 -161t-77 -149.5t-116 -109.5t-140 -43zM246 28q45 0 91 51t78 124t52 152t20 136q0 110 -73 110q-59 0 -117.5 -85t-91.5 -192.5t-33 -185.5q0 -110 74 -110z
" />
    <glyph glyph-name="one.tf" horiz-adv-x="587" 
d="M89 0l5 25q50 7 73.5 18.5t34.5 42.5l138 428q9 26 4 34.5t-26 3.5l-50 -10l7 24l191 80l13 -16l-177 -549q-10 -31 4 -41t60 -17l-5 -23h-272z" />
    </font>
</defs>
</svg>
