<?xml version="1.0" standalone="no"?>
<!DOCTYPE svg PUBLIC "-//W3C//DTD SVG 1.1//EN" "http://www.w3.org/Graphics/SVG/1.1/DTD/svg11.dtd" >
<svg xmlns="http://www.w3.org/2000/svg" xmlns:xlink="http://www.w3.org/1999/xlink" version="1.1">
<metadata>
Created by FontForge 20170731 at Tue Jun  5 16:44:08 2018
 By Aleksey,,,
Copyright (c) 2018 by Connary Fagen. All rights reserved.
</metadata>
<defs>
<font id="AddingtonCF-Light" horiz-adv-x="556" >
  <font-face 
    font-family="Addington CF Light"
    font-weight="300"
    font-stretch="normal"
    units-per-em="1000"
    panose-1="0 0 4 0 0 0 0 0 0 0"
    ascent="800"
    descent="-200"
    x-height="440"
    cap-height="630"
    bbox="-176 -300 1108 895"
    underline-thickness="50"
    underline-position="-200"
    unicode-range="U+0020-FB02"
  />
<missing-glyph horiz-adv-x="488" 
d="M400 800v-975h-309v975h309zM325 735h-161v-32h63v-37h-64v-32h162v32h-65v37h65v32zM260 609h-97v-101h162v33h-65v68zM227 576v-35h-32v35h32zM325 481h-162v-32h64v-36h-64v-32h97v68h65v32zM325 423h-32v-65h-130v-33h162v98zM325 304h-98v-55h33v23h33v-46h-98v78
h-32v-110h162v110zM325 135h-162v-110h162v110zM293 103v-46h-98v46h98zM325 2h-162v-32h68l-68 -46v-32h162v32h-100l68 46h32v32z" />
    <glyph glyph-name="fi" unicode="fi" horiz-adv-x="596" 
d="M179 440v-7l107 9q-5 -18 -5 -43h-102v-327q0 -28 21.5 -37t68.5 -15q8 -1 12 -1v-19h-257v19q3 0 12 1.5t11.5 2.5t10 2.5t10.5 2.5t8.5 3.5t7.5 5t6 6t5.5 7.5t2.5 10t1 12v327h-75v21l75 15q4 114 79 184.5t189 70.5q138 0 138 -68v-2q0 -20 -15 -34t-35 -14
t-34.5 13.5t-15.5 33.5q0 42 -43 42q-76 0 -129.5 -57t-53.5 -164zM501 72q0 -16 4 -26t15.5 -15t19 -7t27.5 -5v-19h-208v19q25 4 35 6.5t20.5 14t10.5 32.5v246q0 30 -12.5 44t-53.5 19v17q63 10 121 58l21 -19v-365z" />
    <glyph glyph-name="fl" unicode="fl" horiz-adv-x="589" 
d="M487 72q0 -19 10.5 -30.5t22.5 -15t33 -6.5q5 -1 7 -1v-19h-222v19q48 8 60 20q13 11 13 33v487q0 38 -31 61.5t-87 23.5q-54 0 -84 -31t-30 -117v-63l122 9q-5 -18 -5 -43h-117v-327q0 -28 21.5 -37t68.5 -15q8 -1 12 -1v-19h-257v19q3 0 12 1.5t11.5 2.5t10 2.5
t10.5 2.5t8.5 3.5t7.5 5t6 6t5.5 7.5t2.5 10t1 12v327h-75v21l75 15q0 124 64 187t171 63q73 0 153 -30v-583z" />
    <glyph glyph-name="f_f" unicode="ff" horiz-adv-x="660" 
d="M633 698q71 0 93 -46q-1 -21 -14.5 -37.5t-34.5 -23.5q-24 65 -80 65q-36 0 -62.5 -32t-26.5 -114v-66l111 3h3h5q-5 -17 -5 -43h-114v-332q0 -28 21.5 -37t69.5 -15q7 -1 11 -1v-19h-258v19q50 9 61 18q14 11 14 35v332h-248v-332q0 -28 21.5 -37t68.5 -15q8 -1 12 -1
v-19h-257v19q3 0 12 1.5t11.5 2.5t10 2.5t10.5 2.5t8.5 3.5t7.5 5t6 6t5.5 7.5t2.5 10t1 12v332h-75v21l75 15h1q6 111 61 170t136 59q65 0 88 -47q-1 -22 -14.5 -38t-33.5 -22q-8 27 -29.5 46t-48.5 19q-30 0 -55 -32.5t-25 -114.5v-45l248 6v2q0 124 56.5 189.5
t149.5 65.5z" />
    <glyph glyph-name="f_f_i" unicode="ffi" horiz-adv-x="929" 
d="M696 661q-75 0 -128.5 -56t-54.5 -161l109 3q-5 -17 -5 -43h-104v-332q0 -28 21.5 -37t69.5 -15q7 -1 11 -1v-19h-257v19q3 0 12 1.5t11.5 2.5t10 2.5t10.5 2.5t8.5 3.5t7.5 5t6 6t5.5 7.5t2.5 10t1 12v332h-254v-332q0 -28 21.5 -37t68.5 -15q8 -1 12 -1v-19h-257v19
q3 0 12 1.5t11.5 2.5t10 2.5t10.5 2.5t8.5 3.5t7.5 5t6 6t5.5 7.5t2.5 10t1 12v332h-75v21l75 15h1q6 111 60 170t134 59q64 0 88 -47q-1 -22 -14.5 -38t-33.5 -22q-8 27 -29.5 46t-48.5 19q-30 0 -53.5 -32.5t-23.5 -114.5v-45l254 7q6 111 81 179.5t187 68.5
q138 0 138 -68v-2q0 -20 -15 -34t-35 -14t-34.5 13.5t-15.5 33.5q0 42 -43 42zM835 72q0 -16 4 -26t15.5 -15t19 -7t27.5 -5v-19h-209v19q20 3 27.5 5t19 7t15.5 15t4 26v246q0 30 -12.5 44t-53.5 19v17q64 9 122 58l21 -19v-365z" />
    <glyph glyph-name=".notdef" horiz-adv-x="488" 
d="M400 800v-975h-309v975h309zM325 735h-161v-32h63v-37h-64v-32h162v32h-65v37h65v32zM260 609h-97v-101h162v33h-65v68zM227 576v-35h-32v35h32zM325 481h-162v-32h64v-36h-64v-32h97v68h65v32zM325 423h-32v-65h-130v-33h162v98zM325 304h-98v-55h33v23h33v-46h-98v78
h-32v-110h162v110zM325 135h-162v-110h162v110zM293 103v-46h-98v46h98zM325 2h-162v-32h68l-68 -46v-32h162v32h-100l68 46h32v32z" />
    <glyph glyph-name=".null" horiz-adv-x="0" 
 />
    <glyph glyph-name="nonmarkingreturn" horiz-adv-x="333" 
 />
    <glyph glyph-name="space" unicode=" " horiz-adv-x="218" 
 />
    <glyph glyph-name="exclam" unicode="!" horiz-adv-x="210" 
d="M96 175l-39 420q-5 58 48 58q52 0 47 -58l-38 -420h-18zM114 -10q-22 0 -38.5 15.5t-16.5 38.5q0 22 16.5 37.5t38.5 15.5q23 0 40 -15.5t17 -37.5q0 -23 -16.5 -38.5t-40.5 -15.5z" />
    <glyph glyph-name="quotedbl" unicode="&#x22;" horiz-adv-x="274" 
d="M69 388l-30 190q-3 22 7 37t27 15q20 0 31.5 -15t7.5 -37l-32 -190h-11zM191 388l-29 190q-3 22 7 37t27 15q20 0 31.5 -15t7.5 -37l-33 -190h-11z" />
    <glyph glyph-name="numbersign" unicode="#" horiz-adv-x="568" 
d="M518 423h-99l-47 -203h101l-11 -43h-100l-47 -207h-47l48 207h-131l-47 -207h-47l48 207h-100l11 43h99l47 203h-101l11 43h99l48 206h46l-47 -206h130l48 206h46l-47 -206h100zM326 220l47 203h-131l-47 -203h131z" />
    <glyph glyph-name="dollar" unicode="$" horiz-adv-x="509" 
d="M465 179q0 -67 -56.5 -111t-138.5 -49v-81h-28v80q-92 2 -185 57l-8 115h22q17 -62 62.5 -103t108.5 -42v250l-13 6q-36 16 -61 30.5t-51.5 36t-40.5 49t-14 60.5q0 58 45 97t135 42v81h28v-81q21 -1 41 -4.5t33 -7t29.5 -11t21.5 -10t20 -11.5l15 -9l3 -117h-20
q-37 131 -143 142v-216q4 -1 12 -5q30 -14 47 -22t47 -27t46 -36.5t29.5 -45t13.5 -57.5zM142 499q0 -34 24.5 -60.5t75.5 -52.5v203q-48 -3 -74 -28t-26 -62zM270 47q47 6 76.5 37t29.5 74q0 41 -26.5 69t-79.5 55v-235z" />
    <glyph glyph-name="percent" unicode="%" horiz-adv-x="676" 
d="M533 630h58l-447 -630h-50l399 556q-86 -48 -186 5q5 -22 5 -43q0 -76 -47 -137t-113 -61q-47 0 -75 32.5t-28 85.5q0 74 49 133.5t117 59.5q29 0 50 -12q38 -21 64 -33.5t58 -21.5t55.5 -5.5t47.5 21t43 50.5zM170 349q46 0 80 54t34 116q0 41 -17 63.5t-45 22.5
q-47 0 -75 -56.5t-28 -118.5q0 -81 51 -81zM531 309q45 0 70.5 -30.5t25.5 -82.5q0 -76 -47 -137t-113 -61q-46 0 -74 32.5t-28 85.5q0 74 49 133.5t117 59.5zM486 27q45 0 79.5 54t34.5 116q0 41 -17 63.5t-46 22.5q-47 0 -75 -57t-28 -119q0 -80 52 -80z" />
    <glyph glyph-name="ampersand" unicode="&#x26;" horiz-adv-x="723" 
d="M511 66q21 -24 79.5 -13.5t103.5 45.5v-22q-35 -38 -86.5 -62.5t-92.5 -23.5q-6 0 -11 1t-10 3.5l-9 4.5t-9 6.5t-8 7t-9 9t-8.5 9.5t-9 11t-8.5 11q-84 -63 -191 -63q-75 0 -141.5 49t-66.5 131q0 117 151 187q-34 55 -34 101q0 69 49.5 111.5t116.5 42.5
q49 0 83.5 -23.5t34.5 -72.5q0 -93 -151 -181q1 -2 5 -6l159 -188q50 72 50 124q0 36 -87 36v27h268v-27q-47 1 -74.5 -8t-34.5 -37q-25 -90 -86 -158zM295 583q-34 0 -55 -22.5t-21 -70.5q0 -68 52 -139q54 39 76.5 80.5t22.5 74.5t-20.5 55t-54.5 22zM122 186
q0 -74 48.5 -119.5t103.5 -45.5q62 0 129 67l-169 203q-27 34 -32 41q-80 -55 -80 -146z" />
    <glyph glyph-name="quotesingle" unicode="'" horiz-adv-x="152" 
d="M69 388l-30 190q-3 22 7 37t27 15q20 0 31.5 -15t7.5 -37l-32 -190h-11z" />
    <glyph glyph-name="parenleft" unicode="(" horiz-adv-x="289" 
d="M255 -159q-206 158 -206 455t206 455l15 -6q-72 -73 -109.5 -188.5t-36.5 -260.5q3 -299 141 -444z" />
    <glyph glyph-name="parenright" unicode=")" horiz-adv-x="289" 
d="M34 -159l-10 11q138 145 141 444q1 145 -36.5 260.5t-109.5 188.5l15 6q206 -158 206 -455t-206 -455z" />
    <glyph glyph-name="asterisk" unicode="*" horiz-adv-x="378" 
d="M182 525l-22 55q-11 24 0 38t29 14q19 0 30 -14t1 -38l-22 -55q-3 -7 -8 -7t-8 7zM147 495l-58 11q-27 3 -33.5 21t4.5 30q10 17 25 19t36 -20l34 -47q6 -6 3 -11t-11 -3zM232 495q-7 -1 -10.5 4t1.5 10l36 47q20 22 35 20t26 -19q10 -12 3 -30t-34 -21zM59 407
q-11 12 -4 30t34 22l58 11q7 1 10 -4.5t-2 -10.5l-36 -47q-20 -21 -34.5 -19t-25.5 18zM320 407q-11 -16 -27 -18t-34 19l-36 47q-5 5 -1.5 10.5t10.5 4.5l57 -11q27 -4 34 -22t-3 -30zM189 332q-19 0 -29.5 13.5t0.5 38.5l20 55q3 7 9 7t9 -7l21 -55q11 -25 0 -38.5
t-30 -13.5z" />
    <glyph glyph-name="plus" unicode="+" horiz-adv-x="508" 
d="M439 274v-44h-162v-165h-44v165h-164v44h164v162h44v-162h162z" />
    <glyph glyph-name="comma" unicode="," horiz-adv-x="223" 
d="M48 -144l-9 17q34 15 54.5 38t25.5 47q3 11 -2 18.5t-7 8.5l-14 7q-31 18 -31 51q0 24 16 39t39 15q26 0 45 -20t19 -56q0 -49 -35.5 -97t-100.5 -68z" />
    <glyph glyph-name="hyphen" unicode="-" horiz-adv-x="403" 
d="M59 239v31h285v-31h-285z" />
    <glyph glyph-name="period" unicode="." horiz-adv-x="209" 
d="M104 -10q-22 0 -38.5 15.5t-16.5 38.5q0 22 16.5 37.5t38.5 15.5q23 0 40 -15.5t17 -37.5q0 -23 -16.5 -38.5t-40.5 -15.5z" />
    <glyph glyph-name="slash" unicode="/" horiz-adv-x="382" 
d="M29 -67l313 816l41 -18l-313 -816z" />
    <glyph glyph-name="zero" unicode="0" horiz-adv-x="546" 
d="M266 -9q-92 0 -159.5 62t-67.5 164q0 105 71 168.5t167 63.5q92 0 159.5 -62t67.5 -164q0 -105 -71.5 -168.5t-166.5 -63.5zM278 22q56 0 97.5 46.5t41.5 137.5q0 92 -44.5 152t-107.5 60q-56 0 -97.5 -46.5t-41.5 -137.5q0 -92 44 -152t108 -60z" />
    <glyph glyph-name="one" unicode="1" horiz-adv-x="354" 
d="M215 72q0 -13 5 -22t11 -14t21.5 -8.5t25 -5t32.5 -3.5v-19h-266v19q23 2 32.5 3.5t25 5t21.5 8.5t11 14t5 22v297q0 16 -5.5 25.5t-22 15t-27 7t-40.5 4.5v19h266v-19q-65 -7 -80 -18t-15 -34v-297z" />
    <glyph glyph-name="two" unicode="2" horiz-adv-x="448" 
d="M46 0l-7 19q15 13 54.5 44.5t60 48.5t51.5 47t47 51t28.5 47.5t12.5 50.5q0 35 -23 60.5t-71 25.5q-82 0 -129 -74l-18 10q23 57 72 88t109 31q65 0 106 -34t41 -87q0 -26 -10.5 -52t-31.5 -51t-40 -44.5t-50.5 -42t-47 -33t-45 -28.5t-30.5 -19h144q50 0 76.5 12
t43.5 53h20l-37 -134h-21l-2 11h-303z" />
    <glyph glyph-name="three" unicode="3" horiz-adv-x="470" 
d="M177 -190q-32 0 -60.5 5.5t-53 21.5t-24.5 42q0 18 11 26t25 8q15 0 30 -12t25 -26t28 -26t40 -12q49 0 99.5 44.5t50.5 113.5q0 64 -44 97t-105 33q-41 0 -90 -19l-10 25l72 34q75 35 106.5 62.5t31.5 72.5q0 39 -24 63.5t-73 24.5q-81 0 -139 -72l-17 15
q72 118 195 118q65 0 102 -35t36 -92q-1 -46 -30 -80.5t-85 -66.5q65 -5 111 -42t46 -109q0 -91 -74 -152.5t-180 -61.5z" />
    <glyph glyph-name="four" unicode="4" horiz-adv-x="514" 
d="M465 -5h-85v-99q0 -7 1 -13t4.5 -10.5t5.5 -8t8.5 -6.5t9 -4.5t11 -3.5t10.5 -2.5t13 -2t12 -1.5v-19h-231v19q49 8 61 18q14 11 14 34v99h-257l-13 18l333 442h18v-421h95zM77 34h222v296z" />
    <glyph glyph-name="five" unicode="5" horiz-adv-x="497" 
d="M113 216q84 18 146.5 8.5t103.5 -41.5t61 -73t20 -85q0 -87 -72.5 -151t-179.5 -64q-56 0 -104.5 16.5t-48.5 52.5q0 18 12 26t28 8t32.5 -12t28 -26t31.5 -26t44 -12q50 0 93 44.5t43 109.5q0 55 -30 100.5t-88 68t-143 -0.5l-20 19l95 262h170q49 0 70 4.5t36 23.5h17
l-31 -102h-257z" />
    <glyph glyph-name="six" unicode="6" horiz-adv-x="552" 
d="M283 -12q-111 0 -173 77.5t-61 191.5q1 151 111.5 261.5t248.5 118.5l13 -23q-51 -5 -100 -31t-90.5 -71t-67 -116t-25.5 -156q0 -98 38.5 -160t105.5 -62q63 0 101 52.5t38 128.5q0 85 -54 131.5t-165 24.5v22q121 50 215.5 -2.5t94.5 -165.5q0 -94 -64.5 -157.5
t-165.5 -63.5z" />
    <glyph glyph-name="seven" unicode="7" horiz-adv-x="497" 
d="M462 440l11 -15q-196 -306 -268 -615h-76q81 258 276 556h-228q-34 0 -49.5 -2.5t-34.5 -18.5t-36 -51h-18l50 163h18l2 -17h353z" />
    <glyph glyph-name="eight" unicode="8" horiz-adv-x="548" 
d="M363 342q59 -22 97.5 -64.5t38.5 -104.5q0 -79 -64.5 -134t-163.5 -55q-98 0 -160 49.5t-62 128.5q0 110 122 169q-82 50 -82 139q0 66 50.5 113t134.5 47q81 0 129 -43t48 -104q0 -81 -88 -141zM276 604q-56 0 -81 -33t-25 -78q0 -34 20.5 -65.5t61.5 -46.5l72 -25
q61 48 61 122q0 49 -25.5 87.5t-83.5 38.5zM281 12q67 0 100 36.5t33 96.5q0 57 -29 85.5t-97 52.5l-67 24l-16 6q-84 -52 -84 -146q0 -67 41.5 -111t118.5 -44z" />
    <glyph glyph-name="nine" unicode="9" horiz-adv-x="552" 
d="M269 449q111 0 173 -77.5t61 -191.5q-1 -151 -111.5 -261.5t-248.5 -118.5l-13 23q51 5 100 31t90.5 71t67 116t25.5 156q0 99 -38.5 160.5t-105.5 61.5q-63 0 -100.5 -52t-37.5 -128q0 -86 53.5 -132.5t164.5 -23.5v-22q-83 -31 -152 -20t-113.5 62.5t-44.5 125.5
q0 93 64.5 156.5t165.5 63.5z" />
    <glyph glyph-name="colon" unicode=":" horiz-adv-x="211" 
d="M104 328q-22 0 -38.5 15.5t-16.5 37.5q0 23 16.5 38.5t38.5 15.5q24 0 40.5 -15.5t16.5 -38.5q0 -22 -17 -37.5t-40 -15.5zM105 -10q-22 0 -38.5 15.5t-16.5 38.5q0 22 16.5 37.5t38.5 15.5q23 0 40 -15.5t17 -37.5q0 -23 -16.5 -38.5t-40.5 -15.5z" />
    <glyph glyph-name="semicolon" unicode=";" horiz-adv-x="230" 
d="M135 327q-23 0 -39.5 15.5t-16.5 37.5q0 23 16.5 38.5t39.5 15.5t39.5 -15.5t16.5 -38.5q0 -22 -16.5 -37.5t-39.5 -15.5zM48 -144l-9 17q34 15 54.5 38t25.5 47q3 11 -2 18.5t-7 8.5l-14 7q-31 18 -31 51q0 24 16 39t39 15q26 0 45 -20t19 -56q0 -49 -35.5 -97
t-100.5 -68z" />
    <glyph glyph-name="less" unicode="&#x3c;" horiz-adv-x="504" 
d="M435 58q-192 104 -366 171v44q174 67 366 171v-50q-114 -65 -317 -143q210 -83 317 -144v-49z" />
    <glyph glyph-name="equal" unicode="=" horiz-adv-x="508" 
d="M69 320v44h370v-44h-370zM69 140v44h370v-44h-370z" />
    <glyph glyph-name="greater" unicode="&#x3e;" horiz-adv-x="504" 
d="M69 58v49q102 58 317 144q-208 81 -317 143v50q192 -104 366 -171v-44q-174 -67 -366 -171z" />
    <glyph glyph-name="question" unicode="?" horiz-adv-x="440" 
d="M196 188q-13 39 -7 64.5t25.5 57t40.5 57t37.5 63.5t16.5 77q0 118 -137 118q-32 0 -43 -30q-20 -48 -33 -65.5t-32 -17.5q-35 0 -35 35q0 48 69 79.5t143 31.5q79 0 119.5 -42t40.5 -111q0 -46 -20 -83.5t-48 -62.5t-56 -48.5t-46 -54.5t-16 -68h-19zM207 -12
q-22 0 -38.5 16t-16.5 38t16.5 38t38.5 16q23 0 40 -16t17 -38t-17 -38t-40 -16z" />
    <glyph glyph-name="at" unicode="@" horiz-adv-x="800" 
d="M588 103q-14 0 -28 2.5t-31.5 9.5t-28 23.5t-10.5 41.5q-50 -74 -131 -74q-55 0 -89 35.5t-34 103.5q0 90 57.5 148.5t129.5 58.5q81 0 103 -83l14 70h54l-46 -236q-6 -36 9 -56.5t43 -20.5q40 0 78 49.5t38 133.5q0 129 -82 211.5t-210 82.5q-136 0 -220 -94t-84 -229
q0 -136 81 -228t211 -92q100 0 186 47l15 -15q-95 -60 -206 -60q-150 0 -254 101t-104 247q0 148 106.5 251.5t263.5 103.5q143 0 237.5 -93.5t94.5 -232.5q0 -96 -46.5 -151t-116.5 -55zM383 136q41 0 76.5 41t47.5 99l3 11q3 18 3 37q0 46 -21 75.5t-60 29.5
q-55 0 -90 -56t-35 -128q0 -54 21.5 -81.5t54.5 -27.5z" />
    <glyph glyph-name="A" unicode="A" horiz-adv-x="697" 
d="M607 77q14 -33 27 -41.5t54 -16.5v-19h-242v19l17.5 3.5t17 4l13.5 4.5t11.5 6.5t6 9t2 13t-5.5 17.5l-54 126h-268l-53 -128q-4 -9 -5 -16.5t2 -12.5t5.5 -8.5t11 -6.5t13 -4.5t17 -4l17.5 -3.5v-19h-185v19q50 10 60 17q14 12 25 38l234 563h36zM198 234h242l-124 287z
" />
    <glyph glyph-name="B" unicode="B" horiz-adv-x="626" 
d="M404 331q178 -38 178 -161q0 -84 -72.5 -127t-207.5 -43h-273v19q51 10 64 20q19 16 19 59v434q0 23 -3.5 37t-17.5 22.5t-20.5 10.5t-33.5 7q-5 1 -8 2v19h273q112 0 174.5 -38t62.5 -110q0 -110 -135 -151zM446 471q0 54 -38 90t-126 36q-49 -1 -65.5 -12t-16.5 -37
v-204h97q76 0 112.5 34t36.5 93zM312 33q87 0 128 36t41 93q0 63 -49.5 107.5t-153.5 44.5h-78v-205q0 -39 24 -57.5t88 -18.5z" />
    <glyph glyph-name="C" unicode="C" horiz-adv-x="654" 
d="M383 -12q-146 0 -240 92t-94 238q0 142 94 235t249 93q118 0 195 -46q4 -91 7 -135h-33q-34 148 -187 148q-103 0 -164 -70t-61 -198q0 -139 79.5 -225.5t195.5 -86.5q43 0 89.5 13t73.5 42l18 -19q-32 -35 -91 -58t-131 -23z" />
    <glyph glyph-name="D" unicode="D" horiz-adv-x="676" 
d="M269 630q73 0 136 -17.5t113.5 -53.5t79.5 -97.5t29 -142.5q0 -161 -100.5 -240t-257.5 -79h-240v19q51 10 64 20q19 16 19 59v434q0 23 -3.5 37t-17.5 22.5t-20.5 10.5t-33.5 7q-5 1 -8 2v19h240zM297 34q232 0 232 275q0 287 -270 287h-59v-466q0 -53 20.5 -74.5
t76.5 -21.5z" />
    <glyph glyph-name="E" unicode="E" horiz-adv-x="580" 
d="M523 147h24l-41 -147h-477v19q51 10 64 20q19 16 19 59v434q0 23 -3.5 37t-17.5 22.5t-20.5 10.5t-33.5 7q-5 1 -8 2v19h475l9 -139h-24q-7 57 -27 81.5t-71 24.5h-97q-59 0 -76.5 -13t-17.5 -63v-187h85q86 0 110 17t29 67h18v-199h-18q-5 50 -29 67t-110 17h-85v-194
q0 -50 17.5 -63t76.5 -13h76q59 0 92 24.5t61 89.5z" />
    <glyph glyph-name="F" unicode="F" horiz-adv-x="538" 
d="M495 630l9 -139h-24q-7 57 -27 81.5t-71 24.5h-88q-59 0 -76.5 -13t-17.5 -63v-187h67q86 0 110 17t29 67h18v-199h-18q-5 50 -29 67t-110 17h-67v-205q0 -23 3.5 -37t17.5 -22.5t20.5 -10.5t33.5 -7q5 -1 8 -2v-19h-254v19q51 10 64 20q19 16 19 59v434q0 23 -3.5 37
t-17.5 22.5t-20.5 10.5t-33.5 7q-5 1 -8 2v19h466z" />
    <glyph glyph-name="G" unicode="G" horiz-adv-x="719" 
d="M414 -12q-172 0 -268.5 92t-96.5 238q0 142 94 235t250 93q123 0 200 -46q4 -91 7 -135h-33q-34 148 -188 148q-105 0 -167.5 -72.5t-62.5 -195.5q0 -143 76 -233.5t209 -90.5q52 0 71 22.5t19 79.5v51q0 67 -21 87t-88 25v23h260v-23q-39 -5 -55 -19.5t-16 -52.5v-69
q0 -26 3 -46t7 -36l5 -20q-21 -22 -79 -38.5t-126 -16.5z" />
    <glyph glyph-name="H" unicode="H" horiz-adv-x="695" 
d="M666 611q-51 -10 -64 -20q-19 -16 -19 -59v-434q0 -23 3.5 -37t17.5 -22.5t20.5 -10.5t33.5 -7q5 -1 8 -2v-19h-254v19q51 10 64 20q19 16 19 59v202h-295v-202q0 -23 3.5 -37t17.5 -22.5t20.5 -10.5t33.5 -7q5 -1 8 -2v-19h-254v19q51 10 64 20q19 16 19 59v434
q0 23 -3.5 37t-17.5 22.5t-20.5 10.5t-33.5 7q-5 1 -8 2v19h254v-19q-51 -10 -64 -20q-19 -16 -19 -59v-201h295v201q0 23 -3.5 37t-17.5 22.5t-20.5 10.5t-33.5 7q-5 1 -8 2v19h254v-19z" />
    <glyph glyph-name="I" unicode="I" horiz-adv-x="312" 
d="M29 0v19q51 10 64 20q19 16 19 59v434q0 23 -3.5 37t-17.5 22.5t-20.5 10.5t-33.5 7q-5 1 -8 2v19h254v-19q-51 -10 -64 -20q-19 -16 -19 -59v-434q0 -23 3.5 -37t17.5 -22.5t20.5 -10.5t33.5 -7q5 -1 8 -2v-19h-254z" />
    <glyph glyph-name="J" unicode="J" horiz-adv-x="310" 
d="M5 -185q-3 10 0 23q68 24 86.5 56.5t18.5 113.5v524q0 52 -32 66q-12 5 -54 13v19h258v-19q-51 -10 -64 -20q-19 -16 -19 -59v-534q0 -85 -53.5 -126.5t-140.5 -56.5z" />
    <glyph glyph-name="K" unicode="K" horiz-adv-x="670" 
d="M571 54q15 -21 29.5 -28t56.5 -7v-19h-172q0 28 -28 67l-181 258l-76 -74v-153q0 -23 3.5 -37t17.5 -22.5t20.5 -10.5t33.5 -7q5 -1 8 -2v-19h-254v19q51 10 64 20q19 16 19 59v434q0 23 -3.5 37t-17.5 22.5t-20.5 10.5t-33.5 7q-5 1 -8 2v19h254v-19q-51 -10 -64 -20
q-19 -16 -19 -59v-229l258 254q23 22 11.5 38t-52.5 16v19h214v-19q-31 0 -55 -8.5t-34.5 -17t-30.5 -28.5l-177 -174z" />
    <glyph glyph-name="L" unicode="L" horiz-adv-x="578" 
d="M29 0v19q51 10 64 20q19 16 19 59v434q0 23 -3.5 37t-17.5 22.5t-20.5 10.5t-33.5 7q-5 1 -8 2v19h273v-19q-3 -1 -18.5 -3.5t-19.5 -3.5t-16.5 -4.5t-16.5 -6.5l-12 -9t-11 -13t-5.5 -17t-2.5 -22v-424q0 -50 17.5 -63t76.5 -13h79q59 0 91.5 26.5t61.5 94.5h23
l-41 -153h-479z" />
    <glyph glyph-name="M" unicode="M" horiz-adv-x="852" 
d="M741 98q1 -25 5.5 -39t18.5 -22t22.5 -10.5t35.5 -7.5v-19h-254v19q52 10 65 20q21 16 19 59l-19 452l-216 -550h-30l-220 509l-19 -411q-1 -23 3 -37t18.5 -22.5t23.5 -10.5t36 -7q7 -1 10 -2v-19h-211v19q51 10 63 20q19 16 21 59l21 434q1 23 -3 37t-16.5 22t-22 11
t-32.5 7q-7 1 -10 2v19h162q2 -13 31 -77l187 -431l166 431q25 66 27 77h179v-19q-52 -10 -65 -20q-19 -17 -17 -59z" />
    <glyph glyph-name="N" unicode="N" horiz-adv-x="701" 
d="M459 630h214v-19q-52 -10 -65 -20q-20 -17 -20 -59v-532h-38l-397 531v-433q0 -23 4 -37t19 -22.5t22 -10.5t36 -7q6 -1 9 -2v-19h-214v19q52 10 65 20q20 16 20 59v434q0 23 -4 37t-17.5 22.5t-21.5 10.5t-33 7q-2 1 -3 1t-3 0.5t-3 0.5v19h157l363 -482v384q0 23 -4 37
t-19 22.5t-22 10.5t-36 7q-6 1 -9 2v19z" />
    <glyph glyph-name="O" unicode="O" horiz-adv-x="733" 
d="M365 -12q-137 0 -226.5 94t-89.5 233q0 138 90.5 234.5t229.5 96.5q137 0 226 -94t89 -232q0 -140 -90 -236t-229 -96zM382 21q87 0 146.5 73t59.5 196q0 139 -69 231t-167 92q-87 0 -147 -73t-60 -195q0 -141 69.5 -232.5t167.5 -91.5z" />
    <glyph glyph-name="P" unicode="P" horiz-adv-x="595" 
d="M29 0v19q51 10 64 20q19 16 19 59v434q0 23 -3.5 37t-17.5 22.5t-20.5 10.5t-33.5 7q-5 1 -8 2v19h234q293 0 293 -185q0 -97 -81.5 -147.5t-229.5 -50.5q-12 0 -12 16t12 16q215 0 215 160q0 74 -45.5 116t-141.5 42q-43 0 -58 -11t-15 -35v-453q0 -23 3.5 -37
t17.5 -22.5t20.5 -10.5t33.5 -7q5 -1 8 -2v-19h-254z" />
    <glyph glyph-name="Q" unicode="Q" horiz-adv-x="715" 
d="M777 -87q14 -3 14 -17q-74 -71 -152 -71q-55 0 -121 40l-172 105q-22 14 -74 31q-1 1 -3.5 1t-3.5 1q-1 0 -3 1q-97 32 -155 116t-58 195q0 138 90.5 234.5t229.5 96.5q137 0 226 -94t89 -232q0 -119 -67.5 -209t-177.5 -115q21 -6 51 -25l76 -49q61 -43 118 -43
q47 0 93 34zM145 345q0 -141 69.5 -232.5t167.5 -91.5q87 0 146.5 73t59.5 196q0 139 -69 231t-167 92q-87 0 -147 -73t-60 -195z" />
    <glyph glyph-name="R" unicode="R" horiz-adv-x="651" 
d="M498 116q35 -54 66.5 -80.5t68.5 -15.5v-20q-29 -16 -60 -16q-52 0 -87 24t-71 80l-78 120q-26 39 -55.5 54.5t-81.5 17.5v-182q0 -23 3.5 -37t17.5 -22.5t20.5 -10.5t33.5 -7q5 -1 8 -2v-19h-254v19q51 10 64 20q19 16 19 59v434q0 23 -3.5 37t-17.5 22.5t-20.5 10.5
t-33.5 7q-5 1 -8 2v19h242q272 0 272 -173q0 -144 -193 -171q47 -12 85 -72zM279 597q-47 0 -63 -11t-16 -35v-239h75q95 0 136 36t41 103q0 146 -173 146z" />
    <glyph glyph-name="S" unicode="S" horiz-adv-x="509" 
d="M248 -12q-93 0 -191 63l-8 127h22q17 -70 64 -115t112 -45q56 0 92.5 35t36.5 89t-35.5 87t-111.5 70q-36 18 -61 34t-51.5 39.5t-40.5 54t-14 66.5q0 66 48.5 109.5t144.5 43.5q24 0 46 -3.5t36.5 -7t31.5 -12t23.5 -12t21.5 -13.5t16 -11l3 -128h-20q-18 69 -57.5 113
t-103.5 44q-53 0 -81.5 -28t-28.5 -71q0 -44 34 -77t106 -68q27 -14 39 -20.5t39 -22.5t41 -30.5t31.5 -35t25 -45t7.5 -52.5q0 -79 -63.5 -128.5t-153.5 -49.5z" />
    <glyph glyph-name="T" unicode="T" horiz-adv-x="607" 
d="M570 640l8 -174h-18q-11 73 -40 104.5t-105 31.5h-68v-504q0 -20 5 -33t9.5 -20.5t22 -13t26.5 -7t38 -5.5v-19h-290v19q29 4 38 5.5t26.5 7t22 13t9.5 20.5t5 33v504h-64q-78 0 -107.5 -31.5t-40.5 -104.5h-18l8 174l48 -10h437z" />
    <glyph glyph-name="U" unicode="U" horiz-adv-x="717" 
d="M357 -12q-35 0 -66 5.5t-65 23t-58 45t-40 76t-16 112.5v282q0 23 -3.5 37t-17.5 22.5t-20.5 10.5t-33.5 7q-5 1 -8 2v19h255v-19q-51 -10 -64 -20q-19 -16 -19 -59v-293q0 -209 175 -209q33 0 61.5 8t58 27.5t46.5 60t17 98.5v308q0 23 -4 37t-17.5 22.5t-21.5 10.5
t-33 7q-2 1 -3 1t-3 0.5t-3 0.5v19h215v-19q-56 -10 -69 -20q-21 -16 -21 -59v-288q0 -72 -21 -124t-57 -79.5t-76.5 -40t-87.5 -12.5z" />
    <glyph glyph-name="V" unicode="V" horiz-adv-x="697" 
d="M503 630h185v-19q-50 -10 -60 -17q-14 -10 -25 -38l-234 -563h-36l-243 560q-14 33 -27 41.5t-54 16.5v19h242v-19l-17.5 -3.5t-17 -4l-13.5 -4.5t-11.5 -6.5t-6 -9t-2 -13t5.5 -17.5l192 -444l183 446q4 9 5 16.5t-2 12.5t-5.5 8.5t-11 6.5t-13 4.5t-17 4l-17.5 3.5v19z
" />
    <glyph glyph-name="W" unicode="W" horiz-adv-x="1000" 
d="M303 -8l-211 557q-12 32 -25.5 40.5t-57.5 16.5v22h237v-22q-5 -1 -15.5 -3.5t-15.5 -4t-12.5 -4.5t-11 -6.5t-6.5 -9t-2.5 -13t3.5 -16.5l160 -432l121 345q17 48 -2 91t-70 55v22h148q0 -38 37 -139l136 -373l138 389q9 24 9.5 41t-3.5 27t-18 16.5t-27.5 9.5t-39.5 7
v22h217v-22q-32 -6 -42.5 -9.5t-21.5 -14t-19 -33.5l-202 -558h-34l-173 463l-164 -464h-33z" />
    <glyph glyph-name="X" unicode="X" horiz-adv-x="711" 
d="M568 82q24 -35 45.5 -45t78.5 -18v-19h-274v19q50 9 57 18q10 12 -12 44l-134 200l-140 -197q-6 -8 -9.5 -15t-6.5 -12.5t-2 -9.5t0.5 -7t4 -5.5t6.5 -4t9.5 -3.5t11 -2.5t14 -2.5t14.5 -3v-19h-212v19q66 9 82 18q22 12 46 46l163 226l-157 233q-27 39 -48 50t-75 19v19
h266v-19q-32 -6 -43.5 -10.5t-12.5 -18.5t17 -40l118 -174l125 176q12 16 15 27t3 17t-12 11t-19 6.5t-29 5.5v19h206v-19q-54 -8 -75 -18.5t-48 -48.5l-147 -204z" />
    <glyph glyph-name="Y" unicode="Y" horiz-adv-x="648" 
d="M441 630h194v-19q-40 -8 -53 -16.5t-35 -45.5l-174 -280v-168q0 -25 4.5 -39t20.5 -22t26 -10.5t42 -7.5v-22h-275v22q59 10 73 21q20 15 20 58v159l-183 289q-24 37 -36 45.5t-51 16.5v19h242v-19q-17 -4 -25.5 -6.5t-19.5 -7.5t-14 -10.5t-3 -15.5t8 -22l153 -247
l150 247q10 17 11.5 27.5t-9 16.5t-19 8.5t-31.5 6.5q-11 2 -16 3v19z" />
    <glyph glyph-name="Z" unicode="Z" horiz-adv-x="588" 
d="M40 0l-11 15l395 592l-216 -4q-72 -1 -100.5 -31t-33.5 -101h-22v165l56 -6h442l-404 -607l245 4q69 1 97 32t43 102h23q-19 -102 -19 -161h-495z" />
    <glyph glyph-name="bracketleft" unicode="[" horiz-adv-x="273" 
d="M244 -166l-175 7v911l175 7v-17l-99 -14v-863l99 -14v-17z" />
    <glyph glyph-name="backslash" unicode="\" horiz-adv-x="382" 
d="M353 -67l-41 -18l-313 816l41 18z" />
    <glyph glyph-name="bracketright" unicode="]" horiz-adv-x="273" 
d="M29 -166v17l98 14v863l-98 14v17l175 -7v-911z" />
    <glyph glyph-name="asciicircum" unicode="^" horiz-adv-x="450" 
d="M62 369l-13 10l176 267l176 -267l-14 -10l-162 200z" />
    <glyph glyph-name="underscore" unicode="_" horiz-adv-x="613" 
d="M49 -51l2 31h513l-2 -31h-513z" />
    <glyph glyph-name="grave" unicode="`" horiz-adv-x="160" 
d="M132 514q-75 84 -117 114q6 15 27.5 30t38.5 15q34 -48 69 -145z" />
    <glyph glyph-name="a" unicode="a" horiz-adv-x="501" 
d="M407 90q0 -24 21.5 -28.5t53.5 13.5v-21q-25 -36 -75 -61q-33 0 -54.5 25t-21.5 58q-88 -83 -180 -83q-53 0 -85 29.5t-32 76.5q0 25 10 45t24.5 33t41.5 25.5t50.5 20t61.5 18.5q39 11 55.5 16t32 14t21.5 21v13q0 61 -29 84.5t-96 23.5q-33 0 -45 -28
q-20 -48 -32.5 -65.5t-31.5 -17.5q-36 0 -36 35q0 32 36.5 58.5t86 40t96.5 13.5q68 0 97.5 -37t29.5 -114v-208zM199 45q38 0 74.5 20.5t57.5 49.5v127l-107 -31q-60 -17 -83.5 -38.5t-23.5 -54.5q0 -37 23.5 -55t58.5 -18z" />
    <glyph glyph-name="b" unicode="b" horiz-adv-x="536" 
d="M257 -9q-80 0 -130 41.5t-50 114.5v403q0 53 -73 63v17q73 15 129 57l20 -19v-315q25 41 70 68.5t98 27.5q74 0 125.5 -58t51.5 -154q0 -111 -69.5 -178.5t-171.5 -67.5zM256 22q67 0 115 46t48 137q0 84 -41 134.5t-104 50.5q-42 0 -73.5 -21t-47.5 -51v-183
q0 -49 25 -81t78 -32z" />
    <glyph glyph-name="c" unicode="c" horiz-adv-x="477" 
d="M264 -9q-96 0 -160.5 61.5t-64.5 162.5q0 105 66.5 169.5t166.5 64.5q68 0 113.5 -29t45.5 -70q0 -22 -12.5 -32.5t-29.5 -10.5q-40 0 -60 67q-13 47 -63 47q-56 0 -100.5 -44.5t-44.5 -129.5q0 -86 50.5 -142.5t129.5 -56.5q85 0 123 61l16 -9q-18 -52 -65.5 -80.5
t-110.5 -28.5z" />
    <glyph glyph-name="d" unicode="d" horiz-adv-x="551" 
d="M457 85q0 -30 12.5 -44.5t53.5 -21.5v-19h-137l8 91h-12q-26 -43 -68 -71.5t-94 -28.5q-75 0 -128 57.5t-53 152.5q0 108 71.5 178t169.5 70q59 0 100 -29v130q0 29 -16 43.5t-59 19.5v17q80 15 132 57l20 -19v-583zM265 49q48 0 76 29t39 68v202q-7 29 -34.5 50
t-71.5 21q-65 0 -111.5 -46.5t-46.5 -133.5q0 -86 43.5 -138t105.5 -52z" />
    <glyph glyph-name="e" unicode="e" horiz-adv-x="482" 
d="M424 108l16 -9q-18 -52 -64.5 -80t-109.5 -28q-96 0 -161.5 62t-65.5 163t62 167t159 66q100 0 147.5 -67.5t24.5 -132.5h-314q1 -87 51 -143.5t133 -56.5q85 0 122 59zM249 419q-50 0 -86.5 -37t-43.5 -103h240q7 50 -22.5 95t-87.5 45z" />
    <glyph glyph-name="f" unicode="f" horiz-adv-x="331" 
d="M305 698q70 0 93 -46q-1 -21 -15 -37.5t-35 -23.5q-24 65 -79 65q-36 0 -63 -32t-27 -114v-72l114 9q-5 -17 -5 -43h-109v-332q0 -28 21.5 -37t68.5 -15q8 -1 12 -1v-19h-257v19q3 0 12 1.5t11.5 2.5t10 2.5t10.5 2.5t8.5 3.5t7.5 5t6 6t5.5 7.5t2.5 10t1 12v332h-75v21
l75 15v3q0 124 56.5 189.5t149.5 65.5z" />
    <glyph glyph-name="g" unicode="g" horiz-adv-x="493" 
d="M454 429v-46l-86 11q33 -36 33 -87q0 -61 -47.5 -100.5t-122.5 -40.5h-48q-19 0 -30.5 -11t-11.5 -29q0 -40 44 -45l112 -10q90 -9 121 -24.5t31 -58.5q0 -77 -72 -126t-177 -50q-87 -1 -131.5 31.5t-44.5 82.5q0 20 29.5 48t69.5 48q-60 22 -60 70q0 15 30 46t55 43
q-42 17 -66 50t-24 76q0 62 48.5 102t122.5 40q40 0 77 -13q27 -7 148 -7zM229 190q50 0 70.5 36.5t20.5 80.5t-20.5 80.5t-70.5 36.5t-70.5 -36.5t-20.5 -80.5t20.5 -80.5t70.5 -36.5zM290 0l-103 9h-2q-41 4 -63.5 -20t-22.5 -57t27.5 -59.5t97.5 -26.5q78 0 115.5 32
t37.5 75q0 27 -18.5 35t-68.5 12z" />
    <glyph glyph-name="h" unicode="h" horiz-adv-x="564" 
d="M475 72q0 -16 4 -26t15.5 -15t19 -7t27.5 -5v-19h-209v19q20 3 27.5 5t19 7t15.5 15t4 26v222q0 97 -86 97q-75 0 -134 -69v-250q0 -16 4 -26t15.5 -15t19 -7t27.5 -5v-19h-215v19q48 8 60 20q13 11 13 33v478q0 53 -73 63v17q77 16 129 57l20 -19v-315q73 96 175 96
q67 0 94.5 -40.5t27.5 -113.5v-223z" />
    <glyph glyph-name="i" unicode="i" horiz-adv-x="266" 
d="M125 572q-20 0 -35 14t-15 34t15 34.5t35 14.5t35.5 -14.5t15.5 -34.5t-15 -34t-36 -14zM29 0v19q20 3 27.5 5t19 7t15.5 15t4 26v246q0 30 -12.5 44t-53.5 19v17q65 10 121 58l21 -19v-365q0 -16 4 -26t15.5 -15t19 -7t27.5 -5v-19h-208z" />
    <glyph glyph-name="j" unicode="j" horiz-adv-x="245" 
d="M121 572q-20 0 -35 14t-15 34t15 34.5t35 14.5t35 -14.5t15 -34.5t-15 -34t-35 -14zM3 -185q-10 10 0 23q46 17 66 47.5t20 98.5v334q0 30 -12.5 44t-53.5 19v17q18 3 31 7t25.5 10.5t19.5 10.5t22 14.5t23 15.5l21 -19v-454q0 -81 -47 -120t-115 -48z" />
    <glyph glyph-name="k" unicode="k" horiz-adv-x="533" 
d="M448 55q13 -18 27.5 -24.5t48.5 -10.5v-20h-143q0 21 -18 50l-128 183l-57 -55v-106q0 -19 10.5 -30.5t22.5 -15t33 -6.5q5 -1 7 -1v-19h-222v19q48 8 60 20q13 11 13 33v478q0 53 -73 63v17q77 16 129 57l20 -19v-443l146 141q23 22 14 36t-48 18v20h194v-20
q-68 -6 -109 -50l-90 -87z" />
    <glyph glyph-name="l" unicode="l" horiz-adv-x="280" 
d="M29 0v19q48 8 60 20q13 11 13 33v478q0 53 -73 63v17q77 16 129 57l20 -19v-596q0 -19 10.5 -30.5t22.5 -15t33 -6.5q5 -1 7 -1v-19h-222z" />
    <glyph glyph-name="m" unicode="m" horiz-adv-x="805" 
d="M24 0v19q20 3 28.5 5t19 7t14.5 15t4 26v256q0 30 -12.5 42.5t-53.5 10.5v17q46 7 73.5 19.5t61.5 38.5l20 -19l-24 -84h11q71 96 159 96q45 0 72.5 -26.5t36.5 -69.5h9q63 96 152 96q61 0 90.5 -45.5t29.5 -108.5v-223q0 -30 14.5 -39t52.5 -14v-19h-212v19q28 4 39.5 7
t20.5 14t9 32v221q0 45 -20.5 71.5t-60.5 26.5q-66 0 -117 -71v-248q0 -30 14 -39t52 -14v-19h-211v19q28 4 39.5 7t20.5 14t9 32v221q0 44 -21.5 71t-58.5 27q-67 0 -119 -70v-249q0 -16 4 -26t15.5 -15t19 -7t27.5 -5v-19h-208z" />
    <glyph glyph-name="n" unicode="n" horiz-adv-x="552" 
d="M24 0v19q20 3 27.5 5t19 7t15.5 15t4 26v246q0 30 -12.5 44t-53.5 19v17q46 7 73.5 19.5t61.5 38.5l20 -19l-24 -84h11q76 96 175 96q67 0 94.5 -40.5t27.5 -113.5v-223q0 -16 4 -26t15.5 -15t19 -7t27.5 -5v-19h-209v19q20 3 27.5 5t19 7t15.5 15t4 26v220q0 99 -87 99
q-75 0 -133 -70v-249q0 -16 4 -26t15.5 -15t19 -7t27.5 -5v-19h-208z" />
    <glyph glyph-name="o" unicode="o" horiz-adv-x="543" 
d="M266 -9q-92 0 -159.5 62t-67.5 164q0 105 71 168.5t167 63.5q92 0 159.5 -62t67.5 -164q0 -105 -71.5 -168.5t-166.5 -63.5zM278 22q56 0 97.5 46.5t41.5 137.5q0 92 -44.5 152t-107.5 60q-56 0 -97.5 -46.5t-41.5 -137.5q0 -92 44 -152t108 -60z" />
    <glyph glyph-name="p" unicode="p" horiz-adv-x="548" 
d="M335 449q72 0 123 -58t51 -154q0 -110 -67.5 -178t-170.5 -68q-58 0 -100 24v-116q0 -32 16.5 -41t63.5 -14v-19h-227v19q23 3 32 4.5t20.5 7t15 16t3.5 27.5v419q0 30 -13.5 44t-57.5 19v17q50 9 78.5 21.5t57.5 36.5l20 -19l-39 -113h19q23 49 69.5 87t105.5 38z
M279 22q61 0 106.5 46t45.5 141q0 80 -35 130.5t-96 50.5q-41 0 -72.5 -24t-44 -50t-12.5 -45v-114q0 -56 25.5 -95.5t82.5 -39.5z" />
    <glyph glyph-name="q" unicode="q" horiz-adv-x="540" 
d="M450 -104q0 -16 3.5 -25.5t14.5 -15t19 -7t29 -4.5v-19h-229v19q53 5 69.5 13t16.5 39v181q-60 -86 -153 -86q-76 0 -128.5 57t-52.5 153q0 110 75.5 179t190.5 69q61 0 105 -22l40 13v-544zM265 48q74 0 108 75v220q0 31 -29.5 53t-73.5 22q-63 0 -108.5 -46.5
t-45.5 -133.5q0 -85 43.5 -137.5t105.5 -52.5z" />
    <glyph glyph-name="r" unicode="r" horiz-adv-x="391" 
d="M24 0v19q22 3 31.5 5t21 7t15 15t3.5 26v247q0 30 -13.5 44t-57.5 18v17q50 8 78 20.5t58 37.5l20 -19l-32 -119h22q34 69 68.5 103.5t81.5 34.5q23 0 42 -8v-81q-36 12 -63 12q-59 0 -93.5 -39t-34.5 -101v-167q0 -30 15.5 -39t58.5 -14v-19h-221z" />
    <glyph glyph-name="s" unicode="s" horiz-adv-x="399" 
d="M184 -9q-47 0 -87 13.5t-56 26.5l-2 91h27q30 -101 127 -101q43 0 68.5 20t25.5 56q0 13 -3 23t-10 18.5t-13.5 14t-19.5 12t-20.5 10t-25 10t-24.5 9.5q-58 23 -93.5 53t-35.5 80q0 55 42 88.5t118 33.5q69 0 125 -38l-2 -89h-24q-27 97 -111 97q-39 0 -60 -19.5
t-21 -49.5q0 -31 23.5 -49.5t73.5 -38.5q2 -1 18 -7t20.5 -7.5t20 -8.5t21 -10.5t18.5 -11t18.5 -13.5t14.5 -15.5t13 -19t7 -21t3 -24.5q0 -56 -48.5 -94.5t-127.5 -38.5z" />
    <glyph glyph-name="t" unicode="t" horiz-adv-x="325" 
d="M172 110q0 -25 13.5 -38t34.5 -13.5t41 3.5t40 12v-22q-49 -29 -132 -62q-28 0 -50.5 25.5t-22.5 57.5v331h-72v21q78 32 124 105h24v-95l124 14q-5 -17 -5 -45h-119v-294z" />
    <glyph glyph-name="u" unicode="u" horiz-adv-x="553" 
d="M213 -9q-128 0 -128 154v229q0 18 -8.5 27.5t-19 12.5t-33.5 7v19q81 -4 137 6v-298q0 -97 87 -97q74 0 139 55v268q0 18 -8.5 27.5t-19 12.5t-33.5 7v19q81 -4 137 6v-361q0 -30 12.5 -44.5t53.5 -21.5v-19h-136l6 77h-12q-88 -86 -174 -86z" />
    <glyph glyph-name="v" unicode="v" horiz-adv-x="503" 
d="M336 440h159v-19q-34 -4 -46 -11.5t-24 -36.5l-158 -379h-29l-161 379q-13 30 -24 37t-44 11v19h207v-19q-46 -7 -54 -18t0 -30l116 -283l107 266q6 15 6 26.5t-4 18t-13.5 11t-17 6t-20.5 3.5v19z" />
    <glyph glyph-name="w" unicode="w" horiz-adv-x="783" 
d="M223 -6l-145 384q-9 26 -21.5 33t-47.5 10v19h208v-19q-46 -6 -54 -18q-6 -9 0 -25l102 -277l95 232q15 41 2 66q-5 12 -16 15.5t-34 6.5v19h135q0 -35 18 -79l100 -261l96 237q8 21 8.5 36.5t-4 23.5t-17 13.5t-23.5 7.5t-30 3v19h179v-19q-34 -3 -46 -10t-23 -33
l-151 -384h-29l-134 340l-139 -340h-29z" />
    <glyph glyph-name="x" unicode="x" horiz-adv-x="527" 
d="M421 63q17 -24 33.5 -32t53.5 -12v-19h-222v19q16 2 24 4t16.5 7t8 13t-9.5 20l-87 124l-94 -124q-9 -12 -10.5 -20t8 -13t14.5 -6t24 -4q3 -1 5 -1v-19h-166v19q38 4 53 11t34 33l115 148l-114 164q-17 25 -33 33.5t-49 12.5v19h213v-19q-15 -2 -23.5 -4.5t-15.5 -7.5
t-6.5 -13.5t9.5 -20.5l76 -109l84 109q10 13 11 21.5t-8.5 13.5t-17.5 6.5t-25 4.5v19h160v-19q-33 -4 -47.5 -11.5t-34.5 -34.5l-104 -134z" />
    <glyph glyph-name="y" unicode="y" horiz-adv-x="501" 
d="M335 440h157v-19q-33 -4 -44.5 -11t-23.5 -35l-179 -419q-11 -27 -19.5 -44t-24.5 -42t-36 -38t-44 -13q-32 0 -63 23v55q128 -8 155 59l22 51l-159 369q-11 27 -22.5 34t-44.5 11v19h204v-19q-46 -7 -55 -17q-8 -10 0 -28l116 -277l118 276q3 14 3.5 21.5t-10 12.5
t-19 7t-23.5 4q-5 1 -8 1v19z" />
    <glyph glyph-name="z" unicode="z" horiz-adv-x="449" 
d="M40 0l-11 15l283 403l-137 -3q-84 -1 -94 -103h-21v134l59 -6h298l-291 -417l142 3q62 1 89 26t41 77h23q-19 -68 -19 -129h-362z" />
    <glyph glyph-name="braceleft" unicode="{" horiz-adv-x="284" 
d="M247 -161q-74 25 -99 75t-25 129v155q0 21 -5.5 36t-19 25.5t-25 16t-34.5 13.5v14q23 8 34.5 13.5t25 16t19 25t5.5 35.5v155q0 79 25 129t99 75l8 -15q-20 -9 -32 -24.5t-17 -44.5t-6 -51t-1 -69v-130q0 -58 -27.5 -83.5t-76.5 -36.5v-5q49 -11 76.5 -36.5t27.5 -83.5
v-130q0 -47 1 -69t6 -51t17 -44.5t32 -24.5z" />
    <glyph glyph-name="bar" unicode="|" horiz-adv-x="191" 
d="M79 -175v821h33v-821h-33z" />
    <glyph glyph-name="braceright" unicode="}" horiz-adv-x="284" 
d="M37 -161l-8 15q20 9 32 24.5t17 44.5t6 51t1 69v130q0 58 27.5 83.5t76.5 36.5v5q-49 11 -76.5 36.5t-27.5 83.5v130q0 47 -1 69t-6 51t-17 44.5t-32 24.5l8 15q74 -25 99 -75t25 -129v-155q0 -21 5.5 -35.5t19 -25t25 -16t34.5 -13.5v-14q-23 -8 -34.5 -13.5t-25 -16
t-19 -25.5t-5.5 -36v-155q0 -79 -25 -129t-99 -75z" />
    <glyph glyph-name="asciitilde" unicode="~" horiz-adv-x="449" 
d="M297 192q-37 0 -64.5 17t-50.5 34.5t-49 17.5q-31 0 -47 -13.5t-16 -30.5h-19q-10 40 21 70t81 30q45 0 89 -35t75 -35q30 0 46.5 14t16.5 31h18q10 -41 -20 -70.5t-81 -29.5z" />
    <glyph glyph-name="exclamdown" unicode="&#xa1;" horiz-adv-x="210" 
d="M114 455q24 0 40.5 -15.5t16.5 -38.5q0 -22 -17 -37.5t-40 -15.5q-22 0 -38.5 15.5t-16.5 37.5q0 23 16.5 38.5t38.5 15.5zM96 271h18l38 -421q5 -58 -47 -58q-53 0 -48 58z" />
    <glyph glyph-name="cent" unicode="&#xa2;" horiz-adv-x="477" 
d="M424 109l16 -9q-18 -52 -65.5 -80.5t-110.5 -28.5q-34 0 -72 10l-17 -62h-27l19 71q-59 26 -93.5 79t-34.5 126q0 105 66.5 169.5t166.5 64.5h15l19 70h27l-20 -73q53 -9 85.5 -35.5t32.5 -60.5q0 -22 -12.5 -32.5t-29.5 -10.5q-40 0 -60 67q-8 26 -25 37l-93 -339
q42 -24 90 -24q85 0 123 61zM121 247q0 -102 68 -159l90 332q-4 1 -13 1q-56 0 -100.5 -44.5t-44.5 -129.5z" />
    <glyph glyph-name="sterling" unicode="&#xa3;" horiz-adv-x="586" 
d="M520 174q27 -19 27 -57q0 -47 -32 -81t-69 -47t-69 -13q-42 0 -105 41t-102 41q-65 0 -108 -63l-23 23q55 53 85.5 109.5t30.5 134.5v32h-96l6 35h90v53q0 124 61.5 189.5t162.5 65.5q85 0 109 -48q-1 -21 -14.5 -37.5t-34.5 -22.5q-10 27 -39.5 46.5t-68.5 19.5
q-41 0 -65.5 -31t-24.5 -115v-120h186l-6 -35h-180v-32q0 -116 -72 -167q23 9 64 9q32 0 63 -12.5t51 -28t45 -28t47 -12.5q38 0 38 41q0 31 -20 59z" />
    <glyph glyph-name="currency" unicode="&#xa4;" horiz-adv-x="595" 
d="M503 228q0 -77 -50 -137l58 -57l-22 -21l-58 57q-57 -51 -135 -51q-74 0 -133 49l-57 -55l-21 21l56 56q-50 60 -50 138t49 136l-55 54l21 23l56 -56q56 51 134 51q77 0 137 -52l56 57l22 -23l-57 -56q49 -57 49 -134zM122 228q0 -75 51 -128t124 -53t125 53.5t52 127.5
t-52 126.5t-125 52.5t-124 -52.5t-51 -126.5z" />
    <glyph glyph-name="yen" unicode="&#xa5;" horiz-adv-x="648" 
d="M441 630h194v-19q-40 -8 -53 -16.5t-35 -45.5l-160 -257h133v-32h-147v-57h147v-32h-147v-70q0 -25 4.5 -39t20.5 -22t26 -10.5t42 -7.5v-22h-275v22q59 10 73 21q20 15 20 58v70h-159v32h159v57h-159v32h139l-163 257q-24 37 -36 45.5t-51 16.5v19h242v-19
q-17 -4 -25.5 -6.5t-19.5 -7.5t-14 -10.5t-3 -15.5t8 -22l153 -247l150 247q10 17 11.5 27.5t-9 16.5t-19 8.5t-31.5 6.5q-11 2 -16 3v19z" />
    <glyph glyph-name="brokenbar" unicode="&#xa6;" horiz-adv-x="191" 
d="M79 315v331h33v-331h-33zM79 -175v331h33v-331h-33z" />
    <glyph glyph-name="section" unicode="&#xa7;" horiz-adv-x="489" 
d="M332 86q89 -56 89 -130q0 -58 -44 -97t-130 -39q-19 0 -36 1.5t-31 5.5l-24.5 7t-22 9.5t-16.5 9.5t-15.5 10t-12.5 8l-3 98h18q16 -49 53.5 -85t92.5 -36q47 0 72.5 25t25.5 58q0 35 -30.5 62t-97.5 62q-83 44 -113 69q-58 51 -58 116q0 51 31 87.5t83 52.5
q-87 54 -87 130q0 56 44 96t127 40q24 0 44 -3.5t37 -10.5t26.5 -12t24 -14.5t17.5 -11.5l3 -98h-18q-16 49 -51.5 86t-85.5 37q-46 0 -70.5 -25.5t-24.5 -58.5q0 -35 30 -62.5t95 -60.5q85 -44 115 -72q56 -50 56 -114q0 -51 -30.5 -87.5t-82.5 -52.5zM130 267
q0 -48 34 -78.5t104 -67.5l27 -14q69 21 69 93q0 47 -34 78.5t-104 67.5l-24 12q-33 -9 -52.5 -33t-19.5 -58z" />
    <glyph glyph-name="dieresis" unicode="&#xa8;" horiz-adv-x="293" 
d="M53 578q-19 0 -31.5 12t-12.5 31t12.5 31.5t31.5 12.5t31.5 -12.5t12.5 -31.5t-12.5 -31t-31.5 -12zM239 578q-19 0 -31 12t-12 31t12 31.5t31 12.5q20 0 32.5 -12.5t12.5 -31.5t-12.5 -31t-32.5 -12z" />
    <glyph glyph-name="copyright" unicode="&#xa9;" horiz-adv-x="681" 
d="M341 25q-121 0 -206.5 85.5t-85.5 206.5q0 120 85.5 205.5t206.5 85.5q120 0 205.5 -85.5t85.5 -205.5q0 -121 -85.5 -206.5t-205.5 -85.5zM341 47q109 0 187.5 80t78.5 190t-78.5 189.5t-187.5 79.5q-110 0 -189 -79.5t-79 -189.5t79 -190t189 -80zM353 149
q-77 0 -125.5 47t-48.5 120q0 74 47.5 121.5t127.5 47.5q65 0 103 -24l4 -69h-17q-18 74 -97 74q-54 0 -86 -36t-32 -100q0 -69 41.5 -112t102.5 -43q56 0 82 27l9 -12q-39 -41 -111 -41z" />
    <glyph glyph-name="ordfeminine" unicode="&#xaa;" horiz-adv-x="347" 
d="M270 402q0 -14 14 -17t34 9v-14q-15 -24 -49 -39q-21 0 -34.5 16t-13.5 37q-58 -53 -117 -53q-33 0 -53.5 18.5t-20.5 49.5q0 16 7 29t15 20.5t27.5 16.5t31 12.5t39.5 12.5q37 10 51 16.5t20 17.5v7q0 40 -18.5 55t-62.5 15q-20 0 -28 -18q-12 -30 -21 -41.5t-20 -11.5
q-23 0 -23 22q0 31 46 52t95 21q43 0 62 -23.5t19 -73.5v-136zM135 375q24 0 48 13t38 31v83l-69 -21q-39 -11 -54.5 -25t-15.5 -35q0 -23 15.5 -34.5t37.5 -11.5zM50 245v25h248v-25h-248z" />
    <glyph glyph-name="guillemotleft" unicode="&#xab;" horiz-adv-x="414" 
d="M49 227l154 136l9 -12l-96 -124l96 -123l-10 -12zM203 227l153 136l9 -12l-95 -124l95 -123l-9 -12z" />
    <glyph glyph-name="logicalnot" unicode="&#xac;" horiz-adv-x="560" 
d="M491 364v-221h-44v177h-378v44h422z" />
    <glyph glyph-name="uni00AD" unicode="&#xad;" horiz-adv-x="403" 
d="M59 239v31h285v-31h-285z" />
    <glyph glyph-name="registered" unicode="&#xae;" horiz-adv-x="681" 
d="M341 25q-121 0 -206.5 85.5t-85.5 206.5q0 120 85.5 205.5t206.5 85.5q120 0 205.5 -85.5t85.5 -205.5q0 -121 -85.5 -206.5t-205.5 -85.5zM341 47q109 0 187.5 80t78.5 190t-78.5 189.5t-187.5 79.5q-110 0 -189 -79.5t-79 -189.5t79 -190t189 -80zM465 156
q-24 0 -40 11.5t-34 38.5l-38 58q-22 31 -35 36v12q94 0 94 67q0 32 -22.5 51t-65.5 19q-22 0 -29.5 -6t-7.5 -18v-213q0 -16 6 -24t12 -9.5t22 -4.5v-11h-123v11q16 3 22 4.5t12 9.5t6 24v207q0 15 -6 23t-11 9t-23 5v11h117q136 0 136 -83q0 -34 -26.5 -55.5t-63.5 -26.5
q22 -15 47 -55l17 -29q31 -47 51 -48v-11q-6 -3 -17 -3z" />
    <glyph glyph-name="macron" unicode="&#xaf;" horiz-adv-x="303" 
d="M4 604l15 33h280l-15 -33h-280z" />
    <glyph glyph-name="degree" unicode="&#xb0;" horiz-adv-x="365" 
d="M179 375q-53 0 -91.5 36t-38.5 95q0 61 41 97.5t96 36.5q53 0 91.5 -36t38.5 -95q0 -61 -41.5 -97.5t-95.5 -36.5zM187 396q29 0 52 26.5t23 77.5t-24 85t-60 34q-30 0 -53 -26.5t-23 -77.5q0 -52 25 -85.5t60 -33.5z" />
    <glyph glyph-name="plusminus" unicode="&#xb1;" horiz-adv-x="508" 
d="M277 375h162v-44h-162v-165h-44v165h-164v44h164v162h44v-162zM69 9v44h370v-44h-370z" />
    <glyph glyph-name="uni00B2" unicode="&#xb2;" horiz-adv-x="276" 
d="M42 393l-3 11q5 4 20 17t21 18t19 17t19.5 19t16.5 18t15 19t10.5 17.5t8 18.5t2.5 18q0 20 -12 34t-35 14q-41 0 -66 -42l-11 7q12 31 38.5 48.5t58.5 17.5q35 0 58 -20t23 -50q0 -23 -17 -48t-35 -40t-45.5 -35.5t-32.5 -24.5h66q27 0 40.5 6.5t22.5 29.5h13l-19 -70
h-176z" />
    <glyph glyph-name="uni00B3" unicode="&#xb3;" horiz-adv-x="263" 
d="M108 384q-27 0 -48 7.5t-21 22.5t17 15q9 0 25.5 -15.5t33.5 -15.5q23 0 42 16.5t19 44.5q0 27 -18 40.5t-45 13.5q-17 0 -36 -7l-5 12l31 12q32 12 45.5 22.5t13.5 28.5q0 32 -41 32t-64 -27l-10 8q32 47 92 47q29 0 47.5 -14t18.5 -37q0 -33 -56 -58q31 -2 53 -17
t22 -45q0 -37 -34 -61.5t-82 -24.5z" />
    <glyph glyph-name="acute" unicode="&#xb4;" horiz-adv-x="155" 
d="M28 514l-18 14q35 97 69 145q17 0 38.5 -15t27.5 -30q-42 -30 -117 -114z" />
    <glyph glyph-name="paragraph" unicode="&#xb6;" horiz-adv-x="654" 
d="M296 630h329v-19q-51 -10 -64 -20q-19 -16 -19 -59v-567q0 -63 -37.5 -101.5t-112.5 -38.5h-53v726q0 24 -11.5 35t-41.5 11q-73 0 -115 -49t-42 -119t41 -115t119 -45q12 0 12 -16t-12 -16q-111 0 -185.5 54t-74.5 144t75.5 142.5t191.5 52.5zM454 -35v586q0 27 -8.5 38
t-27.5 11q-18 0 -26.5 -11t-8.5 -38v-698q44 3 57.5 31.5t13.5 80.5z" />
    <glyph glyph-name="periodcentered" unicode="&#xb7;" horiz-adv-x="210" 
d="M114 244q-22 0 -38.5 15.5t-16.5 37.5q0 23 16.5 38.5t38.5 15.5q24 0 40.5 -15.5t16.5 -38.5q0 -22 -17 -37.5t-40 -15.5z" />
    <glyph glyph-name="cedilla" unicode="&#xb8;" horiz-adv-x="227" 
d="M68 -212l5 21q44 0 67 13t23 33q0 47 -106 47l50 98h39l-27 -53q44 0 71.5 -20.5t27.5 -54.5q0 -36 -35.5 -60t-114.5 -24z" />
    <glyph glyph-name="uni00B9" unicode="&#xb9;" horiz-adv-x="213" 
d="M44 398v10q22 2 30 6t8 16v165q0 11 -4 14.5t-12 1.5l-20 -5v11l77 33l8 -6v-214q0 -12 8 -16t30 -6v-10h-125z" />
    <glyph glyph-name="ordmasculine" unicode="&#xba;" horiz-adv-x="351" 
d="M172 340q-60 0 -103 39.5t-43 105.5q0 68 46 109t107 41q60 0 103.5 -40t43.5 -106q0 -68 -46.5 -108.5t-107.5 -40.5zM181 360q36 0 62.5 29.5t26.5 88.5t-28 97.5t-70 38.5q-37 0 -64 -29.5t-27 -88.5t29 -97.5t71 -38.5zM50 245v25h250v-25h-250z" />
    <glyph glyph-name="guillemotright" unicode="&#xbb;" horiz-adv-x="414" 
d="M204 227l-153 -135l-9 12l95 123l-95 124l9 12zM358 227l-153 -135l-10 12l96 123l-96 124l9 12z" />
    <glyph glyph-name="onequarter" unicode="&#xbc;" horiz-adv-x="620" 
d="M192 408v-10h-125v10q22 2 30 6t8 16v165q0 11 -4 14.5t-12 1.5l-20 -5v11l77 33l8 -6v-214q0 -12 8 -16t30 -6zM492 636h28l-432 -641h-28zM535 32q0 -12 7.5 -16t29.5 -6v-10h-124v10q22 2 29.5 6t7.5 16v34h-108l-4 20l116 160h46v-160h37l-4 -20h-33v-34zM393 86h92
v127z" />
    <glyph glyph-name="onehalf" unicode="&#xbd;" horiz-adv-x="629" 
d="M67 398v10q22 2 30 6t8 16v165q0 11 -4 14.5t-12 1.5l-20 -5v11l77 33l8 -6v-214q0 -12 8 -16t30 -6v-10h-125zM60 -5l432 641h28l-432 -641h-28zM386 0l-3 11q5 4 20 17t21 18t19 17t19.5 19t16.5 18t15 19t10.5 17.5t8 18.5t2.5 18q0 20 -12 34t-35 14q-41 0 -66 -42
l-11 7q12 31 38.5 48.5t58.5 17.5q35 0 58 -20t23 -50q0 -23 -17 -48t-35 -40t-45.5 -35.5t-32.5 -24.5h66q27 0 40.5 6.5t22.5 29.5h13l-19 -70h-176z" />
    <glyph glyph-name="threequarters" unicode="&#xbe;" horiz-adv-x="716" 
d="M224 470q0 -37 -34 -61.5t-82 -24.5q-27 0 -48 7.5t-21 22.5t17 15q9 0 25.5 -15.5t33.5 -15.5q23 0 42 16.5t19 44.5q0 27 -18 40.5t-45 13.5q-17 0 -36 -7l-5 12l31 12q32 12 45.5 22.5t13.5 28.5q0 32 -41 32t-64 -27l-10 8q32 47 92 47q29 0 47.5 -14t18.5 -37
q0 -33 -56 -58q31 -2 53 -17t22 -45zM545 636h28l-432 -641h-28zM640 32q0 -12 7.5 -16t29.5 -6v-10h-124v10q22 2 29.5 6t7.5 16v34h-108l-4 20l116 160h46v-160h37l-4 -20h-33v-34zM498 86h92v127z" />
    <glyph glyph-name="questiondown" unicode="&#xbf;" horiz-adv-x="450" 
d="M243 455q23 0 39.5 -15.5t16.5 -38.5q0 -22 -16.5 -37.5t-39.5 -15.5t-39.5 15.5t-16.5 37.5q0 23 16.5 38.5t39.5 15.5zM254 255q19 -37 3.5 -79t-41 -71t-50 -75.5t-24.5 -93.5q0 -118 137 -118q30 0 43 31q19 47 32.5 65t32.5 18q14 0 24 -8.5t10 -27.5
q0 -48 -69 -79.5t-142 -31.5q-80 0 -120.5 42t-40.5 111q0 46 20 83.5t48 62.5t56 48.5t46.5 54.5t16.5 68h18z" />
    <glyph glyph-name="Agrave" unicode="&#xc0;" horiz-adv-x="697" 
d="M355 704q-75 84 -117 114q6 15 27.5 30t38.5 15q34 -48 69 -145zM607 77q14 -33 27 -41.5t54 -16.5v-19h-242v19l17.5 3.5t17 4l13.5 4.5t11.5 6.5t6 9t2 13t-5.5 17.5l-54 126h-268l-53 -128q-4 -9 -5 -16.5t2 -12.5t5.5 -8.5t11 -6.5t13 -4.5t17 -4l17.5 -3.5v-19h-185
v19q50 10 60 17q14 12 25 38l234 563h36zM198 234h242l-124 287z" />
    <glyph glyph-name="Aacute" unicode="&#xc1;" horiz-adv-x="697" 
d="M454 818q-42 -30 -117 -114l-18 14q35 97 69 145q17 0 38.5 -15t27.5 -30zM607 77q14 -33 27 -41.5t54 -16.5v-19h-242v19l17.5 3.5t17 4l13.5 4.5t11.5 6.5t6 9t2 13t-5.5 17.5l-54 126h-268l-53 -128q-4 -9 -5 -16.5t2 -12.5t5.5 -8.5t11 -6.5t13 -4.5t17 -4l17.5 -3.5
v-19h-185v19q50 10 60 17q14 12 25 38l234 563h36zM198 234h242l-124 287z" />
    <glyph glyph-name="Acircumflex" unicode="&#xc2;" horiz-adv-x="697" 
d="M349 809l-124 -95l-12 9l136 153l136 -152l-13 -10zM607 77q14 -33 27 -41.5t54 -16.5v-19h-242v19l17.5 3.5t17 4l13.5 4.5t11.5 6.5t6 9t2 13t-5.5 17.5l-54 126h-268l-53 -128q-4 -9 -5 -16.5t2 -12.5t5.5 -8.5t11 -6.5t13 -4.5t17 -4l17.5 -3.5v-19h-185v19
q50 10 60 17q14 12 25 38l234 563h36zM198 234h242l-124 287z" />
    <glyph glyph-name="Atilde" unicode="&#xc3;" horiz-adv-x="697" 
d="M208 756h-17q-9 39 19 67.5t74 28.5q33 0 57.5 -17t45.5 -34.5t46 -17.5q27 0 42 13t15 28h17q9 -39 -19 -68t-73 -29q-27 0 -48.5 11t-34 24t-30.5 24t-37 11q-27 0 -42 -13t-15 -28zM607 77q14 -33 27 -41.5t54 -16.5v-19h-242v19l17.5 3.5t17 4l13.5 4.5t11.5 6.5t6 9
t2 13t-5.5 17.5l-54 126h-268l-53 -128q-4 -9 -5 -16.5t2 -12.5t5.5 -8.5t11 -6.5t13 -4.5t17 -4l17.5 -3.5v-19h-185v19q50 10 60 17q14 12 25 38l234 563h36zM198 234h242l-124 287z" />
    <glyph glyph-name="Adieresis" unicode="&#xc4;" horiz-adv-x="697" 
d="M256 768q-19 0 -31.5 12t-12.5 31t12 31.5t32 12.5t32 -12.5t12 -31.5t-12.5 -31t-31.5 -12zM442 768q-19 0 -31 12t-12 31t12 31.5t31 12.5q20 0 32.5 -12.5t12.5 -31.5t-12.5 -31t-32.5 -12zM607 77q14 -33 27 -41.5t54 -16.5v-19h-242v19l17.5 3.5t17 4l13.5 4.5
t11.5 6.5t6 9t2 13t-5.5 17.5l-54 126h-268l-53 -128q-4 -9 -5 -16.5t2 -12.5t5.5 -8.5t11 -6.5t13 -4.5t17 -4l17.5 -3.5v-19h-185v19q50 10 60 17q14 12 25 38l234 563h36zM198 234h242l-124 287z" />
    <glyph glyph-name="Aring" unicode="&#xc5;" horiz-adv-x="697" 
d="M350 727q-35 0 -60 24.5t-25 59.5t25 59.5t60 24.5t59.5 -24.5t24.5 -59.5t-24.5 -59.5t-59.5 -24.5zM350 862q-21 0 -35.5 -15t-14.5 -36t14.5 -36t35.5 -15q20 0 35 15.5t15 35.5q0 21 -15 36t-35 15zM607 77q14 -33 27 -41.5t54 -16.5v-19h-242v19l17.5 3.5t17 4
l13.5 4.5t11.5 6.5t6 9t2 13t-5.5 17.5l-54 126h-268l-53 -128q-4 -9 -5 -16.5t2 -12.5t5.5 -8.5t11 -6.5t13 -4.5t17 -4l17.5 -3.5v-19h-185v19q50 10 60 17q14 12 25 38l234 563h36zM198 234h242l-124 287z" />
    <glyph glyph-name="AE" unicode="&#xc6;" horiz-adv-x="891" 
d="M833 147h24l-41 -147h-476v19q51 10 64 20q19 16 19 59v121h-212l-78 -135q-6 -11 -9 -19.5t-0.5 -15t4.5 -10t12 -7.5t14 -5t18 -4t18 -4v-19h-181v19q40 8 53 17t35 47l259 445h-1q11 19 11 33t-3.5 21.5t-21.5 14t-25 7.5t-31 5q-4 1 -6.5 1.5t-5.5 0.5v19h541l9 -139
h-24q-7 57 -27 81.5t-71 24.5h-96q-59 0 -76.5 -13t-17.5 -63v-187h84q86 0 110 17t29 67h18v-199h-18q-5 50 -29 67t-110 17h-84v-194q0 -50 17.5 -63t76.5 -13h75q59 0 92 24.5t61 89.5zM229 250h194v282q0 28 -7 42z" />
    <glyph glyph-name="Ccedilla" unicode="&#xc7;" horiz-adv-x="654" 
d="M383 -12h-6l-21 -41q44 0 71.5 -20.5t27.5 -54.5q0 -36 -35.5 -60t-114.5 -24l5 21q44 0 67 13t23 33q0 47 -106 47l45 88q-129 14 -209.5 104t-80.5 224q0 142 94 235t249 93q118 0 195 -46q4 -91 7 -135h-33q-34 148 -187 148q-103 0 -164 -70t-61 -198
q0 -139 79.5 -225.5t195.5 -86.5q43 0 89.5 13t73.5 42l18 -19q-32 -35 -91 -58t-131 -23z" />
    <glyph glyph-name="Egrave" unicode="&#xc8;" horiz-adv-x="580" 
d="M297 704q-75 84 -117 114q6 15 27.5 30t38.5 15q34 -48 69 -145zM523 147h24l-41 -147h-477v19q51 10 64 20q19 16 19 59v434q0 23 -3.5 37t-17.5 22.5t-20.5 10.5t-33.5 7q-5 1 -8 2v19h475l9 -139h-24q-7 57 -27 81.5t-71 24.5h-97q-59 0 -76.5 -13t-17.5 -63v-187h85
q86 0 110 17t29 67h18v-199h-18q-5 50 -29 67t-110 17h-85v-194q0 -50 17.5 -63t76.5 -13h76q59 0 92 24.5t61 89.5z" />
    <glyph glyph-name="Eacute" unicode="&#xc9;" horiz-adv-x="580" 
d="M396 818q-42 -30 -117 -114l-18 14q35 97 69 145q17 0 38.5 -15t27.5 -30zM523 147h24l-41 -147h-477v19q51 10 64 20q19 16 19 59v434q0 23 -3.5 37t-17.5 22.5t-20.5 10.5t-33.5 7q-5 1 -8 2v19h475l9 -139h-24q-7 57 -27 81.5t-71 24.5h-97q-59 0 -76.5 -13t-17.5 -63
v-187h85q86 0 110 17t29 67h18v-199h-18q-5 50 -29 67t-110 17h-85v-194q0 -50 17.5 -63t76.5 -13h76q59 0 92 24.5t61 89.5z" />
    <glyph glyph-name="Ecircumflex" unicode="&#xca;" horiz-adv-x="580" 
d="M291 809l-124 -95l-12 9l136 153l136 -152l-13 -10zM523 147h24l-41 -147h-477v19q51 10 64 20q19 16 19 59v434q0 23 -3.5 37t-17.5 22.5t-20.5 10.5t-33.5 7q-5 1 -8 2v19h475l9 -139h-24q-7 57 -27 81.5t-71 24.5h-97q-59 0 -76.5 -13t-17.5 -63v-187h85q86 0 110 17
t29 67h18v-199h-18q-5 50 -29 67t-110 17h-85v-194q0 -50 17.5 -63t76.5 -13h76q59 0 92 24.5t61 89.5z" />
    <glyph glyph-name="Edieresis" unicode="&#xcb;" horiz-adv-x="580" 
d="M198 768q-19 0 -31.5 12t-12.5 31t12 31.5t32 12.5t32 -12.5t12 -31.5t-12.5 -31t-31.5 -12zM384 768q-19 0 -31 12t-12 31t12 31.5t31 12.5q20 0 32.5 -12.5t12.5 -31.5t-12.5 -31t-32.5 -12zM523 147h24l-41 -147h-477v19q51 10 64 20q19 16 19 59v434q0 23 -3.5 37
t-17.5 22.5t-20.5 10.5t-33.5 7q-5 1 -8 2v19h475l9 -139h-24q-7 57 -27 81.5t-71 24.5h-97q-59 0 -76.5 -13t-17.5 -63v-187h85q86 0 110 17t29 67h18v-199h-18q-5 50 -29 67t-110 17h-85v-194q0 -50 17.5 -63t76.5 -13h76q59 0 92 24.5t61 89.5z" />
    <glyph glyph-name="Igrave" unicode="&#xcc;" horiz-adv-x="312" 
d="M163 704q-75 84 -117 114q6 15 27.5 30t38.5 15q34 -48 69 -145zM29 0v19q51 10 64 20q19 16 19 59v434q0 23 -3.5 37t-17.5 22.5t-20.5 10.5t-33.5 7q-5 1 -8 2v19h254v-19q-51 -10 -64 -20q-19 -16 -19 -59v-434q0 -23 3.5 -37t17.5 -22.5t20.5 -10.5t33.5 -7
q5 -1 8 -2v-19h-254z" />
    <glyph glyph-name="Iacute" unicode="&#xcd;" horiz-adv-x="312" 
d="M145 704l-18 14q35 97 69 145q17 0 38.5 -15t27.5 -30q-42 -30 -117 -114zM29 0v19q51 10 64 20q19 16 19 59v434q0 23 -3.5 37t-17.5 22.5t-20.5 10.5t-33.5 7q-5 1 -8 2v19h254v-19q-51 -10 -64 -20q-19 -16 -19 -59v-434q0 -23 3.5 -37t17.5 -22.5t20.5 -10.5t33.5 -7
q5 -1 8 -2v-19h-254z" />
    <glyph glyph-name="Icircumflex" unicode="&#xce;" horiz-adv-x="312" 
d="M157 876l136 -152l-13 -10l-123 95l-124 -95l-12 9zM29 0v19q51 10 64 20q19 16 19 59v434q0 23 -3.5 37t-17.5 22.5t-20.5 10.5t-33.5 7q-5 1 -8 2v19h254v-19q-51 -10 -64 -20q-19 -16 -19 -59v-434q0 -23 3.5 -37t17.5 -22.5t20.5 -10.5t33.5 -7q5 -1 8 -2v-19h-254z
" />
    <glyph glyph-name="Idieresis" unicode="&#xcf;" horiz-adv-x="312" 
d="M64 768q-19 0 -31.5 12t-12.5 31t12 31.5t32 12.5t32 -12.5t12 -31.5t-12.5 -31t-31.5 -12zM250 768q-19 0 -31 12t-12 31t12 31.5t31 12.5q20 0 32.5 -12.5t12.5 -31.5t-12.5 -31t-32.5 -12zM29 0v19q51 10 64 20q19 16 19 59v434q0 23 -3.5 37t-17.5 22.5t-20.5 10.5
t-33.5 7q-5 1 -8 2v19h254v-19q-51 -10 -64 -20q-19 -16 -19 -59v-434q0 -23 3.5 -37t17.5 -22.5t20.5 -10.5t33.5 -7q5 -1 8 -2v-19h-254z" />
    <glyph glyph-name="Eth" unicode="&#xd0;" horiz-adv-x="683" 
d="M276 630q73 0 136 -17.5t113.5 -53.5t79.5 -97.5t29 -142.5q0 -161 -100.5 -240t-257.5 -79h-240v19q51 10 64 20q19 16 19 59v200l-92 -3l10 33q54 -2 82 -2v206q0 23 -3.5 37t-17.5 22.5t-20.5 10.5t-33.5 7q-5 1 -8 2v19h240zM304 34q232 0 232 275q0 287 -270 287
h-59v-271q66 0 132 3l-10 -33q-61 3 -122 3v-168q0 -53 20.5 -74.5t76.5 -21.5z" />
    <glyph glyph-name="Ntilde" unicode="&#xd1;" horiz-adv-x="701" 
d="M211 756h-17q-9 39 19 67.5t74 28.5q26 0 47.5 -11t33.5 -23.5t30 -23.5t38 -11q27 0 42 13t15 28h17q9 -39 -19 -68t-73 -29q-27 0 -48.5 11t-34 24t-30.5 24t-37 11q-27 0 -42 -13t-15 -28zM459 630h214v-19q-52 -10 -65 -20q-20 -17 -20 -59v-532h-38l-397 531v-433
q0 -23 4 -37t19 -22.5t22 -10.5t36 -7q6 -1 9 -2v-19h-214v19q52 10 65 20q20 16 20 59v434q0 23 -4 37t-17.5 22.5t-21.5 10.5t-33 7q-2 1 -3 1t-3 0.5t-3 0.5v19h157l363 -482v384q0 23 -4 37t-19 22.5t-22 10.5t-36 7q-6 1 -9 2v19z" />
    <glyph glyph-name="Ograve" unicode="&#xd2;" horiz-adv-x="733" 
d="M372 704q-75 84 -117 114q6 15 27.5 30t38.5 15q34 -48 69 -145zM365 -12q-137 0 -226.5 94t-89.5 233q0 138 90.5 234.5t229.5 96.5q137 0 226 -94t89 -232q0 -140 -90 -236t-229 -96zM382 21q87 0 146.5 73t59.5 196q0 139 -69 231t-167 92q-87 0 -147 -73t-60 -195
q0 -141 69.5 -232.5t167.5 -91.5z" />
    <glyph glyph-name="Oacute" unicode="&#xd3;" horiz-adv-x="733" 
d="M355 704l-18 14q35 97 69 145q17 0 38.5 -15t27.5 -30q-42 -30 -117 -114zM365 -12q-137 0 -226.5 94t-89.5 233q0 138 90.5 234.5t229.5 96.5q137 0 226 -94t89 -232q0 -140 -90 -236t-229 -96zM382 21q87 0 146.5 73t59.5 196q0 139 -69 231t-167 92q-87 0 -147 -73
t-60 -195q0 -141 69.5 -232.5t167.5 -91.5z" />
    <glyph glyph-name="Ocircumflex" unicode="&#xd4;" horiz-adv-x="733" 
d="M366 876l136 -152l-13 -10l-123 95l-124 -95l-12 9zM365 -12q-137 0 -226.5 94t-89.5 233q0 138 90.5 234.5t229.5 96.5q137 0 226 -94t89 -232q0 -140 -90 -236t-229 -96zM382 21q87 0 146.5 73t59.5 196q0 139 -69 231t-167 92q-87 0 -147 -73t-60 -195
q0 -141 69.5 -232.5t167.5 -91.5z" />
    <glyph glyph-name="Otilde" unicode="&#xd5;" horiz-adv-x="733" 
d="M433 727q-27 0 -48.5 11t-34 24t-30.5 24t-37 11q-27 0 -42 -13t-15 -28h-17q-9 39 19 67.5t74 28.5q33 0 57.5 -17t45.5 -34.5t46 -17.5q27 0 42 13t15 28h17q9 -39 -19 -68t-73 -29zM365 -12q-137 0 -226.5 94t-89.5 233q0 138 90.5 234.5t229.5 96.5q137 0 226 -94
t89 -232q0 -140 -90 -236t-229 -96zM382 21q87 0 146.5 73t59.5 196q0 139 -69 231t-167 92q-87 0 -147 -73t-60 -195q0 -141 69.5 -232.5t167.5 -91.5z" />
    <glyph glyph-name="Odieresis" unicode="&#xd6;" horiz-adv-x="733" 
d="M273 768q-19 0 -31.5 12t-12.5 31t12.5 31.5t31.5 12.5t31.5 -12.5t12.5 -31.5t-12.5 -31t-31.5 -12zM459 768q-19 0 -31 12t-12 31t12 31.5t31 12.5q20 0 32.5 -12.5t12.5 -31.5t-12.5 -31t-32.5 -12zM365 -12q-137 0 -226.5 94t-89.5 233q0 138 90.5 234.5t229.5 96.5
q137 0 226 -94t89 -232q0 -140 -90 -236t-229 -96zM382 21q87 0 146.5 73t59.5 196q0 139 -69 231t-167 92q-87 0 -147 -73t-60 -195q0 -141 69.5 -232.5t167.5 -91.5z" />
    <glyph glyph-name="multiply" unicode="&#xd7;" horiz-adv-x="438" 
d="M369 370l-118 -118l118 -119l-32 -32l-118 118l-118 -118l-32 32l118 119l-118 118l32 32l118 -118l118 118z" />
    <glyph glyph-name="Oslash" unicode="&#xd8;" horiz-adv-x="733" 
d="M548 592q64 -44 100 -115.5t36 -156.5q0 -140 -90 -236t-229 -96q-93 0 -167 45l-51 -82l-18 13l51 82q-61 44 -96 114.5t-35 154.5q0 138 90.5 234.5t229.5 96.5q88 0 160 -42l57 91l18 -13zM145 345q0 -143 74 -238l276 442q-62 64 -143 64q-87 0 -147 -73t-60 -195z
M382 21q87 0 146.5 73t59.5 196q0 149 -78 242l-276 -442q64 -69 148 -69z" />
    <glyph glyph-name="Ugrave" unicode="&#xd9;" horiz-adv-x="703" 
d="M360 704q-75 84 -117 114q5 15 26.5 30t38.5 15q38 -53 69 -145zM357 -12q-35 0 -66 5.5t-65 23t-58 45t-40 76t-16 112.5v282q0 23 -3.5 37t-17.5 22.5t-20.5 10.5t-33.5 7q-5 1 -8 2v19h255v-19q-51 -10 -64 -20q-19 -16 -19 -59v-293q0 -209 175 -209q33 0 61.5 8
t58 27.5t46.5 60t17 98.5v308q0 23 -4 37t-17.5 22.5t-21.5 10.5t-33 7q-2 1 -3 1t-3 0.5t-3 0.5v19h215v-19q-56 -10 -69 -20q-21 -16 -21 -59v-288q0 -72 -21 -124t-57 -79.5t-76.5 -40t-87.5 -12.5z" />
    <glyph glyph-name="Uacute" unicode="&#xda;" horiz-adv-x="703" 
d="M342 704l-18 14q31 92 69 145q17 0 38.5 -15t27.5 -30q-42 -30 -117 -114zM357 -12q-35 0 -66 5.5t-65 23t-58 45t-40 76t-16 112.5v282q0 23 -3.5 37t-17.5 22.5t-20.5 10.5t-33.5 7q-5 1 -8 2v19h255v-19q-51 -10 -64 -20q-19 -16 -19 -59v-293q0 -209 175 -209
q33 0 61.5 8t58 27.5t46.5 60t17 98.5v308q0 23 -4 37t-17.5 22.5t-21.5 10.5t-33 7q-2 1 -3 1t-3 0.5t-3 0.5v19h215v-19q-56 -10 -69 -20q-21 -16 -21 -59v-288q0 -72 -21 -124t-57 -79.5t-76.5 -40t-87.5 -12.5z" />
    <glyph glyph-name="Ucircumflex" unicode="&#xdb;" horiz-adv-x="703" 
d="M353 876l136 -152l-12 -10l-124 95l-123 -95l-12 9zM357 -12q-35 0 -66 5.5t-65 23t-58 45t-40 76t-16 112.5v282q0 23 -3.5 37t-17.5 22.5t-20.5 10.5t-33.5 7q-5 1 -8 2v19h255v-19q-51 -10 -64 -20q-19 -16 -19 -59v-293q0 -209 175 -209q33 0 61.5 8t58 27.5t46.5 60
t17 98.5v308q0 23 -4 37t-17.5 22.5t-21.5 10.5t-33 7q-2 1 -3 1t-3 0.5t-3 0.5v19h215v-19q-56 -10 -69 -20q-21 -16 -21 -59v-288q0 -72 -21 -124t-57 -79.5t-76.5 -40t-87.5 -12.5z" />
    <glyph glyph-name="Udieresis" unicode="&#xdc;" horiz-adv-x="703" 
d="M260 768q-19 0 -31 12t-12 31t12 31.5t31 12.5q20 0 32 -12.5t12 -31.5t-12.5 -31t-31.5 -12zM447 768q-19 0 -31.5 12t-12.5 31t12.5 31.5t31.5 12.5t31.5 -12.5t12.5 -31.5t-12.5 -31t-31.5 -12zM357 -12q-35 0 -66 5.5t-65 23t-58 45t-40 76t-16 112.5v282
q0 23 -3.5 37t-17.5 22.5t-20.5 10.5t-33.5 7q-5 1 -8 2v19h255v-19q-51 -10 -64 -20q-19 -16 -19 -59v-293q0 -209 175 -209q33 0 61.5 8t58 27.5t46.5 60t17 98.5v308q0 23 -4 37t-17.5 22.5t-21.5 10.5t-33 7q-2 1 -3 1t-3 0.5t-3 0.5v19h215v-19q-56 -10 -69 -20
q-21 -16 -21 -59v-288q0 -72 -21 -124t-57 -79.5t-76.5 -40t-87.5 -12.5z" />
    <glyph glyph-name="Yacute" unicode="&#xdd;" horiz-adv-x="652" 
d="M432 818q-42 -30 -117 -114l-18 14q31 92 69 145q17 0 38.5 -15t27.5 -30zM441 630h194v-19q-40 -8 -53 -16.5t-35 -45.5l-174 -280v-168q0 -25 4.5 -39t20.5 -22t26 -10.5t42 -7.5v-22h-275v22q59 10 73 21q20 15 20 58v159l-183 289q-24 37 -36 45.5t-51 16.5v19h242
v-19q-17 -4 -25.5 -6.5t-19.5 -7.5t-14 -10.5t-3 -15.5t8 -22l153 -247l150 247q10 17 11.5 27.5t-9 16.5t-19 8.5t-31.5 6.5q-11 2 -16 3v19z" />
    <glyph glyph-name="Thorn" unicode="&#xde;" horiz-adv-x="569" 
d="M530 314q0 -51 -18.5 -89t-48 -60.5t-74 -36.5t-88.5 -19.5t-101 -6.5v-4q0 -23 3.5 -37t17.5 -22.5t20.5 -10.5t33.5 -7q5 -1 8 -2v-19h-254v19q51 10 64 20q19 16 19 59v434q0 23 -3.5 37t-17.5 22.5t-20.5 10.5t-33.5 7q-5 1 -8 2v19h254v-19q-51 -10 -64 -20
q-19 -16 -19 -59v-5q56 -1 100.5 -6.5t89 -19.5t74 -37t48 -61t18.5 -89zM432 314q0 87 -55.5 128.5t-176.5 49.5v-356q121 8 176.5 49.5t55.5 128.5z" />
    <glyph glyph-name="germandbls" unicode="&#xdf;" horiz-adv-x="547" 
d="M440 244q73 -73 73 -125q0 -53 -75 -92.5t-145 -39.5q-35 0 -55.5 12t-20.5 33q0 14 11 23.5t25 9.5q21 0 59 -20t54 -20q24 0 50.5 22.5t26.5 51.5q0 47 -53 98l-110 112q2 2 18.5 19.5t19 20.5t15 17.5t15 20t10.5 18.5t10 21.5t4.5 21t2.5 25.5q0 28 -8 55.5t-31.5 51
t-59.5 23.5q-46 0 -72 -35t-26 -87v-481h-149v19q48 8 60 20q13 11 13 33v408q0 63 46 110t128 47q87 0 132 -43t44 -104q0 -26 -10 -49.5t-31 -43.5t-32.5 -29t-35.5 -26zM337 338q-3 -3 -9 -7z" />
    <glyph glyph-name="agrave" unicode="&#xe0;" horiz-adv-x="501" 
d="M249 514q-75 84 -117 114q5 15 26.5 30t38.5 15q38 -53 69 -145zM407 90q0 -24 21.5 -28.5t53.5 13.5v-21q-25 -36 -75 -61q-33 0 -54.5 25t-21.5 58q-88 -83 -180 -83q-53 0 -85 29.5t-32 76.5q0 25 10 45t24.5 33t41.5 25.5t50.5 20t61.5 18.5q39 11 55.5 16t32 14
t21.5 21v13q0 61 -29 84.5t-96 23.5q-33 0 -45 -28q-20 -48 -32.5 -65.5t-31.5 -17.5q-36 0 -36 35q0 32 36.5 58.5t86 40t96.5 13.5q68 0 97.5 -37t29.5 -114v-208zM199 45q38 0 74.5 20.5t57.5 49.5v127l-107 -31q-60 -17 -83.5 -38.5t-23.5 -54.5q0 -37 23.5 -55
t58.5 -18z" />
    <glyph glyph-name="aacute" unicode="&#xe1;" horiz-adv-x="501" 
d="M348 628q-42 -30 -117 -114l-18 14q31 92 69 145q17 0 38.5 -15t27.5 -30zM407 90q0 -24 21.5 -28.5t53.5 13.5v-21q-25 -36 -75 -61q-33 0 -54.5 25t-21.5 58q-88 -83 -180 -83q-53 0 -85 29.5t-32 76.5q0 25 10 45t24.5 33t41.5 25.5t50.5 20t61.5 18.5q39 11 55.5 16
t32 14t21.5 21v13q0 61 -29 84.5t-96 23.5q-33 0 -45 -28q-20 -48 -32.5 -65.5t-31.5 -17.5q-36 0 -36 35q0 32 36.5 58.5t86 40t96.5 13.5q68 0 97.5 -37t29.5 -114v-208zM199 45q38 0 74.5 20.5t57.5 49.5v127l-107 -31q-60 -17 -83.5 -38.5t-23.5 -54.5q0 -37 23.5 -55
t58.5 -18z" />
    <glyph glyph-name="acircumflex" unicode="&#xe2;" horiz-adv-x="501" 
d="M242 619l-123 -95l-12 9l135 153l136 -152l-12 -10zM407 90q0 -24 21.5 -28.5t53.5 13.5v-21q-25 -36 -75 -61q-33 0 -54.5 25t-21.5 58q-88 -83 -180 -83q-53 0 -85 29.5t-32 76.5q0 25 10 45t24.5 33t41.5 25.5t50.5 20t61.5 18.5q39 11 55.5 16t32 14t21.5 21v13
q0 61 -29 84.5t-96 23.5q-33 0 -45 -28q-20 -48 -32.5 -65.5t-31.5 -17.5q-36 0 -36 35q0 32 36.5 58.5t86 40t96.5 13.5q68 0 97.5 -37t29.5 -114v-208zM199 45q38 0 74.5 20.5t57.5 49.5v127l-107 -31q-60 -17 -83.5 -38.5t-23.5 -54.5q0 -37 23.5 -55t58.5 -18z" />
    <glyph glyph-name="atilde" unicode="&#xe3;" horiz-adv-x="501" 
d="M102 566h-17q-9 39 19 67.5t74 28.5q33 0 57.5 -17t45.5 -34.5t46 -17.5q27 0 42 13t15 28h17q9 -39 -19 -68t-73 -29q-27 0 -48.5 11t-34 24t-30.5 24t-37 11q-27 0 -42 -13t-15 -28zM407 90q0 -24 21.5 -28.5t53.5 13.5v-21q-25 -36 -75 -61q-33 0 -54.5 25t-21.5 58
q-88 -83 -180 -83q-53 0 -85 29.5t-32 76.5q0 25 10 45t24.5 33t41.5 25.5t50.5 20t61.5 18.5q39 11 55.5 16t32 14t21.5 21v13q0 61 -29 84.5t-96 23.5q-33 0 -45 -28q-20 -48 -32.5 -65.5t-31.5 -17.5q-36 0 -36 35q0 32 36.5 58.5t86 40t96.5 13.5q68 0 97.5 -37
t29.5 -114v-208zM199 45q38 0 74.5 20.5t57.5 49.5v127l-107 -31q-60 -17 -83.5 -38.5t-23.5 -54.5q0 -37 23.5 -55t58.5 -18z" />
    <glyph glyph-name="adieresis" unicode="&#xe4;" horiz-adv-x="501" 
d="M149 578q-19 0 -31 12t-12 31t12 31.5t31 12.5t31.5 -12.5t12.5 -31.5t-12.5 -31t-31.5 -12zM336 578q-19 0 -31.5 12t-12.5 31t12.5 31.5t31.5 12.5q20 0 32 -12.5t12 -31.5t-12.5 -31t-31.5 -12zM407 90q0 -24 21.5 -28.5t53.5 13.5v-21q-25 -36 -75 -61
q-33 0 -54.5 25t-21.5 58q-88 -83 -180 -83q-53 0 -85 29.5t-32 76.5q0 25 10 45t24.5 33t41.5 25.5t50.5 20t61.5 18.5q39 11 55.5 16t32 14t21.5 21v13q0 61 -29 84.5t-96 23.5q-33 0 -45 -28q-20 -48 -32.5 -65.5t-31.5 -17.5q-36 0 -36 35q0 32 36.5 58.5t86 40
t96.5 13.5q68 0 97.5 -37t29.5 -114v-208zM199 45q38 0 74.5 20.5t57.5 49.5v127l-107 -31q-60 -17 -83.5 -38.5t-23.5 -54.5q0 -37 23.5 -55t58.5 -18z" />
    <glyph glyph-name="aring" unicode="&#xe5;" horiz-adv-x="501" 
d="M243 537q-35 0 -60 24.5t-25 59.5t25 59.5t60 24.5t59.5 -24.5t24.5 -59.5t-24.5 -59.5t-59.5 -24.5zM243 672q-21 0 -35.5 -15t-14.5 -36t14.5 -36t35.5 -15t35.5 15t14.5 36t-14.5 36t-35.5 15zM407 90q0 -24 21.5 -28.5t53.5 13.5v-21q-25 -36 -75 -61q-33 0 -54.5 25
t-21.5 58q-88 -83 -180 -83q-53 0 -85 29.5t-32 76.5q0 25 10 45t24.5 33t41.5 25.5t50.5 20t61.5 18.5q39 11 55.5 16t32 14t21.5 21v13q0 61 -29 84.5t-96 23.5q-33 0 -45 -28q-20 -48 -32.5 -65.5t-31.5 -17.5q-36 0 -36 35q0 32 36.5 58.5t86 40t96.5 13.5
q68 0 97.5 -37t29.5 -114v-208zM199 45q38 0 74.5 20.5t57.5 49.5v127l-107 -31q-60 -17 -83.5 -38.5t-23.5 -54.5q0 -37 23.5 -55t58.5 -18z" />
    <glyph glyph-name="ae" unicode="&#xe6;" horiz-adv-x="770" 
d="M712 108l16 -9q-18 -52 -64.5 -80t-109.5 -28q-66 0 -120.5 31.5t-82.5 86.5l4 -10q-102 -106 -204 -106q-53 0 -85 29.5t-32 76.5q0 25 10 45t24.5 33t41.5 25.5t50.5 20t61.5 18.5q39 11 55.5 16t32 14t21.5 21v13q0 61 -29 84.5t-96 23.5q-33 0 -45 -28
q-20 -48 -32.5 -65.5t-31.5 -17.5q-36 0 -36 35q0 32 36.5 58.5t86 40t96.5 13.5q86 0 113 -62q62 62 155 62q100 0 147.5 -67.5t24.5 -132.5h-313v-6h-1q3 -85 53 -139.5t131 -54.5q85 0 122 59zM537 419q-50 0 -86.5 -37t-43.5 -103h240q7 50 -22.5 95t-87.5 45zM199 45
q43 0 83 25.5t60 59.5q-15 39 -15 86q0 17 1 26l-104 -31q-60 -17 -83.5 -38.5t-23.5 -54.5q0 -37 23.5 -55t58.5 -18z" />
    <glyph glyph-name="ccedilla" unicode="&#xe7;" horiz-adv-x="479" 
d="M440 100q-17 -51 -63 -79t-108 -30l-23 -44q44 0 72 -20.5t28 -54.5q0 -36 -36 -60t-115 -24l5 21q44 0 67.5 13t23.5 33q0 47 -107 47l46 91q-83 11 -137 71t-54 151q0 105 66.5 169.5t166.5 64.5q68 0 113.5 -29t45.5 -70q0 -22 -12.5 -32.5t-29.5 -10.5q-40 0 -60 67
q-13 47 -63 47q-56 0 -100.5 -44.5t-44.5 -129.5q0 -86 50.5 -142.5t129.5 -56.5q85 0 123 61z" />
    <glyph glyph-name="egrave" unicode="&#xe8;" horiz-adv-x="486" 
d="M251 514q-75 84 -117 114q5 15 26.5 30t39.5 15q34 -48 69 -145zM424 108l16 -9q-18 -52 -64.5 -80t-109.5 -28q-96 0 -161.5 62t-65.5 163t62 167t159 66q100 0 147.5 -67.5t24.5 -132.5h-314q1 -87 51 -143.5t133 -56.5q85 0 122 59zM249 419q-50 0 -86.5 -37
t-43.5 -103h240q7 50 -22.5 95t-87.5 45z" />
    <glyph glyph-name="eacute" unicode="&#xe9;" horiz-adv-x="486" 
d="M350 628q-42 -30 -117 -114l-18 14q35 97 69 145q17 0 38.5 -15t27.5 -30zM424 108l16 -9q-18 -52 -64.5 -80t-109.5 -28q-96 0 -161.5 62t-65.5 163t62 167t159 66q100 0 147.5 -67.5t24.5 -132.5h-314q1 -87 51 -143.5t133 -56.5q85 0 122 59zM249 419q-50 0 -86.5 -37
t-43.5 -103h240q7 50 -22.5 95t-87.5 45z" />
    <glyph glyph-name="ecircumflex" unicode="&#xea;" horiz-adv-x="486" 
d="M245 619l-124 -95l-12 9l136 153l135 -152l-12 -10zM424 108l16 -9q-18 -52 -64.5 -80t-109.5 -28q-96 0 -161.5 62t-65.5 163t62 167t159 66q100 0 147.5 -67.5t24.5 -132.5h-314q1 -87 51 -143.5t133 -56.5q85 0 122 59zM249 419q-50 0 -86.5 -37t-43.5 -103h240
q7 50 -22.5 95t-87.5 45z" />
    <glyph glyph-name="edieresis" unicode="&#xeb;" horiz-adv-x="486" 
d="M151 578q-19 0 -31 12t-12 31t12 31.5t31 12.5q20 0 32.5 -12.5t12.5 -31.5t-12.5 -31t-32.5 -12zM338 578q-19 0 -31 12t-12 31t12 31.5t31 12.5q20 0 32 -12.5t12 -31.5t-12.5 -31t-31.5 -12zM424 108l16 -9q-18 -52 -64.5 -80t-109.5 -28q-96 0 -161.5 62t-65.5 163
t62 167t159 66q100 0 147.5 -67.5t24.5 -132.5h-314q1 -87 51 -143.5t133 -56.5q85 0 122 59zM249 419q-50 0 -86.5 -37t-43.5 -103h240q7 50 -22.5 95t-87.5 45z" />
    <glyph glyph-name="igrave" unicode="&#xec;" horiz-adv-x="269" 
d="M136 514q-75 84 -117 114q6 15 27.5 30t38.5 15q38 -53 69 -145zM29 0v19q20 3 27.5 5t19 7t15.5 15t4 26v246q0 30 -12.5 44t-53.5 19v17q18 3 31 7t25.5 10.5t19.5 10.5t22 14.5t23 15.5l21 -19v-365q0 -16 4 -26t15.5 -15t19 -7t27.5 -5v-19h-208z" />
    <glyph glyph-name="iacute" unicode="&#xed;" horiz-adv-x="269" 
d="M118 514l-17 14q31 92 69 145q17 0 38.5 -15t26.5 -30q-42 -30 -117 -114zM29 0v19q20 3 27.5 5t19 7t15.5 15t4 26v246q0 30 -12.5 44t-53.5 19v17q18 3 31 7t25.5 10.5t19.5 10.5t22 14.5t23 15.5l21 -19v-365q0 -16 4 -26t15.5 -15t19 -7t27.5 -5v-19h-208z" />
    <glyph glyph-name="icircumflex" unicode="&#xee;" horiz-adv-x="269" 
d="M130 686l136 -152l-12 -10l-124 95l-123 -95l-13 9zM29 0v19q20 3 27.5 5t19 7t15.5 15t4 26v246q0 30 -12.5 44t-53.5 19v17q18 3 31 7t25.5 10.5t19.5 10.5t22 14.5t23 15.5l21 -19v-365q0 -16 4 -26t15.5 -15t19 -7t27.5 -5v-19h-208z" />
    <glyph glyph-name="idieresis" unicode="&#xef;" horiz-adv-x="269" 
d="M37 578q-19 0 -31.5 12t-12.5 31t12.5 31.5t31.5 12.5t31.5 -12.5t12.5 -31.5t-12.5 -31t-31.5 -12zM224 578q-19 0 -31.5 12t-12.5 31t12 31.5t32 12.5t32 -12.5t12 -31.5t-12.5 -31t-31.5 -12zM29 0v19q20 3 27.5 5t19 7t15.5 15t4 26v246q0 30 -12.5 44t-53.5 19v17
q18 3 31 7t25.5 10.5t19.5 10.5t22 14.5t23 15.5l21 -19v-365q0 -16 4 -26t15.5 -15t19 -7t27.5 -5v-19h-208z" />
    <glyph glyph-name="eth" unicode="&#xf0;" horiz-adv-x="549" 
d="M355 544q66 -54 105 -128t40 -159q0 -119 -65 -192.5t-173 -73.5q-92 0 -157.5 62t-65.5 164q0 105 69.5 168.5t164.5 63.5q53 0 94 -17q-26 53 -67 94q-91 -30 -169 -61v35q104 30 148 45q-74 61 -161 69l13 23q106 -6 201 -75q81 29 136 52v-35q-26 -8 -113 -35z
M276 24q134 0 134 207q0 83 -43.5 134.5t-105.5 51.5q-56 0 -95.5 -45.5t-39.5 -137.5t43 -151t107 -59z" />
    <glyph glyph-name="ntilde" unicode="&#xf1;" 
d="M342 537q-34 0 -59 17.5t-45.5 35t-44.5 17.5q-28 0 -42.5 -12.5t-14.5 -28.5h-17q-9 39 19 67.5t74 28.5q33 0 57 -17t45 -34.5t46 -17.5q28 0 42.5 12.5t14.5 28.5h18q9 -39 -19 -68t-74 -29zM24 0v19q20 3 27.5 5t19 7t15.5 15t4 26v246q0 30 -12.5 44t-53.5 19v17
q46 7 73.5 19.5t61.5 38.5l20 -19l-24 -84h11q76 96 175 96q67 0 94.5 -40.5t27.5 -113.5v-223q0 -16 4 -26t15.5 -15t19 -7t27.5 -5v-19h-209v19q20 3 27.5 5t19 7t15.5 15t4 26v220q0 99 -87 99q-75 0 -133 -70v-249q0 -16 4 -26t15.5 -15t19 -7t27.5 -5v-19h-208z" />
    <glyph glyph-name="ograve" unicode="&#xf2;" horiz-adv-x="546" 
d="M279 514q-75 84 -117 114q6 15 27.5 30t38.5 15q38 -53 69 -145zM266 -9q-92 0 -159.5 62t-67.5 164q0 105 71 168.5t167 63.5q92 0 159.5 -62t67.5 -164q0 -105 -71.5 -168.5t-166.5 -63.5zM278 22q56 0 97.5 46.5t41.5 137.5q0 92 -44.5 152t-107.5 60
q-56 0 -97.5 -46.5t-41.5 -137.5q0 -92 44 -152t108 -60z" />
    <glyph glyph-name="oacute" unicode="&#xf3;" horiz-adv-x="546" 
d="M261 514l-17 14q31 92 69 145q17 0 38.5 -15t26.5 -30q-42 -30 -117 -114zM266 -9q-92 0 -159.5 62t-67.5 164q0 105 71 168.5t167 63.5q92 0 159.5 -62t67.5 -164q0 -105 -71.5 -168.5t-166.5 -63.5zM278 22q56 0 97.5 46.5t41.5 137.5q0 92 -44.5 152t-107.5 60
q-56 0 -97.5 -46.5t-41.5 -137.5q0 -92 44 -152t108 -60z" />
    <glyph glyph-name="ocircumflex" unicode="&#xf4;" horiz-adv-x="546" 
d="M273 686l136 -152l-12 -10l-124 95l-123 -95l-13 9zM266 -9q-92 0 -159.5 62t-67.5 164q0 105 71 168.5t167 63.5q92 0 159.5 -62t67.5 -164q0 -105 -71.5 -168.5t-166.5 -63.5zM278 22q56 0 97.5 46.5t41.5 137.5q0 92 -44.5 152t-107.5 60q-56 0 -97.5 -46.5
t-41.5 -137.5q0 -92 44 -152t108 -60z" />
    <glyph glyph-name="otilde" unicode="&#xf5;" horiz-adv-x="546" 
d="M339 537q-33 0 -58 17.5t-46 35t-45 17.5q-27 0 -42 -13t-15 -28h-17q-9 39 19 67.5t74 28.5q33 0 57 -17t45.5 -34.5t46.5 -17.5q27 0 42 13t15 28h17q9 -39 -19 -68t-74 -29zM266 -9q-92 0 -159.5 62t-67.5 164q0 105 71 168.5t167 63.5q92 0 159.5 -62t67.5 -164
q0 -105 -71.5 -168.5t-166.5 -63.5zM278 22q56 0 97.5 46.5t41.5 137.5q0 92 -44.5 152t-107.5 60q-56 0 -97.5 -46.5t-41.5 -137.5q0 -92 44 -152t108 -60z" />
    <glyph glyph-name="odieresis" unicode="&#xf6;" horiz-adv-x="546" 
d="M180 578q-19 0 -31.5 12t-12.5 31t12.5 31.5t31.5 12.5q20 0 32 -12.5t12 -31.5t-12.5 -31t-31.5 -12zM367 578q-19 0 -31.5 12t-12.5 31t12.5 31.5t31.5 12.5t31.5 -12.5t12.5 -31.5t-12.5 -31t-31.5 -12zM266 -9q-92 0 -159.5 62t-67.5 164q0 105 71 168.5t167 63.5
q92 0 159.5 -62t67.5 -164q0 -105 -71.5 -168.5t-166.5 -63.5zM278 22q56 0 97.5 46.5t41.5 137.5q0 92 -44.5 152t-107.5 60q-56 0 -97.5 -46.5t-41.5 -137.5q0 -92 44 -152t108 -60z" />
    <glyph glyph-name="divide" unicode="&#xf7;" horiz-adv-x="508" 
d="M256 368q-14 0 -24.5 11t-10.5 26q0 14 10.5 25t24.5 11t25 -11t11 -25q0 -15 -11 -26t-25 -11zM69 230v44h370v-44h-370zM256 62q-14 0 -24.5 11t-10.5 26q0 14 10.5 25t24.5 11t25 -11t11 -25q0 -15 -11 -26t-25 -11z" />
    <glyph glyph-name="oslash" unicode="&#xf8;" horiz-adv-x="543" 
d="M405 412q99 -65 99 -189q0 -105 -71.5 -168.5t-166.5 -63.5q-55 0 -107 25l-42 -67l-18 15l40 64q-100 64 -100 189q0 105 71 168.5t167 63.5q58 0 108 -26l43 69l18 -15zM126 234q0 -93 45 -154l185 297q-39 41 -91 41q-56 0 -97.5 -46.5t-41.5 -137.5zM278 22
q56 0 97.5 46.5t41.5 137.5q0 93 -45 152l-185 -296q40 -40 91 -40z" />
    <glyph glyph-name="ugrave" unicode="&#xf9;" 
d="M289 514q-75 84 -117 114q6 15 27.5 30t38.5 15q34 -48 69 -145zM213 -9q-128 0 -128 154v229q0 18 -8.5 27.5t-19 12.5t-33.5 7v19q81 -4 137 6v-298q0 -97 87 -97q74 0 139 55v268q0 18 -8.5 27.5t-19 12.5t-33.5 7v19q81 -4 137 6v-361q0 -30 12.5 -44.5t53.5 -21.5
v-19h-136l6 77h-12q-88 -86 -174 -86z" />
    <glyph glyph-name="uacute" unicode="&#xfa;" 
d="M271 514l-18 14q35 97 69 145q18 0 39.5 -15t26.5 -30q-42 -30 -117 -114zM213 -9q-128 0 -128 154v229q0 18 -8.5 27.5t-19 12.5t-33.5 7v19q81 -4 137 6v-298q0 -97 87 -97q74 0 139 55v268q0 18 -8.5 27.5t-19 12.5t-33.5 7v19q81 -4 137 6v-361q0 -30 12.5 -44.5
t53.5 -21.5v-19h-136l6 77h-12q-88 -86 -174 -86z" />
    <glyph glyph-name="ucircumflex" unicode="&#xfb;" 
d="M283 686l136 -152l-13 -10l-123 95l-124 -95l-12 9zM213 -9q-128 0 -128 154v229q0 18 -8.5 27.5t-19 12.5t-33.5 7v19q81 -4 137 6v-298q0 -97 87 -97q74 0 139 55v268q0 18 -8.5 27.5t-19 12.5t-33.5 7v19q81 -4 137 6v-361q0 -30 12.5 -44.5t53.5 -21.5v-19h-136l6 77
h-12q-88 -86 -174 -86z" />
    <glyph glyph-name="udieresis" unicode="&#xfc;" 
d="M190 578q-19 0 -31.5 12t-12.5 31t12 31.5t32 12.5t32 -12.5t12 -31.5t-12.5 -31t-31.5 -12zM376 578q-19 0 -31 12t-12 31t12 31.5t31 12.5q20 0 32.5 -12.5t12.5 -31.5t-12.5 -31t-32.5 -12zM213 -9q-128 0 -128 154v229q0 18 -8.5 27.5t-19 12.5t-33.5 7v19
q81 -4 137 6v-298q0 -97 87 -97q74 0 139 55v268q0 18 -8.5 27.5t-19 12.5t-33.5 7v19q81 -4 137 6v-361q0 -30 12.5 -44.5t53.5 -21.5v-19h-136l6 77h-12q-88 -86 -174 -86z" />
    <glyph glyph-name="yacute" unicode="&#xfd;" horiz-adv-x="505" 
d="M360 628q-42 -30 -117 -114l-18 14q31 92 69 145q17 0 38.5 -15t27.5 -30zM335 440h157v-19q-33 -4 -44.5 -11t-23.5 -35l-179 -419q-11 -27 -19.5 -44t-24.5 -42t-36 -38t-44 -13q-32 0 -63 23v55q128 -8 155 59l22 51l-159 369q-11 27 -22.5 34t-44.5 11v19h204v-19
q-46 -7 -55 -17q-8 -10 0 -28l116 -277l118 276q3 14 3.5 21.5t-10 12.5t-19 7t-23.5 4q-5 1 -8 1v19z" />
    <glyph glyph-name="thorn" unicode="&#xfe;" horiz-adv-x="534" 
d="M321 449q72 0 123 -57.5t51 -153.5q0 -110 -68.5 -178.5t-168.5 -68.5q-56 0 -102 27v-119q0 -32 16.5 -41t63.5 -14v-19h-225v19q21 3 29 4.5t19 7t14.5 16t3.5 27.5v638q0 53 -73 63v17q77 16 132 57l20 -19v-304q25 41 69.5 69.5t95.5 28.5zM262 23q60 0 108 44.5
t48 132.5q0 83 -42.5 136.5t-104.5 53.5q-38 0 -68.5 -21t-46.5 -51v-171q0 -51 26 -87.5t80 -36.5z" />
    <glyph glyph-name="ydieresis" unicode="&#xff;" horiz-adv-x="505" 
d="M161 578q-19 0 -31 12t-12 31t12 31.5t31 12.5t31.5 -12.5t12.5 -31.5t-12.5 -31t-31.5 -12zM348 578q-19 0 -31.5 12t-12.5 31t12.5 31.5t31.5 12.5q20 0 32 -12.5t12 -31.5t-12.5 -31t-31.5 -12zM335 440h157v-19q-33 -4 -44.5 -11t-23.5 -35l-179 -419
q-11 -27 -19.5 -44t-24.5 -42t-36 -38t-44 -13q-32 0 -63 23v55q128 -8 155 59l22 51l-159 369q-11 27 -22.5 34t-44.5 11v19h204v-19q-46 -7 -55 -17q-8 -10 0 -28l116 -277l118 276q3 14 3.5 21.5t-10 12.5t-19 7t-23.5 4q-5 1 -8 1v19z" />
    <glyph glyph-name="Amacron" unicode="&#x100;" horiz-adv-x="697" 
d="M497 827l-15 -33h-280l15 33h280zM607 77q14 -33 27 -41.5t54 -16.5v-19h-242v19l17.5 3.5t17 4l13.5 4.5t11.5 6.5t6 9t2 13t-5.5 17.5l-54 126h-268l-53 -128q-4 -9 -5 -16.5t2 -12.5t5.5 -8.5t11 -6.5t13 -4.5t17 -4l17.5 -3.5v-19h-185v19q50 10 60 17q14 12 25 38
l234 563h36zM198 234h242l-124 287z" />
    <glyph glyph-name="amacron" unicode="&#x101;" horiz-adv-x="501" 
d="M391 637l-15 -33h-280l15 33h280zM407 90q0 -24 21.5 -28.5t53.5 13.5v-21q-25 -36 -75 -61q-33 0 -54.5 25t-21.5 58q-88 -83 -180 -83q-53 0 -85 29.5t-32 76.5q0 25 10 45t24.5 33t41.5 25.5t50.5 20t61.5 18.5q39 11 55.5 16t32 14t21.5 21v13q0 61 -29 84.5
t-96 23.5q-33 0 -45 -28q-20 -48 -32.5 -65.5t-31.5 -17.5q-36 0 -36 35q0 32 36.5 58.5t86 40t96.5 13.5q68 0 97.5 -37t29.5 -114v-208zM199 45q38 0 74.5 20.5t57.5 49.5v127l-107 -31q-60 -17 -83.5 -38.5t-23.5 -54.5q0 -37 23.5 -55t58.5 -18z" />
    <glyph glyph-name="Abreve" unicode="&#x102;" horiz-adv-x="697" 
d="M349 745q-64 0 -97 35t-33 89h19q13 -65 111 -65t110 65h20q0 -54 -33 -89t-97 -35zM607 77q14 -33 27 -41.5t54 -16.5v-19h-242v19l17.5 3.5t17 4l13.5 4.5t11.5 6.5t6 9t2 13t-5.5 17.5l-54 126h-268l-53 -128q-4 -9 -5 -16.5t2 -12.5t5.5 -8.5t11 -6.5t13 -4.5t17 -4
l17.5 -3.5v-19h-185v19q50 10 60 17q14 12 25 38l234 563h36zM198 234h242l-124 287z" />
    <glyph glyph-name="abreve" unicode="&#x103;" horiz-adv-x="501" 
d="M243 555q-64 0 -97 35t-33 89h19q13 -65 111 -65t110 65h20q0 -54 -33 -89t-97 -35zM407 90q0 -24 21.5 -28.5t53.5 13.5v-21q-25 -36 -75 -61q-33 0 -54.5 25t-21.5 58q-88 -83 -180 -83q-53 0 -85 29.5t-32 76.5q0 25 10 45t24.5 33t41.5 25.5t50.5 20t61.5 18.5
q39 11 55.5 16t32 14t21.5 21v13q0 61 -29 84.5t-96 23.5q-33 0 -45 -28q-20 -48 -32.5 -65.5t-31.5 -17.5q-36 0 -36 35q0 32 36.5 58.5t86 40t96.5 13.5q68 0 97.5 -37t29.5 -114v-208zM199 45q38 0 74.5 20.5t57.5 49.5v127l-107 -31q-60 -17 -83.5 -38.5t-23.5 -54.5
q0 -37 23.5 -55t58.5 -18z" />
    <glyph glyph-name="Aogonek" unicode="&#x104;" horiz-adv-x="697" 
d="M609 0q-38 -24 -55.5 -45t-17.5 -49q0 -26 14.5 -40t37.5 -14q21 0 50 11v-16q-34 -36 -85 -36q-40 0 -66 20t-26 61q0 30 22 61l70 47h-107v19l17.5 3.5t17 4l13.5 4.5t11.5 6.5t6 9t2 13t-5.5 17.5l-54 126h-268l-53 -128q-4 -9 -5 -16.5t2 -12.5t5.5 -8.5t11 -6.5
t13 -4.5t17 -4l17.5 -3.5v-19h-185v19q50 10 60 17q14 12 25 38l234 563h36l243 -560q10 -21 16 -30l3 2v-6q12 -14 62 -24v-19h-79zM198 234h242l-124 287z" />
    <glyph glyph-name="aogonek" unicode="&#x105;" horiz-adv-x="501" 
d="M407 90q0 -24 21.5 -28.5t53.5 13.5v-21q-25 -36 -75 -61h-7q-54 -35 -54 -81q0 -26 14.5 -40t37.5 -14q21 0 50 11v-16q-34 -36 -85 -36q-40 0 -66 20t-26 61q0 30 22 61l72 48q-34 26 -34 69q-88 -83 -180 -83q-53 0 -85 29.5t-32 76.5q0 25 10 45t24.5 33t41.5 25.5
t50.5 20t61.5 18.5q39 11 55.5 16t32 14t21.5 21v13q0 61 -29 84.5t-96 23.5q-33 0 -45 -28q-20 -48 -32.5 -65.5t-31.5 -17.5q-36 0 -36 35q0 32 36.5 58.5t86 40t96.5 13.5q68 0 97.5 -37t29.5 -114v-208zM199 45q38 0 74.5 20.5t57.5 49.5v127l-107 -31
q-60 -17 -83.5 -38.5t-23.5 -54.5q0 -37 23.5 -55t58.5 -18z" />
    <glyph glyph-name="Cacute" unicode="&#x106;" horiz-adv-x="654" 
d="M352 704l-18 14q35 97 69 145q17 0 38.5 -15t27.5 -30q-42 -30 -117 -114zM383 -12q-146 0 -240 92t-94 238q0 142 94 235t249 93q118 0 195 -46q4 -91 7 -135h-33q-34 148 -187 148q-103 0 -164 -70t-61 -198q0 -139 79.5 -225.5t195.5 -86.5q43 0 89.5 13t73.5 42
l18 -19q-32 -35 -91 -58t-131 -23z" />
    <glyph glyph-name="cacute" unicode="&#x107;" horiz-adv-x="479" 
d="M242 514l-18 14q35 97 69 145q17 0 38.5 -15t27.5 -30q-42 -30 -117 -114zM264 -9q-96 0 -160.5 61.5t-64.5 162.5q0 105 66.5 169.5t166.5 64.5q68 0 113.5 -29t45.5 -70q0 -22 -12.5 -32.5t-29.5 -10.5q-40 0 -60 67q-13 47 -63 47q-56 0 -100.5 -44.5t-44.5 -129.5
q0 -86 50.5 -142.5t129.5 -56.5q85 0 123 61l16 -9q-18 -52 -65.5 -80.5t-110.5 -28.5z" />
    <glyph glyph-name="Cdotaccent" unicode="&#x10a;" horiz-adv-x="654" 
d="M364 752q-20 0 -35 14t-15 34t15 34.5t35 14.5t35.5 -14.5t15.5 -34.5t-15 -34t-36 -14zM383 -12q-146 0 -240 92t-94 238q0 142 94 235t249 93q118 0 195 -46q4 -91 7 -135h-33q-34 148 -187 148q-103 0 -164 -70t-61 -198q0 -139 79.5 -225.5t195.5 -86.5q43 0 89.5 13
t73.5 42l18 -19q-32 -35 -91 -58t-131 -23z" />
    <glyph glyph-name="cdotaccent" unicode="&#x10b;" horiz-adv-x="479" 
d="M254 562q-20 0 -35 14t-15 34t15 34.5t35 14.5t35 -14.5t15 -34.5t-15 -34t-35 -14zM264 -9q-96 0 -160.5 61.5t-64.5 162.5q0 105 66.5 169.5t166.5 64.5q68 0 113.5 -29t45.5 -70q0 -22 -12.5 -32.5t-29.5 -10.5q-40 0 -60 67q-13 47 -63 47q-56 0 -100.5 -44.5
t-44.5 -129.5q0 -86 50.5 -142.5t129.5 -56.5q85 0 123 61l16 -9q-18 -52 -65.5 -80.5t-110.5 -28.5z" />
    <glyph glyph-name="Ccaron" unicode="&#x10c;" horiz-adv-x="654" 
d="M363 715l-136 153l12 9l124 -95l123 95l13 -10zM383 -12q-146 0 -240 92t-94 238q0 142 94 235t249 93q118 0 195 -46q4 -91 7 -135h-33q-34 148 -187 148q-103 0 -164 -70t-61 -198q0 -139 79.5 -225.5t195.5 -86.5q43 0 89.5 13t73.5 42l18 -19q-32 -35 -91 -58
t-131 -23z" />
    <glyph glyph-name="ccaron" unicode="&#x10d;" horiz-adv-x="479" 
d="M252 525l-136 153l13 9l123 -95l124 95l12 -10zM264 -9q-96 0 -160.5 61.5t-64.5 162.5q0 105 66.5 169.5t166.5 64.5q68 0 113.5 -29t45.5 -70q0 -22 -12.5 -32.5t-29.5 -10.5q-40 0 -60 67q-13 47 -63 47q-56 0 -100.5 -44.5t-44.5 -129.5q0 -86 50.5 -142.5
t129.5 -56.5q85 0 123 61l16 -9q-18 -52 -65.5 -80.5t-110.5 -28.5z" />
    <glyph glyph-name="Dcaron" unicode="&#x10e;" horiz-adv-x="676" 
d="M473 867l-136 -152l-136 153l12 9l124 -95l123 95zM269 630q73 0 136 -17.5t113.5 -53.5t79.5 -97.5t29 -142.5q0 -161 -100.5 -240t-257.5 -79h-240v19q51 10 64 20q19 16 19 59v434q0 23 -3.5 37t-17.5 22.5t-20.5 10.5t-33.5 7q-5 1 -8 2v19h240zM297 34
q232 0 232 275q0 287 -270 287h-59v-466q0 -53 20.5 -74.5t76.5 -21.5z" />
    <glyph glyph-name="dcaron" unicode="&#x10f;" horiz-adv-x="527" 
d="M457 85q0 -30 12.5 -44.5t53.5 -21.5v-19h-137l8 91h-12q-26 -43 -68 -71.5t-94 -28.5q-75 0 -128 57.5t-53 152.5q0 108 71.5 178t169.5 70q59 0 100 -29v130q0 29 -16 43.5t-59 19.5v17q80 15 132 57l20 -19v-583zM482 653q12 10 38.5 10.5t41.5 -10.5q0 -64 -30 -158
l-23 -2q-15 124 -27 160zM265 49q48 0 76 29t39 68v202q-7 29 -34.5 50t-71.5 21q-65 0 -111.5 -46.5t-46.5 -133.5q0 -86 43.5 -138t105.5 -52z" />
    <glyph glyph-name="Dcroat" unicode="&#x110;" horiz-adv-x="683" 
d="M276 630q73 0 136 -17.5t113.5 -53.5t79.5 -97.5t29 -142.5q0 -161 -100.5 -240t-257.5 -79h-240v19q51 10 64 20q19 16 19 59v200l-92 -3l10 33q54 -2 82 -2v206q0 23 -3.5 37t-17.5 22.5t-20.5 10.5t-33.5 7q-5 1 -8 2v19h240zM304 34q232 0 232 275q0 287 -270 287
h-59v-271q66 0 132 3l-10 -33q-61 3 -122 3v-168q0 -53 20.5 -74.5t76.5 -21.5z" />
    <glyph glyph-name="dcroat" unicode="&#x111;" horiz-adv-x="549" 
d="M457 85q0 -30 12.5 -44.5t53.5 -21.5v-19h-137l8 91h-12q-26 -43 -68 -71.5t-94 -28.5q-75 0 -128 57.5t-53 152.5q0 108 71.5 178t169.5 70q59 0 100 -29v74q-88 0 -176 -3l10 33q84 -3 166 -3v29q0 29 -16 43.5t-59 19.5v17q80 15 132 57l20 -19v-146q9 0 29 1t29 1
l-10 -33q-8 1 -24 1t-24 1v-408zM265 49q48 0 76 29t39 68v202q-7 29 -34.5 50t-71.5 21q-65 0 -111.5 -46.5t-46.5 -133.5q0 -86 43.5 -138t105.5 -52z" />
    <glyph glyph-name="Emacron" unicode="&#x112;" horiz-adv-x="580" 
d="M439 827l-15 -33h-280l15 33h280zM523 147h24l-41 -147h-477v19q51 10 64 20q19 16 19 59v434q0 23 -3.5 37t-17.5 22.5t-20.5 10.5t-33.5 7q-5 1 -8 2v19h475l9 -139h-24q-7 57 -27 81.5t-71 24.5h-97q-59 0 -76.5 -13t-17.5 -63v-187h85q86 0 110 17t29 67h18v-199h-18
q-5 50 -29 67t-110 17h-85v-194q0 -50 17.5 -63t76.5 -13h76q59 0 92 24.5t61 89.5z" />
    <glyph glyph-name="emacron" unicode="&#x113;" horiz-adv-x="486" 
d="M393 637l-15 -33h-280l15 33h280zM424 108l16 -9q-18 -52 -64.5 -80t-109.5 -28q-96 0 -161.5 62t-65.5 163t62 167t159 66q100 0 147.5 -67.5t24.5 -132.5h-314q1 -87 51 -143.5t133 -56.5q85 0 122 59zM249 419q-50 0 -86.5 -37t-43.5 -103h240q7 50 -22.5 95t-87.5 45
z" />
    <glyph glyph-name="Edotaccent" unicode="&#x116;" horiz-adv-x="580" 
d="M291 752q-20 0 -35 14t-15 34t15 34.5t35 14.5t35.5 -14.5t15.5 -34.5t-15 -34t-36 -14zM523 147h24l-41 -147h-477v19q51 10 64 20q19 16 19 59v434q0 23 -3.5 37t-17.5 22.5t-20.5 10.5t-33.5 7q-5 1 -8 2v19h475l9 -139h-24q-7 57 -27 81.5t-71 24.5h-97
q-59 0 -76.5 -13t-17.5 -63v-187h85q86 0 110 17t29 67h18v-199h-18q-5 50 -29 67t-110 17h-85v-194q0 -50 17.5 -63t76.5 -13h76q59 0 92 24.5t61 89.5z" />
    <glyph glyph-name="edotaccent" unicode="&#x117;" horiz-adv-x="486" 
d="M245 562q-20 0 -35 14t-15 34t15 34.5t35 14.5t35 -14.5t15 -34.5t-15 -34t-35 -14zM424 108l16 -9q-18 -52 -64.5 -80t-109.5 -28q-96 0 -161.5 62t-65.5 163t62 167t159 66q100 0 147.5 -67.5t24.5 -132.5h-314q1 -87 51 -143.5t133 -56.5q85 0 122 59zM249 419
q-50 0 -86.5 -37t-43.5 -103h240q7 50 -22.5 95t-87.5 45z" />
    <glyph glyph-name="Eogonek" unicode="&#x118;" horiz-adv-x="580" 
d="M469 0q-47 -27 -68.5 -49.5t-21.5 -54.5q0 -26 14.5 -40t37.5 -14q21 0 50 11v-16q-34 -36 -85 -36q-40 0 -66 20t-26 61q0 30 22 61l85 57h-382v19q51 10 64 20q19 16 19 59v434q0 23 -3.5 37t-17.5 22.5t-20.5 10.5t-33.5 7q-5 1 -8 2v19h475l9 -139h-24
q-7 57 -27 81.5t-71 24.5h-97q-59 0 -76.5 -13t-17.5 -63v-187h85q86 0 110 17t29 67h18v-199h-18q-5 50 -29 67t-110 17h-85v-194q0 -50 17.5 -63t76.5 -13h76q59 0 92 24.5t61 89.5h24l-41 -147h-37z" />
    <glyph glyph-name="eogonek" unicode="&#x119;" horiz-adv-x="486" 
d="M332 0q-47 -27 -68.5 -49.5t-21.5 -54.5q0 -26 14.5 -40t37.5 -14q21 0 50 11v-16q-34 -36 -85 -36q-40 0 -66 20t-26 61q0 30 22 61l72 48q-94 2 -158 64t-64 161q0 101 62 167t159 66q100 0 147.5 -67.5t24.5 -132.5h-314q1 -87 51 -143.5t133 -56.5q85 0 122 59l16 -9
q-25 -75 -108 -99zM249 419q-50 0 -86.5 -37t-43.5 -103h240q7 50 -22.5 95t-87.5 45z" />
    <glyph glyph-name="Ecaron" unicode="&#x11a;" horiz-adv-x="580" 
d="M425 867l-136 -152l-136 153l12 9l124 -95l123 95zM523 147h24l-41 -147h-477v19q51 10 64 20q19 16 19 59v434q0 23 -3.5 37t-17.5 22.5t-20.5 10.5t-33.5 7q-5 1 -8 2v19h475l9 -139h-24q-7 57 -27 81.5t-71 24.5h-97q-59 0 -76.5 -13t-17.5 -63v-187h85q86 0 110 17
t29 67h18v-199h-18q-5 50 -29 67t-110 17h-85v-194q0 -50 17.5 -63t76.5 -13h76q59 0 92 24.5t61 89.5z" />
    <glyph glyph-name="ecaron" unicode="&#x11b;" horiz-adv-x="486" 
d="M379 677l-136 -152l-136 153l13 9l123 -95l124 95zM424 108l16 -9q-18 -52 -64.5 -80t-109.5 -28q-96 0 -161.5 62t-65.5 163t62 167t159 66q100 0 147.5 -67.5t24.5 -132.5h-314q1 -87 51 -143.5t133 -56.5q85 0 122 59zM249 419q-50 0 -86.5 -37t-43.5 -103h240
q7 50 -22.5 95t-87.5 45z" />
    <glyph glyph-name="Gbreve" unicode="&#x11e;" horiz-adv-x="719" 
d="M361 745q-64 0 -97 35t-33 89h19q13 -65 111 -65t110 65h20q0 -54 -33 -89t-97 -35zM414 -12q-172 0 -268.5 92t-96.5 238q0 142 94 235t250 93q123 0 200 -46q4 -91 7 -135h-33q-34 148 -188 148q-105 0 -167.5 -72.5t-62.5 -195.5q0 -143 76 -233.5t209 -90.5
q52 0 71 22.5t19 79.5v51q0 67 -21 87t-88 25v23h260v-23q-39 -5 -55 -19.5t-16 -52.5v-69q0 -26 3 -46t7 -36l5 -20q-21 -22 -79 -38.5t-126 -16.5z" />
    <glyph glyph-name="gbreve" unicode="&#x11f;" horiz-adv-x="496" 
d="M253 555q-64 0 -97 35t-33 89h20q12 -65 110 -65t111 65h19q0 -54 -33 -89t-97 -35zM454 429v-46l-86 11q33 -36 33 -87q0 -61 -47.5 -100.5t-122.5 -40.5h-48q-19 0 -30.5 -11t-11.5 -29q0 -40 44 -45l112 -10q90 -9 121 -24.5t31 -58.5q0 -77 -72 -126t-177 -50
q-87 -1 -131.5 31.5t-44.5 82.5q0 20 29.5 48t69.5 48q-60 22 -60 70q0 15 30 46t55 43q-42 17 -66 50t-24 76q0 62 48.5 102t122.5 40q40 0 77 -13q27 -7 148 -7zM229 190q50 0 70.5 36.5t20.5 80.5t-20.5 80.5t-70.5 36.5t-70.5 -36.5t-20.5 -80.5t20.5 -80.5t70.5 -36.5z
M290 0l-103 9h-2q-41 4 -63.5 -20t-22.5 -57t27.5 -59.5t97.5 -26.5q78 0 115.5 32t37.5 75q0 27 -18.5 35t-68.5 12z" />
    <glyph glyph-name="Gdotaccent" unicode="&#x120;" horiz-adv-x="719" 
d="M360 752q-20 0 -35 14t-15 34t15 34.5t35 14.5t35.5 -14.5t15.5 -34.5t-15 -34t-36 -14zM414 -12q-172 0 -268.5 92t-96.5 238q0 142 94 235t250 93q123 0 200 -46q4 -91 7 -135h-33q-34 148 -188 148q-105 0 -167.5 -72.5t-62.5 -195.5q0 -143 76 -233.5t209 -90.5
q52 0 71 22.5t19 79.5v51q0 67 -21 87t-88 25v23h260v-23q-39 -5 -55 -19.5t-16 -52.5v-69q0 -26 3 -46t7 -36l5 -20q-21 -22 -79 -38.5t-126 -16.5z" />
    <glyph glyph-name="gdotaccent" unicode="&#x121;" horiz-adv-x="496" 
d="M253 562q-20 0 -35 14t-15 34t15 34.5t35 14.5t35 -14.5t15 -34.5t-15 -34t-35 -14zM454 429v-46l-86 11q33 -36 33 -87q0 -61 -47.5 -100.5t-122.5 -40.5h-48q-19 0 -30.5 -11t-11.5 -29q0 -40 44 -45l112 -10q90 -9 121 -24.5t31 -58.5q0 -77 -72 -126t-177 -50
q-87 -1 -131.5 31.5t-44.5 82.5q0 20 29.5 48t69.5 48q-60 22 -60 70q0 15 30 46t55 43q-42 17 -66 50t-24 76q0 62 48.5 102t122.5 40q40 0 77 -13q27 -7 148 -7zM229 190q50 0 70.5 36.5t20.5 80.5t-20.5 80.5t-70.5 36.5t-70.5 -36.5t-20.5 -80.5t20.5 -80.5t70.5 -36.5z
M290 0l-103 9h-2q-41 4 -63.5 -20t-22.5 -57t27.5 -59.5t97.5 -26.5q78 0 115.5 32t37.5 75q0 27 -18.5 35t-68.5 12z" />
    <glyph glyph-name="uni0122" unicode="&#x122;" horiz-adv-x="719" 
d="M414 -12q-172 0 -268.5 92t-96.5 238q0 142 94 235t250 93q123 0 200 -46q4 -91 7 -135h-33q-34 148 -188 148q-105 0 -167.5 -72.5t-62.5 -195.5q0 -143 76 -233.5t209 -90.5q52 0 71 22.5t19 79.5v51q0 67 -21 87t-88 25v23h260v-23q-39 -5 -55 -19.5t-16 -52.5v-69
q0 -26 3 -46t7 -36l5 -20q-21 -22 -79 -38.5t-126 -16.5zM294 -300l-9 18q34 14 54.5 37.5t25.5 46.5q1 5 1.5 9t-1.5 7.5t-3 5.5t-4.5 4.5t-4.5 3t-5.5 3t-5.5 2.5q-31 18 -31 51q0 24 16 39t39 15q26 0 45 -20.5t19 -55.5q0 -49 -35.5 -97t-100.5 -69z" />
    <glyph glyph-name="uni0123" unicode="&#x123;" horiz-adv-x="493" 
d="M205 550q-26 0 -45 20t-19 56q0 49 35.5 97t100.5 68l9 -17q-34 -15 -54.5 -38t-25.5 -47q-3 -11 1.5 -18.5t8 -9.5t13.5 -6q31 -18 31 -51q0 -24 -16 -39t-39 -15zM454 429v-46l-86 11q33 -36 33 -87q0 -61 -47.5 -100.5t-122.5 -40.5h-48q-19 0 -30.5 -11t-11.5 -29
q0 -40 44 -45l112 -10q90 -9 121 -24.5t31 -58.5q0 -77 -72 -126t-177 -50q-87 -1 -131.5 31.5t-44.5 82.5q0 20 29.5 48t69.5 48q-60 22 -60 70q0 15 30 46t55 43q-42 17 -66 50t-24 76q0 62 48.5 102t122.5 40q40 0 77 -13q27 -7 148 -7zM229 190q50 0 70.5 36.5
t20.5 80.5t-20.5 80.5t-70.5 36.5t-70.5 -36.5t-20.5 -80.5t20.5 -80.5t70.5 -36.5zM290 0l-103 9h-2q-41 4 -63.5 -20t-22.5 -57t27.5 -59.5t97.5 -26.5q78 0 115.5 32t37.5 75q0 27 -18.5 35t-68.5 12z" />
    <glyph glyph-name="Hbar" unicode="&#x126;" horiz-adv-x="695" 
d="M666 611q-51 -10 -64 -20q-19 -16 -19 -59v-434q0 -23 3.5 -37t17.5 -22.5t20.5 -10.5t33.5 -7q5 -1 8 -2v-19h-254v19q51 10 64 20q19 16 19 59v202h-295v-202q0 -23 3.5 -37t17.5 -22.5t20.5 -10.5t33.5 -7q5 -1 8 -2v-19h-254v19q51 10 64 20q19 16 19 59v434
q0 23 -3.5 37t-17.5 22.5t-20.5 10.5t-33.5 7q-5 1 -8 2v19h254v-19q-51 -10 -64 -20q-19 -16 -19 -59v-92h295v92q0 23 -3.5 37t-17.5 22.5t-20.5 10.5t-33.5 7q-5 1 -8 2v19h254v-19zM200 331h295v78h-295v-78z" />
    <glyph glyph-name="hbar" unicode="&#x127;" horiz-adv-x="578" 
d="M488 72q0 -16 4 -26t15.5 -15t19 -7t27.5 -5v-19h-208v19q20 3 27.5 5t19 7t15.5 15t4 26v222q0 97 -87 97q-74 0 -133 -69v-250q0 -16 4 -26t15.5 -15t19 -7t27.5 -5v-19h-216v19q48 8 60.5 19.5t12.5 33.5v421q-28 0 -86 -2l10 33q50 -2 76 -2v28q0 53 -73 63v17
q78 16 130 57l20 -19v-147q73 0 148 3l-10 -33q-69 3 -138 3v-141q71 96 174 96q67 0 94.5 -40.5t27.5 -113.5v-223z" />
    <glyph glyph-name="Imacron" unicode="&#x12a;" horiz-adv-x="312" 
d="M10 794l15 33h280l-15 -33h-280zM29 0v19q51 10 64 20q19 16 19 59v434q0 23 -3.5 37t-17.5 22.5t-20.5 10.5t-33.5 7q-5 1 -8 2v19h254v-19q-51 -10 -64 -20q-19 -16 -19 -59v-434q0 -23 3.5 -37t17.5 -22.5t20.5 -10.5t33.5 -7q5 -1 8 -2v-19h-254z" />
    <glyph glyph-name="imacron" unicode="&#x12b;" horiz-adv-x="269" 
d="M-17 604l15 33h281l-15 -33h-281zM29 0v19q20 3 27.5 5t19 7t15.5 15t4 26v246q0 30 -12.5 44t-53.5 19v17q18 3 31 7t25.5 10.5t19.5 10.5t22 14.5t23 15.5l21 -19v-365q0 -16 4 -26t15.5 -15t19 -7t27.5 -5v-19h-208z" />
    <glyph glyph-name="Iogonek" unicode="&#x12e;" horiz-adv-x="312" 
d="M283 611q-51 -10 -64 -20q-19 -16 -19 -59v-434q0 -23 3.5 -37t17.5 -22.5t20.5 -10.5t33.5 -7q5 -1 8 -2v-19h-83q-47 -27 -68.5 -49.5t-21.5 -54.5q0 -26 14.5 -40t37.5 -14q21 0 50 11v-16q-34 -36 -85 -36q-40 0 -66 20t-26 61q0 30 22 61l85 57h-113v19q51 10 64 20
q19 16 19 59v434q0 23 -3.5 37t-17.5 22.5t-20.5 10.5t-33.5 7q-5 1 -8 2v19h254v-19z" />
    <glyph glyph-name="iogonek" unicode="&#x12f;" horiz-adv-x="269" 
d="M131 562q-21 0 -36 14t-15 34t15.5 34.5t35.5 14.5t35 -14.5t15 -34.5t-15 -34t-35 -14zM183 0q-48 -28 -69.5 -50.5t-21.5 -53.5q0 -26 15 -40t38 -14q21 0 50 11v-16q-34 -36 -86 -36q-40 0 -65.5 20t-25.5 61q0 31 21 61l86 57h-96v19q20 3 27.5 5t19 7t15.5 15t4 26
v246q0 30 -12.5 44t-53.5 19v17q18 3 31 7t25.5 10.5t19.5 10.5t22 14.5t23 15.5l21 -19v-365q0 -22 10 -34l2 1v-3q10 -9 54 -17v-19h-54z" />
    <glyph glyph-name="Idotaccent" unicode="&#x130;" horiz-adv-x="312" 
d="M157 752q-20 0 -35 14t-15 34t15 34.5t35 14.5t35.5 -14.5t15.5 -34.5t-15 -34t-36 -14zM29 0v19q51 10 64 20q19 16 19 59v434q0 23 -3.5 37t-17.5 22.5t-20.5 10.5t-33.5 7q-5 1 -8 2v19h254v-19q-51 -10 -64 -20q-19 -16 -19 -59v-434q0 -23 3.5 -37t17.5 -22.5
t20.5 -10.5t33.5 -7q5 -1 8 -2v-19h-254z" />
    <glyph glyph-name="dotlessi" unicode="&#x131;" horiz-adv-x="266" 
d="M29 0v19q20 3 27.5 5t19 7t15.5 15t4 26v246q0 30 -12.5 44t-53.5 19v17q18 3 31 7t25.5 10.5t19.5 10.5t22 14.5t23 15.5l21 -19v-365q0 -16 4 -26t15.5 -15t19 -7t27.5 -5v-19h-208z" />
    <glyph glyph-name="IJ" unicode="&#x132;" horiz-adv-x="622" 
d="M29 0v19q51 10 64 20q19 16 19 59v434q0 23 -3.5 37t-17.5 22.5t-20.5 10.5t-33.5 7q-5 1 -8 2v19h254v-19q-51 -10 -64 -20q-19 -16 -19 -59v-434q0 -23 3.5 -37t17.5 -22.5t20.5 -10.5t33.5 -7q5 -1 8 -2v-19h-254zM317 -185q-3 10 0 23q68 24 86.5 56.5t18.5 113.5
v524q0 52 -32 66q-13 6 -54 13v19h258v-19q-51 -10 -64 -20q-19 -16 -19 -59v-534q0 -85 -53.5 -126.5t-140.5 -56.5z" />
    <glyph glyph-name="ij" unicode="&#x133;" horiz-adv-x="511" 
d="M125 572q-20 0 -35 14t-15 34t15 34.5t35 14.5t35.5 -14.5t15.5 -34.5t-15 -34t-36 -14zM387 572q-20 0 -35 14t-15 34t15 34.5t35 14.5t35 -14.5t15 -34.5t-15 -34t-35 -14zM29 0v19q20 3 27.5 5t19 7t15.5 15t4 26v246q0 30 -12.5 44t-53.5 19v17q65 10 121 58l21 -19
v-365q0 -16 4 -26t15.5 -15t19 -7t27.5 -5v-19h-208zM269 -185q-10 10 0 23q46 17 66 47.5t20 98.5v334q0 30 -12.5 44t-53.5 19v17q18 3 31 7t25.5 10.5t19.5 10.5t22 14.5t23 15.5l21 -19v-454q0 -81 -47 -120t-115 -48z" />
    <glyph glyph-name="uni0136" unicode="&#x136;" horiz-adv-x="670" 
d="M571 54q15 -21 29.5 -28t56.5 -7v-19h-172q0 28 -28 67l-181 258l-76 -74v-153q0 -23 3.5 -37t17.5 -22.5t20.5 -10.5t33.5 -7q5 -1 8 -2v-19h-254v19q51 10 64 20q19 16 19 59v434q0 23 -3.5 37t-17.5 22.5t-20.5 10.5t-33.5 7q-5 1 -8 2v19h254v-19q-51 -10 -64 -20
q-19 -16 -19 -59v-229l258 254q23 22 11.5 38t-52.5 16v19h214v-19q-31 0 -55 -8.5t-34.5 -17t-30.5 -28.5l-177 -174zM342 -58q26 0 45 -20.5t19 -55.5q0 -49 -35.5 -97t-100.5 -69l-9 18q34 14 54.5 37.5t25.5 46.5q1 5 1.5 9t-1.5 7.5t-3 5.5t-4.5 4.5t-4.5 3t-5.5 3
t-5.5 2.5q-31 18 -31 51q0 24 16 39t39 15z" />
    <glyph glyph-name="uni0137" unicode="&#x137;" horiz-adv-x="535" 
d="M448 55q13 -18 27.5 -24.5t48.5 -10.5v-20h-143q0 21 -18 50l-128 183l-57 -55v-106q0 -19 10.5 -30.5t22.5 -15t33 -6.5q5 -1 7 -1v-19h-222v19q48 8 60 20q13 11 13 33v478q0 53 -73 63v17q77 16 129 57l20 -19v-443l146 141q23 22 14 36t-48 18v20h194v-20
q-68 -6 -109 -50l-90 -87zM270 -58q26 0 45 -20.5t19 -55.5q0 -49 -35.5 -97t-100.5 -69l-9 18q34 14 54.5 37.5t24.5 46.5q4 5 2 10.5t-2 8t-4.5 6t-5.5 4l-6 3t-6 3.5q-32 18 -32 51q0 23 16.5 38.5t39.5 15.5z" />
    <glyph glyph-name="Lacute" unicode="&#x139;" horiz-adv-x="578" 
d="M141 704l-18 14q35 97 69 145q17 0 38.5 -15t27.5 -30q-42 -30 -117 -114zM29 0v19q51 10 64 20q19 16 19 59v434q0 23 -3.5 37t-17.5 22.5t-20.5 10.5t-33.5 7q-5 1 -8 2v19h273v-19q-3 -1 -18.5 -3.5t-19.5 -3.5t-16.5 -4.5t-16.5 -6.5l-12 -9t-11 -13t-5.5 -17
t-2.5 -22v-424q0 -50 17.5 -63t76.5 -13h79q59 0 91.5 26.5t61.5 94.5h23l-41 -153h-479z" />
    <glyph glyph-name="lacute" unicode="&#x13a;" horiz-adv-x="283" 
d="M119 708l-18 14q35 97 69 145q18 0 39.5 -15t26.5 -30q-42 -30 -117 -114zM29 0v19q48 8 60 20q13 11 13 33v478q0 53 -73 63v17q77 16 129 57l20 -19v-596q0 -19 10.5 -30.5t22.5 -15t33 -6.5q5 -1 7 -1v-19h-222z" />
    <glyph glyph-name="uni013B" unicode="&#x13b;" horiz-adv-x="578" 
d="M29 0v19q51 10 64 20q19 16 19 59v434q0 23 -3.5 37t-17.5 22.5t-20.5 10.5t-33.5 7q-5 1 -8 2v19h273v-19q-3 -1 -18.5 -3.5t-19.5 -3.5t-16.5 -4.5t-16.5 -6.5l-12 -9t-11 -13t-5.5 -17t-2.5 -22v-424q0 -50 17.5 -63t76.5 -13h79q59 0 91.5 26.5t61.5 94.5h23
l-41 -153h-479zM225 -300l-9 18q34 14 54.5 37.5t25.5 46.5q1 5 1.5 9t-1.5 7.5t-3 5.5t-4.5 4.5t-4.5 3t-5.5 3t-5.5 2.5q-31 18 -31 51q0 24 16 39t39 15q26 0 45 -20.5t19 -55.5q0 -49 -35.5 -97t-100.5 -69z" />
    <glyph glyph-name="uni013C" unicode="&#x13c;" horiz-adv-x="283" 
d="M29 0v19q48 8 60 20q13 11 13 33v478q0 53 -73 63v17q77 16 129 57l20 -19v-596q0 -19 10.5 -30.5t22.5 -15t33 -6.5q5 -1 7 -1v-19h-222zM76 -300l-9 18q34 14 54.5 37.5t25.5 46.5q1 5 1.5 9t-1 7.5t-2.5 5.5t-4.5 4.5t-5 3.5t-6 3t-5.5 2q-31 18 -31 51
q0 23 16.5 38.5t38.5 15.5q26 0 45 -20.5t19 -55.5q0 -49 -35 -97t-101 -69z" />
    <glyph glyph-name="Lcaron" unicode="&#x13d;" horiz-adv-x="583" 
d="M29 0v19q51 10 64 20q19 16 19 59v434q0 23 -3.5 37t-17.5 22.5t-20.5 10.5t-33.5 7q-5 1 -8 2v19h273v-19q-3 -1 -18.5 -3.5t-19.5 -3.5t-16.5 -4.5t-16.5 -6.5l-12 -9t-11 -13t-5.5 -17t-2.5 -22v-424q0 -50 17.5 -63t76.5 -13h79q59 0 91.5 26.5t61.5 94.5h23
l-41 -153h-479zM343 387l-9 17q34 15 55 38.5t25 46.5q3 11 -1.5 19t-7 9t-13.5 6q-32 18 -32 51q0 24 16.5 39t39.5 15q26 0 44.5 -20t18.5 -56q0 -49 -35 -97t-101 -68z" />
    <glyph glyph-name="lcaron" unicode="&#x13e;" horiz-adv-x="246" 
d="M29 0v19q48 8 60 20q13 11 13 33v478q0 53 -73 63v17q77 16 129 57l20 -19v-596q0 -19 10.5 -30.5t22.5 -15t33 -6.5q5 -1 7 -1v-19h-222zM251 495l-23 -2q-15 124 -27 160q12 10 38.5 10.5t40.5 -10.5q0 -67 -29 -158z" />
    <glyph glyph-name="Ldot" unicode="&#x13f;" horiz-adv-x="583" 
d="M29 0v19q51 10 64 20q19 16 19 59v434q0 23 -3.5 37t-17.5 22.5t-20.5 10.5t-33.5 7q-5 1 -8 2v19h273v-19q-3 -1 -18.5 -3.5t-19.5 -3.5t-16.5 -4.5t-16.5 -6.5l-12 -9t-11 -13t-5.5 -17t-2.5 -22v-424q0 -50 17.5 -63t76.5 -13h79q59 0 91.5 26.5t61.5 94.5h23
l-41 -153h-479zM379 257q-23 0 -39.5 15.5t-16.5 37.5q0 23 16.5 38.5t39.5 15.5t39.5 -15.5t16.5 -38.5q0 -22 -16.5 -37.5t-39.5 -15.5z" />
    <glyph glyph-name="ldot" unicode="&#x140;" horiz-adv-x="303" 
d="M29 0v19q48 8 60 20q13 11 13 33v478q0 53 -73 63v17q77 16 129 57l20 -19v-596q0 -19 10.5 -30.5t22.5 -15t33 -6.5q5 -1 7 -1v-19h-222zM282 284q-23 0 -39.5 16t-16.5 38t16.5 38t39.5 16t39.5 -16t16.5 -38t-16.5 -38t-39.5 -16z" />
    <glyph glyph-name="Lslash" unicode="&#x141;" horiz-adv-x="590" 
d="M533 153h23l-41 -153h-479v19q51 10 64 20q19 16 19 59v217l-92 -35v35l92 27v190q0 23 -3.5 37t-17.5 22.5t-20.5 10.5t-33.5 7q-5 1 -8 2v19h273v-19q-3 -1 -18.5 -3.5t-19.5 -3.5t-16.5 -4.5t-16.5 -6.5l-12 -9t-11 -13t-5.5 -17t-2.5 -22v-162q69 23 157 59v-35
q-42 -12 -157 -49v-237q0 -50 17.5 -63t76.5 -13h79q59 0 91.5 26.5t61.5 94.5z" />
    <glyph glyph-name="lslash" unicode="&#x142;" horiz-adv-x="293" 
d="M192 72q0 -28 16.5 -37.5t49.5 -14.5q5 -1 7 -1v-19h-223v19q48 8 60.5 19.5t12.5 33.5v245q-46 -18 -86 -36v33l86 27v209q0 53 -73 63v17q78 16 130 57l20 -19v-299q40 16 59 25v-33q-6 -2 -26.5 -8t-32.5 -10v-271z" />
    <glyph glyph-name="Nacute" unicode="&#x143;" horiz-adv-x="701" 
d="M457 818q-42 -30 -117 -114l-18 14q35 97 69 145q17 0 38.5 -15t27.5 -30zM459 630h214v-19q-52 -10 -65 -20q-20 -17 -20 -59v-532h-38l-397 531v-433q0 -23 4 -37t19 -22.5t22 -10.5t36 -7q6 -1 9 -2v-19h-214v19q52 10 65 20q20 16 20 59v434q0 23 -4 37t-17.5 22.5
t-21.5 10.5t-33 7q-2 1 -3 1t-3 0.5t-3 0.5v19h157l363 -482v384q0 23 -4 37t-19 22.5t-22 10.5t-36 7q-6 1 -9 2v19z" />
    <glyph glyph-name="nacute" unicode="&#x144;" 
d="M264 514l-18 14q35 97 69 145q18 0 39.5 -15t26.5 -30q-42 -30 -117 -114zM24 0v19q20 3 27.5 5t19 7t15.5 15t4 26v246q0 30 -12.5 44t-53.5 19v17q46 7 73.5 19.5t61.5 38.5l20 -19l-24 -84h11q76 96 175 96q67 0 94.5 -40.5t27.5 -113.5v-223q0 -16 4 -26t15.5 -15
t19 -7t27.5 -5v-19h-209v19q20 3 27.5 5t19 7t15.5 15t4 26v220q0 99 -87 99q-75 0 -133 -70v-249q0 -16 4 -26t15.5 -15t19 -7t27.5 -5v-19h-208z" />
    <glyph glyph-name="uni0145" unicode="&#x145;" horiz-adv-x="701" 
d="M459 630h214v-19q-52 -10 -65 -20q-20 -17 -20 -59v-532h-38l-397 531v-433q0 -23 4 -37t19 -22.5t22 -10.5t36 -7q6 -1 9 -2v-19h-214v19q52 10 65 20q20 16 20 59v434q0 23 -4 37t-17.5 22.5t-21.5 10.5t-33 7q-2 1 -3 1t-3 0.5t-3 0.5v19h157l363 -482v384q0 23 -4 37
t-19 22.5t-22 10.5t-36 7q-6 1 -9 2v19zM357 -58q26 0 45 -20.5t19 -55.5q0 -49 -35.5 -97t-100.5 -69l-9 18q34 14 54.5 37.5t25.5 46.5q1 5 1.5 9t-1.5 7.5t-3 5.5t-4.5 4.5t-4.5 3t-5.5 3t-5.5 2.5q-31 18 -31 51q0 24 16 39t39 15z" />
    <glyph glyph-name="uni0146" unicode="&#x146;" 
d="M24 0v19q20 3 27.5 5t19 7t15.5 15t4 26v246q0 30 -12.5 44t-53.5 19v17q46 7 73.5 19.5t61.5 38.5l20 -19l-24 -84h11q76 96 175 96q67 0 94.5 -40.5t27.5 -113.5v-223q0 -16 4 -26t15.5 -15t19 -7t27.5 -5v-19h-209v19q20 3 27.5 5t19 7t15.5 15t4 26v220q0 99 -87 99
q-75 0 -133 -70v-249q0 -16 4 -26t15.5 -15t19 -7t27.5 -5v-19h-208zM210 -300l-9 18q34 14 54.5 37.5t25.5 46.5q1 5 1.5 9t-1.5 7.5t-3 5.5t-4.5 4.5t-4.5 3t-5.5 3t-5.5 2.5q-31 18 -31 51q0 24 16 39t39 15q26 0 45 -20.5t19 -55.5q0 -49 -35.5 -97t-100.5 -69z" />
    <glyph glyph-name="Ncaron" unicode="&#x147;" horiz-adv-x="701" 
d="M486 867l-136 -152l-136 153l12 9l124 -95l123 95zM459 630h214v-19q-52 -10 -65 -20q-20 -17 -20 -59v-532h-38l-397 531v-433q0 -23 4 -37t19 -22.5t22 -10.5t36 -7q6 -1 9 -2v-19h-214v19q52 10 65 20q20 16 20 59v434q0 23 -4 37t-17.5 22.5t-21.5 10.5t-33 7
q-2 1 -3 1t-3 0.5t-3 0.5v19h157l363 -482v384q0 23 -4 37t-19 22.5t-22 10.5t-36 7q-6 1 -9 2v19z" />
    <glyph glyph-name="ncaron" unicode="&#x148;" 
d="M274 525l-135 153l12 9l123 -95l124 95l12 -10zM24 0v19q20 3 27.5 5t19 7t15.5 15t4 26v246q0 30 -12.5 44t-53.5 19v17q46 7 73.5 19.5t61.5 38.5l20 -19l-24 -84h11q76 96 175 96q67 0 94.5 -40.5t27.5 -113.5v-223q0 -16 4 -26t15.5 -15t19 -7t27.5 -5v-19h-209v19
q20 3 27.5 5t19 7t15.5 15t4 26v220q0 99 -87 99q-75 0 -133 -70v-249q0 -16 4 -26t15.5 -15t19 -7t27.5 -5v-19h-208z" />
    <glyph glyph-name="Eng" unicode="&#x14a;" horiz-adv-x="701" 
d="M459 630h214v-19q-52 -10 -65 -20q-20 -17 -20 -59v-534q0 -149 -193 -183q-9 13 0 23q68 24 86.5 56.5t18.5 113.5v59l-347 464v-433q0 -23 4 -37t19 -22.5t22 -10.5t36 -7q6 -1 9 -2v-19h-214v19q52 10 65 20q20 16 20 59v434q0 23 -4 37t-17.5 22.5t-21.5 10.5t-33 7
q-2 1 -3 1t-3 0.5t-3 0.5v19h157l363 -482v384q0 23 -4 37t-19 22.5t-22 10.5t-36 7q-6 1 -9 2v19z" />
    <glyph glyph-name="eng" unicode="&#x14b;" horiz-adv-x="521" 
d="M341 449q67 0 94.5 -40.5t27.5 -113.5v-312q0 -81 -47.5 -120t-115.5 -48q-10 10 0 23q47 17 66.5 47.5t19.5 98.5v308q0 99 -87 99q-75 0 -133 -70v-249q0 -16 4 -26t15.5 -15t19 -7t27.5 -5v-19h-208v19q20 3 27.5 5t19 7t15.5 15t4 26v246q0 30 -12.5 44t-53.5 19v17
q46 7 73.5 19.5t61.5 38.5l20 -19l-24 -84h11q76 96 175 96z" />
    <glyph glyph-name="Omacron" unicode="&#x14c;" horiz-adv-x="733" 
d="M220 794l15 33h280l-15 -33h-280zM365 -12q-137 0 -226.5 94t-89.5 233q0 138 90.5 234.5t229.5 96.5q137 0 226 -94t89 -232q0 -140 -90 -236t-229 -96zM382 21q87 0 146.5 73t59.5 196q0 139 -69 231t-167 92q-87 0 -147 -73t-60 -195q0 -141 69.5 -232.5t167.5 -91.5z
" />
    <glyph glyph-name="omacron" unicode="&#x14d;" horiz-adv-x="546" 
d="M127 604l15 33h280l-15 -33h-280zM266 -9q-92 0 -159.5 62t-67.5 164q0 105 71 168.5t167 63.5q92 0 159.5 -62t67.5 -164q0 -105 -71.5 -168.5t-166.5 -63.5zM278 22q56 0 97.5 46.5t41.5 137.5q0 92 -44.5 152t-107.5 60q-56 0 -97.5 -46.5t-41.5 -137.5q0 -92 44 -152
t108 -60z" />
    <glyph glyph-name="Ohungarumlaut" unicode="&#x150;" horiz-adv-x="733" 
d="M258 704l-18 14q35 97 69 145q17 0 38.5 -15t27.5 -30q-42 -30 -117 -114zM404 704l-17 14q31 92 69 145q17 0 38.5 -15t26.5 -30q-42 -30 -117 -114zM365 -12q-137 0 -226.5 94t-89.5 233q0 138 90.5 234.5t229.5 96.5q137 0 226 -94t89 -232q0 -140 -90 -236t-229 -96z
M382 21q87 0 146.5 73t59.5 196q0 139 -69 231t-167 92q-87 0 -147 -73t-60 -195q0 -141 69.5 -232.5t167.5 -91.5z" />
    <glyph glyph-name="ohungarumlaut" unicode="&#x151;" horiz-adv-x="546" 
d="M165 514l-18 14q31 92 69 145q17 0 38.5 -15t27.5 -30q-42 -30 -117 -114zM311 514l-18 14q35 97 69 145q18 0 39.5 -15t26.5 -30q-42 -30 -117 -114zM266 -9q-92 0 -159.5 62t-67.5 164q0 105 71 168.5t167 63.5q92 0 159.5 -62t67.5 -164q0 -105 -71.5 -168.5
t-166.5 -63.5zM278 22q56 0 97.5 46.5t41.5 137.5q0 92 -44.5 152t-107.5 60q-56 0 -97.5 -46.5t-41.5 -137.5q0 -92 44 -152t108 -60z" />
    <glyph glyph-name="OE" unicode="&#x152;" horiz-adv-x="1018" 
d="M960 147h24l-41 -147h-473q-48 -12 -106 -12q-137 0 -226 94t-89 233q0 138 90 233.5t229 95.5q51 0 98 -14h475l9 -139h-24q-7 57 -27 81.5t-71 24.5h-96q-59 0 -76.5 -13t-17.5 -63v-187h84q86 0 110 17t29 67h18v-199h-18q-5 50 -29 67t-110 17h-84v-194
q0 -50 17.5 -63t76.5 -13h75q59 0 92 24.5t61 89.5zM146 345q0 -141 69 -232.5t166 -91.5q49 0 94.5 29t73.5 80v345q-25 64 -78 100t-120 36q-87 0 -146 -72t-59 -194z" />
    <glyph glyph-name="oe" unicode="&#x153;" horiz-adv-x="868" 
d="M810 109l16 -9q-18 -52 -65 -80t-109 -28q-59 0 -109 25t-81 71q-33 -46 -85.5 -71.5t-110.5 -25.5q-92 0 -159.5 62t-67.5 164q0 105 71 168.5t167 63.5q56 0 106 -24.5t81 -69.5q63 95 181 95q100 0 148 -67.5t25 -132.5h-314q1 -87 51 -143.5t132 -56.5q86 0 123 59z
M635 420q-50 0 -86.5 -37t-43.5 -103h240q7 50 -22.5 95t-87.5 45zM278 22q56 0 97.5 46.5t41.5 137.5q0 92 -44.5 152t-107.5 60q-56 0 -97.5 -46.5t-41.5 -137.5q0 -92 44 -152t108 -60z" />
    <glyph glyph-name="Racute" unicode="&#x154;" horiz-adv-x="651" 
d="M424 818q-42 -30 -117 -114l-18 14q35 97 69 145q17 0 38.5 -15t27.5 -30zM498 116q35 -54 66.5 -80.5t68.5 -15.5v-20q-29 -16 -60 -16q-52 0 -87 24t-71 80l-78 120q-26 39 -55.5 54.5t-81.5 17.5v-182q0 -23 3.5 -37t17.5 -22.5t20.5 -10.5t33.5 -7q5 -1 8 -2v-19
h-254v19q51 10 64 20q19 16 19 59v434q0 23 -3.5 37t-17.5 22.5t-20.5 10.5t-33.5 7q-5 1 -8 2v19h242q272 0 272 -173q0 -144 -193 -171q47 -12 85 -72zM279 597q-47 0 -63 -11t-16 -35v-239h75q95 0 136 36t41 103q0 146 -173 146z" />
    <glyph glyph-name="racute" unicode="&#x155;" horiz-adv-x="386" 
d="M182 514l-17 14q31 92 69 145q17 0 38.5 -15t26.5 -30q-42 -30 -117 -114zM24 0v19q22 3 31.5 5t21 7t15 15t3.5 26v247q0 30 -13.5 44t-57.5 18v17q50 8 78 20.5t58 37.5l20 -19l-32 -119h22q34 69 68.5 103.5t81.5 34.5q23 0 42 -8v-81q-36 12 -63 12q-59 0 -93.5 -39
t-34.5 -101v-167q0 -30 15.5 -39t58.5 -14v-19h-221z" />
    <glyph glyph-name="uni0156" unicode="&#x156;" horiz-adv-x="651" 
d="M498 116q35 -54 66.5 -80.5t68.5 -15.5v-20q-29 -16 -60 -16q-52 0 -87 24t-71 80l-78 120q-26 39 -55.5 54.5t-81.5 17.5v-182q0 -23 3.5 -37t17.5 -22.5t20.5 -10.5t33.5 -7q5 -1 8 -2v-19h-254v19q51 10 64 20q19 16 19 59v434q0 23 -3.5 37t-17.5 22.5t-20.5 10.5
t-33.5 7q-5 1 -8 2v19h242q272 0 272 -173q0 -144 -193 -171q47 -12 85 -72zM279 597q-47 0 -63 -11t-16 -35v-239h75q95 0 136 36t41 103q0 146 -173 146zM332 -58q26 0 45 -20.5t19 -55.5q0 -49 -35.5 -97t-100.5 -69l-9 18q34 14 54.5 37.5t25.5 46.5q1 5 1.5 9t-1.5 7.5
t-3 5.5t-4.5 4.5t-4.5 3t-5.5 3t-5.5 2.5q-31 18 -31 51q0 24 16 39t39 15z" />
    <glyph glyph-name="uni0157" unicode="&#x157;" horiz-adv-x="386" 
d="M24 0v19q22 3 31.5 5t21 7t15 15t3.5 26v247q0 30 -13.5 44t-57.5 18v17q50 8 78 20.5t58 37.5l20 -19l-32 -119h22q34 69 68.5 103.5t81.5 34.5q23 0 42 -8v-81q-36 12 -63 12q-59 0 -93.5 -39t-34.5 -101v-167q0 -30 15.5 -39t58.5 -14v-19h-221zM69 -300l-9 18
q34 14 55 37.5t25 46.5q4 5 2 10.5t-2 8t-4.5 6t-5.5 4l-6 3t-6 3.5q-32 18 -32 51q0 23 16.5 38.5t39.5 15.5q26 0 44.5 -20.5t18.5 -55.5q0 -49 -35 -97t-101 -69z" />
    <glyph glyph-name="Rcaron" unicode="&#x158;" horiz-adv-x="651" 
d="M453 867l-136 -152l-136 153l12 9l124 -95l123 95zM498 116q35 -54 66.5 -80.5t68.5 -15.5v-20q-29 -16 -60 -16q-52 0 -87 24t-71 80l-78 120q-26 39 -55.5 54.5t-81.5 17.5v-182q0 -23 3.5 -37t17.5 -22.5t20.5 -10.5t33.5 -7q5 -1 8 -2v-19h-254v19q51 10 64 20
q19 16 19 59v434q0 23 -3.5 37t-17.5 22.5t-20.5 10.5t-33.5 7q-5 1 -8 2v19h242q272 0 272 -173q0 -144 -193 -171q47 -12 85 -72zM279 597q-47 0 -63 -11t-16 -35v-239h75q95 0 136 36t41 103q0 146 -173 146z" />
    <glyph glyph-name="rcaron" unicode="&#x159;" horiz-adv-x="386" 
d="M193 525l-136 153l12 9l124 -95l123 95l12 -10zM24 0v19q22 3 31.5 5t21 7t15 15t3.5 26v247q0 30 -13.5 44t-57.5 18v17q50 8 78 20.5t58 37.5l20 -19l-32 -119h22q34 69 68.5 103.5t81.5 34.5q23 0 42 -8v-81q-36 12 -63 12q-59 0 -93.5 -39t-34.5 -101v-167
q0 -30 15.5 -39t58.5 -14v-19h-221z" />
    <glyph glyph-name="Sacute" unicode="&#x15a;" horiz-adv-x="512" 
d="M243 704l-18 14q35 97 69 145q17 0 38.5 -15t27.5 -30q-42 -30 -117 -114zM248 -12q-93 0 -191 63l-8 127h22q17 -70 64 -115t112 -45q56 0 92.5 35t36.5 89t-35.5 87t-111.5 70q-36 18 -61 34t-51.5 39.5t-40.5 54t-14 66.5q0 66 48.5 109.5t144.5 43.5q24 0 46 -3.5
t36.5 -7t31.5 -12t23.5 -12t21.5 -13.5t16 -11l3 -128h-20q-18 69 -57.5 113t-103.5 44q-53 0 -81.5 -28t-28.5 -71q0 -44 34 -77t106 -68q27 -14 39 -20.5t39 -22.5t41 -30.5t31.5 -35t25 -45t7.5 -52.5q0 -79 -63.5 -128.5t-153.5 -49.5z" />
    <glyph glyph-name="sacute" unicode="&#x15b;" horiz-adv-x="402" 
d="M185 514l-18 14q35 97 69 145q18 0 39.5 -15t26.5 -30q-42 -30 -117 -114zM184 -9q-47 0 -87 13.5t-56 26.5l-2 91h27q30 -101 127 -101q43 0 68.5 20t25.5 56q0 13 -3 23t-10 18.5t-13.5 14t-19.5 12t-20.5 10t-25 10t-24.5 9.5q-58 23 -93.5 53t-35.5 80q0 55 42 88.5
t118 33.5q69 0 125 -38l-2 -89h-24q-27 97 -111 97q-39 0 -60 -19.5t-21 -49.5q0 -31 23.5 -49.5t73.5 -38.5q2 -1 18 -7t20.5 -7.5t20 -8.5t21 -10.5t18.5 -11t18.5 -13.5t14.5 -15.5t13 -19t7 -21t3 -24.5q0 -56 -48.5 -94.5t-127.5 -38.5z" />
    <glyph glyph-name="Scedilla" unicode="&#x15e;" horiz-adv-x="512" 
d="M465 166q0 -71 -51.5 -118.5t-130.5 -57.5l-22 -43q44 0 71.5 -20.5t27.5 -54.5q0 -36 -35.5 -60t-114.5 -24l5 21q44 0 67 13t23 33q0 47 -106 47l44 86q-95 2 -186 63l-8 127h22q17 -70 64 -115t112 -45q56 0 92.5 35t36.5 89t-35.5 87t-111.5 70q-36 18 -61 34
t-51.5 39.5t-40.5 54t-14 66.5q0 66 48.5 109.5t144.5 43.5q24 0 46 -3.5t36.5 -7t31.5 -12t23.5 -12t21.5 -13.5t16 -11l3 -128h-20q-18 69 -57.5 113t-103.5 44q-53 0 -81.5 -28t-28.5 -71q0 -44 34 -77t106 -68q27 -14 39 -20.5t39 -22.5t41 -30.5t31.5 -35t25 -45
t7.5 -52.5z" />
    <glyph glyph-name="scedilla" unicode="&#x15f;" horiz-adv-x="402" 
d="M360 124q0 -48 -37 -84t-99 -46l-24 -47q44 0 71.5 -20.5t27.5 -54.5q0 -36 -35.5 -60t-114.5 -24l5 21q44 0 67 13t23 33q0 47 -106 47l45 89q-46 0 -86 13.5t-56 26.5l-2 91h27q30 -101 127 -101q43 0 68.5 20t25.5 56q0 13 -3 23t-10 18.5t-13.5 14t-19.5 12t-20.5 10
t-25 10t-24.5 9.5q-58 23 -93.5 53t-35.5 80q0 55 42 88.5t118 33.5q69 0 125 -38l-2 -89h-24q-27 97 -111 97q-39 0 -60 -19.5t-21 -49.5q0 -31 23.5 -49.5t73.5 -38.5q2 -1 18 -7t20.5 -7.5t20 -8.5t21 -10.5t18.5 -11t18.5 -13.5t14.5 -15.5t13 -19t7 -21t3 -24.5z" />
    <glyph glyph-name="Scaron" unicode="&#x160;" horiz-adv-x="512" 
d="M251 715l-135 153l12 9l123 -95l124 95l12 -10zM248 -12q-93 0 -191 63l-8 127h22q17 -70 64 -115t112 -45q56 0 92.5 35t36.5 89t-35.5 87t-111.5 70q-36 18 -61 34t-51.5 39.5t-40.5 54t-14 66.5q0 66 48.5 109.5t144.5 43.5q24 0 46 -3.5t36.5 -7t31.5 -12t23.5 -12
t21.5 -13.5t16 -11l3 -128h-20q-18 69 -57.5 113t-103.5 44q-53 0 -81.5 -28t-28.5 -71q0 -44 34 -77t106 -68q27 -14 39 -20.5t39 -22.5t41 -30.5t31.5 -35t25 -45t7.5 -52.5q0 -79 -63.5 -128.5t-153.5 -49.5z" />
    <glyph glyph-name="scaron" unicode="&#x161;" horiz-adv-x="402" 
d="M195 525l-135 153l12 9l123 -95l124 95l12 -10zM184 -9q-47 0 -87 13.5t-56 26.5l-2 91h27q30 -101 127 -101q43 0 68.5 20t25.5 56q0 13 -3 23t-10 18.5t-13.5 14t-19.5 12t-20.5 10t-25 10t-24.5 9.5q-58 23 -93.5 53t-35.5 80q0 55 42 88.5t118 33.5q69 0 125 -38
l-2 -89h-24q-27 97 -111 97q-39 0 -60 -19.5t-21 -49.5q0 -31 23.5 -49.5t73.5 -38.5q2 -1 18 -7t20.5 -7.5t20 -8.5t21 -10.5t18.5 -11t18.5 -13.5t14.5 -15.5t13 -19t7 -21t3 -24.5q0 -56 -48.5 -94.5t-127.5 -38.5z" />
    <glyph glyph-name="uni0162" unicode="&#x162;" horiz-adv-x="610" 
d="M570 640l8 -174h-18q-11 73 -40 104.5t-105 31.5h-68v-504q0 -20 5 -33t9.5 -20.5t22 -13t26.5 -7t38 -5.5v-19h-113l-27 -53q44 0 71.5 -20.5t27.5 -54.5q0 -36 -35.5 -60t-114.5 -24l5 21q44 0 67.5 13t23.5 33q0 47 -107 47l50 98h-138v19q29 4 38 5.5t26.5 7t22 13
t9.5 20.5t5 33v504h-64q-78 0 -107.5 -31.5t-40.5 -104.5h-18l8 174l48 -10h437z" />
    <glyph glyph-name="uni0163" unicode="&#x163;" horiz-adv-x="269" 
d="M301 74v-22q-42 -26 -108 -52h1l-27 -53q44 0 71.5 -20.5t27.5 -54.5q0 -36 -35.5 -60t-114.5 -24l5 21q44 0 67 13t23 33q0 47 -106 47l46 91q-23 8 -39 31t-16 49v331h-72v21q78 32 124 105h24v-95l124 14q-5 -17 -5 -45h-119v-294q0 -25 13.5 -38t34.5 -13.5t41 3.5
t40 12z" />
    <glyph glyph-name="Tcaron" unicode="&#x164;" horiz-adv-x="607" 
d="M439 858l-135 -152l-136 153l12 9l124 -95l123 95zM570 640l8 -174h-18q-11 73 -40 104.5t-105 31.5h-68v-504q0 -20 5 -33t9.5 -20.5t22 -13t26.5 -7t38 -5.5v-19h-290v19q29 4 38 5.5t26.5 7t22 13t9.5 20.5t5 33v504h-64q-78 0 -107.5 -31.5t-40.5 -104.5h-18l8 174
l48 -10h437z" />
    <glyph glyph-name="tcaron" unicode="&#x165;" horiz-adv-x="325" 
d="M219 487q-15 0 -15 16l-1 112q0 45 35 45q46 0 32 -46l-30 -110q-4 -17 -21 -17zM172 110q0 -25 13.5 -38t34.5 -13.5t41 3.5t40 12v-22q-49 -29 -132 -62q-28 0 -50.5 25.5t-22.5 57.5v331h-72v21q78 32 124 105h24v-95l124 14q-5 -17 -5 -45h-119v-294z" />
    <glyph glyph-name="Tbar" unicode="&#x166;" horiz-adv-x="607" 
d="M570 640l8 -174h-18q-11 73 -40 104.5t-105 31.5h-68v-277q112 3 113 3l-10 -33l-103 3v-200q0 -20 5 -33t9.5 -20.5t22 -13t26.5 -7t38 -5.5v-19h-290v19q29 4 38 5.5t26.5 7t22 13t9.5 20.5t5 33v200l-110 -3l10 33l100 -3v277h-64q-78 0 -107.5 -31.5t-40.5 -104.5
h-18l8 174l48 -10h437z" />
    <glyph glyph-name="tbar" unicode="&#x167;" horiz-adv-x="332" 
d="M179 110q0 -25 13.5 -38t34.5 -13.5t41 3.5t40 12v-22q-49 -29 -132 -62q-28 0 -50.5 25.5t-22.5 57.5v179h-81l10 33h71v119h-72v21q78 32 124 105h24v-95l124 14q-5 -17 -5 -45h-119v-119h107l-10 -33h-97v-142z" />
    <glyph glyph-name="Umacron" unicode="&#x16a;" horiz-adv-x="703" 
d="M207 794l15 33h280l-15 -33h-280zM357 -12q-35 0 -66 5.5t-65 23t-58 45t-40 76t-16 112.5v282q0 23 -3.5 37t-17.5 22.5t-20.5 10.5t-33.5 7q-5 1 -8 2v19h255v-19q-51 -10 -64 -20q-19 -16 -19 -59v-293q0 -209 175 -209q33 0 61.5 8t58 27.5t46.5 60t17 98.5v308
q0 23 -4 37t-17.5 22.5t-21.5 10.5t-33 7q-2 1 -3 1t-3 0.5t-3 0.5v19h215v-19q-56 -10 -69 -20q-21 -16 -21 -59v-288q0 -72 -21 -124t-57 -79.5t-76.5 -40t-87.5 -12.5z" />
    <glyph glyph-name="umacron" unicode="&#x16b;" 
d="M136 604l15 33h280l-15 -33h-280zM213 -9q-128 0 -128 154v229q0 18 -8.5 27.5t-19 12.5t-33.5 7v19q81 -4 137 6v-298q0 -97 87 -97q74 0 139 55v268q0 18 -8.5 27.5t-19 12.5t-33.5 7v19q81 -4 137 6v-361q0 -30 12.5 -44.5t53.5 -21.5v-19h-136l6 77h-12
q-88 -86 -174 -86z" />
    <glyph glyph-name="ubreve" unicode="&#x16d;" 
d="M283 555q-64 0 -96.5 34.5t-32.5 89.5h19q12 -65 110 -65q99 0 111 65h19q0 -54 -33 -89t-97 -35zM213 -9q-128 0 -128 154v229q0 18 -8.5 27.5t-19 12.5t-33.5 7v19q81 -4 137 6v-298q0 -97 87 -97q74 0 139 55v268q0 18 -8.5 27.5t-19 12.5t-33.5 7v19q81 -4 137 6
v-361q0 -30 12.5 -44.5t53.5 -21.5v-19h-136l6 77h-12q-88 -86 -174 -86z" />
    <glyph glyph-name="Uring" unicode="&#x16e;" horiz-adv-x="703" 
d="M354 727q-35 0 -60 24.5t-25 59.5t25 59.5t60 24.5t59.5 -24.5t24.5 -59.5t-24.5 -59.5t-59.5 -24.5zM354 760q21 0 35.5 15t14.5 36t-14.5 36t-35.5 15t-35.5 -15t-14.5 -36t14.5 -36t35.5 -15zM357 -12q-35 0 -66 5.5t-65 23t-58 45t-40 76t-16 112.5v282q0 23 -3.5 37
t-17.5 22.5t-20.5 10.5t-33.5 7q-5 1 -8 2v19h255v-19q-51 -10 -64 -20q-19 -16 -19 -59v-293q0 -209 175 -209q33 0 61.5 8t58 27.5t46.5 60t17 98.5v308q0 23 -4 37t-17.5 22.5t-21.5 10.5t-33 7q-2 1 -3 1t-3 0.5t-3 0.5v19h215v-19q-56 -10 -69 -20q-21 -16 -21 -59
v-288q0 -72 -21 -124t-57 -79.5t-76.5 -40t-87.5 -12.5z" />
    <glyph glyph-name="uring" unicode="&#x16f;" 
d="M283 537q-35 0 -59.5 24.5t-24.5 59.5t24.5 59.5t59.5 24.5t60 -24.5t25 -59.5t-25 -59.5t-60 -24.5zM283 570q21 0 35.5 15t14.5 36t-14.5 36t-35.5 15q-20 0 -35 -15t-15 -36q0 -20 15 -35.5t35 -15.5zM213 -9q-128 0 -128 154v229q0 18 -8.5 27.5t-19 12.5t-33.5 7v19
q81 -4 137 6v-298q0 -97 87 -97q74 0 139 55v268q0 18 -8.5 27.5t-19 12.5t-33.5 7v19q81 -4 137 6v-361q0 -30 12.5 -44.5t53.5 -21.5v-19h-136l6 77h-12q-88 -86 -174 -86z" />
    <glyph glyph-name="Uhungarumlaut" unicode="&#x170;" horiz-adv-x="703" 
d="M245 704l-18 14q35 97 69 145q17 0 38.5 -15t27.5 -30q-42 -30 -117 -114zM391 704l-17 14q31 92 69 145q17 0 38.5 -15t26.5 -30q-42 -30 -117 -114zM357 -12q-35 0 -66 5.5t-65 23t-58 45t-40 76t-16 112.5v282q0 23 -3.5 37t-17.5 22.5t-20.5 10.5t-33.5 7q-5 1 -8 2
v19h255v-19q-51 -10 -64 -20q-19 -16 -19 -59v-293q0 -209 175 -209q33 0 61.5 8t58 27.5t46.5 60t17 98.5v308q0 23 -4 37t-17.5 22.5t-21.5 10.5t-33 7q-2 1 -3 1t-3 0.5t-3 0.5v19h215v-19q-56 -10 -69 -20q-21 -16 -21 -59v-288q0 -72 -21 -124t-57 -79.5t-76.5 -40
t-87.5 -12.5z" />
    <glyph glyph-name="uhungarumlaut" unicode="&#x171;" 
d="M174 514l-17 14q31 92 69 145q17 0 38.5 -15t26.5 -30q-42 -30 -117 -114zM321 514l-18 14q35 97 69 145q17 0 38.5 -15t27.5 -30q-42 -30 -117 -114zM213 -9q-128 0 -128 154v229q0 18 -8.5 27.5t-19 12.5t-33.5 7v19q81 -4 137 6v-298q0 -97 87 -97q74 0 139 55v268
q0 18 -8.5 27.5t-19 12.5t-33.5 7v19q81 -4 137 6v-361q0 -30 12.5 -44.5t53.5 -21.5v-19h-136l6 77h-12q-88 -86 -174 -86z" />
    <glyph glyph-name="Uogonek" unicode="&#x172;" horiz-adv-x="689" 
d="M474 630h215v-19q-56 -10 -69 -20q-21 -16 -21 -59v-288q0 -118 -52 -178t-135 -74q-77 -35 -77 -96q0 -26 14.5 -40t37.5 -14q21 0 50 11v-16q-34 -36 -85 -36q-40 0 -66 20t-26 61q0 30 22 61l69 45q-34 1 -64.5 7t-63.5 23.5t-56.5 45.5t-39 75.5t-15.5 110.5v282
q0 23 -3.5 37t-17.5 22.5t-20.5 10.5t-33.5 7q-5 1 -8 2v19h255v-19q-51 -10 -64 -20q-19 -16 -19 -59v-293q0 -209 175 -209q25 0 46 4l3 2v-1q134 26 134 189v308q0 23 -4 37t-17.5 22.5t-21.5 10.5t-33 7q-2 1 -3 1t-3 0.5t-3 0.5v19z" />
    <glyph glyph-name="uogonek" unicode="&#x173;" 
d="M450 0q-47 -27 -68.5 -49.5t-21.5 -54.5q0 -26 14.5 -40t37.5 -14q21 0 50 11v-16q-34 -36 -85 -36q-40 0 -66 20t-26 61q0 30 22 61l86 58l6 76h-12q-88 -86 -174 -86q-128 0 -128 154v229q0 18 -8.5 27.5t-19 12.5t-33.5 7v19q81 -4 137 6v-298q0 -97 87 -97
q74 0 139 55v268q0 18 -8.5 27.5t-19 12.5t-33.5 7v19q81 -4 137 6v-361q0 -30 12.5 -44.5t53.5 -21.5v-19h-79z" />
    <glyph glyph-name="Wcircumflex" unicode="&#x174;" horiz-adv-x="1004" 
d="M502 876l136 -152l-12 -10l-124 95l-123 -95l-12 9zM303 -8l-211 557q-12 32 -25.5 40.5t-57.5 16.5v22h237v-22q-5 -1 -15.5 -3.5t-15.5 -4t-12.5 -4.5t-11 -6.5t-6.5 -9t-2.5 -13t3.5 -16.5l160 -432l121 345q17 48 -2 91t-70 55v22h148q0 -38 37 -139l136 -373
l138 389q9 24 9.5 41t-3.5 27t-18 16.5t-27.5 9.5t-39.5 7v22h217v-22q-32 -6 -42.5 -9.5t-21.5 -14t-19 -33.5l-202 -558h-34l-173 463l-164 -464h-33z" />
    <glyph glyph-name="wcircumflex" unicode="&#x175;" horiz-adv-x="787" 
d="M392 686l136 -152l-12 -10l-124 95l-123 -95l-12 9zM223 -6l-145 384q-9 26 -21.5 33t-47.5 10v19h208v-19q-46 -6 -54 -18q-6 -9 0 -25l102 -277l95 232q15 41 2 66q-5 12 -16 15.5t-34 6.5v19h135q0 -35 18 -79l100 -261l96 237q8 21 8.5 36.5t-4 23.5t-17 13.5
t-23.5 7.5t-30 3v19h179v-19q-34 -3 -46 -10t-23 -33l-151 -384h-29l-134 340l-139 -340h-29z" />
    <glyph glyph-name="Ycircumflex" unicode="&#x176;" horiz-adv-x="652" 
d="M326 809l-123 -95l-12 9l135 153l136 -152l-12 -10zM441 630h194v-19q-40 -8 -53 -16.5t-35 -45.5l-174 -280v-168q0 -25 4.5 -39t20.5 -22t26 -10.5t42 -7.5v-22h-275v22q59 10 73 21q20 15 20 58v159l-183 289q-24 37 -36 45.5t-51 16.5v19h242v-19q-17 -4 -25.5 -6.5
t-19.5 -7.5t-14 -10.5t-3 -15.5t8 -22l153 -247l150 247q10 17 11.5 27.5t-9 16.5t-19 8.5t-31.5 6.5q-11 2 -16 3v19z" />
    <glyph glyph-name="ycircumflex" unicode="&#x177;" horiz-adv-x="505" 
d="M254 619l-123 -95l-12 9l135 153l136 -152l-12 -10zM335 440h157v-19q-33 -4 -44.5 -11t-23.5 -35l-179 -419q-11 -27 -19.5 -44t-24.5 -42t-36 -38t-44 -13q-32 0 -63 23v55q128 -8 155 59l22 51l-159 369q-11 27 -22.5 34t-44.5 11v19h204v-19q-46 -7 -55 -17
q-8 -10 0 -28l116 -277l118 276q3 14 3.5 21.5t-10 12.5t-19 7t-23.5 4q-5 1 -8 1v19z" />
    <glyph glyph-name="Ydieresis" unicode="&#x178;" horiz-adv-x="652" 
d="M233 768q-19 0 -31 12t-12 31t12 31.5t31 12.5t31.5 -12.5t12.5 -31.5t-12.5 -31t-31.5 -12zM420 768q-19 0 -31.5 12t-12.5 31t12.5 31.5t31.5 12.5q20 0 32 -12.5t12 -31.5t-12.5 -31t-31.5 -12zM441 630h194v-19q-40 -8 -53 -16.5t-35 -45.5l-174 -280v-168
q0 -25 4.5 -39t20.5 -22t26 -10.5t42 -7.5v-22h-275v22q59 10 73 21q20 15 20 58v159l-183 289q-24 37 -36 45.5t-51 16.5v19h242v-19q-17 -4 -25.5 -6.5t-19.5 -7.5t-14 -10.5t-3 -15.5t8 -22l153 -247l150 247q10 17 11.5 27.5t-9 16.5t-19 8.5t-31.5 6.5q-11 2 -16 3v19z
" />
    <glyph glyph-name="Zacute" unicode="&#x179;" horiz-adv-x="582" 
d="M281 704l-18 14q35 97 69 145q17 0 38.5 -15t27.5 -30q-42 -30 -117 -114zM40 0l-11 15l395 592l-216 -4q-72 -1 -100.5 -31t-33.5 -101h-22v165l56 -6h442l-404 -607l245 4q69 1 97 32t43 102h23q-19 -102 -19 -161h-495z" />
    <glyph glyph-name="zacute" unicode="&#x17a;" horiz-adv-x="453" 
d="M215 514l-18 14q35 97 69 145q18 0 39.5 -15t26.5 -30q-42 -30 -117 -114zM40 0l-11 15l283 403l-137 -3q-84 -1 -94 -103h-21v134l59 -6h298l-291 -417l142 3q62 1 89 26t41 77h23q-19 -68 -19 -129h-362z" />
    <glyph glyph-name="Zdotaccent" unicode="&#x17b;" horiz-adv-x="582" 
d="M293 752q-20 0 -35 14t-15 34t15 34.5t35 14.5t35 -14.5t15 -34.5t-15 -34t-35 -14zM40 0l-11 15l395 592l-216 -4q-72 -1 -100.5 -31t-33.5 -101h-22v165l56 -6h442l-404 -607l245 4q69 1 97 32t43 102h23q-19 -102 -19 -161h-495z" />
    <glyph glyph-name="zdotaccent" unicode="&#x17c;" horiz-adv-x="453" 
d="M227 562q-20 0 -35 14t-15 34t15 34.5t35 14.5t35.5 -14.5t15.5 -34.5t-15 -34t-36 -14zM40 0l-11 15l283 403l-137 -3q-84 -1 -94 -103h-21v134l59 -6h298l-291 -417l142 3q62 1 89 26t41 77h23q-19 -68 -19 -129h-362z" />
    <glyph glyph-name="Zcaron" unicode="&#x17d;" horiz-adv-x="582" 
d="M291 715l-136 153l13 9l123 -95l124 95l12 -10zM40 0l-11 15l395 592l-216 -4q-72 -1 -100.5 -31t-33.5 -101h-22v165l56 -6h442l-404 -607l245 4q69 1 97 32t43 102h23q-19 -102 -19 -161h-495z" />
    <glyph glyph-name="zcaron" unicode="&#x17e;" horiz-adv-x="453" 
d="M225 525l-135 153l12 9l123 -95l124 95l12 -10zM40 0l-11 15l283 403l-137 -3q-84 -1 -94 -103h-21v134l59 -6h298l-291 -417l142 3q62 1 89 26t41 77h23q-19 -68 -19 -129h-362z" />
    <glyph glyph-name="florin" unicode="&#x192;" horiz-adv-x="570" 
d="M548 685q72 0 88 -46q-4 -21 -20 -37.5t-37 -23.5q-20 69 -72 69q-36 0 -67 -34t-41 -116l-7 -59l114 9q-5 -17 -5 -43h-113l-41 -331q-15 -124 -78 -186t-157 -62q-72 0 -88 46q4 21 20 37.5t37 23.5q20 -69 72 -69q36 0 67 34t41 117l47 390h-71v21l75 15
q17 120 80.5 182.5t155.5 62.5z" />
    <glyph glyph-name="uni0218" unicode="&#x218;" horiz-adv-x="512" 
d="M248 -12q-93 0 -191 63l-8 127h22q17 -70 64 -115t112 -45q56 0 92.5 35t36.5 89t-35.5 87t-111.5 70q-36 18 -61 34t-51.5 39.5t-40.5 54t-14 66.5q0 66 48.5 109.5t144.5 43.5q24 0 46 -3.5t36.5 -7t31.5 -12t23.5 -12t21.5 -13.5t16 -11l3 -128h-20q-18 69 -57.5 113
t-103.5 44q-53 0 -81.5 -28t-28.5 -71q0 -44 34 -77t106 -68q27 -14 39 -20.5t39 -22.5t41 -30.5t31.5 -35t25 -45t7.5 -52.5q0 -79 -63.5 -128.5t-153.5 -49.5zM192 -300l-9 18q34 14 54.5 37.5t25.5 46.5q1 5 1.5 9t-1.5 7.5t-3 5.5t-4.5 4.5t-4.5 3t-5.5 3t-5.5 2.5
q-31 18 -31 51q0 24 16 39t39 15q26 0 45 -20.5t19 -55.5q0 -49 -35.5 -97t-100.5 -69z" />
    <glyph glyph-name="uni0219" unicode="&#x219;" horiz-adv-x="402" 
d="M184 -9q-47 0 -87 13.5t-56 26.5l-2 91h27q30 -101 127 -101q43 0 68.5 20t25.5 56q0 13 -3 23t-10 18.5t-13.5 14t-19.5 12t-20.5 10t-25 10t-24.5 9.5q-58 23 -93.5 53t-35.5 80q0 55 42 88.5t118 33.5q69 0 125 -38l-2 -89h-24q-27 97 -111 97q-39 0 -60 -19.5
t-21 -49.5q0 -31 23.5 -49.5t73.5 -38.5q2 -1 18 -7t20.5 -7.5t20 -8.5t21 -10.5t18.5 -11t18.5 -13.5t14.5 -15.5t13 -19t7 -21t3 -24.5q0 -56 -48.5 -94.5t-127.5 -38.5zM131 -300l-9 18q34 14 54.5 37.5t25.5 46.5q1 5 1.5 9t-1.5 7.5t-3 5.5t-4.5 4.5t-4.5 3t-5.5 3
t-5.5 2.5q-31 18 -31 51q0 24 16 39t39 15q26 0 45 -20.5t19 -55.5q0 -49 -35.5 -97t-100.5 -69z" />
    <glyph glyph-name="uni021A" unicode="&#x21a;" horiz-adv-x="610" 
d="M570 640l8 -174h-18q-11 73 -40 104.5t-105 31.5h-68v-504q0 -20 5 -33t9.5 -20.5t22 -13t26.5 -7t38 -5.5v-19h-290v19q29 4 38 5.5t26.5 7t22 13t9.5 20.5t5 33v504h-64q-78 0 -107.5 -31.5t-40.5 -104.5h-18l8 174l48 -10h437zM311 -58q26 0 45 -20.5t19 -55.5
q0 -49 -35 -97t-101 -69l-9 18q34 14 54.5 37.5t25.5 46.5q1 5 1.5 9t-1 7.5t-2.5 5.5t-4.5 4.5t-5 3.5t-6 3t-5.5 2q-31 18 -31 51q0 23 16.5 38.5t38.5 15.5z" />
    <glyph glyph-name="uni021B" unicode="&#x21b;" horiz-adv-x="269" 
d="M172 110q0 -25 13.5 -38t34.5 -13.5t41 3.5t40 12v-22q-49 -29 -132 -62q-28 0 -50.5 25.5t-22.5 57.5v331h-72v21q78 32 124 105h24v-95l124 14q-5 -17 -5 -45h-119v-294zM170 -58q26 0 45 -20.5t19 -55.5q0 -49 -35.5 -97t-100.5 -69l-9 18q34 14 54.5 37.5t25.5 46.5
q1 5 1.5 9t-1.5 7.5t-3 5.5t-4.5 4.5t-4.5 3t-5.5 3t-5.5 2.5q-31 18 -31 51q0 24 16 39t39 15z" />
    <glyph glyph-name="uni0237" unicode="&#x237;" horiz-adv-x="224" 
d="M3 -185q-10 10 0 23q55 17 70.5 43.5t15.5 106.5v330q0 30 -12.5 44t-53.5 19v17q18 3 31 7t25.5 10.5t19.5 10.5t22 14.5t23 15.5l21 -19v-454q0 -81 -47 -120t-115 -48z" />
    <glyph glyph-name="circumflex" unicode="&#x2c6;" horiz-adv-x="291" 
d="M145 686l136 -152l-13 -10l-123 95l-124 -95l-12 9z" />
    <glyph glyph-name="caron" unicode="&#x2c7;" horiz-adv-x="290" 
d="M145 525l-136 153l12 9l124 -95l123 95l13 -10z" />
    <glyph glyph-name="breve" unicode="&#x2d8;" horiz-adv-x="278" 
d="M139 555q-64 0 -97 35t-33 89h19q13 -65 111 -65t110 65h20q0 -54 -33 -89t-97 -35z" />
    <glyph glyph-name="dotaccent" unicode="&#x2d9;" horiz-adv-x="119" 
d="M59 562q-20 0 -35 14t-15 34t15 34.5t35 14.5t35.5 -14.5t15.5 -34.5t-15 -34t-36 -14z" />
    <glyph glyph-name="ring" unicode="&#x2da;" horiz-adv-x="187" 
d="M94 537q-35 0 -60 24.5t-25 59.5t25 59.5t60 24.5t59.5 -24.5t24.5 -59.5t-24.5 -59.5t-59.5 -24.5zM94 570q20 0 35 15.5t15 35.5q0 21 -15 36t-35 15q-21 0 -35.5 -15t-14.5 -36t14.5 -36t35.5 -15z" />
    <glyph glyph-name="ogonek" unicode="&#x2db;" horiz-adv-x="195" 
d="M101 -183q-40 0 -66 20t-26 61q0 30 22 61l143 96v-39q-47 -27 -68.5 -49.5t-21.5 -54.5q0 -26 14.5 -40t37.5 -14q21 0 50 11v-16q-34 -36 -85 -36z" />
    <glyph glyph-name="tilde" unicode="&#x2dc;" horiz-adv-x="338" 
d="M235 537q-27 0 -48.5 11t-34 24t-30.5 24t-37 11q-27 0 -42 -13t-15 -28h-17q-9 39 19 67.5t74 28.5q26 0 47.5 -11t33.5 -23.5t30 -23.5t38 -11q27 0 42 13t15 28h17q9 -39 -19 -68t-73 -29z" />
    <glyph glyph-name="hungarumlaut" unicode="&#x2dd;" horiz-adv-x="299" 
d="M27 514l-18 14q35 97 69 145q17 0 38.5 -15t27.5 -30q-42 -30 -117 -114zM173 514l-17 14q31 92 69 145q17 0 38.5 -15t26.5 -30q-42 -30 -117 -114z" />
    <glyph glyph-name="acutecomb" unicode="&#x301;" horiz-adv-x="0" 
d="M-127 514l-18 14q35 97 69 145q17 0 38.5 -15t27.5 -30q-42 -30 -117 -114z" />
    <glyph glyph-name="uni0326" unicode="&#x326;" horiz-adv-x="0" 
d="M-137 -300l-9 18q34 14 54.5 37.5t25.5 46.5q1 5 1.5 9t-1.5 7.5t-3 5.5t-4.5 4.5t-4.5 3t-5.5 3t-5.5 2.5q-31 18 -31 51q0 24 16 39t39 15q26 0 45 -20.5t19 -55.5q0 -49 -35.5 -97t-100.5 -69z" />
    <glyph glyph-name="uni0394" unicode="&#x394;" horiz-adv-x="567" 
d="M9 0l274 634l275 -634h-549zM64 62h373l-184 435z" />
    <glyph glyph-name="uni03A9" unicode="&#x3a9;" horiz-adv-x="742" 
d="M673 105h20l-36 -105h-204v76q45 22 87.5 92.5t42.5 166.5q0 119 -60 194t-152 75t-152 -75t-60 -194q0 -96 42.5 -166.5t87.5 -92.5v-76h-204l-36 105h20q10 -14 26.5 -20.5t31 -7.5t46.5 -1h45q-62 34 -109.5 106t-47.5 163q0 74 37 140t109.5 109t163.5 43t163.5 -43
t109.5 -109t37 -140q0 -91 -47.5 -163t-109.5 -106h45q32 0 46.5 1t31 7.5t26.5 20.5z" />
    <glyph glyph-name="uni03BC" unicode="&#x3bc;" horiz-adv-x="553" 
d="M463 85q0 -30 12.5 -44.5t53.5 -21.5v-19h-136l6 77h-12q-88 -86 -174 -86q-76 0 -108 57q1 -50 13 -85.5t25.5 -49.5t24.5 -26t11 -20q0 -43 -36 -61q-33 -17 -54 6q-13 15 -13 43v316h9v203q0 18 -8.5 27.5t-19 12.5t-33.5 7v19q81 -4 137 6v-298q0 -97 87 -97
q74 0 139 55v268q0 18 -8.5 27.5t-19 12.5t-33.5 7v19q81 -4 137 6v-361z" />
    <glyph glyph-name="pi" unicode="&#x3c0;" horiz-adv-x="654" 
d="M571 96q21 0 30 -15t9 -33q0 -28 -23.5 -43t-60.5 -15q-60 0 -88.5 37.5t-28.5 102.5v269h-150v-281q0 -58 -30.5 -91t-73.5 -33q-30 0 -63 12l-14 29q42 -10 73.5 10.5t31.5 72.5v281h-53q-33 0 -45.5 -23.5t-2.5 -63.5l-27 13q-23 48 -3 87t66 39h461v-52h-94v-327
q0 -16 6 -28.5t14 -12.5q14 0 22 10t10 22.5t10.5 22.5t23.5 10z" />
    <glyph glyph-name="Wgrave" unicode="&#x1e80;" horiz-adv-x="1004" 
d="M509 704q-75 84 -117 114q5 15 26.5 30t38.5 15q38 -53 69 -145zM303 -8l-211 557q-12 32 -25.5 40.5t-57.5 16.5v22h237v-22q-5 -1 -15.5 -3.5t-15.5 -4t-12.5 -4.5t-11 -6.5t-6.5 -9t-2.5 -13t3.5 -16.5l160 -432l121 345q17 48 -2 91t-70 55v22h148q0 -38 37 -139
l136 -373l138 389q9 24 9.5 41t-3.5 27t-18 16.5t-27.5 9.5t-39.5 7v22h217v-22q-32 -6 -42.5 -9.5t-21.5 -14t-19 -33.5l-202 -558h-34l-173 463l-164 -464h-33z" />
    <glyph glyph-name="wgrave" unicode="&#x1e81;" horiz-adv-x="787" 
d="M399 514q-75 84 -117 114q5 15 26.5 30t38.5 15q38 -53 69 -145zM223 -6l-145 384q-9 26 -21.5 33t-47.5 10v19h208v-19q-46 -6 -54 -18q-6 -9 0 -25l102 -277l95 232q15 41 2 66q-5 12 -16 15.5t-34 6.5v19h135q0 -35 18 -79l100 -261l96 237q8 21 8.5 36.5t-4 23.5
t-17 13.5t-23.5 7.5t-30 3v19h179v-19q-34 -3 -46 -10t-23 -33l-151 -384h-29l-134 340l-139 -340h-29z" />
    <glyph glyph-name="Wacute" unicode="&#x1e82;" horiz-adv-x="1004" 
d="M491 704l-18 14q31 92 69 145q17 0 38.5 -15t27.5 -30q-42 -30 -117 -114zM303 -8l-211 557q-12 32 -25.5 40.5t-57.5 16.5v22h237v-22q-5 -1 -15.5 -3.5t-15.5 -4t-12.5 -4.5t-11 -6.5t-6.5 -9t-2.5 -13t3.5 -16.5l160 -432l121 345q17 48 -2 91t-70 55v22h148
q0 -38 37 -139l136 -373l138 389q9 24 9.5 41t-3.5 27t-18 16.5t-27.5 9.5t-39.5 7v22h217v-22q-32 -6 -42.5 -9.5t-21.5 -14t-19 -33.5l-202 -558h-34l-173 463l-164 -464h-33z" />
    <glyph glyph-name="wacute" unicode="&#x1e83;" horiz-adv-x="787" 
d="M381 514l-18 14q31 92 69 145q17 0 38.5 -15t27.5 -30q-42 -30 -117 -114zM223 -6l-145 384q-9 26 -21.5 33t-47.5 10v19h208v-19q-46 -6 -54 -18q-6 -9 0 -25l102 -277l95 232q15 41 2 66q-5 12 -16 15.5t-34 6.5v19h135q0 -35 18 -79l100 -261l96 237q8 21 8.5 36.5
t-4 23.5t-17 13.5t-23.5 7.5t-30 3v19h179v-19q-34 -3 -46 -10t-23 -33l-151 -384h-29l-134 340l-139 -340h-29z" />
    <glyph glyph-name="Wdieresis" unicode="&#x1e84;" horiz-adv-x="1004" 
d="M409 768q-19 0 -31 12t-12 31t12 31.5t31 12.5t31.5 -12.5t12.5 -31.5t-12.5 -31t-31.5 -12zM596 768q-19 0 -31.5 12t-12.5 31t12.5 31.5t31.5 12.5q20 0 32 -12.5t12 -31.5t-12.5 -31t-31.5 -12zM303 -8l-211 557q-12 32 -25.5 40.5t-57.5 16.5v22h237v-22
q-5 -1 -15.5 -3.5t-15.5 -4t-12.5 -4.5t-11 -6.5t-6.5 -9t-2.5 -13t3.5 -16.5l160 -432l121 345q17 48 -2 91t-70 55v22h148q0 -38 37 -139l136 -373l138 389q9 24 9.5 41t-3.5 27t-18 16.5t-27.5 9.5t-39.5 7v22h217v-22q-32 -6 -42.5 -9.5t-21.5 -14t-19 -33.5l-202 -558
h-34l-173 463l-164 -464h-33z" />
    <glyph glyph-name="wdieresis" unicode="&#x1e85;" horiz-adv-x="787" 
d="M299 578q-19 0 -31 12t-12 31t12 31.5t31 12.5t31.5 -12.5t12.5 -31.5t-12.5 -31t-31.5 -12zM486 578q-19 0 -31.5 12t-12.5 31t12.5 31.5t31.5 12.5q20 0 32 -12.5t12 -31.5t-12.5 -31t-31.5 -12zM223 -6l-145 384q-9 26 -21.5 33t-47.5 10v19h208v-19q-46 -6 -54 -18
q-6 -9 0 -25l102 -277l95 232q15 41 2 66q-5 12 -16 15.5t-34 6.5v19h135q0 -35 18 -79l100 -261l96 237q8 21 8.5 36.5t-4 23.5t-17 13.5t-23.5 7.5t-30 3v19h179v-19q-34 -3 -46 -10t-23 -33l-151 -384h-29l-134 340l-139 -340h-29z" />
    <glyph glyph-name="uni1E9E" unicode="&#x1e9e;" horiz-adv-x="696" 
d="M440 344q93 -9 152.5 -54t59.5 -126q0 -78 -54.5 -131t-150.5 -53q-70 0 -126 32q-2 55 -17 122h23q31 -71 56.5 -98t62.5 -27q50 0 81.5 37.5t31.5 96.5q0 82 -63 128.5t-171 46.5l169 261q-63 18 -113 18q-33 0 -61.5 -9.5t-57 -32.5t-45 -69.5t-16.5 -113.5v-274
q0 -25 3.5 -39t15.5 -22t21 -10.5t35 -7.5v-19h-247v19q51 10 64 20q19 16 19 59v263q0 67 16.5 117.5t41.5 80t59.5 48t66 24.5t65.5 6q116 0 230 -62z" />
    <glyph glyph-name="uni1EBC" unicode="&#x1ebc;" horiz-adv-x="580" 
d="M150 756h-17q-9 39 19 67.5t74 28.5q33 0 57.5 -17t45.5 -34.5t46 -17.5q27 0 42 13t15 28h17q9 -39 -19 -68t-73 -29q-27 0 -48.5 11t-34 24t-30.5 24t-37 11q-27 0 -42 -13t-15 -28zM523 147h24l-41 -147h-477v19q51 10 64 20q19 16 19 59v434q0 23 -3.5 37t-17.5 22.5
t-20.5 10.5t-33.5 7q-5 1 -8 2v19h475l9 -139h-24q-7 57 -27 81.5t-71 24.5h-97q-59 0 -76.5 -13t-17.5 -63v-187h85q86 0 110 17t29 67h18v-199h-18q-5 50 -29 67t-110 17h-85v-194q0 -50 17.5 -63t76.5 -13h76q59 0 92 24.5t61 89.5z" />
    <glyph glyph-name="uni1EBD" unicode="&#x1ebd;" horiz-adv-x="486" 
d="M105 566h-18q-9 39 19 67.5t75 28.5q33 0 57 -17t45 -34.5t46 -17.5q28 0 42.5 12.5t14.5 28.5h17q9 -39 -19 -68t-73 -29q-33 0 -58.5 17.5t-46 35t-44.5 17.5q-28 0 -42.5 -12.5t-14.5 -28.5zM424 108l16 -9q-18 -52 -64.5 -80t-109.5 -28q-96 0 -161.5 62t-65.5 163
t62 167t159 66q100 0 147.5 -67.5t24.5 -132.5h-314q1 -87 51 -143.5t133 -56.5q85 0 122 59zM249 419q-50 0 -86.5 -37t-43.5 -103h240q7 50 -22.5 95t-87.5 45z" />
    <glyph glyph-name="Ygrave" unicode="&#x1ef2;" horiz-adv-x="652" 
d="M333 704q-75 84 -117 114q5 15 26.5 30t38.5 15q38 -53 69 -145zM441 630h194v-19q-40 -8 -53 -16.5t-35 -45.5l-174 -280v-168q0 -25 4.5 -39t20.5 -22t26 -10.5t42 -7.5v-22h-275v22q59 10 73 21q20 15 20 58v159l-183 289q-24 37 -36 45.5t-51 16.5v19h242v-19
q-17 -4 -25.5 -6.5t-19.5 -7.5t-14 -10.5t-3 -15.5t8 -22l153 -247l150 247q10 17 11.5 27.5t-9 16.5t-19 8.5t-31.5 6.5q-11 2 -16 3v19z" />
    <glyph glyph-name="ygrave" unicode="&#x1ef3;" horiz-adv-x="505" 
d="M261 514q-75 84 -117 114q5 15 26.5 30t38.5 15q38 -53 69 -145zM335 440h157v-19q-33 -4 -44.5 -11t-23.5 -35l-179 -419q-11 -27 -19.5 -44t-24.5 -42t-36 -38t-44 -13q-32 0 -63 23v55q128 -8 155 59l22 51l-159 369q-11 27 -22.5 34t-44.5 11v19h204v-19
q-46 -7 -55 -17q-8 -10 0 -28l116 -277l118 276q3 14 3.5 21.5t-10 12.5t-19 7t-23.5 4q-5 1 -8 1v19z" />
    <glyph glyph-name="endash" unicode="&#x2013;" horiz-adv-x="663" 
d="M49 247v23h565v-23h-565z" />
    <glyph glyph-name="emdash" unicode="&#x2014;" horiz-adv-x="917" 
d="M49 247v23h819v-23h-819z" />
    <glyph glyph-name="uni2015" unicode="&#x2015;" horiz-adv-x="917" 
d="M49 247v23h819v-23h-819z" />
    <glyph glyph-name="quoteleft" unicode="&#x2018;" horiz-adv-x="223" 
d="M175 642l9 -17q-34 -15 -54.5 -38.5t-24.5 -46.5q-3 -5 -1.5 -10t1.5 -7.5t4.5 -6t5.5 -4.5t6 -3t6 -3q32 -18 32 -51q0 -24 -16.5 -39t-39.5 -15q-26 0 -45 20.5t-19 55.5q0 49 35.5 97t100.5 68z" />
    <glyph glyph-name="quoteright" unicode="&#x2019;" horiz-adv-x="223" 
d="M48 406l-9 17q34 15 54.5 38t25.5 47q3 11 -2 18.5t-7 8.5l-14 7q-31 18 -31 51q0 24 16 39t39 15q26 0 45 -20.5t19 -55.5q0 -49 -35.5 -97t-100.5 -68z" />
    <glyph glyph-name="quotesinglbase" unicode="&#x201a;" horiz-adv-x="223" 
d="M48 -144l-9 17q34 15 54.5 38t25.5 47q3 11 -2 18.5t-7 8.5l-14 7q-31 18 -31 51q0 24 16 39t39 15q26 0 45 -20t19 -56q0 -49 -35.5 -97t-100.5 -68z" />
    <glyph glyph-name="quotedblleft" unicode="&#x201c;" horiz-adv-x="403" 
d="M175 642l9 -17q-34 -15 -54.5 -38.5t-24.5 -46.5q-3 -5 -1.5 -10t1.5 -7.5t4.5 -6t5.5 -4.5t6 -3t6 -3q32 -18 32 -51q0 -24 -16.5 -39t-39.5 -15q-26 0 -45 20.5t-19 55.5q0 49 35.5 97t100.5 68zM355 642l9 -17q-34 -15 -54.5 -38.5t-24.5 -46.5q-3 -5 -1.5 -10
t1.5 -7.5t4.5 -6t5.5 -4.5t6 -3t6 -3q32 -18 32 -51q0 -24 -16.5 -39t-39.5 -15q-26 0 -45 20.5t-19 55.5q0 49 35.5 97t100.5 68z" />
    <glyph glyph-name="quotedblright" unicode="&#x201d;" horiz-adv-x="403" 
d="M48 406l-9 17q34 15 54.5 38t25.5 47q3 11 -2 18.5t-7 8.5l-14 7q-31 18 -31 51q0 24 16 39t39 15q26 0 45 -20.5t19 -55.5q0 -49 -35.5 -97t-100.5 -68zM228 406l-9 17q34 15 54.5 38t25.5 47q3 11 -2 18.5t-7 8.5l-14 7q-31 18 -31 51q0 24 16 39t39 15q26 0 45 -20.5
t19 -55.5q0 -49 -35.5 -97t-100.5 -68z" />
    <glyph glyph-name="quotedblbase" unicode="&#x201e;" horiz-adv-x="403" 
d="M48 -139l-9 17q34 15 54.5 38t25.5 47q3 11 -2 18.5t-7 8.5l-14 7q-31 18 -31 51q0 24 16 39t39 15q26 0 45 -20t19 -56q0 -49 -35.5 -97t-100.5 -68zM228 -139l-9 17q34 15 54.5 38t25.5 47q3 11 -2 18.5t-7 8.5l-14 7q-31 18 -31 51q0 24 16 39t39 15q26 0 45 -20
t19 -56q0 -49 -35.5 -97t-100.5 -68z" />
    <glyph glyph-name="dagger" unicode="&#x2020;" horiz-adv-x="516" 
d="M254 -1l-39 334l35 59v56q-29 -1 -67.5 -23t-55.5 -22q-18 0 -33 15.5t-15 36.5q0 22 15 37.5t33 15.5q17 0 55 -22t68 -22q0 26 -21 64t-21 56q0 19 15 35t35 16t35 -16t15 -35q0 -18 -21 -56t-20 -64q29 0 67.5 22t54.5 22q18 0 33 -15.5t15 -37.5q0 -21 -15 -36.5
t-33 -15.5q-17 0 -55 22t-67 23v-56l34 -59l-38 -334h-9z" />
    <glyph glyph-name="daggerdbl" unicode="&#x2021;" horiz-adv-x="537" 
d="M258 1q-20 0 -35 15.5t-15 34.5q0 18 21 56.5t21 64.5q-30 0 -68 -22.5t-55 -22.5q-18 0 -33 15.5t-15 37.5q0 21 15 36.5t33 15.5q17 0 55.5 -22t67.5 -23v56l-35 80l35 69v56q-29 -1 -67.5 -23t-55.5 -22q-18 0 -33 15.5t-15 36.5q0 22 15 37.5t33 15.5q17 0 55 -22
t68 -22q0 26 -21 64t-21 56q0 19 15 35t35 16t35 -16t15 -35q0 -18 -21 -56t-20 -64q29 0 67.5 22t54.5 22q18 0 33 -15.5t15 -37.5q0 -21 -15 -36.5t-33 -15.5q-17 0 -55 22t-67 23v-56l34 -69l-34 -80v-56q29 1 67 23t55 22q18 0 33 -15.5t15 -36.5q0 -22 -15 -37.5
t-33 -15.5q-16 0 -54.5 22.5t-67.5 22.5q-1 -26 20 -64.5t21 -56.5q0 -19 -15 -34.5t-35 -15.5z" />
    <glyph glyph-name="bullet" unicode="&#x2022;" horiz-adv-x="283" 
d="M142 186q-34 0 -58.5 24.5t-24.5 57.5q0 34 24.5 58.5t58.5 24.5q33 0 57.5 -24.5t24.5 -58.5q0 -33 -24.5 -57.5t-57.5 -24.5z" />
    <glyph glyph-name="ellipsis" unicode="&#x2026;" horiz-adv-x="577" 
d="M104 -10q-22 0 -38.5 15.5t-16.5 38.5q0 22 16.5 37.5t38.5 15.5q23 0 40 -15.5t17 -37.5q0 -23 -16.5 -38.5t-40.5 -15.5zM288 -10q-23 0 -39.5 15.5t-16.5 38.5q0 22 16.5 37.5t39.5 15.5t39.5 -15.5t16.5 -37.5q0 -23 -16.5 -38.5t-39.5 -15.5zM471 -10
q-22 0 -38.5 15.5t-16.5 38.5q0 22 16.5 37.5t38.5 15.5q23 0 40 -15.5t17 -37.5q0 -23 -16.5 -38.5t-40.5 -15.5z" />
    <glyph glyph-name="perthousand" unicode="&#x2030;" horiz-adv-x="967" 
d="M533 630h58l-447 -630h-50l399 556q-86 -48 -186 5q5 -22 5 -43q0 -76 -47 -137t-113 -61q-47 0 -75 32.5t-28 85.5q0 74 49 133.5t117 59.5q29 0 50 -12q38 -21 64 -33.5t58 -21.5t55.5 -5.5t47.5 21t43 50.5zM170 349q46 0 80 54t34 116q0 41 -17 63.5t-45 22.5
q-47 0 -75 -56.5t-28 -118.5q0 -81 51 -81zM531 309q45 0 70.5 -30.5t25.5 -82.5q0 -76 -47 -137t-113 -61q-46 0 -74 32.5t-28 85.5q0 74 49 133.5t117 59.5zM822 309q45 0 70.5 -30.5t25.5 -82.5q0 -76 -46.5 -137t-112.5 -61q-47 0 -75 32.5t-28 85.5q0 74 49 133.5
t117 59.5zM486 27q45 0 79.5 54t34.5 116q0 41 -17 63.5t-46 22.5q-47 0 -75 -57t-28 -119q0 -80 52 -80zM777 27q46 0 80 54t34 116q0 41 -17 63.5t-45 22.5q-32 0 -57 -30t-36 -69t-11 -77q0 -80 52 -80z" />
    <glyph glyph-name="guilsinglleft" unicode="&#x2039;" horiz-adv-x="261" 
d="M49 227l154 136l9 -12l-96 -124l96 -123l-10 -12z" />
    <glyph glyph-name="guilsinglright" unicode="&#x203a;" horiz-adv-x="261" 
d="M204 227l-153 -135l-9 12l95 123l-95 124l9 12z" />
    <glyph glyph-name="fraction" unicode="&#x2044;" horiz-adv-x="108" 
d="M-176 -5l432 641h28l-432 -641h-28z" />
    <glyph glyph-name="Euro" unicode="&#x20ac;" horiz-adv-x="754" 
d="M687 88l18 -19q-32 -35 -91 -58t-131 -23q-126 0 -215 70.5t-112 187.5h-107l7 34h95q-2 24 -2 38t2 40h-80l7 34h78q24 114 113.5 184t223.5 70q117 0 194 -46q4 -91 7 -135h-32q-17 75 -66.5 111.5t-120.5 36.5q-93 0 -152.5 -57.5t-71.5 -163.5h227l-7 -34h-222v-13
q0 -30 5 -65h201l-7 -34h-186q26 -98 98 -155.5t164 -57.5q43 0 89.5 13t73.5 42z" />
    <glyph glyph-name="uni210D" unicode="&#x210d;" horiz-adv-x="695" 
d="M666 611q-51 -10 -64 -20q-19 -16 -19 -59v-434q0 -23 3.5 -37t17.5 -22.5t20.5 -10.5t33.5 -7q5 -1 8 -2v-19h-637v19q51 10 64 20q19 16 19 59v434q0 23 -3.5 37t-17.5 22.5t-20.5 10.5t-33.5 7q-5 1 -8 2v19h637v-19zM420 609q-21 -4 -31 -7t-21 -10.5t-15.5 -22
t-4.5 -37.5v-201h147v201q0 30 -10 46.5t-23 21t-42 9.5zM200 331h62v201q0 52 -31 66q-31 -14 -31 -66v-201zM231 32q31 14 31 66v202h-62v-202q0 -52 31 -66zM420 21q29 5 42 9.5t23 21t10 46.5v202h-147v-202q0 -23 4.5 -37.5t15.5 -22t21 -10.5t31 -7z" />
    <glyph glyph-name="trademark" unicode="&#x2122;" horiz-adv-x="805" 
d="M94 299v17q21 3 27 4t16 5.5t12 12.5t2 23v249h-36q-36 0 -52 -18t-21 -56h-13l3 94h289l5 -94h-11q-7 39 -22.5 56.5t-51.5 17.5h-38l1 -249q0 -15 2.5 -23t12.5 -12.5t16 -5.5t27 -4v-17h-168zM362 299v17q33 5 40 14q8 9 8 31v209q0 14 -2.5 22t-12 12.5t-13.5 6
t-21 4.5v15h96l115 -261l101 261h104v-15q-2 0 -5 -1q-13 -3 -18.5 -4.5t-12.5 -6t-9.5 -12.5t-2.5 -21l2 -209q0 -15 2 -23t10 -12.5t12.5 -5.5t20.5 -4v-17h-145v17q33 6 40 14q7 11 7 31v218l-113 -280h-18l-115 258l-2 -196q0 -15 2.5 -23t13 -12.5t14.5 -5.5t23 -4v-17
h-121z" />
    <glyph glyph-name="oneeighth" unicode="&#x215b;" horiz-adv-x="632" 
d="M192 408v-10h-125v10q22 2 30 6t8 16v165q0 11 -4 14.5t-12 1.5l-20 -5v11l77 33l8 -6v-214q0 -12 8 -16t30 -6zM492 636h28l-432 -641h-28zM538 132q54 -23 54 -67q0 -33 -28.5 -54t-73.5 -21q-42 0 -69.5 19t-27.5 51q0 41 44 63q-28 22 -28 54q0 28 23.5 47.5
t60.5 19.5q35 0 56.5 -18t21.5 -42q0 -29 -33 -52zM493 227q-22 0 -32.5 -10.5t-10.5 -25.5q0 -28 43 -43l26 -9q21 17 21 44q0 18 -11.5 31t-35.5 13zM493 7q52 0 52 43q0 17 -10 26t-39 20l-27 10q-10 3 -15 7q-29 -19 -29 -50q0 -25 18 -40.5t50 -15.5z" />
    <glyph glyph-name="threeeighths" unicode="&#x215c;" horiz-adv-x="745" 
d="M224 470q0 -37 -34 -61.5t-82 -24.5q-27 0 -48 7.5t-21 22.5t17 15q9 0 25.5 -15.5t33.5 -15.5q23 0 42 16.5t19 44.5q0 27 -18 40.5t-45 13.5q-17 0 -36 -7l-5 12l31 12q32 12 45.5 22.5t13.5 28.5q0 32 -41 32t-64 -27l-10 8q32 47 92 47q29 0 47.5 -14t18.5 -37
q0 -33 -56 -58q31 -2 53 -17t22 -45zM554 636h28l-432 -641h-28zM652 132q54 -23 54 -67q0 -33 -28.5 -54t-73.5 -21q-42 0 -69.5 19t-27.5 51q0 41 44 63q-28 22 -28 54q0 28 23.5 47.5t60.5 19.5q35 0 56.5 -18t21.5 -42q0 -29 -33 -52zM607 227q-22 0 -32.5 -10.5
t-10.5 -25.5q0 -28 43 -43l26 -9q21 17 21 44q0 18 -11.5 31t-35.5 13zM607 7q52 0 52 43q0 17 -10 26t-39 20l-27 10q-10 3 -15 7q-29 -19 -29 -50q0 -25 18 -40.5t50 -15.5z" />
    <glyph glyph-name="fiveeighths" unicode="&#x215d;" horiz-adv-x="728" 
d="M225 481q0 -39 -34.5 -65t-82.5 -26q-25 0 -47 7.5t-22 22.5t17 15q10 0 26 -15.5t35 -15.5q23 0 41 16.5t18 43.5q0 63 -113 56l-7 8l39 112h67q39 0 48 12h9l-17 -49h-102l-17 -50q82 5 112 -18t30 -54zM537 636h28l-432 -641h-28zM635 132q54 -23 54 -67
q0 -33 -28.5 -54t-73.5 -21q-42 0 -69.5 19t-27.5 51q0 41 44 63q-28 22 -28 54q0 28 23.5 47.5t60.5 19.5q35 0 56.5 -18t21.5 -42q0 -29 -33 -52zM590 227q-22 0 -32.5 -10.5t-10.5 -25.5q0 -28 43 -43l26 -9q21 17 21 44q0 18 -11.5 31t-35.5 13zM590 7q52 0 52 43
q0 17 -10 26t-39 20l-27 10q-10 3 -15 7q-29 -19 -29 -50q0 -25 18 -40.5t50 -15.5z" />
    <glyph glyph-name="seveneighths" unicode="&#x215e;" horiz-adv-x="688" 
d="M108 398h-33q29 95 105 213h-83q-14 0 -20.5 -1.5t-14.5 -8t-14 -19.5h-9l21 66l18 -4h133l5 -6q-80 -122 -108 -240zM512 636h28l-432 -641h-28zM610 132q54 -23 54 -67q0 -33 -28.5 -54t-73.5 -21q-42 0 -69.5 19t-27.5 51q0 41 44 63q-28 22 -28 54q0 28 23.5 47.5
t60.5 19.5q35 0 56.5 -18t21.5 -42q0 -29 -33 -52zM565 227q-22 0 -32.5 -10.5t-10.5 -25.5q0 -28 43 -43l26 -9q21 17 21 44q0 18 -11.5 31t-35.5 13zM565 7q52 0 52 43q0 17 -10 26t-39 20l-27 10q-10 3 -15 7q-29 -19 -29 -50q0 -25 18 -40.5t50 -15.5z" />
    <glyph glyph-name="partialdiff" unicode="&#x2202;" horiz-adv-x="552" 
d="M279 -12q-101 0 -165.5 63.5t-64.5 157.5q0 113 94.5 165.5t215.5 2.5v-22q-111 22 -164.5 -24.5t-53.5 -131.5q0 -76 37.5 -128.5t100.5 -52.5q67 0 105.5 61.5t38.5 160.5q0 85 -25.5 156t-67 116t-90.5 71t-100 31l13 23q138 -8 248.5 -118.5t111.5 -261.5
q1 -114 -61 -191.5t-173 -77.5z" />
    <glyph glyph-name="emptyset" unicode="&#x2205;" horiz-adv-x="533" 
d="M437 371q57 -63 57 -151q0 -95 -66.5 -162t-161.5 -67q-86 0 -150 56l-54 -54l-19 20l53 54q-58 64 -58 153q0 94 67 161t161 67q88 0 152 -58l56 56l19 -19zM66 220q0 -77 50 -133l283 283q-58 50 -133 50q-82 0 -141 -59t-59 -141zM266 19q83 0 142 58.5t59 142.5
q0 74 -49 131l-282 -284q56 -48 130 -48z" />
    <glyph glyph-name="product" unicode="&#x220f;" horiz-adv-x="611" 
d="M542 800v-1000h-44v956h-385v-956h-44v1000h473z" />
    <glyph glyph-name="summation" unicode="&#x2211;" horiz-adv-x="568" 
d="M499 800v-44h-377l302 -457l-301 -455h376v-44h-430v44l290 456l-290 456v44h430z" />
    <glyph glyph-name="minus" unicode="&#x2212;" horiz-adv-x="508" 
d="M69 230v44h370v-44h-370z" />
    <glyph glyph-name="radical" unicode="&#x221a;" horiz-adv-x="709" 
d="M288 -200l-161 337q-18 40 -34.5 55.5t-53.5 29.5v29h102l159 -320l298 870h102v-26q-44 -13 -58.5 -26.5t-28.5 -53.5l-321 -895h-4z" />
    <glyph glyph-name="infinity" unicode="&#x221e;" horiz-adv-x="675" 
d="M200 76q-68 0 -114.5 51t-46.5 142q0 88 43 137t104 49q82 0 142 -93q53 92 147 92q68 0 114.5 -51t46.5 -142q0 -88 -43.5 -137t-103.5 -49q-81 0 -143 94q-52 -93 -146 -93zM175 155q76 0 109 92l27 77q-47 65 -121 65q-47 0 -82.5 -27t-35.5 -91q0 -61 30 -88.5
t73 -27.5zM485 142q47 0 82.5 27t35.5 91q0 60 -30.5 88t-72.5 28q-75 0 -109 -92l-27 -78q47 -64 121 -64z" />
    <glyph glyph-name="integral" unicode="&#x222b;" horiz-adv-x="660" 
d="M112 -175q-72 0 -88 46q4 21 20 37.5t37 23.5q19 -65 72 -65q37 0 67.5 32t40.5 115l50 416q15 124 79.5 189.5t157.5 65.5q72 0 88 -46q-4 -21 -20 -37.5t-37 -23.5q-19 65 -72 65q-36 0 -67 -32t-41 -114l-52 -424q-15 -124 -78 -186t-157 -62z" />
    <glyph glyph-name="approxequal" unicode="&#x2248;" horiz-adv-x="536" 
d="M315 281q-40 0 -70 17.5t-55 34.5t-53 17q-33 0 -50.5 -13.5t-17.5 -30.5h-20q-10 40 23 70t87 30q39 0 68.5 -17.5t55 -35t54.5 -17.5q33 0 50.5 14t17.5 31h20q10 -41 -23 -70.5t-87 -29.5zM315 111q-32 0 -58 11t-40.5 23.5t-35.5 23.5t-44 11q-33 0 -50.5 -13.5
t-17.5 -30.5h-20q-10 40 23 70t87 30q39 0 68.5 -17.5t55 -35t54.5 -17.5q33 0 50.5 14t17.5 31h20q10 -41 -23 -70.5t-87 -29.5z" />
    <glyph glyph-name="notequal" unicode="&#x2260;" horiz-adv-x="508" 
d="M439 320h-130l-57 -136h187v-44h-206l-58 -140h-48l58 140h-116v44h135l57 136h-192v44h210l55 132h48l-55 -132h112v-44z" />
    <glyph glyph-name="lessequal" unicode="&#x2264;" horiz-adv-x="504" 
d="M435 140q-192 104 -366 171v44q174 67 366 171v-50q-114 -65 -317 -143q210 -83 317 -144v-49zM435 9h-370v44h370v-44z" />
    <glyph glyph-name="greaterequal" unicode="&#x2265;" horiz-adv-x="504" 
d="M69 140v49q102 58 317 144q-208 81 -317 143v50q192 -104 366 -171v-44q-174 -67 -366 -171zM69 9v44h370v-44h-370z" />
    <glyph glyph-name="lozenge" unicode="&#x25ca;" horiz-adv-x="603" 
d="M302 -18l-253 328l253 329l252 -329zM302 44l204 266l-204 267l-205 -267z" />
    <glyph glyph-name="M.ss01" horiz-adv-x="811" 
d="M782 611q-51 -10 -63 -20q-19 -16 -19 -59v-434q0 -23 5 -37.5t14.5 -21.5t23.5 -11.5t31 -7.5q5 0 8 -1v-19h-254v19q51 10 64 20q19 16 19 59l-1 444l-213 -542h-30l-217 503v-405q0 -23 4 -37t19 -22.5t22 -10.5t36 -7q6 -1 9 -2v-19h-211v19q52 10 65 20q19 16 19 59
v434q0 23 -4 37t-17.5 22.5t-21 10.5t-32.5 7q-6 1 -9 2v19h163q2 -13 31 -77l187 -432l166 432q25 66 27 77h179v-19z" />
    <glyph glyph-name="W.ss01" horiz-adv-x="931" 
d="M737 630h185v-19q-50 -10 -60 -17q-14 -10 -25 -38l-231 -563h-38l-104 246l-101 -246h-36l-237 560q-14 33 -27 41.5t-54 16.5v19h670v-19q-50 -10 -60 -17q-14 -10 -25 -38l-82 -199l104 -251l182 449q4 9 5 16.5t-2.5 12.5t-5.5 8.5t-11 6.5t-13 4t-17 4t-17 4v19z
M374 108l71 176l-114 269q-15 35 -29.5 46t-52.5 11q-37 0 -54.5 -12.5t-3.5 -44.5zM494 610q-40 0 -58 -12.5t-5 -44.5l62 -150l62 152q12 30 -6 42.5t-55 12.5z" />
    <glyph glyph-name="i.loclTRK" horiz-adv-x="269" 
d="M131 562q-21 0 -36 14t-15 34t15.5 34.5t35.5 14.5t35 -14.5t15 -34.5t-15 -34t-35 -14zM29 0v19q20 3 27.5 5t19 7t15.5 15t4 26v246q0 30 -12.5 44t-53.5 19v17q18 3 31 7t25.5 10.5t19.5 10.5t22 14.5t23 15.5l21 -19v-365q0 -16 4 -26t15.5 -15t19 -7t27.5 -5v-19
h-208z" />
    <glyph glyph-name="T_h" horiz-adv-x="1132" 
d="M1042 72q0 -16 4 -26t15.5 -15t19 -7t27.5 -5v-19h-208v19q20 3 27.5 5t19 7t15.5 15t4 26v222q0 97 -87 97q-74 0 -133 -69v-250q0 -16 4 -26t15.5 -15t19 -7t27.5 -5v-19h-216v19q48 8 60.5 19.5t12.5 33.5v425q-4 55 -34.5 80t-110.5 25h-143v-504q0 -14 2.5 -25
t4.5 -18t11.5 -13t12.5 -8.5t19.5 -6t21 -4.5t27.5 -4v-19h-286v19q23 3 27.5 4t21 4.5t19.5 6t12.5 8.5t11.5 13t4.5 18t2.5 25v504h-97q-78 0 -108 -31.5t-41 -104.5h-18l8 174l48 -10h511q78 16 130 57l20 -19v-315q71 96 174 96q67 0 94.5 -40.5t27.5 -113.5v-223z" />
    <glyph glyph-name="f_b" horiz-adv-x="874" 
d="M660 449q72 0 123.5 -57.5t51.5 -153.5q0 -111 -69.5 -179t-171.5 -68q-79 0 -131 47t-52 121v400q0 38 -30.5 61.5t-87.5 23.5q-54 0 -84 -31t-30 -117v-63l122 9q-5 -18 -5 -43h-117v-327q0 -28 21.5 -37t68.5 -15q8 -1 12 -1v-19h-257v19q3 0 12 1.5t11.5 2.5t10 2.5
t10.5 2.5t8.5 3.5t7.5 5t6 6t5.5 7.5t2.5 10t1 12v327h-75v21l75 15q0 124 64 187t171 63q72 0 156 -30v-304q25 41 70.5 69.5t99.5 28.5zM602 23q59 0 107.5 44.5t48.5 132.5q0 83 -43 136.5t-105 53.5q-42 0 -73 -21t-47 -51v-171q0 -51 27 -87.5t85 -36.5z" />
    <glyph glyph-name="f_h" horiz-adv-x="869" 
d="M776 72q0 -16 4 -26t16 -15t20 -7t29 -5v-19h-211v19q19 3 26.5 5t19 7t15.5 15t4 26v222q0 45 -17.5 68t-62.5 23q-64 0 -132 -61v-252q0 -19 10.5 -30.5t22.5 -15t33 -6.5q5 -1 7 -1v-19h-222v19q48 8 60 20q13 11 13 33v487q0 38 -31 61.5t-87 23.5q-54 0 -84 -31
t-30 -117v-63l122 9q-5 -18 -5 -43h-117v-327q0 -28 21.5 -37t68.5 -15q8 -1 12 -1v-19h-257v19q3 0 12 1.5t11.5 2.5t10 2.5t10.5 2.5t8.5 3.5t7.5 5t6 6t5.5 7.5t2.5 10t1 12v327h-75v21l75 15q0 124 64 187t171 63q73 0 153 -30v-300h1q46 46 83.5 70t87.5 24
q117 0 117 -154v-223z" />
    <glyph glyph-name="f_j" horiz-adv-x="564" 
d="M505 622v-2q0 -20 -15 -34t-35 -14t-34.5 13.5t-15.5 33.5q0 42 -43 42q-76 0 -129.5 -57t-53.5 -164v-7l102 9q-5 -18 -5 -43h-97v-327q0 -28 21.5 -37t68.5 -15q8 -1 12 -1v-19h-257v19q3 0 12 1.5t11.5 2.5t10 2.5t10.5 2.5t8.5 3.5t7.5 5t6 6t5.5 7.5t2.5 10t1 12
v327h-75v21l75 15q4 114 79 184.5t189 70.5q138 0 138 -68zM357 398q18 3 31 7t25.5 10.5t19.5 10.5t22 14.5t23 15.5l21 -19v-454q0 -81 -47 -120t-115 -48q-10 10 0 23q46 17 66 47.5t20 98.5v334q0 30 -12.5 44t-53.5 19v17z" />
    <glyph glyph-name="f_k" horiz-adv-x="838" 
d="M757 55q13 -18 27.5 -24.5t48.5 -10.5v-20h-143q0 21 -18 50l-128 184l-57 -56v-106q0 -19 10.5 -30.5t22.5 -15t33 -6.5q5 -1 7 -1v-19h-222v19q48 8 60 20q13 11 13 33v487q0 38 -31 61.5t-87 23.5q-54 0 -84 -31t-30 -117v-63l122 9q-5 -18 -5 -43h-117v-327
q0 -28 21.5 -37t68.5 -15q8 -1 12 -1v-19h-257v19q3 0 12 1.5t11.5 2.5t10 2.5t10.5 2.5t8.5 3.5t7.5 5t6 6t5.5 7.5t2.5 10t1 12v327h-75v21l75 15q0 124 64 187t171 63q73 0 153 -30v-430l145 141q23 22 14 36t-47 18v20h193v-20q-67 -6 -109 -50l-89 -87z" />
    <glyph glyph-name="t_t" horiz-adv-x="641" 
d="M488 110q0 -25 13.5 -38t34.5 -13.5t41 3.5t40 12v-22q-49 -29 -132 -62q-28 0 -50.5 25.5t-22.5 57.5v331h-240v-294q0 -33 23 -44t52 -4.5t54 22.5v-22q-41 -36 -132 -72q-28 0 -50.5 25.5t-22.5 57.5v331h-72v25q83 36 124 101h24v-100l168 -1l7 -1q73 33 117 102h24
v-95l124 14q-5 -17 -5 -45h-119v-294z" />
    <glyph glyph-name="a.sc" horiz-adv-x="603" 
d="M518 77q14 -33 26.5 -41.5t49.5 -16.5v-19h-233v19l18 4.5t18.5 5t13 5.5t10.5 9t2 14t-5 20l-44 106h-199l-47 -108q-4 -9 -5 -16.5t1.5 -12.5t5.5 -8.5t10.5 -6.5t12 -4.5t15.5 -4t16 -3.5v-19h-175v19q46 10 56 18q12 10 24 37l201 456h36zM188 214h173l-85 202z" />
    <glyph glyph-name="aacute.sc" horiz-adv-x="603" 
d="M407 718q-42 -30 -117 -114l-18 14q35 97 69 145q17 0 38.5 -15t27.5 -30zM518 77q14 -33 26.5 -41.5t49.5 -16.5v-19h-233v19l18 4.5t18.5 5t13 5.5t10.5 9t2 14t-5 20l-44 106h-199l-47 -108q-4 -9 -5 -16.5t1.5 -12.5t5.5 -8.5t10.5 -6.5t12 -4.5t15.5 -4t16 -3.5v-19
h-175v19q46 10 56 18q12 10 24 37l201 456h36zM188 214h173l-85 202z" />
    <glyph glyph-name="abreve.sc" horiz-adv-x="603" 
d="M302 645q-64 0 -97 35t-33 89h19q13 -65 111 -65t110 65h20q0 -54 -33 -89t-97 -35zM518 77q14 -33 26.5 -41.5t49.5 -16.5v-19h-233v19l18 4.5t18.5 5t13 5.5t10.5 9t2 14t-5 20l-44 106h-199l-47 -108q-4 -9 -5 -16.5t1.5 -12.5t5.5 -8.5t10.5 -6.5t12 -4.5t15.5 -4
t16 -3.5v-19h-175v19q46 10 56 18q12 10 24 37l201 456h36zM188 214h173l-85 202z" />
    <glyph glyph-name="acircumflex.sc" horiz-adv-x="603" 
d="M302 709l-124 -95l-12 9l136 153l136 -152l-13 -10zM518 77q14 -33 26.5 -41.5t49.5 -16.5v-19h-233v19l18 4.5t18.5 5t13 5.5t10.5 9t2 14t-5 20l-44 106h-199l-47 -108q-4 -9 -5 -16.5t1.5 -12.5t5.5 -8.5t10.5 -6.5t12 -4.5t15.5 -4t16 -3.5v-19h-175v19q46 10 56 18
q12 10 24 37l201 456h36zM188 214h173l-85 202z" />
    <glyph glyph-name="adieresis.sc" horiz-adv-x="603" 
d="M209 668q-19 0 -31.5 12t-12.5 31t12.5 31.5t31.5 12.5t31.5 -12.5t12.5 -31.5t-12.5 -31t-31.5 -12zM395 668q-19 0 -31 12t-12 31t12 31.5t31 12.5q20 0 32.5 -12.5t12.5 -31.5t-12.5 -31t-32.5 -12zM518 77q14 -33 26.5 -41.5t49.5 -16.5v-19h-233v19l18 4.5t18.5 5
t13 5.5t10.5 9t2 14t-5 20l-44 106h-199l-47 -108q-4 -9 -5 -16.5t1.5 -12.5t5.5 -8.5t10.5 -6.5t12 -4.5t15.5 -4t16 -3.5v-19h-175v19q46 10 56 18q12 10 24 37l201 456h36zM188 214h173l-85 202z" />
    <glyph glyph-name="agrave.sc" horiz-adv-x="603" 
d="M308 604q-75 84 -117 114q6 15 27.5 30t38.5 15q34 -48 69 -145zM518 77q14 -33 26.5 -41.5t49.5 -16.5v-19h-233v19l18 4.5t18.5 5t13 5.5t10.5 9t2 14t-5 20l-44 106h-199l-47 -108q-4 -9 -5 -16.5t1.5 -12.5t5.5 -8.5t10.5 -6.5t12 -4.5t15.5 -4t16 -3.5v-19h-175v19
q46 10 56 18q12 10 24 37l201 456h36zM188 214h173l-85 202z" />
    <glyph glyph-name="amacron.sc" horiz-adv-x="603" 
d="M450 727l-15 -33h-280l15 33h280zM518 77q14 -33 26.5 -41.5t49.5 -16.5v-19h-233v19l18 4.5t18.5 5t13 5.5t10.5 9t2 14t-5 20l-44 106h-199l-47 -108q-4 -9 -5 -16.5t1.5 -12.5t5.5 -8.5t10.5 -6.5t12 -4.5t15.5 -4t16 -3.5v-19h-175v19q46 10 56 18q12 10 24 37
l201 456h36zM188 214h173l-85 202z" />
    <glyph glyph-name="aogonek.sc" horiz-adv-x="603" 
d="M512 0q-47 -27 -68.5 -49.5t-21.5 -54.5q0 -26 14.5 -40t37.5 -14q21 0 50 11v-16q-34 -36 -85 -36q-40 0 -66 20t-26 61q0 30 22 61l85 57h-93v19l18 4.5t18.5 5t13 5.5t10.5 9t2 14t-5 20l-44 106h-199l-47 -108q-4 -9 -5 -16.5t1.5 -12.5t5.5 -8.5t10.5 -6.5t12 -4.5
t15.5 -4t16 -3.5v-19h-175v19q46 10 56 18q12 10 24 37l201 456h36l192 -453q14 -33 26.5 -41.5t49.5 -16.5v-19h-82zM188 214h173l-85 202z" />
    <glyph glyph-name="aring.sc" horiz-adv-x="603" 
d="M302 627q-35 0 -60 24.5t-25 59.5t25 59.5t60 24.5t59.5 -24.5t24.5 -59.5t-24.5 -59.5t-59.5 -24.5zM302 762q-21 0 -35.5 -15t-14.5 -36t14.5 -36t35.5 -15q20 0 35 15.5t15 35.5q0 21 -15 36t-35 15zM518 77q14 -33 26.5 -41.5t49.5 -16.5v-19h-233v19l18 4.5t18.5 5
t13 5.5t10.5 9t2 14t-5 20l-44 106h-199l-47 -108q-4 -9 -5 -16.5t1.5 -12.5t5.5 -8.5t10.5 -6.5t12 -4.5t15.5 -4t16 -3.5v-19h-175v19q46 10 56 18q12 10 24 37l201 456h36zM188 214h173l-85 202z" />
    <glyph glyph-name="atilde.sc" horiz-adv-x="603" 
d="M161 656h-17q-9 39 19 67.5t74 28.5q26 0 47.5 -11t33.5 -23.5t30 -23.5t38 -11q27 0 42 13t15 28h17q9 -39 -19 -68t-73 -29q-27 0 -48.5 11t-34 24t-30.5 24t-37 11q-27 0 -42 -13t-15 -28zM518 77q14 -33 26.5 -41.5t49.5 -16.5v-19h-233v19l18 4.5t18.5 5t13 5.5
t10.5 9t2 14t-5 20l-44 106h-199l-47 -108q-4 -9 -5 -16.5t1.5 -12.5t5.5 -8.5t10.5 -6.5t12 -4.5t15.5 -4t16 -3.5v-19h-175v19q46 10 56 18q12 10 24 37l201 456h36zM188 214h173l-85 202z" />
    <glyph glyph-name="ae.sc" horiz-adv-x="858" 
d="M800 137h24l-41 -137h-454v19q47 10 59 20q19 16 19 59v105h-191l-80 -128q-5 -8 -7 -14.5t-2.5 -11t3 -8.5t6 -6.5t10 -5t11 -3.5t13.5 -3.5l14 -3.5v-19h-175v19q39 8 54 16.5t34 38.5l270 428q-6 2 -38 9v19h452l9 -129h-24q-7 50 -27 73t-71 23h-79q-59 0 -76.5 -13
t-17.5 -63v-137h85q72 0 94 16t27 58h18v-179h-18q-5 42 -27 58t-94 16h-85v-144q0 -50 17.5 -63t76.5 -13h58q58 0 91.5 23t61.5 81zM234 232h173v200q0 37 -14 54z" />
    <glyph glyph-name="b.sc" horiz-adv-x="593" 
d="M387 279q162 -30 162 -135q0 -72 -68 -108t-194 -36h-258v19q47 10 59 20q19 16 19 59v334q0 23 -4 37t-16 22t-20 11t-29 7q-6 1 -9 2v19h258q219 0 219 -124q0 -88 -119 -127zM407 399q0 98 -135 98q-49 -1 -63 -11.5t-14 -37.5v-157h87q125 0 125 108zM297 33
q75 0 110.5 29t35.5 73q0 53 -43.5 89.5t-136.5 36.5h-68v-152q0 -40 21 -58t81 -18z" />
    <glyph glyph-name="c.sc" horiz-adv-x="596" 
d="M329 -12q-123 0 -201.5 76t-78.5 196q0 124 82 203t209 79q54 0 105.5 -14t82.5 -32q4 -91 7 -135h-32q-17 74 -68.5 111t-116.5 37q-77 0 -123 -52.5t-46 -155.5q0 -124 64 -196t155 -72q39 0 86.5 13t74.5 42l18 -19q-31 -34 -91 -57.5t-127 -23.5z" />
    <glyph glyph-name="cacute.sc" horiz-adv-x="596" 
d="M316 604l-18 14q35 97 69 145q17 0 38.5 -15t27.5 -30q-42 -30 -117 -114zM329 -12q-123 0 -201.5 76t-78.5 196q0 124 82 203t209 79q54 0 105.5 -14t82.5 -32q4 -91 7 -135h-32q-17 74 -68.5 111t-116.5 37q-77 0 -123 -52.5t-46 -155.5q0 -124 64 -196t155 -72
q39 0 86.5 13t74.5 42l18 -19q-31 -34 -91 -57.5t-127 -23.5z" />
    <glyph glyph-name="ccaron.sc" horiz-adv-x="596" 
d="M326 615l-136 153l12 9l124 -95l123 95l13 -10zM329 -12q-123 0 -201.5 76t-78.5 196q0 124 82 203t209 79q54 0 105.5 -14t82.5 -32q4 -91 7 -135h-32q-17 74 -68.5 111t-116.5 37q-77 0 -123 -52.5t-46 -155.5q0 -124 64 -196t155 -72q39 0 86.5 13t74.5 42l18 -19
q-31 -34 -91 -57.5t-127 -23.5z" />
    <glyph glyph-name="ccedilla.sc" horiz-adv-x="596" 
d="M547 69q-31 -34 -90.5 -57.5t-126.5 -23.5l-21 -41q44 0 71.5 -20.5t27.5 -54.5q0 -36 -35.5 -60t-114.5 -24l5 21q44 0 67 13t23 33q0 47 -106 47l45 88q-108 12 -175.5 86t-67.5 184q0 124 82 203t209 79q54 0 105.5 -14t82.5 -32q4 -91 7 -135h-32q-17 74 -68.5 111
t-116.5 37q-77 0 -123 -52.5t-46 -155.5q0 -124 64 -196t155 -72q39 0 86.5 13t74.5 42z" />
    <glyph glyph-name="cdotaccent.sc" horiz-adv-x="596" 
d="M327 652q-20 0 -35 14t-15 34t15 34.5t35 14.5t35.5 -14.5t15.5 -34.5t-15 -34t-36 -14zM329 -12q-123 0 -201.5 76t-78.5 196q0 124 82 203t209 79q54 0 105.5 -14t82.5 -32q4 -91 7 -135h-32q-17 74 -68.5 111t-116.5 37q-77 0 -123 -52.5t-46 -155.5q0 -124 64 -196
t155 -72q39 0 86.5 13t74.5 42l18 -19q-31 -34 -91 -57.5t-127 -23.5z" />
    <glyph glyph-name="d.sc" horiz-adv-x="627" 
d="M268 530q134 0 222.5 -68t88.5 -193q0 -129 -87.5 -199t-223.5 -70h-239v19q47 10 59 20q19 16 19 59v334q0 23 -4 37t-16 22t-20 11t-29 7q-6 1 -9 2v19h239zM296 34q54 0 91 17.5t56.5 50t28 70.5t8.5 87t-9 88t-32 74.5t-69 55t-112 19.5h-63v-366q0 -53 21 -74.5
t80 -21.5z" />
    <glyph glyph-name="dcaron.sc" horiz-adv-x="627" 
d="M448 767l-136 -152l-136 153l12 9l124 -95l123 95zM268 530q134 0 222.5 -68t88.5 -193q0 -129 -87.5 -199t-223.5 -70h-239v19q47 10 59 20q19 16 19 59v334q0 23 -4 37t-16 22t-20 11t-29 7q-6 1 -9 2v19h239zM296 34q54 0 91 17.5t56.5 50t28 70.5t8.5 87t-9 88
t-32 74.5t-69 55t-112 19.5h-63v-366q0 -53 21 -74.5t80 -21.5z" />
    <glyph glyph-name="e.sc" horiz-adv-x="557" 
d="M500 137h24l-41 -137h-454v19q47 10 59 20q19 16 19 59v334q0 23 -4 37t-16 22t-20 11t-29 7q-6 1 -9 2v19h452l9 -129h-24q-7 50 -27 73t-71 23h-79q-59 0 -76.5 -13t-17.5 -63v-137h85q72 0 94 16t27 58h18v-179h-18q-5 42 -27 58t-94 16h-85v-144q0 -50 17.5 -63
t76.5 -13h58q58 0 91.5 23t61.5 81z" />
    <glyph glyph-name="eacute.sc" horiz-adv-x="557" 
d="M383 718q-42 -30 -117 -114l-18 14q35 97 69 145q17 0 38.5 -15t27.5 -30zM500 137h24l-41 -137h-454v19q47 10 59 20q19 16 19 59v334q0 23 -4 37t-16 22t-20 11t-29 7q-6 1 -9 2v19h452l9 -129h-24q-7 50 -27 73t-71 23h-79q-59 0 -76.5 -13t-17.5 -63v-137h85
q72 0 94 16t27 58h18v-179h-18q-5 42 -27 58t-94 16h-85v-144q0 -50 17.5 -63t76.5 -13h58q58 0 91.5 23t61.5 81z" />
    <glyph glyph-name="ecaron.sc" horiz-adv-x="557" 
d="M413 767l-136 -152l-136 153l12 9l124 -95l123 95zM500 137h24l-41 -137h-454v19q47 10 59 20q19 16 19 59v334q0 23 -4 37t-16 22t-20 11t-29 7q-6 1 -9 2v19h452l9 -129h-24q-7 50 -27 73t-71 23h-79q-59 0 -76.5 -13t-17.5 -63v-137h85q72 0 94 16t27 58h18v-179h-18
q-5 42 -27 58t-94 16h-85v-144q0 -50 17.5 -63t76.5 -13h58q58 0 91.5 23t61.5 81z" />
    <glyph glyph-name="ecircumflex.sc" horiz-adv-x="557" 
d="M278 709l-124 -95l-12 9l136 153l136 -152l-13 -10zM500 137h24l-41 -137h-454v19q47 10 59 20q19 16 19 59v334q0 23 -4 37t-16 22t-20 11t-29 7q-6 1 -9 2v19h452l9 -129h-24q-7 50 -27 73t-71 23h-79q-59 0 -76.5 -13t-17.5 -63v-137h85q72 0 94 16t27 58h18v-179h-18
q-5 42 -27 58t-94 16h-85v-144q0 -50 17.5 -63t76.5 -13h58q58 0 91.5 23t61.5 81z" />
    <glyph glyph-name="edieresis.sc" horiz-adv-x="557" 
d="M185 668q-19 0 -31.5 12t-12.5 31t12.5 31.5t31.5 12.5t31.5 -12.5t12.5 -31.5t-12.5 -31t-31.5 -12zM371 668q-19 0 -31 12t-12 31t12 31.5t31 12.5q20 0 32.5 -12.5t12.5 -31.5t-12.5 -31t-32.5 -12zM500 137h24l-41 -137h-454v19q47 10 59 20q19 16 19 59v334
q0 23 -4 37t-16 22t-20 11t-29 7q-6 1 -9 2v19h452l9 -129h-24q-7 50 -27 73t-71 23h-79q-59 0 -76.5 -13t-17.5 -63v-137h85q72 0 94 16t27 58h18v-179h-18q-5 42 -27 58t-94 16h-85v-144q0 -50 17.5 -63t76.5 -13h58q58 0 91.5 23t61.5 81z" />
    <glyph glyph-name="edotaccent.sc" horiz-adv-x="557" 
d="M278 652q-20 0 -35 14t-15 34t15 34.5t35 14.5t35.5 -14.5t15.5 -34.5t-15 -34t-36 -14zM500 137h24l-41 -137h-454v19q47 10 59 20q19 16 19 59v334q0 23 -4 37t-16 22t-20 11t-29 7q-6 1 -9 2v19h452l9 -129h-24q-7 50 -27 73t-71 23h-79q-59 0 -76.5 -13t-17.5 -63
v-137h85q72 0 94 16t27 58h18v-179h-18q-5 42 -27 58t-94 16h-85v-144q0 -50 17.5 -63t76.5 -13h58q58 0 91.5 23t61.5 81z" />
    <glyph glyph-name="egrave.sc" horiz-adv-x="557" 
d="M284 604q-75 84 -117 114q6 15 27.5 30t38.5 15q34 -48 69 -145zM500 137h24l-41 -137h-454v19q47 10 59 20q19 16 19 59v334q0 23 -4 37t-16 22t-20 11t-29 7q-6 1 -9 2v19h452l9 -129h-24q-7 50 -27 73t-71 23h-79q-59 0 -76.5 -13t-17.5 -63v-137h85q72 0 94 16t27 58
h18v-179h-18q-5 42 -27 58t-94 16h-85v-144q0 -50 17.5 -63t76.5 -13h58q58 0 91.5 23t61.5 81z" />
    <glyph glyph-name="emacron.sc" horiz-adv-x="557" 
d="M426 727l-15 -33h-280l15 33h280zM500 137h24l-41 -137h-454v19q47 10 59 20q19 16 19 59v334q0 23 -4 37t-16 22t-20 11t-29 7q-6 1 -9 2v19h452l9 -129h-24q-7 50 -27 73t-71 23h-79q-59 0 -76.5 -13t-17.5 -63v-137h85q72 0 94 16t27 58h18v-179h-18q-5 42 -27 58
t-94 16h-85v-144q0 -50 17.5 -63t76.5 -13h58q58 0 91.5 23t61.5 81z" />
    <glyph glyph-name="eogonek.sc" horiz-adv-x="557" 
d="M442 0q-47 -27 -68.5 -49.5t-21.5 -54.5q0 -26 14.5 -40t37.5 -14q21 0 50 11v-16q-34 -36 -85 -36q-40 0 -66 20t-26 61q0 30 22 61l85 57h-355v19q47 10 59 20q19 16 19 59v334q0 23 -4 37t-16 22t-20 11t-29 7q-6 1 -9 2v19h452l9 -129h-24q-7 50 -27 73t-71 23h-79
q-59 0 -76.5 -13t-17.5 -63v-137h85q72 0 94 16t27 58h18v-179h-18q-5 42 -27 58t-94 16h-85v-144q0 -50 17.5 -63t76.5 -13h58q58 0 91.5 23t61.5 81h24l-41 -137h-41z" />
    <glyph glyph-name="uni1EBD.sc" horiz-adv-x="557" 
d="M138 656h-17q-9 39 19 67.5t74 28.5q26 0 47.5 -11t33.5 -23.5t30 -23.5t38 -11q27 0 42 13t15 28h17q9 -39 -19 -68t-73 -29q-27 0 -48.5 11t-34 24t-30.5 24t-37 11q-27 0 -42 -13t-15 -28zM500 137h24l-41 -137h-454v19q47 10 59 20q19 16 19 59v334q0 23 -4 37
t-16 22t-20 11t-29 7q-6 1 -9 2v19h452l9 -129h-24q-7 50 -27 73t-71 23h-79q-59 0 -76.5 -13t-17.5 -63v-137h85q72 0 94 16t27 58h18v-179h-18q-5 42 -27 58t-94 16h-85v-144q0 -50 17.5 -63t76.5 -13h58q58 0 91.5 23t61.5 81z" />
    <glyph glyph-name="f.sc" horiz-adv-x="523" 
d="M481 530l9 -129h-24q-7 50 -27 73t-71 23h-79q-59 0 -76.5 -13t-17.5 -63v-137h85q72 0 94 16t27 58h18v-179h-18q-5 42 -27 58t-94 16h-85v-144q0 -27 5 -43.5t18 -25.5t24 -12.5t36 -8.5v-19h-249v19q47 10 59 20q19 16 19 59v334q0 23 -4 37t-16 22t-20 11t-29 7
q-6 1 -9 2v19h452z" />
    <glyph glyph-name="g.sc" horiz-adv-x="659" 
d="M350 -12q-134 0 -217.5 76t-83.5 196q0 123 82.5 202.5t209.5 79.5q53 0 104 -14t82 -32q4 -91 7 -135h-31q-16 76 -67.5 112t-117.5 36q-78 0 -123.5 -52.5t-45.5 -154.5q0 -129 66 -205t159 -76q46 0 68.5 24t22.5 82v36q0 57 -22.5 76.5t-92.5 24.5v23h265v-23
q-36 -5 -52.5 -17.5t-16.5 -38.5v-54q0 -28 3 -51t7 -39t5 -21q-20 -22 -82.5 -38.5t-128.5 -16.5z" />
    <glyph glyph-name="gbreve.sc" horiz-adv-x="659" 
d="M339 645q-64 0 -97 35t-33 89h19q13 -65 111 -65t110 65h20q0 -54 -33 -89t-97 -35zM350 -12q-134 0 -217.5 76t-83.5 196q0 123 82.5 202.5t209.5 79.5q53 0 104 -14t82 -32q4 -91 7 -135h-31q-16 76 -67.5 112t-117.5 36q-78 0 -123.5 -52.5t-45.5 -154.5
q0 -129 66 -205t159 -76q46 0 68.5 24t22.5 82v36q0 57 -22.5 76.5t-92.5 24.5v23h265v-23q-36 -5 -52.5 -17.5t-16.5 -38.5v-54q0 -28 3 -51t7 -39t5 -21q-20 -22 -82.5 -38.5t-128.5 -16.5z" />
    <glyph glyph-name="uni0123.sc" horiz-adv-x="659" 
d="M350 -12q-134 0 -217.5 76t-83.5 196q0 123 82.5 202.5t209.5 79.5q53 0 104 -14t82 -32q4 -91 7 -135h-31q-16 76 -67.5 112t-117.5 36q-78 0 -123.5 -52.5t-45.5 -154.5q0 -129 66 -205t159 -76q46 0 68.5 24t22.5 82v36q0 57 -22.5 76.5t-92.5 24.5v23h265v-23
q-36 -5 -52.5 -17.5t-16.5 -38.5v-54q0 -28 3 -51t7 -39t5 -21q-20 -22 -82.5 -38.5t-128.5 -16.5zM273 -300l-9 18q34 14 54.5 37.5t25.5 46.5q1 5 1.5 9t-1.5 7.5t-3 5.5t-4.5 4.5t-4.5 3t-5.5 3t-5.5 2.5q-31 18 -31 51q0 24 16 39t39 15q26 0 45 -20.5t19 -55.5
q0 -49 -35.5 -97t-100.5 -69z" />
    <glyph glyph-name="gdotaccent.sc" horiz-adv-x="659" 
d="M339 652q-20 0 -35 14t-15 34t15 34.5t35 14.5t35.5 -14.5t15.5 -34.5t-15 -34t-36 -14zM350 -12q-134 0 -217.5 76t-83.5 196q0 123 82.5 202.5t209.5 79.5q53 0 104 -14t82 -32q4 -91 7 -135h-31q-16 76 -67.5 112t-117.5 36q-78 0 -123.5 -52.5t-45.5 -154.5
q0 -129 66 -205t159 -76q46 0 68.5 24t22.5 82v36q0 57 -22.5 76.5t-92.5 24.5v23h265v-23q-36 -5 -52.5 -17.5t-16.5 -38.5v-54q0 -28 3 -51t7 -39t5 -21q-20 -22 -82.5 -38.5t-128.5 -16.5z" />
    <glyph glyph-name="h.sc" horiz-adv-x="660" 
d="M631 511q-47 -10 -59 -20q-19 -16 -19 -59v-334q0 -23 4 -37t16 -22t20 -11t29 -7q6 -1 9 -2v-19h-244v19q47 10 59 20q19 16 19 59v152h-270v-152q0 -23 4 -37t16 -22t20 -11t29 -7q6 -1 9 -2v-19h-244v19q47 10 59 20q19 16 19 59v334q0 23 -4 37t-16 22t-20 11t-29 7
q-6 1 -9 2v19h244v-19q-47 -10 -59 -20q-19 -16 -19 -59v-151h270v151q0 23 -4 37t-16 22t-20 11t-29 7q-6 1 -9 2v19h244v-19z" />
    <glyph glyph-name="hbar.sc" horiz-adv-x="660" 
d="M631 511q-47 -10 -59 -20q-19 -16 -19 -59v-334q0 -23 4 -37t16 -22t20 -11t29 -7q6 -1 9 -2v-19h-244v19q47 10 59 20q19 16 19 59v152h-270v-152q0 -23 4 -37t16 -22t20 -11t29 -7q6 -1 9 -2v-19h-244v19q47 10 59 20q19 16 19 59v334q0 23 -4 37t-16 22t-20 11t-29 7
q-6 1 -9 2v19h244v-19q-47 -10 -59 -20q-19 -16 -19 -59v-52h270v52q0 23 -4 37t-16 22t-20 11t-29 7q-6 1 -9 2v19h244v-19zM195 281h270v68h-270v-68z" />
    <glyph glyph-name="i.sc" horiz-adv-x="302" 
d="M29 0v19q47 10 59 20q19 16 19 59v334q0 23 -4 37t-16 22t-20 11t-29 7q-6 1 -9 2v19h244v-19q-47 -10 -59 -20q-19 -16 -19 -59v-334q0 -23 4 -37t16 -22t20 -11t29 -7q6 -1 9 -2v-19h-244z" />
    <glyph glyph-name="iacute.sc" horiz-adv-x="302" 
d="M140 604l-18 14q35 97 69 145q17 0 38.5 -15t27.5 -30q-42 -30 -117 -114zM29 0v19q47 10 59 20q19 16 19 59v334q0 23 -4 37t-16 22t-20 11t-29 7q-6 1 -9 2v19h244v-19q-47 -10 -59 -20q-19 -16 -19 -59v-334q0 -23 4 -37t16 -22t20 -11t29 -7q6 -1 9 -2v-19h-244z" />
    <glyph glyph-name="icircumflex.sc" horiz-adv-x="302" 
d="M152 776l136 -152l-13 -10l-123 95l-124 -95l-12 9zM29 0v19q47 10 59 20q19 16 19 59v334q0 23 -4 37t-16 22t-20 11t-29 7q-6 1 -9 2v19h244v-19q-47 -10 -59 -20q-19 -16 -19 -59v-334q0 -23 4 -37t16 -22t20 -11t29 -7q6 -1 9 -2v-19h-244z" />
    <glyph glyph-name="idieresis.sc" horiz-adv-x="302" 
d="M59 668q-19 0 -31.5 12t-12.5 31t12.5 31.5t31.5 12.5t31.5 -12.5t12.5 -31.5t-12.5 -31t-31.5 -12zM245 668q-19 0 -31 12t-12 31t12 31.5t31 12.5q20 0 32.5 -12.5t12.5 -31.5t-12.5 -31t-32.5 -12zM29 0v19q47 10 59 20q19 16 19 59v334q0 23 -4 37t-16 22t-20 11
t-29 7q-6 1 -9 2v19h244v-19q-47 -10 -59 -20q-19 -16 -19 -59v-334q0 -23 4 -37t16 -22t20 -11t29 -7q6 -1 9 -2v-19h-244z" />
    <glyph glyph-name="i.sc.loclTRK" horiz-adv-x="302" 
d="M152 652q-20 0 -35 14t-15 34t15 34.5t35 14.5t35.5 -14.5t15.5 -34.5t-15 -34t-36 -14zM29 0v19q47 10 59 20q19 16 19 59v334q0 23 -4 37t-16 22t-20 11t-29 7q-6 1 -9 2v19h244v-19q-47 -10 -59 -20q-19 -16 -19 -59v-334q0 -23 4 -37t16 -22t20 -11t29 -7q6 -1 9 -2
v-19h-244z" />
    <glyph glyph-name="igrave.sc" horiz-adv-x="302" 
d="M158 604q-75 84 -117 114q6 15 27.5 30t38.5 15q34 -48 69 -145zM29 0v19q47 10 59 20q19 16 19 59v334q0 23 -4 37t-16 22t-20 11t-29 7q-6 1 -9 2v19h244v-19q-47 -10 -59 -20q-19 -16 -19 -59v-334q0 -23 4 -37t16 -22t20 -11t29 -7q6 -1 9 -2v-19h-244z" />
    <glyph glyph-name="ij.sc" horiz-adv-x="614" 
d="M29 0v19q47 10 59 20q19 16 19 59v334q0 23 -4 37t-16 22t-20 11t-29 7q-6 1 -9 2v19h244v-19q-47 -10 -59 -20q-19 -16 -19 -59v-334q0 -23 4 -37t16 -22t20 -11t29 -7q6 -1 9 -2v-19h-244zM309 -185q-6 13 0 23q68 24 86.5 56.5t18.5 113.5v424q0 44 -17 57t-61 21
q-5 0 -8 1v19h257v-19q-51 -10 -64 -20q-19 -16 -19 -59v-434q0 -85 -53 -126.5t-140 -56.5z" />
    <glyph glyph-name="imacron.sc" horiz-adv-x="302" 
d="M5 694l15 33h280l-15 -33h-280zM29 0v19q47 10 59 20q19 16 19 59v334q0 23 -4 37t-16 22t-20 11t-29 7q-6 1 -9 2v19h244v-19q-47 -10 -59 -20q-19 -16 -19 -59v-334q0 -23 4 -37t16 -22t20 -11t29 -7q6 -1 9 -2v-19h-244z" />
    <glyph glyph-name="iogonek.sc" horiz-adv-x="302" 
d="M273 511q-47 -10 -59 -20q-19 -16 -19 -59v-334q0 -23 4 -37t16 -22t20 -11t29 -7q6 -1 9 -2v-19h-78q-47 -27 -68.5 -49.5t-21.5 -54.5q0 -26 14.5 -40t37.5 -14q21 0 50 11v-16q-34 -36 -85 -36q-40 0 -66 20t-26 61q0 30 22 61l85 57h-108v19q47 10 59 20q19 16 19 59
v334q0 23 -4 37t-16 22t-20 11t-29 7q-6 1 -9 2v19h244v-19z" />
    <glyph glyph-name="j.sc" horiz-adv-x="312" 
d="M7 -185q-6 13 0 23q68 24 86.5 56.5t18.5 113.5v424q0 44 -17 57t-61 21q-5 0 -8 1v19h257v-19q-51 -10 -64 -20q-19 -16 -19 -59v-434q0 -85 -53 -126.5t-140 -56.5z" />
    <glyph glyph-name="k.sc" horiz-adv-x="589" 
d="M492 54q15 -20 30 -27.5t53 -7.5v-19h-166q0 23 -30 67l-134 194l-50 -53v-110q0 -23 4 -37t16 -22t20 -11t29 -7q6 -1 9 -2v-19h-244v19q47 10 59 20q19 16 19 59v334q0 23 -4 37t-16 22t-20 11t-29 7q-6 1 -9 2v19h244v-19q-47 -10 -59 -20q-19 -16 -19 -59v-171
l184 196q22 23 11 38.5t-52 15.5v19h214v-19q-45 0 -69 -13t-51 -41l-130 -136z" />
    <glyph glyph-name="uni0137.sc" horiz-adv-x="589" 
d="M492 54q15 -20 30 -27.5t53 -7.5v-19h-166q0 23 -30 67l-134 194l-50 -53v-110q0 -23 4 -37t16 -22t20 -11t29 -7q6 -1 9 -2v-19h-244v19q47 10 59 20q19 16 19 59v334q0 23 -4 37t-16 22t-20 11t-29 7q-6 1 -9 2v19h244v-19q-47 -10 -59 -20q-19 -16 -19 -59v-171
l184 196q22 23 11 38.5t-52 15.5v19h214v-19q-45 0 -69 -13t-51 -41l-130 -136zM302 -58q26 0 45 -20.5t19 -55.5q0 -49 -35.5 -97t-100.5 -69l-9 18q34 14 54.5 37.5t25.5 46.5q1 5 1.5 9t-1.5 7.5t-3 5.5t-4.5 4.5t-4.5 3t-5.5 3t-5.5 2.5q-31 18 -31 51q0 24 16 39t39 15
z" />
    <glyph glyph-name="l.sc" horiz-adv-x="537" 
d="M29 0v19q47 10 59 20q19 16 19 59v334q0 23 -4 37t-16 22t-20 11t-29 7q-6 1 -9 2v19h263v-19q-4 -1 -17 -3.5t-18 -3.5t-16 -4.5t-15.5 -6.5t-12 -9t-10.5 -13t-5.5 -17t-2.5 -22v-324q0 -50 16.5 -63t71.5 -13h49q59 0 91.5 26.5t61.5 94.5h23l-41 -153h-438z" />
    <glyph glyph-name="lacute.sc" horiz-adv-x="537" 
d="M136 604l-18 14q35 97 69 145q17 0 38.5 -15t27.5 -30q-42 -30 -117 -114zM29 0v19q47 10 59 20q19 16 19 59v334q0 23 -4 37t-16 22t-20 11t-29 7q-6 1 -9 2v19h263v-19q-4 -1 -17 -3.5t-18 -3.5t-16 -4.5t-15.5 -6.5t-12 -9t-10.5 -13t-5.5 -17t-2.5 -22v-324
q0 -50 16.5 -63t71.5 -13h49q59 0 91.5 26.5t61.5 94.5h23l-41 -153h-438z" />
    <glyph glyph-name="lcaron.sc" horiz-adv-x="537" 
d="M146 615l-136 153l12 9l124 -95l123 95l13 -10zM29 0v19q47 10 59 20q19 16 19 59v334q0 23 -4 37t-16 22t-20 11t-29 7q-6 1 -9 2v19h263v-19q-4 -1 -17 -3.5t-18 -3.5t-16 -4.5t-15.5 -6.5t-12 -9t-10.5 -13t-5.5 -17t-2.5 -22v-324q0 -50 16.5 -63t71.5 -13h49
q59 0 91.5 26.5t61.5 94.5h23l-41 -153h-438z" />
    <glyph glyph-name="uni013C.sc" horiz-adv-x="537" 
d="M29 0v19q47 10 59 20q19 16 19 59v334q0 23 -4 37t-16 22t-20 11t-29 7q-6 1 -9 2v19h263v-19q-4 -1 -17 -3.5t-18 -3.5t-16 -4.5t-15.5 -6.5t-12 -9t-10.5 -13t-5.5 -17t-2.5 -22v-324q0 -50 16.5 -63t71.5 -13h49q59 0 91.5 26.5t61.5 94.5h23l-41 -153h-438zM190 -300
l-9 18q34 14 54.5 37.5t25.5 46.5q1 5 1.5 9t-1.5 7.5t-3 5.5t-4.5 4.5t-4.5 3t-5.5 3t-5.5 2.5q-31 18 -31 51q0 24 16 39t39 15q26 0 45 -20.5t19 -55.5q0 -49 -35.5 -97t-100.5 -69z" />
    <glyph glyph-name="ldot.sc" horiz-adv-x="600" 
d="M29 0v19q47 10 59 20q19 16 19 59v334q0 23 -4 37t-16 22t-20 11t-29 7q-6 1 -9 2v19h263v-19q-4 -1 -17 -3.5t-18 -3.5t-16 -4.5t-15.5 -6.5t-12 -9t-10.5 -13t-5.5 -17t-2.5 -22v-324q0 -50 16.5 -63t71.5 -13h49q59 0 91.5 26.5t61.5 94.5h23l-41 -153h-438zM323 214
q-23 0 -39.5 15.5t-16.5 37.5q0 23 16.5 38.5t39.5 15.5t39.5 -15.5t16.5 -38.5q0 -22 -16.5 -37.5t-39.5 -15.5z" />
    <glyph glyph-name="lslash.sc" horiz-adv-x="537" 
d="M485 153h23l-41 -153h-438v19q47 10 59 20q19 16 19 59v123q-65 -24 -82 -31v41l82 24v177q0 23 -4 37t-16 22t-20 11t-29 7q-6 1 -9 2v19h263v-19q-4 -1 -17 -3.5t-18 -3.5t-16 -4.5t-15.5 -6.5t-12 -9t-10.5 -13t-5.5 -17t-2.5 -22v-149q104 36 182 67v-41
q-128 -38 -182 -57v-144q0 -50 16.5 -63t71.5 -13h49q59 0 91.5 26.5t61.5 94.5z" />
    <glyph glyph-name="m.sc" horiz-adv-x="753" 
d="M647 98q1 -24 5.5 -38.5t18 -22.5t21 -10.5t32.5 -7.5v-19h-244v19q49 10 60 20q20 17 18 59l-15 351l-175 -449h-30l-178 410l-16 -312q-1 -23 3 -37t17.5 -22t22.5 -11t33 -7q7 -1 10 -2v-19h-201v19q26 6 33 8t21.5 10t19 22.5t5.5 38.5l18 334q0 10 -1 18.5
t-1.5 14.5t-4.5 11.5t-5.5 9t-8.5 7.5t-8.5 5.5t-11.5 4t-11.5 3t-13.5 3t-13 2.5v19h157q2 -10 6 -21.5t13 -29.5t12 -26l145 -331l125 331q25 66 27 77h174v-19q-48 -10 -60 -20q-19 -16 -17 -59z" />
    <glyph glyph-name="n.sc" horiz-adv-x="651" 
d="M420 530h203v-19q-80 14 -80 -79v-432h-38l-357 439v-341q0 -23 4 -37t17.5 -22.5t21.5 -10.5t33 -7q6 -1 9 -2v-19h-204v19q48 10 60 20q20 17 20 59v334q0 23 -4 37t-16.5 22t-20.5 11t-30 7q-6 1 -9 2v19h152l323 -382v284q0 92 -84 79v19z" />
    <glyph glyph-name="nacute.sc" horiz-adv-x="651" 
d="M432 718q-42 -30 -117 -114l-18 14q35 97 69 145q17 0 38.5 -15t27.5 -30zM420 530h203v-19q-80 14 -80 -79v-432h-38l-357 439v-341q0 -23 4 -37t17.5 -22.5t21.5 -10.5t33 -7q6 -1 9 -2v-19h-204v19q48 10 60 20q20 17 20 59v334q0 23 -4 37t-16.5 22t-20.5 11t-30 7
q-6 1 -9 2v19h152l323 -382v284q0 92 -84 79v19z" />
    <glyph glyph-name="ncaron.sc" horiz-adv-x="651" 
d="M461 767l-136 -152l-136 153l12 9l124 -95l123 95zM420 530h203v-19q-80 14 -80 -79v-432h-38l-357 439v-341q0 -23 4 -37t17.5 -22.5t21.5 -10.5t33 -7q6 -1 9 -2v-19h-204v19q48 10 60 20q20 17 20 59v334q0 23 -4 37t-16.5 22t-20.5 11t-30 7q-6 1 -9 2v19h152
l323 -382v284q0 92 -84 79v19z" />
    <glyph glyph-name="uni0146.sc" horiz-adv-x="651" 
d="M420 530h203v-19q-80 14 -80 -79v-432h-38l-357 439v-341q0 -23 4 -37t17.5 -22.5t21.5 -10.5t33 -7q6 -1 9 -2v-19h-204v19q48 10 60 20q20 17 20 59v334q0 23 -4 37t-16.5 22t-20.5 11t-30 7q-6 1 -9 2v19h152l323 -382v284q0 92 -84 79v19zM332 -58q26 0 45 -20.5
t19 -55.5q0 -49 -35.5 -97t-100.5 -69l-9 18q34 14 54.5 37.5t25.5 46.5q1 5 1.5 9t-1.5 7.5t-3 5.5t-4.5 4.5t-4.5 3t-5.5 3t-5.5 2.5q-31 18 -31 51q0 24 16 39t39 15z" />
    <glyph glyph-name="ntilde.sc" horiz-adv-x="651" 
d="M186 656h-17q-9 39 19 67.5t74 28.5q33 0 57.5 -17t45.5 -34.5t46 -17.5q27 0 42 13t15 28h17q9 -39 -19 -68t-73 -29q-27 0 -48.5 11t-34 24t-30.5 24t-37 11q-27 0 -42 -13t-15 -28zM420 530h203v-19q-80 14 -80 -79v-432h-38l-357 439v-341q0 -23 4 -37t17.5 -22.5
t21.5 -10.5t33 -7q6 -1 9 -2v-19h-204v19q48 10 60 20q20 17 20 59v334q0 23 -4 37t-16.5 22t-20.5 11t-30 7q-6 1 -9 2v19h152l323 -382v284q0 92 -84 79v19z" />
    <glyph glyph-name="o.sc" horiz-adv-x="663" 
d="M329 -12q-128 0 -204 81t-76 194q0 112 77.5 195.5t206.5 83.5q127 0 204 -81t77 -193q0 -114 -77.5 -197t-207.5 -83zM346 21q82 0 127 58.5t45 158.5q0 115 -55.5 193t-146.5 78q-82 0 -126.5 -59t-44.5 -157q0 -116 55 -194t146 -78z" />
    <glyph glyph-name="oacute.sc" horiz-adv-x="663" 
d="M319 604l-18 14q35 97 69 145q17 0 38.5 -15t27.5 -30q-42 -30 -117 -114zM329 -12q-128 0 -204 81t-76 194q0 112 77.5 195.5t206.5 83.5q127 0 204 -81t77 -193q0 -114 -77.5 -197t-207.5 -83zM346 21q82 0 127 58.5t45 158.5q0 115 -55.5 193t-146.5 78
q-82 0 -126.5 -59t-44.5 -157q0 -116 55 -194t146 -78z" />
    <glyph glyph-name="ocircumflex.sc" horiz-adv-x="663" 
d="M331 776l136 -152l-13 -10l-123 95l-124 -95l-12 9zM329 -12q-128 0 -204 81t-76 194q0 112 77.5 195.5t206.5 83.5q127 0 204 -81t77 -193q0 -114 -77.5 -197t-207.5 -83zM346 21q82 0 127 58.5t45 158.5q0 115 -55.5 193t-146.5 78q-82 0 -126.5 -59t-44.5 -157
q0 -116 55 -194t146 -78z" />
    <glyph glyph-name="odieresis.sc" horiz-adv-x="663" 
d="M238 668q-19 0 -31.5 12t-12.5 31t12 31.5t32 12.5t32 -12.5t12 -31.5t-12.5 -31t-31.5 -12zM424 668q-19 0 -31 12t-12 31t12 31.5t31 12.5q20 0 32.5 -12.5t12.5 -31.5t-12.5 -31t-32.5 -12zM329 -12q-128 0 -204 81t-76 194q0 112 77.5 195.5t206.5 83.5
q127 0 204 -81t77 -193q0 -114 -77.5 -197t-207.5 -83zM346 21q82 0 127 58.5t45 158.5q0 115 -55.5 193t-146.5 78q-82 0 -126.5 -59t-44.5 -157q0 -116 55 -194t146 -78z" />
    <glyph glyph-name="ograve.sc" horiz-adv-x="663" 
d="M337 604q-75 84 -117 114q6 15 27.5 30t38.5 15q34 -48 69 -145zM329 -12q-128 0 -204 81t-76 194q0 112 77.5 195.5t206.5 83.5q127 0 204 -81t77 -193q0 -114 -77.5 -197t-207.5 -83zM346 21q82 0 127 58.5t45 158.5q0 115 -55.5 193t-146.5 78q-82 0 -126.5 -59
t-44.5 -157q0 -116 55 -194t146 -78z" />
    <glyph glyph-name="ohungarumlaut.sc" horiz-adv-x="663" 
d="M223 604l-18 14q35 97 69 145q17 0 38.5 -15t27.5 -30q-42 -30 -117 -114zM369 604l-17 14q31 92 69 145q17 0 38.5 -15t26.5 -30q-42 -30 -117 -114zM329 -12q-128 0 -204 81t-76 194q0 112 77.5 195.5t206.5 83.5q127 0 204 -81t77 -193q0 -114 -77.5 -197t-207.5 -83z
M346 21q82 0 127 58.5t45 158.5q0 115 -55.5 193t-146.5 78q-82 0 -126.5 -59t-44.5 -157q0 -116 55 -194t146 -78z" />
    <glyph glyph-name="omacron.sc" horiz-adv-x="663" 
d="M184 694l15 33h280l-15 -33h-280zM329 -12q-128 0 -204 81t-76 194q0 112 77.5 195.5t206.5 83.5q127 0 204 -81t77 -193q0 -114 -77.5 -197t-207.5 -83zM346 21q82 0 127 58.5t45 158.5q0 115 -55.5 193t-146.5 78q-82 0 -126.5 -59t-44.5 -157q0 -116 55 -194t146 -78z
" />
    <glyph glyph-name="oslash.sc" horiz-adv-x="663" 
d="M488 500q60 -37 93 -99t33 -133q0 -114 -77.5 -197t-207.5 -83q-78 0 -141 33l-44 -70l-20 13l44 70q-57 37 -88 98t-31 131q0 112 77.5 195.5t206.5 83.5q74 0 134 -30l51 82l20 -13zM145 293q0 -125 60 -200l230 369q-49 47 -119 47q-82 0 -126.5 -59t-44.5 -157z
M346 21q82 0 127 58.5t45 158.5q0 129 -66 206l-231 -370q53 -53 125 -53z" />
    <glyph glyph-name="otilde.sc" horiz-adv-x="663" 
d="M398 627q-27 0 -48.5 11t-34 24t-30.5 24t-37 11q-27 0 -42 -13t-15 -28h-17q-9 39 19 67.5t74 28.5q26 0 47.5 -11t33.5 -23.5t30 -23.5t38 -11q27 0 42 13t15 28h17q9 -39 -19 -68t-73 -29zM329 -12q-128 0 -204 81t-76 194q0 112 77.5 195.5t206.5 83.5q127 0 204 -81
t77 -193q0 -114 -77.5 -197t-207.5 -83zM346 21q82 0 127 58.5t45 158.5q0 115 -55.5 193t-146.5 78q-82 0 -126.5 -59t-44.5 -157q0 -116 55 -194t146 -78z" />
    <glyph glyph-name="oe.sc" horiz-adv-x="951" 
d="M917 137l-41 -137h-451q-41 -12 -96 -12q-128 0 -204 81t-76 194q0 112 77.5 195.5t206.5 83.5q55 0 95 -12h446l9 -129h-24q-7 50 -27 73t-71 23h-79q-59 0 -76.5 -13t-17.5 -63v-137h85q72 0 94 16t27 58h18v-179h-18q-5 42 -27 58t-94 16h-85v-144q0 -50 17.5 -63
t76.5 -13h58q58 0 91.5 23t61.5 81h24zM145 293q0 -116 55 -194t146 -78q154 0 154 217q0 118 -47 194.5t-137 76.5q-82 0 -126.5 -59t-44.5 -157z" />
    <glyph glyph-name="p.sc" horiz-adv-x="558" 
d="M29 0v19q47 10 59 20q19 16 19 59v334q0 23 -4 37t-16 22t-20 11t-29 7q-6 1 -9 2v19h229q121 0 191 -44.5t70 -140.5q0 -97 -73.5 -147.5t-205.5 -50.5q-12 0 -12 15t12 15q183 0 183 162q0 158 -157 158q-42 0 -56.5 -11t-14.5 -35v-353q0 -23 4 -37t16 -22t20 -11
t29 -7q6 -1 9 -2v-19h-244z" />
    <glyph glyph-name="q.sc" horiz-adv-x="680" 
d="M741 -87q15 -3 15 -17q-74 -71 -152 -71q-56 0 -122 40l-172 105q-18 11 -56 24.5t-42 15.5q-77 32 -120 101t-43 152q0 112 77.5 195.5t206.5 83.5q127 0 204 -81t77 -193q0 -95 -56.5 -172t-154.5 -100q24 -7 51 -25l76 -49q63 -43 119 -43q48 0 92 34zM316 509
q-82 0 -126.5 -59t-44.5 -157q0 -116 55 -194t146 -78q82 0 127 58.5t45 158.5q0 115 -55.5 193t-146.5 78z" />
    <glyph glyph-name="r.sc" horiz-adv-x="581" 
d="M437 116q19 -28 29 -41t27.5 -32t34.5 -24t34 1v-20q-19 -16 -54 -16q-50 0 -84 24.5t-70 79.5l-52 80q-37 58 -107 69v-139q0 -23 4 -37t16 -22t20 -11t29 -7q6 -1 9 -2v-19h-244v19q47 10 59 20q19 16 19 59v334q0 23 -4 37t-16 22t-20 11t-29 7q-6 1 -9 2v19h230
q132 0 194.5 -33.5t62.5 -110.5q0 -65 -46.5 -99.5t-147.5 -43.5q42 -12 77 -68zM264 497q-41 0 -55 -11t-14 -35v-179h65q90 0 127.5 28.5t37.5 81.5q0 115 -161 115z" />
    <glyph glyph-name="racute.sc" horiz-adv-x="581" 
d="M389 718q-42 -30 -117 -114l-18 14q35 97 69 145q17 0 38.5 -15t27.5 -30zM437 116q19 -28 29 -41t27.5 -32t34.5 -24t34 1v-20q-19 -16 -54 -16q-50 0 -84 24.5t-70 79.5l-52 80q-37 58 -107 69v-139q0 -23 4 -37t16 -22t20 -11t29 -7q6 -1 9 -2v-19h-244v19
q47 10 59 20q19 16 19 59v334q0 23 -4 37t-16 22t-20 11t-29 7q-6 1 -9 2v19h230q132 0 194.5 -33.5t62.5 -110.5q0 -65 -46.5 -99.5t-147.5 -43.5q42 -12 77 -68zM264 497q-41 0 -55 -11t-14 -35v-179h65q90 0 127.5 28.5t37.5 81.5q0 115 -161 115z" />
    <glyph glyph-name="rcaron.sc" horiz-adv-x="581" 
d="M418 767l-136 -152l-136 153l12 9l124 -95l123 95zM437 116q19 -28 29 -41t27.5 -32t34.5 -24t34 1v-20q-19 -16 -54 -16q-50 0 -84 24.5t-70 79.5l-52 80q-37 58 -107 69v-139q0 -23 4 -37t16 -22t20 -11t29 -7q6 -1 9 -2v-19h-244v19q47 10 59 20q19 16 19 59v334
q0 23 -4 37t-16 22t-20 11t-29 7q-6 1 -9 2v19h230q132 0 194.5 -33.5t62.5 -110.5q0 -65 -46.5 -99.5t-147.5 -43.5q42 -12 77 -68zM264 497q-41 0 -55 -11t-14 -35v-179h65q90 0 127.5 28.5t37.5 81.5q0 115 -161 115z" />
    <glyph glyph-name="uni0157.sc" horiz-adv-x="581" 
d="M437 116q19 -28 29 -41t27.5 -32t34.5 -24t34 1v-20q-19 -16 -54 -16q-50 0 -84 24.5t-70 79.5l-52 80q-37 58 -107 69v-139q0 -23 4 -37t16 -22t20 -11t29 -7q6 -1 9 -2v-19h-244v19q47 10 59 20q19 16 19 59v334q0 23 -4 37t-16 22t-20 11t-29 7q-6 1 -9 2v19h230
q132 0 194.5 -33.5t62.5 -110.5q0 -65 -46.5 -99.5t-147.5 -43.5q42 -12 77 -68zM264 497q-41 0 -55 -11t-14 -35v-179h65q90 0 127.5 28.5t37.5 81.5q0 115 -161 115zM297 -58q26 0 45 -20.5t19 -55.5q0 -49 -35.5 -97t-100.5 -69l-9 18q34 14 54.5 37.5t25.5 46.5
q1 5 1.5 9t-1.5 7.5t-3 5.5t-4.5 4.5t-4.5 3t-5.5 3t-5.5 2.5q-31 18 -31 51q0 24 16 39t39 15z" />
    <glyph glyph-name="s.sc" horiz-adv-x="474" 
d="M228 -12q-88 0 -173 53l-6 109h23q16 -59 56 -95.5t94 -36.5q48 0 78.5 26.5t30.5 68.5q0 39 -30 67.5t-91 54.5q-74 30 -115 66.5t-41 101.5q0 62 47 100.5t133 38.5q22 0 42.5 -3t34 -6.5t30 -11t22.5 -10.5t19 -11.5t14 -8.5l3 -111h-24q-32 132 -134 132
q-46 0 -70.5 -23t-24.5 -58q0 -34 22 -57t78 -49q92 -42 118 -61q66 -48 66 -121q0 -69 -56.5 -112t-145.5 -43z" />
    <glyph glyph-name="sacute.sc" horiz-adv-x="474" 
d="M218 604l-18 14q35 97 69 145q17 0 38.5 -15t27.5 -30q-42 -30 -117 -114zM228 -12q-88 0 -173 53l-6 109h23q16 -59 56 -95.5t94 -36.5q48 0 78.5 26.5t30.5 68.5q0 39 -30 67.5t-91 54.5q-74 30 -115 66.5t-41 101.5q0 62 47 100.5t133 38.5q22 0 42.5 -3t34 -6.5
t30 -11t22.5 -10.5t19 -11.5t14 -8.5l3 -111h-24q-32 132 -134 132q-46 0 -70.5 -23t-24.5 -58q0 -34 22 -57t78 -49q92 -42 118 -61q66 -48 66 -121q0 -69 -56.5 -112t-145.5 -43z" />
    <glyph glyph-name="scaron.sc" horiz-adv-x="474" 
d="M229 615l-136 153l12 9l124 -95l123 95l13 -10zM228 -12q-88 0 -173 53l-6 109h23q16 -59 56 -95.5t94 -36.5q48 0 78.5 26.5t30.5 68.5q0 39 -30 67.5t-91 54.5q-74 30 -115 66.5t-41 101.5q0 62 47 100.5t133 38.5q22 0 42.5 -3t34 -6.5t30 -11t22.5 -10.5t19 -11.5
t14 -8.5l3 -111h-24q-32 132 -134 132q-46 0 -70.5 -23t-24.5 -58q0 -34 22 -57t78 -49q92 -42 118 -61q66 -48 66 -121q0 -69 -56.5 -112t-145.5 -43z" />
    <glyph glyph-name="scedilla.sc" horiz-adv-x="474" 
d="M430 143q0 -61 -45.5 -103t-120.5 -50l-22 -43q44 0 71.5 -20.5t27.5 -54.5q0 -36 -35.5 -60t-114.5 -24l5 21q44 0 67 13t23 33q0 47 -106 47l44 86q-86 1 -169 53l-6 109h23q16 -59 56 -95.5t94 -36.5q48 0 78.5 26.5t30.5 68.5q0 39 -30 67.5t-91 54.5
q-74 30 -115 66.5t-41 101.5q0 62 47 100.5t133 38.5q22 0 42.5 -3t34 -6.5t30 -11t22.5 -10.5t19 -11.5t14 -8.5l3 -111h-24q-32 132 -134 132q-46 0 -70.5 -23t-24.5 -58q0 -34 22 -57t78 -49q92 -42 118 -61q66 -48 66 -121z" />
    <glyph glyph-name="uni0219.sc" horiz-adv-x="474" 
d="M228 -12q-88 0 -173 53l-6 109h23q16 -59 56 -95.5t94 -36.5q48 0 78.5 26.5t30.5 68.5q0 39 -30 67.5t-91 54.5q-74 30 -115 66.5t-41 101.5q0 62 47 100.5t133 38.5q22 0 42.5 -3t34 -6.5t30 -11t22.5 -10.5t19 -11.5t14 -8.5l3 -111h-24q-32 132 -134 132
q-46 0 -70.5 -23t-24.5 -58q0 -34 22 -57t78 -49q92 -42 118 -61q66 -48 66 -121q0 -69 -56.5 -112t-145.5 -43zM173 -300l-9 18q34 14 54.5 37.5t25.5 46.5q1 5 1.5 9t-1.5 7.5t-3 5.5t-4.5 4.5t-4.5 3t-5.5 3t-5.5 2.5q-31 18 -31 51q0 24 16 39t39 15q26 0 45 -20.5
t19 -55.5q0 -49 -35.5 -97t-100.5 -69z" />
    <glyph glyph-name="germandbls.sc" horiz-adv-x="686" 
d="M435 304q90 -10 149 -50t59 -107t-56.5 -117t-150.5 -50q-69 0 -125 32q-2 55 -17 122h22q31 -72 56.5 -100.5t61.5 -28.5q48 0 81.5 36t33.5 85q0 66 -64 109t-170 43l170 206q-49 23 -114 23q-77 0 -123.5 -41.5t-46.5 -131.5v-236q0 -24 3 -38.5t15 -22.5t18.5 -10.5
t29.5 -7.5v-19h-238v19q51 10 64 20q19 16 19 59v234q0 58 20 100.5t54.5 65.5t72.5 33.5t81 10.5q58 0 124.5 -17.5t116.5 -44.5z" />
    <glyph glyph-name="t.sc" horiz-adv-x="567" 
d="M530 540l8 -174h-18q-11 73 -38.5 104.5t-96.5 31.5h-58v-404q0 -20 5 -33t9.5 -20.5t21.5 -13t24.5 -7t35.5 -5.5v-19h-280v19q28 4 35.5 5.5t24.5 7t21.5 13t9.5 20.5t5 33v404h-54q-71 0 -99 -31.5t-39 -104.5h-18l8 174l48 -10h397z" />
    <glyph glyph-name="tbar.sc" horiz-adv-x="567" 
d="M530 540l8 -174h-18q-11 73 -38.5 104.5t-96.5 31.5h-58v-240l106 3l-10 -36l-96 3v-134q0 -20 5 -33t9.5 -20.5t21.5 -13t24.5 -7t35.5 -5.5v-19h-280v19q28 4 35.5 5.5t24.5 7t21.5 13t9.5 20.5t5 33v134l-106 -3l10 36l96 -3v240h-54q-71 0 -99 -31.5t-39 -104.5h-18
l8 174l48 -10h397z" />
    <glyph glyph-name="tcaron.sc" horiz-adv-x="567" 
d="M418 767l-136 -152l-136 153l12 9l124 -95l123 95zM530 540l8 -174h-18q-11 73 -38.5 104.5t-96.5 31.5h-58v-404q0 -20 5 -33t9.5 -20.5t21.5 -13t24.5 -7t35.5 -5.5v-19h-280v19q28 4 35.5 5.5t24.5 7t21.5 13t9.5 20.5t5 33v404h-54q-71 0 -99 -31.5t-39 -104.5h-18
l8 174l48 -10h397z" />
    <glyph glyph-name="uni0163.sc" horiz-adv-x="567" 
d="M530 540l8 -174h-18q-11 73 -38.5 104.5t-96.5 31.5h-58v-404q0 -20 5 -33t9.5 -20.5t21.5 -13t24.5 -7t35.5 -5.5v-19h-109l-27 -53q44 0 71.5 -20.5t27.5 -54.5q0 -36 -35.5 -60t-114.5 -24l5 21q44 0 67 13t23 33q0 47 -106 47l50 98h-132v19q28 4 35.5 5.5t24.5 7
t21.5 13t9.5 20.5t5 33v404h-54q-71 0 -99 -31.5t-39 -104.5h-18l8 174l48 -10h397z" />
    <glyph glyph-name="uni021B.sc" horiz-adv-x="567" 
d="M530 540l8 -174h-18q-11 73 -38.5 104.5t-96.5 31.5h-58v-404q0 -20 5 -33t9.5 -20.5t21.5 -13t24.5 -7t35.5 -5.5v-19h-280v19q28 4 35.5 5.5t24.5 7t21.5 13t9.5 20.5t5 33v404h-54q-71 0 -99 -31.5t-39 -104.5h-18l8 174l48 -10h397zM290 -58q26 0 45 -20.5t19 -55.5
q0 -49 -35.5 -97t-100.5 -69l-9 18q34 14 54.5 37.5t25.5 46.5q1 5 1.5 9t-1.5 7.5t-3 5.5t-4.5 4.5t-4.5 3t-5.5 3t-5.5 2.5q-31 18 -31 51q0 24 16 39t39 15z" />
    <glyph glyph-name="u.sc" horiz-adv-x="677" 
d="M336 -12q-34 0 -63 5.5t-61 23t-54 45t-36.5 76t-14.5 112.5v182q0 23 -4 37t-16 22t-20 11t-29 7q-6 1 -9 2v19h245v-19q-47 -10 -59 -20q-19 -16 -19 -59v-193q0 -209 160 -209q31 0 58 8t53 28t41.5 60.5t15.5 97.5v208q0 23 -4 37t-16.5 22t-20.5 11t-30 7q-6 1 -9 2
v19h205v-19q-52 -10 -65 -20q-20 -17 -20 -59v-188q0 -72 -19 -124t-52 -80t-71.5 -40t-85.5 -12z" />
    <glyph glyph-name="uacute.sc" horiz-adv-x="677" 
d="M327 611l-18 14q35 97 69 145q17 0 38.5 -15t27.5 -30q-42 -30 -117 -114zM336 -12q-34 0 -63 5.5t-61 23t-54 45t-36.5 76t-14.5 112.5v182q0 23 -4 37t-16 22t-20 11t-29 7q-6 1 -9 2v19h245v-19q-47 -10 -59 -20q-19 -16 -19 -59v-193q0 -209 160 -209q31 0 58 8
t53 28t41.5 60.5t15.5 97.5v208q0 23 -4 37t-16.5 22t-20.5 11t-30 7q-6 1 -9 2v19h205v-19q-52 -10 -65 -20q-20 -17 -20 -59v-188q0 -72 -19 -124t-52 -80t-71.5 -40t-85.5 -12z" />
    <glyph glyph-name="ubreve.sc" horiz-adv-x="677" 
d="M339 652q-64 0 -97 35t-33 89h19q13 -65 111 -65t110 65h20q0 -54 -33 -89t-97 -35zM336 -12q-34 0 -63 5.5t-61 23t-54 45t-36.5 76t-14.5 112.5v182q0 23 -4 37t-16 22t-20 11t-29 7q-6 1 -9 2v19h245v-19q-47 -10 -59 -20q-19 -16 -19 -59v-193q0 -209 160 -209
q31 0 58 8t53 28t41.5 60.5t15.5 97.5v208q0 23 -4 37t-16.5 22t-20.5 11t-30 7q-6 1 -9 2v19h205v-19q-52 -10 -65 -20q-20 -17 -20 -59v-188q0 -72 -19 -124t-52 -80t-71.5 -40t-85.5 -12z" />
    <glyph glyph-name="ucircumflex.sc" horiz-adv-x="677" 
d="M339 783l136 -152l-13 -10l-123 95l-124 -95l-12 9zM336 -12q-34 0 -63 5.5t-61 23t-54 45t-36.5 76t-14.5 112.5v182q0 23 -4 37t-16 22t-20 11t-29 7q-6 1 -9 2v19h245v-19q-47 -10 -59 -20q-19 -16 -19 -59v-193q0 -209 160 -209q31 0 58 8t53 28t41.5 60.5t15.5 97.5
v208q0 23 -4 37t-16.5 22t-20.5 11t-30 7q-6 1 -9 2v19h205v-19q-52 -10 -65 -20q-20 -17 -20 -59v-188q0 -72 -19 -124t-52 -80t-71.5 -40t-85.5 -12z" />
    <glyph glyph-name="udieresis.sc" horiz-adv-x="677" 
d="M246 675q-19 0 -31.5 12t-12.5 31q0 20 12 32t32 12t32 -12t12 -32q0 -19 -12.5 -31t-31.5 -12zM432 675q-19 0 -31 12t-12 31t12 31.5t31 12.5q20 0 32.5 -12.5t12.5 -31.5t-12.5 -31t-32.5 -12zM336 -12q-34 0 -63 5.5t-61 23t-54 45t-36.5 76t-14.5 112.5v182
q0 23 -4 37t-16 22t-20 11t-29 7q-6 1 -9 2v19h245v-19q-47 -10 -59 -20q-19 -16 -19 -59v-193q0 -209 160 -209q31 0 58 8t53 28t41.5 60.5t15.5 97.5v208q0 23 -4 37t-16.5 22t-20.5 11t-30 7q-6 1 -9 2v19h205v-19q-52 -10 -65 -20q-20 -17 -20 -59v-188q0 -72 -19 -124
t-52 -80t-71.5 -40t-85.5 -12z" />
    <glyph glyph-name="ugrave.sc" horiz-adv-x="677" 
d="M345 611q-75 84 -117 114q6 15 27.5 30t38.5 15q34 -48 69 -145zM336 -12q-34 0 -63 5.5t-61 23t-54 45t-36.5 76t-14.5 112.5v182q0 23 -4 37t-16 22t-20 11t-29 7q-6 1 -9 2v19h245v-19q-47 -10 -59 -20q-19 -16 -19 -59v-193q0 -209 160 -209q31 0 58 8t53 28
t41.5 60.5t15.5 97.5v208q0 23 -4 37t-16.5 22t-20.5 11t-30 7q-6 1 -9 2v19h205v-19q-52 -10 -65 -20q-20 -17 -20 -59v-188q0 -72 -19 -124t-52 -80t-71.5 -40t-85.5 -12z" />
    <glyph glyph-name="uhungarumlaut.sc" horiz-adv-x="677" 
d="M230 611l-18 14q35 97 69 145q17 0 38.5 -15t27.5 -30q-42 -30 -117 -114zM376 611l-17 14q31 92 69 145q17 0 38.5 -15t26.5 -30q-42 -30 -117 -114zM336 -12q-34 0 -63 5.5t-61 23t-54 45t-36.5 76t-14.5 112.5v182q0 23 -4 37t-16 22t-20 11t-29 7q-6 1 -9 2v19h245
v-19q-47 -10 -59 -20q-19 -16 -19 -59v-193q0 -209 160 -209q31 0 58 8t53 28t41.5 60.5t15.5 97.5v208q0 23 -4 37t-16.5 22t-20.5 11t-30 7q-6 1 -9 2v19h205v-19q-52 -10 -65 -20q-20 -17 -20 -59v-188q0 -72 -19 -124t-52 -80t-71.5 -40t-85.5 -12z" />
    <glyph glyph-name="umacron.sc" horiz-adv-x="677" 
d="M192 701l15 33h280l-15 -33h-280zM336 -12q-34 0 -63 5.5t-61 23t-54 45t-36.5 76t-14.5 112.5v182q0 23 -4 37t-16 22t-20 11t-29 7q-6 1 -9 2v19h245v-19q-47 -10 -59 -20q-19 -16 -19 -59v-193q0 -209 160 -209q31 0 58 8t53 28t41.5 60.5t15.5 97.5v208q0 23 -4 37
t-16.5 22t-20.5 11t-30 7q-6 1 -9 2v19h205v-19q-52 -10 -65 -20q-20 -17 -20 -59v-188q0 -72 -19 -124t-52 -80t-71.5 -40t-85.5 -12z" />
    <glyph glyph-name="uogonek.sc" horiz-adv-x="677" 
d="M444 530h205v-19q-52 -10 -65 -20q-20 -17 -20 -59v-188q0 -203 -148 -246q-46 -26 -66.5 -48.5t-20.5 -53.5q0 -26 14.5 -40t37.5 -14q21 0 50 11v-16q-34 -36 -85 -36q-40 0 -66 20t-26 61q0 30 22 61l67 45h-7q-34 0 -63 5.5t-61 23t-54 45t-36.5 76t-14.5 112.5v182
q0 23 -4 37t-16 22t-20 11t-29 7q-6 1 -9 2v19h245v-19q-47 -10 -59 -20q-19 -16 -19 -59v-193q0 -209 160 -209q31 0 58 8t53 28t41.5 60.5t15.5 97.5v208q0 23 -4 37t-16.5 22t-20.5 11t-30 7q-6 1 -9 2v19z" />
    <glyph glyph-name="uring.sc" horiz-adv-x="677" 
d="M340 634q-35 0 -60 24.5t-25 59.5t25 59.5t60 24.5t59.5 -24.5t24.5 -59.5t-24.5 -59.5t-59.5 -24.5zM340 667q20 0 35 15.5t15 35.5q0 21 -15 36t-35 15q-21 0 -35.5 -15t-14.5 -36t14.5 -36t35.5 -15zM336 -12q-34 0 -63 5.5t-61 23t-54 45t-36.5 76t-14.5 112.5v182
q0 23 -4 37t-16 22t-20 11t-29 7q-6 1 -9 2v19h245v-19q-47 -10 -59 -20q-19 -16 -19 -59v-193q0 -209 160 -209q31 0 58 8t53 28t41.5 60.5t15.5 97.5v208q0 23 -4 37t-16.5 22t-20.5 11t-30 7q-6 1 -9 2v19h205v-19q-52 -10 -65 -20q-20 -17 -20 -59v-188q0 -72 -19 -124
t-52 -80t-71.5 -40t-85.5 -12z" />
    <glyph glyph-name="v.sc" horiz-adv-x="603" 
d="M419 530h175v-19q-46 -10 -56 -18q-13 -11 -24 -37l-201 -456h-36l-192 453q-14 33 -26.5 41.5t-49.5 16.5v19h232v-19l-18 -4.5t-18.5 -5t-13 -5.5t-10.5 -9t-2 -14t5 -20l142 -340l149 342q4 9 5 16.5t-1.5 12.5t-5.5 8.5t-10.5 6.5t-12 4.5t-15.5 4t-16 3.5v19z" />
    <glyph glyph-name="w.sc" horiz-adv-x="850" 
d="M262 0l-175 451q-13 32 -25.5 40.5t-52.5 16.5v22h232v-22q-5 -1 -15.5 -3.5t-15.5 -4t-12.5 -4.5t-11 -6.5t-6.5 -9t-2.5 -13t3.5 -16.5l124 -330l86 241q17 48 -1 91t-66 55v22h144q0 -42 37 -139l102 -269l101 285q20 57 2.5 74.5t-76.5 26.5v22h207v-22
q-29 -6 -39 -9.5t-20.5 -14t-18.5 -33.5l-166 -450h-33l-139 355l-130 -356h-33z" />
    <glyph glyph-name="wacute.sc" horiz-adv-x="850" 
d="M414 604l-18 14q35 97 69 145q17 0 38.5 -15t27.5 -30q-42 -30 -117 -114zM262 0l-175 451q-13 32 -25.5 40.5t-52.5 16.5v22h232v-22q-5 -1 -15.5 -3.5t-15.5 -4t-12.5 -4.5t-11 -6.5t-6.5 -9t-2.5 -13t3.5 -16.5l124 -330l86 241q17 48 -1 91t-66 55v22h144
q0 -42 37 -139l102 -269l101 285q20 57 2.5 74.5t-76.5 26.5v22h207v-22q-29 -6 -39 -9.5t-20.5 -14t-18.5 -33.5l-166 -450h-33l-139 355l-130 -356h-33z" />
    <glyph glyph-name="wcircumflex.sc" horiz-adv-x="850" 
d="M425 776l136 -152l-13 -10l-123 95l-124 -95l-12 9zM262 0l-175 451q-13 32 -25.5 40.5t-52.5 16.5v22h232v-22q-5 -1 -15.5 -3.5t-15.5 -4t-12.5 -4.5t-11 -6.5t-6.5 -9t-2.5 -13t3.5 -16.5l124 -330l86 241q17 48 -1 91t-66 55v22h144q0 -42 37 -139l102 -269l101 285
q20 57 2.5 74.5t-76.5 26.5v22h207v-22q-29 -6 -39 -9.5t-20.5 -14t-18.5 -33.5l-166 -450h-33l-139 355l-130 -356h-33z" />
    <glyph glyph-name="wdieresis.sc" horiz-adv-x="850" 
d="M332 668q-19 0 -31.5 12t-12.5 31t12 31.5t32 12.5t32 -12.5t12 -31.5t-12.5 -31t-31.5 -12zM518 668q-19 0 -31 12t-12 31t12 31.5t31 12.5q20 0 32.5 -12.5t12.5 -31.5t-12.5 -31t-32.5 -12zM262 0l-175 451q-13 32 -25.5 40.5t-52.5 16.5v22h232v-22q-5 -1 -15.5 -3.5
t-15.5 -4t-12.5 -4.5t-11 -6.5t-6.5 -9t-2.5 -13t3.5 -16.5l124 -330l86 241q17 48 -1 91t-66 55v22h144q0 -42 37 -139l102 -269l101 285q20 57 2.5 74.5t-76.5 26.5v22h207v-22q-29 -6 -39 -9.5t-20.5 -14t-18.5 -33.5l-166 -450h-33l-139 355l-130 -356h-33z" />
    <glyph glyph-name="wgrave.sc" horiz-adv-x="850" 
d="M431 604q-75 84 -117 114q6 15 27.5 30t38.5 15q34 -48 69 -145zM262 0l-175 451q-13 32 -25.5 40.5t-52.5 16.5v22h232v-22q-5 -1 -15.5 -3.5t-15.5 -4t-12.5 -4.5t-11 -6.5t-6.5 -9t-2.5 -13t3.5 -16.5l124 -330l86 241q17 48 -1 91t-66 55v22h144q0 -42 37 -139
l102 -269l101 285q20 57 2.5 74.5t-76.5 26.5v22h207v-22q-29 -6 -39 -9.5t-20.5 -14t-18.5 -33.5l-166 -450h-33l-139 355l-130 -356h-33z" />
    <glyph glyph-name="x.sc" horiz-adv-x="626" 
d="M488 82q23 -33 45.5 -44t73.5 -19v-19h-263v19q21 4 31 7.5t17.5 10t4.5 17t-14 27.5l-99 148l-102 -145q-8 -11 -12.5 -19t-6.5 -14t0 -10.5t3.5 -7t9 -5t11.5 -3.5t15 -3t17 -3v-19h-202v19q6 1 19.5 3t17.5 2.5t14.5 2.5t13.5 4t11 5t12 7t10.5 10t12 13t12.5 17
l125 174l-124 185q-26 39 -46.5 50t-70.5 19v19h256v-19q-22 -5 -31.5 -8t-17 -10t-3.5 -19t18 -32l84 -126l92 127q18 25 17.5 38t-12 18t-36.5 10q-5 1 -7 1v19h196v-19q-50 -8 -70 -18.5t-48 -48.5l-113 -155z" />
    <glyph glyph-name="y.sc" horiz-adv-x="575" 
d="M378 530h184v-19q-36 -8 -49 -17t-34 -45l-143 -230v-118q0 -24 4.5 -38.5t20 -22.5t24.5 -10.5t39 -7.5v-22h-265v22q55 10 68 20q20 16 20 59v109l-151 239q-24 39 -35 46.5t-47 15.5v19h232v-19q-17 -5 -23 -6.5t-18 -7t-14.5 -11t-2 -15t8.5 -22.5l121 -197l119 197
q5 8 8 15t2.5 12.5t-1.5 9t-5.5 7t-8 5.5t-11.5 4t-12.5 3t-15 3t-15.5 3v19z" />
    <glyph glyph-name="yacute.sc" horiz-adv-x="575" 
d="M403 718q-42 -30 -117 -114l-18 14q35 97 69 145q17 0 38.5 -15t27.5 -30zM378 530h184v-19q-36 -8 -49 -17t-34 -45l-143 -230v-118q0 -24 4.5 -38.5t20 -22.5t24.5 -10.5t39 -7.5v-22h-265v22q55 10 68 20q20 16 20 59v109l-151 239q-24 39 -35 46.5t-47 15.5v19h232
v-19q-17 -5 -23 -6.5t-18 -7t-14.5 -11t-2 -15t8.5 -22.5l121 -197l119 197q5 8 8 15t2.5 12.5t-1.5 9t-5.5 7t-8 5.5t-11.5 4t-12.5 3t-15 3t-15.5 3v19z" />
    <glyph glyph-name="ycircumflex.sc" horiz-adv-x="575" 
d="M298 709l-124 -95l-12 9l136 153l136 -152l-13 -10zM378 530h184v-19q-36 -8 -49 -17t-34 -45l-143 -230v-118q0 -24 4.5 -38.5t20 -22.5t24.5 -10.5t39 -7.5v-22h-265v22q55 10 68 20q20 16 20 59v109l-151 239q-24 39 -35 46.5t-47 15.5v19h232v-19q-17 -5 -23 -6.5
t-18 -7t-14.5 -11t-2 -15t8.5 -22.5l121 -197l119 197q5 8 8 15t2.5 12.5t-1.5 9t-5.5 7t-8 5.5t-11.5 4t-12.5 3t-15 3t-15.5 3v19z" />
    <glyph glyph-name="ydieresis.sc" horiz-adv-x="575" 
d="M205 668q-19 0 -31.5 12t-12.5 31t12.5 31.5t31.5 12.5t31.5 -12.5t12.5 -31.5t-12.5 -31t-31.5 -12zM391 668q-19 0 -31 12t-12 31t12 31.5t31 12.5q20 0 32.5 -12.5t12.5 -31.5t-12.5 -31t-32.5 -12zM378 530h184v-19q-36 -8 -49 -17t-34 -45l-143 -230v-118
q0 -24 4.5 -38.5t20 -22.5t24.5 -10.5t39 -7.5v-22h-265v22q55 10 68 20q20 16 20 59v109l-151 239q-24 39 -35 46.5t-47 15.5v19h232v-19q-17 -5 -23 -6.5t-18 -7t-14.5 -11t-2 -15t8.5 -22.5l121 -197l119 197q5 8 8 15t2.5 12.5t-1.5 9t-5.5 7t-8 5.5t-11.5 4t-12.5 3
t-15 3t-15.5 3v19z" />
    <glyph glyph-name="ygrave.sc" horiz-adv-x="575" 
d="M304 604q-75 84 -117 114q6 15 27.5 30t38.5 15q34 -48 69 -145zM378 530h184v-19q-36 -8 -49 -17t-34 -45l-143 -230v-118q0 -24 4.5 -38.5t20 -22.5t24.5 -10.5t39 -7.5v-22h-265v22q55 10 68 20q20 16 20 59v109l-151 239q-24 39 -35 46.5t-47 15.5v19h232v-19
q-17 -5 -23 -6.5t-18 -7t-14.5 -11t-2 -15t8.5 -22.5l121 -197l119 197q5 8 8 15t2.5 12.5t-1.5 9t-5.5 7t-8 5.5t-11.5 4t-12.5 3t-15 3t-15.5 3v19z" />
    <glyph glyph-name="z.sc" horiz-adv-x="544" 
d="M40 0l-11 15l351 492l-172 -4q-72 -1 -100.5 -30.5t-33.5 -96.5h-22v160l56 -6h398l-360 -507l201 4q69 1 97 31t43 98h23q-19 -95 -19 -156h-451z" />
    <glyph glyph-name="zacute.sc" horiz-adv-x="544" 
d="M257 604l-18 14q35 97 69 145q17 0 38.5 -15t27.5 -30q-42 -30 -117 -114zM40 0l-11 15l351 492l-172 -4q-72 -1 -100.5 -30.5t-33.5 -96.5h-22v160l56 -6h398l-360 -507l201 4q69 1 97 31t43 98h23q-19 -95 -19 -156h-451z" />
    <glyph glyph-name="zcaron.sc" horiz-adv-x="544" 
d="M268 615l-136 153l12 9l124 -95l123 95l13 -10zM40 0l-11 15l351 492l-172 -4q-72 -1 -100.5 -30.5t-33.5 -96.5h-22v160l56 -6h398l-360 -507l201 4q69 1 97 31t43 98h23q-19 -95 -19 -156h-451z" />
    <glyph glyph-name="zdotaccent.sc" horiz-adv-x="544" 
d="M269 652q-20 0 -35 14t-15 34t15 34.5t35 14.5t35.5 -14.5t15.5 -34.5t-15 -34t-36 -14zM40 0l-11 15l351 492l-172 -4q-72 -1 -100.5 -30.5t-33.5 -96.5h-22v160l56 -6h398l-360 -507l201 4q69 1 97 31t43 98h23q-19 -95 -19 -156h-451z" />
    <glyph glyph-name="zero.lf" horiz-adv-x="608" 
d="M302 -9q-118 0 -185.5 91t-67.5 229q0 139 68.5 232.5t188.5 93.5q118 0 185.5 -91t67.5 -230q0 -138 -68.5 -231.5t-188.5 -93.5zM319 24q66 0 105 70t39 192q0 140 -48 229t-126 89q-66 0 -105 -70t-39 -193q0 -139 48.5 -228t125.5 -89z" />
    <glyph glyph-name="one.lf" horiz-adv-x="359" 
d="M44 0v19q23 2 32.5 3.5t25 5t21.5 8.5t11 14t5 22v464q0 24 -8.5 31t-32.5 1l-50 -13v19l152 72l20 -16v-558q0 -13 5 -22t11 -14t21.5 -8.5t25 -5t32.5 -3.5v-19h-271z" />
    <glyph glyph-name="two.lf" horiz-adv-x="552" 
d="M47 0l-8 20q21 19 73.5 64t75 65t63.5 58.5t60 62.5t42 56.5t32 61t9 57.5q0 54 -35 92.5t-100 38.5q-46 0 -94.5 -24.5t-78.5 -87.5l-26 14q26 76 91.5 117.5t140.5 41.5q87 0 143 -51.5t56 -129.5q0 -59 -40 -119t-87 -99t-122.5 -97t-108.5 -88h201q61 0 94.5 20
t61.5 80h23l-49 -170h-23l-2 17h-392z" />
    <glyph glyph-name="three.lf" horiz-adv-x="521" 
d="M191 -12q-38 0 -71 5.5t-59.5 21.5t-26.5 42q0 18 12 26t28 8q20 0 39.5 -19t44.5 -38t58 -19q60 0 117.5 48t57.5 119q0 65 -48.5 98t-115.5 33q-45 0 -100 -19l-10 25l79 34q83 35 119 62.5t36 71.5q0 38 -27.5 63.5t-80.5 25.5q-42 0 -89.5 -16.5t-81.5 -56.5l-19 15
q39 58 100.5 88.5t128.5 30.5q73 0 114.5 -35t40.5 -92q-1 -46 -33.5 -80.5t-95.5 -66.5q73 -5 123.5 -42.5t50.5 -110.5q0 -96 -83.5 -159t-207.5 -63z" />
    <glyph glyph-name="four.lf" horiz-adv-x="514" 
d="M465 170h-85v-98q0 -21 13.5 -32.5t26.5 -14t45 -6.5v-19h-251v19l28 4t22 4.5t20 8.5t10 14t5 22v98h-257l-13 18l333 452h18v-431h95zM76 209h223v304z" />
    <glyph glyph-name="five.lf" horiz-adv-x="501" 
d="M113 394q84 18 147 8.5t104 -41.5t61.5 -73t20.5 -85q0 -87 -73.5 -151t-180.5 -64q-33 0 -65.5 5.5t-60 22t-27.5 41.5q0 18 12 26t28 8t32.5 -12t28 -26t31.5 -26t44 -12q50 0 92.5 44t42.5 110q0 55 -29.5 100.5t-87.5 68t-143 -0.5l-20 19l99 274h170q49 0 70 4.5
t36 23.5h17l-31 -102h-256z" />
    <glyph glyph-name="six.lf" horiz-adv-x="552" 
d="M283 -12q-111 0 -173 77.5t-61 191.5q1 151 111.5 261.5t248.5 118.5l13 -23q-51 -5 -100 -31t-90.5 -71t-67 -116t-25.5 -156q0 -98 38.5 -160t105.5 -62q63 0 101 52.5t38 128.5q0 85 -54 131.5t-165 24.5v22q121 50 215.5 -2.5t94.5 -165.5q0 -94 -64.5 -157.5
t-165.5 -63.5z" />
    <glyph glyph-name="seven.lf" horiz-adv-x="497" 
d="M462 630l11 -15q-196 -306 -268 -615h-76q85 273 265 556h-217q-34 0 -49.5 -2.5t-34.5 -18.5t-36 -51h-18l50 163h18l2 -17h353z" />
    <glyph glyph-name="eight.lf" horiz-adv-x="547" 
d="M363 342q58 -22 96.5 -65t38.5 -104q0 -79 -64 -134t-163 -55q-97 0 -159.5 50.5t-62.5 127.5q0 52 31 96.5t89 73.5q-80 52 -80 138q0 66 49.5 113t134.5 47q81 0 128.5 -43.5t47.5 -103.5q0 -80 -86 -141zM274 601q-54 0 -79 -32t-25 -75q0 -35 20 -67t61 -46l70 -24
q62 50 62 122q0 47 -25.5 84.5t-83.5 37.5zM281 15q66 0 99 36t33 94q0 57 -29 85.5t-97 52.5l-66 24l-14 6q-86 -51 -86 -146q0 -66 41.5 -109t118.5 -43z" />
    <glyph glyph-name="nine.lf" horiz-adv-x="552" 
d="M269 637q111 0 173 -77.5t61 -191.5q-1 -151 -111.5 -261.5t-248.5 -118.5l-13 23q51 5 100 31t90.5 71t67 116t25.5 156q0 99 -38.5 160.5t-105.5 61.5q-63 0 -100.5 -52t-37.5 -128q0 -86 53.5 -132.5t164.5 -23.5v-22q-83 -31 -152 -20t-113.5 62.5t-44.5 125.5
q0 93 64.5 156.5t165.5 63.5z" />
    <glyph glyph-name="zero.tf" horiz-adv-x="598" 
d="M297 -9q-118 0 -185.5 91t-67.5 229q0 139 68.5 232.5t188.5 93.5q118 0 185.5 -91t67.5 -230q0 -138 -68.5 -231.5t-188.5 -93.5zM314 24q66 0 105 70t39 192q0 140 -48 229t-126 89q-66 0 -105 -70t-39 -193q0 -139 48.5 -228t125.5 -89z" />
    <glyph glyph-name="one.tf" horiz-adv-x="598" 
d="M144 0v19q25 2 36 3t27.5 3.5t23.5 6t15 8.5t10.5 13t2.5 19v464q0 24 -8.5 31t-32.5 1l-70 -13v19l172 72l20 -16v-558q0 -30 24 -39t91 -14v-19h-311z" />
    <glyph glyph-name="two.tf" horiz-adv-x="598" 
d="M63 0l-8 20q21 18 65.5 56t65.5 57t58 52.5t56 54t43.5 50.5t36.5 53t21 50t9 52q0 53 -34.5 92t-99.5 39q-28 0 -56 -7.5t-62.5 -34t-54.5 -70.5l-27 14q26 76 92 117.5t140 41.5q87 0 143 -51.5t56 -129.5q0 -48 -23 -93.5t-66 -87.5t-84.5 -75.5t-97.5 -76t-87 -70.5
h201q62 0 95 20t61 80h23l-48 -170h-24l-2 17h-392z" />
    <glyph glyph-name="three.tf" horiz-adv-x="598" 
d="M236 -12q-61 0 -108.5 16t-47.5 53q0 18 12 26t27 8q21 0 40.5 -19t44 -38t57.5 -19q61 0 118 48t57 119q0 65 -48.5 98t-114.5 33q-46 0 -101 -19l-9 25l79 34q83 35 119 62.5t36 71.5q0 39 -28 64t-81 25q-41 0 -89 -17t-81 -56l-19 15q38 58 99.5 88.5t128.5 30.5
q73 0 115 -35t40 -92q-1 -46 -33.5 -80.5t-95.5 -66.5q73 -5 124 -42.5t51 -110.5q0 -96 -83.5 -159t-208.5 -63z" />
    <glyph glyph-name="four.tf" horiz-adv-x="598" 
d="M497 170h-85v-98q0 -21 13.5 -32.5t26.5 -14t45 -6.5v-19h-252v19l28 4t22 4.5t20 8.5t10 14t5 22v98h-257l-13 18l333 452h19v-431h95zM107 209h223v304z" />
    <glyph glyph-name="five.tf" horiz-adv-x="598" 
d="M135 394q85 18 147.5 8.5t104 -41.5t61.5 -73t20 -85q0 -87 -73.5 -151t-180.5 -64q-33 0 -65.5 5.5t-60 22t-27.5 41.5q0 18 12.5 26t27.5 8q20 0 40 -19t43.5 -38t52.5 -19q51 0 93.5 44t42.5 110q0 55 -30 100.5t-88 68t-143 -0.5l-19 19l98 274h170q35 0 50 1
t30.5 7.5t25.5 19.5h18l-32 -102h-256z" />
    <glyph glyph-name="six.tf" horiz-adv-x="598" 
d="M301 -12q-111 0 -173.5 77.5t-61.5 191.5q1 151 111.5 261.5t248.5 118.5l14 -23q-51 -5 -100 -31t-90.5 -71t-67 -116t-25.5 -156q0 -99 38.5 -160.5t105.5 -61.5q63 0 100.5 52.5t37.5 128.5q0 85 -54 131.5t-165 24.5v22q121 50 216 -2.5t95 -165.5
q0 -94 -64.5 -157.5t-165.5 -63.5z" />
    <glyph glyph-name="seven.tf" horiz-adv-x="598" 
d="M509 630l11 -15q-196 -306 -268 -615h-76q85 273 265 556h-216q-34 0 -50 -2.5t-35 -18.5t-36 -51h-18l50 163h18l2 -17h353z" />
    <glyph glyph-name="eight.tf" horiz-adv-x="598" 
d="M388 342q58 -22 96.5 -65t38.5 -104q0 -79 -64 -134t-163 -55q-97 0 -159.5 50.5t-62.5 127.5q0 52 31 96.5t89 73.5q-80 52 -80 138q0 66 49.5 113t134.5 47q81 0 128.5 -43.5t47.5 -103.5q0 -80 -86 -141zM299 601q-54 0 -79 -32t-25 -75q0 -35 20 -67t61 -46l70 -24
q62 50 62 122q0 47 -25.5 84.5t-83.5 37.5zM306 15q66 0 99 36t33 94q0 57 -29 85.5t-97 52.5l-66 24l-14 6q-86 -51 -86 -146q0 -66 41.5 -109t118.5 -43z" />
    <glyph glyph-name="nine.tf" horiz-adv-x="598" 
d="M305 637q111 0 173.5 -77.5t61.5 -191.5q-1 -151 -111.5 -261.5t-248.5 -118.5l-14 23q51 5 100 31t90.5 71t67 116t25.5 156q0 99 -38.5 160.5t-105.5 61.5q-63 0 -100.5 -52t-37.5 -128q0 -86 54 -132.5t165 -23.5v-22q-84 -31 -153 -20t-113.5 62.5t-44.5 125.5
q0 93 64.5 156.5t165.5 63.5z" />
    <glyph glyph-name="zero.dnom" horiz-adv-x="294" 
d="M146 -10q-48 0 -77.5 36t-29.5 91q0 56 30 93t79 37q48 0 77.5 -36t29.5 -92t-30 -92.5t-79 -36.5zM153 6q47 0 47 101q0 56 -15.5 90t-43.5 34q-47 0 -47 -102q0 -55 15.5 -89t43.5 -34z" />
    <glyph glyph-name="one.dnom" horiz-adv-x="213" 
d="M44 0v10q22 2 30 6t8 16v165q0 11 -4 14.5t-12 1.5l-20 -5v11l77 33l8 -6v-214q0 -12 8 -16t30 -6v-10h-125z" />
    <glyph glyph-name="two.dnom" horiz-adv-x="276" 
d="M42 0l-3 11q5 4 20 17t21 18t19 17t19.5 19t16.5 18t15 19t10.5 17.5t8 18.5t2.5 18q0 20 -12 34t-35 14q-41 0 -66 -42l-11 7q12 31 38.5 48.5t58.5 17.5q35 0 58 -20t23 -50q0 -23 -17 -48t-35 -40t-45.5 -35.5t-32.5 -24.5h66q27 0 40.5 6.5t22.5 29.5h13l-19 -70
h-176z" />
    <glyph glyph-name="three.dnom" horiz-adv-x="263" 
d="M108 -10q-27 0 -48 7.5t-21 22.5t17 15q9 0 25.5 -15.5t33.5 -15.5q23 0 42 16.5t19 44.5q0 27 -18 40.5t-45 13.5q-17 0 -36 -7l-5 12l31 12q32 12 45.5 22.5t13.5 28.5q0 32 -41 32t-64 -27l-10 8q32 47 92 47q29 0 47.5 -14t18.5 -37q0 -33 -56 -58q31 -2 53 -17
t22 -45q0 -37 -34 -61.5t-82 -24.5z" />
    <glyph glyph-name="four.dnom" horiz-adv-x="267" 
d="M191 32q0 -12 7.5 -16t29.5 -6v-10h-124v10q22 2 29.5 6t7.5 16v34h-108l-4 20l116 160h46v-160h37l-4 -20h-33v-34zM49 86h92v127z" />
    <glyph glyph-name="five.dnom" horiz-adv-x="264" 
d="M83 153q82 5 112 -18t30 -54q0 -39 -34.5 -65t-82.5 -26q-25 0 -47 7.5t-22 22.5t17 15q10 0 26 -15.5t35 -15.5q23 0 41 16.5t18 43.5q0 63 -113 56l-7 8l39 112h67q39 0 48 12h9l-17 -49h-102z" />
    <glyph glyph-name="six.dnom" horiz-adv-x="292" 
d="M151 -10q-47 0 -75 30t-27 76q1 62 48.5 105t104.5 46l7 -13q-44 -4 -76.5 -41.5t-32.5 -102.5q0 -38 14 -61.5t39 -23.5q24 0 36.5 19.5t12.5 49.5q0 73 -76 68v13q46 14 86.5 -7.5t40.5 -67.5q0 -39 -29 -64.5t-73 -25.5z" />
    <glyph glyph-name="seven.dnom" horiz-adv-x="240" 
d="M211 246l5 -6q-80 -122 -108 -240h-33q29 95 105 213h-83q-14 0 -20.5 -1.5t-14.5 -8t-14 -19.5h-9l21 66l18 -4h133z" />
    <glyph glyph-name="eight.dnom" horiz-adv-x="297" 
d="M194 132q54 -23 54 -67q0 -33 -28.5 -54t-73.5 -21q-42 0 -69.5 19t-27.5 51q0 41 44 63q-28 22 -28 54q0 28 23.5 47.5t60.5 19.5q35 0 56.5 -18t21.5 -42q0 -29 -33 -52zM149 227q-22 0 -32.5 -10.5t-10.5 -25.5q0 -28 43 -43l26 -9q21 17 21 44q0 18 -11.5 31
t-35.5 13zM149 7q52 0 52 43q0 17 -10 26t-39 20l-27 10q-10 3 -15 7q-29 -19 -29 -50q0 -25 18 -40.5t50 -15.5z" />
    </font>
</defs>
</svg>
