<?xml version="1.0" standalone="no"?>
<!DOCTYPE svg PUBLIC "-//W3C//DTD SVG 1.1//EN" "http://www.w3.org/Graphics/SVG/1.1/DTD/svg11.dtd" >
<svg xmlns="http://www.w3.org/2000/svg" xmlns:xlink="http://www.w3.org/1999/xlink" version="1.1">
<metadata>
Created by FontForge 20170731 at Tue Jun  5 16:44:14 2018
 By Aleksey,,,
Copyright (c) 2018 by Connary Fagen. All rights reserved.
</metadata>
<defs>
<font id="AddingtonCF-ExtraBoldItalic" horiz-adv-x="575" >
  <font-face 
    font-family="Addington CF Extra Bold"
    font-weight="800"
    font-style="italic"
    font-stretch="normal"
    units-per-em="1000"
    panose-1="0 0 9 0 0 0 0 0 0 0"
    ascent="800"
    descent="-200"
    x-height="437"
    cap-height="630"
    bbox="-361 -387 1110 912"
    underline-thickness="50"
    underline-position="-200"
    slope="-18"
    unicode-range="U+0020-FB02"
  />
<missing-glyph horiz-adv-x="488" 
d="M400 800v-975h-309v975h309zM325 735h-161v-32h63v-37h-64v-32h162v32h-65v37h65v32zM260 609h-97v-101h162v33h-65v68zM227 576v-35h-32v35h32zM325 481h-162v-32h64v-36h-64v-32h97v68h65v32zM325 423h-32v-65h-130v-33h162v98zM325 304h-98v-55h33v23h33v-46h-98v78
h-32v-110h162v110zM325 135h-162v-110h162v110zM293 103v-46h-98v46h98zM325 2h-162v-32h68l-68 -46v-32h162v32h-100l68 46h32v32z" />
    <glyph glyph-name="fi" unicode="fi" horiz-adv-x="710" 
d="M748 618q8 -18 8 -35q0 -35 -27.5 -60.5t-63.5 -25.5t-63.5 25.5t-27.5 60.5q0 14 5 29q6 28 -18.5 41.5t-62.5 13.5q-128 0 -167 -145l-26 -92h108l-14 -50l-106 5l-84 -302q-34 -129 -110 -199t-162 -70q-48 0 -78 20.5t-30 55.5q0 26 16.5 43.5t41.5 17.5
q24 0 36 -18.5t11 -44.5q-1 -36 35 -36q22 0 42.5 29t41.5 109l108 401l-117 5l12 34h115q75 278 358 278q169 0 220 -90h-1zM678 352l-104 -234q-17 -39 -1 -36q25 5 82 74q3 3 5 6l24 -22q-110 -150 -208 -150q-43 0 -55.5 28t3.5 57l106 234q16 37 -1 34q-25 -4 -76 -63
l-13 -15l-23 22q105 150 203 150q44 0 59 -28t-1 -57z" />
    <glyph glyph-name="fl" unicode="fl" horiz-adv-x="664" 
d="M532 118q-14 -41 3 -37q25 6 78 77q3 3 5 6l25 -22q-108 -152 -215 -152q-76 0 -50 73l194 567v2q-1 1 -2.5 3t-3.5 5t-5 6t-7 6t-10.5 5.5t-13.5 5t-17 3.5t-21 1q-56 0 -100 -36t-64 -109l-25 -92h107l-14 -50l-105 5l-82 -302q-34 -129 -110 -199t-162 -70
q-51 0 -79.5 20t-28.5 55q0 26 16.5 44t41.5 18q24 0 36 -18.5t11 -44.5q-1 -36 35 -36q22 0 42.5 29t41.5 109l106 401l-119 5l12 34h117q32 116 113 197t196 81q72 0 147.5 -26.5t75.5 -51.5z" />
    <glyph glyph-name="f_f" unicode="ff" horiz-adv-x="750" 
d="M797 698q47 0 76.5 -22t29.5 -55q0 -25 -15.5 -42.5t-39.5 -17.5t-36 17t-12 40q0 15 -5 25t-14 13t-12.5 3.5t-9.5 0.5q-24 0 -36.5 -24t-37.5 -114l-26 -92h110l-14 -50l-109 3l-83 -300q-34 -129 -110 -199t-162 -70q-48 0 -78.5 20.5t-30.5 55.5q0 25 17 43t41 18
q25 0 37 -18.5t11 -44.5q-1 -36 35 -36q21 0 40.5 28.5t42.5 109.5l107 396l-218 6l-96 -346q-34 -129 -110 -199t-162 -70q-48 0 -78 21t-30 56q0 25 16.5 42.5t41.5 17.5q24 0 36 -18.5t11 -44.5q-1 -35 35 -35q22 0 41.5 28t42.5 109l118 439l1 1v2l-119 3l13 32h117
q39 111 110.5 171t149.5 60q47 0 77 -22t30 -55q0 -25 -16 -42.5t-40 -17.5q-23 0 -35.5 17t-12.5 40q0 15 -5 25t-13.5 13t-12.5 3.5t-9 0.5q-24 0 -37 -24t-38 -114l-15 -55h219q35 128 111 198t161 70z" />
    <glyph glyph-name="f_f_i" unicode="ffi" horiz-adv-x="1063" 
d="M1102 618q8 -18 8 -35q0 -35 -27.5 -60.5t-63.5 -25.5t-63.5 25.5t-27.5 60.5q0 15 5 28q5 28 -19.5 42t-61.5 14q-128 0 -167 -145l-26 -92h110l-14 -50l-109 3l-83 -300q-34 -129 -110 -199t-162 -70q-48 0 -78.5 20.5t-30.5 55.5q0 25 17 43t41 18q25 0 37 -18.5
t11 -44.5q-1 -36 35 -36q48 0 83 138l107 396l-218 6l-96 -346q-34 -129 -110 -199t-162 -70q-48 0 -78 21t-30 56q0 25 16.5 42.5t41.5 17.5q24 0 36 -18.5t11 -44.5q-1 -35 35 -35q22 0 41.5 28t42.5 109l118 439l1 1v2l-119 3l13 32h117q39 111 110.5 171t149.5 60
q47 0 77 -22t30 -55q0 -25 -16 -42.5t-40 -17.5q-23 0 -35.5 17t-12.5 40q0 15 -5 25t-13.5 13t-12.5 3.5t-9 0.5q-24 0 -37 -24t-38 -114l-15 -55h219q75 278 358 278q141 0 201 -66q11 -9 17 -23zM1031 352l-103 -234q-17 -39 -1 -36q25 5 82 74q3 3 5 6l23 -22
q-108 -150 -207 -150q-43 0 -55.5 28t3.5 57l106 234q16 37 -1 34q-25 -4 -76 -63l-13 -15l-23 22q105 150 203 150q44 0 58.5 -28t-1.5 -57z" />
    <glyph glyph-name=".notdef" horiz-adv-x="488" 
d="M400 800v-975h-309v975h309zM325 735h-161v-32h63v-37h-64v-32h162v32h-65v37h65v32zM260 609h-97v-101h162v33h-65v68zM227 576v-35h-32v35h32zM325 481h-162v-32h64v-36h-64v-32h97v68h65v32zM325 423h-32v-65h-130v-33h162v98zM325 304h-98v-55h33v23h33v-46h-98v78
h-32v-110h162v110zM325 135h-162v-110h162v110zM293 103v-46h-98v46h98zM325 2h-162v-32h68l-68 -46v-32h162v32h-100l68 46h32v32z" />
    <glyph glyph-name=".null" horiz-adv-x="0" 
 />
    <glyph glyph-name="nonmarkingreturn" horiz-adv-x="333" 
 />
    <glyph glyph-name="space" unicode=" " horiz-adv-x="174" 
 />
    <glyph glyph-name="exclam" unicode="!" horiz-adv-x="258" 
d="M91 208l69 374q13 71 80 71q43 0 61.5 -21.5t-0.5 -62.5l-170 -361h-40zM81 -10q-37 0 -63 26.5t-26 64.5q0 35 26 61t63 26q35 0 61 -26t26 -61q0 -38 -25.5 -64.5t-61.5 -26.5z" />
    <glyph glyph-name="quotedbl" unicode="&#x22;" horiz-adv-x="316" 
d="M116 388l17 182q4 60 60 60q33 0 44 -23t-8 -55l-92 -164h-21zM278 388l18 182q3 60 59 60q33 0 44.5 -23t-7.5 -55l-93 -164h-21z" />
    <glyph glyph-name="numbersign" unicode="#" horiz-adv-x="473" 
d="M506 406h-91l-65 -169h91l-24 -60h-90l-79 -207h-65l80 207h-94l-80 -207h-64l80 207h-90l24 60h89l65 169h-91l24 60h90l79 206h64l-79 -206h94l80 206h63l-79 -206h90zM286 237l65 169h-94l-65 -169h94z" />
    <glyph glyph-name="dollar" unicode="$" horiz-adv-x="503" 
d="M435 610q29 -5 54 -17.5t30.5 -16.5t22.5 -18l-35 -116h-25q13 111 -62 129l-75 -184q24 -16 35 -24t32 -26t31.5 -33.5t19.5 -39t9 -49.5q0 -84 -79.5 -139t-197.5 -57l-33 -81h-36l33 82q-106 8 -156 61l27 116h29q-8 -67 25 -102t91 -36l85 209l-3 2q-3 2 -21 15
t-23 16.5t-20.5 16.5t-21.5 20t-16.5 20.5t-14.5 25t-8 27t-4 31.5q0 80 67.5 126.5t175.5 46.5q20 0 28 -1l34 83h38zM281 483q0 -45 35 -75l68 167q-49 -1 -76 -26.5t-27 -65.5zM319 174q0 39 -32 71l-74 -183q47 9 76.5 40t29.5 72z" />
    <glyph glyph-name="percent" unicode="%" horiz-adv-x="720" 
d="M672 638l75 -8l-651 -630h-69l549 528q-28 -11 -57 -11q-46 0 -97 27q-6 -79 -75 -149.5t-147 -70.5q-43 0 -67 23.5t-24 63.5q0 82 73.5 153t154.5 71q53 0 74 -35q62 -46 104 -46q61 0 157 84zM207 362q51 0 114.5 75.5t63.5 128.5q0 29 -26 29q-50 0 -111 -78.5
t-61 -131.5q0 -23 20 -23zM594 309q42 0 64 -21t22 -58q0 -79 -71 -155.5t-152 -76.5q-45 0 -69 23t-24 64q0 78 74.5 151t155.5 73zM464 37q52 0 115 76.5t63 129.5q0 27 -28 27q-46 0 -109 -81t-63 -130q0 -10 6.5 -16t15.5 -6z" />
    <glyph glyph-name="ampersand" unicode="&#x26;" horiz-adv-x="649" 
d="M689 419q6 -55 -25.5 -90t-78.5 -35q-30 0 -70 23q1 -79 -33 -154t-98.5 -125t-143.5 -50q-94 0 -152 67t-58 159q0 78 45.5 144.5t111 96t123.5 13.5l35 78q19 53 15.5 68t-16.5 32t-13 34q0 15 11 27.5t35 12.5q37 0 47 -37t-17 -101l-214 -466q32 -7 64 -7
q62 0 108.5 21.5t70 56t33 74.5t3.5 81q-13 6 -28 6q-24 0 -47 -16.5t-25 -26.5h-22q-11 52 23 90t81 38q29 0 74.5 -28.5t70.5 -28.5q23 0 45 16.5t23 26.5h22zM75 250q0 -88 83 -123l110 248q-31 21 -65 19t-62.5 -18t-47 -50t-18.5 -76z" />
    <glyph glyph-name="quotesingle" unicode="'" horiz-adv-x="153" 
d="M116 388l17 182q4 60 60 60q33 0 44 -23t-8 -55l-92 -164h-21z" />
    <glyph glyph-name="parenleft" unicode="(" horiz-adv-x="316" 
d="M142 -153q-120 91 -120 273q0 189 115 371t290 266l42 -21q-145 -145 -237 -341.5t-92 -376.5q0 -87 28 -175z" />
    <glyph glyph-name="parenright" unicode=")" horiz-adv-x="318" 
d="M235 757q119 -92 119 -273q0 -189 -115 -371t-290 -266l-42 20q145 145 237 342t92 376q0 84 -27 175z" />
    <glyph glyph-name="asterisk" unicode="*" horiz-adv-x="365" 
d="M258 515l-25 65q-11 31 1.5 46.5t34.5 15.5t34 -15.5t0 -46.5l-25 -65q-3 -7 -10 -7t-10 7zM233 488l-68 11q-31 5 -39 26t4 36q12 18 31 20.5t40 -21.5l44 -55q3 -6 -0.5 -12t-11.5 -5zM305 488q-9 -1 -13 4.5t1 12.5l42 55q22 24 41.5 21.5t29.5 -20.5
q13 -15 5.5 -35.5t-39.5 -26.5zM132 403q-13 15 -5.5 35.5t38.5 26.5l68 11q9 1 13 -4.5t-1 -12.5l-43 -55q-22 -25 -40.5 -22.5t-29.5 21.5zM406 403q-11 -19 -29.5 -21.5t-41.5 22.5l-42 55q-5 7 -1 12.5t13 4.5l67 -11q32 -6 39.5 -26.5t-5.5 -35.5zM269 322
q-22 0 -34.5 16t-1.5 46l27 65q3 7 9 7t9 -7l27 -65q11 -29 -2 -45.5t-34 -16.5z" />
    <glyph glyph-name="plus" unicode="+" horiz-adv-x="412" 
d="M407 307l-38 -111h-116l-42 -131h-105l42 131h-117l38 111h115l42 129h105l-42 -129h118z" />
    <glyph glyph-name="comma" unicode="," horiz-adv-x="235" 
d="M-61 -161l-12 37q49 15 72.5 33t37.5 54q4 7 3.5 21t-6.5 18q-52 33 -52 75q0 35 26 63t64 28q37 0 61 -25.5t24 -70.5q0 -77 -61.5 -149.5t-156.5 -83.5z" />
    <glyph glyph-name="hyphen" unicode="-" horiz-adv-x="446" 
d="M47 218v85h352v-85h-352z" />
    <glyph glyph-name="period" unicode="." horiz-adv-x="248" 
d="M81 -10q-37 0 -63 26.5t-26 64.5q0 35 26 61t63 26q35 0 61 -26t26 -61q0 -38 -25.5 -64.5t-61.5 -26.5z" />
    <glyph glyph-name="slash" unicode="/" horiz-adv-x="377" 
d="M-71 -57l546 816l77 -44l-546 -816z" />
    <glyph glyph-name="zero" unicode="0" horiz-adv-x="499" 
d="M184 -9q-78 0 -121.5 40.5t-43.5 111.5q0 119 86.5 207.5t209.5 88.5q78 0 121.5 -41t43.5 -113q0 -118 -87 -206t-209 -88zM181 30q42 0 82 57.5t62 130t22 126.5q0 19 -1.5 29t-8.5 18.5t-22 8.5q-39 0 -77.5 -55t-61.5 -129t-23 -132q0 -26 5 -40t23 -14z" />
    <glyph glyph-name="one" unicode="1" horiz-adv-x="389" 
d="M227 89q-10 -33 -0.5 -42.5t58.5 -16.5l-4 -30h-314l7 31q54 7 79 23t35 49l74 224q13 35 3 51t-58 22l9 30h310l-7 -31q-53 -6 -80 -27.5t-39 -58.5z" />
    <glyph glyph-name="two" unicode="2" horiz-adv-x="409" 
d="M-28 0l-3 31q13 10 49.5 35t58 41t55 41.5t54.5 45.5t42.5 44t31.5 45.5t10 41.5q0 41 -38 41q-64 0 -128 -68l-22 31q79 110 195 110q53 0 85.5 -28t32.5 -73q0 -32 -18 -64t-44.5 -57t-61.5 -48.5t-64.5 -40t-58.5 -31.5q-11 -5 -16 -8l72 6q79 -3 131 71l29 -10
l-94 -167h-29l2 11h-271z" />
    <glyph glyph-name="three" unicode="3" horiz-adv-x="442" 
d="M64 -190q-56 0 -97.5 23.5t-41.5 63.5q0 39 34 39q18 0 30 -13t17.5 -29t19 -29t34.5 -13q54 0 108 67.5t54 130.5t-75 63q-12 0 -24.5 -2t-20.5 -4t-21 -6t-18 -6l-3 37l64 33q11 6 38 19t40 19.5t33.5 20t30.5 25.5t18 29t8 37q0 50 -48 50q-73 0 -145 -77l-19 40
q90 111 215 111q54 0 84 -26.5t30 -78.5q0 -34 -15 -61.5t-46 -49t-57.5 -34.5t-70.5 -30q52 -2 93 -31.5t41 -85.5q0 -89 -94.5 -160.5t-195.5 -71.5z" />
    <glyph glyph-name="four" unicode="4" horiz-adv-x="502" 
d="M479 445l-129 -396h86l-28 -59h-77l-25 -76q-9 -33 -2.5 -41.5t42.5 -16.5l-1 -31h-282l2 33q43 8 65 23t32 47l21 62h-224l-11 28l465 427h66zM34 49h168l73 217z" />
    <glyph glyph-name="five" unicode="5" horiz-adv-x="469" 
d="M429 316h-244l-63 -97q129 14 187.5 -31.5t58.5 -121.5q0 -105 -96.5 -180.5t-207.5 -75.5q-56 0 -98 22t-42 60q0 23 8 33.5t29 10.5q20 0 33 -13t20 -29t22 -29t37 -13q57 0 101 56t44 116t-45 89.5t-124 11.5l-18 20l180 285h149q100 0 134 30h30z" />
    <glyph glyph-name="six" unicode="6" horiz-adv-x="531" 
d="M212 -12q-84 0 -128.5 46.5t-44.5 127.5q0 113 70.5 221.5t182 177.5t229.5 76l22 -41q-94 -9 -185 -95t-144 -197.5t-53 -202.5q0 -40 10.5 -57.5t36.5 -17.5q44 0 86 46.5t65.5 109t23.5 114.5q0 39 -15 57t-56 18q-16 0 -29 -2l13 25q4 11 25.5 19.5t48.5 8.5
q60 0 103.5 -41t43.5 -117q0 -112 -91 -194t-214 -82z" />
    <glyph glyph-name="seven" unicode="7" horiz-adv-x="482" 
d="M524 430l9 -23q-259 -267 -440 -603h-98q132 233 391 512h-164q-52 0 -84.5 -17t-71.5 -69h-34l129 217h29l-4 -17h338z" />
    <glyph glyph-name="eight" unicode="8" horiz-adv-x="525" 
d="M412 343q71 -49 71 -130q0 -94 -85.5 -158t-199.5 -64q-79 0 -129.5 37t-50.5 106q0 60 41.5 110.5t114.5 84.5q-27 44 -27 90q0 94 73 156t166 62q65 0 104.5 -36.5t39.5 -89.5q0 -50 -32.5 -94t-85.5 -74zM381 596q-49 0 -81 -39t-32 -81q0 -27 18.5 -51t47.5 -39
l29 -15q38 27 60 67t22 84q0 74 -64 74zM197 33q55 0 99.5 39t44.5 97q0 22 -12 38.5t-43 34.5l-52 29q-20 14 -29 23q-96 -60 -96 -160q0 -47 24.5 -74t63.5 -27z" />
    <glyph glyph-name="nine" unicode="9" horiz-adv-x="528" 
d="M318 442q84 0 128.5 -47t44.5 -128q0 -113 -70 -221t-182 -177t-230 -76l-22 41q94 9 185 95t144 197.5t53 202.5q0 40 -10.5 57.5t-36.5 17.5q-45 0 -86.5 -47t-65 -109.5t-23.5 -114.5q0 -38 15 -56t56 -18q20 0 29 2l-14 -25q-3 -12 -24.5 -20.5t-48.5 -8.5
q-60 0 -103.5 41.5t-43.5 117.5q0 112 91 194t214 82z" />
    <glyph glyph-name="colon" unicode=":" horiz-adv-x="259" 
d="M182 294q-37 0 -63 26.5t-26 64.5q0 36 26 61.5t63 25.5q35 0 60.5 -26t25.5 -61q0 -38 -25.5 -64.5t-60.5 -26.5zM81 -10q-37 0 -63 26.5t-26 64.5q0 35 26 61t63 26q35 0 61 -26t26 -61q0 -38 -25.5 -64.5t-61.5 -26.5z" />
    <glyph glyph-name="semicolon" unicode=";" horiz-adv-x="235" 
d="M172 293q-37 0 -63 26.5t-26 64.5q0 36 26 61.5t63 25.5q35 0 60.5 -26t25.5 -61q0 -38 -25.5 -64.5t-60.5 -26.5zM-61 -161l-12 37q49 15 72.5 33t37.5 54q4 7 3.5 21t-6.5 18q-52 33 -52 75q0 35 26 63t64 28q37 0 61 -25.5t24 -70.5q0 -77 -61.5 -149.5t-156.5 -83.5z
" />
    <glyph glyph-name="less" unicode="&#x3c;" horiz-adv-x="453" 
d="M476 471l-36 -149q-83 -37 -112.5 -48t-128.5 -42q19 -6 33 -11t24.5 -8.5t21 -8.5t15.5 -7t16.5 -9t16 -9.5t20.5 -12.5l24 -15l-30 -133q-113 85 -290 170l25 111q251 96 401 172z" />
    <glyph glyph-name="equal" unicode="=" horiz-adv-x="408" 
d="M59 286l37 111h333l-37 -111h-333zM1 106l37 111h333l-37 -111h-333z" />
    <glyph glyph-name="greater" unicode="&#x3e;" horiz-adv-x="450" 
d="M-5 18l36 150q82 36 111.5 47t129.5 43q-66 21 -87 31t-68 40q-10 6 -16 10l30 132q113 -85 290 -170l-25 -111q-251 -96 -401 -172z" />
    <glyph glyph-name="question" unicode="?" horiz-adv-x="465" 
d="M212 194q-3 50 16 92t45.5 69t58.5 73t49 99q8 24 8.5 40.5t-3 25.5t-14.5 13t-20 5t-27 1q-13 0 -24 -7.5t-15.5 -13.5t-14.5 -22q-36 -54 -58.5 -72.5t-42.5 -18.5q-22 0 -33 13.5t-11 33.5q0 33 29.5 60t73.5 42t88 23t79 8q79 0 119.5 -47.5t15.5 -125.5
q-15 -45 -48.5 -81.5t-72 -60t-75.5 -45t-65 -47.5t-35 -57h-23zM190 -8q-37 0 -63 26t-26 64q0 36 26 61.5t63 25.5q35 0 60.5 -26t25.5 -61q0 -37 -25.5 -63.5t-60.5 -26.5z" />
    <glyph glyph-name="at" unicode="@" horiz-adv-x="783" 
d="M686 439l-128 -245q-36 -59 -14 -60q80 0 148 90t68 182q0 86 -54.5 141.5t-146.5 55.5q-106 0 -207.5 -66t-164 -169t-62.5 -205q0 -86 52 -139.5t150 -53.5q33 0 70.5 10.5t64 22t79.5 36.5l34 -28q-123 -79 -251 -79q-126 0 -201.5 71.5t-75.5 185.5t70.5 218
t184.5 166t236 62q123 0 190 -63t67 -163q0 -110 -75.5 -208t-169.5 -98q-41 0 -66 15.5t-26 44.5q-65 -57 -133 -57q-46 0 -75.5 25t-29.5 72q0 88 80 168.5t173 80.5q80 0 87 -73l32 60h94zM330 142q46 0 96 41.5t83 98.5l13 25q20 40 20 73t-40 33q-66 0 -132 -85
t-66 -157q0 -17 5.5 -23t20.5 -6z" />
    <glyph glyph-name="A" unicode="A" horiz-adv-x="626" 
d="M518 83q1 -14 2.5 -21.5t8 -12.5t9 -6.5t18.5 -4.5t23 -4l-10 -34h-299l11 38q24 2 39.5 6t28.5 16.5t12 33.5l-3 79h-201l-60 -85q-6 -8 -9 -14.5t-4.5 -11t1 -8t4 -5.5t7.5 -4.5t9 -3.5t12 -3.5t13 -3.5l-11 -34h-184l14 35q37 4 54 16t45 54l390 532h46zM185 213h171
l-9 229z" />
    <glyph glyph-name="B" unicode="B" horiz-adv-x="648" 
d="M672 495q0 -60 -49.5 -99.5t-138.5 -70.5q126 -34 126 -138q0 -50 -30.5 -87.5t-83 -58.5t-113.5 -31t-131 -10h-304l11 35q45 9 69 25.5t38 62.5l132 398q4 11 6 20t1.5 15.5t0 11.5t-4 9t-6 6t-9.5 4.5t-10.5 3.5t-14 3.5t-15.5 3.5l9 32h288q102 0 165.5 -33
t63.5 -102zM346 350q71 0 119.5 57t48.5 124q0 29 -13.5 40.5t-52.5 11.5q-46 0 -65 -15t-29 -45l-57 -173h49zM258 47q80 0 133.5 57.5t53.5 127.5q0 37 -25 56t-91 19h-46l-64 -193q-12 -39 -4 -53t43 -14z" />
    <glyph glyph-name="C" unicode="C" horiz-adv-x="597" 
d="M296 -13q-116 0 -176.5 65t-60.5 170q0 106 59 204t158.5 158.5t211.5 60.5q59 0 102.5 -18t63.5 -43l-32 -131h-41q6 76 -16 112t-80 36q-77 0 -140 -65t-94 -152.5t-31 -168.5q0 -77 34.5 -121.5t99.5 -44.5q40 0 83.5 15.5t75.5 45.5l23 -48q-38 -34 -102 -54.5
t-138 -20.5z" />
    <glyph glyph-name="D" unicode="D" horiz-adv-x="683" 
d="M442 630q107 0 183.5 -56.5t76.5 -168.5q0 -97 -62.5 -190.5t-168.5 -154t-222 -60.5h-301l11 35q45 9 69 25.5t38 62.5l132 398q4 11 6 20t1.5 15.5t0 11.5t-4 9t-6 6t-9.5 4.5t-10.5 3.5t-14 3.5t-15.5 3.5l9 32h287zM268 44q69 0 137.5 72.5t108 167t39.5 167.5
q0 135 -119 135h-59l-150 -457q-16 -52 -7.5 -68.5t50.5 -16.5z" />
    <glyph glyph-name="E" unicode="E" horiz-adv-x="580" 
d="M153 630h490l-42 -152h-31q16 59 6.5 82t-56.5 23h-57q-51 0 -76 -18t-44 -69l-50 -156h39q76 0 109 22t54 73h28l-71 -223h-27q10 35 6 53.5t-24 24.5t-76 6h-52l-60 -185q-9 -25 -11.5 -37t6 -18.5t20 -7.5t42.5 -1h38q52 0 93.5 29t87.5 95h41l-94 -171h-494l11 35
q45 9 69 25.5t38 62.5l131 398q4 11 6 19.5t1.5 15.5t0 12t-4 9t-6 6t-9.5 4.5t-11 3.5t-14.5 3.5t-15.5 3.5z" />
    <glyph glyph-name="F" unicode="F" horiz-adv-x="552" 
d="M158 630h493l-42 -152h-31q16 59 6.5 82t-58.5 23h-63q-52 0 -77.5 -18t-43.5 -69l-51 -156h56q76 0 109 22t54 73h27l-70 -223h-28q10 35 6.5 53.5t-23.5 24.5t-76 6h-69l-68 -210q-6 -20 -7 -30.5t3.5 -15t10 -5t19 -1.5t23.5 -3l-5 -31h-297l3 35q29 6 45.5 12.5
t34.5 25t27 50.5l138 421q6 20 7.5 30.5t-3.5 15t-11 5.5t-19 1.5t-23 3.5z" />
    <glyph glyph-name="G" unicode="G" horiz-adv-x="654" 
d="M305 -13q-118 0 -182 61t-66 164q-3 107 56 207.5t159.5 163t211.5 62.5q119 0 172 -61q-5 -46 -28 -131h-41q8 88 -17.5 118.5t-86.5 30.5q-81 0 -148 -76.5t-100 -180.5t-30 -200q2 -59 22.5 -85t63.5 -26q97 0 135 122l5 18q10 33 11.5 51t-7 28.5t-23 14.5t-44.5 6
l10 34h284l-12 -37q-66 -9 -85 -79l-14 -47q-24 -84 -15 -116q-108 -42 -231 -42z" />
    <glyph glyph-name="H" unicode="H" horiz-adv-x="730" 
d="M533 630h317l-12 -33q-31 -7 -47 -14t-34 -25.5t-28 -50.5l-130 -398q-8 -25 -9.5 -39t8.5 -22t17.5 -10t32.5 -7l-10 -31h-307l8 32q42 8 67 26.5t40 64.5l55 167h-223l-59 -181q-8 -25 -9.5 -39t8 -22t17.5 -10t33 -7l-11 -31h-307l9 32q41 8 66 26.5t40 64.5l131 398
q4 11 6 19.5t1.5 15.5t0.5 12t-4 9t-5.5 6t-9.5 4.5t-11 3.5t-15 3.5t-16 3.5l9 32h317l-12 -33q-30 -7 -46 -13.5t-34.5 -25.5t-28.5 -51l-56 -172h223l61 186q3 10 5 18t3.5 14.5t0 11.5t-1.5 8.5t-5 6.5t-6.5 5t-9 4t-10.5 2.5t-13.5 3t-14.5 3.5z" />
    <glyph glyph-name="I" unicode="I" horiz-adv-x="350" 
d="M-50 0l9 32q41 8 66 26.5t40 64.5l131 398q4 11 6 19.5t1.5 15.5t0.5 12t-4 9t-5.5 6t-9.5 4.5t-11 3.5t-15 3.5t-16 3.5l9 32h317l-12 -33q-30 -7 -46 -13.5t-34.5 -25.5t-28.5 -51l-129 -398q-8 -25 -9.5 -39t8 -22t17.5 -10t33 -7l-11 -31h-307z" />
    <glyph glyph-name="J" unicode="J" horiz-adv-x="325" 
d="M-141 -181l14 51q64 14 95 49t56 110l160 492q3 10 5 18t3 14.5t-1 12t-2 9t-5 6.5t-6 4.5t-8.5 4t-9.5 3t-12 2.5t-12 3l8 32h308l-10 -33q-45 -8 -67.5 -25.5t-38.5 -64.5l-166 -510q-16 -48 -47.5 -82t-77.5 -52.5t-87 -27.5t-99 -16z" />
    <glyph glyph-name="K" unicode="K" horiz-adv-x="704" 
d="M749 598q-34 0 -64 -10t-46 -21t-42 -31l-183 -143l141 -291q21 -45 39.5 -57t60.5 -14l-11 -31h-230q0 1 4 20t3 21t-4 20l-112 247l-29 -23l-57 -176q-8 -25 -9.5 -39t8 -22t17.5 -10t33 -7l-11 -31h-307l9 32q41 8 66 26.5t40 64.5l131 398q4 11 6 19.5t1.5 15.5
t0.5 12t-4 9t-5.5 6t-9.5 4.5t-11 3.5t-15 3.5t-16 3.5l9 32h317l-12 -33q-30 -7 -46 -13.5t-34.5 -25.5t-28.5 -51l-49 -152l249 197q31 24 25.5 35t-46.5 9l12 34h220z" />
    <glyph glyph-name="L" unicode="L" horiz-adv-x="554" 
d="M-52 0l11 35q45 9 69 25.5t38 62.5l132 398q4 11 6 20t1.5 15.5t0 11.5t-4 9t-6 6t-9.5 4.5t-10.5 3.5t-14 3.5t-15.5 3.5l9 32h312l-12 -33q-49 -10 -69.5 -26t-36.5 -64l-130 -393q-13 -40 -3 -52t60 -12h41q55 0 96.5 27t87.5 98l35 -9l-88 -166h-500z" />
    <glyph glyph-name="M" unicode="M" horiz-adv-x="847" 
d="M718 109q-6 -20 -6 -33t1 -20t12 -12t15.5 -6t23.5 -5l-4 -33h-305l3 33q44 9 69 26.5t39 63.5l123 420l-370 -543h-27l-30 508l-148 -399q-10 -25 -11.5 -39t8.5 -21.5t17.5 -9.5t32.5 -6l-5 -33h-202l4 33q44 9 69 26.5t42 63.5l143 398q4 11 6.5 20t2.5 15.5t0.5 11.5
t-4 9t-5.5 6t-9 4.5t-10 3.5t-13 3t-14 3l12 33h231q-2 -7 -1.5 -42t0.5 -45l23 -304l213 314q6 9 24 36.5t25 40.5h257l-12 -33q-30 -7 -46 -14t-32.5 -25.5t-25.5 -50.5z" />
    <glyph glyph-name="N" unicode="N" horiz-adv-x="648" 
d="M564 630h209l-10 -32q-41 -6 -67 -25t-41 -66l-165 -507h-68l-173 534l-138 -425q-8 -25 -9 -39.5t9.5 -22t20.5 -10t35 -6.5l-10 -31h-206l8 32q41 6 67.5 25t41.5 66l131 398q4 11 6 20t2 15.5t-0.5 11.5t-4 9t-5.5 6t-8.5 4.5t-10 3.5t-13 3.5t-13.5 3.5l6 32h230
l124 -402l100 293q7 20 7.5 33t-1.5 21t-13.5 12.5t-20 6.5t-29.5 5z" />
    <glyph glyph-name="O" unicode="O" horiz-adv-x="679" 
d="M277 -13q-100 0 -162 59t-62 157q0 106 57.5 208.5t154.5 168t203 65.5q101 0 162.5 -58t61.5 -157q0 -80 -34.5 -160.5t-90.5 -142.5t-133 -101t-157 -39zM281 31q70 0 131.5 85t93 192.5t31.5 192.5q0 50 -17 75t-56 25q-52 0 -101.5 -50.5t-82 -124t-52.5 -152.5
t-20 -139q0 -53 17 -78.5t56 -25.5z" />
    <glyph glyph-name="P" unicode="P" horiz-adv-x="618" 
d="M-52 0l11 35q45 9 69 25.5t38 62.5l132 398q4 11 6 20t1.5 15.5t0 11.5t-4 9t-6 6t-9.5 4.5t-10.5 3.5t-14 3.5t-15.5 3.5l9 32h284q227 0 227 -154q0 -111 -102 -173.5t-251 -62.5q-17 0 -12 22q8 20 22 23q79 0 138 75.5t59 152.5q0 70 -79 70q-44 0 -60.5 -14.5
t-26.5 -45.5l-133 -414q-8 -25 -10 -39t7 -22t18 -10t35 -7l-5 -31h-318z" />
    <glyph glyph-name="Q" unicode="Q" horiz-adv-x="685" 
d="M523 -99q35 0 67 16l13 -32q-87 -60 -163 -60q-64 0 -109 47l-101 105q-12 12 -32 21q-67 20 -106 74.5t-39 130.5q0 106 57.5 208.5t154.5 168t203 65.5q101 0 162.5 -58t61.5 -157q0 -141 -95 -267t-230 -163q29 -8 48 -28l21 -25q39 -46 87 -46zM464 601
q-52 0 -101.5 -50.5t-82 -124t-52.5 -152.5t-20 -139q0 -53 17 -78.5t56 -25.5q70 0 131.5 85t93 192.5t31.5 192.5q0 50 -17 75t-56 25z" />
    <glyph glyph-name="R" unicode="R" horiz-adv-x="670" 
d="M504 105q7 -34 36 -58t71 -12l1 -38q-32 -13 -92 -13q-135 0 -156 101l-18 90q-11 58 -27 75t-48 17l-52 -158q-8 -25 -10 -39t8 -22t18.5 -10t35.5 -7l-5 -31h-318l11 35q45 9 69 25.5t38 62.5l132 398q4 11 6 20t1.5 15.5t0 11.5t-4 9t-6 6t-9.5 4.5t-10.5 3.5t-14 3.5
t-15.5 3.5l9 32h279q221 0 221 -143q0 -88 -63 -142t-170 -71q31 -10 45 -33t22 -60zM443 583q-69 0 -88 -57l-70 -214h17q91 0 147.5 62t56.5 145q0 64 -63 64z" />
    <glyph glyph-name="S" unicode="S" horiz-adv-x="504" 
d="M186 -11q-128 0 -187 69l27 127h29q-8 -75 26 -113.5t93 -38.5q60 0 100.5 36.5t40.5 89.5q0 57 -62 107q-3 2 -19 14t-20.5 16t-18.5 15.5t-19.5 18.5t-16 19t-15 22.5t-10.5 24t-8 28.5t-2 31q0 87 67.5 138.5t175.5 51.5q31 0 58.5 -5.5t42 -10.5t33.5 -17.5t21 -14.5
t16 -15l-35 -128h-25q16 147 -94 147q-51 0 -79 -28.5t-28 -72.5q0 -56 48 -94q4 -3 24.5 -18t28.5 -22t25.5 -22.5t26 -28t19 -30.5t15 -38t4.5 -42q0 -93 -81.5 -154.5t-200.5 -61.5z" />
    <glyph glyph-name="T" unicode="T" horiz-adv-x="597" 
d="M642 630l57 10l-50 -184h-30q18 68 1 99t-84 31h-37l-155 -477q-8 -24 -8 -38t7 -21t19.5 -11t30.5 -7q5 -1 8 -1l-11 -31h-314l11 32q44 8 67.5 26t38.5 65l150 463h-24q-68 0 -110.5 -35.5t-73.5 -102.5h-32l72 192l50 -10h417z" />
    <glyph glyph-name="U" unicode="U" horiz-adv-x="662" 
d="M285 -11q-50 0 -89 12.5t-69.5 44.5t-33 85t20.5 134l82 256q4 11 6 19.5t1.5 15.5t0.5 12t-4 9t-5.5 6t-9.5 4.5t-11 3.5t-15 3.5t-16 3.5l9 32h317l-12 -33q-30 -7 -46 -13.5t-34 -25.5t-28 -51l-92 -283q-62 -187 63 -187q25 0 50 7.5t55.5 27t58.5 61.5t47 102
l91 286q5 14 7 24.5t0 18t-3.5 12t-9 8.5t-11 5t-15.5 4.5t-16 4.5l9 32h209l-12 -33q-49 -9 -75.5 -26.5t-41.5 -63.5l-88 -273q-44 -137 -118 -191t-172 -54z" />
    <glyph glyph-name="V" unicode="V" horiz-adv-x="641" 
d="M587 630h183l-14 -35q-37 -4 -53.5 -16t-44.5 -54l-391 -532h-45l-34 554q-1 14 -2.5 21.5t-8 12.5t-9.5 6.5t-18 4t-22 4.5l9 34h298l-11 -38q-17 -3 -23.5 -4t-20.5 -5.5t-20 -9.5t-11.5 -14.5t-4.5 -22.5l14 -349l251 355q7 9 10.5 16t2.5 12t-1.5 8t-7.5 6t-9.5 4
t-14 4t-14.5 4z" />
    <glyph glyph-name="W" unicode="W" horiz-adv-x="959" 
d="M195 -8l-2 548v13t-2.5 11t-3.5 8.5t-6.5 6.5t-7 4.5t-9.5 3.5t-10 3t-12.5 3t-13.5 3l9 34h300l-11 -38q-39 -1 -58.5 -11t-19.5 -41l-3 -333l172 267q37 56 32 84t-55 38l11 34h223q-11 -35 -15 -144v-273l189 298q30 55 24.5 65.5t-50.5 17.5q-7 1 -10 2l11 34h209
l-11 -38q-39 -5 -64 -20t-54 -59l-339 -521h-57l-5 460l-304 -460h-57z" />
    <glyph glyph-name="X" unicode="X" horiz-adv-x="711" 
d="M575 630h234l-13 -35q-45 -5 -71 -18.5t-72 -53.5l-189 -173l78 -253q3 -10 7 -18t6.5 -13.5t10 -10t10.5 -6.5t14.5 -5t14.5 -3.5t19 -3t20 -3.5l-8 -34h-342l11 35q50 5 69 17.5t10 49.5l-47 159l-179 -173q-21 -21 -22.5 -31.5t10 -14.5t45.5 -8l-8 -34h-236l12 35
q51 5 79 18t71 51l215 200l-67 223q-6 20 -13.5 32.5t-23 19.5t-25 9.5t-37.5 7.5l8 34h319l-11 -38q-45 -10 -55 -20q-16 -15 -7 -51l40 -129l155 146q17 16 21.5 26.5t-3.5 17t-22.5 9.5t-40.5 5z" />
    <glyph glyph-name="Y" unicode="Y" horiz-adv-x="615" 
d="M567 630h197l-13 -38q-41 -8 -59 -18t-50 -46l-227 -251l-54 -165q-8 -25 -8.5 -39.5t7.5 -22t19 -11t31 -7.5q5 -1 7 -1l-10 -31h-312l11 32q42 9 65.5 27t38.5 66l46 141l-67 267q-9 39 -17.5 47.5t-50.5 15.5l11 34h316l-11 -38q-7 -1 -19 -3t-19 -3t-17 -4t-14 -6.5
t-10 -10t-4.5 -15.5t2.5 -22l50 -202l185 211q17 18 22 29.5t-4 17.5t-18.5 8t-32.5 4z" />
    <glyph glyph-name="Z" unicode="Z" 
d="M-32 0l-6 15l524 579l-142 -4q-125 -3 -173 -144h-34l64 190l59 -6h434l-540 -594l184 16q64 4 103.5 38.5t72.5 103.5h39q-64 -127 -82 -194h-503z" />
    <glyph glyph-name="bracketleft" unicode="[" horiz-adv-x="295" 
d="M161 -166l-238 20l285 885l253 20l-11 -30l-114 -35l-258 -795l91 -35z" />
    <glyph glyph-name="backslash" unicode="\" horiz-adv-x="484" 
d="M398 -57l-88 -41l-211 816l86 41z" />
    <glyph glyph-name="bracketright" unicode="]" horiz-adv-x="290" 
d="M193 759l238 -20l-285 -885l-253 -20l11 30l114 35l258 795l-91 35z" />
    <glyph glyph-name="asciicircum" unicode="^" horiz-adv-x="446" 
d="M108 362l-17 23l186 261l186 -263l-17 -21l-169 177z" />
    <glyph glyph-name="underscore" unicode="_" horiz-adv-x="656" 
d="M37 -81l-1 61h583l2 -61h-584z" />
    <glyph glyph-name="grave" unicode="`" horiz-adv-x="192" 
d="M252 497q-46 47 -131 101q11 32 41.5 55.5t61.5 23.5q53 -75 69 -156z" />
    <glyph glyph-name="a" unicode="a" horiz-adv-x="527" 
d="M480 164l21 -22q-105 -152 -205 -152q-43 0 -56 27t0 58l30 86q-145 -171 -207 -171q-30 0 -51 26t-21 75q0 56 32 117.5t84.5 112.5t128 84.5t153.5 33.5q8 0 23 -1.5t40.5 -3.5t44.5 -4l-106 -312q-14 -41 3 -37q24 5 86 83zM147 104q26 0 146 124l50 146
q-34 21 -59 21q-34 0 -72 -47t-61.5 -108.5t-23.5 -106.5q0 -29 20 -29z" />
    <glyph glyph-name="b" unicode="b" horiz-adv-x="514" 
d="M404 439q46 0 79 -33.5t33 -96.5q0 -76 -50.5 -150.5t-129.5 -121t-159 -46.5q-82 0 -115.5 43.5t-13.5 96.5l139 401q16 38 1 56t-74 18l14 42l220 23l10 -15l-97 -293q68 76 143 76zM201 26q37 0 78 58.5t66.5 132.5t25.5 123q0 52 -26 52q-20 0 -60 -55t-81 -151v2
l-26 -78q-24 -84 23 -84z" />
    <glyph glyph-name="c" unicode="c" horiz-adv-x="387" 
d="M288 439q55 0 83.5 -33t28.5 -76q0 -31 -14 -49t-39 -18q-60 0 -48 97q3 27 -2 35t-24 8q-50 0 -90 -67t-40 -137q0 -51 25 -78.5t56 -27.5q23 0 52 13t51 43l19 -28q-33 -58 -92 -94.5t-111 -36.5q-57 0 -98 39t-41 106q0 107 92 205.5t192 98.5z" />
    <glyph glyph-name="d" unicode="d" horiz-adv-x="520" 
d="M388 118q-13 -41 4 -37q24 6 80 80l2 3l25 -22q-108 -152 -215 -152q-76 0 -50 73l32 93q-39 -46 -68 -77t-68.5 -60t-65.5 -29q-29 0 -50.5 26.5t-21.5 74.5q0 73 52.5 155t134.5 137.5t160 55.5q15 0 24 -1l32 94q17 38 3 56t-74 18l14 42l216 23l10 -15zM148 102
q27 0 140 119l53 153q-33 18 -56 18q-51 0 -103.5 -93.5t-52.5 -165.5q0 -31 19 -31z" />
    <glyph glyph-name="e" unicode="e" horiz-adv-x="382" 
d="M404 358q0 -18 -4.5 -33.5t-20.5 -35t-42.5 -36t-75 -33.5t-113.5 -31q-1 -7 -1 -21q0 -75 68 -75q56 0 100 51l20 -26q-37 -62 -92 -94.5t-107 -32.5q-57 0 -95 40t-38 105q0 70 48 141.5t119.5 116.5t138.5 45q95 0 95 -81zM257 390q-35 0 -63.5 -50.5t-40.5 -114.5
q45 10 75 27.5t42 37.5t15.5 32.5t3.5 23.5q0 44 -32 44z" />
    <glyph glyph-name="f" unicode="f" horiz-adv-x="396" 
d="M443 698q47 0 77 -22t30 -55q0 -25 -16 -42.5t-40 -17.5q-23 0 -35.5 17t-12.5 40q0 15 -5 25t-13.5 13t-12.5 3.5t-9 0.5q-24 0 -37 -24t-38 -114l-26 -92h110l-17 -50l-105 5l-84 -302q-34 -129 -110 -199t-162 -70q-48 0 -78 20.5t-30 55.5q0 26 16.5 43.5t41.5 17.5
q24 0 36 -18.5t11 -44.5q-1 -36 35 -36q22 0 41.5 28.5t42.5 109.5l108 402l-118 6l12 32h116q35 128 111 198t161 70z" />
    <glyph glyph-name="g" unicode="g" horiz-adv-x="469" 
d="M515 418l-21 -90l-92 30q5 -20 5 -37q0 -74 -65.5 -122.5t-151.5 -48.5q-33 0 -60 9q-18 -6 -18 -16q0 -3 0.5 -4l2.5 -5t8.5 -8t16.5 -8l85 -33q80 -32 110.5 -54t30.5 -61q0 -53 -46 -91t-108.5 -54.5t-127.5 -16.5q-92 0 -130.5 32.5t-36.5 75.5q0 42 134 103
q-36 16 -51 32t-15 41q0 26 33.5 48t76.5 36q-41 32 -41 84q0 73 67 125.5t151 52.5q44 0 75 -16q8 -3 26.5 -4t36 -1t51.5 0.5t54 0.5zM192 180q39 0 71.5 70t32.5 124q0 34 -23 34q-39 0 -71.5 -64.5t-32.5 -124.5q0 -39 23 -39zM256 -85q0 13 -12 21.5t-54 25.5l-93 38
q-36 -24 -60 -50.5t-25 -43.5q3 -60 102 -60q62 0 102 21t40 48z" />
    <glyph glyph-name="h" unicode="h" horiz-adv-x="535" 
d="M433 439q47 0 82 -26t32 -78q-3 -54 -49 -136t-111 -145t-114 -63q-27 0 -53 15t-26 43q0 19 15 34t37 15q17 0 23 -18t7 -36.5t6 -18.5q33 0 68 111t39 188q2 34 -1.5 42.5t-16.5 8.5q-56 0 -119.5 -107t-116.5 -268h-133l185 532q16 38 1 56t-74 18l14 42l218 23
l10 -15l-75 -241l-106 -203l5 1q78 121 138.5 173.5t114.5 52.5z" />
    <glyph glyph-name="i" unicode="i" horiz-adv-x="317" 
d="M273 497q-37 0 -64 25.5t-27 60.5q0 36 27 61t64 25q36 0 63 -25t27 -61q0 -35 -27 -60.5t-63 -25.5zM267 162l24 -22q-108 -150 -207 -150q-44 0 -56.5 28t4.5 57l105 234q16 37 -2 34q-24 -5 -74 -62l-13 -16l-23 22q105 150 203 150q44 0 58.5 -28t-1.5 -57l-104 -234
q-17 -39 0 -36q24 5 79 71z" />
    <glyph glyph-name="j" unicode="j" horiz-adv-x="295" 
d="M284 497q-36 0 -63.5 25.5t-27.5 60.5q0 36 27.5 61t63.5 25t63.5 -25t27.5 -61q0 -35 -27.5 -60.5t-63.5 -25.5zM239 435q43 0 57.5 -28.5t-0.5 -66.5l-93 -269q-81 -246 -250 -246q-54 0 -82 25t-28 63q0 29 17 49t45 20q59 0 42 -88q-6 -32 23 -32q26 0 38.5 22
t34.5 94q5 14 7 22l98 307q13 40 -8 32q-29 -11 -80 -76l-23 22q104 150 202 150z" />
    <glyph glyph-name="k" unicode="k" horiz-adv-x="545" 
d="M0 0l187 532q16 38 1 56t-74 18l14 42l218 23l10 -15l-223 -656h-133zM564 398q-11 -1 -21 -2.5t-17.5 -3t-17.5 -6t-15 -6.5t-16 -9t-15 -10t-18 -12.5t-19 -13.5l-58 -43l56 -177q13 -40 28.5 -44.5t46.5 21.5l10 -26q-37 -36 -76.5 -56t-64.5 -20q-50 0 -72 74
l-54 191l146 107q13 11 17.5 17.5t-1 10.5t-14.5 5.5t-27 2.5l8 32h203z" />
    <glyph glyph-name="l" unicode="l" horiz-adv-x="310" 
d="M178 118q-13 -45 7 -36q27 11 79 82l25 -22q-108 -152 -215 -152q-76 0 -50 73l161 469q17 38 3 56t-74 18l15 42l216 23l10 -15z" />
    <glyph glyph-name="m" unicode="m" horiz-adv-x="840" 
d="M788 164l26 -22q-107 -152 -214 -152q-41 0 -54.5 20t-1.5 53l83 193q35 86 22 93l-8 1q-26 0 -104.5 -112.5t-129.5 -237.5h-125l84 240q13 37 19 55t9.5 32t1.5 18.5t-8 4.5q-26 0 -104.5 -112.5t-129.5 -237.5h-125l108 309q15 43 -4 38q-26 -7 -85 -82l-23 22
q105 150 203 150q40 0 52 -21t-3 -52l-77 -186h13q76 141 136 200t117 59q22 0 36 -7t18 -21.5t4 -30.5t-7 -39.5t-14 -42t-18 -45.5l-32 -73h13q76 142 136 200.5t119 58.5q43 0 59.5 -27t10.5 -66t-28 -89l-63 -137q-19 -40 -1 -37q24 5 71 61q10 11 18 22z" />
    <glyph glyph-name="n" unicode="n" horiz-adv-x="587" 
d="M535 164l26 -22q-107 -152 -214 -152q-41 0 -54.5 20t-1.5 53l83 193q35 86 22 93l-8 1q-26 0 -104.5 -112.5t-129.5 -237.5h-125l108 309q15 43 -4 38q-26 -7 -85 -82l-23 22q105 150 203 150q40 0 52 -21t-3 -52l-77 -186h13q76 142 136 200.5t119 58.5q42 0 59 -27
t11 -66.5t-28 -88.5l-63 -137q-19 -40 -1 -37q24 5 71 61q10 11 18 22z" />
    <glyph glyph-name="o" unicode="o" horiz-adv-x="456" 
d="M141 -10q-64 0 -103 32t-39 101q0 74 42 147t115.5 121t154.5 48q144 0 144 -132q0 -117 -95.5 -217t-218.5 -100zM176 20q38 0 72.5 66t52 141.5t17.5 121.5q0 29 -9 44.5t-23 15.5q-34 0 -71 -58.5t-59 -134t-22 -128.5q0 -68 42 -68z" />
    <glyph glyph-name="p" unicode="p" horiz-adv-x="496" 
d="M144 -9l-22 -65q-5 -15 -5 -29q0 -19 12 -27.5t43 -12.5l-9 -32h-279l11 32q39 10 60.5 24t33.5 47l138 404q-25 -16 -77 -54l-15 35q60 55 114 83l52 153l138 13l-42 -123h14q184 0 184 -149q0 -103 -99.5 -193.5t-251.5 -105.5zM365 281q0 57 -22 78.5t-65 23.5
l-120 -353q97 20 152 94t55 157z" />
    <glyph glyph-name="q" unicode="q" horiz-adv-x="478" 
d="M324 -74q-11 -35 0 -48.5t52 -20.5l-10 -32h-279l11 32q40 10 62 24t32 47l82 237q-146 -175 -210 -175q-29 0 -50.5 26.5t-21.5 74.5q0 73 52.5 155t134.5 137.5t160 55.5q39 0 78 -9h80zM148 102q27 0 148 127l49 142q-34 21 -60 21q-51 0 -103.5 -93.5t-52.5 -165.5
q0 -31 19 -31z" />
    <glyph glyph-name="r" unicode="r" horiz-adv-x="465" 
d="M451 437q50 0 50 -55q0 -41 -29 -82t-65 -41q-29 0 -36.5 11.5t0.5 25.5t10 25.5t-9 11.5q-35 0 -89 -88.5t-128 -246.5q-63 -3 -125 0l108 311q12 37 0 37q-14 0 -39.5 -23.5t-50.5 -57.5l-23 22q105 150 213 150q36 0 43.5 -21t-5.5 -52l-76 -188h13q83 142 139 201.5
t99 59.5z" />
    <glyph glyph-name="s" unicode="s" horiz-adv-x="337" 
d="M339 373q0 -53 -94 -143q39 -50 39 -92q0 -64 -67 -106t-139 -42q-49 0 -77.5 23t-28.5 53q0 27 30 56l37 -7q2 -31 26.5 -58t53.5 -27q38 0 38 50q0 24 -16.5 52t-35.5 49.5t-35.5 53.5t-16.5 64q0 66 60 103t127 37q38 0 68.5 -15.5t30.5 -50.5zM226 400
q-19 0 -32.5 -13t-13.5 -38q0 -19 9.5 -39.5t16.5 -29.5t27 -35q33 50 33 95q0 27 -10.5 43.5t-29.5 16.5z" />
    <glyph glyph-name="t" unicode="t" horiz-adv-x="345" 
d="M282 386l-107 -303q-6 -17 6 -13q26 8 105 97l29 -20q-116 -156 -213 -156q-36 0 -54 31.5t-8 62.5l109 308l-94 5l12 32h95l41 117l141 15l-47 -132h103l-16 -50z" />
    <glyph glyph-name="u" unicode="u" horiz-adv-x="589" 
d="M46 264l-21 22q106 151 209 151q41 0 55.5 -22t-1.5 -59l-77 -184q-38 -87 -18 -94q3 -1 7 -1q15 0 55.5 47.5t92.5 134t87 175.5h126l-109 -316q-15 -42 3 -38q24 6 77 75l6 8l25 -22q-104 -151 -215 -151q-76 0 -46 73l79 188l-10 -1q-79 -146 -136 -203t-115 -57
q-43 0 -60 26t-11.5 64t26.5 87l62 141q19 42 1 38q-26 -5 -81 -68q-5 -7 -11 -14z" />
    <glyph glyph-name="v" unicode="v" horiz-adv-x="479" 
d="M128 -10q-43 0 -71 31t-7 87l78 211q11 31 -5 24q-22 -11 -75 -78l-23 22q105 150 199 150q30 0 46 -15.5t4 -50.5l-85 -257q-5 -14 -7 -21t-4 -19.5t3.5 -18t17.5 -5.5q36 0 84.5 46.5t83 109t34.5 105.5q0 34 -14.5 45.5t-45.5 -3.5l-16 26q61 47 125 58q70 12 70 -43
q0 -63 -69.5 -160t-164 -170.5t-158.5 -73.5z" />
    <glyph glyph-name="w" unicode="w" horiz-adv-x="765" 
d="M611 379q60 47 124 58q70 13 70 -43q0 -63 -69 -160t-163.5 -170.5t-158.5 -73.5q-42 0 -70 30t-9 85q-125 -115 -207 -115q-43 0 -71 31t-7 87l78 211q11 31 -5 24q-22 -11 -75 -78l-23 22q105 150 199 150q30 0 46 -15.5t4 -50.5l-85 -257q-5 -14 -7 -21t-4 -19.5
t3.5 -18t17.5 -5.5q44 0 104 67t87 138l1 1l23 63q13 36 -11 20q-24 -17 -70 -74l-22 22q104 150 198 150q31 0 46.5 -15.5t3.5 -50.5l-85 -257q-5 -13 -7 -21t-3.5 -19.5t4 -17.5t17.5 -6q55 0 128.5 96.5t73.5 164.5q0 34 -15 45.5t-46 -3.5z" />
    <glyph glyph-name="x" unicode="x" horiz-adv-x="485" 
d="M415 259q-29 0 -36.5 11.5t0.5 25.5t10 25.5t-9 11.5q-29 0 -81 -75l43 -147q5 -16 10.5 -21.5t12.5 -1.5t14.5 13t18.5 25l3 4.5l3 4.5t3.5 5t3.5 4.5l4 5l4 5l4 5t4 5.5l23 -22q-56 -85 -89 -117.5t-78 -32.5q-7 0 -12.5 1t-9.5 1.5t-8 3.5t-6.5 4.5t-5.5 6.5t-4 7
t-3.5 9t-3.5 9.5t-3.5 11.5t-3.5 12l-23 80q-100 -146 -168 -146q-50 0 -50 55q0 41 29 82t65 41q29 0 36.5 -11.5t-0.5 -25.5t-10 -25.5t9 -11.5q27 0 80 74l-43 148q-11 34 -30 17q-4 -4 -44 -57q-6 -7 -11 -14l-23 22q56 85 89 117.5t78 32.5q16 0 25.5 -3t16.5 -15.5
t8.5 -17.5t8.5 -30l24 -82q101 148 169 148q50 0 50 -55q0 -41 -29 -82t-65 -41z" />
    <glyph glyph-name="y" unicode="y" horiz-adv-x="479" 
d="M321 379q60 47 124 58q70 13 70 -43q0 -48 -70.5 -145.5t-166 -192t-201 -166t-168.5 -71.5q-30 0 -50.5 17.5t-20.5 49.5q0 28 15.5 44t44.5 16t59.5 -26.5t54.5 -26.5q35 0 106 55l6 371q-1 37 -21 18q-8 -7 -59 -72l-23 22q54 83 89.5 116.5t80.5 33.5q32 0 44.5 -16
t11.5 -50l-7 -313q68 71 112.5 140t44.5 113q0 34 -15 45.5t-45 -3.5z" />
    <glyph glyph-name="z" unicode="z" horiz-adv-x="385" 
d="M240 104q60 0 79 66h33l-61 -178q-47 -5 -128 13.5t-113 18.5q-48 0 -83 -24l-20 26l336 280q-25 -1 -70 9.5t-68 10.5q-60 0 -79 -66h-34l62 178q47 5 128 -13.5t113 -18.5q48 0 83 24l19 -26l-335 -280q25 1 70 -9.5t68 -10.5z" />
    <glyph glyph-name="braceleft" unicode="{" horiz-adv-x="327" 
d="M181 -159q-57 13 -90.5 35t-42.5 52.5t-6.5 58.5t14.5 67l53 155q6 20 -5.5 42t-38.5 35l-5 28q36 13 71 41.5t41 48.5l48 155q13 40 25.5 64.5t38 52t69.5 46.5t109 32l11 -35q-39 -17 -63 -58t-51 -124l-42 -130q-13 -39 -48 -69.5t-74 -39.5l-18 -12q34 -9 54 -47.5
t7 -76.5l-43 -130l-10 -30t-9 -27.5t-7 -23.5t-5.5 -21.5t-3 -17.5t0 -16t4.5 -13t8 -11.5t13 -8.5z" />
    <glyph glyph-name="bar" unicode="|" horiz-adv-x="317" 
d="M132 -175v821h66v-821h-66z" />
    <glyph glyph-name="braceright" unicode="}" horiz-adv-x="324" 
d="M198 754q57 -13 90.5 -35t42 -52.5t6 -58.5t-14.5 -67l-53 -155q-5 -20 6.5 -42t38.5 -35l5 -28q-36 -13 -71 -41.5t-42 -48.5l-48 -155q-13 -40 -25.5 -64.5t-38 -52t-69 -46.5t-108.5 -32l-11 35q39 17 63 58.5t51 123.5l42 130q13 39 47.5 69.5t73.5 39.5l18 12
q-34 9 -53.5 47.5t-6.5 76.5l43 130q31 98 33 115q4 38 -24 54z" />
    <glyph glyph-name="asciitilde" unicode="~" horiz-adv-x="468" 
d="M300 162q-28 0 -49 12t-32 26t-29.5 26t-42.5 12q-25 0 -55.5 -24t-33.5 -39l-17 20q12 62 52.5 95t87.5 33q29 0 50.5 -12t33 -26t29.5 -26t40 -12q26 0 56 23.5t36 38.5l16 -19q-11 -62 -52 -95t-90 -33z" />
    <glyph glyph-name="exclamdown" unicode="&#xa1;" horiz-adv-x="258" 
d="M182 455q37 0 63 -26.5t26 -64.5q0 -36 -26 -61.5t-63 -25.5q-35 0 -60.5 26t-25.5 61q0 38 25.5 64.5t60.5 26.5zM173 237l-69 -374q-13 -71 -80 -71q-43 0 -61.5 21.5t0.5 62.5l170 361h40z" />
    <glyph glyph-name="cent" unicode="&#xa2;" horiz-adv-x="387" 
d="M352 422q48 -30 48 -92q0 -31 -14 -49t-39 -18q-49 0 -50 63l-122 -213q23 -20 49 -20q23 0 52 13t51 43l19 -28q-33 -58 -92 -94.5t-111 -36.5q-16 0 -36 5l-32 -56h-54l43 75q-60 41 -60 121q0 107 92 205.5t192 98.5q13 0 19 -1l47 81h54zM143 199q0 -21 5 -39
l139 242q-4 1 -14 1q-50 0 -90 -67t-40 -137z" />
    <glyph glyph-name="sterling" unicode="&#xa3;" horiz-adv-x="581" 
d="M498 637q52 0 83 -23.5t29 -74.5q-4 -25 -40 -39t-72 -6q-1 6 -2 20.5t-2 22t-4 18t-7 16t-12 10t-19 4.5q-26 0 -52.5 -26.5t-45.5 -87.5l-45 -138h129l-43 -79h-117q-42 -80 -94 -107q-4 -3 3 -3q31 0 55.5 -18.5t36.5 -40t27 -40t30 -18.5q25 0 47.5 26t22.5 56
q0 14 -4 25l99 58q20 -17 20 -55q0 -77 -65 -121t-147 -44q-41 0 -72 14.5t-46 31.5t-34 31.5t-38 14.5q-43 0 -111 -75l-35 54q73 60 105 100t60 111h-86l43 79h70l20 60q27 81 80.5 138t112.5 81.5t120 24.5z" />
    <glyph glyph-name="currency" unicode="&#xa4;" horiz-adv-x="719" 
d="M572 228q0 -61 -33 -111l84 -83l-68 -68l-85 83q-49 -30 -108 -30q-56 0 -107 30l-83 -83l-69 68l83 82q-33 50 -33 112q0 59 32 110l-82 80l69 69l82 -82q48 31 108 31t110 -31l83 82l68 -69l-82 -82q31 -48 31 -108zM250 228q0 -48 32.5 -83.5t80.5 -35.5q47 0 80.5 36
t33.5 83t-33.5 82t-80.5 35q-48 0 -80.5 -35t-32.5 -82z" />
    <glyph glyph-name="yen" unicode="&#xa5;" horiz-adv-x="615" 
d="M567 630h197l-13 -38q-41 -8 -59 -18t-50 -46l-186 -206h96l-18 -58h-123l-14 -44h120l-19 -59h-121l-16 -49q-8 -25 -8.5 -39.5t7.5 -22t19 -11t31 -7.5q5 -1 7 -1l-10 -31h-312l11 32q42 9 65.5 27t38.5 66l12 36h-139l18 59h140l14 44h-137l18 58h106l-53 211
q-9 39 -17.5 47.5t-50.5 15.5l11 34h316l-11 -38q-7 -1 -19 -3t-19 -3t-17 -4t-14 -6.5t-10 -10t-4.5 -15.5t2.5 -22l50 -202l185 211q17 18 22 29.5t-4 17.5t-18.5 8t-32.5 4z" />
    <glyph glyph-name="brokenbar" unicode="&#xa6;" horiz-adv-x="317" 
d="M132 315v331h66v-331h-66zM132 -175v331h66v-331h-66z" />
    <glyph glyph-name="section" unicode="&#xa7;" horiz-adv-x="523" 
d="M353 445q159 -58 159 -172q0 -62 -39.5 -108t-106.5 -70q37 -40 37 -96q0 -84 -69 -131.5t-168 -47.5q-94 0 -157 57l20 99h28q-5 -118 79 -118q46 0 83.5 27t37.5 69q0 20 -11.5 32.5t-50.5 32.5q-64 20 -110.5 62.5t-46.5 111.5q0 62 39 107.5t105 68.5q-33 40 -33 90
q0 88 65.5 137.5t164.5 49.5q87 0 155 -58l-23 -91h-28q5 109 -86 109q-101 0 -101 -91q0 -24 10 -36.5t47 -33.5zM194 242q0 -31 13.5 -46.5t54.5 -38.5q16 -5 35 -14q59 44 59 97q0 21 -14 34t-55 32q-29 10 -51 22q-42 -30 -42 -86z" />
    <glyph glyph-name="dieresis" unicode="&#xa8;" horiz-adv-x="389" 
d="M209 544q-31 0 -54 23t-23 54q0 29 23 51.5t54 22.5q30 0 52.5 -22.5t22.5 -51.5q0 -31 -22.5 -54t-52.5 -23zM446 544q-32 0 -54.5 23t-22.5 54q0 29 23 51.5t54 22.5q30 0 52.5 -22.5t22.5 -51.5q0 -31 -22.5 -54t-52.5 -23z" />
    <glyph glyph-name="copyright" unicode="&#xa9;" horiz-adv-x="687" 
d="M377 25q-121 0 -206.5 85.5t-85.5 206.5q0 120 85.5 205.5t206.5 85.5q120 0 205.5 -85.5t85.5 -205.5q0 -121 -85.5 -206.5t-205.5 -85.5zM377 64q104 0 176.5 74t72.5 179q0 103 -73 177.5t-176 74.5q-104 0 -175.5 -74.5t-71.5 -177.5q0 -104 71.5 -178.5t175.5 -74.5
zM389 149q-81 0 -129.5 47t-48.5 116q0 75 53.5 124t132.5 49q65 0 103 -24l4 -69h-24q-15 64 -90 64q-45 0 -65 -34.5t-20 -85.5q0 -65 34 -108t93 -43q50 0 72 23l13 -14q-36 -45 -128 -45z" />
    <glyph glyph-name="ordfeminine" unicode="&#xaa;" horiz-adv-x="382" 
d="M415 460l15 -16q-70 -98 -133 -98q-29 0 -37.5 17.5t1.5 37.5l20 59q-95 -114 -136 -114q-19 0 -33 19.5t-12 53.5q5 74 73 145.5t143 71.5q22 0 53 -6h58l-69 -200q-10 -30 4 -24q19 8 53 54zM201 420q16 0 93 77l32 93q-26 17 -43 17q-32 0 -64.5 -59.5t-32.5 -102.5
q1 -25 15 -25zM34 178l29 92h249l-29 -92h-249z" />
    <glyph glyph-name="guillemotleft" unicode="&#xab;" horiz-adv-x="401" 
d="M43 227l183 146l13 -16l-110 -130l23 -130l-25 -16zM207 227l183 146l12 -16l-110 -130l24 -130l-25 -16z" />
    <glyph glyph-name="logicalnot" unicode="&#xac;" horiz-adv-x="528" 
d="M540 397l-82 -254h-124l43 143h-308l37 111h434z" />
    <glyph glyph-name="uni00AD" unicode="&#xad;" horiz-adv-x="446" 
d="M47 218v85h352v-85h-352z" />
    <glyph glyph-name="registered" unicode="&#xae;" horiz-adv-x="687" 
d="M377 25q-121 0 -206.5 85.5t-85.5 206.5q0 120 85.5 205.5t206.5 85.5q120 0 205.5 -85.5t85.5 -205.5q0 -121 -85.5 -206.5t-205.5 -85.5zM377 64q104 0 176.5 74t72.5 179q0 103 -73 177.5t-176 74.5q-104 0 -175.5 -74.5t-71.5 -177.5q0 -104 71.5 -178.5t175.5 -74.5
zM524 162q-73 0 -93 37l-25 44q-19 37 -39 47v22q47 0 62 17.5t15 49.5q0 30 -11.5 46.5t-45.5 16.5q-20 0 -27 -4.5t-7 -16.5v-203q0 -16 6 -24t11 -10t23 -6v-15h-163v15q29 7 35 16q5 8 5 24v194q0 22 -9 29t-31 11v15h154q146 0 146 -87q0 -35 -26 -56t-64 -29
q28 -5 64 -65l7 -12q1 -1 4.5 -7.5t6 -10t6.5 -8.5t9 -8t11 -4v-15q-10 -3 -24 -3z" />
    <glyph glyph-name="macron" unicode="&#xaf;" horiz-adv-x="270" 
d="M114 581l15 56h280l-15 -56h-280z" />
    <glyph glyph-name="degree" unicode="&#xb0;" horiz-adv-x="375" 
d="M279 375q-61 0 -100.5 35.5t-39.5 95.5q0 62 41.5 98t105.5 36q61 0 100.5 -35.5t39.5 -95.5q0 -62 -41 -98t-106 -36zM287 400q31 0 43 23t12 67q0 125 -64 125q-55 0 -55 -90q0 -125 64 -125z" />
    <glyph glyph-name="plusminus" unicode="&#xb1;" horiz-adv-x="451" 
d="M322 408h118l-38 -111h-116l-42 -131h-105l42 131h-117l38 111h115l42 129h105zM3 -25l37 111h333l-37 -111h-333z" />
    <glyph glyph-name="uni00B2" unicode="&#xb2;" horiz-adv-x="243" 
d="M98 393l-7 18q6 5 42 29.5t52.5 37.5t42 34t37 38t11.5 30t-10 23.5t-26 10.5q-28 0 -68 -52l-11 26q38 57 92 57q29 0 46.5 -17t17.5 -46q0 -25 -18 -50t-36.5 -39.5t-56.5 -39t-50 -33.5l50 7q46 0 76 45l14 -9l-40 -70h-158z" />
    <glyph glyph-name="uni00B3" unicode="&#xb3;" horiz-adv-x="220" 
d="M143 384q-21 0 -37 6t-16 18q0 10 6.5 15.5t14.5 5.5t17.5 -15.5t25.5 -15.5q29 0 53.5 25.5t24.5 54.5q0 35 -42 35q-16 0 -35 -7l-1 12l32 12q35 13 53.5 26.5t18.5 35.5q0 21 -29 21q-37 0 -66 -27l-6 8q44 47 98 47q46 0 46 -37q0 -42 -73 -72q52 -4 52 -45
q0 -39 -44 -71t-93 -32z" />
    <glyph glyph-name="acute" unicode="&#xb4;" horiz-adv-x="143" 
d="M139 497l-41 24q16 81 69 156q31 0 61.5 -23.5t41.5 -55.5q-85 -54 -131 -101z" />
    <glyph glyph-name="paragraph" unicode="&#xb6;" horiz-adv-x="749" 
d="M436 630h421l-1 -33q-49 -9 -77 -26.5t-43 -63.5l-167 -513q-30 -94 -96 -131.5t-162 -37.5h-87l15 41l219 683q8 23 3.5 29t-29.5 6q-77 0 -136.5 -80t-59.5 -162q0 -33 15.5 -50t53.5 -17q11 0 17 -11.5t4.5 -22.5t-6.5 -11q-110 0 -171 41.5t-61 126.5
q0 117 95.5 174.5t252.5 57.5zM600 549q11 32 9 38t-21 6q-56 0 -79 -67l-212 -657q47 8 77 41.5t52 102.5z" />
    <glyph glyph-name="periodcentered" unicode="&#xb7;" horiz-adv-x="261" 
d="M154 210q-37 0 -63 26.5t-26 64.5q0 36 26 61.5t63 25.5q35 0 60.5 -26t25.5 -61q0 -38 -25.5 -64.5t-60.5 -26.5z" />
    <glyph glyph-name="cedilla" unicode="&#xb8;" horiz-adv-x="213" 
d="M-80 -212l5 31q87 0 87 43q0 40 -117 40l50 98h56l-17 -36q43 0 81.5 -23t38.5 -65q0 -88 -184 -88z" />
    <glyph glyph-name="uni00B9" unicode="&#xb9;" horiz-adv-x="183" 
d="M93 398l3 11q39 5 52 32l45 142q1 5 4 12q2 13 -4 14l-25 -3l4 11l77 33l6 -6l-71 -216q-4 -10 1 -13t21 -5q5 -1 8 -1l-3 -11h-118z" />
    <glyph glyph-name="ordmasculine" unicode="&#xba;" horiz-adv-x="327" 
d="M201 345q-90 0 -90 90q0 79 55.5 139.5t130.5 60.5q88 0 88 -89q0 -80 -55.5 -140.5t-128.5 -60.5zM207 365q22 0 41.5 29t31 67.5t18 72t6.5 47.5q0 32 -13 32q-36 0 -68.5 -80t-32.5 -131q0 -37 17 -37zM41 178l29 92h249l-29 -92h-249z" />
    <glyph glyph-name="guillemotright" unicode="&#xbb;" horiz-adv-x="403" 
d="M191 208l-183 -146l-13 15l110 131l-23 130l25 15zM355 208l-184 -146l-12 15l110 131l-24 130l26 15z" />
    <glyph glyph-name="onequarter" unicode="&#xbc;" horiz-adv-x="474" 
d="M214 409l-3 -11h-118l3 11q39 5 52 32l45 142q1 5 4 12q2 13 -4 14l-25 -3l4 11l77 33l6 -6l-71 -216q-4 -10 1 -13t21 -5q5 -1 8 -1zM546 636h25l-597 -641h-25zM397 246h42l-52 -160h33l-10 -20h-30l-11 -34q-4 -12 1.5 -16t24.5 -6l-3 -10h-112l4 10q21 2 28.5 6
t11.5 16l11 34h-97l3 20zM259 86h83l41 127z" />
    <glyph glyph-name="onehalf" unicode="&#xbd;" horiz-adv-x="514" 
d="M93 398l3 11q39 5 52 32l45 142q1 5 4 12q2 13 -4 14l-25 -3l4 11l77 33l6 -6l-71 -216q-4 -10 1 -13t21 -5q5 -1 8 -1l-3 -11h-118zM-51 -5l597 641h25l-597 -641h-25zM241 0l-7 18q6 5 42 29.5t52.5 37.5t42 34t37 38t11.5 30t-10 23.5t-26 10.5q-28 0 -68 -52l-11 26
q38 57 92 57q29 0 46.5 -17t17.5 -46q0 -25 -18 -50t-36.5 -39.5t-56.5 -39t-50 -33.5l50 7q46 0 76 45l14 -9l-40 -70h-158z" />
    <glyph glyph-name="threequarters" unicode="&#xbe;" horiz-adv-x="648" 
d="M143 384q-21 0 -37 6t-16 18q0 10 6.5 15.5t14.5 5.5t17.5 -15.5t25.5 -15.5q29 0 53.5 25.5t24.5 54.5q0 35 -42 35q-16 0 -35 -7l-1 12l32 12q35 13 53.5 26.5t18.5 35.5q0 21 -29 21q-37 0 -66 -27l-6 8q44 47 98 47q46 0 46 -37q0 -42 -73 -72q52 -4 52 -45
q0 -39 -44 -71t-93 -32zM635 636h25l-597 -641h-25zM558 246h42l-52 -160h33l-10 -20h-30l-11 -34q-4 -12 1.5 -16t24.5 -6l-3 -10h-112l4 10q21 2 28.5 6t11.5 16l11 34h-97l3 20zM420 86h83l41 127z" />
    <glyph glyph-name="questiondown" unicode="&#xbf;" horiz-adv-x="475" 
d="M290 455q37 0 63 -26.5t26 -64.5q0 -36 -26 -61.5t-63 -25.5q-35 0 -60.5 26t-25.5 61q0 38 25.5 64.5t60.5 26.5zM268 253q3 -42 -8.5 -75.5t-32 -60.5t-43.5 -52.5t-47 -63.5t-38 -81q-8 -24 -8.5 -40.5t3 -25t14.5 -13t20.5 -5.5t26.5 -1q13 0 24 7.5t15.5 13.5
t15.5 22q36 53 58.5 72t42.5 19q21 0 32 -14t11 -34q0 -32 -29.5 -59t-73 -42t-87.5 -23t-79 -8q-80 0 -120 47.5t-15 124.5q14 46 48 82.5t72 59.5t75.5 44.5t65.5 48t35 57.5h22z" />
    <glyph glyph-name="Agrave" unicode="&#xc0;" horiz-adv-x="626" 
d="M458 687q-46 47 -131 101q11 32 41.5 55.5t61.5 23.5q53 -75 69 -156zM518 83q1 -14 2.5 -21.5t8 -12.5t9 -6.5t18.5 -4.5t23 -4l-10 -34h-299l11 38q24 2 39.5 6t28.5 16.5t12 33.5l-3 79h-201l-60 -85q-6 -8 -9 -14.5t-4.5 -11t1 -8t4 -5.5t7.5 -4.5t9 -3.5t12 -3.5
t13 -3.5l-11 -34h-184l14 35q37 4 54 16t45 54l390 532h46zM185 213h171l-9 229z" />
    <glyph glyph-name="Aacute" unicode="&#xc1;" horiz-adv-x="626" 
d="M591 788q-85 -54 -131 -101l-41 24q16 81 69 156q31 0 61.5 -23.5t41.5 -55.5zM518 83q1 -14 2.5 -21.5t8 -12.5t9 -6.5t18.5 -4.5t23 -4l-10 -34h-299l11 38q24 2 39.5 6t28.5 16.5t12 33.5l-3 79h-201l-60 -85q-6 -8 -9 -14.5t-4.5 -11t1 -8t4 -5.5t7.5 -4.5t9 -3.5
t12 -3.5t13 -3.5l-11 -34h-184l14 35q37 4 54 16t45 54l390 532h46zM185 213h171l-9 229z" />
    <glyph glyph-name="Acircumflex" unicode="&#xc2;" horiz-adv-x="626" 
d="M535 880l89 -147l-18 -23l-93 76l-140 -76l-11 20zM518 83q1 -14 2.5 -21.5t8 -12.5t9 -6.5t18.5 -4.5t23 -4l-10 -34h-299l11 38q24 2 39.5 6t28.5 16.5t12 33.5l-3 79h-201l-60 -85q-6 -8 -9 -14.5t-4.5 -11t1 -8t4 -5.5t7.5 -4.5t9 -3.5t12 -3.5t13 -3.5l-11 -34h-184
l14 35q37 4 54 16t45 54l390 532h46zM185 213h171l-9 229z" />
    <glyph glyph-name="Atilde" unicode="&#xc3;" horiz-adv-x="626" 
d="M668 841l23 -19q-12 -64 -51.5 -98t-86.5 -34q-26 0 -45 12t-28.5 26.5t-24 26.5t-32.5 12q-30 0 -59.5 -24.5t-34.5 -41.5l-23 20q12 63 51 97t85 34q26 0 46 -12t30.5 -26t26 -26t33.5 -12q29 0 58 24.5t32 40.5zM518 83q1 -14 2.5 -21.5t8 -12.5t9 -6.5t18.5 -4.5
t23 -4l-10 -34h-299l11 38q24 2 39.5 6t28.5 16.5t12 33.5l-3 79h-201l-60 -85q-6 -8 -9 -14.5t-4.5 -11t1 -8t4 -5.5t7.5 -4.5t9 -3.5t12 -3.5t13 -3.5l-11 -34h-184l14 35q37 4 54 16t45 54l390 532h46zM185 213h171l-9 229z" />
    <glyph glyph-name="Adieresis" unicode="&#xc4;" horiz-adv-x="626" 
d="M365 734q-31 0 -54 23t-23 54q0 29 23 51.5t54 22.5q30 0 52.5 -22.5t22.5 -51.5q0 -31 -22.5 -54t-52.5 -23zM602 885q30 0 52.5 -22.5t22.5 -51.5q0 -31 -22.5 -54t-52.5 -23q-32 0 -54.5 23t-22.5 54q0 29 23 51.5t54 22.5zM518 83q1 -14 2.5 -21.5t8 -12.5t9 -6.5
t18.5 -4.5t23 -4l-10 -34h-299l11 38q24 2 39.5 6t28.5 16.5t12 33.5l-3 79h-201l-60 -85q-6 -8 -9 -14.5t-4.5 -11t1 -8t4 -5.5t7.5 -4.5t9 -3.5t12 -3.5t13 -3.5l-11 -34h-184l14 35q37 4 54 16t45 54l390 532h46zM185 213h171l-9 229z" />
    <glyph glyph-name="Aring" unicode="&#xc5;" horiz-adv-x="626" 
d="M529 912q45 0 74.5 -29t29.5 -72t-29.5 -72t-74.5 -29t-75 29t-30 72t30 72t75 29zM529 777q36 0 36 34t-36 34q-37 0 -37 -34t37 -34zM518 83q1 -14 2.5 -21.5t8 -12.5t9 -6.5t18.5 -4.5t23 -4l-10 -34h-299l11 38q24 2 39.5 6t28.5 16.5t12 33.5l-3 79h-201l-60 -85
q-6 -8 -9 -14.5t-4.5 -11t1 -8t4 -5.5t7.5 -4.5t9 -3.5t12 -3.5t13 -3.5l-11 -34h-184l14 35q37 4 54 16t45 54l390 532h46zM185 213h171l-9 229z" />
    <glyph glyph-name="AE" unicode="&#xc6;" horiz-adv-x="927" 
d="M991 630l-42 -152h-31q15 59 6 82t-57 23h-56q-51 0 -76 -18t-44 -69l-50 -156h39q76 0 109 22t54 73h28l-71 -223h-28q11 35 7 53.5t-24 24.5t-76 6h-52l-60 -185q-9 -25 -11.5 -37t6 -18.5t20 -7.5t42.5 -1h38q52 0 93.5 29t86.5 95h42l-94 -171h-494l11 35
q45 9 69 25.5t38 62.5l16 50h-235l-92 -95q-12 -13 -17.5 -21t-3.5 -13t4.5 -6.5t13.5 -4t16 -4.5l-12 -29h-167l13 33q38 8 63 21t59 46l465 486q-1 0 -45 12l9 32h490zM442 210l102 311q4 14 6 19l-320 -330h212z" />
    <glyph glyph-name="Ccedilla" unicode="&#xc7;" horiz-adv-x="597" 
d="M488 645q59 0 102.5 -18t63.5 -43l-32 -131h-41q6 76 -16 112t-80 36q-77 0 -140 -65t-94 -152.5t-31 -168.5q0 -77 34.5 -121.5t99.5 -44.5q40 0 83.5 15.5t75.5 45.5l23 -48q-38 -34 -102 -54.5t-138 -20.5h-2l-11 -23q43 0 81.5 -23t38.5 -65q0 -88 -184 -88l5 31
q87 0 87 43q0 40 -117 40l46 90q-89 15 -135 77t-46 153q0 106 59 204t158.5 158.5t211.5 60.5z" />
    <glyph glyph-name="Egrave" unicode="&#xc8;" horiz-adv-x="580" 
d="M422 687q-46 47 -131 101q11 32 41.5 55.5t61.5 23.5q53 -75 69 -156zM153 630h490l-42 -152h-31q16 59 6.5 82t-56.5 23h-57q-51 0 -76 -18t-44 -69l-50 -156h39q76 0 109 22t54 73h28l-71 -223h-27q10 35 6 53.5t-24 24.5t-76 6h-52l-60 -185q-9 -25 -11.5 -37t6 -18.5
t20 -7.5t42.5 -1h38q52 0 93.5 29t87.5 95h41l-94 -171h-494l11 35q45 9 69 25.5t38 62.5l131 398q4 11 6 19.5t1.5 15.5t0 12t-4 9t-6 6t-9.5 4.5t-11 3.5t-14.5 3.5t-15.5 3.5z" />
    <glyph glyph-name="Eacute" unicode="&#xc9;" horiz-adv-x="580" 
d="M554 788q-85 -54 -131 -101l-41 24q16 81 69 156q31 0 61.5 -23.5t41.5 -55.5zM153 630h490l-42 -152h-31q16 59 6.5 82t-56.5 23h-57q-51 0 -76 -18t-44 -69l-50 -156h39q76 0 109 22t54 73h28l-71 -223h-27q10 35 6 53.5t-24 24.5t-76 6h-52l-60 -185q-9 -25 -11.5 -37
t6 -18.5t20 -7.5t42.5 -1h38q52 0 93.5 29t87.5 95h41l-94 -171h-494l11 35q45 9 69 25.5t38 62.5l131 398q4 11 6 19.5t1.5 15.5t0 12t-4 9t-6 6t-9.5 4.5t-11 3.5t-14.5 3.5t-15.5 3.5z" />
    <glyph glyph-name="Ecircumflex" unicode="&#xca;" horiz-adv-x="580" 
d="M477 786l-140 -76l-11 20l173 150l89 -147l-18 -23zM153 630h490l-42 -152h-31q16 59 6.5 82t-56.5 23h-57q-51 0 -76 -18t-44 -69l-50 -156h39q76 0 109 22t54 73h28l-71 -223h-27q10 35 6 53.5t-24 24.5t-76 6h-52l-60 -185q-9 -25 -11.5 -37t6 -18.5t20 -7.5t42.5 -1
h38q52 0 93.5 29t87.5 95h41l-94 -171h-494l11 35q45 9 69 25.5t38 62.5l131 398q4 11 6 19.5t1.5 15.5t0 12t-4 9t-6 6t-9.5 4.5t-11 3.5t-14.5 3.5t-15.5 3.5z" />
    <glyph glyph-name="Edieresis" unicode="&#xcb;" horiz-adv-x="580" 
d="M328 734q-32 0 -54.5 23t-22.5 54q0 29 23 51.5t54 22.5q30 0 52.5 -22.5t22.5 -51.5q0 -31 -22.5 -54t-52.5 -23zM565 734q-31 0 -54 23t-23 54q0 29 23 51.5t54 22.5q30 0 52.5 -22.5t22.5 -51.5q0 -31 -22.5 -54t-52.5 -23zM153 630h490l-42 -152h-31q16 59 6.5 82
t-56.5 23h-57q-51 0 -76 -18t-44 -69l-50 -156h39q76 0 109 22t54 73h28l-71 -223h-27q10 35 6 53.5t-24 24.5t-76 6h-52l-60 -185q-9 -25 -11.5 -37t6 -18.5t20 -7.5t42.5 -1h38q52 0 93.5 29t87.5 95h41l-94 -171h-494l11 35q45 9 69 25.5t38 62.5l131 398q4 11 6 19.5
t1.5 15.5t0 12t-4 9t-6 6t-9.5 4.5t-11 3.5t-14.5 3.5t-15.5 3.5z" />
    <glyph glyph-name="Igrave" unicode="&#xcc;" horiz-adv-x="350" 
d="M306 687q-46 47 -131 101q11 32 41.5 55.5t61.5 23.5q53 -75 69 -156zM-50 0l9 32q41 8 66 26.5t40 64.5l131 398q4 11 6 19.5t1.5 15.5t0.5 12t-4 9t-5.5 6t-9.5 4.5t-11 3.5t-15 3.5t-16 3.5l9 32h317l-12 -33q-30 -7 -46 -13.5t-34.5 -25.5t-28.5 -51l-129 -398
q-8 -25 -9.5 -39t8 -22t17.5 -10t33 -7l-11 -31h-307z" />
    <glyph glyph-name="Iacute" unicode="&#xcd;" horiz-adv-x="350" 
d="M307 687l-41 24q16 81 69 156q31 0 61.5 -23.5t41.5 -55.5q-85 -54 -131 -101zM-50 0l9 32q41 8 66 26.5t40 64.5l131 398q4 11 6 19.5t1.5 15.5t0.5 12t-4 9t-5.5 6t-9.5 4.5t-11 3.5t-15 3.5t-16 3.5l9 32h317l-12 -33q-30 -7 -46 -13.5t-34.5 -25.5t-28.5 -51
l-129 -398q-8 -25 -9.5 -39t8 -22t17.5 -10t33 -7l-11 -31h-307z" />
    <glyph glyph-name="Icircumflex" unicode="&#xce;" horiz-adv-x="350" 
d="M383 880l89 -147l-18 -23l-93 76l-140 -76l-11 20zM-50 0l9 32q41 8 66 26.5t40 64.5l131 398q4 11 6 19.5t1.5 15.5t0.5 12t-4 9t-5.5 6t-9.5 4.5t-11 3.5t-15 3.5t-16 3.5l9 32h317l-12 -33q-30 -7 -46 -13.5t-34.5 -25.5t-28.5 -51l-129 -398q-8 -25 -9.5 -39t8 -22
t17.5 -10t33 -7l-11 -31h-307z" />
    <glyph glyph-name="Idieresis" unicode="&#xcf;" horiz-adv-x="350" 
d="M212 734q-32 0 -54.5 23t-22.5 54q0 29 23 51.5t54 22.5q30 0 52.5 -22.5t22.5 -51.5q0 -31 -22.5 -54t-52.5 -23zM449 734q-31 0 -54 23t-23 54q0 29 23 51.5t54 22.5q30 0 52.5 -22.5t22.5 -51.5q0 -31 -22.5 -54t-52.5 -23zM-50 0l9 32q41 8 66 26.5t40 64.5l131 398
q4 11 6 19.5t1.5 15.5t0.5 12t-4 9t-5.5 6t-9.5 4.5t-11 3.5t-15 3.5t-16 3.5l9 32h317l-12 -33q-30 -7 -46 -13.5t-34.5 -25.5t-28.5 -51l-129 -398q-8 -25 -9.5 -39t8 -22t17.5 -10t33 -7l-11 -31h-307z" />
    <glyph glyph-name="Eth" unicode="&#xd0;" horiz-adv-x="704" 
d="M464 630q107 0 183 -56.5t76 -168.5q0 -72 -37.5 -145.5t-98 -130.5t-145 -93t-171.5 -36h-302l12 35q45 9 69 25.5t37 62.5l56 167q-32 0 -96 -2l10 46q66 -2 100 -2l63 189q4 11 6 19.5t1.5 15.5t0 12t-4 9t-6 6t-9.5 4.5t-11 3.5t-14.5 3.5t-15.5 3.5l9 32h288z
M289 44q70 0 138.5 72.5t108 167t39.5 167.5q0 135 -120 135h-59l-84 -255l130 3l-10 -46l-133 3l-53 -162q-16 -52 -7.5 -68.5t50.5 -16.5z" />
    <glyph glyph-name="Ntilde" unicode="&#xd1;" horiz-adv-x="648" 
d="M429 767q-30 0 -59.5 -24.5t-34.5 -41.5l-23 20q12 63 51 97t85 34q26 0 46 -12t30.5 -26t26 -26t33.5 -12q29 0 58 24.5t32 40.5l23 -19q-12 -64 -51.5 -98t-86.5 -34q-26 0 -45 12t-28.5 26.5t-24 26.5t-32.5 12zM564 630h209l-10 -32q-41 -6 -67 -25t-41 -66
l-165 -507h-68l-173 534l-138 -425q-8 -25 -9 -39.5t9.5 -22t20.5 -10t35 -6.5l-10 -31h-206l8 32q41 6 67.5 25t41.5 66l131 398q4 11 6 20t2 15.5t-0.5 11.5t-4 9t-5.5 6t-8.5 4.5t-10 3.5t-13 3.5t-13.5 3.5l6 32h230l124 -402l100 293q7 20 7.5 33t-1.5 21t-13.5 12.5
t-20 6.5t-29.5 5z" />
    <glyph glyph-name="Ograve" unicode="&#xd2;" horiz-adv-x="679" 
d="M471 687q-46 47 -131 101q11 32 41.5 55.5t61.5 23.5q53 -75 69 -156zM277 -13q-100 0 -162 59t-62 157q0 106 57.5 208.5t154.5 168t203 65.5q101 0 162.5 -58t61.5 -157q0 -80 -34.5 -160.5t-90.5 -142.5t-133 -101t-157 -39zM281 31q70 0 131.5 85t93 192.5
t31.5 192.5q0 50 -17 75t-56 25q-52 0 -101.5 -50.5t-82 -124t-52.5 -152.5t-20 -139q0 -53 17 -78.5t56 -25.5z" />
    <glyph glyph-name="Oacute" unicode="&#xd3;" horiz-adv-x="679" 
d="M472 687l-41 24q16 81 69 156q31 0 61.5 -23.5t41.5 -55.5q-85 -54 -131 -101zM277 -13q-100 0 -162 59t-62 157q0 106 57.5 208.5t154.5 168t203 65.5q101 0 162.5 -58t61.5 -157q0 -80 -34.5 -160.5t-90.5 -142.5t-133 -101t-157 -39zM281 31q70 0 131.5 85t93 192.5
t31.5 192.5q0 50 -17 75t-56 25q-52 0 -101.5 -50.5t-82 -124t-52.5 -152.5t-20 -139q0 -53 17 -78.5t56 -25.5z" />
    <glyph glyph-name="Ocircumflex" unicode="&#xd4;" horiz-adv-x="679" 
d="M548 880l89 -147l-18 -23l-93 76l-140 -76l-11 20zM277 -13q-100 0 -162 59t-62 157q0 106 57.5 208.5t154.5 168t203 65.5q101 0 162.5 -58t61.5 -157q0 -80 -34.5 -160.5t-90.5 -142.5t-133 -101t-157 -39zM281 31q70 0 131.5 85t93 192.5t31.5 192.5q0 50 -17 75
t-56 25q-52 0 -101.5 -50.5t-82 -124t-52.5 -152.5t-20 -139q0 -53 17 -78.5t56 -25.5z" />
    <glyph glyph-name="Otilde" unicode="&#xd5;" horiz-adv-x="679" 
d="M565 690q-26 0 -45 12t-28.5 26.5t-24 26.5t-32.5 12q-30 0 -59.5 -24.5t-34.5 -41.5l-23 20q12 63 51 97t85 34q26 0 46 -12t30.5 -26t26 -26t33.5 -12q29 0 58 24.5t32 40.5l23 -19q-12 -64 -51.5 -98t-86.5 -34zM277 -13q-100 0 -162 59t-62 157q0 106 57.5 208.5
t154.5 168t203 65.5q101 0 162.5 -58t61.5 -157q0 -80 -34.5 -160.5t-90.5 -142.5t-133 -101t-157 -39zM281 31q70 0 131.5 85t93 192.5t31.5 192.5q0 50 -17 75t-56 25q-52 0 -101.5 -50.5t-82 -124t-52.5 -152.5t-20 -139q0 -53 17 -78.5t56 -25.5z" />
    <glyph glyph-name="Odieresis" unicode="&#xd6;" horiz-adv-x="679" 
d="M377 734q-31 0 -54 23t-23 54q0 29 23 51.5t54 22.5q30 0 52.5 -22.5t22.5 -51.5q0 -31 -22.5 -54t-52.5 -23zM614 734q-32 0 -54.5 23t-22.5 54q0 29 23 51.5t54 22.5q30 0 52.5 -22.5t22.5 -51.5q0 -31 -22.5 -54t-52.5 -23zM277 -13q-100 0 -162 59t-62 157
q0 106 57.5 208.5t154.5 168t203 65.5q101 0 162.5 -58t61.5 -157q0 -80 -34.5 -160.5t-90.5 -142.5t-133 -101t-157 -39zM281 31q70 0 131.5 85t93 192.5t31.5 192.5q0 50 -17 75t-56 25q-52 0 -101.5 -50.5t-82 -124t-52.5 -152.5t-20 -139q0 -53 17 -78.5t56 -25.5z" />
    <glyph glyph-name="multiply" unicode="&#xd7;" horiz-adv-x="411" 
d="M407 346l-118 -95l53 -95l-101 -78l-52 92l-115 -93l-46 82l115 93l-53 95l102 78l52 -93l119 96z" />
    <glyph glyph-name="Oslash" unicode="&#xd8;" horiz-adv-x="679" 
d="M577 623q54 -25 84.5 -75t30.5 -118q0 -80 -34.5 -160.5t-90.5 -142.5t-133 -101t-157 -39q-48 0 -88 14l-32 -50l-21 13l29 47q-53 26 -82.5 76t-29.5 116q0 106 57.5 208.5t154.5 168t203 65.5q48 0 86 -13l39 63l21 -13zM208 135q0 -32 5 -48l306 490q-16 24 -55 24
q-52 0 -101.5 -50.5t-82 -124t-52.5 -152.5t-20 -139zM281 31q70 0 131.5 85t93 192.5t31.5 192.5q0 26 -5 49l-308 -492q16 -27 57 -27z" />
    <glyph glyph-name="Ugrave" unicode="&#xd9;" horiz-adv-x="662" 
d="M473 687q-46 47 -131 101q11 32 41.5 55.5t61.5 23.5q53 -75 69 -156zM285 -11q-50 0 -89 12.5t-69.5 44.5t-33 85t20.5 134l82 256q4 11 6 19.5t1.5 15.5t0.5 12t-4 9t-5.5 6t-9.5 4.5t-11 3.5t-15 3.5t-16 3.5l9 32h317l-12 -33q-30 -7 -46 -13.5t-34 -25.5t-28 -51
l-92 -283q-62 -187 63 -187q25 0 50 7.5t55.5 27t58.5 61.5t47 102l91 286q5 14 7 24.5t0 18t-3.5 12t-9 8.5t-11 5t-15.5 4.5t-16 4.5l9 32h209l-12 -33q-49 -9 -75.5 -26.5t-41.5 -63.5l-88 -273q-44 -137 -118 -191t-172 -54z" />
    <glyph glyph-name="Uacute" unicode="&#xda;" horiz-adv-x="662" 
d="M474 687l-41 24q16 81 69 156q31 0 61.5 -23.5t41.5 -55.5q-85 -54 -131 -101zM285 -11q-50 0 -89 12.5t-69.5 44.5t-33 85t20.5 134l82 256q4 11 6 19.5t1.5 15.5t0.5 12t-4 9t-5.5 6t-9.5 4.5t-11 3.5t-15 3.5t-16 3.5l9 32h317l-12 -33q-30 -7 -46 -13.5t-34 -25.5
t-28 -51l-92 -283q-62 -187 63 -187q25 0 50 7.5t55.5 27t58.5 61.5t47 102l91 286q5 14 7 24.5t0 18t-3.5 12t-9 8.5t-11 5t-15.5 4.5t-16 4.5l9 32h209l-12 -33q-49 -9 -75.5 -26.5t-41.5 -63.5l-88 -273q-44 -137 -118 -191t-172 -54z" />
    <glyph glyph-name="Ucircumflex" unicode="&#xdb;" horiz-adv-x="662" 
d="M550 880l89 -147l-18 -23l-93 76l-140 -76l-11 20zM285 -11q-50 0 -89 12.5t-69.5 44.5t-33 85t20.5 134l82 256q4 11 6 19.5t1.5 15.5t0.5 12t-4 9t-5.5 6t-9.5 4.5t-11 3.5t-15 3.5t-16 3.5l9 32h317l-12 -33q-30 -7 -46 -13.5t-34 -25.5t-28 -51l-92 -283
q-62 -187 63 -187q25 0 50 7.5t55.5 27t58.5 61.5t47 102l91 286q5 14 7 24.5t0 18t-3.5 12t-9 8.5t-11 5t-15.5 4.5t-16 4.5l9 32h209l-12 -33q-49 -9 -75.5 -26.5t-41.5 -63.5l-88 -273q-44 -137 -118 -191t-172 -54z" />
    <glyph glyph-name="Udieresis" unicode="&#xdc;" horiz-adv-x="662" 
d="M379 734q-31 0 -54 23t-23 54q0 29 23 51.5t54 22.5q30 0 52.5 -22.5t22.5 -51.5q0 -31 -22.5 -54t-52.5 -23zM616 734q-32 0 -54.5 23t-22.5 54q0 29 23 51.5t54 22.5q30 0 52.5 -22.5t22.5 -51.5q0 -31 -22.5 -54t-52.5 -23zM285 -11q-50 0 -89 12.5t-69.5 44.5t-33 85
t20.5 134l82 256q4 11 6 19.5t1.5 15.5t0.5 12t-4 9t-5.5 6t-9.5 4.5t-11 3.5t-15 3.5t-16 3.5l9 32h317l-12 -33q-30 -7 -46 -13.5t-34 -25.5t-28 -51l-92 -283q-62 -187 63 -187q25 0 50 7.5t55.5 27t58.5 61.5t47 102l91 286q5 14 7 24.5t0 18t-3.5 12t-9 8.5t-11 5
t-15.5 4.5t-16 4.5l9 32h209l-12 -33q-49 -9 -75.5 -26.5t-41.5 -63.5l-88 -273q-44 -137 -118 -191t-172 -54z" />
    <glyph glyph-name="Yacute" unicode="&#xdd;" horiz-adv-x="615" 
d="M577 788q-85 -54 -131 -101l-41 24q16 81 69 156q31 0 61.5 -23.5t41.5 -55.5zM567 630h197l-13 -38q-41 -8 -59 -18t-50 -46l-227 -251l-54 -165q-8 -25 -8.5 -39.5t7.5 -22t19 -11t31 -7.5q5 -1 7 -1l-10 -31h-312l11 32q42 9 65.5 27t38.5 66l46 141l-67 267
q-9 39 -17.5 47.5t-50.5 15.5l11 34h316l-11 -38q-7 -1 -19 -3t-19 -3t-17 -4t-14 -6.5t-10 -10t-4.5 -15.5t2.5 -22l50 -202l185 211q17 18 22 29.5t-4 17.5t-18.5 8t-32.5 4z" />
    <glyph glyph-name="Thorn" unicode="&#xde;" horiz-adv-x="571" 
d="M222 118l-3 -9q-8 -25 -9.5 -39t8 -22t17.5 -10t33 -7l-11 -31h-307l9 32q41 8 66 26.5t40 64.5l131 398q4 11 6 19.5t1.5 15.5t0.5 12t-4 9t-5.5 6t-9.5 4.5t-11 3.5t-15 3.5t-16 3.5l9 32h317l-12 -33q-30 -7 -46 -13.5t-34 -25t-28 -48.5q99 -5 163 -44.5t64 -113.5
q0 -58 -28 -103t-78 -72.5t-112 -42t-136 -16.5zM427 375q0 43 -20.5 64.5t-72.5 25.5l-97 -300q87 13 138.5 75t51.5 135z" />
    <glyph glyph-name="germandbls" unicode="&#xdf;" horiz-adv-x="582" 
d="M452 354l62 -83q31 -43 31 -84q0 -51 -47 -99t-108.5 -74.5t-111.5 -26.5q-36 0 -58 17t-22 45q0 56 57 56q17 0 31 -17.5t22.5 -35t12.5 -17.5q23 0 51.5 37t28.5 65q0 14 -16 43l-82 121q63 56 114.5 127.5t51.5 127.5q0 40 -41 40q-24 0 -43 -13t-34.5 -40.5t-26 -53
t-24.5 -67.5l-138 -422h-208l4 33q40 7 61.5 22.5t31.5 47.5l110 338q60 196 262 196q75 0 116.5 -29t41.5 -80q0 -85 -129 -174z" />
    <glyph glyph-name="agrave" unicode="&#xe0;" horiz-adv-x="527" 
d="M327 487q-46 47 -131 101q11 32 41.5 55.5t61.5 23.5q53 -75 69 -156zM480 164l21 -22q-105 -152 -205 -152q-43 0 -56 27t0 58l30 86q-145 -171 -207 -171q-30 0 -51 26t-21 75q0 56 32 117.5t84.5 112.5t128 84.5t153.5 33.5q8 0 23 -1.5t40.5 -3.5t44.5 -4l-106 -312
q-14 -41 3 -37q24 5 86 83zM147 104q26 0 146 124l50 146q-34 21 -59 21q-34 0 -72 -47t-61.5 -108.5t-23.5 -106.5q0 -29 20 -29z" />
    <glyph glyph-name="aacute" unicode="&#xe1;" horiz-adv-x="527" 
d="M459 588q-85 -54 -131 -101l-41 24q16 81 69 156q31 0 61.5 -23.5t41.5 -55.5zM480 164l21 -22q-105 -152 -205 -152q-43 0 -56 27t0 58l30 86q-145 -171 -207 -171q-30 0 -51 26t-21 75q0 56 32 117.5t84.5 112.5t128 84.5t153.5 33.5q8 0 23 -1.5t40.5 -3.5t44.5 -4
l-106 -312q-14 -41 3 -37q24 5 86 83zM147 104q26 0 146 124l50 146q-34 21 -59 21q-34 0 -72 -47t-61.5 -108.5t-23.5 -106.5q0 -29 20 -29z" />
    <glyph glyph-name="acircumflex" unicode="&#xe2;" horiz-adv-x="527" 
d="M382 586l-140 -76l-11 20l173 150l89 -147l-18 -23zM480 164l21 -22q-105 -152 -205 -152q-43 0 -56 27t0 58l30 86q-145 -171 -207 -171q-30 0 -51 26t-21 75q0 56 32 117.5t84.5 112.5t128 84.5t153.5 33.5q8 0 23 -1.5t40.5 -3.5t44.5 -4l-106 -312q-14 -41 3 -37
q24 5 86 83zM147 104q26 0 146 124l50 146q-34 21 -59 21q-34 0 -72 -47t-61.5 -108.5t-23.5 -106.5q0 -29 20 -29z" />
    <glyph glyph-name="atilde" unicode="&#xe3;" horiz-adv-x="527" 
d="M536 641l23 -19q-12 -64 -51.5 -98t-86.5 -34q-26 0 -45 12t-28.5 26.5t-24 26.5t-32.5 12q-30 0 -59.5 -24.5t-34.5 -41.5l-23 20q12 63 51 97t85 34q26 0 46 -12t30.5 -26t26 -26t33.5 -12q29 0 58 24.5t32 40.5zM391 118q-14 -41 3 -37q24 5 86 83l21 -22
q-105 -152 -205 -152q-43 0 -56 27t0 58l30 86q-145 -171 -207 -171q-30 0 -51 26t-21 75q0 56 32 117.5t84.5 112.5t128 84.5t153.5 33.5q8 0 23 -1.5t40.5 -3.5t44.5 -4zM147 104q26 0 146 124l50 146q-34 21 -59 21q-34 0 -72 -47t-61.5 -108.5t-23.5 -106.5
q0 -29 20 -29z" />
    <glyph glyph-name="adieresis" unicode="&#xe4;" horiz-adv-x="527" 
d="M233 534q-31 0 -54 23t-23 54q0 29 23 51.5t54 22.5q30 0 52.5 -22.5t22.5 -51.5q0 -31 -22.5 -54t-52.5 -23zM470 685q30 0 52.5 -22.5t22.5 -51.5q0 -31 -22.5 -54t-52.5 -23q-32 0 -54.5 23t-22.5 54q0 29 23 51.5t54 22.5zM391 118q-14 -41 3 -37q24 5 86 83l21 -22
q-105 -152 -205 -152q-43 0 -56 27t0 58l30 86q-145 -171 -207 -171q-30 0 -51 26t-21 75q0 56 32 117.5t84.5 112.5t128 84.5t153.5 33.5q8 0 23 -1.5t40.5 -3.5t44.5 -4zM147 104q26 0 146 124l50 146q-34 21 -59 21q-34 0 -72 -47t-61.5 -108.5t-23.5 -106.5
q0 -29 20 -29z" />
    <glyph glyph-name="aring" unicode="&#xe5;" horiz-adv-x="527" 
d="M398 510q-45 0 -75 29t-30 72t30 72t75 29t74.5 -29t29.5 -72t-29.5 -72t-74.5 -29zM398 645q-37 0 -37 -34t37 -34q36 0 36 34t-36 34zM391 118q-14 -41 3 -37q24 5 86 83l21 -22q-105 -152 -205 -152q-43 0 -56 27t0 58l30 86q-145 -171 -207 -171q-30 0 -51 26t-21 75
q0 56 32 117.5t84.5 112.5t128 84.5t153.5 33.5q8 0 23 -1.5t40.5 -3.5t44.5 -4zM147 104q26 0 146 124l50 146q-34 21 -59 21q-34 0 -72 -47t-61.5 -108.5t-23.5 -106.5q0 -29 20 -29z" />
    <glyph glyph-name="ae" unicode="&#xe6;" horiz-adv-x="645" 
d="M667 358q0 -18 -4.5 -33.5t-20.5 -35t-42.5 -36t-75 -33.5t-113.5 -31q-1 -7 -1 -21q0 -75 68 -75q56 0 100 51l20 -26q-37 -62 -92 -94.5t-107 -32.5q-57 0 -95 40t-38 105q0 11 1 16q-139 -162 -199 -162q-31 0 -54 30t-20 83q5 72 56 150.5t130.5 132t156.5 53.5
q84 0 134 -25q53 25 101 25q95 0 95 -81zM152 103q27 0 127 104q29 82 102 147q-54 38 -91 38q-53 0 -103 -89t-54 -159q-3 -41 19 -41zM552 346q0 44 -32 44q-35 0 -63.5 -50.5t-40.5 -114.5q45 10 75 27.5t42 37.5t15.5 32.5t3.5 23.5z" />
    <glyph glyph-name="ccedilla" unicode="&#xe7;" horiz-adv-x="387" 
d="M288 439q55 0 83.5 -33t28.5 -76q0 -31 -14 -49t-39 -18q-60 0 -48 97q3 27 -2 35t-24 8q-50 0 -90 -67t-40 -137q0 -51 25 -78.5t56 -27.5q23 0 52 13t51 43l19 -28q-33 -57 -91.5 -93.5t-110.5 -37.5l-12 -26q43 0 81.5 -23t38.5 -65q0 -88 -184 -88l5 31q87 0 87 43
q0 40 -117 40l50 97q-40 15 -64.5 50.5t-24.5 85.5q0 107 92 205.5t192 98.5z" />
    <glyph glyph-name="egrave" unicode="&#xe8;" horiz-adv-x="382" 
d="M258 487q-46 47 -131 101q11 32 41.5 55.5t61.5 23.5q53 -75 69 -156zM404 358q0 -18 -4.5 -33.5t-20.5 -35t-42.5 -36t-75 -33.5t-113.5 -31q-1 -7 -1 -21q0 -75 68 -75q56 0 100 51l20 -26q-37 -62 -92 -94.5t-107 -32.5q-57 0 -95 40t-38 105q0 70 48 141.5
t119.5 116.5t138.5 45q95 0 95 -81zM257 390q-35 0 -63.5 -50.5t-40.5 -114.5q45 10 75 27.5t42 37.5t15.5 32.5t3.5 23.5q0 44 -32 44z" />
    <glyph glyph-name="eacute" unicode="&#xe9;" horiz-adv-x="382" 
d="M390 588q-85 -54 -131 -101l-41 24q16 81 69 156q31 0 61.5 -23.5t41.5 -55.5zM404 358q0 -18 -4.5 -33.5t-20.5 -35t-42.5 -36t-75 -33.5t-113.5 -31q-1 -7 -1 -21q0 -75 68 -75q56 0 100 51l20 -26q-37 -62 -92 -94.5t-107 -32.5q-57 0 -95 40t-38 105q0 70 48 141.5
t119.5 116.5t138.5 45q95 0 95 -81zM257 390q-35 0 -63.5 -50.5t-40.5 -114.5q45 10 75 27.5t42 37.5t15.5 32.5t3.5 23.5q0 44 -32 44z" />
    <glyph glyph-name="ecircumflex" unicode="&#xea;" horiz-adv-x="382" 
d="M335 680l89 -147l-18 -23l-93 76l-140 -76l-11 20zM309 439q95 0 95 -81q0 -18 -4.5 -33.5t-20.5 -35t-42.5 -36t-75 -33.5t-113.5 -31q-1 -7 -1 -21q0 -75 68 -75q56 0 100 51l20 -26q-37 -62 -92 -94.5t-107 -32.5q-57 0 -95 40t-38 105q0 70 48 141.5t119.5 116.5
t138.5 45zM289 346q0 44 -32 44q-35 0 -63.5 -50.5t-40.5 -114.5q45 10 75 27.5t42 37.5t15.5 32.5t3.5 23.5z" />
    <glyph glyph-name="edieresis" unicode="&#xeb;" horiz-adv-x="382" 
d="M164 534q-32 0 -54.5 23t-22.5 54q0 29 23 51.5t54 22.5q30 0 52.5 -22.5t22.5 -51.5q0 -31 -22.5 -54t-52.5 -23zM401 685q30 0 52.5 -22.5t22.5 -51.5q0 -31 -22.5 -54t-52.5 -23q-31 0 -54 23t-23 54q0 29 23 51.5t54 22.5zM309 439q95 0 95 -81q0 -18 -4.5 -33.5
t-20.5 -35t-42.5 -36t-75 -33.5t-113.5 -31q-1 -7 -1 -21q0 -75 68 -75q56 0 100 51l20 -26q-37 -62 -92 -94.5t-107 -32.5q-57 0 -95 40t-38 105q0 70 48 141.5t119.5 116.5t138.5 45zM289 346q0 44 -32 44q-35 0 -63.5 -50.5t-40.5 -114.5q45 10 75 27.5t42 37.5
t15.5 32.5t3.5 23.5z" />
    <glyph glyph-name="igrave" unicode="&#xec;" horiz-adv-x="317" 
d="M227 487q-46 47 -131 101q11 32 41.5 55.5t61.5 23.5q53 -75 69 -156zM267 162l24 -22q-108 -150 -207 -150q-44 0 -56.5 28t4.5 57l105 234q16 37 -2 34q-24 -5 -74 -62l-13 -16l-23 22q105 150 203 150q44 0 58.5 -28t-1.5 -57l-104 -234q-17 -39 0 -36q24 5 79 71z
" />
    <glyph glyph-name="iacute" unicode="&#xed;" horiz-adv-x="317" 
d="M229 487l-41 24q16 81 69 156q31 0 61.5 -23.5t41.5 -55.5q-85 -54 -131 -101zM267 162l24 -22q-108 -150 -207 -150q-44 0 -56.5 28t4.5 57l105 234q16 37 -2 34q-24 -5 -74 -62l-13 -16l-23 22q105 150 203 150q44 0 58.5 -28t-1.5 -57l-104 -234q-17 -39 0 -36
q24 5 79 71z" />
    <glyph glyph-name="icircumflex" unicode="&#xee;" horiz-adv-x="317" 
d="M304 680l89 -147l-18 -23l-93 76l-140 -76l-11 20zM267 162l24 -22q-108 -150 -207 -150q-44 0 -56.5 28t4.5 57l105 234q16 37 -2 34q-24 -5 -74 -62l-13 -16l-23 22q105 150 203 150q44 0 58.5 -28t-1.5 -57l-104 -234q-17 -39 0 -36q24 5 79 71z" />
    <glyph glyph-name="idieresis" unicode="&#xef;" horiz-adv-x="317" 
d="M134 534q-32 0 -54.5 23t-22.5 54q0 29 23 51.5t54 22.5q30 0 52.5 -22.5t22.5 -51.5q0 -31 -22.5 -54t-52.5 -23zM371 534q-31 0 -54 23t-23 54q0 29 23 51.5t54 22.5q30 0 52.5 -22.5t22.5 -51.5q0 -31 -22.5 -54t-52.5 -23zM267 162l24 -22q-108 -150 -207 -150
q-44 0 -56.5 28t4.5 57l105 234q16 37 -2 34q-24 -5 -74 -62l-13 -16l-23 22q105 150 203 150q44 0 58.5 -28t-1.5 -57l-104 -234q-17 -39 0 -36q24 5 79 71z" />
    <glyph glyph-name="eth" unicode="&#xf0;" horiz-adv-x="508" 
d="M593 652l-7 -69q-76 -20 -157 -48q62 -75 62 -179q0 -155 -85 -260t-226 -105q-76 0 -120.5 41t-44.5 112q0 120 88.5 212.5t207.5 92.5q19 0 45 14q-3 27 -10 44q-56 -20 -168 -64l9 69q54 15 131 41q-35 37 -105 45l19 39q86 -5 156 -61q112 40 205 76zM180 30
q46 0 85.5 62t58 135t18.5 126q0 20 -1 29.5t-7.5 18.5t-19.5 9q-44 0 -84 -60.5t-60.5 -134t-20.5 -127.5q0 -28 6 -43t25 -15z" />
    <glyph glyph-name="ntilde" unicode="&#xf1;" horiz-adv-x="587" 
d="M456 490q-26 0 -45 12t-28.5 26.5t-24 26.5t-32.5 12q-30 0 -59.5 -24.5t-34.5 -41.5l-23 20q12 63 51 97t85 34q26 0 46 -12t30.5 -26t26 -26t33.5 -12q29 0 58 24.5t32 40.5l23 -19q-12 -64 -51.5 -98t-86.5 -34zM535 164l26 -22q-107 -152 -214 -152q-41 0 -54.5 20
t-1.5 53l83 193q35 86 22 93l-8 1q-26 0 -104.5 -112.5t-129.5 -237.5h-125l108 309q15 43 -4 38q-26 -7 -85 -82l-23 22q105 150 203 150q40 0 52 -21t-3 -52l-77 -186h13q76 142 136 200.5t119 58.5q42 0 59 -27t11 -66.5t-28 -88.5l-63 -137q-19 -40 -1 -37q24 5 71 61
q10 11 18 22z" />
    <glyph glyph-name="ograve" unicode="&#xf2;" horiz-adv-x="456" 
d="M306 487q-46 47 -131 101q11 32 41.5 55.5t61.5 23.5q53 -75 69 -156zM141 -10q-64 0 -103 32t-39 101q0 74 42 147t115.5 121t154.5 48q144 0 144 -132q0 -117 -95.5 -217t-218.5 -100zM176 20q38 0 72.5 66t52 141.5t17.5 121.5q0 29 -9 44.5t-23 15.5q-34 0 -71 -58.5
t-59 -134t-22 -128.5q0 -68 42 -68z" />
    <glyph glyph-name="oacute" unicode="&#xf3;" horiz-adv-x="456" 
d="M308 487l-41 24q16 81 69 156q31 0 61.5 -23.5t41.5 -55.5q-85 -54 -131 -101zM141 -10q-64 0 -103 32t-39 101q0 74 42 147t115.5 121t154.5 48q144 0 144 -132q0 -117 -95.5 -217t-218.5 -100zM176 20q38 0 72.5 66t52 141.5t17.5 121.5q0 29 -9 44.5t-23 15.5
q-34 0 -71 -58.5t-59 -134t-22 -128.5q0 -68 42 -68z" />
    <glyph glyph-name="ocircumflex" unicode="&#xf4;" horiz-adv-x="456" 
d="M383 680l89 -147l-18 -23l-93 76l-140 -76l-11 20zM141 -10q-64 0 -103 32t-39 101q0 74 42 147t115.5 121t154.5 48q144 0 144 -132q0 -117 -95.5 -217t-218.5 -100zM176 20q38 0 72.5 66t52 141.5t17.5 121.5q0 29 -9 44.5t-23 15.5q-34 0 -71 -58.5t-59 -134
t-22 -128.5q0 -68 42 -68z" />
    <glyph glyph-name="otilde" unicode="&#xf5;" horiz-adv-x="456" 
d="M401 490q-26 0 -45 12t-28.5 26.5t-24 26.5t-32.5 12q-30 0 -59.5 -24.5t-34.5 -41.5l-23 20q12 63 51 97t85 34q26 0 46 -12t30.5 -26t26 -26t33.5 -12q29 0 58 24.5t32 40.5l23 -19q-12 -64 -51.5 -98t-86.5 -34zM141 -10q-64 0 -103 32t-39 101q0 74 42 147t115.5 121
t154.5 48q144 0 144 -132q0 -117 -95.5 -217t-218.5 -100zM176 20q38 0 72.5 66t52 141.5t17.5 121.5q0 29 -9 44.5t-23 15.5q-34 0 -71 -58.5t-59 -134t-22 -128.5q0 -68 42 -68z" />
    <glyph glyph-name="odieresis" unicode="&#xf6;" horiz-adv-x="456" 
d="M213 534q-31 0 -54 23t-23 54q0 29 23 51.5t54 22.5q30 0 52.5 -22.5t22.5 -51.5q0 -31 -22.5 -54t-52.5 -23zM450 534q-32 0 -54.5 23t-22.5 54q0 29 23 51.5t54 22.5q30 0 52.5 -22.5t22.5 -51.5q0 -31 -22.5 -54t-52.5 -23zM141 -10q-64 0 -103 32t-39 101
q0 74 42 147t115.5 121t154.5 48q144 0 144 -132q0 -117 -95.5 -217t-218.5 -100zM176 20q38 0 72.5 66t52 141.5t17.5 121.5q0 29 -9 44.5t-23 15.5q-34 0 -71 -58.5t-59 -134t-22 -128.5q0 -68 42 -68z" />
    <glyph glyph-name="divide" unicode="&#xf7;" horiz-adv-x="407" 
d="M258 328q-34 0 -56.5 22.5t-22.5 54.5t22.5 54t56.5 22q32 0 54 -22.5t22 -53.5q0 -32 -22 -54.5t-54 -22.5zM31 196l38 111h333l-38 -111h-333zM168 22q-34 0 -56.5 22.5t-22.5 54.5t22.5 54t56.5 22q32 0 54 -22.5t22 -53.5q0 -32 -22 -54.5t-54 -22.5z" />
    <glyph glyph-name="oslash" unicode="&#xf8;" horiz-adv-x="456" 
d="M372 431q83 -25 83 -124q0 -117 -95.5 -217t-218.5 -100q-26 0 -43 4l-26 -41l-21 11l23 37q-75 29 -75 122q0 74 42 147t115.5 121t154.5 48q19 0 37 -3l32 52l21 -11zM286 409q-33 0 -69 -56t-58.5 -129t-24.5 -128l180 286q-9 27 -28 27zM176 20q37 0 71.5 64.5
t52 138t18.5 122.5l-181 -288q9 -37 39 -37z" />
    <glyph glyph-name="ugrave" unicode="&#xf9;" horiz-adv-x="589" 
d="M362 487q-46 47 -131 101q11 32 41.5 55.5t61.5 23.5q53 -75 69 -156zM46 264l-21 22q106 151 209 151q41 0 55.5 -22t-1.5 -59l-77 -184q-38 -87 -18 -94q3 -1 7 -1q15 0 55.5 47.5t92.5 134t87 175.5h126l-109 -316q-15 -42 3 -38q24 6 77 75l6 8l25 -22
q-104 -151 -215 -151q-76 0 -46 73l79 188l-10 -1q-79 -146 -136 -203t-115 -57q-43 0 -60 26t-11.5 64t26.5 87l62 141q19 42 1 38q-26 -5 -81 -68q-5 -7 -11 -14z" />
    <glyph glyph-name="uacute" unicode="&#xfa;" horiz-adv-x="589" 
d="M364 487l-41 24q16 81 69 156q31 0 61.5 -23.5t41.5 -55.5q-85 -54 -131 -101zM46 264l-21 22q106 151 209 151q41 0 55.5 -22t-1.5 -59l-77 -184q-38 -87 -18 -94q3 -1 7 -1q15 0 55.5 47.5t92.5 134t87 175.5h126l-109 -316q-15 -42 3 -38q24 6 77 75l6 8l25 -22
q-104 -151 -215 -151q-76 0 -46 73l79 188l-10 -1q-79 -146 -136 -203t-115 -57q-43 0 -60 26t-11.5 64t26.5 87l62 141q19 42 1 38q-26 -5 -81 -68q-5 -7 -11 -14z" />
    <glyph glyph-name="ucircumflex" unicode="&#xfb;" horiz-adv-x="589" 
d="M439 680l89 -147l-18 -23l-93 76l-140 -76l-11 20zM46 264l-21 22q106 151 209 151q41 0 55.5 -22t-1.5 -59l-77 -184q-38 -87 -18 -94q3 -1 7 -1q15 0 55.5 47.5t92.5 134t87 175.5h126l-109 -316q-15 -42 3 -38q24 6 77 75l6 8l25 -22q-104 -151 -215 -151
q-76 0 -46 73l79 188l-10 -1q-79 -146 -136 -203t-115 -57q-43 0 -60 26t-11.5 64t26.5 87l62 141q19 42 1 38q-26 -5 -81 -68q-5 -7 -11 -14z" />
    <glyph glyph-name="udieresis" unicode="&#xfc;" horiz-adv-x="589" 
d="M269 534q-31 0 -54 23t-23 54q0 29 23 51.5t54 22.5q30 0 52.5 -22.5t22.5 -51.5q0 -31 -22.5 -54t-52.5 -23zM506 534q-32 0 -54.5 23t-22.5 54q0 29 23 51.5t54 22.5q30 0 52.5 -22.5t22.5 -51.5q0 -31 -22.5 -54t-52.5 -23zM46 264l-21 22q106 151 209 151
q41 0 55.5 -22t-1.5 -59l-77 -184q-38 -87 -18 -94q3 -1 7 -1q15 0 55.5 47.5t92.5 134t87 175.5h126l-109 -316q-15 -42 3 -38q24 6 77 75l6 8l25 -22q-104 -151 -215 -151q-76 0 -46 73l79 188l-10 -1q-79 -146 -136 -203t-115 -57q-43 0 -60 26t-11.5 64t26.5 87l62 141
q19 42 1 38q-26 -5 -81 -68q-5 -7 -11 -14z" />
    <glyph glyph-name="yacute" unicode="&#xfd;" horiz-adv-x="479" 
d="M433 588q-85 -54 -131 -101l-41 24q16 81 69 156q31 0 61.5 -23.5t41.5 -55.5zM321 379q60 47 124 58q70 13 70 -43q0 -48 -70.5 -145.5t-166 -192t-201 -166t-168.5 -71.5q-30 0 -50.5 17.5t-20.5 49.5q0 28 15.5 44t44.5 16t59.5 -26.5t54.5 -26.5q35 0 106 55l6 371
q-1 37 -21 18q-8 -7 -59 -72l-23 22q54 83 89.5 116.5t80.5 33.5q32 0 44.5 -16t11.5 -50l-7 -313q68 71 112.5 140t44.5 113q0 34 -15 45.5t-45 -3.5z" />
    <glyph glyph-name="thorn" unicode="&#xfe;" horiz-adv-x="489" 
d="M141 -3l-24 -71q-10 -36 0 -49t50 -20l-8 -32h-281l12 32q39 10 60 24t33 47l142 412l-87 -46l-14 34q69 50 123 75l44 129q16 38 1.5 56t-73.5 18l13 42l222 23l10 -15l-73 -217h5q88 0 140.5 -36.5t52.5 -107.5q0 -101 -98 -192t-250 -106zM354 281q0 56 -21.5 76.5
t-61.5 23.5l-117 -347q98 17 149 89t51 158z" />
    <glyph glyph-name="ydieresis" unicode="&#xff;" horiz-adv-x="479" 
d="M207 534q-31 0 -54 23t-23 54q0 29 23 51.5t54 22.5q30 0 52.5 -22.5t22.5 -51.5q0 -31 -22.5 -54t-52.5 -23zM444 534q-32 0 -54.5 23t-22.5 54q0 29 23 51.5t54 22.5q30 0 52.5 -22.5t22.5 -51.5q0 -31 -22.5 -54t-52.5 -23zM321 379q60 47 124 58q70 13 70 -43
q0 -48 -70.5 -145.5t-166 -192t-201 -166t-168.5 -71.5q-30 0 -50.5 17.5t-20.5 49.5q0 28 15.5 44t44.5 16t59.5 -26.5t54.5 -26.5q35 0 106 55l6 371q-1 37 -21 18q-8 -7 -59 -72l-23 22q54 83 89.5 116.5t80.5 33.5q32 0 44.5 -16t11.5 -50l-7 -313q68 71 112.5 140
t44.5 113q0 34 -15 45.5t-45 -3.5z" />
    <glyph glyph-name="Amacron" unicode="&#x100;" horiz-adv-x="626" 
d="M377 827h280l-15 -56h-280zM518 83q1 -14 2.5 -21.5t8 -12.5t9 -6.5t18.5 -4.5t23 -4l-10 -34h-299l11 38q24 2 39.5 6t28.5 16.5t12 33.5l-3 79h-201l-60 -85q-6 -8 -9 -14.5t-4.5 -11t1 -8t4 -5.5t7.5 -4.5t9 -3.5t12 -3.5t13 -3.5l-11 -34h-184l14 35q37 4 54 16
t45 54l390 532h46zM185 213h171l-9 229z" />
    <glyph glyph-name="amacron" unicode="&#x101;" horiz-adv-x="527" 
d="M246 627h280l-15 -56h-280zM391 118q-14 -41 3 -37q24 5 86 83l21 -22q-105 -152 -205 -152q-43 0 -56 27t0 58l30 86q-145 -171 -207 -171q-30 0 -51 26t-21 75q0 56 32 117.5t84.5 112.5t128 84.5t153.5 33.5q8 0 23 -1.5t40.5 -3.5t44.5 -4zM147 104q26 0 146 124
l50 146q-34 21 -59 21q-34 0 -72 -47t-61.5 -108.5t-23.5 -106.5q0 -29 20 -29z" />
    <glyph glyph-name="Abreve" unicode="&#x102;" horiz-adv-x="626" 
d="M658 878h32q-48 -163 -185 -163q-70 0 -103 45t-7 120h32q-9 -42 16 -61.5t73 -18.5q51 1 88.5 23.5t53.5 54.5zM518 83q1 -14 2.5 -21.5t8 -12.5t9 -6.5t18.5 -4.5t23 -4l-10 -34h-299l11 38q24 2 39.5 6t28.5 16.5t12 33.5l-3 79h-201l-60 -85q-6 -8 -9 -14.5t-4.5 -11
t1 -8t4 -5.5t7.5 -4.5t9 -3.5t12 -3.5t13 -3.5l-11 -34h-184l14 35q37 4 54 16t45 54l390 532h46zM185 213h171l-9 229z" />
    <glyph glyph-name="abreve" unicode="&#x103;" horiz-adv-x="527" 
d="M373 515q-70 0 -103 45t-7 120h32q-9 -42 16 -61.5t73 -18.5q51 1 88.5 23.5t53.5 54.5h32q-48 -163 -185 -163zM391 118q-14 -41 3 -37q24 5 86 83l21 -22q-105 -152 -205 -152q-43 0 -56 27t0 58l30 86q-145 -171 -207 -171q-30 0 -51 26t-21 75q0 56 32 117.5
t84.5 112.5t128 84.5t153.5 33.5q8 0 23 -1.5t40.5 -3.5t44.5 -4zM147 104q26 0 146 124l50 146q-34 21 -59 21q-34 0 -72 -47t-61.5 -108.5t-23.5 -106.5q0 -29 20 -29z" />
    <glyph glyph-name="Aogonek" unicode="&#x104;" horiz-adv-x="626" 
d="M518 83q1 -14 2.5 -21.5t8 -12.5t9 -6.5t18.5 -4.5t23 -4l-10 -34h-72q-85 -45 -85 -96q0 -23 13 -37.5t35 -14.5q17 0 31 5l-7 -24q-40 -32 -95 -32q-91 0 -91 73q0 42 28 73l86 53h-142l11 38q24 2 39.5 6t28.5 16.5t12 33.5l-3 79h-201l-60 -85q-6 -8 -9 -14.5
t-4.5 -11t1 -8t4 -5.5t7.5 -4.5t9 -3.5t12 -3.5t13 -3.5l-11 -34h-184l14 35q37 4 54 16t45 54l390 532h46zM185 213h171l-9 229z" />
    <glyph glyph-name="aogonek" unicode="&#x105;" horiz-adv-x="525" 
d="M401 22q-47 -31 -62.5 -50.5t-15.5 -42.5q0 -25 14.5 -43t40.5 -18q14 0 27 5v-24q-38 -32 -92 -32q-43 0 -72.5 20.5t-29.5 67.5q0 36 18 58l47 29q-30 6 -38.5 31t2.5 52l30 86q-145 -171 -207 -171q-30 0 -51 26t-21 75q0 56 32 117.5t84.5 112.5t128 84.5t153.5 33.5
q8 0 23 -1.5t40.5 -3.5t44.5 -4l-106 -312q-14 -41 3 -37q24 5 86 83l21 -22q-50 -73 -100 -111v-9zM147 104q26 0 146 124l50 146q-34 21 -59 21q-34 0 -72 -47t-61.5 -108.5t-23.5 -106.5q0 -29 20 -29z" />
    <glyph glyph-name="Cacute" unicode="&#x106;" horiz-adv-x="597" 
d="M429 687l-41 24q16 81 69 156q31 0 61.5 -23.5t41.5 -55.5q-85 -54 -131 -101zM296 -13q-116 0 -176.5 65t-60.5 170q0 106 59 204t158.5 158.5t211.5 60.5q59 0 102.5 -18t63.5 -43l-32 -131h-41q6 76 -16 112t-80 36q-77 0 -140 -65t-94 -152.5t-31 -168.5
q0 -77 34.5 -121.5t99.5 -44.5q40 0 83.5 15.5t75.5 45.5l23 -48q-38 -34 -102 -54.5t-138 -20.5z" />
    <glyph glyph-name="cacute" unicode="&#x107;" horiz-adv-x="387" 
d="M264 487l-41 24q16 81 69 156q31 0 61.5 -23.5t41.5 -55.5q-85 -54 -131 -101zM288 439q55 0 83.5 -33t28.5 -76q0 -31 -14 -49t-39 -18q-60 0 -48 97q3 27 -2 35t-24 8q-50 0 -90 -67t-40 -137q0 -51 25 -78.5t56 -27.5q23 0 52 13t51 43l19 -28q-33 -58 -92 -94.5
t-111 -36.5q-57 0 -98 39t-41 106q0 107 92 205.5t192 98.5z" />
    <glyph glyph-name="Cdotaccent" unicode="&#x10a;" horiz-adv-x="597" 
d="M481 668q-38 0 -66 27.5t-28 64.5t28 63t66 26t66 -26t28 -63t-28 -64.5t-66 -27.5zM296 -13q-116 0 -176.5 65t-60.5 170q0 106 59 204t158.5 158.5t211.5 60.5q59 0 102.5 -18t63.5 -43l-32 -131h-41q6 76 -16 112t-80 36q-77 0 -140 -65t-94 -152.5t-31 -168.5
q0 -77 34.5 -121.5t99.5 -44.5q40 0 83.5 15.5t75.5 45.5l23 -48q-38 -34 -102 -54.5t-138 -20.5z" />
    <glyph glyph-name="cdotaccent" unicode="&#x10b;" horiz-adv-x="387" 
d="M316 468q-38 0 -66 27.5t-28 64.5t28 63t66 26t66 -26t28 -63t-28 -64.5t-66 -27.5zM288 439q55 0 83.5 -33t28.5 -76q0 -31 -14 -49t-39 -18q-60 0 -48 97q3 27 -2 35t-24 8q-50 0 -90 -67t-40 -137q0 -51 25 -78.5t56 -27.5q23 0 52 13t51 43l19 -28q-33 -58 -92 -94.5
t-111 -36.5q-57 0 -98 39t-41 106q0 107 92 205.5t192 98.5z" />
    <glyph glyph-name="Ccaron" unicode="&#x10c;" horiz-adv-x="597" 
d="M461 708l-89 147l17 22l94 -75l139 75l12 -20zM296 -13q-116 0 -176.5 65t-60.5 170q0 106 59 204t158.5 158.5t211.5 60.5q59 0 102.5 -18t63.5 -43l-32 -131h-41q6 76 -16 112t-80 36q-77 0 -140 -65t-94 -152.5t-31 -168.5q0 -77 34.5 -121.5t99.5 -44.5
q40 0 83.5 15.5t75.5 45.5l23 -48q-38 -34 -102 -54.5t-138 -20.5z" />
    <glyph glyph-name="ccaron" unicode="&#x10d;" horiz-adv-x="387" 
d="M296 508l-89 147l17 22l94 -75l139 75l12 -20zM288 439q55 0 83.5 -33t28.5 -76q0 -31 -14 -49t-39 -18q-60 0 -48 97q3 27 -2 35t-24 8q-50 0 -90 -67t-40 -137q0 -51 25 -78.5t56 -27.5q23 0 52 13t51 43l19 -28q-33 -58 -92 -94.5t-111 -36.5q-57 0 -98 39t-41 106
q0 107 92 205.5t192 98.5z" />
    <glyph glyph-name="Dcaron" unicode="&#x10e;" horiz-adv-x="683" 
d="M678 857l-173 -149l-89 147l17 22l94 -75l139 75zM442 630q107 0 183.5 -56.5t76.5 -168.5q0 -97 -62.5 -190.5t-168.5 -154t-222 -60.5h-301l11 35q45 9 69 25.5t38 62.5l132 398q4 11 6 20t1.5 15.5t0 11.5t-4 9t-6 6t-9.5 4.5t-10.5 3.5t-14 3.5t-15.5 3.5l9 32h287z
M268 44q69 0 137.5 72.5t108 167t39.5 167.5q0 135 -119 135h-59l-150 -457q-16 -52 -7.5 -68.5t50.5 -16.5z" />
    <glyph glyph-name="dcaron" unicode="&#x10f;" horiz-adv-x="574" 
d="M564 656l-176 -538q-13 -41 4 -37q24 6 80 80l2 3l25 -22q-108 -152 -215 -152q-76 0 -50 73l32 93q-39 -46 -68 -77t-68.5 -60t-65.5 -29q-29 0 -50.5 26.5t-21.5 74.5q0 73 52.5 155t134.5 137.5t160 55.5q15 0 24 -1l32 94q17 38 3 56t-74 18l14 42l216 23zM617 661
q24 11 57 3t50 -33q-14 -70 -77 -158l-37 22q17 83 7 166zM148 102q27 0 140 119l53 153q-33 18 -56 18q-51 0 -103.5 -93.5t-52.5 -165.5q0 -31 19 -31z" />
    <glyph glyph-name="Dcroat" unicode="&#x110;" horiz-adv-x="704" 
d="M464 630q107 0 183 -56.5t76 -168.5q0 -72 -37.5 -145.5t-98 -130.5t-145 -93t-171.5 -36h-302l12 35q45 9 69 25.5t37 62.5l56 167q-32 0 -96 -2l10 46q66 -2 100 -2l63 189q4 11 6 19.5t1.5 15.5t0 12t-4 9t-6 6t-9.5 4.5t-11 3.5t-14.5 3.5t-15.5 3.5l9 32h288z
M289 44q70 0 138.5 72.5t108 167t39.5 167.5q0 135 -120 135h-59l-84 -255l130 3l-10 -46l-133 3l-53 -162q-16 -52 -7.5 -68.5t50.5 -16.5z" />
    <glyph glyph-name="dcroat" unicode="&#x111;" horiz-adv-x="520" 
d="M509 486l-121 -368q-13 -41 4 -37q24 6 80 80l2 3l25 -22q-108 -152 -215 -152q-76 0 -50 73l32 93q-39 -46 -68 -77t-68.5 -60t-65.5 -29q-29 0 -50.5 26.5t-21.5 74.5q0 73 52.5 155t134.5 137.5t160 55.5q15 0 24 -1l16 49l-144 -3l10 46q22 -1 46.5 -1.5t55 -1
t46.5 -0.5l2 5q17 38 3 56t-74 18l14 42l216 23l10 -15l-42 -128q36 0 108 2l-10 -46q-74 2 -111 2zM148 102q27 0 140 119l53 153q-33 18 -56 18q-51 0 -103.5 -93.5t-52.5 -165.5q0 -31 19 -31z" />
    <glyph glyph-name="Emacron" unicode="&#x112;" horiz-adv-x="580" 
d="M621 827l-15 -56h-280l15 56h280zM153 630h490l-42 -152h-31q16 59 6.5 82t-56.5 23h-57q-51 0 -76 -18t-44 -69l-50 -156h39q76 0 109 22t54 73h28l-71 -223h-27q10 35 6 53.5t-24 24.5t-76 6h-52l-60 -185q-9 -25 -11.5 -37t6 -18.5t20 -7.5t42.5 -1h38q52 0 93.5 29
t87.5 95h41l-94 -171h-494l11 35q45 9 69 25.5t38 62.5l131 398q4 11 6 19.5t1.5 15.5t0 12t-4 9t-6 6t-9.5 4.5t-11 3.5t-14.5 3.5t-15.5 3.5z" />
    <glyph glyph-name="emacron" unicode="&#x113;" horiz-adv-x="382" 
d="M177 627h280l-15 -56h-280zM309 439q95 0 95 -81q0 -18 -4.5 -33.5t-20.5 -35t-42.5 -36t-75 -33.5t-113.5 -31q-1 -7 -1 -21q0 -75 68 -75q56 0 100 51l20 -26q-37 -62 -92 -94.5t-107 -32.5q-57 0 -95 40t-38 105q0 70 48 141.5t119.5 116.5t138.5 45zM289 346
q0 44 -32 44q-35 0 -63.5 -50.5t-40.5 -114.5q45 10 75 27.5t42 37.5t15.5 32.5t3.5 23.5z" />
    <glyph glyph-name="Edotaccent" unicode="&#x116;" horiz-adv-x="580" 
d="M475 668q-38 0 -66 27.5t-28 64.5t28 63t66 26t66 -26t28 -63t-28 -64.5t-66 -27.5zM153 630h490l-42 -152h-31q16 59 6.5 82t-56.5 23h-57q-51 0 -76 -18t-44 -69l-50 -156h39q76 0 109 22t54 73h28l-71 -223h-27q10 35 6 53.5t-24 24.5t-76 6h-52l-60 -185
q-9 -25 -11.5 -37t6 -18.5t20 -7.5t42.5 -1h38q52 0 93.5 29t87.5 95h41l-94 -171h-494l11 35q45 9 69 25.5t38 62.5l131 398q4 11 6 19.5t1.5 15.5t0 12t-4 9t-6 6t-9.5 4.5t-11 3.5t-14.5 3.5t-15.5 3.5z" />
    <glyph glyph-name="edotaccent" unicode="&#x117;" horiz-adv-x="382" 
d="M311 468q-38 0 -66 27.5t-28 64.5t28 63t66 26t66 -26t28 -63t-28 -64.5t-66 -27.5zM309 439q95 0 95 -81q0 -18 -4.5 -33.5t-20.5 -35t-42.5 -36t-75 -33.5t-113.5 -31q-1 -7 -1 -21q0 -75 68 -75q56 0 100 51l20 -26q-37 -62 -92 -94.5t-107 -32.5q-57 0 -95 40
t-38 105q0 70 48 141.5t119.5 116.5t138.5 45zM289 346q0 44 -32 44q-35 0 -63.5 -50.5t-40.5 -114.5q45 10 75 27.5t42 37.5t15.5 32.5t3.5 23.5z" />
    <glyph glyph-name="Eogonek" unicode="&#x118;" horiz-adv-x="580" 
d="M153 630h490l-42 -152h-31q16 59 6.5 82t-56.5 23h-57q-51 0 -76 -18t-44 -69l-50 -156h39q76 0 109 22t54 73h28l-71 -223h-27q10 35 6 53.5t-24 24.5t-76 6h-52l-60 -185q-9 -25 -11.5 -37t6 -18.5t20 -7.5t42.5 -1h38q52 0 93.5 29t87.5 95h41l-94 -171h-52
q-67 -39 -67 -86q0 -23 13 -37.5t35 -14.5q17 0 31 5l-7 -24q-40 -32 -95 -32q-91 0 -91 73q0 42 28 73l70 43h-359l11 35q45 9 69 25.5t38 62.5l131 398q4 11 6 19.5t1.5 15.5t0 12t-4 9t-6 6t-9.5 4.5t-11 3.5t-14.5 3.5t-15.5 3.5z" />
    <glyph glyph-name="eogonek" unicode="&#x119;" horiz-adv-x="382" 
d="M404 358q0 -18 -4.5 -33.5t-20.5 -35t-42.5 -36t-75 -33.5t-113.5 -31q-1 -7 -1 -21q0 -75 68 -75q56 0 100 51l20 -26q-53 -90 -146 -119q-66 -40 -66 -85q0 -23 13 -37.5t35 -14.5q17 0 31 5l-7 -24q-40 -32 -95 -32q-91 0 -91 73q0 42 28 73l63 39q-44 11 -70.5 48.5
t-26.5 91.5q0 70 48 141.5t119.5 116.5t138.5 45q95 0 95 -81zM257 390q-35 0 -63.5 -50.5t-40.5 -114.5q45 10 75 27.5t42 37.5t15.5 32.5t3.5 23.5q0 44 -32 44z" />
    <glyph glyph-name="Ecaron" unicode="&#x11a;" horiz-adv-x="580" 
d="M628 857l-173 -149l-89 147l17 22l94 -75l139 75zM153 630h490l-42 -152h-31q16 59 6.5 82t-56.5 23h-57q-51 0 -76 -18t-44 -69l-50 -156h39q76 0 109 22t54 73h28l-71 -223h-27q10 35 6 53.5t-24 24.5t-76 6h-52l-60 -185q-9 -25 -11.5 -37t6 -18.5t20 -7.5t42.5 -1h38
q52 0 93.5 29t87.5 95h41l-94 -171h-494l11 35q45 9 69 25.5t38 62.5l131 398q4 11 6 19.5t1.5 15.5t0 12t-4 9t-6 6t-9.5 4.5t-11 3.5t-14.5 3.5t-15.5 3.5z" />
    <glyph glyph-name="ecaron" unicode="&#x11b;" horiz-adv-x="382" 
d="M464 657l-173 -149l-89 147l17 22l94 -75l139 75zM309 439q95 0 95 -81q0 -18 -4.5 -33.5t-20.5 -35t-42.5 -36t-75 -33.5t-113.5 -31q-1 -7 -1 -21q0 -75 68 -75q56 0 100 51l20 -26q-37 -62 -92 -94.5t-107 -32.5q-57 0 -95 40t-38 105q0 70 48 141.5t119.5 116.5
t138.5 45zM289 346q0 44 -32 44q-35 0 -63.5 -50.5t-40.5 -114.5q45 10 75 27.5t42 37.5t15.5 32.5t3.5 23.5z" />
    <glyph glyph-name="Gbreve" unicode="&#x11e;" horiz-adv-x="654" 
d="M490 715q-70 0 -103 45t-7 120h32q-9 -42 16 -61.5t73 -18.5q51 1 88.5 23.5t53.5 54.5h32q-48 -163 -185 -163zM305 -13q-118 0 -182 61t-66 164q-3 107 56 207.5t159.5 163t211.5 62.5q119 0 172 -61q-5 -46 -28 -131h-41q8 88 -17.5 118.5t-86.5 30.5
q-81 0 -148 -76.5t-100 -180.5t-30 -200q2 -59 22.5 -85t63.5 -26q97 0 135 122l5 18q10 33 11.5 51t-7 28.5t-23 14.5t-44.5 6l10 34h284l-12 -37q-66 -9 -85 -79l-14 -47q-24 -84 -15 -116q-108 -42 -231 -42z" />
    <glyph glyph-name="gbreve" unicode="&#x11f;" horiz-adv-x="469" 
d="M343 515q-70 0 -103 45t-7 120h32q-9 -42 16 -61.5t73 -18.5q51 1 88.5 23.5t53.5 54.5h32q-48 -163 -185 -163zM347 422q8 -3 26.5 -4t36 -1t51.5 0.5t54 0.5l-21 -90l-92 30q5 -20 5 -37q0 -74 -65.5 -122.5t-151.5 -48.5q-33 0 -60 9q-18 -6 -18 -16q0 -3 0.5 -4
l2.5 -5t8.5 -8t16.5 -8l85 -33q80 -32 110.5 -54t30.5 -61q0 -53 -46 -91t-108.5 -54.5t-127.5 -16.5q-92 0 -130.5 32.5t-36.5 75.5q0 42 134 103q-36 16 -51 32t-15 41q0 26 33.5 48t76.5 36q-41 32 -41 84q0 73 67 125.5t151 52.5q44 0 75 -16zM192 180q39 0 71.5 70
t32.5 124q0 34 -23 34q-39 0 -71.5 -64.5t-32.5 -124.5q0 -39 23 -39zM256 -85q0 13 -12 21.5t-54 25.5l-93 38q-36 -24 -60 -50.5t-25 -43.5q3 -60 102 -60q62 0 102 21t40 48z" />
    <glyph glyph-name="Gdotaccent" unicode="&#x120;" horiz-adv-x="654" 
d="M497 668q-38 0 -66 27.5t-28 64.5t28 63t66 26t66 -26t28 -63t-28 -64.5t-66 -27.5zM305 -13q-118 0 -182 61t-66 164q-3 107 56 207.5t159.5 163t211.5 62.5q119 0 172 -61q-5 -46 -28 -131h-41q8 88 -17.5 118.5t-86.5 30.5q-81 0 -148 -76.5t-100 -180.5t-30 -200
q2 -59 22.5 -85t63.5 -26q97 0 135 122l5 18q10 33 11.5 51t-7 28.5t-23 14.5t-44.5 6l10 34h284l-12 -37q-66 -9 -85 -79l-14 -47q-24 -84 -15 -116q-108 -42 -231 -42z" />
    <glyph glyph-name="gdotaccent" unicode="&#x121;" horiz-adv-x="469" 
d="M350 468q-38 0 -66 27.5t-28 64.5t28 63t66 26t66 -26t28 -63t-28 -64.5t-66 -27.5zM515 418l-21 -90l-92 30q5 -20 5 -37q0 -74 -65.5 -122.5t-151.5 -48.5q-33 0 -60 9q-18 -6 -18 -16q0 -3 0.5 -4l2.5 -5t8.5 -8t16.5 -8l85 -33q80 -32 110.5 -54t30.5 -61
q0 -53 -46 -91t-108.5 -54.5t-127.5 -16.5q-92 0 -130.5 32.5t-36.5 75.5q0 42 134 103q-36 16 -51 32t-15 41q0 26 33.5 48t76.5 36q-41 32 -41 84q0 73 67 125.5t151 52.5q44 0 75 -16q8 -3 26.5 -4t36 -1t51.5 0.5t54 0.5zM192 180q39 0 71.5 70t32.5 124q0 34 -23 34
q-39 0 -71.5 -64.5t-32.5 -124.5q0 -39 23 -39zM256 -85q0 13 -12 21.5t-54 25.5l-93 38q-36 -24 -60 -50.5t-25 -43.5q3 -60 102 -60q62 0 102 21t40 48z" />
    <glyph glyph-name="uni0122" unicode="&#x122;" horiz-adv-x="654" 
d="M305 -13q-118 0 -182 61t-66 164q-3 107 56 207.5t159.5 163t211.5 62.5q119 0 172 -61q-5 -46 -28 -131h-41q8 88 -17.5 118.5t-86.5 30.5q-81 0 -148 -76.5t-100 -180.5t-30 -200q2 -59 22.5 -85t63.5 -26q97 0 135 122l5 18q10 33 11.5 51t-7 28.5t-23 14.5t-44.5 6
l10 34h284l-12 -37q-66 -9 -85 -79l-14 -47q-24 -84 -15 -116q-108 -42 -231 -42zM83 -387l-13 37q49 15 73 33t37 54q4 8 4 22t-6 17q-52 33 -52 75q0 36 25.5 63.5t64.5 27.5q37 0 60.5 -25.5t23.5 -70.5q0 -77 -61 -149.5t-156 -83.5z" />
    <glyph glyph-name="uni0123" unicode="&#x123;" horiz-adv-x="469" 
d="M333 476q-37 0 -61 25.5t-24 70.5q0 77 61.5 149t156.5 83l12 -36q-49 -15 -72.5 -33t-37.5 -55q-4 -7 -3.5 -21t6.5 -17q52 -33 52 -76q0 -35 -26 -62.5t-64 -27.5zM515 418l-21 -90l-92 30q5 -20 5 -37q0 -74 -65.5 -122.5t-151.5 -48.5q-33 0 -60 9q-18 -6 -18 -16
q0 -3 0.5 -4l2.5 -5t8.5 -8t16.5 -8l85 -33q80 -32 110.5 -54t30.5 -61q0 -53 -46 -91t-108.5 -54.5t-127.5 -16.5q-92 0 -130.5 32.5t-36.5 75.5q0 42 134 103q-36 16 -51 32t-15 41q0 26 33.5 48t76.5 36q-41 32 -41 84q0 73 67 125.5t151 52.5q44 0 75 -16q8 -3 26.5 -4
t36 -1t51.5 0.5t54 0.5zM192 180q39 0 71.5 70t32.5 124q0 34 -23 34q-39 0 -71.5 -64.5t-32.5 -124.5q0 -39 23 -39zM256 -85q0 13 -12 21.5t-54 25.5l-93 38q-36 -24 -60 -50.5t-25 -43.5q3 -60 102 -60q62 0 102 21t40 48z" />
    <glyph glyph-name="Hbar" unicode="&#x126;" horiz-adv-x="730" 
d="M533 630h317l-12 -33q-31 -7 -47 -14t-34 -25.5t-28 -50.5l-130 -398q-8 -25 -9.5 -39t8.5 -22t17.5 -10t32.5 -7l-10 -31h-307l8 32q42 8 67 26.5t40 64.5l55 167h-223l-59 -181q-8 -25 -9.5 -39t8 -22t17.5 -10t33 -7l-11 -31h-307l9 32q41 8 66 26.5t40 64.5l131 398
q4 11 6 19.5t1.5 15.5t0.5 12t-4 9t-5.5 6t-9.5 4.5t-11 3.5t-15 3.5t-16 3.5l9 32h317l-12 -33q-30 -7 -46 -13.5t-34.5 -25.5t-28.5 -51l-22 -67h224l26 81q3 10 5 18t3.5 14.5t0 11.5t-1.5 8.5t-5 6.5t-6.5 5t-9 4t-10.5 2.5t-13.5 3t-14.5 3.5zM292 335h223l20 61h-223z
" />
    <glyph glyph-name="hbar" unicode="&#x127;" horiz-adv-x="535" 
d="M433 439q47 0 82 -26t32 -78q-3 -54 -49 -136t-111 -145t-114 -63q-27 0 -53 15t-26 43q0 19 15 34t37 15q17 0 23 -18t7 -36.5t6 -18.5q33 0 68 111t39 188q2 34 -1.5 42.5t-16.5 8.5q-56 0 -119.5 -107t-116.5 -268h-133l169 486q-30 0 -88 -2l10 46q62 -2 93 -2l1 4
q16 38 1 56t-74 18l14 42l218 23l10 -15l-40 -129q81 0 162 3l-10 -46q-82 3 -165 3l-22 -72l-106 -203l5 1q78 121 138.5 173.5t114.5 52.5z" />
    <glyph glyph-name="Imacron" unicode="&#x12a;" horiz-adv-x="350" 
d="M210 771l15 56h280l-15 -56h-280zM-50 0l9 32q41 8 66 26.5t40 64.5l131 398q4 11 6 19.5t1.5 15.5t0.5 12t-4 9t-5.5 6t-9.5 4.5t-11 3.5t-15 3.5t-16 3.5l9 32h317l-12 -33q-30 -7 -46 -13.5t-34.5 -25.5t-28.5 -51l-129 -398q-8 -25 -9.5 -39t8 -22t17.5 -10t33 -7
l-11 -31h-307z" />
    <glyph glyph-name="imacron" unicode="&#x12b;" horiz-adv-x="317" 
d="M131 571l15 56h280l-15 -56h-280zM267 162l24 -22q-108 -150 -207 -150q-44 0 -56.5 28t4.5 57l105 234q16 37 -2 34q-24 -5 -74 -62l-13 -16l-23 22q105 150 203 150q44 0 58.5 -28t-1.5 -57l-104 -234q-17 -39 0 -36q24 5 79 71z" />
    <glyph glyph-name="Iogonek" unicode="&#x12e;" horiz-adv-x="350" 
d="M152 630h317l-12 -33q-30 -7 -46 -13.5t-34.5 -25.5t-28.5 -51l-129 -398q-8 -25 -9.5 -39t8 -22t17.5 -10t33 -7l-11 -31h-65q-85 -45 -85 -96q0 -23 13 -37.5t35 -14.5q17 0 31 5l-7 -24q-40 -32 -95 -32q-91 0 -91 73q0 42 28 73l86 53h-157l9 32q41 8 66 26.5
t40 64.5l131 398q4 11 6 19.5t1.5 15.5t0.5 12t-4 9t-5.5 6t-9.5 4.5t-11 3.5t-15 3.5t-16 3.5z" />
    <glyph glyph-name="iogonek" unicode="&#x12f;" horiz-adv-x="317" 
d="M281 649q38 0 66 -26t28 -63t-28 -64.5t-66 -27.5t-66 27.5t-28 64.5t28 63t66 26zM285 352l-104 -234q-17 -39 0 -36q24 5 79 71l7 9l24 -22q-64 -88 -124 -125l-1 -5q-85 -45 -85 -96q0 -23 13 -37.5t35 -14.5q17 0 31 5l-7 -24q-40 -32 -95 -32q-91 0 -91 73
q0 42 28 73l60 37q-25 8 -30.5 33t7.5 48l105 234q16 37 -2 34q-24 -5 -74 -62l-13 -16l-23 22q105 150 203 150q44 0 58.5 -28t-1.5 -57z" />
    <glyph glyph-name="Idotaccent" unicode="&#x130;" horiz-adv-x="350" 
d="M360 668q-38 0 -66 27.5t-28 64.5t28 63t66 26t66 -26t28 -63t-28 -64.5t-66 -27.5zM-50 0l9 32q41 8 66 26.5t40 64.5l131 398q4 11 6 19.5t1.5 15.5t0.5 12t-4 9t-5.5 6t-9.5 4.5t-11 3.5t-15 3.5t-16 3.5l9 32h317l-12 -33q-30 -7 -46 -13.5t-34.5 -25.5t-28.5 -51
l-129 -398q-8 -25 -9.5 -39t8 -22t17.5 -10t33 -7l-11 -31h-307z" />
    <glyph glyph-name="dotlessi" unicode="&#x131;" horiz-adv-x="317" 
d="M267 162l24 -22q-108 -150 -207 -150q-44 0 -56.5 28t4.5 57l105 234q16 37 -2 34q-24 -5 -74 -62l-13 -16l-23 22q105 150 203 150q44 0 58.5 -28t-1.5 -57l-104 -234q-17 -39 0 -36q24 5 79 71z" />
    <glyph glyph-name="IJ" unicode="&#x132;" horiz-adv-x="674" 
d="M-50 0l9 32q41 8 66 26.5t40 64.5l131 398q4 11 6 19.5t1.5 15.5t0.5 12t-4 9t-5.5 6t-9.5 4.5t-11 3.5t-15 3.5t-16 3.5l9 32h317l-12 -33q-30 -7 -46 -13.5t-34.5 -25.5t-28.5 -51l-129 -398q-8 -25 -9.5 -39t8 -22t17.5 -10t33 -7l-11 -31h-307zM209 -181l14 51
q64 14 95 49t56 110l160 492q3 10 5 18t3 14.5t-1 12t-2 9t-5 6.5t-6 4.5t-8.5 4t-9.5 3t-12 2.5t-12 3l8 32h308l-10 -33q-45 -8 -67.5 -25.5t-38.5 -64.5l-166 -510q-16 -48 -47.5 -82t-77.5 -52.5t-87 -27.5t-99 -16z" />
    <glyph glyph-name="ij" unicode="&#x133;" horiz-adv-x="613" 
d="M273 497q-37 0 -64 25.5t-27 60.5q0 36 27 61t64 25q36 0 63 -25t27 -61q0 -35 -27 -60.5t-63 -25.5zM601 497q-36 0 -63.5 25.5t-27.5 60.5q0 36 27.5 61t63.5 25t63.5 -25t27.5 -61q0 -35 -27.5 -60.5t-63.5 -25.5zM267 162l24 -22q-108 -150 -207 -150q-44 0 -56.5 28
t4.5 57l105 234q16 37 -2 34q-24 -5 -74 -62l-13 -16l-23 22q105 150 203 150q44 0 58.5 -28t-1.5 -57l-104 -234q-17 -39 0 -36q24 5 79 71zM556 435q43 0 57.5 -28.5t-0.5 -66.5l-93 -269q-81 -246 -250 -246q-54 0 -82 25t-28 63q0 29 17 49t45 20q59 0 42 -88
q-6 -32 23 -32q26 0 38.5 22t34.5 94q5 14 7 22l98 307q13 40 -8 32q-29 -11 -80 -76l-23 22q104 150 202 150z" />
    <glyph glyph-name="uni0136" unicode="&#x136;" horiz-adv-x="704" 
d="M749 598q-34 0 -64 -10t-46 -21t-42 -31l-183 -143l141 -291q21 -45 39.5 -57t60.5 -14l-11 -31h-230q0 1 4 20t3 21t-4 20l-112 247l-29 -23l-57 -176q-8 -25 -9.5 -39t8 -22t17.5 -10t33 -7l-11 -31h-307l9 32q41 8 66 26.5t40 64.5l131 398q4 11 6 19.5t1.5 15.5
t0.5 12t-4 9t-5.5 6t-9.5 4.5t-11 3.5t-15 3.5t-16 3.5l9 32h317l-12 -33q-30 -7 -46 -13.5t-34.5 -25.5t-28.5 -51l-49 -152l249 197q31 24 25.5 35t-46.5 9l12 34h220zM245 -58q37 0 60.5 -25.5t23.5 -70.5q0 -77 -61 -149.5t-156 -83.5l-13 37q49 15 73 33t37 54
q4 8 4 22t-6 17q-52 33 -52 75q0 36 25.5 63.5t64.5 27.5z" />
    <glyph glyph-name="uni0137" unicode="&#x137;" horiz-adv-x="545" 
d="M0 0l187 532q16 38 1 56t-74 18l14 42l218 23l10 -15l-223 -656h-133zM564 398q-11 -1 -21 -2.5t-17.5 -3t-17.5 -6t-15 -6.5t-16 -9t-15 -10t-18 -12.5t-19 -13.5l-58 -43l56 -177q13 -40 28.5 -44.5t46.5 21.5l10 -26q-37 -36 -76.5 -56t-64.5 -20q-50 0 -72 74
l-54 191l146 107q13 11 17.5 17.5t-1 10.5t-14.5 5.5t-27 2.5l8 32h203zM22 -387l-13 37q49 15 73 33t37 54q4 8 4 22t-6 17q-52 33 -52 75q0 36 25.5 63.5t64.5 27.5q37 0 60.5 -25.5t23.5 -70.5q0 -77 -61 -149.5t-156 -83.5z" />
    <glyph glyph-name="Lacute" unicode="&#x139;" horiz-adv-x="554" 
d="M281 687l-41 24q16 81 69 156q31 0 61.5 -23.5t41.5 -55.5q-85 -54 -131 -101zM-52 0l11 35q45 9 69 25.5t38 62.5l132 398q4 11 6 20t1.5 15.5t0 11.5t-4 9t-6 6t-9.5 4.5t-10.5 3.5t-14 3.5t-15.5 3.5l9 32h312l-12 -33q-49 -10 -69.5 -26t-36.5 -64l-130 -393
q-13 -40 -3 -52t60 -12h41q55 0 96.5 27t87.5 98l35 -9l-88 -166h-500z" />
    <glyph glyph-name="lacute" unicode="&#x13a;" horiz-adv-x="310" 
d="M247 687l-41 24q16 81 69 156q31 0 61.5 -23.5t41.5 -55.5q-85 -54 -131 -101zM178 118q-13 -45 7 -36q27 11 79 82l25 -22q-108 -152 -215 -152q-76 0 -50 73l161 469q17 38 3 56t-74 18l15 42l216 23l10 -15z" />
    <glyph glyph-name="uni013B" unicode="&#x13b;" horiz-adv-x="554" 
d="M-52 0l11 35q45 9 69 25.5t38 62.5l132 398q4 11 6 20t1.5 15.5t0 11.5t-4 9t-6 6t-9.5 4.5t-10.5 3.5t-14 3.5t-15.5 3.5l9 32h312l-12 -33q-49 -10 -69.5 -26t-36.5 -64l-130 -393q-13 -40 -3 -52t60 -12h41q55 0 96.5 27t87.5 98l35 -9l-88 -166h-500zM40 -387l-13 37
q49 15 73 33t37 54q4 8 4 22t-6 17q-52 33 -52 75q0 36 25.5 63.5t64.5 27.5q37 0 60.5 -25.5t23.5 -70.5q0 -77 -61 -149.5t-156 -83.5z" />
    <glyph glyph-name="uni013C" unicode="&#x13c;" horiz-adv-x="310" 
d="M178 118q-13 -45 7 -36q27 11 79 82l25 -22q-108 -152 -215 -152q-76 0 -50 73l161 469q17 38 3 56t-74 18l15 42l216 23l10 -15zM-93 -387l-13 37q49 15 73 33t37 54q4 8 4 22t-6 17q-52 33 -52 75q0 36 25.5 63.5t64.5 27.5q37 0 60.5 -25.5t23.5 -70.5
q0 -77 -61 -149.5t-156 -83.5z" />
    <glyph glyph-name="Lcaron" unicode="&#x13d;" horiz-adv-x="554" 
d="M453 313l-12 37q49 15 72.5 32.5t37.5 54.5q4 7 3.5 21t-5.5 18q-52 32 -52 75q0 35 25.5 63t63.5 28q37 0 61 -25.5t24 -70.5q0 -77 -61 -149.5t-157 -83.5zM-52 0l11 35q45 9 69 25.5t38 62.5l132 398q4 11 6 20t1.5 15.5t0 11.5t-4 9t-6 6t-9.5 4.5t-10.5 3.5t-14 3.5
t-15.5 3.5l9 32h312l-12 -33q-49 -10 -69.5 -26t-36.5 -64l-130 -393q-13 -40 -3 -52t60 -12h41q55 0 96.5 27t87.5 98l35 -9l-88 -166h-500z" />
    <glyph glyph-name="lcaron" unicode="&#x13e;" horiz-adv-x="364" 
d="M428 483l-35 22q15 79 6 166q25 11 57.5 3t48.5 -33q-12 -70 -77 -158zM178 118q-13 -45 7 -36q27 11 79 82l25 -22q-108 -152 -215 -152q-76 0 -50 73l161 469q17 38 3 56t-74 18l15 42l216 23l10 -15z" />
    <glyph glyph-name="Ldot" unicode="&#x13f;" horiz-adv-x="554" 
d="M-52 0l11 35q45 9 69 25.5t38 62.5l132 398q4 11 6 20t1.5 15.5t0 11.5t-4 9t-6 6t-9.5 4.5t-10.5 3.5t-14 3.5t-15.5 3.5l9 32h312l-12 -33q-49 -10 -69.5 -26t-36.5 -64l-130 -393q-13 -40 -3 -52t60 -12h41q55 0 96.5 27t87.5 98l35 -9l-88 -166h-500zM470 223
q-37 0 -63 26.5t-26 64.5q0 35 26 61t63 26q35 0 61 -26t26 -61q0 -38 -25.5 -64.5t-61.5 -26.5z" />
    <glyph glyph-name="ldot" unicode="&#x140;" horiz-adv-x="478" 
d="M178 118q-13 -45 7 -36q27 11 79 82l25 -22q-108 -152 -215 -152q-76 0 -50 73l161 469q17 38 3 56t-74 18l15 42l216 23l10 -15zM447 247q-37 0 -63 26.5t-26 64.5q0 35 26 61t63 26q35 0 61 -26t26 -61q0 -38 -25.5 -64.5t-61.5 -26.5z" />
    <glyph glyph-name="Lslash" unicode="&#x141;" horiz-adv-x="557" 
d="M504 175l34 -9l-88 -166h-499l11 35q45 9 69 25.5t38 62.5l42 128q-62 -24 -71 -28v62l92 27l69 209q4 11 6 20t1.5 15.5t0 11.5t-4 9t-6 6t-9.5 4.5t-10.5 3.5t-14 3.5t-15.5 3.5l8 32h313l-12 -33q-49 -10 -69.5 -26t-36.5 -64l-45 -136q60 21 137 51v-62
q-87 -23 -156 -46l-66 -200q-14 -40 -3.5 -52t60.5 -12h41q55 0 96.5 27t87.5 98z" />
    <glyph glyph-name="lslash" unicode="&#x142;" horiz-adv-x="310" 
d="M355 656l-86 -263q6 2 31.5 12.5t39.5 15.5v-60q-31 -8 -91 -28l-71 -215q-13 -45 7 -36q27 11 79 82l25 -22q-108 -152 -215 -152q-76 0 -50 73l74 216q-8 -3 -30 -12t-34 -13v60q51 14 85 25l66 193q17 38 3 56t-74 18l15 42l216 23z" />
    <glyph glyph-name="Nacute" unicode="&#x143;" horiz-adv-x="648" 
d="M597 788q-85 -54 -131 -101l-41 24q16 81 69 156q31 0 61.5 -23.5t41.5 -55.5zM564 630h209l-10 -32q-41 -6 -67 -25t-41 -66l-165 -507h-68l-173 534l-138 -425q-8 -25 -9 -39.5t9.5 -22t20.5 -10t35 -6.5l-10 -31h-206l8 32q41 6 67.5 25t41.5 66l131 398q4 11 6 20
t2 15.5t-0.5 11.5t-4 9t-5.5 6t-8.5 4.5t-10 3.5t-13 3.5t-13.5 3.5l6 32h230l124 -402l100 293q7 20 7.5 33t-1.5 21t-13.5 12.5t-20 6.5t-29.5 5z" />
    <glyph glyph-name="nacute" unicode="&#x144;" horiz-adv-x="587" 
d="M363 487l-41 24q16 81 69 156q31 0 61.5 -23.5t41.5 -55.5q-85 -54 -131 -101zM535 164l26 -22q-107 -152 -214 -152q-41 0 -54.5 20t-1.5 53l83 193q35 86 22 93l-8 1q-26 0 -104.5 -112.5t-129.5 -237.5h-125l108 309q15 43 -4 38q-26 -7 -85 -82l-23 22
q105 150 203 150q40 0 52 -21t-3 -52l-77 -186h13q76 142 136 200.5t119 58.5q42 0 59 -27t11 -66.5t-28 -88.5l-63 -137q-19 -40 -1 -37q24 5 71 61q10 11 18 22z" />
    <glyph glyph-name="uni0145" unicode="&#x145;" horiz-adv-x="648" 
d="M564 630h209l-10 -32q-41 -6 -67 -25t-41 -66l-165 -507h-68l-173 534l-138 -425q-8 -25 -9 -39.5t9.5 -22t20.5 -10t35 -6.5l-10 -31h-206l8 32q41 6 67.5 25t41.5 66l131 398q4 11 6 20t2 15.5t-0.5 11.5t-4 9t-5.5 6t-8.5 4.5t-10 3.5t-13 3.5t-13.5 3.5l6 32h230
l124 -402l100 293q7 20 7.5 33t-1.5 21t-13.5 12.5t-20 6.5t-29.5 5zM220 -58q37 0 60.5 -25.5t23.5 -70.5q0 -77 -61 -149.5t-156 -83.5l-13 37q49 15 73 33t37 54q4 8 4 22t-6 17q-52 33 -52 75q0 36 25.5 63.5t64.5 27.5z" />
    <glyph glyph-name="uni0146" unicode="&#x146;" horiz-adv-x="587" 
d="M535 164l26 -22q-107 -152 -214 -152q-41 0 -54.5 20t-1.5 53l83 193q35 86 22 93l-8 1q-26 0 -104.5 -112.5t-129.5 -237.5h-125l108 309q15 43 -4 38q-26 -7 -85 -82l-23 22q105 150 203 150q40 0 52 -21t-3 -52l-77 -186h13q76 142 136 200.5t119 58.5q42 0 59 -27
t11 -66.5t-28 -88.5l-63 -137q-19 -40 -1 -37q24 5 71 61q10 11 18 22zM49 -387l-13 37q49 15 73 33t37 54q4 8 4 22t-6 17q-52 33 -52 75q0 36 25.5 63.5t64.5 27.5q37 0 60.5 -25.5t23.5 -70.5q0 -77 -61 -149.5t-156 -83.5z" />
    <glyph glyph-name="Ncaron" unicode="&#x147;" horiz-adv-x="648" 
d="M670 857l-173 -149l-89 147l17 22l94 -75l139 75zM564 630h209l-10 -32q-41 -6 -67 -25t-41 -66l-165 -507h-68l-173 534l-138 -425q-8 -25 -9 -39.5t9.5 -22t20.5 -10t35 -6.5l-10 -31h-206l8 32q41 6 67.5 25t41.5 66l131 398q4 11 6 20t2 15.5t-0.5 11.5t-4 9t-5.5 6
t-8.5 4.5t-10 3.5t-13 3.5t-13.5 3.5l6 32h230l124 -402l100 293q7 20 7.5 33t-1.5 21t-13.5 12.5t-20 6.5t-29.5 5z" />
    <glyph glyph-name="ncaron" unicode="&#x148;" horiz-adv-x="587" 
d="M394 508l-89 147l17 22l94 -75l139 75l12 -20zM535 164l26 -22q-107 -152 -214 -152q-41 0 -54.5 20t-1.5 53l83 193q35 86 22 93l-8 1q-26 0 -104.5 -112.5t-129.5 -237.5h-125l108 309q15 43 -4 38q-26 -7 -85 -82l-23 22q105 150 203 150q40 0 52 -21t-3 -52l-77 -186
h13q76 142 136 200.5t119 58.5q42 0 59 -27t11 -66.5t-28 -88.5l-63 -137q-19 -40 -1 -37q24 5 71 61q10 11 18 22z" />
    <glyph glyph-name="Eng" unicode="&#x14a;" horiz-adv-x="648" 
d="M564 630h209l-10 -32q-41 -6 -67 -25t-41 -66l-98 -302h5l-66 -208q-12 -39 -37.5 -68.5t-52.5 -46.5t-68 -30t-69.5 -18.5t-72.5 -11.5q-14 13 -2 48q66 15 100 51t56 108l30 99l-131 406l-138 -425q-8 -25 -9 -39.5t9.5 -22t20.5 -10t35 -6.5l-10 -31h-206l8 32
q41 6 67.5 25t41.5 66l131 398q4 11 6 20t2 15.5t-0.5 11.5t-4 9t-5.5 6t-8.5 4.5t-10 3.5t-13 3.5t-13.5 3.5l6 32h230l124 -402l100 293q7 20 7.5 33t-1.5 21t-13.5 12.5t-20 6.5t-29.5 5z" />
    <glyph glyph-name="eng" unicode="&#x14b;" horiz-adv-x="542" 
d="M468 437q112 0 44 -182l-67 -184q-43 -121 -106.5 -183.5t-136.5 -62.5q-57 0 -86.5 25t-29.5 63q0 29 17 49t45 20q59 0 42 -88q-6 -32 23 -32q28 0 41 25t39 113l82 256q28 85 22 91q-2 3 -9 3q-26 0 -104.5 -112.5t-129.5 -237.5h-125l108 309q15 43 -4 38
q-26 -7 -85 -82l-23 22q105 150 203 150q40 0 52 -21t-3 -52l-77 -186h13q76 142 136 200.5t119 58.5z" />
    <glyph glyph-name="Omacron" unicode="&#x14c;" horiz-adv-x="679" 
d="M375 771l15 56h280l-15 -56h-280zM277 -13q-100 0 -162 59t-62 157q0 106 57.5 208.5t154.5 168t203 65.5q101 0 162.5 -58t61.5 -157q0 -80 -34.5 -160.5t-90.5 -142.5t-133 -101t-157 -39zM281 31q70 0 131.5 85t93 192.5t31.5 192.5q0 50 -17 75t-56 25
q-52 0 -101.5 -50.5t-82 -124t-52.5 -152.5t-20 -139q0 -53 17 -78.5t56 -25.5z" />
    <glyph glyph-name="omacron" unicode="&#x14d;" horiz-adv-x="456" 
d="M210 571l15 56h280l-15 -56h-280zM141 -10q-64 0 -103 32t-39 101q0 74 42 147t115.5 121t154.5 48q144 0 144 -132q0 -117 -95.5 -217t-218.5 -100zM176 20q38 0 72.5 66t52 141.5t17.5 121.5q0 29 -9 44.5t-23 15.5q-34 0 -71 -58.5t-59 -134t-22 -128.5q0 -68 42 -68z
" />
    <glyph glyph-name="Ohungarumlaut" unicode="&#x150;" horiz-adv-x="679" 
d="M415 687l-41 24q16 81 69 156q31 0 61.5 -23.5t41.5 -55.5q-85 -54 -131 -101zM609 687l-41 24q14 78 69 156q31 0 61 -23.5t41 -55.5q-83 -52 -130 -101zM277 -13q-100 0 -162 59t-62 157q0 106 57.5 208.5t154.5 168t203 65.5q101 0 162.5 -58t61.5 -157
q0 -80 -34.5 -160.5t-90.5 -142.5t-133 -101t-157 -39zM281 31q70 0 131.5 85t93 192.5t31.5 192.5q0 50 -17 75t-56 25q-52 0 -101.5 -50.5t-82 -124t-52.5 -152.5t-20 -139q0 -53 17 -78.5t56 -25.5z" />
    <glyph glyph-name="ohungarumlaut" unicode="&#x151;" horiz-adv-x="456" 
d="M251 487l-41 24q16 81 69 156q31 0 61.5 -23.5t41.5 -55.5q-85 -54 -131 -101zM445 487l-41 24q14 78 69 156q31 0 61 -23.5t41 -55.5q-83 -52 -130 -101zM141 -10q-64 0 -103 32t-39 101q0 74 42 147t115.5 121t154.5 48q144 0 144 -132q0 -117 -95.5 -217t-218.5 -100z
M176 20q38 0 72.5 66t52 141.5t17.5 121.5q0 29 -9 44.5t-23 15.5q-34 0 -71 -58.5t-59 -134t-22 -128.5q0 -68 42 -68z" />
    <glyph glyph-name="OE" unicode="&#x152;" horiz-adv-x="938" 
d="M550 630h451l-42 -152h-31q16 59 6.5 82t-56.5 23h-57q-51 0 -76 -18t-44 -69l-50 -156h39q76 0 109 22t54 73h28l-71 -223h-27q10 35 6 53.5t-24 24.5t-76 6h-52l-60 -185q-9 -25 -11.5 -37t6 -18.5t20 -7.5t42.5 -1h38q52 0 93.5 29t87.5 95h41l-94 -171h-450
q-46 -12 -77 -12q-100 0 -158.5 59t-58.5 159q0 109 53.5 211t146 166.5t195.5 64.5q57 0 99 -18zM200 139q0 -105 77 -105q62 0 95.5 33t64.5 104l2 -3l79 240l-2 -3q22 101 9 148.5t-78 47.5q-64 0 -123.5 -82t-91.5 -188t-32 -192z" />
    <glyph glyph-name="oe" unicode="&#x153;" horiz-adv-x="683" 
d="M702 359q0 -18 -4.5 -33.5t-20.5 -35t-42.5 -36t-75 -33.5t-113.5 -31q-1 -7 -1 -21q0 -75 68 -75q56 0 100 51l20 -26q-36 -62 -91.5 -94.5t-107.5 -32.5q-75 0 -112 64q-86 -66 -181 -66q-64 0 -103 32t-39 101q0 74 42 147t115.5 121t154.5 48q100 0 130 -64
q86 65 167 65q94 0 94 -81zM176 20q38 0 72.5 66t52 141.5t17.5 121.5q0 29 -9 44.5t-23 15.5q-34 0 -71 -58.5t-59 -134t-22 -128.5q0 -68 42 -68zM555 391q-35 0 -63 -50.5t-41 -114.5q45 10 75.5 27.5t42.5 37.5t15.5 32.5t3.5 23.5q0 44 -33 44z" />
    <glyph glyph-name="Racute" unicode="&#x154;" horiz-adv-x="670" 
d="M569 788q-85 -54 -131 -101l-41 24q16 81 69 156q31 0 61.5 -23.5t41.5 -55.5zM504 105q7 -34 36 -58t71 -12l1 -38q-32 -13 -92 -13q-135 0 -156 101l-18 90q-11 58 -27 75t-48 17l-52 -158q-8 -25 -10 -39t8 -22t18.5 -10t35.5 -7l-5 -31h-318l11 35q45 9 69 25.5
t38 62.5l132 398q4 11 6 20t1.5 15.5t0 11.5t-4 9t-6 6t-9.5 4.5t-10.5 3.5t-14 3.5t-15.5 3.5l9 32h279q221 0 221 -143q0 -88 -63 -142t-170 -71q31 -10 45 -33t22 -60zM443 583q-69 0 -88 -57l-70 -214h17q91 0 147.5 62t56.5 145q0 64 -63 64z" />
    <glyph glyph-name="racute" unicode="&#x155;" horiz-adv-x="465" 
d="M297 487l-41 24q16 81 69 156q31 0 61.5 -23.5t41.5 -55.5q-85 -54 -131 -101zM451 437q50 0 50 -55q0 -41 -29 -82t-65 -41q-29 0 -36.5 11.5t0.5 25.5t10 25.5t-9 11.5q-35 0 -89 -88.5t-128 -246.5q-63 -3 -125 0l108 311q12 37 0 37q-14 0 -39.5 -23.5t-50.5 -57.5
l-23 22q105 150 213 150q36 0 43.5 -21t-5.5 -52l-76 -188h13q83 142 139 201.5t99 59.5z" />
    <glyph glyph-name="uni0156" unicode="&#x156;" horiz-adv-x="670" 
d="M504 105q7 -34 36 -58t71 -12l1 -38q-32 -13 -92 -13q-135 0 -156 101l-18 90q-11 58 -27 75t-48 17l-52 -158q-8 -25 -10 -39t8 -22t18.5 -10t35.5 -7l-5 -31h-318l11 35q45 9 69 25.5t38 62.5l132 398q4 11 6 20t1.5 15.5t0 11.5t-4 9t-6 6t-9.5 4.5t-10.5 3.5t-14 3.5
t-15.5 3.5l9 32h279q221 0 221 -143q0 -88 -63 -142t-170 -71q31 -10 45 -33t22 -60zM443 583q-69 0 -88 -57l-70 -214h17q91 0 147.5 62t56.5 145q0 64 -63 64zM222 -58q37 0 60.5 -25.5t23.5 -70.5q0 -77 -61 -149.5t-156 -83.5l-13 37q49 15 73 33t37 54q4 8 4 22t-6 17
q-52 33 -52 75q0 36 25.5 63.5t64.5 27.5z" />
    <glyph glyph-name="uni0157" unicode="&#x157;" horiz-adv-x="465" 
d="M451 437q50 0 50 -55q0 -41 -29 -82t-65 -41q-29 0 -36.5 11.5t0.5 25.5t10 25.5t-9 11.5q-35 0 -89 -88.5t-128 -246.5q-63 -3 -125 0l108 311q12 37 0 37q-14 0 -39.5 -23.5t-50.5 -57.5l-23 22q105 150 213 150q36 0 43.5 -21t-5.5 -52l-76 -188h13q83 142 139 201.5
t99 59.5zM-84 -387l-13 37q49 15 73 33t37 54q4 8 4 22t-6 17q-52 33 -52 75q0 36 25.5 63.5t64.5 27.5q37 0 60.5 -25.5t23.5 -70.5q0 -77 -61 -149.5t-156 -83.5z" />
    <glyph glyph-name="Rcaron" unicode="&#x158;" horiz-adv-x="670" 
d="M643 857l-173 -149l-89 147l17 22l94 -75l139 75zM504 105q7 -34 36 -58t71 -12l1 -38q-32 -13 -92 -13q-135 0 -156 101l-18 90q-11 58 -27 75t-48 17l-52 -158q-8 -25 -10 -39t8 -22t18.5 -10t35.5 -7l-5 -31h-318l11 35q45 9 69 25.5t38 62.5l132 398q4 11 6 20
t1.5 15.5t0 11.5t-4 9t-6 6t-9.5 4.5t-10.5 3.5t-14 3.5t-15.5 3.5l9 32h279q221 0 221 -143q0 -88 -63 -142t-170 -71q31 -10 45 -33t22 -60zM443 583q-69 0 -88 -57l-70 -214h17q91 0 147.5 62t56.5 145q0 64 -63 64z" />
    <glyph glyph-name="rcaron" unicode="&#x159;" horiz-adv-x="465" 
d="M329 508l-89 147l17 22l94 -75l139 75l12 -20zM451 437q50 0 50 -55q0 -41 -29 -82t-65 -41q-29 0 -36.5 11.5t0.5 25.5t10 25.5t-9 11.5q-35 0 -89 -88.5t-128 -246.5q-63 -3 -125 0l108 311q12 37 0 37q-14 0 -39.5 -23.5t-50.5 -57.5l-23 22q105 150 213 150
q36 0 43.5 -21t-5.5 -52l-76 -188h13q83 142 139 201.5t99 59.5z" />
    <glyph glyph-name="Sacute" unicode="&#x15a;" horiz-adv-x="504" 
d="M384 687l-41 24q16 81 69 156q31 0 61.5 -23.5t41.5 -55.5q-85 -54 -131 -101zM186 -11q-128 0 -187 69l27 127h29q-8 -75 26 -113.5t93 -38.5q60 0 100.5 36.5t40.5 89.5q0 57 -62 107q-3 2 -19 14t-20.5 16t-18.5 15.5t-19.5 18.5t-16 19t-15 22.5t-10.5 24t-8 28.5
t-2 31q0 87 67.5 138.5t175.5 51.5q31 0 58.5 -5.5t42 -10.5t33.5 -17.5t21 -14.5t16 -15l-35 -128h-25q16 147 -94 147q-51 0 -79 -28.5t-28 -72.5q0 -56 48 -94q4 -3 24.5 -18t28.5 -22t25.5 -22.5t26 -28t19 -30.5t15 -38t4.5 -42q0 -93 -81.5 -154.5t-200.5 -61.5z" />
    <glyph glyph-name="sacute" unicode="&#x15b;" horiz-adv-x="337" 
d="M365 588q-85 -54 -131 -101l-41 24q16 81 69 156q31 0 61.5 -23.5t41.5 -55.5zM339 373q0 -53 -94 -143q39 -50 39 -92q0 -64 -67 -106t-139 -42q-49 0 -77.5 23t-28.5 53q0 27 30 56l37 -7q2 -31 26.5 -58t53.5 -27q38 0 38 50q0 24 -16.5 52t-35.5 49.5t-35.5 53.5
t-16.5 64q0 66 60 103t127 37q38 0 68.5 -15.5t30.5 -50.5zM180 349q0 -19 9.5 -39.5t16.5 -29.5t27 -35q33 50 33 95q0 27 -10.5 43.5t-29.5 16.5t-32.5 -13t-13.5 -38z" />
    <glyph glyph-name="Scedilla" unicode="&#x15e;" horiz-adv-x="504" 
d="M367 645q31 0 58.5 -5.5t42 -10.5t33.5 -17.5t21 -14.5t16 -15l-35 -128h-25q16 147 -94 147q-51 0 -79 -28.5t-28 -72.5q0 -56 48 -94q4 -3 24.5 -18t28.5 -22t25.5 -22.5t26 -28t19 -30.5t15 -38t4.5 -42q0 -91 -77 -151.5t-192 -64.5l-12 -25q43 0 81.5 -23t38.5 -65
q0 -88 -184 -88l5 31q87 0 87 43q0 40 -117 40l46 89q-95 11 -145 67l27 127h29q-8 -75 26 -113.5t93 -38.5q60 0 100.5 36.5t40.5 89.5q0 57 -62 107q-3 2 -19 14t-20.5 16t-18.5 15.5t-19.5 18.5t-16 19t-15 22.5t-10.5 24t-8 28.5t-2 31q0 87 67.5 138.5t175.5 51.5z" />
    <glyph glyph-name="scedilla" unicode="&#x15f;" horiz-adv-x="337" 
d="M339 373q0 -53 -94 -143q39 -50 39 -92q0 -55 -51 -94.5t-117 -50.5l-14 -29q43 0 81.5 -23t38.5 -65q0 -88 -184 -88l5 31q87 0 87 43q0 40 -117 40l45 89q-41 5 -63.5 26.5t-22.5 48.5t30 56l37 -7q2 -31 26.5 -58t53.5 -27q38 0 38 50q0 24 -16.5 52t-35.5 49.5
t-35.5 53.5t-16.5 64q0 66 60 103t127 37q38 0 68.5 -15.5t30.5 -50.5zM226 400q-19 0 -32.5 -13t-13.5 -38q0 -19 9.5 -39.5t16.5 -29.5t27 -35q33 50 33 95q0 27 -10.5 43.5t-29.5 16.5z" />
    <glyph glyph-name="Scaron" unicode="&#x160;" horiz-adv-x="504" 
d="M415 708l-89 147l17 22l94 -75l139 75l12 -20zM186 -11q-128 0 -187 69l27 127h29q-8 -75 26 -113.5t93 -38.5q60 0 100.5 36.5t40.5 89.5q0 57 -62 107q-3 2 -19 14t-20.5 16t-18.5 15.5t-19.5 18.5t-16 19t-15 22.5t-10.5 24t-8 28.5t-2 31q0 87 67.5 138.5t175.5 51.5
q31 0 58.5 -5.5t42 -10.5t33.5 -17.5t21 -14.5t16 -15l-35 -128h-25q16 147 -94 147q-51 0 -79 -28.5t-28 -72.5q0 -56 48 -94q4 -3 24.5 -18t28.5 -22t25.5 -22.5t26 -28t19 -30.5t15 -38t4.5 -42q0 -93 -81.5 -154.5t-200.5 -61.5z" />
    <glyph glyph-name="scaron" unicode="&#x161;" horiz-adv-x="337" 
d="M438 657l-173 -149l-89 147l17 22l94 -75l139 75zM339 373q0 -53 -94 -143q39 -50 39 -92q0 -64 -67 -106t-139 -42q-49 0 -77.5 23t-28.5 53q0 27 30 56l37 -7q2 -31 26.5 -58t53.5 -27q38 0 38 50q0 24 -16.5 52t-35.5 49.5t-35.5 53.5t-16.5 64q0 66 60 103t127 37
q38 0 68.5 -15.5t30.5 -50.5zM180 349q0 -19 9.5 -39.5t16.5 -29.5t27 -35q33 50 33 95q0 27 -10.5 43.5t-29.5 16.5t-32.5 -13t-13.5 -38z" />
    <glyph glyph-name="uni0162" unicode="&#x162;" horiz-adv-x="597" 
d="M642 630l57 10l-50 -184h-30q18 68 1 99t-84 31h-37l-155 -477q-8 -24 -8 -38t7 -21t19.5 -11t30.5 -7q5 -1 8 -1l-11 -31h-140l-17 -36q43 0 81.5 -23t38.5 -65q0 -88 -184 -88l5 31q87 0 87 43q0 40 -117 40l50 98h-118l11 32q44 8 67.5 26t38.5 65l150 463h-24
q-68 0 -110.5 -35.5t-73.5 -102.5h-32l72 192l50 -10h417z" />
    <glyph glyph-name="uni0163" unicode="&#x163;" horiz-adv-x="345" 
d="M282 386l-107 -303q-6 -17 6 -13q26 8 105 97l29 -20q-108 -144 -200 -155l-13 -28q43 0 81.5 -23t38.5 -65q0 -88 -184 -88l5 31q87 0 87 43q0 40 -117 40l50 98h7q-21 13 -29.5 38t-0.5 47l109 308l-94 5l12 32h95l41 117l141 15l-47 -132h103l-16 -50z" />
    <glyph glyph-name="Tcaron" unicode="&#x164;" horiz-adv-x="597" 
d="M635 857l-173 -149l-89 147l17 22l94 -75l139 75zM642 630l57 10l-50 -184h-30q18 68 1 99t-84 31h-37l-155 -477q-8 -24 -8 -38t7 -21t19.5 -11t30.5 -7q5 -1 8 -1l-11 -31h-314l11 32q44 8 67.5 26t38.5 65l150 463h-24q-68 0 -110.5 -35.5t-73.5 -102.5h-32l72 192
l50 -10h417z" />
    <glyph glyph-name="tcaron" unicode="&#x165;" horiz-adv-x="394" 
d="M479 660q44 0 52 -30t-23 -73l-45 -49q-18 -24 -27 -31t-24 -7q-38 0 -24 53l14 65q20 72 77 72zM344 562l-47 -132h103l-16 -50l-102 6l-107 -303q-6 -17 6 -13q26 8 105 97l29 -20q-116 -156 -213 -156q-36 0 -54 31.5t-8 62.5l109 308l-94 5l12 32h95l41 117z" />
    <glyph glyph-name="Tbar" unicode="&#x166;" horiz-adv-x="597" 
d="M642 630l57 10l-50 -184h-30q18 68 1 99t-84 31h-37l-83 -255l118 3l-10 -46l-121 3l-59 -182q-8 -24 -8 -38t7 -21t19.5 -11t30.5 -7q5 -1 8 -1l-11 -31h-314l11 32q44 8 67.5 26t38.5 65l54 167q-36 0 -108 -2l10 46q74 -2 112 -2l82 254h-24q-68 0 -110.5 -35.5
t-73.5 -102.5h-32l72 192l50 -10h417z" />
    <glyph glyph-name="tbar" unicode="&#x167;" horiz-adv-x="352" 
d="M282 386l-21 -58h130l-16 -50l-129 7l-71 -202q-6 -17 6 -13q26 8 105 97l29 -20q-116 -156 -213 -156q-36 0 -54 31.5t-8 62.5l73 207l-68 4l12 32h69l23 65l-94 5l12 32h95l41 117l141 15l-47 -132h103l-16 -50z" />
    <glyph glyph-name="Umacron" unicode="&#x16a;" horiz-adv-x="662" 
d="M377 771l15 56h280l-15 -56h-280zM285 -11q-50 0 -89 12.5t-69.5 44.5t-33 85t20.5 134l82 256q4 11 6 19.5t1.5 15.5t0.5 12t-4 9t-5.5 6t-9.5 4.5t-11 3.5t-15 3.5t-16 3.5l9 32h317l-12 -33q-30 -7 -46 -13.5t-34 -25.5t-28 -51l-92 -283q-62 -187 63 -187
q25 0 50 7.5t55.5 27t58.5 61.5t47 102l91 286q5 14 7 24.5t0 18t-3.5 12t-9 8.5t-11 5t-15.5 4.5t-16 4.5l9 32h209l-12 -33q-49 -9 -75.5 -26.5t-41.5 -63.5l-88 -273q-44 -137 -118 -191t-172 -54z" />
    <glyph glyph-name="umacron" unicode="&#x16b;" horiz-adv-x="589" 
d="M266 571l15 56h280l-15 -56h-280zM46 264l-21 22q106 151 209 151q41 0 55.5 -22t-1.5 -59l-77 -184q-38 -87 -18 -94q3 -1 7 -1q15 0 55.5 47.5t92.5 134t87 175.5h126l-109 -316q-15 -42 3 -38q24 6 77 75l6 8l25 -22q-104 -151 -215 -151q-76 0 -46 73l79 188l-10 -1
q-79 -146 -136 -203t-115 -57q-43 0 -60 26t-11.5 64t26.5 87l62 141q19 42 1 38q-26 -5 -81 -68q-5 -7 -11 -14z" />
    <glyph glyph-name="ubreve" unicode="&#x16d;" horiz-adv-x="589" 
d="M409 515q-70 0 -103 45t-7 120h32q-9 -42 16 -61.5t73 -18.5q51 1 88.5 23.5t53.5 54.5h32q-48 -163 -185 -163zM46 264l-21 22q106 151 209 151q41 0 55.5 -22t-1.5 -59l-77 -184q-38 -87 -18 -94q3 -1 7 -1q15 0 55.5 47.5t92.5 134t87 175.5h126l-109 -316
q-15 -42 3 -38q24 6 77 75l6 8l25 -22q-104 -151 -215 -151q-76 0 -46 73l79 188l-10 -1q-79 -146 -136 -203t-115 -57q-43 0 -60 26t-11.5 64t26.5 87l62 141q19 42 1 38q-26 -5 -81 -68q-5 -7 -11 -14z" />
    <glyph glyph-name="Uring" unicode="&#x16e;" horiz-adv-x="662" 
d="M544 710q-45 0 -75 29t-30 72t30 72t75 29t74.5 -29t29.5 -72t-29.5 -72t-74.5 -29zM544 777q36 0 36 34t-36 34q-37 0 -37 -34t37 -34zM285 -11q-50 0 -89 12.5t-69.5 44.5t-33 85t20.5 134l82 256q4 11 6 19.5t1.5 15.5t0.5 12t-4 9t-5.5 6t-9.5 4.5t-11 3.5t-15 3.5
t-16 3.5l9 32h317l-12 -33q-30 -7 -46 -13.5t-34 -25.5t-28 -51l-92 -283q-62 -187 63 -187q25 0 50 7.5t55.5 27t58.5 61.5t47 102l91 286q5 14 7 24.5t0 18t-3.5 12t-9 8.5t-11 5t-15.5 4.5t-16 4.5l9 32h209l-12 -33q-49 -9 -75.5 -26.5t-41.5 -63.5l-88 -273
q-44 -137 -118 -191t-172 -54z" />
    <glyph glyph-name="uring" unicode="&#x16f;" horiz-adv-x="589" 
d="M433 510q-45 0 -75 29t-30 72t30 72t75 29t74.5 -29t29.5 -72t-29.5 -72t-74.5 -29zM433 577q36 0 36 34t-36 34q-37 0 -37 -34t37 -34zM46 264l-21 22q106 151 209 151q41 0 55.5 -22t-1.5 -59l-77 -184q-38 -87 -18 -94q3 -1 7 -1q15 0 55.5 47.5t92.5 134t87 175.5
h126l-109 -316q-15 -42 3 -38q24 6 77 75l6 8l25 -22q-104 -151 -215 -151q-76 0 -46 73l79 188l-10 -1q-79 -146 -136 -203t-115 -57q-43 0 -60 26t-11.5 64t26.5 87l62 141q19 42 1 38q-26 -5 -81 -68q-5 -7 -11 -14z" />
    <glyph glyph-name="Uhungarumlaut" unicode="&#x170;" horiz-adv-x="662" 
d="M417 687l-41 24q16 81 69 156q31 0 61.5 -23.5t41.5 -55.5q-85 -54 -131 -101zM611 687l-41 24q14 78 69 156q31 0 61 -23.5t41 -55.5q-83 -52 -130 -101zM285 -11q-50 0 -89 12.5t-69.5 44.5t-33 85t20.5 134l82 256q4 11 6 19.5t1.5 15.5t0.5 12t-4 9t-5.5 6t-9.5 4.5
t-11 3.5t-15 3.5t-16 3.5l9 32h317l-12 -33q-30 -7 -46 -13.5t-34 -25.5t-28 -51l-92 -283q-62 -187 63 -187q25 0 50 7.5t55.5 27t58.5 61.5t47 102l91 286q5 14 7 24.5t0 18t-3.5 12t-9 8.5t-11 5t-15.5 4.5t-16 4.5l9 32h209l-12 -33q-49 -9 -75.5 -26.5t-41.5 -63.5
l-88 -273q-44 -137 -118 -191t-172 -54z" />
    <glyph glyph-name="uhungarumlaut" unicode="&#x171;" horiz-adv-x="589" 
d="M307 487l-41 24q16 81 69 156q31 0 61.5 -23.5t41.5 -55.5q-85 -54 -131 -101zM501 487l-41 24q14 78 69 156q31 0 61 -23.5t41 -55.5q-83 -52 -130 -101zM46 264l-21 22q106 151 209 151q41 0 55.5 -22t-1.5 -59l-77 -184q-38 -87 -18 -94q3 -1 7 -1q15 0 55.5 47.5
t92.5 134t87 175.5h126l-109 -316q-15 -42 3 -38q24 6 77 75l6 8l25 -22q-104 -151 -215 -151q-76 0 -46 73l79 188l-10 -1q-79 -146 -136 -203t-115 -57q-43 0 -60 26t-11.5 64t26.5 87l62 141q19 42 1 38q-26 -5 -81 -68q-5 -7 -11 -14z" />
    <glyph glyph-name="Uogonek" unicode="&#x172;" horiz-adv-x="662" 
d="M583 630h209l-12 -33q-49 -9 -75.5 -26.5t-41.5 -63.5l-88 -273q-67 -208 -227 -240q-73 -24 -73 -76q0 -22 13 -36t36 -14q15 0 28 6l-5 -26q-36 -31 -94 -31q-92 0 -92 73q0 41 27 73l60 28q-43 4 -75 20t-56 48t-24 82.5t21 123.5l82 256q4 11 6 19.5t1.5 15.5t0.5 12
t-4 9t-5.5 6t-9.5 4.5t-11 3.5t-15 3.5t-16 3.5l9 32h317l-12 -33q-30 -7 -46 -13.5t-34 -25.5t-28 -51l-92 -283q-62 -187 63 -187q20 0 37 4l9 4v-2q114 31 165 192l91 286q5 14 7 24.5t0 18t-3.5 12t-9 8.5t-11 5t-15.5 4.5t-16 4.5z" />
    <glyph glyph-name="uogonek" unicode="&#x173;" horiz-adv-x="589" 
d="M413 4q-73 -41 -73 -90q0 -23 13 -37.5t35 -14.5q17 0 31 5l-7 -24q-40 -32 -95 -32q-91 0 -91 73q0 42 28 73l62 38q-36 15 -14 68l79 188l-10 -1q-79 -146 -136 -203t-115 -57q-43 0 -60 26t-11.5 64t26.5 87l62 141q19 42 1 38q-26 -5 -81 -68q-5 -7 -11 -14l-21 22
q106 151 209 151q41 0 55.5 -22t-1.5 -59l-77 -184q-38 -87 -18 -94q3 -1 7 -1q15 0 55.5 47.5t92.5 134t87 175.5h126l-109 -316q-15 -42 3 -38q24 6 77 75l6 8l25 -22q-72 -105 -150 -137z" />
    <glyph glyph-name="Wcircumflex" unicode="&#x174;" horiz-adv-x="959" 
d="M683 880l89 -147l-18 -23l-93 76l-140 -76l-11 20zM195 -8l-2 548v13t-2.5 11t-3.5 8.5t-6.5 6.5t-7 4.5t-9.5 3.5t-10 3t-12.5 3t-13.5 3l9 34h300l-11 -38q-39 -1 -58.5 -11t-19.5 -41l-3 -333l172 267q37 56 32 84t-55 38l11 34h223q-11 -35 -15 -144v-273l189 298
q30 55 24.5 65.5t-50.5 17.5q-7 1 -10 2l11 34h209l-11 -38q-39 -5 -64 -20t-54 -59l-339 -521h-57l-5 460l-304 -460h-57z" />
    <glyph glyph-name="wcircumflex" unicode="&#x175;" horiz-adv-x="765" 
d="M470 586l-140 -76l-11 20l173 150l89 -147l-18 -23zM611 379q60 47 124 58q70 13 70 -43q0 -63 -69 -160t-163.5 -170.5t-158.5 -73.5q-42 0 -70 30t-9 85q-125 -115 -207 -115q-43 0 -71 31t-7 87l78 211q11 31 -5 24q-22 -11 -75 -78l-23 22q105 150 199 150
q30 0 46 -15.5t4 -50.5l-85 -257q-5 -14 -7 -21t-4 -19.5t3.5 -18t17.5 -5.5q44 0 104 67t87 138l1 1l23 63q13 36 -11 20q-24 -17 -70 -74l-22 22q104 150 198 150q31 0 46.5 -15.5t3.5 -50.5l-85 -257q-5 -13 -7 -21t-3.5 -19.5t4 -17.5t17.5 -6q55 0 128.5 96.5
t73.5 164.5q0 34 -15 45.5t-46 -3.5z" />
    <glyph glyph-name="Ycircumflex" unicode="&#x176;" horiz-adv-x="615" 
d="M499 786l-140 -76l-11 20l173 150l89 -147l-18 -23zM567 630h197l-13 -38q-41 -8 -59 -18t-50 -46l-227 -251l-54 -165q-8 -25 -8.5 -39.5t7.5 -22t19 -11t31 -7.5q5 -1 7 -1l-10 -31h-312l11 32q42 9 65.5 27t38.5 66l46 141l-67 267q-9 39 -17.5 47.5t-50.5 15.5l11 34
h316l-11 -38q-7 -1 -19 -3t-19 -3t-17 -4t-14 -6.5t-10 -10t-4.5 -15.5t2.5 -22l50 -202l185 211q17 18 22 29.5t-4 17.5t-18.5 8t-32.5 4z" />
    <glyph glyph-name="ycircumflex" unicode="&#x177;" horiz-adv-x="479" 
d="M355 586l-140 -76l-11 20l173 150l89 -147l-18 -23zM321 379q60 47 124 58q70 13 70 -43q0 -48 -70.5 -145.5t-166 -192t-201 -166t-168.5 -71.5q-30 0 -50.5 17.5t-20.5 49.5q0 28 15.5 44t44.5 16t59.5 -26.5t54.5 -26.5q35 0 106 55l6 371q-1 37 -21 18q-8 -7 -59 -72
l-23 22q54 83 89.5 116.5t80.5 33.5q32 0 44.5 -16t11.5 -50l-7 -313q68 71 112.5 140t44.5 113q0 34 -15 45.5t-45 -3.5z" />
    <glyph glyph-name="Ydieresis" unicode="&#x178;" horiz-adv-x="615" 
d="M351 734q-31 0 -54 23t-23 54q0 29 23 51.5t54 22.5q30 0 52.5 -22.5t22.5 -51.5q0 -31 -22.5 -54t-52.5 -23zM588 734q-32 0 -54.5 23t-22.5 54q0 29 23 51.5t54 22.5q30 0 52.5 -22.5t22.5 -51.5q0 -31 -22.5 -54t-52.5 -23zM567 630h197l-13 -38q-41 -8 -59 -18
t-50 -46l-227 -251l-54 -165q-8 -25 -8.5 -39.5t7.5 -22t19 -11t31 -7.5q5 -1 7 -1l-10 -31h-312l11 32q42 9 65.5 27t38.5 66l46 141l-67 267q-9 39 -17.5 47.5t-50.5 15.5l11 34h316l-11 -38q-7 -1 -19 -3t-19 -3t-17 -4t-14 -6.5t-10 -10t-4.5 -15.5t2.5 -22l50 -202
l185 211q17 18 22 29.5t-4 17.5t-18.5 8t-32.5 4z" />
    <glyph glyph-name="Zacute" unicode="&#x179;" 
d="M424 687l-41 24q16 81 69 156q31 0 61.5 -23.5t41.5 -55.5q-85 -54 -131 -101zM-32 0l-6 15l524 579l-142 -4q-125 -3 -173 -144h-34l64 190l59 -6h434l-540 -594l184 16q64 4 103.5 38.5t72.5 103.5h39q-64 -127 -82 -194h-503z" />
    <glyph glyph-name="zacute" unicode="&#x17a;" horiz-adv-x="385" 
d="M263 487l-41 24q16 81 69 156q31 0 61.5 -23.5t41.5 -55.5q-85 -54 -131 -101zM240 104q60 0 79 66h33l-61 -178q-47 -5 -128 13.5t-113 18.5q-48 0 -83 -24l-20 26l336 280q-25 -1 -70 9.5t-68 10.5q-60 0 -79 -66h-34l62 178q47 5 128 -13.5t113 -18.5q48 0 83 24
l19 -26l-335 -280q25 1 70 -9.5t68 -10.5z" />
    <glyph glyph-name="Zdotaccent" unicode="&#x17b;" 
d="M477 668q-38 0 -66 27.5t-28 64.5t28 63t66 26t66 -26t28 -63t-28 -64.5t-66 -27.5zM-32 0l-6 15l524 579l-142 -4q-125 -3 -173 -144h-34l64 190l59 -6h434l-540 -594l184 16q64 4 103.5 38.5t72.5 103.5h39q-64 -127 -82 -194h-503z" />
    <glyph glyph-name="zdotaccent" unicode="&#x17c;" horiz-adv-x="385" 
d="M315 468q-38 0 -66 27.5t-28 64.5t28 63t66 26t66 -26t28 -63t-28 -64.5t-66 -27.5zM240 104q60 0 79 66h33l-61 -178q-47 -5 -128 13.5t-113 18.5q-48 0 -83 -24l-20 26l336 280q-25 -1 -70 9.5t-68 10.5q-60 0 -79 -66h-34l62 178q47 5 128 -13.5t113 -18.5q48 0 83 24
l19 -26l-335 -280q25 1 70 -9.5t68 -10.5z" />
    <glyph glyph-name="Zcaron" unicode="&#x17d;" 
d="M456 708l-89 147l17 22l94 -75l139 75l12 -20zM-32 0l-6 15l524 579l-142 -4q-125 -3 -173 -144h-34l64 190l59 -6h434l-540 -594l184 16q64 4 103.5 38.5t72.5 103.5h39q-64 -127 -82 -194h-503z" />
    <glyph glyph-name="zcaron" unicode="&#x17e;" horiz-adv-x="385" 
d="M294 508l-89 147l17 22l94 -75l139 75l12 -20zM240 104q60 0 79 66h33l-61 -178q-47 -5 -128 13.5t-113 18.5q-48 0 -83 -24l-20 26l336 280q-25 -1 -70 9.5t-68 10.5q-60 0 -79 -66h-34l62 178q47 5 128 -13.5t113 -18.5q48 0 83 24l19 -26l-335 -280q25 1 70 -9.5
t68 -10.5z" />
    <glyph glyph-name="florin" unicode="&#x192;" horiz-adv-x="582" 
d="M624 685q47 0 77 -24.5t24 -75.5q-9 -23 -47 -38t-73 -8q0 10 1 25.5t1.5 26t0 21t-5 16t-13.5 5.5q-27 0 -59 -26t-58 -86l-35 -81l121 8q-19 -38 -28 -65l-116 4l-133 -309q-53 -118 -154.5 -185.5t-185.5 -67.5q-48 0 -79.5 24.5t-24.5 75.5q10 24 48 38.5t76 7.5
q-7 -31 -7 -62.5t22 -31.5q26 0 57.5 26t58.5 86l174 403l-60 2l10 31l70 15q35 80 98.5 138t125 82.5t114.5 24.5z" />
    <glyph glyph-name="uni0218" unicode="&#x218;" horiz-adv-x="504" 
d="M186 -11q-128 0 -187 69l27 127h29q-8 -75 26 -113.5t93 -38.5q60 0 100.5 36.5t40.5 89.5q0 57 -62 107q-3 2 -19 14t-20.5 16t-18.5 15.5t-19.5 18.5t-16 19t-15 22.5t-10.5 24t-8 28.5t-2 31q0 87 67.5 138.5t175.5 51.5q31 0 58.5 -5.5t42 -10.5t33.5 -17.5t21 -14.5
t16 -15l-35 -128h-25q16 147 -94 147q-51 0 -79 -28.5t-28 -72.5q0 -56 48 -94q4 -3 24.5 -18t28.5 -22t25.5 -22.5t26 -28t19 -30.5t15 -38t4.5 -42q0 -93 -81.5 -154.5t-200.5 -61.5zM5 -387l-13 37q49 15 73 33t37 54q4 8 4 22t-6 17q-52 33 -52 75q0 36 25.5 63.5
t64.5 27.5q37 0 60.5 -25.5t23.5 -70.5q0 -77 -61 -149.5t-156 -83.5z" />
    <glyph glyph-name="uni0219" unicode="&#x219;" horiz-adv-x="337" 
d="M339 373q0 -53 -94 -143q39 -50 39 -92q0 -64 -67 -106t-139 -42q-49 0 -77.5 23t-28.5 53q0 27 30 56l37 -7q2 -31 26.5 -58t53.5 -27q38 0 38 50q0 24 -16.5 52t-35.5 49.5t-35.5 53.5t-16.5 64q0 66 60 103t127 37q38 0 68.5 -15.5t30.5 -50.5zM226 400
q-19 0 -32.5 -13t-13.5 -38q0 -19 9.5 -39.5t16.5 -29.5t27 -35q33 50 33 95q0 27 -10.5 43.5t-29.5 16.5zM53 -58q37 0 60.5 -25.5t23.5 -70.5q0 -77 -61 -149.5t-156 -83.5l-13 37q49 15 73 33t37 54q4 8 4 22t-6 17q-52 33 -52 75q0 36 25.5 63.5t64.5 27.5z" />
    <glyph glyph-name="uni021A" unicode="&#x21a;" horiz-adv-x="597" 
d="M642 630l57 10l-50 -184h-30q18 68 1 99t-84 31h-37l-155 -477q-8 -24 -8 -38t7 -21t19.5 -11t30.5 -7q5 -1 8 -1l-11 -31h-314l11 32q44 8 67.5 26t38.5 65l150 463h-24q-68 0 -110.5 -35.5t-73.5 -102.5h-32l72 192l50 -10h417zM184 -58q37 0 60.5 -25.5t23.5 -70.5
q0 -77 -61 -149.5t-156 -83.5l-13 37q49 15 73 33t37 54q4 8 4 22t-6 17q-52 33 -52 75q0 36 25.5 63.5t64.5 27.5z" />
    <glyph glyph-name="uni021B" unicode="&#x21b;" horiz-adv-x="345" 
d="M282 386l-107 -303q-6 -17 6 -13q26 8 105 97l29 -20q-116 -156 -213 -156q-36 0 -54 31.5t-8 62.5l109 308l-94 5l12 32h95l41 117l141 15l-47 -132h103l-16 -50zM53 -58q37 0 60.5 -25.5t23.5 -70.5q0 -77 -61 -149.5t-156 -83.5l-13 37q49 15 73 33t37 54q4 8 4 22
t-6 17q-52 33 -52 75q0 36 25.5 63.5t64.5 27.5z" />
    <glyph glyph-name="uni0237" unicode="&#x237;" horiz-adv-x="300" 
d="M242 435q30 0 47 -13t17.5 -32t-5.5 -40l-98 -279q-42 -121 -106.5 -183.5t-137.5 -62.5q-61 0 -89.5 30t-23.5 68q5 58 53 58q65 0 49 -87q-6 -32 23 -32q26 0 38.5 23.5t36.5 98.5q3 10 5 16l98 307q11 37 -5 33q-26 -5 -84 -77l-23 22q105 150 205 150z" />
    <glyph glyph-name="circumflex" unicode="&#x2c6;" horiz-adv-x="256" 
d="M277 690l89 -147l-18 -23l-93 76l-140 -76l-11 20z" />
    <glyph glyph-name="caron" unicode="&#x2c7;" horiz-adv-x="256" 
d="M233 518l-89 147l17 22l94 -75l139 75l12 -20z" />
    <glyph glyph-name="breve" unicode="&#x2d8;" horiz-adv-x="290" 
d="M264 525q-70 0 -103 45t-7 120h32q-9 -42 16 -61.5t73 -18.5q51 1 88.5 23.5t53.5 54.5h32q-48 -163 -185 -163z" />
    <glyph glyph-name="dotaccent" unicode="&#x2d9;" horiz-adv-x="192" 
d="M211 478q-38 0 -66 27.5t-28 64.5t28 63t66 26t66 -26t28 -63t-28 -64.5t-66 -27.5z" />
    <glyph glyph-name="ring" unicode="&#x2da;" horiz-adv-x="214" 
d="M239 520q-45 0 -75 29t-30 72t30 72t75 29t74.5 -29t29.5 -72t-29.5 -72t-74.5 -29zM239 587q36 0 36 34t-36 34q-37 0 -37 -34t37 -34z" />
    <glyph glyph-name="ogonek" unicode="&#x2db;" horiz-adv-x="198" 
d="M-13 -183q-91 0 -91 73q0 42 28 73l177 109l-6 -56q-85 -45 -85 -96q0 -23 13 -37.5t35 -14.5q17 0 31 5l-7 -24q-40 -32 -95 -32z" />
    <glyph glyph-name="tilde" unicode="&#x2dc;" horiz-adv-x="352" 
d="M350 500q-26 0 -45 12t-28.5 26.5t-24 26.5t-32.5 12q-30 0 -59.5 -24.5t-34.5 -41.5l-23 20q12 63 51 97t85 34q26 0 46 -12t30.5 -26t26 -26t33.5 -12q29 0 58 24.5t32 40.5l23 -19q-12 -64 -51.5 -98t-86.5 -34z" />
    <glyph glyph-name="hungarumlaut" unicode="&#x2dd;" horiz-adv-x="336" 
d="M139 497l-41 24q16 81 69 156q31 0 61.5 -23.5t41.5 -55.5q-85 -54 -131 -101zM333 497l-41 24q14 78 69 156q31 0 61 -23.5t41 -55.5q-83 -52 -130 -101z" />
    <glyph glyph-name="acutecomb" unicode="&#x301;" horiz-adv-x="0" 
d="M-4 497l-41 24q16 81 69 156q31 0 61.5 -23.5t41.5 -55.5q-85 -54 -131 -101z" />
    <glyph glyph-name="uni0326" unicode="&#x326;" horiz-adv-x="0" 
d="M-348 -387l-13 37q49 15 73 33t37 54q4 8 4 22t-6 17q-52 33 -52 75q0 36 25.5 63.5t64.5 27.5q37 0 60.5 -25.5t23.5 -70.5q0 -77 -61 -149.5t-156 -83.5z" />
    <glyph glyph-name="uni0394" unicode="&#x394;" horiz-adv-x="548" 
d="M-63 0l481 634l73 -634h-554zM75 129h276l-24 338z" />
    <glyph glyph-name="uni03A9" unicode="&#x3a9;" horiz-adv-x="684" 
d="M481 109q53 1 77.5 6.5t42.5 22.5h21l-77 -138h-214l35 109q70 33 128.5 162t58.5 223q0 97 -76 97q-65 0 -127.5 -67t-98.5 -158t-36 -167q0 -68 32 -90l-35 -109h-212l12 138h12q7 -21 28 -25t86 -4h4q-26 20 -49 66t-23 104q0 136 120.5 247t274.5 111
q107 0 170.5 -56.5t63.5 -153.5q0 -104 -50 -173.5t-168 -144.5z" />
    <glyph glyph-name="uni03BC" unicode="&#x3bc;" horiz-adv-x="589" 
d="M538 163l25 -22q-104 -151 -215 -151q-76 0 -46 73l79 188l-10 -1q-79 -146 -136 -203t-115 -57q-66 0 -71 59q-27 -51 -33.5 -89t2 -54.5t15.5 -32t3 -26.5q-8 -22 -31 -34t-48 -12q-28 0 -40.5 15.5t0.5 49.5l220 442q19 42 1 38q-26 -5 -81 -68q-5 -7 -11 -14l-21 22
q106 151 209 151q41 0 55.5 -22t-1.5 -59l-77 -184q-38 -87 -18 -94q3 -1 7 -1q15 0 55.5 47.5t92.5 134t87 175.5h126l-109 -316q-15 -42 3 -38q24 6 77 75z" />
    <glyph glyph-name="pi" unicode="&#x3c0;" horiz-adv-x="720" 
d="M577 332l-67 -204q-7 -21 -10.5 -34t-4.5 -22.5t1.5 -13.5t8.5 -4q12 0 28.5 22t35 44t36.5 22q24 0 36.5 -16t0.5 -51q-30 -85 -150 -85q-26 0 -51 8t-47.5 26t-29 46.5t5.5 70.5l63 191h-75l-67 -212q-23 -65 -71.5 -95.5t-102.5 -30.5q-47 0 -81 17l-10 34
q33 -9 70 18t54 80l62 189h-21q-36 0 -64 -21t-30 -58l-20 42q-7 67 27 111.5t113 44.5h482l-37 -119h-85z" />
    <glyph glyph-name="Wgrave" unicode="&#x1e80;" horiz-adv-x="959" 
d="M606 687q-46 47 -131 101q11 32 41.5 55.5t61.5 23.5q53 -75 69 -156zM195 -8l-2 548v13t-2.5 11t-3.5 8.5t-6.5 6.5t-7 4.5t-9.5 3.5t-10 3t-12.5 3t-13.5 3l9 34h300l-11 -38q-39 -1 -58.5 -11t-19.5 -41l-3 -333l172 267q37 56 32 84t-55 38l11 34h223
q-11 -35 -15 -144v-273l189 298q30 55 24.5 65.5t-50.5 17.5q-7 1 -10 2l11 34h209l-11 -38q-39 -5 -64 -20t-54 -59l-339 -521h-57l-5 460l-304 -460h-57z" />
    <glyph glyph-name="wgrave" unicode="&#x1e81;" horiz-adv-x="765" 
d="M415 487q-46 47 -131 101q11 32 41.5 55.5t61.5 23.5q53 -75 69 -156zM611 379q60 47 124 58q70 13 70 -43q0 -63 -69 -160t-163.5 -170.5t-158.5 -73.5q-42 0 -70 30t-9 85q-125 -115 -207 -115q-43 0 -71 31t-7 87l78 211q11 31 -5 24q-22 -11 -75 -78l-23 22
q105 150 199 150q30 0 46 -15.5t4 -50.5l-85 -257q-5 -14 -7 -21t-4 -19.5t3.5 -18t17.5 -5.5q44 0 104 67t87 138l1 1l23 63q13 36 -11 20q-24 -17 -70 -74l-22 22q104 150 198 150q31 0 46.5 -15.5t3.5 -50.5l-85 -257q-5 -13 -7 -21t-3.5 -19.5t4 -17.5t17.5 -6
q55 0 128.5 96.5t73.5 164.5q0 34 -15 45.5t-46 -3.5z" />
    <glyph glyph-name="Wacute" unicode="&#x1e82;" horiz-adv-x="959" 
d="M608 687l-41 24q16 81 69 156q31 0 61.5 -23.5t41.5 -55.5q-85 -54 -131 -101zM195 -8l-2 548v13t-2.5 11t-3.5 8.5t-6.5 6.5t-7 4.5t-9.5 3.5t-10 3t-12.5 3t-13.5 3l9 34h300l-11 -38q-39 -1 -58.5 -11t-19.5 -41l-3 -333l172 267q37 56 32 84t-55 38l11 34h223
q-11 -35 -15 -144v-273l189 298q30 55 24.5 65.5t-50.5 17.5q-7 1 -10 2l11 34h209l-11 -38q-39 -5 -64 -20t-54 -59l-339 -521h-57l-5 460l-304 -460h-57z" />
    <glyph glyph-name="wacute" unicode="&#x1e83;" horiz-adv-x="765" 
d="M547 588q-85 -54 -131 -101l-41 24q16 81 69 156q31 0 61.5 -23.5t41.5 -55.5zM611 379q60 47 124 58q70 13 70 -43q0 -63 -69 -160t-163.5 -170.5t-158.5 -73.5q-42 0 -70 30t-9 85q-125 -115 -207 -115q-43 0 -71 31t-7 87l78 211q11 31 -5 24q-22 -11 -75 -78l-23 22
q105 150 199 150q30 0 46 -15.5t4 -50.5l-85 -257q-5 -14 -7 -21t-4 -19.5t3.5 -18t17.5 -5.5q44 0 104 67t87 138l1 1l23 63q13 36 -11 20q-24 -17 -70 -74l-22 22q104 150 198 150q31 0 46.5 -15.5t3.5 -50.5l-85 -257q-5 -13 -7 -21t-3.5 -19.5t4 -17.5t17.5 -6
q55 0 128.5 96.5t73.5 164.5q0 34 -15 45.5t-46 -3.5z" />
    <glyph glyph-name="Wdieresis" unicode="&#x1e84;" horiz-adv-x="959" 
d="M513 734q-31 0 -54 23t-23 54q0 29 23 51.5t54 22.5q30 0 52.5 -22.5t22.5 -51.5q0 -31 -22.5 -54t-52.5 -23zM750 734q-32 0 -54.5 23t-22.5 54q0 29 23 51.5t54 22.5q30 0 52.5 -22.5t22.5 -51.5q0 -31 -22.5 -54t-52.5 -23zM195 -8l-2 548v13t-2.5 11t-3.5 8.5
t-6.5 6.5t-7 4.5t-9.5 3.5t-10 3t-12.5 3t-13.5 3l9 34h300l-11 -38q-39 -1 -58.5 -11t-19.5 -41l-3 -333l172 267q37 56 32 84t-55 38l11 34h223q-11 -35 -15 -144v-273l189 298q30 55 24.5 65.5t-50.5 17.5q-7 1 -10 2l11 34h209l-11 -38q-39 -5 -64 -20t-54 -59
l-339 -521h-57l-5 460l-304 -460h-57z" />
    <glyph glyph-name="wdieresis" unicode="&#x1e85;" horiz-adv-x="765" 
d="M321 534q-31 0 -54 23t-23 54q0 29 23 51.5t54 22.5q30 0 52.5 -22.5t22.5 -51.5q0 -31 -22.5 -54t-52.5 -23zM558 534q-32 0 -54.5 23t-22.5 54q0 29 23 51.5t54 22.5q30 0 52.5 -22.5t22.5 -51.5q0 -31 -22.5 -54t-52.5 -23zM611 379q60 47 124 58q70 13 70 -43
q0 -63 -69 -160t-163.5 -170.5t-158.5 -73.5q-42 0 -70 30t-9 85q-125 -115 -207 -115q-43 0 -71 31t-7 87l78 211q11 31 -5 24q-22 -11 -75 -78l-23 22q105 150 199 150q30 0 46 -15.5t4 -50.5l-85 -257q-5 -14 -7 -21t-4 -19.5t3.5 -18t17.5 -5.5q44 0 104 67t87 138l1 1
l23 63q13 36 -11 20q-24 -17 -70 -74l-22 22q104 150 198 150q31 0 46.5 -15.5t3.5 -50.5l-85 -257q-5 -13 -7 -21t-3.5 -19.5t4 -17.5t17.5 -6q55 0 128.5 96.5t73.5 164.5q0 34 -15 45.5t-46 -3.5z" />
    <glyph glyph-name="uni1E9E" unicode="&#x1e9e;" horiz-adv-x="721" 
d="M569 352q55 -11 88.5 -47t33.5 -91q0 -95 -85 -164.5t-195 -69.5q-86 0 -121 47q2 23 9 63.5t9 52.5h24q0 -76 14.5 -98.5t40.5 -22.5q66 0 113 62t47 128q0 106 -162 106l221 258q-17 12 -51 12q-38 0 -70.5 -9t-67 -31.5t-64 -69t-51.5 -114.5l-85 -255
q-11 -27 -8 -43.5t8 -21.5t20 -11l-3 -33h-280l4 33q44 9 69 26.5t39 63.5l80 246q27 83 65.5 139t85.5 82.5t89.5 36.5t95.5 10q74 0 133 -15t149 -50z" />
    <glyph glyph-name="uni1EBC" unicode="&#x1ebc;" horiz-adv-x="580" 
d="M386 767q-30 0 -59.5 -24.5t-34.5 -41.5l-23 20q12 63 51 97t85 34q26 0 46 -12t30.5 -26t26 -26t33.5 -12q29 0 58 24.5t32 40.5l23 -19q-12 -64 -51.5 -98t-86.5 -34q-26 0 -45 12t-28.5 26.5t-24 26.5t-32.5 12zM144 598l9 32h490l-42 -152h-31q16 59 6.5 82t-56.5 23
h-57q-51 0 -76 -18t-44 -69l-50 -156h39q76 0 109 22t54 73h28l-71 -223h-27q10 35 6 53.5t-24 24.5t-76 6h-52l-60 -185q-9 -25 -11.5 -37t6 -18.5t20 -7.5t42.5 -1h38q52 0 93.5 29t87.5 95h41l-94 -171h-494l11 35q45 9 69 25.5t38 62.5l131 398q4 11 6 19.5t1.5 15.5
t0 12t-4 9t-6 6t-9.5 4.5t-11 3.5t-14.5 3.5t-15.5 3.5z" />
    <glyph glyph-name="uni1EBD" unicode="&#x1ebd;" horiz-adv-x="382" 
d="M467 641l23 -19q-12 -64 -51.5 -98t-86.5 -34q-26 0 -45 12t-28.5 26.5t-24 26.5t-32.5 12q-30 0 -59.5 -24.5t-34.5 -41.5l-23 20q12 63 51 97t85 34q26 0 46 -12t30.5 -26t26 -26t33.5 -12q29 0 58 24.5t32 40.5zM309 439q95 0 95 -81q0 -18 -4.5 -33.5t-20.5 -35
t-42.5 -36t-75 -33.5t-113.5 -31q-1 -7 -1 -21q0 -75 68 -75q56 0 100 51l20 -26q-37 -62 -92 -94.5t-107 -32.5q-57 0 -95 40t-38 105q0 70 48 141.5t119.5 116.5t138.5 45zM289 346q0 44 -32 44q-35 0 -63.5 -50.5t-40.5 -114.5q45 10 75 27.5t42 37.5t15.5 32.5t3.5 23.5
z" />
    <glyph glyph-name="Ygrave" unicode="&#x1ef2;" horiz-adv-x="615" 
d="M444 687q-46 47 -131 101q11 32 41.5 55.5t61.5 23.5q53 -75 69 -156zM567 630h197l-13 -38q-41 -8 -59 -18t-50 -46l-227 -251l-54 -165q-8 -25 -8.5 -39.5t7.5 -22t19 -11t31 -7.5q5 -1 7 -1l-10 -31h-312l11 32q42 9 65.5 27t38.5 66l46 141l-67 267q-9 39 -17.5 47.5
t-50.5 15.5l11 34h316l-11 -38q-7 -1 -19 -3t-19 -3t-17 -4t-14 -6.5t-10 -10t-4.5 -15.5t2.5 -22l50 -202l185 211q17 18 22 29.5t-4 17.5t-18.5 8t-32.5 4z" />
    <glyph glyph-name="ygrave" unicode="&#x1ef3;" horiz-adv-x="479" 
d="M300 487q-46 47 -131 101q11 32 41.5 55.5t61.5 23.5q53 -75 69 -156zM321 379q60 47 124 58q70 13 70 -43q0 -48 -70.5 -145.5t-166 -192t-201 -166t-168.5 -71.5q-30 0 -50.5 17.5t-20.5 49.5q0 28 15.5 44t44.5 16t59.5 -26.5t54.5 -26.5q35 0 106 55l6 371
q-1 37 -21 18q-8 -7 -59 -72l-23 22q54 83 89.5 116.5t80.5 33.5q32 0 44.5 -16t11.5 -50l-7 -313q68 71 112.5 140t44.5 113q0 34 -15 45.5t-45 -3.5z" />
    <glyph glyph-name="endash" unicode="&#x2013;" horiz-adv-x="639" 
d="M37 226v77h565v-77h-565z" />
    <glyph glyph-name="emdash" unicode="&#x2014;" horiz-adv-x="893" 
d="M37 226v77h819v-77h-819z" />
    <glyph glyph-name="uni2015" unicode="&#x2015;" horiz-adv-x="893" 
d="M37 226v77h819v-77h-819z" />
    <glyph glyph-name="quoteleft" unicode="&#x2018;" horiz-adv-x="243" 
d="M325 646l12 -37q-49 -15 -72.5 -33t-37.5 -54q-4 -8 -3.5 -22t6.5 -17q52 -33 52 -75q0 -36 -26 -63.5t-64 -27.5q-37 0 -61 25.5t-24 70.5q0 77 61.5 149.5t156.5 83.5z" />
    <glyph glyph-name="quoteright" unicode="&#x2019;" horiz-adv-x="234" 
d="M94 318l-13 37q49 15 73 33t37 54q4 8 4 22t-6 17q-52 33 -52 75q0 36 25.5 63.5t64.5 27.5q37 0 60.5 -25.5t23.5 -70.5q0 -77 -61 -149.5t-156 -83.5z" />
    <glyph glyph-name="quotesinglbase" unicode="&#x201a;" horiz-adv-x="235" 
d="M-61 -161l-12 37q49 15 72.5 33t37.5 54q4 7 3.5 21t-6.5 18q-52 33 -52 75q0 35 26 63t64 28q37 0 61 -25.5t24 -70.5q0 -77 -61.5 -149.5t-156.5 -83.5z" />
    <glyph glyph-name="quotedblleft" unicode="&#x201c;" horiz-adv-x="486" 
d="M325 646l12 -37q-49 -15 -72.5 -33t-37.5 -54q-4 -8 -3.5 -22t6.5 -17q52 -33 52 -75q0 -36 -26 -63.5t-64 -27.5q-37 0 -61 25.5t-24 70.5q0 77 61.5 149.5t156.5 83.5zM568 646l13 -37q-49 -15 -73 -33t-37 -54q-4 -8 -4 -22t6 -17q52 -33 52 -75q0 -36 -25.5 -63.5
t-64.5 -27.5q-37 0 -60.5 25.5t-23.5 70.5q0 77 61 149.5t156 83.5z" />
    <glyph glyph-name="quotedblright" unicode="&#x201d;" horiz-adv-x="477" 
d="M94 318l-13 37q49 15 73 33t37 54q4 8 4 22t-6 17q-52 33 -52 75q0 36 25.5 63.5t64.5 27.5q37 0 60.5 -25.5t23.5 -70.5q0 -77 -61 -149.5t-156 -83.5zM337 318l-12 37q49 15 72.5 33t37.5 54q4 8 3.5 22t-6.5 17q-52 33 -52 75q0 36 26 63.5t64 27.5q37 0 61 -25.5
t24 -70.5q0 -77 -61.5 -149.5t-156.5 -83.5z" />
    <glyph glyph-name="quotedblbase" unicode="&#x201e;" horiz-adv-x="477" 
d="M-60 -156l-12 37q49 15 72.5 33t37.5 54q4 7 3.5 21t-6.5 18q-52 33 -52 75q0 35 26 63t64 28q37 0 61 -25.5t24 -70.5q0 -77 -61.5 -149.5t-156.5 -83.5zM183 -156l-12 37q49 15 72.5 33t37.5 54q4 7 3.5 21t-6.5 18q-51 32 -51 75q0 35 25.5 63t63.5 28q37 0 61 -25.5
t24 -70.5q0 -77 -61 -149.5t-157 -83.5z" />
    <glyph glyph-name="dagger" unicode="&#x2020;" horiz-adv-x="444" 
d="M144 3l51 323l68 70l26 48q-23 1 -59.5 -22t-51.5 -23q-36 0 -51.5 23t-2.5 56q11 40 66 40q21 0 46.5 -21t51.5 -15q14 32 4.5 68.5t-2.5 56.5q14 48 62 48q33 0 45.5 -26t-0.5 -61q-4 -13 -38 -44t-50 -65q25 6 62.5 32.5t54.5 26.5q36 0 51 -22.5t4 -56.5
q-11 -40 -67 -40q-22 0 -46.5 23t-49.5 22l-27 -48l28 -70l-154 -323h-21z" />
    <glyph glyph-name="daggerdbl" unicode="&#x2021;" horiz-adv-x="444" 
d="M155 -33q-34 0 -46.5 26t0.5 61q4 12 38 43t51 66q-25 -6 -62 -32.5t-54 -26.5q-36 0 -51.5 22.5t-2.5 56.5q12 39 65 39q23 0 48.5 -23t49.5 -22l23 49l-22 90l73 80l24 48q-23 1 -59.5 -22t-51.5 -23q-36 0 -51.5 23t-2.5 56q11 40 66 40q21 0 46.5 -21t51.5 -15
q14 32 4.5 68.5t-2.5 56.5q14 48 62 48q33 0 45.5 -26t-0.5 -61q-4 -13 -38 -44t-50 -65q25 6 62.5 32.5t54.5 26.5q36 0 51 -22.5t4 -56.5q-11 -40 -67 -40q-22 0 -46.5 23t-49.5 22l-27 -48l28 -80l-77 -90l-27 -49q26 -1 62.5 22t51.5 23q37 0 51.5 -22.5t3.5 -56.5
q-12 -39 -66 -39q-20 0 -47 20.5t-54 14.5q-13 -32 -2.5 -67.5t3.5 -57.5q-13 -47 -63 -47z" />
    <glyph glyph-name="bullet" unicode="&#x2022;" horiz-adv-x="430" 
d="M215 48q-71 0 -120 49.5t-49 120.5t49 120.5t120 49.5t120.5 -49.5t49.5 -120.5t-49.5 -120.5t-120.5 -49.5z" />
    <glyph glyph-name="ellipsis" unicode="&#x2026;" horiz-adv-x="746" 
d="M81 -10q-37 0 -63 26.5t-26 64.5q0 35 26 61t63 26q35 0 61 -26t26 -61q0 -38 -25.5 -64.5t-61.5 -26.5zM325 -10q-37 0 -63 26.5t-26 64.5q0 35 26 61t63 26q35 0 61 -26t26 -61q0 -38 -25.5 -64.5t-61.5 -26.5zM569 -10q-37 0 -63 26.5t-26 64.5q0 36 26 61.5t63 25.5
q35 0 60.5 -26t25.5 -61q0 -38 -25.5 -64.5t-60.5 -26.5z" />
    <glyph glyph-name="perthousand" unicode="&#x2030;" horiz-adv-x="1077" 
d="M672 638l75 -8l-651 -630h-69l549 528q-28 -11 -57 -11q-46 0 -97 27q-6 -79 -75 -149.5t-147 -70.5q-43 0 -67 23.5t-24 63.5q0 82 73.5 153t154.5 71q53 0 74 -35q62 -46 104 -46q61 0 157 84zM207 362q51 0 114.5 75.5t63.5 128.5q0 29 -26 29q-50 0 -111 -78.5
t-61 -131.5q0 -23 20 -23zM594 309q42 0 64 -21t22 -58q0 -79 -71 -155.5t-152 -76.5q-45 0 -69 23t-24 64q0 78 74.5 151t155.5 73zM951 309q42 0 63.5 -21t21.5 -58q0 -79 -70.5 -155.5t-151.5 -76.5q-45 0 -69 23t-24 64q0 78 74.5 151t155.5 73zM464 37q52 0 115 76.5
t63 129.5q0 27 -28 27q-46 0 -109 -81t-63 -130q0 -10 6.5 -16t15.5 -6zM821 37q51 0 114.5 76.5t63.5 129.5q0 27 -28 27q-46 0 -109.5 -81t-63.5 -130q0 -10 6.5 -16t16.5 -6z" />
    <glyph glyph-name="guilsinglleft" unicode="&#x2039;" horiz-adv-x="238" 
d="M43 227l183 146l13 -16l-110 -130l23 -130l-25 -16z" />
    <glyph glyph-name="guilsinglright" unicode="&#x203a;" horiz-adv-x="239" 
d="M194 217l-183 -146l-12 16l110 130l-24 130l25 16z" />
    <glyph glyph-name="fraction" unicode="&#x2044;" horiz-adv-x="88" 
d="M-234 -5l597 641h25l-597 -641h-25z" />
    <glyph glyph-name="Euro" unicode="&#x20ac;" horiz-adv-x="728" 
d="M619 645q59 0 102.5 -18t63.5 -43l-32 -131h-41q6 76 -16 112t-80 36q-65 0 -119 -45t-90 -118h136l-51 -101h-124q-5 -18 -10 -44h112l-51 -101h-67q5 -67 39 -105t94 -38q40 0 83.5 15.5t75.5 45.5l23 -48q-38 -34 -102 -54.5t-138 -20.5q-107 0 -167 56t-69 149h-161
l51 101h116q5 24 12 44h-108l53 101h103q60 93 157 150t205 57z" />
    <glyph glyph-name="trademark" unicode="&#x2122;" horiz-adv-x="960" 
d="M197 299v21q18 5 25.5 7.5t14.5 12.5t7 27v236h-13q-37 0 -52.5 -18.5t-23.5 -55.5h-19l6 101h303l5 -101h-22q-11 74 -71 74h-14l1 -236q0 -13 2.5 -21.5t10 -13.5t13 -7t18.5 -5v-21h-191zM502 299v21q20 5 28 7.5t15.5 12.5t7.5 27v193q0 15 -2.5 23.5t-12 13.5
t-13.5 6.5t-21 4.5v22h150l88 -194l78 194h157v-22q-2 0 -5 -1q-13 -2 -18.5 -4t-12.5 -7t-9.5 -13.5t-2.5 -22.5l-1 -193q0 -17 8 -27t16 -12.5t28 -7.5v-21h-196v21q27 6 37 14t10 33l-3 212l-113 -280h-15l-118 258l5 -190q0 -25 9 -33t37 -14v-21h-131z" />
    <glyph glyph-name="oneeighth" unicode="&#x215b;" horiz-adv-x="520" 
d="M214 409l-3 -11h-118l3 11q39 5 52 32l45 142q1 5 4 12q2 13 -4 14l-25 -3l4 11l77 33l6 -6l-71 -216q-4 -10 1 -13t21 -5q5 -1 8 -1zM546 636h25l-597 -641h-25zM407 244q31 0 45 -18t6 -42q-10 -29 -47 -52q42 -23 27 -67q-11 -34 -43.5 -54.5t-72.5 -20.5
q-38 0 -56.5 19t-8.5 51q15 41 60 63q-17 23 -7 54q9 28 36.5 47.5t60.5 19.5zM429 183q7 15 0.5 29.5t-28.5 14.5q-38 0 -50 -36q-10 -28 25 -43l20 -9q25 17 33 44zM391 50q5 17 -1 26t-28 20l-22 10q-8 4 -11 7q-31 -18 -42 -50q-8 -25 3 -40.5t40 -15.5q47 0 61 43z" />
    <glyph glyph-name="threeeighths" unicode="&#x215c;" horiz-adv-x="669" 
d="M143 384q-21 0 -37 6t-16 18q0 10 6.5 15.5t14.5 5.5t17.5 -15.5t25.5 -15.5q29 0 53.5 25.5t24.5 54.5q0 35 -42 35q-16 0 -35 -7l-1 12l32 12q35 13 53.5 26.5t18.5 35.5q0 21 -29 21q-37 0 -66 -27l-6 8q44 47 98 47q46 0 46 -37q0 -42 -73 -72q52 -4 52 -45
q0 -39 -44 -71t-93 -32zM631 636h25l-597 -641h-25zM563 244q31 0 45 -18t6 -42q-10 -29 -47 -52q42 -23 27 -67q-11 -34 -43.5 -54.5t-72.5 -20.5q-38 0 -56.5 19t-8.5 51q15 41 60 63q-17 23 -7 54q9 28 36.5 47.5t60.5 19.5zM585 183q7 15 0.5 29.5t-28.5 14.5
q-38 0 -50 -36q-10 -28 25 -43l20 -9q25 17 33 44zM547 50q5 17 -1 26t-28 20l-22 10q-8 4 -11 7q-31 -18 -42 -50q-8 -25 3 -40.5t40 -15.5q47 0 61 43z" />
    <glyph glyph-name="fiveeighths" unicode="&#x215d;" horiz-adv-x="680" 
d="M145 390q-53 0 -53 24q0 8 6.5 14.5t14.5 6.5q9 0 18.5 -15.5t26.5 -15.5q27 0 51 25.5t24 53.5q0 43 -86 37l-4 8l72 112h60q35 0 47 12h8l-31 -49h-92l-32 -50q109 7 109 -50q0 -43 -44.5 -78t-94.5 -35zM644 636h25l-597 -641h-25zM577 244q31 0 45 -18t6 -42
q-10 -29 -47 -52q42 -23 27 -67q-11 -34 -43.5 -54.5t-72.5 -20.5q-38 0 -56.5 19t-8.5 51q15 41 60 63q-17 23 -7 54q9 28 36.5 47.5t60.5 19.5zM599 183q7 15 0.5 29.5t-28.5 14.5q-38 0 -50 -36q-10 -28 25 -43l20 -9q25 17 33 44zM561 50q5 17 -1 26t-28 20l-22 10
q-8 4 -11 7q-31 -18 -42 -50q-8 -25 3 -40.5t40 -15.5q47 0 61 43z" />
    <glyph glyph-name="seveneighths" unicode="&#x215e;" horiz-adv-x="644" 
d="M148 398h-29q56 95 163 213h-74q-18 0 -29 -5t-25 -24h-8l40 66l15 -4h120l2 -6q-113 -125 -175 -240zM619 636h25l-597 -641h-25zM552 244q31 0 45 -18t6 -42q-10 -29 -47 -52q42 -23 27 -67q-11 -34 -43.5 -54.5t-72.5 -20.5q-38 0 -56.5 19t-8.5 51q15 41 60 63
q-17 23 -7 54q9 28 36.5 47.5t60.5 19.5zM574 183q7 15 0.5 29.5t-28.5 14.5q-38 0 -50 -36q-10 -28 25 -43l20 -9q25 17 33 44zM536 50q5 17 -1 26t-28 20l-22 10q-8 4 -11 7q-31 -18 -42 -50q-8 -25 3 -40.5t40 -15.5q47 0 61 43z" />
    <glyph glyph-name="partialdiff" unicode="&#x2202;" horiz-adv-x="573" 
d="M234 -12q-98 0 -151 46.5t-53 122.5q0 51 25 101.5t65.5 86.5t90.5 60.5t100 24t95 -22.5l4 -32q-61 13 -121.5 -33t-96 -119.5t-35.5 -141.5q0 -29 10 -42.5t36 -13.5q60 0 115 67t85.5 157.5t30.5 166.5q0 86 -44.5 130.5t-120.5 51.5l19 39q116 -6 203 -84.5
t87 -201.5q0 -152 -97.5 -257.5t-246.5 -105.5z" />
    <glyph glyph-name="emptyset" unicode="&#x2205;" horiz-adv-x="516" 
d="M554 417l-70 -53q31 -63 4 -144q-31 -95 -119 -162t-183 -67q-82 0 -129 53l-73 -55l-24 34l75 56q-28 62 -3 141q31 95 119.5 161.5t182.5 66.5q80 0 126 -49l71 53zM83 220q-19 -57 -1 -105l330 248q-37 34 -96 34q-75 0 -142 -51t-91 -126zM437 220q20 62 -1 108
l-331 -248q35 -38 99 -38q74 0 141 51.5t92 126.5z" />
    <glyph glyph-name="product" unicode="&#x220f;" horiz-adv-x="579" 
d="M722 800l-325 -1000h-104l288 889h-277l-286 -889h-106l325 1000h485z" />
    <glyph glyph-name="summation" unicode="&#x2211;" horiz-adv-x="525" 
d="M667 800l-34 -111h-286l150 -390l-395 -388h276l-35 -111h-430l35 111l417 410l-162 368l34 111h430z" />
    <glyph glyph-name="minus" unicode="&#x2212;" horiz-adv-x="407" 
d="M31 196l38 111h333l-38 -111h-333z" />
    <glyph glyph-name="radical" unicode="&#x221a;" horiz-adv-x="848" 
d="M142 -200l-41 330q-4 28 -13.5 43.5t-18 20t-36.5 16.5l6 41h183l35 -333l637 883h138l-13 -62q-47 -11 -82.5 -36.5t-77.5 -83.5l-592 -819h-125z" />
    <glyph glyph-name="infinity" unicode="&#x221e;" horiz-adv-x="638" 
d="M152 19q-54 0 -85 40t-31 103t27 130.5t75.5 115t102.5 47.5q38 0 64 -24t36 -63q87 90 164 90q52 0 81 -41t29 -109q0 -106 -63 -196.5t-141 -90.5q-37 0 -63 24.5t-35 62.5q-89 -89 -161 -89zM115 148q74 0 127 84l74 96q-19 40 -75 40q-60 0 -110.5 -58t-50.5 -119
q0 -43 35 -43zM427 108q50 0 98 59t48 117q0 45 -41 45q-68 0 -120 -88l-74 -93q11 -24 32.5 -32t56.5 -8z" />
    <glyph glyph-name="integral" unicode="&#x222b;" horiz-adv-x="582" 
d="M-59 -175q-48 0 -79.5 24.5t-24.5 75.5q10 24 48 38.5t76 7.5q-7 -31 -7 -62.5t22 -31.5q26 0 57.5 26t58.5 86l194 450q35 80 98.5 138.5t125 83t114.5 24.5q47 0 77 -24.5t24 -75.5q-9 -23 -47 -38t-73 -8q0 10 1 25.5t1.5 26t0 21t-5 16t-13.5 5.5q-27 0 -59 -26
t-58 -86l-191 -443q-51 -118 -153.5 -185.5t-186.5 -67.5z" />
    <glyph glyph-name="approxequal" unicode="&#x2248;" horiz-adv-x="502" 
d="M349 251q-30 0 -52.5 12t-34.5 26t-32 26t-46 12q-27 0 -60 -24t-36 -39l-18 20q13 62 56.5 95t94.5 33q31 0 54 -12t35.5 -26t32.5 -26t44 -12q28 0 60 23t39 39l18 -19q-13 -62 -57.5 -95t-97.5 -33zM299 81q-30 0 -53 12t-34.5 26t-32 26t-46.5 12q-27 0 -59.5 -24
t-36.5 -39l-18 20q13 62 56.5 95t94.5 33q31 0 54.5 -12t35.5 -26t32 -26t44 -12q28 0 60 23t39 39l18 -19q-13 -62 -57 -95t-97 -33z" />
    <glyph glyph-name="notequal" unicode="&#x2260;" horiz-adv-x="408" 
d="M392 286h-103l-28 -69h110l-37 -111h-120l-44 -106h-115l44 106h-98l37 111h108l28 69h-115l37 111h125l41 99h115l-41 -99h93z" />
    <glyph glyph-name="lessequal" unicode="&#x2264;" horiz-adv-x="686" 
d="M528 100q-150 76 -401 172l-25 111q177 85 290 170l30 -132q-70 -44 -98 -56q-21 -8 -73 -25q100 -32 129.5 -43t111.5 -47zM561 -25h-333l-37 111h333z" />
    <glyph glyph-name="greaterequal" unicode="&#x2265;" horiz-adv-x="449" 
d="M24 100l35 150q84 37 113.5 48t128.5 42q-66 21 -87 31t-68 40q-10 6 -16 10l30 132q113 -85 290 -170l-25 -111q-245 -93 -401 -172zM-9 -25l37 111h333l-37 -111h-333z" />
    <glyph glyph-name="lozenge" unicode="&#x25ca;" horiz-adv-x="593" 
d="M220 -18l-152 328l366 329l153 -329zM250 71l262 239l-107 240l-262 -240z" />
    <glyph glyph-name="M.ss01" horiz-adv-x="818" 
d="M929 630l-3 -33q-44 -9 -69.5 -26.5t-40.5 -63.5l-128 -398q-8 -25 -9.5 -39.5t7 -22.5t16.5 -11t29 -8l-5 -28h-301l4 33q43 9 67 26.5t41 63.5l135 416l-365 -539h-27l-34 510l-129 -401q-8 -25 -9.5 -39.5t7 -22.5t17.5 -11t31 -8l-5 -28h-202l2 33q30 6 48 13t37 26
t29 51l132 407q6 17 7.5 28t1.5 17.5t-7 10.5t-11 5.5t-17.5 4t-19.5 3.5l4 31h231q-3 -25 1 -87l22 -308l216 318q6 10 23.5 37t23.5 40h250z" />
    <glyph glyph-name="W.ss01" horiz-adv-x="851" 
d="M796 630h174l-2 -33q-38 -8 -57 -20.5t-41 -46.5l-389 -537h-48l-10 222l-161 -222h-45l3 4l-29 546q-1 32 -10.5 40t-45.5 16l2 31h614l-4 -33q-38 -8 -56 -20.5t-40 -46.5l-83 -114l16 -210l235 337q11 17 15 27t-4.5 16t-12 7.5t-24.5 7.5zM370 214l49 71l-12 258
q-1 20 -6 33.5t-8.5 17t-5.5 3.5q-15 0 -28 -17.5t-13 -46.5zM602 597q-18 0 -30 -17t-13 -47l3 -42l36 52q14 20 16 33t-2 17t-10 4z" />
    <glyph glyph-name="i.loclTRK" horiz-adv-x="317" 
d="M281 468q-38 0 -66 27.5t-28 64.5t28 63t66 26t66 -26t28 -63t-28 -64.5t-66 -27.5zM267 162l24 -22q-108 -150 -207 -150q-44 0 -56.5 28t4.5 57l105 234q16 37 -2 34q-24 -5 -74 -62l-13 -16l-23 22q105 150 203 150q44 0 58.5 -28t-1.5 -57l-104 -234q-17 -39 0 -36
q24 5 79 71z" />
    <glyph glyph-name="T_h" horiz-adv-x="1055" 
d="M953 439q46 0 81 -26t33 -78q-2 -54 -48 -136t-111.5 -145t-114.5 -63q-28 0 -53.5 15t-25.5 43q0 19 15 34t37 15q17 0 23 -18t7 -36.5t6 -18.5q33 0 68 111t39 188q2 34 -1.5 42.5t-16.5 8.5q-56 0 -119.5 -107t-116.5 -268h-136l165 478q27 107 -79 107h-77l-155 -476
q-8 -24 -8 -38t7 -21t19.5 -11t30.5 -7q5 -1 8 -1l-10 -31h-315l11 32q44 8 68 26t39 65l149 462h-53q-68 0 -111 -35t-73 -102h-32l72 192l50 -10h419l222 41l10 -15l-75 -241l-106 -203l4 1q78 121 139 173.5t115 52.5z" />
    <glyph glyph-name="f_b" horiz-adv-x="857" 
d="M750 439q46 0 77 -33t31 -94q0 -120 -102.5 -220.5t-224.5 -100.5q-83 0 -116 42.5t-13 97.5l170 499l-1 2q-1 2 -3.5 5.5t-6 7t-10 7.5t-14 7.5t-19.5 5.5t-26 2q-55 0 -98 -37.5t-63 -107.5l-26 -92h110l-17 -50l-105 5l-84 -302q-34 -129 -110 -199t-162 -70
q-51 0 -79.5 20t-28.5 55q0 26 16.5 44t41.5 18q24 0 36 -18.5t11 -44.5q-1 -36 35 -36q22 0 41.5 28.5t42.5 109.5l108 402l-118 6l12 32h116q33 122 112.5 200t196.5 78q73 0 145.5 -26t78.5 -52l-87 -263q63 72 133 72zM554 26q38 0 76 59.5t60 135.5t22 132q0 39 -18 39
q-20 0 -57 -54t-79 -152v2l-26 -78q-27 -84 22 -84z" />
    <glyph glyph-name="f_h" horiz-adv-x="885" 
d="M783 439q46 0 80.5 -26t32.5 -78q-1 -54 -47.5 -136t-111.5 -145t-114 -63q-28 0 -53.5 15t-25.5 43q0 20 14.5 34.5t36.5 14.5q17 0 23 -18t7.5 -36.5t6.5 -18.5q33 0 68 111t39 188q2 34 -1.5 42.5t-16.5 8.5q-56 0 -119.5 -107t-116.5 -268h-133l220 630v2
q-1 1 -2.5 3t-3.5 5t-5 6t-7 6t-10.5 5.5t-13.5 5t-17 3.5t-21 1q-56 0 -100 -36t-64 -109l-25 -92h109l-16 -50l-105 5l-82 -302q-34 -129 -110 -199t-162 -70q-48 0 -78 20.5t-30 55.5q0 26 16.5 43.5t41.5 17.5q24 0 36 -18.5t11 -44.5q-1 -36 35 -36q22 0 42.5 29
t41.5 109l106 402l-119 6l12 32h117q32 116 113 197t196 81q72 0 147.5 -26.5t75.5 -51.5l-70 -215l-106 -203l4 1q78 121 139 173.5t115 52.5z" />
    <glyph glyph-name="f_j" horiz-adv-x="677" 
d="M748 618q8 -18 8 -35q0 -35 -27.5 -60.5t-63.5 -25.5t-63.5 25.5t-27.5 60.5q0 14 5 29q6 28 -18.5 41.5t-62.5 13.5q-128 0 -167 -145l-26 -92h108l-14 -50l-106 5l-84 -302q-34 -129 -110 -199t-162 -70q-48 0 -78 20.5t-30 55.5q0 26 16.5 43.5t41.5 17.5
q24 0 36 -18.5t11 -44.5q-1 -36 35 -36q22 0 42.5 29t41.5 109l108 401l-117 5l12 34h115q75 278 358 278q169 0 220 -90h-1zM620 435q44 0 58 -28.5t-1 -66.5l-93 -269q-81 -246 -250 -246q-53 0 -81.5 25t-28.5 63q0 29 17 49t45 20q58 0 43 -88q-6 -32 23 -32q25 0 37 21
t35 93q5 16 8 24l97 307q13 40 -8 32q-29 -11 -80 -76l-23 22q53 76 101.5 113t100.5 37z" />
    <glyph glyph-name="f_k" horiz-adv-x="888" 
d="M478 708q72 0 147.5 -26.5t75.5 -51.5l-218 -630h-133l222 630v2q-1 1 -2.5 3t-3.5 5t-5 6t-7 6t-10.5 5.5t-13.5 5t-17 3.5t-21 1q-56 0 -101 -36t-64 -109l-25 -92h108l-14 -50l-106 5l-82 -302q-35 -129 -110 -199t-161 -70q-51 0 -79.5 20t-28.5 55q0 26 16.5 44
t41.5 18q24 0 36 -18.5t11 -44.5q-1 -36 35 -36q22 0 41.5 29t40.5 109l106 401l-117 5l12 34h115q32 116 114 197t197 81zM915 398q-13 -1 -23.5 -2.5t-21.5 -5.5t-17 -6t-18.5 -9.5t-17 -10.5t-20.5 -14t-21 -15l-57 -43l64 -200q8 -27 17 -27.5t41 25.5l10 -26
q-37 -35 -73 -54.5t-60 -19.5q-50 0 -72 74l-54 191l145 107q14 11 18 17.5t-1.5 10.5t-14 5.5t-26.5 2.5l8 32h203z" />
    <glyph glyph-name="t_t" horiz-adv-x="728" 
d="M666 386l-107 -303q-6 -17 5 -13q26 8 106 97l28 -20q-116 -156 -213 -156q-36 0 -54 31.5t-8 62.5l105 295h-144l-102 6l-107 -303q-6 -17 6 -13q26 8 105 97l29 -20q-116 -156 -213 -156q-36 0 -54 31.5t-8 62.5l109 308l-94 5l12 32h95l41 117l141 15l-47 -132h248
l42 117l141 15l-47 -132h103l-17 -50z" />
    <glyph glyph-name="a.sc" 
d="M464 87q3 -30 16.5 -39.5t50.5 -14.5l-13 -33h-305l9 33q25 5 41 10.5t29.5 19.5t11.5 34l-5 59h-147l-57 -78q-9 -12 -12.5 -19t0.5 -11.5t8 -6.5t16.5 -5t18.5 -5l-9 -31h-179l10 33q34 3 50.5 16.5t44.5 51.5l334 429h48l-3 -4zM183 199h112l-12 136z" />
    <glyph glyph-name="aacute.sc" 
d="M503 688q-85 -54 -131 -101l-41 24q16 81 69 156q31 0 61.5 -23.5t41.5 -55.5zM464 87q3 -30 16.5 -39.5t50.5 -14.5l-13 -33h-305l9 33q25 5 41 10.5t29.5 19.5t11.5 34l-5 59h-147l-57 -78q-9 -12 -12.5 -19t0.5 -11.5t8 -6.5t16.5 -5t18.5 -5l-9 -31h-179l10 33
q34 3 50.5 16.5t44.5 51.5l334 429h48l-3 -4zM183 199h112l-12 136z" />
    <glyph glyph-name="abreve.sc" 
d="M570 778h32q-48 -163 -185 -163q-70 0 -103 45t-7 120h32q-9 -42 16 -61.5t73 -18.5q51 1 88.5 23.5t53.5 54.5zM464 87q3 -30 16.5 -39.5t50.5 -14.5l-13 -33h-305l9 33q25 5 41 10.5t29.5 19.5t11.5 34l-5 59h-147l-57 -78q-9 -12 -12.5 -19t0.5 -11.5t8 -6.5t16.5 -5
t18.5 -5l-9 -31h-179l10 33q34 3 50.5 16.5t44.5 51.5l334 429h48l-3 -4zM183 199h112l-12 136z" />
    <glyph glyph-name="acircumflex.sc" 
d="M426 686l-140 -76l-11 20l173 150l89 -147l-18 -23zM464 87q3 -30 16.5 -39.5t50.5 -14.5l-13 -33h-305l9 33q25 5 41 10.5t29.5 19.5t11.5 34l-5 59h-147l-57 -78q-9 -12 -12.5 -19t0.5 -11.5t8 -6.5t16.5 -5t18.5 -5l-9 -31h-179l10 33q34 3 50.5 16.5t44.5 51.5
l334 429h48l-3 -4zM183 199h112l-12 136z" />
    <glyph glyph-name="adieresis.sc" 
d="M277 634q-31 0 -54 23t-23 54q0 29 23 51.5t54 22.5q30 0 52.5 -22.5t22.5 -51.5q0 -31 -22.5 -54t-52.5 -23zM514 785q30 0 52.5 -22.5t22.5 -51.5q0 -31 -22.5 -54t-52.5 -23q-32 0 -54.5 23t-22.5 54q0 29 23 51.5t54 22.5zM464 87q3 -30 16.5 -39.5t50.5 -14.5
l-13 -33h-305l9 33q25 5 41 10.5t29.5 19.5t11.5 34l-5 59h-147l-57 -78q-9 -12 -12.5 -19t0.5 -11.5t8 -6.5t16.5 -5t18.5 -5l-9 -31h-179l10 33q34 3 50.5 16.5t44.5 51.5l334 429h48l-3 -4zM183 199h112l-12 136z" />
    <glyph glyph-name="agrave.sc" 
d="M371 587q-46 47 -131 101q11 32 41.5 55.5t61.5 23.5q53 -75 69 -156zM464 87q3 -30 16.5 -39.5t50.5 -14.5l-13 -33h-305l9 33q25 5 41 10.5t29.5 19.5t11.5 34l-5 59h-147l-57 -78q-9 -12 -12.5 -19t0.5 -11.5t8 -6.5t16.5 -5t18.5 -5l-9 -31h-179l10 33
q34 3 50.5 16.5t44.5 51.5l334 429h48l-3 -4zM183 199h112l-12 136z" />
    <glyph glyph-name="amacron.sc" 
d="M290 727h280l-15 -56h-280zM464 87q3 -30 16.5 -39.5t50.5 -14.5l-13 -33h-305l9 33q25 5 41 10.5t29.5 19.5t11.5 34l-5 59h-147l-57 -78q-9 -12 -12.5 -19t0.5 -11.5t8 -6.5t16.5 -5t18.5 -5l-9 -31h-179l10 33q34 3 50.5 16.5t44.5 51.5l334 429h48l-3 -4zM183 199
h112l-12 136z" />
    <glyph glyph-name="aogonek.sc" 
d="M464 87q3 -30 16.5 -39.5t50.5 -14.5l-13 -33h-131q-85 -45 -85 -96q0 -23 13 -37.5t35 -14.5q17 0 31 5l-7 -24q-40 -32 -95 -32q-91 0 -91 73q0 42 28 73l86 53h-89l9 33q25 5 41 10.5t29.5 19.5t11.5 34l-5 59h-147l-57 -78q-9 -12 -12.5 -19t0.5 -11.5t8 -6.5
t16.5 -5t18.5 -5l-9 -31h-179l10 33q34 3 50.5 16.5t44.5 51.5l334 429h48l-3 -4zM183 199h112l-12 136z" />
    <glyph glyph-name="aring.sc" 
d="M442 610q-45 0 -75 29t-30 72t30 72t75 29t74.5 -29t29.5 -72t-29.5 -72t-74.5 -29zM442 745q-37 0 -37 -34t37 -34q36 0 36 34t-36 34zM464 87q3 -30 16.5 -39.5t50.5 -14.5l-13 -33h-305l9 33q25 5 41 10.5t29.5 19.5t11.5 34l-5 59h-147l-57 -78q-9 -12 -12.5 -19
t0.5 -11.5t8 -6.5t16.5 -5t18.5 -5l-9 -31h-179l10 33q34 3 50.5 16.5t44.5 51.5l334 429h48l-3 -4zM183 199h112l-12 136z" />
    <glyph glyph-name="atilde.sc" 
d="M580 741l23 -19q-12 -64 -51.5 -98t-86.5 -34q-26 0 -45 12t-28.5 26.5t-24 26.5t-32.5 12q-30 0 -59.5 -24.5t-34.5 -41.5l-23 20q12 63 51 97t85 34q26 0 46 -12t30.5 -26t26 -26t33.5 -12q29 0 58 24.5t32 40.5zM464 87q3 -30 16.5 -39.5t50.5 -14.5l-13 -33h-305
l9 33q25 5 41 10.5t29.5 19.5t11.5 34l-5 59h-147l-57 -78q-9 -12 -12.5 -19t0.5 -11.5t8 -6.5t16.5 -5t18.5 -5l-9 -31h-179l10 33q34 3 50.5 16.5t44.5 51.5l334 429h48l-3 -4zM183 199h112l-12 136z" />
    <glyph glyph-name="ae.sc" horiz-adv-x="846" 
d="M880 530l-39 -142h-33q10 57 0.5 76.5t-59.5 19.5h-45q-56 0 -82.5 -18.5t-42.5 -69.5l-35 -106h42q69 0 100.5 20t52.5 63h28l-66 -201h-26q9 47 -5 60.5t-85 13.5h-55l-45 -135q-8 -25 -10 -37.5t5.5 -19t17.5 -7.5t38 -1h11h23q57 0 99.5 25.5t91.5 84.5h37l-86 -156
h-508l11 33q28 6 44.5 13t34 26t26.5 51l16 50h-148l-81 -95q-14 -17 -14.5 -25.5t5.5 -11.5t28 -10l-9 -31h-179l10 33q35 5 58 20t54 48l338 395q-6 1 -25 5l8 29h499zM224 215h126l71 215q5 14 6 23z" />
    <glyph glyph-name="b.sc" horiz-adv-x="653" 
d="M647 416q0 -109 -144 -145q106 -33 106 -105q0 -45 -23 -77t-55.5 -48.5t-85 -26.5t-94 -12t-98.5 -2h-307l12 33q41 9 65 26.5t38 63.5l100 307q7 21 8.5 31t-7.5 17.5t-16.5 10t-36.5 10.5l10 31h291q237 0 237 -114zM287 295h41q67 0 114 45t47 105q0 39 -68 39h-5
q-36 -1 -58.5 -18t-28.5 -43zM441 208q0 13 -9 22t-39 15t-81 6h-40l-46 -140q-16 -38 -1.5 -51.5t48.5 -13.5q71 0 119.5 48t48.5 114z" />
    <glyph glyph-name="c.sc" horiz-adv-x="568" 
d="M278 -12q-106 0 -168 55.5t-62 146.5q0 150 115 251t276 101q116 0 165 -61q-6 -52 -29 -131h-39q-3 85 -18 115.5t-68 30.5q-98 0 -164.5 -100t-66.5 -219q0 -59 29 -93t91 -34q70 0 141 61l25 -48q-90 -75 -227 -75z" />
    <glyph glyph-name="cacute.sc" horiz-adv-x="568" 
d="M387 587l-41 24q16 81 69 156q31 0 61.5 -23.5t41.5 -55.5q-85 -54 -131 -101zM278 -12q-106 0 -168 55.5t-62 146.5q0 150 115 251t276 101q116 0 165 -61q-6 -52 -29 -131h-39q-3 85 -18 115.5t-68 30.5q-98 0 -164.5 -100t-66.5 -219q0 -59 29 -93t91 -34q70 0 141 61
l25 -48q-90 -75 -227 -75z" />
    <glyph glyph-name="ccaron.sc" horiz-adv-x="568" 
d="M419 608l-89 147l17 22l94 -75l139 75l12 -20zM278 -12q-106 0 -168 55.5t-62 146.5q0 150 115 251t276 101q116 0 165 -61q-6 -52 -29 -131h-39q-3 85 -18 115.5t-68 30.5q-98 0 -164.5 -100t-66.5 -219q0 -59 29 -93t91 -34q70 0 141 61l25 -48q-90 -75 -227 -75z" />
    <glyph glyph-name="ccedilla.sc" horiz-adv-x="568" 
d="M439 542q116 0 165 -61q-6 -52 -29 -131h-39q-3 85 -18 115.5t-68 30.5q-98 0 -164.5 -100t-66.5 -219q0 -59 29 -93t91 -34q70 0 141 61l25 -48q-90 -75 -227 -75q-22 0 -42 3l-13 -27q43 0 81.5 -23t38.5 -65q0 -88 -184 -88l5 31q87 0 87 43q0 40 -117 40l50 98h6
q-67 20 -104.5 70t-37.5 120q0 150 115 251t276 101z" />
    <glyph glyph-name="cdotaccent.sc" horiz-adv-x="568" 
d="M439 568q-38 0 -66 27.5t-28 64.5t28 63t66 26t66 -26t28 -63t-28 -64.5t-66 -27.5zM278 -12q-106 0 -168 55.5t-62 146.5q0 150 115 251t276 101q116 0 165 -61q-6 -52 -29 -131h-39q-3 85 -18 115.5t-68 30.5q-98 0 -164.5 -100t-66.5 -219q0 -59 29 -93t91 -34
q70 0 141 61l25 -48q-90 -75 -227 -75z" />
    <glyph glyph-name="d.sc" horiz-adv-x="645" 
d="M415 530q96 0 162 -51t66 -142q0 -142 -116 -239.5t-270 -97.5h-308l9 36q22 5 34 9t28.5 13t27 25t17.5 40l101 307q5 16 7 24t2 16v10.5t-6.5 6.5t-9.5 4.5t-17 4t-21 5.5l8 29h286zM276 44q51 0 101 62t78.5 145t28.5 150q0 41 -17.5 63t-61.5 22h-53l-117 -357
q-15 -54 -7 -69.5t48 -15.5z" />
    <glyph glyph-name="dcaron.sc" horiz-adv-x="645" 
d="M609 757l-173 -149l-89 147l17 22l94 -75l139 75zM415 530q96 0 162 -51t66 -142q0 -142 -116 -239.5t-270 -97.5h-308l9 36q22 5 34 9t28.5 13t27 25t17.5 40l101 307q5 16 7 24t2 16v10.5t-6.5 6.5t-9.5 4.5t-17 4t-21 5.5l8 29h286zM276 44q51 0 101 62t78.5 145
t28.5 150q0 41 -17.5 63t-61.5 22h-53l-117 -357q-15 -54 -7 -69.5t48 -15.5z" />
    <glyph glyph-name="e.sc" horiz-adv-x="588" 
d="M124 530h498l-39 -142h-33q10 57 1 76.5t-59 19.5h-45q-56 0 -83 -18.5t-42 -69.5l-35 -106h42q69 0 100.5 20t52.5 63h27l-66 -201h-25q9 47 -5 60.5t-85 13.5h-55l-45 -135q-8 -26 -10.5 -38t5.5 -19t18 -7.5t38 -0.5h11h23q57 0 99.5 25.5t91.5 84.5h37l-86 -156h-509
l12 33q42 9 66.5 26.5t38.5 63.5l100 307q5 16 6.5 27.5t1 18t-7.5 11.5t-10.5 6t-17.5 4t-19 4z" />
    <glyph glyph-name="eacute.sc" horiz-adv-x="588" 
d="M504 688q-85 -54 -131 -101l-41 24q16 81 69 156q31 0 61.5 -23.5t41.5 -55.5zM124 530h498l-39 -142h-33q10 57 1 76.5t-59 19.5h-45q-56 0 -83 -18.5t-42 -69.5l-35 -106h42q69 0 100.5 20t52.5 63h27l-66 -201h-25q9 47 -5 60.5t-85 13.5h-55l-45 -135
q-8 -26 -10.5 -38t5.5 -19t18 -7.5t38 -0.5h11h23q57 0 99.5 25.5t91.5 84.5h37l-86 -156h-509l12 33q42 9 66.5 26.5t38.5 63.5l100 307q5 16 6.5 27.5t1 18t-7.5 11.5t-10.5 6t-17.5 4t-19 4z" />
    <glyph glyph-name="ecaron.sc" horiz-adv-x="588" 
d="M578 757l-173 -149l-89 147l17 22l94 -75l139 75zM124 530h498l-39 -142h-33q10 57 1 76.5t-59 19.5h-45q-56 0 -83 -18.5t-42 -69.5l-35 -106h42q69 0 100.5 20t52.5 63h27l-66 -201h-25q9 47 -5 60.5t-85 13.5h-55l-45 -135q-8 -26 -10.5 -38t5.5 -19t18 -7.5t38 -0.5
h11h23q57 0 99.5 25.5t91.5 84.5h37l-86 -156h-509l12 33q42 9 66.5 26.5t38.5 63.5l100 307q5 16 6.5 27.5t1 18t-7.5 11.5t-10.5 6t-17.5 4t-19 4z" />
    <glyph glyph-name="ecircumflex.sc" horiz-adv-x="588" 
d="M427 686l-140 -76l-11 20l173 150l89 -147l-18 -23zM124 530h498l-39 -142h-33q10 57 1 76.5t-59 19.5h-45q-56 0 -83 -18.5t-42 -69.5l-35 -106h42q69 0 100.5 20t52.5 63h27l-66 -201h-25q9 47 -5 60.5t-85 13.5h-55l-45 -135q-8 -26 -10.5 -38t5.5 -19t18 -7.5
t38 -0.5h11h23q57 0 99.5 25.5t91.5 84.5h37l-86 -156h-509l12 33q42 9 66.5 26.5t38.5 63.5l100 307q5 16 6.5 27.5t1 18t-7.5 11.5t-10.5 6t-17.5 4t-19 4z" />
    <glyph glyph-name="edieresis.sc" horiz-adv-x="588" 
d="M278 634q-32 0 -54.5 23t-22.5 54q0 29 23 51.5t54 22.5q30 0 52.5 -22.5t22.5 -51.5q0 -31 -22.5 -54t-52.5 -23zM515 634q-31 0 -54 23t-23 54q0 29 23 51.5t54 22.5q30 0 52.5 -22.5t22.5 -51.5q0 -31 -22.5 -54t-52.5 -23zM124 530h498l-39 -142h-33q10 57 1 76.5
t-59 19.5h-45q-56 0 -83 -18.5t-42 -69.5l-35 -106h42q69 0 100.5 20t52.5 63h27l-66 -201h-25q9 47 -5 60.5t-85 13.5h-55l-45 -135q-8 -26 -10.5 -38t5.5 -19t18 -7.5t38 -0.5h11h23q57 0 99.5 25.5t91.5 84.5h37l-86 -156h-509l12 33q42 9 66.5 26.5t38.5 63.5l100 307
q5 16 6.5 27.5t1 18t-7.5 11.5t-10.5 6t-17.5 4t-19 4z" />
    <glyph glyph-name="edotaccent.sc" horiz-adv-x="588" 
d="M426 568q-38 0 -66 27.5t-28 64.5t28 63t66 26t66 -26t28 -63t-28 -64.5t-66 -27.5zM124 530h498l-39 -142h-33q10 57 1 76.5t-59 19.5h-45q-56 0 -83 -18.5t-42 -69.5l-35 -106h42q69 0 100.5 20t52.5 63h27l-66 -201h-25q9 47 -5 60.5t-85 13.5h-55l-45 -135
q-8 -26 -10.5 -38t5.5 -19t18 -7.5t38 -0.5h11h23q57 0 99.5 25.5t91.5 84.5h37l-86 -156h-509l12 33q42 9 66.5 26.5t38.5 63.5l100 307q5 16 6.5 27.5t1 18t-7.5 11.5t-10.5 6t-17.5 4t-19 4z" />
    <glyph glyph-name="egrave.sc" horiz-adv-x="588" 
d="M372 587q-46 47 -131 101q11 32 41.5 55.5t61.5 23.5q53 -75 69 -156zM124 530h498l-39 -142h-33q10 57 1 76.5t-59 19.5h-45q-56 0 -83 -18.5t-42 -69.5l-35 -106h42q69 0 100.5 20t52.5 63h27l-66 -201h-25q9 47 -5 60.5t-85 13.5h-55l-45 -135q-8 -26 -10.5 -38
t5.5 -19t18 -7.5t38 -0.5h11h23q57 0 99.5 25.5t91.5 84.5h37l-86 -156h-509l12 33q42 9 66.5 26.5t38.5 63.5l100 307q5 16 6.5 27.5t1 18t-7.5 11.5t-10.5 6t-17.5 4t-19 4z" />
    <glyph glyph-name="emacron.sc" horiz-adv-x="588" 
d="M571 727l-15 -56h-280l15 56h280zM124 530h498l-39 -142h-33q10 57 1 76.5t-59 19.5h-45q-56 0 -83 -18.5t-42 -69.5l-35 -106h42q69 0 100.5 20t52.5 63h27l-66 -201h-25q9 47 -5 60.5t-85 13.5h-55l-45 -135q-8 -26 -10.5 -38t5.5 -19t18 -7.5t38 -0.5h11h23
q57 0 99.5 25.5t91.5 84.5h37l-86 -156h-509l12 33q42 9 66.5 26.5t38.5 63.5l100 307q5 16 6.5 27.5t1 18t-7.5 11.5t-10.5 6t-17.5 4t-19 4z" />
    <glyph glyph-name="eogonek.sc" horiz-adv-x="588" 
d="M124 530h498l-39 -142h-33q10 57 1 76.5t-59 19.5h-45q-56 0 -83 -18.5t-42 -69.5l-35 -106h42q69 0 100.5 20t52.5 63h27l-66 -201h-25q9 47 -5 60.5t-85 13.5h-55l-45 -135q-8 -26 -10.5 -38t5.5 -19t18 -7.5t38 -0.5h11h23q57 0 99.5 25.5t91.5 84.5h37l-86 -156h-40
q-85 -45 -85 -96q0 -23 13 -37.5t35 -14.5q17 0 31 5l-7 -24q-40 -32 -95 -32q-91 0 -91 73q0 42 28 73l86 53h-384l12 33q42 9 66.5 26.5t38.5 63.5l100 307q5 16 6.5 27.5t1 18t-7.5 11.5t-10.5 6t-17.5 4t-19 4z" />
    <glyph glyph-name="uni1EBD.sc" horiz-adv-x="588" 
d="M336 667q-30 0 -59.5 -24.5t-34.5 -41.5l-23 20q12 63 51 97t85 34q26 0 46 -12t30.5 -26t26 -26t33.5 -12q29 0 58 24.5t32 40.5l23 -19q-12 -64 -51.5 -98t-86.5 -34q-26 0 -45 12t-28.5 26.5t-24 26.5t-32.5 12zM124 530h498l-39 -142h-33q10 57 1 76.5t-59 19.5h-45
q-56 0 -83 -18.5t-42 -69.5l-35 -106h42q69 0 100.5 20t52.5 63h27l-66 -201h-25q9 47 -5 60.5t-85 13.5h-55l-45 -135q-8 -26 -10.5 -38t5.5 -19t18 -7.5t38 -0.5h11h23q57 0 99.5 25.5t91.5 84.5h37l-86 -156h-509l12 33q42 9 66.5 26.5t38.5 63.5l100 307q5 16 6.5 27.5
t1 18t-7.5 11.5t-10.5 6t-17.5 4t-19 4z" />
    <glyph glyph-name="f.sc" horiz-adv-x="554" 
d="M121 530h501l-39 -142h-33q10 57 1 76.5t-59 19.5h-45q-56 0 -83 -18.5t-42 -69.5l-35 -106h42q69 0 100.5 20t52.5 63h27l-66 -201h-25q9 47 -5 60.5t-85 13.5h-55l-45 -135q-8 -25 -9 -39.5t8.5 -22.5t17 -10.5t30.5 -7.5l-4 -31h-325l12 33q42 9 66.5 26.5t38.5 63.5
l100 307q5 14 7 24.5t1 17.5t-2.5 11t-8 7t-10 4t-15 3.5t-16.5 3.5z" />
    <glyph glyph-name="g.sc" horiz-adv-x="645" 
d="M291 -12q-155 0 -214 84t-16 218q38 114 140.5 183t245.5 69q117 0 166 -61q-6 -19 -14.5 -56t-15.5 -59h-46q3 75 -13 102.5t-59 27.5q-85 0 -144 -63t-91 -161q-14 -43 -21 -80.5t-8 -75.5t16.5 -60t51.5 -22q44 0 81 31.5t53 76.5l8 22q14 42 13 62t-10 24.5t-34 7.5
q-6 1 -9 1l9 34h265l-10 -37q-64 -11 -87 -86l-4 -8q-18 -55 -23 -80.5t0 -51.5q-126 -42 -230 -42z" />
    <glyph glyph-name="gbreve.sc" horiz-adv-x="645" 
d="M451 615q-70 0 -103 45t-7 120h32q-9 -42 16 -61.5t73 -18.5q51 1 88.5 23.5t53.5 54.5h32q-48 -163 -185 -163zM291 -12q-155 0 -214 84t-16 218q38 114 140.5 183t245.5 69q117 0 166 -61q-6 -19 -14.5 -56t-15.5 -59h-46q3 75 -13 102.5t-59 27.5q-85 0 -144 -63
t-91 -161q-14 -43 -21 -80.5t-8 -75.5t16.5 -60t51.5 -22q44 0 81 31.5t53 76.5l8 22q14 42 13 62t-10 24.5t-34 7.5q-6 1 -9 1l9 34h265l-10 -37q-64 -11 -87 -86l-4 -8q-18 -55 -23 -80.5t0 -51.5q-126 -42 -230 -42z" />
    <glyph glyph-name="uni0123.sc" horiz-adv-x="645" 
d="M291 -12q-155 0 -214 84t-16 218q38 114 140.5 183t245.5 69q117 0 166 -61q-6 -19 -14.5 -56t-15.5 -59h-46q3 75 -13 102.5t-59 27.5q-85 0 -144 -63t-91 -161q-14 -43 -21 -80.5t-8 -75.5t16.5 -60t51.5 -22q44 0 81 31.5t53 76.5l8 22q14 42 13 62t-10 24.5t-34 7.5
q-6 1 -9 1l9 34h265l-10 -37q-64 -11 -87 -86l-4 -8q-18 -55 -23 -80.5t0 -51.5q-126 -42 -230 -42zM60 -387l-13 37q49 15 73 33t37 54q4 8 4 22t-6 17q-52 33 -52 75q0 36 25.5 63.5t64.5 27.5q37 0 60.5 -25.5t23.5 -70.5q0 -77 -61 -149.5t-156 -83.5z" />
    <glyph glyph-name="gdotaccent.sc" horiz-adv-x="645" 
d="M458 568q-38 0 -66 27.5t-28 64.5t28 63t66 26t66 -26t28 -63t-28 -64.5t-66 -27.5zM291 -12q-155 0 -214 84t-16 218q38 114 140.5 183t245.5 69q117 0 166 -61q-6 -19 -14.5 -56t-15.5 -59h-46q3 75 -13 102.5t-59 27.5q-85 0 -144 -63t-91 -161q-14 -43 -21 -80.5
t-8 -75.5t16.5 -60t51.5 -22q44 0 81 31.5t53 76.5l8 22q14 42 13 62t-10 24.5t-34 7.5q-6 1 -9 1l9 34h265l-10 -37q-64 -11 -87 -86l-4 -8q-18 -55 -23 -80.5t0 -51.5q-126 -42 -230 -42z" />
    <glyph glyph-name="h.sc" horiz-adv-x="757" 
d="M524 530h317l-8 -33q-44 -9 -70 -26t-38 -60l-98 -303q-6 -19 -8 -31.5t-2 -19.5t6.5 -12t9.5 -6.5t16.5 -4t18.5 -3.5l-6 -31h-320l11 33q43 9 69 27.5t42 67.5l36 112h-226l-42 -132q-6 -18 -8 -31t-2 -20t6.5 -12t9.5 -6.5t16 -4t18 -3.5l-6 -31h-320l12 33
q43 9 69 27.5t41 67.5l97 295q4 11 6 20t1.5 15.5t0 11.5t-4 9t-5.5 6t-8.5 4.5t-10 3.5t-12.5 3t-13 3l10 31h317l-8 -33q-44 -9 -70 -26t-39 -60l-40 -126h226l45 138q4 11 6 20t1.5 15.5t0 11.5t-4 9t-5.5 6t-8.5 4.5t-10 3.5t-12.5 3t-13 3z" />
    <glyph glyph-name="hbar.sc" horiz-adv-x="757" 
d="M524 530h317l-8 -33q-44 -9 -70 -26t-38 -60l-98 -303q-6 -19 -8 -31.5t-2 -19.5t6.5 -12t9.5 -6.5t16.5 -4t18.5 -3.5l-6 -31h-320l11 33q43 9 69 27.5t42 67.5l36 112h-226l-42 -132q-6 -18 -8 -31t-2 -20t6.5 -12t9.5 -6.5t16 -4t18 -3.5l-6 -31h-320l12 33
q43 9 69 27.5t41 67.5l97 295q4 11 6 20t1.5 15.5t0 11.5t-4 9t-5.5 6t-8.5 4.5t-10 3.5t-12.5 3t-13 3l10 31h317l-8 -33q-44 -9 -70 -26t-39 -60l-4 -11h228l7 23q4 11 6 20t1.5 15.5t0 11.5t-4 9t-5.5 6t-8.5 4.5t-10 3.5t-12.5 3t-13 3zM289 285h226l23 71h-227z" />
    <glyph glyph-name="i.sc" horiz-adv-x="362" 
d="M-54 0l12 33q43 9 69 27.5t41 67.5l97 295q4 11 6 20t1.5 15.5t0 11.5t-4 9t-5.5 6t-8.5 4.5t-10 3.5t-12.5 3t-13 3l10 31h317l-8 -33q-44 -9 -70 -26t-39 -60l-97 -303q-6 -18 -8 -31t-2 -20t6.5 -12t9.5 -6.5t16 -4t18 -3.5l-6 -31h-320z" />
    <glyph glyph-name="iacute.sc" horiz-adv-x="362" 
d="M262 587l-41 24q16 81 69 156q31 0 61.5 -23.5t41.5 -55.5q-85 -54 -131 -101zM-54 0l12 33q43 9 69 27.5t41 67.5l97 295q4 11 6 20t1.5 15.5t0 11.5t-4 9t-5.5 6t-8.5 4.5t-10 3.5t-12.5 3t-13 3l10 31h317l-8 -33q-44 -9 -70 -26t-39 -60l-97 -303q-6 -18 -8 -31
t-2 -20t6.5 -12t9.5 -6.5t16 -4t18 -3.5l-6 -31h-320z" />
    <glyph glyph-name="icircumflex.sc" horiz-adv-x="362" 
d="M338 780l89 -147l-18 -23l-93 76l-140 -76l-11 20zM-54 0l12 33q43 9 69 27.5t41 67.5l97 295q4 11 6 20t1.5 15.5t0 11.5t-4 9t-5.5 6t-8.5 4.5t-10 3.5t-12.5 3t-13 3l10 31h317l-8 -33q-44 -9 -70 -26t-39 -60l-97 -303q-6 -18 -8 -31t-2 -20t6.5 -12t9.5 -6.5t16 -4
t18 -3.5l-6 -31h-320z" />
    <glyph glyph-name="idieresis.sc" horiz-adv-x="362" 
d="M167 634q-31 0 -54 23t-23 54q0 29 23 51.5t54 22.5q30 0 52.5 -22.5t22.5 -51.5q0 -31 -22.5 -54t-52.5 -23zM404 634q-32 0 -54.5 23t-22.5 54q0 29 23 51.5t54 22.5q30 0 52.5 -22.5t22.5 -51.5q0 -31 -22.5 -54t-52.5 -23zM-54 0l12 33q43 9 69 27.5t41 67.5l97 295
q4 11 6 20t1.5 15.5t0 11.5t-4 9t-5.5 6t-8.5 4.5t-10 3.5t-12.5 3t-13 3l10 31h317l-8 -33q-44 -9 -70 -26t-39 -60l-97 -303q-6 -18 -8 -31t-2 -20t6.5 -12t9.5 -6.5t16 -4t18 -3.5l-6 -31h-320z" />
    <glyph glyph-name="i.sc.loclTRK" horiz-adv-x="362" 
d="M315 568q-38 0 -66 27.5t-28 64.5t28 63t66 26t66 -26t28 -63t-28 -64.5t-66 -27.5zM-54 0l12 33q43 9 69 27.5t41 67.5l97 295q4 11 6 20t1.5 15.5t0 11.5t-4 9t-5.5 6t-8.5 4.5t-10 3.5t-12.5 3t-13 3l10 31h317l-8 -33q-44 -9 -70 -26t-39 -60l-97 -303q-6 -18 -8 -31
t-2 -20t6.5 -12t9.5 -6.5t16 -4t18 -3.5l-6 -31h-320z" />
    <glyph glyph-name="igrave.sc" horiz-adv-x="362" 
d="M261 587q-46 47 -131 101q11 32 41.5 55.5t61.5 23.5q53 -75 69 -156zM-54 0l12 33q43 9 69 27.5t41 67.5l97 295q4 11 6 20t1.5 15.5t0 11.5t-4 9t-5.5 6t-8.5 4.5t-10 3.5t-12.5 3t-13 3l10 31h317l-8 -33q-44 -9 -70 -26t-39 -60l-97 -303q-6 -18 -8 -31t-2 -20
t6.5 -12t9.5 -6.5t16 -4t18 -3.5l-6 -31h-320z" />
    <glyph glyph-name="ij.sc" horiz-adv-x="710" 
d="M-54 0l12 33q43 9 69 27.5t41 67.5l97 295q4 11 6 20t1.5 15.5t0 11.5t-4 9t-5.5 6t-8.5 4.5t-10 3.5t-12.5 3t-13 3l10 31h317l-8 -33q-44 -9 -70 -26t-39 -60l-97 -303q-6 -18 -8 -31t-2 -20t6.5 -12t9.5 -6.5t16 -4t18 -3.5l-6 -31h-320zM222 -178l13 48
q69 14 99.5 48.5t53.5 110.5l130 401q5 17 6.5 28t1.5 17.5t-7 10.5t-10.5 5.5t-17 4t-19.5 3.5l2 31h324l-3 -33q-48 -9 -75 -26.5t-42 -63.5l-132 -410q-13 -39 -39.5 -68.5t-55.5 -46.5t-73.5 -30t-76 -18.5t-79.5 -11.5z" />
    <glyph glyph-name="imacron.sc" horiz-adv-x="362" 
d="M165 671l15 56h280l-15 -56h-280zM-54 0l12 33q43 9 69 27.5t41 67.5l97 295q4 11 6 20t1.5 15.5t0 11.5t-4 9t-5.5 6t-8.5 4.5t-10 3.5t-12.5 3t-13 3l10 31h317l-8 -33q-44 -9 -70 -26t-39 -60l-97 -303q-6 -18 -8 -31t-2 -20t6.5 -12t9.5 -6.5t16 -4t18 -3.5l-6 -31
h-320z" />
    <glyph glyph-name="iogonek.sc" horiz-adv-x="362" 
d="M129 530h317l-8 -33q-44 -9 -70 -26t-39 -60l-97 -303q-6 -18 -8 -31t-2 -20t6.5 -12t9.5 -6.5t16 -4t18 -3.5l-6 -31h-109q-85 -45 -85 -96q0 -23 13 -37.5t35 -14.5q17 0 31 5l-7 -24q-40 -32 -95 -32q-91 0 -91 73q0 42 28 73l86 53h-126l12 33q43 9 69 27.5t41 67.5
l97 295q4 11 6 20t1.5 15.5t0 11.5t-4 9t-5.5 6t-8.5 4.5t-10 3.5t-12.5 3t-13 3z" />
    <glyph glyph-name="j.sc" horiz-adv-x="348" 
d="M-140 -178l13 48q69 14 99.5 48.5t53.5 110.5l130 401q5 17 6.5 28t1.5 17.5t-7 10.5t-10.5 5.5t-17 4t-19.5 3.5l2 31h324l-3 -33q-48 -9 -75 -26.5t-42 -63.5l-132 -410q-13 -39 -39.5 -68.5t-55.5 -46.5t-73.5 -30t-76 -18.5t-79.5 -11.5z" />
    <glyph glyph-name="k.sc" horiz-adv-x="681" 
d="M711 498q-45 0 -73.5 -11t-56.5 -34l-125 -99l98 -283q12 -39 76 -39l-9 -32h-239q7 29 -12 79l-55 164l-53 -42l-30 -93q-6 -18 -8 -31t-2 -20t6.5 -12t9.5 -6.5t16 -4t18 -3.5l-6 -31h-320l12 33q43 9 69 27.5t41 67.5l97 295q4 11 6 20t1.5 15.5t0 11.5t-4 9t-5.5 6
t-8.5 4.5t-10 3.5t-12.5 3t-13 3l10 31h317l-8 -33q-44 -9 -70 -26t-39 -60l-45 -142l235 192q26 22 21.5 29.5t-32.5 7.5l9 32h202z" />
    <glyph glyph-name="uni0137.sc" horiz-adv-x="681" 
d="M711 498q-45 0 -73.5 -11t-56.5 -34l-125 -99l98 -283q12 -39 76 -39l-9 -32h-239q7 29 -12 79l-55 164l-53 -42l-30 -93q-6 -18 -8 -31t-2 -20t6.5 -12t9.5 -6.5t16 -4t18 -3.5l-6 -31h-320l12 33q43 9 69 27.5t41 67.5l97 295q4 11 6 20t1.5 15.5t0 11.5t-4 9t-5.5 6
t-8.5 4.5t-10 3.5t-12.5 3t-13 3l10 31h317l-8 -33q-44 -9 -70 -26t-39 -60l-45 -142l235 192q26 22 21.5 29.5t-32.5 7.5l9 32h202zM208 -58q37 0 60.5 -25.5t23.5 -70.5q0 -77 -61 -149.5t-156 -83.5l-13 37q49 15 73 33t37 54q4 8 4 22t-6 17q-52 33 -52 75
q0 36 25.5 63.5t64.5 27.5z" />
    <glyph glyph-name="l.sc" horiz-adv-x="552" 
d="M-58 0l16 32q29 6 44.5 12t33 24.5t26.5 50.5l99 308q6 16 7 28t1 18.5t-8 11.5t-10.5 6.5t-17.5 4.5t-18 4l5 30h300l-6 -34q-39 -8 -56.5 -23t-32.5 -62l-95 -294q-6 -18 -9 -29t-0.5 -19t4.5 -12t14 -6t20 -2h30h14q60 0 101.5 26t90.5 98l39 -7l-94 -166h-498z" />
    <glyph glyph-name="lacute.sc" horiz-adv-x="552" 
d="M257 587l-41 24q16 81 69 156q31 0 61.5 -23.5t41.5 -55.5q-85 -54 -131 -101zM-58 0l16 32q29 6 44.5 12t33 24.5t26.5 50.5l99 308q6 16 7 28t1 18.5t-8 11.5t-10.5 6.5t-17.5 4.5t-18 4l5 30h300l-6 -34q-39 -8 -56.5 -23t-32.5 -62l-95 -294q-6 -18 -9 -29t-0.5 -19
t4.5 -12t14 -6t20 -2h30h14q60 0 101.5 26t90.5 98l39 -7l-94 -166h-498z" />
    <glyph glyph-name="lcaron.sc" horiz-adv-x="552" 
d="M289 608l-89 147l17 22l94 -75l139 75l12 -20zM-58 0l16 32q29 6 44.5 12t33 24.5t26.5 50.5l99 308q6 16 7 28t1 18.5t-8 11.5t-10.5 6.5t-17.5 4.5t-18 4l5 30h300l-6 -34q-39 -8 -56.5 -23t-32.5 -62l-95 -294q-6 -18 -9 -29t-0.5 -19t4.5 -12t14 -6t20 -2h30h14
q60 0 101.5 26t90.5 98l39 -7l-94 -166h-498z" />
    <glyph glyph-name="uni013C.sc" horiz-adv-x="552" 
d="M-58 0l16 32q29 6 44.5 12t33 24.5t26.5 50.5l99 308q6 16 7 28t1 18.5t-8 11.5t-10.5 6.5t-17.5 4.5t-18 4l5 30h300l-6 -34q-39 -8 -56.5 -23t-32.5 -62l-95 -294q-6 -18 -9 -29t-0.5 -19t4.5 -12t14 -6t20 -2h30h14q60 0 101.5 26t90.5 98l39 -7l-94 -166h-498z
M41 -387l-13 37q49 15 73 33t37 54q4 8 4 22t-6 17q-52 33 -52 75q0 36 25.5 63.5t64.5 27.5q37 0 60.5 -25.5t23.5 -70.5q0 -77 -61 -149.5t-156 -83.5z" />
    <glyph glyph-name="ldot.sc" horiz-adv-x="552" 
d="M-58 0l16 32q29 6 44.5 12t33 24.5t26.5 50.5l99 308q6 16 7 28t1 18.5t-8 11.5t-10.5 6.5t-17.5 4.5t-18 4l5 30h300l-6 -34q-39 -8 -56.5 -23t-32.5 -62l-95 -294q-6 -18 -9 -29t-0.5 -19t4.5 -12t14 -6t20 -2h30h14q60 0 101.5 26t90.5 98l39 -7l-94 -166h-498z
M423 206q-37 0 -63 26.5t-26 64.5q0 36 26 61.5t63 25.5q35 0 60.5 -26t25.5 -61q0 -38 -25.5 -64.5t-60.5 -26.5z" />
    <glyph glyph-name="lslash.sc" horiz-adv-x="552" 
d="M495 173l39 -7l-94 -166h-498l16 32q29 6 44.5 12t33 24.5t26.5 50.5l30 92l-72 -27v41q56 16 84 25l57 177q6 16 7 28t1 18.5t-8 11.5t-10.5 6.5t-17.5 4.5t-18 4l5 30h300l-6 -34q-39 -8 -56.5 -23t-32.5 -62l-31 -97l78 30v-41l-91 -27l-51 -159q-6 -18 -9 -29
t-0.5 -19t4.5 -12t14 -6t20 -2h30h14q60 0 101.5 26t90.5 98z" />
    <glyph glyph-name="m.sc" horiz-adv-x="814" 
d="M881 530l-7 -34q-31 -6 -46.5 -11.5t-33 -23.5t-26.5 -50l-84 -308q-4 -14 -6 -24.5t0.5 -17.5t3.5 -11.5t8.5 -8t11 -4.5t15.5 -3.5t16 -3.5l-6 -30h-317l6 34q32 6 47.5 11.5t32 23.5t25.5 50l95 328l-317 -447h-29l-43 412l-113 -309q-5 -14 -7.5 -24.5t-0.5 -17.5
t3.5 -11t9.5 -7.5t12 -4.5t16.5 -3.5t18.5 -3.5l-6 -31h-218l16 32q29 6 45 12t34.5 25t29.5 50l115 308q5 14 7 24.5t0 17.5t-3.5 11.5t-9 8t-11 4.5t-15.5 3.5t-17 3.5l5 30h249q-2 -18 2 -84l25 -211l158 225q33 48 39 70h270z" />
    <glyph glyph-name="n.sc" horiz-adv-x="635" 
d="M506 530h217l-5 -38q-53 -7 -74.5 -22t-37.5 -63l-135 -407h-62l-187 445l-111 -343q-5 -14 -7 -23t0 -16t3.5 -11t10 -7t13.5 -4.5t19 -4.5t22 -5l-3 -31h-223l12 33q4 1 16.5 4.5t17 5t15 5.5t15 7.5t13 10t13.5 14.5t11 19t10 24l99 307q5 16 6.5 27.5t1 18t-7.5 11.5
t-10.5 6t-17.5 4t-19 4l3 29h248l-1 -4l127 -294l60 179q4 13 6 23.5t2.5 18t-3.5 13.5t-6 9.5t-10.5 7.5t-12 5.5t-15.5 5.5t-17 6z" />
    <glyph glyph-name="nacute.sc" horiz-adv-x="635" 
d="M530 688q-85 -54 -131 -101l-41 24q16 81 69 156q31 0 61.5 -23.5t41.5 -55.5zM506 530h217l-5 -38q-53 -7 -74.5 -22t-37.5 -63l-135 -407h-62l-187 445l-111 -343q-5 -14 -7 -23t0 -16t3.5 -11t10 -7t13.5 -4.5t19 -4.5t22 -5l-3 -31h-223l12 33q4 1 16.5 4.5t17 5
t15 5.5t15 7.5t13 10t13.5 14.5t11 19t10 24l99 307q5 16 6.5 27.5t1 18t-7.5 11.5t-10.5 6t-17.5 4t-19 4l3 29h248l-1 -4l127 -294l60 179q4 13 6 23.5t2.5 18t-3.5 13.5t-6 9.5t-10.5 7.5t-12 5.5t-15.5 5.5t-17 6z" />
    <glyph glyph-name="ncaron.sc" horiz-adv-x="635" 
d="M604 757l-173 -149l-89 147l17 22l94 -75l139 75zM506 530h217l-5 -38q-53 -7 -74.5 -22t-37.5 -63l-135 -407h-62l-187 445l-111 -343q-5 -14 -7 -23t0 -16t3.5 -11t10 -7t13.5 -4.5t19 -4.5t22 -5l-3 -31h-223l12 33q4 1 16.5 4.5t17 5t15 5.5t15 7.5t13 10t13.5 14.5
t11 19t10 24l99 307q5 16 6.5 27.5t1 18t-7.5 11.5t-10.5 6t-17.5 4t-19 4l3 29h248l-1 -4l127 -294l60 179q4 13 6 23.5t2.5 18t-3.5 13.5t-6 9.5t-10.5 7.5t-12 5.5t-15.5 5.5t-17 6z" />
    <glyph glyph-name="uni0146.sc" horiz-adv-x="635" 
d="M506 530h217l-5 -38q-53 -7 -74.5 -22t-37.5 -63l-135 -407h-62l-187 445l-111 -343q-5 -14 -7 -23t0 -16t3.5 -11t10 -7t13.5 -4.5t19 -4.5t22 -5l-3 -31h-223l12 33q4 1 16.5 4.5t17 5t15 5.5t15 7.5t13 10t13.5 14.5t11 19t10 24l99 307q5 16 6.5 27.5t1 18t-7.5 11.5
t-10.5 6t-17.5 4t-19 4l3 29h248l-1 -4l127 -294l60 179q4 13 6 23.5t2.5 18t-3.5 13.5t-6 9.5t-10.5 7.5t-12 5.5t-15.5 5.5t-17 6zM187 -58q37 0 60.5 -25.5t23.5 -70.5q0 -77 -61 -149.5t-156 -83.5l-13 37q49 15 73 33t37 54q4 8 4 22t-6 17q-52 33 -52 75
q0 36 25.5 63.5t64.5 27.5z" />
    <glyph glyph-name="ntilde.sc" horiz-adv-x="635" 
d="M362 667q-30 0 -59.5 -24.5t-34.5 -41.5l-23 20q12 63 51 97t85 34q26 0 46 -12t30.5 -26t26 -26t33.5 -12q29 0 58 24.5t32 40.5l23 -19q-12 -64 -51.5 -98t-86.5 -34q-26 0 -45 12t-28.5 26.5t-24 26.5t-32.5 12zM506 530h217l-5 -38q-53 -7 -74.5 -22t-37.5 -63
l-135 -407h-62l-187 445l-111 -343q-5 -14 -7 -23t0 -16t3.5 -11t10 -7t13.5 -4.5t19 -4.5t22 -5l-3 -31h-223l12 33q4 1 16.5 4.5t17 5t15 5.5t15 7.5t13 10t13.5 14.5t11 19t10 24l99 307q5 16 6.5 27.5t1 18t-7.5 11.5t-10.5 6t-17.5 4t-19 4l3 29h248l-1 -4l127 -294
l60 179q4 13 6 23.5t2.5 18t-3.5 13.5t-6 9.5t-10.5 7.5t-12 5.5t-15.5 5.5t-17 6z" />
    <glyph glyph-name="o.sc" horiz-adv-x="666" 
d="M272 -12q-108 0 -167.5 53t-59.5 144q0 145 115 251t269 106q105 0 165.5 -51.5t60.5 -142.5q0 -148 -114 -254t-269 -106zM274 34q57 0 109.5 64.5t81.5 149.5t29 155q0 93 -67 93q-57 0 -110 -64.5t-82 -149t-29 -153.5q0 -95 68 -95z" />
    <glyph glyph-name="oacute.sc" horiz-adv-x="666" 
d="M418 587l-41 24q16 81 69 156q31 0 61.5 -23.5t41.5 -55.5q-85 -54 -131 -101zM272 -12q-108 0 -167.5 53t-59.5 144q0 145 115 251t269 106q105 0 165.5 -51.5t60.5 -142.5q0 -148 -114 -254t-269 -106zM274 34q57 0 109.5 64.5t81.5 149.5t29 155q0 93 -67 93
q-57 0 -110 -64.5t-82 -149t-29 -153.5q0 -95 68 -95z" />
    <glyph glyph-name="ocircumflex.sc" horiz-adv-x="666" 
d="M494 780l89 -147l-18 -23l-93 76l-140 -76l-11 20zM272 -12q-108 0 -167.5 53t-59.5 144q0 145 115 251t269 106q105 0 165.5 -51.5t60.5 -142.5q0 -148 -114 -254t-269 -106zM274 34q57 0 109.5 64.5t81.5 149.5t29 155q0 93 -67 93q-57 0 -110 -64.5t-82 -149
t-29 -153.5q0 -95 68 -95z" />
    <glyph glyph-name="odieresis.sc" horiz-adv-x="666" 
d="M323 634q-31 0 -54 23t-23 54q0 29 23 51.5t54 22.5q30 0 52.5 -22.5t22.5 -51.5q0 -31 -22.5 -54t-52.5 -23zM560 634q-32 0 -54.5 23t-22.5 54q0 29 23 51.5t54 22.5q30 0 52.5 -22.5t22.5 -51.5q0 -31 -22.5 -54t-52.5 -23zM272 -12q-108 0 -167.5 53t-59.5 144
q0 145 115 251t269 106q105 0 165.5 -51.5t60.5 -142.5q0 -148 -114 -254t-269 -106zM274 34q57 0 109.5 64.5t81.5 149.5t29 155q0 93 -67 93q-57 0 -110 -64.5t-82 -149t-29 -153.5q0 -95 68 -95z" />
    <glyph glyph-name="ograve.sc" horiz-adv-x="666" 
d="M417 587q-46 47 -131 101q11 32 41.5 55.5t61.5 23.5q53 -75 69 -156zM272 -12q-108 0 -167.5 53t-59.5 144q0 145 115 251t269 106q105 0 165.5 -51.5t60.5 -142.5q0 -148 -114 -254t-269 -106zM274 34q57 0 109.5 64.5t81.5 149.5t29 155q0 93 -67 93q-57 0 -110 -64.5
t-82 -149t-29 -153.5q0 -95 68 -95z" />
    <glyph glyph-name="ohungarumlaut.sc" horiz-adv-x="666" 
d="M361 587l-41 24q16 81 69 156q31 0 61.5 -23.5t41.5 -55.5q-85 -54 -131 -101zM555 587l-41 24q14 78 69 156q31 0 61 -23.5t41 -55.5q-83 -52 -130 -101zM272 -12q-108 0 -167.5 53t-59.5 144q0 145 115 251t269 106q105 0 165.5 -51.5t60.5 -142.5q0 -148 -114 -254
t-269 -106zM274 34q57 0 109.5 64.5t81.5 149.5t29 155q0 93 -67 93q-57 0 -110 -64.5t-82 -149t-29 -153.5q0 -95 68 -95z" />
    <glyph glyph-name="omacron.sc" horiz-adv-x="666" 
d="M321 671l15 56h280l-15 -56h-280zM272 -12q-108 0 -167.5 53t-59.5 144q0 145 115 251t269 106q105 0 165.5 -51.5t60.5 -142.5q0 -148 -114 -254t-269 -106zM274 34q57 0 109.5 64.5t81.5 149.5t29 155q0 93 -67 93q-57 0 -110 -64.5t-82 -149t-29 -153.5q0 -95 68 -95z
" />
    <glyph glyph-name="oslash.sc" horiz-adv-x="666" 
d="M525 528q62 -20 96 -66.5t34 -113.5q0 -148 -114 -254t-269 -106q-39 0 -74 8l-28 -46l-19 14l23 38q-62 21 -95.5 68.5t-33.5 114.5q0 145 115 251t269 106q33 0 72 -7l29 46l19 -14zM206 129q0 -37 10 -60l253 413q-16 14 -42 14q-57 0 -110 -64.5t-82 -149t-29 -153.5
zM274 34q57 0 109.5 64.5t81.5 149.5t29 155q0 37 -10 58l-254 -413q17 -14 44 -14z" />
    <glyph glyph-name="otilde.sc" horiz-adv-x="666" 
d="M511 590q-26 0 -45 12t-28.5 26.5t-24 26.5t-32.5 12q-30 0 -59.5 -24.5t-34.5 -41.5l-23 20q12 63 51 97t85 34q26 0 46 -12t30.5 -26t26 -26t33.5 -12q29 0 58 24.5t32 40.5l23 -19q-12 -64 -51.5 -98t-86.5 -34zM272 -12q-108 0 -167.5 53t-59.5 144q0 145 115 251
t269 106q105 0 165.5 -51.5t60.5 -142.5q0 -148 -114 -254t-269 -106zM274 34q57 0 109.5 64.5t81.5 149.5t29 155q0 93 -67 93q-57 0 -110 -64.5t-82 -149t-29 -153.5q0 -95 68 -95z" />
    <glyph glyph-name="oe.sc" horiz-adv-x="971" 
d="M507 530h498l-39 -142h-33q10 57 0.5 76.5t-59.5 19.5h-44q-56 0 -83 -18.5t-42 -69.5l-35 -106h42q69 0 100.5 20t51.5 63h28l-66 -201h-25q9 47 -5 60.5t-86 13.5h-54l-45 -135q-8 -26 -10.5 -38t5.5 -19t18 -7.5t38 -0.5h11h23q57 0 99.5 25.5t90.5 84.5h38l-86 -156
h-467q-47 -12 -99 -12q-108 0 -167.5 53t-59.5 144q0 145 115 251t269 106q43 0 78 -12zM206 129q0 -95 68 -95q55 0 104 41.5t88 111.5l21 63q4 20 6 44t2 38.5t-0.5 39.5t-0.5 31q0 93 -67 93q-57 0 -110 -64.5t-82 -149t-29 -153.5z" />
    <glyph glyph-name="p.sc" horiz-adv-x="626" 
d="M-52 0l10 33q21 5 34.5 9.5t29.5 14t27 26t18 40.5l101 307q5 17 6.5 28t1.5 17.5t-7 11.5t-10 6t-17 4t-19 4l2 29h297q98 0 160 -35t62 -106q0 -117 -101 -183t-244 -66q-10 0 -11.5 10t4.5 20.5t13 10.5q73 0 124.5 80t51.5 168q0 26 -13.5 40.5t-50.5 14.5
q-34 0 -52.5 -16t-31.5 -51l-99 -308q-4 -12 -5 -22t-1 -16.5t4 -12.5t6.5 -9t10 -6l10 -4t12 -3t11.5 -3l-9 -33h-325z" />
    <glyph glyph-name="q.sc" horiz-adv-x="675" 
d="M513 -99q35 0 67 16l13 -32q-85 -60 -163 -60q-64 0 -109 47l-101 105q-12 12 -30 21q-70 18 -107.5 66.5t-37.5 120.5q0 145 115 251t269 106q105 0 165.5 -51.5t60.5 -142.5q0 -125 -84 -222.5t-209 -127.5q24 -6 43 -26l22 -25q37 -46 86 -46zM427 496
q-57 0 -110 -64.5t-82 -149t-29 -153.5q0 -95 68 -95q57 0 109.5 64.5t81.5 149.5t29 155q0 93 -67 93z" />
    <glyph glyph-name="r.sc" horiz-adv-x="661" 
d="M654 395q0 -133 -205 -160q7 -3 13 -7l10.5 -7t8.5 -10t5.5 -9.5t4.5 -12t3.5 -11.5t3 -14t2.5 -13l11 -49q11 -45 34.5 -62t69.5 -6l-12 -38q-26 -12 -92 -12q-76 0 -112.5 25.5t-47.5 75.5l-10 53q-11 49 -25 66t-45 21l-37 -116q-4 -12 -5 -22t-1 -16.5t4 -12.5
t6.5 -9t10 -6l10 -4t12 -3t11.5 -3l-9 -33h-325l10 33q21 5 34.5 9.5t29.5 14t27 26t18 40.5l101 307q5 17 6.5 28t1.5 17.5t-7 11.5t-10 6t-17 4t-19 4l2 29h285q115 0 179.5 -30t64.5 -105zM297 272q84 0 134.5 42.5t50.5 105.5q0 32 -13.5 48t-50.5 16q-68 0 -82 -58
l-50 -154h11z" />
    <glyph glyph-name="racute.sc" horiz-adv-x="661" 
d="M543 688q-85 -54 -131 -101l-41 24q16 81 69 156q31 0 61.5 -23.5t41.5 -55.5zM654 395q0 -133 -205 -160q7 -3 13 -7l10.5 -7t8.5 -10t5.5 -9.5t4.5 -12t3.5 -11.5t3 -14t2.5 -13l11 -49q11 -45 34.5 -62t69.5 -6l-12 -38q-26 -12 -92 -12q-76 0 -112.5 25.5t-47.5 75.5
l-10 53q-11 49 -25 66t-45 21l-37 -116q-4 -12 -5 -22t-1 -16.5t4 -12.5t6.5 -9t10 -6l10 -4t12 -3t11.5 -3l-9 -33h-325l10 33q21 5 34.5 9.5t29.5 14t27 26t18 40.5l101 307q5 17 6.5 28t1.5 17.5t-7 11.5t-10 6t-17 4t-19 4l2 29h285q115 0 179.5 -30t64.5 -105zM297 272
q84 0 134.5 42.5t50.5 105.5q0 32 -13.5 48t-50.5 16q-68 0 -82 -58l-50 -154h11z" />
    <glyph glyph-name="rcaron.sc" horiz-adv-x="661" 
d="M617 757l-173 -149l-89 147l17 22l94 -75l139 75zM654 395q0 -133 -205 -160q7 -3 13 -7l10.5 -7t8.5 -10t5.5 -9.5t4.5 -12t3.5 -11.5t3 -14t2.5 -13l11 -49q11 -45 34.5 -62t69.5 -6l-12 -38q-26 -12 -92 -12q-76 0 -112.5 25.5t-47.5 75.5l-10 53q-11 49 -25 66
t-45 21l-37 -116q-4 -12 -5 -22t-1 -16.5t4 -12.5t6.5 -9t10 -6l10 -4t12 -3t11.5 -3l-9 -33h-325l10 33q21 5 34.5 9.5t29.5 14t27 26t18 40.5l101 307q5 17 6.5 28t1.5 17.5t-7 11.5t-10 6t-17 4t-19 4l2 29h285q115 0 179.5 -30t64.5 -105zM297 272q84 0 134.5 42.5
t50.5 105.5q0 32 -13.5 48t-50.5 16q-68 0 -82 -58l-50 -154h11z" />
    <glyph glyph-name="uni0157.sc" horiz-adv-x="661" 
d="M654 395q0 -133 -205 -160q7 -3 13 -7l10.5 -7t8.5 -10t5.5 -9.5t4.5 -12t3.5 -11.5t3 -14t2.5 -13l11 -49q11 -45 34.5 -62t69.5 -6l-12 -38q-26 -12 -92 -12q-76 0 -112.5 25.5t-47.5 75.5l-10 53q-11 49 -25 66t-45 21l-37 -116q-4 -12 -5 -22t-1 -16.5t4 -12.5
t6.5 -9t10 -6l10 -4t12 -3t11.5 -3l-9 -33h-325l10 33q21 5 34.5 9.5t29.5 14t27 26t18 40.5l101 307q5 17 6.5 28t1.5 17.5t-7 11.5t-10 6t-17 4t-19 4l2 29h285q115 0 179.5 -30t64.5 -105zM297 272q84 0 134.5 42.5t50.5 105.5q0 32 -13.5 48t-50.5 16q-68 0 -82 -58
l-50 -154h11zM249 -58q37 0 60.5 -25.5t23.5 -70.5q0 -77 -61 -149.5t-156 -83.5l-13 37q49 15 73 33t37 54q4 8 4 22t-6 17q-52 33 -52 75q0 36 25.5 63.5t64.5 27.5z" />
    <glyph glyph-name="s.sc" horiz-adv-x="468" 
d="M168 -12q-106 0 -168 59l32 109h27q-1 -64 33.5 -94.5t79.5 -30.5q54 0 82 27.5t28 63.5q0 25 -15 42t-53 40q-63 39 -83 61q-37 40 -37 95q0 49 23 86.5t59 57t71.5 29t68.5 9.5q59 0 99 -19t55 -40l-26 -103h-27q-6 61 -30 90t-74 29q-39 0 -64.5 -20.5t-25.5 -56.5
q0 -39 64 -73q4 -2 29 -16t33 -19.5t27 -20.5t26.5 -28t15 -34.5t7.5 -45.5q0 -91 -74.5 -144t-182.5 -53z" />
    <glyph glyph-name="sacute.sc" horiz-adv-x="468" 
d="M311 587l-41 24q16 81 69 156q31 0 61.5 -23.5t41.5 -55.5q-85 -54 -131 -101zM168 -12q-106 0 -168 59l32 109h27q-1 -64 33.5 -94.5t79.5 -30.5q54 0 82 27.5t28 63.5q0 25 -15 42t-53 40q-63 39 -83 61q-37 40 -37 95q0 49 23 86.5t59 57t71.5 29t68.5 9.5
q59 0 99 -19t55 -40l-26 -103h-27q-6 61 -30 90t-74 29q-39 0 -64.5 -20.5t-25.5 -56.5q0 -39 64 -73q4 -2 29 -16t33 -19.5t27 -20.5t26.5 -28t15 -34.5t7.5 -45.5q0 -91 -74.5 -144t-182.5 -53z" />
    <glyph glyph-name="scaron.sc" horiz-adv-x="468" 
d="M343 608l-89 147l17 22l94 -75l139 75l12 -20zM168 -12q-106 0 -168 59l32 109h27q-1 -64 33.5 -94.5t79.5 -30.5q54 0 82 27.5t28 63.5q0 25 -15 42t-53 40q-63 39 -83 61q-37 40 -37 95q0 49 23 86.5t59 57t71.5 29t68.5 9.5q59 0 99 -19t55 -40l-26 -103h-27
q-6 61 -30 90t-74 29q-39 0 -64.5 -20.5t-25.5 -56.5q0 -39 64 -73q4 -2 29 -16t33 -19.5t27 -20.5t26.5 -28t15 -34.5t7.5 -45.5q0 -91 -74.5 -144t-182.5 -53z" />
    <glyph glyph-name="scedilla.sc" horiz-adv-x="468" 
d="M313 499q-39 0 -64.5 -20.5t-25.5 -56.5q0 -39 64 -73q4 -2 29 -16t33 -19.5t27 -20.5t26.5 -28t15 -34.5t7.5 -45.5q0 -91 -74.5 -144t-182.5 -53h-9l-11 -24q43 0 81.5 -23t38.5 -65q0 -88 -184 -88l5 31q87 0 87 43q0 40 -117 40l47 92q-62 12 -106 53l32 109h27
q-1 -64 33.5 -94.5t79.5 -30.5q54 0 82 27.5t28 63.5q0 25 -15 42t-53 40q-63 39 -83 61q-37 40 -37 95q0 49 23 86.5t59 57t71.5 29t68.5 9.5q59 0 99 -19t55 -40l-26 -103h-27q-6 61 -30 90t-74 29z" />
    <glyph glyph-name="uni0219.sc" horiz-adv-x="468" 
d="M168 -12q-106 0 -168 59l32 109h27q-1 -64 33.5 -94.5t79.5 -30.5q54 0 82 27.5t28 63.5q0 25 -15 42t-53 40q-63 39 -83 61q-37 40 -37 95q0 49 23 86.5t59 57t71.5 29t68.5 9.5q59 0 99 -19t55 -40l-26 -103h-27q-6 61 -30 90t-74 29q-39 0 -64.5 -20.5t-25.5 -56.5
q0 -39 64 -73q4 -2 29 -16t33 -19.5t27 -20.5t26.5 -28t15 -34.5t7.5 -45.5q0 -91 -74.5 -144t-182.5 -53zM-34 -387l-13 37q49 15 73 33t37 54q4 8 4 22t-6 17q-52 33 -52 75q0 36 25.5 63.5t64.5 27.5q37 0 60.5 -25.5t23.5 -70.5q0 -77 -61 -149.5t-156 -83.5z" />
    <glyph glyph-name="germandbls.sc" horiz-adv-x="716" 
d="M558 324q55 -11 87 -45.5t32 -88.5q0 -93 -86.5 -151.5t-195.5 -58.5q-93 0 -118 47q2 23 9 65t8 51h24q-1 -75 16.5 -99.5t51.5 -24.5q60 0 104 51t44 111q0 61 -41.5 92.5t-117.5 17.5l210 187q-27 14 -80 14q-39 0 -74 -9t-71.5 -39.5t-51.5 -79.5l-82 -255
q-11 -45 -8 -56.5t23 -19.5l-2 -33h-285l4 33q44 9 68.5 26.5t39.5 63.5l80 246q53 168 315 168q51 0 96.5 -8t72.5 -17t86 -32q14 -5 21 -8z" />
    <glyph glyph-name="t.sc" horiz-adv-x="572" 
d="M580 530l62 10l-51 -184h-32q12 68 -3.5 98.5t-82.5 30.5h-16l-125 -385q-4 -14 -6.5 -24t-1 -16.5t3 -10.5t8 -7t10.5 -4t14.5 -3.5t16.5 -3.5l-6 -31h-323l11 33q46 9 72 26.5t41 63.5l117 362h-1q-70 0 -112.5 -32t-72.5 -97h-31l65 184l55 -10h388z" />
    <glyph glyph-name="tbar.sc" horiz-adv-x="572" 
d="M580 530l62 10l-51 -184h-32q12 68 -3.5 98.5t-82.5 30.5h-16l-58 -178q25 0 77 2l-10 -36q-52 2 -77 2l-57 -175q-4 -14 -6.5 -24t-1 -16.5t3 -10.5t8 -7t10.5 -4t14.5 -3.5t16.5 -3.5l-6 -31h-323l11 33q46 9 72 26.5t41 63.5l49 152q-25 0 -75 -2l10 36q50 -2 75 -2
l58 178h-1q-70 0 -112.5 -32t-72.5 -97h-31l65 184l55 -10h388z" />
    <glyph glyph-name="tcaron.sc" horiz-adv-x="572" 
d="M574 757l-173 -149l-89 147l17 22l94 -75l139 75zM580 530l62 10l-51 -184h-32q12 68 -3.5 98.5t-82.5 30.5h-16l-125 -385q-4 -14 -6.5 -24t-1 -16.5t3 -10.5t8 -7t10.5 -4t14.5 -3.5t16.5 -3.5l-6 -31h-323l11 33q46 9 72 26.5t41 63.5l117 362h-1q-70 0 -112.5 -32
t-72.5 -97h-31l65 184l55 -10h388z" />
    <glyph glyph-name="uni0163.sc" horiz-adv-x="572" 
d="M580 530l62 10l-51 -184h-32q12 68 -3.5 98.5t-82.5 30.5h-16l-125 -385q-4 -14 -6.5 -24t-1 -16.5t3 -10.5t8 -7t10.5 -4t14.5 -3.5t16.5 -3.5l-6 -31h-139l-17 -36q43 0 81.5 -23t38.5 -65q0 -88 -184 -88l5 31q87 0 87 43q0 40 -117 40l50 98h-128l11 33q46 9 72 26.5
t41 63.5l117 362h-1q-70 0 -112.5 -32t-72.5 -97h-31l65 184l55 -10h388z" />
    <glyph glyph-name="uni021B.sc" horiz-adv-x="572" 
d="M580 530l62 10l-51 -184h-32q12 68 -3.5 98.5t-82.5 30.5h-16l-125 -385q-4 -14 -6.5 -24t-1 -16.5t3 -10.5t8 -7t10.5 -4t14.5 -3.5t16.5 -3.5l-6 -31h-323l11 33q46 9 72 26.5t41 63.5l117 362h-1q-70 0 -112.5 -32t-72.5 -97h-31l65 184l55 -10h388zM166 -58
q37 0 60.5 -25.5t23.5 -70.5q0 -77 -61 -149.5t-156 -83.5l-13 37q49 15 73 33t37 54q4 8 4 22t-6 17q-52 33 -52 75q0 36 25.5 63.5t64.5 27.5z" />
    <glyph glyph-name="u.sc" horiz-adv-x="660" 
d="M294 -12q-39 0 -73 7.5t-66.5 25.5t-48.5 48.5t-19.5 77t19.5 109.5l58 174q5 16 6 27.5t0 18t-9 11.5t-12.5 6t-19 4t-20.5 4l13 29h315l-3 -36q-29 -6 -45 -12t-35 -25t-29 -50l-60 -183q-16 -50 -19 -86t2.5 -53.5t19.5 -27.5t23.5 -11.5t23.5 -1.5q25 0 51 7.5
t57 26.5t59 59.5t47 97.5l64 195q5 16 6.5 27.5t1 18t-8 11.5t-10.5 6t-17.5 4t-19.5 4l4 29h206l-10 -33q-47 -8 -71.5 -25.5t-39.5 -64.5l-57 -183q-22 -71 -54 -119.5t-70.5 -72.5t-76 -34t-82.5 -10z" />
    <glyph glyph-name="uacute.sc" horiz-adv-x="660" 
d="M419 587l-41 24q16 81 69 156q31 0 61.5 -23.5t41.5 -55.5q-85 -54 -131 -101zM294 -12q-39 0 -73 7.5t-66.5 25.5t-48.5 48.5t-19.5 77t19.5 109.5l58 174q5 16 6 27.5t0 18t-9 11.5t-12.5 6t-19 4t-20.5 4l13 29h315l-3 -36q-29 -6 -45 -12t-35 -25t-29 -50l-60 -183
q-16 -50 -19 -86t2.5 -53.5t19.5 -27.5t23.5 -11.5t23.5 -1.5q25 0 51 7.5t57 26.5t59 59.5t47 97.5l64 195q5 16 6.5 27.5t1 18t-8 11.5t-10.5 6t-17.5 4t-19.5 4l4 29h206l-10 -33q-47 -8 -71.5 -25.5t-39.5 -64.5l-57 -183q-22 -71 -54 -119.5t-70.5 -72.5t-76 -34
t-82.5 -10z" />
    <glyph glyph-name="ubreve.sc" horiz-adv-x="660" 
d="M465 615q-70 0 -103 45t-7 120h32q-9 -42 16 -61.5t73 -18.5q51 1 88.5 23.5t53.5 54.5h32q-48 -163 -185 -163zM294 -12q-39 0 -73 7.5t-66.5 25.5t-48.5 48.5t-19.5 77t19.5 109.5l58 174q5 16 6 27.5t0 18t-9 11.5t-12.5 6t-19 4t-20.5 4l13 29h315l-3 -36
q-29 -6 -45 -12t-35 -25t-29 -50l-60 -183q-16 -50 -19 -86t2.5 -53.5t19.5 -27.5t23.5 -11.5t23.5 -1.5q25 0 51 7.5t57 26.5t59 59.5t47 97.5l64 195q5 16 6.5 27.5t1 18t-8 11.5t-10.5 6t-17.5 4t-19.5 4l4 29h206l-10 -33q-47 -8 -71.5 -25.5t-39.5 -64.5l-57 -183
q-22 -71 -54 -119.5t-70.5 -72.5t-76 -34t-82.5 -10z" />
    <glyph glyph-name="ucircumflex.sc" horiz-adv-x="660" 
d="M495 780l89 -147l-18 -23l-93 76l-140 -76l-11 20zM294 -12q-39 0 -73 7.5t-66.5 25.5t-48.5 48.5t-19.5 77t19.5 109.5l58 174q5 16 6 27.5t0 18t-9 11.5t-12.5 6t-19 4t-20.5 4l13 29h315l-3 -36q-29 -6 -45 -12t-35 -25t-29 -50l-60 -183q-16 -50 -19 -86t2.5 -53.5
t19.5 -27.5t23.5 -11.5t23.5 -1.5q25 0 51 7.5t57 26.5t59 59.5t47 97.5l64 195q5 16 6.5 27.5t1 18t-8 11.5t-10.5 6t-17.5 4t-19.5 4l4 29h206l-10 -33q-47 -8 -71.5 -25.5t-39.5 -64.5l-57 -183q-22 -71 -54 -119.5t-70.5 -72.5t-76 -34t-82.5 -10z" />
    <glyph glyph-name="udieresis.sc" horiz-adv-x="660" 
d="M324 634q-32 0 -54.5 23t-22.5 54q0 29 23 51.5t54 22.5q30 0 52.5 -22.5t22.5 -51.5q0 -31 -22.5 -54t-52.5 -23zM561 634q-31 0 -54 23t-23 54q0 29 23 51.5t54 22.5q30 0 52.5 -22.5t22.5 -51.5q0 -31 -22.5 -54t-52.5 -23zM294 -12q-39 0 -73 7.5t-66.5 25.5
t-48.5 48.5t-19.5 77t19.5 109.5l58 174q5 16 6 27.5t0 18t-9 11.5t-12.5 6t-19 4t-20.5 4l13 29h315l-3 -36q-29 -6 -45 -12t-35 -25t-29 -50l-60 -183q-16 -50 -19 -86t2.5 -53.5t19.5 -27.5t23.5 -11.5t23.5 -1.5q25 0 51 7.5t57 26.5t59 59.5t47 97.5l64 195
q5 16 6.5 27.5t1 18t-8 11.5t-10.5 6t-17.5 4t-19.5 4l4 29h206l-10 -33q-47 -8 -71.5 -25.5t-39.5 -64.5l-57 -183q-22 -71 -54 -119.5t-70.5 -72.5t-76 -34t-82.5 -10z" />
    <glyph glyph-name="ugrave.sc" horiz-adv-x="660" 
d="M418 587q-46 47 -131 101q11 32 41.5 55.5t61.5 23.5q53 -75 69 -156zM294 -12q-39 0 -73 7.5t-66.5 25.5t-48.5 48.5t-19.5 77t19.5 109.5l58 174q5 16 6 27.5t0 18t-9 11.5t-12.5 6t-19 4t-20.5 4l13 29h315l-3 -36q-29 -6 -45 -12t-35 -25t-29 -50l-60 -183
q-16 -50 -19 -86t2.5 -53.5t19.5 -27.5t23.5 -11.5t23.5 -1.5q25 0 51 7.5t57 26.5t59 59.5t47 97.5l64 195q5 16 6.5 27.5t1 18t-8 11.5t-10.5 6t-17.5 4t-19.5 4l4 29h206l-10 -33q-47 -8 -71.5 -25.5t-39.5 -64.5l-57 -183q-22 -71 -54 -119.5t-70.5 -72.5t-76 -34
t-82.5 -10z" />
    <glyph glyph-name="uhungarumlaut.sc" horiz-adv-x="660" 
d="M362 587l-41 24q16 81 69 156q31 0 61.5 -23.5t41.5 -55.5q-85 -54 -131 -101zM556 587l-41 24q14 78 69 156q31 0 61 -23.5t41 -55.5q-83 -52 -130 -101zM294 -12q-39 0 -73 7.5t-66.5 25.5t-48.5 48.5t-19.5 77t19.5 109.5l58 174q5 16 6 27.5t0 18t-9 11.5t-12.5 6
t-19 4t-20.5 4l13 29h315l-3 -36q-29 -6 -45 -12t-35 -25t-29 -50l-60 -183q-16 -50 -19 -86t2.5 -53.5t19.5 -27.5t23.5 -11.5t23.5 -1.5q25 0 51 7.5t57 26.5t59 59.5t47 97.5l64 195q5 16 6.5 27.5t1 18t-8 11.5t-10.5 6t-17.5 4t-19.5 4l4 29h206l-10 -33
q-47 -8 -71.5 -25.5t-39.5 -64.5l-57 -183q-22 -71 -54 -119.5t-70.5 -72.5t-76 -34t-82.5 -10z" />
    <glyph glyph-name="umacron.sc" horiz-adv-x="660" 
d="M322 671l15 56h280l-15 -56h-280zM294 -12q-39 0 -73 7.5t-66.5 25.5t-48.5 48.5t-19.5 77t19.5 109.5l58 174q5 16 6 27.5t0 18t-9 11.5t-12.5 6t-19 4t-20.5 4l13 29h315l-3 -36q-29 -6 -45 -12t-35 -25t-29 -50l-60 -183q-16 -50 -19 -86t2.5 -53.5t19.5 -27.5
t23.5 -11.5t23.5 -1.5q25 0 51 7.5t57 26.5t59 59.5t47 97.5l64 195q5 16 6.5 27.5t1 18t-8 11.5t-10.5 6t-17.5 4t-19.5 4l4 29h206l-10 -33q-47 -8 -71.5 -25.5t-39.5 -64.5l-57 -183q-22 -71 -54 -119.5t-70.5 -72.5t-76 -34t-82.5 -10z" />
    <glyph glyph-name="uogonek.sc" horiz-adv-x="660" 
d="M549 530h206l-10 -33q-47 -8 -71.5 -25.5t-39.5 -64.5l-57 -183q-41 -128 -108.5 -180t-156.5 -56q-85 -45 -85 -96q0 -23 13 -37.5t35 -14.5q17 0 31 5l-7 -24q-40 -32 -95 -32q-91 0 -91 73q0 42 28 73l94 58q-89 15 -129.5 77.5t0.5 185.5l58 174q5 16 6 27.5t0 18
t-9 11.5t-12.5 6t-19 4t-20.5 4l13 29h315l-3 -36q-29 -6 -45 -12t-35 -25t-29 -50l-60 -183q-16 -50 -19 -86t2.5 -53.5t19.5 -27.5t23.5 -11.5t23.5 -1.5q25 0 51 7.5t57 26.5t59 59.5t47 97.5l64 195q5 16 6.5 27.5t1 18t-8 11.5t-10.5 6t-17.5 4t-19.5 4z" />
    <glyph glyph-name="uring.sc" horiz-adv-x="660" 
d="M489 610q-45 0 -75 29t-30 72t30 72t75 29t74.5 -29t29.5 -72t-29.5 -72t-74.5 -29zM489 677q36 0 36 34t-36 34q-37 0 -37 -34t37 -34zM294 -12q-39 0 -73 7.5t-66.5 25.5t-48.5 48.5t-19.5 77t19.5 109.5l58 174q5 16 6 27.5t0 18t-9 11.5t-12.5 6t-19 4t-20.5 4l13 29
h315l-3 -36q-29 -6 -45 -12t-35 -25t-29 -50l-60 -183q-16 -50 -19 -86t2.5 -53.5t19.5 -27.5t23.5 -11.5t23.5 -1.5q25 0 51 7.5t57 26.5t59 59.5t47 97.5l64 195q5 16 6.5 27.5t1 18t-8 11.5t-10.5 6t-17.5 4t-19.5 4l4 29h206l-10 -33q-47 -8 -71.5 -25.5t-39.5 -64.5
l-57 -183q-22 -71 -54 -119.5t-70.5 -72.5t-76 -34t-82.5 -10z" />
    <glyph glyph-name="v.sc" horiz-adv-x="590" 
d="M506 530h178l-8 -33q-38 -9 -57.5 -22t-44.5 -46l-330 -429h-47l-41 438q-1 13 -3.5 21.5t-4 13.5t-9 9t-9.5 5.5t-15 5t-17 4.5l6 33h309l-9 -33q-51 -1 -71 -16t-16 -48l29 -224l174 228q10 12 14 21.5t5.5 14.5t-4 9t-8.5 5.5t-14.5 5t-15.5 4.5z" />
    <glyph glyph-name="w.sc" horiz-adv-x="868" 
d="M175 13l-20 409q0 16 -2.5 27t-4 17t-9 11t-10.5 6.5t-15.5 5t-18.5 5.5l9 36h298l-3 -34q-22 -2 -31 -4t-19 -7t-13 -14.5t-4 -26.5l2 -223l101 152q40 57 38 84.5t-53 36.5l6 36h235q-12 -36 -14 -142l7 -166l130 192q9 14 14.5 24t9.5 17.5t1.5 12.5t-3 8t-9.5 6
t-13.5 4t-19 3.5t-21.5 4.5l11 36h206l-8 -34q-27 -3 -38 -5.5t-26 -13.5t-28 -33l-303 -430h-62l-20 338l-236 -339h-64z" />
    <glyph glyph-name="wacute.sc" horiz-adv-x="868" 
d="M511 587l-41 24q16 81 69 156q31 0 61.5 -23.5t41.5 -55.5q-85 -54 -131 -101zM175 13l-20 409q0 16 -2.5 27t-4 17t-9 11t-10.5 6.5t-15.5 5t-18.5 5.5l9 36h298l-3 -34q-22 -2 -31 -4t-19 -7t-13 -14.5t-4 -26.5l2 -223l101 152q40 57 38 84.5t-53 36.5l6 36h235
q-12 -36 -14 -142l7 -166l130 192q9 14 14.5 24t9.5 17.5t1.5 12.5t-3 8t-9.5 6t-13.5 4t-19 3.5t-21.5 4.5l11 36h206l-8 -34q-27 -3 -38 -5.5t-26 -13.5t-28 -33l-303 -430h-62l-20 338l-236 -339h-64z" />
    <glyph glyph-name="wcircumflex.sc" horiz-adv-x="868" 
d="M587 780l89 -147l-18 -23l-93 76l-140 -76l-11 20zM175 13l-20 409q0 16 -2.5 27t-4 17t-9 11t-10.5 6.5t-15.5 5t-18.5 5.5l9 36h298l-3 -34q-22 -2 -31 -4t-19 -7t-13 -14.5t-4 -26.5l2 -223l101 152q40 57 38 84.5t-53 36.5l6 36h235q-12 -36 -14 -142l7 -166l130 192
q9 14 14.5 24t9.5 17.5t1.5 12.5t-3 8t-9.5 6t-13.5 4t-19 3.5t-21.5 4.5l11 36h206l-8 -34q-27 -3 -38 -5.5t-26 -13.5t-28 -33l-303 -430h-62l-20 338l-236 -339h-64z" />
    <glyph glyph-name="wdieresis.sc" horiz-adv-x="868" 
d="M416 634q-32 0 -54.5 23t-22.5 54q0 29 23 51.5t54 22.5q30 0 52.5 -22.5t22.5 -51.5q0 -31 -22.5 -54t-52.5 -23zM653 634q-31 0 -54 23t-23 54q0 29 23 51.5t54 22.5q30 0 52.5 -22.5t22.5 -51.5q0 -31 -22.5 -54t-52.5 -23zM175 13l-20 409q0 16 -2.5 27t-4 17t-9 11
t-10.5 6.5t-15.5 5t-18.5 5.5l9 36h298l-3 -34q-22 -2 -31 -4t-19 -7t-13 -14.5t-4 -26.5l2 -223l101 152q40 57 38 84.5t-53 36.5l6 36h235q-12 -36 -14 -142l7 -166l130 192q9 14 14.5 24t9.5 17.5t1.5 12.5t-3 8t-9.5 6t-13.5 4t-19 3.5t-21.5 4.5l11 36h206l-8 -34
q-27 -3 -38 -5.5t-26 -13.5t-28 -33l-303 -430h-62l-20 338l-236 -339h-64z" />
    <glyph glyph-name="wgrave.sc" horiz-adv-x="868" 
d="M510 587q-46 47 -131 101q11 32 41.5 55.5t61.5 23.5q53 -75 69 -156zM175 13l-20 409q0 16 -2.5 27t-4 17t-9 11t-10.5 6.5t-15.5 5t-18.5 5.5l9 36h298l-3 -34q-22 -2 -31 -4t-19 -7t-13 -14.5t-4 -26.5l2 -223l101 152q40 57 38 84.5t-53 36.5l6 36h235
q-12 -36 -14 -142l7 -166l130 192q9 14 14.5 24t9.5 17.5t1.5 12.5t-3 8t-9.5 6t-13.5 4t-19 3.5t-21.5 4.5l11 36h206l-8 -34q-27 -3 -38 -5.5t-26 -13.5t-28 -33l-303 -430h-62l-20 338l-236 -339h-64z" />
    <glyph glyph-name="x.sc" horiz-adv-x="690" 
d="M697 496q-45 -5 -69.5 -17t-70.5 -52l-132 -120l81 -209q14 -35 39.5 -47t74.5 -16l-15 -35h-347l5 33q5 1 16 3.5t15.5 3.5t12.5 3t11.5 4t8.5 5.5t6 8t2 10t-0.5 13t-5.5 16.5l-43 109l-122 -118q-23 -23 -26 -33.5t4 -13.5t32 -7l-8 -37h-213l10 33q51 7 72 17.5
t69 51.5l166 148l-65 167q-18 46 -37.5 59.5t-64.5 19.5l10 34h334l-9 -34q-18 -4 -27.5 -6.5t-20 -7.5t-14 -12t-3 -19t6.5 -28l29 -74l89 85q27 26 32 39t-3.5 17t-34.5 6l11 34h205z" />
    <glyph glyph-name="y.sc" horiz-adv-x="529" 
d="M466 530h178l-10 -24q-32 -4 -46.5 -13.5t-44.5 -43.5l-5.5 -5.5t-4.5 -5.5l-213 -223l-36 -116q-5 -16 -5.5 -28t0.5 -18.5t10.5 -11t14 -6t21 -4.5t22.5 -4l-11 -27h-288l9 35q26 3 34.5 4.5t27.5 6.5t27.5 12t19 20.5t17.5 33.5l34 105l-59 228q-11 37 -22.5 46.5
t-43.5 14.5l10 24h246l-13 -24q-39 -6 -62.5 -21t-15.5 -47l53 -179l178 195q13 16 17 25.5t-2 14.5t-15 7t-26 4q-6 1 -9 1z" />
    <glyph glyph-name="yacute.sc" horiz-adv-x="529" 
d="M527 688q-85 -54 -131 -101l-41 24q16 81 69 156q31 0 61.5 -23.5t41.5 -55.5zM466 530h178l-10 -24q-32 -4 -46.5 -13.5t-44.5 -43.5l-5.5 -5.5t-4.5 -5.5l-213 -223l-36 -116q-5 -16 -5.5 -28t0.5 -18.5t10.5 -11t14 -6t21 -4.5t22.5 -4l-11 -27h-288l9 35
q26 3 34.5 4.5t27.5 6.5t27.5 12t19 20.5t17.5 33.5l34 105l-59 228q-11 37 -22.5 46.5t-43.5 14.5l10 24h246l-13 -24q-39 -6 -62.5 -21t-15.5 -47l53 -179l178 195q13 16 17 25.5t-2 14.5t-15 7t-26 4q-6 1 -9 1z" />
    <glyph glyph-name="ycircumflex.sc" horiz-adv-x="529" 
d="M449 686l-140 -76l-11 20l173 150l89 -147l-18 -23zM466 530h178l-10 -24q-32 -4 -46.5 -13.5t-44.5 -43.5l-5.5 -5.5t-4.5 -5.5l-213 -223l-36 -116q-5 -16 -5.5 -28t0.5 -18.5t10.5 -11t14 -6t21 -4.5t22.5 -4l-11 -27h-288l9 35q26 3 34.5 4.5t27.5 6.5t27.5 12
t19 20.5t17.5 33.5l34 105l-59 228q-11 37 -22.5 46.5t-43.5 14.5l10 24h246l-13 -24q-39 -6 -62.5 -21t-15.5 -47l53 -179l178 195q13 16 17 25.5t-2 14.5t-15 7t-26 4q-6 1 -9 1z" />
    <glyph glyph-name="ydieresis.sc" horiz-adv-x="529" 
d="M301 634q-31 0 -54 23t-23 54q0 29 23 51.5t54 22.5q30 0 52.5 -22.5t22.5 -51.5q0 -31 -22.5 -54t-52.5 -23zM538 634q-32 0 -54.5 23t-22.5 54q0 29 23 51.5t54 22.5q30 0 52.5 -22.5t22.5 -51.5q0 -31 -22.5 -54t-52.5 -23zM466 530h178l-10 -24q-32 -4 -46.5 -13.5
t-44.5 -43.5l-5.5 -5.5t-4.5 -5.5l-213 -223l-36 -116q-5 -16 -5.5 -28t0.5 -18.5t10.5 -11t14 -6t21 -4.5t22.5 -4l-11 -27h-288l9 35q26 3 34.5 4.5t27.5 6.5t27.5 12t19 20.5t17.5 33.5l34 105l-59 228q-11 37 -22.5 46.5t-43.5 14.5l10 24h246l-13 -24q-39 -6 -62.5 -21
t-15.5 -47l53 -179l178 195q13 16 17 25.5t-2 14.5t-15 7t-26 4q-6 1 -9 1z" />
    </font>
</defs>
</svg>
