<?xml version="1.0" standalone="no"?>
<!DOCTYPE svg PUBLIC "-//W3C//DTD SVG 1.1//EN" "http://www.w3.org/Graphics/SVG/1.1/DTD/svg11.dtd" >
<svg xmlns="http://www.w3.org/2000/svg" xmlns:xlink="http://www.w3.org/1999/xlink" version="1.1">
<metadata>
Created by FontForge 20170731 at Tue Jun  5 16:44:13 2018
 By Aleksey,,,
Copyright (c) 2018 by Connary Fagen. All rights reserved.
</metadata>
<defs>
<font id="AddingtonCF-ThinItalic" horiz-adv-x="647" >
  <font-face 
    font-family="Addington CF Thin"
    font-weight="100"
    font-style="italic"
    font-stretch="normal"
    units-per-em="1000"
    panose-1="0 0 2 0 0 0 0 0 0 0"
    ascent="800"
    descent="-200"
    x-height="437"
    cap-height="630"
    bbox="-277 -288 1029 893"
    underline-thickness="50"
    underline-position="-200"
    slope="-18"
    unicode-range="U+0020-FB02"
  />
<missing-glyph horiz-adv-x="488" 
d="M400 800v-975h-309v975h309zM325 735h-161v-32h63v-37h-64v-32h162v32h-65v37h65v32zM260 609h-97v-101h162v33h-65v68zM227 576v-35h-32v35h32zM325 481h-162v-32h64v-36h-64v-32h97v68h65v32zM325 423h-32v-65h-130v-33h162v98zM325 304h-98v-55h33v23h33v-46h-98v78
h-32v-110h162v110zM325 135h-162v-110h162v110zM293 103v-46h-98v46h98zM325 2h-162v-32h68l-68 -46v-32h162v32h-100l68 46h32v32z" />
    <glyph glyph-name="fi" unicode="fi" horiz-adv-x="554" 
d="M574 633h-1v-5q0 -17 -12 -28.5t-29 -11.5t-29 11.5t-12 28.5q0 5 1 8h-1q12 32 8 41t-27 9q-16 0 -33.5 -3t-41.5 -13.5t-44.5 -27.5t-40 -48t-31.5 -72l-26 -92h105l-14 -35l-99 6l-91 -318q-39 -136 -94 -202.5t-132 -66.5q-43 0 -64.5 19t-21.5 42q0 17 11 27.5
t28 10.5q20 0 28.5 -15t7.5 -29q-2 -32 31 -32q39 0 66 33.5t52 119.5l119 415l-105 6l5 19h107q23 79 57 136.5t70.5 86.5t70 42t65.5 13q46 0 79 -21.5t38 -53.5zM491 437q20 0 30.5 -15t0.5 -39l-112 -280q-21 -51 -3 -47q25 6 89 99l13 -15q-91 -150 -143 -150
q-18 0 -30.5 15.5t-2.5 38.5l109 280q21 52 4 47q-23 -7 -89 -99l-12 15q92 150 146 150z" />
    <glyph glyph-name="fl" unicode="fl" horiz-adv-x="543" 
d="M406 103q-17 -49 -2 -44q21 5 88 98l11 -15q-91 -152 -144 -152q-14 0 -26 13.5t-5 36.5l206 590q0 56 -65 56q-22 0 -42.5 -5t-49.5 -19.5t-54 -50.5t-40 -89l-27 -92h112l-14 -35l-106 6l-92 -318q-39 -136 -94 -202.5t-132 -66.5q-40 0 -63 20t-23 43q0 16 11 26
t28 10q20 0 28.5 -15t7.5 -29q-2 -32 31 -32q39 0 66 33.5t52 119.5l120 415l-98 6l4 19h101q81 278 271 278q55 0 91.5 -23.5t36.5 -54.5z" />
    <glyph glyph-name="f_f" unicode="ff" horiz-adv-x="655" 
d="M709 698q44 0 64 -17.5t20 -40.5q0 -18 -12 -29.5t-28 -11.5q-33 0 -33 45q0 15 -7 23t-26 8q-38 0 -67 -34.5t-53 -118.5l-26 -92h110l-14 -35l-105 3l-90 -315q-40 -137 -95 -203t-132 -66q-43 0 -64.5 19t-21.5 42q0 17 11.5 27.5t27.5 10.5q20 0 29 -15t8 -29
q-2 -32 30 -32q40 0 67 33.5t51 119.5l118 409l-226 7l-99 -348q-39 -136 -94 -202.5t-132 -66.5q-43 0 -64.5 19t-21.5 42q0 16 11 27t28 11q20 0 28.5 -15t7.5 -29q-1 -17 6 -24.5t25 -7.5q40 0 67 34t51 119l126 439v1q1 1 1 2l-100 3l5 20h102q39 123 93 183t129 60
q44 0 64 -17.5t20 -40.5q0 -18 -12 -29.5t-28 -11.5q-34 0 -34 45q0 15 -6.5 22.5t-25.5 7.5q-38 0 -67.5 -34.5t-53.5 -117.5l-19 -67h228q40 136 95 202t134 66z" />
    <glyph glyph-name="f_f_i" unicode="ffi" horiz-adv-x="839" 
d="M859 633v-5q0 -17 -12.5 -28.5t-29.5 -11.5q-16 0 -28.5 11.5t-12.5 28.5q0 10 5 18q7 25 2 32.5t-26 7.5q-16 0 -33.5 -3t-41.5 -13.5t-44.5 -27.5t-40 -48t-30.5 -72l-26 -92h110l-14 -35l-105 3l-90 -315q-40 -137 -95 -203t-132 -66q-43 0 -64.5 19t-21.5 42
q0 17 11.5 27.5t27.5 10.5q20 0 29 -15t8 -29q-2 -32 30 -32q40 0 66.5 33.5t51.5 119.5l118 409l-226 7l-99 -348q-39 -136 -94 -202.5t-132 -66.5q-43 0 -64.5 19t-21.5 42q0 16 11 27t28 11q20 0 28.5 -15t7.5 -29q-1 -17 6 -24.5t25 -7.5q40 0 67 34t51 119l126 439v1
q1 1 1 2l-100 3l5 20h102q39 123 93 183t129 60q44 0 64 -17.5t20 -40.5q0 -18 -12 -29.5t-28 -11.5q-34 0 -34 45q0 15 -6.5 22.5t-25.5 7.5q-38 0 -67.5 -34.5t-53.5 -117.5l-19 -67h228q23 79 56.5 136.5t70 86.5t70 42t66.5 13q45 0 78 -21.5t38 -53.5zM777 437
q20 0 30 -15t0 -39l-111 -280q-21 -51 -3 -47q26 8 89 99l12 -15q-89 -150 -142 -150q-18 0 -30.5 15.5t-2.5 38.5l109 280q21 51 4 47q-22 -4 -90 -99l-11 15q91 150 146 150z" />
    <glyph glyph-name=".notdef" horiz-adv-x="488" 
d="M400 800v-975h-309v975h309zM325 735h-161v-32h63v-37h-64v-32h162v32h-65v37h65v32zM260 609h-97v-101h162v33h-65v68zM227 576v-35h-32v35h32zM325 481h-162v-32h64v-36h-64v-32h97v68h65v32zM325 423h-32v-65h-130v-33h162v98zM325 304h-98v-55h33v23h33v-46h-98v78
h-32v-110h162v110zM325 135h-162v-110h162v110zM293 103v-46h-98v46h98zM325 2h-162v-32h68l-68 -46v-32h162v32h-100l68 46h32v32z" />
    <glyph glyph-name=".null" horiz-adv-x="0" 
 />
    <glyph glyph-name="nonmarkingreturn" horiz-adv-x="333" 
 />
    <glyph glyph-name="space" unicode=" " horiz-adv-x="197" 
 />
    <glyph glyph-name="exclam" unicode="!" horiz-adv-x="205" 
d="M68 170l107 427q8 32 20.5 44t32.5 12q47 0 23 -61l-170 -422h-13zM47 -10q-21 0 -36 14t-15 35t15 35t36 14t36.5 -14t15.5 -35t-15.5 -35t-36.5 -14z" />
    <glyph glyph-name="quotedbl" unicode="&#x22;" horiz-adv-x="228" 
d="M104 388l41 197q4 20 17 32.5t27 12.5q15 0 18.5 -17.5t-4.5 -37.5l-89 -187h-10zM206 388l40 197q5 20 18 32.5t27 12.5q10 0 15 -8t4 -21t-6 -26l-88 -187h-10z" />
    <glyph glyph-name="numbersign" unicode="#" horiz-adv-x="473" 
d="M499 425h-89l-79 -207h91l-17 -41h-90l-79 -207h-38l79 207h-121l-79 -207h-40l80 207h-90l16 41h89l80 207h-91l17 41h90l79 206h37l-78 -206h121l79 206h39l-79 -206h90zM293 218l79 207h-122l-79 -207h122z" />
    <glyph glyph-name="dollar" unicode="$" horiz-adv-x="472" 
d="M400 614q82 -7 119 -52l-38 -114h-18q17 123 -74 139l-91 -225l16 -12q105 -75 105 -152q0 -74 -74 -126.5t-174 -52.5h-10l-33 -81h-25l34 83q-68 9 -122 57l34 112h17q-8 -56 13 -93.5t69 -47.5l106 263l-9 7q-29 21 -44.5 34.5t-31 40t-15.5 55.5q0 70 65.5 118
t155.5 48h2l33 82h23zM280 377l86 212h-1q-58 0 -101.5 -34.5t-43.5 -81.5q0 -46 60 -96zM345 184q0 57 -72 114l-102 -252h7q69 0 118 41t49 97z" />
    <glyph glyph-name="percent" unicode="%" horiz-adv-x="667" 
d="M668 634l53 -4l-651 -630h-47l578 555q-41 -19 -86 -19q-56 0 -100 29v-2q0 -80 -77.5 -161.5t-156.5 -81.5q-32 0 -50 19t-18 53q0 80 77.5 159.5t161.5 79.5q32 0 48 -18q76 -52 134 -52q70 0 134 73zM214 347q54 0 116 79t62 136q0 21 -13 33t-35 12
q-52 0 -110.5 -81.5t-58.5 -140.5q0 -38 39 -38zM556 309q63 0 63 -67q0 -82 -77 -163t-157 -81q-31 0 -48.5 19t-17.5 53q0 81 77 160t160 79zM419 25q54 0 116 79t62 135q0 22 -12.5 34t-34.5 12q-54 0 -111.5 -80.5t-57.5 -141.5q0 -38 38 -38z" />
    <glyph glyph-name="ampersand" unicode="&#x26;" horiz-adv-x="653" 
d="M677 434q19 -42 -13 -79.5t-79 -37.5q-33 0 -70 31q17 -141 -64 -250.5t-211 -109.5q-97 0 -147.5 57.5t-50.5 142.5q0 66 26 120.5t66.5 86t89 45.5t94.5 6l46 100q17 37 20.5 60t-2.5 31.5t-13 19.5t-7 23q0 33 30 33q19 0 28 -13.5t5.5 -43t-22.5 -70.5l-234 -514
q38 -16 84 -16q75 0 136.5 49t89 121t14.5 140q-23 16 -45 16q-29 0 -44 -22.5t-13 -54.5h-15q-13 49 16.5 82.5t76.5 33.5q34 0 73.5 -30t63.5 -30q30 0 44.5 21t12.5 52h14zM68 219q0 -93 81 -138l140 303q-24 11 -52.5 13t-58.5 -12t-54.5 -35.5t-40 -56t-15.5 -74.5z
" />
    <glyph glyph-name="quotesingle" unicode="'" horiz-adv-x="127" 
d="M104 388l41 197q4 20 17 32.5t27 12.5q15 0 18.5 -17.5t-4.5 -37.5l-89 -187h-10z" />
    <glyph glyph-name="parenleft" unicode="(" horiz-adv-x="255" 
d="M100 -157q-74 90 -74 235q0 185 103.5 373t266.5 302l4 -10q-140 -111 -234.5 -325t-94.5 -400q0 -107 36 -168z" />
    <glyph glyph-name="parenright" unicode=")" horiz-adv-x="254" 
d="M212 753q73 -91 73 -235q0 -185 -103.5 -373t-266.5 -302l-4 9q93 73 169.5 200t118 266.5t41.5 259.5q0 105 -35 167z" />
    <glyph glyph-name="asterisk" unicode="*" horiz-adv-x="380" 
d="M270 527l-22 53q-11 23 -0.5 36.5t28.5 13.5t29.5 -13.5t1.5 -36.5l-22 -53q-2 -5 -4.5 -6.5t-5.5 0t-5 6.5zM233 495l-56 11q-26 3 -32.5 21t4.5 30q9 16 23.5 18t35.5 -19l33 -47q6 -6 3 -11t-11 -3zM320 495q-7 -1 -10 4t2 10l35 47q19 21 33.5 19t25.5 -18
q10 -12 3 -30t-33 -21zM147 407q-10 12 -3 30t33 21l56 11q7 1 10 -4t-2 -10l-35 -47q-19 -20 -34 -18.5t-25 17.5zM406 407q-10 -15 -26 -17t-33 18l-35 47q-5 5 -2 10t10 4l56 -11q26 -3 33 -21t-3 -30zM276 334q-18 0 -28.5 13t0.5 37l19 53q3 7 9 7t9 -7l20 -53
q11 -25 0.5 -37.5t-29.5 -12.5z" />
    <glyph glyph-name="plus" unicode="+" horiz-adv-x="435" 
d="M403 269l-11 -35h-149l-55 -169h-37l55 169h-152l11 35h152l54 167h37l-54 -167h149z" />
    <glyph glyph-name="comma" unicode="," horiz-adv-x="204" 
d="M-54 -142l-4 14q33 13 58.5 40.5t32.5 50.5q0 8 1.5 11t-2 6.5t-5 4.5t-8 5t-11.5 8q-22 15 -22 41q0 21 17 35t38 14q23 0 39 -18t16 -48q0 -44 -41 -91.5t-109 -72.5z" />
    <glyph glyph-name="hyphen" unicode="-" horiz-adv-x="393" 
d="M59 241v24h276v-24h-276z" />
    <glyph glyph-name="period" unicode="." horiz-adv-x="210" 
d="M47 -10q-21 0 -36 14t-15 35t15 35t36 14t36.5 -14t15.5 -35t-15.5 -35t-36.5 -14z" />
    <glyph glyph-name="slash" unicode="/" horiz-adv-x="339" 
d="M-64 -69l546 816l25 -20l-546 -816z" />
    <glyph glyph-name="zero" unicode="0" horiz-adv-x="495" 
d="M165 -9q-60 0 -99.5 39.5t-39.5 108.5q0 113 93.5 206.5t210.5 93.5q60 0 99 -39.5t39 -107.5q0 -112 -93.5 -206.5t-209.5 -94.5zM193 23q81 0 142.5 89.5t61.5 174.5q0 55 -25.5 87.5t-68.5 32.5q-56 0 -105.5 -46t-75.5 -106t-26 -110q0 -56 26 -89t71 -33z" />
    <glyph glyph-name="one" unicode="1" horiz-adv-x="317" 
d="M144 74q-10 -30 7.5 -40.5t61.5 -15.5l-8 -18h-231l7 19q26 3 36.5 5t27 7t25 15t14.5 26l90 281q1 12 3.5 20t-3.5 14.5t-10 10.5t-15.5 6.5t-19.5 4t-22 3.5l5 18h234l-7 -19q-26 -3 -36.5 -5t-27 -7.5t-25.5 -16t-14 -27.5z" />
    <glyph glyph-name="two" unicode="2" horiz-adv-x="409" 
d="M-21 0l-3 19q11 8 42 29t49 33t48.5 34t50 38t45 37.5t41.5 39t31 37.5t22 38t7 35q0 49 -68 49q-74 0 -144 -84l-11 20q38 56 92.5 85t110.5 29q45 0 70.5 -24t25.5 -65q0 -24 -11 -49t-26 -45t-42.5 -44t-48 -39.5t-56 -37.5t-53 -32t-53 -29t-42.5 -23l141 2
q45 2 71 14.5t55 53.5l18 -3l-75 -129h-18l2 11h-271z" />
    <glyph glyph-name="three" unicode="3" horiz-adv-x="427" 
d="M26 -190q-101 0 -101 61q0 23 12.5 31t25.5 8q15 0 26 -12t16.5 -26.5t19.5 -26.5t35 -12q60 0 128 66.5t68 131.5q0 44 -31.5 66.5t-77.5 22.5q-41 0 -91 -25v22l80 36q182 82 182 169q0 27 -18.5 44.5t-51.5 17.5q-71 0 -156 -81l-8 21q105 115 204 115q46 0 72 -23.5
t26 -62.5q0 -58 -49 -106.5t-121 -83.5q48 -2 81.5 -28t33.5 -78q0 -61 -46.5 -119t-117.5 -93t-141 -35z" />
    <glyph glyph-name="four" unicode="4" horiz-adv-x="438" 
d="M403 445l-136 -419h86l-21 -36h-76l-30 -91q-6 -13 -3 -22.5t6 -15t13 -10t16.5 -6.5t18.5 -4l-8 -16h-199l10 18q19 4 26 5.5t21 7t22 15.5t13 26l30 93h-233l-4 16l439 439h9zM0 26h204l97 301z" />
    <glyph glyph-name="five" unicode="5" horiz-adv-x="443" 
d="M425 361h-234l-95 -142q121 17 181 -23.5t60 -117.5q0 -103 -93.5 -185.5t-205.5 -82.5q-44 0 -79 14t-35 45q0 20 14 30.5t35 10.5q14 0 23.5 -12t15 -26.5t19 -26.5t35.5 -12q61 0 127.5 78.5t66.5 157.5q0 56 -45.5 88.5t-150.5 12.5l-10 20l157 240h156
q40 0 60.5 6.5t40.5 27.5h18z" />
    <glyph glyph-name="six" unicode="6" horiz-adv-x="500" 
d="M189 -12q-69 0 -103.5 42.5t-34.5 116.5q0 82 42.5 169t109 155.5t151 114.5t163.5 51v-22q-94 -9 -188.5 -88.5t-152 -188.5t-57.5 -203q0 -51 22.5 -82t62.5 -31q49 0 96 39t74.5 95t27.5 106q0 46 -25 71.5t-72 25.5q-31 0 -67 -9l5 21q52 25 108 25q59 0 90 -33
t31 -92q0 -105 -88 -194t-195 -89z" />
    <glyph glyph-name="seven" unicode="7" horiz-adv-x="448" 
d="M486 430l2 -19q-286 -312 -426 -603h-71q147 255 424 553h-208q-41 0 -65 -12t-61 -62h-18l98 160h14l-4 -17h315z" />
    <glyph glyph-name="eight" unicode="8" horiz-adv-x="487" 
d="M357 346q84 -44 84 -121q0 -93 -85.5 -163.5t-188.5 -70.5q-68 0 -106.5 35t-38.5 96q0 74 51 131.5t133 88.5q-44 39 -44 100q0 77 62.5 136t149.5 59q62 0 92 -29t30 -78q0 -106 -139 -184zM374 611q-57 0 -98.5 -46.5t-41.5 -100.5q0 -62 66 -93l32 -13q53 32 85 80.5
t32 95.5q0 33 -19 55t-56 22zM178 18q75 0 132 61t57 121q0 36 -24 60t-80 51l-10 2q-18 8 -25 13q-71 -31 -112 -86t-41 -118q0 -48 27 -76t76 -28z" />
    <glyph glyph-name="nine" unicode="9" horiz-adv-x="502" 
d="M311 438q69 0 103.5 -42.5t34.5 -116.5q0 -82 -43 -169t-109 -155.5t-150.5 -114.5t-163.5 -51v22q94 9 188.5 88.5t152 188t57.5 203.5q0 51 -22.5 82t-62.5 31q-74 0 -136.5 -80t-62.5 -160q0 -46 25 -72t73 -26q25 0 67 10l-6 -21q-52 -25 -108 -25q-59 0 -89.5 33
t-30.5 91q0 105 88 194.5t195 89.5z" />
    <glyph glyph-name="colon" unicode=":" horiz-adv-x="206" 
d="M159 332q-21 0 -36 14t-15 35t15 35t36 14t36.5 -14t15.5 -35t-15.5 -35t-36.5 -14zM47 -10q-21 0 -36 14t-15 35t15 35t36 14t36.5 -14t15.5 -35t-15.5 -35t-36.5 -14z" />
    <glyph glyph-name="semicolon" unicode=";" horiz-adv-x="204" 
d="M149 331q-21 0 -36 14t-15 35t15 35t36 14t36.5 -14t15.5 -35t-15.5 -35t-36.5 -14zM-54 -142l-4 14q33 13 58.5 40.5t32.5 50.5q0 8 1.5 11t-2 6.5t-5 4.5t-8 5t-11.5 8q-22 15 -22 41q0 21 17 35t38 14q23 0 39 -18t16 -48q0 -44 -41 -91.5t-109 -72.5z" />
    <glyph glyph-name="less" unicode="&#x3c;" horiz-adv-x="441" 
d="M457 437l-13 -32q-147 -81 -371 -161q164 -72 271 -162l-11 -22q-134 101 -271 170l13 35q159 59 382 172z" />
    <glyph glyph-name="equal" unicode="=" horiz-adv-x="431" 
d="M85 324l11 35h333l-11 -35h-333zM27 144l11 35h333l-11 -35h-333z" />
    <glyph glyph-name="greater" unicode="&#x3e;" horiz-adv-x="443" 
d="M7 60l12 32q133 74 371 162q-161 70 -270 161l11 22q136 -103 271 -170l-13 -35q-156 -57 -382 -172z" />
    <glyph glyph-name="question" unicode="?" horiz-adv-x="408" 
d="M174 182q-1 37 17 71t46 62.5t57.5 57t57.5 65.5t41 77q15 49 -5 80.5t-89 31.5q-23 0 -51 -39q-31 -42 -47.5 -57t-34.5 -15q-17 0 -17 21q0 36 39.5 65t90 42.5t94.5 13.5q70 0 91.5 -45t-2.5 -105q-15 -46 -44.5 -82.5t-62 -61t-64.5 -48t-59 -57.5t-39 -77h-19z
M152 -12q-21 0 -36 14t-15 35t15 35t36 14t36.5 -14t15.5 -35t-15.5 -35t-36.5 -14z" />
    <glyph glyph-name="at" unicode="@" horiz-adv-x="814" 
d="M561 635q113 0 177 -61.5t64 -164.5q0 -119 -71 -212.5t-174 -93.5q-41 0 -59.5 20t-10.5 55q-75 -72 -158 -72q-39 0 -61 21.5t-22 63.5q0 97 85.5 179t175.5 82q77 0 77 -76v-10l39 73h48l-125 -241q-15 -30 -8.5 -50.5t44.5 -20.5q72 0 128.5 90.5t56.5 195.5
q0 85 -56 137.5t-156 52.5q-107 0 -208 -65.5t-161.5 -168t-60.5 -206.5q0 -93 55 -149t154 -56q117 0 203 47l4 -17q-96 -56 -221 -56q-118 0 -188 68t-70 177q0 116 73 223t189 171t237 64zM368 135q38 0 83.5 39t78.5 93l18 33q20 45 20 73q0 27 -14 43t-40 16
q-69 0 -136 -85.5t-67 -152.5q0 -30 16 -44.5t41 -14.5z" />
    <glyph glyph-name="A" unicode="A" horiz-adv-x="641" 
d="M514 87q2 -35 12.5 -50t40.5 -22l-2 -15h-207l3 15q24 6 34 9.5t23.5 10.5t18.5 18.5t4 28.5l-7 126v-1h-251l-90 -131q-11 -17 -14 -27.5t5 -17t14 -9t25 -7.5l-4 -15h-161l3 16q39 9 56 19.5t38 38.5l395 563h30zM201 232h232l-17 312z" />
    <glyph glyph-name="B" unicode="B" horiz-adv-x="565" 
d="M573 518q0 -61 -49 -114.5t-120 -74.5q107 -24 107 -123q0 -98 -88 -152t-221 -54h-235l4 16q23 5 34.5 8.5t26 12t24 24t17.5 39.5l137 428q8 24 8.5 40t-7 25t-17.5 13t-29 7l5 17h239q164 0 164 -112zM312 343q82 0 140 49.5t58 115.5q0 94 -131 94q-35 0 -55 -8
t-26 -18t-13 -30l-65 -203h92zM441 201q0 113 -157 113h-73l-68 -212q-13 -37 2 -55.5t68 -18.5q99 0 163.5 50.5t64.5 122.5z" />
    <glyph glyph-name="C" unicode="C" horiz-adv-x="571" 
d="M270 -13q-99 0 -149 54.5t-50 154.5q0 111 54.5 214t151 169t207.5 66q103 0 151 -54l-32 -131h-22q13 156 -115 156q-87 0 -162 -63.5t-115.5 -154.5t-40.5 -179q0 -89 45 -139t123 -50q101 0 171 57l4 -21q-39 -35 -98 -57t-123 -22z" />
    <glyph glyph-name="D" unicode="D" horiz-adv-x="622" 
d="M378 630q109 0 176.5 -51.5t67.5 -158.5q0 -119 -61.5 -216t-165.5 -150.5t-229 -53.5h-199l4 16q23 5 34.5 8.5t26 12t24 24t17.5 39.5l137 428q8 24 8.5 40t-7 25t-17.5 13t-29 7l5 17h208zM207 29q94 0 172.5 56t122.5 149.5t44 201.5q0 165 -192 165h-50l-155 -476
q-17 -52 -4.5 -74t62.5 -22z" />
    <glyph glyph-name="E" unicode="E" horiz-adv-x="538" 
d="M172 630h418l-39 -137h-19q15 57 4.5 83t-58.5 26h-91q-51 0 -72 -16t-36 -67l-61 -186h80q53 0 83 10t42.5 26t26.5 51h16l-67 -201h-16q7 27 8 41t-9 25t-32.5 14.5t-63.5 3.5h-78l-65 -199q-8 -28 -9.5 -42.5t7.5 -22.5t21.5 -9.5t41.5 -1.5h72q52 0 90 26.5t87 93.5
h19l-87 -148h-418l4 16q23 5 34.5 8.5t26 12t24 24t17.5 39.5l139 428q8 24 8.5 40t-7 25t-17.5 13t-29 7z" />
    <glyph glyph-name="F" unicode="F" horiz-adv-x="495" 
d="M170 630h409l-39 -137h-19q15 57 4.5 83t-56.5 26h-82q-51 0 -70.5 -15.5t-35.5 -67.5l-61 -186h58q53 0 83 10t42.5 26t26.5 51h16l-67 -201h-16q7 27 8 41t-9 25t-32.5 14.5t-63.5 3.5h-56l-62 -191q-13 -32 -8 -52.5t17.5 -29t36.5 -14.5l-5 -16h-226l8 16
q31 6 45.5 11.5t30 23t26.5 49.5l135 418q14 51 3 69.5t-49 24.5z" />
    <glyph glyph-name="G" unicode="G" horiz-adv-x="654" 
d="M298 -13q-118 0 -175.5 57t-53.5 156q4 114 66 216.5t165 165.5t218 63q57 0 98 -15.5t59 -38.5q-29 -76 -40 -131h-22q13 79 -23.5 116.5t-99.5 37.5q-88 0 -167 -62.5t-125 -154.5t-50 -183q-3 -89 43 -144t131 -55q54 0 80.5 24.5t46.5 82.5l20 56q22 70 10.5 86.5
t-73.5 21.5l6 22h231l-8 -22q-33 -5 -54 -21.5t-35 -53.5l-21 -62q-15 -40 -22 -75.5t-9 -40.5q-24 -18 -79.5 -32t-116.5 -14z" />
    <glyph glyph-name="H" unicode="H" horiz-adv-x="658" 
d="M139 102q-15 -46 -2 -61.5t51 -24.5l-3 -16h-216l5 17q44 8 63.5 22t34.5 61l139 428q8 24 8.5 40t-7.5 25t-18 13t-28 7l5 17h215l-5 -18q-23 -4 -35.5 -7t-26.5 -11.5t-23 -23.5t-17 -40l-65 -199h294l-2 -29h-302zM540 630h215l-5 -18q-45 -7 -65.5 -21t-35.5 -61
l-141 -428q-6 -20 -6.5 -34t2.5 -22.5t12.5 -14.5t17.5 -8.5t23 -6.5l-2 -16h-217l5 17q44 8 64 22t35 61l138 428q8 24 8.5 40t-7.5 25t-17.5 12.5t-27.5 7.5z" />
    <glyph glyph-name="I" unicode="I" horiz-adv-x="289" 
d="M-31 0l5 17q44 8 63.5 22t34.5 61l139 428q8 24 8.5 40t-7.5 25t-18 13t-28 7l5 17h215l-5 -18q-23 -4 -35.5 -7t-26.5 -11.5t-23 -23.5t-17 -40l-140 -428q-15 -46 -2 -61.5t51 -24.5l-3 -16h-216z" />
    <glyph glyph-name="J" unicode="J" horiz-adv-x="294" 
d="M-107 -181l6 20q70 23 97 55.5t54 115.5l168 518q8 25 8.5 40t-8.5 24t-20.5 13t-35.5 8l5 17h235l-5 -18q-27 -5 -38.5 -8t-28 -11.5t-26.5 -23.5t-18 -39l-173 -537q-28 -85 -87.5 -126t-132.5 -48z" />
    <glyph glyph-name="K" unicode="K" horiz-adv-x="628" 
d="M516 630h190l-7 -17q-27 0 -50 -8t-35.5 -16.5t-35.5 -26.5l-231 -188l136 -317q17 -39 77 -41l-4 -16h-154q14 33 -11 95l-100 233l-106 -87l-46 -139q-15 -46 -2 -61.5t51 -24.5l-3 -16h-216l5 17q44 8 63.5 22t34.5 61l139 428q8 24 8.5 40t-7.5 25t-18 13t-28 7l5 17
h215l-5 -18q-23 -4 -35.5 -7t-26.5 -11.5t-23 -23.5t-17 -40l-77 -236l334 270q25 20 18 34.5t-42 16.5z" />
    <glyph glyph-name="L" unicode="L" horiz-adv-x="516" 
d="M-33 0l4 16q23 5 34.5 8.5t26 12t24 24t17.5 39.5l137 428q8 24 8.5 40t-7 25t-17.5 13t-29 7l5 17h233l-5 -18q-25 -4 -37 -7t-31 -11.5t-30.5 -24t-19.5 -39.5l-137 -428q-14 -51 -2.5 -63t63.5 -12h75q51 0 89 29t88 100l19 -5l-88 -151h-420z" />
    <glyph glyph-name="M" unicode="M" horiz-adv-x="775" 
d="M630 102q-12 -32 -6.5 -50t16 -23.5t36.5 -10.5l-7 -18h-218l7 18q25 5 35.5 8t26 11.5t24 23.5t15.5 39l134 466l-378 -566h-27l-33 508l-148 -406q-16 -46 -2 -61.5t56 -22.5l-5 -18h-190l7 18q31 6 45 11t30 22t28 49l159 428q7 20 8 34t-1.5 22t-13 13.5t-18.5 8
t-25 6.5l5 18h131q-3 -27 4 -80l30 -448l301 451q32 44 49 77h150l-5 -18q-52 -12 -66 -24q-21 -17 -33 -58z" />
    <glyph glyph-name="N" unicode="N" horiz-adv-x="625" 
d="M545 630h190l-6 -17q-32 -6 -47 -11t-31 -22.5t-27 -49.5l-147 -453l1 -3l-2 1l-24 -75h-23l-180 534l-142 -432q-6 -20 -7 -34t2 -22t13 -14t19 -9t26 -7l-3 -16h-191l5 17q24 5 35.5 8t26.5 11.5t24.5 24t17.5 39.5l139 428q15 46 2 62t-52 23l6 17h116l175 -508
l132 406q6 20 7 34t-2 22t-13 14t-19 9t-26 7z" />
    <glyph glyph-name="O" unicode="O" horiz-adv-x="672" 
d="M258 -13q-92 0 -139 56.5t-47 152.5q0 113 56.5 217t151.5 168t200 64q91 0 138.5 -56.5t47.5 -151.5q0 -112 -56.5 -216.5t-151.5 -169t-200 -64.5zM288 16q78 0 148.5 63.5t110.5 158t40 187.5q0 89 -36.5 140t-101.5 51q-78 0 -148.5 -63.5t-110 -157.5t-39.5 -188
q0 -89 36 -140t101 -51z" />
    <glyph glyph-name="P" unicode="P" horiz-adv-x="549" 
d="M-33 0l4 16q23 5 34.5 8.5t26 12t24 24t17.5 39.5l137 428q8 24 8.5 40t-7 25t-17.5 13t-29 7l5 17h200q104 0 158.5 -32t54.5 -107q0 -73 -49.5 -129.5t-129.5 -85.5t-174 -29q-6 0 -7 7.5t2 15.5t7 8q118 0 195.5 61t77.5 155q0 108 -128 108q-45 0 -64 -14t-28 -42
l-144 -444q-15 -46 -1 -61.5t59 -24.5l-5 -16h-227z" />
    <glyph glyph-name="Q" unicode="Q" horiz-adv-x="640" 
d="M459 -125q35 0 89 27l10 -17q-84 -60 -141 -60q-45 0 -86 43l-101 105q-13 13 -29 21q-64 16 -96.5 69t-32.5 133q0 113 56.5 217t151.5 168t200 64q91 0 138.5 -56.5t47.5 -151.5q0 -158 -106 -290.5t-251 -155.5q13 -9 26 -23l48 -55q36 -38 76 -38zM449 616
q-78 0 -148.5 -63.5t-110 -157.5t-39.5 -188q0 -89 36 -140t101 -51q78 0 148.5 63.5t110.5 158t40 187.5q0 89 -36.5 140t-101.5 51z" />
    <glyph glyph-name="R" unicode="R" horiz-adv-x="575" 
d="M572 502q0 -90 -69.5 -146t-182.5 -70q55 -13 70 -71l26 -103q14 -52 35 -78t58 -14l-11 -23q-23 -13 -54 -13q-42 0 -63 25t-36 83l-33 125q-10 36 -35 49.5t-77 15.5l-57 -180q-7 -20 -7.5 -34t2.5 -22.5t13 -14.5t20 -9t28 -6l-5 -16h-227l4 16q23 5 34.5 8.5t26 12
t24 24t17.5 39.5l137 428q8 24 8.5 40t-7 25t-17.5 13t-29 7l5 17h211q191 0 191 -128zM283 312q91 0 153.5 57t62.5 135q0 98 -125 98q-41 0 -60 -13.5t-28 -39.5l-76 -237h73z" />
    <glyph glyph-name="S" unicode="S" horiz-adv-x="473" 
d="M167 -11q-91 0 -156 65l34 124h17q-8 -73 20.5 -116.5t91.5 -43.5q69 0 118 45.5t49 107.5q0 44 -25.5 77t-74.5 71q-29 23 -44.5 38t-31 44t-15.5 61q0 77 65.5 130t155.5 53q98 0 144 -59l-38 -125h-18q9 70 -15 112.5t-83 42.5t-102 -38t-43 -90q0 -36 23 -65.5
t71 -69.5q105 -83 105 -167q0 -81 -74 -139t-174 -58z" />
    <glyph glyph-name="T" unicode="T" horiz-adv-x="571" 
d="M611 630l46 10l-50 -172h-14q12 77 -3 107t-85 30h-55l-163 -503q-16 -47 0 -62.5t72 -23.5l-3 -16h-261l4 17q56 8 79 22t38 61l166 505h-63q-70 0 -105.5 -33t-71.5 -109h-16l64 177l39 -10h382z" />
    <glyph glyph-name="U" unicode="U" 
d="M259 -11q-31 0 -57.5 6.5t-51.5 24.5t-38 46.5t-12 76.5t21 110l90 275q8 24 8.5 40t-7.5 25t-18 13t-28 7l5 17h215l-5 -18q-45 -7 -65.5 -21t-35.5 -61l-95 -294q-17 -64 -17.5 -104t19 -62.5t42.5 -31t53 -8.5q69 0 132 47t98 151l98 300q8 25 8.5 40.5t-8 24.5
t-19.5 13t-32 7l5 17h190l-5 -18q-25 -5 -36 -8t-26.5 -11.5t-25 -23.5t-17.5 -39l-95 -292q-23 -70 -58 -120.5t-75 -77.5t-78.5 -39t-78.5 -12z" />
    <glyph glyph-name="V" unicode="V" horiz-adv-x="656" 
d="M602 630h161l-3 -16q-39 -9 -56 -19.5t-39 -38.5l-394 -563h-30l-34 550q-2 36 -13 50.5t-43 21.5l5 15h207l-3 -15q-43 -9 -62 -22t-18 -45l25 -462l323 468q11 17 14 27.5t-5 17t-14 9t-25 7.5z" />
    <glyph glyph-name="W" unicode="W" horiz-adv-x="921" 
d="M214 -8l-9 544q-2 46 -11 59t-43 20l5 15h205l-4 -15q-28 -8 -42 -13.5t-26.5 -19.5t-12.5 -35l5 -442l232 362q30 44 28.5 90t-43.5 58l3 15h120q-17 -54 -15 -144l5 -383l276 431q15 24 18.5 38.5t-7.5 23t-24 11.5t-42 8l3 15h194l-4 -15q-39 -8 -56.5 -21t-45.5 -55
l-355 -547h-26l-5 464l-297 -464h-26z" />
    <glyph glyph-name="X" unicode="X" horiz-adv-x="654" 
d="M568 630h169l-2 -16q-49 -9 -73 -21t-62 -51l-200 -206l70 -251q11 -36 29.5 -49t64.5 -21l-8 -15h-231l6 16q14 3 21 5t16.5 5.5t13.5 8t7.5 11t3 16t-4.5 21.5l-56 203l-193 -205q-17 -19 -23.5 -30t-0.5 -18t14.5 -10t30.5 -8l-8 -15h-186l5 16q54 9 74.5 19t59.5 50
l220 225l-64 229q-12 41 -28.5 54.5t-59.5 21.5l5 15h235l-3 -15q-50 -8 -64.5 -22t-2.5 -53l49 -177l177 187q14 14 21.5 24l12 16t0 10t-6 5.5t-14 5t-16.5 4.5z" />
    <glyph glyph-name="Y" unicode="Y" horiz-adv-x="584" 
d="M536 630h175l-2 -15q-41 -7 -57.5 -18t-51.5 -50l-248 -281l-52 -166q-16 -46 0 -61t72 -23l-3 -16h-262l3 17q57 8 80.5 22t38.5 60l54 164l-68 282q-9 37 -21 49.5t-47 20.5l4 15h209l-3 -15q-37 -8 -56.5 -24t-13.5 -44l62 -249l219 251q8 9 12 17l6.5 13t-0.5 10
t-4 7.5t-9 6t-11 4.5t-15 4t-15 4z" />
    <glyph glyph-name="Z" unicode="Z" horiz-adv-x="549" 
d="M-13 0l-6 15l550 594l-202 -4q-64 -1 -97.5 -32t-64.5 -104h-18l52 167l47 -6h393l-563 -609l226 8q62 2 96.5 33.5t75.5 105.5h20q-47 -94 -75 -168h-434z" />
    <glyph glyph-name="bracketleft" unicode="[" horiz-adv-x="219" 
d="M73 -166l-146 5l300 915l146 5l-3 -15l-91 -12l-284 -871l83 -12z" />
    <glyph glyph-name="backslash" unicode="\" horiz-adv-x="461" 
d="M360 -69l-31 -14l-211 816l33 14z" />
    <glyph glyph-name="bracketright" unicode="]" horiz-adv-x="214" 
d="M186 759l146 -5l-300 -915l-146 -5l3 15l91 12l284 871l-83 12z" />
    <glyph glyph-name="asciicircum" unicode="^" horiz-adv-x="446" 
d="M115 369l-12 9l174 268l174 -267l-12 -10l-162 204z" />
    <glyph glyph-name="underscore" unicode="_" horiz-adv-x="603" 
d="M49 -47l2 27h504l-3 -27h-503z" />
    <glyph glyph-name="grave" unicode="`" horiz-adv-x="180" 
d="M259 516q-5 5 -22.5 25.5t-24.5 27.5t-20.5 21.5t-24.5 24t-23 17.5q6 12 26 26.5t35 14.5q34 -48 69 -145z" />
    <glyph glyph-name="a" unicode="a" horiz-adv-x="444" 
d="M300 103q-17 -49 -2 -45q23 7 87 99l14 -15q-94 -152 -145 -152q-17 0 -27.5 15.5t-1.5 38.5l41 115q-155 -169 -196 -169q-19 0 -36 25t-17 76q0 85 47.5 166.5t120 131.5t143.5 50q55 0 89 -9zM116 54q21 0 162 139l69 194q-31 20 -67 20q-69 0 -137.5 -94.5
t-68.5 -179.5q0 -79 42 -79z" />
    <glyph glyph-name="b" unicode="b" horiz-adv-x="453" 
d="M366 439q78 0 78 -99q0 -74 -43.5 -156t-113 -137.5t-136.5 -55.5q-57 0 -85.5 39.5t-10.5 93.5l147 431q13 38 -2.5 50.5t-62.5 12.5l6 18l136 23l10 -15l-121 -350q104 145 198 145zM159 14q50 0 102.5 56t84.5 131.5t32 134.5q0 56 -48 56q-47 0 -96.5 -45t-88.5 -119
l-36 -106q-15 -41 -1 -74.5t51 -33.5z" />
    <glyph glyph-name="c" unicode="c" horiz-adv-x="372" 
d="M281 439q41 0 63 -21.5t22 -56.5q0 -26 -12 -43t-33 -17q-34 0 -34 52q5 65 -21 65q-46 0 -89 -50t-67 -115.5t-24 -117.5q0 -42 18.5 -68.5t55.5 -26.5q34 0 72.5 22t63.5 56l8 -16q-29 -55 -81.5 -83.5t-98.5 -28.5q-48 0 -76.5 34.5t-28.5 95.5q0 111 83 215t179 104z
" />
    <glyph glyph-name="d" unicode="d" horiz-adv-x="456" 
d="M319 103q-18 -49 -2 -44q21 6 88 98l11 -15q-91 -152 -144 -152q-14 0 -26 13.5t-5 36.5l52 150q-36 -40 -57 -63t-59 -61t-65.5 -57t-43.5 -19q-19 0 -36 25t-17 76q0 85 47.5 166.5t122 131.5t150.5 50q21 0 43 -8l43 124q13 38 -3 50.5t-63 12.5l6 18l140 23l10 -15z
M114 57q26 0 191 168l53 151q-29 31 -80 31q-46 0 -95 -45.5t-80 -110t-31 -118.5q0 -76 42 -76z" />
    <glyph glyph-name="e" unicode="e" horiz-adv-x="367" 
d="M354 370q0 -127 -272 -189q-4 -17 -4 -39q0 -42 21 -72t55 -30q30 0 69 20.5t61 52.5l9 -14q-30 -52 -82.5 -80t-97.5 -28q-47 0 -72.5 31.5t-25.5 87.5q0 74 39.5 151t102.5 127.5t126 50.5q37 0 54 -20t17 -49zM253 413q-42 0 -94 -66.5t-72 -143.5q34 8 52.5 13
t51.5 19t51 28.5t32.5 40.5t14.5 57q0 52 -36 52z" />
    <glyph glyph-name="f" unicode="f" horiz-adv-x="370" 
d="M424 698q44 0 64 -17.5t20 -40.5q0 -18 -12 -29.5t-28 -11.5q-34 0 -34 45q0 16 -6.5 23.5t-25.5 7.5q-38 0 -67.5 -34.5t-53.5 -118.5l-26 -92h110l-12 -35l-106 6l-91 -318q-39 -136 -94 -202.5t-132 -66.5q-43 0 -64.5 19t-21.5 42q0 17 11 27.5t28 10.5
q20 0 28.5 -15t7.5 -29q-2 -32 31 -32q40 0 67 34t51 119l119 414l-99 6l5 20h101q39 136 95 202t135 66z" />
    <glyph glyph-name="g" unicode="g" horiz-adv-x="443" 
d="M462 414l-10 -41l-80 21q12 -21 12 -50q0 -73 -63 -130t-138 -57q-20 0 -33 4q-18 -8 -30 -20.5t-12 -20.5q0 -18 28 -28l85 -38q34 -15 45 -20.5t28 -16.5t22 -22.5t5 -28.5q0 -68 -79.5 -111t-172.5 -43q-70 0 -104.5 27.5t-32.5 69.5q1 13 10.5 27t31 31t34 26.5
t43.5 29t36 23.5q-49 21 -49 50q0 19 26.5 39.5t60.5 35.5q-40 26 -40 85q0 74 61 128t138 54q38 0 64 -17q23 -7 114 -7zM196 176q51 0 87 55.5t36 119.5q0 69 -50 69q-49 0 -86 -60.5t-37 -121.5q0 -62 50 -62zM171 12l-55 22q-117 -86 -119 -135q-2 -29 19.5 -47
t66.5 -18q64 0 116.5 29t52.5 75q0 26 -20 42t-61 32z" />
    <glyph glyph-name="h" unicode="h" horiz-adv-x="463" 
d="M407 439q29 0 42 -18t10 -60q-3 -64 -41.5 -152.5t-91 -153t-91.5 -64.5q-15 0 -31.5 12t-16.5 34q0 17 8.5 26t19.5 9q17 0 26 -12.5t13 -25.5t9 -13q33 0 79.5 120.5t50.5 178.5q3 67 -37 67q-59 0 -147.5 -121.5t-137.5 -265.5h-57l188 555q13 38 -2.5 50.5
t-62.5 12.5l6 18l139 23l10 -15l-125 -366l-18 -62l8 1q60 119 127 170.5t123 51.5z" />
    <glyph glyph-name="i" unicode="i" horiz-adv-x="253" 
d="M231 588q-17 0 -29.5 11.5t-12.5 28.5q0 16 12.5 28.5t29.5 12.5q16 0 28.5 -12.5t12.5 -28.5q0 -17 -12.5 -28.5t-28.5 -11.5zM195 155l13 -15q-91 -150 -143 -150q-18 0 -30.5 15.5t-2.5 38.5l109 280q21 51 4 47q-22 -4 -90 -99l-11 15q92 150 146 150q20 0 30 -15
t1 -39l-112 -280q-21 -51 -3 -47q25 6 89 99z" />
    <glyph glyph-name="j" unicode="j" horiz-adv-x="242" 
d="M253 588q-16 0 -28.5 11.5t-12.5 28.5q0 16 12.5 28.5t28.5 12.5q17 0 29.5 -12.5t12.5 -28.5q0 -17 -12.5 -28.5t-29.5 -11.5zM208 435q16 0 24.5 -14.5t2.5 -35.5l-96 -307q-16 -50 -28 -81t-30.5 -67.5t-37 -56.5t-45 -34t-57.5 -14q-42 0 -64 20t-22 49q0 23 13 34.5
t30 11.5q20 0 29.5 -17.5t4.5 -43.5q-6 -32 23 -32q31 0 50.5 32.5t48.5 120.5l106 322q24 74 -15 36q-23 -23 -70 -88l-12 15q46 74 84 112t61 38z" />
    <glyph glyph-name="k" unicode="k" horiz-adv-x="450" 
d="M15 0l187 555q13 38 -2.5 50.5t-62.5 12.5l6 18l139 23l10 -15l-220 -644h-57zM492 413q-72 -8 -169 -82l-93 -70l60 -199q10 -33 39 -34t55 26l3 -19q-45 -45 -77 -45q-30 0 -50 22t-29 52l-54 187l111 77q77 54 48 76q-9 7 -31 9l8 17h188z" />
    <glyph glyph-name="l" unicode="l" horiz-adv-x="238" 
d="M102 103q-18 -49 -2 -44q20 5 88 98l10 -15q-89 -152 -143 -152q-15 0 -26.5 13.5t-4.5 36.5l180 515q13 38 -3.5 50.5t-63.5 12.5l7 18l140 23l10 -15z" />
    <glyph glyph-name="m" unicode="m" horiz-adv-x="714" 
d="M659 157l10 -15q-92 -152 -145 -152q-16 0 -25 13.5t0 36.5l86 231q11 30 15.5 46t7 33t-3.5 24t-20 7q-46 0 -128 -118t-140 -263h-57l100 278q10 28 14 45t4.5 31.5t-6.5 20.5t-21 6q-46 0 -128 -118t-140 -263h-57l116 324q18 50 2 46q-21 -6 -88 -98l-11 15
q92 150 150 150q15 0 21 -12.5t-2 -37.5l-77 -197h13q145 247 245 247q45 0 47 -49t-36 -125l-35 -73h13q145 247 243 247q23 0 34 -12.5t9.5 -38t-10 -55.5t-25.5 -72l-60 -156q-18 -49 -2 -44q21 7 87 98z" />
    <glyph glyph-name="n" unicode="n" horiz-adv-x="480" 
d="M425 157l10 -15q-92 -152 -145 -152q-16 0 -25 13.5t0 36.5l86 231q11 30 15.5 46t7 33t-3.5 24t-20 7q-46 0 -128 -118t-140 -263h-57l116 324q18 50 2 46q-21 -6 -88 -98l-11 15q92 150 150 150q15 0 21 -12.5t-2 -37.5l-77 -197h13q145 247 243 247q24 0 35 -12.5
t9 -38t-10.5 -55t-25.5 -72.5l-60 -156q-18 -49 -2 -44q21 7 87 98z" />
    <glyph glyph-name="o" unicode="o" horiz-adv-x="422" 
d="M122 -10q-104 0 -104 121q0 124 91.5 226t194.5 102q46 0 73.5 -29t27.5 -91q0 -80 -42.5 -157t-108.5 -124.5t-132 -47.5zM153 20q46 0 91 49t71 116.5t26 125.5q0 46 -19 72t-55 26q-50 0 -94 -51t-66.5 -116.5t-22.5 -119.5q0 -41 17.5 -71.5t51.5 -30.5z" />
    <glyph glyph-name="p" unicode="p" horiz-adv-x="451" 
d="M89 -22l-28 -78q-8 -24 -8 -29q0 -8 3.5 -13t15.5 -8t19.5 -4t30.5 -4l-4 -17h-200l3 17q38 6 54.5 16.5t28.5 43.5l173 479q-70 -30 -120 -80l-7 19q67 70 141 100l41 114l57 9l-37 -104q21 4 44 4q53 0 95.5 -31.5t42.5 -98.5q0 -111 -101.5 -212.5t-243.5 -122.5z
M267 402q-14 0 -29 -3l-141 -399q112 18 190 106.5t78 186.5q0 51 -27 80t-71 29z" />
    <glyph glyph-name="q" unicode="q" horiz-adv-x="409" 
d="M229 -100q-13 -36 -0.5 -45t59.5 -13l-2 -17h-199l4 17q37 6 53 16t29 44l91 255q-155 -167 -196 -167q-19 0 -36 25t-17 76q0 85 47.5 166.5t122 131.5t150.5 50q23 0 44 -9h38zM114 57q22 0 164 140l67 189q-29 21 -67 21q-46 0 -95 -45.5t-80 -110t-31 -118.5
q0 -76 42 -76z" />
    <glyph glyph-name="r" unicode="r" horiz-adv-x="382" 
d="M368 437q38 0 38 -40q0 -31 -21 -54t-50 -23q-16 0 -18 10.5t4.5 22.5t7.5 22.5t-10 10.5q-35 0 -107.5 -120.5t-128.5 -267.5q-29 -3 -57 0l116 326q6 15 8 25.5t0.5 15t-5.5 4.5q-17 0 -90 -97l-11 15q92 150 144 150q18 0 25.5 -12.5t-1.5 -37.5l-76 -199h13
q58 130 116 189.5t103 59.5z" />
    <glyph glyph-name="s" unicode="s" horiz-adv-x="314" 
d="M316 377q0 -74 -111 -151q34 -52 34 -95q0 -62 -46 -101.5t-108 -39.5q-50 0 -72 23t-22 53q0 35 26 56l15 -3q2 -33 29 -64.5t62 -31.5q27 0 47.5 18.5t20.5 50.5q0 34 -25 71t-50 75t-25 73q0 52 43.5 90t101.5 38q33 0 56.5 -14.5t23.5 -47.5zM138 345q0 -10 3 -20.5
t10.5 -22.5t13 -20.5t17.5 -24t17 -23.5q63 69 63 125q0 24 -12.5 38.5t-35.5 14.5q-25 0 -50.5 -18t-25.5 -49z" />
    <glyph glyph-name="t" unicode="t" horiz-adv-x="284" 
d="M218 400l-126 -332q-4 -11 7 -8q30 8 100 76l34 35l6 -17q-140 -163 -187 -163q-18 0 -25.5 18.5t1.5 44.5l130 351l-77 5l5 20h82l39 105l65 8l-43 -113h80l-13 -35z" />
    <glyph glyph-name="u" unicode="u" horiz-adv-x="479" 
d="M58 271l-14 15q93 151 148 151q17 0 26 -13t1 -34l-88 -233q-11 -29 -16.5 -47.5t-7.5 -34t4 -22.5t20 -7q48 0 131.5 118t138.5 270h58l-121 -331q-18 -50 -2 -45q20 5 88 98l10 -15q-93 -151 -143 -151q-16 0 -28 14t-3 36l76 199l-7 -1q-147 -248 -240 -248
q-86 0 -10 181l62 152q19 48 2 44q-22 -6 -85 -96z" />
    <glyph glyph-name="v" unicode="v" horiz-adv-x="422" 
d="M83 -10q-31 0 -38.5 17t-1.5 32l104 280q22 57 1 52q-26 -6 -93 -99l-11 15q92 150 149 150q26 0 34 -19.5t-3 -46.5l-115 -318q-6 -17 -1 -21.5t19 -4.5q42 0 101.5 59t103 137.5t43.5 129.5q0 67 -65 38l-4 11q20 13 39.5 22t43 15t37.5 -6t14 -43q0 -60 -60.5 -155.5
t-147 -170t-149.5 -74.5z" />
    <glyph glyph-name="w" unicode="w" 
d="M531 402q20 13 39.5 22t43 15t37.5 -6t14 -43q0 -60 -60.5 -155.5t-147.5 -170t-150 -74.5q-22 0 -32.5 10t-9.5 20.5t2 18.5l35 95q-56 -64 -114.5 -104t-104.5 -40q-31 0 -38.5 17t-1.5 32l104 280q22 57 1 52q-26 -6 -93 -99l-11 15q92 150 149 150q26 0 34 -19.5
t-3 -46.5l-115 -318q-6 -17 -1 -21.5t19 -4.5q52 0 126 85.5t106 173.5l1 2l12 31q21 57 1 52q-26 -6 -93 -99l-11 15q92 150 149 150q26 0 34 -19.5t-3 -46.5l-115 -318q-6 -17 -1 -21.5t19 -4.5q42 0 101.5 59.5t102.5 137.5t43 129q0 67 -64 38z" />
    <glyph glyph-name="x" unicode="x" horiz-adv-x="443" 
d="M428 437q39 0 39 -40q0 -30 -21 -53.5t-50 -23.5q-16 0 -18 10.5t4.5 22.5t7.5 22.5t-10 10.5q-21 0 -56 -44t-74 -116l23 -115q11 -55 21 -56q10 0 35 35q6 9 21 30l27 38l12 -15q-14 -23 -33 -54.5t-27 -44t-19.5 -27.5t-20 -19.5t-18.5 -4.5q-18 0 -27.5 15.5
t-16.5 50.5l-23 112q-52 -93 -99.5 -135.5t-84.5 -42.5q-38 0 -38 40q0 31 21 54t50 23q16 0 18 -10.5t-4.5 -22.5t-7.5 -22.5t10 -10.5q20 0 54.5 43t74.5 115l-24 117q-12 58 -22 56.5t-51 -59.5q-6 -9 -9.5 -14t-9.5 -13.5t-12 -16.5l-11 15q15 23 33.5 54t26.5 44t19 28
t19.5 19.5t18.5 4.5q18 0 28 -16t17 -50l23 -113q51 93 99 136t85 43z" />
    <glyph glyph-name="y" unicode="y" horiz-adv-x="429" 
d="M309 402q20 13 39.5 22t43 15t37.5 -6t14 -43q0 -56 -56 -154t-132.5 -189.5t-162.5 -159.5t-141 -68q-24 0 -43.5 13.5t-19.5 34.5q0 17 12.5 29t28.5 12q19 0 36.5 -23t34.5 -23q51 0 141 87l9 370q2 55 -7 56q-8 1 -34 -34q-9 -13 -34 -47q-10 -14 -16 -22l-12 15
q50 80 82 115t58 35q23 0 22 -59v-7l-8 -360q75 86 126 180t51 162q0 29 -14 40t-50 -2z" />
    <glyph glyph-name="z" unicode="z" horiz-adv-x="392" 
d="M240 47q22 0 38 18t41 67h18l-50 -140q-47 -5 -119.5 13.5t-105.5 18.5q-48 0 -83 -24l-9 11l351 337q-53 -1 -102 17t-67 18q-21 0 -37 -18t-42 -67h-18l51 140q47 5 119.5 -13.5t105.5 -18.5q48 0 83 24l8 -11l-351 -337q54 1 102.5 -17t66.5 -18z" />
    <glyph glyph-name="braceleft" unicode="{" horiz-adv-x="251" 
d="M93 -159q-36 17 -48.5 50.5t-7 69t22.5 86.5l49 155q4 10 6 19t1 16t-1 12t-4.5 10t-6.5 7.5t-9 6.5t-10 5.5t-12 5.5t-12 6l6 12q31 11 46.5 19t32.5 27t26 49l52 155q25 77 62.5 127t106.5 75v-16q-49 -20 -82 -103q-10 -24 -28 -80l-4 -11l-42 -130q-10 -32 -24.5 -54
t-34.5 -34t-34.5 -17t-39.5 -11l1 -5q19 -5 31 -11.5t23 -21t9 -36t-10 -55.5l-43 -130q-19 -59 -26.5 -89t-5 -59t22.5 -40z" />
    <glyph glyph-name="bar" unicode="|" horiz-adv-x="302" 
d="M144 -175v821h28v-821h-28z" />
    <glyph glyph-name="braceright" unicode="}" horiz-adv-x="252" 
d="M213 754q36 -17 48.5 -50.5t7 -69t-22.5 -86.5l-49 -155q-4 -10 -6 -19t-1 -16t1 -12t4.5 -10t6.5 -7.5t9 -6.5t10 -5.5t12 -5.5t12 -6l-6 -12q-31 -11 -46.5 -19t-32.5 -27t-26 -49l-52 -155q-25 -78 -62 -127.5t-107 -74.5v16q21 8 36.5 23t29.5 43.5t21 48t22 64.5
q3 10 5 15l42 130q10 32 24.5 54t34.5 34t34.5 17t39.5 11l-1 5q-19 5 -31 11.5t-23 21t-9 36t10 55.5l43 130q19 59 26.5 89t5 59t-22.5 40z" />
    <glyph glyph-name="asciitilde" unicode="~" horiz-adv-x="426" 
d="M269 196q-26 0 -44 10.5t-25.5 23.5t-21 23.5t-31.5 10.5q-27 0 -45.5 -14.5t-24.5 -32.5l-13 9q4 37 39.5 63.5t81.5 26.5q26 0 43.5 -11t24.5 -23.5t21 -23.5t34 -11q27 0 45 14.5t23 32.5l13 -8q-4 -37 -39.5 -63.5t-80.5 -26.5z" />
    <glyph glyph-name="exclamdown" unicode="&#xa1;" horiz-adv-x="205" 
d="M163 455q21 0 36 -14t15 -35t-15 -35t-36 -14t-36.5 14t-15.5 35t15.5 35t36.5 14zM142 275l-107 -427q-8 -32 -20.5 -44t-32.5 -12q-47 0 -23 61l170 422h13z" />
    <glyph glyph-name="cent" unicode="&#xa2;" horiz-adv-x="372" 
d="M311 435q55 -14 55 -74q0 -26 -12 -43t-33 -17q-34 0 -34 52q2 26 0 41l-184 -326q20 -28 57 -28q34 0 72.5 22t63.5 56l8 -16q-29 -55 -81.5 -83.5t-98.5 -28.5q-34 0 -56 16l-38 -67h-28l47 83q-30 36 -30 98q0 111 83 215t179 104h5l45 80h27zM86 135q0 -19 5 -39
l182 321q-2 1 -7 1q-46 0 -89 -50t-67 -115.5t-24 -117.5z" />
    <glyph glyph-name="sterling" unicode="&#xa3;" horiz-adv-x="528" 
d="M475 637q80 0 82 -53q-16 -35 -52 -48q2 27 -20 44t-56 17q-41 0 -75.5 -34t-63.5 -123l-36 -111h172l-12 -30h-170l-12 -37q-19 -59 -46 -97.5t-66 -70.5q31 12 55 12q37 0 86 -41.5t79 -41.5q23 0 37 22.5t14 51.5q0 19 -4 30l69 42q8 -11 8 -25q0 -66 -65.5 -117
t-127.5 -51q-26 0 -48.5 12.5t-36 28t-34.5 28t-45 12.5q-54 0 -118 -64l-16 19q149 119 190 249l12 38h-85l12 30h83l19 57q40 123 113.5 187t157.5 64z" />
    <glyph glyph-name="currency" unicode="&#xa4;" horiz-adv-x="636" 
d="M527 228q0 -81 -54 -140l55 -54l-15 -15l-54 54q-59 -54 -139 -54q-79 0 -137 53l-53 -53l-15 15l53 53q-53 59 -53 141q0 79 52 139l-52 51l15 16l52 -52q57 54 138 54q80 0 140 -55l53 53l15 -16l-53 -52q52 -60 52 -138zM321 45q73 0 126 54t53 129t-52.5 128
t-126.5 53t-126 -53t-52 -128t52 -129t126 -54z" />
    <glyph glyph-name="yen" unicode="&#xa5;" horiz-adv-x="584" 
d="M536 630h175l-2 -15q-41 -7 -57.5 -18t-51.5 -50l-228 -259h111l-10 -28h-122l-19 -59h124l-11 -28h-122l-23 -73q-16 -46 0 -61t72 -23l-3 -16h-262l3 17q57 8 80.5 22t38.5 60l25 74h-156l10 28h155l19 59h-157l11 28h141l-62 257q-9 37 -21 49.5t-47 20.5l4 15h209
l-3 -15q-37 -8 -56.5 -24t-13.5 -44l62 -249l219 251q8 9 12 17l6.5 13t-0.5 10t-4 7.5t-9 6t-11 4.5t-15 4t-15 4z" />
    <glyph glyph-name="brokenbar" unicode="&#xa6;" horiz-adv-x="302" 
d="M144 315v331h28v-331h-28zM144 -175v331h28v-331h-28z" />
    <glyph glyph-name="section" unicode="&#xa7;" horiz-adv-x="485" 
d="M391 646q39 0 69 -11.5t36.5 -17.5t25.5 -25l-26 -91h-17q0 48 -25.5 84t-75.5 36q-52 0 -92 -33t-40 -73q0 -32 23 -57t72 -55q31 -19 50 -33t39.5 -45.5t20.5 -66.5q0 -63 -48 -110t-122 -65q58 -44 58 -99q0 -70 -63.5 -117t-154.5 -47q-40 0 -72.5 11t-43 19
t-27.5 23l32 96h13q0 -52 28 -87.5t85 -35.5q55 0 94 27.5t39 73.5q0 33 -23.5 58.5t-73.5 58.5q-61 40 -82 65q-29 36 -29 79q0 63 48.5 110t122.5 65q-57 43 -57 102q0 67 65 114t151 47zM375 233q0 25 -17.5 49.5t-32.5 35.5t-53 38q-2 1 -5.5 3.5t-5.5 3.5
q-52 -11 -88 -48t-36 -80q0 -26 16 -50t33.5 -37.5t52.5 -35.5q10 -6 15 -10q50 13 85.5 51.5t35.5 79.5z" />
    <glyph glyph-name="dieresis" unicode="&#xa8;" horiz-adv-x="282" 
d="M183 582q-17 0 -28 11t-11 28q0 18 11 29t28 11q18 0 29 -11t11 -29q0 -17 -11 -28t-29 -11zM363 582q-17 0 -28 11t-11 28q0 18 11 29t28 11q18 0 29 -11t11 -29q0 -17 -11 -28t-29 -11z" />
    <glyph glyph-name="copyright" unicode="&#xa9;" horiz-adv-x="725" 
d="M396 25q-121 0 -206.5 85.5t-85.5 206.5q0 120 85.5 205.5t206.5 85.5q120 0 205.5 -85.5t85.5 -205.5q0 -121 -85.5 -206.5t-205.5 -85.5zM396 45q109 0 188.5 81t79.5 191q0 111 -79 191t-189 80t-190 -80t-80 -191q0 -112 80 -192t190 -80zM408 149q-76 0 -125 46.5
t-49 120.5t47 121.5t128 47.5q65 0 103 -24l4 -69h-17q-9 37 -35 56.5t-62 19.5q-56 0 -89.5 -36.5t-33.5 -102.5q0 -69 42.5 -112.5t103.5 -43.5q56 0 83 28l9 -11q-39 -41 -109 -41z" />
    <glyph glyph-name="ordfeminine" unicode="&#xaa;" horiz-adv-x="321" 
d="M297 418q-13 -35 1 -27q15 9 53 62l7 -9q-61 -98 -92 -98q-9 0 -15 10t-2 26l25 70q-99 -106 -125 -106q-14 0 -25 19.5t-9 57.5q4 80 69.5 146.5t138.5 66.5q15 0 25 -6h22zM178 389q17 0 106 93l42 121q-19 11 -43 11q-41 0 -83 -55.5t-48 -109.5q-3 -24 3.5 -42
t22.5 -18zM53 254l6 16h249l-6 -16h-249z" />
    <glyph glyph-name="guillemotleft" unicode="&#xab;" horiz-adv-x="405" 
d="M50 215l180 135l5 -12l-129 -123l50 -122l-10 -12zM203 215l180 135l4 -12l-129 -123l51 -122l-11 -12z" />
    <glyph glyph-name="logicalnot" unicode="&#xac;" horiz-adv-x="494" 
d="M483 359l-70 -216h-37l58 181h-339l11 35h377z" />
    <glyph glyph-name="uni00AD" unicode="&#xad;" horiz-adv-x="393" 
d="M59 241v24h276v-24h-276z" />
    <glyph glyph-name="registered" unicode="&#xae;" horiz-adv-x="725" 
d="M396 25q-121 0 -206.5 85.5t-85.5 206.5q0 120 85.5 205.5t206.5 85.5q120 0 205.5 -85.5t85.5 -205.5q0 -121 -85.5 -206.5t-205.5 -85.5zM396 45q109 0 188.5 81t79.5 191q0 111 -79 191t-189 80t-190 -80t-80 -191q0 -112 80 -192t190 -80zM517 155q-22 0 -37.5 12
t-33.5 39l-40 60q-22 31 -35 36v10q48 0 72 18t24 49q0 32 -24 51t-68 19q-22 0 -29.5 -6t-7.5 -18v-214q0 -16 5.5 -24t12 -9.5t22.5 -3.5v-11h-117v11q16 2 22.5 3.5t12 9.5t5.5 24v208q0 15 -6 23t-11 9t-23 5v11h111q135 0 135 -83q0 -34 -26.5 -55.5t-63.5 -26.5l5 -4
q5 -5 10 -9.5t13.5 -15.5t16.5 -24l18 -31q32 -49 53 -50v-10q-6 -3 -16 -3z" />
    <glyph glyph-name="macron" unicode="&#xaf;" horiz-adv-x="304" 
d="M137 607l15 30h280l-15 -30h-280z" />
    <glyph glyph-name="degree" unicode="&#xb0;" horiz-adv-x="375" 
d="M279 375q-52 0 -90 36t-38 95q0 61 40.5 97.5t94.5 36.5q52 0 90 -36t38 -95q0 -60 -41 -97t-94 -37zM287 396q29 0 53.5 26.5t24.5 79.5q0 52 -25.5 84.5t-61.5 32.5q-30 0 -54 -26.5t-24 -79.5q0 -52 26 -84.5t61 -32.5z" />
    <glyph glyph-name="plusminus" unicode="&#xb1;" horiz-adv-x="463" 
d="M287 370h149l-11 -35h-149l-55 -169h-37l55 169h-152l11 35h152l54 167h37zM15 13l10 35h333l-10 -35h-333z" />
    <glyph glyph-name="uni00B2" unicode="&#xb2;" horiz-adv-x="250" 
d="M98 393l5 14q8 6 48.5 35t61 46t42 43.5t21.5 48.5q0 12 -7.5 23t-24.5 11q-36 0 -76 -45l-3 15q41 61 107 61q25 0 38.5 -14t13.5 -37t-12.5 -45.5t-35 -42t-41.5 -33t-45.5 -29t-33.5 -20.5l62 3q23 0 37.5 8.5t30.5 32.5l10 -5l-40 -70h-158z" />
    <glyph glyph-name="uni00B3" unicode="&#xb3;" horiz-adv-x="239" 
d="M150 384q-21 0 -37 6t-16 18q0 10 6.5 15.5t14.5 5.5t17.5 -15.5t25.5 -15.5q29 0 53.5 25.5t24.5 54.5q0 35 -42 35q-16 0 -35 -7l-1 12l32 12q35 13 53.5 26.5t18.5 35.5q0 21 -29 21q-37 0 -66 -27l-6 8q44 47 98 47q46 0 46 -37q0 -42 -73 -72q52 -4 52 -45
q0 -39 -44 -71t-93 -32z" />
    <glyph glyph-name="acute" unicode="&#xb4;" horiz-adv-x="112" 
d="M124 516l-14 12q35 97 69 145q16 0 35.5 -14.5t24.5 -26.5q-12 -8 -23 -17.5t-24.5 -24t-20.5 -21.5t-24.5 -27.5t-22.5 -25.5z" />
    <glyph glyph-name="paragraph" unicode="&#xb6;" horiz-adv-x="650" 
d="M432 630h318l-8 -18q-27 -5 -38.5 -8t-27 -11.5t-25 -23t-17.5 -39.5l-186 -574q-19 -59 -66 -95t-121 -36h-49l8 26l231 705q8 23 -1.5 33t-40.5 10q-87 0 -156.5 -72t-69.5 -154q0 -105 126 -105q11 0 4 -16q-8 -14 -19 -15q-88 0 -143.5 41t-55.5 113q0 103 104 171
t233 68zM562 556q7 27 1 35.5t-25 8.5q-32 0 -48 -51l-228 -698q31 0 54 19t32.5 39.5t20.5 53.5z" />
    <glyph glyph-name="periodcentered" unicode="&#xb7;" horiz-adv-x="204" 
d="M131 248q-21 0 -36 14t-15 35t15 35t36 14t36.5 -14t15.5 -35t-15.5 -35t-36.5 -14z" />
    <glyph glyph-name="cedilla" unicode="&#xb8;" horiz-adv-x="187" 
d="M-84 -212l5 19q43 0 67 13.5t24 34.5q0 47 -105 47l50 98h37l-29 -55q44 0 70.5 -20t26.5 -53q0 -35 -34 -59.5t-112 -24.5z" />
    <glyph glyph-name="uni00B9" unicode="&#xb9;" horiz-adv-x="198" 
d="M105 398l3 11q35 4 40 25l49 149q4 10 1.5 19t-9.5 7l-17 -3l4 11l80 33l6 -6l-66 -209q-3 -13 1 -18.5t21 -7.5l-3 -11h-110z" />
    <glyph glyph-name="ordmasculine" unicode="&#xba;" horiz-adv-x="327" 
d="M186 345q-30 0 -49 20.5t-19 62.5q0 77 56.5 142t118.5 65q31 0 50 -20t19 -62q0 -75 -56 -141.5t-120 -66.5zM207 365q42 0 75.5 60t33.5 122q0 32 -12 51t-32 19q-31 0 -56 -34t-37 -74.5t-12 -72.5q0 -33 11 -52t29 -19zM53 254l5 16h249l-5 -16h-249z" />
    <glyph glyph-name="guillemotright" unicode="&#xbb;" horiz-adv-x="403" 
d="M203 242l-180 -135l-5 12l129 123l-50 122l10 12zM355 242l-180 -135l-4 12l129 123l-51 122l10 12z" />
    <glyph glyph-name="onequarter" unicode="&#xbc;" horiz-adv-x="535" 
d="M218 409l-3 -11h-110l3 11q35 4 40 25l49 149q4 10 1.5 19t-9.5 7l-17 -3l4 11l80 33l6 -6l-66 -209q-3 -13 1 -18.5t21 -7.5zM573 636h25l-597 -641h-25zM447 246h42l-52 -160h33l-10 -20h-30l-11 -34q-4 -12 1.5 -16t24.5 -6l-3 -10h-112l4 10q21 2 28.5 6t11.5 16
l11 34h-97l3 20zM309 86h83l41 127z" />
    <glyph glyph-name="onehalf" unicode="&#xbd;" horiz-adv-x="559" 
d="M105 398l3 11q35 4 40 25l49 149q4 10 1.5 19t-9.5 7l-17 -3l4 11l80 33l6 -6l-66 -209q-3 -13 1 -18.5t21 -7.5l-3 -11h-110zM-24 -5l597 641h25l-597 -641h-25zM279 0l5 14q8 6 48.5 35t61 46t42 43.5t21.5 48.5q0 12 -7.5 23t-24.5 11q-36 0 -76 -45l-3 15
q41 61 107 61q25 0 38.5 -14t13.5 -37t-12.5 -45.5t-35 -42t-41.5 -33t-45.5 -29t-33.5 -20.5l62 3q23 0 37.5 8.5t30.5 32.5l10 -5l-40 -70h-158z" />
    <glyph glyph-name="threequarters" unicode="&#xbe;" horiz-adv-x="690" 
d="M150 384q-21 0 -37 6t-16 18q0 10 6.5 15.5t14.5 5.5t17.5 -15.5t25.5 -15.5q29 0 53.5 25.5t24.5 54.5q0 35 -42 35q-16 0 -35 -7l-1 12l32 12q35 13 53.5 26.5t18.5 35.5q0 21 -29 21q-37 0 -66 -27l-6 8q44 47 98 47q46 0 46 -37q0 -42 -73 -72q52 -4 52 -45
q0 -39 -44 -71t-93 -32zM666 636h25l-597 -641h-25zM589 246h42l-52 -160h33l-10 -20h-30l-11 -34q-4 -12 1.5 -16t24.5 -6l-3 -10h-112l4 10q21 2 28.5 6t11.5 16l11 34h-97l3 20zM451 86h83l41 127z" />
    <glyph glyph-name="questiondown" unicode="&#xbf;" horiz-adv-x="403" 
d="M256 455q21 0 36 -14t15 -35t-15 -35t-36 -14t-36.5 14t-15.5 35t15.5 35t36.5 14zM234 260q1 -37 -17 -71t-46 -62.5t-57.5 -56.5t-57 -65.5t-40.5 -77.5q-16 -48 4.5 -79.5t89.5 -31.5q22 0 50 39q31 42 47.5 57t34.5 15q17 0 17 -21q0 -36 -39.5 -65t-90 -42.5
t-94.5 -13.5q-69 0 -91 45t2 105q15 46 44.5 82.5t62 60.5t64.5 48t59 57.5t39 76.5h19z" />
    <glyph glyph-name="Agrave" unicode="&#xc0;" horiz-adv-x="641" 
d="M469 706q-5 5 -22.5 25.5t-24.5 27.5t-20.5 21.5t-24.5 24t-23 17.5q6 12 26 26.5t35 14.5q34 -48 69 -145zM514 87q2 -35 12.5 -50t40.5 -22l-2 -15h-207l3 15q24 6 34 9.5t23.5 10.5t18.5 18.5t4 28.5l-7 126v-1h-251l-90 -131q-11 -17 -14 -27.5t5 -17t14 -9t25 -7.5
l-4 -15h-161l3 16q39 9 56 19.5t38 38.5l395 563h30zM201 232h232l-17 312z" />
    <glyph glyph-name="Aacute" unicode="&#xc1;" horiz-adv-x="641" 
d="M586 822q-12 -8 -23 -17.5t-24.5 -24t-20.5 -21.5t-24.5 -27.5t-22.5 -25.5l-14 12q35 97 69 145q16 0 35.5 -14.5t24.5 -26.5zM514 87q2 -35 12.5 -50t40.5 -22l-2 -15h-207l3 15q24 6 34 9.5t23.5 10.5t18.5 18.5t4 28.5l-7 126v-1h-251l-90 -131q-11 -17 -14 -27.5
t5 -17t14 -9t25 -7.5l-4 -15h-161l3 16q39 9 56 19.5t38 38.5l395 563h30zM201 232h232l-17 312z" />
    <glyph glyph-name="Acircumflex" unicode="&#xc2;" horiz-adv-x="641" 
d="M546 876l70 -155l-13 -7l-79 98l-143 -98l-8 9zM514 87q2 -35 12.5 -50t40.5 -22l-2 -15h-207l3 15q24 6 34 9.5t23.5 10.5t18.5 18.5t4 28.5l-7 126v-1h-251l-90 -131q-11 -17 -14 -27.5t5 -17t14 -9t25 -7.5l-4 -15h-161l3 16q39 9 56 19.5t38 38.5l395 563h30z
M201 232h232l-17 312z" />
    <glyph glyph-name="Atilde" unicode="&#xc3;" horiz-adv-x="641" 
d="M656 826l11 -8q-4 -36 -35.5 -61t-71.5 -25q-23 0 -39.5 11t-23.5 23.5t-20.5 23.5t-31.5 11q-23 0 -39 -13.5t-20 -29.5l-12 8q4 36 37 61t72 25q23 0 38.5 -11t21.5 -23.5t18.5 -23.5t30.5 -11q24 0 41 13.5t23 29.5zM514 87q2 -35 12.5 -50t40.5 -22l-2 -15h-207l3 15
q24 6 34 9.5t23.5 10.5t18.5 18.5t4 28.5l-7 126v-1h-251l-90 -131q-11 -17 -14 -27.5t5 -17t14 -9t25 -7.5l-4 -15h-161l3 16q39 9 56 19.5t38 38.5l395 563h30zM201 232h232l-17 312z" />
    <glyph glyph-name="Adieresis" unicode="&#xc4;" horiz-adv-x="641" 
d="M396 772q-17 0 -28 11t-11 28q0 18 11 29t28 11q18 0 29 -11t11 -29q0 -17 -11 -28t-29 -11zM576 851q18 0 29 -11t11 -29q0 -17 -11 -28t-29 -11q-17 0 -28 11t-11 28q0 18 11 29t28 11zM514 87q2 -35 12.5 -50t40.5 -22l-2 -15h-207l3 15q24 6 34 9.5t23.5 10.5
t18.5 18.5t4 28.5l-7 126v-1h-251l-90 -131q-11 -17 -14 -27.5t5 -17t14 -9t25 -7.5l-4 -15h-161l3 16q39 9 56 19.5t38 38.5l395 563h30zM201 232h232l-17 312z" />
    <glyph glyph-name="Aring" unicode="&#xc5;" horiz-adv-x="641" 
d="M521 893q34 0 58 -24t24 -58t-24 -58t-58 -24t-57.5 24t-23.5 58t23.5 58t57.5 24zM521 758q21 0 36.5 16t15.5 37t-15.5 37t-36.5 16t-36 -16t-15 -37t15 -37t36 -16zM514 87q2 -35 12.5 -50t40.5 -22l-2 -15h-207l3 15q24 6 34 9.5t23.5 10.5t18.5 18.5t4 28.5l-7 126
v-1h-251l-90 -131q-11 -17 -14 -27.5t5 -17t14 -9t25 -7.5l-4 -15h-161l3 16q39 9 56 19.5t38 38.5l395 563h30zM201 232h232l-17 312z" />
    <glyph glyph-name="AE" unicode="&#xc6;" horiz-adv-x="893" 
d="M946 630l-39 -137h-20q15 57 4.5 83t-58.5 26h-91q-51 0 -71.5 -15.5t-36.5 -67.5l-61 -186h81q53 0 82.5 10t42 26t26.5 51h16l-66 -201h-17q14 51 -2 67.5t-95 16.5h-78l-65 -199q-8 -27 -9.5 -42t7.5 -23t22 -9.5t42 -1.5h71q52 0 90 26.5t87 93.5h19l-87 -148h-418
l4 16q31 6 45.5 11.5t30.5 23t27 49.5l35 107h-238l-130 -136q-11 -11 -16.5 -19t-6.5 -12.5t3.5 -8.5t8 -5.5t13.5 -4.5t14 -4l-12 -17h-144l13 18q37 8 52.5 16.5t46.5 42.5l500 517q-10 12 -45 19l4 17h419zM567 528q9 28 8 43l-328 -342h224z" />
    <glyph glyph-name="Ccedilla" unicode="&#xc7;" horiz-adv-x="571" 
d="M484 645q103 0 151 -54l-32 -131h-22q13 156 -115 156q-87 0 -162 -63.5t-115.5 -154.5t-40.5 -179q0 -89 45 -139t123 -50q101 0 171 57l4 -21q-82 -73 -205 -79l-22 -42q44 0 70.5 -20t26.5 -53q0 -35 -34 -59.5t-112 -24.5l5 19q43 0 67 13.5t24 34.5q0 47 -105 47
l44 86q-89 5 -134 59t-45 149q0 111 54.5 214t151 169t207.5 66z" />
    <glyph glyph-name="Egrave" unicode="&#xc8;" horiz-adv-x="538" 
d="M406 706q-5 5 -22.5 25.5t-24.5 27.5t-20.5 21.5t-24.5 24t-23 17.5q6 12 26 26.5t35 14.5q34 -48 69 -145zM172 630h418l-39 -137h-19q15 57 4.5 83t-58.5 26h-91q-51 0 -72 -16t-36 -67l-61 -186h80q53 0 83 10t42.5 26t26.5 51h16l-67 -201h-16q7 27 8 41t-9 25
t-32.5 14.5t-63.5 3.5h-78l-65 -199q-8 -28 -9.5 -42.5t7.5 -22.5t21.5 -9.5t41.5 -1.5h72q52 0 90 26.5t87 93.5h19l-87 -148h-418l4 16q23 5 34.5 8.5t26 12t24 24t17.5 39.5l139 428q8 24 8.5 40t-7 25t-17.5 13t-29 7z" />
    <glyph glyph-name="Eacute" unicode="&#xc9;" horiz-adv-x="538" 
d="M523 822q-12 -8 -23 -17.5t-24.5 -24t-20.5 -21.5t-24.5 -27.5t-22.5 -25.5l-14 12q35 97 69 145q16 0 35.5 -14.5t24.5 -26.5zM172 630h418l-39 -137h-19q15 57 4.5 83t-58.5 26h-91q-51 0 -72 -16t-36 -67l-61 -186h80q53 0 83 10t42.5 26t26.5 51h16l-67 -201h-16
q7 27 8 41t-9 25t-32.5 14.5t-63.5 3.5h-78l-65 -199q-8 -28 -9.5 -42.5t7.5 -22.5t21.5 -9.5t41.5 -1.5h72q52 0 90 26.5t87 93.5h19l-87 -148h-418l4 16q23 5 34.5 8.5t26 12t24 24t17.5 39.5l139 428q8 24 8.5 40t-7 25t-17.5 13t-29 7z" />
    <glyph glyph-name="Ecircumflex" unicode="&#xca;" horiz-adv-x="538" 
d="M461 812l-143 -98l-8 9l173 153l70 -155l-13 -7zM172 630h418l-39 -137h-19q15 57 4.5 83t-58.5 26h-91q-51 0 -72 -16t-36 -67l-61 -186h80q53 0 83 10t42.5 26t26.5 51h16l-67 -201h-16q7 27 8 41t-9 25t-32.5 14.5t-63.5 3.5h-78l-65 -199q-8 -28 -9.5 -42.5
t7.5 -22.5t21.5 -9.5t41.5 -1.5h72q52 0 90 26.5t87 93.5h19l-87 -148h-418l4 16q23 5 34.5 8.5t26 12t24 24t17.5 39.5l139 428q8 24 8.5 40t-7 25t-17.5 13t-29 7z" />
    <glyph glyph-name="Edieresis" unicode="&#xcb;" horiz-adv-x="538" 
d="M333 772q-17 0 -28 11t-11 28q0 18 11 29t28 11q18 0 29 -11t11 -29q0 -17 -11 -28t-29 -11zM513 772q-17 0 -28 11t-11 28q0 18 11 29t28 11q18 0 29 -11t11 -29q0 -17 -11 -28t-29 -11zM172 630h418l-39 -137h-19q15 57 4.5 83t-58.5 26h-91q-51 0 -72 -16t-36 -67
l-61 -186h80q53 0 83 10t42.5 26t26.5 51h16l-67 -201h-16q7 27 8 41t-9 25t-32.5 14.5t-63.5 3.5h-78l-65 -199q-8 -28 -9.5 -42.5t7.5 -22.5t21.5 -9.5t41.5 -1.5h72q52 0 90 26.5t87 93.5h19l-87 -148h-418l4 16q23 5 34.5 8.5t26 12t24 24t17.5 39.5l139 428
q8 24 8.5 40t-7 25t-17.5 13t-29 7z" />
    <glyph glyph-name="Igrave" unicode="&#xcc;" horiz-adv-x="289" 
d="M282 706q-5 5 -22.5 25.5t-24.5 27.5t-20.5 21.5t-24.5 24t-23 17.5q6 12 26 26.5t35 14.5q34 -48 69 -145zM-31 0l5 17q44 8 63.5 22t34.5 61l139 428q8 24 8.5 40t-7.5 25t-18 13t-28 7l5 17h215l-5 -18q-23 -4 -35.5 -7t-26.5 -11.5t-23 -23.5t-17 -40l-140 -428
q-15 -46 -2 -61.5t51 -24.5l-3 -16h-216z" />
    <glyph glyph-name="Iacute" unicode="&#xcd;" horiz-adv-x="289" 
d="M285 706l-14 12q35 97 69 145q16 0 35.5 -14.5t24.5 -26.5q-12 -8 -23 -17.5t-24.5 -24t-20.5 -21.5t-24.5 -27.5t-22.5 -25.5zM-31 0l5 17q44 8 63.5 22t34.5 61l139 428q8 24 8.5 40t-7.5 25t-18 13t-28 7l5 17h215l-5 -18q-23 -4 -35.5 -7t-26.5 -11.5t-23 -23.5
t-17 -40l-140 -428q-15 -46 -2 -61.5t51 -24.5l-3 -16h-216z" />
    <glyph glyph-name="Icircumflex" unicode="&#xce;" horiz-adv-x="289" 
d="M359 876l70 -155l-13 -7l-79 98l-143 -98l-8 9zM-31 0l5 17q44 8 63.5 22t34.5 61l139 428q8 24 8.5 40t-7.5 25t-18 13t-28 7l5 17h215l-5 -18q-23 -4 -35.5 -7t-26.5 -11.5t-23 -23.5t-17 -40l-140 -428q-15 -46 -2 -61.5t51 -24.5l-3 -16h-216z" />
    <glyph glyph-name="Idieresis" unicode="&#xcf;" horiz-adv-x="289" 
d="M209 772q-17 0 -28 11t-11 28q0 18 11 29t28 11q18 0 29 -11t11 -29q0 -17 -11 -28t-29 -11zM389 772q-17 0 -28 11t-11 28q0 18 11 29t28 11q18 0 29 -11t11 -29q0 -17 -11 -28t-29 -11zM-31 0l5 17q44 8 63.5 22t34.5 61l139 428q8 24 8.5 40t-7.5 25t-18 13t-28 7
l5 17h215l-5 -18q-23 -4 -35.5 -7t-26.5 -11.5t-23 -23.5t-17 -40l-140 -428q-15 -46 -2 -61.5t51 -24.5l-3 -16h-216z" />
    <glyph glyph-name="Eth" unicode="&#xd0;" horiz-adv-x="666" 
d="M422 630q109 0 176.5 -51.5t67.5 -158.5q0 -119 -61.5 -216t-165.5 -150.5t-229 -53.5h-199l4 16q30 6 44.5 11.5t31 23t27.5 49.5l63 198q-59 0 -119 -3l10 32q58 -3 117 -3l65 204q8 24 8.5 40t-7 25t-17.5 13t-29 7l5 17h208zM251 29q94 0 172.5 56t122.5 149.5
t44 201.5q0 165 -192 165h-50l-90 -277l104 3l-10 -32l-103 3l-56 -173q-17 -52 -4.5 -74t62.5 -22z" />
    <glyph glyph-name="Ntilde" unicode="&#xd1;" horiz-adv-x="625" 
d="M432 801q-23 0 -39 -13.5t-20 -29.5l-12 8q4 36 37 61t72 25q23 0 38.5 -11t21.5 -23.5t18.5 -23.5t30.5 -11q24 0 41 13.5t23 29.5l11 -8q-4 -36 -35.5 -61t-71.5 -25q-23 0 -39.5 11t-23.5 23.5t-20.5 23.5t-31.5 11zM545 630h190l-6 -17q-32 -6 -47 -11t-31 -22.5
t-27 -49.5l-147 -453l1 -3l-2 1l-24 -75h-23l-180 534l-142 -432q-6 -20 -7 -34t2 -22t13 -14t19 -9t26 -7l-3 -16h-191l5 17q24 5 35.5 8t26.5 11.5t24.5 24t17.5 39.5l139 428q15 46 2 62t-52 23l6 17h116l175 -508l132 406q6 20 7 34t-2 22t-13 14t-19 9t-26 7z" />
    <glyph glyph-name="Ograve" unicode="&#xd2;" horiz-adv-x="672" 
d="M474 706q-5 5 -22.5 25.5t-24.5 27.5t-20.5 21.5t-24.5 24t-23 17.5q6 12 26 26.5t35 14.5q34 -48 69 -145zM258 -13q-92 0 -139 56.5t-47 152.5q0 113 56.5 217t151.5 168t200 64q91 0 138.5 -56.5t47.5 -151.5q0 -112 -56.5 -216.5t-151.5 -169t-200 -64.5zM288 16
q78 0 148.5 63.5t110.5 158t40 187.5q0 89 -36.5 140t-101.5 51q-78 0 -148.5 -63.5t-110 -157.5t-39.5 -188q0 -89 36 -140t101 -51z" />
    <glyph glyph-name="Oacute" unicode="&#xd3;" horiz-adv-x="672" 
d="M476 706l-14 12q35 97 69 145q16 0 35.5 -14.5t24.5 -26.5q-12 -8 -23 -17.5t-24.5 -24t-20.5 -21.5t-24.5 -27.5t-22.5 -25.5zM258 -13q-92 0 -139 56.5t-47 152.5q0 113 56.5 217t151.5 168t200 64q91 0 138.5 -56.5t47.5 -151.5q0 -112 -56.5 -216.5t-151.5 -169
t-200 -64.5zM288 16q78 0 148.5 63.5t110.5 158t40 187.5q0 89 -36.5 140t-101.5 51q-78 0 -148.5 -63.5t-110 -157.5t-39.5 -188q0 -89 36 -140t101 -51z" />
    <glyph glyph-name="Ocircumflex" unicode="&#xd4;" horiz-adv-x="672" 
d="M551 876l70 -155l-13 -7l-79 98l-143 -98l-8 9zM258 -13q-92 0 -139 56.5t-47 152.5q0 113 56.5 217t151.5 168t200 64q91 0 138.5 -56.5t47.5 -151.5q0 -112 -56.5 -216.5t-151.5 -169t-200 -64.5zM288 16q78 0 148.5 63.5t110.5 158t40 187.5q0 89 -36.5 140t-101.5 51
q-78 0 -148.5 -63.5t-110 -157.5t-39.5 -188q0 -89 36 -140t101 -51z" />
    <glyph glyph-name="Otilde" unicode="&#xd5;" horiz-adv-x="672" 
d="M565 732q-23 0 -39.5 11t-23.5 23.5t-20.5 23.5t-31.5 11q-23 0 -39 -13.5t-20 -29.5l-12 8q4 36 37 61t72 25q23 0 38.5 -11t21.5 -23.5t18.5 -23.5t30.5 -11q24 0 41 13.5t23 29.5l11 -8q-4 -36 -35.5 -61t-71.5 -25zM258 -13q-92 0 -139 56.5t-47 152.5
q0 113 56.5 217t151.5 168t200 64q91 0 138.5 -56.5t47.5 -151.5q0 -112 -56.5 -216.5t-151.5 -169t-200 -64.5zM288 16q78 0 148.5 63.5t110.5 158t40 187.5q0 89 -36.5 140t-101.5 51q-78 0 -148.5 -63.5t-110 -157.5t-39.5 -188q0 -89 36 -140t101 -51z" />
    <glyph glyph-name="Odieresis" unicode="&#xd6;" horiz-adv-x="672" 
d="M401 772q-17 0 -28 11t-11 28q0 18 11 29t28 11q18 0 29 -11t11 -29q0 -17 -11 -28t-29 -11zM581 772q-17 0 -28 11t-11 28q0 18 11 29t28 11q18 0 29 -11t11 -29q0 -17 -11 -28t-29 -11zM258 -13q-92 0 -139 56.5t-47 152.5q0 113 56.5 217t151.5 168t200 64
q91 0 138.5 -56.5t47.5 -151.5q0 -112 -56.5 -216.5t-151.5 -169t-200 -64.5zM288 16q78 0 148.5 63.5t110.5 158t40 187.5q0 89 -36.5 140t-101.5 51q-78 0 -148.5 -63.5t-110 -157.5t-39.5 -188q0 -89 36 -140t101 -51z" />
    <glyph glyph-name="multiply" unicode="&#xd7;" horiz-adv-x="385" 
d="M376 369l-147 -121l68 -118l-30 -26l-68 120l-151 -124l-16 33l148 122l-67 118l29 26l69 -119l148 122z" />
    <glyph glyph-name="Oslash" unicode="&#xd8;" horiz-adv-x="672" 
d="M571 625q95 -47 95 -188q0 -112 -56.5 -216.5t-151.5 -169t-200 -64.5q-41 0 -77 13l-31 -49l-18 13l29 46q-89 49 -89 186q0 113 56.5 217t151.5 168t200 64q38 0 71 -11l38 61l18 -13zM151 207q0 -95 41 -147l333 532q-31 24 -76 24q-78 0 -148.5 -63.5t-110 -157.5
t-39.5 -188zM288 16q78 0 148.5 63.5t110.5 158t40 187.5q0 101 -46 152l-333 -533q33 -28 80 -28z" />
    <glyph glyph-name="Ugrave" unicode="&#xd9;" 
d="M468 706q-5 5 -22.5 25.5t-24.5 27.5t-20.5 21.5t-24.5 24t-23 17.5q6 12 26 26.5t35 14.5q34 -48 69 -145zM259 -11q-31 0 -57.5 6.5t-51.5 24.5t-38 46.5t-12 76.5t21 110l90 275q8 24 8.5 40t-7.5 25t-18 13t-28 7l5 17h215l-5 -18q-45 -7 -65.5 -21t-35.5 -61
l-95 -294q-17 -64 -17.5 -104t19 -62.5t42.5 -31t53 -8.5q69 0 132 47t98 151l98 300q8 25 8.5 40.5t-8 24.5t-19.5 13t-32 7l5 17h190l-5 -18q-25 -5 -36 -8t-26.5 -11.5t-25 -23.5t-17.5 -39l-95 -292q-23 -70 -58 -120.5t-75 -77.5t-78.5 -39t-78.5 -12z" />
    <glyph glyph-name="Uacute" unicode="&#xda;" 
d="M471 706l-14 12q35 97 69 145q16 0 35.5 -14.5t24.5 -26.5q-12 -8 -23 -17.5t-24.5 -24t-20.5 -21.5t-24.5 -27.5t-22.5 -25.5zM259 -11q-31 0 -57.5 6.5t-51.5 24.5t-38 46.5t-12 76.5t21 110l90 275q8 24 8.5 40t-7.5 25t-18 13t-28 7l5 17h215l-5 -18
q-45 -7 -65.5 -21t-35.5 -61l-95 -294q-17 -64 -17.5 -104t19 -62.5t42.5 -31t53 -8.5q69 0 132 47t98 151l98 300q8 25 8.5 40.5t-8 24.5t-19.5 13t-32 7l5 17h190l-5 -18q-25 -5 -36 -8t-26.5 -11.5t-25 -23.5t-17.5 -39l-95 -292q-23 -70 -58 -120.5t-75 -77.5t-78.5 -39
t-78.5 -12z" />
    <glyph glyph-name="Ucircumflex" unicode="&#xdb;" 
d="M545 876l70 -155l-13 -7l-79 98l-143 -98l-8 9zM259 -11q-31 0 -57.5 6.5t-51.5 24.5t-38 46.5t-12 76.5t21 110l90 275q8 24 8.5 40t-7.5 25t-18 13t-28 7l5 17h215l-5 -18q-45 -7 -65.5 -21t-35.5 -61l-95 -294q-17 -64 -17.5 -104t19 -62.5t42.5 -31t53 -8.5
q69 0 132 47t98 151l98 300q8 25 8.5 40.5t-8 24.5t-19.5 13t-32 7l5 17h190l-5 -18q-25 -5 -36 -8t-26.5 -11.5t-25 -23.5t-17.5 -39l-95 -292q-23 -70 -58 -120.5t-75 -77.5t-78.5 -39t-78.5 -12z" />
    <glyph glyph-name="Udieresis" unicode="&#xdc;" 
d="M395 772q-17 0 -28 11t-11 28q0 18 11 29t28 11q18 0 29 -11t11 -29q0 -17 -11 -28t-29 -11zM575 772q-17 0 -28 11t-11 28q0 18 11 29t28 11q18 0 29 -11t11 -29q0 -17 -11 -28t-29 -11zM259 -11q-31 0 -57.5 6.5t-51.5 24.5t-38 46.5t-12 76.5t21 110l90 275
q8 24 8.5 40t-7.5 25t-18 13t-28 7l5 17h215l-5 -18q-45 -7 -65.5 -21t-35.5 -61l-95 -294q-17 -64 -17.5 -104t19 -62.5t42.5 -31t53 -8.5q69 0 132 47t98 151l98 300q8 25 8.5 40.5t-8 24.5t-19.5 13t-32 7l5 17h190l-5 -18q-25 -5 -36 -8t-26.5 -11.5t-25 -23.5
t-17.5 -39l-95 -292q-23 -70 -58 -120.5t-75 -77.5t-78.5 -39t-78.5 -12z" />
    <glyph glyph-name="Yacute" unicode="&#xdd;" horiz-adv-x="584" 
d="M553 822q-12 -8 -23 -17.5t-24.5 -24t-20.5 -21.5t-24.5 -27.5t-22.5 -25.5l-14 12q35 97 69 145q16 0 35.5 -14.5t24.5 -26.5zM536 630h175l-2 -15q-41 -7 -57.5 -18t-51.5 -50l-248 -281l-52 -166q-16 -46 0 -61t72 -23l-3 -16h-262l3 17q57 8 80.5 22t38.5 60l54 164
l-68 282q-9 37 -21 49.5t-47 20.5l4 15h209l-3 -15q-37 -8 -56.5 -24t-13.5 -44l62 -249l219 251q8 9 12 17l6.5 13t-0.5 10t-4 7.5t-9 6t-11 4.5t-15 4t-15 4z" />
    <glyph glyph-name="Thorn" unicode="&#xde;" horiz-adv-x="521" 
d="M145 119l-6 -17q-15 -46 -2 -61.5t51 -24.5l-3 -16h-216l5 17q44 8 63.5 22t34.5 61l139 428q8 24 8.5 40t-7.5 25t-18 13t-28 7l5 17h215l-5 -18q-23 -4 -35.5 -7t-26.5 -11.5t-23 -23.5t-17 -40l-7 -20q44 -1 74.5 -3.5t64.5 -11t54 -24t33.5 -42.5t13.5 -65
q0 -228 -367 -245zM434 360q0 64 -40 88.5t-132 28.5l-107 -325q126 9 202.5 60t76.5 148z" />
    <glyph glyph-name="germandbls" unicode="&#xdf;" horiz-adv-x="499" 
d="M195 -13q-58 0 -58 36q0 21 13 29t25 8q20 0 50 -18.5t46 -18.5q34 0 66.5 35t32.5 75q0 37 -19 70l-60 110q82 70 105 97q42 52 42 115q0 78 -60 78q-42 0 -78.5 -35.5t-52.5 -84.5l-157 -483h-124l7 18q22 3 33.5 6t27 15.5t21.5 32.5l137 419q19 56 72.5 101t127.5 45
q58 0 85.5 -28.5t27.5 -76.5q0 -28 -12.5 -56t-25.5 -45.5t-43.5 -42t-43 -33t-47.5 -31.5l17 8l54 -95q27 -42 27 -88q0 -50 -42.5 -89t-94.5 -56t-99 -17z" />
    <glyph glyph-name="agrave" unicode="&#xe0;" horiz-adv-x="444" 
d="M292 506q-5 5 -22.5 25.5t-24.5 27.5t-20.5 21.5t-24.5 24t-23 17.5q6 12 26 26.5t35 14.5q34 -48 69 -145zM300 103q-17 -49 -2 -45q23 7 87 99l14 -15q-94 -152 -145 -152q-17 0 -27.5 15.5t-1.5 38.5l41 115q-155 -169 -196 -169q-19 0 -36 25t-17 76q0 85 47.5 166.5
t120 131.5t143.5 50q55 0 89 -9zM116 54q21 0 162 139l69 194q-31 20 -67 20q-69 0 -137.5 -94.5t-68.5 -179.5q0 -79 42 -79z" />
    <glyph glyph-name="aacute" unicode="&#xe1;" horiz-adv-x="444" 
d="M409 622q-12 -8 -23 -17.5t-24.5 -24t-20.5 -21.5t-24.5 -27.5t-22.5 -25.5l-14 12q35 97 69 145q16 0 35.5 -14.5t24.5 -26.5zM300 103q-17 -49 -2 -45q23 7 87 99l14 -15q-94 -152 -145 -152q-17 0 -27.5 15.5t-1.5 38.5l41 115q-155 -169 -196 -169q-19 0 -36 25
t-17 76q0 85 47.5 166.5t120 131.5t143.5 50q55 0 89 -9zM116 54q21 0 162 139l69 194q-31 20 -67 20q-69 0 -137.5 -94.5t-68.5 -179.5q0 -79 42 -79z" />
    <glyph glyph-name="acircumflex" unicode="&#xe2;" horiz-adv-x="444" 
d="M369 676l70 -155l-13 -7l-79 98l-143 -98l-8 9zM417 430l-117 -327q-17 -49 -2 -45q23 7 87 99l14 -15q-94 -152 -145 -152q-17 0 -27.5 15.5t-1.5 38.5l41 115q-155 -169 -196 -169q-19 0 -36 25t-17 76q0 85 47.5 166.5t120 131.5t143.5 50q55 0 89 -9zM116 54
q21 0 162 139l69 194q-31 20 -67 20q-69 0 -137.5 -94.5t-68.5 -179.5q0 -79 42 -79z" />
    <glyph glyph-name="atilde" unicode="&#xe3;" horiz-adv-x="444" 
d="M479 626l11 -8q-4 -36 -35.5 -61t-71.5 -25q-23 0 -39.5 11t-23.5 23.5t-20.5 23.5t-31.5 11q-23 0 -39 -13.5t-20 -29.5l-12 8q4 36 37 61t72 25q23 0 38.5 -11t21.5 -23.5t18.5 -23.5t30.5 -11q24 0 41 13.5t23 29.5zM417 430l-117 -327q-17 -49 -2 -45q23 7 87 99
l14 -15q-94 -152 -145 -152q-17 0 -27.5 15.5t-1.5 38.5l41 115q-155 -169 -196 -169q-19 0 -36 25t-17 76q0 85 47.5 166.5t120 131.5t143.5 50q55 0 89 -9zM116 54q21 0 162 139l69 194q-31 20 -67 20q-69 0 -137.5 -94.5t-68.5 -179.5q0 -79 42 -79z" />
    <glyph glyph-name="adieresis" unicode="&#xe4;" horiz-adv-x="444" 
d="M219 572q-17 0 -28 11t-11 28q0 18 11 29t28 11q18 0 29 -11t11 -29q0 -17 -11 -28t-29 -11zM399 651q18 0 29 -11t11 -29q0 -17 -11 -28t-29 -11q-17 0 -28 11t-11 28q0 18 11 29t28 11zM417 430l-117 -327q-17 -49 -2 -45q23 7 87 99l14 -15q-94 -152 -145 -152
q-17 0 -27.5 15.5t-1.5 38.5l41 115q-155 -169 -196 -169q-19 0 -36 25t-17 76q0 85 47.5 166.5t120 131.5t143.5 50q55 0 89 -9zM116 54q21 0 162 139l69 194q-31 20 -67 20q-69 0 -137.5 -94.5t-68.5 -179.5q0 -79 42 -79z" />
    <glyph glyph-name="aring" unicode="&#xe5;" horiz-adv-x="444" 
d="M344 529q-34 0 -57.5 24t-23.5 58t23.5 58t57.5 24t58 -24t24 -58t-24 -58t-58 -24zM344 664q-21 0 -36 -16t-15 -37t15 -37t36 -16t36.5 16t15.5 37t-15.5 37t-36.5 16zM417 430l-117 -327q-17 -49 -2 -45q23 7 87 99l14 -15q-94 -152 -145 -152q-17 0 -27.5 15.5
t-1.5 38.5l41 115q-155 -169 -196 -169q-19 0 -36 25t-17 76q0 85 47.5 166.5t120 131.5t143.5 50q55 0 89 -9zM116 54q21 0 162 139l69 194q-31 20 -67 20q-69 0 -137.5 -94.5t-68.5 -179.5q0 -79 42 -79z" />
    <glyph glyph-name="ae" unicode="&#xe6;" horiz-adv-x="611" 
d="M598 370q0 -127 -272 -189q-4 -17 -4 -39q0 -42 21 -72t55 -30q30 0 69 20.5t61 52.5l9 -14q-30 -52 -82.5 -80t-97.5 -28q-47 0 -72.5 31.5t-25.5 87.5q0 26 4 47q-153 -167 -195 -167q-20 0 -37 30t-14 90q3 80 50.5 157t120 124.5t145.5 47.5q10 0 17 -1t15.5 -4
t13.5 -5.5t19 -10.5t25 -14q54 35 104 35q37 0 54 -20t17 -49zM533 361q0 52 -36 52q-42 0 -94 -66.5t-72 -143.5q34 8 52.5 13t51.5 19t51 28.5t32.5 40.5t14.5 57zM114 58q21 0 157 132q26 95 96 166q-12 22 -38.5 36.5t-53.5 14.5q-65 0 -132 -88t-71 -171q-4 -90 42 -90
z" />
    <glyph glyph-name="ccedilla" unicode="&#xe7;" horiz-adv-x="372" 
d="M281 439q41 0 63 -21.5t22 -56.5q0 -26 -12 -43t-33 -17q-34 0 -34 52q5 65 -21 65q-46 0 -89 -50t-67 -115.5t-24 -117.5q0 -42 18.5 -68.5t55.5 -26.5q34 0 72.5 22t63.5 56l8 -16q-25 -47 -67.5 -74.5t-86.5 -35.5l-25 -47q44 0 70.5 -20t26.5 -53q0 -35 -34 -59.5
t-112 -24.5l5 19q43 0 67 13.5t24 34.5q0 47 -105 47l45 89q-43 4 -68 38t-25 91q0 111 83 215t179 104z" />
    <glyph glyph-name="egrave" unicode="&#xe8;" horiz-adv-x="367" 
d="M261 506q-5 5 -22.5 25.5t-24.5 27.5t-20.5 21.5t-24.5 24t-23 17.5q6 12 26 26.5t35 14.5q34 -48 69 -145zM354 370q0 -127 -272 -189q-4 -17 -4 -39q0 -42 21 -72t55 -30q30 0 69 20.5t61 52.5l9 -14q-30 -52 -82.5 -80t-97.5 -28q-47 0 -72.5 31.5t-25.5 87.5
q0 74 39.5 151t102.5 127.5t126 50.5q37 0 54 -20t17 -49zM253 413q-42 0 -94 -66.5t-72 -143.5q34 8 52.5 13t51.5 19t51 28.5t32.5 40.5t14.5 57q0 52 -36 52z" />
    <glyph glyph-name="eacute" unicode="&#xe9;" horiz-adv-x="367" 
d="M378 622q-12 -8 -23 -17.5t-24.5 -24t-20.5 -21.5t-24.5 -27.5t-22.5 -25.5l-14 12q35 97 69 145q16 0 35.5 -14.5t24.5 -26.5zM283 439q37 0 54 -20t17 -49q0 -127 -272 -189q-4 -17 -4 -39q0 -42 21 -72t55 -30q30 0 69 20.5t61 52.5l9 -14q-30 -52 -82.5 -80
t-97.5 -28q-47 0 -72.5 31.5t-25.5 87.5q0 74 39.5 151t102.5 127.5t126 50.5zM87 203q34 8 52.5 13t51.5 19t51 28.5t32.5 40.5t14.5 57q0 52 -36 52q-42 0 -94 -66.5t-72 -143.5z" />
    <glyph glyph-name="ecircumflex" unicode="&#xea;" horiz-adv-x="367" 
d="M338 676l70 -155l-13 -7l-79 98l-143 -98l-8 9zM283 439q37 0 54 -20t17 -49q0 -127 -272 -189q-4 -17 -4 -39q0 -42 21 -72t55 -30q30 0 69 20.5t61 52.5l9 -14q-30 -52 -82.5 -80t-97.5 -28q-47 0 -72.5 31.5t-25.5 87.5q0 74 39.5 151t102.5 127.5t126 50.5zM87 203
q34 8 52.5 13t51.5 19t51 28.5t32.5 40.5t14.5 57q0 52 -36 52q-42 0 -94 -66.5t-72 -143.5z" />
    <glyph glyph-name="edieresis" unicode="&#xeb;" horiz-adv-x="367" 
d="M188 572q-17 0 -28 11t-11 28q0 18 11 29t28 11q18 0 29 -11t11 -29q0 -17 -11 -28t-29 -11zM368 651q18 0 29 -11t11 -29q0 -17 -11 -28t-29 -11q-17 0 -28 11t-11 28q0 18 11 29t28 11zM283 439q37 0 54 -20t17 -49q0 -127 -272 -189q-4 -17 -4 -39q0 -42 21 -72
t55 -30q30 0 69 20.5t61 52.5l9 -14q-30 -52 -82.5 -80t-97.5 -28q-47 0 -72.5 31.5t-25.5 87.5q0 74 39.5 151t102.5 127.5t126 50.5zM87 203q34 8 52.5 13t51.5 19t51 28.5t32.5 40.5t14.5 57q0 52 -36 52q-42 0 -94 -66.5t-72 -143.5z" />
    <glyph glyph-name="igrave" unicode="&#xec;" horiz-adv-x="253" 
d="M189 506q-5 5 -22.5 25.5t-24.5 27.5t-20.5 21.5t-24.5 24t-23 17.5q6 12 26 26.5t35 14.5q34 -48 69 -145zM195 155l13 -15q-91 -150 -143 -150q-18 0 -30.5 15.5t-2.5 38.5l109 280q21 51 4 47q-22 -4 -90 -99l-11 15q92 150 146 150q20 0 30 -15t1 -39l-112 -280
q-21 -51 -3 -47q25 6 89 99z" />
    <glyph glyph-name="iacute" unicode="&#xed;" horiz-adv-x="253" 
d="M191 506l-14 12q35 97 69 145q16 0 35.5 -14.5t24.5 -26.5q-12 -8 -23 -17.5t-24.5 -24t-20.5 -21.5t-24.5 -27.5t-22.5 -25.5zM195 155l13 -15q-91 -150 -143 -150q-18 0 -30.5 15.5t-2.5 38.5l109 280q21 51 4 47q-22 -4 -90 -99l-11 15q92 150 146 150q20 0 30 -15
t1 -39l-112 -280q-21 -51 -3 -47q25 6 89 99z" />
    <glyph glyph-name="icircumflex" unicode="&#xee;" horiz-adv-x="253" 
d="M266 676l70 -155l-13 -7l-79 98l-143 -98l-8 9zM195 155l13 -15q-91 -150 -143 -150q-18 0 -30.5 15.5t-2.5 38.5l109 280q21 51 4 47q-22 -4 -90 -99l-11 15q92 150 146 150q20 0 30 -15t1 -39l-112 -280q-21 -51 -3 -47q25 6 89 99z" />
    <glyph glyph-name="idieresis" unicode="&#xef;" horiz-adv-x="253" 
d="M115 572q-17 0 -28 11t-11 28q0 18 11 29t28 11q18 0 29 -11t11 -29q0 -17 -11 -28t-29 -11zM295 572q-17 0 -28 11t-11 28q0 18 11 29t28 11q18 0 29 -11t11 -29q0 -17 -11 -28t-29 -11zM195 155l13 -15q-91 -150 -143 -150q-18 0 -30.5 15.5t-2.5 38.5l109 280
q21 51 4 47q-22 -4 -90 -99l-11 15q92 150 146 150q20 0 30 -15t1 -39l-112 -280q-21 -51 -3 -47q25 6 89 99z" />
    <glyph glyph-name="eth" unicode="&#xf0;" horiz-adv-x="508" 
d="M551 610l-15 -34q-17 -5 -52 -15.5t-53 -16.5q53 -74 53 -173q0 -90 -42 -177.5t-117 -145t-160 -57.5q-60 0 -97.5 39t-37.5 107q0 120 90.5 216t209.5 96q35 0 83 -20q-7 57 -32 99q-105 -34 -177 -62l14 34q83 23 151 45q-46 64 -125 72l19 20q92 -6 154 -76
q69 23 134 49zM192 23q75 0 141 91t66 186q0 54 -26.5 85.5t-70.5 31.5q-78 0 -140.5 -91.5t-62.5 -184.5q0 -55 24.5 -86.5t68.5 -31.5z" />
    <glyph glyph-name="ntilde" unicode="&#xf1;" horiz-adv-x="480" 
d="M406 532q-23 0 -39.5 11t-23.5 23.5t-20.5 23.5t-31.5 11q-23 0 -39 -13.5t-20 -29.5l-12 8q4 36 37 61t72 25q23 0 38.5 -11t21.5 -23.5t18.5 -23.5t30.5 -11q24 0 41 13.5t23 29.5l11 -8q-4 -36 -35.5 -61t-71.5 -25zM425 157l10 -15q-92 -152 -145 -152
q-16 0 -25 13.5t0 36.5l86 231q11 30 15.5 46t7 33t-3.5 24t-20 7q-46 0 -128 -118t-140 -263h-57l116 324q18 50 2 46q-21 -6 -88 -98l-11 15q92 150 150 150q15 0 21 -12.5t-2 -37.5l-77 -197h13q145 247 243 247q24 0 35 -12.5t9 -38t-10.5 -55t-25.5 -72.5l-60 -156
q-18 -49 -2 -44q21 7 87 98z" />
    <glyph glyph-name="ograve" unicode="&#xf2;" horiz-adv-x="422" 
d="M298 506q-5 5 -22.5 25.5t-24.5 27.5t-20.5 21.5t-24.5 24t-23 17.5q6 12 26 26.5t35 14.5q34 -48 69 -145zM122 -10q-104 0 -104 121q0 124 91.5 226t194.5 102q46 0 73.5 -29t27.5 -91q0 -80 -42.5 -157t-108.5 -124.5t-132 -47.5zM153 20q46 0 91 49t71 116.5
t26 125.5q0 46 -19 72t-55 26q-50 0 -94 -51t-66.5 -116.5t-22.5 -119.5q0 -41 17.5 -71.5t51.5 -30.5z" />
    <glyph glyph-name="oacute" unicode="&#xf3;" horiz-adv-x="422" 
d="M300 506l-14 12q35 97 69 145q16 0 35.5 -14.5t24.5 -26.5q-12 -8 -23 -17.5t-24.5 -24t-20.5 -21.5t-24.5 -27.5t-22.5 -25.5zM122 -10q-104 0 -104 121q0 124 91.5 226t194.5 102q46 0 73.5 -29t27.5 -91q0 -80 -42.5 -157t-108.5 -124.5t-132 -47.5zM153 20
q46 0 91 49t71 116.5t26 125.5q0 46 -19 72t-55 26q-50 0 -94 -51t-66.5 -116.5t-22.5 -119.5q0 -41 17.5 -71.5t51.5 -30.5z" />
    <glyph glyph-name="ocircumflex" unicode="&#xf4;" horiz-adv-x="422" 
d="M375 676l70 -155l-13 -7l-79 98l-143 -98l-8 9zM122 -10q-104 0 -104 121q0 124 91.5 226t194.5 102q46 0 73.5 -29t27.5 -91q0 -80 -42.5 -157t-108.5 -124.5t-132 -47.5zM153 20q46 0 91 49t71 116.5t26 125.5q0 46 -19 72t-55 26q-50 0 -94 -51t-66.5 -116.5
t-22.5 -119.5q0 -41 17.5 -71.5t51.5 -30.5z" />
    <glyph glyph-name="otilde" unicode="&#xf5;" horiz-adv-x="422" 
d="M389 532q-23 0 -39.5 11t-23.5 23.5t-20.5 23.5t-31.5 11q-23 0 -39 -13.5t-20 -29.5l-12 8q4 36 37 61t72 25q23 0 38.5 -11t21.5 -23.5t18.5 -23.5t30.5 -11q24 0 41 13.5t23 29.5l11 -8q-4 -36 -35.5 -61t-71.5 -25zM122 -10q-104 0 -104 121q0 124 91.5 226
t194.5 102q46 0 73.5 -29t27.5 -91q0 -80 -42.5 -157t-108.5 -124.5t-132 -47.5zM153 20q46 0 91 49t71 116.5t26 125.5q0 46 -19 72t-55 26q-50 0 -94 -51t-66.5 -116.5t-22.5 -119.5q0 -41 17.5 -71.5t51.5 -30.5z" />
    <glyph glyph-name="odieresis" unicode="&#xf6;" horiz-adv-x="422" 
d="M225 572q-17 0 -28 11t-11 28q0 18 11 29t28 11q18 0 29 -11t11 -29q0 -17 -11 -28t-29 -11zM405 572q-17 0 -28 11t-11 28q0 18 11 29t28 11q18 0 29 -11t11 -29q0 -17 -11 -28t-29 -11zM122 -10q-104 0 -104 121q0 124 91.5 226t194.5 102q46 0 73.5 -29t27.5 -91
q0 -80 -42.5 -157t-108.5 -124.5t-132 -47.5zM153 20q46 0 91 49t71 116.5t26 125.5q0 46 -19 72t-55 26q-50 0 -94 -51t-66.5 -116.5t-22.5 -119.5q0 -41 17.5 -71.5t51.5 -30.5z" />
    <glyph glyph-name="divide" unicode="&#xf7;" horiz-adv-x="430" 
d="M265 373q-11 0 -20 10t-9 22t9 21.5t20 9.5q12 0 21.5 -9.5t9.5 -21.5q0 -13 -9.5 -22.5t-21.5 -9.5zM54 234l11 35h333l-11 -35h-333zM175 67q-11 0 -20 10t-9 22t9 21.5t20 9.5q12 0 21.5 -9.5t9.5 -21.5q0 -13 -9.5 -22.5t-21.5 -9.5z" />
    <glyph glyph-name="oslash" unicode="&#xf8;" horiz-adv-x="422" 
d="M355 427q50 -27 50 -108q0 -80 -42.5 -157t-108.5 -124.5t-132 -47.5q-18 0 -36 5l-29 -46l-18 15l25 40q-46 28 -46 107q0 124 91.5 226t194.5 102q16 0 29 -3l35 56l18 -15zM84 122q0 -38 13 -64l211 338q-16 13 -41 13q-50 0 -94 -51t-66.5 -116.5t-22.5 -119.5z
M153 20q46 0 91 49t71 116.5t26 125.5q0 41 -16 68l-213 -342q15 -17 41 -17z" />
    <glyph glyph-name="ugrave" unicode="&#xf9;" horiz-adv-x="479" 
d="M316 506q-5 5 -22.5 25.5t-24.5 27.5t-20.5 21.5t-24.5 24t-23 17.5q6 12 26 26.5t35 14.5q34 -48 69 -145zM58 271l-14 15q93 151 148 151q17 0 26 -13t1 -34l-88 -233q-11 -29 -16.5 -47.5t-7.5 -34t4 -22.5t20 -7q48 0 131.5 118t138.5 270h58l-121 -331
q-18 -50 -2 -45q20 5 88 98l10 -15q-93 -151 -143 -151q-16 0 -28 14t-3 36l76 199l-7 -1q-147 -248 -240 -248q-86 0 -10 181l62 152q19 48 2 44q-22 -6 -85 -96z" />
    <glyph glyph-name="uacute" unicode="&#xfa;" horiz-adv-x="479" 
d="M318 506l-14 12q35 97 69 145q16 0 35.5 -14.5t24.5 -26.5q-12 -8 -23 -17.5t-24.5 -24t-20.5 -21.5t-24.5 -27.5t-22.5 -25.5zM58 271l-14 15q93 151 148 151q17 0 26 -13t1 -34l-88 -233q-11 -29 -16.5 -47.5t-7.5 -34t4 -22.5t20 -7q48 0 131.5 118t138.5 270h58
l-121 -331q-18 -50 -2 -45q20 5 88 98l10 -15q-93 -151 -143 -151q-16 0 -28 14t-3 36l76 199l-7 -1q-147 -248 -240 -248q-86 0 -10 181l62 152q19 48 2 44q-22 -6 -85 -96z" />
    <glyph glyph-name="ucircumflex" unicode="&#xfb;" horiz-adv-x="479" 
d="M393 676l70 -155l-13 -7l-79 98l-143 -98l-8 9zM58 271l-14 15q93 151 148 151q17 0 26 -13t1 -34l-88 -233q-11 -29 -16.5 -47.5t-7.5 -34t4 -22.5t20 -7q48 0 131.5 118t138.5 270h58l-121 -331q-18 -50 -2 -45q20 5 88 98l10 -15q-93 -151 -143 -151q-16 0 -28 14
t-3 36l76 199l-7 -1q-147 -248 -240 -248q-86 0 -10 181l62 152q19 48 2 44q-22 -6 -85 -96z" />
    <glyph glyph-name="udieresis" unicode="&#xfc;" horiz-adv-x="479" 
d="M243 572q-17 0 -28 11t-11 28q0 18 11 29t28 11q18 0 29 -11t11 -29q0 -17 -11 -28t-29 -11zM423 572q-17 0 -28 11t-11 28q0 18 11 29t28 11q18 0 29 -11t11 -29q0 -17 -11 -28t-29 -11zM58 271l-14 15q93 151 148 151q17 0 26 -13t1 -34l-88 -233q-11 -29 -16.5 -47.5
t-7.5 -34t4 -22.5t20 -7q48 0 131.5 118t138.5 270h58l-121 -331q-18 -50 -2 -45q20 5 88 98l10 -15q-93 -151 -143 -151q-16 0 -28 14t-3 36l76 199l-7 -1q-147 -248 -240 -248q-86 0 -10 181l62 152q19 48 2 44q-22 -6 -85 -96z" />
    <glyph glyph-name="yacute" unicode="&#xfd;" horiz-adv-x="429" 
d="M409 622q-12 -8 -23 -17.5t-24.5 -24t-20.5 -21.5t-24.5 -27.5t-22.5 -25.5l-14 12q35 97 69 145q16 0 35.5 -14.5t24.5 -26.5zM309 402q20 13 39.5 22t43 15t37.5 -6t14 -43q0 -56 -56 -154t-132.5 -189.5t-162.5 -159.5t-141 -68q-24 0 -43.5 13.5t-19.5 34.5
q0 17 12.5 29t28.5 12q19 0 36.5 -23t34.5 -23q51 0 141 87l9 370q2 55 -7 56q-8 1 -34 -34q-9 -13 -34 -47q-10 -14 -16 -22l-12 15q50 80 82 115t58 35q23 0 22 -59v-7l-8 -360q75 86 126 180t51 162q0 29 -14 40t-50 -2z" />
    <glyph glyph-name="thorn" unicode="&#xfe;" horiz-adv-x="451" 
d="M75 -5l-34 -95q-13 -36 -0.5 -45t62.5 -13l-5 -17h-197l4 17q38 6 54 16.5t28 43.5l172 479q-53 -18 -102 -49l-7 19q56 39 122 65l50 139q14 38 -1.5 50.5t-63.5 12.5l6 18l134 23l10 -15l-75 -211q26 6 52 6q148 0 148 -132q0 -120 -105 -212t-252 -100zM270 404
q-20 0 -51 -6l-136 -381q116 7 197 91.5t81 191.5q0 104 -91 104z" />
    <glyph glyph-name="ydieresis" unicode="&#xff;" horiz-adv-x="429" 
d="M219 572q-17 0 -28 11t-11 28q0 18 11 29t28 11q18 0 29 -11t11 -29q0 -17 -11 -28t-29 -11zM399 572q-17 0 -28 11t-11 28q0 18 11 29t28 11q18 0 29 -11t11 -29q0 -17 -11 -28t-29 -11zM309 402q20 13 39.5 22t43 15t37.5 -6t14 -43q0 -56 -56 -154t-132.5 -189.5
t-162.5 -159.5t-141 -68q-24 0 -43.5 13.5t-19.5 34.5q0 17 12.5 29t28.5 12q19 0 36.5 -23t34.5 -23q51 0 141 87l9 370q2 55 -7 56q-8 1 -34 -34q-9 -13 -34 -47q-10 -14 -16 -22l-12 15q50 80 82 115t58 35q23 0 22 -59v-7l-8 -360q75 86 126 180t51 162q0 29 -14 40
t-50 -2z" />
    <glyph glyph-name="Amacron" unicode="&#x100;" horiz-adv-x="641" 
d="M385 827h280l-15 -30h-280zM514 87q2 -35 12.5 -50t40.5 -22l-2 -15h-207l3 15q24 6 34 9.5t23.5 10.5t18.5 18.5t4 28.5l-7 126v-1h-251l-90 -131q-11 -17 -14 -27.5t5 -17t14 -9t25 -7.5l-4 -15h-161l3 16q39 9 56 19.5t38 38.5l395 563h30zM201 232h232l-17 312z" />
    <glyph glyph-name="amacron" unicode="&#x101;" horiz-adv-x="444" 
d="M208 627h280l-15 -30h-280zM417 430l-117 -327q-17 -49 -2 -45q23 7 87 99l14 -15q-94 -152 -145 -152q-17 0 -27.5 15.5t-1.5 38.5l41 115q-155 -169 -196 -169q-19 0 -36 25t-17 76q0 85 47.5 166.5t120 131.5t143.5 50q55 0 89 -9zM116 54q21 0 162 139l69 194
q-31 20 -67 20q-69 0 -137.5 -94.5t-68.5 -179.5q0 -79 42 -79z" />
    <glyph glyph-name="Abreve" unicode="&#x102;" horiz-adv-x="641" 
d="M644 874h13q-18 -57 -56.5 -91t-95.5 -34t-74 38.5t2 85.5h13q-5 -36 10 -52t57 -17q55 -1 84 17.5t47 52.5zM514 87q2 -35 12.5 -50t40.5 -22l-2 -15h-207l3 15q24 6 34 9.5t23.5 10.5t18.5 18.5t4 28.5l-7 126v-1h-251l-90 -131q-11 -17 -14 -27.5t5 -17t14 -9t25 -7.5
l-4 -15h-161l3 16q39 9 56 19.5t38 38.5l395 563h30zM201 232h232l-17 312z" />
    <glyph glyph-name="abreve" unicode="&#x103;" horiz-adv-x="444" 
d="M466 674h13q-18 -57 -56.5 -91t-95.5 -34t-74 38.5t2 85.5h13q-5 -36 10 -52t57 -17q55 -1 84 17.5t47 52.5zM417 430l-117 -327q-17 -49 -2 -45q23 7 87 99l14 -15q-94 -152 -145 -152q-17 0 -27.5 15.5t-1.5 38.5l41 115q-155 -169 -196 -169q-19 0 -36 25t-17 76
q0 85 47.5 166.5t120 131.5t143.5 50q55 0 89 -9zM116 54q21 0 162 139l69 194q-31 20 -67 20q-69 0 -137.5 -94.5t-68.5 -179.5q0 -79 42 -79z" />
    <glyph glyph-name="Aogonek" unicode="&#x104;" horiz-adv-x="641" 
d="M514 87q2 -35 12.5 -50t40.5 -22l-2 -15h-68q-54 -28 -81.5 -53.5t-27.5 -61.5q0 -45 45 -45q17 0 61 13l-7 -16q-41 -36 -91 -36q-35 0 -57 17t-22 52q0 39 31 73l94 57h-84l3 15q24 6 34 9.5t23.5 10.5t18.5 18.5t4 28.5l-7 126v-1h-251l-90 -131q-11 -17 -14 -27.5
t5 -17t14 -9t25 -7.5l-4 -15h-161l3 16q39 9 56 19.5t38 38.5l395 563h30zM201 232h232l-17 312z" />
    <glyph glyph-name="aogonek" unicode="&#x105;" horiz-adv-x="468" 
d="M306 15q-4 -3 -19.5 -15.5t-20.5 -16.5t-16 -15t-14.5 -18t-7.5 -18t-4 -22q0 -26 14.5 -40t37.5 -14q19 0 53 13v-16q-34 -36 -85 -36q-40 0 -65 20t-25 61q0 30 22 61l61 36q-25 17 -12 49l41 115q-155 -169 -196 -169q-19 0 -36 25t-17 76q0 85 47.5 166.5t120 131.5
t143.5 50q55 0 89 -9l-117 -327q-17 -49 -2 -45q23 7 87 99l14 -15q-52 -83 -93 -123v-4zM116 54q21 0 162 139l69 194q-31 20 -67 20q-69 0 -137.5 -94.5t-68.5 -179.5q0 -79 42 -79z" />
    <glyph glyph-name="Cacute" unicode="&#x106;" horiz-adv-x="571" 
d="M414 706l-14 12q35 97 69 145q16 0 35.5 -14.5t24.5 -26.5q-12 -8 -23 -17.5t-24.5 -24t-20.5 -21.5t-24.5 -27.5t-22.5 -25.5zM270 -13q-99 0 -149 54.5t-50 154.5q0 111 54.5 214t151 169t207.5 66q103 0 151 -54l-32 -131h-22q13 156 -115 156q-87 0 -162 -63.5
t-115.5 -154.5t-40.5 -179q0 -89 45 -139t123 -50q101 0 171 57l4 -21q-39 -35 -98 -57t-123 -22z" />
    <glyph glyph-name="cacute" unicode="&#x107;" horiz-adv-x="372" 
d="M268 506l-14 12q35 97 69 145q16 0 35.5 -14.5t24.5 -26.5q-12 -8 -23 -17.5t-24.5 -24t-20.5 -21.5t-24.5 -27.5t-22.5 -25.5zM281 439q41 0 63 -21.5t22 -56.5q0 -26 -12 -43t-33 -17q-34 0 -34 52q5 65 -21 65q-46 0 -89 -50t-67 -115.5t-24 -117.5q0 -42 18.5 -68.5
t55.5 -26.5q34 0 72.5 22t63.5 56l8 -16q-29 -55 -81.5 -83.5t-98.5 -28.5q-48 0 -76.5 34.5t-28.5 95.5q0 111 83 215t179 104z" />
    <glyph glyph-name="Cdotaccent" unicode="&#x10a;" horiz-adv-x="571" 
d="M459 763q-18 0 -31.5 12.5t-13.5 29.5q0 18 13.5 31t31.5 13q17 0 30.5 -13t13.5 -31q0 -17 -13.5 -29.5t-30.5 -12.5zM270 -13q-99 0 -149 54.5t-50 154.5q0 111 54.5 214t151 169t207.5 66q103 0 151 -54l-32 -131h-22q13 156 -115 156q-87 0 -162 -63.5t-115.5 -154.5
t-40.5 -179q0 -89 45 -139t123 -50q101 0 171 57l4 -21q-39 -35 -98 -57t-123 -22z" />
    <glyph glyph-name="cdotaccent" unicode="&#x10b;" horiz-adv-x="372" 
d="M313 563q-18 0 -31.5 12.5t-13.5 29.5q0 18 13.5 31t31.5 13q17 0 30.5 -13t13.5 -31q0 -17 -13.5 -29.5t-30.5 -12.5zM281 439q41 0 63 -21.5t22 -56.5q0 -26 -12 -43t-33 -17q-34 0 -34 52q5 65 -21 65q-46 0 -89 -50t-67 -115.5t-24 -117.5q0 -42 18.5 -68.5
t55.5 -26.5q34 0 72.5 22t63.5 56l8 -16q-29 -55 -81.5 -83.5t-98.5 -28.5q-48 0 -76.5 34.5t-28.5 95.5q0 111 83 215t179 104z" />
    <glyph glyph-name="Ccaron" unicode="&#x10c;" horiz-adv-x="571" 
d="M434 715l-70 155l14 7l78 -98l143 98l8 -8zM270 -13q-99 0 -149 54.5t-50 154.5q0 111 54.5 214t151 169t207.5 66q103 0 151 -54l-32 -131h-22q13 156 -115 156q-87 0 -162 -63.5t-115.5 -154.5t-40.5 -179q0 -89 45 -139t123 -50q101 0 171 57l4 -21q-39 -35 -98 -57
t-123 -22z" />
    <glyph glyph-name="ccaron" unicode="&#x10d;" horiz-adv-x="372" 
d="M288 515l-70 155l14 7l78 -98l143 98l8 -8zM281 439q41 0 63 -21.5t22 -56.5q0 -26 -12 -43t-33 -17q-34 0 -34 52q5 65 -21 65q-46 0 -89 -50t-67 -115.5t-24 -117.5q0 -42 18.5 -68.5t55.5 -26.5q34 0 72.5 22t63.5 56l8 -16q-29 -55 -81.5 -83.5t-98.5 -28.5
q-48 0 -76.5 34.5t-28.5 95.5q0 111 83 215t179 104z" />
    <glyph glyph-name="Dcaron" unicode="&#x10e;" horiz-adv-x="622" 
d="M640 869l-173 -154l-70 155l14 7l78 -98l143 98zM378 630q109 0 176.5 -51.5t67.5 -158.5q0 -119 -61.5 -216t-165.5 -150.5t-229 -53.5h-199l4 16q23 5 34.5 8.5t26 12t24 24t17.5 39.5l137 428q8 24 8.5 40t-7 25t-17.5 13t-29 7l5 17h208zM207 29q94 0 172.5 56
t122.5 149.5t44 201.5q0 165 -192 165h-50l-155 -476q-17 -52 -4.5 -74t62.5 -22z" />
    <glyph glyph-name="dcaron" unicode="&#x10f;" horiz-adv-x="491" 
d="M511 644l-192 -541q-18 -49 -2 -44q21 6 88 98l11 -15q-91 -152 -144 -152q-14 0 -26 13.5t-5 36.5l52 150q-36 -40 -57 -63t-59 -61t-65.5 -57t-43.5 -19q-19 0 -36 25t-17 76q0 85 47.5 166.5t122 131.5t150.5 50q21 0 43 -8l43 124q13 38 -3 50.5t-63 12.5l6 18
l140 23zM545 649q12 6 34 2.5t27 -16.5q-25 -68 -77 -155l-14 8q3 17 11.5 53t13 61t5.5 47zM114 57q26 0 191 168l53 151q-29 31 -80 31q-46 0 -95 -45.5t-80 -110t-31 -118.5q0 -76 42 -76z" />
    <glyph glyph-name="Dcroat" unicode="&#x110;" horiz-adv-x="666" 
d="M422 630q109 0 176.5 -51.5t67.5 -158.5q0 -119 -61.5 -216t-165.5 -150.5t-229 -53.5h-199l4 16q30 6 44.5 11.5t31 23t27.5 49.5l63 198q-59 0 -119 -3l10 32q58 -3 117 -3l65 204q8 24 8.5 40t-7 25t-17.5 13t-29 7l5 17h208zM251 29q94 0 172.5 56t122.5 149.5
t44 201.5q0 165 -192 165h-50l-90 -277l104 3l-10 -32l-103 3l-56 -173q-17 -52 -4.5 -74t62.5 -22z" />
    <glyph glyph-name="dcroat" unicode="&#x111;" horiz-adv-x="456" 
d="M457 493l-138 -390q-18 -49 -2 -44q21 6 88 98l11 -15q-91 -152 -144 -152q-14 0 -26 13.5t-5 36.5l52 150q-36 -40 -57 -63t-59 -61t-65.5 -57t-43.5 -19q-19 0 -36 25t-17 76q0 85 47.5 166.5t122 131.5t150.5 50q21 0 43 -8l22 63q-89 0 -180 -3l10 32q90 -3 179 -3
l12 35q13 38 -3 50.5t-63 12.5l6 18l140 23l10 -15l-44 -123q9 1 26.5 1t26.5 1l-10 -32q-9 1 -26.5 1t-26.5 1zM114 57q26 0 191 168l53 151q-29 31 -80 31q-46 0 -95 -45.5t-80 -110t-31 -118.5q0 -76 42 -76z" />
    <glyph glyph-name="Emacron" unicode="&#x112;" horiz-adv-x="538" 
d="M602 827l-15 -30h-280l15 30h280zM167 613l5 17h418l-39 -137h-19q15 57 4.5 83t-58.5 26h-91q-51 0 -72 -16t-36 -67l-61 -186h80q53 0 83 10t42.5 26t26.5 51h16l-67 -201h-16q7 27 8 41t-9 25t-32.5 14.5t-63.5 3.5h-78l-65 -199q-8 -28 -9.5 -42.5t7.5 -22.5
t21.5 -9.5t41.5 -1.5h72q52 0 90 26.5t87 93.5h19l-87 -148h-418l4 16q23 5 34.5 8.5t26 12t24 24t17.5 39.5l139 428q8 24 8.5 40t-7 25t-17.5 13t-29 7z" />
    <glyph glyph-name="emacron" unicode="&#x113;" horiz-adv-x="367" 
d="M177 627h280l-15 -30h-280zM283 439q37 0 54 -20t17 -49q0 -127 -272 -189q-4 -17 -4 -39q0 -42 21 -72t55 -30q30 0 69 20.5t61 52.5l9 -14q-30 -52 -82.5 -80t-97.5 -28q-47 0 -72.5 31.5t-25.5 87.5q0 74 39.5 151t102.5 127.5t126 50.5zM87 203q34 8 52.5 13t51.5 19
t51 28.5t32.5 40.5t14.5 57q0 52 -36 52q-42 0 -94 -66.5t-72 -143.5z" />
    <glyph glyph-name="Edotaccent" unicode="&#x116;" horiz-adv-x="538" 
d="M453 763q-18 0 -31.5 12.5t-13.5 29.5q0 18 13.5 31t31.5 13q17 0 30.5 -13t13.5 -31q0 -17 -13.5 -29.5t-30.5 -12.5zM172 630h418l-39 -137h-19q15 57 4.5 83t-58.5 26h-91q-51 0 -72 -16t-36 -67l-61 -186h80q53 0 83 10t42.5 26t26.5 51h16l-67 -201h-16q7 27 8 41
t-9 25t-32.5 14.5t-63.5 3.5h-78l-65 -199q-8 -28 -9.5 -42.5t7.5 -22.5t21.5 -9.5t41.5 -1.5h72q52 0 90 26.5t87 93.5h19l-87 -148h-418l4 16q23 5 34.5 8.5t26 12t24 24t17.5 39.5l139 428q8 24 8.5 40t-7 25t-17.5 13t-29 7z" />
    <glyph glyph-name="edotaccent" unicode="&#x117;" horiz-adv-x="367" 
d="M308 563q-18 0 -31.5 12.5t-13.5 29.5q0 18 13.5 31t31.5 13q17 0 30.5 -13t13.5 -31q0 -17 -13.5 -29.5t-30.5 -12.5zM354 370q0 -127 -272 -189q-4 -17 -4 -39q0 -42 21 -72t55 -30q30 0 69 20.5t61 52.5l9 -14q-30 -52 -82.5 -80t-97.5 -28q-47 0 -72.5 31.5
t-25.5 87.5q0 74 39.5 151t102.5 127.5t126 50.5q37 0 54 -20t17 -49zM253 413q-42 0 -94 -66.5t-72 -143.5q34 8 52.5 13t51.5 19t51 28.5t32.5 40.5t14.5 57q0 52 -36 52z" />
    <glyph glyph-name="Eogonek" unicode="&#x118;" horiz-adv-x="538" 
d="M172 630h418l-39 -137h-19q15 57 4.5 83t-58.5 26h-91q-51 0 -72 -16t-36 -67l-61 -186h80q53 0 83 10t42.5 26t26.5 51h16l-67 -201h-16q7 27 8 41t-9 25t-32.5 14.5t-63.5 3.5h-78l-65 -199q-8 -28 -9.5 -42.5t7.5 -22.5t21.5 -9.5t41.5 -1.5h72q52 0 90 26.5t87 93.5
h19l-87 -148h-48q-44 -24 -67 -48.5t-23 -56.5q0 -45 45 -45q17 0 61 13l-7 -16q-41 -36 -91 -36q-35 0 -57 17t-22 52q0 39 31 73l78 47h-318l4 16q23 5 34.5 8.5t26 12t24 24t17.5 39.5l139 428q8 24 8.5 40t-7 25t-17.5 13t-29 7z" />
    <glyph glyph-name="eogonek" unicode="&#x119;" horiz-adv-x="367" 
d="M354 370q0 -127 -272 -189q-4 -17 -4 -39q0 -42 21 -72t55 -30q30 0 69 20.5t61 52.5l9 -14q-34 -58 -99 -88v-1q-54 -28 -81.5 -53.5t-27.5 -61.5q0 -45 45 -45q17 0 61 13l-7 -16q-41 -36 -91 -36q-35 0 -57 17t-22 52q0 39 31 73l63 38q-45 1 -69 32.5t-24 86.5
q0 74 39.5 151t102.5 127.5t126 50.5q37 0 54 -20t17 -49zM253 413q-42 0 -94 -66.5t-72 -143.5q34 8 52.5 13t51.5 19t51 28.5t32.5 40.5t14.5 57q0 52 -36 52z" />
    <glyph glyph-name="Ecaron" unicode="&#x11a;" horiz-adv-x="538" 
d="M601 869l-173 -154l-70 155l14 7l78 -98l143 98zM167 613l5 17h418l-39 -137h-19q15 57 4.5 83t-58.5 26h-91q-51 0 -72 -16t-36 -67l-61 -186h80q53 0 83 10t42.5 26t26.5 51h16l-67 -201h-16q7 27 8 41t-9 25t-32.5 14.5t-63.5 3.5h-78l-65 -199q-8 -28 -9.5 -42.5
t7.5 -22.5t21.5 -9.5t41.5 -1.5h72q52 0 90 26.5t87 93.5h19l-87 -148h-418l4 16q23 5 34.5 8.5t26 12t24 24t17.5 39.5l139 428q8 24 8.5 40t-7 25t-17.5 13t-29 7z" />
    <glyph glyph-name="ecaron" unicode="&#x11b;" horiz-adv-x="367" 
d="M456 669l-173 -154l-70 155l14 7l78 -98l143 98zM283 439q37 0 54 -20t17 -49q0 -127 -272 -189q-4 -17 -4 -39q0 -42 21 -72t55 -30q30 0 69 20.5t61 52.5l9 -14q-30 -52 -82.5 -80t-97.5 -28q-47 0 -72.5 31.5t-25.5 87.5q0 74 39.5 151t102.5 127.5t126 50.5zM87 203
q34 8 52.5 13t51.5 19t51 28.5t32.5 40.5t14.5 57q0 52 -36 52q-42 0 -94 -66.5t-72 -143.5z" />
    <glyph glyph-name="Gbreve" unicode="&#x11e;" horiz-adv-x="654" 
d="M512 749q-57 0 -74 38.5t2 85.5h13q-5 -36 10 -52t57 -17q55 -1 84 17.5t47 52.5h13q-18 -57 -56.5 -91t-95.5 -34zM298 -13q-118 0 -175.5 57t-53.5 156q4 114 66 216.5t165 165.5t218 63q57 0 98 -15.5t59 -38.5q-29 -76 -40 -131h-22q13 79 -23.5 116.5t-99.5 37.5
q-88 0 -167 -62.5t-125 -154.5t-50 -183q-3 -89 43 -144t131 -55q54 0 80.5 24.5t46.5 82.5l20 56q22 70 10.5 86.5t-73.5 21.5l6 22h231l-8 -22q-33 -5 -54 -21.5t-35 -53.5l-21 -62q-15 -40 -22 -75.5t-9 -40.5q-24 -18 -79.5 -32t-116.5 -14z" />
    <glyph glyph-name="gbreve" unicode="&#x11f;" horiz-adv-x="443" 
d="M327 549q-57 0 -74 38.5t2 85.5h13q-5 -36 10 -52t57 -17q55 -1 84 17.5t47 52.5h13q-18 -57 -56.5 -91t-95.5 -34zM284 438q38 0 64 -17q23 -7 114 -7l-10 -41l-80 21q12 -21 12 -50q0 -73 -63 -130t-138 -57q-20 0 -33 4q-18 -8 -30 -20.5t-12 -20.5q0 -18 28 -28
l85 -38q34 -15 45 -20.5t28 -16.5t22 -22.5t5 -28.5q0 -68 -79.5 -111t-172.5 -43q-70 0 -104.5 27.5t-32.5 69.5q1 13 10.5 27t31 31t34 26.5t43.5 29t36 23.5q-49 21 -49 50q0 19 26.5 39.5t60.5 35.5q-40 26 -40 85q0 74 61 128t138 54zM196 176q51 0 87 55.5t36 119.5
q0 69 -50 69q-49 0 -86 -60.5t-37 -121.5q0 -62 50 -62zM171 12l-55 22q-117 -86 -119 -135q-2 -29 19.5 -47t66.5 -18q64 0 116.5 29t52.5 75q0 26 -20 42t-61 32z" />
    <glyph glyph-name="Gdotaccent" unicode="&#x120;" horiz-adv-x="654" 
d="M524 763q-18 0 -31.5 12.5t-13.5 29.5q0 18 13.5 31t31.5 13q17 0 30.5 -13t13.5 -31q0 -17 -13.5 -29.5t-30.5 -12.5zM298 -13q-118 0 -175.5 57t-53.5 156q4 114 66 216.5t165 165.5t218 63q57 0 98 -15.5t59 -38.5q-29 -76 -40 -131h-22q13 79 -23.5 116.5t-99.5 37.5
q-88 0 -167 -62.5t-125 -154.5t-50 -183q-3 -89 43 -144t131 -55q54 0 80.5 24.5t46.5 82.5l20 56q22 70 10.5 86.5t-73.5 21.5l6 22h231l-8 -22q-33 -5 -54 -21.5t-35 -53.5l-21 -62q-15 -40 -22 -75.5t-9 -40.5q-24 -18 -79.5 -32t-116.5 -14z" />
    <glyph glyph-name="gdotaccent" unicode="&#x121;" horiz-adv-x="443" 
d="M339 563q-18 0 -31.5 12.5t-13.5 29.5q0 18 13.5 31t31.5 13q17 0 30.5 -13t13.5 -31q0 -17 -13.5 -29.5t-30.5 -12.5zM462 414l-10 -41l-80 21q12 -21 12 -50q0 -73 -63 -130t-138 -57q-20 0 -33 4q-18 -8 -30 -20.5t-12 -20.5q0 -18 28 -28l85 -38q34 -15 45 -20.5
t28 -16.5t22 -22.5t5 -28.5q0 -68 -79.5 -111t-172.5 -43q-70 0 -104.5 27.5t-32.5 69.5q1 13 10.5 27t31 31t34 26.5t43.5 29t36 23.5q-49 21 -49 50q0 19 26.5 39.5t60.5 35.5q-40 26 -40 85q0 74 61 128t138 54q38 0 64 -17q23 -7 114 -7zM196 176q51 0 87 55.5t36 119.5
q0 69 -50 69q-49 0 -86 -60.5t-37 -121.5q0 -62 50 -62zM171 12l-55 22q-117 -86 -119 -135q-2 -29 19.5 -47t66.5 -18q64 0 116.5 29t52.5 75q0 26 -20 42t-61 32z" />
    <glyph glyph-name="uni0122" unicode="&#x122;" horiz-adv-x="654" 
d="M298 -13q-118 0 -175.5 57t-53.5 156q4 114 66 216.5t165 165.5t218 63q57 0 98 -15.5t59 -38.5q-29 -76 -40 -131h-22q13 79 -23.5 116.5t-99.5 37.5q-88 0 -167 -62.5t-125 -154.5t-50 -183q-3 -89 43 -144t131 -55q54 0 80.5 24.5t46.5 82.5l20 56q22 70 10.5 86.5
t-73.5 21.5l6 22h231l-8 -22q-33 -5 -54 -21.5t-35 -53.5l-21 -62q-15 -40 -22 -75.5t-9 -40.5q-24 -18 -79.5 -32t-116.5 -14zM117 -288l-5 14q34 13 59.5 41t31.5 50q2 7 2 10.5t-2.5 7t-4.5 4.5t-8.5 5t-11.5 8q-21 18 -21 41q0 22 17 35.5t38 13.5q23 0 38.5 -17.5
t15.5 -47.5q0 -44 -40.5 -92t-108.5 -73z" />
    <glyph glyph-name="uni0123" unicode="&#x123;" horiz-adv-x="443" 
d="M269 559q-23 0 -39 18t-16 48q0 44 41 91.5t109 72.5l4 -14q-33 -13 -58.5 -40.5t-32.5 -50.5q0 -7 -1.5 -10t2 -7t5 -5t8 -5t11.5 -8q22 -15 22 -41q0 -21 -17 -35t-38 -14zM462 414l-10 -41l-80 21q12 -21 12 -50q0 -73 -63 -130t-138 -57q-20 0 -33 4
q-18 -8 -30 -20.5t-12 -20.5q0 -18 28 -28l85 -38q34 -15 45 -20.5t28 -16.5t22 -22.5t5 -28.5q0 -68 -79.5 -111t-172.5 -43q-70 0 -104.5 27.5t-32.5 69.5q1 13 10.5 27t31 31t34 26.5t43.5 29t36 23.5q-49 21 -49 50q0 19 26.5 39.5t60.5 35.5q-40 26 -40 85q0 74 61 128
t138 54q38 0 64 -17q23 -7 114 -7zM196 176q51 0 87 55.5t36 119.5q0 69 -50 69q-49 0 -86 -60.5t-37 -121.5q0 -62 50 -62zM171 12l-55 22q-117 -86 -119 -135q-2 -29 19.5 -47t66.5 -18q64 0 116.5 29t52.5 75q0 26 -20 42t-61 32z" />
    <glyph glyph-name="Hbar" unicode="&#x126;" horiz-adv-x="658" 
d="M540 630h215l-5 -18q-45 -7 -65.5 -21t-35.5 -61l-141 -428q-6 -20 -6.5 -34t2.5 -22.5t12.5 -14.5t17.5 -8.5t23 -6.5l-2 -16h-217l5 17q44 8 64 22t35 61l100 311h-302l-26 -80h294l-2 -29h-302l-65 -200q-15 -46 -2 -61.5t51 -24.5l-3 -16h-216l5 17q44 8 63.5 22
t34.5 61l101 311h-5v29h14l29 88q8 24 8.5 40t-7.5 25t-18 13t-28 7l5 17h215l-5 -18q-23 -4 -35.5 -7t-26.5 -11.5t-23 -23.5t-17 -40l-29 -90h302l28 88q8 24 8.5 40t-7.5 25t-17.5 12.5t-27.5 7.5z" />
    <glyph glyph-name="hbar" unicode="&#x127;" horiz-adv-x="463" 
d="M407 439q29 0 42 -18t10 -60q-3 -64 -41.5 -152.5t-91 -153t-91.5 -64.5q-15 0 -31.5 12t-16.5 34q0 17 8.5 26t19.5 9q17 0 26 -12.5t13 -25.5t9 -13q33 0 79.5 120.5t50.5 178.5q3 67 -37 67q-59 0 -147.5 -121.5t-137.5 -265.5h-57l167 494l-86 -3l10 32q58 -2 85 -2
l12 34q13 38 -2.5 50.5t-62.5 12.5l6 18l139 23l10 -15l-42 -124q71 0 145 3l-10 -32q-73 3 -144 3l-74 -216l-18 -62l8 1q60 119 127 170.5t123 51.5z" />
    <glyph glyph-name="Imacron" unicode="&#x12a;" horiz-adv-x="289" 
d="M183 797l15 30h280l-15 -30h-280zM-31 0l5 17q44 8 63.5 22t34.5 61l139 428q8 24 8.5 40t-7.5 25t-18 13t-28 7l5 17h215l-5 -18q-23 -4 -35.5 -7t-26.5 -11.5t-23 -23.5t-17 -40l-140 -428q-15 -46 -2 -61.5t51 -24.5l-3 -16h-216z" />
    <glyph glyph-name="imacron" unicode="&#x12b;" horiz-adv-x="253" 
d="M90 597l15 30h280l-15 -30h-280zM195 155l13 -15q-91 -150 -143 -150q-18 0 -30.5 15.5t-2.5 38.5l109 280q21 51 4 47q-22 -4 -90 -99l-11 15q92 150 146 150q20 0 30 -15t1 -39l-112 -280q-21 -51 -3 -47q25 6 89 99z" />
    <glyph glyph-name="Iogonek" unicode="&#x12e;" horiz-adv-x="289" 
d="M171 630h215l-5 -18q-23 -4 -35.5 -7t-26.5 -11.5t-23 -23.5t-17 -40l-140 -428q-15 -46 -2 -61.5t51 -24.5l-3 -16h-64q-54 -28 -81.5 -53.5t-27.5 -61.5q0 -45 45 -45q17 0 61 13l-7 -16q-41 -36 -91 -36q-35 0 -57 17t-22 52q0 39 31 73l94 57h-97l5 17q44 8 63.5 22
t34.5 61l139 428q8 24 8.5 40t-7.5 25t-18 13t-28 7z" />
    <glyph glyph-name="iogonek" unicode="&#x12f;" horiz-adv-x="253" 
d="M236 649q17 0 30.5 -13t13.5 -31q0 -17 -13.5 -29.5t-30.5 -12.5q-18 0 -31.5 12.5t-13.5 29.5q0 18 13.5 31t31.5 13zM190 437q20 0 30 -15t1 -39l-112 -280q-21 -51 -3 -47q25 6 89 99l13 -15q-89 -148 -142 -150q-73 -43 -73 -95q0 -45 45 -45q17 0 61 13l-7 -16
q-41 -36 -91 -36q-35 0 -57 17t-22 52q0 39 31 73l83 50q-13 17 -4 41l109 280q21 51 4 47q-22 -4 -90 -99l-11 15q92 150 146 150z" />
    <glyph glyph-name="Idotaccent" unicode="&#x130;" horiz-adv-x="289" 
d="M330 763q-18 0 -31.5 12.5t-13.5 29.5q0 18 13.5 31t31.5 13q17 0 30.5 -13t13.5 -31q0 -17 -13.5 -29.5t-30.5 -12.5zM-31 0l5 17q44 8 63.5 22t34.5 61l139 428q8 24 8.5 40t-7.5 25t-18 13t-28 7l5 17h215l-5 -18q-23 -4 -35.5 -7t-26.5 -11.5t-23 -23.5t-17 -40
l-140 -428q-15 -46 -2 -61.5t51 -24.5l-3 -16h-216z" />
    <glyph glyph-name="dotlessi" unicode="&#x131;" horiz-adv-x="253" 
d="M195 155l13 -15q-91 -150 -143 -150q-18 0 -30.5 15.5t-2.5 38.5l109 280q21 51 4 47q-22 -4 -90 -99l-11 15q92 150 146 150q20 0 30 -15t1 -39l-112 -280q-21 -51 -3 -47q25 6 89 99z" />
    <glyph glyph-name="IJ" unicode="&#x132;" horiz-adv-x="583" 
d="M-31 0l5 17q44 8 63.5 22t34.5 61l139 428q8 24 8.5 40t-7.5 25t-18 13t-28 7l5 17h215l-5 -18q-23 -4 -35.5 -7t-26.5 -11.5t-23 -23.5t-17 -40l-140 -428q-15 -46 -2 -61.5t51 -24.5l-3 -16h-216zM182 -181l6 20q70 23 97 55.5t54 115.5l168 518q8 25 8.5 40t-8.5 24
t-20.5 13t-35.5 8l5 17h235l-5 -18q-27 -5 -38.5 -8t-28 -11.5t-26.5 -23.5t-18 -39l-173 -537q-28 -85 -87.5 -126t-132.5 -48z" />
    <glyph glyph-name="ij" unicode="&#x133;" horiz-adv-x="495" 
d="M231 588q-17 0 -29.5 11.5t-12.5 28.5q0 16 12.5 28.5t29.5 12.5q16 0 28.5 -12.5t12.5 -28.5q0 -17 -12.5 -28.5t-28.5 -11.5zM506 588q-16 0 -28.5 11.5t-12.5 28.5q0 16 12.5 28.5t28.5 12.5q17 0 29.5 -12.5t12.5 -28.5q0 -17 -12.5 -28.5t-29.5 -11.5zM195 155
l13 -15q-91 -150 -143 -150q-18 0 -30.5 15.5t-2.5 38.5l109 280q21 51 4 47q-22 -4 -90 -99l-11 15q92 150 146 150q20 0 30 -15t1 -39l-112 -280q-21 -51 -3 -47q25 6 89 99zM461 435q16 0 24.5 -14.5t2.5 -35.5l-96 -307q-16 -50 -28 -81t-30.5 -67.5t-37 -56.5t-45 -34
t-57.5 -14q-42 0 -64 20t-22 49q0 23 13 34.5t30 11.5q20 0 29.5 -17.5t4.5 -43.5q-6 -32 23 -32q31 0 50.5 32.5t48.5 120.5l106 322q24 74 -15 36q-24 -25 -70 -88l-12 15q46 74 84 112t61 38z" />
    <glyph glyph-name="uni0136" unicode="&#x136;" horiz-adv-x="628" 
d="M516 630h190l-7 -17q-27 0 -50 -8t-35.5 -16.5t-35.5 -26.5l-231 -188l136 -317q17 -39 77 -41l-4 -16h-154q14 33 -11 95l-100 233l-106 -87l-46 -139q-15 -46 -2 -61.5t51 -24.5l-3 -16h-216l5 17q44 8 63.5 22t34.5 61l139 428q8 24 8.5 40t-7.5 25t-18 13t-28 7l5 17
h215l-5 -18q-23 -4 -35.5 -7t-26.5 -11.5t-23 -23.5t-17 -40l-77 -236l334 270q25 20 18 34.5t-42 16.5zM215 -58q23 0 38.5 -17.5t15.5 -47.5q0 -44 -40.5 -92t-108.5 -73l-5 14q34 13 59.5 41t31.5 50q2 7 2 10.5t-2.5 7t-4.5 4.5t-8.5 5t-11.5 8q-21 18 -21 41
q0 22 17 35.5t38 13.5z" />
    <glyph glyph-name="uni0137" unicode="&#x137;" horiz-adv-x="450" 
d="M15 0l187 555q13 38 -2.5 50.5t-62.5 12.5l6 18l139 23l10 -15l-220 -644h-57zM492 413q-72 -8 -169 -82l-93 -70l60 -199q10 -33 39 -34t55 26l3 -19q-45 -45 -77 -45q-30 0 -50 22t-29 52l-54 187l111 77q77 54 48 76q-9 7 -31 9l8 17h188zM37 -288l-5 14
q34 13 59.5 41t31.5 50q2 7 2 10.5t-2.5 7t-4.5 4.5t-8.5 5t-11.5 8q-21 18 -21 41q0 22 17 35.5t38 13.5q23 0 38.5 -17.5t15.5 -47.5q0 -44 -40.5 -92t-108.5 -73z" />
    <glyph glyph-name="Lacute" unicode="&#x139;" horiz-adv-x="516" 
d="M292 706l-14 12q35 97 69 145q16 0 35.5 -14.5t24.5 -26.5q-12 -8 -23 -17.5t-24.5 -24t-20.5 -21.5t-24.5 -27.5t-22.5 -25.5zM-33 0l4 16q23 5 34.5 8.5t26 12t24 24t17.5 39.5l137 428q8 24 8.5 40t-7 25t-17.5 13t-29 7l5 17h233l-5 -18q-25 -4 -37 -7t-31 -11.5
t-30.5 -24t-19.5 -39.5l-137 -428q-14 -51 -2.5 -63t63.5 -12h75q51 0 89 29t88 100l19 -5l-88 -151h-420z" />
    <glyph glyph-name="lacute" unicode="&#x13a;" horiz-adv-x="238" 
d="M244 706l-14 12q35 97 69 145q16 0 35.5 -14.5t24.5 -26.5q-12 -8 -23 -17.5t-24.5 -24t-20.5 -21.5t-24.5 -27.5t-22.5 -25.5zM102 103q-18 -49 -2 -44q20 5 88 98l10 -15q-89 -152 -143 -152q-15 0 -26.5 13.5t-4.5 36.5l180 515q13 38 -3.5 50.5t-63.5 12.5l7 18
l140 23l10 -15z" />
    <glyph glyph-name="uni013B" unicode="&#x13b;" horiz-adv-x="516" 
d="M-33 0l4 16q23 5 34.5 8.5t26 12t24 24t17.5 39.5l137 428q8 24 8.5 40t-7 25t-17.5 13t-29 7l5 17h233l-5 -18q-25 -4 -37 -7t-31 -11.5t-30.5 -24t-19.5 -39.5l-137 -428q-14 -51 -2.5 -63t63.5 -12h75q51 0 89 29t88 100l19 -5l-88 -151h-420zM67 -288l-5 14
q34 13 59.5 41t31.5 50q2 7 2 10.5t-2.5 7t-4.5 4.5t-8.5 5t-11.5 8q-21 18 -21 41q0 22 17 35.5t38 13.5q23 0 38.5 -17.5t15.5 -47.5q0 -44 -40.5 -92t-108.5 -73z" />
    <glyph glyph-name="uni013C" unicode="&#x13c;" horiz-adv-x="238" 
d="M102 103q-18 -49 -2 -44q20 5 88 98l10 -15q-89 -152 -143 -152q-15 0 -26.5 13.5t-4.5 36.5l180 515q13 38 -3.5 50.5t-63.5 12.5l7 18l140 23l10 -15zM-74 -288l-5 14q34 13 59.5 41t31.5 50q2 7 2 10.5t-2.5 7t-4.5 4.5t-8.5 5t-11.5 8q-21 18 -21 41q0 22 17 35.5
t38 13.5q23 0 38.5 -17.5t15.5 -47.5q0 -44 -40.5 -92t-108.5 -73z" />
    <glyph glyph-name="Lcaron" unicode="&#x13d;" horiz-adv-x="516" 
d="M400 408l-4 14q33 13 58.5 40.5t32.5 50.5q0 8 1.5 10.5t-2 6.5t-5 5t-8.5 5t-12 8q-21 16 -21 41q0 21 17 35t38 14q23 0 39 -18t16 -48q0 -44 -41 -91.5t-109 -72.5zM-33 0l4 16q23 5 34.5 8.5t26 12t24 24t17.5 39.5l137 428q8 24 8.5 40t-7 25t-17.5 13t-29 7l5 17
h233l-5 -18q-25 -4 -37 -7t-31 -11.5t-30.5 -24t-19.5 -39.5l-137 -428q-14 -51 -2.5 -63t63.5 -12h75q51 0 89 29t88 100l19 -5l-88 -151h-420z" />
    <glyph glyph-name="lcaron" unicode="&#x13e;" horiz-adv-x="246" 
d="M299 490l-16 8q3 13 10 41.5t10.5 43.5t7.5 36.5t5 39.5q11 6 33 2.5t27 -16.5q-23 -68 -77 -155zM102 103q-18 -49 -2 -44q20 5 88 98l10 -15q-89 -152 -143 -152q-15 0 -26.5 13.5t-4.5 36.5l180 515q13 38 -3.5 50.5t-63.5 12.5l7 18l140 23l10 -15z" />
    <glyph glyph-name="Ldot" unicode="&#x13f;" horiz-adv-x="516" 
d="M-33 0l4 16q23 5 34.5 8.5t26 12t24 24t17.5 39.5l137 428q8 24 8.5 40t-7 25t-17.5 13t-29 7l5 17h233l-5 -18q-25 -4 -37 -7t-31 -11.5t-30.5 -24t-19.5 -39.5l-137 -428q-14 -51 -2.5 -63t63.5 -12h75q51 0 89 29t88 100l19 -5l-88 -151h-420zM311 261q-21 0 -36 14
t-15 35t15 35t36 14t36.5 -14t15.5 -35t-15.5 -35t-36.5 -14z" />
    <glyph glyph-name="ldot" unicode="&#x140;" horiz-adv-x="269" 
d="M102 103q-18 -49 -2 -44q20 5 88 98l10 -15q-89 -152 -143 -152q-15 0 -26.5 13.5t-4.5 36.5l180 515q13 38 -3.5 50.5t-63.5 12.5l7 18l140 23l10 -15zM269 289q-21 0 -36 14t-15 35t15 35t36 14t36.5 -14t15.5 -35t-15.5 -35t-36.5 -14z" />
    <glyph glyph-name="Lslash" unicode="&#x141;" horiz-adv-x="545" 
d="M485 156l19 -5l-88 -151h-420l4 16q31 6 45.5 11.5t30.5 23t27 49.5l61 192q-35 -12 -105 -38v31q76 22 114 34l66 209q8 24 8.5 40t-7 25t-17.5 13t-29 7l5 17h233l-5 -18q-25 -4 -37 -7t-30.5 -11.5t-30 -24t-19.5 -39.5l-60 -186q79 27 137 52v-32l-145 -45l-70 -217
q-14 -51 -2 -63t64 -12h74q51 0 89 29t88 100z" />
    <glyph glyph-name="lslash" unicode="&#x142;" horiz-adv-x="238" 
d="M294 644l-98 -277q10 4 53 23v-29q-7 -2 -28.5 -9t-33.5 -10l-85 -239q-18 -49 -2 -44q20 5 88 98l10 -15q-89 -152 -143 -152q-15 0 -26.5 13.5t-4.5 36.5l98 279q-47 -16 -84 -34v29q30 9 92 29l74 212q13 38 -3.5 50.5t-63.5 12.5l7 18l140 23z" />
    <glyph glyph-name="Nacute" unicode="&#x143;" horiz-adv-x="625" 
d="M573 822q-12 -8 -23 -17.5t-24.5 -24t-20.5 -21.5t-24.5 -27.5t-22.5 -25.5l-14 12q35 97 69 145q16 0 35.5 -14.5t24.5 -26.5zM545 630h190l-6 -17q-32 -6 -47 -11t-31 -22.5t-27 -49.5l-147 -453l1 -3l-2 1l-24 -75h-23l-180 534l-142 -432q-6 -20 -7 -34t2 -22t13 -14
t19 -9t26 -7l-3 -16h-191l5 17q24 5 35.5 8t26.5 11.5t24.5 24t17.5 39.5l139 428q15 46 2 62t-52 23l6 17h116l175 -508l132 406q6 20 7 34t-2 22t-13 14t-19 9t-26 7z" />
    <glyph glyph-name="nacute" unicode="&#x144;" horiz-adv-x="480" 
d="M317 506l-14 12q35 97 69 145q16 0 35.5 -14.5t24.5 -26.5q-12 -8 -23 -17.5t-24.5 -24t-20.5 -21.5t-24.5 -27.5t-22.5 -25.5zM425 157l10 -15q-92 -152 -145 -152q-16 0 -25 13.5t0 36.5l86 231q11 30 15.5 46t7 33t-3.5 24t-20 7q-46 0 -128 -118t-140 -263h-57
l116 324q18 50 2 46q-21 -6 -88 -98l-11 15q92 150 150 150q15 0 21 -12.5t-2 -37.5l-77 -197h13q145 247 243 247q24 0 35 -12.5t9 -38t-10.5 -55t-25.5 -72.5l-60 -156q-18 -49 -2 -44q21 7 87 98z" />
    <glyph glyph-name="uni0145" unicode="&#x145;" horiz-adv-x="625" 
d="M545 630h190l-6 -17q-32 -6 -47 -11t-31 -22.5t-27 -49.5l-147 -453l1 -3l-2 1l-24 -75h-23l-180 534l-142 -432q-6 -20 -7 -34t2 -22t13 -14t19 -9t26 -7l-3 -16h-191l5 17q24 5 35.5 8t26.5 11.5t24.5 24t17.5 39.5l139 428q15 46 2 62t-52 23l6 17h116l175 -508
l132 406q6 20 7 34t-2 22t-13 14t-19 9t-26 7zM216 -58q23 0 38.5 -17.5t15.5 -47.5q0 -44 -40.5 -92t-108.5 -73l-5 14q34 13 59.5 41t31.5 50q2 7 2 10.5t-2.5 7t-4.5 4.5t-8.5 5t-11.5 8q-21 18 -21 41q0 22 17 35.5t38 13.5z" />
    <glyph glyph-name="uni0146" unicode="&#x146;" horiz-adv-x="480" 
d="M425 157l10 -15q-92 -152 -145 -152q-16 0 -25 13.5t0 36.5l86 231q11 30 15.5 46t7 33t-3.5 24t-20 7q-46 0 -128 -118t-140 -263h-57l116 324q18 50 2 46q-21 -6 -88 -98l-11 15q92 150 150 150q15 0 21 -12.5t-2 -37.5l-77 -197h13q145 247 243 247q24 0 35 -12.5
t9 -38t-10.5 -55t-25.5 -72.5l-60 -156q-18 -49 -2 -44q21 7 87 98zM45 -288l-5 14q34 13 59.5 41t31.5 50q2 7 2 10.5t-2.5 7t-4.5 4.5t-8.5 5t-11.5 8q-21 18 -21 41q0 22 17 35.5t38 13.5q23 0 38.5 -17.5t15.5 -47.5q0 -44 -40.5 -92t-108.5 -73z" />
    <glyph glyph-name="Ncaron" unicode="&#x147;" horiz-adv-x="625" 
d="M651 869l-173 -154l-70 155l14 7l78 -98l143 98zM545 630h190l-6 -17q-32 -6 -47 -11t-31 -22.5t-27 -49.5l-147 -453l1 -3l-2 1l-24 -75h-23l-180 534l-142 -432q-6 -20 -7 -34t2 -22t13 -14t19 -9t26 -7l-3 -16h-191l5 17q24 5 35.5 8t26.5 11.5t24.5 24t17.5 39.5
l139 428q15 46 2 62t-52 23l6 17h116l175 -508l132 406q6 20 7 34t-2 22t-13 14t-19 9t-26 7z" />
    <glyph glyph-name="ncaron" unicode="&#x148;" horiz-adv-x="480" 
d="M337 515l-70 155l14 7l78 -98l143 98l8 -8zM425 157l10 -15q-92 -152 -145 -152q-16 0 -25 13.5t0 36.5l86 231q11 30 15.5 46t7 33t-3.5 24t-20 7q-46 0 -128 -118t-140 -263h-57l116 324q18 50 2 46q-21 -6 -88 -98l-11 15q92 150 150 150q15 0 21 -12.5t-2 -37.5
l-77 -197h13q145 247 243 247q24 0 35 -12.5t9 -38t-10.5 -55t-25.5 -72.5l-60 -156q-18 -49 -2 -44q21 7 87 98z" />
    <glyph glyph-name="Eng" unicode="&#x14a;" horiz-adv-x="625" 
d="M545 630h190l-6 -17q-32 -6 -47 -11t-31 -22.5t-27 -49.5l-147 -453v-1h2l-28 -83q-48 -150 -221 -175q0 13 9 21q70 23 95.5 54.5t53.5 116.5l19 55l-158 469l-142 -432q-6 -20 -7 -34t2 -22t13 -14t19 -9t26 -7l-3 -16h-191l5 17q24 5 35.5 8t26.5 11.5t24.5 24
t17.5 39.5l139 428q15 46 2 62t-52 23l6 17h116l175 -508l132 406q6 20 7 34t-2 22t-13 14t-19 9t-26 7z" />
    <glyph glyph-name="eng" unicode="&#x14b;" horiz-adv-x="451" 
d="M392 437q24 0 35 -12t9.5 -38t-9 -54t-22.5 -74l-62 -181q-16 -45 -23 -65t-21 -53.5t-23 -48t-23.5 -35.5t-28 -29.5t-32 -15t-40.5 -6.5q-47 0 -69.5 20t-22.5 49q0 23 13 34.5t30 11.5q20 0 29.5 -17.5t4.5 -43.5q-6 -32 23 -32q30 0 48 31t51 122l97 271q10 27 15 46
t6 34t-6 22.5t-21 7.5q-46 0 -128 -118t-140 -263h-57l116 324q18 50 2 46q-21 -6 -88 -98l-11 15q92 150 150 150q15 0 21 -12.5t-2 -37.5l-77 -197h13q145 247 243 247z" />
    <glyph glyph-name="Omacron" unicode="&#x14c;" horiz-adv-x="672" 
d="M375 797l15 30h280l-15 -30h-280zM258 -13q-92 0 -139 56.5t-47 152.5q0 113 56.5 217t151.5 168t200 64q91 0 138.5 -56.5t47.5 -151.5q0 -112 -56.5 -216.5t-151.5 -169t-200 -64.5zM288 16q78 0 148.5 63.5t110.5 158t40 187.5q0 89 -36.5 140t-101.5 51
q-78 0 -148.5 -63.5t-110 -157.5t-39.5 -188q0 -89 36 -140t101 -51z" />
    <glyph glyph-name="omacron" unicode="&#x14d;" horiz-adv-x="422" 
d="M199 597l15 30h280l-15 -30h-280zM122 -10q-104 0 -104 121q0 124 91.5 226t194.5 102q46 0 73.5 -29t27.5 -91q0 -80 -42.5 -157t-108.5 -124.5t-132 -47.5zM153 20q46 0 91 49t71 116.5t26 125.5q0 46 -19 72t-55 26q-50 0 -94 -51t-66.5 -116.5t-22.5 -119.5
q0 -41 17.5 -71.5t51.5 -30.5z" />
    <glyph glyph-name="Ohungarumlaut" unicode="&#x150;" horiz-adv-x="672" 
d="M412 706l-14 12q35 97 69 145q16 0 35.5 -14.5t24.5 -26.5q-12 -8 -23 -17.5t-24.5 -24t-20.5 -21.5t-24.5 -27.5t-22.5 -25.5zM552 706l-14 12q35 97 69 145q15 0 35 -14.5t26 -26.5q-10 -7 -21 -16.5t-18 -15.5t-20.5 -20.5t-17 -19t-20.5 -23.5t-19 -21zM258 -13
q-92 0 -139 56.5t-47 152.5q0 113 56.5 217t151.5 168t200 64q91 0 138.5 -56.5t47.5 -151.5q0 -112 -56.5 -216.5t-151.5 -169t-200 -64.5zM288 16q78 0 148.5 63.5t110.5 158t40 187.5q0 89 -36.5 140t-101.5 51q-78 0 -148.5 -63.5t-110 -157.5t-39.5 -188q0 -89 36 -140
t101 -51z" />
    <glyph glyph-name="ohungarumlaut" unicode="&#x151;" horiz-adv-x="422" 
d="M236 506l-14 12q35 97 69 145q16 0 35.5 -14.5t24.5 -26.5q-12 -8 -23 -17.5t-24.5 -24t-20.5 -21.5t-24.5 -27.5t-22.5 -25.5zM376 506l-14 12q35 97 69 145q15 0 35 -14.5t26 -26.5q-10 -7 -21 -16.5t-18 -15.5t-20.5 -20.5t-17 -19t-20.5 -23.5t-19 -21zM122 -10
q-104 0 -104 121q0 124 91.5 226t194.5 102q46 0 73.5 -29t27.5 -91q0 -80 -42.5 -157t-108.5 -124.5t-132 -47.5zM153 20q46 0 91 49t71 116.5t26 125.5q0 46 -19 72t-55 26q-50 0 -94 -51t-66.5 -116.5t-22.5 -119.5q0 -41 17.5 -71.5t51.5 -30.5z" />
    <glyph glyph-name="OE" unicode="&#x152;" horiz-adv-x="953" 
d="M587 630h418l-39 -137h-19q15 57 4.5 83t-58.5 26h-91q-51 0 -72 -16t-36 -67l-61 -186h80q53 0 83 10t42.5 26t26.5 51h16l-67 -201h-16q14 51 -2 67.5t-95 16.5h-78l-65 -199q-8 -28 -9.5 -42.5t7.5 -22.5t21.5 -9.5t41.5 -1.5h72q52 0 90 26.5t87 93.5h19l-87 -148
h-418l1 4q-51 -16 -122 -16q-92 0 -142.5 56.5t-50.5 149.5q0 107 60.5 211.5t162 171.5t210.5 67q48 0 85 -17zM508 160l107 332q-2 47 -44 84t-101 37q-85 0 -161 -67t-117.5 -161t-41.5 -182q0 -85 38.5 -134.5t103.5 -49.5q46 0 107 38.5t109 102.5z" />
    <glyph glyph-name="oe" unicode="&#x153;" horiz-adv-x="660" 
d="M649 371q0 -127 -272 -189q-4 -17 -4 -39q0 -42 21 -72t55 -30q30 0 69 20.5t61 52.5l9 -14q-30 -52 -82.5 -80t-97.5 -28q-42 0 -67.5 25.5t-30.5 71.5q-41 -46 -90 -72.5t-98 -26.5q-104 0 -104 121q0 124 91.5 226t194.5 102q89 0 100 -96q85 97 173 97q37 0 54.5 -20
t17.5 -49zM548 414q-36 0 -80.5 -50t-71.5 -117q-9 -31 -14 -43q34 8 52.5 13t51.5 19t51 28.5t32.5 40.5t14.5 57q0 52 -36 52zM153 20q46 0 91 49t71 116.5t26 125.5q0 46 -19 72t-55 26q-50 0 -94 -51t-66.5 -116.5t-22.5 -119.5q0 -41 17.5 -71.5t51.5 -30.5z" />
    <glyph glyph-name="Racute" unicode="&#x154;" horiz-adv-x="575" 
d="M512 822q-12 -8 -23 -17.5t-24.5 -24t-20.5 -21.5t-24.5 -27.5t-22.5 -25.5l-14 12q35 97 69 145q16 0 35.5 -14.5t24.5 -26.5zM572 502q0 -90 -69.5 -146t-182.5 -70q55 -13 70 -71l26 -103q14 -52 35 -78t58 -14l-11 -23q-23 -13 -54 -13q-42 0 -63 25t-36 83l-33 125
q-10 36 -35 49.5t-77 15.5l-57 -180q-7 -20 -7.5 -34t2.5 -22.5t13 -14.5t20 -9t28 -6l-5 -16h-227l4 16q23 5 34.5 8.5t26 12t24 24t17.5 39.5l137 428q8 24 8.5 40t-7 25t-17.5 13t-29 7l5 17h211q191 0 191 -128zM283 312q91 0 153.5 57t62.5 135q0 98 -125 98
q-41 0 -60 -13.5t-28 -39.5l-76 -237h73z" />
    <glyph glyph-name="racute" unicode="&#x155;" horiz-adv-x="382" 
d="M267 506l-14 12q35 97 69 145q16 0 35.5 -14.5t24.5 -26.5q-12 -8 -23 -17.5t-24.5 -24t-20.5 -21.5t-24.5 -27.5t-22.5 -25.5zM368 437q38 0 38 -40q0 -31 -21 -54t-50 -23q-16 0 -18 10.5t4.5 22.5t7.5 22.5t-10 10.5q-35 0 -107.5 -120.5t-128.5 -267.5q-29 -3 -57 0
l116 326q6 15 8 25.5t0.5 15t-5.5 4.5q-17 0 -90 -97l-11 15q92 150 144 150q18 0 25.5 -12.5t-1.5 -37.5l-76 -199h13q58 130 116 189.5t103 59.5z" />
    <glyph glyph-name="uni0156" unicode="&#x156;" horiz-adv-x="575" 
d="M572 502q0 -90 -69.5 -146t-182.5 -70q55 -13 70 -71l26 -103q14 -52 35 -78t58 -14l-11 -23q-23 -13 -54 -13q-42 0 -63 25t-36 83l-33 125q-10 36 -35 49.5t-77 15.5l-57 -180q-7 -20 -7.5 -34t2.5 -22.5t13 -14.5t20 -9t28 -6l-5 -16h-227l4 16q23 5 34.5 8.5t26 12
t24 24t17.5 39.5l137 428q8 24 8.5 40t-7 25t-17.5 13t-29 7l5 17h211q191 0 191 -128zM283 312q91 0 153.5 57t62.5 135q0 98 -125 98q-41 0 -60 -13.5t-28 -39.5l-76 -237h73zM184 -58q23 0 38.5 -17.5t15.5 -47.5q0 -44 -40.5 -92t-108.5 -73l-5 14q34 13 59.5 41
t31.5 50q2 7 2 10.5t-2.5 7t-4.5 4.5t-8.5 5t-11.5 8q-21 18 -21 41q0 22 17 35.5t38 13.5z" />
    <glyph glyph-name="uni0157" unicode="&#x157;" horiz-adv-x="382" 
d="M368 437q38 0 38 -40q0 -31 -21 -54t-50 -23q-16 0 -18 10.5t4.5 22.5t7.5 22.5t-10 10.5q-35 0 -107.5 -120.5t-128.5 -267.5q-29 -3 -57 0l116 326q6 15 8 25.5t0.5 15t-5.5 4.5q-17 0 -90 -97l-11 15q92 150 144 150q18 0 25.5 -12.5t-1.5 -37.5l-76 -199h13
q58 130 116 189.5t103 59.5zM-69 -288l-5 14q34 13 59.5 41t31.5 50q2 7 2 10.5t-2.5 7t-4.5 4.5t-8.5 5t-11.5 8q-21 18 -21 41q0 22 17 35.5t38 13.5q23 0 38.5 -17.5t15.5 -47.5q0 -44 -40.5 -92t-108.5 -73z" />
    <glyph glyph-name="Rcaron" unicode="&#x158;" horiz-adv-x="575" 
d="M589 869l-173 -154l-70 155l14 7l78 -98l143 98zM381 630q191 0 191 -128q0 -90 -69.5 -146t-182.5 -70q55 -13 70 -71l26 -103q14 -52 35 -78t58 -14l-11 -23q-23 -13 -54 -13q-42 0 -63 25t-36 83l-33 125q-10 36 -35 49.5t-77 15.5l-57 -180q-7 -20 -7.5 -34
t2.5 -22.5t13 -14.5t20 -9t28 -6l-5 -16h-227l4 16q23 5 34.5 8.5t26 12t24 24t17.5 39.5l137 428q8 24 8.5 40t-7 25t-17.5 13t-29 7l5 17h211zM283 312q91 0 153.5 57t62.5 135q0 98 -125 98q-41 0 -60 -13.5t-28 -39.5l-76 -237h73z" />
    <glyph glyph-name="rcaron" unicode="&#x159;" horiz-adv-x="382" 
d="M287 515l-70 155l14 7l78 -98l143 98l8 -8zM368 437q38 0 38 -40q0 -31 -21 -54t-50 -23q-16 0 -18 10.5t4.5 22.5t7.5 22.5t-10 10.5q-35 0 -107.5 -120.5t-128.5 -267.5q-29 -3 -57 0l116 326q6 15 8 25.5t0.5 15t-5.5 4.5q-17 0 -90 -97l-11 15q92 150 144 150
q18 0 25.5 -12.5t-1.5 -37.5l-76 -199h13q58 130 116 189.5t103 59.5z" />
    <glyph glyph-name="Sacute" unicode="&#x15a;" horiz-adv-x="473" 
d="M376 706l-14 12q35 97 69 145q16 0 35.5 -14.5t24.5 -26.5q-12 -8 -23 -17.5t-24.5 -24t-20.5 -21.5t-24.5 -27.5t-22.5 -25.5zM167 -11q-91 0 -156 65l34 124h17q-8 -73 20.5 -116.5t91.5 -43.5q69 0 118 45.5t49 107.5q0 44 -25.5 77t-74.5 71q-29 23 -44.5 38t-31 44
t-15.5 61q0 77 65.5 130t155.5 53q98 0 144 -59l-38 -125h-18q9 70 -15 112.5t-83 42.5t-102 -38t-43 -90q0 -36 23 -65.5t71 -69.5q105 -83 105 -167q0 -81 -74 -139t-174 -58z" />
    <glyph glyph-name="sacute" unicode="&#x15b;" horiz-adv-x="314" 
d="M349 622q-12 -8 -23 -17.5t-24.5 -24t-20.5 -21.5t-24.5 -27.5t-22.5 -25.5l-14 12q35 97 69 145q16 0 35.5 -14.5t24.5 -26.5zM236 439q33 0 56.5 -14.5t23.5 -47.5q0 -74 -111 -151q34 -52 34 -95q0 -62 -46 -101.5t-108 -39.5q-50 0 -72 23t-22 53q0 35 26 56l15 -3
q2 -33 29 -64.5t62 -31.5q27 0 47.5 18.5t20.5 50.5q0 34 -25 71t-50 75t-25 73q0 52 43.5 90t101.5 38zM199 234q63 69 63 125q0 24 -12.5 38.5t-35.5 14.5q-25 0 -50.5 -18t-25.5 -49q0 -10 3 -20.5t10.5 -22.5t13 -20.5t17.5 -24t17 -23.5z" />
    <glyph glyph-name="Scedilla" unicode="&#x15e;" horiz-adv-x="473" 
d="M371 645q98 0 144 -59l-38 -125h-18q9 70 -15 112.5t-83 42.5t-102 -38t-43 -90q0 -36 23 -65.5t71 -69.5q105 -83 105 -167q0 -76 -65.5 -132t-157.5 -64l-24 -45q44 0 70.5 -20t26.5 -53q0 -35 -34 -59.5t-112 -24.5l5 19q43 0 67 13.5t24 34.5q0 47 -105 47l45 87
q-83 4 -144 65l34 124h17q-8 -73 20.5 -116.5t91.5 -43.5q69 0 118 45.5t49 107.5q0 44 -25.5 77t-74.5 71q-29 23 -44.5 38t-31 44t-15.5 61q0 77 65.5 130t155.5 53z" />
    <glyph glyph-name="scedilla" unicode="&#x15f;" horiz-adv-x="314" 
d="M316 377q0 -74 -111 -151q34 -52 34 -95q0 -54 -36 -91.5t-88 -46.5l-25 -48q44 0 70.5 -20t26.5 -53q0 -35 -34 -59.5t-112 -24.5l5 19q43 0 67 13.5t24 34.5q0 47 -105 47l45 88q-46 2 -66 24.5t-20 51.5q0 35 26 56l15 -3q2 -33 29 -64.5t62 -31.5q27 0 47.5 18.5
t20.5 50.5q0 34 -25 71t-50 75t-25 73q0 52 43.5 90t101.5 38q33 0 56.5 -14.5t23.5 -47.5zM138 345q0 -10 3 -20.5t10.5 -22.5t13 -20.5t17.5 -24t17 -23.5q63 69 63 125q0 24 -12.5 38.5t-35.5 14.5q-25 0 -50.5 -18t-25.5 -49z" />
    <glyph glyph-name="Scaron" unicode="&#x160;" horiz-adv-x="473" 
d="M396 715l-70 155l14 7l78 -98l143 98l8 -8zM167 -11q-91 0 -156 65l34 124h17q-8 -73 20.5 -116.5t91.5 -43.5q69 0 118 45.5t49 107.5q0 44 -25.5 77t-74.5 71q-29 23 -44.5 38t-31 44t-15.5 61q0 77 65.5 130t155.5 53q98 0 144 -59l-38 -125h-18q9 70 -15 112.5
t-83 42.5t-102 -38t-43 -90q0 -36 23 -65.5t71 -69.5q105 -83 105 -167q0 -81 -74 -139t-174 -58z" />
    <glyph glyph-name="scaron" unicode="&#x161;" horiz-adv-x="314" 
d="M427 669l-173 -154l-70 155l14 7l78 -98l143 98zM236 439q33 0 56.5 -14.5t23.5 -47.5q0 -74 -111 -151q34 -52 34 -95q0 -62 -46 -101.5t-108 -39.5q-50 0 -72 23t-22 53q0 35 26 56l15 -3q2 -33 29 -64.5t62 -31.5q27 0 47.5 18.5t20.5 50.5q0 34 -25 71t-50 75t-25 73
q0 52 43.5 90t101.5 38zM199 234q63 69 63 125q0 24 -12.5 38.5t-35.5 14.5q-25 0 -50.5 -18t-25.5 -49q0 -10 3 -20.5t10.5 -22.5t13 -20.5t17.5 -24t17 -23.5z" />
    <glyph glyph-name="uni0162" unicode="&#x162;" horiz-adv-x="571" 
d="M611 630l46 10l-50 -172h-14q12 77 -3 107t-85 30h-55l-163 -503q-16 -47 0 -62.5t72 -23.5l-3 -16h-109l-29 -55q44 0 70.5 -20t26.5 -53q0 -35 -34 -59.5t-112 -24.5l5 19q43 0 67 13.5t24 34.5q0 47 -105 47l50 98h-115l4 17q56 8 79 22t38 61l166 505h-63
q-70 0 -105.5 -33t-71.5 -109h-16l64 177l39 -10h382z" />
    <glyph glyph-name="uni0163" unicode="&#x163;" horiz-adv-x="284" 
d="M218 400l-126 -332q-4 -11 7 -8q30 8 100 76l34 35l6 -17q-110 -127 -158 -154h19l-29 -55q44 0 70.5 -20t26.5 -53q0 -35 -34 -59.5t-112 -24.5l5 19q43 0 67 13.5t24 34.5q0 47 -105 47l46 90q-3 -1 -7 -1q-18 0 -25.5 18.5t1.5 44.5l130 351l-77 5l5 20h82l39 105
l65 8l-43 -113h80l-13 -35z" />
    <glyph glyph-name="Tcaron" unicode="&#x164;" horiz-adv-x="571" 
d="M619 869l-173 -154l-70 155l14 7l78 -98l143 98zM611 630l46 10l-50 -172h-14q12 77 -3 107t-85 30h-55l-163 -503q-16 -47 0 -62.5t72 -23.5l-3 -16h-261l4 17q56 8 79 22t38 61l166 505h-63q-70 0 -105.5 -33t-71.5 -109h-16l64 177l39 -10h382z" />
    <glyph glyph-name="tcaron" unicode="&#x165;" horiz-adv-x="242" 
d="M353 660q12 0 18 -10.5t-3 -31.5l-69 -125q1 -4 -8 -4q-4 0 -7.5 4t-2.5 7l52 141l4 8t6.5 8.5t9.5 2.5zM272 543l-43 -113h80l-13 -35l-78 5l-126 -332q-4 -11 7 -8q30 8 100 76l34 35l6 -17q-140 -163 -187 -163q-18 0 -25.5 18.5t1.5 44.5l130 351l-77 5l5 20h82
l39 105z" />
    <glyph glyph-name="Tbar" unicode="&#x166;" horiz-adv-x="571" 
d="M611 630l46 10l-50 -172h-14q12 77 -3 107t-85 30h-55l-91 -281l106 3l-10 -32l-105 3l-63 -196q-16 -47 0 -62.5t72 -23.5l-3 -16h-261l4 17q56 8 79 22t38 61l65 198q-57 0 -116 -3l10 32q58 -3 115 -3l92 281h-63q-70 0 -105.5 -33t-71.5 -109h-16l64 177l39 -10h382z
" />
    <glyph glyph-name="tbar" unicode="&#x167;" horiz-adv-x="280" 
d="M296 395l-78 5l-16 -41h87l-13 -36l-85 6l-99 -261q-4 -11 7 -8q30 8 100 76l34 35l6 -17q-140 -163 -187 -163q-18 0 -25.5 18.5t1.5 44.5l104 279l-68 5l5 21h73l16 46l-77 5l5 20h82l39 105l65 8l-43 -113h80z" />
    <glyph glyph-name="Umacron" unicode="&#x16a;" 
d="M369 797l15 30h280l-15 -30h-280zM259 -11q-31 0 -57.5 6.5t-51.5 24.5t-38 46.5t-12 76.5t21 110l90 275q8 24 8.5 40t-7.5 25t-18 13t-28 7l5 17h215l-5 -18q-45 -7 -65.5 -21t-35.5 -61l-95 -294q-17 -64 -17.5 -104t19 -62.5t42.5 -31t53 -8.5q69 0 132 47t98 151
l98 300q8 25 8.5 40.5t-8 24.5t-19.5 13t-32 7l5 17h190l-5 -18q-25 -5 -36 -8t-26.5 -11.5t-25 -23.5t-17.5 -39l-95 -292q-23 -70 -58 -120.5t-75 -77.5t-78.5 -39t-78.5 -12z" />
    <glyph glyph-name="umacron" unicode="&#x16b;" horiz-adv-x="479" 
d="M217 597l15 30h280l-15 -30h-280zM58 271l-14 15q93 151 148 151q17 0 26 -13t1 -34l-88 -233q-11 -29 -16.5 -47.5t-7.5 -34t4 -22.5t20 -7q48 0 131.5 118t138.5 270h58l-121 -331q-18 -50 -2 -45q20 5 88 98l10 -15q-93 -151 -143 -151q-16 0 -28 14t-3 36l76 199
l-7 -1q-147 -248 -240 -248q-86 0 -10 181l62 152q19 48 2 44q-22 -6 -85 -96z" />
    <glyph glyph-name="ubreve" unicode="&#x16d;" horiz-adv-x="479" 
d="M352 549q-57 0 -74 38.5t2 85.5h13q-5 -36 10 -52t57 -17q55 -1 84 17.5t47 52.5h13q-18 -57 -56.5 -91t-95.5 -34zM58 271l-14 15q93 151 148 151q17 0 26 -13t1 -34l-88 -233q-11 -29 -16.5 -47.5t-7.5 -34t4 -22.5t20 -7q48 0 131.5 118t138.5 270h58l-121 -331
q-18 -50 -2 -45q20 5 88 98l10 -15q-93 -151 -143 -151q-16 0 -28 14t-3 36l76 199l-7 -1q-147 -248 -240 -248q-86 0 -10 181l62 152q19 48 2 44q-22 -6 -85 -96z" />
    <glyph glyph-name="Uring" unicode="&#x16e;" 
d="M520 729q-34 0 -57.5 24t-23.5 58t23.5 58t57.5 24t58 -24t24 -58t-24 -58t-58 -24zM520 758q21 0 36.5 16t15.5 37t-15.5 37t-36.5 16t-36 -16t-15 -37t15 -37t36 -16zM259 -11q-31 0 -57.5 6.5t-51.5 24.5t-38 46.5t-12 76.5t21 110l90 275q8 24 8.5 40t-7.5 25t-18 13
t-28 7l5 17h215l-5 -18q-45 -7 -65.5 -21t-35.5 -61l-95 -294q-17 -64 -17.5 -104t19 -62.5t42.5 -31t53 -8.5q69 0 132 47t98 151l98 300q8 25 8.5 40.5t-8 24.5t-19.5 13t-32 7l5 17h190l-5 -18q-25 -5 -36 -8t-26.5 -11.5t-25 -23.5t-17.5 -39l-95 -292
q-23 -70 -58 -120.5t-75 -77.5t-78.5 -39t-78.5 -12z" />
    <glyph glyph-name="uring" unicode="&#x16f;" horiz-adv-x="479" 
d="M368 529q-34 0 -57.5 24t-23.5 58t23.5 58t57.5 24t58 -24t24 -58t-24 -58t-58 -24zM368 558q21 0 36.5 16t15.5 37t-15.5 37t-36.5 16t-36 -16t-15 -37t15 -37t36 -16zM58 271l-14 15q93 151 148 151q17 0 26 -13t1 -34l-88 -233q-11 -29 -16.5 -47.5t-7.5 -34t4 -22.5
t20 -7q48 0 131.5 118t138.5 270h58l-121 -331q-18 -50 -2 -45q20 5 88 98l10 -15q-93 -151 -143 -151q-16 0 -28 14t-3 36l76 199l-7 -1q-147 -248 -240 -248q-86 0 -10 181l62 152q19 48 2 44q-22 -6 -85 -96z" />
    <glyph glyph-name="Uhungarumlaut" unicode="&#x170;" 
d="M406 706l-14 12q35 97 69 145q16 0 35.5 -14.5t24.5 -26.5q-12 -8 -23 -17.5t-24.5 -24t-20.5 -21.5t-24.5 -27.5t-22.5 -25.5zM546 706l-14 12q35 97 69 145q15 0 35 -14.5t26 -26.5q-10 -7 -21 -16.5t-18 -15.5t-20.5 -20.5t-17 -19t-20.5 -23.5t-19 -21zM259 -11
q-31 0 -57.5 6.5t-51.5 24.5t-38 46.5t-12 76.5t21 110l90 275q8 24 8.5 40t-7.5 25t-18 13t-28 7l5 17h215l-5 -18q-45 -7 -65.5 -21t-35.5 -61l-95 -294q-17 -64 -17.5 -104t19 -62.5t42.5 -31t53 -8.5q69 0 132 47t98 151l98 300q8 25 8.5 40.5t-8 24.5t-19.5 13t-32 7
l5 17h190l-5 -18q-25 -5 -36 -8t-26.5 -11.5t-25 -23.5t-17.5 -39l-95 -292q-23 -70 -58 -120.5t-75 -77.5t-78.5 -39t-78.5 -12z" />
    <glyph glyph-name="uhungarumlaut" unicode="&#x171;" horiz-adv-x="479" 
d="M254 506l-14 12q35 97 69 145q16 0 35.5 -14.5t24.5 -26.5q-12 -8 -23 -17.5t-24.5 -24t-20.5 -21.5t-24.5 -27.5t-22.5 -25.5zM394 506l-14 12q35 97 69 145q15 0 35 -14.5t26 -26.5q-10 -7 -21 -16.5t-18 -15.5t-20.5 -20.5t-17 -19t-20.5 -23.5t-19 -21zM58 271
l-14 15q93 151 148 151q17 0 26 -13t1 -34l-88 -233q-11 -29 -16.5 -47.5t-7.5 -34t4 -22.5t20 -7q48 0 131.5 118t138.5 270h58l-121 -331q-18 -50 -2 -45q20 5 88 98l10 -15q-93 -151 -143 -151q-16 0 -28 14t-3 36l76 199l-7 -1q-147 -248 -240 -248q-86 0 -10 181
l62 152q19 48 2 44q-22 -6 -85 -96z" />
    <glyph glyph-name="Uogonek" unicode="&#x172;" 
d="M564 630h190l-5 -18q-25 -5 -36 -8t-26.5 -11.5t-25 -23.5t-17.5 -39l-95 -292q-27 -82 -71.5 -137.5t-89 -79t-94.5 -30.5q-99 -30 -99 -88q0 -47 46 -47q18 0 58 14l-5 -18q-40 -35 -91 -35q-35 0 -57.5 17t-22.5 52q0 39 31 73l77 31q-28 3 -51 12t-43 29t-29.5 48
t-7 73t20.5 101l90 275q8 24 8.5 40t-7.5 25t-18 13t-28 7l5 17h215l-5 -18q-45 -7 -65.5 -21t-35.5 -61l-95 -294q-17 -64 -17.5 -104t19 -62.5t42.5 -31t53 -8.5q69 0 132 47t98 151l98 300q8 25 8.5 40.5t-8 24.5t-19.5 13t-32 7z" />
    <glyph glyph-name="uogonek" unicode="&#x173;" horiz-adv-x="479" 
d="M338 103q-18 -50 -2 -45q20 5 88 98l10 -15q-57 -93 -99 -129v-2q-2 -2 -4 -2q-14 -12 -30 -17q-75 -44 -75 -96q0 -45 45 -45q17 0 61 13l-7 -16q-41 -36 -91 -36q-35 0 -57 17t-22 52q0 39 31 73l79 48q-15 15 -5 39l76 199l-7 -1q-147 -248 -240 -248q-86 0 -10 181
l62 152q19 48 2 44q-22 -6 -85 -96l-14 15q93 151 148 151q17 0 26 -13t1 -34l-88 -233q-11 -29 -16.5 -47.5t-7.5 -34t4 -22.5t20 -7q48 0 131.5 118t138.5 270h58z" />
    <glyph glyph-name="Wcircumflex" unicode="&#x174;" horiz-adv-x="921" 
d="M675 876l70 -155l-13 -7l-79 98l-143 -98l-8 9zM214 -8l-9 544q-2 46 -11 59t-43 20l5 15h205l-4 -15q-28 -8 -42 -13.5t-26.5 -19.5t-12.5 -35l5 -442l232 362q30 44 28.5 90t-43.5 58l3 15h120q-17 -54 -15 -144l5 -383l276 431q15 24 18.5 38.5t-7.5 23t-24 11.5
t-42 8l3 15h194l-4 -15q-39 -8 -56.5 -21t-45.5 -55l-355 -547h-26l-5 464l-297 -464h-26z" />
    <glyph glyph-name="wcircumflex" unicode="&#x175;" 
d="M465 612l-143 -98l-8 9l173 153l70 -155l-13 -7zM531 402q20 13 39.5 22t43 15t37.5 -6t14 -43q0 -60 -60.5 -155.5t-147.5 -170t-150 -74.5q-22 0 -32.5 10t-9.5 20.5t2 18.5l35 95q-56 -64 -114.5 -104t-104.5 -40q-31 0 -38.5 17t-1.5 32l104 280q22 57 1 52
q-26 -6 -93 -99l-11 15q92 150 149 150q26 0 34 -19.5t-3 -46.5l-115 -318q-6 -17 -1 -21.5t19 -4.5q52 0 126 85.5t106 173.5l1 2l12 31q21 57 1 52q-26 -6 -93 -99l-11 15q92 150 149 150q26 0 34 -19.5t-3 -46.5l-115 -318q-6 -17 -1 -21.5t19 -4.5q42 0 101.5 59.5
t102.5 137.5t43 129q0 67 -64 38z" />
    <glyph glyph-name="Ycircumflex" unicode="&#x176;" horiz-adv-x="584" 
d="M491 812l-143 -98l-8 9l173 153l70 -155l-13 -7zM536 630h175l-2 -15q-41 -7 -57.5 -18t-51.5 -50l-248 -281l-52 -166q-16 -46 0 -61t72 -23l-3 -16h-262l3 17q57 8 80.5 22t38.5 60l54 164l-68 282q-9 37 -21 49.5t-47 20.5l4 15h209l-3 -15q-37 -8 -56.5 -24
t-13.5 -44l62 -249l219 251q8 9 12 17l6.5 13t-0.5 10t-4 7.5t-9 6t-11 4.5t-15 4t-15 4z" />
    <glyph glyph-name="ycircumflex" unicode="&#x177;" horiz-adv-x="429" 
d="M347 612l-143 -98l-8 9l173 153l70 -155l-13 -7zM309 402q20 13 39.5 22t43 15t37.5 -6t14 -43q0 -56 -56 -154t-132.5 -189.5t-162.5 -159.5t-141 -68q-24 0 -43.5 13.5t-19.5 34.5q0 17 12.5 29t28.5 12q19 0 36.5 -23t34.5 -23q51 0 141 87l9 370q2 55 -7 56
q-8 1 -34 -34q-9 -13 -34 -47q-10 -14 -16 -22l-12 15q50 80 82 115t58 35q23 0 22 -59v-7l-8 -360q75 86 126 180t51 162q0 29 -14 40t-50 -2z" />
    <glyph glyph-name="Ydieresis" unicode="&#x178;" horiz-adv-x="584" 
d="M363 772q-17 0 -28 11t-11 28q0 18 11 29t28 11q18 0 29 -11t11 -29q0 -17 -11 -28t-29 -11zM543 772q-17 0 -28 11t-11 28q0 18 11 29t28 11q18 0 29 -11t11 -29q0 -17 -11 -28t-29 -11zM536 630h175l-2 -15q-41 -7 -57.5 -18t-51.5 -50l-248 -281l-52 -166
q-16 -46 0 -61t72 -23l-3 -16h-262l3 17q57 8 80.5 22t38.5 60l54 164l-68 282q-9 37 -21 49.5t-47 20.5l4 15h209l-3 -15q-37 -8 -56.5 -24t-13.5 -44l62 -249l219 251q8 9 12 17l6.5 13t-0.5 10t-4 7.5t-9 6t-11 4.5t-15 4t-15 4z" />
    <glyph glyph-name="Zacute" unicode="&#x179;" horiz-adv-x="549" 
d="M421 706l-14 12q35 97 69 145q16 0 35.5 -14.5t24.5 -26.5q-12 -8 -23 -17.5t-24.5 -24t-20.5 -21.5t-24.5 -27.5t-22.5 -25.5zM-13 0l-6 15l550 594l-202 -4q-64 -1 -97.5 -32t-64.5 -104h-18l52 167l47 -6h393l-563 -609l226 8q62 2 96.5 33.5t75.5 105.5h20
q-47 -94 -75 -168h-434z" />
    <glyph glyph-name="zacute" unicode="&#x17a;" horiz-adv-x="392" 
d="M274 506l-14 12q35 97 69 145q16 0 35.5 -14.5t24.5 -26.5q-12 -8 -23 -17.5t-24.5 -24t-20.5 -21.5t-24.5 -27.5t-22.5 -25.5zM240 47q22 0 38 18t41 67h18l-50 -140q-47 -5 -119.5 13.5t-105.5 18.5q-48 0 -83 -24l-9 11l351 337q-53 -1 -102 17t-67 18q-21 0 -37 -18
t-42 -67h-18l51 140q47 5 119.5 -13.5t105.5 -18.5q48 0 83 24l8 -11l-351 -337q54 1 102.5 -17t66.5 -18z" />
    <glyph glyph-name="Zdotaccent" unicode="&#x17b;" horiz-adv-x="549" 
d="M466 763q-18 0 -31.5 12.5t-13.5 29.5q0 18 13.5 31t31.5 13q17 0 30.5 -13t13.5 -31q0 -17 -13.5 -29.5t-30.5 -12.5zM-13 0l-6 15l550 594l-202 -4q-64 -1 -97.5 -32t-64.5 -104h-18l52 167l47 -6h393l-563 -609l226 8q62 2 96.5 33.5t75.5 105.5h20q-47 -94 -75 -168
h-434z" />
    <glyph glyph-name="zdotaccent" unicode="&#x17c;" horiz-adv-x="392" 
d="M320 563q-18 0 -31.5 12.5t-13.5 29.5q0 18 13.5 31t31.5 13q17 0 30.5 -13t13.5 -31q0 -17 -13.5 -29.5t-30.5 -12.5zM240 47q22 0 38 18t41 67h18l-50 -140q-47 -5 -119.5 13.5t-105.5 18.5q-48 0 -83 -24l-9 11l351 337q-53 -1 -102 17t-67 18q-21 0 -37 -18t-42 -67
h-18l51 140q47 5 119.5 -13.5t105.5 -18.5q48 0 83 24l8 -11l-351 -337q54 1 102.5 -17t66.5 -18z" />
    <glyph glyph-name="Zcaron" unicode="&#x17d;" horiz-adv-x="549" 
d="M440 715l-70 155l14 7l78 -98l143 98l8 -8zM-13 0l-6 15l550 594l-202 -4q-64 -1 -97.5 -32t-64.5 -104h-18l52 167l47 -6h393l-563 -609l226 8q62 2 96.5 33.5t75.5 105.5h20q-47 -94 -75 -168h-434z" />
    <glyph glyph-name="zcaron" unicode="&#x17e;" horiz-adv-x="392" 
d="M294 515l-70 155l14 7l78 -98l143 98l8 -8zM240 47q22 0 38 18t41 67h18l-50 -140q-47 -5 -119.5 13.5t-105.5 18.5q-48 0 -83 -24l-9 11l351 337q-53 -1 -102 17t-67 18q-21 0 -37 -18t-42 -67h-18l51 140q47 5 119.5 -13.5t105.5 -18.5q48 0 83 24l8 -11l-351 -337
q54 1 102.5 -17t66.5 -18z" />
    <glyph glyph-name="florin" unicode="&#x192;" horiz-adv-x="483" 
d="M567 685q31 0 44 -12.5t12 -37.5q-19 -38 -60 -46q3 26 -10 41t-40 15q-31 0 -71 -36t-77 -122l-22 -51l101 5q-11 -17 -16 -39l-99 2l-147 -338q-103 -241 -286 -241q-30 0 -42 12.5t-13 37.5q20 37 59 46q-1 -26 12 -41t38 -15q33 0 73 36t76 122l167 382l-64 1l7 19
l72 15q54 123 128 184t158 61z" />
    <glyph glyph-name="uni0218" unicode="&#x218;" horiz-adv-x="473" 
d="M167 -11q-91 0 -156 65l34 124h17q-8 -73 20.5 -116.5t91.5 -43.5q69 0 118 45.5t49 107.5q0 44 -25.5 77t-74.5 71q-29 23 -44.5 38t-31 44t-15.5 61q0 77 65.5 130t155.5 53q98 0 144 -59l-38 -125h-18q9 70 -15 112.5t-83 42.5t-102 -38t-43 -90q0 -36 23 -65.5
t71 -69.5q105 -83 105 -167q0 -81 -74 -139t-174 -58zM39 -288l-5 14q34 13 59.5 41t31.5 50q2 7 2 10.5t-2.5 7t-4.5 4.5t-8.5 5t-11.5 8q-21 18 -21 41q0 22 17 35.5t38 13.5q23 0 38.5 -17.5t15.5 -47.5q0 -44 -40.5 -92t-108.5 -73z" />
    <glyph glyph-name="uni0219" unicode="&#x219;" horiz-adv-x="314" 
d="M316 377q0 -74 -111 -151q34 -52 34 -95q0 -62 -46 -101.5t-108 -39.5q-50 0 -72 23t-22 53q0 35 26 56l15 -3q2 -33 29 -64.5t62 -31.5q27 0 47.5 18.5t20.5 50.5q0 34 -25 71t-50 75t-25 73q0 52 43.5 90t101.5 38q33 0 56.5 -14.5t23.5 -47.5zM138 345q0 -10 3 -20.5
t10.5 -22.5t13 -20.5t17.5 -24t17 -23.5q63 69 63 125q0 24 -12.5 38.5t-35.5 14.5q-25 0 -50.5 -18t-25.5 -49zM56 -58q23 0 38.5 -17.5t15.5 -47.5q0 -44 -40.5 -92t-108.5 -73l-5 14q34 13 59.5 41t31.5 50q2 7 2 10.5t-2.5 7t-4.5 4.5t-8.5 5t-11.5 8q-21 18 -21 41
q0 22 17 35.5t38 13.5z" />
    <glyph glyph-name="uni021A" unicode="&#x21a;" horiz-adv-x="571" 
d="M611 630l46 10l-50 -172h-14q12 77 -3 107t-85 30h-55l-163 -503q-16 -47 0 -62.5t72 -23.5l-3 -16h-261l4 17q56 8 79 22t38 61l166 505h-63q-70 0 -105.5 -33t-71.5 -109h-16l64 177l39 -10h382zM184 -58q23 0 38.5 -17.5t15.5 -47.5q0 -44 -40.5 -92t-108.5 -73l-5 14
q34 13 59.5 41t31.5 50q2 7 2 10.5t-2.5 7t-4.5 4.5t-8.5 5t-11.5 8q-21 18 -21 41q0 22 17 35.5t38 13.5z" />
    <glyph glyph-name="uni021B" unicode="&#x21b;" horiz-adv-x="284" 
d="M218 400l-126 -332q-4 -11 7 -8q30 8 100 76l34 35l6 -17q-140 -163 -187 -163q-18 0 -25.5 18.5t1.5 44.5l130 351l-77 5l5 20h82l39 105l65 8l-43 -113h80l-13 -35zM37 -58q23 0 38.5 -17.5t15.5 -47.5q0 -44 -40.5 -92t-108.5 -73l-5 14q34 13 59.5 41t31.5 50
q2 7 2 10.5t-2.5 7t-4.5 4.5t-8.5 5t-11.5 8q-21 18 -21 41q0 22 17 35.5t38 13.5z" />
    <glyph glyph-name="uni0237" unicode="&#x237;" horiz-adv-x="236" 
d="M204 435q16 0 24.5 -15.5t0.5 -38.5l-95 -303q-17 -55 -29.5 -89t-29.5 -68.5t-34.5 -53.5t-42 -30.5t-54.5 -11.5q-87 0 -91 67q0 23 15.5 37t34.5 14q18 0 24.5 -18.5t1.5 -45.5q-6 -29 23 -29q31 0 50.5 32t48.5 118l105 322q21 61 -2 46q-22 -14 -82 -98l-12 15
q92 150 144 150z" />
    <glyph glyph-name="circumflex" unicode="&#x2c6;" horiz-adv-x="260" 
d="M284 686l70 -155l-13 -7l-79 98l-143 -98l-8 9z" />
    <glyph glyph-name="caron" unicode="&#x2c7;" horiz-adv-x="260" 
d="M229 525l-70 155l14 7l78 -98l143 98l8 -8z" />
    <glyph glyph-name="breve" unicode="&#x2d8;" horiz-adv-x="240" 
d="M233 559q-57 0 -74 38.5t2 85.5h13q-5 -36 10 -52t57 -17q55 -1 84 17.5t47 52.5h13q-18 -57 -56.5 -91t-95.5 -34z" />
    <glyph glyph-name="dotaccent" unicode="&#x2d9;" horiz-adv-x="109" 
d="M185 573q-18 0 -31.5 12.5t-13.5 29.5q0 18 13.5 31t31.5 13q17 0 30.5 -13t13.5 -31q0 -17 -13.5 -29.5t-30.5 -12.5z" />
    <glyph glyph-name="ring" unicode="&#x2da;" horiz-adv-x="191" 
d="M227 539q-34 0 -57.5 24t-23.5 58t23.5 58t57.5 24t58 -24t24 -58t-24 -58t-58 -24zM227 568q21 0 36.5 16t15.5 37t-15.5 37t-36.5 16t-36 -16t-15 -37t15 -37t36 -16z" />
    <glyph glyph-name="ogonek" unicode="&#x2db;" horiz-adv-x="205" 
d="M-13 -183q-35 0 -57 17t-22 52q0 39 31 73l155 94l-6 -37q-54 -28 -81.5 -53.5t-27.5 -61.5q0 -45 45 -45q17 0 61 13l-7 -16q-41 -36 -91 -36z" />
    <glyph glyph-name="tilde" unicode="&#x2dc;" horiz-adv-x="295" 
d="M312 542q-23 0 -39.5 11t-23.5 23.5t-20.5 23.5t-31.5 11q-23 0 -39 -13.5t-20 -29.5l-12 8q4 36 37 61t72 25q23 0 38.5 -11t21.5 -23.5t18.5 -23.5t30.5 -11q24 0 41 13.5t23 29.5l11 -8q-4 -36 -35.5 -61t-71.5 -25z" />
    <glyph glyph-name="hungarumlaut" unicode="&#x2dd;" horiz-adv-x="253" 
d="M124 516l-14 12q35 97 69 145q16 0 35.5 -14.5t24.5 -26.5q-12 -8 -23 -17.5t-24.5 -24t-20.5 -21.5t-24.5 -27.5t-22.5 -25.5zM264 516l-14 12q35 97 69 145q15 0 35 -14.5t26 -26.5q-10 -7 -21 -16.5t-18 -15.5t-20.5 -20.5t-17 -19t-20.5 -23.5t-19 -21z" />
    <glyph glyph-name="acutecomb" unicode="&#x301;" horiz-adv-x="0" 
d="M12 516l-14 12q35 97 69 145q16 0 35.5 -14.5t24.5 -26.5q-12 -8 -23 -17.5t-24.5 -24t-20.5 -21.5t-24.5 -27.5t-22.5 -25.5z" />
    <glyph glyph-name="uni0326" unicode="&#x326;" horiz-adv-x="0" 
d="M-272 -288l-5 14q34 13 59.5 41t31.5 50q2 7 2 10.5t-2.5 7t-4.5 4.5t-8.5 5t-11.5 8q-21 17 -21 41q0 22 17 35.5t38 13.5q23 0 38.5 -17.5t15.5 -47.5q0 -44 -40.5 -92t-108.5 -73z" />
    <glyph glyph-name="uni0394" unicode="&#x394;" horiz-adv-x="517" 
d="M-44 0l447 634l38 -634h-485zM18 53h345l-24 448z" />
    <glyph glyph-name="uni03A9" unicode="&#x3a9;" horiz-adv-x="688" 
d="M491 71q56 0 87 29h18l-66 -100h-180l23 71q57 26 111 91.5t86.5 145t32.5 144.5q0 71 -35.5 112.5t-97.5 41.5q-77 0 -149.5 -63.5t-114 -153t-41.5 -171.5q0 -56 17.5 -94t41.5 -53l-24 -71h-181v100h17q7 -18 26.5 -23.5t56.5 -5.5h42q-65 61 -65 170q0 102 57.5 195
t147 147t183.5 54q93 0 142.5 -57t49.5 -141q0 -107 -76 -214.5t-169 -153.5h60z" />
    <glyph glyph-name="uni03BC" unicode="&#x3bc;" horiz-adv-x="479" 
d="M338 103q-18 -50 -2 -45q20 5 88 98l10 -15q-93 -151 -143 -151q-16 0 -28 14t-3 36l76 199l-7 -1q-147 -248 -240 -248q-42 0 -45 42q-21 -67 -18 -95t11.5 -48t5.5 -30q-8 -26 -28 -42t-39 -16q-18 0 -25 14.5t4 43.5l170 436h5l11 28q19 48 2 44q-22 -6 -85 -96
l-14 15q93 151 148 151q17 0 26 -13t1 -34l-88 -233q-11 -29 -16.5 -47.5t-7.5 -34t4 -22.5t20 -7q48 0 131.5 118t138.5 270h58z" />
    <glyph glyph-name="pi" unicode="&#x3c0;" horiz-adv-x="575" 
d="M490 408l-113 -349q-9 -31 10 -31q16 0 26.5 15t22 30.5t29.5 15.5q29 0 10 -56q-11 -43 -82 -43q-97 0 -49 144l89 274h-144l-97 -295q-18 -57 -54 -88t-74 -31q-21 0 -47 13l-3 26q34 -10 70.5 12.5t53.5 74.5l94 288h-53q-28 0 -46.5 -26.5t-23.5 -67.5l-17 19
q-3 46 26 82t65 36h406l-15 -43h-84z" />
    <glyph glyph-name="Wgrave" unicode="&#x1e80;" horiz-adv-x="921" 
d="M598 706q-5 5 -22.5 25.5t-24.5 27.5t-20.5 21.5t-24.5 24t-23 17.5q6 12 26 26.5t35 14.5q34 -48 69 -145zM214 -8l-9 544q-2 46 -11 59t-43 20l5 15h205l-4 -15q-28 -8 -42 -13.5t-26.5 -19.5t-12.5 -35l5 -442l232 362q30 44 28.5 90t-43.5 58l3 15h120
q-17 -54 -15 -144l5 -383l276 431q15 24 18.5 38.5t-7.5 23t-24 11.5t-42 8l3 15h194l-4 -15q-39 -8 -56.5 -21t-45.5 -55l-355 -547h-26l-5 464l-297 -464h-26z" />
    <glyph glyph-name="wgrave" unicode="&#x1e81;" 
d="M410 506q-5 5 -22.5 25.5t-24.5 27.5t-20.5 21.5t-24.5 24t-23 17.5q6 12 26 26.5t35 14.5q34 -48 69 -145zM531 402q20 13 39.5 22t43 15t37.5 -6t14 -43q0 -60 -60.5 -155.5t-147.5 -170t-150 -74.5q-22 0 -32.5 10t-9.5 20.5t2 18.5l35 95q-56 -64 -114.5 -104
t-104.5 -40q-31 0 -38.5 17t-1.5 32l104 280q22 57 1 52q-26 -6 -93 -99l-11 15q92 150 149 150q26 0 34 -19.5t-3 -46.5l-115 -318q-6 -17 -1 -21.5t19 -4.5q52 0 126 85.5t106 173.5l1 2l12 31q21 57 1 52q-26 -6 -93 -99l-11 15q92 150 149 150q26 0 34 -19.5t-3 -46.5
l-115 -318q-6 -17 -1 -21.5t19 -4.5q42 0 101.5 59.5t102.5 137.5t43 129q0 67 -64 38z" />
    <glyph glyph-name="Wacute" unicode="&#x1e82;" horiz-adv-x="921" 
d="M600 706l-14 12q35 97 69 145q16 0 35.5 -14.5t24.5 -26.5q-12 -8 -23 -17.5t-24.5 -24t-20.5 -21.5t-24.5 -27.5t-22.5 -25.5zM214 -8l-9 544q-2 46 -11 59t-43 20l5 15h205l-4 -15q-28 -8 -42 -13.5t-26.5 -19.5t-12.5 -35l5 -442l232 362q30 44 28.5 90t-43.5 58l3 15
h120q-17 -54 -15 -144l5 -383l276 431q15 24 18.5 38.5t-7.5 23t-24 11.5t-42 8l3 15h194l-4 -15q-39 -8 -56.5 -21t-45.5 -55l-355 -547h-26l-5 464l-297 -464h-26z" />
    <glyph glyph-name="wacute" unicode="&#x1e83;" 
d="M528 622q-12 -8 -23 -17.5t-24.5 -24t-20.5 -21.5t-24.5 -27.5t-22.5 -25.5l-14 12q35 97 69 145q16 0 35.5 -14.5t24.5 -26.5zM531 402q20 13 39.5 22t43 15t37.5 -6t14 -43q0 -60 -60.5 -155.5t-147.5 -170t-150 -74.5q-22 0 -32.5 10t-9.5 20.5t2 18.5l35 95
q-56 -64 -114.5 -104t-104.5 -40q-31 0 -38.5 17t-1.5 32l104 280q22 57 1 52q-26 -6 -93 -99l-11 15q92 150 149 150q26 0 34 -19.5t-3 -46.5l-115 -318q-6 -17 -1 -21.5t19 -4.5q52 0 126 85.5t106 173.5l1 2l12 31q21 57 1 52q-26 -6 -93 -99l-11 15q92 150 149 150
q26 0 34 -19.5t-3 -46.5l-115 -318q-6 -17 -1 -21.5t19 -4.5q42 0 101.5 59.5t102.5 137.5t43 129q0 67 -64 38z" />
    <glyph glyph-name="Wdieresis" unicode="&#x1e84;" horiz-adv-x="921" 
d="M525 772q-17 0 -28 11t-11 28q0 18 11 29t28 11q18 0 29 -11t11 -29q0 -17 -11 -28t-29 -11zM705 772q-17 0 -28 11t-11 28q0 18 11 29t28 11q18 0 29 -11t11 -29q0 -17 -11 -28t-29 -11zM214 -8l-9 544q-2 46 -11 59t-43 20l5 15h205l-4 -15q-28 -8 -42 -13.5
t-26.5 -19.5t-12.5 -35l5 -442l232 362q30 44 28.5 90t-43.5 58l3 15h120q-17 -54 -15 -144l5 -383l276 431q15 24 18.5 38.5t-7.5 23t-24 11.5t-42 8l3 15h194l-4 -15q-39 -8 -56.5 -21t-45.5 -55l-355 -547h-26l-5 464l-297 -464h-26z" />
    <glyph glyph-name="wdieresis" unicode="&#x1e85;" 
d="M337 572q-17 0 -28 11t-11 28q0 18 11 29t28 11q18 0 29 -11t11 -29q0 -17 -11 -28t-29 -11zM517 572q-17 0 -28 11t-11 28q0 18 11 29t28 11q18 0 29 -11t11 -29q0 -17 -11 -28t-29 -11zM531 402q20 13 39.5 22t43 15t37.5 -6t14 -43q0 -60 -60.5 -155.5t-147.5 -170
t-150 -74.5q-22 0 -32.5 10t-9.5 20.5t2 18.5l35 95q-56 -64 -114.5 -104t-104.5 -40q-31 0 -38.5 17t-1.5 32l104 280q22 57 1 52q-26 -6 -93 -99l-11 15q92 150 149 150q26 0 34 -19.5t-3 -46.5l-115 -318q-6 -17 -1 -21.5t19 -4.5q52 0 126 85.5t106 173.5l1 2l12 31
q21 57 1 52q-26 -6 -93 -99l-11 15q92 150 149 150q26 0 34 -19.5t-3 -46.5l-115 -318q-6 -17 -1 -21.5t19 -4.5q42 0 101.5 59.5t102.5 137.5t43 129q0 67 -64 38z" />
    <glyph glyph-name="uni1E9E" unicode="&#x1e9e;" horiz-adv-x="626" 
d="M432 340q64 -5 102.5 -36.5t38.5 -93.5q0 -90 -74.5 -160t-170.5 -70q-64 0 -102 40q15 42 25 119h20q3 -77 16.5 -104.5t46.5 -27.5q61 0 110.5 66.5t49.5 131.5q0 53 -43.5 83t-122.5 30l240 262q-45 20 -101 20q-28 0 -57.5 -10.5t-63 -35t-64 -72.5t-52.5 -114
l-85 -266q-8 -25 -9.5 -40t5.5 -23.5t16.5 -12.5t29.5 -8l-6 -18h-215l7 18q32 6 45.5 11t29 22t25.5 49l88 265q21 66 52.5 117t63 79.5t67.5 46.5t65 23.5t58 5.5q106 0 176 -65z" />
    <glyph glyph-name="uni1EBC" unicode="&#x1ebc;" horiz-adv-x="538" 
d="M382 801q-23 0 -39 -13.5t-20 -29.5l-12 8q4 36 37 61t72 25q23 0 38.5 -11t21.5 -23.5t18.5 -23.5t30.5 -11q24 0 41 13.5t23 29.5l11 -8q-4 -36 -35.5 -61t-71.5 -25q-23 0 -39.5 11t-23.5 23.5t-20.5 23.5t-31.5 11zM167 613l5 17h418l-39 -137h-19q15 57 4.5 83
t-58.5 26h-91q-51 0 -72 -16t-36 -67l-61 -186h80q53 0 83 10t42.5 26t26.5 51h16l-67 -201h-16q7 27 8 41t-9 25t-32.5 14.5t-63.5 3.5h-78l-65 -199q-8 -28 -9.5 -42.5t7.5 -22.5t21.5 -9.5t41.5 -1.5h72q52 0 90 26.5t87 93.5h19l-87 -148h-418l4 16q23 5 34.5 8.5t26 12
t24 24t17.5 39.5l139 428q8 24 8.5 40t-7 25t-17.5 13t-29 7z" />
    <glyph glyph-name="uni1EBD" unicode="&#x1ebd;" horiz-adv-x="367" 
d="M448 626l11 -8q-4 -36 -35.5 -61t-71.5 -25q-23 0 -39.5 11t-23.5 23.5t-20.5 23.5t-31.5 11q-23 0 -39 -13.5t-20 -29.5l-12 8q4 36 37 61t72 25q23 0 38.5 -11t21.5 -23.5t18.5 -23.5t30.5 -11q24 0 41 13.5t23 29.5zM283 439q37 0 54 -20t17 -49q0 -127 -272 -189
q-4 -17 -4 -39q0 -42 21 -72t55 -30q30 0 69 20.5t61 52.5l9 -14q-30 -52 -82.5 -80t-97.5 -28q-47 0 -72.5 31.5t-25.5 87.5q0 74 39.5 151t102.5 127.5t126 50.5zM87 203q34 8 52.5 13t51.5 19t51 28.5t32.5 40.5t14.5 57q0 52 -36 52q-42 0 -94 -66.5t-72 -143.5z" />
    <glyph glyph-name="Ygrave" unicode="&#x1ef2;" horiz-adv-x="584" 
d="M436 706q-5 5 -22.5 25.5t-24.5 27.5t-20.5 21.5t-24.5 24t-23 17.5q6 12 26 26.5t35 14.5q34 -48 69 -145zM536 630h175l-2 -15q-41 -7 -57.5 -18t-51.5 -50l-248 -281l-52 -166q-16 -46 0 -61t72 -23l-3 -16h-262l3 17q57 8 80.5 22t38.5 60l54 164l-68 282
q-9 37 -21 49.5t-47 20.5l4 15h209l-3 -15q-37 -8 -56.5 -24t-13.5 -44l62 -249l219 251q8 9 12 17l6.5 13t-0.5 10t-4 7.5t-9 6t-11 4.5t-15 4t-15 4z" />
    <glyph glyph-name="ygrave" unicode="&#x1ef3;" horiz-adv-x="429" 
d="M292 506q-5 5 -22.5 25.5t-24.5 27.5t-20.5 21.5t-24.5 24t-23 17.5q6 12 26 26.5t35 14.5q34 -48 69 -145zM309 402q20 13 39.5 22t43 15t37.5 -6t14 -43q0 -56 -56 -154t-132.5 -189.5t-162.5 -159.5t-141 -68q-24 0 -43.5 13.5t-19.5 34.5q0 17 12.5 29t28.5 12
q19 0 36.5 -23t34.5 -23q51 0 141 87l9 370q2 55 -7 56q-8 1 -34 -34q-9 -13 -34 -47q-10 -14 -16 -22l-12 15q50 80 82 115t58 35q23 0 22 -59v-7l-8 -360q75 86 126 180t51 162q0 29 -14 40t-50 -2z" />
    <glyph glyph-name="endash" unicode="&#x2013;" horiz-adv-x="662" 
d="M49 249v16h565v-16h-565z" />
    <glyph glyph-name="emdash" unicode="&#x2014;" horiz-adv-x="916" 
d="M49 249v16h819v-16h-819z" />
    <glyph glyph-name="uni2015" unicode="&#x2015;" horiz-adv-x="916" 
d="M49 249v16h819v-16h-819z" />
    <glyph glyph-name="quoteleft" unicode="&#x2018;" horiz-adv-x="201" 
d="M280 642l4 -14q-33 -13 -58.5 -40.5t-32.5 -50.5q0 -8 -1.5 -11t2 -6.5t5 -4.5t8 -5t11.5 -8q22 -17 22 -41q0 -21 -17 -35t-38 -14q-23 0 -39 17.5t-16 47.5q0 44 41 92t109 73z" />
    <glyph glyph-name="quoteright" unicode="&#x2019;" horiz-adv-x="203" 
d="M128 417l-5 14q34 13 59.5 41t31.5 50q2 7 2 10.5t-2.5 7t-4.5 4.5t-8.5 5t-11.5 8q-21 17 -21 41q0 22 17 35.5t38 13.5q23 0 38.5 -17.5t15.5 -47.5q0 -44 -40.5 -92t-108.5 -73z" />
    <glyph glyph-name="quotesinglbase" unicode="&#x201a;" horiz-adv-x="204" 
d="M-54 -142l-4 14q33 13 58.5 40.5t32.5 50.5q0 8 1.5 11t-2 6.5t-5 4.5t-8 5t-11.5 8q-22 15 -22 41q0 21 17 35t38 14q23 0 39 -18t16 -48q0 -44 -41 -91.5t-109 -72.5z" />
    <glyph glyph-name="quotedblleft" unicode="&#x201c;" horiz-adv-x="360" 
d="M280 642l4 -14q-33 -13 -58.5 -40.5t-32.5 -50.5q0 -8 -1.5 -11t2 -6.5t5 -4.5t8 -5t11.5 -8q22 -17 22 -41q0 -21 -17 -35t-38 -14q-23 0 -39 17.5t-16 47.5q0 44 41 92t109 73zM439 642l5 -14q-34 -13 -59.5 -41t-31.5 -50q-2 -7 -2 -10.5t2.5 -7t4.5 -4.5t8.5 -5
t11.5 -8q21 -18 21 -41q0 -22 -17 -35.5t-38 -13.5q-23 0 -38.5 17.5t-15.5 47.5q0 44 40.5 92t108.5 73z" />
    <glyph glyph-name="quotedblright" unicode="&#x201d;" horiz-adv-x="363" 
d="M128 417l-5 14q34 13 59.5 41t31.5 50q2 7 2 10.5t-2.5 7t-4.5 4.5t-8.5 5t-11.5 8q-21 17 -21 41q0 22 17 35.5t38 13.5q23 0 38.5 -17.5t15.5 -47.5q0 -44 -40.5 -92t-108.5 -73zM287 417l-4 14q33 13 58.5 40.5t32.5 50.5q0 8 1.5 11t-2 6.5t-5 4.5t-8 5t-11.5 8
q-22 17 -22 41q0 21 17 35t38 14q23 0 39 -17.5t16 -47.5q0 -44 -41 -92t-109 -73z" />
    <glyph glyph-name="quotedblbase" unicode="&#x201e;" horiz-adv-x="363" 
d="M-53 -137l-4 14q33 13 58.5 40.5t32.5 50.5q0 8 1.5 11t-2 6.5t-5 4.5t-8 5t-11.5 8q-22 15 -22 41q0 21 17 35t38 14q23 0 39 -18t16 -48q0 -44 -41 -91.5t-109 -72.5zM107 -137l-5 14q34 13 59.5 40.5t31.5 50.5q2 7 2 10.5t-2.5 7t-4.5 4.5t-8.5 5t-11.5 8
q-21 16 -21 41q0 22 17 35.5t38 13.5q23 0 38.5 -18t15.5 -48q0 -44 -40.5 -91.5t-108.5 -72.5z" />
    <glyph glyph-name="dagger" unicode="&#x2020;" horiz-adv-x="413" 
d="M132 -1l78 334l49 59l15 56q-27 -1 -69.5 -23t-57.5 -22q-13 0 -19 17.5t0 42.5q6 17 24.5 30t33.5 13q12 0 40.5 -20.5t57.5 -18.5q7 23 0.5 63.5t1.5 61.5q5 15 23 27.5t36 12.5q15 0 21.5 -18t-0.5 -39q-4 -15 -34.5 -53t-37.5 -63q26 2 69 24.5t59 22.5q12 0 18 -17
t-1 -43q-6 -17 -23.5 -30t-32.5 -13t-42.5 22t-53.5 23l-15 -56l9 -59l-142 -334h-7z" />
    <glyph glyph-name="daggerdbl" unicode="&#x2021;" horiz-adv-x="413" 
d="M136 5q-15 0 -22 17.5t-1 38.5q5 15 35.5 53.5t37.5 63.5q-26 -2 -68.5 -25t-58.5 -23q-14 0 -20 17.5t1 42.5q6 17 24 30.5t33 13.5q14 0 41 -22t53 -23l19 56l-3 78l51 69l16 56q-27 -1 -69.5 -23t-57.5 -22q-13 0 -19 17.5t0 42.5q6 17 24.5 30t33.5 13
q12 0 40.5 -20.5t57.5 -18.5q7 23 0.5 63.5t1.5 61.5q5 15 23 27.5t36 12.5q15 0 21.5 -18t-0.5 -39q-4 -15 -34.5 -53t-37.5 -63q26 2 69 24.5t59 22.5q12 0 18 -17t-1 -43q-6 -17 -23.5 -30t-32.5 -13t-42.5 22t-53.5 23l-15 -56l5 -69l-54 -78l-15 -56q25 1 67 23t58 22
q12 0 18 -17.5t-1 -42.5q-6 -17 -23 -30.5t-32 -13.5q-14 0 -41.5 21t-55.5 19q-8 -24 -2.5 -64t-0.5 -61q-6 -15 -23.5 -27.5t-35.5 -12.5z" />
    <glyph glyph-name="bullet" unicode="&#x2022;" horiz-adv-x="247" 
d="M143 204q-29 0 -50 21t-21 50t21 50t50 21t50 -21t21 -50t-21 -50t-50 -21z" />
    <glyph glyph-name="ellipsis" unicode="&#x2026;" horiz-adv-x="556" 
d="M47 -10q-21 0 -36 14t-15 35t15 35t36 14t36.5 -14t15.5 -35t-15.5 -35t-36.5 -14zM223 -10q-21 0 -36 14t-15 35t15 35t36 14t36.5 -14t15.5 -35t-15.5 -35t-36.5 -14zM398 -10q-21 0 -36 14t-15 35t15 35t36 14t36.5 -14t15.5 -35t-15.5 -35t-36.5 -14z" />
    <glyph glyph-name="perthousand" unicode="&#x2030;" horiz-adv-x="994" 
d="M668 634l53 -4l-651 -630h-47l578 555q-41 -19 -86 -19q-56 0 -100 29v-2q0 -80 -77.5 -161.5t-156.5 -81.5q-32 0 -50 19t-18 53q0 80 77.5 159.5t161.5 79.5q32 0 48 -18q76 -52 134 -52q70 0 134 73zM214 347q54 0 116 79t62 136q0 21 -13 33t-35 12
q-52 0 -110.5 -81.5t-58.5 -140.5q0 -38 39 -38zM556 309q63 0 63 -67q0 -82 -77 -163t-157 -81q-31 0 -48.5 19t-17.5 53q0 81 77 160t160 79zM882 309q63 0 63 -67q0 -81 -77 -162.5t-156 -81.5q-31 0 -49 19t-18 53q0 81 77 160t160 79zM419 25q54 0 116 79t62 135
q0 22 -12.5 34t-34.5 12q-54 0 -111.5 -80.5t-57.5 -141.5q0 -38 38 -38zM745 25q54 0 116 79t62 135q0 46 -47 46q-54 0 -111.5 -80.5t-57.5 -141.5q0 -38 38 -38z" />
    <glyph glyph-name="guilsinglleft" unicode="&#x2039;" horiz-adv-x="253" 
d="M50 215l180 135l5 -12l-129 -123l50 -122l-10 -12z" />
    <glyph glyph-name="guilsinglright" unicode="&#x203a;" horiz-adv-x="251" 
d="M198 229l-180 -135l-4 12l129 123l-51 122l11 12z" />
    <glyph glyph-name="fraction" unicode="&#x2044;" horiz-adv-x="111" 
d="M-222 -5l597 641h25l-597 -641h-25z" />
    <glyph glyph-name="Euro" unicode="&#x20ac;" horiz-adv-x="683" 
d="M596 645q103 0 151 -54l-32 -131h-22q13 156 -115 156q-91 0 -166 -66t-116 -165h194l-13 -25h-191q-15 -40 -21 -82h171l-13 -25h-161q-2 -22 -2 -34q0 -89 45 -139t123 -50q101 0 171 57l4 -21q-39 -35 -98 -57t-123 -22q-99 0 -149 54.5t-50 154.5q0 32 4 57h-119
l13 25h110q9 41 24 82h-91l11 25h91q53 114 152.5 187t217.5 73z" />
    <glyph glyph-name="trademark" unicode="&#x2122;" horiz-adv-x="877" 
d="M216 299v17q42 4 50 12q9 9 9 32v250h-40q-37 0 -52.5 -17.5t-20.5 -56.5h-11l3 94h287l5 -94h-11q-7 40 -22 57t-52 17h-41l1 -250q0 -32 20 -39q8 -2 40 -5v-17h-165zM479 299v17q33 4 40 12q8 11 8 32v212q0 30 -23 37q-5 2 -26 6v15h88l119 -270l104 270h97v-15
q-34 -7 -41 -15q-7 -9 -7 -28l2 -212q0 -14 1.5 -22t9 -12.5t11 -5.5t17.5 -3q4 -1 6 -1v-17h-139v17q32 4 39 12q8 9 8 32l1 219l-113 -280h-19l-114 258l-3 -197q0 -6 1 -11t1.5 -9t3 -7t3.5 -5t5.5 -4t6 -2.5t7.5 -2t7.5 -1.5t9 -1t9.5 -1v-17h-120z" />
    <glyph glyph-name="oneeighth" unicode="&#x215b;" horiz-adv-x="573" 
d="M218 409l-3 -11h-110l3 11q35 4 40 25l49 149q4 10 1.5 19t-9.5 7l-17 -3l4 11l80 33l6 -6l-66 -209q-3 -13 1 -18.5t21 -7.5zM573 636h25l-597 -641h-25zM452 244q31 0 45 -18t6 -42q-10 -29 -47 -52q42 -23 27 -67q-11 -34 -43.5 -54.5t-72.5 -20.5q-38 0 -56.5 19
t-8.5 51q15 41 60 63q-17 23 -7 54q9 28 36.5 47.5t60.5 19.5zM474 183q7 15 0.5 29.5t-28.5 14.5q-38 0 -50 -36q-10 -28 25 -43l20 -9q25 17 33 44zM436 50q5 17 -1 26t-28 20l-22 10q-8 4 -11 7q-31 -18 -42 -50q-8 -25 3 -40.5t40 -15.5q47 0 61 43z" />
    <glyph glyph-name="threeeighths" unicode="&#x215c;" horiz-adv-x="722" 
d="M150 384q-21 0 -37 6t-16 18q0 10 6.5 15.5t14.5 5.5t17.5 -15.5t25.5 -15.5q29 0 53.5 25.5t24.5 54.5q0 35 -42 35q-16 0 -35 -7l-1 12l32 12q35 13 53.5 26.5t18.5 35.5q0 21 -29 21q-37 0 -66 -27l-6 8q44 47 98 47q46 0 46 -37q0 -42 -73 -72q52 -4 52 -45
q0 -39 -44 -71t-93 -32zM676 636h25l-597 -641h-25zM605 244q31 0 45 -18t6 -42q-10 -29 -47 -52q42 -23 27 -67q-11 -34 -43.5 -54.5t-72.5 -20.5q-38 0 -56.5 19t-8.5 51q15 41 60 63q-17 23 -7 54q9 28 36.5 47.5t60.5 19.5zM627 183q7 15 0.5 29.5t-28.5 14.5
q-38 0 -50 -36q-10 -28 25 -43l20 -9q25 17 33 44zM589 50q5 17 -1 26t-28 20l-22 10q-8 4 -11 7q-31 -18 -42 -50q-8 -25 3 -40.5t40 -15.5q47 0 61 43z" />
    <glyph glyph-name="fiveeighths" unicode="&#x215d;" horiz-adv-x="703" 
d="M152 390q-53 0 -53 24q0 8 6.5 14.5t14.5 6.5q9 0 18.5 -15.5t26.5 -15.5q27 0 51 25.5t24 53.5q0 43 -86 37l-4 8l72 112h60q35 0 47 12h8l-31 -49h-92l-32 -50q109 7 109 -50q0 -43 -44.5 -78t-94.5 -35zM656 636h25l-597 -641h-25zM584 244q31 0 45 -18t6 -42
q-10 -29 -47 -52q42 -23 27 -67q-11 -34 -43.5 -54.5t-72.5 -20.5q-38 0 -56.5 19t-8.5 51q15 41 60 63q-17 23 -7 54q9 28 36.5 47.5t60.5 19.5zM606 183q7 15 0.5 29.5t-28.5 14.5q-38 0 -50 -36q-10 -28 25 -43l20 -9q25 17 33 44zM568 50q5 17 -1 26t-28 20l-22 10
q-8 4 -11 7q-31 -18 -42 -50q-8 -25 3 -40.5t40 -15.5q47 0 61 43z" />
    <glyph glyph-name="seveneighths" unicode="&#x215e;" horiz-adv-x="663" 
d="M160 398h-29q56 95 163 213h-74q-18 0 -29 -5t-25 -24h-8l40 66l15 -4h120l2 -6q-113 -125 -175 -240zM631 636h25l-597 -641h-25zM559 244q31 0 45 -18t6 -42q-10 -29 -47 -52q42 -23 27 -67q-11 -34 -43.5 -54.5t-72.5 -20.5q-38 0 -56.5 19t-8.5 51q15 41 60 63
q-17 23 -7 54q9 28 36.5 47.5t60.5 19.5zM581 183q7 15 0.5 29.5t-28.5 14.5q-38 0 -50 -36q-10 -28 25 -43l20 -9q25 17 33 44zM543 50q5 17 -1 26t-28 20l-22 10q-8 4 -11 7q-31 -18 -42 -50q-8 -25 3 -40.5t40 -15.5q47 0 61 43z" />
    <glyph glyph-name="partialdiff" unicode="&#x2202;" horiz-adv-x="550" 
d="M211 -12q-77 0 -121.5 43t-44.5 111q0 55 22 103t60 80.5t84.5 51t99 17t99.5 -24.5l-7 -20q-113 25 -195 -39t-82 -172q0 -52 26 -82.5t77 -30.5q66 0 122.5 59.5t86.5 141.5t30 159q0 103 -55.5 164t-136.5 68l24 20q105 -6 174.5 -83t69.5 -191q0 -92 -45.5 -178.5
t-123 -141.5t-164.5 -55z" />
    <glyph glyph-name="emptyset" unicode="&#x2205;" horiz-adv-x="531" 
d="M561 429l-75 -57q37 -65 9 -152q-31 -95 -119 -162t-183 -67q-86 0 -132 57l-73 -55l-9 18l70 53q-39 66 -10 156q31 95 119.5 161.5t182.5 66.5q89 0 134 -60l75 57zM64 220q-25 -81 8 -138l381 289q-41 52 -118 52q-84 0 -164 -59.5t-107 -143.5zM471 220q25 77 -7 135
l-380 -289q40 -50 116 -50q84 0 164 59.5t107 144.5z" />
    <glyph glyph-name="product" unicode="&#x220f;" horiz-adv-x="534" 
d="M665 800l-325 -1000h-35l314 965h-346l-316 -965h-33l325 1000h416z" />
    <glyph glyph-name="summation" unicode="&#x2211;" horiz-adv-x="548" 
d="M679 800l-12 -35h-389l155 -466l-445 -464h378l-11 -35h-430l11 35l441 467l-140 463l12 35h430z" />
    <glyph glyph-name="minus" unicode="&#x2212;" horiz-adv-x="430" 
d="M54 234l11 35h333l-11 -35h-333z" />
    <glyph glyph-name="radical" unicode="&#x221a;" horiz-adv-x="684" 
d="M151 -185l-50 327q-6 39 -17.5 54t-43.5 29l11 26h91l58 -318l573 868h95l-8 -24q-48 -13 -65.5 -26t-42.5 -52z" />
    <glyph glyph-name="infinity" unicode="&#x221e;" horiz-adv-x="634" 
d="M148 83q-43 0 -68 28t-25 82q0 92 61 177t140 85q76 0 104 -94q74 93 157 93q45 0 71.5 -26.5t26.5 -77.5q0 -91 -60 -179.5t-140 -88.5q-78 0 -106 95q-72 -94 -161 -94zM160 155q27 0 61 25.5t66 74.5l44 73q-19 63 -83 63q-66 0 -115 -54.5t-49 -111.5q0 -70 76 -70z
M412 146q72 0 122.5 55t50.5 114q0 36 -20.5 51.5t-47.5 15.5q-70 0 -136 -99l-43 -74q19 -63 74 -63z" />
    <glyph glyph-name="integral" unicode="&#x222b;" horiz-adv-x="483" 
d="M-104 -175q-30 0 -42 12.5t-13 37.5q20 37 59 46q-1 -26 12 -41t38 -15q33 0 73 36t76 122l180 412q54 125 128.5 187.5t159.5 62.5q31 0 44 -12.5t12 -37.5q-19 -38 -60 -46q3 26 -10 41t-40 15q-31 0 -71 -36t-77 -122l-183 -421q-104 -241 -286 -241z" />
    <glyph glyph-name="approxequal" unicode="&#x2248;" horiz-adv-x="452" 
d="M316 285q-29 0 -48 10.5t-27 23.5t-22.5 23.5t-34.5 10.5q-29 0 -49 -14.5t-27 -32.5l-14 9q4 37 42.5 63.5t88.5 26.5q28 0 46.5 -11t26.5 -23.5t23.5 -23.5t36.5 -11q29 0 49 15t25 32l14 -8q-4 -37 -42.5 -63.5t-87.5 -26.5zM258 115q-29 0 -48 10.5t-27.5 23.5
t-22.5 23.5t-34 10.5q-30 0 -49.5 -14.5t-26.5 -32.5l-14 9q4 37 42.5 63.5t88.5 26.5q28 0 46.5 -11t26.5 -23.5t23 -23.5t36 -11q29 0 49 14.5t26 32.5l14 -8q-4 -37 -42.5 -63.5t-87.5 -26.5z" />
    <glyph glyph-name="notequal" unicode="&#x2260;" horiz-adv-x="431" 
d="M418 324h-139l-60 -145h152l-11 -35h-156l-60 -144h-39l60 144h-138l11 35h142l60 145h-155l11 35h159l57 137h39l-57 -137h135z" />
    <glyph glyph-name="lessequal" unicode="&#x2264;" horiz-adv-x="655" 
d="M497 142q-226 115 -382 172l-13 35q135 67 271 170l11 -22q-109 -91 -270 -161q238 -88 371 -162zM530 13h-333l-10 35h333z" />
    <glyph glyph-name="greaterequal" unicode="&#x2265;" horiz-adv-x="456" 
d="M31 142l13 32q129 72 371 162q-161 70 -270 161l11 22q136 -103 271 -170l-14 -35q-159 -59 -382 -172zM-2 13l11 35h333l-11 -35h-333z" />
    <glyph glyph-name="lozenge" unicode="&#x25ca;" horiz-adv-x="600" 
d="M224 -18l-144 328l358 329l145 -329zM243 40l295 270l-118 271l-296 -271z" />
    <glyph glyph-name="M.ss01" horiz-adv-x="735" 
d="M834 630l-7 -18q-24 -5 -34.5 -8t-24.5 -11.5t-23 -23t-17 -39.5l-139 -428q-6 -20 -7 -33.5t1 -21t12.5 -13t16.5 -7.5t24 -6l-5 -21h-221l7 18q25 5 35 8t25.5 11.5t24.5 23.5t16 39l142 441l-368 -541h-27l-31 497l-129 -395q-6 -20 -6.5 -33.5t1.5 -21t13.5 -13
t18.5 -7.5t27 -6l-5 -21h-191l10 18q24 5 34.5 8t25 11.5t23 23.5t16.5 39l144 437q3 10 4 18t2 14.5t-1 12t-3 9t-6 6.5t-6.5 4.5t-9 4t-10 3t-12 2.5t-12.5 3l7 16h133q-1 -19 -1 -26t2 -26t3 -28l30 -444l296 447q30 41 47 77h155z" />
    <glyph glyph-name="W.ss01" horiz-adv-x="866" 
d="M811 630h166l-9 -18q-40 -8 -55 -17t-39 -42l-389 -560h-33l-13 248l-173 -248h-31l-29 554q-1 34 -12 46.5t-44 20.5l6 16h602l-7 -18q-40 -8 -56.5 -17t-39.5 -42l-144 -207l12 -254l315 463q6 8 9 15t4.5 12t-1.5 9t-3.5 6.5t-7.5 5t-9.5 3.5t-12.5 3.5t-12 3.5z
M306 95l130 190l-14 262q-2 36 -13 50.5t-45 14.5q-33 0 -57 -14.5t-22 -45.5zM583 612q-34 0 -58.5 -14.5t-22.5 -45.5l7 -160l112 163q40 57 -38 57z" />
    <glyph glyph-name="i.loclTRK" horiz-adv-x="253" 
d="M236 563q-18 0 -31.5 12.5t-13.5 29.5q0 18 13.5 31t31.5 13q17 0 30.5 -13t13.5 -31q0 -17 -13.5 -29.5t-30.5 -12.5zM195 155l13 -15q-91 -150 -143 -150q-18 0 -30.5 15.5t-2.5 38.5l109 280q21 51 4 47q-22 -4 -90 -99l-11 15q92 150 146 150q20 0 30 -15t1 -39
l-112 -280q-21 -51 -3 -47q25 6 89 99z" />
    <glyph glyph-name="T_h" horiz-adv-x="972" 
d="M915 439q29 0 42 -18t11 -60q-3 -64 -42 -152.5t-91.5 -153t-91.5 -64.5q-15 0 -31.5 12t-16.5 34q0 17 9 26t20 9q17 0 25.5 -12.5t12.5 -25.5t9 -13q33 0 80 120.5t51 178.5q3 67 -37 67q-59 0 -148 -121.5t-138 -265.5h-53l159 468q47 136 -80 136h-115l-162 -502
q-16 -47 -0.5 -62.5t71.5 -23.5l-2 -16h-261l3 17q57 8 80 22t38 61l164 504h-102q-70 0 -105.5 -32.5t-71.5 -108.5h-16l64 177l39 -10h441l120 29l10 -15l-125 -366l-18 -62l8 1q60 119 127 170.5t123 51.5z" />
    <glyph glyph-name="f_b" horiz-adv-x="766" 
d="M678 439q39 0 60 -26.5t21 -74.5q0 -73 -46 -154.5t-118 -137t-140 -55.5q-56 0 -84.5 39.5t-10.5 93.5l174 506q0 56 -65 56q-142 0 -188 -164l-26 -92h110l-12 -35l-106 6l-91 -318q-39 -136 -94 -202.5t-132 -66.5q-40 0 -63 20t-23 43q0 16 11 26t28 10
q20 0 28.5 -15t7.5 -29q-2 -32 31 -32q40 0 67 34t51 119l119 414l-99 6l5 20h101q80 278 271 278q55 0 91.5 -23.5t33.5 -54.5l-116 -336q103 145 204 145zM463 14q51 0 106 55.5t89.5 130t34.5 130.5q0 62 -52 62q-46 0 -97.5 -44t-90.5 -115l-39 -111q-16 -41 -2 -74.5
t51 -33.5z" />
    <glyph glyph-name="f_h" horiz-adv-x="771" 
d="M714 439q30 0 42.5 -18t10.5 -60q-3 -64 -41.5 -152.5t-91 -153t-91.5 -64.5q-15 0 -32 12t-17 34q0 17 9 26t20 9q17 0 26 -12.5t13 -25.5t9 -13q33 0 79.5 120.5t50.5 178.5q3 67 -37 67q-59 0 -148 -121.5t-138 -265.5h-57l213 630q0 56 -65 56q-22 0 -42.5 -5
t-49.5 -19.5t-54 -50.5t-40 -89l-27 -92h111l-13 -35l-106 6l-92 -318q-39 -136 -94 -202.5t-132 -66.5q-43 0 -64.5 19t-21.5 42q0 17 11 27.5t28 10.5q20 0 28.5 -15t7.5 -29q-2 -32 31 -32q39 0 66 33.5t52 119.5l120 414l-98 6l4 20h101q81 278 271 278q55 0 91.5 -23.5
t36.5 -54.5l-119 -352l-19 -62l9 1q60 119 126.5 170.5t122.5 51.5z" />
    <glyph glyph-name="f_j" horiz-adv-x="521" 
d="M574 633h-1v-5q0 -17 -12 -28.5t-29 -11.5t-29 11.5t-12 28.5q0 5 1 8h-1q12 32 8 41t-27 9q-16 0 -33.5 -3t-41.5 -13.5t-44.5 -27.5t-40 -48t-31.5 -72l-26 -92h105l-14 -35l-99 6l-91 -318q-39 -136 -94 -202.5t-132 -66.5q-43 0 -64.5 19t-21.5 42q0 17 11 27.5
t28 10.5q20 0 28.5 -15t7.5 -29q-2 -32 31 -32q39 0 66 33.5t52 119.5l119 415l-105 6l5 19h107q23 79 57 136.5t70.5 86.5t70 42t65.5 13q46 0 79 -21.5t38 -53.5zM487 435q16 0 24.5 -14.5t1.5 -35.5l-96 -307q-16 -49 -28 -81t-30 -67.5t-36.5 -56.5t-45 -34.5
t-57.5 -13.5q-42 0 -64.5 20t-22.5 49q0 23 13 34.5t30 11.5q21 0 30.5 -17.5t4.5 -43.5q-6 -32 23 -32q31 0 50.5 32.5t48.5 120.5l105 322q24 74 -15 36q-24 -25 -70 -88l-11 15q46 75 83.5 112.5t61.5 37.5z" />
    <glyph glyph-name="f_k" horiz-adv-x="767" 
d="M466 708q55 0 91.5 -23.5t36.5 -54.5l-213 -630h-57l210 630q0 56 -65 56q-138 0 -184 -164l-27 -92h110l-14 -35l-104 6l-92 -318q-39 -136 -95 -202.5t-133 -66.5q-40 0 -63 20t-23 43q0 16 11 26t28 10q20 0 28.5 -15t7.5 -29q-2 -32 31 -32q40 0 67.5 34t52.5 119
l121 415l-101 6l4 19h104q80 278 268 278zM801 413q-73 -8 -170 -82l-95 -70l57 -188q12 -39 47 -42t61 25l2 -18q-47 -48 -84 -48q-30 0 -50.5 22t-29.5 52l-54 187l112 77q77 54 48 76q-9 7 -31 9l8 17h188z" />
    <glyph glyph-name="t_t" horiz-adv-x="557" 
d="M491 401l-126 -333q-4 -11 7 -8q30 8 100 76l34 35l6 -17q-139 -163 -186 -163q-18 0 -25.5 18.5t1.5 44.5l126 341h-132l-78 5l-126 -332q-4 -11 7 -8q30 8 100 76l34 35l6 -17q-140 -163 -187 -163q-18 0 -25.5 18.5t1.5 44.5l130 351l-77 5l5 20h82l39 105l65 8
l-43 -113h212l39 105l65 8l-43 -113h80l-12 -35z" />
    <glyph glyph-name="a.sc" horiz-adv-x="598" 
d="M471 83q3 -34 14 -46t42 -19l-5 -18h-218l6 18q21 4 29.5 6.5t21 8.5t16.5 17t3 28l-10 119l-7 -26h-199l-73 -100q-11 -16 -13.5 -26t6 -15t15 -6.5t23.5 -3.5q5 -1 8 -1l-6 -19h-167l6 18q6 1 19 4.5t16 4.5t12 4.5t12.5 6t10.5 8t12.5 12.5t12.5 17l334 455h34z
M184 199h186l-19 230z" />
    <glyph glyph-name="aacute.sc" horiz-adv-x="598" 
d="M510 722q-12 -8 -23 -17.5t-24.5 -24t-20.5 -21.5t-24.5 -27.5t-22.5 -25.5l-14 12q35 97 69 145q16 0 35.5 -14.5t24.5 -26.5zM471 83q3 -34 14 -46t42 -19l-5 -18h-218l6 18q21 4 29.5 6.5t21 8.5t16.5 17t3 28l-10 119l-7 -26h-199l-73 -100q-11 -16 -13.5 -26t6 -15
t15 -6.5t23.5 -3.5q5 -1 8 -1l-6 -19h-167l6 18q6 1 19 4.5t16 4.5t12 4.5t12.5 6t10.5 8t12.5 12.5t12.5 17l334 455h34zM184 199h186l-19 230z" />
    <glyph glyph-name="abreve.sc" horiz-adv-x="598" 
d="M567 774h13q-18 -57 -56.5 -91t-95.5 -34t-74 38.5t2 85.5h13q-5 -36 10 -52t57 -17q55 -1 84 17.5t47 52.5zM471 83q3 -34 14 -46t42 -19l-5 -18h-218l6 18q21 4 29.5 6.5t21 8.5t16.5 17t3 28l-10 119l-7 -26h-199l-73 -100q-11 -16 -13.5 -26t6 -15t15 -6.5t23.5 -3.5
q5 -1 8 -1l-6 -19h-167l6 18q6 1 19 4.5t16 4.5t12 4.5t12.5 6t10.5 8t12.5 12.5t12.5 17l334 455h34zM184 199h186l-19 230z" />
    <glyph glyph-name="acircumflex.sc" horiz-adv-x="598" 
d="M470 776l70 -155l-13 -7l-79 98l-143 -98l-8 9zM471 83q3 -34 14 -46t42 -19l-5 -18h-218l6 18q21 4 29.5 6.5t21 8.5t16.5 17t3 28l-10 119l-7 -26h-199l-73 -100q-11 -16 -13.5 -26t6 -15t15 -6.5t23.5 -3.5q5 -1 8 -1l-6 -19h-167l6 18q6 1 19 4.5t16 4.5t12 4.5
t12.5 6t10.5 8t12.5 12.5t12.5 17l334 455h34zM184 199h186l-19 230z" />
    <glyph glyph-name="adieresis.sc" horiz-adv-x="598" 
d="M320 672q-17 0 -28 11t-11 28q0 18 11 29t28 11q18 0 29 -11t11 -29q0 -17 -11 -28t-29 -11zM500 751q18 0 29 -11t11 -29q0 -17 -11 -28t-29 -11q-17 0 -28 11t-11 28q0 18 11 29t28 11zM471 83q3 -34 14 -46t42 -19l-5 -18h-218l6 18q21 4 29.5 6.5t21 8.5t16.5 17
t3 28l-10 119l-7 -26h-199l-73 -100q-11 -16 -13.5 -26t6 -15t15 -6.5t23.5 -3.5q5 -1 8 -1l-6 -19h-167l6 18q6 1 19 4.5t16 4.5t12 4.5t12.5 6t10.5 8t12.5 12.5t12.5 17l334 455h34zM184 199h186l-19 230z" />
    <glyph glyph-name="agrave.sc" horiz-adv-x="598" 
d="M393 606q-5 5 -22.5 25.5t-24.5 27.5t-20.5 21.5t-24.5 24t-23 17.5q6 12 26 26.5t35 14.5q34 -48 69 -145zM471 83q3 -34 14 -46t42 -19l-5 -18h-218l6 18q21 4 29.5 6.5t21 8.5t16.5 17t3 28l-10 119l-7 -26h-199l-73 -100q-11 -16 -13.5 -26t6 -15t15 -6.5t23.5 -3.5
q5 -1 8 -1l-6 -19h-167l6 18q6 1 19 4.5t16 4.5t12 4.5t12.5 6t10.5 8t12.5 12.5t12.5 17l334 455h34zM184 199h186l-19 230z" />
    <glyph glyph-name="amacron.sc" horiz-adv-x="598" 
d="M309 727h280l-15 -30h-280zM471 83q3 -34 14 -46t42 -19l-5 -18h-218l6 18q21 4 29.5 6.5t21 8.5t16.5 17t3 28l-10 119l-7 -26h-199l-73 -100q-11 -16 -13.5 -26t6 -15t15 -6.5t23.5 -3.5q5 -1 8 -1l-6 -19h-167l6 18q6 1 19 4.5t16 4.5t12 4.5t12.5 6t10.5 8t12.5 12.5
t12.5 17l334 455h34zM184 199h186l-19 230z" />
    <glyph glyph-name="aogonek.sc" horiz-adv-x="598" 
d="M471 83q3 -34 14 -46t42 -19l-5 -18h-89q-54 -28 -81.5 -53.5t-27.5 -61.5q0 -45 45 -45q17 0 61 13l-7 -16q-41 -36 -91 -36q-35 0 -57 17t-22 52q0 39 31 73l94 57h-74l6 18q21 4 29.5 6.5t21 8.5t16.5 17t3 28l-10 119l-7 -26h-199l-73 -100q-11 -16 -13.5 -26t6 -15
t15 -6.5t23.5 -3.5q5 -1 8 -1l-6 -19h-167l6 18q6 1 19 4.5t16 4.5t12 4.5t12.5 6t10.5 8t12.5 12.5t12.5 17l334 455h34zM184 199h186l-19 230z" />
    <glyph glyph-name="aring.sc" horiz-adv-x="598" 
d="M445 629q-34 0 -57.5 24t-23.5 58t23.5 58t57.5 24t58 -24t24 -58t-24 -58t-58 -24zM445 764q-21 0 -36 -16t-15 -37t15 -37t36 -16t36.5 16t15.5 37t-15.5 37t-36.5 16zM471 83q3 -34 14 -46t42 -19l-5 -18h-218l6 18q21 4 29.5 6.5t21 8.5t16.5 17t3 28l-10 119l-7 -26
h-199l-73 -100q-11 -16 -13.5 -26t6 -15t15 -6.5t23.5 -3.5q5 -1 8 -1l-6 -19h-167l6 18q6 1 19 4.5t16 4.5t12 4.5t12.5 6t10.5 8t12.5 12.5t12.5 17l334 455h34zM184 199h186l-19 230z" />
    <glyph glyph-name="atilde.sc" horiz-adv-x="598" 
d="M580 726l11 -8q-4 -36 -35.5 -61t-71.5 -25q-23 0 -39.5 11t-23.5 23.5t-20.5 23.5t-31.5 11q-23 0 -39 -13.5t-20 -29.5l-12 8q4 36 37 61t72 25q23 0 38.5 -11t21.5 -23.5t18.5 -23.5t30.5 -11q24 0 41 13.5t23 29.5zM471 83q3 -34 14 -46t42 -19l-5 -18h-218l6 18
q21 4 29.5 6.5t21 8.5t16.5 17t3 28l-10 119l-7 -26h-199l-73 -100q-11 -16 -13.5 -26t6 -15t15 -6.5t23.5 -3.5q5 -1 8 -1l-6 -19h-167l6 18q6 1 19 4.5t16 4.5t12 4.5t12.5 6t10.5 8t12.5 12.5t12.5 17l334 455h34zM184 199h186l-19 230z" />
    <glyph glyph-name="ae.sc" horiz-adv-x="834" 
d="M849 530l-31 -127h-22q11 46 -2.5 71t-63.5 25h-79q-56 0 -77.5 -14.5t-39.5 -65.5l-44 -136h89q69 0 96 17.5t45 60.5h16l-58 -182h-18q9 45 -7 59.5t-87 14.5h-86l-48 -149q-8 -27 -9.5 -41t8.5 -21.5t24.5 -9t46.5 -1.5h61q55 0 94.5 24t84.5 82h22l-86 -137h-429
l4 18q25 5 35.5 8t26 11.5t25.5 23.5t18 39l34 107h-187l-113 -136q-8 -10 -12.5 -18t-3 -13.5t2.5 -8.5t9.5 -5.5t11.5 -3t15.5 -2t14.5 -1.5l-6 -19h-167l6 18q32 7 42 9.5t26 14t33 33.5l110 132h-1l2 1l251 303q-3 0 -11 2l4 17h430zM401 234l65 203q18 54 -14 67
l-224 -270h173z" />
    <glyph glyph-name="b.sc" horiz-adv-x="562" 
d="M548 439q0 -59 -44.5 -99.5t-115.5 -60.5q111 -25 111 -106q0 -58 -40.5 -98t-104.5 -57.5t-146 -17.5h-239l4 18q24 5 34.5 8t26 11.5t25 23.5t17.5 39l108 337q7 23 8.5 36t-7 21t-17.5 11t-33 9l3 16h246q164 0 164 -91zM302 291q69 0 116.5 43.5t47.5 103.5
q0 61 -114 61q-47 -1 -64 -13t-28 -40l-50 -155h92zM415 170q0 41 -34.5 67t-110.5 26h-69l-51 -159q-12 -45 3 -59t78 -14q76 0 130 40t54 99z" />
    <glyph glyph-name="c.sc" horiz-adv-x="564" 
d="M247 -12q-91 0 -141.5 48t-50.5 131q0 146 118.5 260.5t269.5 114.5q51 0 96.5 -16t68.5 -38q-32 -109 -37 -131h-28q15 72 -23.5 113t-111.5 41q-70 0 -131.5 -51t-95.5 -125t-34 -146q0 -76 43 -117t111 -41q37 0 90 14t89 43l6 -21q-41 -34 -108 -56.5t-131 -22.5z
" />
    <glyph glyph-name="cacute.sc" horiz-adv-x="564" 
d="M391 606l-14 12q35 97 69 145q16 0 35.5 -14.5t24.5 -26.5q-12 -8 -23 -17.5t-24.5 -24t-20.5 -21.5t-24.5 -27.5t-22.5 -25.5zM247 -12q-91 0 -141.5 48t-50.5 131q0 146 118.5 260.5t269.5 114.5q51 0 96.5 -16t68.5 -38q-32 -109 -37 -131h-28q15 72 -23.5 113
t-111.5 41q-70 0 -131.5 -51t-95.5 -125t-34 -146q0 -76 43 -117t111 -41q37 0 90 14t89 43l6 -21q-41 -34 -108 -56.5t-131 -22.5z" />
    <glyph glyph-name="ccaron.sc" horiz-adv-x="564" 
d="M411 615l-70 155l14 7l78 -98l143 98l8 -8zM247 -12q-91 0 -141.5 48t-50.5 131q0 146 118.5 260.5t269.5 114.5q51 0 96.5 -16t68.5 -38q-32 -109 -37 -131h-28q15 72 -23.5 113t-111.5 41q-70 0 -131.5 -51t-95.5 -125t-34 -146q0 -76 43 -117t111 -41q37 0 90 14
t89 43l6 -21q-41 -34 -108 -56.5t-131 -22.5z" />
    <glyph glyph-name="ccedilla.sc" horiz-adv-x="564" 
d="M443 542q51 0 96.5 -16t68.5 -38q-32 -109 -37 -131h-28q15 72 -23.5 113t-111.5 41q-70 0 -131.5 -51t-95.5 -125t-34 -146q0 -76 43 -117t111 -41q37 0 90 14t89 43l6 -21q-41 -34 -108 -56.5t-131 -22.5h-8l-23 -43q44 0 70.5 -20t26.5 -53q0 -35 -34 -59.5
t-112 -24.5l5 19q43 0 67 13.5t24 34.5q0 47 -105 47l45 89q-71 11 -109.5 57.5t-38.5 118.5q0 146 118.5 260.5t269.5 114.5z" />
    <glyph glyph-name="cdotaccent.sc" horiz-adv-x="564" 
d="M436 663q-18 0 -31.5 12.5t-13.5 29.5q0 18 13.5 31t31.5 13q17 0 30.5 -13t13.5 -31q0 -17 -13.5 -29.5t-30.5 -12.5zM247 -12q-91 0 -141.5 48t-50.5 131q0 146 118.5 260.5t269.5 114.5q51 0 96.5 -16t68.5 -38q-32 -109 -37 -131h-28q15 72 -23.5 113t-111.5 41
q-70 0 -131.5 -51t-95.5 -125t-34 -146q0 -76 43 -117t111 -41q37 0 90 14t89 43l6 -21q-41 -34 -108 -56.5t-131 -22.5z" />
    <glyph glyph-name="d.sc" horiz-adv-x="611" 
d="M362 530q105 0 168 -46.5t63 -131.5q0 -98 -57 -180t-149.5 -127t-198.5 -45h-220l5 17q31 6 45.5 11t31 22.5t27.5 49.5l108 337q13 40 1.5 53t-53.5 23l3 17h226zM231 32q117 0 200.5 103.5t83.5 231.5q0 131 -174 131h-61l-121 -373q-20 -51 -4.5 -72t76.5 -21z" />
    <glyph glyph-name="dcaron.sc" horiz-adv-x="611" 
d="M586 769l-173 -154l-70 155l14 7l78 -98l143 98zM362 530q105 0 168 -46.5t63 -131.5q0 -98 -57 -180t-149.5 -127t-198.5 -45h-220l5 17q31 6 45.5 11t31 22.5t27.5 49.5l108 337q13 40 1.5 53t-53.5 23l3 17h226zM231 32q117 0 200.5 103.5t83.5 231.5q0 131 -174 131
h-61l-121 -373q-20 -51 -4.5 -72t76.5 -21z" />
    <glyph glyph-name="e.sc" horiz-adv-x="554" 
d="M139 530h430l-31 -127h-22q11 47 -3 71.5t-63 24.5h-79q-56 0 -77.5 -14.5t-40.5 -65.5l-44 -136h89q69 0 96.5 17.5t45.5 60.5h16l-58 -182h-18q9 45 -7 59.5t-87 14.5h-86l-48 -149q-8 -27 -9.5 -41t8 -21.5t24 -9t46.5 -1.5h61q55 0 95 24t85 82h22l-86 -137h-429
l4 18q25 5 35.5 8t26 11.5t25.5 23.5t18 39l108 337q4 12 5.5 22t2 16.5t-3.5 12t-5.5 8.5t-9.5 6t-11 4t-14.5 3.5t-14.5 3.5z" />
    <glyph glyph-name="eacute.sc" horiz-adv-x="554" 
d="M485 722q-12 -8 -23 -17.5t-24.5 -24t-20.5 -21.5t-24.5 -27.5t-22.5 -25.5l-14 12q35 97 69 145q16 0 35.5 -14.5t24.5 -26.5zM139 530h430l-31 -127h-22q11 47 -3 71.5t-63 24.5h-79q-56 0 -77.5 -14.5t-40.5 -65.5l-44 -136h89q69 0 96.5 17.5t45.5 60.5h16l-58 -182
h-18q9 45 -7 59.5t-87 14.5h-86l-48 -149q-8 -27 -9.5 -41t8 -21.5t24 -9t46.5 -1.5h61q55 0 95 24t85 82h22l-86 -137h-429l4 18q25 5 35.5 8t26 11.5t25.5 23.5t18 39l108 337q4 12 5.5 22t2 16.5t-3.5 12t-5.5 8.5t-9.5 6t-11 4t-14.5 3.5t-14.5 3.5z" />
    <glyph glyph-name="ecaron.sc" horiz-adv-x="554" 
d="M562 769l-173 -154l-70 155l14 7l78 -98l143 98zM139 530h430l-31 -127h-22q11 47 -3 71.5t-63 24.5h-79q-56 0 -77.5 -14.5t-40.5 -65.5l-44 -136h89q69 0 96.5 17.5t45.5 60.5h16l-58 -182h-18q9 45 -7 59.5t-87 14.5h-86l-48 -149q-8 -27 -9.5 -41t8 -21.5t24 -9
t46.5 -1.5h61q55 0 95 24t85 82h22l-86 -137h-429l4 18q25 5 35.5 8t26 11.5t25.5 23.5t18 39l108 337q4 12 5.5 22t2 16.5t-3.5 12t-5.5 8.5t-9.5 6t-11 4t-14.5 3.5t-14.5 3.5z" />
    <glyph glyph-name="ecircumflex.sc" horiz-adv-x="554" 
d="M422 712l-143 -98l-8 9l173 153l70 -155l-13 -7zM139 530h430l-31 -127h-22q11 47 -3 71.5t-63 24.5h-79q-56 0 -77.5 -14.5t-40.5 -65.5l-44 -136h89q69 0 96.5 17.5t45.5 60.5h16l-58 -182h-18q9 45 -7 59.5t-87 14.5h-86l-48 -149q-8 -27 -9.5 -41t8 -21.5t24 -9
t46.5 -1.5h61q55 0 95 24t85 82h22l-86 -137h-429l4 18q25 5 35.5 8t26 11.5t25.5 23.5t18 39l108 337q4 12 5.5 22t2 16.5t-3.5 12t-5.5 8.5t-9.5 6t-11 4t-14.5 3.5t-14.5 3.5z" />
    <glyph glyph-name="edieresis.sc" horiz-adv-x="554" 
d="M294 672q-17 0 -28 11t-11 28q0 18 11 29t28 11q18 0 29 -11t11 -29q0 -17 -11 -28t-29 -11zM474 672q-17 0 -28 11t-11 28q0 18 11 29t28 11q18 0 29 -11t11 -29q0 -17 -11 -28t-29 -11zM139 530h430l-31 -127h-22q11 47 -3 71.5t-63 24.5h-79q-56 0 -77.5 -14.5
t-40.5 -65.5l-44 -136h89q69 0 96.5 17.5t45.5 60.5h16l-58 -182h-18q9 45 -7 59.5t-87 14.5h-86l-48 -149q-8 -27 -9.5 -41t8 -21.5t24 -9t46.5 -1.5h61q55 0 95 24t85 82h22l-86 -137h-429l4 18q25 5 35.5 8t26 11.5t25.5 23.5t18 39l108 337q4 12 5.5 22t2 16.5t-3.5 12
t-5.5 8.5t-9.5 6t-11 4t-14.5 3.5t-14.5 3.5z" />
    <glyph glyph-name="edotaccent.sc" horiz-adv-x="554" 
d="M415 663q-18 0 -31.5 12.5t-13.5 29.5q0 18 13.5 31t31.5 13q17 0 30.5 -13t13.5 -31q0 -17 -13.5 -29.5t-30.5 -12.5zM139 530h430l-31 -127h-22q11 47 -3 71.5t-63 24.5h-79q-56 0 -77.5 -14.5t-40.5 -65.5l-44 -136h89q69 0 96.5 17.5t45.5 60.5h16l-58 -182h-18
q9 45 -7 59.5t-87 14.5h-86l-48 -149q-8 -27 -9.5 -41t8 -21.5t24 -9t46.5 -1.5h61q55 0 95 24t85 82h22l-86 -137h-429l4 18q25 5 35.5 8t26 11.5t25.5 23.5t18 39l108 337q4 12 5.5 22t2 16.5t-3.5 12t-5.5 8.5t-9.5 6t-11 4t-14.5 3.5t-14.5 3.5z" />
    <glyph glyph-name="egrave.sc" horiz-adv-x="554" 
d="M367 606q-5 5 -22.5 25.5t-24.5 27.5t-20.5 21.5t-24.5 24t-23 17.5q6 12 26 26.5t35 14.5q34 -48 69 -145zM139 530h430l-31 -127h-22q11 47 -3 71.5t-63 24.5h-79q-56 0 -77.5 -14.5t-40.5 -65.5l-44 -136h89q69 0 96.5 17.5t45.5 60.5h16l-58 -182h-18q9 45 -7 59.5
t-87 14.5h-86l-48 -149q-8 -27 -9.5 -41t8 -21.5t24 -9t46.5 -1.5h61q55 0 95 24t85 82h22l-86 -137h-429l4 18q25 5 35.5 8t26 11.5t25.5 23.5t18 39l108 337q4 12 5.5 22t2 16.5t-3.5 12t-5.5 8.5t-9.5 6t-11 4t-14.5 3.5t-14.5 3.5z" />
    <glyph glyph-name="emacron.sc" horiz-adv-x="554" 
d="M563 727l-15 -30h-280l15 30h280zM139 530h430l-31 -127h-22q11 47 -3 71.5t-63 24.5h-79q-56 0 -77.5 -14.5t-40.5 -65.5l-44 -136h89q69 0 96.5 17.5t45.5 60.5h16l-58 -182h-18q9 45 -7 59.5t-87 14.5h-86l-48 -149q-8 -27 -9.5 -41t8 -21.5t24 -9t46.5 -1.5h61
q55 0 95 24t85 82h22l-86 -137h-429l4 18q25 5 35.5 8t26 11.5t25.5 23.5t18 39l108 337q4 12 5.5 22t2 16.5t-3.5 12t-5.5 8.5t-9.5 6t-11 4t-14.5 3.5t-14.5 3.5z" />
    <glyph glyph-name="eogonek.sc" horiz-adv-x="554" 
d="M139 530h430l-31 -127h-22q11 47 -3 71.5t-63 24.5h-79q-56 0 -77.5 -14.5t-40.5 -65.5l-44 -136h89q69 0 96.5 17.5t45.5 60.5h16l-58 -182h-18q9 45 -7 59.5t-87 14.5h-86l-48 -149q-8 -27 -9.5 -41t8 -21.5t24 -9t46.5 -1.5h61q55 0 95 24t85 82h22l-86 -137h-40
q-54 -28 -81.5 -53.5t-27.5 -61.5q0 -45 45 -45q17 0 61 13l-7 -16q-41 -36 -91 -36q-35 0 -57 17t-22 52q0 39 31 73l94 57h-334l4 18q25 5 35.5 8t26 11.5t25.5 23.5t18 39l108 337q4 12 5.5 22t2 16.5t-3.5 12t-5.5 8.5t-9.5 6t-11 4t-14.5 3.5t-14.5 3.5z" />
    <glyph glyph-name="uni1EBD.sc" horiz-adv-x="554" 
d="M344 701q-23 0 -39 -13.5t-20 -29.5l-12 8q4 36 37 61t72 25q23 0 38.5 -11t21.5 -23.5t18.5 -23.5t30.5 -11q24 0 41 13.5t23 29.5l11 -8q-4 -36 -35.5 -61t-71.5 -25q-23 0 -39.5 11t-23.5 23.5t-20.5 23.5t-31.5 11zM139 530h430l-31 -127h-22q11 47 -3 71.5t-63 24.5
h-79q-56 0 -77.5 -14.5t-40.5 -65.5l-44 -136h89q69 0 96.5 17.5t45.5 60.5h16l-58 -182h-18q9 45 -7 59.5t-87 14.5h-86l-48 -149q-8 -27 -9.5 -41t8 -21.5t24 -9t46.5 -1.5h61q55 0 95 24t85 82h22l-86 -137h-429l4 18q25 5 35.5 8t26 11.5t25.5 23.5t18 39l108 337
q4 12 5.5 22t2 16.5t-3.5 12t-5.5 8.5t-9.5 6t-11 4t-14.5 3.5t-14.5 3.5z" />
    <glyph glyph-name="f.sc" horiz-adv-x="523" 
d="M140 530h429l-31 -127h-22q11 47 -3 71.5t-63 24.5h-79q-56 0 -77.5 -14.5t-40.5 -65.5l-44 -136h89q69 0 96.5 17.5t45.5 60.5h16l-58 -182h-18q9 45 -7 59.5t-87 14.5h-86l-48 -149q-6 -19 -9 -32t1.5 -22.5t6 -14t15 -9t17 -5.5t23.5 -5l-7 -16h-230l4 18q25 5 35.5 8
t26 11.5t25.5 23.5t18 39l108 337q4 12 5.5 22t2 16.5t-3.5 12t-5.5 8.5t-10 6t-11.5 4t-14.5 3.5t-14.5 3.5z" />
    <glyph glyph-name="g.sc" horiz-adv-x="641" 
d="M268 -12q-128 0 -182 77.5t-13 201.5q39 119 144 197t226 78q50 0 94.5 -16t68.5 -38q-6 -22 -19.5 -65.5t-18.5 -63.5h-24q11 79 -31.5 115.5t-111.5 36.5q-74 0 -136.5 -54.5t-95.5 -161.5q-44 -130 1.5 -203t140.5 -73q44 0 73.5 25t49.5 86l11 38q17 56 1 73t-87 22
l6 23h257l-6 -23q-71 -8 -87 -55l-19 -61q-12 -36 -16.5 -71.5t-6.5 -41.5q-25 -18 -90 -32t-129 -14z" />
    <glyph glyph-name="gbreve.sc" horiz-adv-x="641" 
d="M446 649q-57 0 -74 38.5t2 85.5h13q-5 -36 10 -52t57 -17q55 -1 84 17.5t47 52.5h13q-18 -57 -56.5 -91t-95.5 -34zM268 -12q-128 0 -182 77.5t-13 201.5q39 119 144 197t226 78q50 0 94.5 -16t68.5 -38q-6 -22 -19.5 -65.5t-18.5 -63.5h-24q11 79 -31.5 115.5
t-111.5 36.5q-74 0 -136.5 -54.5t-95.5 -161.5q-44 -130 1.5 -203t140.5 -73q44 0 73.5 25t49.5 86l11 38q17 56 1 73t-87 22l6 23h257l-6 -23q-71 -8 -87 -55l-19 -61q-12 -36 -16.5 -71.5t-6.5 -41.5q-25 -18 -90 -32t-129 -14z" />
    <glyph glyph-name="uni0123.sc" horiz-adv-x="641" 
d="M268 -12q-128 0 -182 77.5t-13 201.5q39 119 144 197t226 78q50 0 94.5 -16t68.5 -38q-6 -22 -19.5 -65.5t-18.5 -63.5h-24q11 79 -31.5 115.5t-111.5 36.5q-74 0 -136.5 -54.5t-95.5 -161.5q-44 -130 1.5 -203t140.5 -73q44 0 73.5 25t49.5 86l11 38q17 56 1 73t-87 22
l6 23h257l-6 -23q-71 -8 -87 -55l-19 -61q-12 -36 -16.5 -71.5t-6.5 -41.5q-25 -18 -90 -32t-129 -14zM109 -288l-5 14q34 13 59.5 41t31.5 50q2 7 2 10.5t-2.5 7t-4.5 4.5t-8.5 5t-11.5 8q-21 18 -21 41q0 22 17 35.5t38 13.5q23 0 38.5 -17.5t15.5 -47.5q0 -44 -40.5 -92
t-108.5 -73z" />
    <glyph glyph-name="gdotaccent.sc" horiz-adv-x="641" 
d="M458 663q-18 0 -31.5 12.5t-13.5 29.5q0 18 13.5 31t31.5 13q17 0 30.5 -13t13.5 -31q0 -17 -13.5 -29.5t-30.5 -12.5zM268 -12q-128 0 -182 77.5t-13 201.5q39 119 144 197t226 78q50 0 94.5 -16t68.5 -38q-6 -22 -19.5 -65.5t-18.5 -63.5h-24q11 79 -31.5 115.5
t-111.5 36.5q-74 0 -136.5 -54.5t-95.5 -161.5q-44 -130 1.5 -203t140.5 -73q44 0 73.5 25t49.5 86l11 38q17 56 1 73t-87 22l6 23h257l-6 -23q-71 -8 -87 -55l-19 -61q-12 -36 -16.5 -71.5t-6.5 -41.5q-25 -18 -90 -32t-129 -14z" />
    <glyph glyph-name="h.sc" 
d="M144 89q-12 -38 2 -51t54 -22l-6 -16h-225l4 18q32 6 45.5 10.5t29 19.5t24.5 42l112 345q6 18 6.5 31t-1 20.5t-11 13t-15 7t-21.5 5.5q-5 1 -8 2l2 16h227l-5 -18q-32 -6 -45.5 -11t-29.5 -21t-26 -46l-50 -153h267v-29h-277zM486 530h226l-5 -18q-24 -5 -34.5 -8
t-25 -11t-23.5 -22t-17 -37l-113 -345q-12 -38 2 -51t54 -22l-6 -16h-225l3 18q32 6 46 10.5t29.5 19.5t24.5 42l112 345q6 18 6.5 31t-1 20.5t-11.5 13t-15.5 7t-21.5 5.5q-5 1 -8 2z" />
    <glyph glyph-name="hbar.sc" 
d="M486 530h226l-5 -18q-24 -5 -34.5 -8t-25 -11t-23.5 -22t-17 -37l-113 -345q-12 -38 2 -51t54 -22l-6 -16h-225l3 18q32 6 46 10.5t29.5 19.5t24.5 42l89 273h-277l-27 -82h267v-29h-277l-53 -163q-12 -38 2 -51t54 -22l-6 -16h-225l4 18q32 6 45.5 10.5t29 19.5t24.5 42
l112 345q6 18 6.5 31t-1 20.5t-11 13t-15 7t-21.5 5.5q-5 1 -8 2l2 16h227l-5 -18q-32 -6 -45.5 -11t-29.5 -21t-26 -46l-13 -41h276l14 42q6 18 6.5 31t-1 20.5t-11.5 13t-15.5 7t-21.5 5.5q-5 1 -8 2z" />
    <glyph glyph-name="i.sc" horiz-adv-x="298" 
d="M-31 0l4 18q32 6 45.5 10.5t29 19.5t24.5 42l112 345q6 18 6.5 31t-1 20.5t-11 13t-15 7t-21.5 5.5q-5 1 -8 2l2 16h227l-5 -18q-32 -6 -45.5 -11t-29.5 -21t-26 -46l-113 -345q-12 -38 2 -51t54 -22l-6 -16h-225z" />
    <glyph glyph-name="iacute.sc" horiz-adv-x="298" 
d="M240 606l-14 12q35 97 69 145q16 0 35.5 -14.5t24.5 -26.5q-12 -8 -23 -17.5t-24.5 -24t-20.5 -21.5t-24.5 -27.5t-22.5 -25.5zM-31 0l4 18q32 6 45.5 10.5t29 19.5t24.5 42l112 345q6 18 6.5 31t-1 20.5t-11 13t-15 7t-21.5 5.5q-5 1 -8 2l2 16h227l-5 -18
q-32 -6 -45.5 -11t-29.5 -21t-26 -46l-113 -345q-12 -38 2 -51t54 -22l-6 -16h-225z" />
    <glyph glyph-name="icircumflex.sc" horiz-adv-x="298" 
d="M314 776l70 -155l-13 -7l-79 98l-143 -98l-8 9zM-31 0l4 18q32 6 45.5 10.5t29 19.5t24.5 42l112 345q6 18 6.5 31t-1 20.5t-11 13t-15 7t-21.5 5.5q-5 1 -8 2l2 16h227l-5 -18q-32 -6 -45.5 -11t-29.5 -21t-26 -46l-113 -345q-12 -38 2 -51t54 -22l-6 -16h-225z" />
    <glyph glyph-name="idieresis.sc" horiz-adv-x="298" 
d="M164 672q-17 0 -28 11t-11 28q0 18 11 29t28 11q18 0 29 -11t11 -29q0 -17 -11 -28t-29 -11zM344 672q-17 0 -28 11t-11 28q0 18 11 29t28 11q18 0 29 -11t11 -29q0 -17 -11 -28t-29 -11zM-31 0l4 18q32 6 45.5 10.5t29 19.5t24.5 42l112 345q6 18 6.5 31t-1 20.5t-11 13
t-15 7t-21.5 5.5q-5 1 -8 2l2 16h227l-5 -18q-32 -6 -45.5 -11t-29.5 -21t-26 -46l-113 -345q-12 -38 2 -51t54 -22l-6 -16h-225z" />
    <glyph glyph-name="i.sc.loclTRK" horiz-adv-x="298" 
d="M285 663q-18 0 -31.5 12.5t-13.5 29.5q0 18 13.5 31t31.5 13q17 0 30.5 -13t13.5 -31q0 -17 -13.5 -29.5t-30.5 -12.5zM-31 0l4 18q32 6 45.5 10.5t29 19.5t24.5 42l112 345q6 18 6.5 31t-1 20.5t-11 13t-15 7t-21.5 5.5q-5 1 -8 2l2 16h227l-5 -18q-32 -6 -45.5 -11
t-29.5 -21t-26 -46l-113 -345q-12 -38 2 -51t54 -22l-6 -16h-225z" />
    <glyph glyph-name="igrave.sc" horiz-adv-x="298" 
d="M237 606q-5 5 -22.5 25.5t-24.5 27.5t-20.5 21.5t-24.5 24t-23 17.5q6 12 26 26.5t35 14.5q34 -48 69 -145zM-31 0l4 18q32 6 45.5 10.5t29 19.5t24.5 42l112 345q6 18 6.5 31t-1 20.5t-11 13t-15 7t-21.5 5.5q-5 1 -8 2l2 16h227l-5 -18q-32 -6 -45.5 -11t-29.5 -21
t-26 -46l-113 -345q-12 -38 2 -51t54 -22l-6 -16h-225z" />
    <glyph glyph-name="ij.sc" horiz-adv-x="603" 
d="M-31 0l4 18q32 6 45.5 10.5t29 19.5t24.5 42l112 345q6 18 6.5 31t-1 20.5t-11 13t-15 7t-21.5 5.5q-5 1 -8 2l2 16h227l-5 -18q-32 -6 -45.5 -11t-29.5 -21t-26 -46l-113 -345q-12 -38 2 -51t54 -22l-6 -16h-225zM189 -182l8 21q74 23 103.5 55.5t57.5 115.5l138 427
q14 42 1.5 55t-51.5 20q-8 1 -12 2l7 16h240l-7 -18q-26 -5 -37 -8t-26.5 -11.5t-24.5 -23t-17 -39.5l-144 -437q-28 -86 -88.5 -125t-147.5 -50z" />
    <glyph glyph-name="imacron.sc" horiz-adv-x="298" 
d="M138 697l15 30h280l-15 -30h-280zM-31 0l4 18q32 6 45.5 10.5t29 19.5t24.5 42l112 345q6 18 6.5 31t-1 20.5t-11 13t-15 7t-21.5 5.5q-5 1 -8 2l2 16h227l-5 -18q-32 -6 -45.5 -11t-29.5 -21t-26 -46l-113 -345q-12 -38 2 -51t54 -22l-6 -16h-225z" />
    <glyph glyph-name="iogonek.sc" horiz-adv-x="298" 
d="M136 530h227l-5 -18q-32 -6 -45.5 -11t-29.5 -21t-26 -46l-113 -345q-12 -38 2 -51t54 -22l-6 -16h-86q-54 -28 -81.5 -53.5t-27.5 -61.5q0 -45 45 -45q17 0 61 13l-7 -16q-41 -36 -91 -36q-35 0 -57 17t-22 52q0 39 31 73l94 57h-84l4 18q32 6 45.5 10.5t29 19.5
t24.5 42l112 345q6 18 6.5 31t-1 20.5t-11 13t-15 7t-21.5 5.5q-5 1 -8 2z" />
    <glyph glyph-name="j.sc" horiz-adv-x="306" 
d="M-109 -182l8 21q74 23 103.5 55.5t57.5 115.5l138 427q14 42 1.5 55t-51.5 20q-8 1 -12 2l7 16h240l-7 -18q-26 -5 -37 -8t-26.5 -11.5t-24.5 -23t-17 -39.5l-144 -437q-28 -86 -88.5 -125t-147.5 -50z" />
    <glyph glyph-name="k.sc" horiz-adv-x="560" 
d="M631 513q-43 0 -75 -15t-70 -45l-161 -130l103 -275q9 -19 17 -24q14 -7 48 -7l-5 -17h-148q11 29 -4 72l-73 200l-80 -64l-39 -119q-12 -38 2 -51t54 -22l-6 -16h-225l4 18q32 6 45.5 10.5t29 19.5t24.5 42l112 345q6 18 6.5 31t-1 20.5t-11 13t-15 7t-21.5 5.5
q-5 1 -8 2l2 16h227l-5 -18q-32 -6 -45.5 -11t-29.5 -21t-26 -46l-57 -174l247 201q30 25 24 38.5t-46 13.5l4 17h207z" />
    <glyph glyph-name="uni0137.sc" horiz-adv-x="560" 
d="M631 513q-43 0 -75 -15t-70 -45l-161 -130l103 -275q9 -19 17 -24q14 -7 48 -7l-5 -17h-148q11 29 -4 72l-73 200l-80 -64l-39 -119q-12 -38 2 -51t54 -22l-6 -16h-225l4 18q32 6 45.5 10.5t29 19.5t24.5 42l112 345q6 18 6.5 31t-1 20.5t-11 13t-15 7t-21.5 5.5
q-5 1 -8 2l2 16h227l-5 -18q-32 -6 -45.5 -11t-29.5 -21t-26 -46l-57 -174l247 201q30 25 24 38.5t-46 13.5l4 17h207zM162 -58q23 0 38.5 -17.5t15.5 -47.5q0 -44 -40.5 -92t-108.5 -73l-5 14q34 13 59.5 41t31.5 50q2 7 2 10.5t-2.5 7t-4.5 4.5t-8.5 5t-11.5 8
q-21 18 -21 41q0 22 17 35.5t38 13.5z" />
    <glyph glyph-name="l.sc" horiz-adv-x="518" 
d="M-24 0l-3 20q32 6 47 11.5t32.5 23t28.5 49.5l111 338q4 12 5 22t1.5 16.5t-2.5 11.5t-5 8t-9.5 5.5t-11 3.5t-14 3t-15.5 3l2 15h251l-3 -19q-67 -13 -91 -30q-28 -19 -39 -55l-107 -328q-6 -18 -9 -29t-0.5 -19t4.5 -12t14 -6t20 -2h30h52q55 0 98 29.5t94 98.5l20 -7
l-90 -151h-411z" />
    <glyph glyph-name="lacute.sc" horiz-adv-x="518" 
d="M273 606l-14 12q35 97 69 145q16 0 35.5 -14.5t24.5 -26.5q-12 -8 -23 -17.5t-24.5 -24t-20.5 -21.5t-24.5 -27.5t-22.5 -25.5zM-24 0l-3 20q32 6 47 11.5t32.5 23t28.5 49.5l111 338q4 12 5 22t1.5 16.5t-2.5 11.5t-5 8t-9.5 5.5t-11 3.5t-14 3t-15.5 3l2 15h251l-3 -19
q-67 -13 -91 -30q-28 -19 -39 -55l-107 -328q-6 -18 -9 -29t-0.5 -19t4.5 -12t14 -6t20 -2h30h52q55 0 98 29.5t94 98.5l20 -7l-90 -151h-411z" />
    <glyph glyph-name="lcaron.sc" horiz-adv-x="518" 
d="M292 615l-70 155l14 7l78 -98l143 98l8 -8zM-24 0l-3 20q32 6 47 11.5t32.5 23t28.5 49.5l111 338q4 12 5 22t1.5 16.5t-2.5 11.5t-5 8t-9.5 5.5t-11 3.5t-14 3t-15.5 3l2 15h251l-3 -19q-67 -13 -91 -30q-28 -19 -39 -55l-107 -328q-6 -18 -9 -29t-0.5 -19t4.5 -12
t14 -6t20 -2h30h52q55 0 98 29.5t94 98.5l20 -7l-90 -151h-411z" />
    <glyph glyph-name="uni013C.sc" horiz-adv-x="518" 
d="M-24 0l-3 20q32 6 47 11.5t32.5 23t28.5 49.5l111 338q4 12 5 22t1.5 16.5t-2.5 11.5t-5 8t-9.5 5.5t-11 3.5t-14 3t-15.5 3l2 15h251l-3 -19q-67 -13 -91 -30q-28 -19 -39 -55l-107 -328q-6 -18 -9 -29t-0.5 -19t4.5 -12t14 -6t20 -2h30h52q55 0 98 29.5t94 98.5l20 -7
l-90 -151h-411zM75 -288l-5 14q34 13 59.5 41t31.5 50q2 7 2 10.5t-2.5 7t-4.5 4.5t-8.5 5t-11.5 8q-21 18 -21 41q0 22 17 35.5t38 13.5q23 0 38.5 -17.5t15.5 -47.5q0 -44 -40.5 -92t-108.5 -73z" />
    <glyph glyph-name="ldot.sc" horiz-adv-x="518" 
d="M-24 0l-3 20q32 6 47 11.5t32.5 23t28.5 49.5l111 338q4 12 5 22t1.5 16.5t-2.5 11.5t-5 8t-9.5 5.5t-11 3.5t-14 3t-15.5 3l2 15h251l-3 -19q-67 -13 -91 -30q-28 -19 -39 -55l-107 -328q-6 -18 -9 -29t-0.5 -19t4.5 -12t14 -6t20 -2h30h52q55 0 98 29.5t94 98.5l20 -7
l-90 -151h-411zM335 206q-20 0 -35.5 14.5t-15.5 34.5t15.5 34.5t35.5 14.5q21 0 37 -14t16 -35t-16 -35t-37 -14z" />
    <glyph glyph-name="lslash.sc" horiz-adv-x="518" 
d="M457 158l20 -7l-90 -151h-411l-3 20q32 6 47 11.5t32.5 23t28.5 49.5l36 110l-78 -30v41q42 11 91 27l62 190q4 12 5 22t1.5 16.5t-2.5 11.5t-5 8t-9.5 5.5t-11 3.5t-14 3t-15.5 3l2 15h251l-3 -19q-67 -13 -91 -30q-28 -19 -39 -55l-48 -147q87 28 178 65v-41
q-92 -26 -190 -60l-47 -145q-6 -18 -9 -29t-0.5 -19t4.5 -12t14 -6t20 -2h30h52q55 0 98 29.5t94 98.5z" />
    <glyph glyph-name="m.sc" horiz-adv-x="738" 
d="M786 530l-3 -19q-31 -6 -46.5 -11.5t-33 -23.5t-26.5 -50l-92 -338q-4 -14 -6 -24.5t0 -17.5t3 -11.5t9 -8t10.5 -4.5t15.5 -3.5t17 -3.5l-2 -15h-226l3 19q24 5 35 8.5t28 12.5t27.5 24.5t17.5 39.5l96 343l-314 -447h-29l-40 411l-120 -323q-5 -14 -7.5 -24.5
t-0.5 -17.5t4 -11.5t10.5 -7.5t13 -4t17.5 -3.5t19 -3.5l-2 -16h-188l-3 20q31 6 46 11.5t33 23t30 49.5l126 338q6 14 8.5 24.5t0.5 17.5t-3.5 11.5t-9.5 7.5l-12 4.5t-16 4t-17 3.5l2 15h138q-2 -21 -2.5 -25.5t2 -28.5t2.5 -30l37 -340l241 354q30 43 32 70h175z" />
    <glyph glyph-name="n.sc" horiz-adv-x="635" 
d="M521 530h190l-5 -15q-41 -5 -65 -22t-39 -63l-138 -430h-36l-205 439l-112 -341q-15 -49 1.5 -63t66.5 -19l-6 -16h-204l4 18q44 4 67 20t36 62l111 337q4 12 5.5 22t1.5 16.5t-4 12t-6 8.5t-10 6t-11.5 4t-14.5 3.5t-15 3.5l6 17h135l198 -393l98 305q13 44 -0.5 58
t-55.5 12z" />
    <glyph glyph-name="nacute.sc" horiz-adv-x="635" 
d="M522 722q-12 -8 -23 -17.5t-24.5 -24t-20.5 -21.5t-24.5 -27.5t-22.5 -25.5l-14 12q35 97 69 145q16 0 35.5 -14.5t24.5 -26.5zM521 530h190l-5 -15q-41 -5 -65 -22t-39 -63l-138 -430h-36l-205 439l-112 -341q-15 -49 1.5 -63t66.5 -19l-6 -16h-204l4 18q44 4 67 20
t36 62l111 337q4 12 5.5 22t1.5 16.5t-4 12t-6 8.5t-10 6t-11.5 4t-14.5 3.5t-15 3.5l6 17h135l198 -393l98 305q13 44 -0.5 58t-55.5 12z" />
    <glyph glyph-name="ncaron.sc" horiz-adv-x="635" 
d="M600 769l-173 -154l-70 155l14 7l78 -98l143 98zM521 530h190l-5 -15q-41 -5 -65 -22t-39 -63l-138 -430h-36l-205 439l-112 -341q-15 -49 1.5 -63t66.5 -19l-6 -16h-204l4 18q44 4 67 20t36 62l111 337q4 12 5.5 22t1.5 16.5t-4 12t-6 8.5t-10 6t-11.5 4t-14.5 3.5
t-15 3.5l6 17h135l198 -393l98 305q13 44 -0.5 58t-55.5 12z" />
    <glyph glyph-name="uni0146.sc" horiz-adv-x="635" 
d="M521 530h190l-5 -15q-41 -5 -65 -22t-39 -63l-138 -430h-36l-205 439l-112 -341q-15 -49 1.5 -63t66.5 -19l-6 -16h-204l4 18q44 4 67 20t36 62l111 337q4 12 5.5 22t1.5 16.5t-4 12t-6 8.5t-10 6t-11.5 4t-14.5 3.5t-15 3.5l6 17h135l198 -393l98 305q13 44 -0.5 58
t-55.5 12zM198 -58q23 0 38.5 -17.5t15.5 -47.5q0 -44 -40.5 -92t-108.5 -73l-5 14q34 13 59.5 41t31.5 50q2 7 2 10.5t-2.5 7t-4.5 4.5t-8.5 5t-11.5 8q-21 18 -21 41q0 22 17 35.5t38 13.5z" />
    <glyph glyph-name="ntilde.sc" horiz-adv-x="635" 
d="M381 701q-23 0 -39 -13.5t-20 -29.5l-12 8q4 36 37 61t72 25q23 0 38.5 -11t21.5 -23.5t18.5 -23.5t30.5 -11q24 0 41 13.5t23 29.5l11 -8q-4 -36 -35.5 -61t-71.5 -25q-23 0 -39.5 11t-23.5 23.5t-20.5 23.5t-31.5 11zM521 530h190l-5 -15q-41 -5 -65 -22t-39 -63
l-138 -430h-36l-205 439l-112 -341q-15 -49 1.5 -63t66.5 -19l-6 -16h-204l4 18q44 4 67 20t36 62l111 337q4 12 5.5 22t1.5 16.5t-4 12t-6 8.5t-10 6t-11.5 4t-14.5 3.5t-15 3.5l6 17h135l198 -393l98 305q13 44 -0.5 58t-55.5 12z" />
    <glyph glyph-name="o.sc" horiz-adv-x="654" 
d="M249 -12q-93 0 -142.5 51t-49.5 131q0 143 116 257.5t263 114.5q95 0 144 -52.5t49 -134.5q0 -140 -117.5 -253.5t-262.5 -113.5zM281 19q73 0 134.5 51.5t95 128t33.5 154.5q0 72 -36 115t-104 43q-73 0 -134.5 -52t-94.5 -129t-33 -156q0 -70 36 -112.5t103 -42.5z" />
    <glyph glyph-name="oacute.sc" horiz-adv-x="654" 
d="M415 606l-14 12q35 97 69 145q16 0 35.5 -14.5t24.5 -26.5q-12 -8 -23 -17.5t-24.5 -24t-20.5 -21.5t-24.5 -27.5t-22.5 -25.5zM249 -12q-93 0 -142.5 51t-49.5 131q0 143 116 257.5t263 114.5q95 0 144 -52.5t49 -134.5q0 -140 -117.5 -253.5t-262.5 -113.5zM281 19
q73 0 134.5 51.5t95 128t33.5 154.5q0 72 -36 115t-104 43q-73 0 -134.5 -52t-94.5 -129t-33 -156q0 -70 36 -112.5t103 -42.5z" />
    <glyph glyph-name="ocircumflex.sc" horiz-adv-x="654" 
d="M489 776l70 -155l-13 -7l-79 98l-143 -98l-8 9zM249 -12q-93 0 -142.5 51t-49.5 131q0 143 116 257.5t263 114.5q95 0 144 -52.5t49 -134.5q0 -140 -117.5 -253.5t-262.5 -113.5zM281 19q73 0 134.5 51.5t95 128t33.5 154.5q0 72 -36 115t-104 43q-73 0 -134.5 -52
t-94.5 -129t-33 -156q0 -70 36 -112.5t103 -42.5z" />
    <glyph glyph-name="odieresis.sc" horiz-adv-x="654" 
d="M339 672q-17 0 -28 11t-11 28q0 18 11 29t28 11q18 0 29 -11t11 -29q0 -17 -11 -28t-29 -11zM519 672q-17 0 -28 11t-11 28q0 18 11 29t28 11q18 0 29 -11t11 -29q0 -17 -11 -28t-29 -11zM249 -12q-93 0 -142.5 51t-49.5 131q0 143 116 257.5t263 114.5q95 0 144 -52.5
t49 -134.5q0 -140 -117.5 -253.5t-262.5 -113.5zM281 19q73 0 134.5 51.5t95 128t33.5 154.5q0 72 -36 115t-104 43q-73 0 -134.5 -52t-94.5 -129t-33 -156q0 -70 36 -112.5t103 -42.5z" />
    <glyph glyph-name="ograve.sc" horiz-adv-x="654" 
d="M412 606q-5 5 -22.5 25.5t-24.5 27.5t-20.5 21.5t-24.5 24t-23 17.5q6 12 26 26.5t35 14.5q34 -48 69 -145zM249 -12q-93 0 -142.5 51t-49.5 131q0 143 116 257.5t263 114.5q95 0 144 -52.5t49 -134.5q0 -140 -117.5 -253.5t-262.5 -113.5zM281 19q73 0 134.5 51.5
t95 128t33.5 154.5q0 72 -36 115t-104 43q-73 0 -134.5 -52t-94.5 -129t-33 -156q0 -70 36 -112.5t103 -42.5z" />
    <glyph glyph-name="ohungarumlaut.sc" horiz-adv-x="654" 
d="M350 606l-14 12q35 97 69 145q16 0 35.5 -14.5t24.5 -26.5q-12 -8 -23 -17.5t-24.5 -24t-20.5 -21.5t-24.5 -27.5t-22.5 -25.5zM490 606l-14 12q35 97 69 145q15 0 35 -14.5t26 -26.5q-10 -7 -21 -16.5t-18 -15.5t-20.5 -20.5t-17 -19t-20.5 -23.5t-19 -21zM249 -12
q-93 0 -142.5 51t-49.5 131q0 143 116 257.5t263 114.5q95 0 144 -52.5t49 -134.5q0 -140 -117.5 -253.5t-262.5 -113.5zM281 19q73 0 134.5 51.5t95 128t33.5 154.5q0 72 -36 115t-104 43q-73 0 -134.5 -52t-94.5 -129t-33 -156q0 -70 36 -112.5t103 -42.5z" />
    <glyph glyph-name="omacron.sc" horiz-adv-x="654" 
d="M313 697l15 30h280l-15 -30h-280zM249 -12q-93 0 -142.5 51t-49.5 131q0 143 116 257.5t263 114.5q95 0 144 -52.5t49 -134.5q0 -140 -117.5 -253.5t-262.5 -113.5zM281 19q73 0 134.5 51.5t95 128t33.5 154.5q0 72 -36 115t-104 43q-73 0 -134.5 -52t-94.5 -129
t-33 -156q0 -70 36 -112.5t103 -42.5z" />
    <glyph glyph-name="oslash.sc" horiz-adv-x="654" 
d="M518 529q55 -20 83 -66.5t28 -107.5q0 -140 -117.5 -253.5t-262.5 -113.5q-32 0 -59 6l-27 -44l-19 14l23 37q-54 20 -82 64.5t-28 104.5q0 143 116 257.5t263 114.5q32 0 59 -6l28 45l19 -14zM142 174q0 -87 52 -128l277 451q-30 14 -67 14q-73 0 -134.5 -52t-94.5 -129
t-33 -156zM281 19q73 0 134.5 51.5t95 128t33.5 154.5q0 90 -53 131l-277 -451q30 -14 67 -14z" />
    <glyph glyph-name="otilde.sc" horiz-adv-x="654" 
d="M504 632q-23 0 -39.5 11t-23.5 23.5t-20.5 23.5t-31.5 11q-23 0 -39 -13.5t-20 -29.5l-12 8q4 36 37 61t72 25q23 0 38.5 -11t21.5 -23.5t18.5 -23.5t30.5 -11q24 0 41 13.5t23 29.5l11 -8q-4 -36 -35.5 -61t-71.5 -25zM249 -12q-93 0 -142.5 51t-49.5 131
q0 143 116 257.5t263 114.5q95 0 144 -52.5t49 -134.5q0 -140 -117.5 -253.5t-262.5 -113.5zM281 19q73 0 134.5 51.5t95 128t33.5 154.5q0 72 -36 115t-104 43q-73 0 -134.5 -52t-94.5 -129t-33 -156q0 -70 36 -112.5t103 -42.5z" />
    <glyph glyph-name="oe.sc" horiz-adv-x="926" 
d="M528 530h413l-32 -127h-21q11 47 -3.5 71.5t-63.5 24.5h-79q-56 0 -77.5 -14.5t-39.5 -65.5l-44 -136h89q69 0 96 17.5t45 60.5h17l-59 -182h-18q9 45 -7 59.5t-87 14.5h-86l-48 -149q-8 -26 -9.5 -40.5t8.5 -22t24.5 -9t46.5 -1.5h61q55 0 94.5 24t84.5 82h22l-86 -137
h-382q-68 -12 -138 -12q-93 0 -142.5 51t-49.5 131q0 143 116 257.5t263 114.5q56 0 92 -12zM449 100l79 245q16 -8 16 8v1l-16 -9l14 42q-9 57 -44 90.5t-94 33.5q-73 0 -134.5 -52t-94.5 -129t-33 -156q0 -70 36 -112.5t103 -42.5q12 0 34 -2t28 -2l1 3q25 5 35.5 8
t26 11.5t25.5 23.5t18 39z" />
    <glyph glyph-name="p.sc" horiz-adv-x="546" 
d="M-33 0l6 18q24 5 34.5 8t25 11.5t24 23.5t17.5 39l109 337q4 12 5.5 22t2 16.5t-3.5 12t-6 8.5t-10 6t-11.5 4t-14.5 3.5t-15 3.5l7 17h213q199 0 199 -126q0 -120 -99 -188.5t-246 -68.5q-12 0 -8 14q4 13 14 13q108 0 183.5 67.5t75.5 164.5q0 44 -27.5 68.5
t-81.5 24.5q-52 0 -72.5 -13.5t-30.5 -45.5l-111 -338q-9 -27 -10.5 -43t8 -24t18 -10.5t32.5 -6.5l-4 -18h-223z" />
    <glyph glyph-name="q.sc" horiz-adv-x="622" 
d="M441 -125q37 0 89 27l10 -17q-82 -60 -141 -60q-44 0 -85 43l-101 105q-14 15 -42 27q-56 19 -85 64.5t-29 105.5q0 143 116 257.5t263 114.5q95 0 144 -52.5t49 -134.5q0 -129 -102 -238t-236 -126q9 -6 26 -23l49 -55q36 -38 75 -38zM404 511q-73 0 -134.5 -52
t-94.5 -129t-33 -156q0 -70 36 -112.5t103 -42.5q73 0 134.5 51.5t95 128t33.5 154.5q0 72 -36 115t-104 43z" />
    <glyph glyph-name="r.sc" horiz-adv-x="551" 
d="M547 418q0 -152 -236 -173q32 -11 52 -60l27 -71q27 -69 46 -86q20 -17 46 -9l-8 -19q-22 -16 -54 -16q-22 0 -37 5.5t-27.5 24t-18 30.5t-20.5 48l-33 84q-25 58 -92 65l-46 -139q-9 -27 -10.5 -43t8 -24t18 -10.5t32.5 -6.5l-4 -18h-223l6 18q24 5 34.5 8t25 11.5
t24 23.5t17.5 39l109 337q4 12 5.5 22t2 16.5t-3.5 12t-6 8.5t-10 6t-11.5 4t-14.5 3.5t-15 3.5l7 17h216q106 0 150 -24t44 -88zM274 272q85 0 143 42t58 99q0 46 -27 66t-94 20q-45 0 -65 -12.5t-29 -37.5l-58 -177h72z" />
    <glyph glyph-name="racute.sc" horiz-adv-x="551" 
d="M474 722q-12 -8 -23 -17.5t-24.5 -24t-20.5 -21.5t-24.5 -27.5t-22.5 -25.5l-14 12q35 97 69 145q16 0 35.5 -14.5t24.5 -26.5zM547 418q0 -152 -236 -173q32 -11 52 -60l27 -71q27 -69 46 -86q20 -17 46 -9l-8 -19q-22 -16 -54 -16q-22 0 -37 5.5t-27.5 24t-18 30.5
t-20.5 48l-33 84q-25 58 -92 65l-46 -139q-9 -27 -10.5 -43t8 -24t18 -10.5t32.5 -6.5l-4 -18h-223l6 18q24 5 34.5 8t25 11.5t24 23.5t17.5 39l109 337q4 12 5.5 22t2 16.5t-3.5 12t-6 8.5t-10 6t-11.5 4t-14.5 3.5t-15 3.5l7 17h216q106 0 150 -24t44 -88zM274 272
q85 0 143 42t58 99q0 46 -27 66t-94 20q-45 0 -65 -12.5t-29 -37.5l-58 -177h72z" />
    <glyph glyph-name="rcaron.sc" horiz-adv-x="551" 
d="M552 769l-173 -154l-70 155l14 7l78 -98l143 98zM353 530q106 0 150 -24t44 -88q0 -152 -236 -173q32 -11 52 -60l27 -71q27 -69 46 -86q20 -17 46 -9l-8 -19q-22 -16 -54 -16q-22 0 -37 5.5t-27.5 24t-18 30.5t-20.5 48l-33 84q-25 58 -92 65l-46 -139q-9 -27 -10.5 -43
t8 -24t18 -10.5t32.5 -6.5l-4 -18h-223l6 18q24 5 34.5 8t25 11.5t24 23.5t17.5 39l109 337q4 12 5.5 22t2 16.5t-3.5 12t-6 8.5t-10 6t-11.5 4t-14.5 3.5t-15 3.5l7 17h216zM274 272q85 0 143 42t58 99q0 46 -27 66t-94 20q-45 0 -65 -12.5t-29 -37.5l-58 -177h72z" />
    <glyph glyph-name="uni0157.sc" horiz-adv-x="551" 
d="M547 418q0 -152 -236 -173q32 -11 52 -60l27 -71q27 -69 46 -86q20 -17 46 -9l-8 -19q-22 -16 -54 -16q-22 0 -37 5.5t-27.5 24t-18 30.5t-20.5 48l-33 84q-25 58 -92 65l-46 -139q-9 -27 -10.5 -43t8 -24t18 -10.5t32.5 -6.5l-4 -18h-223l6 18q24 5 34.5 8t25 11.5
t24 23.5t17.5 39l109 337q4 12 5.5 22t2 16.5t-3.5 12t-6 8.5t-10 6t-11.5 4t-14.5 3.5t-15 3.5l7 17h216q106 0 150 -24t44 -88zM274 272q85 0 143 42t58 99q0 46 -27 66t-94 20q-45 0 -65 -12.5t-29 -37.5l-58 -177h72zM200 -58q23 0 38.5 -17.5t15.5 -47.5
q0 -44 -40.5 -92t-108.5 -73l-5 14q34 13 59.5 41t31.5 50q2 7 2 10.5t-2.5 7t-4.5 4.5t-8.5 5t-11.5 8q-21 18 -21 41q0 22 17 35.5t38 13.5z" />
    <glyph glyph-name="s.sc" horiz-adv-x="453" 
d="M153 -12q-91 0 -149 55l28 98h20q-7 -57 16 -91t81 -34q59 0 103.5 36.5t44.5 92.5q0 59 -83 104q-46 24 -71.5 54t-25.5 80q0 67 54.5 113t151.5 46q82 0 143 -49q3 -2 4 -3l-33 -110h-20q25 134 -81 134q-61 0 -93 -30.5t-32 -76.5q0 -57 72 -100q26 -16 38 -25
t32 -27.5t29 -40t9 -48.5q0 -74 -74 -126t-164 -52z" />
    <glyph glyph-name="sacute.sc" horiz-adv-x="453" 
d="M319 606l-14 12q35 97 69 145q16 0 35.5 -14.5t24.5 -26.5q-12 -8 -23 -17.5t-24.5 -24t-20.5 -21.5t-24.5 -27.5t-22.5 -25.5zM153 -12q-91 0 -149 55l28 98h20q-7 -57 16 -91t81 -34q59 0 103.5 36.5t44.5 92.5q0 59 -83 104q-46 24 -71.5 54t-25.5 80q0 67 54.5 113
t151.5 46q82 0 143 -49q3 -2 4 -3l-33 -110h-20q25 134 -81 134q-61 0 -93 -30.5t-32 -76.5q0 -57 72 -100q26 -16 38 -25t32 -27.5t29 -40t9 -48.5q0 -74 -74 -126t-164 -52z" />
    <glyph glyph-name="scaron.sc" horiz-adv-x="453" 
d="M339 615l-70 155l14 7l78 -98l143 98l8 -8zM153 -12q-91 0 -149 55l28 98h20q-7 -57 16 -91t81 -34q59 0 103.5 36.5t44.5 92.5q0 59 -83 104q-46 24 -71.5 54t-25.5 80q0 67 54.5 113t151.5 46q82 0 143 -49q3 -2 4 -3l-33 -110h-20q25 134 -81 134q-61 0 -93 -30.5
t-32 -76.5q0 -57 72 -100q26 -16 38 -25t32 -27.5t29 -40t9 -48.5q0 -74 -74 -126t-164 -52z" />
    <glyph glyph-name="scedilla.sc" horiz-adv-x="453" 
d="M323 542q82 0 143 -49q3 -2 4 -3l-33 -110h-20q25 134 -81 134q-61 0 -93 -30.5t-32 -76.5q0 -57 72 -100q26 -16 38 -25t32 -27.5t29 -40t9 -48.5q0 -71 -68.5 -122t-155.5 -56l-23 -43q44 0 70.5 -20t26.5 -53q0 -35 -34 -59.5t-112 -24.5l5 19q43 0 67 13.5t24 34.5
q0 47 -105 47l44 87q-75 6 -126 54l28 98h20q-7 -57 16 -91t81 -34q59 0 103.5 36.5t44.5 92.5q0 59 -83 104q-46 24 -71.5 54t-25.5 80q0 67 54.5 113t151.5 46z" />
    <glyph glyph-name="uni0219.sc" horiz-adv-x="453" 
d="M153 -12q-91 0 -149 55l28 98h20q-7 -57 16 -91t81 -34q59 0 103.5 36.5t44.5 92.5q0 59 -83 104q-46 24 -71.5 54t-25.5 80q0 67 54.5 113t151.5 46q82 0 143 -49q3 -2 4 -3l-33 -110h-20q25 134 -81 134q-61 0 -93 -30.5t-32 -76.5q0 -57 72 -100q26 -16 38 -25
t32 -27.5t29 -40t9 -48.5q0 -74 -74 -126t-164 -52zM15 -288l-5 14q34 13 59.5 41t31.5 50q2 7 2 10.5t-2.5 7t-4.5 4.5t-8.5 5t-11.5 8q-21 18 -21 41q0 22 17 35.5t38 13.5q23 0 38.5 -17.5t15.5 -47.5q0 -44 -40.5 -92t-108.5 -73z" />
    <glyph glyph-name="germandbls.sc" horiz-adv-x="644" 
d="M440 309q64 -5 103 -38t39 -96q0 -85 -70 -140t-167 -55q-68 0 -110 40q15 42 25 119h20q2 -75 19 -103.5t56 -28.5q57 0 101 53.5t44 120.5q0 49 -45 79.5t-122 26.5l195 195q-52 22 -95 22q-64 0 -118 -36t-76 -100l-89 -266q-14 -51 -6.5 -63.5t44.5 -20.5l-6 -18
h-216l7 18q24 5 34.5 8t25 11.5t23.5 23.5t17 39l88 265q16 48 44 83.5t61.5 53.5t66.5 26.5t67 8.5q56 0 113 -19t87 -46z" />
    <glyph glyph-name="t.sc" horiz-adv-x="584" 
d="M587 530l48 10l-48 -172h-13q12 72 -5 104t-84 32h-63l-132 -411q-5 -16 -7 -27.5t3.5 -19.5t7.5 -12t18 -8t21 -5t29 -5l-6 -16h-263l4 18q25 4 36.5 6t27.5 7.5t24 13.5t16.5 21.5t15.5 33.5l132 404h-61q-69 0 -106 -31.5t-72 -104.5h-15l65 172l44 -10h383z" />
    <glyph glyph-name="tbar.sc" horiz-adv-x="584" 
d="M587 530l48 10l-48 -172h-13q12 72 -5 104t-84 32h-63l-63 -198q13 0 37.5 0.5t45 1t38.5 1.5l-10 -36q-18 1 -38 1.5t-45 1t-38 0.5l-59 -183q-5 -16 -7 -27.5t3.5 -19.5t7.5 -12t18 -8t21 -5t29 -5l-6 -16h-263l4 18q25 4 36.5 6t27.5 7.5t24 13.5t16.5 21.5t15.5 33.5
l58 176q-62 0 -125 -3l10 36q63 -3 125 -3l64 198h-61q-69 0 -106 -31.5t-72 -104.5h-15l65 172l44 -10h383z" />
    <glyph glyph-name="tcaron.sc" horiz-adv-x="584" 
d="M577 769l-173 -154l-70 155l14 7l78 -98l143 98zM587 530l48 10l-48 -172h-13q12 72 -5 104t-84 32h-63l-132 -411q-5 -16 -7 -27.5t3.5 -19.5t7.5 -12t18 -8t21 -5t29 -5l-6 -16h-263l4 18q25 4 36.5 6t27.5 7.5t24 13.5t16.5 21.5t15.5 33.5l132 404h-61
q-69 0 -106 -31.5t-72 -104.5h-15l65 172l44 -10h383z" />
    <glyph glyph-name="uni0163.sc" horiz-adv-x="584" 
d="M587 530l48 10l-48 -172h-13q12 72 -5 104t-84 32h-63l-132 -411q-5 -16 -7 -27.5t3.5 -19.5t7.5 -12t18 -8t21 -5t29 -5l-6 -16h-108l-29 -55q44 0 70.5 -20t26.5 -53q0 -35 -34 -59.5t-112 -24.5l5 19q43 0 67 13.5t24 34.5q0 47 -105 47l50 98h-118l4 18q25 4 36.5 6
t27.5 7.5t24 13.5t16.5 21.5t15.5 33.5l132 404h-61q-69 0 -106 -31.5t-72 -104.5h-15l65 172l44 -10h383z" />
    <glyph glyph-name="uni021B.sc" horiz-adv-x="584" 
d="M587 530l48 10l-48 -172h-13q12 72 -5 104t-84 32h-63l-132 -411q-5 -16 -7 -27.5t3.5 -19.5t7.5 -12t18 -8t21 -5t29 -5l-6 -16h-263l4 18q25 4 36.5 6t27.5 7.5t24 13.5t16.5 21.5t15.5 33.5l132 404h-61q-69 0 -106 -31.5t-72 -104.5h-15l65 172l44 -10h383zM185 -58
q23 0 38.5 -17.5t15.5 -47.5q0 -44 -40.5 -92t-108.5 -73l-5 14q34 13 59.5 41t31.5 50q2 7 2 10.5t-2.5 7t-4.5 4.5t-8.5 5t-11.5 8q-21 18 -21 41q0 22 17 35.5t38 13.5z" />
    <glyph glyph-name="u.sc" horiz-adv-x="660" 
d="M256 -12q-33 0 -59 6t-50.5 23t-36.5 44.5t-10.5 74.5t21.5 108l62 193q4 12 5.5 22t2.5 16.5t-3 12t-5 8.5t-9.5 6t-10.5 4t-13.5 3.5t-14.5 3.5l2 17h228l-7 -17q-31 -6 -45 -11t-30.5 -22.5t-26.5 -49.5l-63 -194q-69 -211 91 -211q33 0 63.5 9.5t62.5 31t60 63
t47 99.5l69 209q4 12 5.5 22t1.5 16.5t-4 12t-6.5 8.5t-10.5 6t-11.5 4t-15 3.5t-15.5 3.5l7 17h199l-6 -18q-35 -7 -49 -11t-33 -21.5t-29 -49.5l-65 -199q-22 -69 -56.5 -118t-75 -75.5t-81.5 -38t-85 -11.5z" />
    <glyph glyph-name="uacute.sc" horiz-adv-x="660" 
d="M416 606l-14 12q35 97 69 145q16 0 35.5 -14.5t24.5 -26.5q-12 -8 -23 -17.5t-24.5 -24t-20.5 -21.5t-24.5 -27.5t-22.5 -25.5zM256 -12q-33 0 -59 6t-50.5 23t-36.5 44.5t-10.5 74.5t21.5 108l62 193q4 12 5.5 22t2.5 16.5t-3 12t-5 8.5t-9.5 6t-10.5 4t-13.5 3.5
t-14.5 3.5l2 17h228l-7 -17q-31 -6 -45 -11t-30.5 -22.5t-26.5 -49.5l-63 -194q-69 -211 91 -211q33 0 63.5 9.5t62.5 31t60 63t47 99.5l69 209q4 12 5.5 22t1.5 16.5t-4 12t-6.5 8.5t-10.5 6t-11.5 4t-15 3.5t-15.5 3.5l7 17h199l-6 -18q-35 -7 -49 -11t-33 -21.5
t-29 -49.5l-65 -199q-22 -69 -56.5 -118t-75 -75.5t-81.5 -38t-85 -11.5z" />
    <glyph glyph-name="ubreve.sc" horiz-adv-x="660" 
d="M449 649q-57 0 -74 38.5t2 85.5h13q-5 -36 10 -52t57 -17q55 -1 84 17.5t47 52.5h13q-18 -57 -56.5 -91t-95.5 -34zM256 -12q-33 0 -59 6t-50.5 23t-36.5 44.5t-10.5 74.5t21.5 108l62 193q4 12 5.5 22t2.5 16.5t-3 12t-5 8.5t-9.5 6t-10.5 4t-13.5 3.5t-14.5 3.5l2 17
h228l-7 -17q-31 -6 -45 -11t-30.5 -22.5t-26.5 -49.5l-63 -194q-69 -211 91 -211q33 0 63.5 9.5t62.5 31t60 63t47 99.5l69 209q4 12 5.5 22t1.5 16.5t-4 12t-6.5 8.5t-10.5 6t-11.5 4t-15 3.5t-15.5 3.5l7 17h199l-6 -18q-35 -7 -49 -11t-33 -21.5t-29 -49.5l-65 -199
q-22 -69 -56.5 -118t-75 -75.5t-81.5 -38t-85 -11.5z" />
    <glyph glyph-name="ucircumflex.sc" horiz-adv-x="660" 
d="M490 776l70 -155l-13 -7l-79 98l-143 -98l-8 9zM256 -12q-33 0 -59 6t-50.5 23t-36.5 44.5t-10.5 74.5t21.5 108l62 193q4 12 5.5 22t2.5 16.5t-3 12t-5 8.5t-9.5 6t-10.5 4t-13.5 3.5t-14.5 3.5l2 17h228l-7 -17q-31 -6 -45 -11t-30.5 -22.5t-26.5 -49.5l-63 -194
q-69 -211 91 -211q33 0 63.5 9.5t62.5 31t60 63t47 99.5l69 209q4 12 5.5 22t1.5 16.5t-4 12t-6.5 8.5t-10.5 6t-11.5 4t-15 3.5t-15.5 3.5l7 17h199l-6 -18q-35 -7 -49 -11t-33 -21.5t-29 -49.5l-65 -199q-22 -69 -56.5 -118t-75 -75.5t-81.5 -38t-85 -11.5z" />
    <glyph glyph-name="udieresis.sc" horiz-adv-x="660" 
d="M340 672q-17 0 -28 11t-11 28q0 18 11 29t28 11q18 0 29 -11t11 -29q0 -17 -11 -28t-29 -11zM520 672q-17 0 -28 11t-11 28q0 18 11 29t28 11q18 0 29 -11t11 -29q0 -17 -11 -28t-29 -11zM256 -12q-33 0 -59 6t-50.5 23t-36.5 44.5t-10.5 74.5t21.5 108l62 193
q4 12 5.5 22t2.5 16.5t-3 12t-5 8.5t-9.5 6t-10.5 4t-13.5 3.5t-14.5 3.5l2 17h228l-7 -17q-31 -6 -45 -11t-30.5 -22.5t-26.5 -49.5l-63 -194q-69 -211 91 -211q33 0 63.5 9.5t62.5 31t60 63t47 99.5l69 209q4 12 5.5 22t1.5 16.5t-4 12t-6.5 8.5t-10.5 6t-11.5 4t-15 3.5
t-15.5 3.5l7 17h199l-6 -18q-35 -7 -49 -11t-33 -21.5t-29 -49.5l-65 -199q-22 -69 -56.5 -118t-75 -75.5t-81.5 -38t-85 -11.5z" />
    <glyph glyph-name="ugrave.sc" horiz-adv-x="660" 
d="M413 606q-5 5 -22.5 25.5t-24.5 27.5t-20.5 21.5t-24.5 24t-23 17.5q6 12 26 26.5t35 14.5q34 -48 69 -145zM256 -12q-33 0 -59 6t-50.5 23t-36.5 44.5t-10.5 74.5t21.5 108l62 193q4 12 5.5 22t2.5 16.5t-3 12t-5 8.5t-9.5 6t-10.5 4t-13.5 3.5t-14.5 3.5l2 17h228
l-7 -17q-31 -6 -45 -11t-30.5 -22.5t-26.5 -49.5l-63 -194q-69 -211 91 -211q33 0 63.5 9.5t62.5 31t60 63t47 99.5l69 209q4 12 5.5 22t1.5 16.5t-4 12t-6.5 8.5t-10.5 6t-11.5 4t-15 3.5t-15.5 3.5l7 17h199l-6 -18q-35 -7 -49 -11t-33 -21.5t-29 -49.5l-65 -199
q-22 -69 -56.5 -118t-75 -75.5t-81.5 -38t-85 -11.5z" />
    <glyph glyph-name="uhungarumlaut.sc" horiz-adv-x="660" 
d="M351 606l-14 12q35 97 69 145q16 0 35.5 -14.5t24.5 -26.5q-12 -8 -23 -17.5t-24.5 -24t-20.5 -21.5t-24.5 -27.5t-22.5 -25.5zM491 606l-14 12q35 97 69 145q15 0 35 -14.5t26 -26.5q-10 -7 -21 -16.5t-18 -15.5t-20.5 -20.5t-17 -19t-20.5 -23.5t-19 -21zM256 -12
q-33 0 -59 6t-50.5 23t-36.5 44.5t-10.5 74.5t21.5 108l62 193q4 12 5.5 22t2.5 16.5t-3 12t-5 8.5t-9.5 6t-10.5 4t-13.5 3.5t-14.5 3.5l2 17h228l-7 -17q-31 -6 -45 -11t-30.5 -22.5t-26.5 -49.5l-63 -194q-69 -211 91 -211q33 0 63.5 9.5t62.5 31t60 63t47 99.5l69 209
q4 12 5.5 22t1.5 16.5t-4 12t-6.5 8.5t-10.5 6t-11.5 4t-15 3.5t-15.5 3.5l7 17h199l-6 -18q-35 -7 -49 -11t-33 -21.5t-29 -49.5l-65 -199q-22 -69 -56.5 -118t-75 -75.5t-81.5 -38t-85 -11.5z" />
    <glyph glyph-name="umacron.sc" horiz-adv-x="660" 
d="M314 697l15 30h280l-15 -30h-280zM256 -12q-33 0 -59 6t-50.5 23t-36.5 44.5t-10.5 74.5t21.5 108l62 193q4 12 5.5 22t2.5 16.5t-3 12t-5 8.5t-9.5 6t-10.5 4t-13.5 3.5t-14.5 3.5l2 17h228l-7 -17q-31 -6 -45 -11t-30.5 -22.5t-26.5 -49.5l-63 -194q-69 -211 91 -211
q33 0 63.5 9.5t62.5 31t60 63t47 99.5l69 209q4 12 5.5 22t1.5 16.5t-4 12t-6.5 8.5t-10.5 6t-11.5 4t-15 3.5t-15.5 3.5l7 17h199l-6 -18q-35 -7 -49 -11t-33 -21.5t-29 -49.5l-65 -199q-22 -69 -56.5 -118t-75 -75.5t-81.5 -38t-85 -11.5z" />
    <glyph glyph-name="uogonek.sc" horiz-adv-x="660" 
d="M537 530h199l-6 -18q-35 -7 -49 -11t-33 -21.5t-29 -49.5l-65 -199q-76 -233 -283 -243q-54 -28 -81.5 -53.5t-27.5 -61.5q0 -45 45 -45q17 0 61 13l-7 -16q-41 -36 -91 -36q-35 0 -57 17t-22 52q0 39 31 73l98 59q-173 22 -99 254l62 193q4 12 5.5 22t2.5 16.5t-3 12
t-5 8.5t-9.5 6t-10.5 4t-13.5 3.5t-14.5 3.5l2 17h228l-7 -17q-31 -6 -45 -11t-30.5 -22.5t-26.5 -49.5l-63 -194q-69 -211 91 -211q33 0 63.5 9.5t62.5 31t60 63t47 99.5l69 209q4 12 5.5 22t1.5 16.5t-4 12t-6.5 8.5t-10.5 6t-11.5 4t-15 3.5t-15.5 3.5z" />
    <glyph glyph-name="uring.sc" horiz-adv-x="660" 
d="M465 629q-34 0 -57.5 24t-23.5 58t23.5 58t57.5 24t58 -24t24 -58t-24 -58t-58 -24zM465 658q21 0 36.5 16t15.5 37t-15.5 37t-36.5 16t-36 -16t-15 -37t15 -37t36 -16zM256 -12q-33 0 -59 6t-50.5 23t-36.5 44.5t-10.5 74.5t21.5 108l62 193q4 12 5.5 22t2.5 16.5t-3 12
t-5 8.5t-9.5 6t-10.5 4t-13.5 3.5t-14.5 3.5l2 17h228l-7 -17q-31 -6 -45 -11t-30.5 -22.5t-26.5 -49.5l-63 -194q-69 -211 91 -211q33 0 63.5 9.5t62.5 31t60 63t47 99.5l69 209q4 12 5.5 22t1.5 16.5t-4 12t-6.5 8.5t-10.5 6t-11.5 4t-15 3.5t-15.5 3.5l7 17h199l-6 -18
q-35 -7 -49 -11t-33 -21.5t-29 -49.5l-65 -199q-22 -69 -56.5 -118t-75 -75.5t-81.5 -38t-85 -11.5z" />
    <glyph glyph-name="v.sc" horiz-adv-x="613" 
d="M521 530h167l-5 -18q-38 -6 -53.5 -15t-40.5 -42l-333 -455h-36l-45 450q-4 39 -14 49t-44 13l6 18h214l-5 -18q-6 -2 -23 -7.5t-26 -9.5t-17 -15.5t-6 -27.5l36 -350l262 361q33 49 -42 49z" />
    <glyph glyph-name="w.sc" horiz-adv-x="849" 
d="M194 -18l-16 478q-1 28 -14.5 39.5t-45.5 13.5l5 17h218l-11 -19q-17 -4 -29 -8t-25.5 -11.5t-20.5 -19.5t-6 -28l13 -344l177 269q31 43 27 87.5t-46 56.5l6 17h125q-15 -51 -11 -146l12 -283l206 313q24 37 25 58.5t-14 29.5t-49 11l3 17h203l-8 -19
q-39 -10 -55.5 -21.5t-40.5 -45.5l-310 -461h-29l-12 373l-251 -374h-26z" />
    <glyph glyph-name="wacute.sc" horiz-adv-x="849" 
d="M515 606l-14 12q35 97 69 145q16 0 35.5 -14.5t24.5 -26.5q-12 -8 -23 -17.5t-24.5 -24t-20.5 -21.5t-24.5 -27.5t-22.5 -25.5zM194 -18l-16 478q-1 28 -14.5 39.5t-45.5 13.5l5 17h218l-11 -19q-17 -4 -29 -8t-25.5 -11.5t-20.5 -19.5t-6 -28l13 -344l177 269
q31 43 27 87.5t-46 56.5l6 17h125q-15 -51 -11 -146l12 -283l206 313q24 37 25 58.5t-14 29.5t-49 11l3 17h203l-8 -19q-39 -10 -55.5 -21.5t-40.5 -45.5l-310 -461h-29l-12 373l-251 -374h-26z" />
    <glyph glyph-name="wcircumflex.sc" horiz-adv-x="849" 
d="M590 776l70 -155l-13 -7l-79 98l-143 -98l-8 9zM194 -18l-16 478q-1 28 -14.5 39.5t-45.5 13.5l5 17h218l-11 -19q-17 -4 -29 -8t-25.5 -11.5t-20.5 -19.5t-6 -28l13 -344l177 269q31 43 27 87.5t-46 56.5l6 17h125q-15 -51 -11 -146l12 -283l206 313q24 37 25 58.5
t-14 29.5t-49 11l3 17h203l-8 -19q-39 -10 -55.5 -21.5t-40.5 -45.5l-310 -461h-29l-12 373l-251 -374h-26z" />
    <glyph glyph-name="wdieresis.sc" horiz-adv-x="849" 
d="M440 672q-17 0 -28 11t-11 28q0 18 11 29t28 11q18 0 29 -11t11 -29q0 -17 -11 -28t-29 -11zM620 672q-17 0 -28 11t-11 28q0 18 11 29t28 11q18 0 29 -11t11 -29q0 -17 -11 -28t-29 -11zM194 -18l-16 478q-1 28 -14.5 39.5t-45.5 13.5l5 17h218l-11 -19q-17 -4 -29 -8
t-25.5 -11.5t-20.5 -19.5t-6 -28l13 -344l177 269q31 43 27 87.5t-46 56.5l6 17h125q-15 -51 -11 -146l12 -283l206 313q24 37 25 58.5t-14 29.5t-49 11l3 17h203l-8 -19q-39 -10 -55.5 -21.5t-40.5 -45.5l-310 -461h-29l-12 373l-251 -374h-26z" />
    <glyph glyph-name="wgrave.sc" horiz-adv-x="849" 
d="M513 606q-5 5 -22.5 25.5t-24.5 27.5t-20.5 21.5t-24.5 24t-23 17.5q6 12 26 26.5t35 14.5q34 -48 69 -145zM194 -18l-16 478q-1 28 -14.5 39.5t-45.5 13.5l5 17h218l-11 -19q-17 -4 -29 -8t-25.5 -11.5t-20.5 -19.5t-6 -28l13 -344l177 269q31 43 27 87.5t-46 56.5l6 17
h125q-15 -51 -11 -146l12 -283l206 313q24 37 25 58.5t-14 29.5t-49 11l3 17h203l-8 -19q-39 -10 -55.5 -21.5t-40.5 -45.5l-310 -461h-29l-12 373l-251 -374h-26z" />
    <glyph glyph-name="x.sc" horiz-adv-x="621" 
d="M484 530h193l-3 -19q-48 -8 -72 -20t-64 -52l-171 -161l63 -195q11 -35 29 -46t66 -21l-3 -16h-241l8 18q40 6 56.5 21t6.5 46l-47 151l-156 -160q-23 -23 -26 -34.5t6.5 -16.5t37.5 -11l-5 -14h-197l5 18q51 8 78 20.5t63 48.5l184 180l-52 165q-15 45 -35.5 59
t-66.5 20l6 19h236l-6 -19q-43 -9 -58 -22.5t-3 -50.5l42 -130l136 138q12 12 19 21t11.5 15.5t2.5 11t-3 7t-10.5 4.5t-14 3t-19.5 3z" />
    <glyph glyph-name="y.sc" horiz-adv-x="567" 
d="M481 530h182l-6 -24q-37 -8 -52 -17.5t-49 -46.5l-208 -221l-38 -115q-7 -20 -7.5 -34t2.5 -22.5t12.5 -14.5t20 -9t28.5 -6l-4 -20h-269l6 16q27 6 39.5 10.5t27.5 14t24 24.5t16 40l35 104l-68 232q-12 40 -21 50.5t-41 14.5l6 24h246l-5 -24q-50 -12 -61 -25
q-12 -14 -6 -39l53 -183l170 191q16 16 19.5 27t-7.5 16.5t-19.5 7.5t-30.5 5z" />
    <glyph glyph-name="yacute.sc" horiz-adv-x="567" 
d="M530 722q-12 -8 -23 -17.5t-24.5 -24t-20.5 -21.5t-24.5 -27.5t-22.5 -25.5l-14 12q35 97 69 145q16 0 35.5 -14.5t24.5 -26.5zM481 530h182l-6 -24q-37 -8 -52 -17.5t-49 -46.5l-208 -221l-38 -115q-7 -20 -7.5 -34t2.5 -22.5t12.5 -14.5t20 -9t28.5 -6l-4 -20h-269
l6 16q27 6 39.5 10.5t27.5 14t24 24.5t16 40l35 104l-68 232q-12 40 -21 50.5t-41 14.5l6 24h246l-5 -24q-50 -12 -61 -25q-12 -14 -6 -39l53 -183l170 191q16 16 19.5 27t-7.5 16.5t-19.5 7.5t-30.5 5z" />
    <glyph glyph-name="ycircumflex.sc" horiz-adv-x="567" 
d="M468 712l-143 -98l-8 9l173 153l70 -155l-13 -7zM481 530h182l-6 -24q-37 -8 -52 -17.5t-49 -46.5l-208 -221l-38 -115q-7 -20 -7.5 -34t2.5 -22.5t12.5 -14.5t20 -9t28.5 -6l-4 -20h-269l6 16q27 6 39.5 10.5t27.5 14t24 24.5t16 40l35 104l-68 232q-12 40 -21 50.5
t-41 14.5l6 24h246l-5 -24q-50 -12 -61 -25q-12 -14 -6 -39l53 -183l170 191q16 16 19.5 27t-7.5 16.5t-19.5 7.5t-30.5 5z" />
    <glyph glyph-name="ydieresis.sc" horiz-adv-x="567" 
d="M339 672q-17 0 -28 11t-11 28q0 18 11 29t28 11q18 0 29 -11t11 -29q0 -17 -11 -28t-29 -11zM519 672q-17 0 -28 11t-11 28q0 18 11 29t28 11q18 0 29 -11t11 -29q0 -17 -11 -28t-29 -11zM481 530h182l-6 -24q-37 -8 -52 -17.5t-49 -46.5l-208 -221l-38 -115
q-7 -20 -7.5 -34t2.5 -22.5t12.5 -14.5t20 -9t28.5 -6l-4 -20h-269l6 16q27 6 39.5 10.5t27.5 14t24 24.5t16 40l35 104l-68 232q-12 40 -21 50.5t-41 14.5l6 24h246l-5 -24q-50 -12 -61 -25q-12 -14 -6 -39l53 -183l170 191q16 16 19.5 27t-7.5 16.5t-19.5 7.5t-30.5 5z
" />
    <glyph glyph-name="ygrave.sc" horiz-adv-x="567" 
d="M413 606q-5 5 -22.5 25.5t-24.5 27.5t-20.5 21.5t-24.5 24t-23 17.5q6 12 26 26.5t35 14.5q34 -48 69 -145zM481 530h182l-6 -24q-37 -8 -52 -17.5t-49 -46.5l-208 -221l-38 -115q-7 -20 -7.5 -34t2.5 -22.5t12.5 -14.5t20 -9t28.5 -6l-4 -20h-269l6 16q27 6 39.5 10.5
t27.5 14t24 24.5t16 40l35 104l-68 232q-12 40 -21 50.5t-41 14.5l6 24h246l-5 -24q-50 -12 -61 -25q-12 -14 -6 -39l53 -183l170 191q16 16 19.5 27t-7.5 16.5t-19.5 7.5t-30.5 5z" />
    </font>
</defs>
</svg>
