<?xml version="1.0" standalone="no"?>
<!DOCTYPE svg PUBLIC "-//W3C//DTD SVG 1.1//EN" "http://www.w3.org/Graphics/SVG/1.1/DTD/svg11.dtd" >
<svg xmlns="http://www.w3.org/2000/svg" xmlns:xlink="http://www.w3.org/1999/xlink" version="1.1">
<metadata>
Created by FontForge 20170731 at Tue Jun  5 16:44:09 2018
 By Aleksey,,,
Copyright (c) 2018 by Connary Fagen. All rights reserved.
</metadata>
<defs>
<font id="AddingtonCF-Medium" horiz-adv-x="595" >
  <font-face 
    font-family="Addington CF Medium"
    font-weight="500"
    font-stretch="normal"
    units-per-em="1000"
    panose-1="0 0 6 0 0 0 0 0 0 0"
    ascent="800"
    descent="-200"
    x-height="440"
    cap-height="630"
    bbox="-181 -332 1143 902"
    underline-thickness="50"
    underline-position="-200"
    unicode-range="U+0020-FB02"
  />
<missing-glyph horiz-adv-x="488" 
d="M400 800v-975h-309v975h309zM325 735h-161v-32h63v-37h-64v-32h162v32h-65v37h65v32zM260 609h-97v-101h162v33h-65v68zM227 576v-35h-32v35h32zM325 481h-162v-32h64v-36h-64v-32h97v68h65v32zM325 423h-32v-65h-130v-33h162v98zM325 304h-98v-55h33v23h33v-46h-98v78
h-32v-110h162v110zM325 135h-162v-110h162v110zM293 103v-46h-98v46h98zM325 2h-162v-32h68l-68 -46v-32h162v32h-100l68 46h32v32z" />
    <glyph glyph-name="fi" unicode="fi" horiz-adv-x="638" 
d="M204 79q0 -16 6.5 -26t23.5 -15.5t30 -8t44 -5.5v-24h-290v24q18 3 25 4.5t19.5 5.5t17 9t9 14t4.5 22v320h-75v25l75 15q6 119 91.5 187t199.5 68q22 0 46.5 -3t55.5 -11t51 -27t20 -47v-1q0 -26 -20 -45t-47 -19q-26 0 -46 19t-20 45v1q1 29 -9.5 41.5t-38.5 12.5
q-66 0 -119 -51.5t-53 -154.5v-15l101 10q-5 -21 -5 -50h-96v-320zM550 79q0 -30 14 -39t52 -16v-24h-240v24q21 4 29 6t19 7.5t14.5 15.5t3.5 26v234q0 30 -12.5 44t-53.5 19v22q94 16 153 58l21 -19v-358z" />
    <glyph glyph-name="fl" unicode="fl" horiz-adv-x="628" 
d="M532 79q0 -28 15.5 -38t50.5 -16q5 -1 7 -1v-24h-253v24q49 9 61 20t12 35v472q0 39 -30.5 66t-87.5 27q-103 0 -103 -131v-74l116 10q-5 -21 -5 -50h-111v-320q0 -16 6.5 -26t23.5 -15.5t30 -8t44 -5.5v-24h-290v24q18 3 25 4.5t19.5 5.5t17 9t9 14t4.5 22v320h-75v25
l75 15q1 122 72.5 186t187.5 64q110 0 179 -34v-576z" />
    <glyph glyph-name="f_f" unicode="ff" horiz-adv-x="709" 
d="M668 698q89 0 113 -59q0 -24 -22.5 -42.5t-52.5 -23.5q-27 80 -77 80q-32 0 -55.5 -28.5t-23.5 -102.5v-75l118 4h3h6q-5 -23 -5 -50h-122v-322q0 -16 6.5 -26t23.5 -15.5t30 -8t44 -5.5v-24h-290v24q18 3 25 4.5t19.5 5.5t17 9t9 14t4.5 22v322h-235v-322q0 -16 6.5 -26
t23.5 -15.5t30 -8t44 -5.5v-24h-290v24q18 3 25 4.5t19.5 5.5t17 9t9 14t4.5 22v322h-75v24l75 15h1q6 111 67 171t146 60q81 0 105 -59q0 -25 -20.5 -43t-50.5 -23q-7 31 -27 55.5t-43 24.5q-25 0 -46 -29t-21 -102v-60l235 8q0 122 67 188.5t162 66.5z" />
    <glyph glyph-name="f_f_i" unicode="ffi" horiz-adv-x="991" 
d="M728 660q-66 0 -118.5 -51.5t-52.5 -154.5v-6l102 3q-5 -23 -5 -50h-97v-322q0 -16 6.5 -26t23.5 -15.5t30 -8t43 -5.5v-24h-290v24q18 3 25 4.5t19.5 5.5t17 9t9 14t4.5 22v322h-241v-322q0 -16 6.5 -26t23.5 -15.5t30 -8t44 -5.5v-24h-290v24q18 3 25 4.5t19.5 5.5
t17 9t9 14t4.5 22v322h-75v24l75 15h1q6 111 66 171t144 60q81 0 105 -59q0 -25 -20.5 -43t-50.5 -23q-7 31 -27 55.5t-43 24.5q-25 0 -44.5 -29t-19.5 -102v-59l242 8q7 117 92.5 183.5t197.5 66.5q23 0 47 -3t55.5 -11t51 -27t19.5 -47v-1q0 -26 -20 -45t-46 -19
q-27 0 -47 19t-20 45v1v3q1 27 -9.5 39t-38.5 12zM902 79q0 -30 14 -39t52 -16v-24h-239v24q27 5 37 8t19.5 14.5t9.5 32.5v234q0 30 -12.5 44t-53.5 19v22q93 16 152 58l21 -19v-358z" />
    <glyph glyph-name=".notdef" horiz-adv-x="488" 
d="M400 800v-975h-309v975h309zM325 735h-161v-32h63v-37h-64v-32h162v32h-65v37h65v32zM260 609h-97v-101h162v33h-65v68zM227 576v-35h-32v35h32zM325 481h-162v-32h64v-36h-64v-32h97v68h65v32zM325 423h-32v-65h-130v-33h162v98zM325 304h-98v-55h33v23h33v-46h-98v78
h-32v-110h162v110zM325 135h-162v-110h162v110zM293 103v-46h-98v46h98zM325 2h-162v-32h68l-68 -46v-32h162v32h-100l68 46h32v32z" />
    <glyph glyph-name=".null" horiz-adv-x="0" 
 />
    <glyph glyph-name="nonmarkingreturn" horiz-adv-x="333" 
 />
    <glyph glyph-name="space" unicode=" " horiz-adv-x="208" 
 />
    <glyph glyph-name="exclam" unicode="!" horiz-adv-x="224" 
d="M98 187l-46 402q-7 64 60 64q68 0 60 -64l-46 -402h-28zM121 -10q-28 0 -48 20t-20 48q0 27 20 46.5t48 19.5q27 0 47 -19.5t20 -46.5q0 -28 -20 -48t-47 -20z" />
    <glyph glyph-name="quotedbl" unicode="&#x22;" horiz-adv-x="296" 
d="M71 388l-35 184q-5 25 7.5 41.5t36.5 16.5t36.5 -16.5t7.5 -41.5l-37 -184h-16zM208 388l-36 184q-5 25 7.5 41.5t36.5 16.5t36.5 -16.5t7.5 -41.5l-36 -184h-16z" />
    <glyph glyph-name="numbersign" unicode="#" horiz-adv-x="567" 
d="M520 417h-98l-44 -190h100l-12 -50h-100l-47 -207h-56l48 207h-122l-47 -207h-56l48 207h-100l13 50h98l44 190h-100l12 49h99l48 206h55l-47 -206h121l48 206h55l-47 -206h100zM322 227l44 190h-121l-44 -190h121z" />
    <glyph glyph-name="dollar" unicode="$" horiz-adv-x="526" 
d="M489 186q0 -70 -58.5 -115.5t-148.5 -51.5v-81h-33v80q-111 2 -198 57l-8 118h27q19 -65 66 -104t113 -39v228l-13 6q-39 16 -66.5 30.5t-56.5 37t-44 52t-15 64.5q0 64 50.5 104t144.5 44v81h33v-81q26 -1 49 -5t43 -11.5t29.5 -11.5t27.5 -14l18 -11l3 -119h-25
q-39 132 -145 140v-198l7 -3q27 -12 36.5 -16t36.5 -17.5t39.5 -23t32.5 -26t29.5 -32t17.5 -37.5t8 -45zM162 499q0 -29 20.5 -52t66.5 -46v182q-43 -5 -65 -28t-22 -56zM282 53q41 8 66 35.5t25 65.5q0 64 -91 109v-210z" />
    <glyph glyph-name="percent" unicode="%" horiz-adv-x="691" 
d="M535 630h63l-447 -630h-55l396 552q-81 -49 -181 -1q3 -15 3 -31q0 -76 -47.5 -137t-115.5 -61q-49 0 -78 32.5t-29 85.5q0 75 50.5 134t120.5 59q40 0 64 -21q45 -26 75 -38.5t63.5 -16t62 14.5t55.5 58zM172 354q43 0 76 53.5t33 111.5q0 38 -16.5 60.5t-43.5 22.5
q-30 0 -54 -29.5t-35 -67.5t-11 -73q0 -36 13 -57t38 -21zM548 309q47 0 73 -30.5t26 -82.5q0 -76 -47.5 -137t-115.5 -61q-49 0 -78 32.5t-29 85.5q0 75 50.5 134t120.5 59zM505 31q43 0 76 53.5t33 111.5q0 38 -16.5 60t-43.5 22q-45 0 -72.5 -55.5t-27.5 -113.5
q0 -78 51 -78z" />
    <glyph glyph-name="ampersand" unicode="&#x26;" horiz-adv-x="738" 
d="M538 70q18 -22 73.5 -11t102.5 46v-29q-37 -38 -90.5 -62.5t-94.5 -23.5q-44 0 -92 55q-84 -55 -181 -55q-54 0 -103.5 17.5t-86.5 60t-37 102.5q0 68 41.5 111t112.5 74q-37 57 -37 103q0 68 56 111t130 43q53 0 92.5 -24t39.5 -75q0 -87 -153 -175q4 -6 7 -9l150 -177
q39 60 39 105q0 43 -86 43v30h278v-30q-46 -1 -71.5 -12.5t-37.5 -44.5q-26 -76 -82 -138zM305 578q-28 0 -47 -21t-19 -62q0 -61 54 -135q79 62 79 140q0 33 -18 55.5t-49 22.5zM144 188q0 -73 44.5 -117.5t99.5 -44.5q59 0 119 55l-176 210l-24 30q-63 -49 -63 -133z" />
    <glyph glyph-name="quotesingle" unicode="'" horiz-adv-x="159" 
d="M71 388l-35 184q-5 25 7.5 41.5t36.5 16.5t36.5 -16.5t7.5 -41.5l-37 -184h-16z" />
    <glyph glyph-name="parenleft" unicode="(" horiz-adv-x="309" 
d="M270 -159q-226 151 -226 455t226 455l25 -6q-149 -168 -146 -449q3 -283 141 -444z" />
    <glyph glyph-name="parenright" unicode=")" horiz-adv-x="309" 
d="M39 -159l-20 11q138 160 141 444q3 283 -146 449l25 6q226 -150 226 -455t-226 -455z" />
    <glyph glyph-name="asterisk" unicode="*" horiz-adv-x="368" 
d="M176 522l-24 58q-11 27 0.5 41.5t31.5 14.5t31.5 -14.5t1.5 -41.5l-24 -58q-3 -8 -8.5 -8t-8.5 8zM144 492l-61 11q-28 5 -35.5 23.5t4.5 32.5q10 17 26.5 19t37.5 -20l38 -50q5 -6 1.5 -11.5t-11.5 -4.5zM224 492q-7 -1 -10.5 4.5t1.5 11.5l38 50q20 22 36.5 20
t27.5 -19q12 -14 4.5 -32.5t-35.5 -23.5zM51 406q-11 13 -3.5 32t35.5 23l61 11q8 1 11.5 -4.5t-1.5 -10.5l-38 -50q-21 -22 -38 -20t-27 19zM317 406q-10 -17 -27 -19t-37 20l-38 50q-5 5 -1.5 10.5t10.5 4.5l62 -11q28 -4 35.5 -23t-4.5 -32zM184 329q-20 0 -31.5 14
t-0.5 41l23 59q3 7 9 7t9 -7l23 -59q11 -27 -0.5 -41t-31.5 -14z" />
    <glyph glyph-name="plus" unicode="+" horiz-adv-x="498" 
d="M434 286v-69h-150v-152h-69v152h-151v69h151v150h69v-150h150z" />
    <glyph glyph-name="comma" unicode="," horiz-adv-x="235" 
d="M42 -151l-9 24q74 26 88 83q7 26 -20 41q-39 23 -39 61q0 28 19.5 47t48.5 19q30 0 51.5 -23.5t21.5 -64.5q0 -59 -43 -114t-118 -73z" />
    <glyph glyph-name="hyphen" unicode="-" horiz-adv-x="418" 
d="M54 231v51h310v-51h-310z" />
    <glyph glyph-name="period" unicode="." horiz-adv-x="221" 
d="M111 -10q-28 0 -48 20t-20 48q0 27 20 46.5t48 19.5q27 0 47 -19.5t20 -46.5q0 -28 -20 -48t-47 -20z" />
    <glyph glyph-name="slash" unicode="/" horiz-adv-x="392" 
d="M24 -64l313 817l61 -27l-313 -816z" />
    <glyph glyph-name="zero" unicode="0" horiz-adv-x="541" 
d="M265 -9q-98 0 -165 61.5t-67 164.5q0 106 71.5 169t171.5 63q97 0 164.5 -62t67.5 -164q0 -106 -71.5 -169t-171.5 -63zM278 26q49 0 81.5 45t32.5 130q0 88 -35 151t-95 63q-48 0 -81 -45.5t-33 -130.5q0 -87 35.5 -150t94.5 -63z" />
    <glyph glyph-name="one" unicode="1" horiz-adv-x="376" 
d="M242 79q0 -30 19 -39t76 -16v-24h-298v24q26 3 36 4.5t25 5.5t20 9t9.5 14t4.5 22v282q0 30 -19.5 39.5t-75.5 15.5v24h298v-24q-30 -3 -43.5 -5.5t-27.5 -8t-19 -15.5t-5 -26v-282z" />
    <glyph glyph-name="two" unicode="2" horiz-adv-x="445" 
d="M43 0l-9 21q7 6 22 18q53 44 81 68t66 63t55 73t17 67t-20 55.5t-64 22.5q-75 0 -119 -71l-23 13q24 57 74 88t110 31q66 0 110 -35t44 -89q0 -18 -5.5 -36t-14 -33.5t-23 -32.5t-26.5 -29.5t-32 -28t-32 -24.5t-33 -22.5t-29.5 -19t-27 -16t-20.5 -11.5h125
q49 0 74.5 11t42.5 52h25l-40 -146h-25l-2 11h-301z" />
    <glyph glyph-name="three" unicode="3" horiz-adv-x="480" 
d="M184 -190q-56 0 -103 18.5t-47 55.5q0 18 11.5 27.5t26.5 9.5q16 0 31 -12t26 -27t29.5 -27t41.5 -12q46 0 89 41t43 109q0 66 -40 99t-101 33q-41 0 -85 -17l-10 28l70 33q74 34 103.5 60t29.5 68q0 39 -23.5 62t-66.5 23q-80 0 -136 -71l-20 19q72 119 197 119
q67 0 109.5 -35t41.5 -92q0 -48 -33 -82t-97 -65q71 -5 123 -43t52 -111q0 -88 -79.5 -149.5t-182.5 -61.5z" />
    <glyph glyph-name="four" unicode="4" horiz-adv-x="536" 
d="M492 -5h-85v-91q0 -30 16.5 -39.5t58.5 -15.5v-24h-263v24q18 3 25.5 4.5t19.5 5.5t17 9t9 14t4 22v91h-255l-15 22l345 438h38v-414h95zM84 41h210v269z" />
    <glyph glyph-name="five" unicode="5" horiz-adv-x="502" 
d="M123 216q91 14 154 3.5t102 -44t56.5 -72t17.5 -79.5q0 -88 -74 -151t-183 -63q-25 0 -51.5 4t-52 12t-42 23t-16.5 35q0 18 12.5 27.5t29.5 9.5t33 -12t26.5 -27t30 -27t44.5 -12q50 0 88 41.5t38 104.5q0 37 -14 70.5t-44.5 61t-78 35t-114.5 -7.5l-18 19l97 273h168
q38 0 54 1t33.5 8t28.5 21h22l-39 -119h-259z" />
    <glyph glyph-name="six" unicode="6" horiz-adv-x="557" 
d="M283 -12q-115 0 -178 76.5t-62 192.5q0 104 56.5 191.5t140 135.5t173.5 53l16 -29q-109 -10 -189.5 -106t-80.5 -262q0 -97 32.5 -157.5t96.5 -60.5q59 0 90 50.5t31 123.5q0 88 -46.5 135t-140.5 26v27q51 26 105 22.5t98 -25t72 -67t28 -103.5q0 -94 -67.5 -158.5
t-174.5 -64.5z" />
    <glyph glyph-name="seven" unicode="7" horiz-adv-x="506" 
d="M476 440l11 -15q-200 -301 -273 -615h-88q78 249 275 541h-217q-37 0 -54.5 -3t-37 -19t-35.5 -51h-23l55 179h23l2 -17h362z" />
    <glyph glyph-name="eight" unicode="8" horiz-adv-x="555" 
d="M379 345q132 -56 132 -170q0 -82 -68 -136t-170 -54q-98 0 -163.5 48.5t-65.5 128.5q0 103 112 164q-70 55 -70 138q0 70 55 118t140 48q80 0 130 -44t50 -106q0 -77 -82 -135zM281 598q-48 0 -72.5 -30.5t-24.5 -70.5q0 -36 22 -67t68 -47l60 -21q53 46 53 115
q0 47 -26 84t-80 37zM280 19q59 0 90 33t31 88q0 49 -25 76t-86 49l-67 24q-20 8 -29 13q-71 -50 -71 -133q0 -65 43 -107.5t114 -42.5z" />
    <glyph glyph-name="nine" unicode="9" horiz-adv-x="557" 
d="M274 449q116 0 179 -76t62 -193q0 -104 -56.5 -191.5t-140 -135.5t-173.5 -53l-16 29q109 10 189 106t80 262q0 98 -32.5 158.5t-96.5 60.5q-59 0 -90 -50.5t-31 -124.5q0 -88 47 -134.5t141 -26.5v-27q-51 -26 -105 -22.5t-98 25t-72 67t-28 103.5q0 95 67 159t174 64z
" />
    <glyph glyph-name="colon" unicode=":" horiz-adv-x="225" 
d="M111 315q-28 0 -48 20t-20 48q0 27 20 46.5t48 19.5q27 0 47 -19.5t20 -46.5q0 -28 -20 -48t-47 -20zM112 -10q-28 0 -48 20t-20 48q0 27 20 46.5t48 19.5q27 0 47 -19.5t20 -46.5q0 -28 -20 -48t-47 -20z" />
    <glyph glyph-name="semicolon" unicode=";" horiz-adv-x="242" 
d="M139 314q-28 0 -48 20t-20 48q0 27 20 46.5t48 19.5q27 0 47 -19.5t20 -46.5q0 -28 -20 -48t-47 -20zM42 -151l-9 24q74 26 88 83q7 26 -20 41q-39 23 -39 61q0 28 19.5 47t48.5 19q30 0 51.5 -23.5t21.5 -64.5q0 -59 -43 -114t-118 -73z" />
    <glyph glyph-name="less" unicode="&#x3c;" horiz-adv-x="501" 
d="M437 45q-175 95 -373 171v69q198 76 373 171v-80q-134 -72 -292 -125q158 -54 292 -125v-81z" />
    <glyph glyph-name="equal" unicode="=" horiz-adv-x="498" 
d="M64 307v69h370v-69h-370zM64 127v69h370v-69h-370z" />
    <glyph glyph-name="greater" unicode="&#x3e;" horiz-adv-x="501" 
d="M64 45v81q134 71 292 125q-158 53 -292 125v80q175 -95 373 -171v-69q-198 -76 -373 -171z" />
    <glyph glyph-name="question" unicode="?" horiz-adv-x="467" 
d="M208 195q-13 26 -10.5 53.5t13.5 47t27.5 44.5t32 47t26.5 54t11 66q0 113 -127 113q-28 0 -40 -28q-20 -52 -36.5 -72.5t-38.5 -20.5q-18 0 -30 11.5t-12 30.5q0 50 77.5 83.5t156.5 33.5q82 0 128.5 -42.5t46.5 -113.5q0 -39 -15.5 -72t-38.5 -54t-49.5 -43t-49 -40
t-36.5 -43.5t-12 -54.5h-24zM219 -11q-28 0 -48 20t-20 48t20 47t48 19q27 0 47 -19.5t20 -46.5q0 -28 -20 -48t-47 -20z" />
    <glyph glyph-name="at" unicode="@" horiz-adv-x="789" 
d="M601 439l-48 -236q-14 -73 41 -73q43 0 79.5 50.5t36.5 130.5q0 130 -80.5 211t-208.5 81q-135 0 -217 -93.5t-82 -229.5q0 -132 81.5 -224.5t212.5 -92.5q91 0 184 54l20 -15q-93 -70 -216 -70q-151 0 -255.5 101t-104.5 247q0 148 107 251.5t265 103.5q147 0 238 -93.5
t91 -230.5q0 -93 -47.5 -150.5t-115.5 -57.5q-19 0 -37.5 3.5t-39.5 20.5t-22 47q-51 -68 -129 -68q-54 0 -90 34.5t-36 103.5q0 90 60 149t132 59q77 0 100 -72l12 59h69zM378 138q41 0 74 38t46 94l4 18q3 18 3 38q0 98 -76 98q-54 0 -87 -56t-33 -126q0 -52 19 -78
t50 -26z" />
    <glyph glyph-name="A" unicode="A" horiz-adv-x="691" 
d="M606 81q14 -33 27 -41t55 -16v-24h-275v24l17.5 3.5t17.5 4t13.5 4.5t11.5 6.5t6 9t1.5 12.5t-5.5 17l-48 111h-250l-47 -112q-4 -9 -5 -16.5t2 -12.5t5.5 -8.5t11 -6.5t13 -4.5t17 -4l17.5 -3.5v-24h-188v24q31 6 42 9.5t21.5 14t19.5 33.5l237 556h41zM192 228h219
l-111 258z" />
    <glyph glyph-name="B" unicode="B" horiz-adv-x="655" 
d="M436 331q85 -18 133 -58.5t48 -102.5q0 -85 -80.5 -127.5t-222.5 -42.5h-291v24q51 10 64 20q19 16 19 59v424q0 23 -3.5 37t-17.5 22.5t-20.5 10.5t-33.5 7q-5 1 -8 2v24h291q119 0 189.5 -37t70.5 -111q0 -56 -37 -94t-101 -57zM448 471q0 54 -30.5 87.5t-113.5 33.5
q-47 0 -63 -11.5t-16 -37.5v-197h84q78 0 108.5 33t30.5 92zM331 38q152 0 152 126q0 62 -43.5 104.5t-149.5 42.5h-65v-197q0 -39 23 -57.5t83 -18.5z" />
    <glyph glyph-name="C" unicode="C" horiz-adv-x="656" 
d="M380 -12q-149 0 -243 92.5t-94 234.5q0 144 97.5 237.5t253.5 93.5q118 0 195 -46q4 -91 7 -135h-38q-33 143 -177 143q-100 0 -154 -69.5t-54 -189.5q0 -136 74.5 -222.5t188.5 -86.5q107 0 156 53l22 -22q-32 -35 -94 -59t-140 -24z" />
    <glyph glyph-name="D" unicode="D" horiz-adv-x="701" 
d="M294 630q71 0 134.5 -18t116 -53.5t83.5 -97.5t31 -142q0 -82 -30.5 -145.5t-82.5 -100t-115.5 -55t-136.5 -18.5h-271v24q51 10 64 20q19 16 19 59v424q0 23 -3.5 37t-17.5 22.5t-20.5 10.5t-33.5 7q-5 1 -8 2v24h271zM322 38q103 0 155 71t52 200q0 132 -59 208
t-186 76h-59v-459q0 -53 20.5 -74.5t76.5 -21.5z" />
    <glyph glyph-name="E" unicode="E" horiz-adv-x="592" 
d="M535 152h29l-41 -152h-500v24q51 10 64 20q19 16 19 59v424q0 23 -3.5 37t-17.5 22.5t-20.5 10.5t-33.5 7q-5 1 -8 2v24h498l9 -144h-29q-7 57 -27 81.5t-71 24.5h-84q-59 0 -76.5 -13t-17.5 -63v-180h72q86 0 110 17t29 67h23v-204h-23q-5 50 -29 67t-110 17h-72v-186
q0 -50 17.5 -63t76.5 -13h63q59 0 92 24.5t61 89.5z" />
    <glyph glyph-name="F" unicode="F" horiz-adv-x="555" 
d="M519 630l9 -144h-29q-7 57 -27 81.5t-71 24.5h-82q-59 0 -76.5 -13t-17.5 -63v-180h67q86 0 110 17t29 67h23v-204h-23q-5 50 -29 67t-110 17h-67v-197q0 -23 3.5 -37t17.5 -22.5t20.5 -10.5t33.5 -7q5 -1 8 -2v-24h-285v24q51 10 64 20q19 16 19 59v424q0 23 -3.5 37
t-17.5 22.5t-20.5 10.5t-33.5 7q-5 1 -8 2v24h496z" />
    <glyph glyph-name="G" unicode="G" horiz-adv-x="713" 
d="M401 -12q-167 0 -262.5 92t-95.5 235q0 144 97.5 237.5t254.5 93.5q123 0 200 -46q4 -91 7 -135h-38q-33 143 -183 143q-101 0 -154.5 -68.5t-53.5 -192.5q0 -143 62.5 -232t170.5 -89q56 0 78 24t22 82v39q0 65 -21 85t-85 25v28h275v-28q-34 -5 -49 -20t-15 -50v-44
q0 -71 15 -124q-28 -23 -90 -39t-135 -16z" />
    <glyph glyph-name="H" unicode="H" horiz-adv-x="720" 
d="M698 606q-51 -10 -64 -20q-19 -16 -19 -59v-424q0 -23 3.5 -37t17.5 -22.5t20.5 -10.5t33.5 -7q5 -1 8 -2v-24h-286v24q51 10 64 20q19 16 19 59v194h-270v-194q0 -23 3.5 -37t17.5 -22.5t20.5 -10.5t33.5 -7q5 -1 8 -2v-24h-285v24q51 10 64 20q19 16 19 59v424
q0 23 -3.5 37t-17.5 22.5t-20.5 10.5t-33.5 7q-5 1 -8 2v24h285v-24q-51 -10 -64 -20q-19 -16 -19 -59v-194h270v194q0 23 -3.5 37t-17.5 22.5t-20.5 10.5t-33.5 7q-5 1 -8 2v24h286v-24z" />
    <glyph glyph-name="I" unicode="I" horiz-adv-x="331" 
d="M23 0v24q51 10 64 20q19 16 19 59v424q0 23 -3.5 37t-17.5 22.5t-20.5 10.5t-33.5 7q-5 1 -8 2v24h285v-24q-51 -10 -64 -20q-19 -16 -19 -59v-424q0 -23 3.5 -37t17.5 -22.5t20.5 -10.5t33.5 -7q5 -1 8 -2v-24h-285z" />
    <glyph glyph-name="J" unicode="J" horiz-adv-x="332" 
d="M2 -185q-10 14 0 29q68 24 86.5 56.5t18.5 111.5v515q0 23 -3.5 37t-18 22.5t-20.5 10.5t-34 7q-5 1 -8 2v24h286v-24q-51 -10 -64 -20q-19 -16 -19 -59v-525q0 -46 -18.5 -80t-53.5 -54.5t-70 -32t-82 -20.5z" />
    <glyph glyph-name="K" unicode="K" horiz-adv-x="697" 
d="M603 54q13 -18 29 -24t57 -6v-24h-204q0 25 -31 69l-168 247l-61 -61v-152q0 -23 3.5 -37t17.5 -22.5t20.5 -10.5t33.5 -7q5 -1 8 -2v-24h-285v24q51 10 64 20q19 16 19 59v424q0 23 -3.5 37t-17.5 22.5t-20.5 10.5t-33.5 7q-5 1 -8 2v24h285v-24q-51 -10 -64 -20
q-19 -16 -19 -59v-214l248 244q23 22 11.5 35.5t-52.5 13.5v24h219v-24q-45 0 -69 -11.5t-51 -37.5l-166 -164z" />
    <glyph glyph-name="L" unicode="L" horiz-adv-x="590" 
d="M23 0v24q51 10 64 20q19 16 19 59v424q0 23 -3.5 37t-17.5 22.5t-20.5 10.5t-33.5 7q-5 1 -8 2v24h291v-24q-53 -10 -67 -20q-22 -16 -22 -59v-412q0 -50 17.5 -63t76.5 -13h66q60 0 93 25t60 94h30l-41 -158h-504z" />
    <glyph glyph-name="M" unicode="M" horiz-adv-x="877" 
d="M771 103q2 -44 18.5 -57t57.5 -21q5 -1 8 -1v-24h-286v24q52 10 65 20q20 16 18 59l-18 446l-216 -549h-30l-219 508l-18 -405q-1 -30 10 -46.5t23 -20.5t47 -10q6 -1 9 -2v-24h-217v24q52 10 64 21q19 16 21 58l20 424q1 23 -3 37t-16.5 22t-22 11t-32.5 7q-7 1 -10 2
v24h200q2 -13 31 -77l168 -389l150 389q25 66 27 77h214v-24q-52 -10 -65 -20q-19 -17 -17 -59z" />
    <glyph glyph-name="N" unicode="N" horiz-adv-x="698" 
d="M458 630h217v-24q-52 -10 -65 -20q-20 -17 -20 -59v-527h-50l-390 533v-430q0 -23 4 -37t19 -22.5t22 -10.5t36 -7q6 -1 9 -2v-24h-217v24q52 10 65 20q20 16 20 59v424q0 23 -4 37t-17.5 22.5t-21.5 10.5t-33 7q-2 1 -3 1t-3 0.5t-3 0.5v24h195l330 -450v347q0 23 -4 37
t-19 22.5t-22 10.5t-36 7q-6 1 -9 2v24z" />
    <glyph glyph-name="O" unicode="O" horiz-adv-x="728" 
d="M362 -12q-139 0 -229 92.5t-90 233.5q0 142 91 237t232 95q139 0 229.5 -92.5t90.5 -234.5q0 -141 -91.5 -236t-232.5 -95zM379 26q81 0 130 69.5t49 193.5q0 142 -58.5 230.5t-150.5 88.5q-82 0 -130.5 -70t-48.5 -194q0 -141 58.5 -229.5t150.5 -88.5z" />
    <glyph glyph-name="P" unicode="P" horiz-adv-x="622" 
d="M23 0v24q51 10 64 20q19 16 19 59v424q0 23 -3.5 37t-17.5 22.5t-20.5 10.5t-33.5 7q-5 1 -8 2v24h265q300 0 300 -185q0 -98 -84.5 -149.5t-233.5 -51.5q-12 0 -12 18.5t12 18.5q190 0 190 158q0 153 -162 153q-43 0 -58 -11t-15 -35v-443q0 -23 3.5 -37t17.5 -22.5
t20.5 -10.5t33.5 -7q5 -1 8 -2v-24h-285z" />
    <glyph glyph-name="Q" unicode="Q" horiz-adv-x="734" 
d="M799 -82q17 -3 17 -22q-76 -71 -168 -71q-67 0 -133 40l-172 105q-26 15 -64 28q-106 26 -171 112t-65 204q0 142 91 237t232 95q139 0 229.5 -92.5t90.5 -234.5q0 -115 -63.5 -202t-167.5 -116q35 -8 67 -27l66 -41q76 -46 125 -46q45 0 86 31zM170 344
q0 -141 58.5 -229.5t150.5 -88.5q81 0 130 69.5t49 193.5q0 142 -58.5 230.5t-150.5 88.5q-82 0 -130.5 -70t-48.5 -194z" />
    <glyph glyph-name="R" unicode="R" horiz-adv-x="683" 
d="M535 115q66 -110 135 -90v-25q-32 -16 -77 -16q-62 0 -101.5 23.5t-71.5 75.5l-68 110q-28 46 -55 63t-72 19v-172q0 -23 3.5 -37t17.5 -22.5t20.5 -10.5t33.5 -7q5 -1 8 -2v-24h-285v24q51 10 64 20q19 16 19 59v424q0 23 -3.5 37t-17.5 22.5t-20.5 10.5t-33.5 7
q-5 1 -8 2v24h270q282 0 282 -174q0 -146 -195 -174q59 -11 99 -76zM299 592q-44 0 -59 -11t-15 -35v-234h59q92 0 128.5 36.5t36.5 99.5q0 65 -35 104.5t-115 39.5z" />
    <glyph glyph-name="S" unicode="S" horiz-adv-x="526" 
d="M255 -12q-111 0 -204 63l-8 129h27q19 -71 66 -114t113 -43q55 0 89.5 32.5t34.5 81.5q0 47 -33.5 79t-103.5 65q-39 18 -66 34t-56.5 40.5t-44.5 56.5t-15 71q0 73 55 118t156 45q21 0 40.5 -2t37 -7t29 -8t26 -11t19.5 -10.5t19 -11.5l13 -9l3 -131h-25
q-41 155 -158 155q-52 0 -79.5 -27t-27.5 -67q0 -38 29 -67t98 -61q33 -15 52 -24.5t51 -31t50 -41.5t32.5 -52t14.5 -67q0 -83 -67 -134t-167 -51z" />
    <glyph glyph-name="T" unicode="T" horiz-adv-x="604" 
d="M574 640l8 -177h-23q-11 70 -41 101.5t-106 31.5h-50v-493q0 -20 5 -33.5t9.5 -20.5t21 -12.5t24 -7t35.5 -5.5v-24h-309v24q60 10 75 20q20 16 20 59v493h-48q-78 0 -108 -31t-41 -102h-23l8 177l53 -10h437z" />
    <glyph glyph-name="U" unicode="U" horiz-adv-x="719" 
d="M359 -12q-48 0 -88 10.5t-79.5 37.5t-62.5 82t-23 134v275q0 23 -3.5 37t-17.5 22.5t-20.5 10.5t-33.5 7q-5 1 -8 2v24h286v-24q-51 -10 -64 -20q-19 -16 -19 -59v-289q0 -206 164 -206q30 0 57 7.5t55 26.5t44.5 59.5t16.5 98.5v303q0 23 -4 37t-17.5 22.5t-21.5 10.5
t-33 7q-2 1 -3 1t-3 0.5t-3 0.5v24h218v-24q-56 -10 -69 -20q-21 -16 -21 -59v-283q0 -73 -20.5 -125t-57 -79.5t-78 -39.5t-91.5 -12z" />
    <glyph glyph-name="V" unicode="V" horiz-adv-x="691" 
d="M500 630h188v-24q-32 -6 -42 -9t-21 -13.5t-20 -33.5l-237 -557h-41l-242 557q-14 32 -26.5 40t-55.5 16v24h275v-24l-17.5 -3.5t-17.5 -4t-13.5 -4.5t-11.5 -6.5t-6 -8.5t-1.5 -12.5t5.5 -16.5l175 -405l170 405q4 9 5 16.5t-2 12.5t-5.5 8.5t-11 6.5t-13 4.5t-17 4
l-17.5 3.5v24z" />
    <glyph glyph-name="W" unicode="W" horiz-adv-x="1012" 
d="M297 -8l-211 559q-12 32 -25.5 40.5t-57.5 16.5v22h273v-22q-49 -10 -58 -19q-12 -11 -2 -38l144 -399l109 312q20 49 1.5 91t-73.5 53v22h188q0 -41 35 -137l123 -340l125 354q9 24 9.5 41t-3.5 27t-18 16.5t-27.5 9.5t-39.5 7v22h220v-22q-32 -6 -42.5 -9.5t-21.5 -14
t-19 -33.5l-202 -558h-44l-173 462l-166 -463h-44z" />
    <glyph glyph-name="X" unicode="X" horiz-adv-x="728" 
d="M590 87q25 -36 46.5 -45.5t79.5 -17.5v-24h-308v24q50 9 57 17q10 12 -13 45l-126 185l-135 -182q-7 -9 -12 -16.5t-6 -13.5t-2.5 -9.5t2.5 -7t5 -5.5t10 -4.5t11.5 -3t15 -2.5t16.5 -3v-24h-218v24q65 9 82 19q21 11 47 45l162 215l-159 234q-27 39 -48 50t-75 19v24
h299v-24q-25 -5 -34.5 -7.5t-18 -9.5t-3.5 -19t19 -33l107 -157l121 159q32 42 8 55q-10 4 -50 12v24h213v-24q-53 -8 -74.5 -18.5t-50.5 -48.5l-145 -191z" />
    <glyph glyph-name="Y" unicode="Y" horiz-adv-x="660" 
d="M453 630h199v-24q-39 -8 -51.5 -16.5t-36.5 -45.5l-169 -270v-173q0 -25 4.5 -39t20.5 -22t26 -10.5t42 -7.5v-22h-305v22q59 10 73 21q20 15 20 58v159l-181 284q-24 37 -36 45.5t-51 16.5v24h278v-24q-4 -1 -15.5 -3.5t-16 -3.5t-12.5 -4t-11 -5.5t-6.5 -6.5t-3 -9.5
t2.5 -13t8 -16.5l144 -231l141 231q10 17 11.5 27.5t-9 16.5t-19 8.5t-31.5 6.5q-11 2 -16 3v24z" />
    <glyph glyph-name="Z" unicode="Z" horiz-adv-x="600" 
d="M34 0l-11 15l388 587l-198 -4q-72 -1 -100.5 -31t-33.5 -101h-27v170l61 -6h456l-398 -602l234 4q69 1 97 32t43 102h28q-19 -102 -19 -166h-520z" />
    <glyph glyph-name="bracketleft" unicode="[" horiz-adv-x="300" 
d="M276 -166l-212 12v901l212 12v-22l-104 -22v-837l104 -22v-22z" />
    <glyph glyph-name="backslash" unicode="\" horiz-adv-x="392" 
d="M368 -64l-61 -26l-313 816l61 27z" />
    <glyph glyph-name="bracketright" unicode="]" horiz-adv-x="300" 
d="M24 -166v22l105 22v837l-105 22v22l212 -12v-901z" />
    <glyph glyph-name="asciicircum" unicode="^" horiz-adv-x="447" 
d="M59 366l-15 15l180 265l179 -265l-14 -15l-165 192z" />
    <glyph glyph-name="underscore" unicode="_" horiz-adv-x="628" 
d="M44 -63l1 43h539v-43h-540z" />
    <glyph glyph-name="grave" unicode="`" horiz-adv-x="164" 
d="M132 508q-66 70 -122 109q8 21 32.5 39.5t47.5 18.5q44 -62 69 -150z" />
    <glyph glyph-name="a" unicode="a" horiz-adv-x="518" 
d="M431 94q0 -24 21.5 -28.5t53.5 13.5v-25q-45 -44 -100 -61q-32 0 -57 25t-26 56q-81 -81 -173 -81q-53 0 -87.5 28t-34.5 78q0 25 10.5 45.5t25 33.5t44 26t51.5 20t65 19q5 1 16 4t15 4.5t13.5 4t13 4.5t10.5 4.5t10.5 5.5t8 6.5t7.5 7t5 8.5v15q0 59 -25.5 81t-84.5 22
q-28 0 -38 -28q-21 -53 -37 -73t-39 -20q-18 0 -29.5 11.5t-11.5 30.5q0 49 78.5 83.5t155.5 34.5q139 0 139 -152v-203zM211 52q65 0 112 63v122l-92 -26q-92 -26 -92 -88q0 -33 20.5 -52t51.5 -19z" />
    <glyph glyph-name="b" unicode="b" horiz-adv-x="553" 
d="M269 -9q-95 0 -146.5 41.5t-51.5 114.5v398q0 29 -14.5 43.5t-59.5 19.5v22q95 15 161 57l20 -19v-316q24 41 66.5 69t93.5 28q73 0 127.5 -58t54.5 -155q0 -112 -72 -178.5t-179 -66.5zM271 27q59 0 98 48.5t39 133.5q0 78 -33 126.5t-89 48.5q-69 0 -108 -71v-178
q0 -45 23 -76.5t70 -31.5z" />
    <glyph glyph-name="c" unicode="c" horiz-adv-x="481" 
d="M268 -9q-103 0 -169 61.5t-66 164.5q0 106 69 169t174 63q76 0 122.5 -32t46.5 -75q0 -23 -13.5 -35.5t-35.5 -12.5q-25 0 -40 17.5t-25 56.5q-7 26 -20.5 37t-37.5 11q-53 0 -90.5 -42t-37.5 -120q0 -85 47 -139.5t123 -54.5q82 0 116 49l18 -12q-18 -50 -66 -78
t-115 -28z" />
    <glyph glyph-name="d" unicode="d" horiz-adv-x="573" 
d="M484 90q0 -30 12.5 -44.5t53.5 -21.5v-24h-165l8 91h-14q-26 -43 -67 -71.5t-93 -28.5q-75 0 -130.5 56.5t-55.5 155.5q0 111 73 178.5t171 67.5q58 0 100 -25v121q0 29 -16 43.5t-59 19.5v22q95 15 162 57l20 -19v-578zM275 58q40 0 66 26t36 61v213q-9 24 -33 40
t-60 16q-59 0 -100 -45.5t-41 -129.5q0 -81 38 -131t94 -50z" />
    <glyph glyph-name="e" unicode="e" horiz-adv-x="489" 
d="M314 59q81 0 117 51l18 -12q-18 -50 -66.5 -78.5t-114.5 -28.5q-101 0 -168 62t-67 165t66 167t163 64q43 0 79 -13.5t58.5 -35.5t37 -49.5t14.5 -56t-9 -55.5h-298q5 -81 51 -130.5t119 -49.5zM253 414q-44 0 -75 -36.5t-35 -103.5h199q8 53 -15 96.5t-74 43.5z" />
    <glyph glyph-name="f" unicode="f" horiz-adv-x="363" 
d="M322 698q89 0 113 -59q0 -24 -22.5 -42.5t-52.5 -23.5q-27 80 -77 80q-32 0 -55.5 -28.5t-23.5 -102.5v-82l121 11q-5 -22 -5 -50h-116v-322q0 -16 6.5 -26t23.5 -15.5t30 -8t44 -5.5v-24h-290v24q18 3 25 4.5t19.5 5.5t17 9t9 14t4.5 22v322h-75v24l75 15v3
q0 122 67 188.5t162 66.5z" />
    <glyph glyph-name="g" unicode="g" horiz-adv-x="512" 
d="M479 431v-63l-90 14q24 -33 24 -76q0 -62 -48 -102.5t-130 -40.5h-35q-45 0 -45 -35q0 -31 44 -35l105 -10q98 -8 131.5 -26.5t33.5 -65.5q0 -81 -74.5 -130.5t-190.5 -50.5q-93 0 -139.5 32.5t-46.5 78.5q0 20 28.5 47.5t67.5 44.5q-59 23 -59 71q0 17 32.5 48.5
t64.5 43.5q-46 17 -71.5 51.5t-25.5 78.5q0 61 48.5 102t130.5 41q39 0 69 -9q28 -9 176 -9zM234 192q44 0 62 35t18 79q0 27 -6 50.5t-25 44t-49 20.5q-43 0 -61 -35.5t-18 -79.5q0 -27 5.5 -50.5t24.5 -43.5t49 -20zM297 -12l-111 9q-39 4 -59.5 -16.5t-20.5 -50.5
q0 -33 29 -56t99 -23q73 0 111.5 27.5t38.5 65.5q0 24 -18.5 32t-68.5 12z" />
    <glyph glyph-name="h" unicode="h" horiz-adv-x="581" 
d="M497 79q0 -30 14 -39t52 -16v-24h-234v24q42 9 51 20q10 12 10 35v209q0 93 -74 93q-61 0 -113 -61v-241q0 -16 3.5 -25.5t14.5 -15.5t17 -8t26 -6v-24h-241v24q49 9 61 20t12 35v466q0 29 -14.5 43.5t-58.5 19.5v22q94 15 160 57l20 -19v-311q76 92 169 92
q125 0 125 -154v-216z" />
    <glyph glyph-name="i" unicode="i" horiz-adv-x="285" 
d="M137 541q-27 0 -47 19t-20 45q0 27 20 45.5t47 18.5t46.5 -18.5t19.5 -45.5q0 -26 -20 -45t-46 -19zM23 0v24q27 5 37 8t19.5 14.5t9.5 32.5v234q0 30 -12.5 44t-53.5 19v22q93 16 152 58l21 -19v-358q0 -30 14 -39t52 -16v-24h-239z" />
    <glyph glyph-name="j" unicode="j" horiz-adv-x="265" 
d="M131 541q-26 0 -46 19t-20 45q0 27 19.5 45.5t46.5 18.5t47 -18.5t20 -45.5q0 -26 -20 -45t-47 -19zM-4 -185q-9 14 0 28q47 16 67 49t20 100v321q0 30 -12.5 44t-53.5 19v22q88 16 152 58l21 -19v-454q0 -42 -19 -74.5t-50.5 -51t-61.5 -28.5t-63 -14z" />
    <glyph glyph-name="k" unicode="k" horiz-adv-x="572" 
d="M488 60q13 -18 28.5 -24.5t52.5 -10.5v-25h-179q0 28 -18 55l-115 165l-54 -52v-89q0 -28 15.5 -38t50.5 -16q5 -1 7 -1v-24h-253v24q49 9 61 20t12 35v466q0 29 -14.5 43.5t-58.5 19.5v22q94 15 160 57l20 -19v-448l148 143q47 44 -34 52v25h204v-25q-42 -3 -67 -16
t-52 -39l-75 -72z" />
    <glyph glyph-name="l" unicode="l" horiz-adv-x="299" 
d="M23 0v24q49 9 61 20t12 35v466q0 29 -14.5 43.5t-58.5 19.5v22q94 15 160 57l20 -19v-589q0 -28 15.5 -38t50.5 -16q5 -1 7 -1v-24h-253z" />
    <glyph glyph-name="m" unicode="m" horiz-adv-x="842" 
d="M18 0v24q21 4 29 6t19 7.5t14.5 15.5t3.5 26v244q0 30 -12.5 42.5t-53.5 10.5v22q92 14 160 58l20 -19l-29 -84h19q72 96 161 96q96 0 119 -96h7q63 96 157 96q68 0 97.5 -44.5t29.5 -109.5v-216q0 -30 13.5 -39t51.5 -16v-24h-237v24q26 5 36 8t19 14.5t9 32.5v209
q0 93 -71 93q-56 0 -105 -61v-241q0 -30 13.5 -39t50.5 -16v-24h-238v24q21 4 29 6t19 7.5t14.5 15.5t3.5 26v209q0 93 -70 93q-59 0 -106 -61v-241q0 -16 3.5 -25.5t14.5 -15.5t17 -8t26 -6v-24h-234z" />
    <glyph glyph-name="n" unicode="n" horiz-adv-x="569" 
d="M18 0v24q27 5 37 8t19.5 14.5t9.5 32.5v234q0 30 -12.5 44t-53.5 19v22q92 14 160 58l20 -19l-29 -84h19q78 96 172 96q125 0 125 -154v-216q0 -30 14 -39t52 -16v-24h-234v24q42 9 51 20q10 12 10 35v208q0 94 -74 94q-63 0 -113 -61v-241q0 -16 3.5 -25.5t14.5 -15.5
t17 -8t26 -6v-24h-234z" />
    <glyph glyph-name="o" unicode="o" horiz-adv-x="540" 
d="M265 -9q-98 0 -165 61.5t-67 164.5q0 106 71.5 169t171.5 63q97 0 164.5 -62t67.5 -164q0 -106 -71.5 -169t-171.5 -63zM278 26q49 0 81.5 45t32.5 130q0 88 -35 151t-95 63q-48 0 -81 -45.5t-33 -130.5q0 -87 35.5 -150t94.5 -63z" />
    <glyph glyph-name="p" unicode="p" horiz-adv-x="568" 
d="M357 449q73 0 126 -58t53 -155q0 -111 -70 -178t-171 -67q-54 0 -99 20v-106q0 -32 16.5 -41t63.5 -15v-24h-258v24q30 4 41 7t20.5 14.5t9.5 34.5v408q0 30 -13.5 44t-57.5 19v22q98 15 167 58l20 -19l-39 -113h16q24 50 70 87.5t105 37.5zM296 27q55 0 91 46.5
t36 132.5q0 78 -31 128t-85 50q-50 0 -80.5 -40.5t-30.5 -72.5v-114q0 -54 24 -92t76 -38z" />
    <glyph glyph-name="q" unicode="q" horiz-adv-x="567" 
d="M482 -96q0 -30 14 -39.5t52 -15.5v-24h-259v24q52 6 69 15t17 40v178q-61 -91 -156 -91q-75 0 -130.5 56.5t-55.5 155.5q0 113 78 179.5t199 66.5q66 0 118 -22l54 13v-536zM275 58q38 0 63.5 23t36.5 55v204q0 31 -26.5 53t-66.5 22q-58 0 -98.5 -45.5t-40.5 -129.5
q0 -82 38 -132t94 -50z" />
    <glyph glyph-name="r" unicode="r" horiz-adv-x="410" 
d="M18 0v24q23 4 32 6t20.5 7.5t15 15.5t3.5 26v235q0 30 -13.5 44t-57.5 18v22q98 15 167 58l20 -19l-25 -120h25q31 70 63.5 104.5t78.5 34.5q21 0 40 -8v-104q-33 14 -64 14q-60 0 -93.5 -40t-33.5 -100v-139q0 -30 15 -39t59 -16v-24h-252z" />
    <glyph glyph-name="s" unicode="s" horiz-adv-x="403" 
d="M183 -9q-86 0 -148 40l-2 93h35q34 -99 125 -99q41 0 62.5 18t21.5 48q0 33 -23.5 49.5t-80.5 37.5q-61 22 -100 54.5t-39 88.5q0 59 46 93.5t124 34.5q71 0 132 -38l-1 -92h-34q-27 97 -107 97q-34 0 -53.5 -16.5t-19.5 -42.5q0 -27 22 -45.5t68 -35.5q30 -11 43 -16
t40 -19.5t40 -28t24.5 -36t11.5 -48.5q0 -62 -52 -99.5t-135 -37.5z" />
    <glyph glyph-name="t" unicode="t" horiz-adv-x="350" 
d="M204 114q0 -25 12.5 -38t33.5 -13.5t41 3.5t42 12v-26q-71 -39 -152 -62q-36 0 -60.5 25t-24.5 58v328h-78v26q91 35 155 105h31v-96l127 13q-5 -21 -5 -48h-122v-287z" />
    <glyph glyph-name="u" unicode="u" horiz-adv-x="565" 
d="M210 -9q-131 0 -131 154v226q0 18 -8.5 27.5t-19 12.5t-33.5 7v22q105 -5 168 6v-296q0 -90 77 -90q58 0 111 51v260q0 18 -8.5 27.5t-19 12.5t-33.5 7v22q106 -5 169 6v-356q0 -30 12.5 -44.5t53.5 -21.5v-24h-161l6 79h-14q-40 -42 -79 -65t-90 -23z" />
    <glyph glyph-name="v" unicode="v" horiz-adv-x="505" 
d="M340 440h162v-24q-35 -4 -47.5 -11.5t-24.5 -36.5l-158 -374h-37l-163 374q-13 29 -24.5 36.5t-44.5 11.5v24h235v-24q-46 -7 -54 -18t0 -30l106 -249l95 229q7 17 7.5 29t-3 18.5t-13 11t-16 6t-20.5 3.5v24z" />
    <glyph glyph-name="w" unicode="w" horiz-adv-x="793" 
d="M220 -6l-148 379q-11 26 -23 33t-46 10v24h236v-24q-46 -6 -54 -18q-6 -9 0 -25l92 -250l85 209q17 40 4 62q-7 12 -17 15.5t-33 6.5v24h163q0 -37 18 -84l90 -234l81 204q12 29 12.5 47t-10.5 26.5t-25 11.5t-40 5v24h186v-24q-34 -3 -46 -10t-23 -33l-153 -379h-39
l-134 334l-137 -334h-39z" />
    <glyph glyph-name="x" unicode="x" horiz-adv-x="539" 
d="M438 68q18 -24 35 -32t54 -12v-24h-249v24q16 2 24 4t16.5 7t8 13t-9.5 20l-82 114l-92 -114q-10 -13 -11.5 -21t9 -13t16.5 -6t25 -4v-24h-169v24q37 4 52 11t36 33l114 141l-116 161q-18 25 -34.5 33.5t-49.5 12.5v24h240v-24q-15 -2 -23.5 -4.5t-15.5 -7.5t-6.5 -13.5
t9.5 -20.5l71 -98l79 98q10 13 11 21.5t-8.5 13.5t-17.5 6.5t-25 4.5v24h165v-24q-32 -4 -47 -12t-37 -34l-102 -123z" />
    <glyph glyph-name="y" unicode="y" horiz-adv-x="511" 
d="M345 440h164v-24q-34 -4 -46 -11t-24 -35l-174 -406q-12 -29 -23.5 -50t-29 -45.5t-40.5 -38t-49 -13.5q-34 0 -66 23v68q73 -8 112.5 3t57.5 53l11 26l-165 380q-13 28 -24.5 35t-45.5 11v24h235v-24q-46 -7 -53 -18t0 -28l107 -254l109 254q4 9 4.5 15.5t-3 11t-7 7.5
t-13 5.5t-14 3t-16.5 2.5q-5 1 -7 1v24z" />
    <glyph glyph-name="z" unicode="z" horiz-adv-x="466" 
d="M34 0l-11 15l276 395l-125 -3q-84 -1 -94 -103h-28v142l59 -6h328l-286 -410l132 3q62 1 88.5 27t41.5 78h28q-19 -74 -19 -138h-390z" />
    <glyph glyph-name="braceleft" unicode="{" horiz-adv-x="306" 
d="M274 -161q-96 25 -126 74.5t-30 129.5v155q0 57 -84 88v19q84 31 84 88v155q0 80 30 129.5t126 74.5l8 -20q-38 -16 -47 -56t-9 -128v-130q0 -95 -104 -118v-8q46 -10 75 -39t29 -80v-130q0 -46 1 -68t6 -50t17 -42.5t32 -23.5z" />
    <glyph glyph-name="bar" unicode="|" horiz-adv-x="193" 
d="M74 -175v821h45v-821h-45z" />
    <glyph glyph-name="braceright" unicode="}" horiz-adv-x="306" 
d="M32 -161l-8 20q20 9 32 23.5t17 42.5t6 50t1 68v130q0 51 29 80t75 39v8q-104 23 -104 118v130q0 46 -1 68t-6 50t-17 42.5t-32 23.5l8 20q96 -25 126 -74.5t30 -129.5v-155q0 -57 84 -88v-19q-84 -31 -84 -88v-155q0 -80 -30 -129.5t-126 -74.5z" />
    <glyph glyph-name="asciitilde" unicode="~" horiz-adv-x="464" 
d="M307 181q-45 0 -93.5 36t-83.5 36q-28 0 -45.5 -15.5t-17.5 -31.5h-21q-9 49 24.5 81t86.5 32q45 0 93.5 -36t83.5 -36q28 0 45.5 15.5t17.5 31.5h21q9 -49 -24.5 -81t-86.5 -32z" />
    <glyph glyph-name="exclamdown" unicode="&#xa1;" horiz-adv-x="224" 
d="M121 455q27 0 47 -19.5t20 -47.5q0 -27 -20 -46.5t-47 -19.5q-28 0 -48 19t-20 47t20 47.5t48 19.5zM98 258h28l46 -402q8 -64 -60 -64q-67 0 -60 64z" />
    <glyph glyph-name="cent" unicode="&#xa2;" horiz-adv-x="481" 
d="M431 109l18 -12q-18 -50 -66 -78t-115 -28q-35 0 -70 8l-16 -60h-39l20 72q-61 26 -95.5 79.5t-34.5 126.5q0 106 69 169t174 63h6l19 70h39l-20 -73q58 -10 91.5 -39t33.5 -65q0 -23 -13.5 -35.5t-35.5 -12.5q-25 0 -40 17.5t-25 56.5q-7 26 -22 38l-87 -319
q41 -27 93 -27q82 0 116 49zM145 254q0 -84 46 -138l82 300q-53 0 -90.5 -42t-37.5 -120z" />
    <glyph glyph-name="sterling" unicode="&#xa3;" horiz-adv-x="603" 
d="M535 183q34 -22 34 -69q0 -45 -32 -78.5t-72 -47.5t-79 -14q-42 0 -80.5 21.5t-72.5 43t-64 21.5q-56 0 -103 -65l-32 33q59 58 85 108.5t26 137.5v5h-96l11 52h85v51q0 123 69.5 189t173.5 66q99 0 124 -59q-1 -25 -23.5 -43.5t-52.5 -23.5q-27 81 -93 81
q-85 0 -85 -131v-130h171l-11 -52h-160v-5q0 -100 -86 -170q34 17 68 17q39 0 75.5 -24t68 -48t57.5 -24q38 0 38 41q0 31 -20 59z" />
    <glyph glyph-name="currency" unicode="&#xa4;" horiz-adv-x="585" 
d="M500 228q0 -71 -44 -128l67 -66l-39 -39l-67 66q-57 -42 -126 -42q-70 0 -124 42l-66 -66l-39 39l66 66q-43 56 -43 128q0 69 42 126l-65 64l39 40l65 -65q54 43 125 43q72 0 127 -44l66 66l39 -40l-66 -65q43 -56 43 -125zM142 228q0 -64 44 -110t106 -46
q63 0 107.5 46.5t44.5 109.5t-44.5 108.5t-107.5 45.5t-106.5 -45.5t-43.5 -108.5z" />
    <glyph glyph-name="yen" unicode="&#xa5;" horiz-adv-x="660" 
d="M453 630h199v-24q-39 -8 -51.5 -16.5t-36.5 -45.5l-150 -240h126v-42h-145v-52h145v-42h-145v-67q0 -25 4.5 -39t20.5 -22t26 -10.5t42 -7.5v-22h-305v22q59 10 73 21q20 15 20 58v67h-156v42h156v50l-1 2h-155v42h128l-153 240q-24 37 -36 45.5t-51 16.5v24h278v-24
q-4 -1 -15.5 -3.5t-16 -3.5t-12.5 -4t-11 -5.5t-6.5 -6.5t-3 -9.5t2.5 -13t8 -16.5l144 -231l141 231q10 17 11.5 27.5t-9 16.5t-19 8.5t-31.5 6.5q-11 2 -16 3v24z" />
    <glyph glyph-name="brokenbar" unicode="&#xa6;" horiz-adv-x="193" 
d="M74 315v331h45v-331h-45zM74 -175v331h45v-331h-45z" />
    <glyph glyph-name="section" unicode="&#xa7;" horiz-adv-x="499" 
d="M360 92q80 -53 80 -130q0 -63 -48.5 -102.5t-137.5 -39.5q-40 0 -76.5 11t-47 17t-36.5 23l-3 101h23q15 -51 50.5 -86t87.5 -35q44 0 67 23.5t23 56.5q0 31 -26.5 55t-88.5 53q-28 13 -47.5 22.5t-48 28t-45.5 37.5t-30 47.5t-13 59.5q0 48 27 84t76 55q-78 54 -78 131
q0 62 48 102t135 40q13 0 25 -1t23 -3.5t19.5 -5t18.5 -7t16 -7t15 -8t12 -7t11.5 -7.5t9.5 -6l3 -101h-23q-15 50 -48.5 85.5t-79.5 35.5q-42 0 -64.5 -23.5t-22.5 -55.5t25 -55.5t87 -52.5q37 -17 60.5 -29.5t56.5 -37t50 -56.5t17 -71q0 -99 -102 -141zM149 264
q0 -42 30 -69.5t96 -56.5q3 -1 16.5 -7.5t20.5 -10.5q44 26 44 82q0 42 -30 69t-96 57l-37 18q-44 -26 -44 -82z" />
    <glyph glyph-name="dieresis" unicode="&#xa8;" horiz-adv-x="325" 
d="M60 565q-23 0 -39.5 16.5t-16.5 39.5t16.5 39.5t39.5 16.5t39.5 -16.5t16.5 -39.5t-16.5 -39.5t-39.5 -16.5zM266 565q-24 0 -40 16.5t-16 39.5t16 39.5t40 16.5q23 0 39 -16.5t16 -39.5t-16 -39.5t-39 -16.5z" />
    <glyph glyph-name="copyright" unicode="&#xa9;" horiz-adv-x="668" 
d="M335 25q-121 0 -206.5 85.5t-85.5 206.5q0 120 85.5 205.5t206.5 85.5q120 0 205.5 -85.5t85.5 -205.5q0 -121 -85.5 -206.5t-205.5 -85.5zM335 54q107 0 183 77.5t76 185.5t-76 185.5t-183 77.5q-108 0 -184 -77.5t-76 -185.5t76 -185.5t184 -77.5zM347 149
q-79 0 -127.5 47t-48.5 119q0 74 50 122t130 48q65 0 103 -24l4 -69h-20q-17 71 -94 71q-51 0 -78.5 -36t-27.5 -95q0 -67 38.5 -110t98.5 -43q55 0 79 25l10 -12q-37 -43 -117 -43z" />
    <glyph glyph-name="ordfeminine" unicode="&#xaa;" horiz-adv-x="352" 
d="M282 406q0 -15 14 -18.5t34 8.5v-16q-28 -28 -64 -39q-21 0 -37 16t-16 36q-52 -52 -112 -52q-34 0 -56.5 18t-22.5 50q0 17 7 30t15.5 21t29 16.5t33.5 13t42 12.5q3 1 11 3.5t11 3.5t9.5 3t9 3.5t7 3.5t7 4t5 5t4.5 6v9q0 38 -16.5 52.5t-54.5 14.5q-17 0 -25 -18
q-12 -33 -23 -46.5t-26 -13.5q-26 0 -26 27q0 32 50.5 54t100.5 22q89 0 89 -98v-131zM140 379q43 0 73 41v79l-59 -18q-60 -17 -60 -56q0 -22 13 -34t33 -12zM52 220v50h248v-50h-248z" />
    <glyph glyph-name="guillemotleft" unicode="&#xab;" horiz-adv-x="411" 
d="M44 224l151 139l14 -13l-88 -126l88 -126l-13 -14zM202 224l151 139l14 -13l-88 -126l88 -126l-14 -14z" />
    <glyph glyph-name="logicalnot" unicode="&#xac;" horiz-adv-x="562" 
d="M498 376v-233h-69v164h-365v69h434z" />
    <glyph glyph-name="uni00AD" unicode="&#xad;" horiz-adv-x="418" 
d="M54 231v51h310v-51h-310z" />
    <glyph glyph-name="registered" unicode="&#xae;" horiz-adv-x="668" 
d="M335 25q-121 0 -206.5 85.5t-85.5 206.5q0 120 85.5 205.5t206.5 85.5q120 0 205.5 -85.5t85.5 -205.5q0 -121 -85.5 -206.5t-205.5 -85.5zM335 54q107 0 183 77.5t76 185.5t-76 185.5t-183 77.5q-108 0 -184 -77.5t-76 -185.5t76 -185.5t184 -77.5zM467 158
q-53 0 -81 45l-33 53q-22 35 -36 41v15q87 0 87 67t-76 67q-21 0 -28.5 -5t-7.5 -17v-210q0 -16 6 -24t12 -9.5t22 -4.5v-13h-138v13q16 3 22 4.5t12 9.5t6 24v202q0 15 -5.5 23.5t-12 10.5t-22.5 5v12h131q139 0 139 -84q0 -35 -26 -56t-64 -28q23 -7 54 -58l13 -23
q27 -42 46 -44v-13q-7 -3 -20 -3z" />
    <glyph glyph-name="macron" unicode="&#xaf;" horiz-adv-x="293" 
d="M-1 596l15 41h280l-15 -41h-280z" />
    <glyph glyph-name="degree" unicode="&#xb0;" horiz-adv-x="362" 
d="M178 375q-56 0 -95 35.5t-39 95.5q0 61 41.5 97.5t99.5 36.5q56 0 94.5 -35.5t38.5 -95.5q0 -61 -41 -97.5t-99 -36.5zM186 398q29 0 48.5 25.5t19.5 73.5q0 50 -20.5 85.5t-56.5 35.5q-29 0 -48.5 -25.5t-19.5 -73.5q0 -50 20.5 -85.5t56.5 -35.5z" />
    <glyph glyph-name="plusminus" unicode="&#xb1;" horiz-adv-x="498" 
d="M284 387h150v-69h-150v-152h-69v152h-151v69h151v150h69v-150zM64 -4v69h370v-69h-370z" />
    <glyph glyph-name="uni00B2" unicode="&#xb2;" horiz-adv-x="266" 
d="M37 393l-3 11q5 4 20 17t21 18t19 17t19.5 19t16.5 18t15 19t10.5 17.5t8 18.5t2.5 18q0 20 -12 34t-35 14q-41 0 -66 -42l-11 7q12 31 38.5 48.5t58.5 17.5q35 0 58 -20t23 -50q0 -23 -17 -48t-35 -40t-45.5 -35.5t-32.5 -24.5h66q27 0 40.5 6.5t22.5 29.5h13l-19 -70
h-176z" />
    <glyph glyph-name="uni00B3" unicode="&#xb3;" horiz-adv-x="253" 
d="M103 384q-27 0 -48 7.5t-21 22.5t17 15q9 0 25.5 -15.5t33.5 -15.5q23 0 42 16.5t19 44.5q0 27 -18 40.5t-45 13.5q-17 0 -36 -7l-5 12l31 12q32 12 45.5 22.5t13.5 28.5q0 32 -41 32t-64 -27l-10 8q32 47 92 47q29 0 47.5 -14t18.5 -37q0 -33 -56 -58q31 -2 53 -17
t22 -45q0 -37 -34 -61.5t-82 -24.5z" />
    <glyph glyph-name="acute" unicode="&#xb4;" horiz-adv-x="162" 
d="M32 508l-27 17q25 88 69 150q23 0 47.5 -18.5t32.5 -39.5q-56 -39 -122 -109z" />
    <glyph glyph-name="paragraph" unicode="&#xb6;" horiz-adv-x="683" 
d="M298 630h362v-24q-51 -10 -64 -20q-19 -16 -19 -59v-547q0 -75 -45.5 -115t-127.5 -40h-63v721q0 24 -11.5 35t-41.5 11q-69 0 -104 -47.5t-35 -115.5t34.5 -113t107.5 -45q12 0 12 -18.5t-12 -18.5q-117 0 -192 53t-75 148t75.5 145t198.5 50zM466 -22v568q0 28 -9 39.5
t-29 11.5t-29 -11.5t-9 -39.5v-687q45 4 60.5 32t15.5 87z" />
    <glyph glyph-name="periodcentered" unicode="&#xb7;" horiz-adv-x="224" 
d="M121 231q-28 0 -48 20t-20 48q0 27 20 46.5t48 19.5q27 0 47 -19.5t20 -46.5q0 -28 -20 -48t-47 -20z" />
    <glyph glyph-name="cedilla" unicode="&#xb8;" horiz-adv-x="237" 
d="M70 -212l5 24q46 0 68 13.5t22 32.5q0 44 -111 44l50 98h46l-24 -47q44 0 75.5 -21.5t31.5 -58.5q0 -39 -40.5 -62t-122.5 -23z" />
    <glyph glyph-name="uni00B9" unicode="&#xb9;" horiz-adv-x="203" 
d="M39 398v10q22 2 30 6t8 16v165q0 11 -4 14.5t-12 1.5l-20 -5v11l77 33l8 -6v-214q0 -12 8 -16t30 -6v-10h-125z" />
    <glyph glyph-name="ordmasculine" unicode="&#xba;" horiz-adv-x="351" 
d="M172 340q-63 0 -106 39.5t-43 105.5q0 69 45.5 109.5t110.5 40.5q63 0 106 -40t43 -106q0 -68 -45.5 -108.5t-110.5 -40.5zM181 362q31 0 52 29t21 84q0 57 -22.5 97.5t-60.5 40.5q-31 0 -52 -29t-21 -84q0 -57 22.5 -97.5t60.5 -40.5zM52 220v50h248v-50h-248z" />
    <glyph glyph-name="guillemotright" unicode="&#xbb;" horiz-adv-x="411" 
d="M214 224l-151 -140l-14 14l88 126l-88 126l14 13zM372 224l-152 -140l-13 14l88 126l-88 126l14 13z" />
    <glyph glyph-name="onequarter" unicode="&#xbc;" horiz-adv-x="567" 
d="M171 408v-10h-125v10q22 2 30 6t8 16v165q0 11 -4 14.5t-12 1.5l-20 -5v11l77 33l8 -6v-214q0 -12 8 -16t30 -6zM461 636h28l-432 -641h-28zM494 32q0 -12 7.5 -16t29.5 -6v-10h-124v10q22 2 29.5 6t7.5 16v34h-108l-4 20l116 160h46v-160h37l-4 -20h-33v-34zM352 86h92
v127z" />
    <glyph glyph-name="onehalf" unicode="&#xbd;" horiz-adv-x="576" 
d="M46 398v10q22 2 30 6t8 16v165q0 11 -4 14.5t-12 1.5l-20 -5v11l77 33l8 -6v-214q0 -12 8 -16t30 -6v-10h-125zM29 -5l432 641h28l-432 -641h-28zM345 0l-3 11q5 4 20 17t21 18t19 17t19.5 19t16.5 18t15 19t10.5 17.5t8 18.5t2.5 18q0 20 -12 34t-35 14q-41 0 -66 -42
l-11 7q12 31 38.5 48.5t58.5 17.5q35 0 58 -20t23 -50q0 -23 -17 -48t-35 -40t-45.5 -35.5t-32.5 -24.5h66q27 0 40.5 6.5t22.5 29.5h13l-19 -70h-176z" />
    <glyph glyph-name="threequarters" unicode="&#xbe;" horiz-adv-x="700" 
d="M219 470q0 -37 -34 -61.5t-82 -24.5q-27 0 -48 7.5t-21 22.5t17 15q9 0 25.5 -15.5t33.5 -15.5q23 0 42 16.5t19 44.5q0 27 -18 40.5t-45 13.5q-17 0 -36 -7l-5 12l31 12q32 12 45.5 22.5t13.5 28.5q0 32 -41 32t-64 -27l-10 8q32 47 92 47q29 0 47.5 -14t18.5 -37
q0 -33 -56 -58q31 -2 53 -17t22 -45zM534 636h28l-432 -641h-28zM629 32q0 -12 7.5 -16t29.5 -6v-10h-124v10q22 2 29.5 6t7.5 16v34h-108l-4 20l116 160h46v-160h37l-4 -20h-33v-34zM487 86h92v127z" />
    <glyph glyph-name="questiondown" unicode="&#xbf;" horiz-adv-x="477" 
d="M258 455q28 0 48 -19.5t20 -47.5t-20 -47t-48 -19q-27 0 -47 19.5t-20 46.5q0 28 20 47.5t47 19.5zM269 250q13 -26 10.5 -53.5t-13.5 -47t-27.5 -44.5t-32 -47.5t-26.5 -54.5t-11 -66q0 -113 127 -113q28 0 40 28q20 52 36.5 72.5t38.5 20.5q18 0 30 -11.5t12 -29.5
q0 -50 -77.5 -84t-156.5 -34q-82 0 -128.5 43t-46.5 114q0 39 15.5 72t38.5 54t49.5 43t49 40t36.5 43.5t12 54.5h24z" />
    <glyph glyph-name="Agrave" unicode="&#xc0;" horiz-adv-x="691" 
d="M354 698q-66 70 -122 109q8 21 32.5 39.5t47.5 18.5q44 -62 69 -150zM606 81q14 -33 27 -41t55 -16v-24h-275v24l17.5 3.5t17.5 4t13.5 4.5t11.5 6.5t6 9t1.5 12.5t-5.5 17l-48 111h-250l-47 -112q-4 -9 -5 -16.5t2 -12.5t5.5 -8.5t11 -6.5t13 -4.5t17 -4l17.5 -3.5v-24
h-188v24q31 6 42 9.5t21.5 14t19.5 33.5l237 556h41zM192 228h219l-111 258z" />
    <glyph glyph-name="Aacute" unicode="&#xc1;" horiz-adv-x="691" 
d="M463 807q-56 -39 -122 -109l-27 17q25 88 69 150q23 0 47.5 -18.5t32.5 -39.5zM606 81q14 -33 27 -41t55 -16v-24h-275v24l17.5 3.5t17.5 4t13.5 4.5t11.5 6.5t6 9t1.5 12.5t-5.5 17l-48 111h-250l-47 -112q-4 -9 -5 -16.5t2 -12.5t5.5 -8.5t11 -6.5t13 -4.5t17 -4
l17.5 -3.5v-24h-188v24q31 6 42 9.5t21.5 14t19.5 33.5l237 556h41zM192 228h219l-111 258z" />
    <glyph glyph-name="Acircumflex" unicode="&#xc2;" horiz-adv-x="691" 
d="M342 801l-126 -88l-14 14l140 151l139 -152l-13 -13zM606 81q14 -33 27 -41t55 -16v-24h-275v24l17.5 3.5t17.5 4t13.5 4.5t11.5 6.5t6 9t1.5 12.5t-5.5 17l-48 111h-250l-47 -112q-4 -9 -5 -16.5t2 -12.5t5.5 -8.5t11 -6.5t13 -4.5t17 -4l17.5 -3.5v-24h-188v24
q31 6 42 9.5t21.5 14t19.5 33.5l237 556h41zM192 228h219l-111 258z" />
    <glyph glyph-name="Atilde" unicode="&#xc3;" horiz-adv-x="691" 
d="M192 740h-24q-9 48 23.5 80t81.5 32q40 0 84.5 -36t76.5 -36q25 0 41 15t16 31h23q9 -48 -23.5 -80t-81.5 -32q-26 0 -49 11t-36 25t-33 25t-42 11q-25 0 -41 -15t-16 -31zM606 81q14 -33 27 -41t55 -16v-24h-275v24l17.5 3.5t17.5 4t13.5 4.5t11.5 6.5t6 9t1.5 12.5
t-5.5 17l-48 111h-250l-47 -112q-4 -9 -5 -16.5t2 -12.5t5.5 -8.5t11 -6.5t13 -4.5t17 -4l17.5 -3.5v-24h-188v24q31 6 42 9.5t21.5 14t19.5 33.5l237 556h41zM192 228h219l-111 258z" />
    <glyph glyph-name="Adieresis" unicode="&#xc4;" horiz-adv-x="691" 
d="M242 755q-23 0 -39.5 16.5t-16.5 39.5t16.5 39.5t39.5 16.5t39.5 -16.5t16.5 -39.5t-16.5 -39.5t-39.5 -16.5zM448 755q-24 0 -40 16.5t-16 39.5t16 39.5t40 16.5q23 0 39 -16.5t16 -39.5t-16 -39.5t-39 -16.5zM606 81q14 -33 27 -41t55 -16v-24h-275v24l17.5 3.5t17.5 4
t13.5 4.5t11.5 6.5t6 9t1.5 12.5t-5.5 17l-48 111h-250l-47 -112q-4 -9 -5 -16.5t2 -12.5t5.5 -8.5t11 -6.5t13 -4.5t17 -4l17.5 -3.5v-24h-188v24q31 6 42 9.5t21.5 14t19.5 33.5l237 556h41zM192 228h219l-111 258z" />
    <glyph glyph-name="Aring" unicode="&#xc5;" horiz-adv-x="691" 
d="M344 721q-39 0 -65.5 26t-26.5 64t26.5 64.5t65.5 26.5t65.5 -26.5t26.5 -64.5t-26.5 -64t-65.5 -26zM344 856q-19 0 -32 -13t-13 -32t13 -31.5t32 -12.5q20 0 32.5 12.5t12.5 31.5t-12.5 32t-32.5 13zM606 81q14 -33 27 -41t55 -16v-24h-275v24l17.5 3.5t17.5 4
t13.5 4.5t11.5 6.5t6 9t1.5 12.5t-5.5 17l-48 111h-250l-47 -112q-4 -9 -5 -16.5t2 -12.5t5.5 -8.5t11 -6.5t13 -4.5t17 -4l17.5 -3.5v-24h-188v24q31 6 42 9.5t21.5 14t19.5 33.5l237 556h41zM192 228h219l-111 258z" />
    <glyph glyph-name="AE" unicode="&#xc6;" horiz-adv-x="896" 
d="M840 152h29l-41 -152h-501v24q51 10 64 20q19 16 19 59v111h-203l-72 -125q-6 -11 -9 -19.5t-0.5 -15t4.5 -10t12 -7.5t14 -5t18 -4t18 -4v-24h-189v24q40 8 53 17t35 47l252 435h-1q33 57 -24 73q-11 3 -55 10v24h563l9 -144h-29q-7 57 -27 81.5t-71 24.5h-84
q-59 0 -76.5 -13t-17.5 -63v-180h72q86 0 110 17t29 67h23v-204h-23q-5 50 -29 67t-110 17h-72v-186q0 -50 17.5 -63t76.5 -13h63q59 0 92 24.5t61 89.5zM227 250h183v277q0 23 -4 35z" />
    <glyph glyph-name="Ccedilla" unicode="&#xc7;" horiz-adv-x="656" 
d="M380 -12h-5l-18 -35q44 0 75.5 -21.5t31.5 -58.5q0 -39 -40.5 -62t-122.5 -23l5 24q46 0 68 13.5t22 32.5q0 44 -111 44l45 89q-129 16 -208 105.5t-79 218.5q0 144 97.5 237.5t253.5 93.5q118 0 195 -46q4 -91 7 -135h-38q-33 143 -177 143q-100 0 -154 -69.5
t-54 -189.5q0 -136 74.5 -222.5t188.5 -86.5q107 0 156 53l22 -22q-32 -35 -94 -59t-140 -24z" />
    <glyph glyph-name="Egrave" unicode="&#xc8;" horiz-adv-x="592" 
d="M306 698q-66 70 -122 109q8 21 32.5 39.5t47.5 18.5q44 -62 69 -150zM535 152h29l-41 -152h-500v24q51 10 64 20q19 16 19 59v424q0 23 -3.5 37t-17.5 22.5t-20.5 10.5t-33.5 7q-5 1 -8 2v24h498l9 -144h-29q-7 57 -27 81.5t-71 24.5h-84q-59 0 -76.5 -13t-17.5 -63v-180
h72q86 0 110 17t29 67h23v-204h-23q-5 50 -29 67t-110 17h-72v-186q0 -50 17.5 -63t76.5 -13h63q59 0 92 24.5t61 89.5z" />
    <glyph glyph-name="Eacute" unicode="&#xc9;" horiz-adv-x="592" 
d="M415 807q-56 -39 -122 -109l-27 17q25 88 69 150q23 0 47.5 -18.5t32.5 -39.5zM535 152h29l-41 -152h-500v24q51 10 64 20q19 16 19 59v424q0 23 -3.5 37t-17.5 22.5t-20.5 10.5t-33.5 7q-5 1 -8 2v24h498l9 -144h-29q-7 57 -27 81.5t-71 24.5h-84q-59 0 -76.5 -13
t-17.5 -63v-180h72q86 0 110 17t29 67h23v-204h-23q-5 50 -29 67t-110 17h-72v-186q0 -50 17.5 -63t76.5 -13h63q59 0 92 24.5t61 89.5z" />
    <glyph glyph-name="Ecircumflex" unicode="&#xca;" horiz-adv-x="592" 
d="M294 801l-126 -88l-14 14l140 151l139 -152l-13 -13zM535 152h29l-41 -152h-500v24q51 10 64 20q19 16 19 59v424q0 23 -3.5 37t-17.5 22.5t-20.5 10.5t-33.5 7q-5 1 -8 2v24h498l9 -144h-29q-7 57 -27 81.5t-71 24.5h-84q-59 0 -76.5 -13t-17.5 -63v-180h72q86 0 110 17
t29 67h23v-204h-23q-5 50 -29 67t-110 17h-72v-186q0 -50 17.5 -63t76.5 -13h63q59 0 92 24.5t61 89.5z" />
    <glyph glyph-name="Edieresis" unicode="&#xcb;" horiz-adv-x="592" 
d="M194 755q-23 0 -39.5 16.5t-16.5 39.5t16.5 39.5t39.5 16.5t39.5 -16.5t16.5 -39.5t-16.5 -39.5t-39.5 -16.5zM400 755q-24 0 -40 16.5t-16 39.5t16 39.5t40 16.5q23 0 39 -16.5t16 -39.5t-16 -39.5t-39 -16.5zM535 152h29l-41 -152h-500v24q51 10 64 20q19 16 19 59v424
q0 23 -3.5 37t-17.5 22.5t-20.5 10.5t-33.5 7q-5 1 -8 2v24h498l9 -144h-29q-7 57 -27 81.5t-71 24.5h-84q-59 0 -76.5 -13t-17.5 -63v-180h72q86 0 110 17t29 67h23v-204h-23q-5 50 -29 67t-110 17h-72v-186q0 -50 17.5 -63t76.5 -13h63q59 0 92 24.5t61 89.5z" />
    <glyph glyph-name="Igrave" unicode="&#xcc;" horiz-adv-x="331" 
d="M175 698q-66 70 -122 109q8 21 32.5 39.5t47.5 18.5q44 -62 69 -150zM23 0v24q51 10 64 20q19 16 19 59v424q0 23 -3.5 37t-17.5 22.5t-20.5 10.5t-33.5 7q-5 1 -8 2v24h285v-24q-51 -10 -64 -20q-19 -16 -19 -59v-424q0 -23 3.5 -37t17.5 -22.5t20.5 -10.5t33.5 -7
q5 -1 8 -2v-24h-285z" />
    <glyph glyph-name="Iacute" unicode="&#xcd;" horiz-adv-x="331" 
d="M163 698l-27 17q25 88 69 150q23 0 47.5 -18.5t32.5 -39.5q-56 -39 -122 -109zM23 0v24q51 10 64 20q19 16 19 59v424q0 23 -3.5 37t-17.5 22.5t-20.5 10.5t-33.5 7q-5 1 -8 2v24h285v-24q-51 -10 -64 -20q-19 -16 -19 -59v-424q0 -23 3.5 -37t17.5 -22.5t20.5 -10.5
t33.5 -7q5 -1 8 -2v-24h-285z" />
    <glyph glyph-name="Icircumflex" unicode="&#xce;" horiz-adv-x="331" 
d="M163 878l139 -152l-13 -13l-126 88l-126 -88l-14 14zM23 0v24q51 10 64 20q19 16 19 59v424q0 23 -3.5 37t-17.5 22.5t-20.5 10.5t-33.5 7q-5 1 -8 2v24h285v-24q-51 -10 -64 -20q-19 -16 -19 -59v-424q0 -23 3.5 -37t17.5 -22.5t20.5 -10.5t33.5 -7q5 -1 8 -2v-24h-285z
" />
    <glyph glyph-name="Idieresis" unicode="&#xcf;" horiz-adv-x="331" 
d="M63 755q-23 0 -39.5 16.5t-16.5 39.5t16.5 39.5t39.5 16.5t39.5 -16.5t16.5 -39.5t-16.5 -39.5t-39.5 -16.5zM269 755q-24 0 -40 16.5t-16 39.5t16 39.5t40 16.5q23 0 39 -16.5t16 -39.5t-16 -39.5t-39 -16.5zM23 0v24q51 10 64 20q19 16 19 59v424q0 23 -3.5 37
t-17.5 22.5t-20.5 10.5t-33.5 7q-5 1 -8 2v24h285v-24q-51 -10 -64 -20q-19 -16 -19 -59v-424q0 -23 3.5 -37t17.5 -22.5t20.5 -10.5t33.5 -7q5 -1 8 -2v-24h-285z" />
    <glyph glyph-name="Eth" unicode="&#xd0;" horiz-adv-x="703" 
d="M296 630q71 0 134.5 -18t116 -53.5t83.5 -97.5t31 -142q0 -82 -30.5 -145.5t-82.5 -100t-115.5 -55t-136.5 -18.5h-271v24q51 10 64 20q19 16 19 59v191q-28 0 -84 -2l10 38q50 -2 74 -2v199q0 23 -3.5 37t-17.5 22.5t-20.5 10.5t-33.5 7q-5 1 -8 2v24h271zM324 38
q103 0 155 71t52 200q0 132 -59 208t-186 76h-59v-266q70 0 139 3l-10 -38q-64 3 -129 3v-161q0 -53 20.5 -74.5t76.5 -21.5z" />
    <glyph glyph-name="Ntilde" unicode="&#xd1;" horiz-adv-x="698" 
d="M197 740h-24q-9 48 23.5 80t81.5 32q40 0 84.5 -36t76.5 -36q25 0 41 15t16 31h23q9 -48 -23.5 -80t-81.5 -32q-26 0 -49 11t-36 25t-33 25t-42 11q-25 0 -41 -15t-16 -31zM458 630h217v-24q-52 -10 -65 -20q-20 -17 -20 -59v-527h-50l-390 533v-430q0 -23 4 -37
t19 -22.5t22 -10.5t36 -7q6 -1 9 -2v-24h-217v24q52 10 65 20q20 16 20 59v424q0 23 -4 37t-17.5 22.5t-21.5 10.5t-33 7q-2 1 -3 1t-3 0.5t-3 0.5v24h195l330 -450v347q0 23 -4 37t-19 22.5t-22 10.5t-36 7q-6 1 -9 2v24z" />
    <glyph glyph-name="Ograve" unicode="&#xd2;" horiz-adv-x="728" 
d="M374 698q-66 70 -122 109q8 21 32.5 39.5t47.5 18.5q44 -62 69 -150zM362 -12q-139 0 -229 92.5t-90 233.5q0 142 91 237t232 95q139 0 229.5 -92.5t90.5 -234.5q0 -141 -91.5 -236t-232.5 -95zM379 26q81 0 130 69.5t49 193.5q0 142 -58.5 230.5t-150.5 88.5
q-82 0 -130.5 -70t-48.5 -194q0 -141 58.5 -229.5t150.5 -88.5z" />
    <glyph glyph-name="Oacute" unicode="&#xd3;" horiz-adv-x="728" 
d="M361 698l-27 17q25 88 69 150q23 0 47.5 -18.5t32.5 -39.5q-56 -39 -122 -109zM362 -12q-139 0 -229 92.5t-90 233.5q0 142 91 237t232 95q139 0 229.5 -92.5t90.5 -234.5q0 -141 -91.5 -236t-232.5 -95zM379 26q81 0 130 69.5t49 193.5q0 142 -58.5 230.5t-150.5 88.5
q-82 0 -130.5 -70t-48.5 -194q0 -141 58.5 -229.5t150.5 -88.5z" />
    <glyph glyph-name="Ocircumflex" unicode="&#xd4;" horiz-adv-x="728" 
d="M362 878l139 -152l-13 -13l-126 88l-126 -88l-14 14zM362 -12q-139 0 -229 92.5t-90 233.5q0 142 91 237t232 95q139 0 229.5 -92.5t90.5 -234.5q0 -141 -91.5 -236t-232.5 -95zM379 26q81 0 130 69.5t49 193.5q0 142 -58.5 230.5t-150.5 88.5q-82 0 -130.5 -70
t-48.5 -194q0 -141 58.5 -229.5t150.5 -88.5z" />
    <glyph glyph-name="Otilde" unicode="&#xd5;" horiz-adv-x="728" 
d="M429 714q-26 0 -49 11t-36 25t-33 25t-42 11q-25 0 -41 -15t-16 -31h-24q-9 48 23.5 80t81.5 32q40 0 84.5 -36t76.5 -36q25 0 41 15t16 31h23q9 -48 -23.5 -80t-81.5 -32zM362 -12q-139 0 -229 92.5t-90 233.5q0 142 91 237t232 95q139 0 229.5 -92.5t90.5 -234.5
q0 -141 -91.5 -236t-232.5 -95zM379 26q81 0 130 69.5t49 193.5q0 142 -58.5 230.5t-150.5 88.5q-82 0 -130.5 -70t-48.5 -194q0 -141 58.5 -229.5t150.5 -88.5z" />
    <glyph glyph-name="Odieresis" unicode="&#xd6;" horiz-adv-x="728" 
d="M262 755q-23 0 -39.5 16.5t-16.5 39.5t16.5 39.5t39.5 16.5t39.5 -16.5t16.5 -39.5t-16.5 -39.5t-39.5 -16.5zM468 755q-24 0 -40 16.5t-16 39.5t16 39.5t40 16.5q23 0 39 -16.5t16 -39.5t-16 -39.5t-39 -16.5zM362 -12q-139 0 -229 92.5t-90 233.5q0 142 91 237t232 95
q139 0 229.5 -92.5t90.5 -234.5q0 -141 -91.5 -236t-232.5 -95zM379 26q81 0 130 69.5t49 193.5q0 142 -58.5 230.5t-150.5 88.5q-82 0 -130.5 -70t-48.5 -194q0 -141 58.5 -229.5t150.5 -88.5z" />
    <glyph glyph-name="multiply" unicode="&#xd7;" horiz-adv-x="445" 
d="M381 362l-110 -110l110 -110l-49 -49l-109 110l-110 -110l-49 49l110 110l-110 110l49 49l110 -110l109 110z" />
    <glyph glyph-name="Oslash" unicode="&#xd8;" horiz-adv-x="728" 
d="M547 593q65 -43 102 -114.5t37 -159.5q0 -141 -91.5 -236t-232.5 -95q-90 0 -166 43l-50 -80l-20 13l50 80q-62 43 -97.5 113.5t-35.5 156.5q0 142 91 237t232 95q90 0 161 -40l56 89l20 -13zM170 344q0 -134 54 -223l261 418q-55 69 -136 69q-82 0 -130.5 -70
t-48.5 -194zM379 26q81 0 130 69.5t49 193.5q0 141 -58 229l-261 -418q57 -74 140 -74z" />
    <glyph glyph-name="Ugrave" unicode="&#xd9;" horiz-adv-x="715" 
d="M367 698q-66 70 -122 109q8 21 32.5 39.5t47.5 18.5q44 -62 69 -150zM359 -12q-48 0 -88 10.5t-79.5 37.5t-62.5 82t-23 134v275q0 23 -3.5 37t-17.5 22.5t-20.5 10.5t-33.5 7q-5 1 -8 2v24h286v-24q-51 -10 -64 -20q-19 -16 -19 -59v-289q0 -206 164 -206q30 0 57 7.5
t55 26.5t44.5 59.5t16.5 98.5v303q0 23 -4 37t-17.5 22.5t-21.5 10.5t-33 7q-2 1 -3 1t-3 0.5t-3 0.5v24h218v-24q-56 -10 -69 -20q-21 -16 -21 -59v-283q0 -73 -20.5 -125t-57 -79.5t-78 -39.5t-91.5 -12z" />
    <glyph glyph-name="Uacute" unicode="&#xda;" horiz-adv-x="715" 
d="M354 698l-26 17q25 88 69 150q22 0 46.5 -18.5t32.5 -39.5q-56 -39 -122 -109zM359 -12q-48 0 -88 10.5t-79.5 37.5t-62.5 82t-23 134v275q0 23 -3.5 37t-17.5 22.5t-20.5 10.5t-33.5 7q-5 1 -8 2v24h286v-24q-51 -10 -64 -20q-19 -16 -19 -59v-289q0 -206 164 -206
q30 0 57 7.5t55 26.5t44.5 59.5t16.5 98.5v303q0 23 -4 37t-17.5 22.5t-21.5 10.5t-33 7q-2 1 -3 1t-3 0.5t-3 0.5v24h218v-24q-56 -10 -69 -20q-21 -16 -21 -59v-283q0 -73 -20.5 -125t-57 -79.5t-78 -39.5t-91.5 -12z" />
    <glyph glyph-name="Ucircumflex" unicode="&#xdb;" horiz-adv-x="715" 
d="M355 878l139 -152l-13 -13l-126 88l-126 -88l-14 14zM359 -12q-48 0 -88 10.5t-79.5 37.5t-62.5 82t-23 134v275q0 23 -3.5 37t-17.5 22.5t-20.5 10.5t-33.5 7q-5 1 -8 2v24h286v-24q-51 -10 -64 -20q-19 -16 -19 -59v-289q0 -206 164 -206q30 0 57 7.5t55 26.5
t44.5 59.5t16.5 98.5v303q0 23 -4 37t-17.5 22.5t-21.5 10.5t-33 7q-2 1 -3 1t-3 0.5t-3 0.5v24h218v-24q-56 -10 -69 -20q-21 -16 -21 -59v-283q0 -73 -20.5 -125t-57 -79.5t-78 -39.5t-91.5 -12z" />
    <glyph glyph-name="Udieresis" unicode="&#xdc;" horiz-adv-x="715" 
d="M255 755q-23 0 -39.5 16.5t-16.5 39.5t16.5 39.5t39.5 16.5t39.5 -16.5t16.5 -39.5t-16.5 -39.5t-39.5 -16.5zM461 755q-24 0 -40 16.5t-16 39.5t16 39.5t40 16.5q23 0 39 -16.5t16 -39.5t-16 -39.5t-39 -16.5zM359 -12q-48 0 -88 10.5t-79.5 37.5t-62.5 82t-23 134v275
q0 23 -3.5 37t-17.5 22.5t-20.5 10.5t-33.5 7q-5 1 -8 2v24h286v-24q-51 -10 -64 -20q-19 -16 -19 -59v-289q0 -206 164 -206q30 0 57 7.5t55 26.5t44.5 59.5t16.5 98.5v303q0 23 -4 37t-17.5 22.5t-21.5 10.5t-33 7q-2 1 -3 1t-3 0.5t-3 0.5v24h218v-24q-56 -10 -69 -20
q-21 -16 -21 -59v-283q0 -73 -20.5 -125t-57 -79.5t-78 -39.5t-91.5 -12z" />
    <glyph glyph-name="Yacute" unicode="&#xdd;" horiz-adv-x="661" 
d="M449 807q-56 -39 -122 -109l-26 17q25 88 69 150q22 0 46.5 -18.5t32.5 -39.5zM453 630h199v-24q-39 -8 -51.5 -16.5t-36.5 -45.5l-169 -270v-173q0 -25 4.5 -39t20.5 -22t26 -10.5t42 -7.5v-22h-305v22q59 10 73 21q20 15 20 58v159l-181 284q-24 37 -36 45.5t-51 16.5
v24h278v-24q-4 -1 -15.5 -3.5t-16 -3.5t-12.5 -4t-11 -5.5t-6.5 -6.5t-3 -9.5t2.5 -13t8 -16.5l144 -231l141 231q10 17 11.5 27.5t-9 16.5t-19 8.5t-31.5 6.5q-11 2 -16 3v24z" />
    <glyph glyph-name="Thorn" unicode="&#xde;" horiz-adv-x="591" 
d="M557 314q0 -48 -18.5 -83.5t-48.5 -57t-75 -35t-89.5 -19t-100.5 -6.5v-10q0 -23 3.5 -37t17.5 -22.5t20.5 -10.5t33.5 -7q5 -1 8 -2v-24h-285v24q51 10 64 20q19 16 19 59v424q0 23 -3.5 37t-17.5 22.5t-20.5 10.5t-33.5 7q-5 1 -8 2v24h285v-24q-51 -10 -64 -20
q-19 -16 -19 -59v-12q56 -1 100.5 -6.5t89.5 -19t75 -34.5t48.5 -57t18.5 -84zM427 314q0 80 -46.5 118.5t-155.5 44.5v-325q108 6 155 44t47 118z" />
    <glyph glyph-name="germandbls" unicode="&#xdf;" horiz-adv-x="577" 
d="M482 258q68 -68 68 -122q0 -41 -42.5 -77t-96 -54t-96.5 -18q-35 0 -58 14t-23 38q0 19 14 30t32 11q20 0 57.5 -25.5t50.5 -25.5q22 0 42 22.5t20 49.5q0 39 -48 88l-115 114q32 35 48.5 56t30.5 53.5t14 67.5q0 48 -21.5 84t-65.5 36q-90 0 -90 -137v-463h-180v24
q49 9 61 20t12 35v383q0 80 53.5 127.5t143.5 47.5q89 0 139 -41t49 -104q-1 -71 -93 -141z" />
    <glyph glyph-name="agrave" unicode="&#xe0;" horiz-adv-x="518" 
d="M261 508q-66 70 -122 109q8 21 32.5 39.5t47.5 18.5q44 -62 69 -150zM431 94q0 -24 21.5 -28.5t53.5 13.5v-25q-45 -44 -100 -61q-32 0 -57 25t-26 56q-81 -81 -173 -81q-53 0 -87.5 28t-34.5 78q0 25 10.5 45.5t25 33.5t44 26t51.5 20t65 19q5 1 16 4t15 4.5t13.5 4
t13 4.5t10.5 4.5t10.5 5.5t8 6.5t7.5 7t5 8.5v15q0 59 -25.5 81t-84.5 22q-28 0 -38 -28q-21 -53 -37 -73t-39 -20q-18 0 -29.5 11.5t-11.5 30.5q0 49 78.5 83.5t155.5 34.5q139 0 139 -152v-203zM211 52q65 0 112 63v122l-92 -26q-92 -26 -92 -88q0 -33 20.5 -52t51.5 -19z
" />
    <glyph glyph-name="aacute" unicode="&#xe1;" horiz-adv-x="518" 
d="M370 617q-56 -39 -122 -109l-26 17q25 88 69 150q22 0 46.5 -18.5t32.5 -39.5zM431 94q0 -24 21.5 -28.5t53.5 13.5v-25q-45 -44 -100 -61q-32 0 -57 25t-26 56q-81 -81 -173 -81q-53 0 -87.5 28t-34.5 78q0 25 10.5 45.5t25 33.5t44 26t51.5 20t65 19q5 1 16 4t15 4.5
t13.5 4t13 4.5t10.5 4.5t10.5 5.5t8 6.5t7.5 7t5 8.5v15q0 59 -25.5 81t-84.5 22q-28 0 -38 -28q-21 -53 -37 -73t-39 -20q-18 0 -29.5 11.5t-11.5 30.5q0 49 78.5 83.5t155.5 34.5q139 0 139 -152v-203zM211 52q65 0 112 63v122l-92 -26q-92 -26 -92 -88q0 -33 20.5 -52
t51.5 -19z" />
    <glyph glyph-name="acircumflex" unicode="&#xe2;" horiz-adv-x="518" 
d="M249 611l-126 -88l-14 14l140 151l139 -152l-13 -13zM431 94q0 -24 21.5 -28.5t53.5 13.5v-25q-45 -44 -100 -61q-32 0 -57 25t-26 56q-81 -81 -173 -81q-53 0 -87.5 28t-34.5 78q0 25 10.5 45.5t25 33.5t44 26t51.5 20t65 19q5 1 16 4t15 4.5t13.5 4t13 4.5t10.5 4.5
t10.5 5.5t8 6.5t7.5 7t5 8.5v15q0 59 -25.5 81t-84.5 22q-28 0 -38 -28q-21 -53 -37 -73t-39 -20q-18 0 -29.5 11.5t-11.5 30.5q0 49 78.5 83.5t155.5 34.5q139 0 139 -152v-203zM211 52q65 0 112 63v122l-92 -26q-92 -26 -92 -88q0 -33 20.5 -52t51.5 -19z" />
    <glyph glyph-name="atilde" unicode="&#xe3;" horiz-adv-x="518" 
d="M99 550h-24q-9 48 23.5 80t81.5 32q40 0 84.5 -36t76.5 -36q25 0 41 15t16 31h23q9 -48 -23.5 -80t-81.5 -32q-26 0 -49 11t-36 25t-33 25t-42 11q-25 0 -41 -15t-16 -31zM431 94q0 -24 21.5 -28.5t53.5 13.5v-25q-45 -44 -100 -61q-32 0 -57 25t-26 56q-81 -81 -173 -81
q-53 0 -87.5 28t-34.5 78q0 25 10.5 45.5t25 33.5t44 26t51.5 20t65 19q5 1 16 4t15 4.5t13.5 4t13 4.5t10.5 4.5t10.5 5.5t8 6.5t7.5 7t5 8.5v15q0 59 -25.5 81t-84.5 22q-28 0 -38 -28q-21 -53 -37 -73t-39 -20q-18 0 -29.5 11.5t-11.5 30.5q0 49 78.5 83.5t155.5 34.5
q139 0 139 -152v-203zM211 52q65 0 112 63v122l-92 -26q-92 -26 -92 -88q0 -33 20.5 -52t51.5 -19z" />
    <glyph glyph-name="adieresis" unicode="&#xe4;" horiz-adv-x="518" 
d="M149 565q-23 0 -39.5 16.5t-16.5 39.5t16.5 39.5t39.5 16.5t39.5 -16.5t16.5 -39.5t-16.5 -39.5t-39.5 -16.5zM355 565q-24 0 -40 16.5t-16 39.5t16 39.5t40 16.5q23 0 39 -16.5t16 -39.5t-16 -39.5t-39 -16.5zM431 94q0 -24 21.5 -28.5t53.5 13.5v-25q-45 -44 -100 -61
q-32 0 -57 25t-26 56q-81 -81 -173 -81q-53 0 -87.5 28t-34.5 78q0 25 10.5 45.5t25 33.5t44 26t51.5 20t65 19q5 1 16 4t15 4.5t13.5 4t13 4.5t10.5 4.5t10.5 5.5t8 6.5t7.5 7t5 8.5v15q0 59 -25.5 81t-84.5 22q-28 0 -38 -28q-21 -53 -37 -73t-39 -20q-18 0 -29.5 11.5
t-11.5 30.5q0 49 78.5 83.5t155.5 34.5q139 0 139 -152v-203zM211 52q65 0 112 63v122l-92 -26q-92 -26 -92 -88q0 -33 20.5 -52t51.5 -19z" />
    <glyph glyph-name="aring" unicode="&#xe5;" horiz-adv-x="518" 
d="M252 531q-39 0 -65.5 26t-26.5 64t26.5 64.5t65.5 26.5t65.5 -26.5t26.5 -64.5t-26.5 -64t-65.5 -26zM252 666q-20 0 -32.5 -13t-12.5 -32t12.5 -31.5t32.5 -12.5q19 0 32 12.5t13 31.5t-13 32t-32 13zM431 94q0 -24 21.5 -28.5t53.5 13.5v-25q-45 -44 -100 -61
q-32 0 -57 25t-26 56q-81 -81 -173 -81q-53 0 -87.5 28t-34.5 78q0 25 10.5 45.5t25 33.5t44 26t51.5 20t65 19q5 1 16 4t15 4.5t13.5 4t13 4.5t10.5 4.5t10.5 5.5t8 6.5t7.5 7t5 8.5v15q0 59 -25.5 81t-84.5 22q-28 0 -38 -28q-21 -53 -37 -73t-39 -20q-18 0 -29.5 11.5
t-11.5 30.5q0 49 78.5 83.5t155.5 34.5q139 0 139 -152v-203zM211 52q65 0 112 63v122l-92 -26q-92 -26 -92 -88q0 -33 20.5 -52t51.5 -19z" />
    <glyph glyph-name="ae" unicode="&#xe6;" horiz-adv-x="777" 
d="M602 59q81 0 117 51l18 -12q-18 -50 -66.5 -78.5t-114.5 -28.5q-68 0 -122.5 29.5t-84.5 82.5q-93 -110 -199 -110q-53 0 -87.5 28t-34.5 78q0 25 10.5 45.5t25 33.5t44 26t51.5 20t65 19q5 1 16 4t15 4.5t13.5 4t13 4.5t10.5 4.5t10.5 5.5t8 6.5t7.5 7t5 8.5v15
q0 59 -25.5 81t-84.5 22q-28 0 -38 -28q-21 -53 -37 -73t-39 -20q-18 0 -29.5 11.5t-11.5 30.5q0 49 78.5 83.5t155.5 34.5t113 -48q60 48 145 48q43 0 79 -13.5t58.5 -35.5t37 -49.5t14.5 -56t-9 -55.5h-298q5 -81 51 -130.5t119 -49.5zM541 414q-44 0 -75 -36.5
t-35 -103.5h199q8 53 -15 96.5t-74 43.5zM211 52q36 0 70 23.5t55 57.5q-15 37 -15 85q0 13 1 19l-91 -26q-92 -26 -92 -88q0 -33 20.5 -52t51.5 -19z" />
    <glyph glyph-name="ccedilla" unicode="&#xe7;" horiz-adv-x="481" 
d="M268 -9h-1l-19 -38q43 0 75 -21.5t32 -58.5q0 -39 -40.5 -62t-122.5 -23l5 24q45 0 67 13.5t22 32.5q0 44 -110 44l47 92q-85 14 -137.5 73t-52.5 150q0 106 69 169t174 63q76 0 122.5 -32t46.5 -75q0 -23 -13.5 -35.5t-35.5 -12.5q-25 0 -40 17.5t-25 56.5
q-7 26 -20.5 37t-37.5 11q-53 0 -90.5 -42t-37.5 -120q0 -85 47 -139.5t123 -54.5q82 0 116 49l18 -12q-18 -50 -66 -78t-115 -28z" />
    <glyph glyph-name="egrave" unicode="&#xe8;" horiz-adv-x="490" 
d="M255 508q-66 70 -122 109q8 21 32.5 39.5t46.5 18.5q44 -62 69 -150zM314 59q81 0 117 51l18 -12q-18 -50 -66.5 -78.5t-114.5 -28.5q-101 0 -168 62t-67 165t66 167t163 64q43 0 79 -13.5t58.5 -35.5t37 -49.5t14.5 -56t-9 -55.5h-298q5 -81 51 -130.5t119 -49.5z
M253 414q-44 0 -75 -36.5t-35 -103.5h199q8 53 -15 96.5t-74 43.5z" />
    <glyph glyph-name="eacute" unicode="&#xe9;" horiz-adv-x="490" 
d="M364 617q-56 -39 -122 -109l-27 17q25 88 69 150q23 0 47.5 -18.5t32.5 -39.5zM314 59q81 0 117 51l18 -12q-18 -50 -66.5 -78.5t-114.5 -28.5q-101 0 -168 62t-67 165t66 167t163 64q43 0 79 -13.5t58.5 -35.5t37 -49.5t14.5 -56t-9 -55.5h-298q5 -81 51 -130.5
t119 -49.5zM253 414q-44 0 -75 -36.5t-35 -103.5h199q8 53 -15 96.5t-74 43.5z" />
    <glyph glyph-name="ecircumflex" unicode="&#xea;" horiz-adv-x="490" 
d="M242 611l-126 -88l-13 14l139 151l140 -152l-14 -13zM314 59q81 0 117 51l18 -12q-18 -50 -66.5 -78.5t-114.5 -28.5q-101 0 -168 62t-67 165t66 167t163 64q43 0 79 -13.5t58.5 -35.5t37 -49.5t14.5 -56t-9 -55.5h-298q5 -81 51 -130.5t119 -49.5zM253 414
q-44 0 -75 -36.5t-35 -103.5h199q8 53 -15 96.5t-74 43.5z" />
    <glyph glyph-name="edieresis" unicode="&#xeb;" horiz-adv-x="490" 
d="M143 565q-24 0 -40 16.5t-16 39.5t16 39.5t40 16.5q23 0 39 -16.5t16 -39.5t-16 -39.5t-39 -16.5zM348 565q-23 0 -39.5 16.5t-16.5 39.5t16.5 39.5t39.5 16.5t39.5 -16.5t16.5 -39.5t-16.5 -39.5t-39.5 -16.5zM314 59q81 0 117 51l18 -12q-18 -50 -66.5 -78.5
t-114.5 -28.5q-101 0 -168 62t-67 165t66 167t163 64q43 0 79 -13.5t58.5 -35.5t37 -49.5t14.5 -56t-9 -55.5h-298q5 -81 51 -130.5t119 -49.5zM253 414q-44 0 -75 -36.5t-35 -103.5h199q8 53 -15 96.5t-74 43.5z" />
    <glyph glyph-name="igrave" unicode="&#xec;" horiz-adv-x="286" 
d="M148 508q-66 70 -122 109q8 21 32.5 39.5t46.5 18.5q44 -62 69 -150zM23 0v24q27 5 37 8t19.5 14.5t9.5 32.5v234q0 30 -12.5 44t-53.5 19v22q88 16 152 58l21 -19v-358q0 -30 14 -39t52 -16v-24h-239z" />
    <glyph glyph-name="iacute" unicode="&#xed;" horiz-adv-x="286" 
d="M135 508l-27 17q25 88 69 150q23 0 47.5 -18.5t32.5 -39.5q-56 -39 -122 -109zM23 0v24q27 5 37 8t19.5 14.5t9.5 32.5v234q0 30 -12.5 44t-53.5 19v22q88 16 152 58l21 -19v-358q0 -30 14 -39t52 -16v-24h-239z" />
    <glyph glyph-name="icircumflex" unicode="&#xee;" horiz-adv-x="286" 
d="M135 688l140 -152l-14 -13l-126 88l-126 -88l-14 14zM23 0v24q27 5 37 8t19.5 14.5t9.5 32.5v234q0 30 -12.5 44t-53.5 19v22q88 16 152 58l21 -19v-358q0 -30 14 -39t52 -16v-24h-239z" />
    <glyph glyph-name="idieresis" unicode="&#xef;" horiz-adv-x="286" 
d="M36 565q-24 0 -40.5 16.5t-16.5 39.5t16.5 39.5t40.5 16.5q23 0 39 -16.5t16 -39.5t-16 -39.5t-39 -16.5zM241 565q-23 0 -39.5 16.5t-16.5 39.5t16.5 39.5t39.5 16.5t39.5 -16.5t16.5 -39.5t-16.5 -39.5t-39.5 -16.5zM23 0v24q27 5 37 8t19.5 14.5t9.5 32.5v234
q0 30 -12.5 44t-53.5 19v22q88 16 152 58l21 -19v-358q0 -30 14 -39t52 -16v-24h-239z" />
    <glyph glyph-name="eth" unicode="&#xf0;" horiz-adv-x="546" 
d="M357 544q67 -54 106.5 -127.5t40.5 -159.5q0 -127 -62.5 -196.5t-179.5 -69.5q-97 0 -163 61.5t-66 164.5q0 106 70 169t170 63q40 0 71 -10q-23 44 -58 81q-99 -34 -166 -61v45q69 20 138 42q-67 54 -151 62l16 29q105 -6 201 -69q81 28 158 58v-45q-71 -20 -125 -37z
M276 26q55 0 83 49t28 133q0 85 -34.5 145.5t-92.5 60.5q-49 0 -80.5 -44.5t-31.5 -130.5q0 -88 34.5 -150.5t93.5 -62.5z" />
    <glyph glyph-name="ntilde" unicode="&#xf1;" horiz-adv-x="570" 
d="M347 524q-26 0 -49 11t-36 25t-33 25t-42 11q-25 0 -41 -15t-16 -31h-24q-9 48 23.5 80t81.5 32q40 0 84.5 -36t76.5 -36q25 0 41 15t16 31h23q9 -48 -23.5 -80t-81.5 -32zM18 0v24q27 5 37 8t19.5 14.5t9.5 32.5v234q0 30 -12.5 44t-53.5 19v22q92 14 160 58l20 -19
l-29 -84h19q78 96 172 96q125 0 125 -154v-216q0 -30 14 -39t52 -16v-24h-234v24q42 9 51 20q10 12 10 35v208q0 94 -74 94q-63 0 -113 -61v-241q0 -16 3.5 -25.5t14.5 -15.5t17 -8t26 -6v-24h-234z" />
    <glyph glyph-name="ograve" unicode="&#xf2;" horiz-adv-x="541" 
d="M281 508q-66 70 -122 109q8 21 32.5 39.5t46.5 18.5q44 -62 69 -150zM265 -9q-98 0 -165 61.5t-67 164.5q0 106 71.5 169t171.5 63q97 0 164.5 -62t67.5 -164q0 -106 -71.5 -169t-171.5 -63zM278 26q49 0 81.5 45t32.5 130q0 88 -35 151t-95 63q-48 0 -81 -45.5
t-33 -130.5q0 -87 35.5 -150t94.5 -63z" />
    <glyph glyph-name="oacute" unicode="&#xf3;" horiz-adv-x="541" 
d="M268 508l-27 17q25 88 69 150q23 0 47.5 -18.5t32.5 -39.5q-56 -39 -122 -109zM265 -9q-98 0 -165 61.5t-67 164.5q0 106 71.5 169t171.5 63q97 0 164.5 -62t67.5 -164q0 -106 -71.5 -169t-171.5 -63zM278 26q49 0 81.5 45t32.5 130q0 88 -35 151t-95 63q-48 0 -81 -45.5
t-33 -130.5q0 -87 35.5 -150t94.5 -63z" />
    <glyph glyph-name="ocircumflex" unicode="&#xf4;" horiz-adv-x="541" 
d="M268 688l140 -152l-14 -13l-126 88l-126 -88l-13 14zM265 -9q-98 0 -165 61.5t-67 164.5q0 106 71.5 169t171.5 63q97 0 164.5 -62t67.5 -164q0 -106 -71.5 -169t-171.5 -63zM278 26q49 0 81.5 45t32.5 130q0 88 -35 151t-95 63q-48 0 -81 -45.5t-33 -130.5
q0 -87 35.5 -150t94.5 -63z" />
    <glyph glyph-name="otilde" unicode="&#xf5;" horiz-adv-x="541" 
d="M336 524q-33 0 -59.5 18t-50.5 36t-51 18q-25 0 -41 -15t-16 -31h-23q-9 48 23 80t81 32q33 0 59.5 -18t50.5 -36t51 -18q25 0 41 15t16 31h24q9 -48 -23.5 -80t-81.5 -32zM265 -9q-98 0 -165 61.5t-67 164.5q0 106 71.5 169t171.5 63q97 0 164.5 -62t67.5 -164
q0 -106 -71.5 -169t-171.5 -63zM278 26q49 0 81.5 45t32.5 130q0 88 -35 151t-95 63q-48 0 -81 -45.5t-33 -130.5q0 -87 35.5 -150t94.5 -63z" />
    <glyph glyph-name="odieresis" unicode="&#xf6;" horiz-adv-x="541" 
d="M169 565q-24 0 -40 16.5t-16 39.5t16 39.5t40 16.5q23 0 39 -16.5t16 -39.5t-16 -39.5t-39 -16.5zM374 565q-23 0 -39.5 16.5t-16.5 39.5t16.5 39.5t39.5 16.5t39.5 -16.5t16.5 -39.5t-16.5 -39.5t-39.5 -16.5zM265 -9q-98 0 -165 61.5t-67 164.5q0 106 71.5 169
t171.5 63q97 0 164.5 -62t67.5 -164q0 -106 -71.5 -169t-171.5 -63zM278 26q49 0 81.5 45t32.5 130q0 88 -35 151t-95 63q-48 0 -81 -45.5t-33 -130.5q0 -87 35.5 -150t94.5 -63z" />
    <glyph glyph-name="divide" unicode="&#xf7;" horiz-adv-x="498" 
d="M251 353q-21 0 -36 15.5t-15 36.5t15 36t36 15t36 -15t15 -36t-15 -36.5t-36 -15.5zM64 217v69h370v-69h-370zM251 47q-21 0 -36 15.5t-15 36.5t15 36t36 15t36 -15t15 -36t-15 -36.5t-36 -15.5z" />
    <glyph glyph-name="oslash" unicode="&#xf8;" horiz-adv-x="540" 
d="M406 413q102 -62 102 -190q0 -106 -71.5 -169t-171.5 -63q-57 0 -108 23l-40 -64l-19 14l38 61q-103 63 -103 192q0 106 71.5 169t171.5 63q60 0 110 -24l41 66l19 -14zM148 239q0 -85 32 -144l168 270q-34 50 -86 50q-48 0 -81 -45.5t-33 -130.5zM278 26q49 0 81.5 45
t32.5 130q0 84 -30 141l-168 -269q34 -47 84 -47z" />
    <glyph glyph-name="ugrave" unicode="&#xf9;" horiz-adv-x="566" 
d="M294 508q-66 70 -122 109q8 21 32.5 39.5t47.5 18.5q44 -62 69 -150zM210 -9q-131 0 -131 154v226q0 18 -8.5 27.5t-19 12.5t-33.5 7v22q105 -5 168 6v-296q0 -90 77 -90q58 0 111 51v260q0 18 -8.5 27.5t-19 12.5t-33.5 7v22q106 -5 169 6v-356q0 -30 12.5 -44.5
t53.5 -21.5v-24h-161l6 79h-14q-40 -42 -79 -65t-90 -23z" />
    <glyph glyph-name="uacute" unicode="&#xfa;" horiz-adv-x="566" 
d="M281 508l-26 17q25 88 69 150q22 0 46.5 -18.5t32.5 -39.5q-56 -39 -122 -109zM210 -9q-131 0 -131 154v226q0 18 -8.5 27.5t-19 12.5t-33.5 7v22q105 -5 168 6v-296q0 -90 77 -90q58 0 111 51v260q0 18 -8.5 27.5t-19 12.5t-33.5 7v22q106 -5 169 6v-356
q0 -30 12.5 -44.5t53.5 -21.5v-24h-161l6 79h-14q-40 -42 -79 -65t-90 -23z" />
    <glyph glyph-name="ucircumflex" unicode="&#xfb;" horiz-adv-x="566" 
d="M282 688l139 -152l-13 -13l-126 88l-126 -88l-14 14zM210 -9q-131 0 -131 154v226q0 18 -8.5 27.5t-19 12.5t-33.5 7v22q105 -5 168 6v-296q0 -90 77 -90q58 0 111 51v260q0 18 -8.5 27.5t-19 12.5t-33.5 7v22q106 -5 169 6v-356q0 -30 12.5 -44.5t53.5 -21.5v-24h-161
l6 79h-14q-40 -42 -79 -65t-90 -23z" />
    <glyph glyph-name="udieresis" unicode="&#xfc;" horiz-adv-x="566" 
d="M182 565q-23 0 -39.5 16.5t-16.5 39.5t16.5 39.5t39.5 16.5t39.5 -16.5t16.5 -39.5t-16.5 -39.5t-39.5 -16.5zM388 565q-24 0 -40 16.5t-16 39.5t16 39.5t40 16.5q23 0 39 -16.5t16 -39.5t-16 -39.5t-39 -16.5zM210 -9q-131 0 -131 154v226q0 18 -8.5 27.5t-19 12.5
t-33.5 7v22q105 -5 168 6v-296q0 -90 77 -90q58 0 111 51v260q0 18 -8.5 27.5t-19 12.5t-33.5 7v22q106 -5 169 6v-356q0 -30 12.5 -44.5t53.5 -21.5v-24h-161l6 79h-14q-40 -42 -79 -65t-90 -23z" />
    <glyph glyph-name="yacute" unicode="&#xfd;" horiz-adv-x="512" 
d="M377 617q-56 -39 -122 -109l-26 17q25 88 69 150q22 0 46.5 -18.5t32.5 -39.5zM345 440h164v-24q-34 -4 -46 -11t-24 -35l-174 -406q-12 -29 -23.5 -50t-29 -45.5t-40.5 -38t-49 -13.5q-34 0 -66 23v68q73 -8 112.5 3t57.5 53l11 26l-165 380q-13 28 -24.5 35t-45.5 11
v24h235v-24q-46 -7 -53 -18t0 -28l107 -254l109 254q4 9 4.5 15.5t-3 11t-7 7.5t-13 5.5t-14 3t-16.5 2.5q-5 1 -7 1v24z" />
    <glyph glyph-name="thorn" unicode="&#xfe;" horiz-adv-x="551" 
d="M338 449q73 0 127 -58.5t54 -155.5q0 -112 -71.5 -178t-177.5 -66q-50 0 -90 14v-100q0 -32 16.5 -41t63.5 -15v-24h-255v24q22 4 29 5.5t18.5 7t15 16t3.5 27.5v627q0 29 -14.5 43.5t-59.5 19.5v22q96 15 163 57l20 -19v-304q24 42 66 70t92 28zM279 27q55 0 91.5 45.5
t36.5 129.5q0 79 -33.5 130.5t-88.5 51.5q-66 0 -105 -71v-166q0 -47 24 -83.5t75 -36.5z" />
    <glyph glyph-name="ydieresis" unicode="&#xff;" horiz-adv-x="512" 
d="M156 565q-23 0 -39.5 16.5t-16.5 39.5t16.5 39.5t39.5 16.5t39.5 -16.5t16.5 -39.5t-16.5 -39.5t-39.5 -16.5zM362 565q-24 0 -40 16.5t-16 39.5t16 39.5t40 16.5q23 0 39 -16.5t16 -39.5t-16 -39.5t-39 -16.5zM345 440h164v-24q-34 -4 -46 -11t-24 -35l-174 -406
q-12 -29 -23.5 -50t-29 -45.5t-40.5 -38t-49 -13.5q-34 0 -66 23v68q73 -8 112.5 3t57.5 53l11 26l-165 380q-13 28 -24.5 35t-45.5 11v24h235v-24q-46 -7 -53 -18t0 -28l107 -254l109 254q4 9 4.5 15.5t-3 11t-7 7.5t-13 5.5t-14 3t-16.5 2.5q-5 1 -7 1v24z" />
    <glyph glyph-name="Amacron" unicode="&#x100;" horiz-adv-x="691" 
d="M492 827l-15 -41h-280l15 41h280zM606 81q14 -33 27 -41t55 -16v-24h-275v24l17.5 3.5t17.5 4t13.5 4.5t11.5 6.5t6 9t1.5 12.5t-5.5 17l-48 111h-250l-47 -112q-4 -9 -5 -16.5t2 -12.5t5.5 -8.5t11 -6.5t13 -4.5t17 -4l17.5 -3.5v-24h-188v24q31 6 42 9.5t21.5 14
t19.5 33.5l237 556h41zM192 228h219l-111 258z" />
    <glyph glyph-name="amacron" unicode="&#x101;" horiz-adv-x="518" 
d="M400 637l-15 -41h-280l15 41h280zM431 94q0 -24 21.5 -28.5t53.5 13.5v-25q-45 -44 -100 -61q-32 0 -57 25t-26 56q-81 -81 -173 -81q-53 0 -87.5 28t-34.5 78q0 25 10.5 45.5t25 33.5t44 26t51.5 20t65 19q5 1 16 4t15 4.5t13.5 4t13 4.5t10.5 4.5t10.5 5.5t8 6.5t7.5 7
t5 8.5v15q0 59 -25.5 81t-84.5 22q-28 0 -38 -28q-21 -53 -37 -73t-39 -20q-18 0 -29.5 11.5t-11.5 30.5q0 49 78.5 83.5t155.5 34.5q139 0 139 -152v-203zM211 52q65 0 112 63v122l-92 -26q-92 -26 -92 -88q0 -33 20.5 -52t51.5 -19z" />
    <glyph glyph-name="Abreve" unicode="&#x102;" horiz-adv-x="691" 
d="M345 734q-67 0 -105.5 37t-38.5 98h26q14 -66 118 -66q103 0 118 66h25q0 -61 -38 -98t-105 -37zM606 81q14 -33 27 -41t55 -16v-24h-275v24l17.5 3.5t17.5 4t13.5 4.5t11.5 6.5t6 9t1.5 12.5t-5.5 17l-48 111h-250l-47 -112q-4 -9 -5 -16.5t2 -12.5t5.5 -8.5t11 -6.5
t13 -4.5t17 -4l17.5 -3.5v-24h-188v24q31 6 42 9.5t21.5 14t19.5 33.5l237 556h41zM192 228h219l-111 258z" />
    <glyph glyph-name="abreve" unicode="&#x103;" horiz-adv-x="518" 
d="M252 544q-67 0 -105.5 37t-38.5 98h26q14 -66 118 -66q103 0 118 66h25q0 -61 -38 -98t-105 -37zM431 94q0 -24 21.5 -28.5t53.5 13.5v-25q-45 -44 -100 -61q-32 0 -57 25t-26 56q-81 -81 -173 -81q-53 0 -87.5 28t-34.5 78q0 25 10.5 45.5t25 33.5t44 26t51.5 20t65 19
q5 1 16 4t15 4.5t13.5 4t13 4.5t10.5 4.5t10.5 5.5t8 6.5t7.5 7t5 8.5v15q0 59 -25.5 81t-84.5 22q-28 0 -38 -28q-21 -53 -37 -73t-39 -20q-18 0 -29.5 11.5t-11.5 30.5q0 49 78.5 83.5t155.5 34.5q139 0 139 -152v-203zM211 52q65 0 112 63v122l-92 -26q-92 -26 -92 -88
q0 -33 20.5 -52t51.5 -19z" />
    <glyph glyph-name="Aogonek" unicode="&#x104;" horiz-adv-x="691" 
d="M605 0q-66 -41 -66 -88q0 -26 14.5 -41.5t38.5 -15.5q19 0 42 9v-19q-36 -34 -88 -34q-42 0 -69 20.5t-27 63.5q0 32 21 59l68 46h-126v24l17.5 3.5t17.5 4t13.5 4.5t11.5 6.5t6 9t1.5 12.5t-5.5 17l-48 111h-250l-47 -112q-4 -9 -5 -16.5t2 -12.5t5.5 -8.5t11 -6.5
t13 -4.5t17 -4l17.5 -3.5v-24h-188v24q31 6 42 9.5t21.5 14t19.5 33.5l237 556h41l242 -556q9 -20 14 -27l2 2v-5q9 -12 21.5 -16.5t44.5 -10.5v-24h-83zM192 228h219l-111 258z" />
    <glyph glyph-name="aogonek" unicode="&#x105;" horiz-adv-x="518" 
d="M440 7q-67 -42 -67 -89q0 -25 15 -41t39 -16q18 0 41 9v-19q-36 -34 -88 -34q-41 0 -68 20.5t-27 63.5q0 33 20 59l63 43q-43 23 -45 71q-81 -81 -173 -81q-53 0 -87.5 28t-34.5 78q0 25 10.5 45.5t25 33.5t44 26t51.5 20t65 19q5 1 16 4t15 4.5t13.5 4t13 4.5t10.5 4.5
t10.5 5.5t8 6.5t7.5 7t5 8.5v15q0 59 -25.5 81t-84.5 22q-28 0 -38 -28q-21 -53 -37 -73t-39 -20q-18 0 -29.5 11.5t-11.5 30.5q0 49 78.5 83.5t155.5 34.5q139 0 139 -152v-203q0 -24 21.5 -28.5t53.5 13.5v-25q-35 -33 -66 -47zM211 52q65 0 112 63v122l-92 -26
q-92 -26 -92 -88q0 -33 20.5 -52t51.5 -19z" />
    <glyph glyph-name="Cacute" unicode="&#x106;" horiz-adv-x="656" 
d="M363 698l-27 17q25 88 69 150q23 0 47.5 -18.5t32.5 -39.5q-56 -39 -122 -109zM380 -12q-149 0 -243 92.5t-94 234.5q0 144 97.5 237.5t253.5 93.5q118 0 195 -46q4 -91 7 -135h-38q-33 143 -177 143q-100 0 -154 -69.5t-54 -189.5q0 -136 74.5 -222.5t188.5 -86.5
q107 0 156 53l22 -22q-32 -35 -94 -59t-140 -24z" />
    <glyph glyph-name="cacute" unicode="&#x107;" horiz-adv-x="481" 
d="M251 508l-27 17q25 88 69 150q23 0 47.5 -18.5t32.5 -39.5q-56 -39 -122 -109zM268 -9q-103 0 -169 61.5t-66 164.5q0 106 69 169t174 63q76 0 122.5 -32t46.5 -75q0 -23 -13.5 -35.5t-35.5 -12.5q-25 0 -40 17.5t-25 56.5q-7 26 -20.5 37t-37.5 11q-53 0 -90.5 -42
t-37.5 -120q0 -85 47 -139.5t123 -54.5q82 0 116 49l18 -12q-18 -50 -66 -78t-115 -28z" />
    <glyph glyph-name="Cdotaccent" unicode="&#x10a;" horiz-adv-x="656" 
d="M366 721q-27 0 -47 19t-20 45q0 27 20 45.5t47 18.5t46.5 -18.5t19.5 -45.5q0 -26 -20 -45t-46 -19zM380 -12q-149 0 -243 92.5t-94 234.5q0 144 97.5 237.5t253.5 93.5q118 0 195 -46q4 -91 7 -135h-38q-33 143 -177 143q-100 0 -154 -69.5t-54 -189.5
q0 -136 74.5 -222.5t188.5 -86.5q107 0 156 53l22 -22q-32 -35 -94 -59t-140 -24z" />
    <glyph glyph-name="cdotaccent" unicode="&#x10b;" horiz-adv-x="481" 
d="M254 531q-26 0 -46 19t-20 45q0 27 19.5 45.5t46.5 18.5t47 -18.5t20 -45.5q0 -26 -20 -45t-47 -19zM268 -9q-103 0 -169 61.5t-66 164.5q0 106 69 169t174 63q76 0 122.5 -32t46.5 -75q0 -23 -13.5 -35.5t-35.5 -12.5q-25 0 -40 17.5t-25 56.5q-7 26 -20.5 37t-37.5 11
q-53 0 -90.5 -42t-37.5 -120q0 -85 47 -139.5t123 -54.5q82 0 116 49l18 -12q-18 -50 -66 -78t-115 -28z" />
    <glyph glyph-name="Ccaron" unicode="&#x10c;" horiz-adv-x="656" 
d="M364 712l-140 151l14 14l126 -88l126 88l13 -13zM380 -12q-149 0 -243 92.5t-94 234.5q0 144 97.5 237.5t253.5 93.5q118 0 195 -46q4 -91 7 -135h-38q-33 143 -177 143q-100 0 -154 -69.5t-54 -189.5q0 -136 74.5 -222.5t188.5 -86.5q107 0 156 53l22 -22
q-32 -35 -94 -59t-140 -24z" />
    <glyph glyph-name="ccaron" unicode="&#x10d;" horiz-adv-x="481" 
d="M252 522l-139 151l13 14l126 -88l126 88l14 -13zM268 -9q-103 0 -169 61.5t-66 164.5q0 106 69 169t174 63q76 0 122.5 -32t46.5 -75q0 -23 -13.5 -35.5t-35.5 -12.5q-25 0 -40 17.5t-25 56.5q-7 26 -20.5 37t-37.5 11q-53 0 -90.5 -42t-37.5 -120q0 -85 47 -139.5
t123 -54.5q82 0 116 49l18 -12q-18 -50 -66 -78t-115 -28z" />
    <glyph glyph-name="Dcaron" unicode="&#x10e;" horiz-adv-x="701" 
d="M489 864l-139 -152l-140 151l14 14l126 -88l126 88zM294 630q71 0 134.5 -18t116 -53.5t83.5 -97.5t31 -142q0 -82 -30.5 -145.5t-82.5 -100t-115.5 -55t-136.5 -18.5h-271v24q51 10 64 20q19 16 19 59v424q0 23 -3.5 37t-17.5 22.5t-20.5 10.5t-33.5 7q-5 1 -8 2v24h271
zM322 38q103 0 155 71t52 200q0 132 -59 208t-186 76h-59v-459q0 -53 20.5 -74.5t76.5 -21.5z" />
    <glyph glyph-name="dcaron" unicode="&#x10f;" horiz-adv-x="586" 
d="M484 90q0 -30 12.5 -44.5t53.5 -21.5v-24h-165l8 91h-14q-26 -43 -67 -71.5t-93 -28.5q-75 0 -130.5 56.5t-55.5 155.5q0 111 73 178.5t171 67.5q58 0 100 -25v121q0 29 -16 43.5t-59 19.5v22q95 15 162 57l20 -19v-578zM521 655q19 12 49 12.5t49 -12.5q0 -79 -32 -161
l-31 1q-11 94 -35 160zM275 58q40 0 66 26t36 61v213q-9 24 -33 40t-60 16q-59 0 -100 -45.5t-41 -129.5q0 -81 38 -131t94 -50z" />
    <glyph glyph-name="Dcroat" unicode="&#x110;" horiz-adv-x="703" 
d="M296 630q71 0 134.5 -18t116 -53.5t83.5 -97.5t31 -142q0 -82 -30.5 -145.5t-82.5 -100t-115.5 -55t-136.5 -18.5h-271v24q51 10 64 20q19 16 19 59v191q-28 0 -84 -2l10 38q50 -2 74 -2v199q0 23 -3.5 37t-17.5 22.5t-20.5 10.5t-33.5 7q-5 1 -8 2v24h271zM324 38
q103 0 155 71t52 200q0 132 -59 208t-186 76h-59v-266q70 0 139 3l-10 -38q-64 3 -129 3v-161q0 -53 20.5 -74.5t76.5 -21.5z" />
    <glyph glyph-name="dcroat" unicode="&#x111;" horiz-adv-x="574" 
d="M484 90q0 -30 12.5 -44.5t53.5 -21.5v-24h-165l8 91h-14q-26 -43 -67 -71.5t-93 -28.5q-75 0 -130.5 56.5t-55.5 155.5q0 111 73 178.5t171 67.5q58 0 100 -25v67q-83 0 -169 -3l10 38q80 -3 159 -3v22q0 29 -16 43.5t-59 19.5v22q95 15 162 57l20 -19v-144q11 0 33 1
t33 1l-10 -38q-9 0 -27.5 1t-28.5 1v-400zM275 58q40 0 66 26t36 61v213q-9 24 -33 40t-60 16q-59 0 -100 -45.5t-41 -129.5q0 -81 38 -131t94 -50z" />
    <glyph glyph-name="Emacron" unicode="&#x112;" horiz-adv-x="592" 
d="M444 827l-15 -41h-280l15 41h280zM535 152h29l-41 -152h-500v24q51 10 64 20q19 16 19 59v424q0 23 -3.5 37t-17.5 22.5t-20.5 10.5t-33.5 7q-5 1 -8 2v24h498l9 -144h-29q-7 57 -27 81.5t-71 24.5h-84q-59 0 -76.5 -13t-17.5 -63v-180h72q86 0 110 17t29 67h23v-204h-23
q-5 50 -29 67t-110 17h-72v-186q0 -50 17.5 -63t76.5 -13h63q59 0 92 24.5t61 89.5z" />
    <glyph glyph-name="emacron" unicode="&#x113;" horiz-adv-x="490" 
d="M393 637l-15 -41h-280l15 41h280zM314 59q81 0 117 51l18 -12q-18 -50 -66.5 -78.5t-114.5 -28.5q-101 0 -168 62t-67 165t66 167t163 64q43 0 79 -13.5t58.5 -35.5t37 -49.5t14.5 -56t-9 -55.5h-298q5 -81 51 -130.5t119 -49.5zM253 414q-44 0 -75 -36.5t-35 -103.5h199
q8 53 -15 96.5t-74 43.5z" />
    <glyph glyph-name="Edotaccent" unicode="&#x116;" horiz-adv-x="592" 
d="M297 721q-27 0 -47 19t-20 45q0 27 20 45.5t47 18.5t46.5 -18.5t19.5 -45.5q0 -26 -20 -45t-46 -19zM535 152h29l-41 -152h-500v24q51 10 64 20q19 16 19 59v424q0 23 -3.5 37t-17.5 22.5t-20.5 10.5t-33.5 7q-5 1 -8 2v24h498l9 -144h-29q-7 57 -27 81.5t-71 24.5h-84
q-59 0 -76.5 -13t-17.5 -63v-180h72q86 0 110 17t29 67h23v-204h-23q-5 50 -29 67t-110 17h-72v-186q0 -50 17.5 -63t76.5 -13h63q59 0 92 24.5t61 89.5z" />
    <glyph glyph-name="edotaccent" unicode="&#x117;" horiz-adv-x="490" 
d="M245 531q-26 0 -46 19t-20 45q0 27 19.5 45.5t46.5 18.5t47 -18.5t20 -45.5q0 -26 -20 -45t-47 -19zM314 59q81 0 117 51l18 -12q-18 -50 -66.5 -78.5t-114.5 -28.5q-101 0 -168 62t-67 165t66 167t163 64q43 0 79 -13.5t58.5 -35.5t37 -49.5t14.5 -56t-9 -55.5h-298
q5 -81 51 -130.5t119 -49.5zM253 414q-44 0 -75 -36.5t-35 -103.5h199q8 53 -15 96.5t-74 43.5z" />
    <glyph glyph-name="Eogonek" unicode="&#x118;" horiz-adv-x="592" 
d="M481 0q-44 -26 -63.5 -48t-19.5 -50q0 -26 14.5 -41.5t38.5 -15.5q19 0 42 9v-19q-36 -34 -88 -34q-42 0 -69 20.5t-27 63.5q0 32 21 59l83 56h-390v24q51 10 64 20q19 16 19 59v424q0 23 -3.5 37t-17.5 22.5t-20.5 10.5t-33.5 7q-5 1 -8 2v24h498l9 -144h-29
q-7 57 -27 81.5t-71 24.5h-84q-59 0 -76.5 -13t-17.5 -63v-180h72q86 0 110 17t29 67h23v-204h-23q-5 50 -29 67t-110 17h-72v-186q0 -50 17.5 -63t76.5 -13h63q59 0 92 24.5t61 89.5h29l-41 -152h-42z" />
    <glyph glyph-name="eogonek" unicode="&#x119;" horiz-adv-x="490" 
d="M314 59q81 0 117 51l18 -12q-26 -74 -112 -98q-44 -26 -63.5 -48t-19.5 -50q0 -25 15 -41t39 -16q18 0 41 9v-19q-36 -34 -88 -34q-41 0 -68 20.5t-27 63.5q0 33 20 59l70 47q-97 4 -160 65.5t-63 161.5q0 103 66 167t163 64q43 0 79 -13.5t58.5 -35.5t37 -49.5t14.5 -56
t-9 -55.5h-298q5 -81 51 -130.5t119 -49.5zM253 414q-44 0 -75 -36.5t-35 -103.5h199q8 53 -15 96.5t-74 43.5z" />
    <glyph glyph-name="Ecaron" unicode="&#x11a;" horiz-adv-x="592" 
d="M434 864l-139 -152l-140 151l14 14l126 -88l126 88zM535 152h29l-41 -152h-500v24q51 10 64 20q19 16 19 59v424q0 23 -3.5 37t-17.5 22.5t-20.5 10.5t-33.5 7q-5 1 -8 2v24h498l9 -144h-29q-7 57 -27 81.5t-71 24.5h-84q-59 0 -76.5 -13t-17.5 -63v-180h72q86 0 110 17
t29 67h23v-204h-23q-5 50 -29 67t-110 17h-72v-186q0 -50 17.5 -63t76.5 -13h63q59 0 92 24.5t61 89.5z" />
    <glyph glyph-name="ecaron" unicode="&#x11b;" horiz-adv-x="490" 
d="M383 674l-140 -152l-139 151l13 14l126 -88l126 88zM314 59q81 0 117 51l18 -12q-18 -50 -66.5 -78.5t-114.5 -28.5q-101 0 -168 62t-67 165t66 167t163 64q43 0 79 -13.5t58.5 -35.5t37 -49.5t14.5 -56t-9 -55.5h-298q5 -81 51 -130.5t119 -49.5zM253 414
q-44 0 -75 -36.5t-35 -103.5h199q8 53 -15 96.5t-74 43.5z" />
    <glyph glyph-name="Gbreve" unicode="&#x11e;" horiz-adv-x="713" 
d="M357 734q-67 0 -105.5 37t-38.5 98h26q14 -66 118 -66q103 0 118 66h25q0 -61 -38 -98t-105 -37zM401 -12q-167 0 -262.5 92t-95.5 235q0 144 97.5 237.5t254.5 93.5q123 0 200 -46q4 -91 7 -135h-38q-33 143 -183 143q-101 0 -154.5 -68.5t-53.5 -192.5
q0 -143 62.5 -232t170.5 -89q56 0 78 24t22 82v39q0 65 -21 85t-85 25v28h275v-28q-34 -5 -49 -20t-15 -50v-44q0 -71 15 -124q-28 -23 -90 -39t-135 -16z" />
    <glyph glyph-name="gbreve" unicode="&#x11f;" horiz-adv-x="513" 
d="M258 544q-67 0 -105 37t-38 98h25q15 -66 118 -66q104 0 118 66h26q0 -61 -38.5 -98t-105.5 -37zM479 431v-63l-90 14q24 -33 24 -76q0 -62 -48 -102.5t-130 -40.5h-35q-45 0 -45 -35q0 -31 44 -35l105 -10q98 -8 131.5 -26.5t33.5 -65.5q0 -81 -74.5 -130.5
t-190.5 -50.5q-93 0 -139.5 32.5t-46.5 78.5q0 20 28.5 47.5t67.5 44.5q-59 23 -59 71q0 17 32.5 48.5t64.5 43.5q-46 17 -71.5 51.5t-25.5 78.5q0 61 48.5 102t130.5 41q39 0 69 -9q28 -9 176 -9zM234 192q44 0 62 35t18 79q0 27 -6 50.5t-25 44t-49 20.5q-43 0 -61 -35.5
t-18 -79.5q0 -27 5.5 -50.5t24.5 -43.5t49 -20zM297 -12l-111 9q-39 4 -59.5 -16.5t-20.5 -50.5q0 -33 29 -56t99 -23q73 0 111.5 27.5t38.5 65.5q0 24 -18.5 32t-68.5 12z" />
    <glyph glyph-name="Gdotaccent" unicode="&#x120;" horiz-adv-x="713" 
d="M357 721q-27 0 -47 19t-20 45q0 27 20 45.5t47 18.5t46.5 -18.5t19.5 -45.5q0 -26 -20 -45t-46 -19zM401 -12q-167 0 -262.5 92t-95.5 235q0 144 97.5 237.5t254.5 93.5q123 0 200 -46q4 -91 7 -135h-38q-33 143 -183 143q-101 0 -154.5 -68.5t-53.5 -192.5
q0 -143 62.5 -232t170.5 -89q56 0 78 24t22 82v39q0 65 -21 85t-85 25v28h275v-28q-34 -5 -49 -20t-15 -50v-44q0 -71 15 -124q-28 -23 -90 -39t-135 -16z" />
    <glyph glyph-name="gdotaccent" unicode="&#x121;" horiz-adv-x="513" 
d="M258 531q-26 0 -46 19t-20 45q0 27 19.5 45.5t46.5 18.5t47 -18.5t20 -45.5q0 -26 -20 -45t-47 -19zM479 431v-63l-90 14q24 -33 24 -76q0 -62 -48 -102.5t-130 -40.5h-35q-45 0 -45 -35q0 -31 44 -35l105 -10q98 -8 131.5 -26.5t33.5 -65.5q0 -81 -74.5 -130.5
t-190.5 -50.5q-93 0 -139.5 32.5t-46.5 78.5q0 20 28.5 47.5t67.5 44.5q-59 23 -59 71q0 17 32.5 48.5t64.5 43.5q-46 17 -71.5 51.5t-25.5 78.5q0 61 48.5 102t130.5 41q39 0 69 -9q28 -9 176 -9zM234 192q44 0 62 35t18 79q0 27 -6 50.5t-25 44t-49 20.5q-43 0 -61 -35.5
t-18 -79.5q0 -27 5.5 -50.5t24.5 -43.5t49 -20zM297 -12l-111 9q-39 4 -59.5 -16.5t-20.5 -50.5q0 -33 29 -56t99 -23q73 0 111.5 27.5t38.5 65.5q0 24 -18.5 32t-68.5 12z" />
    <glyph glyph-name="uni0122" unicode="&#x122;" horiz-adv-x="713" 
d="M401 -12q-167 0 -262.5 92t-95.5 235q0 144 97.5 237.5t254.5 93.5q123 0 200 -46q4 -91 7 -135h-38q-33 143 -183 143q-101 0 -154.5 -68.5t-53.5 -192.5q0 -143 62.5 -232t170.5 -89q56 0 78 24t22 82v39q0 65 -21 85t-85 25v28h275v-28q-34 -5 -49 -20t-15 -50v-44
q0 -71 15 -124q-28 -23 -90 -39t-135 -16zM278 -332l-9 23q74 28 88 84q7 25 -20 40q-39 23 -39 61q0 28 19.5 47t48.5 19q30 0 51.5 -23.5t21.5 -64.5q0 -59 -43 -113.5t-118 -72.5z" />
    <glyph glyph-name="uni0123" unicode="&#x123;" horiz-adv-x="512" 
d="M224 522q-30 0 -51.5 23.5t-21.5 64.5q0 59 43 113.5t118 72.5l9 -23q-74 -28 -88 -84q-7 -25 20 -40q39 -23 39 -61q0 -28 -19.5 -47t-48.5 -19zM479 431v-63l-90 14q24 -33 24 -76q0 -62 -48 -102.5t-130 -40.5h-35q-45 0 -45 -35q0 -31 44 -35l105 -10
q98 -8 131.5 -26.5t33.5 -65.5q0 -81 -74.5 -130.5t-190.5 -50.5q-93 0 -139.5 32.5t-46.5 78.5q0 20 28.5 47.5t67.5 44.5q-59 23 -59 71q0 17 32.5 48.5t64.5 43.5q-46 17 -71.5 51.5t-25.5 78.5q0 61 48.5 102t130.5 41q39 0 69 -9q28 -9 176 -9zM234 192q44 0 62 35
t18 79q0 27 -6 50.5t-25 44t-49 20.5q-43 0 -61 -35.5t-18 -79.5q0 -27 5.5 -50.5t24.5 -43.5t49 -20zM297 -12l-111 9q-39 4 -59.5 -16.5t-20.5 -50.5q0 -33 29 -56t99 -23q73 0 111.5 27.5t38.5 65.5q0 24 -18.5 32t-68.5 12z" />
    <glyph glyph-name="Hbar" unicode="&#x126;" horiz-adv-x="720" 
d="M698 606q-51 -10 -64 -20q-19 -16 -19 -59v-424q0 -23 3.5 -37t17.5 -22.5t20.5 -10.5t33.5 -7q5 -1 8 -2v-24h-286v24q51 10 64 20q19 16 19 59v194h-270v-194q0 -23 3.5 -37t17.5 -22.5t20.5 -10.5t33.5 -7q5 -1 8 -2v-24h-285v24q51 10 64 20q19 16 19 59v424
q0 23 -3.5 37t-17.5 22.5t-20.5 10.5t-33.5 7q-5 1 -8 2v24h285v-24q-51 -10 -64 -20q-19 -16 -19 -59v-87h270v87q0 23 -3.5 37t-17.5 22.5t-20.5 10.5t-33.5 7q-5 1 -8 2v24h286v-24zM225 333h270v71h-270v-71z" />
    <glyph glyph-name="hbar" unicode="&#x127;" horiz-adv-x="587" 
d="M503 79q0 -30 14 -39t52 -16v-24h-234v24q42 9 51 20q10 12 10 35v209q0 93 -74 93q-61 0 -113 -61v-241q0 -16 3.5 -25.5t14.5 -15.5t17 -8t26 -6v-24h-241v24q49 9 61 20t12 35v411q-27 0 -79 -2l10 38q11 0 34 -1t35 -1v21q0 29 -14.5 43.5t-58.5 19.5v22
q94 15 160 57l20 -19v-145q78 0 156 3l-10 -38q-73 3 -146 3v-134q76 92 169 92q125 0 125 -154v-216z" />
    <glyph glyph-name="Imacron" unicode="&#x12a;" horiz-adv-x="331" 
d="M19 786l15 41h280l-15 -41h-280zM23 0v24q51 10 64 20q19 16 19 59v424q0 23 -3.5 37t-17.5 22.5t-20.5 10.5t-33.5 7q-5 1 -8 2v24h285v-24q-51 -10 -64 -20q-19 -16 -19 -59v-424q0 -23 3.5 -37t17.5 -22.5t20.5 -10.5t33.5 -7q5 -1 8 -2v-24h-285z" />
    <glyph glyph-name="imacron" unicode="&#x12b;" horiz-adv-x="286" 
d="M-9 596l15 41h280l-15 -41h-280zM23 0v24q27 5 37 8t19.5 14.5t9.5 32.5v234q0 30 -12.5 44t-53.5 19v22q88 16 152 58l21 -19v-358q0 -30 14 -39t52 -16v-24h-239z" />
    <glyph glyph-name="Iogonek" unicode="&#x12e;" horiz-adv-x="331" 
d="M308 606q-51 -10 -64 -20q-19 -16 -19 -59v-424q0 -23 3.5 -37t17.5 -22.5t20.5 -10.5t33.5 -7q5 -1 8 -2v-24h-82q-44 -26 -63.5 -48t-19.5 -50q0 -26 14.5 -41.5t38.5 -15.5q19 0 42 9v-19q-36 -34 -88 -34q-42 0 -69 20.5t-27 63.5q0 32 21 59l83 56h-135v24
q51 10 64 20q19 16 19 59v424q0 23 -3.5 37t-17.5 22.5t-20.5 10.5t-33.5 7q-5 1 -8 2v24h285v-24z" />
    <glyph glyph-name="iogonek" unicode="&#x12f;" horiz-adv-x="286" 
d="M138 531q-26 0 -46 19t-20 45q0 27 19.5 45.5t46.5 18.5t47 -18.5t20 -45.5q0 -26 -20 -45t-47 -19zM202 0q-44 -26 -63.5 -48t-19.5 -50q0 -26 14.5 -41.5t38.5 -15.5q19 0 42 9v-19q-36 -34 -88 -34q-42 0 -69 20.5t-27 63.5q0 32 21 59l83 56h-111v24q27 5 37 8
t19.5 14.5t9.5 32.5v234q0 30 -12.5 44t-53.5 19v22q88 16 152 58l21 -19v-358q0 -30 14 -39t52 -16v-24h-60z" />
    <glyph glyph-name="Idotaccent" unicode="&#x130;" horiz-adv-x="331" 
d="M166 721q-27 0 -47 19t-20 45q0 27 20 45.5t47 18.5t46.5 -18.5t19.5 -45.5q0 -26 -20 -45t-46 -19zM23 0v24q51 10 64 20q19 16 19 59v424q0 23 -3.5 37t-17.5 22.5t-20.5 10.5t-33.5 7q-5 1 -8 2v24h285v-24q-51 -10 -64 -20q-19 -16 -19 -59v-424q0 -23 3.5 -37
t17.5 -22.5t20.5 -10.5t33.5 -7q5 -1 8 -2v-24h-285z" />
    <glyph glyph-name="dotlessi" unicode="&#x131;" horiz-adv-x="285" 
d="M23 0v24q27 5 37 8t19.5 14.5t9.5 32.5v234q0 30 -12.5 44t-53.5 19v22q88 16 152 58l21 -19v-358q0 -30 14 -39t52 -16v-24h-239z" />
    <glyph glyph-name="IJ" unicode="&#x132;" horiz-adv-x="662" 
d="M23 0v24q51 10 64 20q19 16 19 59v424q0 23 -3.5 37t-17.5 22.5t-20.5 10.5t-33.5 7q-5 1 -8 2v24h285v-24q-51 -10 -64 -20q-19 -16 -19 -59v-424q0 -23 3.5 -37t17.5 -22.5t20.5 -10.5t33.5 -7q5 -1 8 -2v-24h-285zM333 -185q-9 14 0 29q68 24 86.5 56.5t18.5 111.5
v515q0 23 -3.5 37t-18 22.5t-20.5 10.5t-34 7q-2 1 -4 1.5t-4 0.5v24h286v-24q-51 -10 -64 -20q-19 -16 -19 -59v-525q0 -46 -18.5 -80t-53.5 -54.5t-70 -32t-82 -20.5z" />
    <glyph glyph-name="ij" unicode="&#x133;" horiz-adv-x="550" 
d="M137 541q-27 0 -47 19t-20 45q0 27 20 45.5t47 18.5t46.5 -18.5t19.5 -45.5q0 -26 -20 -45t-46 -19zM416 541q-26 0 -46 19t-20 45q0 27 19.5 45.5t46.5 18.5t47 -18.5t20 -45.5q0 -26 -20 -45t-47 -19zM23 0v24q27 5 37 8t19.5 14.5t9.5 32.5v234q0 30 -12.5 44
t-53.5 19v22q93 16 152 58l21 -19v-358q0 -30 14 -39t52 -16v-24h-239zM282 -185q-9 14 0 28q47 16 66.5 49.5t19.5 99.5v321q0 30 -12.5 44t-53.5 19v22q88 16 152 58l21 -19v-454q0 -42 -19 -74.5t-50 -51t-61.5 -28.5t-62.5 -14z" />
    <glyph glyph-name="uni0136" unicode="&#x136;" horiz-adv-x="697" 
d="M603 54q13 -18 29 -24t57 -6v-24h-204q0 25 -31 69l-168 247l-61 -61v-152q0 -23 3.5 -37t17.5 -22.5t20.5 -10.5t33.5 -7q5 -1 8 -2v-24h-285v24q51 10 64 20q19 16 19 59v424q0 23 -3.5 37t-17.5 22.5t-20.5 10.5t-33.5 7q-5 1 -8 2v24h285v-24q-51 -10 -64 -20
q-19 -16 -19 -59v-214l248 244q23 22 11.5 35.5t-52.5 13.5v24h219v-24q-45 0 -69 -11.5t-51 -37.5l-166 -164zM359 -58q30 0 51.5 -23.5t21.5 -64.5q0 -59 -43 -113.5t-118 -72.5l-9 23q74 28 88 84q7 25 -20 40q-39 23 -39 61q0 28 19.5 47t48.5 19z" />
    <glyph glyph-name="uni0137" unicode="&#x137;" horiz-adv-x="572" 
d="M488 60q13 -18 28.5 -24.5t52.5 -10.5v-25h-179q0 28 -18 55l-115 165l-54 -52v-89q0 -28 15.5 -38t50.5 -16q5 -1 7 -1v-24h-253v24q49 9 61 20t12 35v466q0 29 -14.5 43.5t-58.5 19.5v22q94 15 160 57l20 -19v-448l148 143q47 44 -34 52v25h204v-25q-42 -3 -67 -16
t-52 -39l-75 -72zM294 -58q30 0 51 -23.5t21 -64.5q0 -59 -43 -113.5t-118 -72.5l-9 23q76 29 89 84q6 25 -20 40q-39 23 -39 61q0 28 19.5 47t48.5 19z" />
    <glyph glyph-name="Lacute" unicode="&#x139;" horiz-adv-x="590" 
d="M165 698l-27 17q25 88 69 150q23 0 47.5 -18.5t32.5 -39.5q-56 -39 -122 -109zM23 0v24q51 10 64 20q19 16 19 59v424q0 23 -3.5 37t-17.5 22.5t-20.5 10.5t-33.5 7q-5 1 -8 2v24h291v-24q-53 -10 -67 -20q-22 -16 -22 -59v-412q0 -50 17.5 -63t76.5 -13h66q60 0 93 25
t60 94h30l-41 -158h-504z" />
    <glyph glyph-name="lacute" unicode="&#x13a;" horiz-adv-x="300" 
d="M129 702l-26 17q25 88 69 150q22 0 46.5 -18.5t32.5 -39.5q-56 -39 -122 -109zM23 0v24q49 9 61 20t12 35v466q0 29 -14.5 43.5t-58.5 19.5v22q94 15 160 57l20 -19v-589q0 -28 15.5 -38t50.5 -16q5 -1 7 -1v-24h-253z" />
    <glyph glyph-name="uni013B" unicode="&#x13b;" horiz-adv-x="590" 
d="M23 0v24q51 10 64 20q19 16 19 59v424q0 23 -3.5 37t-17.5 22.5t-20.5 10.5t-33.5 7q-5 1 -8 2v24h291v-24q-53 -10 -67 -20q-22 -16 -22 -59v-412q0 -50 17.5 -63t76.5 -13h66q60 0 93 25t60 94h30l-41 -158h-504zM219 -332l-9 23q74 28 88 84q7 25 -20 40
q-39 23 -39 61q0 28 19.5 47t48.5 19q30 0 51.5 -23.5t21.5 -64.5q0 -59 -43 -113.5t-118 -72.5z" />
    <glyph glyph-name="uni013C" unicode="&#x13c;" horiz-adv-x="300" 
d="M23 0v24q49 9 61 20t12 35v466q0 29 -14.5 43.5t-58.5 19.5v22q94 15 160 57l20 -19v-589q0 -28 15.5 -38t50.5 -16q5 -1 7 -1v-24h-253zM71 -332l-9 23q76 29 89 84q6 25 -20 40q-39 23 -39 61q0 28 19.5 47t48.5 19q30 0 51 -23.5t21 -64.5q0 -59 -43 -113.5
t-118 -72.5z" />
    <glyph glyph-name="Lcaron" unicode="&#x13d;" 
d="M23 0v24q51 10 64 20q19 16 19 59v424q0 23 -3.5 37t-17.5 22.5t-20.5 10.5t-33.5 7q-5 1 -8 2v24h291v-24q-53 -10 -67 -20q-22 -16 -22 -59v-412q0 -50 17.5 -63t76.5 -13h66q60 0 93 25t60 94h30l-41 -158h-504zM365 356l-9 23q74 28 88 84q7 25 -20 40q-39 23 -39 61
q0 28 19.5 47t48.5 19q30 0 51.5 -23.5t21.5 -64.5q0 -59 -43 -113.5t-118 -72.5z" />
    <glyph glyph-name="lcaron" unicode="&#x13e;" horiz-adv-x="298" 
d="M23 0v24q49 9 61 20t12 35v466q0 29 -14.5 43.5t-58.5 19.5v22q94 15 160 57l20 -19v-589q0 -28 15.5 -38t50.5 -16q5 -1 7 -1v-24h-253zM300 494l-32 1q-12 99 -35 160q19 12 49.5 12.5t49.5 -12.5q0 -75 -32 -161z" />
    <glyph glyph-name="Ldot" unicode="&#x13f;" 
d="M23 0v24q51 10 64 20q19 16 19 59v424q0 23 -3.5 37t-17.5 22.5t-20.5 10.5t-33.5 7q-5 1 -8 2v24h291v-24q-53 -10 -67 -20q-22 -16 -22 -59v-412q0 -50 17.5 -63t76.5 -13h66q60 0 93 25t60 94h30l-41 -158h-504zM411 244q-28 0 -48 20t-20 48q0 27 20 46.5t48 19.5
t48 -19.5t20 -46.5q0 -28 -20 -48t-48 -20z" />
    <glyph glyph-name="ldot" unicode="&#x140;" horiz-adv-x="365" 
d="M23 0v24q49 9 61 20t12 35v466q0 29 -14.5 43.5t-58.5 19.5v22q94 15 160 57l20 -19v-589q0 -28 15.5 -38t50.5 -16q5 -1 7 -1v-24h-253zM326 271q-28 0 -48 19.5t-20 47.5t20 47t48 19q27 0 47 -19.5t20 -46.5q0 -28 -20 -47.5t-47 -19.5z" />
    <glyph glyph-name="Lslash" unicode="&#x141;" horiz-adv-x="597" 
d="M540 158h30l-41 -158h-504v24q51 10 64 20q19 16 19 59v199q-28 -10 -84 -32v45q56 16 84 25v187q0 23 -3.5 37t-17.5 22.5t-20.5 10.5t-33.5 7q-5 1 -8 2v24h291v-24q-53 -10 -67 -20q-22 -16 -22 -59v-148q71 24 159 59v-45q-53 -15 -159 -49v-229q0 -50 17.5 -63
t76.5 -13h66q60 0 93 25t60 94z" />
    <glyph glyph-name="lslash" unicode="&#x142;" horiz-adv-x="305" 
d="M209 79q0 -28 15.5 -38t50.5 -16q5 -1 7 -1v-24h-253v24q49 9 61 20t12 35v224q-37 -14 -79 -32v43l79 24v207q0 29 -14.5 43.5t-58.5 19.5v22q94 15 160 57l20 -19v-291q38 14 67 27v-43q-29 -8 -67 -20v-262z" />
    <glyph glyph-name="Nacute" unicode="&#x143;" horiz-adv-x="698" 
d="M468 807q-56 -39 -122 -109l-27 17q25 88 69 150q23 0 47.5 -18.5t32.5 -39.5zM458 630h217v-24q-52 -10 -65 -20q-20 -17 -20 -59v-527h-50l-390 533v-430q0 -23 4 -37t19 -22.5t22 -10.5t36 -7q6 -1 9 -2v-24h-217v24q52 10 65 20q20 16 20 59v424q0 23 -4 37
t-17.5 22.5t-21.5 10.5t-33 7q-2 1 -3 1t-3 0.5t-3 0.5v24h195l330 -450v347q0 23 -4 37t-19 22.5t-22 10.5t-36 7q-6 1 -9 2v24z" />
    <glyph glyph-name="nacute" unicode="&#x144;" horiz-adv-x="570" 
d="M279 508l-26 17q25 88 69 150q22 0 46.5 -18.5t32.5 -39.5q-56 -39 -122 -109zM18 0v24q27 5 37 8t19.5 14.5t9.5 32.5v234q0 30 -12.5 44t-53.5 19v22q92 14 160 58l20 -19l-29 -84h19q78 96 172 96q125 0 125 -154v-216q0 -30 14 -39t52 -16v-24h-234v24q42 9 51 20
q10 12 10 35v208q0 94 -74 94q-63 0 -113 -61v-241q0 -16 3.5 -25.5t14.5 -15.5t17 -8t26 -6v-24h-234z" />
    <glyph glyph-name="uni0145" unicode="&#x145;" horiz-adv-x="698" 
d="M458 630h217v-24q-52 -10 -65 -20q-20 -17 -20 -59v-527h-50l-390 533v-430q0 -23 4 -37t19 -22.5t22 -10.5t36 -7q6 -1 9 -2v-24h-217v24q52 10 65 20q20 16 20 59v424q0 23 -4 37t-17.5 22.5t-21.5 10.5t-33 7q-2 1 -3 1t-3 0.5t-3 0.5v24h195l330 -450v347q0 23 -4 37
t-19 22.5t-22 10.5t-36 7q-6 1 -9 2v24zM359 -58q30 0 51.5 -23.5t21.5 -64.5q0 -59 -43 -113.5t-118 -72.5l-9 23q74 28 88 84q7 25 -20 40q-39 23 -39 61q0 28 19.5 47t48.5 19z" />
    <glyph glyph-name="uni0146" unicode="&#x146;" horiz-adv-x="570" 
d="M18 0v24q27 5 37 8t19.5 14.5t9.5 32.5v234q0 30 -12.5 44t-53.5 19v22q92 14 160 58l20 -19l-29 -84h19q78 96 172 96q125 0 125 -154v-216q0 -30 14 -39t52 -16v-24h-234v24q42 9 51 20q10 12 10 35v208q0 94 -74 94q-63 0 -113 -61v-241q0 -16 3.5 -25.5t14.5 -15.5
t17 -8t26 -6v-24h-234zM204 -332l-9 23q74 28 88 84q7 25 -20 40q-39 23 -39 61q0 28 19.5 47t48.5 19q30 0 51.5 -23.5t21.5 -64.5q0 -59 -43 -113.5t-118 -72.5z" />
    <glyph glyph-name="Ncaron" unicode="&#x147;" horiz-adv-x="698" 
d="M487 864l-139 -152l-140 151l14 14l126 -88l126 88zM458 630h217v-24q-52 -10 -65 -20q-20 -17 -20 -59v-527h-50l-390 533v-430q0 -23 4 -37t19 -22.5t22 -10.5t36 -7q6 -1 9 -2v-24h-217v24q52 10 65 20q20 16 20 59v424q0 23 -4 37t-17.5 22.5t-21.5 10.5t-33 7
q-2 1 -3 1t-3 0.5t-3 0.5v24h195l330 -450v347q0 23 -4 37t-19 22.5t-22 10.5t-36 7q-6 1 -9 2v24z" />
    <glyph glyph-name="ncaron" unicode="&#x148;" horiz-adv-x="570" 
d="M281 522l-140 151l14 14l126 -88l126 88l13 -13zM18 0v24q27 5 37 8t19.5 14.5t9.5 32.5v234q0 30 -12.5 44t-53.5 19v22q92 14 160 58l20 -19l-29 -84h19q78 96 172 96q125 0 125 -154v-216q0 -30 14 -39t52 -16v-24h-234v24q42 9 51 20q10 12 10 35v208q0 94 -74 94
q-63 0 -113 -61v-241q0 -16 3.5 -25.5t14.5 -15.5t17 -8t26 -6v-24h-234z" />
    <glyph glyph-name="Eng" unicode="&#x14a;" horiz-adv-x="698" 
d="M458 630h217v-24q-52 -10 -65 -20q-20 -17 -20 -59v-399h2v-126q0 -46 -19 -80t-54 -55t-70 -32t-82 -20q-10 15 0 29q68 24 86.5 56.5t18.5 111.5v81l-322 440v-430q0 -23 4 -37t19 -22.5t22 -10.5t36 -7q6 -1 9 -2v-24h-217v24q52 10 65 20q20 16 20 59v424q0 23 -4 37
t-17.5 22.5t-21.5 10.5t-33 7q-2 1 -3 1t-3 0.5t-3 0.5v24h195l330 -450v347q0 23 -4 37t-19 22.5t-22 10.5t-36 7q-6 1 -9 2v24z" />
    <glyph glyph-name="eng" unicode="&#x14b;" horiz-adv-x="538" 
d="M360 449q125 0 125 -154v-312q0 -42 -19 -74.5t-50 -51t-61.5 -28.5t-62.5 -14q-9 14 0 28q47 16 66.5 49.5t19.5 99.5v295q0 94 -74 94q-63 0 -113 -61v-241q0 -16 3.5 -25.5t14.5 -15.5t17 -8t26 -6v-24h-234v24q27 5 37 8t19.5 14.5t9.5 32.5v234q0 30 -12.5 44
t-53.5 19v22q92 14 160 58l20 -19l-29 -84h19q78 96 172 96z" />
    <glyph glyph-name="Omacron" unicode="&#x14c;" horiz-adv-x="728" 
d="M217 786l15 41h280l-15 -41h-280zM362 -12q-139 0 -229 92.5t-90 233.5q0 142 91 237t232 95q139 0 229.5 -92.5t90.5 -234.5q0 -141 -91.5 -236t-232.5 -95zM379 26q81 0 130 69.5t49 193.5q0 142 -58.5 230.5t-150.5 88.5q-82 0 -130.5 -70t-48.5 -194
q0 -141 58.5 -229.5t150.5 -88.5z" />
    <glyph glyph-name="omacron" unicode="&#x14d;" horiz-adv-x="541" 
d="M124 596l15 41h280l-15 -41h-280zM265 -9q-98 0 -165 61.5t-67 164.5q0 106 71.5 169t171.5 63q97 0 164.5 -62t67.5 -164q0 -106 -71.5 -169t-171.5 -63zM278 26q49 0 81.5 45t32.5 130q0 88 -35 151t-95 63q-48 0 -81 -45.5t-33 -130.5q0 -87 35.5 -150t94.5 -63z" />
    <glyph glyph-name="Ohungarumlaut" unicode="&#x150;" horiz-adv-x="728" 
d="M256 698l-27 17q25 88 69 150q23 0 47.5 -18.5t32.5 -39.5q-56 -39 -122 -109zM420 698l-27 17q25 88 69 150q23 0 47.5 -18.5t32.5 -39.5q-56 -39 -122 -109zM362 -12q-139 0 -229 92.5t-90 233.5q0 142 91 237t232 95q139 0 229.5 -92.5t90.5 -234.5q0 -141 -91.5 -236
t-232.5 -95zM379 26q81 0 130 69.5t49 193.5q0 142 -58.5 230.5t-150.5 88.5q-82 0 -130.5 -70t-48.5 -194q0 -141 58.5 -229.5t150.5 -88.5z" />
    <glyph glyph-name="ohungarumlaut" unicode="&#x151;" horiz-adv-x="541" 
d="M162 508l-26 17q25 88 69 150q22 0 46.5 -18.5t32.5 -39.5q-56 -39 -122 -109zM326 508l-26 17q25 88 69 150q22 0 46.5 -18.5t32.5 -39.5q-56 -39 -122 -109zM265 -9q-98 0 -165 61.5t-67 164.5q0 106 71.5 169t171.5 63q97 0 164.5 -62t67.5 -164q0 -106 -71.5 -169
t-171.5 -63zM278 26q49 0 81.5 45t32.5 130q0 88 -35 151t-95 63q-48 0 -81 -45.5t-33 -130.5q0 -87 35.5 -150t94.5 -63z" />
    <glyph glyph-name="OE" unicode="&#x152;" horiz-adv-x="1017" 
d="M960 152h29l-41 -152h-489q-45 -12 -96 -12q-139 0 -229.5 92.5t-90.5 233.5q0 142 91.5 237t232.5 95q53 0 104 -16h475l9 -144h-29q-7 57 -27 81.5t-71 24.5h-84q-59 0 -76.5 -13t-17.5 -63v-180h72q86 0 110 17t29 67h23v-204h-23q-5 50 -29 67t-110 17h-72v-186
q0 -50 17.5 -63t76.5 -13h63q59 0 92 24.5t61 89.5zM171 344q0 -141 58.5 -229.5t150.5 -88.5q104 0 151 107v327q-20 70 -67.5 109t-113.5 39q-81 0 -130 -70t-49 -194z" />
    <glyph glyph-name="oe" unicode="&#x153;" horiz-adv-x="853" 
d="M679 60q80 0 116 51l18 -12q-18 -51 -66 -79t-115 -28q-115 0 -182 76q-69 -77 -185 -77q-98 0 -165 61.5t-67 164.5q0 106 71.5 169t171.5 63q111 0 177 -74q66 75 174 75q53 0 95.5 -20.5t63 -52t28.5 -68t-7 -69.5h-298q5 -81 51 -130.5t119 -49.5zM278 26
q49 0 81.5 45t32.5 130q0 88 -35 151t-95 63q-48 0 -81 -45.5t-33 -130.5q0 -87 35.5 -150t94.5 -63zM617 415q-44 0 -74.5 -36t-34.5 -104h198q9 53 -14.5 96.5t-74.5 43.5z" />
    <glyph glyph-name="Racute" unicode="&#x154;" horiz-adv-x="683" 
d="M453 807q-56 -39 -122 -109l-27 17q25 88 69 150q23 0 47.5 -18.5t32.5 -39.5zM535 115q66 -110 135 -90v-25q-32 -16 -77 -16q-62 0 -101.5 23.5t-71.5 75.5l-68 110q-28 46 -55 63t-72 19v-172q0 -23 3.5 -37t17.5 -22.5t20.5 -10.5t33.5 -7q5 -1 8 -2v-24h-285v24
q51 10 64 20q19 16 19 59v424q0 23 -3.5 37t-17.5 22.5t-20.5 10.5t-33.5 7q-5 1 -8 2v24h270q282 0 282 -174q0 -146 -195 -174q59 -11 99 -76zM299 592q-44 0 -59 -11t-15 -35v-234h59q92 0 128.5 36.5t36.5 99.5q0 65 -35 104.5t-115 39.5z" />
    <glyph glyph-name="racute" unicode="&#x155;" horiz-adv-x="408" 
d="M199 508l-27 17q25 88 69 150q23 0 47.5 -18.5t32.5 -39.5q-56 -39 -122 -109zM18 0v24q23 4 32 6t20.5 7.5t15 15.5t3.5 26v235q0 30 -13.5 44t-57.5 18v22q98 15 167 58l20 -19l-25 -120h25q31 70 63.5 104.5t78.5 34.5q21 0 40 -8v-104q-33 14 -64 14q-60 0 -93.5 -40
t-33.5 -100v-139q0 -30 15 -39t59 -16v-24h-252z" />
    <glyph glyph-name="uni0156" unicode="&#x156;" horiz-adv-x="683" 
d="M535 115q66 -110 135 -90v-25q-32 -16 -77 -16q-62 0 -101.5 23.5t-71.5 75.5l-68 110q-28 46 -55 63t-72 19v-172q0 -23 3.5 -37t17.5 -22.5t20.5 -10.5t33.5 -7q5 -1 8 -2v-24h-285v24q51 10 64 20q19 16 19 59v424q0 23 -3.5 37t-17.5 22.5t-20.5 10.5t-33.5 7
q-5 1 -8 2v24h270q282 0 282 -174q0 -146 -195 -174q59 -11 99 -76zM299 592q-44 0 -59 -11t-15 -35v-234h59q92 0 128.5 36.5t36.5 99.5q0 65 -35 104.5t-115 39.5zM351 -58q30 0 51.5 -23.5t21.5 -64.5q0 -59 -43 -113.5t-118 -72.5l-9 23q74 28 88 84q7 25 -20 40
q-39 23 -39 61q0 28 19.5 47t48.5 19z" />
    <glyph glyph-name="uni0157" unicode="&#x157;" horiz-adv-x="408" 
d="M18 0v24q23 4 32 6t20.5 7.5t15 15.5t3.5 26v235q0 30 -13.5 44t-57.5 18v22q98 15 167 58l20 -19l-25 -120h25q31 70 63.5 104.5t78.5 34.5q21 0 40 -8v-104q-33 14 -64 14q-60 0 -93.5 -40t-33.5 -100v-139q0 -30 15 -39t59 -16v-24h-252zM66 -332l-9 23q74 28 88 84
q7 25 -20 40q-39 23 -39 61q0 28 19.5 47t48.5 19q30 0 51.5 -23.5t21.5 -64.5q0 -59 -43 -113.5t-118 -72.5z" />
    <glyph glyph-name="Rcaron" unicode="&#x158;" horiz-adv-x="683" 
d="M472 864l-139 -152l-140 151l14 14l126 -88l126 88zM535 115q66 -110 135 -90v-25q-32 -16 -77 -16q-62 0 -101.5 23.5t-71.5 75.5l-68 110q-28 46 -55 63t-72 19v-172q0 -23 3.5 -37t17.5 -22.5t20.5 -10.5t33.5 -7q5 -1 8 -2v-24h-285v24q51 10 64 20q19 16 19 59v424
q0 23 -3.5 37t-17.5 22.5t-20.5 10.5t-33.5 7q-5 1 -8 2v24h270q282 0 282 -174q0 -146 -195 -174q59 -11 99 -76zM299 592q-44 0 -59 -11t-15 -35v-234h59q92 0 128.5 36.5t36.5 99.5q0 65 -35 104.5t-115 39.5z" />
    <glyph glyph-name="rcaron" unicode="&#x159;" horiz-adv-x="408" 
d="M200 522l-139 151l13 14l126 -88l126 88l14 -13zM18 0v24q23 4 32 6t20.5 7.5t15 15.5t3.5 26v235q0 30 -13.5 44t-57.5 18v22q98 15 167 58l20 -19l-25 -120h25q31 70 63.5 104.5t78.5 34.5q21 0 40 -8v-104q-33 14 -64 14q-60 0 -93.5 -40t-33.5 -100v-139
q0 -30 15 -39t59 -16v-24h-252z" />
    <glyph glyph-name="Sacute" unicode="&#x15a;" horiz-adv-x="527" 
d="M257 698l-27 17q25 88 69 150q23 0 47.5 -18.5t32.5 -39.5q-56 -39 -122 -109zM255 -12q-111 0 -204 63l-8 129h27q19 -71 66 -114t113 -43q55 0 89.5 32.5t34.5 81.5q0 47 -33.5 79t-103.5 65q-39 18 -66 34t-56.5 40.5t-44.5 56.5t-15 71q0 73 55 118t156 45
q21 0 40.5 -2t37 -7t29 -8t26 -11t19.5 -10.5t19 -11.5l13 -9l3 -131h-25q-41 155 -158 155q-52 0 -79.5 -27t-27.5 -67q0 -38 29 -67t98 -61q33 -15 52 -24.5t51 -31t50 -41.5t32.5 -52t14.5 -67q0 -83 -67 -134t-167 -51z" />
    <glyph glyph-name="sacute" unicode="&#x15b;" horiz-adv-x="404" 
d="M195 508l-26 17q25 88 69 150q22 0 46.5 -18.5t32.5 -39.5q-56 -39 -122 -109zM183 -9q-86 0 -148 40l-2 93h35q34 -99 125 -99q41 0 62.5 18t21.5 48q0 33 -23.5 49.5t-80.5 37.5q-61 22 -100 54.5t-39 88.5q0 59 46 93.5t124 34.5q71 0 132 -38l-1 -92h-34
q-27 97 -107 97q-34 0 -53.5 -16.5t-19.5 -42.5q0 -27 22 -45.5t68 -35.5q30 -11 43 -16t40 -19.5t40 -28t24.5 -36t11.5 -48.5q0 -62 -52 -99.5t-135 -37.5z" />
    <glyph glyph-name="Scedilla" unicode="&#x15e;" horiz-adv-x="527" 
d="M489 173q0 -76 -57 -126t-145 -58l-19 -36q44 0 75.5 -21.5t31.5 -58.5q0 -39 -40.5 -62t-122.5 -23l5 24q46 0 68 13.5t22 32.5q0 44 -111 44l44 86q-101 4 -189 63l-8 129h27q19 -71 66 -114t113 -43q55 0 89.5 32.5t34.5 81.5q0 47 -33.5 79t-103.5 65q-39 18 -66 34
t-56.5 40.5t-44.5 56.5t-15 71q0 73 55 118t156 45q21 0 40.5 -2t37 -7t29 -8t26 -11t19.5 -10.5t19 -11.5l13 -9l3 -131h-25q-41 155 -158 155q-52 0 -79.5 -27t-27.5 -67q0 -38 29 -67t98 -61q33 -15 52 -24.5t51 -31t50 -41.5t32.5 -52t14.5 -67z" />
    <glyph glyph-name="scedilla" unicode="&#x15f;" horiz-adv-x="404" 
d="M370 128q0 -54 -40.5 -90t-106.5 -45l-21 -40q44 0 75.5 -21.5t31.5 -58.5q0 -39 -40.5 -62t-122.5 -23l5 24q46 0 68 13.5t22 32.5q0 44 -111 44l45 89q-85 2 -140 40l-2 93h35q34 -99 125 -99q41 0 62.5 18t21.5 48q0 33 -23.5 49.5t-80.5 37.5q-61 22 -100 54.5
t-39 88.5q0 59 46 93.5t124 34.5q71 0 132 -38l-1 -92h-34q-27 97 -107 97q-34 0 -53.5 -16.5t-19.5 -42.5q0 -27 22 -45.5t68 -35.5q30 -11 43 -16t40 -19.5t40 -28t24.5 -36t11.5 -48.5z" />
    <glyph glyph-name="Scaron" unicode="&#x160;" horiz-adv-x="527" 
d="M258 712l-140 151l14 14l126 -88l126 88l13 -13zM255 -12q-111 0 -204 63l-8 129h27q19 -71 66 -114t113 -43q55 0 89.5 32.5t34.5 81.5q0 47 -33.5 79t-103.5 65q-39 18 -66 34t-56.5 40.5t-44.5 56.5t-15 71q0 73 55 118t156 45q21 0 40.5 -2t37 -7t29 -8t26 -11
t19.5 -10.5t19 -11.5l13 -9l3 -131h-25q-41 155 -158 155q-52 0 -79.5 -27t-27.5 -67q0 -38 29 -67t98 -61q33 -15 52 -24.5t51 -31t50 -41.5t32.5 -52t14.5 -67q0 -83 -67 -134t-167 -51z" />
    <glyph glyph-name="scaron" unicode="&#x161;" horiz-adv-x="404" 
d="M197 522l-140 151l14 14l126 -88l126 88l13 -13zM183 -9q-86 0 -148 40l-2 93h35q34 -99 125 -99q41 0 62.5 18t21.5 48q0 33 -23.5 49.5t-80.5 37.5q-61 22 -100 54.5t-39 88.5q0 59 46 93.5t124 34.5q71 0 132 -38l-1 -92h-34q-27 97 -107 97q-34 0 -53.5 -16.5
t-19.5 -42.5q0 -27 22 -45.5t68 -35.5q30 -11 43 -16t40 -19.5t40 -28t24.5 -36t11.5 -48.5q0 -62 -52 -99.5t-135 -37.5z" />
    <glyph glyph-name="uni0162" unicode="&#x162;" horiz-adv-x="605" 
d="M574 640l8 -177h-23q-11 70 -41 101.5t-106 31.5h-50v-493q0 -20 5 -33.5t9.5 -20.5t21 -12.5t24 -7t35.5 -5.5v-24h-127l-23 -47q43 0 75 -21.5t32 -58.5q0 -39 -40.5 -62t-122.5 -23l5 24q45 0 67 13.5t22 32.5q0 44 -110 44l50 98h-137v24q60 10 75 20q20 16 20 59
v493h-48q-78 0 -108 -31t-41 -102h-23l8 177l53 -10h437z" />
    <glyph glyph-name="uni0163" unicode="&#x163;" horiz-adv-x="334" 
d="M333 52q-54 -29 -132 -56l-22 -43q44 0 75.5 -21.5t31.5 -58.5q0 -39 -40.5 -62t-122.5 -23l5 24q46 0 68 13.5t22 32.5q0 44 -111 44l47 92q-26 9 -42 31t-16 48v328h-78v26q91 35 155 105h31v-96l127 13q-5 -21 -5 -48h-122v-287q0 -25 12.5 -38t33.5 -13.5t41 3.5
t42 12v-26z" />
    <glyph glyph-name="Tcaron" unicode="&#x164;" horiz-adv-x="604" 
d="M441 855l-140 -152l-139 151l13 14l126 -88l126 88zM574 640l8 -177h-23q-11 70 -41 101.5t-106 31.5h-50v-493q0 -20 5 -33.5t9.5 -20.5t21 -12.5t24 -7t35.5 -5.5v-24h-309v24q60 10 75 20q20 16 20 59v493h-48q-78 0 -108 -31t-41 -102h-23l8 177l53 -10h437z" />
    <glyph glyph-name="tcaron" unicode="&#x165;" horiz-adv-x="350" 
d="M253 481q-20 0 -20 22v109q0 48 40 48q23 0 33.5 -12.5t3.5 -36.5l-31 -108q-6 -22 -26 -22zM204 114q0 -25 12.5 -38t33.5 -13.5t41 3.5t42 12v-26q-71 -39 -152 -62q-36 0 -60.5 25t-24.5 58v328h-78v26q91 35 155 105h31v-96l127 13q-5 -21 -5 -48h-122v-287z" />
    <glyph glyph-name="Tbar" unicode="&#x166;" horiz-adv-x="604" 
d="M574 640l8 -177h-23q-11 70 -41 101.5t-106 31.5h-50v-269l112 3l-10 -38l-102 3v-192q0 -20 5 -33.5t9.5 -20.5t21 -12.5t24 -7t35.5 -5.5v-24h-309v24q60 10 75 20q20 16 20 59v192l-112 -3l10 38l102 -3v269h-48q-78 0 -108 -31t-41 -102h-23l8 177l53 -10h437z" />
    <glyph glyph-name="tbar" unicode="&#x167;" horiz-adv-x="352" 
d="M206 114q0 -25 12.5 -38t33.5 -13.5t41 3.5t42 12v-26q-71 -39 -152 -62q-36 0 -60.5 25t-24.5 58v176h-79l10 38h69v114h-78v26q91 35 155 105h31v-96l127 13q-5 -21 -5 -48h-122v-114h120l-10 -38h-110v-135z" />
    <glyph glyph-name="Umacron" unicode="&#x16a;" horiz-adv-x="715" 
d="M211 786l15 41h280l-15 -41h-280zM359 -12q-48 0 -88 10.5t-79.5 37.5t-62.5 82t-23 134v275q0 23 -3.5 37t-17.5 22.5t-20.5 10.5t-33.5 7q-5 1 -8 2v24h286v-24q-51 -10 -64 -20q-19 -16 -19 -59v-289q0 -206 164 -206q30 0 57 7.5t55 26.5t44.5 59.5t16.5 98.5v303
q0 23 -4 37t-17.5 22.5t-21.5 10.5t-33 7q-2 1 -3 1t-3 0.5t-3 0.5v24h218v-24q-56 -10 -69 -20q-21 -16 -21 -59v-283q0 -73 -20.5 -125t-57 -79.5t-78 -39.5t-91.5 -12z" />
    <glyph glyph-name="umacron" unicode="&#x16b;" horiz-adv-x="566" 
d="M138 596l15 41h280l-15 -41h-280zM210 -9q-131 0 -131 154v226q0 18 -8.5 27.5t-19 12.5t-33.5 7v22q105 -5 168 6v-296q0 -90 77 -90q58 0 111 51v260q0 18 -8.5 27.5t-19 12.5t-33.5 7v22q106 -5 169 6v-356q0 -30 12.5 -44.5t53.5 -21.5v-24h-161l6 79h-14
q-40 -42 -79 -65t-90 -23z" />
    <glyph glyph-name="ubreve" unicode="&#x16d;" horiz-adv-x="566" 
d="M285 544q-67 0 -105.5 37t-38.5 98h26q14 -66 118 -66q103 0 118 66h25q0 -61 -38 -98t-105 -37zM210 -9q-131 0 -131 154v226q0 18 -8.5 27.5t-19 12.5t-33.5 7v22q105 -5 168 6v-296q0 -90 77 -90q58 0 111 51v260q0 18 -8.5 27.5t-19 12.5t-33.5 7v22q106 -5 169 6
v-356q0 -30 12.5 -44.5t53.5 -21.5v-24h-161l6 79h-14q-40 -42 -79 -65t-90 -23z" />
    <glyph glyph-name="Uring" unicode="&#x16e;" horiz-adv-x="715" 
d="M358 721q-39 0 -65.5 26t-26.5 64t26.5 64.5t65.5 26.5t65.5 -26.5t26.5 -64.5t-26.5 -64t-65.5 -26zM358 767q19 0 32 12.5t13 31.5t-13 32t-32 13q-20 0 -32.5 -13t-12.5 -32t12.5 -31.5t32.5 -12.5zM359 -12q-48 0 -88 10.5t-79.5 37.5t-62.5 82t-23 134v275
q0 23 -3.5 37t-17.5 22.5t-20.5 10.5t-33.5 7q-5 1 -8 2v24h286v-24q-51 -10 -64 -20q-19 -16 -19 -59v-289q0 -206 164 -206q30 0 57 7.5t55 26.5t44.5 59.5t16.5 98.5v303q0 23 -4 37t-17.5 22.5t-21.5 10.5t-33 7q-2 1 -3 1t-3 0.5t-3 0.5v24h218v-24q-56 -10 -69 -20
q-21 -16 -21 -59v-283q0 -73 -20.5 -125t-57 -79.5t-78 -39.5t-91.5 -12z" />
    <glyph glyph-name="uring" unicode="&#x16f;" horiz-adv-x="566" 
d="M285 531q-39 0 -65.5 26t-26.5 64t26.5 64.5t65.5 26.5t65.5 -26.5t26.5 -64.5t-26.5 -64t-65.5 -26zM285 577q19 0 32 12.5t13 31.5t-13 32t-32 13q-20 0 -32.5 -13t-12.5 -32t12.5 -31.5t32.5 -12.5zM210 -9q-131 0 -131 154v226q0 18 -8.5 27.5t-19 12.5t-33.5 7v22
q105 -5 168 6v-296q0 -90 77 -90q58 0 111 51v260q0 18 -8.5 27.5t-19 12.5t-33.5 7v22q106 -5 169 6v-356q0 -30 12.5 -44.5t53.5 -21.5v-24h-161l6 79h-14q-40 -42 -79 -65t-90 -23z" />
    <glyph glyph-name="Uhungarumlaut" unicode="&#x170;" horiz-adv-x="715" 
d="M249 698l-27 17q25 88 69 150q23 0 47.5 -18.5t32.5 -39.5q-56 -39 -122 -109zM413 698l-27 17q25 88 69 150q23 0 47.5 -18.5t32.5 -39.5q-56 -39 -122 -109zM359 -12q-48 0 -88 10.5t-79.5 37.5t-62.5 82t-23 134v275q0 23 -3.5 37t-17.5 22.5t-20.5 10.5t-33.5 7
q-5 1 -8 2v24h286v-24q-51 -10 -64 -20q-19 -16 -19 -59v-289q0 -206 164 -206q30 0 57 7.5t55 26.5t44.5 59.5t16.5 98.5v303q0 23 -4 37t-17.5 22.5t-21.5 10.5t-33 7q-2 1 -3 1t-3 0.5t-3 0.5v24h218v-24q-56 -10 -69 -20q-21 -16 -21 -59v-283q0 -73 -20.5 -125
t-57 -79.5t-78 -39.5t-91.5 -12z" />
    <glyph glyph-name="uhungarumlaut" unicode="&#x171;" horiz-adv-x="566" 
d="M176 508l-27 17q25 88 69 150q23 0 47.5 -18.5t32.5 -39.5q-56 -39 -122 -109zM340 508l-27 17q25 88 69 150q23 0 47.5 -18.5t32.5 -39.5q-56 -39 -122 -109zM210 -9q-131 0 -131 154v226q0 18 -8.5 27.5t-19 12.5t-33.5 7v22q105 -5 168 6v-296q0 -90 77 -90
q58 0 111 51v260q0 18 -8.5 27.5t-19 12.5t-33.5 7v22q106 -5 169 6v-356q0 -30 12.5 -44.5t53.5 -21.5v-24h-161l6 79h-14q-40 -42 -79 -65t-90 -23z" />
    <glyph glyph-name="Uogonek" unicode="&#x172;" horiz-adv-x="706" 
d="M478 630h218v-24q-56 -10 -69 -20q-21 -16 -21 -59v-283q0 -209 -168 -247q-79 -34 -79 -95q0 -26 14.5 -41.5t38.5 -15.5q19 0 42 9v-19q-36 -34 -88 -34q-42 0 -69 20.5t-27 63.5q0 32 21 59l71 44h-3q-48 0 -88 10.5t-79.5 37.5t-62.5 82t-23 134v275q0 23 -3.5 37
t-17.5 22.5t-20.5 10.5t-33.5 7q-5 1 -8 2v24h286v-24q-51 -10 -64 -20q-19 -16 -19 -59v-289q0 -206 164 -206q30 0 52 6q121 28 121 186v303q0 23 -4 37t-17.5 22.5t-21.5 10.5t-33 7q-2 1 -3 1t-3 0.5t-3 0.5v24z" />
    <glyph glyph-name="uogonek" unicode="&#x173;" horiz-adv-x="566" 
d="M455 0q-44 -26 -63.5 -48t-19.5 -50q0 -25 15 -41t39 -16q18 0 41 9v-19q-36 -34 -88 -34q-41 0 -68 20.5t-27 63.5q0 33 20 59l83 56l6 79h-14q-40 -42 -79 -65t-90 -23q-131 0 -131 154v226q0 18 -8.5 27.5t-19 12.5t-33.5 7v22q105 -5 168 6v-296q0 -90 77 -90
q58 0 111 51v260q0 18 -8.5 27.5t-19 12.5t-33.5 7v22q106 -5 169 6v-356q0 -30 12.5 -44.5t53.5 -21.5v-24h-93z" />
    <glyph glyph-name="Wcircumflex" unicode="&#x174;" horiz-adv-x="1013" 
d="M504 878l139 -152l-13 -13l-126 88l-126 -88l-14 14zM297 -8l-211 559q-12 32 -25.5 40.5t-57.5 16.5v22h273v-22q-49 -10 -58 -19q-12 -11 -2 -38l144 -399l109 312q20 49 1.5 91t-73.5 53v22h188q0 -41 35 -137l123 -340l125 354q9 24 9.5 41t-3.5 27t-18 16.5
t-27.5 9.5t-39.5 7v22h220v-22q-32 -6 -42.5 -9.5t-21.5 -14t-19 -33.5l-202 -558h-44l-173 462l-166 -463h-44z" />
    <glyph glyph-name="wcircumflex" unicode="&#x175;" horiz-adv-x="794" 
d="M394 688l139 -152l-13 -13l-126 88l-126 -88l-14 14zM220 -6l-148 379q-11 26 -23 33t-46 10v24h236v-24q-46 -6 -54 -18q-6 -9 0 -25l92 -250l85 209q17 40 4 62q-7 12 -17 15.5t-33 6.5v24h163q0 -37 18 -84l90 -234l81 204q12 29 12.5 47t-10.5 26.5t-25 11.5t-40 5
v24h186v-24q-34 -3 -46 -10t-23 -33l-153 -379h-39l-134 334l-137 -334h-39z" />
    <glyph glyph-name="Ycircumflex" unicode="&#x176;" horiz-adv-x="661" 
d="M328 801l-126 -88l-14 14l140 151l139 -152l-13 -13zM453 630h199v-24q-39 -8 -51.5 -16.5t-36.5 -45.5l-169 -270v-173q0 -25 4.5 -39t20.5 -22t26 -10.5t42 -7.5v-22h-305v22q59 10 73 21q20 15 20 58v159l-181 284q-24 37 -36 45.5t-51 16.5v24h278v-24
q-4 -1 -15.5 -3.5t-16 -3.5t-12.5 -4t-11 -5.5t-6.5 -6.5t-3 -9.5t2.5 -13t8 -16.5l144 -231l141 231q10 17 11.5 27.5t-9 16.5t-19 8.5t-31.5 6.5q-11 2 -16 3v24z" />
    <glyph glyph-name="ycircumflex" unicode="&#x177;" horiz-adv-x="512" 
d="M256 611l-126 -88l-14 14l140 151l139 -152l-13 -13zM345 440h164v-24q-34 -4 -46 -11t-24 -35l-174 -406q-12 -29 -23.5 -50t-29 -45.5t-40.5 -38t-49 -13.5q-34 0 -66 23v68q73 -8 112.5 3t57.5 53l11 26l-165 380q-13 28 -24.5 35t-45.5 11v24h235v-24q-46 -7 -53 -18
t0 -28l107 -254l109 254q4 9 4.5 15.5t-3 11t-7 7.5t-13 5.5t-14 3t-16.5 2.5q-5 1 -7 1v24z" />
    <glyph glyph-name="Ydieresis" unicode="&#x178;" horiz-adv-x="661" 
d="M228 755q-23 0 -39.5 16.5t-16.5 39.5t16.5 39.5t39.5 16.5t39.5 -16.5t16.5 -39.5t-16.5 -39.5t-39.5 -16.5zM434 755q-24 0 -40 16.5t-16 39.5t16 39.5t40 16.5q23 0 39 -16.5t16 -39.5t-16 -39.5t-39 -16.5zM453 630h199v-24q-39 -8 -51.5 -16.5t-36.5 -45.5
l-169 -270v-173q0 -25 4.5 -39t20.5 -22t26 -10.5t42 -7.5v-22h-305v22q59 10 73 21q20 15 20 58v159l-181 284q-24 37 -36 45.5t-51 16.5v24h278v-24q-4 -1 -15.5 -3.5t-16 -3.5t-12.5 -4t-11 -5.5t-6.5 -6.5t-3 -9.5t2.5 -13t8 -16.5l144 -231l141 231q10 17 11.5 27.5
t-9 16.5t-19 8.5t-31.5 6.5q-11 2 -16 3v24z" />
    <glyph glyph-name="Zacute" unicode="&#x179;" horiz-adv-x="599" 
d="M295 698l-27 17q25 88 69 150q23 0 47.5 -18.5t32.5 -39.5q-56 -39 -122 -109zM34 0l-11 15l388 587l-198 -4q-72 -1 -100.5 -31t-33.5 -101h-27v170l61 -6h456l-398 -602l234 4q69 1 97 32t43 102h28q-19 -102 -19 -166h-520z" />
    <glyph glyph-name="zacute" unicode="&#x17a;" horiz-adv-x="467" 
d="M230 508l-26 17q25 88 69 150q22 0 46.5 -18.5t32.5 -39.5q-56 -39 -122 -109zM34 0l-11 15l276 395l-125 -3q-84 -1 -94 -103h-28v142l59 -6h328l-286 -410l132 3q62 1 88.5 27t41.5 78h28q-19 -74 -19 -138h-390z" />
    <glyph glyph-name="Zdotaccent" unicode="&#x17b;" horiz-adv-x="599" 
d="M298 721q-26 0 -46 19t-20 45q0 27 19.5 45.5t46.5 18.5t47 -18.5t20 -45.5q0 -26 -20 -45t-47 -19zM34 0l-11 15l388 587l-198 -4q-72 -1 -100.5 -31t-33.5 -101h-27v170l61 -6h456l-398 -602l234 4q69 1 97 32t43 102h28q-19 -102 -19 -166h-520z" />
    <glyph glyph-name="zdotaccent" unicode="&#x17c;" horiz-adv-x="467" 
d="M234 531q-27 0 -47 19t-20 45q0 27 20 45.5t47 18.5t46.5 -18.5t19.5 -45.5q0 -26 -20 -45t-46 -19zM34 0l-11 15l276 395l-125 -3q-84 -1 -94 -103h-28v142l59 -6h328l-286 -410l132 3q62 1 88.5 27t41.5 78h28q-19 -74 -19 -138h-390z" />
    <glyph glyph-name="Zcaron" unicode="&#x17d;" horiz-adv-x="599" 
d="M296 712l-139 151l13 14l126 -88l126 88l14 -13zM34 0l-11 15l388 587l-198 -4q-72 -1 -100.5 -31t-33.5 -101h-27v170l61 -6h456l-398 -602l234 4q69 1 97 32t43 102h28q-19 -102 -19 -166h-520z" />
    <glyph glyph-name="zcaron" unicode="&#x17e;" horiz-adv-x="467" 
d="M232 522l-140 151l14 14l126 -88l126 88l13 -13zM34 0l-11 15l276 395l-125 -3q-84 -1 -94 -103h-28v142l59 -6h328l-286 -410l132 3q62 1 88.5 27t41.5 78h28q-19 -74 -19 -138h-390z" />
    <glyph glyph-name="florin" unicode="&#x192;" horiz-adv-x="609" 
d="M575 685q90 0 106 -59q-3 -24 -27.5 -42.5t-55.5 -23.5q-19 81 -67 81q-32 0 -59 -29t-36 -103l-8 -69l120 11q-5 -22 -5 -50h-120l-39 -323q-15 -121 -90 -187t-170 -66q-90 0 -106 59q3 24 27.5 42.5t55.5 23.5q19 -81 67 -81q32 0 59 29t36 103l48 400h-70v24l75 15
q18 117 92 181t167 64z" />
    <glyph glyph-name="uni0218" unicode="&#x218;" horiz-adv-x="527" 
d="M255 -12q-111 0 -204 63l-8 129h27q19 -71 66 -114t113 -43q55 0 89.5 32.5t34.5 81.5q0 47 -33.5 79t-103.5 65q-39 18 -66 34t-56.5 40.5t-44.5 56.5t-15 71q0 73 55 118t156 45q21 0 40.5 -2t37 -7t29 -8t26 -11t19.5 -10.5t19 -11.5l13 -9l3 -131h-25
q-41 155 -158 155q-52 0 -79.5 -27t-27.5 -67q0 -38 29 -67t98 -61q33 -15 52 -24.5t51 -31t50 -41.5t32.5 -52t14.5 -67q0 -83 -67 -134t-167 -51zM186 -332l-9 23q74 28 88 84q7 25 -20 40q-39 23 -39 61q0 28 19.5 47t48.5 19q30 0 51.5 -23.5t21.5 -64.5
q0 -59 -43 -113.5t-118 -72.5z" />
    <glyph glyph-name="uni0219" unicode="&#x219;" horiz-adv-x="404" 
d="M183 -9q-86 0 -148 40l-2 93h35q34 -99 125 -99q41 0 62.5 18t21.5 48q0 33 -23.5 49.5t-80.5 37.5q-61 22 -100 54.5t-39 88.5q0 59 46 93.5t124 34.5q71 0 132 -38l-1 -92h-34q-27 97 -107 97q-34 0 -53.5 -16.5t-19.5 -42.5q0 -27 22 -45.5t68 -35.5q30 -11 43 -16
t40 -19.5t40 -28t24.5 -36t11.5 -48.5q0 -62 -52 -99.5t-135 -37.5zM120 -332l-9 23q74 28 88 84q7 25 -20 40q-39 23 -39 61q0 28 19.5 47t48.5 19q30 0 51.5 -23.5t21.5 -64.5q0 -59 -43 -113.5t-118 -72.5z" />
    <glyph glyph-name="uni021A" unicode="&#x21a;" horiz-adv-x="605" 
d="M574 640l8 -177h-23q-11 70 -41 101.5t-106 31.5h-50v-493q0 -20 5 -33.5t9.5 -20.5t21 -12.5t24 -7t35.5 -5.5v-24h-309v24q60 10 75 20q20 16 20 59v493h-48q-78 0 -108 -31t-41 -102h-23l8 177l53 -10h437zM313 -58q30 0 51 -23.5t21 -64.5q0 -59 -43 -113.5
t-118 -72.5l-9 23q76 29 89 84q6 25 -20 40q-39 23 -39 61q0 28 19.5 47t48.5 19z" />
    <glyph glyph-name="uni021B" unicode="&#x21b;" horiz-adv-x="334" 
d="M204 114q0 -25 12.5 -38t33.5 -13.5t41 3.5t42 12v-26q-71 -39 -152 -62q-36 0 -60.5 25t-24.5 58v328h-78v26q91 35 155 105h31v-96l127 13q-5 -21 -5 -48h-122v-287zM185 -58q30 0 51.5 -23.5t21.5 -64.5q0 -59 -43 -113.5t-118 -72.5l-9 23q74 28 88 84q7 25 -20 40
q-39 23 -39 61q0 28 19.5 47t48.5 19z" />
    <glyph glyph-name="uni0237" unicode="&#x237;" horiz-adv-x="243" 
d="M-4 -185q-9 14 0 28q55 17 71 43.5t16 101.5v325q0 30 -12.5 44t-53.5 19v22q88 16 152 58l21 -19v-454q0 -42 -19 -74.5t-50.5 -51t-61.5 -28.5t-63 -14z" />
    <glyph glyph-name="circumflex" unicode="&#x2c6;" horiz-adv-x="293" 
d="M144 688l139 -152l-13 -13l-126 88l-126 -88l-14 14z" />
    <glyph glyph-name="caron" unicode="&#x2c7;" horiz-adv-x="287" 
d="M144 522l-140 151l14 14l126 -88l126 88l13 -13z" />
    <glyph glyph-name="breve" unicode="&#x2d8;" horiz-adv-x="295" 
d="M148 544q-67 0 -105.5 37t-38.5 98h26q14 -66 118 -66q103 0 118 66h25q0 -61 -38 -98t-105 -37z" />
    <glyph glyph-name="dotaccent" unicode="&#x2d9;" horiz-adv-x="141" 
d="M71 531q-27 0 -47 19t-20 45q0 27 20 45.5t47 18.5t46.5 -18.5t19.5 -45.5q0 -26 -20 -45t-46 -19z" />
    <glyph glyph-name="ring" unicode="&#x2da;" horiz-adv-x="192" 
d="M96 531q-39 0 -65.5 26t-26.5 64t26.5 64.5t65.5 26.5t65.5 -26.5t26.5 -64.5t-26.5 -64t-65.5 -26zM96 577q20 0 32.5 12.5t12.5 31.5t-12.5 32t-32.5 13q-19 0 -32 -13t-13 -32t13 -31.5t32 -12.5z" />
    <glyph glyph-name="ogonek" unicode="&#x2db;" horiz-adv-x="192" 
d="M100 -183q-42 0 -69 20.5t-27 63.5q0 32 21 59l151 102v-46q-44 -26 -63.5 -48t-19.5 -50q0 -26 14.5 -41.5t38.5 -15.5q19 0 42 9v-19q-36 -34 -88 -34z" />
    <glyph glyph-name="tilde" unicode="&#x2dc;" horiz-adv-x="358" 
d="M247 524q-26 0 -49 11t-36 25t-33 25t-42 11q-25 0 -41 -15t-16 -31h-24q-9 48 23.5 80t81.5 32q40 0 84.5 -36t76.5 -36q25 0 41 15t16 31h23q9 -48 -23.5 -80t-81.5 -32z" />
    <glyph glyph-name="hungarumlaut" unicode="&#x2dd;" horiz-adv-x="321" 
d="M31 508l-27 17q25 88 69 150q23 0 47.5 -18.5t32.5 -39.5q-56 -39 -122 -109zM195 508l-27 17q25 88 69 150q23 0 47.5 -18.5t32.5 -39.5q-56 -39 -122 -109z" />
    <glyph glyph-name="acutecomb" unicode="&#x301;" horiz-adv-x="0" 
d="M-130 508l-27 17q25 88 69 150q23 0 47.5 -18.5t32.5 -39.5q-56 -39 -122 -109z" />
    <glyph glyph-name="uni0326" unicode="&#x326;" horiz-adv-x="0" 
d="M-155 -332l-9 23q74 28 88 84q7 25 -20 40q-39 23 -39 61q0 28 19.5 47t48.5 19q30 0 52 -23.5t22 -64.5q0 -59 -43.5 -113.5t-118.5 -72.5z" />
    <glyph glyph-name="uni0394" unicode="&#x394;" horiz-adv-x="579" 
d="M3 0l287 634l287 -634h-574zM76 87h348l-171 399z" />
    <glyph glyph-name="uni03A9" unicode="&#x3a9;" horiz-adv-x="742" 
d="M680 117h20l-36 -117h-217v88q41 20 78 89.5t37 157.5q0 118 -52.5 191t-138.5 73q-85 0 -137.5 -73t-52.5 -191q0 -88 37 -157.5t78 -89.5v-88h-217l-36 117h20q15 -20 38 -24.5t79 -4.5h20q-59 39 -104 104t-45 153q0 121 90.5 206.5t229.5 85.5t229.5 -85.5
t90.5 -206.5q0 -88 -45 -153.5t-103 -103.5h20q39 0 55.5 1t33.5 7.5t28 20.5z" />
    <glyph glyph-name="uni03BC" unicode="&#x3bc;" horiz-adv-x="565" 
d="M482 90q0 -30 12.5 -44.5t53.5 -21.5v-24h-161l6 79h-14q-40 -42 -79 -65t-90 -23q-47 0 -76 20q4 -38 14.5 -65.5t20 -39t17.5 -21.5t8 -18q0 -35 -29 -55.5t-58 -9t-29 52.5v316h1v200q0 18 -8.5 27.5t-19 12.5t-33.5 7v22q105 -5 168 6v-296q0 -90 77 -90q58 0 111 51
v260q0 18 -8.5 27.5t-19 12.5t-33.5 7v22q106 -5 169 6v-356z" />
    <glyph glyph-name="pi" unicode="&#x3c0;" horiz-adv-x="704" 
d="M623 113q19 0 30.5 -13t11.5 -35q0 -37 -32.5 -56t-76.5 -19q-60 0 -99 36.5t-39 103.5v244h-125v-251q0 -61 -37.5 -95t-88.5 -34q-40 0 -73 12l-11 34q42 -10 72 10.5t30 72.5v251h-45q-35 0 -50.5 -21t-5.5 -59l-32 16q-26 53 -3.5 97t84.5 44h486v-77h-94v-277
q0 -57 27 -57q12 0 19.5 11.5t11 25t14 25t26.5 11.5z" />
    <glyph glyph-name="Wgrave" unicode="&#x1e80;" horiz-adv-x="1013" 
d="M516 698q-66 70 -122 109q8 21 32.5 39.5t47.5 18.5q44 -62 69 -150zM297 -8l-211 559q-12 32 -25.5 40.5t-57.5 16.5v22h273v-22q-49 -10 -58 -19q-12 -11 -2 -38l144 -399l109 312q20 49 1.5 91t-73.5 53v22h188q0 -41 35 -137l123 -340l125 354q9 24 9.5 41t-3.5 27
t-18 16.5t-27.5 9.5t-39.5 7v22h220v-22q-32 -6 -42.5 -9.5t-21.5 -14t-19 -33.5l-202 -558h-44l-173 462l-166 -463h-44z" />
    <glyph glyph-name="wgrave" unicode="&#x1e81;" horiz-adv-x="794" 
d="M406 508q-66 70 -122 109q8 21 32.5 39.5t47.5 18.5q44 -62 69 -150zM220 -6l-148 379q-11 26 -23 33t-46 10v24h236v-24q-46 -6 -54 -18q-6 -9 0 -25l92 -250l85 209q17 40 4 62q-7 12 -17 15.5t-33 6.5v24h163q0 -37 18 -84l90 -234l81 204q12 29 12.5 47t-10.5 26.5
t-25 11.5t-40 5v24h186v-24q-34 -3 -46 -10t-23 -33l-153 -379h-39l-134 334l-137 -334h-39z" />
    <glyph glyph-name="Wacute" unicode="&#x1e82;" horiz-adv-x="1013" 
d="M503 698l-26 17q25 88 69 150q22 0 46.5 -18.5t32.5 -39.5q-56 -39 -122 -109zM297 -8l-211 559q-12 32 -25.5 40.5t-57.5 16.5v22h273v-22q-49 -10 -58 -19q-12 -11 -2 -38l144 -399l109 312q20 49 1.5 91t-73.5 53v22h188q0 -41 35 -137l123 -340l125 354q9 24 9.5 41
t-3.5 27t-18 16.5t-27.5 9.5t-39.5 7v22h220v-22q-32 -6 -42.5 -9.5t-21.5 -14t-19 -33.5l-202 -558h-44l-173 462l-166 -463h-44z" />
    <glyph glyph-name="wacute" unicode="&#x1e83;" horiz-adv-x="794" 
d="M393 508l-26 17q25 88 69 150q22 0 46.5 -18.5t32.5 -39.5q-56 -39 -122 -109zM220 -6l-148 379q-11 26 -23 33t-46 10v24h236v-24q-46 -6 -54 -18q-6 -9 0 -25l92 -250l85 209q17 40 4 62q-7 12 -17 15.5t-33 6.5v24h163q0 -37 18 -84l90 -234l81 204q12 29 12.5 47
t-10.5 26.5t-25 11.5t-40 5v24h186v-24q-34 -3 -46 -10t-23 -33l-153 -379h-39l-134 334l-137 -334h-39z" />
    <glyph glyph-name="Wdieresis" unicode="&#x1e84;" horiz-adv-x="1013" 
d="M404 755q-23 0 -39.5 16.5t-16.5 39.5t16.5 39.5t39.5 16.5t39.5 -16.5t16.5 -39.5t-16.5 -39.5t-39.5 -16.5zM610 755q-24 0 -40 16.5t-16 39.5t16 39.5t40 16.5q23 0 39 -16.5t16 -39.5t-16 -39.5t-39 -16.5zM297 -8l-211 559q-12 32 -25.5 40.5t-57.5 16.5v22h273v-22
q-49 -10 -58 -19q-12 -11 -2 -38l144 -399l109 312q20 49 1.5 91t-73.5 53v22h188q0 -41 35 -137l123 -340l125 354q9 24 9.5 41t-3.5 27t-18 16.5t-27.5 9.5t-39.5 7v22h220v-22q-32 -6 -42.5 -9.5t-21.5 -14t-19 -33.5l-202 -558h-44l-173 462l-166 -463h-44z" />
    <glyph glyph-name="wdieresis" unicode="&#x1e85;" horiz-adv-x="794" 
d="M294 565q-23 0 -39.5 16.5t-16.5 39.5t16.5 39.5t39.5 16.5t39.5 -16.5t16.5 -39.5t-16.5 -39.5t-39.5 -16.5zM500 565q-24 0 -40 16.5t-16 39.5t16 39.5t40 16.5q23 0 39 -16.5t16 -39.5t-16 -39.5t-39 -16.5zM220 -6l-148 379q-11 26 -23 33t-46 10v24h236v-24
q-46 -6 -54 -18q-6 -9 0 -25l92 -250l85 209q17 40 4 62q-7 12 -17 15.5t-33 6.5v24h163q0 -37 18 -84l90 -234l81 204q12 29 12.5 47t-10.5 26.5t-25 11.5t-40 5v24h186v-24q-34 -3 -46 -10t-23 -33l-153 -379h-39l-134 334l-137 -334h-39z" />
    <glyph glyph-name="uni1E9E" unicode="&#x1e9e;" horiz-adv-x="731" 
d="M493 347q89 -11 145 -55.5t56 -122.5q0 -80 -60 -134.5t-162 -54.5q-76 0 -132 32q-2 55 -17 122h28q28 -69 54 -94.5t63 -25.5q51 0 79.5 35.5t28.5 92.5q0 83 -61.5 129.5t-170.5 46.5l162 258q-38 18 -103 18q-177 0 -177 -220v-271q0 -24 3.5 -38.5t16 -22.5
t19 -10.5t30.5 -7.5v-24h-272v24q51 10 64 20q19 16 19 59v257q0 67 16.5 117.5t42 80.5t61.5 48t70 24.5t72 6.5q126 0 268 -62z" />
    <glyph glyph-name="uni1EBC" unicode="&#x1ebc;" horiz-adv-x="592" 
d="M144 740h-24q-9 48 23.5 80t81.5 32q40 0 84.5 -36t76.5 -36q25 0 41 15t16 31h23q9 -48 -23.5 -80t-81.5 -32q-26 0 -49 11t-36 25t-33 25t-42 11q-25 0 -41 -15t-16 -31zM535 152h29l-41 -152h-500v24q51 10 64 20q19 16 19 59v424q0 23 -3.5 37t-17.5 22.5t-20.5 10.5
t-33.5 7q-5 1 -8 2v24h498l9 -144h-29q-7 57 -27 81.5t-71 24.5h-84q-59 0 -76.5 -13t-17.5 -63v-180h72q86 0 110 17t29 67h23v-204h-23q-5 50 -29 67t-110 17h-72v-186q0 -50 17.5 -63t76.5 -13h63q59 0 92 24.5t61 89.5z" />
    <glyph glyph-name="uni1EBD" unicode="&#x1ebd;" horiz-adv-x="490" 
d="M92 550h-23q-9 48 23 80t81 32q33 0 59.5 -18t50.5 -36t51 -18q25 0 41 15t16 31h24q9 -48 -23.5 -80t-81.5 -32q-33 0 -59.5 18t-50.5 36t-51 18q-25 0 -41 -15t-16 -31zM314 59q81 0 117 51l18 -12q-18 -50 -66.5 -78.5t-114.5 -28.5q-101 0 -168 62t-67 165t66 167
t163 64q43 0 79 -13.5t58.5 -35.5t37 -49.5t14.5 -56t-9 -55.5h-298q5 -81 51 -130.5t119 -49.5zM253 414q-44 0 -75 -36.5t-35 -103.5h199q8 53 -15 96.5t-74 43.5z" />
    <glyph glyph-name="Ygrave" unicode="&#x1ef2;" horiz-adv-x="661" 
d="M340 698q-66 70 -122 109q8 21 32.5 39.5t47.5 18.5q44 -62 69 -150zM453 630h199v-24q-39 -8 -51.5 -16.5t-36.5 -45.5l-169 -270v-173q0 -25 4.5 -39t20.5 -22t26 -10.5t42 -7.5v-22h-305v22q59 10 73 21q20 15 20 58v159l-181 284q-24 37 -36 45.5t-51 16.5v24h278
v-24q-4 -1 -15.5 -3.5t-16 -3.5t-12.5 -4t-11 -5.5t-6.5 -6.5t-3 -9.5t2.5 -13t8 -16.5l144 -231l141 231q10 17 11.5 27.5t-9 16.5t-19 8.5t-31.5 6.5q-11 2 -16 3v24z" />
    <glyph glyph-name="ygrave" unicode="&#x1ef3;" horiz-adv-x="512" 
d="M268 508q-66 70 -122 109q8 21 32.5 39.5t47.5 18.5q44 -62 69 -150zM345 440h164v-24q-34 -4 -46 -11t-24 -35l-174 -406q-12 -29 -23.5 -50t-29 -45.5t-40.5 -38t-49 -13.5q-34 0 -66 23v68q73 -8 112.5 3t57.5 53l11 26l-165 380q-13 28 -24.5 35t-45.5 11v24h235v-24
q-46 -7 -53 -18t0 -28l107 -254l109 254q4 9 4.5 15.5t-3 11t-7 7.5t-13 5.5t-14 3t-16.5 2.5q-5 1 -7 1v24z" />
    <glyph glyph-name="endash" unicode="&#x2013;" horiz-adv-x="653" 
d="M44 239v43h565v-43h-565z" />
    <glyph glyph-name="emdash" unicode="&#x2014;" horiz-adv-x="907" 
d="M44 239v43h819v-43h-819z" />
    <glyph glyph-name="uni2015" unicode="&#x2015;" horiz-adv-x="907" 
d="M44 239v43h819v-43h-819z" />
    <glyph glyph-name="quoteleft" unicode="&#x2018;" horiz-adv-x="238" 
d="M197 644l9 -24q-75 -27 -89 -83q-6 -26 20 -41q39 -21 39 -61q0 -27 -19.5 -46t-48.5 -19q-30 0 -51 23t-21 64q0 59 43 114t118 73z" />
    <glyph glyph-name="quoteright" unicode="&#x2019;" horiz-adv-x="238" 
d="M42 373l-9 24q74 26 88 83q7 26 -20 41q-39 21 -39 61q0 27 20 46t48 19q30 0 51.5 -23t21.5 -64q0 -59 -43 -114t-118 -73z" />
    <glyph glyph-name="quotesinglbase" unicode="&#x201a;" horiz-adv-x="238" 
d="M42 -151l-9 24q74 26 88 83q7 26 -20 41q-39 23 -39 61q0 28 19.5 47t48.5 19q30 0 51.5 -23.5t21.5 -64.5q0 -59 -43 -114t-118 -73z" />
    <glyph glyph-name="quotedblleft" unicode="&#x201c;" horiz-adv-x="443" 
d="M197 644l9 -24q-75 -27 -89 -83q-6 -26 20 -41q39 -21 39 -61q0 -27 -19.5 -46t-48.5 -19q-30 0 -51 23t-21 64q0 59 43 114t118 73zM402 644l9 -24q-75 -27 -89 -83q-6 -26 20 -41q39 -21 39 -61q0 -27 -19.5 -46t-48.5 -19q-30 0 -51 23t-21 64q0 59 43 114t118 73z
" />
    <glyph glyph-name="quotedblright" unicode="&#x201d;" horiz-adv-x="443" 
d="M42 373l-9 24q74 26 88 83q7 26 -20 41q-39 21 -39 61q0 27 20 46t48 19q30 0 51.5 -23t21.5 -64q0 -59 -43 -114t-118 -73zM247 373l-9 24q74 26 88 83q7 26 -20 41q-39 21 -39 61q0 27 20 46t48 19q30 0 51.5 -23t21.5 -64q0 -59 -43 -114t-118 -73z" />
    <glyph glyph-name="quotedblbase" unicode="&#x201e;" horiz-adv-x="443" 
d="M42 -146l-9 24q74 26 88 83q7 26 -20 41q-39 23 -39 61q0 28 19.5 47t48.5 19q30 0 51.5 -23.5t21.5 -64.5q0 -59 -43 -114t-118 -73zM247 -146l-9 24q74 26 88 83q7 26 -20 41q-39 23 -39 61q0 28 19.5 47t48.5 19q30 0 51.5 -23.5t21.5 -64.5q0 -59 -43 -114t-118 -73z
" />
    <glyph glyph-name="dagger" unicode="&#x2020;" horiz-adv-x="526" 
d="M256 1l-46 329l42 64v53q-28 -1 -64.5 -23t-55.5 -22q-24 0 -41 15.5t-17 39.5t17 39.5t41 15.5q18 0 55 -23t65 -23q0 29 -22.5 65.5t-22.5 54.5q0 23 16 39.5t40 16.5q25 0 41 -16.5t16 -39.5q0 -18 -22.5 -54.5t-23.5 -65.5q29 0 65.5 23t54.5 23q24 0 41 -15.5
t17 -39.5t-17 -39.5t-41 -15.5q-18 0 -54.5 22t-65.5 23v-53l42 -64l-46 -329h-14z" />
    <glyph glyph-name="daggerdbl" unicode="&#x2021;" horiz-adv-x="539" 
d="M263 -12q-24 0 -40 17t-16 40q0 18 22.5 54t22.5 65q-28 0 -65 -22.5t-55 -22.5q-24 0 -41 15.5t-17 39.5t17 39.5t41 15.5q18 0 55 -22.5t65 -22.5v53l-42 83l42 74v53q-28 -1 -64.5 -23t-55.5 -22q-24 0 -41 15.5t-17 39.5t17 39.5t41 15.5q18 0 55 -23t65 -23
q0 29 -22.5 65.5t-22.5 54.5q0 23 16 39.5t40 16.5q25 0 41 -16.5t16 -39.5q0 -18 -22.5 -54.5t-23.5 -65.5q29 0 65.5 23t54.5 23q24 0 41 -15.5t17 -39.5t-17 -39.5t-41 -15.5q-18 0 -54.5 22t-65.5 23v-53l42 -74l-42 -83v-53q29 0 65.5 22.5t54.5 22.5q24 0 41 -15.5
t17 -39.5t-17 -39.5t-41 -15.5q-18 0 -54.5 22.5t-65.5 22.5q1 -29 23.5 -65t22.5 -54q0 -23 -16 -40t-41 -17z" />
    <glyph glyph-name="bullet" unicode="&#x2022;" horiz-adv-x="338" 
d="M169 135q-47 0 -81 33.5t-34 81.5q0 47 34 81t81 34q48 0 81.5 -34t33.5 -81q0 -48 -33.5 -81.5t-81.5 -33.5z" />
    <glyph glyph-name="ellipsis" unicode="&#x2026;" horiz-adv-x="636" 
d="M111 -10q-28 0 -48 20t-20 48q0 27 20 46.5t48 19.5q27 0 47 -19.5t20 -46.5q0 -28 -20 -48t-47 -20zM317 -10q-28 0 -48 20t-20 48q0 27 20 46.5t48 19.5q27 0 47 -19.5t20 -46.5q0 -28 -20 -48t-47 -20zM523 -10q-28 0 -48 20t-20 48q0 27 20 46.5t48 19.5
q27 0 47 -19.5t20 -46.5q0 -28 -20 -48t-47 -20z" />
    <glyph glyph-name="perthousand" unicode="&#x2030;" horiz-adv-x="994" 
d="M535 630h63l-447 -630h-55l396 552q-81 -49 -181 -1q3 -15 3 -31q0 -76 -47.5 -137t-115.5 -61q-49 0 -78 32.5t-29 85.5q0 75 50.5 134t120.5 59q40 0 64 -21q45 -26 75 -38.5t63.5 -16t62 14.5t55.5 58zM172 354q43 0 76 53.5t33 111.5q0 38 -16.5 60.5t-43.5 22.5
q-30 0 -54 -29.5t-35 -67.5t-11 -73q0 -36 13 -57t38 -21zM548 309q47 0 73 -30.5t26 -82.5q0 -76 -47.5 -137t-115.5 -61q-49 0 -78 32.5t-29 85.5q0 75 50.5 134t120.5 59zM851 309q47 0 73 -30.5t26 -82.5q0 -76 -47.5 -137t-116.5 -61q-49 0 -77.5 32.5t-28.5 85.5
q0 75 50.5 134t120.5 59zM505 31q43 0 76 53.5t33 111.5q0 38 -16.5 60t-43.5 22q-45 0 -72.5 -55.5t-27.5 -113.5q0 -78 51 -78zM807 31q43 0 76 53.5t33 111.5q0 38 -16.5 60t-43.5 22q-44 0 -71.5 -56t-27.5 -113q0 -36 13 -57t37 -21z" />
    <glyph glyph-name="guilsinglleft" unicode="&#x2039;" horiz-adv-x="253" 
d="M44 224l151 139l14 -13l-88 -126l88 -126l-13 -14z" />
    <glyph glyph-name="guilsinglright" unicode="&#x203a;" horiz-adv-x="253" 
d="M214 224l-151 -140l-14 14l88 126l-88 126l14 13z" />
    <glyph glyph-name="fraction" unicode="&#x2044;" horiz-adv-x="98" 
d="M-181 -5l432 641h28l-432 -641h-28z" />
    <glyph glyph-name="Euro" unicode="&#x20ac;" horiz-adv-x="764" 
d="M699 93l21 -22q-32 -36 -94 -59.5t-139 -23.5q-124 0 -212 65.5t-115 172.5h-117l12 59h95q-1 10 -1 30q0 13 2 35h-83l12 59h81q30 107 120.5 172t218.5 65q119 0 196 -46q4 -91 7 -135h-39q-33 143 -177 143q-86 0 -138.5 -53t-65.5 -146h207l-12 -59h-199v-1
q0 -31 5 -64h181l-12 -59h-155q29 -86 94 -136t151 -50q107 0 156 53z" />
    <glyph glyph-name="uni210D" unicode="&#x210d;" horiz-adv-x="720" 
d="M698 606q-51 -10 -64 -20q-19 -16 -19 -59v-424q0 -23 3.5 -37t17.5 -22.5t20.5 -10.5t33.5 -7q5 -1 8 -2v-24h-675v24q51 10 64 20q19 16 19 59v424q0 23 -3.5 37t-17.5 22.5t-20.5 10.5t-33.5 7q-5 1 -8 2v24h675v-24zM437 601q-27 -7 -39 -21t-12 -53v-194h109v194
q0 39 -13.5 53t-44.5 21zM225 333h58v194q0 52 -27 66q-31 -14 -31 -66v-194zM256 37q27 14 27 66v194h-58v-194q0 -52 31 -66zM437 29q31 7 44.5 21t13.5 53v194h-109v-194q0 -39 12 -53t39 -21z" />
    <glyph glyph-name="trademark" unicode="&#x2122;" horiz-adv-x="832" 
d="M88 299v19q17 2 24 3.5t15.5 6.5t11 13t2.5 22v244h-27q-37 0 -52.5 -18t-22.5 -56h-15l5 97h294l5 -97h-16q-6 37 -21.5 55.5t-50.5 18.5h-30l1 -244q0 -26 11 -33.5t42 -11.5v-19h-176zM369 299v19q15 3 21 4t14.5 5.5t11.5 13t3 22.5v204q0 14 -2.5 22t-12 12.5
t-13.5 6t-21 4.5v18h116l105 -236l92 236h124v-18q-2 0 -5 -1q-13 -3 -18.5 -4.5t-12.5 -6t-9.5 -12.5t-2.5 -21l1 -204q0 -14 2.5 -22.5t10.5 -13t14 -6t21 -3.5v-19h-165v19q19 3 26.5 5.5t14 12t6.5 27.5v216l-113 -280h-18l-115 258v-194q0 -26 10.5 -33.5t40.5 -11.5
v-19h-126z" />
    <glyph glyph-name="oneeighth" unicode="&#x215b;" horiz-adv-x="592" 
d="M171 408v-10h-125v10q22 2 30 6t8 16v165q0 11 -4 14.5t-12 1.5l-20 -5v11l77 33l8 -6v-214q0 -12 8 -16t30 -6zM461 636h28l-432 -641h-28zM497 132q54 -23 54 -67q0 -33 -28.5 -54t-73.5 -21q-42 0 -69.5 19t-27.5 51q0 41 44 63q-28 22 -28 54q0 28 23.5 47.5
t60.5 19.5q35 0 56.5 -18t21.5 -42q0 -29 -33 -52zM452 227q-22 0 -32.5 -10.5t-10.5 -25.5q0 -28 43 -43l26 -9q21 17 21 44q0 18 -11.5 31t-35.5 13zM452 7q52 0 52 43q0 17 -10 26t-39 20l-27 10q-10 3 -15 7q-29 -19 -29 -50q0 -25 18 -40.5t50 -15.5z" />
    <glyph glyph-name="threeeighths" unicode="&#x215c;" horiz-adv-x="724" 
d="M219 470q0 -37 -34 -61.5t-82 -24.5q-27 0 -48 7.5t-21 22.5t17 15q9 0 25.5 -15.5t33.5 -15.5q23 0 42 16.5t19 44.5q0 27 -18 40.5t-45 13.5q-17 0 -36 -7l-5 12l31 12q32 12 45.5 22.5t13.5 28.5q0 32 -41 32t-64 -27l-10 8q32 47 92 47q29 0 47.5 -14t18.5 -37
q0 -33 -56 -58q31 -2 53 -17t22 -45zM538 636h28l-432 -641h-28zM636 132q54 -23 54 -67q0 -33 -28.5 -54t-73.5 -21q-42 0 -69.5 19t-27.5 51q0 41 44 63q-28 22 -28 54q0 28 23.5 47.5t60.5 19.5q35 0 56.5 -18t21.5 -42q0 -29 -33 -52zM591 227q-22 0 -32.5 -10.5
t-10.5 -25.5q0 -28 43 -43l26 -9q21 17 21 44q0 18 -11.5 31t-35.5 13zM591 7q52 0 52 43q0 17 -10 26t-39 20l-27 10q-10 3 -15 7q-29 -19 -29 -50q0 -25 18 -40.5t50 -15.5z" />
    <glyph glyph-name="fiveeighths" unicode="&#x215d;" horiz-adv-x="717" 
d="M220 481q0 -39 -34 -65t-83 -26q-25 0 -47 7.5t-22 22.5t17 15q10 0 26.5 -15.5t34.5 -15.5q23 0 41 16.5t18 43.5q0 63 -113 56l-7 8l39 112h67q39 0 48 12h9l-17 -49h-102l-17 -50q82 5 112 -18t30 -54zM532 636h28l-432 -641h-28zM630 132q54 -23 54 -67
q0 -33 -28.5 -54t-73.5 -21q-42 0 -69.5 19t-27.5 51q0 41 44 63q-28 22 -28 54q0 28 23.5 47.5t60.5 19.5q35 0 56.5 -18t21.5 -42q0 -29 -33 -52zM585 227q-22 0 -32.5 -10.5t-10.5 -25.5q0 -28 43 -43l26 -9q21 17 21 44q0 18 -11.5 31t-35.5 13zM585 7q52 0 52 43
q0 17 -10 26t-39 20l-27 10q-10 3 -15 7q-29 -19 -29 -50q0 -25 18 -40.5t50 -15.5z" />
    <glyph glyph-name="seveneighths" unicode="&#x215e;" horiz-adv-x="678" 
d="M103 398h-33q29 95 105 213h-83q-14 0 -20.5 -1.5t-14.5 -8t-14 -19.5h-9l21 66l18 -4h133l5 -6q-80 -122 -108 -240zM507 636h28l-432 -641h-28zM605 132q54 -23 54 -67q0 -33 -28.5 -54t-73.5 -21q-42 0 -69.5 19t-27.5 51q0 41 44 63q-28 22 -28 54q0 28 23.5 47.5
t60.5 19.5q35 0 56.5 -18t21.5 -42q0 -29 -33 -52zM560 227q-22 0 -32.5 -10.5t-10.5 -25.5q0 -28 43 -43l26 -9q21 17 21 44q0 18 -11.5 31t-35.5 13zM560 7q52 0 52 43q0 17 -10 26t-39 20l-27 10q-10 3 -15 7q-29 -19 -29 -50q0 -25 18 -40.5t50 -15.5z" />
    <glyph glyph-name="partialdiff" unicode="&#x2202;" horiz-adv-x="557" 
d="M284 -12q-107 0 -174 64.5t-67 158.5q0 58 28 103.5t72 67t98 25t105 -22.5v-27q-94 21 -141 -26t-47 -135q0 -73 31 -123.5t90 -50.5q64 0 96.5 60.5t32.5 157.5q0 166 -80 262t-189 106l16 29q90 -5 173.5 -53t140 -135.5t56.5 -191.5q1 -116 -62 -192.5t-179 -76.5z
" />
    <glyph glyph-name="emptyset" unicode="&#x2205;" horiz-adv-x="525" 
d="M435 369q56 -64 56 -149q0 -95 -66.5 -162t-161.5 -67q-84 0 -149 55l-55 -55l-24 26l54 54q-54 64 -54 149q0 94 66.5 161t161.5 67q83 0 148 -55l55 55l24 -24zM71 220q0 -71 44 -123l271 271q-54 44 -123 44q-80 0 -136 -56t-56 -136zM263 28q80 0 135.5 56t55.5 136
q0 69 -44 123l-270 -271q54 -44 123 -44z" />
    <glyph glyph-name="product" unicode="&#x220f;" horiz-adv-x="626" 
d="M562 800v-1000h-69v931h-360v-931h-69v1000h498z" />
    <glyph glyph-name="summation" unicode="&#x2211;" horiz-adv-x="558" 
d="M494 800v-69h-343l293 -432l-293 -430h343v-69h-430v69l290 431l-290 431v69h430z" />
    <glyph glyph-name="minus" unicode="&#x2212;" horiz-adv-x="498" 
d="M64 217v69h370v-69h-370z" />
    <glyph glyph-name="radical" unicode="&#x221a;" horiz-adv-x="756" 
d="M283 -200l-157 331q-20 40 -37 55.5t-55 29.5v35h134l154 -325l316 875h114v-39q-45 -13 -63.5 -29t-35.5 -63l-321 -870h-49z" />
    <glyph glyph-name="infinity" unicode="&#x221e;" horiz-adv-x="677" 
d="M204 55q-72 0 -121 57.5t-49 150.5q0 87 45 139.5t107 52.5q80 0 139 -91q56 92 149 92q72 0 120.5 -57.5t48.5 -150.5q0 -87 -44.5 -140t-107.5 -53q-81 0 -138 91q-57 -91 -149 -91zM170 152q71 0 103 87l30 84q-45 58 -113 58q-47 0 -81.5 -28t-34.5 -90q0 -57 28 -84
t68 -27zM487 129q47 0 81.5 28t34.5 90q0 58 -27.5 84.5t-68.5 26.5q-71 0 -102 -87l-31 -83q45 -59 113 -59z" />
    <glyph glyph-name="integral" unicode="&#x222b;" horiz-adv-x="700" 
d="M124 -175q-90 0 -106 59q3 24 27.5 42.5t55.5 23.5q19 -80 67 -80q32 0 59 28.5t36 102.5l52 429q15 122 90 188.5t170 66.5q90 0 106 -59q-3 -24 -27.5 -42.5t-55.5 -23.5q-19 80 -67 80q-32 0 -59 -28.5t-36 -102.5l-52 -431q-15 -121 -90 -187t-170 -66z" />
    <glyph glyph-name="approxequal" unicode="&#x2248;" horiz-adv-x="560" 
d="M326 270q-40 0 -71 18t-59.5 36t-60.5 18q-30 0 -49.5 -15.5t-19.5 -31.5h-22q-10 49 26 81t93 32q49 0 101.5 -36t90.5 -36q30 0 49.5 15.5t19.5 31.5h22q10 -49 -26 -81t-94 -32zM326 100q-40 0 -71 18t-59.5 36t-60.5 18q-30 0 -49.5 -15.5t-19.5 -31.5h-22
q-10 49 26 81t93 32q49 0 101.5 -36t90.5 -36q30 0 49.5 15.5t19.5 31.5h22q10 -49 -26 -81t-94 -32z" />
    <glyph glyph-name="notequal" unicode="&#x2260;" horiz-adv-x="498" 
d="M434 307h-124l-46 -111h170v-69h-199l-53 -127h-73l53 127h-98v69h127l46 111h-173v69h202l50 120h73l-50 -120h95v-69z" />
    <glyph glyph-name="lessequal" unicode="&#x2264;" horiz-adv-x="501" 
d="M437 127q-175 95 -373 171v69q198 76 373 171v-80q-134 -72 -292 -125q158 -54 292 -125v-81zM437 -4h-370v69h370v-69z" />
    <glyph glyph-name="greaterequal" unicode="&#x2265;" horiz-adv-x="501" 
d="M64 127v81q134 71 292 125q-158 53 -292 125v80q175 -95 373 -171v-69q-198 -76 -373 -171zM64 -4v69h370v-69h-370z" />
    <glyph glyph-name="lozenge" unicode="&#x25ca;" horiz-adv-x="598" 
d="M299 -18l-255 328l255 329l255 -329zM299 54l197 256l-197 257l-197 -257z" />
    <glyph glyph-name="M.ss01" horiz-adv-x="838" 
d="M732 103q0 -23 4 -37t17.5 -22.5t21 -10.5t32.5 -7q6 -1 9 -2v-24h-286v24q51 10 64 20q19 16 19 59l-1 439l-213 -542h-30l-217 503v-400q0 -24 4.5 -38.5t20 -22.5t24.5 -10.5t39 -7.5v-24h-217v24q52 10 65 20q20 16 20 59v424q0 23 -4 37t-17.5 22.5t-21 10.5
t-32.5 7q-6 1 -9 2v24h200q2 -13 31 -77l168 -389l150 389q25 66 27 77h214v-24q-51 -10 -63 -20q-19 -16 -19 -59v-424z" />
    <glyph glyph-name="W.ss01" horiz-adv-x="923" 
d="M732 630h189v-24q-33 -6 -42.5 -9t-21 -13.5t-20.5 -33.5l-232 -557h-45l-100 236l-98 -236h-41l-236 557q-14 32 -26.5 40t-55.5 16v24h675v-24q-33 -6 -42.5 -9t-21 -13.5t-20.5 -33.5l-68 -164l100 -244l167 408q4 9 5 16.5t-2 12.5t-5.5 8.5t-11 6.5t-13 4.5t-17 4
l-17.5 3.5v24zM385 147l54 132l-114 271q-14 34 -26.5 44.5t-37.5 10.5q-26 0 -40.5 -12.5t-2.5 -42.5zM504 605q-28 0 -43.5 -12.5t-2.5 -42.5l46 -112l46 112q12 30 -3.5 42.5t-42.5 12.5z" />
    <glyph glyph-name="i.loclTRK" horiz-adv-x="286" 
d="M138 531q-26 0 -46 19t-20 45q0 27 19.5 45.5t46.5 18.5t47 -18.5t20 -45.5q0 -26 -20 -45t-47 -19zM23 0v24q27 5 37 8t19.5 14.5t9.5 32.5v234q0 30 -12.5 44t-53.5 19v22q88 16 152 58l21 -19v-358q0 -30 14 -39t52 -16v-24h-239z" />
    <glyph glyph-name="T_h" horiz-adv-x="1161" 
d="M1077 79q0 -30 14 -39t52 -16v-24h-234v24q42 9 51 20q10 12 10 35v209q0 93 -74 93q-61 0 -113 -61v-241q0 -16 3.5 -25.5t14.5 -15.5t17 -8t26 -6v-24h-241v24q49 9 61 20t12 35v414q-4 54 -34.5 78.5t-110.5 24.5h-133v-493q0 -25 4.5 -39t20 -22t25.5 -10.5t42 -7.5
v-24h-304v24q32 5 42 7.5t25.5 10.5t20 22t4.5 39v493h-82q-78 0 -108 -31t-41 -102h-23l8 177l53 -10h518q94 15 160 57l20 -19v-311q76 92 169 92q125 0 125 -154v-216z" />
    <glyph glyph-name="f_b" horiz-adv-x="908" 
d="M694 449q73 0 127 -58.5t54 -155.5q0 -112 -71.5 -178t-179.5 -66q-94 0 -146.5 46.5t-52.5 121.5v392q0 39 -30.5 66t-87.5 27q-103 0 -103 -131v-74l116 10q-5 -21 -5 -50h-111v-320q0 -16 6.5 -26t23.5 -15.5t30 -8t44 -5.5v-24h-290v24q18 3 25 4.5t19.5 5.5t17 9
t9 14t4.5 22v320h-75v25l75 15q1 122 72.5 186t187.5 64q109 0 181 -34v-304q24 42 66 70t94 28zM634 27q55 0 92 46t37 129q0 79 -34 130.5t-89 51.5q-67 0 -106 -71v-166q0 -47 24 -83.5t76 -36.5z" />
    <glyph glyph-name="f_h" horiz-adv-x="914" 
d="M833 79q0 -16 3.5 -26t15 -15.5t18 -7.5t27.5 -6v-24h-233v24q20 4 26 6t17.5 8t15 15.5t3.5 25.5v209q0 92 -70 92q-59 0 -124 -57v-244q0 -28 15.5 -38t50.5 -16q5 -1 7 -1v-24h-253v24q49 9 61 20t12 35v472q0 39 -30.5 66t-87.5 27q-103 0 -103 -131v-74l116 10
q-5 -21 -5 -50h-111v-320q0 -16 6.5 -26t23.5 -15.5t30 -8t44 -5.5v-24h-290v24q18 3 25 4.5t19.5 5.5t17 9t9 14t4.5 22v320h-75v25l75 15q1 122 72.5 186t187.5 64q110 0 179 -34v-300h3q41 45 81 69.5t93 24.5q124 0 124 -154v-216z" />
    <glyph glyph-name="f_j" horiz-adv-x="609" 
d="M557 606v-1q0 -26 -20 -45t-47 -19q-26 0 -46 19t-20 45v1q1 29 -9.5 41.5t-38.5 12.5q-66 0 -119 -51.5t-53 -154.5v-15l96 10q-5 -21 -5 -50h-91v-320q0 -16 6.5 -26t23.5 -15.5t30 -8t44 -5.5v-24h-290v24q18 3 25 4.5t19.5 5.5t17 9t9 14t4.5 22v320h-75v25l75 15
q6 119 91.5 187t199.5 68q22 0 46.5 -3t55.5 -11t51 -27t20 -47zM376 398q88 16 152 58l21 -19v-454q0 -42 -19 -74.5t-50 -51t-61.5 -28.5t-62.5 -14q-9 14 0 28q47 16 66.5 49.5t19.5 99.5v321q0 30 -12.5 44t-53.5 19v22z" />
    <glyph glyph-name="f_k" horiz-adv-x="903" 
d="M816 60q13 -18 28.5 -24.5t52.5 -10.5v-25h-180q0 30 -18 55l-115 165l-52 -51v-90q0 -28 15.5 -38t50.5 -16q5 -1 7 -1v-24h-253v24q49 9 61 20t12 35v472q0 39 -30.5 66t-87.5 27q-103 0 -103 -131v-74l116 10q-5 -21 -5 -50h-111v-320q0 -16 6.5 -26t23.5 -15.5t30 -8
t44 -5.5v-24h-290v24q18 3 25 4.5t19.5 5.5t17 9t9 14t4.5 22v320h-75v25l75 15q1 122 72.5 186t187.5 64q110 0 179 -34v-433l147 141q47 44 -35 52v25h205v-25q-43 -3 -68 -16t-51 -39l-76 -73z" />
    <glyph glyph-name="t_t" horiz-adv-x="696" 
d="M550 114q0 -25 12.5 -38t33.5 -13.5t41 3.5t42 12v-26q-71 -39 -152 -62q-36 0 -60.5 25t-24.5 58v328h-238v-287q0 -25 13 -38t33 -13t41.5 6.5t41.5 18.5v-26q-54 -44 -152 -72q-36 0 -60.5 25t-24.5 58v328h-78v30q95 35 155 101h31v-102l164 -1q90 35 151 103h31v-96
l127 13q-5 -21 -5 -48h-122v-287z" />
    <glyph glyph-name="a.sc" 
d="M515 81q14 -32 26.5 -40.5t51.5 -16.5v-24h-265v24l18 4.5t18.5 5t13 5.5t10.5 9t2 13.5t-5 19.5l-39 91h-182l-39 -92q-4 -9 -5 -16.5t1.5 -12.5t5.5 -8.5t10.5 -6.5t12 -4.5t15.5 -4t16 -3.5v-24h-178v24q28 6 38 9.5t20 14t20 33.5l198 449h41zM180 208h150l-75 175z
" />
    <glyph glyph-name="aacute.sc" 
d="M415 707q-56 -39 -122 -109l-27 17q25 88 69 150q23 0 47.5 -18.5t32.5 -39.5zM515 81q14 -32 26.5 -40.5t51.5 -16.5v-24h-265v24l18 4.5t18.5 5t13 5.5t10.5 9t2 13.5t-5 19.5l-39 91h-182l-39 -92q-4 -9 -5 -16.5t1.5 -12.5t5.5 -8.5t10.5 -6.5t12 -4.5t15.5 -4
t16 -3.5v-24h-178v24q28 6 38 9.5t20 14t20 33.5l198 449h41zM180 208h150l-75 175z" />
    <glyph glyph-name="abreve.sc" 
d="M296 634q-67 0 -105.5 37t-38.5 98h26q14 -66 118 -66q103 0 118 66h25q0 -61 -38 -98t-105 -37zM515 81q14 -32 26.5 -40.5t51.5 -16.5v-24h-265v24l18 4.5t18.5 5t13 5.5t10.5 9t2 13.5t-5 19.5l-39 91h-182l-39 -92q-4 -9 -5 -16.5t1.5 -12.5t5.5 -8.5t10.5 -6.5
t12 -4.5t15.5 -4t16 -3.5v-24h-178v24q28 6 38 9.5t20 14t20 33.5l198 449h41zM180 208h150l-75 175z" />
    <glyph glyph-name="acircumflex.sc" 
d="M293 701l-126 -88l-14 14l140 151l139 -152l-13 -13zM515 81q14 -32 26.5 -40.5t51.5 -16.5v-24h-265v24l18 4.5t18.5 5t13 5.5t10.5 9t2 13.5t-5 19.5l-39 91h-182l-39 -92q-4 -9 -5 -16.5t1.5 -12.5t5.5 -8.5t10.5 -6.5t12 -4.5t15.5 -4t16 -3.5v-24h-178v24
q28 6 38 9.5t20 14t20 33.5l198 449h41zM180 208h150l-75 175z" />
    <glyph glyph-name="adieresis.sc" 
d="M193 655q-23 0 -39.5 16.5t-16.5 39.5t16.5 39.5t39.5 16.5t39.5 -16.5t16.5 -39.5t-16.5 -39.5t-39.5 -16.5zM399 655q-24 0 -40 16.5t-16 39.5t16 39.5t40 16.5q23 0 39 -16.5t16 -39.5t-16 -39.5t-39 -16.5zM515 81q14 -32 26.5 -40.5t51.5 -16.5v-24h-265v24l18 4.5
t18.5 5t13 5.5t10.5 9t2 13.5t-5 19.5l-39 91h-182l-39 -92q-4 -9 -5 -16.5t1.5 -12.5t5.5 -8.5t10.5 -6.5t12 -4.5t15.5 -4t16 -3.5v-24h-178v24q28 6 38 9.5t20 14t20 33.5l198 449h41zM180 208h150l-75 175z" />
    <glyph glyph-name="agrave.sc" 
d="M305 598q-66 70 -122 109q8 21 32.5 39.5t47.5 18.5q44 -62 69 -150zM515 81q14 -32 26.5 -40.5t51.5 -16.5v-24h-265v24l18 4.5t18.5 5t13 5.5t10.5 9t2 13.5t-5 19.5l-39 91h-182l-39 -92q-4 -9 -5 -16.5t1.5 -12.5t5.5 -8.5t10.5 -6.5t12 -4.5t15.5 -4t16 -3.5v-24
h-178v24q28 6 38 9.5t20 14t20 33.5l198 449h41zM180 208h150l-75 175z" />
    <glyph glyph-name="amacron.sc" 
d="M444 727l-15 -41h-280l15 41h280zM515 81q14 -32 26.5 -40.5t51.5 -16.5v-24h-265v24l18 4.5t18.5 5t13 5.5t10.5 9t2 13.5t-5 19.5l-39 91h-182l-39 -92q-4 -9 -5 -16.5t1.5 -12.5t5.5 -8.5t10.5 -6.5t12 -4.5t15.5 -4t16 -3.5v-24h-178v24q28 6 38 9.5t20 14t20 33.5
l198 449h41zM180 208h150l-75 175z" />
    <glyph glyph-name="aogonek.sc" 
d="M506 0q-44 -26 -63.5 -48t-19.5 -50q0 -26 14.5 -41.5t38.5 -15.5q19 0 42 9v-19q-36 -34 -88 -34q-42 0 -69 20.5t-27 63.5q0 32 21 59l83 56h-110v24l18 4.5t18.5 5t13 5.5t10.5 9t2 13.5t-5 19.5l-39 91h-182l-39 -92q-4 -9 -5 -16.5t1.5 -12.5t5.5 -8.5t10.5 -6.5
t12 -4.5t15.5 -4t16 -3.5v-24h-178v24q28 6 38 9.5t20 14t20 33.5l198 449h41l195 -449q14 -32 26.5 -40.5t51.5 -16.5v-24h-87zM180 208h150l-75 175z" />
    <glyph glyph-name="aring.sc" 
d="M296 621q-39 0 -65.5 26t-26.5 64t26.5 64.5t65.5 26.5t65.5 -26.5t26.5 -64.5t-26.5 -64t-65.5 -26zM296 756q-19 0 -32 -13t-13 -32t13 -31.5t32 -12.5q20 0 32.5 12.5t12.5 31.5t-12.5 32t-32.5 13zM515 81q14 -32 26.5 -40.5t51.5 -16.5v-24h-265v24l18 4.5t18.5 5
t13 5.5t10.5 9t2 13.5t-5 19.5l-39 91h-182l-39 -92q-4 -9 -5 -16.5t1.5 -12.5t5.5 -8.5t10.5 -6.5t12 -4.5t15.5 -4t16 -3.5v-24h-178v24q28 6 38 9.5t20 14t20 33.5l198 449h41zM180 208h150l-75 175z" />
    <glyph glyph-name="atilde.sc" 
d="M143 640h-24q-9 48 23.5 80t81.5 32q40 0 84.5 -36t76.5 -36q25 0 41 15t16 31h23q9 -48 -23.5 -80t-81.5 -32q-26 0 -49 11t-36 25t-33 25t-42 11q-25 0 -41 -15t-16 -31zM515 81q14 -32 26.5 -40.5t51.5 -16.5v-24h-265v24l18 4.5t18.5 5t13 5.5t10.5 9t2 13.5t-5 19.5
l-39 91h-182l-39 -92q-4 -9 -5 -16.5t1.5 -12.5t5.5 -8.5t10.5 -6.5t12 -4.5t15.5 -4t16 -3.5v-24h-178v24q28 6 38 9.5t20 14t20 33.5l198 449h41zM180 208h150l-75 175z" />
    <glyph glyph-name="ae.sc" horiz-adv-x="870" 
d="M814 142h29l-41 -142h-478v24q47 10 59 20q19 16 19 59v89h-196l-70 -112q-4 -7 -7 -13t-2.5 -10.5t0.5 -8t4 -6.5t6.5 -4.5t9 -4t10 -3.5t12 -3t12.5 -3v-24h-178v24q29 6 39.5 9.5t23 14.5t26.5 33l267 417q-6 2 -19.5 4.5t-15.5 3.5v24h476l9 -134h-29q-7 50 -27 73
t-71 23h-66q-59 0 -76.5 -13t-17.5 -63v-130h72q72 0 94 16t27 58h23v-184h-23q-5 42 -27 58t-94 16h-72v-136q0 -50 17.5 -63t76.5 -13h45q58 0 91.5 23t61.5 81zM227 226h175v201q0 38 -14 54z" />
    <glyph glyph-name="b.sc" horiz-adv-x="620" 
d="M426 279q157 -32 157 -135q0 -144 -284 -144h-276v24q47 10 59 20q19 16 19 59v324q0 23 -4 37t-16 22t-20 11t-29 7q-6 1 -9 2v24h276q241 0 241 -127q0 -88 -114 -124zM414 394q0 45 -25.5 71.5t-94.5 26.5q-45 0 -59.5 -11t-14.5 -38v-150h74q120 0 120 101zM316 38
q132 0 132 104q0 116 -173 116h-55v-144q0 -40 20 -58t76 -18z" />
    <glyph glyph-name="c.sc" horiz-adv-x="593" 
d="M333 -12q-128 0 -209 77.5t-81 198.5q0 122 83 200t218 78q109 0 186 -46q4 -91 7 -135h-39q-33 143 -165 143q-79 0 -119.5 -54t-40.5 -149q0 -118 59.5 -189.5t152.5 -71.5q95 0 144 53l22 -22q-32 -35 -90 -59t-128 -24z" />
    <glyph glyph-name="cacute.sc" horiz-adv-x="593" 
d="M322 598l-27 17q25 88 69 150q23 0 47.5 -18.5t32.5 -39.5q-56 -39 -122 -109zM333 -12q-128 0 -209 77.5t-81 198.5q0 122 83 200t218 78q109 0 186 -46q4 -91 7 -135h-39q-33 143 -165 143q-79 0 -119.5 -54t-40.5 -149q0 -118 59.5 -189.5t152.5 -71.5q95 0 144 53
l22 -22q-32 -35 -90 -59t-128 -24z" />
    <glyph glyph-name="ccaron.sc" horiz-adv-x="593" 
d="M324 612l-140 151l14 14l126 -88l126 88l13 -13zM333 -12q-128 0 -209 77.5t-81 198.5q0 122 83 200t218 78q109 0 186 -46q4 -91 7 -135h-39q-33 143 -165 143q-79 0 -119.5 -54t-40.5 -149q0 -118 59.5 -189.5t152.5 -71.5q95 0 144 53l22 -22q-32 -35 -90 -59
t-128 -24z" />
    <glyph glyph-name="ccedilla.sc" horiz-adv-x="593" 
d="M551 71q-31 -34 -87 -58t-123 -25l-18 -35q44 0 75.5 -21.5t31.5 -58.5q0 -39 -40.5 -62t-122.5 -23l5 24q46 0 68 13.5t22 32.5q0 44 -111 44l45 88q-113 11 -183 86.5t-70 187.5q0 122 83 200t218 78q109 0 186 -46q4 -91 7 -135h-39q-33 143 -165 143
q-79 0 -119.5 -54t-40.5 -149q0 -118 59.5 -189.5t152.5 -71.5q95 0 144 53z" />
    <glyph glyph-name="cdotaccent.sc" horiz-adv-x="593" 
d="M326 621q-27 0 -47 19t-20 45q0 27 20 45.5t47 18.5t46.5 -18.5t19.5 -45.5q0 -26 -20 -45t-46 -19zM333 -12q-128 0 -209 77.5t-81 198.5q0 122 83 200t218 78q109 0 186 -46q4 -91 7 -135h-39q-33 143 -165 143q-79 0 -119.5 -54t-40.5 -149q0 -118 59.5 -189.5
t152.5 -71.5q95 0 144 53l22 -22q-32 -35 -90 -59t-128 -24z" />
    <glyph glyph-name="d.sc" horiz-adv-x="639" 
d="M287 530q130 0 219.5 -68.5t89.5 -192.5q0 -128 -88.5 -198.5t-220.5 -70.5h-264v24q47 10 59 20q19 16 19 59v324q0 23 -4 37t-16 22t-20 11t-29 7q-6 1 -9 2v24h264zM315 38q152 0 152 221q0 234 -190 234h-57v-359q0 -53 20.5 -74.5t74.5 -21.5z" />
    <glyph glyph-name="dcaron.sc" horiz-adv-x="639" 
d="M457 764l-139 -152l-140 151l14 14l126 -88l126 88zM287 530q130 0 219.5 -68.5t89.5 -192.5q0 -128 -88.5 -198.5t-220.5 -70.5h-264v24q47 10 59 20q19 16 19 59v324q0 23 -4 37t-16 22t-20 11t-29 7q-6 1 -9 2v24h264zM315 38q152 0 152 221q0 234 -190 234h-57v-359
q0 -53 20.5 -74.5t74.5 -21.5z" />
    <glyph glyph-name="e.sc" horiz-adv-x="569" 
d="M512 142h29l-41 -142h-477v24q47 10 59 20q19 16 19 59v324q0 23 -4 37t-16 22t-20 11t-29 7q-6 1 -9 2v24h475l9 -134h-29q-7 50 -27 73t-71 23h-66q-59 0 -76.5 -13t-17.5 -63v-130h72q72 0 94 16t27 58h23v-184h-23q-5 42 -27 58t-94 16h-72v-136q0 -50 17.5 -63
t76.5 -13h45q58 0 91.5 23t61.5 81z" />
    <glyph glyph-name="eacute.sc" horiz-adv-x="569" 
d="M404 707q-56 -39 -122 -109l-27 17q25 88 69 150q23 0 47.5 -18.5t32.5 -39.5zM512 142h29l-41 -142h-477v24q47 10 59 20q19 16 19 59v324q0 23 -4 37t-16 22t-20 11t-29 7q-6 1 -9 2v24h475l9 -134h-29q-7 50 -27 73t-71 23h-66q-59 0 -76.5 -13t-17.5 -63v-130h72
q72 0 94 16t27 58h23v-184h-23q-5 42 -27 58t-94 16h-72v-136q0 -50 17.5 -63t76.5 -13h45q58 0 91.5 23t61.5 81z" />
    <glyph glyph-name="ecaron.sc" horiz-adv-x="569" 
d="M422 764l-139 -152l-140 151l14 14l126 -88l126 88zM512 142h29l-41 -142h-477v24q47 10 59 20q19 16 19 59v324q0 23 -4 37t-16 22t-20 11t-29 7q-6 1 -9 2v24h475l9 -134h-29q-7 50 -27 73t-71 23h-66q-59 0 -76.5 -13t-17.5 -63v-130h72q72 0 94 16t27 58h23v-184h-23
q-5 42 -27 58t-94 16h-72v-136q0 -50 17.5 -63t76.5 -13h45q58 0 91.5 23t61.5 81z" />
    <glyph glyph-name="ecircumflex.sc" horiz-adv-x="569" 
d="M282 701l-126 -88l-14 14l140 151l139 -152l-13 -13zM512 142h29l-41 -142h-477v24q47 10 59 20q19 16 19 59v324q0 23 -4 37t-16 22t-20 11t-29 7q-6 1 -9 2v24h475l9 -134h-29q-7 50 -27 73t-71 23h-66q-59 0 -76.5 -13t-17.5 -63v-130h72q72 0 94 16t27 58h23v-184
h-23q-5 42 -27 58t-94 16h-72v-136q0 -50 17.5 -63t76.5 -13h45q58 0 91.5 23t61.5 81z" />
    <glyph glyph-name="edieresis.sc" horiz-adv-x="569" 
d="M182 655q-23 0 -39.5 16.5t-16.5 39.5t16.5 39.5t39.5 16.5t39.5 -16.5t16.5 -39.5t-16.5 -39.5t-39.5 -16.5zM388 655q-24 0 -40 16.5t-16 39.5t16 39.5t40 16.5q23 0 39 -16.5t16 -39.5t-16 -39.5t-39 -16.5zM512 142h29l-41 -142h-477v24q47 10 59 20q19 16 19 59v324
q0 23 -4 37t-16 22t-20 11t-29 7q-6 1 -9 2v24h475l9 -134h-29q-7 50 -27 73t-71 23h-66q-59 0 -76.5 -13t-17.5 -63v-130h72q72 0 94 16t27 58h23v-184h-23q-5 42 -27 58t-94 16h-72v-136q0 -50 17.5 -63t76.5 -13h45q58 0 91.5 23t61.5 81z" />
    <glyph glyph-name="edotaccent.sc" horiz-adv-x="569" 
d="M285 621q-27 0 -47 19t-20 45q0 27 20 45.5t47 18.5t46.5 -18.5t19.5 -45.5q0 -26 -20 -45t-46 -19zM512 142h29l-41 -142h-477v24q47 10 59 20q19 16 19 59v324q0 23 -4 37t-16 22t-20 11t-29 7q-6 1 -9 2v24h475l9 -134h-29q-7 50 -27 73t-71 23h-66q-59 0 -76.5 -13
t-17.5 -63v-130h72q72 0 94 16t27 58h23v-184h-23q-5 42 -27 58t-94 16h-72v-136q0 -50 17.5 -63t76.5 -13h45q58 0 91.5 23t61.5 81z" />
    <glyph glyph-name="egrave.sc" horiz-adv-x="569" 
d="M294 598q-66 70 -122 109q8 21 32.5 39.5t47.5 18.5q44 -62 69 -150zM512 142h29l-41 -142h-477v24q47 10 59 20q19 16 19 59v324q0 23 -4 37t-16 22t-20 11t-29 7q-6 1 -9 2v24h475l9 -134h-29q-7 50 -27 73t-71 23h-66q-59 0 -76.5 -13t-17.5 -63v-130h72q72 0 94 16
t27 58h23v-184h-23q-5 42 -27 58t-94 16h-72v-136q0 -50 17.5 -63t76.5 -13h45q58 0 91.5 23t61.5 81z" />
    <glyph glyph-name="emacron.sc" horiz-adv-x="569" 
d="M433 727l-15 -41h-280l15 41h280zM512 142h29l-41 -142h-477v24q47 10 59 20q19 16 19 59v324q0 23 -4 37t-16 22t-20 11t-29 7q-6 1 -9 2v24h475l9 -134h-29q-7 50 -27 73t-71 23h-66q-59 0 -76.5 -13t-17.5 -63v-130h72q72 0 94 16t27 58h23v-184h-23q-5 42 -27 58
t-94 16h-72v-136q0 -50 17.5 -63t76.5 -13h45q58 0 91.5 23t61.5 81z" />
    <glyph glyph-name="eogonek.sc" horiz-adv-x="569" 
d="M461 0q-44 -26 -63.5 -48t-19.5 -50q0 -26 14.5 -41.5t38.5 -15.5q19 0 42 9v-19q-36 -34 -88 -34q-42 0 -69 20.5t-27 63.5q0 32 21 59l83 56h-370v24q47 10 59 20q19 16 19 59v324q0 23 -4 37t-16 22t-20 11t-29 7q-6 1 -9 2v24h475l9 -134h-29q-7 50 -27 73t-71 23
h-66q-59 0 -76.5 -13t-17.5 -63v-130h72q72 0 94 16t27 58h23v-184h-23q-5 42 -27 58t-94 16h-72v-136q0 -50 17.5 -63t76.5 -13h45q58 0 91.5 23t61.5 81h29l-41 -142h-39z" />
    <glyph glyph-name="uni1EBD.sc" horiz-adv-x="569" 
d="M132 640h-24q-9 48 23.5 80t81.5 32q40 0 84.5 -36t76.5 -36q25 0 41 15t16 31h23q9 -48 -23.5 -80t-81.5 -32q-26 0 -49 11t-36 25t-33 25t-42 11q-25 0 -41 -15t-16 -31zM512 142h29l-41 -142h-477v24q47 10 59 20q19 16 19 59v324q0 23 -4 37t-16 22t-20 11t-29 7
q-6 1 -9 2v24h475l9 -134h-29q-7 50 -27 73t-71 23h-66q-59 0 -76.5 -13t-17.5 -63v-130h72q72 0 94 16t27 58h23v-184h-23q-5 42 -27 58t-94 16h-72v-136q0 -50 17.5 -63t76.5 -13h45q58 0 91.5 23t61.5 81z" />
    <glyph glyph-name="f.sc" horiz-adv-x="535" 
d="M498 530l9 -134h-29q-7 50 -27 73t-71 23h-66q-59 0 -76.5 -13t-17.5 -63v-130h72q72 0 94 16t27 58h23v-184h-23q-5 42 -27 58t-94 16h-72v-136q0 -26 5 -42.5t17.5 -26t24.5 -13t36 -8.5v-24h-280v24q47 10 59 20q19 16 19 59v324q0 23 -4 37t-16 22t-20 11t-29 7
q-6 1 -9 2v24h475z" />
    <glyph glyph-name="g.sc" horiz-adv-x="658" 
d="M352 -12q-142 0 -225.5 76.5t-83.5 199.5q0 122 84.5 200t220.5 78q109 0 186 -46q4 -91 7 -135h-39q-34 143 -167 143q-79 0 -120.5 -54t-41.5 -151q0 -117 53.5 -195t137.5 -78q90 0 90 103v31q0 59 -20.5 77.5t-81.5 23.5v28h268v-28q-33 -5 -48.5 -18.5t-15.5 -44.5
v-37q0 -67 17 -118q-29 -22 -91.5 -38.5t-129.5 -16.5z" />
    <glyph glyph-name="gbreve.sc" horiz-adv-x="658" 
d="M340 634q-67 0 -105.5 37t-38.5 98h26q14 -66 118 -66q103 0 118 66h25q0 -61 -38 -98t-105 -37zM352 -12q-142 0 -225.5 76.5t-83.5 199.5q0 122 84.5 200t220.5 78q109 0 186 -46q4 -91 7 -135h-39q-34 143 -167 143q-79 0 -120.5 -54t-41.5 -151q0 -117 53.5 -195
t137.5 -78q90 0 90 103v31q0 59 -20.5 77.5t-81.5 23.5v28h268v-28q-33 -5 -48.5 -18.5t-15.5 -44.5v-37q0 -67 17 -118q-29 -22 -91.5 -38.5t-129.5 -16.5z" />
    <glyph glyph-name="uni0123.sc" horiz-adv-x="658" 
d="M352 -12q-142 0 -225.5 76.5t-83.5 199.5q0 122 84.5 200t220.5 78q109 0 186 -46q4 -91 7 -135h-39q-34 143 -167 143q-79 0 -120.5 -54t-41.5 -151q0 -117 53.5 -195t137.5 -78q90 0 90 103v31q0 59 -20.5 77.5t-81.5 23.5v28h268v-28q-33 -5 -48.5 -18.5t-15.5 -44.5
v-37q0 -67 17 -118q-29 -22 -91.5 -38.5t-129.5 -16.5zM261 -332l-9 23q74 28 88 84q7 25 -20 40q-39 23 -39 61q0 28 19.5 47t48.5 19q30 0 51.5 -23.5t21.5 -64.5q0 -59 -43 -113.5t-118 -72.5z" />
    <glyph glyph-name="gdotaccent.sc" horiz-adv-x="658" 
d="M340 621q-27 0 -47 19t-20 45q0 27 20 45.5t47 18.5t46.5 -18.5t19.5 -45.5q0 -26 -20 -45t-46 -19zM352 -12q-142 0 -225.5 76.5t-83.5 199.5q0 122 84.5 200t220.5 78q109 0 186 -46q4 -91 7 -135h-39q-34 143 -167 143q-79 0 -120.5 -54t-41.5 -151q0 -117 53.5 -195
t137.5 -78q90 0 90 103v31q0 59 -20.5 77.5t-81.5 23.5v28h268v-28q-33 -5 -48.5 -18.5t-15.5 -44.5v-37q0 -67 17 -118q-29 -22 -91.5 -38.5t-129.5 -16.5z" />
    <glyph glyph-name="h.sc" horiz-adv-x="682" 
d="M660 506q-47 -10 -59 -20q-19 -16 -19 -59v-324q0 -23 4 -37t16 -22t20 -11t29 -7q6 -1 9 -2v-24h-276v24q47 10 59 20q19 16 19 59v144h-242v-144q0 -23 4 -37t16 -22t20 -11t29 -7q6 -1 9 -2v-24h-275v24q47 10 59 20q19 16 19 59v324q0 23 -4 37t-16 22t-20 11t-29 7
q-6 1 -9 2v24h275v-24q-47 -10 -59 -20q-19 -16 -19 -59v-144h242v144q0 23 -4 37t-16 22t-20 11t-29 7q-6 1 -9 2v24h276v-24z" />
    <glyph glyph-name="hbar.sc" horiz-adv-x="682" 
d="M660 506q-47 -10 -59 -20q-19 -16 -19 -59v-324q0 -23 4 -37t16 -22t20 -11t29 -7q6 -1 9 -2v-24h-276v24q47 10 59 20q19 16 19 59v144h-242v-144q0 -23 4 -37t16 -22t20 -11t29 -7q6 -1 9 -2v-24h-275v24q47 10 59 20q19 16 19 59v324q0 23 -4 37t-16 22t-20 11t-29 7
q-6 1 -9 2v24h275v-24q-47 -10 -59 -20q-19 -16 -19 -59v-43h242v43q0 23 -4 37t-16 22t-20 11t-29 7q-6 1 -9 2v24h276v-24zM220 283h242v65h-242v-65z" />
    <glyph glyph-name="i.sc" horiz-adv-x="324" 
d="M24 0v24q47 10 59 20q19 16 19 59v324q0 23 -4 37t-16 22t-20 11t-29 7q-6 1 -9 2v24h276v-24q-47 -10 -59 -20q-19 -16 -19 -59v-324q0 -23 4 -37t16 -22t20 -11t29 -7q6 -1 9 -2v-24h-276z" />
    <glyph glyph-name="iacute.sc" horiz-adv-x="324" 
d="M159 598l-27 17q25 88 69 150q23 0 47.5 -18.5t32.5 -39.5q-56 -39 -122 -109zM24 0v24q47 10 59 20q19 16 19 59v324q0 23 -4 37t-16 22t-20 11t-29 7q-6 1 -9 2v24h276v-24q-47 -10 -59 -20q-19 -16 -19 -59v-324q0 -23 4 -37t16 -22t20 -11t29 -7q6 -1 9 -2v-24h-276z
" />
    <glyph glyph-name="icircumflex.sc" horiz-adv-x="324" 
d="M160 778l139 -152l-13 -13l-126 88l-126 -88l-14 14zM24 0v24q47 10 59 20q19 16 19 59v324q0 23 -4 37t-16 22t-20 11t-29 7q-6 1 -9 2v24h276v-24q-47 -10 -59 -20q-19 -16 -19 -59v-324q0 -23 4 -37t16 -22t20 -11t29 -7q6 -1 9 -2v-24h-276z" />
    <glyph glyph-name="idieresis.sc" horiz-adv-x="324" 
d="M59 655q-23 0 -39.5 16.5t-16.5 39.5t16.5 39.5t39.5 16.5t39.5 -16.5t16.5 -39.5t-16.5 -39.5t-39.5 -16.5zM265 655q-24 0 -40 16.5t-16 39.5t16 39.5t40 16.5q23 0 39 -16.5t16 -39.5t-16 -39.5t-39 -16.5zM24 0v24q47 10 59 20q19 16 19 59v324q0 23 -4 37t-16 22
t-20 11t-29 7q-6 1 -9 2v24h276v-24q-47 -10 -59 -20q-19 -16 -19 -59v-324q0 -23 4 -37t16 -22t20 -11t29 -7q6 -1 9 -2v-24h-276z" />
    <glyph glyph-name="i.sc.loclTRK" horiz-adv-x="324" 
d="M163 621q-27 0 -47 19t-20 45q0 27 20 45.5t47 18.5t46.5 -18.5t19.5 -45.5q0 -26 -20 -45t-46 -19zM24 0v24q47 10 59 20q19 16 19 59v324q0 23 -4 37t-16 22t-20 11t-29 7q-6 1 -9 2v24h276v-24q-47 -10 -59 -20q-19 -16 -19 -59v-324q0 -23 4 -37t16 -22t20 -11t29 -7
q6 -1 9 -2v-24h-276z" />
    <glyph glyph-name="igrave.sc" horiz-adv-x="324" 
d="M172 598q-66 70 -122 109q8 21 32.5 39.5t47.5 18.5q44 -62 69 -150zM24 0v24q47 10 59 20q19 16 19 59v324q0 23 -4 37t-16 22t-20 11t-29 7q-6 1 -9 2v24h276v-24q-47 -10 -59 -20q-19 -16 -19 -59v-324q0 -23 4 -37t16 -22t20 -11t29 -7q6 -1 9 -2v-24h-276z" />
    <glyph glyph-name="ij.sc" horiz-adv-x="656" 
d="M24 0v24q47 10 59 20q19 16 19 59v324q0 23 -4 37t-16 22t-20 11t-29 7q-6 1 -9 2v24h276v-24q-47 -10 -59 -20q-19 -16 -19 -59v-324q0 -23 4 -37t16 -22t20 -11t29 -7q6 -1 9 -2v-24h-276zM326 -185q-9 15 0 29q68 24 86.5 56.5t18.5 111.5v415q0 23 -3.5 37t-18 22.5
t-20.5 10.5t-34 7q-2 1 -4 1.5t-4 0.5v24h287v-24q-51 -10 -64 -20q-19 -16 -19 -59v-425q0 -46 -19 -80t-54 -55t-70 -32t-82 -20z" />
    <glyph glyph-name="imacron.sc" horiz-adv-x="324" 
d="M15 686l15 41h280l-15 -41h-280zM24 0v24q47 10 59 20q19 16 19 59v324q0 23 -4 37t-16 22t-20 11t-29 7q-6 1 -9 2v24h276v-24q-47 -10 -59 -20q-19 -16 -19 -59v-324q0 -23 4 -37t16 -22t20 -11t29 -7q6 -1 9 -2v-24h-276z" />
    <glyph glyph-name="iogonek.sc" horiz-adv-x="324" 
d="M300 506q-47 -10 -59 -20q-19 -16 -19 -59v-324q0 -23 4 -37t16 -22t20 -11t29 -7q6 -1 9 -2v-24h-78q-44 -26 -63.5 -48t-19.5 -50q0 -26 14.5 -41.5t38.5 -15.5q19 0 42 9v-19q-36 -34 -88 -34q-42 0 -69 20.5t-27 63.5q0 32 21 59l83 56h-130v24q47 10 59 20
q19 16 19 59v324q0 23 -4 37t-16 22t-20 11t-29 7q-6 1 -9 2v24h276v-24z" />
    <glyph glyph-name="j.sc" horiz-adv-x="332" 
d="M2 -185q-10 15 0 29q68 24 86.5 56.5t18.5 111.5v415q0 23 -3.5 37t-18 22.5t-20.5 10.5t-34 7q-5 1 -8 2v24h287v-24q-51 -10 -64 -20q-19 -16 -19 -59v-425q0 -46 -19 -80t-54 -55t-70 -32t-82 -20z" />
    <glyph glyph-name="k.sc" horiz-adv-x="624" 
d="M534 54q12 -18 28.5 -24t54.5 -6v-24h-199q0 22 -32 69l-123 182l-43 -45v-103q0 -23 4 -37t16 -22t20 -11t29 -7q6 -1 9 -2v-24h-275v24q47 10 59 20q19 16 19 59v324q0 23 -4 37t-16 22t-20 11t-29 7q-6 1 -9 2v24h275v-24q-47 -10 -59 -20q-19 -16 -19 -59v-163
l183 193q21 23 12 36t-45 13v24h211v-24q-46 0 -70.5 -11.5t-49.5 -37.5l-120 -124z" />
    <glyph glyph-name="uni0137.sc" horiz-adv-x="624" 
d="M534 54q12 -18 28.5 -24t54.5 -6v-24h-199q0 22 -32 69l-123 182l-43 -45v-103q0 -23 4 -37t16 -22t20 -11t29 -7q6 -1 9 -2v-24h-275v24q47 10 59 20q19 16 19 59v324q0 23 -4 37t-16 22t-20 11t-29 7q-6 1 -9 2v24h275v-24q-47 -10 -59 -20q-19 -16 -19 -59v-163
l183 193q21 23 12 36t-45 13v24h211v-24q-46 0 -70.5 -11.5t-49.5 -37.5l-120 -124zM324 -58q30 0 51.5 -23.5t21.5 -64.5q0 -59 -43 -113.5t-118 -72.5l-9 23q74 28 88 84q7 25 -20 40q-39 23 -39 61q0 28 19.5 47t48.5 19z" />
    <glyph glyph-name="l.sc" horiz-adv-x="549" 
d="M23 0v24q47 10 59 20q19 16 19 59v324q0 23 -4 37t-16 22t-20 11t-29 7q-6 1 -9 2v24h281v-24q-50 -11 -62 -20q-22 -16 -22 -59v-312q0 -50 16.5 -63t71.5 -13h36q60 0 93 25t60 94h30l-41 -158h-463z" />
    <glyph glyph-name="lacute.sc" horiz-adv-x="549" 
d="M160 598l-27 17q25 88 69 150q23 0 47.5 -18.5t32.5 -39.5q-56 -39 -122 -109zM23 0v24q47 10 59 20q19 16 19 59v324q0 23 -4 37t-16 22t-20 11t-29 7q-6 1 -9 2v24h281v-24q-50 -11 -62 -20q-22 -16 -22 -59v-312q0 -50 16.5 -63t71.5 -13h36q60 0 93 25t60 94h30
l-41 -158h-463z" />
    <glyph glyph-name="lcaron.sc" horiz-adv-x="549" 
d="M162 612l-140 151l14 14l126 -88l126 88l13 -13zM23 0v24q47 10 59 20q19 16 19 59v324q0 23 -4 37t-16 22t-20 11t-29 7q-6 1 -9 2v24h281v-24q-50 -11 -62 -20q-22 -16 -22 -59v-312q0 -50 16.5 -63t71.5 -13h36q60 0 93 25t60 94h30l-41 -158h-463z" />
    <glyph glyph-name="uni013C.sc" horiz-adv-x="549" 
d="M23 0v24q47 10 59 20q19 16 19 59v324q0 23 -4 37t-16 22t-20 11t-29 7q-6 1 -9 2v24h281v-24q-50 -11 -62 -20q-22 -16 -22 -59v-312q0 -50 16.5 -63t71.5 -13h36q60 0 93 25t60 94h30l-41 -158h-463zM184 -332l-9 23q74 28 88 84q7 25 -20 40q-39 23 -39 61
q0 28 19.5 47t48.5 19q30 0 51.5 -23.5t21.5 -64.5q0 -59 -43 -113.5t-118 -72.5z" />
    <glyph glyph-name="ldot.sc" horiz-adv-x="600" 
d="M23 0v24q47 10 59 20q19 16 19 59v324q0 23 -4 37t-16 22t-20 11t-29 7q-6 1 -9 2v24h281v-24q-50 -11 -62 -20q-22 -16 -22 -59v-312q0 -50 16.5 -63t71.5 -13h36q60 0 93 25t60 94h30l-41 -158h-463zM350 201q-28 0 -48 20t-20 48q0 27 20 46.5t48 19.5t48 -19.5
t20 -46.5q0 -28 -20 -48t-48 -20z" />
    <glyph glyph-name="lslash.sc" horiz-adv-x="549" 
d="M497 158h30l-41 -158h-463v24q47 10 59 20q19 16 19 59v116q-35 -13 -76 -29v41l76 22v174q0 23 -4 37t-16 22t-20 11t-29 7q-6 1 -9 2v24h281v-24q-50 -11 -62 -20q-22 -16 -22 -59v-135q94 32 157 58v-41q-93 -27 -157 -49v-145q0 -50 16.5 -63t71.5 -13h36q60 0 93 25
t60 94z" />
    <glyph glyph-name="m.sc" horiz-adv-x="780" 
d="M679 103q1 -24 5.5 -38.5t19 -22.5t21.5 -10t33 -8v-24h-276v24q49 10 60 20q20 17 18 59l-15 346l-175 -449h-30l-179 410l-15 -307q-1 -30 9.5 -46.5t23 -21t41.5 -9.5q7 -1 10 -2v-24h-207v24q48 10 60 21q18 16 20 58l17 324q0 10 -1 18.5t-1.5 14.5t-4.5 11.5
t-5.5 9t-8.5 7.5t-8.5 5.5t-11.5 4t-11.5 3t-13.5 3t-13 2.5v24h195q2 -10 6 -21.5t13 -29.5t12 -26l126 -288l111 288q25 66 27 77h209v-24q-48 -10 -60 -20q-19 -16 -17 -59z" />
    <glyph glyph-name="n.sc" horiz-adv-x="648" 
d="M417 530h208v-24q-42 -4 -61 -18.5t-19 -60.5v-427h-50l-350 441v-338q0 -23 4 -37t17.5 -22.5t21.5 -10.5t33 -7q6 -1 9 -2v-24h-207v24q48 10 60 20q20 17 20 59v324q0 23 -4 37t-16.5 22t-20.5 11t-30 7q-6 1 -9 2v24h190l290 -350v247q0 46 -20 60.5t-66 18.5v24z
" />
    <glyph glyph-name="nacute.sc" horiz-adv-x="648" 
d="M443 707q-56 -39 -122 -109l-27 17q25 88 69 150q23 0 47.5 -18.5t32.5 -39.5zM417 530h208v-24q-42 -4 -61 -18.5t-19 -60.5v-427h-50l-350 441v-338q0 -23 4 -37t17.5 -22.5t21.5 -10.5t33 -7q6 -1 9 -2v-24h-207v24q48 10 60 20q20 17 20 59v324q0 23 -4 37t-16.5 22
t-20.5 11t-30 7q-6 1 -9 2v24h190l290 -350v247q0 46 -20 60.5t-66 18.5v24z" />
    <glyph glyph-name="ncaron.sc" horiz-adv-x="648" 
d="M462 764l-139 -152l-140 151l14 14l126 -88l126 88zM417 530h208v-24q-42 -4 -61 -18.5t-19 -60.5v-427h-50l-350 441v-338q0 -23 4 -37t17.5 -22.5t21.5 -10.5t33 -7q6 -1 9 -2v-24h-207v24q48 10 60 20q20 17 20 59v324q0 23 -4 37t-16.5 22t-20.5 11t-30 7q-6 1 -9 2
v24h190l290 -350v247q0 46 -20 60.5t-66 18.5v24z" />
    <glyph glyph-name="uni0146.sc" horiz-adv-x="648" 
d="M417 530h208v-24q-42 -4 -61 -18.5t-19 -60.5v-427h-50l-350 441v-338q0 -23 4 -37t17.5 -22.5t21.5 -10.5t33 -7q6 -1 9 -2v-24h-207v24q48 10 60 20q20 17 20 59v324q0 23 -4 37t-16.5 22t-20.5 11t-30 7q-6 1 -9 2v24h190l290 -350v247q0 46 -20 60.5t-66 18.5v24z
M334 -58q30 0 51.5 -23.5t21.5 -64.5q0 -59 -43 -113.5t-118 -72.5l-9 23q74 28 88 84q7 25 -20 40q-39 23 -39 61q0 28 19.5 47t48.5 19z" />
    <glyph glyph-name="ntilde.sc" horiz-adv-x="648" 
d="M172 640h-24q-9 48 23.5 80t81.5 32q40 0 84.5 -36t76.5 -36q25 0 41 15t16 31h23q9 -48 -23.5 -80t-81.5 -32q-26 0 -49 11t-36 25t-33 25t-42 11q-25 0 -41 -15t-16 -31zM417 530h208v-24q-42 -4 -61 -18.5t-19 -60.5v-427h-50l-350 441v-338q0 -23 4 -37t17.5 -22.5
t21.5 -10.5t33 -7q6 -1 9 -2v-24h-207v24q48 10 60 20q20 17 20 59v324q0 23 -4 37t-16.5 22t-20.5 11t-30 7q-6 1 -9 2v24h190l290 -350v247q0 46 -20 60.5t-66 18.5v24z" />
    <glyph glyph-name="o.sc" horiz-adv-x="665" 
d="M331 -12q-130 0 -209 79t-79 195q0 117 80 198.5t212 81.5q130 0 209 -79t79 -196t-80 -198t-212 -81zM348 26q70 0 108.5 57.5t38.5 153.5q0 116 -47.5 191.5t-129.5 75.5q-71 0 -109.5 -57.5t-38.5 -154.5q0 -115 47.5 -190.5t130.5 -75.5z" />
    <glyph glyph-name="oacute.sc" horiz-adv-x="665" 
d="M330 598l-27 17q25 88 69 150q23 0 47.5 -18.5t32.5 -39.5q-56 -39 -122 -109zM331 -12q-130 0 -209 79t-79 195q0 117 80 198.5t212 81.5q130 0 209 -79t79 -196t-80 -198t-212 -81zM348 26q70 0 108.5 57.5t38.5 153.5q0 116 -47.5 191.5t-129.5 75.5
q-71 0 -109.5 -57.5t-38.5 -154.5q0 -115 47.5 -190.5t130.5 -75.5z" />
    <glyph glyph-name="ocircumflex.sc" horiz-adv-x="665" 
d="M330 778l139 -152l-13 -13l-126 88l-126 -88l-14 14zM331 -12q-130 0 -209 79t-79 195q0 117 80 198.5t212 81.5q130 0 209 -79t79 -196t-80 -198t-212 -81zM348 26q70 0 108.5 57.5t38.5 153.5q0 116 -47.5 191.5t-129.5 75.5q-71 0 -109.5 -57.5t-38.5 -154.5
q0 -115 47.5 -190.5t130.5 -75.5z" />
    <glyph glyph-name="odieresis.sc" horiz-adv-x="665" 
d="M230 655q-23 0 -39.5 16.5t-16.5 39.5t16.5 39.5t39.5 16.5t39.5 -16.5t16.5 -39.5t-16.5 -39.5t-39.5 -16.5zM436 655q-24 0 -40 16.5t-16 39.5t16 39.5t40 16.5q23 0 39 -16.5t16 -39.5t-16 -39.5t-39 -16.5zM331 -12q-130 0 -209 79t-79 195q0 117 80 198.5t212 81.5
q130 0 209 -79t79 -196t-80 -198t-212 -81zM348 26q70 0 108.5 57.5t38.5 153.5q0 116 -47.5 191.5t-129.5 75.5q-71 0 -109.5 -57.5t-38.5 -154.5q0 -115 47.5 -190.5t130.5 -75.5z" />
    <glyph glyph-name="ograve.sc" horiz-adv-x="665" 
d="M342 598q-66 70 -122 109q8 21 32.5 39.5t47.5 18.5q44 -62 69 -150zM331 -12q-130 0 -209 79t-79 195q0 117 80 198.5t212 81.5q130 0 209 -79t79 -196t-80 -198t-212 -81zM348 26q70 0 108.5 57.5t38.5 153.5q0 116 -47.5 191.5t-129.5 75.5q-71 0 -109.5 -57.5
t-38.5 -154.5q0 -115 47.5 -190.5t130.5 -75.5z" />
    <glyph glyph-name="ohungarumlaut.sc" horiz-adv-x="665" 
d="M224 598l-27 17q25 88 69 150q23 0 47.5 -18.5t32.5 -39.5q-56 -39 -122 -109zM388 598l-27 17q25 88 69 150q23 0 47.5 -18.5t32.5 -39.5q-56 -39 -122 -109zM331 -12q-130 0 -209 79t-79 195q0 117 80 198.5t212 81.5q130 0 209 -79t79 -196t-80 -198t-212 -81zM348 26
q70 0 108.5 57.5t38.5 153.5q0 116 -47.5 191.5t-129.5 75.5q-71 0 -109.5 -57.5t-38.5 -154.5q0 -115 47.5 -190.5t130.5 -75.5z" />
    <glyph glyph-name="omacron.sc" horiz-adv-x="665" 
d="M186 686l15 41h280l-15 -41h-280zM331 -12q-130 0 -209 79t-79 195q0 117 80 198.5t212 81.5q130 0 209 -79t79 -196t-80 -198t-212 -81zM348 26q70 0 108.5 57.5t38.5 153.5q0 116 -47.5 191.5t-129.5 75.5q-71 0 -109.5 -57.5t-38.5 -154.5q0 -115 47.5 -190.5
t130.5 -75.5z" />
    <glyph glyph-name="oslash.sc" horiz-adv-x="665" 
d="M491 503q63 -36 97.5 -98.5t34.5 -137.5q0 -117 -80 -198t-212 -81q-81 0 -142 32l-43 -69l-20 13l42 67q-59 37 -92 97.5t-33 133.5q0 117 80 198.5t212 81.5q74 0 135 -28l50 80l20 -13zM170 292q0 -114 45 -186l216 345q-47 53 -113 53q-71 0 -109.5 -57.5
t-38.5 -154.5zM348 26q70 0 108.5 57.5t38.5 153.5q0 119 -49 194l-216 -346q46 -59 118 -59z" />
    <glyph glyph-name="otilde.sc" horiz-adv-x="665" 
d="M397 614q-26 0 -49 11t-36 25t-33 25t-42 11q-25 0 -41 -15t-16 -31h-24q-9 48 23.5 80t81.5 32q40 0 84.5 -36t76.5 -36q25 0 41 15t16 31h23q9 -48 -23.5 -80t-81.5 -32zM331 -12q-130 0 -209 79t-79 195q0 117 80 198.5t212 81.5q130 0 209 -79t79 -196t-80 -198
t-212 -81zM348 26q70 0 108.5 57.5t38.5 153.5q0 116 -47.5 191.5t-129.5 75.5q-71 0 -109.5 -57.5t-38.5 -154.5q0 -115 47.5 -190.5t130.5 -75.5z" />
    <glyph glyph-name="oe.sc" horiz-adv-x="958" 
d="M931 142l-41 -142h-464q-42 -12 -95 -12q-130 0 -209 79t-79 195q0 117 80 198.5t212 81.5q53 0 95 -12h458l9 -134h-29q-7 50 -27 73t-71 23h-66q-59 0 -76.5 -13t-17.5 -63v-130h72q72 0 94 16t27 58h23v-184h-23q-5 42 -27 58t-94 16h-72v-136q0 -50 17.5 -63
t76.5 -13h45q58 0 91.5 23t61.5 81h29zM170 292q0 -115 47.5 -190.5t130.5 -75.5q70 0 106 57t36 154q0 117 -45 192t-127 75q-71 0 -109.5 -57.5t-38.5 -154.5z" />
    <glyph glyph-name="p.sc" horiz-adv-x="585" 
d="M23 0v24q47 10 59 20q19 16 19 59v324q0 23 -4 37t-16 22t-20 11t-29 7q-6 1 -9 2v24h260q122 0 195 -44.5t73 -140.5q0 -98 -76.5 -149.5t-209.5 -51.5q-12 0 -12 18.5t12 18.5q158 0 158 158q0 153 -135 153q-39 0 -53.5 -11t-14.5 -35v-343q0 -23 4 -37t16 -22t20 -11
t29 -7q6 -1 9 -2v-24h-275z" />
    <glyph glyph-name="q.sc" horiz-adv-x="702" 
d="M768 -82q17 -3 17 -22q-77 -71 -169 -71q-66 0 -132 40l-172 105q-20 12 -65 28q-95 24 -149.5 96.5t-54.5 167.5q0 117 80 198.5t212 81.5q130 0 209 -79t79 -196q0 -93 -53.5 -166.5t-145.5 -100.5q33 -6 67 -26l66 -41q76 -46 124 -46q45 0 87 31zM318 504
q-71 0 -109.5 -57.5t-38.5 -154.5q0 -115 47.5 -190.5t130.5 -75.5q70 0 108.5 57.5t38.5 153.5q0 116 -47.5 191.5t-129.5 75.5z" />
    <glyph glyph-name="r.sc" horiz-adv-x="616" 
d="M477 115q63 -111 127 -90v-25q-24 -16 -72 -16q-60 0 -100 24t-69 75l-41 70q-22 39 -45 56.5t-57 22.5v-129q0 -23 4 -37t16 -22t20 -11t29 -7q6 -1 9 -2v-24h-275v24q47 10 59 20q19 16 19 59v324q0 23 -4 37t-16 22t-20 11t-29 7q-6 1 -9 2v24h256q135 0 202 -32
t67 -112q0 -63 -43 -98.5t-131 -46.5q22 -8 39 -25.5t35 -48.5zM284 492q-37 0 -50.5 -11t-13.5 -35v-174h49q88 0 120.5 28.5t32.5 78.5q0 113 -138 113z" />
    <glyph glyph-name="racute.sc" horiz-adv-x="616" 
d="M418 707q-56 -39 -122 -109l-27 17q25 88 69 150q23 0 47.5 -18.5t32.5 -39.5zM477 115q63 -111 127 -90v-25q-24 -16 -72 -16q-60 0 -100 24t-69 75l-41 70q-22 39 -45 56.5t-57 22.5v-129q0 -23 4 -37t16 -22t20 -11t29 -7q6 -1 9 -2v-24h-275v24q47 10 59 20
q19 16 19 59v324q0 23 -4 37t-16 22t-20 11t-29 7q-6 1 -9 2v24h256q135 0 202 -32t67 -112q0 -63 -43 -98.5t-131 -46.5q22 -8 39 -25.5t35 -48.5zM284 492q-37 0 -50.5 -11t-13.5 -35v-174h49q88 0 120.5 28.5t32.5 78.5q0 113 -138 113z" />
    <glyph glyph-name="rcaron.sc" horiz-adv-x="616" 
d="M437 764l-139 -152l-140 151l14 14l126 -88l126 88zM477 115q63 -111 127 -90v-25q-24 -16 -72 -16q-60 0 -100 24t-69 75l-41 70q-22 39 -45 56.5t-57 22.5v-129q0 -23 4 -37t16 -22t20 -11t29 -7q6 -1 9 -2v-24h-275v24q47 10 59 20q19 16 19 59v324q0 23 -4 37t-16 22
t-20 11t-29 7q-6 1 -9 2v24h256q135 0 202 -32t67 -112q0 -63 -43 -98.5t-131 -46.5q22 -8 39 -25.5t35 -48.5zM284 492q-37 0 -50.5 -11t-13.5 -35v-174h49q88 0 120.5 28.5t32.5 78.5q0 113 -138 113z" />
    <glyph glyph-name="uni0157.sc" horiz-adv-x="616" 
d="M477 115q63 -111 127 -90v-25q-24 -16 -72 -16q-60 0 -100 24t-69 75l-41 70q-22 39 -45 56.5t-57 22.5v-129q0 -23 4 -37t16 -22t20 -11t29 -7q6 -1 9 -2v-24h-275v24q47 10 59 20q19 16 19 59v324q0 23 -4 37t-16 22t-20 11t-29 7q-6 1 -9 2v24h256q135 0 202 -32
t67 -112q0 -63 -43 -98.5t-131 -46.5q22 -8 39 -25.5t35 -48.5zM284 492q-37 0 -50.5 -11t-13.5 -35v-174h49q88 0 120.5 28.5t32.5 78.5q0 113 -138 113zM316 -58q30 0 51.5 -23.5t21.5 -64.5q0 -59 -43 -113.5t-118 -72.5l-9 23q74 28 88 84q7 25 -20 40q-39 23 -39 61
q0 28 19.5 47t48.5 19z" />
    <glyph glyph-name="s.sc" horiz-adv-x="469" 
d="M225 -12q-97 0 -176 53l-6 109h26q18 -59 57 -93t93 -34q46 0 72.5 24.5t26.5 62.5q0 37 -26 61.5t-85 50.5q-37 16 -61.5 30.5t-49.5 35.5t-37.5 49t-12.5 63q0 64 49 103t136 39q22 0 42.5 -3t34 -6.5t30 -11t22.5 -10.5t19 -11.5t14 -8.5l3 -111h-26q-36 127 -132 127
q-44 0 -64.5 -21t-20.5 -53q0 -30 22 -52.5t80 -48.5q30 -14 37.5 -17t33.5 -16.5t35 -21t27 -23.5t24.5 -30t13 -34t6.5 -43q0 -72 -58 -115.5t-149 -43.5z" />
    <glyph glyph-name="sacute.sc" horiz-adv-x="469" 
d="M229 598l-27 17q25 88 69 150q23 0 47.5 -18.5t32.5 -39.5q-56 -39 -122 -109zM225 -12q-97 0 -176 53l-6 109h26q18 -59 57 -93t93 -34q46 0 72.5 24.5t26.5 62.5q0 37 -26 61.5t-85 50.5q-37 16 -61.5 30.5t-49.5 35.5t-37.5 49t-12.5 63q0 64 49 103t136 39
q22 0 42.5 -3t34 -6.5t30 -11t22.5 -10.5t19 -11.5t14 -8.5l3 -111h-26q-36 127 -132 127q-44 0 -64.5 -21t-20.5 -53q0 -30 22 -52.5t80 -48.5q30 -14 37.5 -17t33.5 -16.5t35 -21t27 -23.5t24.5 -30t13 -34t6.5 -43q0 -72 -58 -115.5t-149 -43.5z" />
    <glyph glyph-name="scaron.sc" horiz-adv-x="469" 
d="M230 612l-140 151l14 14l126 -88l126 88l13 -13zM225 -12q-97 0 -176 53l-6 109h26q18 -59 57 -93t93 -34q46 0 72.5 24.5t26.5 62.5q0 37 -26 61.5t-85 50.5q-37 16 -61.5 30.5t-49.5 35.5t-37.5 49t-12.5 63q0 64 49 103t136 39q22 0 42.5 -3t34 -6.5t30 -11
t22.5 -10.5t19 -11.5t14 -8.5l3 -111h-26q-36 127 -132 127q-44 0 -64.5 -21t-20.5 -53q0 -30 22 -52.5t80 -48.5q30 -14 37.5 -17t33.5 -16.5t35 -21t27 -23.5t24.5 -30t13 -34t6.5 -43q0 -72 -58 -115.5t-149 -43.5z" />
    <glyph glyph-name="scedilla.sc" horiz-adv-x="469" 
d="M432 147q0 -65 -48.5 -107t-126.5 -50l-19 -37q44 0 75.5 -21.5t31.5 -58.5q0 -39 -40.5 -62t-122.5 -23l5 24q46 0 68 13.5t22 32.5q0 44 -111 44l44 86q-86 4 -161 53l-6 109h26q18 -59 57 -93t93 -34q46 0 72.5 24.5t26.5 62.5q0 37 -26 61.5t-85 50.5
q-37 16 -61.5 30.5t-49.5 35.5t-37.5 49t-12.5 63q0 64 49 103t136 39q22 0 42.5 -3t34 -6.5t30 -11t22.5 -10.5t19 -11.5t14 -8.5l3 -111h-26q-36 127 -132 127q-44 0 -64.5 -21t-20.5 -53q0 -30 22 -52.5t80 -48.5q30 -14 37.5 -17t33.5 -16.5t35 -21t27 -23.5t24.5 -30
t13 -34t6.5 -43z" />
    <glyph glyph-name="uni0219.sc" horiz-adv-x="469" 
d="M225 -12q-97 0 -176 53l-6 109h26q18 -59 57 -93t93 -34q46 0 72.5 24.5t26.5 62.5q0 37 -26 61.5t-85 50.5q-37 16 -61.5 30.5t-49.5 35.5t-37.5 49t-12.5 63q0 64 49 103t136 39q22 0 42.5 -3t34 -6.5t30 -11t22.5 -10.5t19 -11.5t14 -8.5l3 -111h-26q-36 127 -132 127
q-44 0 -64.5 -21t-20.5 -53q0 -30 22 -52.5t80 -48.5q30 -14 37.5 -17t33.5 -16.5t35 -21t27 -23.5t24.5 -30t13 -34t6.5 -43q0 -72 -58 -115.5t-149 -43.5zM156 -332l-9 23q74 28 88 84q7 25 -20 40q-39 23 -39 61q0 28 19.5 47t48.5 19q30 0 51.5 -23.5t21.5 -64.5
q0 -59 -43 -113.5t-118 -72.5z" />
    <glyph glyph-name="germandbls.sc" horiz-adv-x="718" 
d="M484 307q86 -11 141 -52.5t55 -107.5q0 -71 -63.5 -119t-158.5 -48q-76 0 -132 32q-2 55 -17 122h27q29 -70 56 -97t62 -27q44 0 76.5 31t32.5 82q0 69 -63 112t-170 43l162 203q-46 23 -104 23q-162 0 -162 -188v-213q0 -24 3.5 -38.5t15 -22.5t17 -10t27.5 -8v-24h-266
v24q51 10 64 20q19 16 19 59v209q0 230 249 230q124 0 268 -62z" />
    <glyph glyph-name="t.sc" horiz-adv-x="564" 
d="M534 540l8 -177h-23q-11 70 -39.5 101.5t-97.5 31.5h-40v-393q0 -24 4.5 -38.5t20.5 -22.5t25 -10.5t40 -7.5v-24h-299v24q56 10 70 20q20 16 20 59v393h-38q-71 0 -99.5 -31.5t-39.5 -101.5h-23l8 177l53 -10h397z" />
    <glyph glyph-name="tbar.sc" horiz-adv-x="564" 
d="M534 540l8 -177h-23q-11 70 -39.5 101.5t-97.5 31.5h-40v-234l116 3l-10 -36l-106 3v-129q0 -24 4.5 -38.5t20.5 -22.5t25 -10.5t40 -7.5v-24h-299v24q56 10 70 20q20 16 20 59v129l-115 -3l10 36l105 -3v234h-38q-71 0 -99.5 -31.5t-39.5 -101.5h-23l8 177l53 -10h397z
" />
    <glyph glyph-name="tcaron.sc" horiz-adv-x="564" 
d="M420 764l-139 -152l-140 151l14 14l126 -88l126 88zM534 540l8 -177h-23q-11 70 -39.5 101.5t-97.5 31.5h-40v-393q0 -24 4.5 -38.5t20.5 -22.5t25 -10.5t40 -7.5v-24h-299v24q56 10 70 20q20 16 20 59v393h-38q-71 0 -99.5 -31.5t-39.5 -101.5h-23l8 177l53 -10h397z
" />
    <glyph glyph-name="uni0163.sc" horiz-adv-x="564" 
d="M534 540l8 -177h-23q-11 70 -39.5 101.5t-97.5 31.5h-40v-393q0 -24 4.5 -38.5t20.5 -22.5t25 -10.5t40 -7.5v-24h-122l-24 -47q44 0 75.5 -21.5t31.5 -58.5q0 -39 -40.5 -62t-122.5 -23l5 24q46 0 68 13.5t22 32.5q0 44 -111 44l50 98h-131v24q56 10 70 20q20 16 20 59
v393h-38q-71 0 -99.5 -31.5t-39.5 -101.5h-23l8 177l53 -10h397z" />
    <glyph glyph-name="uni021B.sc" horiz-adv-x="564" 
d="M534 540l8 -177h-23q-11 70 -39.5 101.5t-97.5 31.5h-40v-393q0 -24 4.5 -38.5t20.5 -22.5t25 -10.5t40 -7.5v-24h-299v24q56 10 70 20q20 16 20 59v393h-38q-71 0 -99.5 -31.5t-39.5 -101.5h-23l8 177l53 -10h397zM292 -58q30 0 51.5 -23.5t21.5 -64.5q0 -59 -43 -113.5
t-118 -72.5l-9 23q74 28 88 84q7 25 -20 40q-39 23 -39 61q0 28 19.5 47t48.5 19z" />
    <glyph glyph-name="u.sc" horiz-adv-x="679" 
d="M341 -12q-44 0 -82 10.5t-76 37.5t-60 82t-22 134v175q0 23 -4 37t-16 22t-20 11t-29 7q-6 1 -9 2v24h276v-24q-47 -10 -59 -20q-19 -16 -19 -59v-189q0 -206 149 -206q29 0 53.5 8t50 27t40 59t14.5 98v203q0 23 -4 37t-16.5 22t-20.5 11t-30 7q-6 1 -9 2v24h208v-24
q-52 -10 -65 -20q-20 -17 -20 -59v-183q0 -256 -230 -256z" />
    <glyph glyph-name="uacute.sc" horiz-adv-x="679" 
d="M336 605l-27 17q25 88 69 150q23 0 47.5 -18.5t32.5 -39.5q-56 -39 -122 -109zM341 -12q-44 0 -82 10.5t-76 37.5t-60 82t-22 134v175q0 23 -4 37t-16 22t-20 11t-29 7q-6 1 -9 2v24h276v-24q-47 -10 -59 -20q-19 -16 -19 -59v-189q0 -206 149 -206q29 0 53.5 8t50 27
t40 59t14.5 98v203q0 23 -4 37t-16.5 22t-20.5 11t-30 7q-6 1 -9 2v24h208v-24q-52 -10 -65 -20q-20 -17 -20 -59v-183q0 -256 -230 -256z" />
    <glyph glyph-name="ubreve.sc" horiz-adv-x="679" 
d="M340 641q-67 0 -105.5 37t-38.5 98h26q14 -66 118 -66q103 0 118 66h25q0 -61 -38 -98t-105 -37zM341 -12q-44 0 -82 10.5t-76 37.5t-60 82t-22 134v175q0 23 -4 37t-16 22t-20 11t-29 7q-6 1 -9 2v24h276v-24q-47 -10 -59 -20q-19 -16 -19 -59v-189q0 -206 149 -206
q29 0 53.5 8t50 27t40 59t14.5 98v203q0 23 -4 37t-16.5 22t-20.5 11t-30 7q-6 1 -9 2v24h208v-24q-52 -10 -65 -20q-20 -17 -20 -59v-183q0 -256 -230 -256z" />
    <glyph glyph-name="ucircumflex.sc" horiz-adv-x="679" 
d="M337 785l139 -152l-13 -13l-126 88l-126 -88l-14 14zM341 -12q-44 0 -82 10.5t-76 37.5t-60 82t-22 134v175q0 23 -4 37t-16 22t-20 11t-29 7q-6 1 -9 2v24h276v-24q-47 -10 -59 -20q-19 -16 -19 -59v-189q0 -206 149 -206q29 0 53.5 8t50 27t40 59t14.5 98v203
q0 23 -4 37t-16.5 22t-20.5 11t-30 7q-6 1 -9 2v24h208v-24q-52 -10 -65 -20q-20 -17 -20 -59v-183q0 -256 -230 -256z" />
    <glyph glyph-name="udieresis.sc" horiz-adv-x="679" 
d="M237 662q-23 0 -39.5 16.5t-16.5 39.5t16.5 39.5t39.5 16.5t39.5 -16.5t16.5 -39.5t-16.5 -39.5t-39.5 -16.5zM443 662q-24 0 -40 16.5t-16 39.5t16 39.5t40 16.5q23 0 39 -16.5t16 -39.5t-16 -39.5t-39 -16.5zM341 -12q-44 0 -82 10.5t-76 37.5t-60 82t-22 134v175
q0 23 -4 37t-16 22t-20 11t-29 7q-6 1 -9 2v24h276v-24q-47 -10 -59 -20q-19 -16 -19 -59v-189q0 -206 149 -206q29 0 53.5 8t50 27t40 59t14.5 98v203q0 23 -4 37t-16.5 22t-20.5 11t-30 7q-6 1 -9 2v24h208v-24q-52 -10 -65 -20q-20 -17 -20 -59v-183q0 -256 -230 -256z
" />
    <glyph glyph-name="ugrave.sc" horiz-adv-x="679" 
d="M349 605q-66 70 -122 109q8 21 32.5 39.5t47.5 18.5q44 -62 69 -150zM341 -12q-44 0 -82 10.5t-76 37.5t-60 82t-22 134v175q0 23 -4 37t-16 22t-20 11t-29 7q-6 1 -9 2v24h276v-24q-47 -10 -59 -20q-19 -16 -19 -59v-189q0 -206 149 -206q29 0 53.5 8t50 27t40 59
t14.5 98v203q0 23 -4 37t-16.5 22t-20.5 11t-30 7q-6 1 -9 2v24h208v-24q-52 -10 -65 -20q-20 -17 -20 -59v-183q0 -256 -230 -256z" />
    <glyph glyph-name="uhungarumlaut.sc" horiz-adv-x="679" 
d="M231 605l-27 17q25 88 69 150q23 0 47.5 -18.5t32.5 -39.5q-56 -39 -122 -109zM395 605l-27 17q25 88 69 150q23 0 47.5 -18.5t32.5 -39.5q-56 -39 -122 -109zM341 -12q-44 0 -82 10.5t-76 37.5t-60 82t-22 134v175q0 23 -4 37t-16 22t-20 11t-29 7q-6 1 -9 2v24h276v-24
q-47 -10 -59 -20q-19 -16 -19 -59v-189q0 -206 149 -206q29 0 53.5 8t50 27t40 59t14.5 98v203q0 23 -4 37t-16.5 22t-20.5 11t-30 7q-6 1 -9 2v24h208v-24q-52 -10 -65 -20q-20 -17 -20 -59v-183q0 -256 -230 -256z" />
    <glyph glyph-name="umacron.sc" horiz-adv-x="679" 
d="M192 693l15 41h280l-15 -41h-280zM341 -12q-44 0 -82 10.5t-76 37.5t-60 82t-22 134v175q0 23 -4 37t-16 22t-20 11t-29 7q-6 1 -9 2v24h276v-24q-47 -10 -59 -20q-19 -16 -19 -59v-189q0 -206 149 -206q29 0 53.5 8t50 27t40 59t14.5 98v203q0 23 -4 37t-16.5 22
t-20.5 11t-30 7q-6 1 -9 2v24h208v-24q-52 -10 -65 -20q-20 -17 -20 -59v-183q0 -256 -230 -256z" />
    <glyph glyph-name="uogonek.sc" horiz-adv-x="679" 
d="M448 530h208v-24q-52 -10 -65 -20q-20 -17 -20 -59v-183q0 -203 -144 -245q-44 -25 -63 -47t-19 -50q0 -26 14.5 -41.5t38.5 -15.5q19 0 42 9v-19q-36 -34 -88 -34q-42 0 -69 20.5t-27 63.5q0 32 21 59l65 44h-1q-44 0 -82 10.5t-76 37.5t-60 82t-22 134v175q0 23 -4 37
t-16 22t-20 11t-29 7q-6 1 -9 2v24h276v-24q-47 -10 -59 -20q-19 -16 -19 -59v-189q0 -206 149 -206q25 0 45 5l13 9v-5q100 33 100 183v203q0 23 -4 37t-16.5 22t-20.5 11t-30 7q-6 1 -9 2v24z" />
    <glyph glyph-name="uring.sc" horiz-adv-x="679" 
d="M339 628q-39 0 -65.5 26t-26.5 64t26.5 64.5t65.5 26.5t65.5 -26.5t26.5 -64.5t-26.5 -64t-65.5 -26zM339 674q20 0 32.5 12.5t12.5 31.5t-12.5 32t-32.5 13q-19 0 -32 -13t-13 -32t13 -31.5t32 -12.5zM341 -12q-44 0 -82 10.5t-76 37.5t-60 82t-22 134v175q0 23 -4 37
t-16 22t-20 11t-29 7q-6 1 -9 2v24h276v-24q-47 -10 -59 -20q-19 -16 -19 -59v-189q0 -206 149 -206q29 0 53.5 8t50 27t40 59t14.5 98v203q0 23 -4 37t-16.5 22t-20.5 11t-30 7q-6 1 -9 2v24h208v-24q-52 -10 -65 -20q-20 -17 -20 -59v-183q0 -256 -230 -256z" />
    <glyph glyph-name="v.sc" 
d="M414 530h179v-24q-24 -5 -30.5 -6.5t-18 -7.5t-17 -15.5t-13.5 -26.5l-197 -450h-41l-196 450q-14 32 -26 40t-51 16v24h265v-24q-5 -1 -16 -3.5t-16 -4t-12.5 -4.5t-10.5 -6.5t-6 -8.5t-1.5 -12.5t5.5 -16.5l130 -302l129 302q4 9 5 16.5t-1.5 12.5t-5.5 8.5t-10.5 6.5
t-12 4.5t-15.5 4t-16 3.5v24z" />
    <glyph glyph-name="w.sc" horiz-adv-x="857" 
d="M254 0l-173 451q-13 32 -25.5 40.5t-52.5 16.5v22h260v-22q-3 -1 -12 -3t-12 -3t-10 -3t-9 -4t-6.5 -5t-5 -6.5t-1.5 -8.5t0 -11t4 -13l106 -295l74 208q20 49 2 91t-69 53v22h183q0 -39 35 -137l87 -236l89 250q20 57 2.5 74.5t-76.5 26.5v22h211v-22q-29 -6 -39 -9.5
t-20.5 -14t-18.5 -33.5l-166 -450h-45l-137 354l-130 -355h-45z" />
    <glyph glyph-name="wacute.sc" horiz-adv-x="857" 
d="M425 598l-27 17q25 88 69 150q23 0 47.5 -18.5t32.5 -39.5q-56 -39 -122 -109zM254 0l-173 451q-13 32 -25.5 40.5t-52.5 16.5v22h260v-22q-3 -1 -12 -3t-12 -3t-10 -3t-9 -4t-6.5 -5t-5 -6.5t-1.5 -8.5t0 -11t4 -13l106 -295l74 208q20 49 2 91t-69 53v22h183
q0 -39 35 -137l87 -236l89 250q20 57 2.5 74.5t-76.5 26.5v22h211v-22q-29 -6 -39 -9.5t-20.5 -14t-18.5 -33.5l-166 -450h-45l-137 354l-130 -355h-45z" />
    <glyph glyph-name="wcircumflex.sc" horiz-adv-x="857" 
d="M426 778l139 -152l-13 -13l-126 88l-126 -88l-14 14zM254 0l-173 451q-13 32 -25.5 40.5t-52.5 16.5v22h260v-22q-3 -1 -12 -3t-12 -3t-10 -3t-9 -4t-6.5 -5t-5 -6.5t-1.5 -8.5t0 -11t4 -13l106 -295l74 208q20 49 2 91t-69 53v22h183q0 -39 35 -137l87 -236l89 250
q20 57 2.5 74.5t-76.5 26.5v22h211v-22q-29 -6 -39 -9.5t-20.5 -14t-18.5 -33.5l-166 -450h-45l-137 354l-130 -355h-45z" />
    <glyph glyph-name="wdieresis.sc" horiz-adv-x="857" 
d="M326 655q-23 0 -39.5 16.5t-16.5 39.5t16.5 39.5t39.5 16.5t39.5 -16.5t16.5 -39.5t-16.5 -39.5t-39.5 -16.5zM532 655q-24 0 -40 16.5t-16 39.5t16 39.5t40 16.5q23 0 39 -16.5t16 -39.5t-16 -39.5t-39 -16.5zM254 0l-173 451q-13 32 -25.5 40.5t-52.5 16.5v22h260v-22
q-3 -1 -12 -3t-12 -3t-10 -3t-9 -4t-6.5 -5t-5 -6.5t-1.5 -8.5t0 -11t4 -13l106 -295l74 208q20 49 2 91t-69 53v22h183q0 -39 35 -137l87 -236l89 250q20 57 2.5 74.5t-76.5 26.5v22h211v-22q-29 -6 -39 -9.5t-20.5 -14t-18.5 -33.5l-166 -450h-45l-137 354l-130 -355h-45z
" />
    <glyph glyph-name="wgrave.sc" horiz-adv-x="857" 
d="M438 598q-66 70 -122 109q8 21 32.5 39.5t47.5 18.5q44 -62 69 -150zM254 0l-173 451q-13 32 -25.5 40.5t-52.5 16.5v22h260v-22q-3 -1 -12 -3t-12 -3t-10 -3t-9 -4t-6.5 -5t-5 -6.5t-1.5 -8.5t0 -11t4 -13l106 -295l74 208q20 49 2 91t-69 53v22h183q0 -39 35 -137
l87 -236l89 250q20 57 2.5 74.5t-76.5 26.5v22h211v-22q-29 -6 -39 -9.5t-20.5 -14t-18.5 -33.5l-166 -450h-45l-137 354l-130 -355h-45z" />
    <glyph glyph-name="x.sc" horiz-adv-x="646" 
d="M513 87q24 -34 46 -44.5t75 -18.5v-24h-298v24q25 5 32 7t17 8.5t6 17.5t-16 29l-93 134l-95 -131q-7 -9 -11.5 -16.5t-5.5 -13t-2.5 -9.5t2.5 -7.5t5 -5.5t8.5 -4t10.5 -3t14 -3t15 -3v-24h-209v24q5 1 13 2q46 7 65.5 16.5t46.5 45.5l121 165l-127 184q-27 39 -48 50
t-71 19v24h290v-24q-24 -5 -32 -7.5t-16 -9.5t-3.5 -19t18.5 -33l74 -107l81 110q10 13 15.5 22.5t3 16.5t-3 10.5t-13.5 7.5t-16.5 5t-22.5 5v24h203v-24q-36 -6 -50 -10t-31.5 -17t-38.5 -40l-105 -142z" />
    <glyph glyph-name="y.sc" horiz-adv-x="587" 
d="M390 530h189v-24q-36 -8 -48 -16.5t-35 -45.5l-138 -220v-123q0 -24 4.5 -38.5t20 -22.5t24.5 -10.5t39 -7.5v-22h-295v22q55 10 68 20q20 16 20 59v109l-149 234q-24 38 -35 46t-47 16v24h268v-24q-3 -1 -16 -4t-16 -4t-12 -5t-10.5 -7.5t-4 -9.5t0.5 -14t9 -18
l112 -180l110 180q5 8 8 15t2.5 12.5t-1.5 9t-5.5 7t-8 5.5t-11.5 4t-12.5 3t-15 3t-15.5 3v24z" />
    <glyph glyph-name="yacute.sc" horiz-adv-x="587" 
d="M422 707q-56 -39 -122 -109l-27 17q25 88 69 150q23 0 47.5 -18.5t32.5 -39.5zM390 530h189v-24q-36 -8 -48 -16.5t-35 -45.5l-138 -220v-123q0 -24 4.5 -38.5t20 -22.5t24.5 -10.5t39 -7.5v-22h-295v22q55 10 68 20q20 16 20 59v109l-149 234q-24 38 -35 46t-47 16v24
h268v-24q-3 -1 -16 -4t-16 -4t-12 -5t-10.5 -7.5t-4 -9.5t0.5 -14t9 -18l112 -180l110 180q5 8 8 15t2.5 12.5t-1.5 9t-5.5 7t-8 5.5t-11.5 4t-12.5 3t-15 3t-15.5 3v24z" />
    <glyph glyph-name="ycircumflex.sc" horiz-adv-x="587" 
d="M301 701l-126 -88l-14 14l140 151l139 -152l-13 -13zM390 530h189v-24q-36 -8 -48 -16.5t-35 -45.5l-138 -220v-123q0 -24 4.5 -38.5t20 -22.5t24.5 -10.5t39 -7.5v-22h-295v22q55 10 68 20q20 16 20 59v109l-149 234q-24 38 -35 46t-47 16v24h268v-24q-3 -1 -16 -4
t-16 -4t-12 -5t-10.5 -7.5t-4 -9.5t0.5 -14t9 -18l112 -180l110 180q5 8 8 15t2.5 12.5t-1.5 9t-5.5 7t-8 5.5t-11.5 4t-12.5 3t-15 3t-15.5 3v24z" />
    <glyph glyph-name="ydieresis.sc" horiz-adv-x="587" 
d="M201 655q-23 0 -39.5 16.5t-16.5 39.5t16.5 39.5t39.5 16.5t39.5 -16.5t16.5 -39.5t-16.5 -39.5t-39.5 -16.5zM407 655q-24 0 -40 16.5t-16 39.5t16 39.5t40 16.5q23 0 39 -16.5t16 -39.5t-16 -39.5t-39 -16.5zM390 530h189v-24q-36 -8 -48 -16.5t-35 -45.5l-138 -220
v-123q0 -24 4.5 -38.5t20 -22.5t24.5 -10.5t39 -7.5v-22h-295v22q55 10 68 20q20 16 20 59v109l-149 234q-24 38 -35 46t-47 16v24h268v-24q-3 -1 -16 -4t-16 -4t-12 -5t-10.5 -7.5t-4 -9.5t0.5 -14t9 -18l112 -180l110 180q5 8 8 15t2.5 12.5t-1.5 9t-5.5 7t-8 5.5t-11.5 4
t-12.5 3t-15 3t-15.5 3v24z" />
    <glyph glyph-name="ygrave.sc" horiz-adv-x="587" 
d="M313 598q-66 70 -122 109q8 21 32.5 39.5t47.5 18.5q44 -62 69 -150zM390 530h189v-24q-36 -8 -48 -16.5t-35 -45.5l-138 -220v-123q0 -24 4.5 -38.5t20 -22.5t24.5 -10.5t39 -7.5v-22h-295v22q55 10 68 20q20 16 20 59v109l-149 234q-24 38 -35 46t-47 16v24h268v-24
q-3 -1 -16 -4t-16 -4t-12 -5t-10.5 -7.5t-4 -9.5t0.5 -14t9 -18l112 -180l110 180q5 8 8 15t2.5 12.5t-1.5 9t-5.5 7t-8 5.5t-11.5 4t-12.5 3t-15 3t-15.5 3v24z" />
    <glyph glyph-name="z.sc" horiz-adv-x="556" 
d="M34 0l-11 15l344 487l-154 -4q-72 -1 -100.5 -30.5t-33.5 -96.5h-27v165l61 -6h412l-354 -502l190 4q69 1 97 31t43 98h28q-19 -95 -19 -161h-476z" />
    <glyph glyph-name="zacute.sc" horiz-adv-x="556" 
d="M273 598l-27 17q25 88 69 150q23 0 47.5 -18.5t32.5 -39.5q-56 -39 -122 -109zM34 0l-11 15l344 487l-154 -4q-72 -1 -100.5 -30.5t-33.5 -96.5h-27v165l61 -6h412l-354 -502l190 4q69 1 97 31t43 98h28q-19 -95 -19 -161h-476z" />
    <glyph glyph-name="zcaron.sc" horiz-adv-x="556" 
d="M274 612l-140 151l14 14l126 -88l126 88l13 -13zM34 0l-11 15l344 487l-154 -4q-72 -1 -100.5 -30.5t-33.5 -96.5h-27v165l61 -6h412l-354 -502l190 4q69 1 97 31t43 98h28q-19 -95 -19 -161h-476z" />
    <glyph glyph-name="zdotaccent.sc" horiz-adv-x="556" 
d="M276 621q-27 0 -47 19t-20 45q0 27 20 45.5t47 18.5t46.5 -18.5t19.5 -45.5q0 -26 -20 -45t-46 -19zM34 0l-11 15l344 487l-154 -4q-72 -1 -100.5 -30.5t-33.5 -96.5h-27v165l61 -6h412l-354 -502l190 4q69 1 97 31t43 98h28q-19 -95 -19 -161h-476z" />
    <glyph glyph-name="zero.lf" horiz-adv-x="615" 
d="M306 -9q-119 0 -190.5 90.5t-71.5 229.5q0 140 72.5 233t193.5 93q119 0 190 -90.5t71 -230.5t-72 -232.5t-193 -92.5zM323 28q61 0 92.5 67.5t31.5 190.5q0 141 -40.5 228t-113.5 87q-61 0 -92.5 -68t-31.5 -192q0 -140 40.5 -226.5t113.5 -86.5z" />
    <glyph glyph-name="one.lf" horiz-adv-x="381" 
d="M39 0v24q26 3 36 4.5t25 5.5t20 9t9.5 14t4.5 22v437q0 26 -9.5 34t-31.5 3l-50 -11v24l184 80l20 -16v-551q0 -30 19 -39t76 -16v-24h-303z" />
    <glyph glyph-name="two.lf" horiz-adv-x="561" 
d="M42 0l-8 25q16 14 59 51t62 53.5t55 50.5t54 53.5t43 50.5t37 53.5t21 50t9 52.5q0 51 -31.5 87t-91.5 36q-110 0 -168 -107l-29 16q30 79 96.5 122t145.5 43q87 0 144.5 -50.5t57.5 -126.5q0 -48 -24.5 -96t-67.5 -90t-83.5 -74.5t-90.5 -68.5t-70 -54h177
q65 0 99.5 17.5t58.5 75.5h30l-51 -189h-30l-2 19h-402z" />
    <glyph glyph-name="three.lf" horiz-adv-x="526" 
d="M198 -12q-40 0 -76.5 6.5t-64.5 24t-28 43.5q0 18 12.5 28t29.5 10t34 -12t29.5 -27t35 -27t50.5 -12q57 0 107.5 43t50.5 114q0 67 -46 100.5t-113 33.5q-46 0 -95 -17l-10 28l77 33q85 35 118.5 60.5t33.5 68.5q0 39 -28 61.5t-78 22.5q-104 0 -165 -70l-22 18
q39 59 101 89t130 30q74 0 119 -34.5t44 -92.5q0 -48 -34.5 -82.5t-102.5 -64.5q77 -5 131 -43t54 -113q0 -95 -86 -157t-208 -62z" />
    <glyph glyph-name="four.lf" horiz-adv-x="536" 
d="M492 170h-85v-91q0 -30 17.5 -39t67.5 -16v-24h-283v24q35 5 48.5 8t25 14.5t11.5 32.5v91h-255l-15 22l345 448h38v-424h95zM83 216h211v277z" />
    <glyph glyph-name="five.lf" horiz-adv-x="506" 
d="M123 394q91 14 153.5 3.5t101.5 -44t56 -72t17 -79.5q0 -87 -73 -150.5t-182 -63.5q-25 0 -51.5 4t-52 12t-42 23t-16.5 35q0 18 12.5 28t29.5 10t33 -12t26.5 -27t30 -27t44.5 -12q50 0 88.5 41.5t38.5 104.5q0 36 -14 69.5t-44.5 61t-78.5 35t-115 -7.5l-18 19l101 285
h168q38 0 54 1t33.5 8t28.5 21h22l-39 -119h-259z" />
    <glyph glyph-name="six.lf" horiz-adv-x="557" 
d="M283 -12q-115 0 -178 76.5t-62 192.5q0 104 56.5 191.5t140 135.5t173.5 53l16 -29q-109 -10 -189.5 -106t-80.5 -262q0 -97 32.5 -157.5t96.5 -60.5q59 0 90 50.5t31 123.5q0 88 -46.5 135t-140.5 26v27q51 26 105 22.5t98 -25t72 -67t28 -103.5q0 -94 -67.5 -158.5
t-174.5 -64.5z" />
    <glyph glyph-name="seven.lf" horiz-adv-x="506" 
d="M476 630l11 -15q-200 -301 -273 -615h-88q82 263 264 541h-206q-37 0 -54.5 -3t-37 -19t-35.5 -51h-23l55 179h23l2 -17h362z" />
    <glyph glyph-name="eight.lf" horiz-adv-x="557" 
d="M380 345q133 -58 133 -170q0 -82 -68.5 -136t-171.5 -54q-98 0 -163.5 49t-65.5 128q0 103 110 164q-70 56 -70 136q0 70 55.5 119t140.5 49q79 0 130 -44.5t51 -105.5q0 -77 -81 -135zM281 595q-49 0 -74 -30t-25 -69q0 -35 22.5 -66t68.5 -47l59 -21q55 47 55 114
q0 46 -26.5 82.5t-79.5 36.5zM281 22q59 0 90.5 32.5t31.5 85.5q0 48 -26 75.5t-88 49.5l-68 24q-12 4 -27 12q-71 -50 -71 -132q0 -64 43.5 -105.5t114.5 -41.5z" />
    <glyph glyph-name="nine.lf" horiz-adv-x="557" 
d="M274 637q116 0 179 -76t62 -193q-1 -155 -115.5 -263.5t-254.5 -116.5l-16 30q109 10 189 105.5t80 261.5q0 98 -32.5 158.5t-96.5 60.5q-59 0 -90 -50.5t-31 -124.5q0 -88 47 -134.5t141 -26.5v-27q-51 -26 -105 -22.5t-98 25t-72 67t-28 103.5q0 95 67 159t174 64z" />
    <glyph glyph-name="zero.tf" horiz-adv-x="588" 
d="M292 -9q-119 0 -190 90t-71 230q0 141 72 233.5t193 92.5q119 0 190.5 -90.5t71.5 -230.5t-72.5 -232.5t-193.5 -92.5zM309 28q61 0 92.5 67.5t31.5 190.5q0 141 -40.5 228t-113.5 87q-61 0 -92.5 -68t-31.5 -192q0 -140 40.5 -226.5t113.5 -86.5z" />
    <glyph glyph-name="one.tf" horiz-adv-x="588" 
d="M123 0v24q39 4 55 6t33 8t22 15.5t5 25.5v437q0 26 -10 34t-31 3l-70 -11v24l203 80l20 -16v-551q0 -31 22 -39.5t93 -15.5v-24h-342z" />
    <glyph glyph-name="two.tf" horiz-adv-x="588" 
d="M50 0l-8 25q18 16 59 51t61.5 53t55.5 51t54 53.5t43 50.5t36.5 53.5t21.5 50.5t9 52q0 51 -31.5 87t-92.5 36q-108 0 -168 -107l-29 16q30 79 96.5 122t145.5 43q87 0 145 -50.5t58 -126.5q0 -40 -19 -81.5t-47 -74.5t-67.5 -68.5t-73.5 -60t-72.5 -53t-57.5 -45.5h178
q65 0 99 17.5t59 75.5h29l-51 -189h-29l-2 19h-402z" />
    <glyph glyph-name="three.tf" horiz-adv-x="588" 
d="M236 -12q-40 0 -76.5 6.5t-64.5 24t-28 43.5q0 18 12.5 28t29.5 10t34 -12t29.5 -27t35 -27t50.5 -12q57 0 107.5 43t50.5 114q0 67 -46 100.5t-113 33.5q-46 0 -95 -17l-10 28l77 33q85 35 118.5 60.5t33.5 68.5q0 39 -28 61.5t-78 22.5q-104 0 -165 -70l-22 18
q39 59 101 89t130 30q74 0 119 -34.5t44 -92.5q0 -48 -34.5 -82.5t-102.5 -64.5q77 -5 131 -43t54 -113q0 -95 -86 -157t-208 -62z" />
    <glyph glyph-name="four.tf" horiz-adv-x="588" 
d="M504 170h-85v-91q0 -30 17.5 -39t67.5 -16v-24h-282v24q35 5 48.5 8t25 14.5t11.5 32.5v91h-255l-15 22l345 448h37v-424h95zM95 216h212v277z" />
    <glyph glyph-name="five.tf" horiz-adv-x="588" 
d="M142 394q90 14 152.5 3.5t101.5 -44t56.5 -72t17.5 -79.5q0 -87 -73 -150.5t-183 -63.5q-25 0 -51 4t-51.5 12t-42 23t-16.5 35q0 18 12.5 28t29.5 10t32.5 -12t26.5 -27t30.5 -27t44.5 -12q49 0 87.5 41.5t38.5 104.5q0 36 -14 69.5t-44.5 61t-78 35t-114.5 -7.5l-19 19
l101 285h169q53 0 76.5 4.5t39.5 25.5h21l-39 -119h-258z" />
    <glyph glyph-name="six.tf" horiz-adv-x="588" 
d="M288 -12q-115 0 -178 76.5t-62 192.5q0 104 56.5 191.5t140 135.5t173.5 53l16 -29q-109 -10 -189.5 -106t-80.5 -262q0 -97 32.5 -157.5t96.5 -60.5q59 0 90 50.5t31 123.5q0 88 -46.5 135t-140.5 26v27q51 26 105 22.5t98 -25t72 -67t28 -103.5q0 -94 -67.5 -158.5
t-174.5 -64.5z" />
    <glyph glyph-name="seven.tf" horiz-adv-x="588" 
d="M514 630l11 -15q-200 -301 -273 -615h-87q82 263 264 541h-207q-28 0 -41.5 -1.5t-31 -8t-29.5 -22t-24 -41.5h-23l55 179h23l2 -17h361z" />
    <glyph glyph-name="eight.tf" horiz-adv-x="588" 
d="M395 345q133 -58 133 -170q0 -82 -68.5 -136t-171.5 -54q-98 0 -163.5 49t-65.5 128q0 103 110 164q-70 56 -70 136q0 70 55.5 119t140.5 49q79 0 130 -44.5t51 -105.5q0 -77 -81 -135zM296 595q-49 0 -74 -30t-25 -69q0 -35 22.5 -66t68.5 -47l59 -21q55 47 55 114
q0 46 -26.5 82.5t-79.5 36.5zM296 22q59 0 90.5 32.5t31.5 85.5q0 48 -26 75.5t-88 49.5l-68 24q-12 4 -27 12q-71 -50 -71 -132q0 -64 43.5 -105.5t114.5 -41.5z" />
    <glyph glyph-name="nine.tf" horiz-adv-x="588" 
d="M297 637q115 0 178 -76t62 -193q-1 -155 -115.5 -263.5t-254.5 -116.5l-16 30q109 10 189.5 105.5t80.5 261.5q0 98 -32.5 158.5t-96.5 60.5q-59 0 -90 -50.5t-31 -124.5q0 -88 46.5 -134.5t140.5 -26.5v-27q-51 -26 -105 -22.5t-98 25t-72 67t-28 103.5q0 95 67 159
t175 64z" />
    <glyph glyph-name="zero.dnom" horiz-adv-x="284" 
d="M141 -10q-48 0 -77.5 36t-29.5 91q0 56 30 93t79 37q48 0 77.5 -36t29.5 -92t-30 -92.5t-79 -36.5zM148 6q47 0 47 101q0 56 -15.5 90t-43.5 34q-47 0 -47 -102q0 -55 15.5 -89t43.5 -34z" />
    <glyph glyph-name="one.dnom" horiz-adv-x="203" 
d="M39 0v10q22 2 30 6t8 16v165q0 11 -4 14.5t-12 1.5l-20 -5v11l77 33l8 -6v-214q0 -12 8 -16t30 -6v-10h-125z" />
    <glyph glyph-name="two.dnom" horiz-adv-x="266" 
d="M37 0l-3 11q5 4 20 17t21 18t19 17t19.5 19t16.5 18t15 19t10.5 17.5t8 18.5t2.5 18q0 20 -12 34t-35 14q-41 0 -66 -42l-11 7q12 31 38.5 48.5t58.5 17.5q35 0 58 -20t23 -50q0 -23 -17 -48t-35 -40t-45.5 -35.5t-32.5 -24.5h66q27 0 40.5 6.5t22.5 29.5h13l-19 -70
h-176z" />
    <glyph glyph-name="three.dnom" horiz-adv-x="253" 
d="M103 -10q-27 0 -48 7.5t-21 22.5t17 15q9 0 25.5 -15.5t33.5 -15.5q23 0 42 16.5t19 44.5q0 27 -18 40.5t-45 13.5q-17 0 -36 -7l-5 12l31 12q32 12 45.5 22.5t13.5 28.5q0 32 -41 32t-64 -27l-10 8q32 47 92 47q29 0 47.5 -14t18.5 -37q0 -33 -56 -58q31 -2 53 -17
t22 -45q0 -37 -34 -61.5t-82 -24.5z" />
    <glyph glyph-name="four.dnom" horiz-adv-x="257" 
d="M186 32q0 -12 7.5 -16t29.5 -6v-10h-124v10q22 2 29.5 6t7.5 16v34h-108l-4 20l116 160h46v-160h37l-4 -20h-33v-34zM44 86h92v127z" />
    <glyph glyph-name="five.dnom" horiz-adv-x="253" 
d="M78 153q82 5 112 -18t30 -54q0 -39 -34 -65t-83 -26q-25 0 -47 7.5t-22 22.5t17 15q10 0 26.5 -15.5t34.5 -15.5q23 0 41 16.5t18 43.5q0 63 -113 56l-7 8l39 112h67q39 0 48 12h9l-17 -49h-102z" />
    <glyph glyph-name="six.dnom" horiz-adv-x="279" 
d="M145 -10q-47 0 -75 30t-27 76q1 62 48.5 105t104.5 46l7 -13q-44 -4 -76.5 -41.5t-32.5 -102.5q0 -38 14 -61.5t39 -23.5q24 0 36.5 19.5t12.5 49.5q0 73 -76 68v13q46 14 86.5 -7.5t40.5 -67.5q0 -39 -29 -64.5t-73 -25.5z" />
    <glyph glyph-name="seven.dnom" horiz-adv-x="230" 
d="M206 246l5 -6q-80 -122 -108 -240h-33q29 95 105 213h-83q-14 0 -20.5 -1.5t-14.5 -8t-14 -19.5h-9l21 66l18 -4h133z" />
    <glyph glyph-name="eight.dnom" horiz-adv-x="287" 
d="M189 132q54 -23 54 -67q0 -33 -28.5 -54t-73.5 -21q-42 0 -69.5 19t-27.5 51q0 41 44 63q-28 22 -28 54q0 28 23.5 47.5t60.5 19.5q35 0 56.5 -18t21.5 -42q0 -29 -33 -52zM144 227q-22 0 -32.5 -10.5t-10.5 -25.5q0 -28 43 -43l26 -9q21 17 21 44q0 18 -11.5 31
t-35.5 13zM144 7q52 0 52 43q0 17 -10 26t-39 20l-27 10q-10 3 -15 7q-29 -19 -29 -50q0 -25 18 -40.5t50 -15.5z" />
    <glyph glyph-name="nine.dnom" horiz-adv-x="279" 
d="M135 243q47 0 75 -30t27 -76q-1 -62 -48.5 -105t-104.5 -46l-7 13q44 4 76.5 41.5t32.5 102.5q0 38 -14 61.5t-39 23.5q-24 0 -36.5 -19.5t-12.5 -49.5q0 -73 76 -68v-13q-46 -14 -86.5 7.5t-40.5 67.5q0 39 29 64.5t73 25.5z" />
    <glyph glyph-name="zero.numr" horiz-adv-x="284" 
d="M141 389q-48 0 -77.5 36t-29.5 91q0 56 30 93t79 37q48 0 77.5 -36t29.5 -92t-30 -92.5t-79 -36.5zM148 405q47 0 47 101q0 56 -15.5 90t-43.5 34q-47 0 -47 -102q0 -55 15.5 -89t43.5 -34z" />
    <glyph glyph-name="one.numr" horiz-adv-x="203" 
d="M39 398v10q22 2 30 6t8 16v165q0 11 -4 14.5t-12 1.5l-20 -5v11l77 33l8 -6v-214q0 -12 8 -16t30 -6v-10h-125z" />
    <glyph glyph-name="two.numr" horiz-adv-x="266" 
d="M37 393l-3 11q5 4 20 17t21 18t19 17t19.5 19t16.5 18t15 19t10.5 17.5t8 18.5t2.5 18q0 20 -12 34t-35 14q-41 0 -66 -42l-11 7q12 31 38.5 48.5t58.5 17.5q35 0 58 -20t23 -50q0 -23 -17 -48t-35 -40t-45.5 -35.5t-32.5 -24.5h66q27 0 40.5 6.5t22.5 29.5h13l-19 -70
h-176z" />
    <glyph glyph-name="three.numr" horiz-adv-x="253" 
d="M103 384q-27 0 -48 7.5t-21 22.5t17 15q9 0 25.5 -15.5t33.5 -15.5q23 0 42 16.5t19 44.5q0 27 -18 40.5t-45 13.5q-17 0 -36 -7l-5 12l31 12q32 12 45.5 22.5t13.5 28.5q0 32 -41 32t-64 -27l-10 8q32 47 92 47q29 0 47.5 -14t18.5 -37q0 -33 -56 -58q31 -2 53 -17
t22 -45q0 -37 -34 -61.5t-82 -24.5z" />
    <glyph glyph-name="four.numr" horiz-adv-x="257" 
d="M186 423q0 -12 7.5 -16t29.5 -6v-10h-124v10q22 2 29.5 6t7.5 16v34h-108l-4 20l116 160h46v-160h37l-4 -20h-33v-34zM44 477h92v127z" />
    <glyph glyph-name="five.numr" horiz-adv-x="253" 
d="M78 553q82 5 112 -18t30 -54q0 -39 -34 -65t-83 -26q-25 0 -47 7.5t-22 22.5t17 15q10 0 26.5 -15.5t34.5 -15.5q23 0 41 16.5t18 43.5q0 63 -113 56l-7 8l39 112h67q39 0 48 12h9l-17 -49h-102z" />
    <glyph glyph-name="six.numr" horiz-adv-x="279" 
d="M145 383q-47 0 -75 30t-27 76q1 62 48.5 105t104.5 46l7 -13q-44 -4 -76.5 -41.5t-32.5 -102.5q0 -38 14 -61.5t39 -23.5q24 0 36.5 19.5t12.5 49.5q0 73 -76 68v13q46 14 86.5 -7.5t40.5 -67.5q0 -39 -29 -64.5t-73 -25.5z" />
    <glyph glyph-name="seven.numr" horiz-adv-x="230" 
d="M206 644l5 -6q-80 -122 -108 -240h-33q29 95 105 213h-83q-14 0 -20.5 -1.5t-14.5 -8t-14 -19.5h-9l21 66l18 -4h133z" />
    <glyph glyph-name="eight.numr" horiz-adv-x="287" 
d="M189 530q54 -23 54 -67q0 -33 -28.5 -54t-73.5 -21q-42 0 -69.5 19t-27.5 51q0 41 44 63q-28 22 -28 54q0 28 23.5 47.5t60.5 19.5q35 0 56.5 -18t21.5 -42q0 -29 -33 -52zM144 625q-22 0 -32.5 -10.5t-10.5 -25.5q0 -28 43 -43l26 -9q21 17 21 44q0 18 -11.5 31
t-35.5 13zM144 405q52 0 52 43q0 17 -10 26t-39 20l-27 10q-10 3 -15 7q-29 -19 -29 -50q0 -25 18 -40.5t50 -15.5z" />
    <glyph glyph-name="nine.numr" horiz-adv-x="279" 
d="M135 637q47 0 75 -30t27 -76q-1 -62 -48.5 -105t-104.5 -46l-7 13q44 4 76.5 41.5t32.5 102.5q0 38 -14 61.5t-39 23.5q-24 0 -36.5 -19.5t-12.5 -49.5q0 -73 76 -68v-13q-46 -14 -86.5 7.5t-40.5 67.5q0 39 29 64.5t73 25.5z" />
    </font>
</defs>
</svg>
