<?xml version="1.0" standalone="no"?>
<!DOCTYPE svg PUBLIC "-//W3C//DTD SVG 1.1//EN" "http://www.w3.org/Graphics/SVG/1.1/DTD/svg11.dtd" >
<svg xmlns="http://www.w3.org/2000/svg" xmlns:xlink="http://www.w3.org/1999/xlink" version="1.1">
<metadata>
Created by FontForge 20170731 at Tue Jun  5 16:44:09 2018
 By Aleksey,,,
Copyright (c) 2018 by Connary Fagen. All rights reserved.
</metadata>
<defs>
<font id="AddingtonCF-Regular" horiz-adv-x="564" >
  <font-face 
    font-family="Addington CF"
    font-weight="400"
    font-stretch="normal"
    units-per-em="1000"
    panose-1="0 0 5 0 0 0 0 0 0 0"
    ascent="800"
    descent="-200"
    x-height="440"
    cap-height="630"
    bbox="-179 -319 1129 899"
    underline-thickness="50"
    underline-position="-200"
    unicode-range="U+0020-FB02"
  />
<missing-glyph horiz-adv-x="488" 
d="M400 800v-975h-309v975h309zM325 735h-161v-32h63v-37h-64v-32h162v32h-65v37h65v32zM260 609h-97v-101h162v33h-65v68zM227 576v-35h-32v35h32zM325 481h-162v-32h64v-36h-64v-32h97v68h65v32zM325 423h-32v-65h-130v-33h162v98zM325 304h-98v-55h33v23h33v-46h-98v78
h-32v-110h162v110zM325 135h-162v-110h162v110zM293 103v-46h-98v46h98zM325 2h-162v-32h68l-68 -46v-32h162v32h-100l68 46h32v32z" />
    <glyph glyph-name="fi" unicode="fi" horiz-adv-x="621" 
d="M292 399h-98v-323q0 -15 6 -25t22 -15.5t27.5 -7.5t39.5 -5q5 -1 8 -1v-22h-277v22q29 5 40 7.5t23 14t12 32.5v323h-75v23l75 15q4 117 86 186t196 69q22 0 43.5 -2.5t50.5 -10t47 -24.5t18 -43v-1q0 -24 -18 -41t-42 -17t-42 17t-18 41v2q0 47 -46 47q-70 0 -123 -53.5
t-53 -158.5v-12l103 10q-5 -20 -5 -47zM530 76q0 -21 9.5 -32.5t20 -14t36.5 -7.5v-22h-227v22q26 5 36.5 7.5t20 14t9.5 32.5v239q0 30 -12.5 44t-53.5 19v20q80 13 140 58l21 -19v-361z" />
    <glyph glyph-name="fl" unicode="fl" horiz-adv-x="612" 
d="M514 76q0 -20 10 -31t22 -14.5t34 -7.5q2 0 3.5 -0.5t3.5 -0.5v-22h-241v22q49 9 61 20t12 34v478q0 39 -30.5 64.5t-87.5 25.5q-49 0 -78 -30t-29 -108v-70l118 10q-5 -20 -5 -47h-113v-323q0 -15 6 -25t22 -15.5t27.5 -7.5t39.5 -5q5 -1 8 -1v-22h-277v22q29 5 40 7.5
t23 14t12 32.5v323h-75v23l75 15q1 123 69.5 186.5t180.5 63.5q95 0 169 -32v-579z" />
    <glyph glyph-name="f_f" unicode="ff" horiz-adv-x="689" 
d="M654 698q81 0 105 -54q-1 -23 -19.5 -41t-45.5 -23q-26 74 -78 74q-34 0 -58.5 -30t-24.5 -107v-72l115 4h3h6q-5 -20 -5 -47h-119v-326q0 -15 6 -25t22 -15.5t27.5 -7.5t39.5 -5q5 -1 8 -1v-22h-277v22q29 5 40 7.5t23 14t12 32.5v326h-240v-326q0 -15 6 -25t22 -15.5
t27.5 -7.5t39.5 -5q5 -1 8 -1v-22h-277v22q29 5 40 7.5t23 14t12 32.5v326h-75v23l75 15h1q6 110 65 170t142 60q74 0 98 -54q-1 -23 -18.5 -41t-43.5 -23q-7 30 -27.5 52t-45.5 22q-27 0 -49.5 -30.5t-22.5 -106.5v-54l240 7v1q0 123 62.5 189t157.5 66z" />
    <glyph glyph-name="f_f_i" unicode="ffi" horiz-adv-x="966" 
d="M639 402h-100v-326q0 -15 6 -25t22 -15.5t27.5 -7.5t39.5 -5q5 -1 8 -1v-22h-277v22q29 5 40 7.5t23 14t12 32.5v326h-246v-326q0 -15 6 -25t22 -15.5t27.5 -7.5t39.5 -5q5 -1 8 -1v-22h-277v22q29 5 40 7.5t23 14t12 32.5v326h-75v23l75 15h1q6 111 64 170.5t140 59.5
q74 0 98 -54q-1 -23 -18.5 -41t-43.5 -23q-7 30 -27.5 52t-45.5 22q-27 0 -48 -30t-21 -107v-54l246 8q7 114 88 181.5t194 67.5q22 0 43.5 -2.5t50.5 -10t47 -24.5t18 -43v-1q0 -24 -18 -41t-42 -17t-42 17t-18 41v2q0 47 -46 47q-70 0 -123 -53.5t-53 -158.5v-2l105 3
q-5 -20 -5 -47zM875 76q0 -21 9.5 -32.5t20 -14t36.5 -7.5v-22h-227v22q26 5 36.5 7.5t20 14t9.5 32.5v239q0 30 -12.5 44t-53.5 19v20q80 13 140 58l21 -19v-361z" />
    <glyph glyph-name=".notdef" horiz-adv-x="488" 
d="M400 800v-975h-309v975h309zM325 735h-161v-32h63v-37h-64v-32h162v32h-65v37h65v32zM260 609h-97v-101h162v33h-65v68zM227 576v-35h-32v35h32zM325 481h-162v-32h64v-36h-64v-32h97v68h65v32zM325 423h-32v-65h-130v-33h162v98zM325 304h-98v-55h33v23h33v-46h-98v78
h-32v-110h162v110zM325 135h-162v-110h162v110zM293 103v-46h-98v46h98zM325 2h-162v-32h68l-68 -46v-32h162v32h-100l68 46h32v32z" />
    <glyph glyph-name=".null" horiz-adv-x="0" 
 />
    <glyph glyph-name="nonmarkingreturn" horiz-adv-x="333" 
 />
    <glyph glyph-name="space" unicode=" " horiz-adv-x="212" 
 />
    <glyph glyph-name="exclam" unicode="!" horiz-adv-x="218" 
d="M97 182l-43 409q-7 62 55 62t55 -62l-43 -409h-24zM118 -10q-26 0 -44.5 18t-18.5 44q0 25 18.5 43t44.5 18t44.5 -18t18.5 -43q0 -26 -18.5 -44t-44.5 -18z" />
    <glyph glyph-name="quotedbl" unicode="&#x22;" horiz-adv-x="287" 
d="M70 388l-33 186q-4 24 7.5 40t32.5 16q23 0 35 -16t7 -40l-35 -186h-14zM201 388l-33 186q-4 24 7.5 40t32.5 16q22 0 34 -16t8 -40l-35 -186h-14z" />
    <glyph glyph-name="numbersign" unicode="#" horiz-adv-x="567" 
d="M519 419h-99l-45 -195h101l-12 -47h-100l-47 -207h-52l48 207h-126l-47 -207h-52l48 207h-100l12 47h99l45 195h-101l12 47h99l48 206h51l-47 -206h125l48 206h51l-47 -206h100zM324 224l45 195h-126l-45 -195h126z" />
    <glyph glyph-name="dollar" unicode="$" horiz-adv-x="519" 
d="M479 184q0 -69 -57.5 -114t-144.5 -51v-81h-31v80q-106 2 -193 57l-8 117h25q19 -64 65 -103.5t111 -40.5v237l-13 6q-38 16 -64 30.5t-54.5 36.5t-43 50.5t-14.5 63.5q0 61 48.5 100.5t140.5 43.5v81h31v-81q19 -1 36 -3.5t32 -6.5t26 -7.5t23 -9.5l18 -9t16.5 -9.5
t12.5 -7.5l3 -119h-23q-38 133 -144 141v-205q2 0 5 -2t4 -2q32 -14 50 -22t49 -27t48.5 -37.5t31.5 -46.5t14 -59zM154 499q0 -32 22 -56t70 -48v190q-45 -4 -68.5 -28t-23.5 -58zM277 50q44 8 70.5 36.5t26.5 68.5q0 38 -24.5 65t-72.5 51v-221z" />
    <glyph glyph-name="percent" unicode="%" horiz-adv-x="685" 
d="M534 630h61l-447 -630h-53l397 554q-81 -50 -183 1q4 -15 4 -36q0 -76 -47 -137t-115 -61q-48 0 -76.5 32.5t-28.5 85.5q0 75 50 134t119 59q35 0 58 -17q37 -21 62 -33t55.5 -20t53 -4t46.5 21.5t44 50.5zM171 352q44 0 77.5 53.5t33.5 113.5q0 39 -17 61.5t-44 22.5
q-45 0 -73 -56.5t-28 -115.5q0 -79 51 -79zM541 309q47 0 72.5 -30.5t25.5 -82.5q0 -76 -47 -137t-115 -61q-48 0 -76.5 32.5t-28.5 85.5q0 75 50 134t119 59zM497 29q44 0 77.5 53.5t33.5 113.5q0 39 -17 61.5t-44 22.5q-45 0 -73 -56.5t-28 -115.5q0 -79 51 -79z" />
    <glyph glyph-name="ampersand" unicode="&#x26;" horiz-adv-x="732" 
d="M527 68q19 -22 75.5 -11.5t103.5 45.5v-26q-36 -38 -89 -62.5t-94 -23.5q-24 0 -43.5 14.5t-44.5 43.5q-84 -58 -185 -58q-51 0 -99 18t-84 61t-36 101q0 67 41.5 110.5t111.5 74.5q-36 56 -36 103q0 68 53.5 111t124.5 43q51 0 88.5 -24t37.5 -74q0 -90 -152 -177l6 -8
l154 -181q43 64 43 112q0 40 -86 40v29h274v-29q-47 0 -73 -10.5t-36 -41.5q-26 -80 -84 -146zM301 580q-31 0 -50.5 -21.5t-19.5 -65.5q0 -64 53 -137q48 37 67.5 76.5t19.5 69.5q0 33 -19 55.5t-51 22.5zM135 187q0 -73 46 -118t101 -45q60 0 123 60l-173 207
q-12 15 -27 35q-70 -52 -70 -139z" />
    <glyph glyph-name="quotesingle" unicode="'" horiz-adv-x="156" 
d="M70 388l-33 186q-4 24 7.5 40t32.5 16q23 0 35 -16t7 -40l-35 -186h-14z" />
    <glyph glyph-name="parenleft" unicode="(" horiz-adv-x="301" 
d="M264 -159q-218 153 -218 455t218 455l21 -6q-70 -75 -108.5 -189.5t-37.5 -259.5q3 -290 141 -444z" />
    <glyph glyph-name="parenright" unicode=")" horiz-adv-x="301" 
d="M37 -159l-16 11q138 154 141 444q1 145 -37.5 259.5t-108.5 189.5l21 6q218 -153 218 -455t-218 -455z" />
    <glyph glyph-name="asterisk" unicode="*" horiz-adv-x="372" 
d="M178 523l-23 57q-11 25 0.5 39.5t30.5 14.5t30.5 -14.5t1.5 -39.5l-23 -57q-3 -7 -8.5 -7t-8.5 7zM145 493l-60 11q-27 4 -34 22.5t4 31.5q10 17 26 19t37 -20l36 -49q5 -6 2 -11t-11 -4zM227 493q-7 -1 -10.5 4.5t1.5 10.5l37 49q20 22 36 20t27 -19q11 -13 3.5 -31.5
t-34.5 -22.5zM54 406q-11 13 -3.5 31.5t34.5 22.5l60 11q7 1 10.5 -4.5t-1.5 -10.5l-37 -49q-20 -22 -36 -20t-27 19zM318 406q-10 -17 -27 -19t-36 20l-37 49q-5 5 -1.5 10.5t10.5 4.5l60 -11q27 -4 34.5 -22.5t-3.5 -31.5zM186 330q-20 0 -31 14t0 40l22 57q3 7 9 7t9 -7
l22 -57q11 -26 0 -40t-31 -14z" />
    <glyph glyph-name="plus" unicode="+" horiz-adv-x="502" 
d="M436 281v-59h-155v-157h-59v157h-156v59h156v155h59v-155h155z" />
    <glyph glyph-name="comma" unicode="," horiz-adv-x="230" 
d="M44 -148l-9 21q72 28 85 84q4 15 -2 23t-19 15q-36 21 -36 57q0 26 18.5 43.5t44.5 17.5q29 0 49 -22t20 -61q0 -55 -40 -107t-111 -71z" />
    <glyph glyph-name="hyphen" unicode="-" horiz-adv-x="412" 
d="M56 234v43h300v-43h-300z" />
    <glyph glyph-name="period" unicode="." horiz-adv-x="216" 
d="M108 -10q-26 0 -44.5 18t-18.5 44q0 25 18.5 43t44.5 18t44.5 -18t18.5 -43q0 -26 -18.5 -44t-44.5 -18z" />
    <glyph glyph-name="slash" unicode="/" horiz-adv-x="388" 
d="M26 -65l313 816l53 -23l-313 -816z" />
    <glyph glyph-name="zero" unicode="0" horiz-adv-x="543" 
d="M265 -9q-95 0 -162.5 62t-67.5 164q0 106 71.5 169t169.5 63q95 0 162.5 -62t67.5 -164q0 -106 -71.5 -169t-169.5 -63zM278 24q52 0 88 46t36 133q0 89 -39 151t-100 62q-52 0 -88 -46t-36 -133q0 -89 39 -151t100 -62z" />
    <glyph glyph-name="one" unicode="1" horiz-adv-x="367" 
d="M231 76q0 -30 20 -39t75 -15v-22h-285v22q25 3 34.5 4.5t25 5t21 8.5t10 14t4.5 22v288q0 30 -20 39t-75 15v22h285v-22q-25 -3 -34.5 -4.5t-25 -5t-21 -8.5t-10 -14t-4.5 -22v-288z" />
    <glyph glyph-name="two" unicode="2" horiz-adv-x="446" 
d="M44 0l-8 20q10 8 41 33.5t44 36.5t40 34.5t39.5 37t31.5 35.5t27.5 38.5t15.5 36t7 37.5q0 34 -21 57.5t-67 23.5q-78 0 -123 -72l-21 12q23 57 73 88t110 31q65 0 108 -34.5t43 -88.5q0 -20 -6 -40t-19 -39t-26.5 -35.5t-34 -34t-35.5 -29.5t-38.5 -27t-34.5 -22
t-31.5 -19.5t-22.5 -13.5h133q49 0 75 11.5t43 52.5h23l-39 -141h-23l-2 11h-302z" />
    <glyph glyph-name="three" unicode="3" horiz-adv-x="476" 
d="M181 -190q-55 0 -100 17.5t-45 54.5q0 18 11 27t26 9q16 0 31 -12t25.5 -26.5t29 -26.5t40.5 -12q48 0 93.5 42.5t45.5 110.5q0 65 -41.5 98t-102.5 33q-40 0 -87 -18l-10 27l71 33q74 34 104.5 61t30.5 70q0 39 -23.5 62.5t-69.5 23.5q-81 0 -137 -71l-19 17
q72 119 196 119q66 0 106.5 -35t39.5 -92q-1 -47 -32.5 -81.5t-91.5 -65.5q68 -5 118 -42.5t50 -110.5q0 -89 -77.5 -150.5t-181.5 -61.5z" />
    <glyph glyph-name="four" unicode="4" horiz-adv-x="527" 
d="M481 -5h-85v-94q0 -21 12 -32.5t23 -14t40 -7.5v-22h-250v22q29 5 40 7.5t23 14t12 32.5v94h-256l-14 20l340 440h30v-417h95zM80 38h216v280z" />
    <glyph glyph-name="five" unicode="5" horiz-adv-x="500" 
d="M119 216q88 16 150.5 5.5t102.5 -43.5t58.5 -72.5t18.5 -81.5q0 -87 -73.5 -150.5t-181.5 -63.5q-57 0 -107.5 17.5t-50.5 54.5q0 18 12.5 27t28.5 9q21 0 40 -19t41.5 -38.5t53.5 -19.5q50 0 90 42.5t40 106.5q0 38 -15 72.5t-46.5 62t-79.5 35.5t-114 -8l-19 19l96 269
h169q36 0 52 1t32.5 7.5t27.5 20.5h20l-36 -112h-258z" />
    <glyph glyph-name="six" unicode="6" horiz-adv-x="555" 
d="M283 -12q-114 0 -176.5 77t-61.5 192q1 154 114 263t252 117l15 -27q-51 -5 -99 -30.5t-88 -69.5t-64 -114.5t-24 -155.5q0 -98 35 -159t100 -61q61 0 94.5 51.5t33.5 125.5q0 87 -49.5 133.5t-150.5 25.5v25q55 26 110 23t98.5 -25t70.5 -67t27 -102q0 -94 -66 -158
t-171 -64z" />
    <glyph glyph-name="seven" unicode="7" horiz-adv-x="502" 
d="M470 440l11 -15q-198 -303 -271 -615h-83q78 251 275 547h-221q-36 0 -52.5 -3t-36 -19t-35.5 -51h-21l53 173h21l2 -17h358z" />
    <glyph glyph-name="eight" unicode="8" horiz-adv-x="552" 
d="M372 344q58 -24 96 -66.5t38 -103.5q0 -81 -66.5 -135t-167.5 -54q-98 0 -162 48.5t-64 128.5q0 106 115 165q-74 54 -74 139q0 69 53 116.5t138 47.5q80 0 129.5 -44t49.5 -105q0 -78 -85 -137zM279 600q-51 0 -76 -31.5t-25 -73.5q0 -35 21.5 -66t65.5 -47l65 -23
q56 48 56 118q0 48 -26 85.5t-81 37.5zM280 16q62 0 94 34.5t32 91.5q0 52 -26.5 79.5t-90.5 50.5l-67 24q-16 5 -24 10q-76 -50 -76 -138q0 -66 42.5 -109t115.5 -43z" />
    <glyph glyph-name="nine" unicode="9" horiz-adv-x="555" 
d="M272 449q114 0 176.5 -77t61.5 -192q-1 -154 -114 -263t-252 -117l-15 27q51 5 99 30.5t88 69.5t64 114.5t24 155.5q0 98 -35 159t-100 61q-61 0 -94.5 -51.5t-33.5 -125.5q0 -87 49.5 -133.5t150.5 -25.5v-25q-55 -26 -110 -23t-98.5 25t-70.5 67t-27 102q0 94 66 158
t171 64z" />
    <glyph glyph-name="colon" unicode=":" horiz-adv-x="219" 
d="M108 320q-26 0 -44.5 18t-18.5 44q0 25 18.5 43t44.5 18t44.5 -18t18.5 -43q0 -26 -18.5 -44t-44.5 -18zM109 -10q-26 0 -44.5 18t-18.5 44q0 25 18.5 43t44.5 18t44.5 -18t18.5 -43q0 -26 -18.5 -44t-44.5 -18z" />
    <glyph glyph-name="semicolon" unicode=";" horiz-adv-x="237" 
d="M137 319q-26 0 -44.5 18t-18.5 44q0 25 18.5 43t44.5 18t44.5 -18t18.5 -43q0 -26 -18.5 -44t-44.5 -18zM44 -148l-9 21q72 28 85 84q4 15 -2 23t-19 15q-36 21 -36 57q0 26 18.5 43.5t44.5 17.5q29 0 49 -22t20 -61q0 -55 -40 -107t-111 -71z" />
    <glyph glyph-name="less" unicode="&#x3c;" horiz-adv-x="502" 
d="M436 50q-182 99 -370 171v59q188 72 370 171v-68q-130 -71 -302 -132q175 -63 302 -133v-68z" />
    <glyph glyph-name="equal" unicode="=" horiz-adv-x="502" 
d="M66 312v59h370v-59h-370zM66 132v59h370v-59h-370z" />
    <glyph glyph-name="greater" unicode="&#x3e;" horiz-adv-x="502" 
d="M66 50v68q127 70 302 133q-172 61 -302 132v68q182 -99 370 -171v-59q-188 -72 -370 -171z" />
    <glyph glyph-name="question" unicode="?" horiz-adv-x="456" 
d="M203 192q-14 39 -8.5 64t23.5 55.5t38 55.5t36 63t16 77q0 115 -131 115q-29 0 -41 -29q-20 -50 -35 -69.5t-36 -19.5q-17 0 -28 10t-11 29q0 49 74 82t151 33q81 0 125 -42.5t44 -112.5q0 -46 -21 -83.5t-50.5 -62t-58.5 -47.5t-48 -52.5t-17 -65.5h-22zM214 -11
q-26 0 -44.5 18t-18.5 44q0 25 18.5 43t44.5 18t44.5 -18t18.5 -43q0 -26 -18.5 -44t-44.5 -18z" />
    <glyph glyph-name="at" unicode="@" horiz-adv-x="793" 
d="M598 439l-47 -236q-7 -37 6 -56t39 -19q42 0 79 50t37 132q0 130 -81 211.5t-209 81.5q-136 0 -218.5 -93.5t-82.5 -229.5q0 -134 81.5 -226t211.5 -92q95 0 185 51l18 -15q-94 -66 -212 -66q-150 0 -254.5 101t-104.5 247q0 148 106.5 251.5t264.5 103.5
q145 0 237.5 -93.5t92.5 -231.5q0 -94 -47 -150.5t-116 -56.5q-20 0 -38.5 3.5t-39 21.5t-20.5 48q-51 -70 -130 -70q-55 0 -90 35t-35 103q0 91 59 149.5t131 58.5q79 0 101 -76l13 63h63zM380 137q41 0 75 39t47 95l3 17q3 18 3 37q0 46 -19.5 73.5t-58.5 27.5
q-54 0 -88 -56t-34 -127q0 -53 20 -79.5t52 -26.5z" />
    <glyph glyph-name="A" unicode="A" horiz-adv-x="693" 
d="M606 79q14 -33 27 -41t55 -16v-22h-262v22l17.5 3.5t17.5 4t13.5 4.5t11.5 6.5t6 9t1.5 12.5t-5.5 17l-51 117h-257l-49 -118q-4 -9 -5 -16.5t2 -12.5t5.5 -8.5t11 -6.5t13 -4.5t17 -4l17.5 -3.5v-22h-187v22q33 6 42.5 9t21 13.5t20.5 33.5l236 559h39zM194 230h229
l-117 270z" />
    <glyph glyph-name="B" unicode="B" horiz-adv-x="643" 
d="M423 331q180 -38 180 -161q0 -84 -77.5 -127t-216.5 -43h-284v22q51 10 64 20q19 16 19 59v428q0 23 -3.5 37t-17.5 22.5t-20.5 10.5t-33.5 7q-5 1 -8 2v22h284q116 0 183.5 -37.5t67.5 -110.5q0 -110 -137 -151zM447 471q0 123 -152 123q-47 -1 -63.5 -12t-16.5 -37
v-200h89q143 0 143 126zM323 36q84 0 121.5 35t37.5 92q0 62 -46 105.5t-151 43.5h-70v-200q0 -39 23.5 -57.5t84.5 -18.5z" />
    <glyph glyph-name="C" unicode="C" horiz-adv-x="655" 
d="M381 -12q-148 0 -242 92t-94 236q0 143 96 236.5t252 93.5q118 0 195 -46q4 -91 7 -135h-36q-33 145 -181 145q-101 0 -158 -70t-57 -193q0 -137 76.5 -223.5t191.5 -86.5q109 0 159 54l20 -21q-32 -35 -92.5 -58.5t-136.5 -23.5z" />
    <glyph glyph-name="D" unicode="D" horiz-adv-x="691" 
d="M284 630q57 0 109 -10.5t98.5 -35t80.5 -59.5t54 -88t20 -118q0 -83 -29.5 -146t-81 -99.5t-115 -55t-136.5 -18.5h-259v22q51 10 64 20q19 16 19 59v428q0 23 -3.5 37t-17.5 22.5t-20.5 10.5t-33.5 7q-5 1 -8 2v22h259zM312 36q217 0 217 273q0 285 -255 285h-59v-462
q0 -53 20.5 -74.5t76.5 -21.5z" />
    <glyph glyph-name="E" unicode="E" horiz-adv-x="587" 
d="M530 150h27l-41 -150h-491v22q51 10 64 20q19 16 19 59v428q0 23 -3.5 37t-17.5 22.5t-20.5 10.5t-33.5 7q-5 1 -8 2v22h489l9 -142h-27q-7 57 -27 81.5t-71 24.5h-89q-59 0 -76.5 -13t-17.5 -63v-183h77q86 0 110 17t29 67h21v-202h-21q-5 50 -29 67t-110 17h-77v-189
q0 -50 17.5 -63t76.5 -13h68q59 0 92 24.5t61 89.5z" />
    <glyph glyph-name="F" unicode="F" horiz-adv-x="548" 
d="M509 630l9 -142h-27q-7 57 -27 81.5t-71 24.5h-84q-59 0 -76.5 -13t-17.5 -63v-183h67q86 0 110 17t29 67h21v-202h-21q-5 50 -29 67t-110 17h-67v-200q0 -23 3.5 -37t17.5 -22.5t20.5 -10.5t33.5 -7q5 -1 8 -2v-22h-273v22q51 10 64 20q19 16 19 59v428q0 23 -3.5 37
t-17.5 22.5t-20.5 10.5t-33.5 7q-5 1 -8 2v22h484z" />
    <glyph glyph-name="G" unicode="G" horiz-adv-x="715" 
d="M406 -12q-169 0 -265 92t-96 236q0 143 96 236.5t253 93.5q123 0 200 -46q4 -91 7 -135h-36q-33 145 -185 145q-102 0 -159.5 -70.5t-57.5 -193.5q0 -143 68 -232.5t186 -89.5q55 0 75.5 23.5t20.5 80.5v44q0 66 -21 86t-86 25v26h269v-26q-36 -5 -51.5 -20t-15.5 -51
v-54q0 -55 15 -115q-26 -22 -86 -38.5t-131 -16.5z" />
    <glyph glyph-name="H" unicode="H" horiz-adv-x="710" 
d="M685 608q-51 -10 -64 -20q-19 -16 -19 -59v-428q0 -23 3.5 -37t17.5 -22.5t20.5 -10.5t33.5 -7q5 -1 8 -2v-22h-273v22q51 10 64 20q19 16 19 59v197h-280v-197q0 -23 3.5 -37t17.5 -22.5t20.5 -10.5t33.5 -7q5 -1 8 -2v-22h-273v22q51 10 64 20q19 16 19 59v428
q0 23 -3.5 37t-17.5 22.5t-20.5 10.5t-33.5 7q-5 1 -8 2v22h273v-22q-51 -10 -64 -20q-19 -16 -19 -59v-197h280v197q0 23 -3.5 37t-17.5 22.5t-20.5 10.5t-33.5 7q-5 1 -8 2v22h273v-22z" />
    <glyph glyph-name="I" unicode="I" horiz-adv-x="323" 
d="M25 0v22q51 10 64 20q19 16 19 59v428q0 23 -3.5 37t-17.5 22.5t-20.5 10.5t-33.5 7q-5 1 -8 2v22h273v-22q-51 -10 -64 -20q-19 -16 -19 -59v-428q0 -23 3.5 -37t17.5 -22.5t20.5 -10.5t33.5 -7q5 -1 8 -2v-22h-273z" />
    <glyph glyph-name="J" unicode="J" horiz-adv-x="323" 
d="M3 -185q-6 13 0 27q68 24 86.5 56.5t18.5 111.5v519q0 23 -5 37.5t-15 22t-24 11.5t-33 7q-5 0 -8 1v22h275v-22q-51 -10 -64 -20q-19 -16 -19 -59v-529q0 -45 -17.5 -79t-50.5 -54.5t-66.5 -32t-77.5 -19.5z" />
    <glyph glyph-name="K" unicode="K" horiz-adv-x="686" 
d="M590 54q14 -19 29.5 -25.5t56.5 -6.5v-22h-191q0 25 -30 68l-173 251l-67 -66v-152q0 -23 3.5 -37t17.5 -22.5t20.5 -10.5t33.5 -7q5 -1 8 -2v-22h-273v22q51 10 64 20q19 16 19 59v428q0 23 -3.5 37t-17.5 22.5t-20.5 10.5t-33.5 7q-5 1 -8 2v22h273v-22
q-51 -10 -64 -20q-19 -16 -19 -59v-220l252 248q23 22 11.5 36.5t-52.5 14.5v22h217v-22q-31 0 -54.5 -7.5t-35 -16.5t-30.5 -27l-171 -168z" />
    <glyph glyph-name="L" unicode="L" horiz-adv-x="585" 
d="M25 0v22q51 10 64 20q19 16 19 59v428q0 23 -3.5 37t-17.5 22.5t-20.5 10.5t-33.5 7q-5 1 -8 2v22h284v-22q-3 -1 -15 -3l-15 -2.5t-13 -3t-13 -4.5t-10.5 -5.5t-10 -7t-7 -9t-6 -11.5t-3 -14.5t-1.5 -18.5v-417q0 -50 17.5 -63t76.5 -13h71q60 0 92.5 25.5t60.5 94.5h27
l-41 -156h-494z" />
    <glyph glyph-name="M" unicode="M" horiz-adv-x="867" 
d="M759 101q1 -24 5.5 -38.5t19 -22.5t23 -10.5t35.5 -7.5v-22h-273v22q52 10 65 20q20 16 18 59l-18 448l-216 -549h-30l-219 508l-19 -407q-1 -23 3 -37t18.5 -22.5t23 -10.5t35.5 -7q7 -1 10 -2v-22h-215v22q52 10 64 21q19 16 21 58l20 428q1 23 -3 37t-16.5 22t-22 11
t-32.5 7q-7 1 -10 2v22h185q2 -13 31 -77l175 -406l157 406q25 66 27 77h200v-22q-52 -10 -65 -20q-19 -17 -17 -59z" />
    <glyph glyph-name="N" unicode="N" horiz-adv-x="699" 
d="M458 630h216v-22q-52 -10 -65 -20q-20 -17 -20 -59v-529h-45l-393 532v-431q0 -23 4 -37t19 -22.5t22 -10.5t36 -7q6 -1 9 -2v-22h-216v22q52 10 65 20q20 16 20 59v428q0 23 -4 37t-17.5 22.5t-21.5 10.5t-33 7q-2 1 -3 1t-3 0.5t-3 0.5v22h180l343 -463v362q0 23 -4 37
t-19 22.5t-22 10.5t-36 7q-6 1 -9 2v22z" />
    <glyph glyph-name="O" unicode="O" horiz-adv-x="730" 
d="M363 -12q-138 0 -228 93t-90 233t91 236t231 96q138 0 228 -93.5t90 -233.5t-91 -235.5t-231 -95.5zM380 24q84 0 137 71t53 194q0 141 -62.5 231t-157.5 90q-84 0 -137 -71.5t-53 -194.5q0 -140 62.5 -230t157.5 -90z" />
    <glyph glyph-name="P" unicode="P" horiz-adv-x="611" 
d="M25 0v22q51 10 64 20q19 16 19 59v428q0 23 -3.5 37t-17.5 22.5t-20.5 10.5t-33.5 7q-5 1 -8 2v22h253q297 0 297 -185q0 -98 -83.5 -149t-231.5 -51q-12 0 -12 17.5t12 17.5q200 0 200 159q0 155 -172 155q-43 0 -58 -11t-15 -35v-447q0 -23 3.5 -37t17.5 -22.5
t20.5 -10.5t33.5 -7q5 -1 8 -2v-22h-273z" />
    <glyph glyph-name="Q" unicode="Q" horiz-adv-x="726" 
d="M790 -84q16 -3 16 -20q-76 -71 -162 -71q-62 0 -128 40l-172 105q-24 16 -67 29q-105 27 -168.5 113t-63.5 202q0 140 91 236t231 96q138 0 228 -93.5t90 -233.5q0 -116 -65 -204t-171 -116q30 -8 60 -26l70 -44q70 -45 122 -45q45 0 89 32zM160 344q0 -140 62.5 -230
t157.5 -90q84 0 137 71t53 194q0 141 -62.5 231t-157.5 90q-84 0 -137 -71.5t-53 -194.5z" />
    <glyph glyph-name="R" unicode="R" horiz-adv-x="670" 
d="M520 115q71 -112 135 -92v-23q-30 -16 -70 -16q-58 0 -96 23.5t-71 77.5l-72 114q-27 43 -55.5 59.5t-75.5 18.5v-176q0 -23 3.5 -37t17.5 -22.5t20.5 -10.5t33.5 -7q5 -1 8 -2v-22h-273v22q51 10 64 20q19 16 19 59v428q0 23 -3.5 37t-17.5 22.5t-20.5 10.5t-33.5 7
q-5 1 -8 2v22h259q278 0 278 -174q0 -144 -194 -173q53 -10 93 -74zM291 594q-45 0 -60.5 -11t-15.5 -35v-236h65q93 0 131.5 36t38.5 101q0 145 -159 145z" />
    <glyph glyph-name="S" unicode="S" horiz-adv-x="519" 
d="M252 -12q-106 0 -199 63l-8 128h25q19 -71 66 -114.5t112 -43.5q55 0 90.5 33.5t35.5 84.5q0 49 -34 81.5t-107 67.5q-38 18 -64 34t-54.5 40t-43 55.5t-14.5 69.5q0 70 52.5 114.5t151.5 44.5q21 0 40 -2t35.5 -6.5t28.5 -8.5t25 -11l19.5 -10.5t18 -11.5t13.5 -9
l3 -130h-23q-40 156 -159 156q-53 0 -80.5 -27.5t-27.5 -68.5t31 -71.5t101 -63.5q33 -16 50 -25t49 -30t49 -41t31 -50.5t14 -65.5q0 -81 -65.5 -131.5t-161.5 -50.5z" />
    <glyph glyph-name="T" unicode="T" horiz-adv-x="605" 
d="M572 640l8 -176h-21q-11 71 -40.5 102.5t-105.5 31.5h-57v-497q0 -20 5 -33t9.5 -20.5t21.5 -13t25 -7t36 -5.5v-22h-301v22q28 4 36 5.5t25 7t21.5 13t9.5 20.5t5 33v497h-54q-78 0 -108 -31.5t-41 -102.5h-21l8 176l51 -10h437z" />
    <glyph glyph-name="U" unicode="U" horiz-adv-x="718" 
d="M358 -12q-46 0 -85.5 10.5t-79 37t-62.5 81.5t-23 134v278q0 23 -3.5 37t-17.5 22.5t-20.5 10.5t-33.5 7q-5 1 -8 2v22h274v-22q-51 -10 -64 -20q-19 -16 -19 -59v-291q0 -207 168 -207q31 0 58.5 7.5t56 27t45.5 60t17 98.5v305q0 23 -4 37t-17.5 22.5t-21.5 10.5t-33 7
q-2 1 -3 1t-3 0.5t-3 0.5v22h217v-22q-56 -10 -69 -20q-21 -16 -21 -59v-285q0 -73 -20.5 -125t-57 -79.5t-77.5 -39.5t-90 -12z" />
    <glyph glyph-name="V" unicode="V" horiz-adv-x="693" 
d="M501 630h187v-22q-33 -6 -42.5 -9t-21 -13.5t-20.5 -33.5l-236 -559h-39l-242 558q-14 33 -27 41t-55 16v22h262v-22l-17.5 -3.5t-17.5 -4t-13.5 -4.5t-11.5 -6.5t-6 -9t-1.5 -12.5t5.5 -17l182 -421l175 422q4 9 5 16.5t-2 12.5t-5.5 8.5t-11 6.5t-13 4.5t-17 4
l-17.5 3.5v22z" />
    <glyph glyph-name="W" unicode="W" horiz-adv-x="1007" 
d="M299 -8l-211 558q-12 32 -25.5 40.5t-57.5 16.5v22h259v-22q-4 -1 -12.5 -3t-12 -2.5t-10 -2.5t-9.5 -3.5l-8 -4t-6.5 -5t-3.5 -6t-2 -8t1 -10t3 -12.5l150 -412l114 325q19 48 0 90.5t-72 54.5v22h172q0 -39 36 -138l128 -353l130 368q9 24 9.5 41t-3.5 27t-18 16.5
t-27.5 9.5t-39.5 7v22h219v-22q-32 -6 -42.5 -9.5t-21.5 -14t-19 -33.5l-202 -558h-40l-173 462l-165 -463h-40z" />
    <glyph glyph-name="X" unicode="X" horiz-adv-x="721" 
d="M581 85q24 -36 45.5 -45.5t79.5 -17.5v-22h-294v22q50 9 57 17q10 12 -13 45l-129 191l-137 -188q-7 -9 -11.5 -16.5t-5.5 -13.5t-2.5 -9.5t2.5 -7t5 -5.5t10 -4.5t11.5 -3t15 -2.5t16.5 -3v-22h-216v22q65 9 82 19q22 11 47 45l162 219l-158 234q-27 39 -48 50t-75 19
v22h286v-22q-25 -5 -34.5 -7.5t-18 -10t-4 -19.5t18.5 -32l111 -164l123 166q15 20 19 31.5t-6.5 18.5t-19 9.5t-35.5 7.5v22h210v-22q-53 -8 -74 -18.5t-50 -48.5l-146 -196z" />
    <glyph glyph-name="Y" unicode="Y" horiz-adv-x="655" 
d="M448 630h197v-22q-40 -8 -52.5 -16.5t-35.5 -45.5l-171 -274v-171q0 -25 4.5 -39t20.5 -22t26 -10.5t42 -7.5v-22h-293v22q59 10 73 21q20 15 20 58v159l-182 286q-24 37 -36 45.5t-51 16.5v22h264v-22q-49 -11 -58 -21q-13 -13 4 -41l148 -237l144 237q10 17 11.5 27.5
t-9 16.5t-19 8.5t-31.5 6.5q-11 2 -16 3v22z" />
    <glyph glyph-name="Z" unicode="Z" horiz-adv-x="595" 
d="M36 0l-11 15l391 589l-205 -4q-72 -1 -100.5 -31t-33.5 -101h-25v168l59 -6h450l-400 -604l238 4q69 1 97 32t43 102h26q-19 -102 -19 -164h-510z" />
    <glyph glyph-name="bracketleft" unicode="[" horiz-adv-x="289" 
d="M263 -166l-197 10v905l197 10v-20l-102 -19v-847l102 -19v-20z" />
    <glyph glyph-name="backslash" unicode="\" horiz-adv-x="388" 
d="M362 -65l-53 -23l-313 816l53 23z" />
    <glyph glyph-name="bracketright" unicode="]" horiz-adv-x="289" 
d="M26 -166v20l102 19v847l-102 19v20l197 -10v-905z" />
    <glyph glyph-name="asciicircum" unicode="^" horiz-adv-x="448" 
d="M60 367l-14 13l178 266l178 -266l-14 -13l-164 195z" />
    <glyph glyph-name="underscore" unicode="_" horiz-adv-x="622" 
d="M46 -58l1 38h529l-1 -38h-529z" />
    <glyph glyph-name="grave" unicode="`" horiz-adv-x="162" 
d="M132 510q-70 77 -120 111q7 19 30.5 36t43.5 17q41 -58 69 -148z" />
    <glyph glyph-name="a" unicode="a" horiz-adv-x="511" 
d="M421 92q0 -24 21.5 -28.5t53.5 13.5v-23q-37 -41 -90 -61q-33 0 -56 25t-24 57q-84 -82 -176 -82q-53 0 -86.5 28.5t-33.5 77.5q0 25 10.5 45t25 33.5t42.5 26t51 20t64 18.5q37 10 50.5 14t29.5 13.5t23 22.5v14q0 60 -27 82.5t-89 22.5q-30 0 -41 -28q-20 -51 -35 -70
t-36 -19q-17 0 -28 10t-11 29q0 33 38.5 60.5t90.5 41.5t99 14q70 0 102 -38t32 -114v-205zM206 49q69 0 120 66v124l-98 -28q-53 -15 -75.5 -37t-22.5 -53q0 -35 21.5 -53.5t54.5 -18.5z" />
    <glyph glyph-name="b" unicode="b" horiz-adv-x="546" 
d="M264 -9q-89 0 -140 41.5t-51 114.5v400q0 28 -15.5 43t-57.5 20v20q85 14 148 57l20 -19v-316q24 41 67.5 69t95.5 28q74 0 127 -58t53 -155q0 -111 -71 -178t-176 -67zM265 25q62 0 104.5 47.5t42.5 134.5q0 80 -36 129.5t-95 49.5q-74 0 -113 -71v-180
q0 -47 23.5 -78.5t73.5 -31.5z" />
    <glyph glyph-name="c" unicode="c" horiz-adv-x="479" 
d="M266 -9q-100 0 -165.5 61.5t-65.5 163.5q0 106 68 169.5t171 63.5q73 0 119 -31t46 -73q0 -22 -13 -34t-33 -12q-44 0 -63 71q-13 48 -60 48q-54 0 -94.5 -43t-40.5 -124q0 -85 48.5 -140.5t125.5 -55.5q83 0 119 54l17 -11q-18 -51 -65.5 -79t-113.5 -28z" />
    <glyph glyph-name="d" unicode="d" 
d="M473 88q0 -30 12.5 -44.5t53.5 -21.5v-22h-154l8 91h-13q-61 -100 -161 -100q-75 0 -129.5 57t-54.5 154q0 110 72.5 178.5t170.5 68.5q58 0 100 -27v125q0 29 -16 43.5t-59 19.5v20q88 14 150 57l20 -19v-580zM271 54q43 0 70 27.5t37 63.5v209q-8 26 -33.5 44t-64.5 18
q-62 0 -105 -46t-43 -131q0 -83 40.5 -134t98.5 -51z" />
    <glyph glyph-name="e" unicode="e" horiz-adv-x="486" 
d="M309 55q83 0 119 54l17 -11q-18 -51 -65.5 -79t-112.5 -28q-99 0 -165.5 62t-66.5 164t64.5 167t161.5 65q103 0 153 -69t24 -137h-305q4 -83 51.5 -135.5t124.5 -52.5zM251 416q-47 0 -80 -36.5t-37 -103.5h214q8 52 -17.5 96t-79.5 44z" />
    <glyph glyph-name="f" unicode="f" horiz-adv-x="350" 
d="M315 698q81 0 105 -54q-1 -23 -19.5 -41t-45.5 -23q-26 74 -78 74q-34 0 -58.5 -30t-24.5 -107v-78l118 10q-5 -20 -5 -47h-113v-326q0 -15 6 -25t22 -15.5t27.5 -7.5t39.5 -5q5 -1 8 -1v-22h-277v22q29 5 40 7.5t23 14t12 32.5v326h-75v23l75 15v3q0 123 62.5 189
t157.5 66z" />
    <glyph glyph-name="g" unicode="g" horiz-adv-x="504" 
d="M469 430v-56l-89 13q28 -36 28 -81q0 -62 -48 -102t-127 -40h-40q-21 0 -32.5 -10.5t-11.5 -26.5q0 -35 44 -39l108 -10q95 -8 127.5 -25.5t32.5 -62.5q0 -80 -73.5 -129t-185.5 -50q-90 -1 -136 32t-46 80q0 20 29 47.5t69 45.5q-60 23 -60 71q0 16 31.5 47t60.5 44
q-44 16 -69 50t-25 78q0 62 48.5 102.5t127.5 40.5q42 0 75 -12q29 -7 162 -7zM232 191q46 0 65 35.5t19 79.5t-19 80t-65 36t-65 -36t-19 -80t19 -79.5t65 -35.5zM294 -7l-108 9q-40 4 -61.5 -18t-21.5 -53q0 -33 28.5 -57.5t98.5 -24.5q75 0 113 29.5t38 69.5
q0 25 -18.5 33t-68.5 12z" />
    <glyph glyph-name="h" unicode="h" horiz-adv-x="574" 
d="M488 76q0 -21 9.5 -32.5t20 -14t36.5 -7.5v-22h-224v22q25 5 34.5 7.5t19 14t9.5 32.5v214q0 95 -79 95q-66 0 -121 -64v-245q0 -21 9.5 -32.5t19 -14t34.5 -7.5v-22h-231v22q49 9 61 20t12 34v471q0 28 -15.5 43t-57.5 20v20q87 15 148 57l20 -19v-312q77 93 171 93
q124 0 124 -154v-219z" />
    <glyph glyph-name="i" unicode="i" horiz-adv-x="277" 
d="M132 553q-24 0 -42 17t-18 41t18 41t42 17t42 -17t18 -41t-18 -41t-42 -17zM25 0v22q26 5 36.5 7.5t20 14t9.5 32.5v239q0 30 -12.5 44t-53.5 19v20q80 13 140 58l21 -19v-361q0 -21 9.5 -32.5t20 -14t36.5 -7.5v-22h-227z" />
    <glyph glyph-name="j" unicode="j" horiz-adv-x="257" 
d="M127 553q-24 0 -42 17t-18 41t18 41t42 17t42 -17t18 -41t-18 -41t-42 -17zM-1 -185q-9 13 0 26q46 16 66 48.5t20 99.5v326q0 30 -12.5 44t-53.5 19v20q71 13 140 58l21 -19v-454q0 -42 -17 -74.5t-46 -51t-57.5 -28.5t-60.5 -14z" />
    <glyph glyph-name="k" unicode="k" horiz-adv-x="556" 
d="M472 58q13 -18 28 -24.5t51 -10.5v-23h-165q0 26 -18 53l-120 172l-55 -53v-96q0 -20 10 -31t22 -14.5t34 -7.5q5 -1 7 -1v-22h-241v22q49 9 61 20t12 34v471q0 28 -15.5 43t-57.5 20v20q87 15 148 57l20 -19v-446l147 142q23 22 14 35.5t-48 17.5v23h200v-23
q-41 -4 -65.5 -16t-49.5 -37l-81 -78z" />
    <glyph glyph-name="l" unicode="l" horiz-adv-x="291" 
d="M25 0v22q49 9 61 20t12 34v471q0 28 -15.5 43t-57.5 20v20q87 15 148 57l20 -19v-592q0 -20 10 -31t22 -14.5t34 -7.5q5 -1 7 -1v-22h-241z" />
    <glyph glyph-name="m" unicode="m" horiz-adv-x="827" 
d="M20 0v22q21 3 29 5t19 7.5t14.5 15.5t3.5 26v249q0 30 -12.5 42.5t-53.5 10.5v20q84 13 150 58l20 -19l-27 -84h16q72 96 160 96q94 0 115 -96h8q63 96 155 96q65 0 94.5 -45t29.5 -109v-219q0 -30 14 -39t52 -15v-22h-227v22q21 3 29 5t19 7.5t14.5 15.5t3.5 26v214
q0 95 -75 95q-60 0 -110 -65v-244q0 -30 14 -39t51 -15v-22h-227v22q21 3 29.5 5t19.5 7.5t14.5 15.5t3.5 26v214q0 45 -19 70t-55 25q-62 0 -111 -65v-244q0 -21 9.5 -32.5t19 -14t34.5 -7.5v-22h-224z" />
    <glyph glyph-name="n" unicode="n" horiz-adv-x="562" 
d="M20 0v22q26 5 36.5 7.5t20 14t9.5 32.5v239q0 30 -12.5 44t-53.5 19v20q84 13 150 58l20 -19l-27 -84h16q78 96 173 96q124 0 124 -154v-219q0 -21 9.5 -32.5t20 -14t36.5 -7.5v-22h-224v22q25 5 34.5 7.5t19 14t9.5 32.5v213q0 96 -79 96q-68 0 -121 -65v-244
q0 -21 9.5 -32.5t19 -14t34.5 -7.5v-22h-224z" />
    <glyph glyph-name="o" unicode="o" horiz-adv-x="541" 
d="M265 -9q-95 0 -162.5 62t-67.5 164q0 106 71.5 169t169.5 63q95 0 162.5 -62t67.5 -164q0 -106 -71.5 -169t-169.5 -63zM278 24q52 0 88 46t36 133q0 89 -39 151t-100 62q-52 0 -88 -46t-36 -133q0 -89 39 -151t100 -62z" />
    <glyph glyph-name="p" unicode="p" horiz-adv-x="560" 
d="M348 449q72 0 124.5 -58t52.5 -155q0 -110 -69 -177.5t-171 -67.5q-54 0 -99 21v-109q0 -32 16.5 -41t63.5 -15v-22h-246v22q30 4 41 7t20.5 14.5t9.5 34.5v412q0 30 -13.5 44t-57.5 19v20q91 14 155 58l20 -19l-39 -113h17q24 50 70 87.5t105 37.5zM289 25q57 0 97 46.5
t40 135.5q0 79 -32.5 129t-89.5 50q-54 0 -86 -41t-32 -74v-114q0 -55 24.5 -93.5t78.5 -38.5z" />
    <glyph glyph-name="q" unicode="q" horiz-adv-x="556" 
d="M469 -99q0 -30 14 -39t52 -15v-22h-247v22q52 6 69 14.5t17 39.5v179q-61 -89 -155 -89q-75 0 -129.5 57t-54.5 154q0 112 77 179.5t196 67.5q64 0 113 -22l48 13v-539zM271 54q72 0 103 77v210q0 31 -28 53t-69 22q-60 0 -102.5 -46t-42.5 -131q0 -83 40.5 -134
t98.5 -51z" />
    <glyph glyph-name="r" unicode="r" horiz-adv-x="402" 
d="M20 0v22q23 3 32 5t20.5 7.5t15 15.5t3.5 26v240q0 30 -13.5 44t-57.5 18v20q91 14 155 58l20 -19l-28 -120h24q32 69 65.5 104t79.5 35q22 0 41 -8v-95q-33 13 -64 13q-60 0 -93.5 -39.5t-33.5 -100.5v-150q0 -30 15 -39t59 -15v-22h-240z" />
    <glyph glyph-name="s" unicode="s" horiz-adv-x="401" 
d="M183 -9q-48 0 -87.5 13t-58.5 27l-2 92h32q32 -100 126 -100q42 0 65 18.5t23 51.5q0 43 -51 68q-15 7 -48 19l-10 4q-28 10 -48 20.5t-42 27t-33.5 40t-11.5 51.5q0 57 44.5 91.5t121.5 34.5q71 0 129 -38l-1 -91h-30q-28 97 -109 97q-36 0 -56 -18t-20 -45
q0 -29 22.5 -47.5t70.5 -36.5q31 -12 41.5 -16t39 -18.5t40.5 -27t24 -34.5t12 -48q0 -60 -51 -97.5t-132 -37.5z" />
    <glyph glyph-name="t" unicode="t" horiz-adv-x="340" 
d="M191 112q0 -25 13 -38t34 -13.5t41 3.5t41 12v-24q-65 -37 -144 -62q-33 0 -56.5 25.5t-23.5 57.5v329h-76v24q86 33 143 105h28v-95l126 13q-5 -20 -5 -47h-121v-290z" />
    <glyph glyph-name="u" unicode="u" horiz-adv-x="560" 
d="M211 -9q-130 0 -130 154v227q0 18 -8.5 27.5t-19 12.5t-33.5 7v21q96 -5 156 6v-297q0 -93 81 -93q64 0 122 53v263q0 18 -8.5 27.5t-19 12.5t-33.5 7v21q96 -5 156 6v-358q0 -30 12.5 -44.5t53.5 -21.5v-22h-151l6 78h-13q-85 -87 -171 -87z" />
    <glyph glyph-name="v" unicode="v" horiz-adv-x="504" 
d="M338 440h161v-22q-34 -4 -46.5 -11.5t-24.5 -36.5l-158 -376h-34l-162 376q-13 29 -24.5 36.5t-44.5 11.5v22h224v-22q-46 -7 -54 -18t0 -30l110 -262l100 243q7 16 7 28t-3.5 18.5t-13.5 11t-17 6t-20 3.5v22z" />
    <glyph glyph-name="w" unicode="w" horiz-adv-x="789" 
d="M221 -6l-147 381q-10 26 -22.5 33t-46.5 10v22h225v-22q-46 -6 -54 -18q-6 -9 0 -25l96 -261l89 218q16 41 3 64q-6 12 -16.5 15.5t-33.5 6.5v22h152q0 -36 18 -82l94 -245l87 217q9 22 10 38t-3 25t-16 14.5t-23.5 7.5t-31.5 3v22h183v-22q-34 -3 -46 -10t-23 -33
l-152 -381h-35l-134 336l-138 -336h-35z" />
    <glyph glyph-name="x" unicode="x" horiz-adv-x="534" 
d="M431 66q17 -24 34 -32t54 -12v-22h-238v22q16 2 24 4t16.5 7t8 13t-9.5 20l-84 118l-93 -118q-9 -12 -11 -20t7.5 -13t14.5 -6t24 -4q3 -1 5 -1v-22h-168v22q37 4 52.5 11t35.5 33l115 144l-116 162q-17 25 -33.5 33.5t-49.5 12.5v22h229v-22q-15 -2 -23.5 -4.5
t-15.5 -7.5t-6.5 -13.5t9.5 -20.5l73 -102l81 102q10 13 11 21.5t-8.5 13.5t-17.5 6.5t-25 4.5v22h163v-22q-32 -4 -47 -12t-36 -34l-103 -127z" />
    <glyph glyph-name="y" unicode="y" horiz-adv-x="507" 
d="M341 440h161v-22q-34 -4 -45.5 -11t-23.5 -35l-176 -411q-12 -28 -22 -47.5t-27 -44t-39 -38t-47 -13.5q-33 0 -65 23v63q69 -6 108 6t56 51l15 36l-162 375q-12 28 -23.5 35t-45.5 11v22h223v-22q-45 -7 -53.5 -17t-0.5 -29l111 -263l112 263q4 9 4.5 15.5t-3 11t-7 7.5
t-13 5.5t-14 3t-16.5 2.5q-5 1 -7 1v22z" />
    <glyph glyph-name="z" unicode="z" horiz-adv-x="459" 
d="M36 0l-11 15l279 398l-130 -3q-84 -1 -94 -103h-25v139l59 -6h316l-288 -413l136 3q62 1 89 26.5t41 77.5h26q-19 -71 -19 -134h-379z" />
    <glyph glyph-name="braceleft" unicode="{" horiz-adv-x="297" 
d="M263 -161q-87 25 -115 74.5t-28 129.5v155q0 35 -21 54t-63 35v17q42 16 63 35t21 54v155q0 80 28 129.5t115 74.5l8 -18q-38 -16 -47 -56.5t-9 -129.5v-130q0 -96 -104 -119v-7q104 -23 104 -119v-130q0 -47 1 -68.5t6 -50t17 -43.5t32 -24z" />
    <glyph glyph-name="bar" unicode="|" horiz-adv-x="192" 
d="M76 -175v821h40v-821h-40z" />
    <glyph glyph-name="braceright" unicode="}" horiz-adv-x="297" 
d="M34 -161l-8 18q38 16 47 56.5t9 129.5v130q0 96 104 119v7q-104 23 -104 119v130q0 46 -1 68t-6 50.5t-17 43.5t-32 24l8 18q87 -25 115 -74.5t28 -129.5v-155q0 -35 21 -54t63 -35v-17q-42 -16 -63 -35t-21 -54v-155q0 -80 -28 -129.5t-115 -74.5z" />
    <glyph glyph-name="asciitilde" unicode="~" horiz-adv-x="458" 
d="M303 185q-29 0 -53.5 11t-39 24.5t-35.5 24.5t-44 11q-29 0 -46 -15t-17 -31h-20q-10 46 22.5 77t84.5 31q36 0 64.5 -18t53.5 -35.5t54 -17.5t46 15t17 31h20q10 -46 -22.5 -77t-84.5 -31z" />
    <glyph glyph-name="exclamdown" unicode="&#xa1;" horiz-adv-x="218" 
d="M118 455q26 0 44.5 -18t18.5 -44q0 -25 -18.5 -43t-44.5 -18t-44.5 18t-18.5 43q0 26 18.5 44t44.5 18zM97 263h24l43 -409q7 -62 -55 -62t-55 62z" />
    <glyph glyph-name="cent" unicode="&#xa2;" horiz-adv-x="479" 
d="M428 109l17 -11q-18 -51 -65.5 -79t-113.5 -28q-37 0 -70 9l-17 -61h-34l20 72q-60 25 -95 78.5t-35 126.5q0 106 68 169.5t171 63.5h10l19 70h34l-20 -73q55 -9 88.5 -37.5t33.5 -63.5q0 -22 -13 -34t-33 -12q-44 0 -63 71q-7 27 -23 38l-89 -327q40 -26 91 -26
q83 0 119 54zM135 251q0 -92 55 -147l85 314h-5q-54 0 -94.5 -43t-40.5 -124z" />
    <glyph glyph-name="sterling" unicode="&#xa3;" horiz-adv-x="596" 
d="M529 179q31 -21 31 -64q0 -66 -59 -103t-119 -37q-39 0 -76 21t-71.5 42t-65.5 21q-60 0 -105 -64l-28 29q58 56 85.5 109t27.5 136v16h-96l9 45h87v52q0 123 66 189t169 66q94 0 118 -55q-1 -23 -19.5 -41t-45.5 -23q-11 32 -36 53.5t-63 21.5q-87 0 -87 -137v-126h177
l-9 -45h-168v-16q0 -54 -22.5 -98t-59.5 -72q36 15 68 15q31 0 61.5 -14t50.5 -31t45 -31t46 -14q38 0 38 41q0 31 -20 59z" />
    <glyph glyph-name="currency" unicode="&#xa4;" horiz-adv-x="589" 
d="M501 228q0 -74 -46 -131l63 -63l-32 -32l-63 63q-57 -46 -130 -46q-72 0 -128 45l-62 -62l-32 32l62 62q-46 57 -46 132q0 72 45 130l-61 60l32 33l61 -61q56 46 129 46t131 -47l62 62l32 -33l-62 -61q45 -58 45 -129zM134 228q0 -68 46.5 -117t113.5 -49t114.5 49
t47.5 117t-47.5 116t-114.5 48t-113.5 -48t-46.5 -116z" />
    <glyph glyph-name="yen" unicode="&#xa5;" horiz-adv-x="655" 
d="M448 630h197v-22q-40 -8 -52.5 -16.5t-35.5 -45.5l-154 -247h129v-38h-146v-54h146v-38h-146v-68q0 -25 4.5 -39t20.5 -22t26 -10.5t42 -7.5v-22h-293v22q59 10 73 21q20 15 20 58v68h-157v38h157v53l-1 1h-156v38h132l-157 247q-24 37 -36 45.5t-51 16.5v22h264v-22
q-49 -11 -58 -21q-13 -13 4 -41l148 -237l144 237q10 17 11.5 27.5t-9 16.5t-19 8.5t-31.5 6.5q-11 2 -16 3v22z" />
    <glyph glyph-name="brokenbar" unicode="&#xa6;" horiz-adv-x="192" 
d="M76 315v331h40v-331h-40zM76 -175v331h40v-331h-40z" />
    <glyph glyph-name="section" unicode="&#xa7;" horiz-adv-x="495" 
d="M349 89q83 -53 83 -129q0 -61 -46.5 -100.5t-134.5 -39.5q-16 0 -31.5 1.5t-27 4t-24 6.5t-20 7t-18 8.5t-14.5 8t-13 8.5t-11 7l-3 100h21q15 -50 51.5 -85.5t89.5 -35.5q45 0 69 24t24 57t-28 58t-92 56q-31 15 -46.5 23t-45 27.5t-45.5 37t-29 45t-13 58.5
q0 49 28.5 85.5t78.5 54.5q-81 53 -81 130q0 60 46.5 100t131.5 40q19 0 37.5 -3t30.5 -6t27.5 -11t21 -11t19.5 -12l14 -9l3 -100h-21q-15 50 -50 86t-82 36q-43 0 -66.5 -24.5t-23.5 -56.5q0 -33 27 -58.5t90 -55.5q31 -15 46.5 -23t45 -27.5t45.5 -37t29 -45t13 -58.5
q0 -49 -28.5 -86t-77.5 -55zM141 265q0 -44 32 -73t99 -61q11 -5 33 -17q54 26 54 87q0 44 -32 73t-99 61l-33 16q-54 -25 -54 -86z" />
    <glyph glyph-name="dieresis" unicode="&#xa8;" horiz-adv-x="312" 
d="M57 570q-22 0 -36.5 14.5t-14.5 36.5t14.5 36.5t36.5 14.5t36.5 -14.5t14.5 -36.5t-14.5 -36.5t-36.5 -14.5zM255 570q-22 0 -36.5 14.5t-14.5 36.5t14.5 36.5t36.5 14.5t36.5 -14.5t14.5 -36.5t-14.5 -36.5t-36.5 -14.5z" />
    <glyph glyph-name="copyright" unicode="&#xa9;" horiz-adv-x="673" 
d="M337 25q-121 0 -206.5 85.5t-85.5 206.5q0 120 85.5 205.5t206.5 85.5q120 0 205.5 -85.5t85.5 -205.5q0 -121 -85.5 -206.5t-205.5 -85.5zM337 51q108 0 185 78.5t77 187.5q0 108 -77 186.5t-185 78.5t-185.5 -78.5t-77.5 -186.5q0 -109 77.5 -187.5t185.5 -78.5z
M349 149q-78 0 -126.5 47t-48.5 119q0 74 49 122t129 48q65 0 103 -24l4 -69h-19q-17 72 -95 72q-52 0 -81.5 -36t-29.5 -97q0 -68 40 -111t100 -43q55 0 80 26l10 -12q-38 -42 -115 -42z" />
    <glyph glyph-name="ordfeminine" unicode="&#xaa;" horiz-adv-x="350" 
d="M277 404q0 -15 14 -18t34 9v-15q-22 -27 -58 -39q-21 0 -36 16t-15 36q-57 -52 -114 -52q-34 0 -55.5 18t-21.5 50q0 16 7 29t15.5 21t28 16.5t32 13t41.5 12.5q52 15 62 26q3 3 5 7v8q0 39 -17.5 53.5t-57.5 14.5q-19 0 -26 -18q-12 -32 -22 -44.5t-24 -12.5
q-25 0 -25 25q0 31 49 53t98 22q86 0 86 -98v-133zM138 377q46 0 78 42v81l-63 -19q-35 -10 -49.5 -24t-14.5 -34q0 -22 14 -34t35 -12zM51 230v40h248v-40h-248z" />
    <glyph glyph-name="guillemotleft" unicode="&#xab;" horiz-adv-x="412" 
d="M46 225l152 138l12 -13l-91 -125l91 -125l-12 -13zM202 225l152 138l12 -13l-91 -125l91 -125l-12 -13z" />
    <glyph glyph-name="logicalnot" unicode="&#xac;" horiz-adv-x="561" 
d="M495 371v-228h-59v169h-370v59h429z" />
    <glyph glyph-name="uni00AD" unicode="&#xad;" horiz-adv-x="412" 
d="M56 234v43h300v-43h-300z" />
    <glyph glyph-name="registered" unicode="&#xae;" horiz-adv-x="673" 
d="M337 25q-121 0 -206.5 85.5t-85.5 206.5q0 120 85.5 205.5t206.5 85.5q120 0 205.5 -85.5t85.5 -205.5q0 -121 -85.5 -206.5t-205.5 -85.5zM337 51q108 0 185 78.5t77 187.5q0 108 -77 186.5t-185 78.5t-185.5 -78.5t-77.5 -186.5q0 -109 77.5 -187.5t185.5 -78.5z
M466 157q-48 0 -78 47l-35 55q-22 33 -36 39v14q90 0 90 67q0 31 -20 49.5t-61 18.5q-21 0 -28.5 -5.5t-7.5 -17.5v-211q0 -16 6 -24t12 -9.5t22 -4.5v-12h-132v12q16 3 22 4.5t12 9.5t6 24v204q0 12 -2 18.5t-9.5 10.5t-11 5t-17.5 4v12h125q138 0 138 -84
q0 -34 -26.5 -55.5t-63.5 -27.5q22 -9 51 -57l15 -25q28 -44 48 -46v-12q-7 -3 -19 -3z" />
    <glyph glyph-name="macron" unicode="&#xaf;" horiz-adv-x="297" 
d="M1 599l15 38h280l-15 -38h-280z" />
    <glyph glyph-name="degree" unicode="&#xb0;" horiz-adv-x="363" 
d="M178 375q-55 0 -93.5 36t-38.5 95q0 61 41 97.5t98 36.5q55 0 93.5 -36t38.5 -95q0 -61 -41.5 -97.5t-97.5 -36.5zM186 397q30 0 50.5 26t20.5 75q0 50 -22 85t-58 35q-30 0 -50.5 -26t-20.5 -75q0 -50 22.5 -85t57.5 -35z" />
    <glyph glyph-name="plusminus" unicode="&#xb1;" horiz-adv-x="502" 
d="M281 382h155v-59h-155v-157h-59v157h-156v59h156v155h59v-155zM66 1v59h370v-59h-370z" />
    <glyph glyph-name="uni00B2" unicode="&#xb2;" horiz-adv-x="270" 
d="M39 393l-3 11q5 4 20 17t21 18t19 17t19.5 19t16.5 18t15 19t10.5 17.5t8 18.5t2.5 18q0 20 -12 34t-35 14q-41 0 -66 -42l-11 7q12 31 38.5 48.5t58.5 17.5q35 0 58 -20t23 -50q0 -23 -17 -48t-35 -40t-45.5 -35.5t-32.5 -24.5h66q27 0 40.5 6.5t22.5 29.5h13l-19 -70
h-176z" />
    <glyph glyph-name="uni00B3" unicode="&#xb3;" horiz-adv-x="257" 
d="M105 384q-27 0 -48 7.5t-21 22.5t17 15q9 0 25.5 -15.5t33.5 -15.5q23 0 42 16.5t19 44.5q0 27 -18 40.5t-45 13.5q-17 0 -36 -7l-5 12l31 12q32 12 45.5 22.5t13.5 28.5q0 32 -41 32t-64 -27l-10 8q32 47 92 47q29 0 47.5 -14t18.5 -37q0 -33 -56 -58q31 -2 53 -17
t22 -45q0 -37 -34 -61.5t-82 -24.5z" />
    <glyph glyph-name="acute" unicode="&#xb4;" horiz-adv-x="159" 
d="M30 510l-23 16q28 90 69 148q20 0 43.5 -17t30.5 -36q-50 -34 -120 -111z" />
    <glyph glyph-name="paragraph" unicode="&#xb6;" horiz-adv-x="671" 
d="M297 630h349v-22q-51 -10 -64 -20q-19 -16 -19 -59v-555q0 -70 -42.5 -109.5t-121.5 -39.5h-59v723q0 24 -11.5 35t-41.5 11q-70 0 -108 -48t-38 -117t37 -114t112 -45q12 0 12 -17.5t-12 -17.5q-114 0 -189 53.5t-75 146.5t75.5 144t195.5 51zM461 -27v575q0 28 -9 39
t-28 11t-28 -11t-9 -39v-692q44 3 59 32t15 85z" />
    <glyph glyph-name="periodcentered" unicode="&#xb7;" horiz-adv-x="218" 
d="M118 236q-26 0 -44.5 18t-18.5 44q0 25 18.5 43t44.5 18t44.5 -18t18.5 -43q0 -26 -18.5 -44t-44.5 -18z" />
    <glyph glyph-name="cedilla" unicode="&#xb8;" horiz-adv-x="233" 
d="M69 -212l5 23q45 0 67.5 13t22.5 33q0 45 -109 45l50 98h43l-25 -49q44 0 74 -21t30 -57q0 -38 -38.5 -61.5t-119.5 -23.5z" />
    <glyph glyph-name="uni00B9" unicode="&#xb9;" horiz-adv-x="207" 
d="M41 398v10q22 2 30 6t8 16v165q0 11 -4 14.5t-12 1.5l-20 -5v11l77 33l8 -6v-214q0 -12 8 -16t30 -6v-10h-125z" />
    <glyph glyph-name="ordmasculine" unicode="&#xba;" horiz-adv-x="351" 
d="M172 340q-62 0 -105 39.5t-43 105.5q0 68 46 109t109 41q62 0 105 -40t43 -106q0 -68 -46 -108.5t-109 -40.5zM181 361q33 0 56 29.5t23 85.5q0 58 -24.5 97.5t-64.5 39.5q-34 0 -57 -29.5t-23 -85.5q0 -58 25 -97.5t65 -39.5zM51 230v40h249v-40h-249z" />
    <glyph glyph-name="guillemotright" unicode="&#xbb;" horiz-adv-x="412" 
d="M210 225l-152 -138l-12 13l91 125l-91 125l12 13zM366 225l-152 -138l-12 13l91 125l-91 125l12 13z" />
    <glyph glyph-name="onequarter" unicode="&#xbc;" horiz-adv-x="588" 
d="M179 408v-10h-125v10q22 2 30 6t8 16v165q0 11 -4 14.5t-12 1.5l-20 -5v11l77 33l8 -6v-214q0 -12 8 -16t30 -6zM473 636h28l-432 -641h-28zM510 32q0 -12 7.5 -16t29.5 -6v-10h-124v10q22 2 29.5 6t7.5 16v34h-108l-4 20l116 160h46v-160h37l-4 -20h-33v-34zM368 86h92
v127z" />
    <glyph glyph-name="onehalf" unicode="&#xbd;" horiz-adv-x="597" 
d="M54 398v10q22 2 30 6t8 16v165q0 11 -4 14.5t-12 1.5l-20 -5v11l77 33l8 -6v-214q0 -12 8 -16t30 -6v-10h-125zM41 -5l432 641h28l-432 -641h-28zM361 0l-3 11q5 4 20 17t21 18t19 17t19.5 19t16.5 18t15 19t10.5 17.5t8 18.5t2.5 18q0 20 -12 34t-35 14q-41 0 -66 -42
l-11 7q12 31 38.5 48.5t58.5 17.5q35 0 58 -20t23 -50q0 -23 -17 -48t-35 -40t-45.5 -35.5t-32.5 -24.5h66q27 0 40.5 6.5t22.5 29.5h13l-19 -70h-176z" />
    <glyph glyph-name="threequarters" unicode="&#xbe;" horiz-adv-x="706" 
d="M221 470q0 -37 -34 -61.5t-82 -24.5q-27 0 -48 7.5t-21 22.5t17 15q9 0 25.5 -15.5t33.5 -15.5q23 0 42 16.5t19 44.5q0 27 -18 40.5t-45 13.5q-17 0 -36 -7l-5 12l31 12q32 12 45.5 22.5t13.5 28.5q0 32 -41 32t-64 -27l-10 8q32 47 92 47q29 0 47.5 -14t18.5 -37
q0 -33 -56 -58q31 -2 53 -17t22 -45zM538 636h28l-432 -641h-28zM633 32q0 -12 7.5 -16t29.5 -6v-10h-124v10q22 2 29.5 6t7.5 16v34h-108l-4 20l116 160h46v-160h37l-4 -20h-33v-34zM491 86h92v127z" />
    <glyph glyph-name="questiondown" unicode="&#xbf;" horiz-adv-x="466" 
d="M252 455q26 0 44.5 -18t18.5 -44q0 -25 -18.5 -43t-44.5 -18t-44.5 18t-18.5 43q0 26 18.5 44t44.5 18zM263 252q14 -39 8.5 -64t-23.5 -55.5t-38 -55.5t-36 -63t-16 -77q0 -115 131 -115q29 0 41 29q20 50 35 69.5t36 19.5q17 0 28 -10t11 -29q0 -49 -74 -82t-151 -33
q-81 0 -125 42.5t-44 112.5q0 46 21 83.5t50.5 62t58.5 47.5t48 52.5t17 65.5h22z" />
    <glyph glyph-name="Agrave" unicode="&#xc0;" horiz-adv-x="693" 
d="M354 700q-70 77 -120 111q7 19 30.5 36t43.5 17q41 -58 69 -148zM606 79q14 -33 27 -41t55 -16v-22h-262v22l17.5 3.5t17.5 4t13.5 4.5t11.5 6.5t6 9t1.5 12.5t-5.5 17l-51 117h-257l-49 -118q-4 -9 -5 -16.5t2 -12.5t5.5 -8.5t11 -6.5t13 -4.5t17 -4l17.5 -3.5v-22h-187
v22q33 6 42.5 9t21 13.5t20.5 33.5l236 559h39zM194 230h229l-117 270z" />
    <glyph glyph-name="Aacute" unicode="&#xc1;" horiz-adv-x="693" 
d="M459 811q-50 -34 -120 -111l-23 16q28 90 69 148q20 0 43.5 -17t30.5 -36zM606 79q14 -33 27 -41t55 -16v-22h-262v22l17.5 3.5t17.5 4t13.5 4.5t11.5 6.5t6 9t1.5 12.5t-5.5 17l-51 117h-257l-49 -118q-4 -9 -5 -16.5t2 -12.5t5.5 -8.5t11 -6.5t13 -4.5t17 -4l17.5 -3.5
v-22h-187v22q33 6 42.5 9t21 13.5t20.5 33.5l236 559h39zM194 230h229l-117 270z" />
    <glyph glyph-name="Acircumflex" unicode="&#xc2;" horiz-adv-x="693" 
d="M344 804l-125 -91l-13 12l138 152l138 -152l-13 -12zM606 79q14 -33 27 -41t55 -16v-22h-262v22l17.5 3.5t17.5 4t13.5 4.5t11.5 6.5t6 9t1.5 12.5t-5.5 17l-51 117h-257l-49 -118q-4 -9 -5 -16.5t2 -12.5t5.5 -8.5t11 -6.5t13 -4.5t17 -4l17.5 -3.5v-22h-187v22
q33 6 42.5 9t21 13.5t20.5 33.5l236 559h39zM194 230h229l-117 270z" />
    <glyph glyph-name="Atilde" unicode="&#xc3;" horiz-adv-x="693" 
d="M198 746h-21q-9 45 21.5 75.5t78.5 30.5q33 0 58.5 -18t48.5 -35.5t49 -17.5t41.5 14t15.5 30h21q9 -45 -21.5 -75.5t-78.5 -30.5q-27 0 -49 11t-35 24.5t-32 24.5t-40 11q-26 0 -41.5 -14t-15.5 -30zM606 79q14 -33 27 -41t55 -16v-22h-262v22l17.5 3.5t17.5 4t13.5 4.5
t11.5 6.5t6 9t1.5 12.5t-5.5 17l-51 117h-257l-49 -118q-4 -9 -5 -16.5t2 -12.5t5.5 -8.5t11 -6.5t13 -4.5t17 -4l17.5 -3.5v-22h-187v22q33 6 42.5 9t21 13.5t20.5 33.5l236 559h39zM194 230h229l-117 270z" />
    <glyph glyph-name="Adieresis" unicode="&#xc4;" horiz-adv-x="693" 
d="M247 760q-22 0 -36.5 14.5t-14.5 36.5t14.5 36.5t36.5 14.5t36.5 -14.5t14.5 -36.5t-14.5 -36.5t-36.5 -14.5zM445 760q-22 0 -36.5 14.5t-14.5 36.5t14.5 36.5t36.5 14.5t36.5 -14.5t14.5 -36.5t-14.5 -36.5t-36.5 -14.5zM606 79q14 -33 27 -41t55 -16v-22h-262v22
l17.5 3.5t17.5 4t13.5 4.5t11.5 6.5t6 9t1.5 12.5t-5.5 17l-51 117h-257l-49 -118q-4 -9 -5 -16.5t2 -12.5t5.5 -8.5t11 -6.5t13 -4.5t17 -4l17.5 -3.5v-22h-187v22q33 6 42.5 9t21 13.5t20.5 33.5l236 559h39zM194 230h229l-117 270z" />
    <glyph glyph-name="Aring" unicode="&#xc5;" horiz-adv-x="693" 
d="M346 723q-37 0 -63 25.5t-26 62.5t26 62.5t63 25.5t63 -25.5t26 -62.5t-26 -62.5t-63 -25.5zM346 858q-20 0 -33.5 -13.5t-13.5 -33.5t13.5 -33.5t33.5 -13.5t33.5 13.5t13.5 33.5t-13.5 33.5t-33.5 13.5zM606 79q14 -33 27 -41t55 -16v-22h-262v22l17.5 3.5t17.5 4
t13.5 4.5t11.5 6.5t6 9t1.5 12.5t-5.5 17l-51 117h-257l-49 -118q-4 -9 -5 -16.5t2 -12.5t5.5 -8.5t11 -6.5t13 -4.5t17 -4l17.5 -3.5v-22h-187v22q33 6 42.5 9t21 13.5t20.5 33.5l236 559h39zM194 230h229l-117 270z" />
    <glyph glyph-name="AE" unicode="&#xc6;" horiz-adv-x="894" 
d="M837 150h27l-41 -150h-491v22q51 10 64 20q19 16 19 59v115h-207l-74 -129q-6 -11 -9 -19.5t-0.5 -15t4.5 -10t12 -7.5t14 -5t18 -4t18 -4v-22h-186v22q40 8 53 17t35 47l255 439h-1q33 57 -25 73q-11 3 -55 10v22h554l9 -142h-27q-7 57 -27 81.5t-71 24.5h-89
q-59 0 -76.5 -13t-17.5 -63v-183h77q86 0 110 17t29 67h21v-202h-21q-5 50 -29 67t-110 17h-77v-189q0 -50 17.5 -63t76.5 -13h68q59 0 92 24.5t61 89.5zM228 250h187v279q0 21 -5 38z" />
    <glyph glyph-name="Ccedilla" unicode="&#xc7;" horiz-adv-x="655" 
d="M381 -12h-6l-19 -37q44 0 74 -21t30 -57q0 -38 -38.5 -61.5t-119.5 -23.5l5 23q45 0 67.5 13t22.5 33q0 45 -109 45l45 89q-129 15 -208.5 104.5t-79.5 220.5q0 143 96 236.5t252 93.5q118 0 195 -46q4 -91 7 -135h-36q-33 145 -181 145q-101 0 -158 -70t-57 -193
q0 -137 76.5 -223.5t191.5 -86.5q109 0 159 54l20 -21q-32 -35 -92.5 -58.5t-136.5 -23.5z" />
    <glyph glyph-name="Egrave" unicode="&#xc8;" horiz-adv-x="587" 
d="M302 700q-70 77 -120 111q7 19 30.5 36t43.5 17q41 -58 69 -148zM530 150h27l-41 -150h-491v22q51 10 64 20q19 16 19 59v428q0 23 -3.5 37t-17.5 22.5t-20.5 10.5t-33.5 7q-5 1 -8 2v22h489l9 -142h-27q-7 57 -27 81.5t-71 24.5h-89q-59 0 -76.5 -13t-17.5 -63v-183h77
q86 0 110 17t29 67h21v-202h-21q-5 50 -29 67t-110 17h-77v-189q0 -50 17.5 -63t76.5 -13h68q59 0 92 24.5t61 89.5z" />
    <glyph glyph-name="Eacute" unicode="&#xc9;" horiz-adv-x="587" 
d="M407 811q-50 -34 -120 -111l-23 16q28 90 69 148q20 0 43.5 -17t30.5 -36zM530 150h27l-41 -150h-491v22q51 10 64 20q19 16 19 59v428q0 23 -3.5 37t-17.5 22.5t-20.5 10.5t-33.5 7q-5 1 -8 2v22h489l9 -142h-27q-7 57 -27 81.5t-71 24.5h-89q-59 0 -76.5 -13t-17.5 -63
v-183h77q86 0 110 17t29 67h21v-202h-21q-5 50 -29 67t-110 17h-77v-189q0 -50 17.5 -63t76.5 -13h68q59 0 92 24.5t61 89.5z" />
    <glyph glyph-name="Ecircumflex" unicode="&#xca;" horiz-adv-x="587" 
d="M292 804l-125 -91l-13 12l138 152l138 -152l-13 -12zM530 150h27l-41 -150h-491v22q51 10 64 20q19 16 19 59v428q0 23 -3.5 37t-17.5 22.5t-20.5 10.5t-33.5 7q-5 1 -8 2v22h489l9 -142h-27q-7 57 -27 81.5t-71 24.5h-89q-59 0 -76.5 -13t-17.5 -63v-183h77q86 0 110 17
t29 67h21v-202h-21q-5 50 -29 67t-110 17h-77v-189q0 -50 17.5 -63t76.5 -13h68q59 0 92 24.5t61 89.5z" />
    <glyph glyph-name="Edieresis" unicode="&#xcb;" horiz-adv-x="587" 
d="M195 760q-22 0 -36.5 14.5t-14.5 36.5t14.5 36.5t36.5 14.5t36.5 -14.5t14.5 -36.5t-14.5 -36.5t-36.5 -14.5zM393 760q-22 0 -36.5 14.5t-14.5 36.5t14.5 36.5t36.5 14.5t36.5 -14.5t14.5 -36.5t-14.5 -36.5t-36.5 -14.5zM530 150h27l-41 -150h-491v22q51 10 64 20
q19 16 19 59v428q0 23 -3.5 37t-17.5 22.5t-20.5 10.5t-33.5 7q-5 1 -8 2v22h489l9 -142h-27q-7 57 -27 81.5t-71 24.5h-89q-59 0 -76.5 -13t-17.5 -63v-183h77q86 0 110 17t29 67h21v-202h-21q-5 50 -29 67t-110 17h-77v-189q0 -50 17.5 -63t76.5 -13h68q59 0 92 24.5
t61 89.5z" />
    <glyph glyph-name="Igrave" unicode="&#xcc;" horiz-adv-x="323" 
d="M170 700q-70 77 -120 111q7 19 30.5 36t43.5 17q41 -58 69 -148zM25 0v22q51 10 64 20q19 16 19 59v428q0 23 -3.5 37t-17.5 22.5t-20.5 10.5t-33.5 7q-5 1 -8 2v22h273v-22q-51 -10 -64 -20q-19 -16 -19 -59v-428q0 -23 3.5 -37t17.5 -22.5t20.5 -10.5t33.5 -7
q5 -1 8 -2v-22h-273z" />
    <glyph glyph-name="Iacute" unicode="&#xcd;" horiz-adv-x="323" 
d="M155 700l-23 16q28 90 69 148q20 0 43.5 -17t30.5 -36q-50 -34 -120 -111zM25 0v22q51 10 64 20q19 16 19 59v428q0 23 -3.5 37t-17.5 22.5t-20.5 10.5t-33.5 7q-5 1 -8 2v22h273v-22q-51 -10 -64 -20q-19 -16 -19 -59v-428q0 -23 3.5 -37t17.5 -22.5t20.5 -10.5t33.5 -7
q5 -1 8 -2v-22h-273z" />
    <glyph glyph-name="Icircumflex" unicode="&#xce;" horiz-adv-x="323" 
d="M160 877l138 -152l-13 -12l-125 91l-125 -91l-13 12zM25 0v22q51 10 64 20q19 16 19 59v428q0 23 -3.5 37t-17.5 22.5t-20.5 10.5t-33.5 7q-5 1 -8 2v22h273v-22q-51 -10 -64 -20q-19 -16 -19 -59v-428q0 -23 3.5 -37t17.5 -22.5t20.5 -10.5t33.5 -7q5 -1 8 -2v-22h-273z
" />
    <glyph glyph-name="Idieresis" unicode="&#xcf;" horiz-adv-x="323" 
d="M63 760q-22 0 -36.5 14.5t-14.5 36.5t14.5 36.5t36.5 14.5t36.5 -14.5t14.5 -36.5t-14.5 -36.5t-36.5 -14.5zM261 760q-22 0 -36.5 14.5t-14.5 36.5t14.5 36.5t36.5 14.5t36.5 -14.5t14.5 -36.5t-14.5 -36.5t-36.5 -14.5zM25 0v22q51 10 64 20q19 16 19 59v428
q0 23 -3.5 37t-17.5 22.5t-20.5 10.5t-33.5 7q-5 1 -8 2v22h273v-22q-51 -10 -64 -20q-19 -16 -19 -59v-428q0 -23 3.5 -37t17.5 -22.5t20.5 -10.5t33.5 -7q5 -1 8 -2v-22h-273z" />
    <glyph glyph-name="Eth" unicode="&#xd0;" horiz-adv-x="695" 
d="M288 630q57 0 109 -10.5t98.5 -35t80.5 -59.5t54 -88t20 -118q0 -83 -29.5 -146t-81 -99.5t-115 -55t-136.5 -18.5h-259v22q51 10 64 20q19 16 19 59v194q-29 0 -87 -2l10 36q52 -2 77 -2v202q0 23 -3.5 37t-17.5 22.5t-20.5 10.5t-33.5 7q-5 1 -8 2v22h259zM316 36
q217 0 217 273q0 285 -255 285h-59v-268q69 0 136 3l-10 -36q-63 3 -126 3v-164q0 -53 20.5 -74.5t76.5 -21.5z" />
    <glyph glyph-name="Ntilde" unicode="&#xd1;" horiz-adv-x="699" 
d="M202 746h-21q-9 45 21.5 75.5t78.5 30.5q33 0 58.5 -18t48.5 -35.5t49 -17.5t41.5 14t15.5 30h21q9 -45 -21.5 -75.5t-78.5 -30.5q-27 0 -49 11t-35 24.5t-32 24.5t-40 11q-26 0 -41.5 -14t-15.5 -30zM458 630h216v-22q-52 -10 -65 -20q-20 -17 -20 -59v-529h-45
l-393 532v-431q0 -23 4 -37t19 -22.5t22 -10.5t36 -7q6 -1 9 -2v-22h-216v22q52 10 65 20q20 16 20 59v428q0 23 -4 37t-17.5 22.5t-21.5 10.5t-33 7q-2 1 -3 1t-3 0.5t-3 0.5v22h180l343 -463v362q0 23 -4 37t-19 22.5t-22 10.5t-36 7q-6 1 -9 2v22z" />
    <glyph glyph-name="Ograve" unicode="&#xd2;" horiz-adv-x="730" 
d="M373 700q-70 77 -120 111q7 19 30.5 36t43.5 17q41 -58 69 -148zM363 -12q-138 0 -228 93t-90 233t91 236t231 96q138 0 228 -93.5t90 -233.5t-91 -235.5t-231 -95.5zM380 24q84 0 137 71t53 194q0 141 -62.5 231t-157.5 90q-84 0 -137 -71.5t-53 -194.5
q0 -140 62.5 -230t157.5 -90z" />
    <glyph glyph-name="Oacute" unicode="&#xd3;" horiz-adv-x="730" 
d="M358 700l-23 16q28 90 69 148q20 0 43.5 -17t30.5 -36q-50 -34 -120 -111zM363 -12q-138 0 -228 93t-90 233t91 236t231 96q138 0 228 -93.5t90 -233.5t-91 -235.5t-231 -95.5zM380 24q84 0 137 71t53 194q0 141 -62.5 231t-157.5 90q-84 0 -137 -71.5t-53 -194.5
q0 -140 62.5 -230t157.5 -90z" />
    <glyph glyph-name="Ocircumflex" unicode="&#xd4;" horiz-adv-x="730" 
d="M363 877l138 -152l-13 -12l-125 91l-125 -91l-13 12zM363 -12q-138 0 -228 93t-90 233t91 236t231 96q138 0 228 -93.5t90 -233.5t-91 -235.5t-231 -95.5zM380 24q84 0 137 71t53 194q0 141 -62.5 231t-157.5 90q-84 0 -137 -71.5t-53 -194.5q0 -140 62.5 -230t157.5 -90
z" />
    <glyph glyph-name="Otilde" unicode="&#xd5;" horiz-adv-x="730" 
d="M430 719q-42 0 -84 35.5t-72 35.5q-26 0 -41.5 -14t-15.5 -30h-21q-9 45 21.5 75.5t78.5 30.5q33 0 58.5 -18t48.5 -35.5t49 -17.5t41.5 14t15.5 30h21q9 -45 -21.5 -75.5t-78.5 -30.5zM363 -12q-138 0 -228 93t-90 233t91 236t231 96q138 0 228 -93.5t90 -233.5
t-91 -235.5t-231 -95.5zM380 24q84 0 137 71t53 194q0 141 -62.5 231t-157.5 90q-84 0 -137 -71.5t-53 -194.5q0 -140 62.5 -230t157.5 -90z" />
    <glyph glyph-name="Odieresis" unicode="&#xd6;" horiz-adv-x="730" 
d="M266 760q-22 0 -36.5 14.5t-14.5 36.5t14.5 36.5t36.5 14.5t36.5 -14.5t14.5 -36.5t-14.5 -36.5t-36.5 -14.5zM464 760q-22 0 -36.5 14.5t-14.5 36.5t14.5 36.5t36.5 14.5t36.5 -14.5t14.5 -36.5t-14.5 -36.5t-36.5 -14.5zM363 -12q-138 0 -228 93t-90 233t91 236t231 96
q138 0 228 -93.5t90 -233.5t-91 -235.5t-231 -95.5zM380 24q84 0 137 71t53 194q0 141 -62.5 231t-157.5 90q-84 0 -137 -71.5t-53 -194.5q0 -140 62.5 -230t157.5 -90z" />
    <glyph glyph-name="multiply" unicode="&#xd7;" horiz-adv-x="442" 
d="M376 365l-113 -113l113 -114l-42 -42l-113 113l-113 -113l-42 42l113 114l-113 113l42 42l113 -113l113 113z" />
    <glyph glyph-name="Oslash" unicode="&#xd8;" horiz-adv-x="730" 
d="M547 593q65 -44 101.5 -115.5t36.5 -158.5q0 -140 -91 -235.5t-231 -95.5q-92 0 -166 44l-51 -81l-19 13l50 81q-62 43 -97 113.5t-35 155.5q0 140 91 236t231 96q87 0 161 -41l56 90l19 -13zM160 344q0 -138 62 -229l267 428q-58 67 -139 67q-84 0 -137 -71.5
t-53 -194.5zM380 24q84 0 137 71t53 194q0 143 -66 235l-268 -428q59 -72 144 -72z" />
    <glyph glyph-name="Ugrave" unicode="&#xd9;" horiz-adv-x="710" 
d="M364 700q-70 77 -120 111q7 19 30.5 36t43.5 17q41 -58 69 -148zM358 -12q-46 0 -85.5 10.5t-79 37t-62.5 81.5t-23 134v278q0 23 -3.5 37t-17.5 22.5t-20.5 10.5t-33.5 7q-5 1 -8 2v22h274v-22q-51 -10 -64 -20q-19 -16 -19 -59v-291q0 -207 168 -207q31 0 58.5 7.5
t56 27t45.5 60t17 98.5v305q0 23 -4 37t-17.5 22.5t-21.5 10.5t-33 7q-2 1 -3 1t-3 0.5t-3 0.5v22h217v-22q-56 -10 -69 -20q-21 -16 -21 -59v-285q0 -73 -20.5 -125t-57 -79.5t-77.5 -39.5t-90 -12z" />
    <glyph glyph-name="Uacute" unicode="&#xda;" horiz-adv-x="710" 
d="M349 700l-23 16q28 90 69 148q20 0 43.5 -17t30.5 -36q-50 -34 -120 -111zM358 -12q-46 0 -85.5 10.5t-79 37t-62.5 81.5t-23 134v278q0 23 -3.5 37t-17.5 22.5t-20.5 10.5t-33.5 7q-5 1 -8 2v22h274v-22q-51 -10 -64 -20q-19 -16 -19 -59v-291q0 -207 168 -207
q31 0 58.5 7.5t56 27t45.5 60t17 98.5v305q0 23 -4 37t-17.5 22.5t-21.5 10.5t-33 7q-2 1 -3 1t-3 0.5t-3 0.5v22h217v-22q-56 -10 -69 -20q-21 -16 -21 -59v-285q0 -73 -20.5 -125t-57 -79.5t-77.5 -39.5t-90 -12z" />
    <glyph glyph-name="Ucircumflex" unicode="&#xdb;" horiz-adv-x="710" 
d="M354 877l138 -152l-13 -12l-125 91l-125 -91l-13 12zM358 -12q-46 0 -85.5 10.5t-79 37t-62.5 81.5t-23 134v278q0 23 -3.5 37t-17.5 22.5t-20.5 10.5t-33.5 7q-5 1 -8 2v22h274v-22q-51 -10 -64 -20q-19 -16 -19 -59v-291q0 -207 168 -207q31 0 58.5 7.5t56 27t45.5 60
t17 98.5v305q0 23 -4 37t-17.5 22.5t-21.5 10.5t-33 7q-2 1 -3 1t-3 0.5t-3 0.5v22h217v-22q-56 -10 -69 -20q-21 -16 -21 -59v-285q0 -73 -20.5 -125t-57 -79.5t-77.5 -39.5t-90 -12z" />
    <glyph glyph-name="Udieresis" unicode="&#xdc;" horiz-adv-x="710" 
d="M257 760q-22 0 -36.5 14.5t-14.5 36.5t14.5 36.5t36.5 14.5t36.5 -14.5t14.5 -36.5t-14.5 -36.5t-36.5 -14.5zM455 760q-22 0 -36.5 14.5t-14.5 36.5t14.5 36.5t36.5 14.5t36.5 -14.5t14.5 -36.5t-14.5 -36.5t-36.5 -14.5zM358 -12q-46 0 -85.5 10.5t-79 37t-62.5 81.5
t-23 134v278q0 23 -3.5 37t-17.5 22.5t-20.5 10.5t-33.5 7q-5 1 -8 2v22h274v-22q-51 -10 -64 -20q-19 -16 -19 -59v-291q0 -207 168 -207q31 0 58.5 7.5t56 27t45.5 60t17 98.5v305q0 23 -4 37t-17.5 22.5t-21.5 10.5t-33 7q-2 1 -3 1t-3 0.5t-3 0.5v22h217v-22
q-56 -10 -69 -20q-21 -16 -21 -59v-285q0 -73 -20.5 -125t-57 -79.5t-77.5 -39.5t-90 -12z" />
    <glyph glyph-name="Yacute" unicode="&#xdd;" horiz-adv-x="657" 
d="M442 811q-50 -34 -120 -111l-23 16q28 90 69 148q20 0 43.5 -17t30.5 -36zM448 630h197v-22q-40 -8 -52.5 -16.5t-35.5 -45.5l-171 -274v-171q0 -25 4.5 -39t20.5 -22t26 -10.5t42 -7.5v-22h-293v22q59 10 73 21q20 15 20 58v159l-182 286q-24 37 -36 45.5t-51 16.5v22
h264v-22q-49 -11 -58 -21q-13 -13 4 -41l148 -237l144 237q10 17 11.5 27.5t-9 16.5t-19 8.5t-31.5 6.5q-11 2 -16 3v22z" />
    <glyph glyph-name="Thorn" unicode="&#xde;" horiz-adv-x="582" 
d="M546 314q0 -61 -26.5 -102.5t-76 -63t-103 -30t-125.5 -10.5v-7q0 -23 3.5 -37t17.5 -22.5t20.5 -10.5t33.5 -7q5 -1 8 -2v-22h-273v22q51 10 64 20q19 16 19 59v428q0 23 -3.5 37t-17.5 22.5t-20.5 10.5t-33.5 7q-5 1 -8 2v22h273v-22q-51 -10 -64 -20q-19 -16 -19 -59
v-9q72 -2 125.5 -10.5t103 -30t76 -63t26.5 -102.5zM429 314q0 83 -50.5 122.5t-163.5 46.5v-338q113 7 163.5 46.5t50.5 122.5z" />
    <glyph glyph-name="germandbls" unicode="&#xdf;" horiz-adv-x="565" 
d="M465 252q70 -70 70 -123q0 -39 -41 -73t-93 -51.5t-95 -17.5q-35 0 -57 13t-22 36q0 18 13 28t29 10q21 0 58.5 -23.5t51.5 -23.5q22 0 45 22.5t23 50.5q0 42 -50 92l-113 113q34 37 49.5 55.5t30 50.5t14.5 66q0 48 -22.5 86t-69.5 38q-48 0 -70.5 -36.5t-22.5 -94.5
v-470h-168v22q49 9 61 20t12 34v393q0 73 50.5 120.5t137.5 47.5q88 0 136 -42t47 -104q-1 -74 -99 -144z" />
    <glyph glyph-name="agrave" unicode="&#xe0;" horiz-adv-x="511" 
d="M256 510q-70 77 -120 111q7 19 30.5 36t43.5 17q41 -58 69 -148zM421 92q0 -24 21.5 -28.5t53.5 13.5v-23q-37 -41 -90 -61q-33 0 -56 25t-24 57q-84 -82 -176 -82q-53 0 -86.5 28.5t-33.5 77.5q0 25 10.5 45t25 33.5t42.5 26t51 20t64 18.5q37 10 50.5 14t29.5 13.5
t23 22.5v14q0 60 -27 82.5t-89 22.5q-30 0 -41 -28q-20 -51 -35 -70t-36 -19q-17 0 -28 10t-11 29q0 33 38.5 60.5t90.5 41.5t99 14q70 0 102 -38t32 -114v-205zM206 49q69 0 120 66v124l-98 -28q-53 -15 -75.5 -37t-22.5 -53q0 -35 21.5 -53.5t54.5 -18.5z" />
    <glyph glyph-name="aacute" unicode="&#xe1;" horiz-adv-x="511" 
d="M361 621q-50 -34 -120 -111l-23 16q28 90 69 148q20 0 43.5 -17t30.5 -36zM421 92q0 -24 21.5 -28.5t53.5 13.5v-23q-37 -41 -90 -61q-33 0 -56 25t-24 57q-84 -82 -176 -82q-53 0 -86.5 28.5t-33.5 77.5q0 25 10.5 45t25 33.5t42.5 26t51 20t64 18.5q37 10 50.5 14
t29.5 13.5t23 22.5v14q0 60 -27 82.5t-89 22.5q-30 0 -41 -28q-20 -51 -35 -70t-36 -19q-17 0 -28 10t-11 29q0 33 38.5 60.5t90.5 41.5t99 14q70 0 102 -38t32 -114v-205zM206 49q69 0 120 66v124l-98 -28q-53 -15 -75.5 -37t-22.5 -53q0 -35 21.5 -53.5t54.5 -18.5z" />
    <glyph glyph-name="acircumflex" unicode="&#xe2;" horiz-adv-x="511" 
d="M246 614l-125 -91l-13 12l138 152l138 -152l-13 -12zM421 92q0 -24 21.5 -28.5t53.5 13.5v-23q-37 -41 -90 -61q-33 0 -56 25t-24 57q-84 -82 -176 -82q-53 0 -86.5 28.5t-33.5 77.5q0 25 10.5 45t25 33.5t42.5 26t51 20t64 18.5q37 10 50.5 14t29.5 13.5t23 22.5v14
q0 60 -27 82.5t-89 22.5q-30 0 -41 -28q-20 -51 -35 -70t-36 -19q-17 0 -28 10t-11 29q0 33 38.5 60.5t90.5 41.5t99 14q70 0 102 -38t32 -114v-205zM206 49q69 0 120 66v124l-98 -28q-53 -15 -75.5 -37t-22.5 -53q0 -35 21.5 -53.5t54.5 -18.5z" />
    <glyph glyph-name="atilde" unicode="&#xe3;" horiz-adv-x="511" 
d="M100 556h-21q-9 45 21.5 75.5t78.5 30.5q33 0 58.5 -18t48.5 -35.5t49 -17.5t41.5 14t15.5 30h21q9 -45 -21.5 -75.5t-78.5 -30.5q-27 0 -49 11t-35 24.5t-32 24.5t-40 11q-26 0 -41.5 -14t-15.5 -30zM421 92q0 -24 21.5 -28.5t53.5 13.5v-23q-37 -41 -90 -61
q-33 0 -56 25t-24 57q-84 -82 -176 -82q-53 0 -86.5 28.5t-33.5 77.5q0 25 10.5 45t25 33.5t42.5 26t51 20t64 18.5q37 10 50.5 14t29.5 13.5t23 22.5v14q0 60 -27 82.5t-89 22.5q-30 0 -41 -28q-20 -51 -35 -70t-36 -19q-17 0 -28 10t-11 29q0 33 38.5 60.5t90.5 41.5
t99 14q70 0 102 -38t32 -114v-205zM206 49q69 0 120 66v124l-98 -28q-53 -15 -75.5 -37t-22.5 -53q0 -35 21.5 -53.5t54.5 -18.5z" />
    <glyph glyph-name="adieresis" unicode="&#xe4;" horiz-adv-x="511" 
d="M149 570q-22 0 -36.5 14.5t-14.5 36.5t14.5 36.5t36.5 14.5t36.5 -14.5t14.5 -36.5t-14.5 -36.5t-36.5 -14.5zM347 570q-22 0 -36.5 14.5t-14.5 36.5t14.5 36.5t36.5 14.5t36.5 -14.5t14.5 -36.5t-14.5 -36.5t-36.5 -14.5zM421 92q0 -24 21.5 -28.5t53.5 13.5v-23
q-37 -41 -90 -61q-33 0 -56 25t-24 57q-84 -82 -176 -82q-53 0 -86.5 28.5t-33.5 77.5q0 25 10.5 45t25 33.5t42.5 26t51 20t64 18.5q37 10 50.5 14t29.5 13.5t23 22.5v14q0 60 -27 82.5t-89 22.5q-30 0 -41 -28q-20 -51 -35 -70t-36 -19q-17 0 -28 10t-11 29
q0 33 38.5 60.5t90.5 41.5t99 14q70 0 102 -38t32 -114v-205zM206 49q69 0 120 66v124l-98 -28q-53 -15 -75.5 -37t-22.5 -53q0 -35 21.5 -53.5t54.5 -18.5z" />
    <glyph glyph-name="aring" unicode="&#xe5;" horiz-adv-x="511" 
d="M248 533q-37 0 -63 25.5t-26 62.5t26 62.5t63 25.5t63 -25.5t26 -62.5t-26 -62.5t-63 -25.5zM248 668q-20 0 -33.5 -13.5t-13.5 -33.5t13.5 -33.5t33.5 -13.5t33.5 13.5t13.5 33.5t-13.5 33.5t-33.5 13.5zM421 92q0 -24 21.5 -28.5t53.5 13.5v-23q-37 -41 -90 -61
q-33 0 -56 25t-24 57q-84 -82 -176 -82q-53 0 -86.5 28.5t-33.5 77.5q0 25 10.5 45t25 33.5t42.5 26t51 20t64 18.5q37 10 50.5 14t29.5 13.5t23 22.5v14q0 60 -27 82.5t-89 22.5q-30 0 -41 -28q-20 -51 -35 -70t-36 -19q-17 0 -28 10t-11 29q0 33 38.5 60.5t90.5 41.5
t99 14q70 0 102 -38t32 -114v-205zM206 49q69 0 120 66v124l-98 -28q-53 -15 -75.5 -37t-22.5 -53q0 -35 21.5 -53.5t54.5 -18.5z" />
    <glyph glyph-name="ae" unicode="&#xe6;" horiz-adv-x="774" 
d="M597 55q83 0 119 54l17 -11q-18 -51 -65.5 -79t-112.5 -28q-66 0 -120 29t-83 81q-99 -108 -202 -108q-53 0 -86.5 28.5t-33.5 77.5q0 25 10.5 45t25 33.5t42.5 26t51 20t64 18.5q37 10 50.5 14t29.5 13.5t23 22.5v14q0 60 -27 82.5t-89 22.5q-30 0 -41 -28
q-20 -51 -35 -70t-36 -19q-17 0 -28 10t-11 29q0 33 38.5 60.5t90.5 41.5t99 14q81 0 113 -53q61 53 149 53q103 0 153 -69t24 -137h-305q4 -83 51.5 -135.5t124.5 -52.5zM539 416q-47 0 -80 -36.5t-37 -103.5h214q8 52 -17.5 96t-79.5 44zM206 49q38 0 74.5 24t57.5 58
q-15 39 -15 86q0 15 1 22l-96 -28q-53 -15 -75.5 -37t-22.5 -53q0 -35 21.5 -53.5t54.5 -18.5z" />
    <glyph glyph-name="ccedilla" unicode="&#xe7;" horiz-adv-x="480" 
d="M445 98q-18 -51 -65.5 -79t-112.5 -28l-20 -40q44 0 74 -21t30 -57q0 -38 -38.5 -61.5t-119.5 -23.5l5 23q45 0 67.5 13t22.5 33q0 45 -109 45l47 92q-85 12 -138 71.5t-53 150.5q0 106 68 169.5t171 63.5q73 0 119 -31t46 -73q0 -22 -13 -34t-33 -12q-44 0 -63 71
q-13 48 -60 48q-54 0 -94.5 -43t-40.5 -124q0 -85 48.5 -140.5t125.5 -55.5q83 0 119 54z" />
    <glyph glyph-name="egrave" unicode="&#xe8;" horiz-adv-x="488" 
d="M253 510q-70 77 -120 111q7 19 30.5 36t43.5 17q41 -58 69 -148zM309 55q83 0 119 54l17 -11q-18 -51 -65.5 -79t-112.5 -28q-99 0 -165.5 62t-66.5 164t64.5 167t161.5 65q103 0 153 -69t24 -137h-305q4 -83 51.5 -135.5t124.5 -52.5zM251 416q-47 0 -80 -36.5
t-37 -103.5h214q8 52 -17.5 96t-79.5 44z" />
    <glyph glyph-name="eacute" unicode="&#xe9;" horiz-adv-x="488" 
d="M358 621q-50 -34 -120 -111l-23 16q28 90 69 148q20 0 43.5 -17t30.5 -36zM309 55q83 0 119 54l17 -11q-18 -51 -65.5 -79t-112.5 -28q-99 0 -165.5 62t-66.5 164t64.5 167t161.5 65q103 0 153 -69t24 -137h-305q4 -83 51.5 -135.5t124.5 -52.5zM251 416q-47 0 -80 -36.5
t-37 -103.5h214q8 52 -17.5 96t-79.5 44z" />
    <glyph glyph-name="ecircumflex" unicode="&#xea;" horiz-adv-x="488" 
d="M243 614l-125 -91l-13 12l138 152l138 -152l-13 -12zM309 55q83 0 119 54l17 -11q-18 -51 -65.5 -79t-112.5 -28q-99 0 -165.5 62t-66.5 164t64.5 167t161.5 65q103 0 153 -69t24 -137h-305q4 -83 51.5 -135.5t124.5 -52.5zM251 416q-47 0 -80 -36.5t-37 -103.5h214
q8 52 -17.5 96t-79.5 44z" />
    <glyph glyph-name="edieresis" unicode="&#xeb;" horiz-adv-x="488" 
d="M146 570q-22 0 -36.5 14.5t-14.5 36.5t14.5 36.5t36.5 14.5t36.5 -14.5t14.5 -36.5t-14.5 -36.5t-36.5 -14.5zM344 570q-22 0 -36.5 14.5t-14.5 36.5t14.5 36.5t36.5 14.5t36.5 -14.5t14.5 -36.5t-14.5 -36.5t-36.5 -14.5zM309 55q83 0 119 54l17 -11q-18 -51 -65.5 -79
t-112.5 -28q-99 0 -165.5 62t-66.5 164t64.5 167t161.5 65q103 0 153 -69t24 -137h-305q4 -83 51.5 -135.5t124.5 -52.5zM251 416q-47 0 -80 -36.5t-37 -103.5h214q8 52 -17.5 96t-79.5 44z" />
    <glyph glyph-name="igrave" unicode="&#xec;" horiz-adv-x="279" 
d="M143 510q-70 77 -120 111q7 19 30.5 36t43.5 17q41 -58 69 -148zM25 0v22q26 5 36.5 7.5t20 14t9.5 32.5v239q0 30 -12.5 44t-53.5 19v20q71 13 140 58l21 -19v-361q0 -21 9.5 -32.5t20 -14t36.5 -7.5v-22h-227z" />
    <glyph glyph-name="iacute" unicode="&#xed;" horiz-adv-x="279" 
d="M128 510l-23 16q28 90 69 148q20 0 43.5 -17t30.5 -36q-50 -34 -120 -111zM25 0v22q26 5 36.5 7.5t20 14t9.5 32.5v239q0 30 -12.5 44t-53.5 19v20q71 13 140 58l21 -19v-361q0 -21 9.5 -32.5t20 -14t36.5 -7.5v-22h-227z" />
    <glyph glyph-name="icircumflex" unicode="&#xee;" horiz-adv-x="279" 
d="M133 687l138 -152l-13 -12l-125 91l-125 -91l-13 12zM25 0v22q26 5 36.5 7.5t20 14t9.5 32.5v239q0 30 -12.5 44t-53.5 19v20q71 13 140 58l21 -19v-361q0 -21 9.5 -32.5t20 -14t36.5 -7.5v-22h-227z" />
    <glyph glyph-name="idieresis" unicode="&#xef;" horiz-adv-x="279" 
d="M36 570q-22 0 -36.5 14.5t-14.5 36.5t14.5 36.5t36.5 14.5t36.5 -14.5t14.5 -36.5t-14.5 -36.5t-36.5 -14.5zM234 570q-22 0 -36.5 14.5t-14.5 36.5t14.5 36.5t36.5 14.5t36.5 -14.5t14.5 -36.5t-14.5 -36.5t-36.5 -14.5zM25 0v22q26 5 36.5 7.5t20 14t9.5 32.5v239
q0 30 -12.5 44t-53.5 19v20q71 13 140 58l21 -19v-361q0 -21 9.5 -32.5t20 -14t36.5 -7.5v-22h-227z" />
    <glyph glyph-name="eth" unicode="&#xf0;" horiz-adv-x="547" 
d="M356 544q67 -53 106 -127.5t40 -159.5q0 -124 -63.5 -195t-176.5 -71q-95 0 -161 62t-66 164q0 106 70 169t168 63q44 0 80 -13q-24 48 -62 86q-86 -29 -167 -61v41q54 15 142 43q-70 57 -155 65l15 27q106 -6 201 -72q90 32 149 56v-41zM276 25q120 0 120 192
q0 84 -38 141t-98 57q-51 0 -86 -45t-35 -133q0 -90 38 -151t99 -61z" />
    <glyph glyph-name="ntilde" unicode="&#xf1;" 
d="M345 529q-27 0 -49 11t-35 24.5t-32 24.5t-40 11q-26 0 -41.5 -14t-15.5 -30h-21q-9 45 21.5 75.5t78.5 30.5q33 0 58.5 -18t48.5 -35.5t49 -17.5t41.5 14t15.5 30h21q9 -45 -21.5 -75.5t-78.5 -30.5zM20 0v22q26 5 36.5 7.5t20 14t9.5 32.5v239q0 30 -12.5 44t-53.5 19
v20q84 13 150 58l20 -19l-27 -84h16q78 96 173 96q124 0 124 -154v-219q0 -21 9.5 -32.5t20 -14t36.5 -7.5v-22h-224v22q25 5 34.5 7.5t19 14t9.5 32.5v213q0 96 -79 96q-68 0 -121 -65v-244q0 -21 9.5 -32.5t19 -14t34.5 -7.5v-22h-224z" />
    <glyph glyph-name="ograve" unicode="&#xf2;" horiz-adv-x="543" 
d="M280 510q-70 77 -120 111q7 19 30.5 36t43.5 17q41 -58 69 -148zM265 -9q-95 0 -162.5 62t-67.5 164q0 106 71.5 169t169.5 63q95 0 162.5 -62t67.5 -164q0 -106 -71.5 -169t-169.5 -63zM278 24q52 0 88 46t36 133q0 89 -39 151t-100 62q-52 0 -88 -46t-36 -133
q0 -89 39 -151t100 -62z" />
    <glyph glyph-name="oacute" unicode="&#xf3;" horiz-adv-x="543" 
d="M265 510l-23 16q28 90 69 148q20 0 43.5 -17t30.5 -36q-50 -34 -120 -111zM265 -9q-95 0 -162.5 62t-67.5 164q0 106 71.5 169t169.5 63q95 0 162.5 -62t67.5 -164q0 -106 -71.5 -169t-169.5 -63zM278 24q52 0 88 46t36 133q0 89 -39 151t-100 62q-52 0 -88 -46t-36 -133
q0 -89 39 -151t100 -62z" />
    <glyph glyph-name="ocircumflex" unicode="&#xf4;" horiz-adv-x="543" 
d="M270 687l138 -152l-13 -12l-125 91l-125 -91l-13 12zM265 -9q-95 0 -162.5 62t-67.5 164q0 106 71.5 169t169.5 63q95 0 162.5 -62t67.5 -164q0 -106 -71.5 -169t-169.5 -63zM278 24q52 0 88 46t36 133q0 89 -39 151t-100 62q-52 0 -88 -46t-36 -133q0 -89 39 -151
t100 -62z" />
    <glyph glyph-name="otilde" unicode="&#xf5;" horiz-adv-x="543" 
d="M337 529q-27 0 -49 11t-35 24.5t-32 24.5t-40 11q-26 0 -41.5 -14t-15.5 -30h-21q-9 45 21.5 75.5t78.5 30.5q33 0 58.5 -18t48.5 -35.5t49 -17.5t41.5 14t15.5 30h21q9 -45 -21.5 -75.5t-78.5 -30.5zM265 -9q-95 0 -162.5 62t-67.5 164q0 106 71.5 169t169.5 63
q95 0 162.5 -62t67.5 -164q0 -106 -71.5 -169t-169.5 -63zM278 24q52 0 88 46t36 133q0 89 -39 151t-100 62q-52 0 -88 -46t-36 -133q0 -89 39 -151t100 -62z" />
    <glyph glyph-name="odieresis" unicode="&#xf6;" horiz-adv-x="543" 
d="M173 570q-22 0 -36.5 14.5t-14.5 36.5t14.5 36.5t36.5 14.5t36.5 -14.5t14.5 -36.5t-14.5 -36.5t-36.5 -14.5zM371 570q-22 0 -36.5 14.5t-14.5 36.5t14.5 36.5t36.5 14.5t36.5 -14.5t14.5 -36.5t-14.5 -36.5t-36.5 -14.5zM265 -9q-95 0 -162.5 62t-67.5 164
q0 106 71.5 169t169.5 63q95 0 162.5 -62t67.5 -164q0 -106 -71.5 -169t-169.5 -63zM278 24q52 0 88 46t36 133q0 89 -39 151t-100 62q-52 0 -88 -46t-36 -133q0 -89 39 -151t100 -62z" />
    <glyph glyph-name="divide" unicode="&#xf7;" horiz-adv-x="502" 
d="M253 359q-18 0 -31.5 13.5t-13.5 32.5q0 18 13.5 31.5t31.5 13.5t31.5 -13.5t13.5 -31.5q0 -19 -13.5 -32.5t-31.5 -13.5zM66 222v59h370v-59h-370zM253 53q-18 0 -31.5 13.5t-13.5 32.5q0 18 13.5 31.5t31.5 13.5t31.5 -13.5t13.5 -31.5q0 -19 -13.5 -32.5t-31.5 -13.5z
" />
    <glyph glyph-name="oslash" unicode="&#xf8;" horiz-adv-x="541" 
d="M406 413q46 -30 73 -79t27 -111q0 -106 -71.5 -169t-169.5 -63q-59 0 -107 24l-41 -65l-19 14l39 62q-102 64 -102 191q0 106 71.5 169t169.5 63q57 0 109 -25l42 67l19 -14zM139 237q0 -85 37 -148l175 281q-36 46 -88 46t-88 -46t-36 -133zM278 24q52 0 88 46t36 133
t-36 146l-175 -281q37 -44 87 -44z" />
    <glyph glyph-name="ugrave" unicode="&#xf9;" horiz-adv-x="562" 
d="M292 510q-70 77 -120 111q7 19 30.5 36t43.5 17q41 -58 69 -148zM211 -9q-130 0 -130 154v227q0 18 -8.5 27.5t-19 12.5t-33.5 7v21q96 -5 156 6v-297q0 -93 81 -93q64 0 122 53v263q0 18 -8.5 27.5t-19 12.5t-33.5 7v21q96 -5 156 6v-358q0 -30 12.5 -44.5t53.5 -21.5
v-22h-151l6 78h-13q-85 -87 -171 -87z" />
    <glyph glyph-name="uacute" unicode="&#xfa;" horiz-adv-x="562" 
d="M277 510l-23 16q28 90 69 148q20 0 43.5 -17t30.5 -36q-50 -34 -120 -111zM211 -9q-130 0 -130 154v227q0 18 -8.5 27.5t-19 12.5t-33.5 7v21q96 -5 156 6v-297q0 -93 81 -93q64 0 122 53v263q0 18 -8.5 27.5t-19 12.5t-33.5 7v21q96 -5 156 6v-358q0 -30 12.5 -44.5
t53.5 -21.5v-22h-151l6 78h-13q-85 -87 -171 -87z" />
    <glyph glyph-name="ucircumflex" unicode="&#xfb;" horiz-adv-x="562" 
d="M282 687l138 -152l-13 -12l-125 91l-125 -91l-13 12zM211 -9q-130 0 -130 154v227q0 18 -8.5 27.5t-19 12.5t-33.5 7v21q96 -5 156 6v-297q0 -93 81 -93q64 0 122 53v263q0 18 -8.5 27.5t-19 12.5t-33.5 7v21q96 -5 156 6v-358q0 -30 12.5 -44.5t53.5 -21.5v-22h-151
l6 78h-13q-85 -87 -171 -87z" />
    <glyph glyph-name="udieresis" unicode="&#xfc;" horiz-adv-x="562" 
d="M185 570q-22 0 -36.5 14.5t-14.5 36.5t14.5 36.5t36.5 14.5t36.5 -14.5t14.5 -36.5t-14.5 -36.5t-36.5 -14.5zM383 570q-22 0 -36.5 14.5t-14.5 36.5t14.5 36.5t36.5 14.5t36.5 -14.5t14.5 -36.5t-14.5 -36.5t-36.5 -14.5zM211 -9q-130 0 -130 154v227q0 18 -8.5 27.5
t-19 12.5t-33.5 7v21q96 -5 156 6v-297q0 -93 81 -93q64 0 122 53v263q0 18 -8.5 27.5t-19 12.5t-33.5 7v21q96 -5 156 6v-358q0 -30 12.5 -44.5t53.5 -21.5v-22h-151l6 78h-13q-85 -87 -171 -87z" />
    <glyph glyph-name="yacute" unicode="&#xfd;" horiz-adv-x="509" 
d="M370 621q-50 -34 -120 -111l-23 16q28 90 69 148q20 0 43.5 -17t30.5 -36zM341 440h161v-22q-34 -4 -45.5 -11t-23.5 -35l-176 -411q-12 -28 -22 -47.5t-27 -44t-39 -38t-47 -13.5q-33 0 -65 23v63q69 -6 108 6t56 51l15 36l-162 375q-12 28 -23.5 35t-45.5 11v22h223
v-22q-45 -7 -53.5 -17t-0.5 -29l111 -263l112 263q4 9 4.5 15.5t-3 11t-7 7.5t-13 5.5t-14 3t-16.5 2.5q-5 1 -7 1v22z" />
    <glyph glyph-name="thorn" unicode="&#xfe;" horiz-adv-x="544" 
d="M331 449q73 0 125.5 -58t52.5 -155q0 -111 -70 -178t-174 -67q-51 0 -95 18v-106q0 -32 16.5 -41t63.5 -15v-22h-243v22q22 4 29 5.5t18.5 7t15 16t3.5 27.5v631q0 28 -15.5 43t-57.5 20v20q87 15 150 57l20 -19v-304q24 41 67.5 69.5t93.5 28.5zM272 25q57 0 98 45.5
t41 130.5q0 80 -37 132.5t-95 52.5q-70 0 -109 -71v-168q0 -49 25 -85.5t77 -36.5z" />
    <glyph glyph-name="ydieresis" unicode="&#xff;" horiz-adv-x="509" 
d="M158 570q-22 0 -36.5 14.5t-14.5 36.5t14.5 36.5t36.5 14.5t36.5 -14.5t14.5 -36.5t-14.5 -36.5t-36.5 -14.5zM356 570q-22 0 -36.5 14.5t-14.5 36.5t14.5 36.5t36.5 14.5t36.5 -14.5t14.5 -36.5t-14.5 -36.5t-36.5 -14.5zM341 440h161v-22q-34 -4 -45.5 -11t-23.5 -35
l-176 -411q-12 -28 -22 -47.5t-27 -44t-39 -38t-47 -13.5q-33 0 -65 23v63q69 -6 108 6t56 51l15 36l-162 375q-12 28 -23.5 35t-45.5 11v22h223v-22q-45 -7 -53.5 -17t-0.5 -29l111 -263l112 263q4 9 4.5 15.5t-3 11t-7 7.5t-13 5.5t-14 3t-16.5 2.5q-5 1 -7 1v22z" />
    <glyph glyph-name="Amacron" unicode="&#x100;" horiz-adv-x="693" 
d="M494 827l-15 -38h-280l15 38h280zM606 79q14 -33 27 -41t55 -16v-22h-262v22l17.5 3.5t17.5 4t13.5 4.5t11.5 6.5t6 9t1.5 12.5t-5.5 17l-51 117h-257l-49 -118q-4 -9 -5 -16.5t2 -12.5t5.5 -8.5t11 -6.5t13 -4.5t17 -4l17.5 -3.5v-22h-187v22q33 6 42.5 9t21 13.5
t20.5 33.5l236 559h39zM194 230h229l-117 270z" />
    <glyph glyph-name="amacron" unicode="&#x101;" horiz-adv-x="511" 
d="M396 637l-15 -38h-280l15 38h280zM421 92q0 -24 21.5 -28.5t53.5 13.5v-23q-37 -41 -90 -61q-33 0 -56 25t-24 57q-84 -82 -176 -82q-53 0 -86.5 28.5t-33.5 77.5q0 25 10.5 45t25 33.5t42.5 26t51 20t64 18.5q37 10 50.5 14t29.5 13.5t23 22.5v14q0 60 -27 82.5
t-89 22.5q-30 0 -41 -28q-20 -51 -35 -70t-36 -19q-17 0 -28 10t-11 29q0 33 38.5 60.5t90.5 41.5t99 14q70 0 102 -38t32 -114v-205zM206 49q69 0 120 66v124l-98 -28q-53 -15 -75.5 -37t-22.5 -53q0 -35 21.5 -53.5t54.5 -18.5z" />
    <glyph glyph-name="Abreve" unicode="&#x102;" horiz-adv-x="693" 
d="M346 738q-66 0 -102 36t-36 95h23q14 -66 115 -66t115 66h23q0 -59 -36 -95t-102 -36zM606 79q14 -33 27 -41t55 -16v-22h-262v22l17.5 3.5t17.5 4t13.5 4.5t11.5 6.5t6 9t1.5 12.5t-5.5 17l-51 117h-257l-49 -118q-4 -9 -5 -16.5t2 -12.5t5.5 -8.5t11 -6.5t13 -4.5
t17 -4l17.5 -3.5v-22h-187v22q33 6 42.5 9t21 13.5t20.5 33.5l236 559h39zM194 230h229l-117 270z" />
    <glyph glyph-name="abreve" unicode="&#x103;" horiz-adv-x="511" 
d="M248 548q-66 0 -102 36t-36 95h23q14 -66 115 -66t115 66h23q0 -59 -36 -95t-102 -36zM421 92q0 -24 21.5 -28.5t53.5 13.5v-23q-37 -41 -90 -61q-33 0 -56 25t-24 57q-84 -82 -176 -82q-53 0 -86.5 28.5t-33.5 77.5q0 25 10.5 45t25 33.5t42.5 26t51 20t64 18.5
q37 10 50.5 14t29.5 13.5t23 22.5v14q0 60 -27 82.5t-89 22.5q-30 0 -41 -28q-20 -51 -35 -70t-36 -19q-17 0 -28 10t-11 29q0 33 38.5 60.5t90.5 41.5t99 14q70 0 102 -38t32 -114v-205zM206 49q69 0 120 66v124l-98 -28q-53 -15 -75.5 -37t-22.5 -53q0 -35 21.5 -53.5
t54.5 -18.5z" />
    <glyph glyph-name="Aogonek" unicode="&#x104;" horiz-adv-x="693" 
d="M606 0q-36 -23 -52.5 -43t-16.5 -47q0 -26 14.5 -41t38.5 -15q19 0 45 10v-18q-35 -35 -87 -35q-41 0 -67.5 20.5t-26.5 62.5q0 32 21 60l69 46h-118v22l17.5 3.5t17.5 4t13.5 4.5t11.5 6.5t6 9t1.5 12.5t-5.5 17l-51 117h-257l-49 -118q-4 -9 -5 -16.5t2 -12.5t5.5 -8.5
t11 -6.5t13 -4.5t17 -4l17.5 -3.5v-22h-187v22q33 6 42.5 9t21 13.5t20.5 33.5l236 559h39l242 -558q5 -13 14 -28l3 2v-5q9 -11 21.5 -15.5t43.5 -10.5v-22h-82zM194 230h229l-117 270z" />
    <glyph glyph-name="aogonek" unicode="&#x105;" horiz-adv-x="511" 
d="M421 92q0 -24 21.5 -28.5t53.5 13.5v-23q-34 -37 -76 -56q-58 -37 -58 -82q0 -26 14.5 -41t38.5 -15q19 0 45 10v-18q-35 -35 -87 -35q-41 0 -67.5 20.5t-26.5 62.5q0 32 21 60l66 44q-40 25 -40 71q-84 -82 -176 -82q-53 0 -86.5 28.5t-33.5 77.5q0 25 10.5 45t25 33.5
t42.5 26t51 20t64 18.5q37 10 50.5 14t29.5 13.5t23 22.5v14q0 60 -27 82.5t-89 22.5q-30 0 -41 -28q-20 -51 -35 -70t-36 -19q-17 0 -28 10t-11 29q0 33 38.5 60.5t90.5 41.5t99 14q70 0 102 -38t32 -114v-205zM206 49q69 0 120 66v124l-98 -28q-53 -15 -75.5 -37
t-22.5 -53q0 -35 21.5 -53.5t54.5 -18.5z" />
    <glyph glyph-name="Cacute" unicode="&#x106;" horiz-adv-x="655" 
d="M358 700l-23 16q28 90 69 148q20 0 43.5 -17t30.5 -36q-50 -34 -120 -111zM381 -12q-148 0 -242 92t-94 236q0 143 96 236.5t252 93.5q118 0 195 -46q4 -91 7 -135h-36q-33 145 -181 145q-101 0 -158 -70t-57 -193q0 -137 76.5 -223.5t191.5 -86.5q109 0 159 54l20 -21
q-32 -35 -92.5 -58.5t-136.5 -23.5z" />
    <glyph glyph-name="cacute" unicode="&#x107;" horiz-adv-x="480" 
d="M247 510l-23 16q28 90 69 148q20 0 43.5 -17t30.5 -36q-50 -34 -120 -111zM266 -9q-100 0 -165.5 61.5t-65.5 163.5q0 106 68 169.5t171 63.5q73 0 119 -31t46 -73q0 -22 -13 -34t-33 -12q-44 0 -63 71q-13 48 -60 48q-54 0 -94.5 -43t-40.5 -124q0 -85 48.5 -140.5
t125.5 -55.5q83 0 119 54l17 -11q-18 -51 -65.5 -79t-113.5 -28z" />
    <glyph glyph-name="Cdotaccent" unicode="&#x10a;" horiz-adv-x="655" 
d="M365 733q-24 0 -42 17t-18 41t18 41t42 17t42 -17t18 -41t-18 -41t-42 -17zM381 -12q-148 0 -242 92t-94 236q0 143 96 236.5t252 93.5q118 0 195 -46q4 -91 7 -135h-36q-33 145 -181 145q-101 0 -158 -70t-57 -193q0 -137 76.5 -223.5t191.5 -86.5q109 0 159 54l20 -21
q-32 -35 -92.5 -58.5t-136.5 -23.5z" />
    <glyph glyph-name="cdotaccent" unicode="&#x10b;" horiz-adv-x="480" 
d="M254 543q-24 0 -42 17t-18 41t18 41t42 17t42 -17t18 -41t-18 -41t-42 -17zM266 -9q-100 0 -165.5 61.5t-65.5 163.5q0 106 68 169.5t171 63.5q73 0 119 -31t46 -73q0 -22 -13 -34t-33 -12q-44 0 -63 71q-13 48 -60 48q-54 0 -94.5 -43t-40.5 -124q0 -85 48.5 -140.5
t125.5 -55.5q83 0 119 54l17 -11q-18 -51 -65.5 -79t-113.5 -28z" />
    <glyph glyph-name="Ccaron" unicode="&#x10c;" horiz-adv-x="655" 
d="M363 713l-138 152l13 12l125 -91l125 91l13 -12zM381 -12q-148 0 -242 92t-94 236q0 143 96 236.5t252 93.5q118 0 195 -46q4 -91 7 -135h-36q-33 145 -181 145q-101 0 -158 -70t-57 -193q0 -137 76.5 -223.5t191.5 -86.5q109 0 159 54l20 -21q-32 -35 -92.5 -58.5
t-136.5 -23.5z" />
    <glyph glyph-name="ccaron" unicode="&#x10d;" horiz-adv-x="480" 
d="M252 523l-138 152l13 12l125 -91l125 91l13 -12zM266 -9q-100 0 -165.5 61.5t-65.5 163.5q0 106 68 169.5t171 63.5q73 0 119 -31t46 -73q0 -22 -13 -34t-33 -12q-44 0 -63 71q-13 48 -60 48q-54 0 -94.5 -43t-40.5 -124q0 -85 48.5 -140.5t125.5 -55.5q83 0 119 54
l17 -11q-18 -51 -65.5 -79t-113.5 -28z" />
    <glyph glyph-name="Dcaron" unicode="&#x10e;" horiz-adv-x="691" 
d="M482 865l-138 -152l-138 152l13 12l125 -91l125 91zM284 630q57 0 109 -10.5t98.5 -35t80.5 -59.5t54 -88t20 -118q0 -83 -29.5 -146t-81 -99.5t-115 -55t-136.5 -18.5h-259v22q51 10 64 20q19 16 19 59v428q0 23 -3.5 37t-17.5 22.5t-20.5 10.5t-33.5 7q-5 1 -8 2v22
h259zM312 36q217 0 217 273q0 285 -255 285h-59v-462q0 -53 20.5 -74.5t76.5 -21.5z" />
    <glyph glyph-name="dcaron" unicode="&#x10f;" horiz-adv-x="562" 
d="M473 88q0 -30 12.5 -44.5t53.5 -21.5v-22h-154l8 91h-13q-61 -100 -161 -100q-75 0 -129.5 57t-54.5 154q0 110 72.5 178.5t170.5 68.5q58 0 100 -27v125q0 29 -16 43.5t-59 19.5v20q88 14 150 57l20 -19v-580zM505 654q16 12 45 12t46 -12q0 -72 -31 -160h-28
q-13 106 -32 160zM271 54q43 0 70 27.5t37 63.5v209q-8 26 -33.5 44t-64.5 18q-62 0 -105 -46t-43 -131q0 -83 40.5 -134t98.5 -51z" />
    <glyph glyph-name="Dcroat" unicode="&#x110;" horiz-adv-x="695" 
d="M288 630q57 0 109 -10.5t98.5 -35t80.5 -59.5t54 -88t20 -118q0 -83 -29.5 -146t-81 -99.5t-115 -55t-136.5 -18.5h-259v22q51 10 64 20q19 16 19 59v194q-29 0 -87 -2l10 36q52 -2 77 -2v202q0 23 -3.5 37t-17.5 22.5t-20.5 10.5t-33.5 7q-5 1 -8 2v22h259zM316 36
q217 0 217 273q0 285 -255 285h-59v-268q69 0 136 3l-10 -36q-63 3 -126 3v-164q0 -53 20.5 -74.5t76.5 -21.5z" />
    <glyph glyph-name="dcroat" unicode="&#x111;" 
d="M473 88q0 -30 12.5 -44.5t53.5 -21.5v-22h-154l8 91h-13q-61 -100 -161 -100q-75 0 -129.5 57t-54.5 154q0 110 72.5 178.5t170.5 68.5q58 0 100 -27v70q-85 0 -172 -3l10 36q81 -3 162 -3v25q0 29 -16 43.5t-59 19.5v20q88 14 150 57l20 -19v-145q10 1 31 1t32 1
l-10 -36q-9 1 -26.5 1t-26.5 1v-403zM271 54q43 0 70 27.5t37 63.5v209q-8 26 -33.5 44t-64.5 18q-62 0 -105 -46t-43 -131q0 -83 40.5 -134t98.5 -51z" />
    <glyph glyph-name="Emacron" unicode="&#x112;" horiz-adv-x="587" 
d="M442 827l-15 -38h-280l15 38h280zM530 150h27l-41 -150h-491v22q51 10 64 20q19 16 19 59v428q0 23 -3.5 37t-17.5 22.5t-20.5 10.5t-33.5 7q-5 1 -8 2v22h489l9 -142h-27q-7 57 -27 81.5t-71 24.5h-89q-59 0 -76.5 -13t-17.5 -63v-183h77q86 0 110 17t29 67h21v-202h-21
q-5 50 -29 67t-110 17h-77v-189q0 -50 17.5 -63t76.5 -13h68q59 0 92 24.5t61 89.5z" />
    <glyph glyph-name="emacron" unicode="&#x113;" horiz-adv-x="488" 
d="M393 637l-15 -38h-280l15 38h280zM309 55q83 0 119 54l17 -11q-18 -51 -65.5 -79t-112.5 -28q-99 0 -165.5 62t-66.5 164t64.5 167t161.5 65q103 0 153 -69t24 -137h-305q4 -83 51.5 -135.5t124.5 -52.5zM251 416q-47 0 -80 -36.5t-37 -103.5h214q8 52 -17.5 96t-79.5 44
z" />
    <glyph glyph-name="Edotaccent" unicode="&#x116;" horiz-adv-x="587" 
d="M294 733q-24 0 -42 17t-18 41t18 41t42 17t42 -17t18 -41t-18 -41t-42 -17zM530 150h27l-41 -150h-491v22q51 10 64 20q19 16 19 59v428q0 23 -3.5 37t-17.5 22.5t-20.5 10.5t-33.5 7q-5 1 -8 2v22h489l9 -142h-27q-7 57 -27 81.5t-71 24.5h-89q-59 0 -76.5 -13
t-17.5 -63v-183h77q86 0 110 17t29 67h21v-202h-21q-5 50 -29 67t-110 17h-77v-189q0 -50 17.5 -63t76.5 -13h68q59 0 92 24.5t61 89.5z" />
    <glyph glyph-name="edotaccent" unicode="&#x117;" horiz-adv-x="488" 
d="M245 543q-24 0 -42 17t-18 41t18 41t42 17t42 -17t18 -41t-18 -41t-42 -17zM309 55q83 0 119 54l17 -11q-18 -51 -65.5 -79t-112.5 -28q-99 0 -165.5 62t-66.5 164t64.5 167t161.5 65q103 0 153 -69t24 -137h-305q4 -83 51.5 -135.5t124.5 -52.5zM251 416
q-47 0 -80 -36.5t-37 -103.5h214q8 52 -17.5 96t-79.5 44z" />
    <glyph glyph-name="Eogonek" unicode="&#x118;" horiz-adv-x="587" 
d="M476 0q-46 -26 -66 -48.5t-20 -51.5q0 -26 14.5 -41t38.5 -15q19 0 45 10v-18q-35 -35 -87 -35q-41 0 -67.5 20.5t-26.5 62.5q0 32 21 60l84 56h-387v22q51 10 64 20q19 16 19 59v428q0 23 -3.5 37t-17.5 22.5t-20.5 10.5t-33.5 7q-5 1 -8 2v22h489l9 -142h-27
q-7 57 -27 81.5t-71 24.5h-89q-59 0 -76.5 -13t-17.5 -63v-183h77q86 0 110 17t29 67h21v-202h-21q-5 50 -29 67t-110 17h-77v-189q0 -50 17.5 -63t76.5 -13h68q59 0 92 24.5t61 89.5h27l-41 -150h-40z" />
    <glyph glyph-name="eogonek" unicode="&#x119;" horiz-adv-x="488" 
d="M309 55q83 0 119 54l17 -11q-26 -74 -110 -98q-46 -26 -66 -48.5t-20 -51.5q0 -26 14.5 -41t38.5 -15q19 0 45 10v-18q-35 -35 -87 -35q-41 0 -67.5 20.5t-26.5 62.5q0 32 21 60l70 47q-96 3 -159 64.5t-63 161.5q0 102 64.5 167t161.5 65q103 0 153 -69t24 -137h-305
q4 -83 51.5 -135.5t124.5 -52.5zM251 416q-47 0 -80 -36.5t-37 -103.5h214q8 52 -17.5 96t-79.5 44z" />
    <glyph glyph-name="Ecaron" unicode="&#x11a;" horiz-adv-x="587" 
d="M430 865l-138 -152l-138 152l13 12l125 -91l125 91zM530 150h27l-41 -150h-491v22q51 10 64 20q19 16 19 59v428q0 23 -3.5 37t-17.5 22.5t-20.5 10.5t-33.5 7q-5 1 -8 2v22h489l9 -142h-27q-7 57 -27 81.5t-71 24.5h-89q-59 0 -76.5 -13t-17.5 -63v-183h77q86 0 110 17
t29 67h21v-202h-21q-5 50 -29 67t-110 17h-77v-189q0 -50 17.5 -63t76.5 -13h68q59 0 92 24.5t61 89.5z" />
    <glyph glyph-name="ecaron" unicode="&#x11b;" horiz-adv-x="488" 
d="M381 675l-138 -152l-138 152l13 12l125 -91l125 91zM309 55q83 0 119 54l17 -11q-18 -51 -65.5 -79t-112.5 -28q-99 0 -165.5 62t-66.5 164t64.5 167t161.5 65q103 0 153 -69t24 -137h-305q4 -83 51.5 -135.5t124.5 -52.5zM251 416q-47 0 -80 -36.5t-37 -103.5h214
q8 52 -17.5 96t-79.5 44z" />
    <glyph glyph-name="Gbreve" unicode="&#x11e;" horiz-adv-x="715" 
d="M358 738q-66 0 -102 36t-36 95h23q14 -66 115 -66t115 66h23q0 -59 -36 -95t-102 -36zM406 -12q-169 0 -265 92t-96 236q0 143 96 236.5t253 93.5q123 0 200 -46q4 -91 7 -135h-36q-33 145 -185 145q-102 0 -159.5 -70.5t-57.5 -193.5q0 -143 68 -232.5t186 -89.5
q55 0 75.5 23.5t20.5 80.5v44q0 66 -21 86t-86 25v26h269v-26q-36 -5 -51.5 -20t-15.5 -51v-54q0 -55 15 -115q-26 -22 -86 -38.5t-131 -16.5z" />
    <glyph glyph-name="gbreve" unicode="&#x11f;" horiz-adv-x="506" 
d="M256 548q-66 0 -102 36t-36 95h23q14 -66 115 -66t115 66h23q0 -59 -36 -95t-102 -36zM469 430v-56l-89 13q28 -36 28 -81q0 -62 -48 -102t-127 -40h-40q-21 0 -32.5 -10.5t-11.5 -26.5q0 -35 44 -39l108 -10q95 -8 127.5 -25.5t32.5 -62.5q0 -80 -73.5 -129t-185.5 -50
q-90 -1 -136 32t-46 80q0 20 29 47.5t69 45.5q-60 23 -60 71q0 16 31.5 47t60.5 44q-44 16 -69 50t-25 78q0 62 48.5 102.5t127.5 40.5q42 0 75 -12q29 -7 162 -7zM232 191q46 0 65 35.5t19 79.5t-19 80t-65 36t-65 -36t-19 -80t19 -79.5t65 -35.5zM294 -7l-108 9
q-40 4 -61.5 -18t-21.5 -53q0 -33 28.5 -57.5t98.5 -24.5q75 0 113 29.5t38 69.5q0 25 -18.5 33t-68.5 12z" />
    <glyph glyph-name="Gdotaccent" unicode="&#x120;" horiz-adv-x="715" 
d="M358 733q-24 0 -42 17t-18 41t18 41t42 17t42 -17t18 -41t-18 -41t-42 -17zM406 -12q-169 0 -265 92t-96 236q0 143 96 236.5t253 93.5q123 0 200 -46q4 -91 7 -135h-36q-33 145 -185 145q-102 0 -159.5 -70.5t-57.5 -193.5q0 -143 68 -232.5t186 -89.5q55 0 75.5 23.5
t20.5 80.5v44q0 66 -21 86t-86 25v26h269v-26q-36 -5 -51.5 -20t-15.5 -51v-54q0 -55 15 -115q-26 -22 -86 -38.5t-131 -16.5z" />
    <glyph glyph-name="gdotaccent" unicode="&#x121;" horiz-adv-x="506" 
d="M256 543q-24 0 -42 17t-18 41t18 41t42 17t42 -17t18 -41t-18 -41t-42 -17zM469 430v-56l-89 13q28 -36 28 -81q0 -62 -48 -102t-127 -40h-40q-21 0 -32.5 -10.5t-11.5 -26.5q0 -35 44 -39l108 -10q95 -8 127.5 -25.5t32.5 -62.5q0 -80 -73.5 -129t-185.5 -50
q-90 -1 -136 32t-46 80q0 20 29 47.5t69 45.5q-60 23 -60 71q0 16 31.5 47t60.5 44q-44 16 -69 50t-25 78q0 62 48.5 102.5t127.5 40.5q42 0 75 -12q29 -7 162 -7zM232 191q46 0 65 35.5t19 79.5t-19 80t-65 36t-65 -36t-19 -80t19 -79.5t65 -35.5zM294 -7l-108 9
q-40 4 -61.5 -18t-21.5 -53q0 -33 28.5 -57.5t98.5 -24.5q75 0 113 29.5t38 69.5q0 25 -18.5 33t-68.5 12z" />
    <glyph glyph-name="uni0122" unicode="&#x122;" horiz-adv-x="715" 
d="M406 -12q-169 0 -265 92t-96 236q0 143 96 236.5t253 93.5q123 0 200 -46q4 -91 7 -135h-36q-33 145 -185 145q-102 0 -159.5 -70.5t-57.5 -193.5q0 -143 68 -232.5t186 -89.5q55 0 75.5 23.5t20.5 80.5v44q0 66 -21 86t-86 25v26h269v-26q-36 -5 -51.5 -20t-15.5 -51
v-54q0 -55 15 -115q-26 -22 -86 -38.5t-131 -16.5zM284 -319l-9 21q72 28 85 84q4 15 -2 23t-19 15q-36 21 -36 57q0 26 18.5 43.5t44.5 17.5q29 0 49 -22t20 -61q0 -55 -40 -107t-111 -71z" />
    <glyph glyph-name="uni0123" unicode="&#x123;" horiz-adv-x="504" 
d="M216 533q-29 0 -49 22t-20 61q0 55 40 107t111 71l9 -21q-72 -28 -85 -84q-4 -15 2 -23t19 -15q36 -21 36 -57q0 -26 -18.5 -43.5t-44.5 -17.5zM469 430v-56l-89 13q28 -36 28 -81q0 -62 -48 -102t-127 -40h-40q-21 0 -32.5 -10.5t-11.5 -26.5q0 -35 44 -39l108 -10
q95 -8 127.5 -25.5t32.5 -62.5q0 -80 -73.5 -129t-185.5 -50q-90 -1 -136 32t-46 80q0 20 29 47.5t69 45.5q-60 23 -60 71q0 16 31.5 47t60.5 44q-44 16 -69 50t-25 78q0 62 48.5 102.5t127.5 40.5q42 0 75 -12q29 -7 162 -7zM232 191q46 0 65 35.5t19 79.5t-19 80t-65 36
t-65 -36t-19 -80t19 -79.5t65 -35.5zM294 -7l-108 9q-40 4 -61.5 -18t-21.5 -53q0 -33 28.5 -57.5t98.5 -24.5q75 0 113 29.5t38 69.5q0 25 -18.5 33t-68.5 12z" />
    <glyph glyph-name="Hbar" unicode="&#x126;" horiz-adv-x="710" 
d="M685 608q-51 -10 -64 -20q-19 -16 -19 -59v-428q0 -23 3.5 -37t17.5 -22.5t20.5 -10.5t33.5 -7q5 -1 8 -2v-22h-273v22q51 10 64 20q19 16 19 59v197h-280v-197q0 -23 3.5 -37t17.5 -22.5t20.5 -10.5t33.5 -7q5 -1 8 -2v-22h-273v22q51 10 64 20q19 16 19 59v428
q0 23 -3.5 37t-17.5 22.5t-20.5 10.5t-33.5 7q-5 1 -8 2v22h273v-22q-51 -10 -64 -20q-19 -16 -19 -59v-89h280v89q0 23 -3.5 37t-17.5 22.5t-20.5 10.5t-33.5 7q-5 1 -8 2v22h273v-22zM215 332h280v74h-280v-74z" />
    <glyph glyph-name="hbar" unicode="&#x127;" horiz-adv-x="583" 
d="M497 76q0 -21 9.5 -32.5t20 -14t36.5 -7.5v-22h-224v22q25 5 34.5 7.5t19 14t9.5 32.5v214q0 95 -79 95q-66 0 -121 -64v-245q0 -21 9.5 -32.5t19 -14t34.5 -7.5v-22h-231v22q49 9 61 20t12 34v415q-28 0 -82 -2l10 36q48 -2 72 -2v24q0 28 -15.5 43t-57.5 20v20
q87 15 148 57l20 -19v-146q76 0 153 3l-10 -36q-72 3 -143 3v-136q77 93 171 93q124 0 124 -154v-219z" />
    <glyph glyph-name="Imacron" unicode="&#x12a;" horiz-adv-x="323" 
d="M15 789l15 38h280l-15 -38h-280zM25 0v22q51 10 64 20q19 16 19 59v428q0 23 -3.5 37t-17.5 22.5t-20.5 10.5t-33.5 7q-5 1 -8 2v22h273v-22q-51 -10 -64 -20q-19 -16 -19 -59v-428q0 -23 3.5 -37t17.5 -22.5t20.5 -10.5t33.5 -7q5 -1 8 -2v-22h-273z" />
    <glyph glyph-name="imacron" unicode="&#x12b;" horiz-adv-x="279" 
d="M-12 599l15 38h280l-15 -38h-280zM25 0v22q26 5 36.5 7.5t20 14t9.5 32.5v239q0 30 -12.5 44t-53.5 19v20q71 13 140 58l21 -19v-361q0 -21 9.5 -32.5t20 -14t36.5 -7.5v-22h-227z" />
    <glyph glyph-name="Iogonek" unicode="&#x12e;" horiz-adv-x="323" 
d="M298 608q-51 -10 -64 -20q-19 -16 -19 -59v-428q0 -23 3.5 -37t17.5 -22.5t20.5 -10.5t33.5 -7q5 -1 8 -2v-22h-83q-46 -26 -66 -48.5t-20 -51.5q0 -26 14.5 -41t38.5 -15q19 0 45 10v-18q-35 -35 -87 -35q-41 0 -67.5 20.5t-26.5 62.5q0 32 21 60l84 56h-126v22
q51 10 64 20q19 16 19 59v428q0 23 -3.5 37t-17.5 22.5t-20.5 10.5t-33.5 7q-5 1 -8 2v22h273v-22z" />
    <glyph glyph-name="iogonek" unicode="&#x12f;" horiz-adv-x="279" 
d="M135 543q-24 0 -42 17t-18 41t18 41t42 17t42 -17t18 -41t-18 -41t-42 -17zM194 0q-46 -26 -66 -48.5t-20 -51.5q0 -26 14.5 -41t38.5 -15q19 0 45 10v-18q-35 -35 -87 -35q-41 0 -67.5 20.5t-26.5 62.5q0 32 21 60l84 56h-105v22q26 5 36.5 7.5t20 14t9.5 32.5v239
q0 30 -12.5 44t-53.5 19v20q71 13 140 58l21 -19v-361q0 -21 9.5 -32.5t20 -14t36.5 -7.5v-22h-58z" />
    <glyph glyph-name="Idotaccent" unicode="&#x130;" horiz-adv-x="323" 
d="M162 733q-24 0 -42 17t-18 41t18 41t42 17t42 -17t18 -41t-18 -41t-42 -17zM25 0v22q51 10 64 20q19 16 19 59v428q0 23 -3.5 37t-17.5 22.5t-20.5 10.5t-33.5 7q-5 1 -8 2v22h273v-22q-51 -10 -64 -20q-19 -16 -19 -59v-428q0 -23 3.5 -37t17.5 -22.5t20.5 -10.5
t33.5 -7q5 -1 8 -2v-22h-273z" />
    <glyph glyph-name="dotlessi" unicode="&#x131;" horiz-adv-x="277" 
d="M25 0v22q26 5 36.5 7.5t20 14t9.5 32.5v239q0 30 -12.5 44t-53.5 19v20q71 13 140 58l21 -19v-361q0 -21 9.5 -32.5t20 -14t36.5 -7.5v-22h-227z" />
    <glyph glyph-name="IJ" unicode="&#x132;" horiz-adv-x="646" 
d="M25 0v22q51 10 64 20q19 16 19 59v428q0 23 -3.5 37t-17.5 22.5t-20.5 10.5t-33.5 7q-5 1 -8 2v22h273v-22q-51 -10 -64 -20q-19 -16 -19 -59v-428q0 -23 3.5 -37t17.5 -22.5t20.5 -10.5t33.5 -7q5 -1 8 -2v-22h-273zM326 -185q-6 13 0 27q68 24 86.5 56.5t18.5 111.5
v519q0 23 -5 37.5t-15 22t-24 11.5t-33 7q-5 0 -8 1v22h275v-22q-51 -10 -64 -20q-19 -16 -19 -59v-529q0 -45 -17.5 -79t-50.5 -54.5t-66.5 -32t-77.5 -19.5z" />
    <glyph glyph-name="ij" unicode="&#x133;" horiz-adv-x="534" 
d="M132 553q-24 0 -42 17t-18 41t18 41t42 17t42 -17t18 -41t-18 -41t-42 -17zM404 553q-24 0 -42 17t-18 41t18 41t42 17t42 -17t18 -41t-18 -41t-42 -17zM25 0v22q26 5 36.5 7.5t20 14t9.5 32.5v239q0 30 -12.5 44t-53.5 19v20q80 13 140 58l21 -19v-361q0 -21 9.5 -32.5
t20 -14t36.5 -7.5v-22h-227zM276 -185q-9 13 0 26q46 16 66 48.5t20 99.5v326q0 30 -12.5 44t-53.5 19v20q71 13 140 58l21 -19v-454q0 -42 -17 -74.5t-46 -51t-57.5 -28.5t-60.5 -14z" />
    <glyph glyph-name="uni0136" unicode="&#x136;" horiz-adv-x="686" 
d="M590 54q14 -19 29.5 -25.5t56.5 -6.5v-22h-191q0 25 -30 68l-173 251l-67 -66v-152q0 -23 3.5 -37t17.5 -22.5t20.5 -10.5t33.5 -7q5 -1 8 -2v-22h-273v22q51 10 64 20q19 16 19 59v428q0 23 -3.5 37t-17.5 22.5t-20.5 10.5t-33.5 7q-5 1 -8 2v22h273v-22
q-51 -10 -64 -20q-19 -16 -19 -59v-220l252 248q23 22 11.5 36.5t-52.5 14.5v22h217v-22q-31 0 -54.5 -7.5t-35 -16.5t-30.5 -27l-171 -168zM352 -58q29 0 49 -22t20 -61q0 -55 -40 -107t-111 -71l-9 21q72 28 85 84q4 15 -2 23t-19 15q-36 21 -36 57q0 26 18.5 43.5
t44.5 17.5z" />
    <glyph glyph-name="uni0137" unicode="&#x137;" horiz-adv-x="557" 
d="M472 58q13 -18 28 -24.5t51 -10.5v-23h-165q0 26 -18 53l-120 172l-55 -53v-96q0 -20 10 -31t22 -14.5t34 -7.5q5 -1 7 -1v-22h-241v22q49 9 61 20t12 34v471q0 28 -15.5 43t-57.5 20v20q87 15 148 57l20 -19v-446l147 142q23 22 14 35.5t-48 17.5v23h200v-23
q-41 -4 -65.5 -16t-49.5 -37l-81 -78zM284 -58q29 0 49 -22t20 -61q0 -55 -40 -107t-111 -71l-9 21q72 28 85 84q4 15 -2 23t-19 15q-36 21 -36 57q0 26 18.5 43.5t44.5 17.5z" />
    <glyph glyph-name="Lacute" unicode="&#x139;" horiz-adv-x="585" 
d="M155 700l-23 16q28 90 69 148q20 0 43.5 -17t30.5 -36q-50 -34 -120 -111zM25 0v22q51 10 64 20q19 16 19 59v428q0 23 -3.5 37t-17.5 22.5t-20.5 10.5t-33.5 7q-5 1 -8 2v22h284v-22q-3 -1 -15 -3l-15 -2.5t-13 -3t-13 -4.5t-10.5 -5.5t-10 -7t-7 -9t-6 -11.5t-3 -14.5
t-1.5 -18.5v-417q0 -50 17.5 -63t76.5 -13h71q60 0 92.5 25.5t60.5 94.5h27l-41 -156h-494z" />
    <glyph glyph-name="lacute" unicode="&#x13a;" horiz-adv-x="293" 
d="M125 704l-23 16q28 90 69 148q20 0 43.5 -17t30.5 -36q-50 -34 -120 -111zM25 0v22q49 9 61 20t12 34v471q0 28 -15.5 43t-57.5 20v20q87 15 148 57l20 -19v-592q0 -20 10 -31t22 -14.5t34 -7.5q5 -1 7 -1v-22h-241z" />
    <glyph glyph-name="uni013B" unicode="&#x13b;" horiz-adv-x="585" 
d="M25 0v22q51 10 64 20q19 16 19 59v428q0 23 -3.5 37t-17.5 22.5t-20.5 10.5t-33.5 7q-5 1 -8 2v22h284v-22q-3 -1 -15 -3l-15 -2.5t-13 -3t-13 -4.5t-10.5 -5.5t-10 -7t-7 -9t-6 -11.5t-3 -14.5t-1.5 -18.5v-417q0 -50 17.5 -63t76.5 -13h71q60 0 92.5 25.5t60.5 94.5h27
l-41 -156h-494zM221 -319l-9 21q72 28 85 84q4 15 -2 23t-19 15q-36 21 -36 57q0 26 18.5 43.5t44.5 17.5q29 0 49 -22t20 -61q0 -55 -40 -107t-111 -71z" />
    <glyph glyph-name="uni013C" unicode="&#x13c;" horiz-adv-x="293" 
d="M25 0v22q49 9 61 20t12 34v471q0 28 -15.5 43t-57.5 20v20q87 15 148 57l20 -19v-592q0 -20 10 -31t22 -14.5t34 -7.5q5 -1 7 -1v-22h-241zM73 -319l-9 21q72 28 85 84q4 15 -2 23t-19 15q-36 21 -36 57q0 26 18.5 43.5t44.5 17.5q29 0 49 -22t20 -61q0 -55 -40 -107
t-111 -71z" />
    <glyph glyph-name="Lcaron" unicode="&#x13d;" horiz-adv-x="590" 
d="M25 0v22q51 10 64 20q19 16 19 59v428q0 23 -3.5 37t-17.5 22.5t-20.5 10.5t-33.5 7q-5 1 -8 2v22h284v-22q-3 -1 -15 -3l-15 -2.5t-13 -3t-13 -4.5t-10.5 -5.5t-10 -7t-7 -9t-6 -11.5t-3 -14.5t-1.5 -18.5v-417q0 -50 17.5 -63t76.5 -13h71q60 0 92.5 25.5t60.5 94.5h27
l-41 -156h-494zM356 368l-9 21q72 28 85 84q4 15 -2 23t-19 15q-36 21 -36 57q0 26 18.5 43.5t44.5 17.5q29 0 49 -22t20 -61q0 -55 -40 -107t-111 -71z" />
    <glyph glyph-name="lcaron" unicode="&#x13e;" horiz-adv-x="277" 
d="M25 0v22q49 9 61 20t12 34v471q0 28 -15.5 43t-57.5 20v20q87 15 148 57l20 -19v-592q0 -20 10 -31t22 -14.5t34 -7.5q5 -1 7 -1v-22h-241zM280 494h-28q-13 106 -32 160q16 12 45 12t46 -12q0 -72 -31 -160z" />
    <glyph glyph-name="Ldot" unicode="&#x13f;" horiz-adv-x="590" 
d="M25 0v22q51 10 64 20q19 16 19 59v428q0 23 -3.5 37t-17.5 22.5t-20.5 10.5t-33.5 7q-5 1 -8 2v22h284v-22q-3 -1 -15 -3l-15 -2.5t-13 -3t-13 -4.5t-10.5 -5.5t-10 -7t-7 -9t-6 -11.5t-3 -14.5t-1.5 -18.5v-417q0 -50 17.5 -63t76.5 -13h71q60 0 92.5 25.5t60.5 94.5h27
l-41 -156h-494zM398 249q-26 0 -44.5 18t-18.5 44q0 25 18.5 43t44.5 18t44.5 -18t18.5 -43q0 -26 -18.5 -44t-44.5 -18z" />
    <glyph glyph-name="ldot" unicode="&#x140;" horiz-adv-x="340" 
d="M25 0v22q49 9 61 20t12 34v471q0 28 -15.5 43t-57.5 20v20q87 15 148 57l20 -19v-592q0 -20 10 -31t22 -14.5t34 -7.5q5 -1 7 -1v-22h-241zM308 276q-26 0 -44.5 18t-18.5 44q0 25 18.5 43t44.5 18t44.5 -18t18.5 -43q0 -26 -18.5 -44t-44.5 -18z" />
    <glyph glyph-name="Lslash" unicode="&#x141;" horiz-adv-x="594" 
d="M537 156h27l-41 -156h-494v22q51 10 64 20q19 16 19 59v206l-87 -33v41q29 8 87 26v188q0 23 -3.5 37t-17.5 22.5t-20.5 10.5t-33.5 7q-5 1 -8 2v22h284v-22q-3 -1 -15 -3l-15 -2.5t-13 -3t-13 -4.5t-10.5 -5.5t-10 -7t-7 -9t-6 -11.5t-3 -14.5t-1.5 -18.5v-154
q64 22 158 59v-41q-45 -13 -158 -49v-232q0 -50 17.5 -63t76.5 -13h71q60 0 92.5 25.5t60.5 94.5z" />
    <glyph glyph-name="lslash" unicode="&#x142;" horiz-adv-x="300" 
d="M202 76q0 -20 10 -31t22 -14.5t34 -7.5q5 -1 7 -1v-22h-241v22q49 9 61 20t12 34v232q-46 -17 -82 -33v39q63 19 82 25v208q0 28 -15.5 43t-57.5 20v20q87 15 148 57l20 -19v-294q30 11 64 26v-39l-64 -19v-266z" />
    <glyph glyph-name="Nacute" unicode="&#x143;" horiz-adv-x="699" 
d="M463 811q-50 -34 -120 -111l-23 16q28 90 69 148q20 0 43.5 -17t30.5 -36zM458 630h216v-22q-52 -10 -65 -20q-20 -17 -20 -59v-529h-45l-393 532v-431q0 -23 4 -37t19 -22.5t22 -10.5t36 -7q6 -1 9 -2v-22h-216v22q52 10 65 20q20 16 20 59v428q0 23 -4 37t-17.5 22.5
t-21.5 10.5t-33 7q-2 1 -3 1t-3 0.5t-3 0.5v22h180l343 -463v362q0 23 -4 37t-19 22.5t-22 10.5t-36 7q-6 1 -9 2v22z" />
    <glyph glyph-name="nacute" unicode="&#x144;" 
d="M273 510l-23 16q28 90 69 148q20 0 43.5 -17t30.5 -36q-50 -34 -120 -111zM20 0v22q26 5 36.5 7.5t20 14t9.5 32.5v239q0 30 -12.5 44t-53.5 19v20q84 13 150 58l20 -19l-27 -84h16q78 96 173 96q124 0 124 -154v-219q0 -21 9.5 -32.5t20 -14t36.5 -7.5v-22h-224v22
q25 5 34.5 7.5t19 14t9.5 32.5v213q0 96 -79 96q-68 0 -121 -65v-244q0 -21 9.5 -32.5t19 -14t34.5 -7.5v-22h-224z" />
    <glyph glyph-name="uni0145" unicode="&#x145;" horiz-adv-x="699" 
d="M458 630h216v-22q-52 -10 -65 -20q-20 -17 -20 -59v-529h-45l-393 532v-431q0 -23 4 -37t19 -22.5t22 -10.5t36 -7q6 -1 9 -2v-22h-216v22q52 10 65 20q20 16 20 59v428q0 23 -4 37t-17.5 22.5t-21.5 10.5t-33 7q-2 1 -3 1t-3 0.5t-3 0.5v22h180l343 -463v362q0 23 -4 37
t-19 22.5t-22 10.5t-36 7q-6 1 -9 2v22zM358 -58q29 0 49 -22t20 -61q0 -55 -40 -107t-111 -71l-9 21q72 28 85 84q4 15 -2 23t-19 15q-36 21 -36 57q0 26 18.5 43.5t44.5 17.5z" />
    <glyph glyph-name="uni0146" unicode="&#x146;" 
d="M20 0v22q26 5 36.5 7.5t20 14t9.5 32.5v239q0 30 -12.5 44t-53.5 19v20q84 13 150 58l20 -19l-27 -84h16q78 96 173 96q124 0 124 -154v-219q0 -21 9.5 -32.5t20 -14t36.5 -7.5v-22h-224v22q25 5 34.5 7.5t19 14t9.5 32.5v213q0 96 -79 96q-68 0 -121 -65v-244
q0 -21 9.5 -32.5t19 -14t34.5 -7.5v-22h-224zM206 -319l-9 21q72 28 85 84q4 15 -2 23t-19 15q-36 21 -36 57q0 26 18.5 43.5t44.5 17.5q29 0 49 -22t20 -61q0 -55 -40 -107t-111 -71z" />
    <glyph glyph-name="Ncaron" unicode="&#x147;" horiz-adv-x="699" 
d="M486 865l-138 -152l-138 152l13 12l125 -91l125 91zM458 630h216v-22q-52 -10 -65 -20q-20 -17 -20 -59v-529h-45l-393 532v-431q0 -23 4 -37t19 -22.5t22 -10.5t36 -7q6 -1 9 -2v-22h-216v22q52 10 65 20q20 16 20 59v428q0 23 -4 37t-17.5 22.5t-21.5 10.5t-33 7
q-2 1 -3 1t-3 0.5t-3 0.5v22h180l343 -463v362q0 23 -4 37t-19 22.5t-22 10.5t-36 7q-6 1 -9 2v22z" />
    <glyph glyph-name="ncaron" unicode="&#x148;" 
d="M278 523l-138 152l13 12l125 -91l125 91l13 -12zM20 0v22q26 5 36.5 7.5t20 14t9.5 32.5v239q0 30 -12.5 44t-53.5 19v20q84 13 150 58l20 -19l-27 -84h16q78 96 173 96q124 0 124 -154v-219q0 -21 9.5 -32.5t20 -14t36.5 -7.5v-22h-224v22q25 5 34.5 7.5t19 14t9.5 32.5
v213q0 96 -79 96q-68 0 -121 -65v-244q0 -21 9.5 -32.5t19 -14t34.5 -7.5v-22h-224z" />
    <glyph glyph-name="Eng" unicode="&#x14a;" horiz-adv-x="699" 
d="M458 630h216v-22q-52 -10 -65 -20q-20 -17 -20 -59v-410h1v-119q0 -45 -17.5 -79t-50.5 -54.5t-66.5 -32t-77.5 -19.5q-10 14 0 27q68 24 86.5 56.5t18.5 111.5v73l-332 449v-431q0 -23 4 -37t19 -22.5t22 -10.5t36 -7q6 -1 9 -2v-22h-216v22q52 10 65 20q20 16 20 59
v428q0 23 -4 37t-17.5 22.5t-21.5 10.5t-33 7q-2 1 -3 1t-3 0.5t-3 0.5v22h180l343 -463v362q0 23 -4 37t-19 22.5t-22 10.5t-36 7q-6 1 -9 2v22z" />
    <glyph glyph-name="eng" unicode="&#x14b;" horiz-adv-x="531" 
d="M352 449q124 0 124 -154v-312q0 -42 -17 -74.5t-46 -51t-57.5 -28.5t-60.5 -14q-9 13 0 26q46 16 66 48.5t20 99.5v300q0 96 -79 96q-68 0 -121 -65v-244q0 -21 9.5 -32.5t19 -14t34.5 -7.5v-22h-224v22q26 5 36.5 7.5t20 14t9.5 32.5v239q0 30 -12.5 44t-53.5 19v20
q84 13 150 58l20 -19l-27 -84h16q78 96 173 96z" />
    <glyph glyph-name="Omacron" unicode="&#x14c;" horiz-adv-x="730" 
d="M218 789l15 38h280l-15 -38h-280zM363 -12q-138 0 -228 93t-90 233t91 236t231 96q138 0 228 -93.5t90 -233.5t-91 -235.5t-231 -95.5zM380 24q84 0 137 71t53 194q0 141 -62.5 231t-157.5 90q-84 0 -137 -71.5t-53 -194.5q0 -140 62.5 -230t157.5 -90z" />
    <glyph glyph-name="omacron" unicode="&#x14d;" horiz-adv-x="543" 
d="M125 599l15 38h280l-15 -38h-280zM265 -9q-95 0 -162.5 62t-67.5 164q0 106 71.5 169t169.5 63q95 0 162.5 -62t67.5 -164q0 -106 -71.5 -169t-169.5 -63zM278 24q52 0 88 46t36 133q0 89 -39 151t-100 62q-52 0 -88 -46t-36 -133q0 -89 39 -151t100 -62z" />
    <glyph glyph-name="Ohungarumlaut" unicode="&#x150;" horiz-adv-x="730" 
d="M256 700l-23 16q28 90 69 148q20 0 43.5 -17t30.5 -36q-50 -34 -120 -111zM413 700l-23 16q28 90 69 148q20 0 43.5 -17t30.5 -36q-50 -34 -120 -111zM363 -12q-138 0 -228 93t-90 233t91 236t231 96q138 0 228 -93.5t90 -233.5t-91 -235.5t-231 -95.5zM380 24
q84 0 137 71t53 194q0 141 -62.5 231t-157.5 90q-84 0 -137 -71.5t-53 -194.5q0 -140 62.5 -230t157.5 -90z" />
    <glyph glyph-name="ohungarumlaut" unicode="&#x151;" horiz-adv-x="543" 
d="M163 510l-23 16q28 90 69 148q20 0 43.5 -17t30.5 -36q-50 -34 -120 -111zM320 510l-23 16q28 90 69 148q20 0 43.5 -17t30.5 -36q-50 -34 -120 -111zM265 -9q-95 0 -162.5 62t-67.5 164q0 106 71.5 169t169.5 63q95 0 162.5 -62t67.5 -164q0 -106 -71.5 -169t-169.5 -63
zM278 24q52 0 88 46t36 133q0 89 -39 151t-100 62q-52 0 -88 -46t-36 -133q0 -89 39 -151t100 -62z" />
    <glyph glyph-name="OE" unicode="&#x152;" horiz-adv-x="1017" 
d="M960 150h27l-41 -150h-483q-45 -12 -100 -12q-138 0 -228 93t-90 233t91 235.5t231 95.5q53 0 101 -15h476l9 -142h-27q-7 57 -27 81.5t-71 24.5h-89q-59 0 -76.5 -13t-17.5 -63v-183h77q86 0 110 17t29 67h21v-202h-21q-5 50 -29 67t-110 17h-77v-189q0 -50 17.5 -63
t76.5 -13h68q59 0 92 24.5t61 89.5zM161 344q0 -140 62.5 -230t156.5 -90q51 0 92 28t66 79v333q-23 68 -72 106.5t-116 38.5q-83 0 -136 -71t-53 -194z" />
    <glyph glyph-name="oe" unicode="&#x153;" horiz-adv-x="859" 
d="M682 56q83 0 119 54l17 -11q-18 -51 -65.5 -79t-112.5 -28q-119 0 -185 83q-72 -84 -190 -84q-95 0 -162.5 62t-67.5 164q0 106 71.5 169t169.5 63q114 0 181 -81q66 82 177 82q103 0 153 -69t24 -137h-305q4 -83 51.5 -135.5t124.5 -52.5zM624 417q-47 0 -80 -36.5
t-37 -103.5h214q8 52 -17.5 96t-79.5 44zM278 24q52 0 88 46t36 133q0 89 -39 151t-100 62q-52 0 -88 -46t-36 -133q0 -89 39 -151t100 -62z" />
    <glyph glyph-name="Racute" unicode="&#x154;" horiz-adv-x="670" 
d="M441 811q-50 -34 -120 -111l-23 16q28 90 69 148q20 0 43.5 -17t30.5 -36zM520 115q71 -112 135 -92v-23q-30 -16 -70 -16q-58 0 -96 23.5t-71 77.5l-72 114q-27 43 -55.5 59.5t-75.5 18.5v-176q0 -23 3.5 -37t17.5 -22.5t20.5 -10.5t33.5 -7q5 -1 8 -2v-22h-273v22
q51 10 64 20q19 16 19 59v428q0 23 -3.5 37t-17.5 22.5t-20.5 10.5t-33.5 7q-5 1 -8 2v22h259q278 0 278 -174q0 -144 -194 -173q53 -10 93 -74zM291 594q-45 0 -60.5 -11t-15.5 -35v-236h65q93 0 131.5 36t38.5 101q0 145 -159 145z" />
    <glyph glyph-name="racute" unicode="&#x155;" horiz-adv-x="399" 
d="M192 510l-23 16q28 90 69 148q20 0 43.5 -17t30.5 -36q-50 -34 -120 -111zM20 0v22q23 3 32 5t20.5 7.5t15 15.5t3.5 26v240q0 30 -13.5 44t-57.5 18v20q91 14 155 58l20 -19l-28 -120h24q32 69 65.5 104t79.5 35q22 0 41 -8v-95q-33 13 -64 13q-60 0 -93.5 -39.5
t-33.5 -100.5v-150q0 -30 15 -39t59 -15v-22h-240z" />
    <glyph glyph-name="uni0156" unicode="&#x156;" horiz-adv-x="670" 
d="M520 115q71 -112 135 -92v-23q-30 -16 -70 -16q-58 0 -96 23.5t-71 77.5l-72 114q-27 43 -55.5 59.5t-75.5 18.5v-176q0 -23 3.5 -37t17.5 -22.5t20.5 -10.5t33.5 -7q5 -1 8 -2v-22h-273v22q51 10 64 20q19 16 19 59v428q0 23 -3.5 37t-17.5 22.5t-20.5 10.5t-33.5 7
q-5 1 -8 2v22h259q278 0 278 -174q0 -144 -194 -173q53 -10 93 -74zM291 594q-45 0 -60.5 -11t-15.5 -35v-236h65q93 0 131.5 36t38.5 101q0 145 -159 145zM343 -58q29 0 49 -22t20 -61q0 -55 -40 -107t-111 -71l-9 21q72 28 85 84q4 15 -2 23t-19 15q-36 21 -36 57
q0 26 18.5 43.5t44.5 17.5z" />
    <glyph glyph-name="uni0157" unicode="&#x157;" horiz-adv-x="399" 
d="M20 0v22q23 3 32 5t20.5 7.5t15 15.5t3.5 26v240q0 30 -13.5 44t-57.5 18v20q91 14 155 58l20 -19l-28 -120h24q32 69 65.5 104t79.5 35q22 0 41 -8v-95q-33 13 -64 13q-60 0 -93.5 -39.5t-33.5 -100.5v-150q0 -30 15 -39t59 -15v-22h-240zM67 -319l-9 21q72 28 85 84
q4 15 -2 23t-19 15q-36 21 -36 57q0 26 18.5 43.5t44.5 17.5q29 0 49 -22t20 -61q0 -55 -40 -107t-111 -71z" />
    <glyph glyph-name="Rcaron" unicode="&#x158;" horiz-adv-x="670" 
d="M464 865l-138 -152l-138 152l13 12l125 -91l125 91zM520 115q71 -112 135 -92v-23q-30 -16 -70 -16q-58 0 -96 23.5t-71 77.5l-72 114q-27 43 -55.5 59.5t-75.5 18.5v-176q0 -23 3.5 -37t17.5 -22.5t20.5 -10.5t33.5 -7q5 -1 8 -2v-22h-273v22q51 10 64 20q19 16 19 59
v428q0 23 -3.5 37t-17.5 22.5t-20.5 10.5t-33.5 7q-5 1 -8 2v22h259q278 0 278 -174q0 -144 -194 -173q53 -10 93 -74zM291 594q-45 0 -60.5 -11t-15.5 -35v-236h65q93 0 131.5 36t38.5 101q0 145 -159 145z" />
    <glyph glyph-name="rcaron" unicode="&#x159;" horiz-adv-x="399" 
d="M197 523l-138 152l13 12l125 -91l125 91l13 -12zM20 0v22q23 3 32 5t20.5 7.5t15 15.5t3.5 26v240q0 30 -13.5 44t-57.5 18v20q91 14 155 58l20 -19l-28 -120h24q32 69 65.5 104t79.5 35q22 0 41 -8v-95q-33 13 -64 13q-60 0 -93.5 -39.5t-33.5 -100.5v-150q0 -30 15 -39
t59 -15v-22h-240z" />
    <glyph glyph-name="Sacute" unicode="&#x15a;" horiz-adv-x="521" 
d="M251 700l-23 16q28 90 69 148q20 0 43.5 -17t30.5 -36q-50 -34 -120 -111zM252 -12q-106 0 -199 63l-8 128h25q19 -71 66 -114.5t112 -43.5q55 0 90.5 33.5t35.5 84.5q0 49 -34 81.5t-107 67.5q-38 18 -64 34t-54.5 40t-43 55.5t-14.5 69.5q0 70 52.5 114.5t151.5 44.5
q21 0 40 -2t35.5 -6.5t28.5 -8.5t25 -11l19.5 -10.5t18 -11.5t13.5 -9l3 -130h-23q-40 156 -159 156q-53 0 -80.5 -27.5t-27.5 -68.5t31 -71.5t101 -63.5q33 -16 50 -25t49 -30t49 -41t31 -50.5t14 -65.5q0 -81 -65.5 -131.5t-161.5 -50.5z" />
    <glyph glyph-name="sacute" unicode="&#x15b;" horiz-adv-x="403" 
d="M191 510l-23 16q28 90 69 148q20 0 43.5 -17t30.5 -36q-50 -34 -120 -111zM183 -9q-48 0 -87.5 13t-58.5 27l-2 92h32q32 -100 126 -100q42 0 65 18.5t23 51.5q0 43 -51 68q-15 7 -48 19l-10 4q-28 10 -48 20.5t-42 27t-33.5 40t-11.5 51.5q0 57 44.5 91.5t121.5 34.5
q71 0 129 -38l-1 -91h-30q-28 97 -109 97q-36 0 -56 -18t-20 -45q0 -29 22.5 -47.5t70.5 -36.5q31 -12 41.5 -16t39 -18.5t40.5 -27t24 -34.5t12 -48q0 -60 -51 -97.5t-132 -37.5z" />
    <glyph glyph-name="Scedilla" unicode="&#x15e;" horiz-adv-x="521" 
d="M479 170q0 -74 -55 -123t-139 -57l-20 -39q44 0 74 -21t30 -57q0 -38 -38.5 -61.5t-119.5 -23.5l5 23q45 0 67.5 13t22.5 33q0 45 -109 45l44 86q-98 3 -188 63l-8 128h25q19 -71 66 -114.5t112 -43.5q55 0 90.5 33.5t35.5 84.5q0 49 -34 81.5t-107 67.5q-38 18 -64 34
t-54.5 40t-43 55.5t-14.5 69.5q0 70 52.5 114.5t151.5 44.5q21 0 40 -2t35.5 -6.5t28.5 -8.5t25 -11l19.5 -10.5t18 -11.5t13.5 -9l3 -130h-23q-40 156 -159 156q-53 0 -80.5 -27.5t-27.5 -68.5t31 -71.5t101 -63.5q33 -16 50 -25t49 -30t49 -41t31 -50.5t14 -65.5z" />
    <glyph glyph-name="scedilla" unicode="&#x15f;" horiz-adv-x="403" 
d="M366 126q0 -52 -39 -87.5t-104 -44.5l-22 -43q44 0 74 -21t30 -57q0 -38 -38.5 -61.5t-119.5 -23.5l5 23q45 0 67.5 13t22.5 33q0 45 -109 45l45 89q-87 1 -141 40l-2 92h32q32 -100 126 -100q42 0 65 18.5t23 51.5q0 43 -51 68q-15 7 -48 19l-10 4q-28 10 -48 20.5
t-42 27t-33.5 40t-11.5 51.5q0 57 44.5 91.5t121.5 34.5q71 0 129 -38l-1 -91h-30q-28 97 -109 97q-36 0 -56 -18t-20 -45q0 -29 22.5 -47.5t70.5 -36.5q31 -12 41.5 -16t39 -18.5t40.5 -27t24 -34.5t12 -48z" />
    <glyph glyph-name="Scaron" unicode="&#x160;" horiz-adv-x="521" 
d="M255 713l-138 152l13 12l125 -91l125 91l13 -12zM252 -12q-106 0 -199 63l-8 128h25q19 -71 66 -114.5t112 -43.5q55 0 90.5 33.5t35.5 84.5q0 49 -34 81.5t-107 67.5q-38 18 -64 34t-54.5 40t-43 55.5t-14.5 69.5q0 70 52.5 114.5t151.5 44.5q21 0 40 -2t35.5 -6.5
t28.5 -8.5t25 -11l19.5 -10.5t18 -11.5t13.5 -9l3 -130h-23q-40 156 -159 156q-53 0 -80.5 -27.5t-27.5 -68.5t31 -71.5t101 -63.5q33 -16 50 -25t49 -30t49 -41t31 -50.5t14 -65.5q0 -81 -65.5 -131.5t-161.5 -50.5z" />
    <glyph glyph-name="scaron" unicode="&#x161;" horiz-adv-x="403" 
d="M196 523l-138 152l13 12l125 -91l125 91l13 -12zM183 -9q-48 0 -87.5 13t-58.5 27l-2 92h32q32 -100 126 -100q42 0 65 18.5t23 51.5q0 43 -51 68q-15 7 -48 19l-10 4q-28 10 -48 20.5t-42 27t-33.5 40t-11.5 51.5q0 57 44.5 91.5t121.5 34.5q71 0 129 -38l-1 -91h-30
q-28 97 -109 97q-36 0 -56 -18t-20 -45q0 -29 22.5 -47.5t70.5 -36.5q31 -12 41.5 -16t39 -18.5t40.5 -27t24 -34.5t12 -48q0 -60 -51 -97.5t-132 -37.5z" />
    <glyph glyph-name="uni0162" unicode="&#x162;" horiz-adv-x="607" 
d="M572 640l8 -176h-21q-11 71 -40.5 102.5t-105.5 31.5h-57v-497q0 -20 5 -33t9.5 -20.5t21.5 -13t25 -7t36 -5.5v-22h-121l-25 -49q44 0 74 -21t30 -57q0 -38 -38.5 -61.5t-119.5 -23.5l5 23q45 0 67.5 13t22.5 33q0 45 -109 45l50 98h-137v22q28 4 36 5.5t25 7t21.5 13
t9.5 20.5t5 33v497h-54q-78 0 -108 -31.5t-41 -102.5h-21l8 176l51 -10h437z" />
    <glyph glyph-name="uni0163" unicode="&#x163;" horiz-adv-x="308" 
d="M320 52q-45 -26 -122 -55l-24 -46q44 0 74 -21t30 -57q0 -38 -38.5 -61.5t-119.5 -23.5l5 23q45 0 67.5 13t22.5 33q0 45 -109 45l47 92q-25 8 -41 30.5t-16 48.5v329h-76v24q86 33 143 105h28v-95l126 13q-5 -20 -5 -47h-121v-290q0 -25 13 -38t34 -13.5t41 3.5t41 12
v-24z" />
    <glyph glyph-name="Tcaron" unicode="&#x164;" horiz-adv-x="605" 
d="M440 856l-138 -152l-138 152l13 12l125 -91l125 91zM572 640l8 -176h-21q-11 71 -40.5 102.5t-105.5 31.5h-57v-497q0 -20 5 -33t9.5 -20.5t21.5 -13t25 -7t36 -5.5v-22h-301v22q28 4 36 5.5t25 7t21.5 13t9.5 20.5t5 33v497h-54q-78 0 -108 -31.5t-41 -102.5h-21l8 176
l51 -10h437z" />
    <glyph glyph-name="tcaron" unicode="&#x165;" horiz-adv-x="340" 
d="M239 483q-18 0 -18 20v110q0 47 38 47q22 0 32 -12t3 -36l-31 -109q-5 -20 -24 -20zM191 112q0 -25 13 -38t34 -13.5t41 3.5t41 12v-24q-65 -37 -144 -62q-33 0 -56.5 25.5t-23.5 57.5v329h-76v24q86 33 143 105h28v-95l126 13q-5 -20 -5 -47h-121v-290z" />
    <glyph glyph-name="Tbar" unicode="&#x166;" horiz-adv-x="605" 
d="M572 640l8 -176h-21q-11 71 -40.5 102.5t-105.5 31.5h-57v-272l112 3l-10 -36l-102 3v-195q0 -20 5 -33t9.5 -20.5t21.5 -13t25 -7t36 -5.5v-22h-301v22q28 4 36 5.5t25 7t21.5 13t9.5 20.5t5 33v195l-111 -3l10 36l101 -3v272h-54q-78 0 -108 -31.5t-41 -102.5h-21
l8 176l51 -10h437z" />
    <glyph glyph-name="tbar" unicode="&#x167;" horiz-adv-x="344" 
d="M195 112q0 -25 13 -38t34 -13.5t41 3.5t41 12v-24q-65 -37 -144 -62q-33 0 -56.5 25.5t-23.5 57.5v177h-80l10 36h70v116h-76v24q86 33 143 105h28v-95l126 13q-5 -20 -5 -47h-121v-116h115l-10 -36h-105v-138z" />
    <glyph glyph-name="Umacron" unicode="&#x16a;" horiz-adv-x="710" 
d="M209 789l15 38h280l-15 -38h-280zM358 -12q-46 0 -85.5 10.5t-79 37t-62.5 81.5t-23 134v278q0 23 -3.5 37t-17.5 22.5t-20.5 10.5t-33.5 7q-5 1 -8 2v22h274v-22q-51 -10 -64 -20q-19 -16 -19 -59v-291q0 -207 168 -207q31 0 58.5 7.5t56 27t45.5 60t17 98.5v305
q0 23 -4 37t-17.5 22.5t-21.5 10.5t-33 7q-2 1 -3 1t-3 0.5t-3 0.5v22h217v-22q-56 -10 -69 -20q-21 -16 -21 -59v-285q0 -73 -20.5 -125t-57 -79.5t-77.5 -39.5t-90 -12z" />
    <glyph glyph-name="umacron" unicode="&#x16b;" horiz-adv-x="562" 
d="M137 599l15 38h280l-15 -38h-280zM211 -9q-130 0 -130 154v227q0 18 -8.5 27.5t-19 12.5t-33.5 7v21q96 -5 156 6v-297q0 -93 81 -93q64 0 122 53v263q0 18 -8.5 27.5t-19 12.5t-33.5 7v21q96 -5 156 6v-358q0 -30 12.5 -44.5t53.5 -21.5v-22h-151l6 78h-13
q-85 -87 -171 -87z" />
    <glyph glyph-name="ubreve" unicode="&#x16d;" horiz-adv-x="562" 
d="M284 548q-66 0 -102 36t-36 95h23q14 -66 115 -66t115 66h23q0 -59 -36 -95t-102 -36zM211 -9q-130 0 -130 154v227q0 18 -8.5 27.5t-19 12.5t-33.5 7v21q96 -5 156 6v-297q0 -93 81 -93q64 0 122 53v263q0 18 -8.5 27.5t-19 12.5t-33.5 7v21q96 -5 156 6v-358
q0 -30 12.5 -44.5t53.5 -21.5v-22h-151l6 78h-13q-85 -87 -171 -87z" />
    <glyph glyph-name="Uring" unicode="&#x16e;" horiz-adv-x="710" 
d="M356 723q-37 0 -63 25.5t-26 62.5t26 62.5t63 25.5t63 -25.5t26 -62.5t-26 -62.5t-63 -25.5zM356 764q20 0 33.5 13.5t13.5 33.5t-13.5 33.5t-33.5 13.5t-33.5 -13.5t-13.5 -33.5t13.5 -33.5t33.5 -13.5zM358 -12q-46 0 -85.5 10.5t-79 37t-62.5 81.5t-23 134v278
q0 23 -3.5 37t-17.5 22.5t-20.5 10.5t-33.5 7q-5 1 -8 2v22h274v-22q-51 -10 -64 -20q-19 -16 -19 -59v-291q0 -207 168 -207q31 0 58.5 7.5t56 27t45.5 60t17 98.5v305q0 23 -4 37t-17.5 22.5t-21.5 10.5t-33 7q-2 1 -3 1t-3 0.5t-3 0.5v22h217v-22q-56 -10 -69 -20
q-21 -16 -21 -59v-285q0 -73 -20.5 -125t-57 -79.5t-77.5 -39.5t-90 -12z" />
    <glyph glyph-name="uring" unicode="&#x16f;" horiz-adv-x="562" 
d="M284 533q-37 0 -63 25.5t-26 62.5t26 62.5t63 25.5t63 -25.5t26 -62.5t-26 -62.5t-63 -25.5zM284 574q20 0 33.5 13.5t13.5 33.5t-13.5 33.5t-33.5 13.5t-33.5 -13.5t-13.5 -33.5t13.5 -33.5t33.5 -13.5zM211 -9q-130 0 -130 154v227q0 18 -8.5 27.5t-19 12.5t-33.5 7v21
q96 -5 156 6v-297q0 -93 81 -93q64 0 122 53v263q0 18 -8.5 27.5t-19 12.5t-33.5 7v21q96 -5 156 6v-358q0 -30 12.5 -44.5t53.5 -21.5v-22h-151l6 78h-13q-85 -87 -171 -87z" />
    <glyph glyph-name="Uhungarumlaut" unicode="&#x170;" horiz-adv-x="710" 
d="M247 700l-23 16q28 90 69 148q20 0 43.5 -17t30.5 -36q-50 -34 -120 -111zM404 700l-23 16q28 90 69 148q20 0 43.5 -17t30.5 -36q-50 -34 -120 -111zM358 -12q-46 0 -85.5 10.5t-79 37t-62.5 81.5t-23 134v278q0 23 -3.5 37t-17.5 22.5t-20.5 10.5t-33.5 7q-5 1 -8 2v22
h274v-22q-51 -10 -64 -20q-19 -16 -19 -59v-291q0 -207 168 -207q31 0 58.5 7.5t56 27t45.5 60t17 98.5v305q0 23 -4 37t-17.5 22.5t-21.5 10.5t-33 7q-2 1 -3 1t-3 0.5t-3 0.5v22h217v-22q-56 -10 -69 -20q-21 -16 -21 -59v-285q0 -73 -20.5 -125t-57 -79.5t-77.5 -39.5
t-90 -12z" />
    <glyph glyph-name="uhungarumlaut" unicode="&#x171;" horiz-adv-x="562" 
d="M175 510l-23 16q28 90 69 148q20 0 43.5 -17t30.5 -36q-50 -34 -120 -111zM332 510l-23 16q28 90 69 148q20 0 43.5 -17t30.5 -36q-50 -34 -120 -111zM211 -9q-130 0 -130 154v227q0 18 -8.5 27.5t-19 12.5t-33.5 7v21q96 -5 156 6v-297q0 -93 81 -93q64 0 122 53v263
q0 18 -8.5 27.5t-19 12.5t-33.5 7v21q96 -5 156 6v-358q0 -30 12.5 -44.5t53.5 -21.5v-22h-151l6 78h-13q-85 -87 -171 -87z" />
    <glyph glyph-name="Uogonek" unicode="&#x172;" horiz-adv-x="699" 
d="M476 630h217v-22q-56 -10 -69 -20q-21 -16 -21 -59v-285q0 -213 -176 -250q-78 -33 -78 -94q0 -26 14.5 -41t38.5 -15q19 0 45 10v-18q-35 -35 -87 -35q-41 0 -67.5 20.5t-26.5 62.5q0 32 21 60l70 44q-36 0 -68 6t-66.5 23.5t-58.5 45.5t-40 76t-16 112v278
q0 23 -3.5 37t-17.5 22.5t-20.5 10.5t-33.5 7q-5 1 -8 2v22h274v-22q-51 -10 -64 -20q-19 -16 -19 -59v-291q0 -207 168 -207q28 0 49 5l2 1v-1q126 28 126 188v305q0 23 -4 37t-17.5 22.5t-21.5 10.5t-33 7q-2 1 -3 1t-3 0.5t-3 0.5v22z" />
    <glyph glyph-name="uogonek" unicode="&#x173;" horiz-adv-x="562" 
d="M453 0q-46 -26 -66 -48.5t-20 -51.5q0 -26 14.5 -41t38.5 -15q19 0 45 10v-18q-35 -35 -87 -35q-41 0 -67.5 20.5t-26.5 62.5q0 32 21 60l84 56l6 78h-13q-85 -87 -171 -87q-130 0 -130 154v227q0 18 -8.5 27.5t-19 12.5t-33.5 7v21q96 -5 156 6v-297q0 -93 81 -93
q64 0 122 53v263q0 18 -8.5 27.5t-19 12.5t-33.5 7v21q96 -5 156 6v-358q0 -30 12.5 -44.5t53.5 -21.5v-22h-87z" />
    <glyph glyph-name="Wcircumflex" unicode="&#x174;" horiz-adv-x="1009" 
d="M503 877l138 -152l-13 -12l-125 91l-125 -91l-13 12zM299 -8l-211 558q-12 32 -25.5 40.5t-57.5 16.5v22h259v-22q-4 -1 -12.5 -3t-12 -2.5t-10 -2.5t-9.5 -3.5l-8 -4t-6.5 -5t-3.5 -6t-2 -8t1 -10t3 -12.5l150 -412l114 325q19 48 0 90.5t-72 54.5v22h172q0 -39 36 -138
l128 -353l130 368q9 24 9.5 41t-3.5 27t-18 16.5t-27.5 9.5t-39.5 7v22h219v-22q-32 -6 -42.5 -9.5t-21.5 -14t-19 -33.5l-202 -558h-40l-173 462l-165 -463h-40z" />
    <glyph glyph-name="wcircumflex" unicode="&#x175;" horiz-adv-x="791" 
d="M393 687l138 -152l-13 -12l-125 91l-125 -91l-13 12zM221 -6l-147 381q-10 26 -22.5 33t-46.5 10v22h225v-22q-46 -6 -54 -18q-6 -9 0 -25l96 -261l89 218q16 41 3 64q-6 12 -16.5 15.5t-33.5 6.5v22h152q0 -36 18 -82l94 -245l87 217q9 22 10 38t-3 25t-16 14.5
t-23.5 7.5t-31.5 3v22h183v-22q-34 -3 -46 -10t-23 -33l-152 -381h-35l-134 336l-138 -336h-35z" />
    <glyph glyph-name="Ycircumflex" unicode="&#x176;" horiz-adv-x="657" 
d="M327 804l-125 -91l-13 12l138 152l138 -152l-13 -12zM448 630h197v-22q-40 -8 -52.5 -16.5t-35.5 -45.5l-171 -274v-171q0 -25 4.5 -39t20.5 -22t26 -10.5t42 -7.5v-22h-293v22q59 10 73 21q20 15 20 58v159l-182 286q-24 37 -36 45.5t-51 16.5v22h264v-22
q-49 -11 -58 -21q-13 -13 4 -41l148 -237l144 237q10 17 11.5 27.5t-9 16.5t-19 8.5t-31.5 6.5q-11 2 -16 3v22z" />
    <glyph glyph-name="ycircumflex" unicode="&#x177;" horiz-adv-x="509" 
d="M255 614l-125 -91l-13 12l138 152l138 -152l-13 -12zM341 440h161v-22q-34 -4 -45.5 -11t-23.5 -35l-176 -411q-12 -28 -22 -47.5t-27 -44t-39 -38t-47 -13.5q-33 0 -65 23v63q69 -6 108 6t56 51l15 36l-162 375q-12 28 -23.5 35t-45.5 11v22h223v-22q-45 -7 -53.5 -17
t-0.5 -29l111 -263l112 263q4 9 4.5 15.5t-3 11t-7 7.5t-13 5.5t-14 3t-16.5 2.5q-5 1 -7 1v22z" />
    <glyph glyph-name="Ydieresis" unicode="&#x178;" horiz-adv-x="657" 
d="M230 760q-22 0 -36.5 14.5t-14.5 36.5t14.5 36.5t36.5 14.5t36.5 -14.5t14.5 -36.5t-14.5 -36.5t-36.5 -14.5zM428 760q-22 0 -36.5 14.5t-14.5 36.5t14.5 36.5t36.5 14.5t36.5 -14.5t14.5 -36.5t-14.5 -36.5t-36.5 -14.5zM448 630h197v-22q-40 -8 -52.5 -16.5
t-35.5 -45.5l-171 -274v-171q0 -25 4.5 -39t20.5 -22t26 -10.5t42 -7.5v-22h-293v22q59 10 73 21q20 15 20 58v159l-182 286q-24 37 -36 45.5t-51 16.5v22h264v-22q-49 -11 -58 -21q-13 -13 4 -41l148 -237l144 237q10 17 11.5 27.5t-9 16.5t-19 8.5t-31.5 6.5q-11 2 -16 3
v22z" />
    <glyph glyph-name="Zacute" unicode="&#x179;" horiz-adv-x="592" 
d="M289 700l-23 16q28 90 69 148q20 0 43.5 -17t30.5 -36q-50 -34 -120 -111zM36 0l-11 15l391 589l-205 -4q-72 -1 -100.5 -31t-33.5 -101h-25v168l59 -6h450l-400 -604l238 4q69 1 97 32t43 102h26q-19 -102 -19 -164h-510z" />
    <glyph glyph-name="zacute" unicode="&#x17a;" horiz-adv-x="461" 
d="M224 510l-23 16q28 90 69 148q20 0 43.5 -17t30.5 -36q-50 -34 -120 -111zM36 0l-11 15l279 398l-130 -3q-84 -1 -94 -103h-25v139l59 -6h316l-288 -413l136 3q62 1 89 26.5t41 77.5h26q-19 -71 -19 -134h-379z" />
    <glyph glyph-name="Zdotaccent" unicode="&#x17b;" horiz-adv-x="592" 
d="M296 733q-24 0 -42 17t-18 41t18 41t42 17t42 -17t18 -41t-18 -41t-42 -17zM36 0l-11 15l391 589l-205 -4q-72 -1 -100.5 -31t-33.5 -101h-25v168l59 -6h450l-400 -604l238 4q69 1 97 32t43 102h26q-19 -102 -19 -164h-510z" />
    <glyph glyph-name="zdotaccent" unicode="&#x17c;" horiz-adv-x="461" 
d="M231 543q-24 0 -42 17t-18 41t18 41t42 17t42 -17t18 -41t-18 -41t-42 -17zM36 0l-11 15l279 398l-130 -3q-84 -1 -94 -103h-25v139l59 -6h316l-288 -413l136 3q62 1 89 26.5t41 77.5h26q-19 -71 -19 -134h-379z" />
    <glyph glyph-name="Zcaron" unicode="&#x17d;" horiz-adv-x="592" 
d="M294 713l-138 152l13 12l125 -91l125 91l13 -12zM36 0l-11 15l391 589l-205 -4q-72 -1 -100.5 -31t-33.5 -101h-25v168l59 -6h450l-400 -604l238 4q69 1 97 32t43 102h26q-19 -102 -19 -164h-510z" />
    <glyph glyph-name="zcaron" unicode="&#x17e;" horiz-adv-x="461" 
d="M229 523l-138 152l13 12l125 -91l125 91l13 -12zM36 0l-11 15l279 398l-130 -3q-84 -1 -94 -103h-25v139l59 -6h316l-288 -413l136 3q62 1 89 26.5t41 77.5h26q-19 -71 -19 -134h-379z" />
    <glyph glyph-name="florin" unicode="&#x192;" horiz-adv-x="593" 
d="M564 685q82 0 99 -54q-4 -23 -25 -41t-48 -23q-18 76 -69 76q-33 0 -62 -31t-38 -108l-8 -65l118 10q-5 -20 -5 -47h-117l-40 -326q-15 -122 -85 -186.5t-165 -64.5q-82 0 -99 54q4 23 25 41t48 23q18 -76 69 -76q33 0 62 31t38 108l48 396h-71v23l75 15q17 118 87 181.5
t163 63.5z" />
    <glyph glyph-name="uni0218" unicode="&#x218;" horiz-adv-x="521" 
d="M252 -12q-106 0 -199 63l-8 128h25q19 -71 66 -114.5t112 -43.5q55 0 90.5 33.5t35.5 84.5q0 49 -34 81.5t-107 67.5q-38 18 -64 34t-54.5 40t-43 55.5t-14.5 69.5q0 70 52.5 114.5t151.5 44.5q21 0 40 -2t35.5 -6.5t28.5 -8.5t25 -11l19.5 -10.5t18 -11.5t13.5 -9
l3 -130h-23q-40 156 -159 156q-53 0 -80.5 -27.5t-27.5 -68.5t31 -71.5t101 -63.5q33 -16 50 -25t49 -30t49 -41t31 -50.5t14 -65.5q0 -81 -65.5 -131.5t-161.5 -50.5zM188 -319l-9 21q72 28 85 84q4 15 -2 23t-19 15q-36 21 -36 57q0 26 18.5 43.5t44.5 17.5q29 0 49 -22
t20 -61q0 -55 -40 -107t-111 -71z" />
    <glyph glyph-name="uni0219" unicode="&#x219;" horiz-adv-x="403" 
d="M183 -9q-48 0 -87.5 13t-58.5 27l-2 92h32q32 -100 126 -100q42 0 65 18.5t23 51.5q0 43 -51 68q-15 7 -48 19l-10 4q-28 10 -48 20.5t-42 27t-33.5 40t-11.5 51.5q0 57 44.5 91.5t121.5 34.5q71 0 129 -38l-1 -91h-30q-28 97 -109 97q-36 0 -56 -18t-20 -45
q0 -29 22.5 -47.5t70.5 -36.5q31 -12 41.5 -16t39 -18.5t40.5 -27t24 -34.5t12 -48q0 -60 -51 -97.5t-132 -37.5zM124 -319l-9 21q72 28 85 84q4 15 -2 23t-19 15q-36 21 -36 57q0 26 18.5 43.5t44.5 17.5q29 0 49 -22t20 -61q0 -55 -40 -107t-111 -71z" />
    <glyph glyph-name="uni021A" unicode="&#x21a;" horiz-adv-x="607" 
d="M572 640l8 -176h-21q-11 71 -40.5 102.5t-105.5 31.5h-57v-497q0 -20 5 -33t9.5 -20.5t21.5 -13t25 -7t36 -5.5v-22h-301v22q28 4 36 5.5t25 7t21.5 13t9.5 20.5t5 33v497h-54q-78 0 -108 -31.5t-41 -102.5h-21l8 176l51 -10h437zM312 -58q29 0 49 -22t20 -61
q0 -55 -40 -107t-111 -71l-9 21q72 28 85 84q4 15 -2 23t-19 15q-36 21 -36 57q0 26 18.5 43.5t44.5 17.5z" />
    <glyph glyph-name="uni021B" unicode="&#x21b;" horiz-adv-x="308" 
d="M191 112q0 -25 13 -38t34 -13.5t41 3.5t41 12v-24q-65 -37 -144 -62q-33 0 -56.5 25.5t-23.5 57.5v329h-76v24q86 33 143 105h28v-95l126 13q-5 -20 -5 -47h-121v-290zM179 -58q29 0 49 -22t20 -61q0 -55 -40 -107t-111 -71l-9 21q72 28 85 84q4 15 -2 23t-19 15
q-36 21 -36 57q0 26 18.5 43.5t44.5 17.5z" />
    <glyph glyph-name="uni0237" unicode="&#x237;" horiz-adv-x="235" 
d="M-1 -185q-9 13 0 26q55 17 70.5 43.5t15.5 103.5v327q0 30 -12.5 44t-53.5 19v20q71 13 140 58l21 -19v-454q0 -42 -17 -74.5t-46 -51t-57.5 -28.5t-60.5 -14z" />
    <glyph glyph-name="circumflex" unicode="&#x2c6;" horiz-adv-x="292" 
d="M144 687l138 -152l-13 -12l-125 91l-125 -91l-13 12z" />
    <glyph glyph-name="caron" unicode="&#x2c7;" horiz-adv-x="288" 
d="M144 523l-138 152l13 12l125 -91l125 91l13 -12z" />
    <glyph glyph-name="breve" unicode="&#x2d8;" horiz-adv-x="288" 
d="M144 548q-66 0 -102 36t-36 95h23q14 -66 115 -66t115 66h23q0 -59 -36 -95t-102 -36z" />
    <glyph glyph-name="dotaccent" unicode="&#x2d9;" horiz-adv-x="132" 
d="M66 543q-24 0 -42 17t-18 41t18 41t42 17t42 -17t18 -41t-18 -41t-42 -17z" />
    <glyph glyph-name="ring" unicode="&#x2da;" horiz-adv-x="190" 
d="M95 533q-37 0 -63 25.5t-26 62.5t26 62.5t63 25.5t63 -25.5t26 -62.5t-26 -62.5t-63 -25.5zM95 574q20 0 33.5 13.5t13.5 33.5t-13.5 33.5t-33.5 13.5t-33.5 -13.5t-13.5 -33.5t13.5 -33.5t33.5 -13.5z" />
    <glyph glyph-name="ogonek" unicode="&#x2db;" horiz-adv-x="193" 
d="M100 -183q-41 0 -67.5 20.5t-26.5 62.5q0 32 21 60l148 99v-43q-46 -26 -66 -48.5t-20 -51.5q0 -26 14.5 -41t38.5 -15q19 0 45 10v-18q-35 -35 -87 -35z" />
    <glyph glyph-name="tilde" unicode="&#x2dc;" horiz-adv-x="350" 
d="M242 529q-26 0 -48.5 11t-35.5 24.5t-32 24.5t-40 11q-26 0 -41.5 -14t-15.5 -30h-21q-9 45 21.5 75.5t78.5 30.5q33 0 58.5 -18t48.5 -35.5t49 -17.5t41.5 14t15.5 30h21q9 -45 -21.5 -75.5t-78.5 -30.5z" />
    <glyph glyph-name="hungarumlaut" unicode="&#x2dd;" horiz-adv-x="312" 
d="M29 510l-23 16q28 90 69 148q20 0 43.5 -17t30.5 -36q-50 -34 -120 -111zM186 510l-23 16q28 90 69 148q20 0 43.5 -17t30.5 -36q-50 -34 -120 -111z" />
    <glyph glyph-name="acutecomb" unicode="&#x301;" horiz-adv-x="0" 
d="M-129 510l-23 16q28 90 69 148q20 0 43.5 -17t30.5 -36q-50 -34 -120 -111z" />
    <glyph glyph-name="uni0326" unicode="&#x326;" horiz-adv-x="0" 
d="M-148 -319l-9 21q72 28 85 84q4 15 -2 23t-19 15q-36 21 -36 57q0 26 18.5 43.5t44.5 17.5q29 0 49 -22t20 -61q0 -55 -40 -107t-111 -71z" />
    <glyph glyph-name="uni0394" unicode="&#x394;" horiz-adv-x="574" 
d="M5 0l282 634l282 -634h-564zM71 77h358l-176 413z" />
    <glyph glyph-name="uni03A9" unicode="&#x3a9;" horiz-adv-x="742" 
d="M677 112h20l-36 -112h-212v83q42 21 81.5 91t39.5 161q0 118 -55.5 192t-143.5 74t-143.5 -74t-55.5 -192q0 -91 39.5 -161t81.5 -91v-83h-212l-36 112h20q11 -14 27.5 -20.5t32.5 -7.5t52 -1h30q-60 36 -106 104.5t-46 157.5q0 118 89 205t227 87t227 -87t89 -205
q0 -89 -46 -157.5t-106 -104.5h30q36 0 52 1t32.5 7.5t27.5 20.5z" />
    <glyph glyph-name="uni03BC" unicode="&#x3bc;" horiz-adv-x="560" 
d="M474 88q0 -30 12.5 -44.5t53.5 -21.5v-22h-151l6 78h-13q-85 -87 -171 -87q-56 0 -88 30q3 -41 14 -70.5t22 -42t20 -23t9 -18.5q0 -42 -37 -61q-35 -18 -59 5q-15 15 -15 44v316h4v201q0 18 -8.5 27.5t-19 12.5t-33.5 7v21q96 -5 156 6v-297q0 -93 81 -93q64 0 122 53
v263q0 18 -8.5 27.5t-19 12.5t-33.5 7v21q96 -5 156 6v-358z" />
    <glyph glyph-name="pi" unicode="&#x3c0;" horiz-adv-x="684" 
d="M602 106q20 0 30.5 -14t10.5 -34q0 -34 -29 -51t-70 -17q-60 0 -95 37t-35 103v254h-135v-263q0 -60 -34.5 -93.5t-82.5 -33.5q-36 0 -69 12l-12 32q42 -10 72.5 10.5t30.5 72.5v263h-48q-35 0 -49 -22t-4 -61l-30 15q-25 51 -3.5 93t77.5 42h476v-67h-94v-297
q0 -22 6.5 -36.5t17.5 -14.5q13 0 20.5 11t10.5 24t12.5 24t25.5 11z" />
    <glyph glyph-name="Wgrave" unicode="&#x1e80;" horiz-adv-x="1009" 
d="M513 700q-70 77 -120 111q7 19 30.5 36t43.5 17q41 -58 69 -148zM299 -8l-211 558q-12 32 -25.5 40.5t-57.5 16.5v22h259v-22q-4 -1 -12.5 -3t-12 -2.5t-10 -2.5t-9.5 -3.5l-8 -4t-6.5 -5t-3.5 -6t-2 -8t1 -10t3 -12.5l150 -412l114 325q19 48 0 90.5t-72 54.5v22h172
q0 -39 36 -138l128 -353l130 368q9 24 9.5 41t-3.5 27t-18 16.5t-27.5 9.5t-39.5 7v22h219v-22q-32 -6 -42.5 -9.5t-21.5 -14t-19 -33.5l-202 -558h-40l-173 462l-165 -463h-40z" />
    <glyph glyph-name="wgrave" unicode="&#x1e81;" horiz-adv-x="791" 
d="M403 510q-70 77 -120 111q7 19 30.5 36t43.5 17q41 -58 69 -148zM221 -6l-147 381q-10 26 -22.5 33t-46.5 10v22h225v-22q-46 -6 -54 -18q-6 -9 0 -25l96 -261l89 218q16 41 3 64q-6 12 -16.5 15.5t-33.5 6.5v22h152q0 -36 18 -82l94 -245l87 217q9 22 10 38t-3 25
t-16 14.5t-23.5 7.5t-31.5 3v22h183v-22q-34 -3 -46 -10t-23 -33l-152 -381h-35l-134 336l-138 -336h-35z" />
    <glyph glyph-name="Wacute" unicode="&#x1e82;" horiz-adv-x="1009" 
d="M498 700l-23 16q28 90 69 148q20 0 43.5 -17t30.5 -36q-50 -34 -120 -111zM299 -8l-211 558q-12 32 -25.5 40.5t-57.5 16.5v22h259v-22q-4 -1 -12.5 -3t-12 -2.5t-10 -2.5t-9.5 -3.5l-8 -4t-6.5 -5t-3.5 -6t-2 -8t1 -10t3 -12.5l150 -412l114 325q19 48 0 90.5t-72 54.5
v22h172q0 -39 36 -138l128 -353l130 368q9 24 9.5 41t-3.5 27t-18 16.5t-27.5 9.5t-39.5 7v22h219v-22q-32 -6 -42.5 -9.5t-21.5 -14t-19 -33.5l-202 -558h-40l-173 462l-165 -463h-40z" />
    <glyph glyph-name="wacute" unicode="&#x1e83;" horiz-adv-x="791" 
d="M388 510l-23 16q28 90 69 148q20 0 43.5 -17t30.5 -36q-50 -34 -120 -111zM221 -6l-147 381q-10 26 -22.5 33t-46.5 10v22h225v-22q-46 -6 -54 -18q-6 -9 0 -25l96 -261l89 218q16 41 3 64q-6 12 -16.5 15.5t-33.5 6.5v22h152q0 -36 18 -82l94 -245l87 217q9 22 10 38
t-3 25t-16 14.5t-23.5 7.5t-31.5 3v22h183v-22q-34 -3 -46 -10t-23 -33l-152 -381h-35l-134 336l-138 -336h-35z" />
    <glyph glyph-name="Wdieresis" unicode="&#x1e84;" horiz-adv-x="1009" 
d="M406 760q-22 0 -36.5 14.5t-14.5 36.5t14.5 36.5t36.5 14.5t36.5 -14.5t14.5 -36.5t-14.5 -36.5t-36.5 -14.5zM604 760q-22 0 -36.5 14.5t-14.5 36.5t14.5 36.5t36.5 14.5t36.5 -14.5t14.5 -36.5t-14.5 -36.5t-36.5 -14.5zM299 -8l-211 558q-12 32 -25.5 40.5t-57.5 16.5
v22h259v-22q-4 -1 -12.5 -3t-12 -2.5t-10 -2.5t-9.5 -3.5l-8 -4t-6.5 -5t-3.5 -6t-2 -8t1 -10t3 -12.5l150 -412l114 325q19 48 0 90.5t-72 54.5v22h172q0 -39 36 -138l128 -353l130 368q9 24 9.5 41t-3.5 27t-18 16.5t-27.5 9.5t-39.5 7v22h219v-22q-32 -6 -42.5 -9.5
t-21.5 -14t-19 -33.5l-202 -558h-40l-173 462l-165 -463h-40z" />
    <glyph glyph-name="wdieresis" unicode="&#x1e85;" horiz-adv-x="791" 
d="M296 570q-22 0 -36.5 14.5t-14.5 36.5t14.5 36.5t36.5 14.5t36.5 -14.5t14.5 -36.5t-14.5 -36.5t-36.5 -14.5zM494 570q-22 0 -36.5 14.5t-14.5 36.5t14.5 36.5t36.5 14.5t36.5 -14.5t14.5 -36.5t-14.5 -36.5t-36.5 -14.5zM221 -6l-147 381q-10 26 -22.5 33t-46.5 10v22
h225v-22q-46 -6 -54 -18q-6 -9 0 -25l96 -261l89 218q16 41 3 64q-6 12 -16.5 15.5t-33.5 6.5v22h152q0 -36 18 -82l94 -245l87 217q9 22 10 38t-3 25t-16 14.5t-23.5 7.5t-31.5 3v22h183v-22q-34 -3 -46 -10t-23 -33l-152 -381h-35l-134 336l-138 -336h-35z" />
    <glyph glyph-name="uni1E9E" unicode="&#x1e9e;" horiz-adv-x="717" 
d="M472 345q90 -9 147.5 -54t57.5 -124t-57.5 -133t-157.5 -54q-74 0 -130 32q-2 55 -17 122h26q29 -70 55 -96t63 -26q50 0 80 36t30 94q0 83 -62 129.5t-171 46.5l165 259q-44 18 -107 18q-33 0 -61.5 -9t-56.5 -31.5t-44 -68.5t-16 -113v-272q0 -25 3.5 -39t15.5 -22
t20 -10.5t32 -7.5v-22h-262v22q51 10 64 20q19 16 19 59v259q0 67 16.5 117.5t41.5 80.5t60.5 48.5t68.5 24.5t70 6q121 0 253 -62z" />
    <glyph glyph-name="uni1EBC" unicode="&#x1ebc;" horiz-adv-x="587" 
d="M146 746h-21q-9 45 21.5 75.5t78.5 30.5q33 0 58.5 -18t48.5 -35.5t49 -17.5t41.5 14t15.5 30h21q9 -45 -21.5 -75.5t-78.5 -30.5q-27 0 -49 11t-35 24.5t-32 24.5t-40 11q-26 0 -41.5 -14t-15.5 -30zM530 150h27l-41 -150h-491v22q51 10 64 20q19 16 19 59v428
q0 23 -3.5 37t-17.5 22.5t-20.5 10.5t-33.5 7q-5 1 -8 2v22h489l9 -142h-27q-7 57 -27 81.5t-71 24.5h-89q-59 0 -76.5 -13t-17.5 -63v-183h77q86 0 110 17t29 67h21v-202h-21q-5 50 -29 67t-110 17h-77v-189q0 -50 17.5 -63t76.5 -13h68q59 0 92 24.5t61 89.5z" />
    <glyph glyph-name="uni1EBD" unicode="&#x1ebd;" horiz-adv-x="488" 
d="M97 556h-21q-9 45 21.5 75.5t78.5 30.5q33 0 58.5 -18t48.5 -35.5t49 -17.5t41.5 14t15.5 30h21q9 -45 -21.5 -75.5t-78.5 -30.5q-42 0 -84 35.5t-72 35.5q-26 0 -41.5 -14t-15.5 -30zM309 55q83 0 119 54l17 -11q-18 -51 -65.5 -79t-112.5 -28q-99 0 -165.5 62
t-66.5 164t64.5 167t161.5 65q103 0 153 -69t24 -137h-305q4 -83 51.5 -135.5t124.5 -52.5zM251 416q-47 0 -80 -36.5t-37 -103.5h214q8 52 -17.5 96t-79.5 44z" />
    <glyph glyph-name="Ygrave" unicode="&#x1ef2;" horiz-adv-x="657" 
d="M337 700q-70 77 -120 111q7 19 30.5 36t43.5 17q41 -58 69 -148zM448 630h197v-22q-40 -8 -52.5 -16.5t-35.5 -45.5l-171 -274v-171q0 -25 4.5 -39t20.5 -22t26 -10.5t42 -7.5v-22h-293v22q59 10 73 21q20 15 20 58v159l-182 286q-24 37 -36 45.5t-51 16.5v22h264v-22
q-49 -11 -58 -21q-13 -13 4 -41l148 -237l144 237q10 17 11.5 27.5t-9 16.5t-19 8.5t-31.5 6.5q-11 2 -16 3v22z" />
    <glyph glyph-name="ygrave" unicode="&#x1ef3;" horiz-adv-x="509" 
d="M265 510q-70 77 -120 111q7 19 30.5 36t43.5 17q41 -58 69 -148zM341 440h161v-22q-34 -4 -45.5 -11t-23.5 -35l-176 -411q-12 -28 -22 -47.5t-27 -44t-39 -38t-47 -13.5q-33 0 -65 23v63q69 -6 108 6t56 51l15 36l-162 375q-12 28 -23.5 35t-45.5 11v22h223v-22
q-45 -7 -53.5 -17t-0.5 -29l111 -263l112 263q4 9 4.5 15.5t-3 11t-7 7.5t-13 5.5t-14 3t-16.5 2.5q-5 1 -7 1v22z" />
    <glyph glyph-name="endash" unicode="&#x2013;" horiz-adv-x="657" 
d="M46 242v35h565v-35h-565z" />
    <glyph glyph-name="emdash" unicode="&#x2014;" horiz-adv-x="911" 
d="M46 242v35h819v-35h-819z" />
    <glyph glyph-name="uni2015" unicode="&#x2015;" horiz-adv-x="911" 
d="M46 242v35h819v-35h-819z" />
    <glyph glyph-name="quoteleft" unicode="&#x2018;" horiz-adv-x="232" 
d="M188 643l9 -21q-72 -28 -85 -84q-4 -15 2 -23t19 -15q36 -21 36 -57q0 -26 -18.5 -43.5t-44.5 -17.5q-29 0 -49 22t-20 61q0 55 40 107t111 71z" />
    <glyph glyph-name="quoteright" unicode="&#x2019;" horiz-adv-x="232" 
d="M44 386l-9 21q72 28 85 84q4 15 -2 23t-19 15q-36 21 -36 57q0 26 18.5 43.5t44.5 17.5q29 0 49 -22t20 -61q0 -55 -40 -107t-111 -71z" />
    <glyph glyph-name="quotesinglbase" unicode="&#x201a;" horiz-adv-x="232" 
d="M44 -148l-9 21q72 28 85 84q4 15 -2 23t-19 15q-36 21 -36 57q0 26 18.5 43.5t44.5 17.5q29 0 49 -22t20 -61q0 -55 -40 -107t-111 -71z" />
    <glyph glyph-name="quotedblleft" unicode="&#x201c;" horiz-adv-x="427" 
d="M188 643l9 -21q-72 -28 -85 -84q-4 -15 2 -23t19 -15q36 -21 36 -57q0 -26 -18.5 -43.5t-44.5 -17.5q-29 0 -49 22t-20 61q0 55 40 107t111 71zM383 643l9 -21q-72 -28 -85 -84q-4 -15 2 -23t19 -15q36 -21 36 -57q0 -26 -18.5 -43.5t-44.5 -17.5q-29 0 -49 22t-20 61
q0 55 40 107t111 71z" />
    <glyph glyph-name="quotedblright" unicode="&#x201d;" horiz-adv-x="427" 
d="M44 386l-9 21q72 28 85 84q4 15 -2 23t-19 15q-36 21 -36 57q0 26 18.5 43.5t44.5 17.5q29 0 49 -22t20 -61q0 -55 -40 -107t-111 -71zM239 386l-9 21q72 28 85 84q4 15 -2 23t-19 15q-36 21 -36 57q0 26 18.5 43.5t44.5 17.5q29 0 49 -22t20 -61q0 -55 -40 -107
t-111 -71z" />
    <glyph glyph-name="quotedblbase" unicode="&#x201e;" horiz-adv-x="427" 
d="M44 -143l-9 21q72 28 85 84q4 15 -2 23t-19 15q-36 21 -36 57q0 26 18.5 43.5t44.5 17.5q29 0 49 -22t20 -61q0 -55 -40 -107t-111 -71zM239 -143l-9 21q72 28 85 84q4 15 -2 23t-19 15q-36 21 -36 57q0 26 18.5 43.5t44.5 17.5q29 0 49 -22t20 -61q0 -55 -40 -107
t-111 -71z" />
    <glyph glyph-name="dagger" unicode="&#x2020;" horiz-adv-x="522" 
d="M255 0l-43 331l39 62v54q-29 -1 -66 -23t-55 -22q-22 0 -38 15.5t-16 38.5t16 38.5t38 15.5q18 0 55 -22.5t66 -22.5q0 28 -22 65t-22 55q0 22 15.5 38t38.5 16t38.5 -16t15.5 -38q0 -18 -22 -55t-22 -65q29 0 66 22.5t55 22.5q22 0 38 -15.5t16 -38.5t-16 -38.5
t-38 -15.5q-18 0 -55 22t-66 23v-54l39 -62l-43 -331h-12z" />
    <glyph glyph-name="daggerdbl" unicode="&#x2021;" horiz-adv-x="538" 
d="M261 -7q-23 0 -38.5 16t-15.5 38q0 18 22 55t22 65q-29 0 -66 -22.5t-55 -22.5q-22 0 -38 15.5t-16 38.5t16 38.5t38 15.5q18 0 55 -22t66 -23v54l-39 82l39 72v54q-29 -1 -66 -23t-55 -22q-22 0 -38 15.5t-16 38.5t16 38.5t38 15.5q18 0 55 -22.5t66 -22.5q0 28 -22 65
t-22 55q0 22 15.5 38t38.5 16t38.5 -16t15.5 -38q0 -18 -22 -55t-22 -65q29 0 66 22.5t55 22.5q22 0 38 -15.5t16 -38.5t-16 -38.5t-38 -15.5q-18 0 -55 22t-66 23v-54l39 -72l-39 -82v-54q29 1 66 23t55 22q22 0 38 -15.5t16 -38.5t-16 -38.5t-38 -15.5q-18 0 -55 22.5
t-66 22.5q0 -28 22 -65t22 -55q0 -22 -15.5 -38t-38.5 -16z" />
    <glyph glyph-name="bullet" unicode="&#x2022;" horiz-adv-x="316" 
d="M158 155q-42 0 -72 30t-30 72t30 72t72 30t72 -30t30 -72t-30 -72t-72 -30z" />
    <glyph glyph-name="ellipsis" unicode="&#x2026;" horiz-adv-x="612" 
d="M108 -10q-26 0 -44.5 18t-18.5 44q0 25 18.5 43t44.5 18t44.5 -18t18.5 -43q0 -26 -18.5 -44t-44.5 -18zM305 -10q-26 0 -44.5 18t-18.5 44q0 25 18.5 43t44.5 18t44.5 -18t18.5 -43q0 -26 -18.5 -44t-44.5 -18zM502 -10q-26 0 -44.5 18t-18.5 44q0 25 18.5 43t44.5 18
t44.5 -18t18.5 -43q0 -26 -18.5 -44t-44.5 -18z" />
    <glyph glyph-name="perthousand" unicode="&#x2030;" horiz-adv-x="983" 
d="M534 630h61l-447 -630h-53l397 554q-81 -50 -183 1q4 -15 4 -36q0 -76 -47 -137t-115 -61q-48 0 -76.5 32.5t-28.5 85.5q0 75 50 134t119 59q35 0 58 -17q37 -21 62 -33t55.5 -20t53 -4t46.5 21.5t44 50.5zM171 352q44 0 77.5 53.5t33.5 113.5q0 39 -17 61.5t-44 22.5
q-45 0 -73 -56.5t-28 -115.5q0 -79 51 -79zM541 309q47 0 72.5 -30.5t25.5 -82.5q0 -76 -47 -137t-115 -61q-48 0 -76.5 32.5t-28.5 85.5q0 75 50 134t119 59zM839 309q47 0 72.5 -30.5t25.5 -82.5q0 -76 -47 -137t-115 -61q-48 0 -76.5 32.5t-28.5 85.5q0 75 50 134t119 59
zM497 29q44 0 77.5 53.5t33.5 113.5q0 39 -17 61.5t-44 22.5q-45 0 -73 -56.5t-28 -115.5q0 -79 51 -79zM795 29q44 0 77.5 53.5t33.5 113.5q0 39 -17 61.5t-44 22.5q-45 0 -73 -56.5t-28 -115.5q0 -79 51 -79z" />
    <glyph glyph-name="guilsinglleft" unicode="&#x2039;" horiz-adv-x="256" 
d="M46 225l152 138l12 -13l-91 -125l91 -125l-12 -13z" />
    <glyph glyph-name="guilsinglright" unicode="&#x203a;" horiz-adv-x="256" 
d="M210 225l-152 -138l-12 13l91 125l-91 125l12 13z" />
    <glyph glyph-name="fraction" unicode="&#x2044;" horiz-adv-x="102" 
d="M-179 -5l432 641h28l-432 -641h-28z" />
    <glyph glyph-name="Euro" unicode="&#x20ac;" horiz-adv-x="760" 
d="M694 91l20 -21q-32 -35 -92.5 -58.5t-136.5 -23.5q-125 0 -213 67.5t-114 178.5h-113l10 49h95q-1 11 -1 33q0 13 2 37h-82l10 49h80q28 110 118 177t220 67q118 0 195 -46q4 -91 7 -135h-36q-33 145 -181 145q-89 0 -144 -54.5t-68 -153.5h215l-10 -49h-208v-6
q0 -31 5 -64h189l-10 -49h-168q28 -91 96 -144t156 -53q109 0 159 54z" />
    <glyph glyph-name="uni210D" unicode="&#x210d;" horiz-adv-x="710" 
d="M685 608q-51 -10 -64 -20q-19 -16 -19 -59v-428q0 -23 3.5 -37t17.5 -22.5t20.5 -10.5t33.5 -7q5 -1 8 -2v-22h-660v22q51 10 64 20q19 16 19 59v428q0 23 -3.5 37t-17.5 22.5t-20.5 10.5t-33.5 7q-5 1 -8 2v22h660v-22zM430 605q-32 -7 -45.5 -21t-13.5 -55v-197h124
v197q0 41 -15 55t-50 21zM215 332h59v197q0 52 -28 66q-31 -14 -31 -66v-197zM246 35q28 14 28 66v197h-59v-197q0 -52 31 -66zM430 25q35 7 50 21t15 55v197h-124v-197q0 -41 13.5 -55t45.5 -21z" />
    <glyph glyph-name="trademark" unicode="&#x2122;" horiz-adv-x="821" 
d="M90 299v18q19 2 25.5 3.5t15.5 6t11.5 13t2.5 22.5v246h-31q-37 0 -52.5 -18t-21.5 -56h-14l4 96h292l5 -96h-14q-7 38 -22 56t-51 18h-33l1 -246q0 -27 11 -34t44 -11v-18h-173zM366 299v18q16 3 21 4t14 5.5t11.5 13t2.5 22.5v206q0 14 -2.5 22t-12 12.5t-13.5 6
t-21 4.5v17h108l109 -246l96 246h116v-17q-2 0 -5 -1q-13 -3 -18.5 -4.5t-12.5 -6t-9.5 -12.5t-2.5 -21l1 -206q0 -19 6.5 -28.5t13.5 -11.5t27 -5v-18h-157v18q13 2 17 3t12 4t10.5 7t5 12t2.5 19v217l-113 -280h-18l-115 258l-1 -195q0 -19 7.5 -28.5t15 -11.5t29.5 -5
v-18h-124z" />
    <glyph glyph-name="oneeighth" unicode="&#x215b;" horiz-adv-x="608" 
d="M179 408v-10h-125v10q22 2 30 6t8 16v165q0 11 -4 14.5t-12 1.5l-20 -5v11l77 33l8 -6v-214q0 -12 8 -16t30 -6zM473 636h28l-432 -641h-28zM513 132q54 -23 54 -67q0 -33 -28.5 -54t-73.5 -21q-42 0 -69.5 19t-27.5 51q0 41 44 63q-28 22 -28 54q0 28 23.5 47.5
t60.5 19.5q35 0 56.5 -18t21.5 -42q0 -29 -33 -52zM468 227q-22 0 -32.5 -10.5t-10.5 -25.5q0 -28 43 -43l26 -9q21 17 21 44q0 18 -11.5 31t-35.5 13zM468 7q52 0 52 43q0 17 -10 26t-39 20l-27 10q-10 3 -15 7q-29 -19 -29 -50q0 -25 18 -40.5t50 -15.5z" />
    <glyph glyph-name="threeeighths" unicode="&#x215c;" horiz-adv-x="732" 
d="M221 470q0 -37 -34 -61.5t-82 -24.5q-27 0 -48 7.5t-21 22.5t17 15q9 0 25.5 -15.5t33.5 -15.5q23 0 42 16.5t19 44.5q0 27 -18 40.5t-45 13.5q-17 0 -36 -7l-5 12l31 12q32 12 45.5 22.5t13.5 28.5q0 32 -41 32t-64 -27l-10 8q32 47 92 47q29 0 47.5 -14t18.5 -37
q0 -33 -56 -58q31 -2 53 -17t22 -45zM544 636h28l-432 -641h-28zM642 132q54 -23 54 -67q0 -33 -28.5 -54t-73.5 -21q-42 0 -69.5 19t-27.5 51q0 41 44 63q-28 22 -28 54q0 28 23.5 47.5t60.5 19.5q35 0 56.5 -18t21.5 -42q0 -29 -33 -52zM597 227q-22 0 -32.5 -10.5
t-10.5 -25.5q0 -28 43 -43l26 -9q21 17 21 44q0 18 -11.5 31t-35.5 13zM597 7q52 0 52 43q0 17 -10 26t-39 20l-27 10q-10 3 -15 7q-29 -19 -29 -50q0 -25 18 -40.5t50 -15.5z" />
    <glyph glyph-name="fiveeighths" unicode="&#x215d;" horiz-adv-x="721" 
d="M222 481q0 -39 -34 -65t-83 -26q-25 0 -47 7.5t-22 22.5t17 15q9 0 26 -15.5t35 -15.5q23 0 41 16.5t18 43.5q0 63 -113 56l-7 8l39 112h67q39 0 48 12h9l-17 -49h-102l-17 -50q82 5 112 -18t30 -54zM534 636h28l-432 -641h-28zM632 132q54 -23 54 -67q0 -33 -28.5 -54
t-73.5 -21q-42 0 -69.5 19t-27.5 51q0 41 44 63q-28 22 -28 54q0 28 23.5 47.5t60.5 19.5q35 0 56.5 -18t21.5 -42q0 -29 -33 -52zM587 227q-22 0 -32.5 -10.5t-10.5 -25.5q0 -28 43 -43l26 -9q21 17 21 44q0 18 -11.5 31t-35.5 13zM587 7q52 0 52 43q0 17 -10 26t-39 20
l-27 10q-10 3 -15 7q-29 -19 -29 -50q0 -25 18 -40.5t50 -15.5z" />
    <glyph glyph-name="seveneighths" unicode="&#x215e;" horiz-adv-x="682" 
d="M105 398h-33q29 95 105 213h-83q-14 0 -20.5 -1.5t-14.5 -8t-14 -19.5h-9l21 66l18 -4h133l5 -6q-80 -122 -108 -240zM509 636h28l-432 -641h-28zM607 132q54 -23 54 -67q0 -33 -28.5 -54t-73.5 -21q-42 0 -69.5 19t-27.5 51q0 41 44 63q-28 22 -28 54q0 28 23.5 47.5
t60.5 19.5q35 0 56.5 -18t21.5 -42q0 -29 -33 -52zM562 227q-22 0 -32.5 -10.5t-10.5 -25.5q0 -28 43 -43l26 -9q21 17 21 44q0 18 -11.5 31t-35.5 13zM562 7q52 0 52 43q0 17 -10 26t-39 20l-27 10q-10 3 -15 7q-29 -19 -29 -50q0 -25 18 -40.5t50 -15.5z" />
    <glyph glyph-name="partialdiff" unicode="&#x2202;" horiz-adv-x="555" 
d="M282 -12q-105 0 -171 64t-66 158q0 57 27 102t70.5 67t98.5 25t110 -23v-25q-101 21 -150.5 -25.5t-49.5 -133.5q0 -74 33.5 -125.5t94.5 -51.5q65 0 100 61t35 159q0 85 -24 155.5t-64 114.5t-88 69.5t-99 30.5l15 27q139 -8 252 -117t114 -263q1 -115 -61.5 -192
t-176.5 -77z" />
    <glyph glyph-name="emptyset" unicode="&#x2205;" horiz-adv-x="528" 
d="M436 370q56 -64 56 -150q0 -95 -66.5 -162t-161.5 -67q-85 0 -149 56l-55 -55l-22 23l54 54q-56 64 -56 151q0 94 67 161t161 67q86 0 150 -56l55 55l22 -22zM69 220q0 -73 46 -127l276 275q-53 47 -127 47q-81 0 -138 -57t-57 -138zM264 24q81 0 138 57t57 139
q0 72 -46 126l-275 -276q54 -46 126 -46z" />
    <glyph glyph-name="product" unicode="&#x220f;" horiz-adv-x="620" 
d="M554 800v-1000h-59v941h-370v-941h-59v1000h488z" />
    <glyph glyph-name="summation" unicode="&#x2211;" horiz-adv-x="562" 
d="M496 800v-59h-356l296 -442l-296 -440h356v-59h-430v59l290 441l-290 441v59h430z" />
    <glyph glyph-name="minus" unicode="&#x2212;" horiz-adv-x="502" 
d="M66 222v59h370v-59h-370z" />
    <glyph glyph-name="radical" unicode="&#x221a;" horiz-adv-x="737" 
d="M285 -200l-159 333q-19 40 -36 55.5t-54 29.5v33h121l156 -323l309 873h109v-34q-45 -13 -61.5 -28t-32.5 -59l-321 -880h-31z" />
    <glyph glyph-name="infinity" unicode="&#x221e;" horiz-adv-x="676" 
d="M202 63q-70 0 -118 55t-48 147q0 88 44 139t106 51q81 0 140 -92q55 92 148 92q70 0 118 -55t48 -147q0 -88 -44 -139t-106 -51q-81 0 -140 92q-55 -92 -148 -92zM172 153q73 0 105 89l29 81q-45 61 -116 61q-47 0 -82 -27.5t-35 -90.5q0 -59 29 -86t70 -27zM486 134
q47 0 82 27.5t35 90.5q0 59 -29 86t-70 27q-73 0 -105 -89l-29 -81q45 -61 116 -61z" />
    <glyph glyph-name="integral" unicode="&#x222b;" horiz-adv-x="684" 
d="M119 -175q-82 0 -99 54q4 23 25 41t48 23q18 -74 69 -74q34 0 62.5 30t37.5 107l51 424q15 123 85.5 189t165.5 66q82 0 99 -54q-4 -23 -25 -41t-48 -23q-18 74 -69 74q-34 0 -62.5 -30t-37.5 -107l-52 -428q-15 -122 -85 -186.5t-165 -64.5z" />
    <glyph glyph-name="approxequal" unicode="&#x2248;" horiz-adv-x="550" 
d="M322 274q-50 0 -100.5 35.5t-85.5 35.5q-32 0 -50 -14.5t-18 -31.5h-22q-10 46 24.5 77t91.5 31q31 0 57.5 -11t42 -24.5t38.5 -24.5t48 -11q31 0 49.5 15t18.5 31h22q10 -46 -25 -77t-91 -31zM322 104q-50 0 -100.5 35.5t-85.5 35.5q-32 0 -50 -14.5t-18 -31.5h-22
q-10 46 24.5 77t91.5 31q31 0 57.5 -11t42 -24.5t38.5 -24.5t48 -11q31 0 49.5 15t18.5 31h22q10 -46 -25 -77t-91 -31z" />
    <glyph glyph-name="notequal" unicode="&#x2260;" horiz-adv-x="502" 
d="M436 312h-127l-50 -121h177v-59h-202l-55 -132h-63l55 132h-105v59h130l50 121h-180v59h205l52 125h63l-52 -125h102v-59z" />
    <glyph glyph-name="lessequal" unicode="&#x2264;" horiz-adv-x="502" 
d="M436 132q-182 99 -370 171v59q188 72 370 171v-68q-130 -71 -302 -132q175 -63 302 -133v-68zM436 1h-370v59h370v-59z" />
    <glyph glyph-name="greaterequal" unicode="&#x2265;" horiz-adv-x="502" 
d="M66 132v68q127 70 302 133q-172 61 -302 132v68q182 -99 370 -171v-59q-188 -72 -370 -171zM66 1v59h370v-59h-370z" />
    <glyph glyph-name="lozenge" unicode="&#x25ca;" horiz-adv-x="600" 
d="M300 -18l-254 328l254 329l254 -329zM300 50l200 260l-200 261l-200 -261z" />
    <glyph glyph-name="M.ss01" horiz-adv-x="827" 
d="M719 101q0 -23 3.5 -37t17.5 -22.5t20.5 -10.5t33.5 -7q5 -1 8 -2v-22h-273v22q51 10 64 20q19 16 19 59l-1 441l-213 -542h-30l-217 503v-402q0 -24 4.5 -38.5t20.5 -22.5t25 -10.5t39 -7.5v-22h-215v22q52 10 65 20q20 16 20 59v428q0 23 -4 37t-17.5 22.5t-21 10.5
t-32.5 7q-6 1 -9 2v22h185q2 -13 31 -77l175 -406l157 406q25 66 27 77h200v-22q-51 -10 -63 -20q-19 -16 -19 -59v-428z" />
    <glyph glyph-name="W.ss01" horiz-adv-x="926" 
d="M734 630h187v-22q-33 -6 -42.5 -9t-21 -13.5t-20.5 -33.5l-232 -559h-42l-101 240l-100 -240h-39l-236 558q-14 33 -27 41t-55 16v22h673v-22q-33 -6 -42.5 -9t-21 -13.5t-20.5 -33.5l-74 -178l102 -247l173 425q4 9 5 16.5t-2 12.5t-5.5 8.5t-11 6.5t-13 4t-17 4
t-17.5 4v22zM380 131l61 150l-114 270q-15 35 -28 45.5t-43 10.5t-46 -12.5t-3 -43.5zM500 607q-77 0 -53 -56l53 -128l52 129q12 30 -4.5 42.5t-47.5 12.5z" />
    <glyph glyph-name="i.loclTRK" horiz-adv-x="279" 
d="M135 543q-24 0 -42 17t-18 41t18 41t42 17t42 -17t18 -41t-18 -41t-42 -17zM25 0v22q26 5 36.5 7.5t20 14t9.5 32.5v239q0 30 -12.5 44t-53.5 19v20q71 13 140 58l21 -19v-361q0 -21 9.5 -32.5t20 -14t36.5 -7.5v-22h-227z" />
    <glyph glyph-name="T_h" horiz-adv-x="1149" 
d="M1063 76q0 -21 9.5 -32.5t20 -14t36.5 -7.5v-22h-224v22q25 5 34.5 7.5t19 14t9.5 32.5v214q0 95 -79 95q-66 0 -121 -64v-245q0 -21 9.5 -32.5t19 -14t34.5 -7.5v-22h-231v22q49 9 61 20t12 34v418q-4 55 -34.5 79.5t-110.5 24.5h-137v-497q0 -25 4.5 -39t20.5 -22
t26.5 -10.5t43.5 -7.5v-22h-297v22q33 5 43.5 7.5t26.5 10.5t20.5 22t4.5 39v497h-88q-78 0 -108 -31.5t-41 -102.5h-21l8 176l51 -10h515q87 15 148 57l20 -19v-312q77 93 171 93q124 0 124 -154v-219z" />
    <glyph glyph-name="f_b" horiz-adv-x="894" 
d="M680 449q73 0 126 -58t53 -155q0 -111 -71 -178t-176 -67q-88 0 -140.5 46.5t-52.5 121.5v395q0 39 -30.5 64.5t-87.5 25.5q-49 0 -78 -30t-29 -108v-70l118 10q-5 -20 -5 -47h-113v-323q0 -15 6 -25t22 -15.5t27.5 -7.5t39.5 -5q5 -1 8 -1v-22h-277v22q29 5 40 7.5
t23 14t12 32.5v323h-75v23l75 15q1 123 69.5 186.5t180.5 63.5q94 0 171 -32v-304q24 42 68 70t96 28zM621 25q57 0 98.5 45.5t41.5 130.5q0 80 -37.5 132.5t-95.5 52.5q-73 0 -112 -71v-168q0 -49 25.5 -85.5t79.5 -36.5z" />
    <glyph glyph-name="f_h" horiz-adv-x="896" 
d="M810 76q0 -21 9.5 -32.5t20 -14t36.5 -7.5v-22h-224v22q25 5 34.5 7.5t19 14t9.5 32.5v214q0 92 -74 92q-61 0 -127 -59v-247q0 -20 10 -31t22 -14.5t34 -7.5q2 0 3.5 -0.5t3.5 -0.5v-22h-241v22q49 9 61 20t12 34v478q0 39 -30.5 64.5t-87.5 25.5q-49 0 -78 -30
t-29 -108v-70l118 10q-5 -20 -5 -47h-113v-323q0 -15 6 -25t22 -15.5t27.5 -7.5t39.5 -5q5 -1 8 -1v-22h-277v22q29 5 40 7.5t23 14t12 32.5v323h-75v23l75 15q1 123 69.5 186.5t180.5 63.5q95 0 169 -32v-300h2q43 45 82 69.5t91 24.5q121 0 121 -154v-219z" />
    <glyph glyph-name="f_j" horiz-adv-x="591" 
d="M536 612v-1q0 -24 -18 -41t-42 -17t-42 17t-18 41v2q0 47 -46 47q-70 0 -123 -53.5t-53 -158.5v-11l98 9q-5 -20 -5 -47h-93v-323q0 -15 6 -25t22 -15.5t27.5 -7.5t39.5 -5q5 -1 8 -1v-22h-277v22q29 5 40 7.5t23 14t12 32.5v323h-75v23l75 15q4 117 86 186t196 69
q22 0 43.5 -2.5t50.5 -10t47 -24.5t18 -43zM368 398q71 13 140 58l21 -19v-454q0 -42 -17 -74.5t-46 -51t-57.5 -28.5t-60.5 -14q-9 13 0 26q46 16 66 48.5t20 99.5v326q0 30 -12.5 44t-53.5 19v20z" />
    <glyph glyph-name="f_k" horiz-adv-x="877" 
d="M792 58q13 -18 28 -24.5t51 -10.5v-23h-165q0 26 -18 53l-120 172l-54 -52v-97q0 -20 10 -31t22 -14.5t34 -7.5q2 0 3.5 -0.5t3.5 -0.5v-22h-241v22q49 9 61 20t12 34v478q0 39 -30.5 64.5t-87.5 25.5q-49 0 -78 -30t-29 -108v-70l118 10q-5 -20 -5 -47h-113v-323
q0 -15 6 -25t22 -15.5t27.5 -7.5t39.5 -5q5 -1 8 -1v-22h-277v22q29 5 40 7.5t23 14t12 32.5v323h-75v23l75 15q1 123 69.5 186.5t180.5 63.5q95 0 169 -32v-432l146 141q23 22 14 35.5t-48 17.5v23h200v-23q-41 -4 -65.5 -16t-49.5 -37l-81 -78z" />
    <glyph glyph-name="t_t" horiz-adv-x="674" 
d="M525 112q0 -25 13 -38t34 -13.5t41 3.5t41 12v-24q-65 -37 -144 -62q-33 0 -56.5 25.5t-23.5 57.5v329h-239v-290q0 -33 22.5 -44t51 -4.5t55.5 22.5v-24q-51 -42 -144 -72q-33 0 -56.5 25.5t-23.5 57.5v329h-76v28q90 35 143 101h28v-101l164 -1l5 -1q82 34 137 103h28
v-95l126 13q-5 -20 -5 -47h-121v-290z" />
    <glyph glyph-name="a.sc" horiz-adv-x="598" 
d="M516 79q14 -33 26.5 -41t50.5 -16v-22h-252v22l18 4.5t18.5 5t13 5.5t10.5 9t2 13.5t-5 19.5l-41 97h-189l-42 -98q-4 -9 -5 -16.5t1.5 -12.5t5.5 -8.5t10.5 -6.5t12 -4.5t15.5 -4t16 -3.5v-22h-177v22q24 5 30.5 6.5t18 7.5t17 15.5t13.5 26.5l199 452h39zM183 210h159
l-79 186z" />
    <glyph glyph-name="aacute.sc" horiz-adv-x="598" 
d="M411 711q-50 -34 -120 -111l-23 16q28 90 69 148q20 0 43.5 -17t30.5 -36zM516 79q14 -33 26.5 -41t50.5 -16v-22h-252v22l18 4.5t18.5 5t13 5.5t10.5 9t2 13.5t-5 19.5l-41 97h-189l-42 -98q-4 -9 -5 -16.5t1.5 -12.5t5.5 -8.5t10.5 -6.5t12 -4.5t15.5 -4t16 -3.5v-22
h-177v22q24 5 30.5 6.5t18 7.5t17 15.5t13.5 26.5l199 452h39zM183 210h159l-79 186z" />
    <glyph glyph-name="abreve.sc" horiz-adv-x="598" 
d="M298 638q-66 0 -102 36t-36 95h23q14 -66 115 -66t115 66h23q0 -59 -36 -95t-102 -36zM516 79q14 -33 26.5 -41t50.5 -16v-22h-252v22l18 4.5t18.5 5t13 5.5t10.5 9t2 13.5t-5 19.5l-41 97h-189l-42 -98q-4 -9 -5 -16.5t1.5 -12.5t5.5 -8.5t10.5 -6.5t12 -4.5t15.5 -4
t16 -3.5v-22h-177v22q24 5 30.5 6.5t18 7.5t17 15.5t13.5 26.5l199 452h39zM183 210h159l-79 186z" />
    <glyph glyph-name="acircumflex.sc" horiz-adv-x="598" 
d="M296 704l-125 -91l-13 12l138 152l138 -152l-13 -12zM516 79q14 -33 26.5 -41t50.5 -16v-22h-252v22l18 4.5t18.5 5t13 5.5t10.5 9t2 13.5t-5 19.5l-41 97h-189l-42 -98q-4 -9 -5 -16.5t1.5 -12.5t5.5 -8.5t10.5 -6.5t12 -4.5t15.5 -4t16 -3.5v-22h-177v22q24 5 30.5 6.5
t18 7.5t17 15.5t13.5 26.5l199 452h39zM183 210h159l-79 186z" />
    <glyph glyph-name="adieresis.sc" horiz-adv-x="598" 
d="M199 660q-22 0 -36.5 14.5t-14.5 36.5t14.5 36.5t36.5 14.5t36.5 -14.5t14.5 -36.5t-14.5 -36.5t-36.5 -14.5zM397 660q-22 0 -36.5 14.5t-14.5 36.5t14.5 36.5t36.5 14.5t36.5 -14.5t14.5 -36.5t-14.5 -36.5t-36.5 -14.5zM516 79q14 -33 26.5 -41t50.5 -16v-22h-252v22
l18 4.5t18.5 5t13 5.5t10.5 9t2 13.5t-5 19.5l-41 97h-189l-42 -98q-4 -9 -5 -16.5t1.5 -12.5t5.5 -8.5t10.5 -6.5t12 -4.5t15.5 -4t16 -3.5v-22h-177v22q24 5 30.5 6.5t18 7.5t17 15.5t13.5 26.5l199 452h39zM183 210h159l-79 186z" />
    <glyph glyph-name="agrave.sc" horiz-adv-x="598" 
d="M306 600q-70 77 -120 111q7 19 30.5 36t43.5 17q41 -58 69 -148zM516 79q14 -33 26.5 -41t50.5 -16v-22h-252v22l18 4.5t18.5 5t13 5.5t10.5 9t2 13.5t-5 19.5l-41 97h-189l-42 -98q-4 -9 -5 -16.5t1.5 -12.5t5.5 -8.5t10.5 -6.5t12 -4.5t15.5 -4t16 -3.5v-22h-177v22
q24 5 30.5 6.5t18 7.5t17 15.5t13.5 26.5l199 452h39zM183 210h159l-79 186z" />
    <glyph glyph-name="amacron.sc" horiz-adv-x="598" 
d="M446 727l-15 -38h-280l15 38h280zM516 79q14 -33 26.5 -41t50.5 -16v-22h-252v22l18 4.5t18.5 5t13 5.5t10.5 9t2 13.5t-5 19.5l-41 97h-189l-42 -98q-4 -9 -5 -16.5t1.5 -12.5t5.5 -8.5t10.5 -6.5t12 -4.5t15.5 -4t16 -3.5v-22h-177v22q24 5 30.5 6.5t18 7.5t17 15.5
t13.5 26.5l199 452h39zM183 210h159l-79 186z" />
    <glyph glyph-name="aogonek.sc" horiz-adv-x="598" 
d="M508 0q-46 -26 -66 -48.5t-20 -51.5q0 -26 14.5 -41t38.5 -15q19 0 45 10v-18q-35 -35 -87 -35q-41 0 -67.5 20.5t-26.5 62.5q0 32 21 60l84 56h-103v22l18 4.5t18.5 5t13 5.5t10.5 9t2 13.5t-5 19.5l-41 97h-189l-42 -98q-4 -9 -5 -16.5t1.5 -12.5t5.5 -8.5t10.5 -6.5
t12 -4.5t15.5 -4t16 -3.5v-22h-177v22q24 5 30.5 6.5t18 7.5t17 15.5t13.5 26.5l199 452h39l194 -451q14 -33 26.5 -41t50.5 -16v-22h-85zM183 210h159l-79 186z" />
    <glyph glyph-name="aring.sc" horiz-adv-x="598" 
d="M298 623q-37 0 -63 25.5t-26 62.5t26 62.5t63 25.5t63 -25.5t26 -62.5t-26 -62.5t-63 -25.5zM298 758q-20 0 -33.5 -13.5t-13.5 -33.5t13.5 -33.5t33.5 -13.5t33.5 13.5t13.5 33.5t-13.5 33.5t-33.5 13.5zM516 79q14 -33 26.5 -41t50.5 -16v-22h-252v22l18 4.5t18.5 5
t13 5.5t10.5 9t2 13.5t-5 19.5l-41 97h-189l-42 -98q-4 -9 -5 -16.5t1.5 -12.5t5.5 -8.5t10.5 -6.5t12 -4.5t15.5 -4t16 -3.5v-22h-177v22q24 5 30.5 6.5t18 7.5t17 15.5t13.5 26.5l199 452h39zM183 210h159l-79 186z" />
    <glyph glyph-name="atilde.sc" horiz-adv-x="598" 
d="M150 646h-21q-9 45 21.5 75.5t78.5 30.5q33 0 58.5 -18t48.5 -35.5t49 -17.5t41.5 14t15.5 30h21q9 -45 -21.5 -75.5t-78.5 -30.5q-27 0 -49 11t-35 24.5t-32 24.5t-40 11q-26 0 -41.5 -14t-15.5 -30zM516 79q14 -33 26.5 -41t50.5 -16v-22h-252v22l18 4.5t18.5 5t13 5.5
t10.5 9t2 13.5t-5 19.5l-41 97h-189l-42 -98q-4 -9 -5 -16.5t1.5 -12.5t5.5 -8.5t10.5 -6.5t12 -4.5t15.5 -4t16 -3.5v-22h-177v22q24 5 30.5 6.5t18 7.5t17 15.5t13.5 26.5l199 452h39zM183 210h159l-79 186z" />
    <glyph glyph-name="ae.sc" horiz-adv-x="865" 
d="M808 140h27l-41 -140h-468v22q47 10 59 20q19 16 19 59v95h-194l-74 -118q-4 -7 -6.5 -13t-2.5 -10.5t0.5 -8t4.5 -6.5t6.5 -4.5t9 -4t10 -3.5t12 -3t12.5 -3v-22h-177v22q39 8 54 16.5t35 39.5l268 422q-6 2 -19 4.5t-17 3.5v22h466l9 -132h-27q-7 50 -27 73t-71 23h-71
q-59 0 -76.5 -13t-17.5 -63v-133h77q72 0 94 16t27 58h21v-182h-21q-5 42 -27 58t-94 16h-77v-139q0 -50 17.5 -63t76.5 -13h50q58 0 91.5 23t61.5 81zM230 228h174v201q0 38 -14 54z" />
    <glyph glyph-name="b.sc" horiz-adv-x="609" 
d="M410 279q159 -32 159 -135q0 -144 -275 -144h-269v22q47 10 59 20q19 16 19 59v328q0 23 -4 37t-16 22t-20 11t-29 7q-6 1 -9 2v22h269q232 0 232 -126q0 -87 -116 -125zM411 396q0 45 -27.5 71.5t-98.5 26.5q-47 -1 -61 -11.5t-14 -37.5v-153h79q122 0 122 104zM308 36
q138 0 138 103q0 51 -40.5 85.5t-135.5 34.5h-60v-147q0 -40 20.5 -58t77.5 -18z" />
    <glyph glyph-name="c.sc" horiz-adv-x="594" 
d="M331 -12q-125 0 -205.5 76.5t-80.5 197.5q0 123 83 201.5t214 78.5q110 0 187 -46q4 -91 7 -135h-36q-17 74 -64 109.5t-109 35.5q-78 0 -121 -53.5t-43 -151.5q0 -120 61.5 -192t153.5 -72q38 0 81 12.5t70 41.5l20 -21q-32 -35 -90.5 -58.5t-127.5 -23.5z" />
    <glyph glyph-name="cacute.sc" horiz-adv-x="594" 
d="M319 600l-23 16q28 90 69 148q20 0 43.5 -17t30.5 -36q-50 -34 -120 -111zM331 -12q-125 0 -205.5 76.5t-80.5 197.5q0 123 83 201.5t214 78.5q110 0 187 -46q4 -91 7 -135h-36q-17 74 -64 109.5t-109 35.5q-78 0 -121 -53.5t-43 -151.5q0 -120 61.5 -192t153.5 -72
q38 0 81 12.5t70 41.5l20 -21q-32 -35 -90.5 -58.5t-127.5 -23.5z" />
    <glyph glyph-name="ccaron.sc" horiz-adv-x="594" 
d="M324 613l-138 152l13 12l125 -91l125 91l13 -12zM331 -12q-125 0 -205.5 76.5t-80.5 197.5q0 123 83 201.5t214 78.5q110 0 187 -46q4 -91 7 -135h-36q-17 74 -64 109.5t-109 35.5q-78 0 -121 -53.5t-43 -151.5q0 -120 61.5 -192t153.5 -72q38 0 81 12.5t70 41.5l20 -21
q-32 -35 -90.5 -58.5t-127.5 -23.5z" />
    <glyph glyph-name="ccedilla.sc" horiz-adv-x="594" 
d="M549 70q-31 -34 -88.5 -57.5t-124.5 -24.5l-19 -37q44 0 74 -21t30 -57q0 -38 -38.5 -61.5t-119.5 -23.5l5 23q45 0 67.5 13t22.5 33q0 45 -109 45l45 88q-111 11 -180 86t-69 186q0 123 83 201.5t214 78.5q110 0 187 -46q4 -91 7 -135h-36q-17 74 -64 109.5t-109 35.5
q-78 0 -121 -53.5t-43 -151.5q0 -120 61.5 -192t153.5 -72q38 0 81 12.5t70 41.5z" />
    <glyph glyph-name="cdotaccent.sc" horiz-adv-x="594" 
d="M326 633q-24 0 -42 17t-18 41t18 41t42 17t42 -17t18 -41t-18 -41t-42 -17zM331 -12q-125 0 -205.5 76.5t-80.5 197.5q0 123 83 201.5t214 78.5q110 0 187 -46q4 -91 7 -135h-36q-17 74 -64 109.5t-109 35.5q-78 0 -121 -53.5t-43 -151.5q0 -120 61.5 -192t153.5 -72
q38 0 81 12.5t70 41.5l20 -21q-32 -35 -90.5 -58.5t-127.5 -23.5z" />
    <glyph glyph-name="d.sc" horiz-adv-x="634" 
d="M279 530q132 0 221 -68.5t89 -192.5q0 -128 -88 -198.5t-222 -70.5h-254v22q47 10 59 20q19 16 19 59v328q0 23 -4 37t-16 22t-20 11t-29 7q-6 1 -9 2v22h254zM307 36q165 0 165 223q0 235 -203 235h-59v-362q0 -53 20.5 -74.5t76.5 -21.5z" />
    <glyph glyph-name="dcaron.sc" horiz-adv-x="634" 
d="M453 765l-138 -152l-138 152l13 12l125 -91l125 91zM279 530q132 0 221 -68.5t89 -192.5q0 -128 -88 -198.5t-222 -70.5h-254v22q47 10 59 20q19 16 19 59v328q0 23 -4 37t-16 22t-20 11t-29 7q-6 1 -9 2v22h254zM307 36q165 0 165 223q0 235 -203 235h-59v-362
q0 -53 20.5 -74.5t76.5 -21.5z" />
    <glyph glyph-name="e.sc" 
d="M507 140h27l-41 -140h-468v22q47 10 59 20q19 16 19 59v328q0 23 -4 37t-16 22t-20 11t-29 7q-6 1 -9 2v22h466l9 -132h-27q-7 50 -27 73t-71 23h-71q-59 0 -76.5 -13t-17.5 -63v-133h77q72 0 94 16t27 58h21v-182h-21q-5 42 -27 58t-94 16h-77v-139q0 -50 17.5 -63
t76.5 -13h50q58 0 91.5 23t61.5 81z" />
    <glyph glyph-name="eacute.sc" 
d="M395 711q-50 -34 -120 -111l-23 16q28 90 69 148q20 0 43.5 -17t30.5 -36zM507 140h27l-41 -140h-468v22q47 10 59 20q19 16 19 59v328q0 23 -4 37t-16 22t-20 11t-29 7q-6 1 -9 2v22h466l9 -132h-27q-7 50 -27 73t-71 23h-71q-59 0 -76.5 -13t-17.5 -63v-133h77
q72 0 94 16t27 58h21v-182h-21q-5 42 -27 58t-94 16h-77v-139q0 -50 17.5 -63t76.5 -13h50q58 0 91.5 23t61.5 81z" />
    <glyph glyph-name="ecaron.sc" 
d="M418 765l-138 -152l-138 152l13 12l125 -91l125 91zM507 140h27l-41 -140h-468v22q47 10 59 20q19 16 19 59v328q0 23 -4 37t-16 22t-20 11t-29 7q-6 1 -9 2v22h466l9 -132h-27q-7 50 -27 73t-71 23h-71q-59 0 -76.5 -13t-17.5 -63v-133h77q72 0 94 16t27 58h21v-182h-21
q-5 42 -27 58t-94 16h-77v-139q0 -50 17.5 -63t76.5 -13h50q58 0 91.5 23t61.5 81z" />
    <glyph glyph-name="ecircumflex.sc" 
d="M280 704l-125 -91l-13 12l138 152l138 -152l-13 -12zM507 140h27l-41 -140h-468v22q47 10 59 20q19 16 19 59v328q0 23 -4 37t-16 22t-20 11t-29 7q-6 1 -9 2v22h466l9 -132h-27q-7 50 -27 73t-71 23h-71q-59 0 -76.5 -13t-17.5 -63v-133h77q72 0 94 16t27 58h21v-182
h-21q-5 42 -27 58t-94 16h-77v-139q0 -50 17.5 -63t76.5 -13h50q58 0 91.5 23t61.5 81z" />
    <glyph glyph-name="edieresis.sc" 
d="M183 660q-22 0 -36.5 14.5t-14.5 36.5t14.5 36.5t36.5 14.5t36.5 -14.5t14.5 -36.5t-14.5 -36.5t-36.5 -14.5zM381 660q-22 0 -36.5 14.5t-14.5 36.5t14.5 36.5t36.5 14.5t36.5 -14.5t14.5 -36.5t-14.5 -36.5t-36.5 -14.5zM507 140h27l-41 -140h-468v22q47 10 59 20
q19 16 19 59v328q0 23 -4 37t-16 22t-20 11t-29 7q-6 1 -9 2v22h466l9 -132h-27q-7 50 -27 73t-71 23h-71q-59 0 -76.5 -13t-17.5 -63v-133h77q72 0 94 16t27 58h21v-182h-21q-5 42 -27 58t-94 16h-77v-139q0 -50 17.5 -63t76.5 -13h50q58 0 91.5 23t61.5 81z" />
    <glyph glyph-name="edotaccent.sc" 
d="M282 633q-24 0 -42 17t-18 41t18 41t42 17t42 -17t18 -41t-18 -41t-42 -17zM507 140h27l-41 -140h-468v22q47 10 59 20q19 16 19 59v328q0 23 -4 37t-16 22t-20 11t-29 7q-6 1 -9 2v22h466l9 -132h-27q-7 50 -27 73t-71 23h-71q-59 0 -76.5 -13t-17.5 -63v-133h77
q72 0 94 16t27 58h21v-182h-21q-5 42 -27 58t-94 16h-77v-139q0 -50 17.5 -63t76.5 -13h50q58 0 91.5 23t61.5 81z" />
    <glyph glyph-name="egrave.sc" 
d="M290 600q-70 77 -120 111q7 19 30.5 36t43.5 17q41 -58 69 -148zM507 140h27l-41 -140h-468v22q47 10 59 20q19 16 19 59v328q0 23 -4 37t-16 22t-20 11t-29 7q-6 1 -9 2v22h466l9 -132h-27q-7 50 -27 73t-71 23h-71q-59 0 -76.5 -13t-17.5 -63v-133h77q72 0 94 16t27 58
h21v-182h-21q-5 42 -27 58t-94 16h-77v-139q0 -50 17.5 -63t76.5 -13h50q58 0 91.5 23t61.5 81z" />
    <glyph glyph-name="emacron.sc" 
d="M430 727l-15 -38h-280l15 38h280zM507 140h27l-41 -140h-468v22q47 10 59 20q19 16 19 59v328q0 23 -4 37t-16 22t-20 11t-29 7q-6 1 -9 2v22h466l9 -132h-27q-7 50 -27 73t-71 23h-71q-59 0 -76.5 -13t-17.5 -63v-133h77q72 0 94 16t27 58h21v-182h-21q-5 42 -27 58
t-94 16h-77v-139q0 -50 17.5 -63t76.5 -13h50q58 0 91.5 23t61.5 81z" />
    <glyph glyph-name="eogonek.sc" 
d="M453 0q-46 -26 -66 -48.5t-20 -51.5q0 -26 14.5 -41t38.5 -15q19 0 45 10v-18q-35 -35 -87 -35q-41 0 -67.5 20.5t-26.5 62.5q0 32 21 60l84 56h-364v22q47 10 59 20q19 16 19 59v328q0 23 -4 37t-16 22t-20 11t-29 7q-6 1 -9 2v22h466l9 -132h-27q-7 50 -27 73t-71 23
h-71q-59 0 -76.5 -13t-17.5 -63v-133h77q72 0 94 16t27 58h21v-182h-21q-5 42 -27 58t-94 16h-77v-139q0 -50 17.5 -63t76.5 -13h50q58 0 91.5 23t61.5 81h27l-41 -140h-40z" />
    <glyph glyph-name="uni1EBD.sc" 
d="M134 646h-21q-9 45 21.5 75.5t78.5 30.5q33 0 58.5 -18t48.5 -35.5t49 -17.5t41.5 14t15.5 30h21q9 -45 -21.5 -75.5t-78.5 -30.5q-27 0 -49 11t-35 24.5t-32 24.5t-40 11q-26 0 -41.5 -14t-15.5 -30zM507 140h27l-41 -140h-468v22q47 10 59 20q19 16 19 59v328
q0 23 -4 37t-16 22t-20 11t-29 7q-6 1 -9 2v22h466l9 -132h-27q-7 50 -27 73t-71 23h-71q-59 0 -76.5 -13t-17.5 -63v-133h77q72 0 94 16t27 58h21v-182h-21q-5 42 -27 58t-94 16h-77v-139q0 -50 17.5 -63t76.5 -13h50q58 0 91.5 23t61.5 81z" />
    <glyph glyph-name="f.sc" horiz-adv-x="530" 
d="M491 530l9 -132h-27q-7 50 -27 73t-71 23h-71q-59 0 -76.5 -13t-17.5 -63v-133h77q72 0 94 16t27 58h21v-182h-21q-5 42 -27 58t-94 16h-77v-139q0 -27 5 -43.5t18 -25.5t24.5 -12.5t35.5 -8.5v-22h-268v22q47 10 59 20q19 16 19 59v328q0 23 -4 37t-16 22t-20 11t-29 7
q-6 1 -9 2v22h466z" />
    <glyph glyph-name="g.sc" horiz-adv-x="658" 
d="M351 -12q-139 0 -222.5 76t-83.5 198q0 123 83.5 201.5t216.5 78.5q109 0 186 -46q4 -91 7 -135h-36q-17 75 -64 110t-110 35q-78 0 -121.5 -53.5t-43.5 -152.5q0 -121 59 -198.5t146 -77.5q45 0 67.5 24.5t22.5 79.5v33q0 59 -21 77.5t-86 23.5v26h267v-26
q-35 -5 -50.5 -18t-15.5 -42v-44q0 -51 16 -115q-25 -22 -87.5 -38.5t-129.5 -16.5z" />
    <glyph glyph-name="gbreve.sc" horiz-adv-x="658" 
d="M339 638q-66 0 -102 36t-36 95h23q14 -66 115 -66t115 66h23q0 -59 -36 -95t-102 -36zM351 -12q-139 0 -222.5 76t-83.5 198q0 123 83.5 201.5t216.5 78.5q109 0 186 -46q4 -91 7 -135h-36q-17 75 -64 110t-110 35q-78 0 -121.5 -53.5t-43.5 -152.5q0 -121 59 -198.5
t146 -77.5q45 0 67.5 24.5t22.5 79.5v33q0 59 -21 77.5t-86 23.5v26h267v-26q-35 -5 -50.5 -18t-15.5 -42v-44q0 -51 16 -115q-25 -22 -87.5 -38.5t-129.5 -16.5z" />
    <glyph glyph-name="uni0123.sc" horiz-adv-x="658" 
d="M351 -12q-139 0 -222.5 76t-83.5 198q0 123 83.5 201.5t216.5 78.5q109 0 186 -46q4 -91 7 -135h-36q-17 75 -64 110t-110 35q-78 0 -121.5 -53.5t-43.5 -152.5q0 -121 59 -198.5t146 -77.5q45 0 67.5 24.5t22.5 79.5v33q0 59 -21 77.5t-86 23.5v26h267v-26
q-35 -5 -50.5 -18t-15.5 -42v-44q0 -51 16 -115q-25 -22 -87.5 -38.5t-129.5 -16.5zM265 -319l-9 21q72 28 85 84q4 15 -2 23t-19 15q-36 21 -36 57q0 26 18.5 43.5t44.5 17.5q29 0 49 -22t20 -61q0 -55 -40 -107t-111 -71z" />
    <glyph glyph-name="gdotaccent.sc" horiz-adv-x="658" 
d="M339 633q-24 0 -42 17t-18 41t18 41t42 17t42 -17t18 -41t-18 -41t-42 -17zM351 -12q-139 0 -222.5 76t-83.5 198q0 123 83.5 201.5t216.5 78.5q109 0 186 -46q4 -91 7 -135h-36q-17 75 -64 110t-110 35q-78 0 -121.5 -53.5t-43.5 -152.5q0 -121 59 -198.5t146 -77.5
q45 0 67.5 24.5t22.5 79.5v33q0 59 -21 77.5t-86 23.5v26h267v-26q-35 -5 -50.5 -18t-15.5 -42v-44q0 -51 16 -115q-25 -22 -87.5 -38.5t-129.5 -16.5z" />
    <glyph glyph-name="h.sc" horiz-adv-x="673" 
d="M648 508q-47 -10 -59 -20q-19 -16 -19 -59v-328q0 -23 4 -37t16 -22t20 -11t29 -7q6 -1 9 -2v-22h-263v22q47 10 59 20q19 16 19 59v147h-253v-147q0 -23 4 -37t16 -22t20 -11t29 -7q6 -1 9 -2v-22h-263v22q47 10 59 20q19 16 19 59v328q0 23 -4 37t-16 22t-20 11t-29 7
q-6 1 -9 2v22h263v-22q-47 -10 -59 -20q-19 -16 -19 -59v-147h253v147q0 23 -4 37t-16 22t-20 11t-29 7q-6 1 -9 2v22h263v-22z" />
    <glyph glyph-name="hbar.sc" horiz-adv-x="673" 
d="M648 508q-47 -10 -59 -20q-19 -16 -19 -59v-328q0 -23 4 -37t16 -22t20 -11t29 -7q6 -1 9 -2v-22h-263v22q47 10 59 20q19 16 19 59v147h-253v-147q0 -23 4 -37t16 -22t20 -11t29 -7q6 -1 9 -2v-22h-263v22q47 10 59 20q19 16 19 59v328q0 23 -4 37t-16 22t-20 11t-29 7
q-6 1 -9 2v22h263v-22q-47 -10 -59 -20q-19 -16 -19 -59v-47h253v47q0 23 -4 37t-16 22t-20 11t-29 7q-6 1 -9 2v22h263v-22zM210 282h253v66h-253v-66z" />
    <glyph glyph-name="i.sc" horiz-adv-x="315" 
d="M26 0v22q47 10 59 20q19 16 19 59v328q0 23 -4 37t-16 22t-20 11t-29 7q-6 1 -9 2v22h263v-22q-47 -10 -59 -20q-19 -16 -19 -59v-328q0 -23 4 -37t16 -22t20 -11t29 -7q6 -1 9 -2v-22h-263z" />
    <glyph glyph-name="iacute.sc" horiz-adv-x="315" 
d="M151 600l-23 16q28 90 69 148q20 0 43.5 -17t30.5 -36q-50 -34 -120 -111zM26 0v22q47 10 59 20q19 16 19 59v328q0 23 -4 37t-16 22t-20 11t-29 7q-6 1 -9 2v22h263v-22q-47 -10 -59 -20q-19 -16 -19 -59v-328q0 -23 4 -37t16 -22t20 -11t29 -7q6 -1 9 -2v-22h-263z" />
    <glyph glyph-name="icircumflex.sc" horiz-adv-x="315" 
d="M156 777l138 -152l-13 -12l-125 91l-125 -91l-13 12zM26 0v22q47 10 59 20q19 16 19 59v328q0 23 -4 37t-16 22t-20 11t-29 7q-6 1 -9 2v22h263v-22q-47 -10 -59 -20q-19 -16 -19 -59v-328q0 -23 4 -37t16 -22t20 -11t29 -7q6 -1 9 -2v-22h-263z" />
    <glyph glyph-name="idieresis.sc" horiz-adv-x="315" 
d="M59 660q-22 0 -36.5 14.5t-14.5 36.5t14.5 36.5t36.5 14.5t36.5 -14.5t14.5 -36.5t-14.5 -36.5t-36.5 -14.5zM257 660q-22 0 -36.5 14.5t-14.5 36.5t14.5 36.5t36.5 14.5t36.5 -14.5t14.5 -36.5t-14.5 -36.5t-36.5 -14.5zM26 0v22q47 10 59 20q19 16 19 59v328
q0 23 -4 37t-16 22t-20 11t-29 7q-6 1 -9 2v22h263v-22q-47 -10 -59 -20q-19 -16 -19 -59v-328q0 -23 4 -37t16 -22t20 -11t29 -7q6 -1 9 -2v-22h-263z" />
    <glyph glyph-name="i.sc.loclTRK" horiz-adv-x="315" 
d="M158 633q-24 0 -42 17t-18 41t18 41t42 17t42 -17t18 -41t-18 -41t-42 -17zM26 0v22q47 10 59 20q19 16 19 59v328q0 23 -4 37t-16 22t-20 11t-29 7q-6 1 -9 2v22h263v-22q-47 -10 -59 -20q-19 -16 -19 -59v-328q0 -23 4 -37t16 -22t20 -11t29 -7q6 -1 9 -2v-22h-263z
" />
    <glyph glyph-name="igrave.sc" horiz-adv-x="315" 
d="M166 600q-70 77 -120 111q7 19 30.5 36t43.5 17q41 -58 69 -148zM26 0v22q47 10 59 20q19 16 19 59v328q0 23 -4 37t-16 22t-20 11t-29 7q-6 1 -9 2v22h263v-22q-47 -10 -59 -20q-19 -16 -19 -59v-328q0 -23 4 -37t16 -22t20 -11t29 -7q6 -1 9 -2v-22h-263z" />
    <glyph glyph-name="ij.sc" horiz-adv-x="639" 
d="M26 0v22q47 10 59 20q19 16 19 59v328q0 23 -4 37t-16 22t-20 11t-29 7q-6 1 -9 2v22h263v-22q-47 -10 -59 -20q-19 -16 -19 -59v-328q0 -23 4 -37t16 -22t20 -11t29 -7q6 -1 9 -2v-22h-263zM319 -185q-8 14 0 27q68 24 86.5 56.5t18.5 111.5v419q0 23 -5 37.5t-15 22
t-24 11.5t-33 7q-5 0 -8 1v22h275v-22q-51 -10 -64 -20q-19 -16 -19 -59v-429q0 -45 -17.5 -79t-50.5 -54.5t-66.5 -32t-77.5 -19.5z" />
    <glyph glyph-name="imacron.sc" horiz-adv-x="315" 
d="M11 689l15 38h280l-15 -38h-280zM26 0v22q47 10 59 20q19 16 19 59v328q0 23 -4 37t-16 22t-20 11t-29 7q-6 1 -9 2v22h263v-22q-47 -10 -59 -20q-19 -16 -19 -59v-328q0 -23 4 -37t16 -22t20 -11t29 -7q6 -1 9 -2v-22h-263z" />
    <glyph glyph-name="iogonek.sc" horiz-adv-x="315" 
d="M289 508q-47 -10 -59 -20q-19 -16 -19 -59v-328q0 -23 4 -37t16 -22t20 -11t29 -7q6 -1 9 -2v-22h-78q-46 -26 -66 -48.5t-20 -51.5q0 -26 14.5 -41t38.5 -15q19 0 45 10v-18q-35 -35 -87 -35q-41 0 -67.5 20.5t-26.5 62.5q0 32 21 60l84 56h-121v22q47 10 59 20
q19 16 19 59v328q0 23 -4 37t-16 22t-20 11t-29 7q-6 1 -9 2v22h263v-22z" />
    <glyph glyph-name="j.sc" horiz-adv-x="324" 
d="M4 -185q-8 14 0 27q68 24 86.5 56.5t18.5 111.5v419q0 23 -5 37.5t-15 22t-24 11.5t-33 7q-5 0 -8 1v22h275v-22q-51 -10 -64 -20q-19 -16 -19 -59v-429q0 -45 -17.5 -79t-50.5 -54.5t-66.5 -32t-77.5 -19.5z" />
    <glyph glyph-name="k.sc" horiz-adv-x="610" 
d="M517 54q13 -19 29 -25.5t54 -6.5v-22h-186q0 22 -31 68l-128 187l-45 -48v-106q0 -23 4 -37t16 -22t20 -11t29 -7q6 -1 9 -2v-22h-263v22q47 10 59 20q19 16 19 59v328q0 23 -4 37t-16 22t-20 11t-29 7q-6 1 -9 2v22h263v-22q-47 -10 -59 -20q-19 -16 -19 -59v-166
l183 194q22 23 12 37t-48 14v22h212v-22q-45 0 -69.5 -12t-50.5 -39l-123 -129z" />
    <glyph glyph-name="uni0137.sc" horiz-adv-x="610" 
d="M517 54q13 -19 29 -25.5t54 -6.5v-22h-186q0 22 -31 68l-128 187l-45 -48v-106q0 -23 4 -37t16 -22t20 -11t29 -7q6 -1 9 -2v-22h-263v22q47 10 59 20q19 16 19 59v328q0 23 -4 37t-16 22t-20 11t-29 7q-6 1 -9 2v22h263v-22q-47 -10 -59 -20q-19 -16 -19 -59v-166
l183 194q22 23 12 37t-48 14v22h212v-22q-45 0 -69.5 -12t-50.5 -39l-123 -129zM315 -58q29 0 49 -22t20 -61q0 -55 -40 -107t-111 -71l-9 21q72 28 85 84q4 15 -2 23t-19 15q-36 21 -36 57q0 26 18.5 43.5t44.5 17.5z" />
    <glyph glyph-name="l.sc" horiz-adv-x="544" 
d="M25 0v22q47 10 59 20q19 16 19 59v328q0 23 -4 37t-16 22t-20 11t-29 7q-6 1 -9 2v22h274v-22q-1 0 -16.5 -3.5t-17.5 -4t-14 -4t-14.5 -6.5t-10 -9t-9.5 -13t-4.5 -17t-2.5 -22v-317q0 -50 16.5 -63t71.5 -13h41q60 0 92.5 25.5t60.5 94.5h27l-41 -156h-453z" />
    <glyph glyph-name="lacute.sc" horiz-adv-x="544" 
d="M150 600l-23 16q28 90 69 148q20 0 43.5 -17t30.5 -36q-50 -34 -120 -111zM25 0v22q47 10 59 20q19 16 19 59v328q0 23 -4 37t-16 22t-20 11t-29 7q-6 1 -9 2v22h274v-22q-1 0 -16.5 -3.5t-17.5 -4t-14 -4t-14.5 -6.5t-10 -9t-9.5 -13t-4.5 -17t-2.5 -22v-317
q0 -50 16.5 -63t71.5 -13h41q60 0 92.5 25.5t60.5 94.5h27l-41 -156h-453z" />
    <glyph glyph-name="lcaron.sc" horiz-adv-x="544" 
d="M155 613l-138 152l13 12l125 -91l125 91l13 -12zM25 0v22q47 10 59 20q19 16 19 59v328q0 23 -4 37t-16 22t-20 11t-29 7q-6 1 -9 2v22h274v-22q-1 0 -16.5 -3.5t-17.5 -4t-14 -4t-14.5 -6.5t-10 -9t-9.5 -13t-4.5 -17t-2.5 -22v-317q0 -50 16.5 -63t71.5 -13h41
q60 0 92.5 25.5t60.5 94.5h27l-41 -156h-453z" />
    <glyph glyph-name="uni013C.sc" horiz-adv-x="544" 
d="M25 0v22q47 10 59 20q19 16 19 59v328q0 23 -4 37t-16 22t-20 11t-29 7q-6 1 -9 2v22h274v-22q-1 0 -16.5 -3.5t-17.5 -4t-14 -4t-14.5 -6.5t-10 -9t-9.5 -13t-4.5 -17t-2.5 -22v-317q0 -50 16.5 -63t71.5 -13h41q60 0 92.5 25.5t60.5 94.5h27l-41 -156h-453zM186 -319
l-9 21q72 28 85 84q4 15 -2 23t-19 15q-36 21 -36 57q0 26 18.5 43.5t44.5 17.5q29 0 49 -22t20 -61q0 -55 -40 -107t-111 -71z" />
    <glyph glyph-name="ldot.sc" horiz-adv-x="600" 
d="M25 0v22q47 10 59 20q19 16 19 59v328q0 23 -4 37t-16 22t-20 11t-29 7q-6 1 -9 2v22h274v-22q-1 0 -16.5 -3.5t-17.5 -4t-14 -4t-14.5 -6.5t-10 -9t-9.5 -13t-4.5 -17t-2.5 -22v-317q0 -50 16.5 -63t71.5 -13h41q60 0 92.5 25.5t60.5 94.5h27l-41 -156h-453zM339 206
q-26 0 -44.5 18t-18.5 44q0 25 18.5 43t44.5 18t44.5 -18t18.5 -43q0 -26 -18.5 -44t-44.5 -18z" />
    <glyph glyph-name="lslash.sc" horiz-adv-x="544" 
d="M492 156h27l-41 -156h-453v22q47 10 59 20q19 16 19 59v119l-78 -30v41q26 7 78 23v175q0 23 -4 37t-16 22t-20 11t-29 7q-6 1 -9 2v22h274v-22q-1 0 -16.5 -3.5t-17.5 -4t-14 -4t-14.5 -6.5t-10 -9t-9.5 -13t-4.5 -17t-2.5 -22v-141q67 23 167 62v-41q-87 -25 -167 -52
v-145q0 -50 16.5 -63t71.5 -13h41q60 0 92.5 25.5t60.5 94.5z" />
    <glyph glyph-name="m.sc" horiz-adv-x="769" 
d="M666 101q1 -24 5.5 -38.5t18.5 -22.5t21 -10.5t33 -7.5v-22h-263v22q49 10 60 20q20 17 18 59l-15 348l-175 -449h-30l-179 410l-15 -309q-1 -23 3 -37t17 -22t22.5 -11t32.5 -7q7 -1 10 -2v-22h-205v22q48 10 60 21q18 16 20 58l17 328q0 10 -1 18.5t-1.5 14.5
t-4.5 11.5t-5.5 9t-8.5 7.5t-8.5 5.5t-11.5 4t-11.5 3t-13.5 3t-13 2.5v22h180q2 -10 6 -21.5t13 -29.5t12 -26l134 -306l116 306q25 66 27 77h195v-22q-48 -10 -60 -20q-19 -16 -17 -59z" />
    <glyph glyph-name="n.sc" horiz-adv-x="649" 
d="M418 530h206v-22q-40 0 -60 -16t-20 -63v-429h-45l-353 440v-339q0 -23 4 -37t17.5 -22.5t21.5 -10.5t33 -7q6 -1 9 -2v-22h-206v22q48 10 60 20q20 17 20 59v328q0 23 -4 37t-16.5 22t-20.5 11t-30 7q-6 1 -9 2v22h175l303 -363v262q0 47 -21 63t-64 16v22z" />
    <glyph glyph-name="nacute.sc" horiz-adv-x="649" 
d="M438 711q-50 -34 -120 -111l-23 16q28 90 69 148q20 0 43.5 -17t30.5 -36zM418 530h206v-22q-40 0 -60 -16t-20 -63v-429h-45l-353 440v-339q0 -23 4 -37t17.5 -22.5t21.5 -10.5t33 -7q6 -1 9 -2v-22h-206v22q48 10 60 20q20 17 20 59v328q0 23 -4 37t-16.5 22t-20.5 11
t-30 7q-6 1 -9 2v22h175l303 -363v262q0 47 -21 63t-64 16v22z" />
    <glyph glyph-name="ncaron.sc" horiz-adv-x="649" 
d="M461 765l-138 -152l-138 152l13 12l125 -91l125 91zM418 530h206v-22q-40 0 -60 -16t-20 -63v-429h-45l-353 440v-339q0 -23 4 -37t17.5 -22.5t21.5 -10.5t33 -7q6 -1 9 -2v-22h-206v22q48 10 60 20q20 17 20 59v328q0 23 -4 37t-16.5 22t-20.5 11t-30 7q-6 1 -9 2v22
h175l303 -363v262q0 47 -21 63t-64 16v22z" />
    <glyph glyph-name="uni0146.sc" horiz-adv-x="649" 
d="M418 530h206v-22q-40 0 -60 -16t-20 -63v-429h-45l-353 440v-339q0 -23 4 -37t17.5 -22.5t21.5 -10.5t33 -7q6 -1 9 -2v-22h-206v22q48 10 60 20q20 17 20 59v328q0 23 -4 37t-16.5 22t-20.5 11t-30 7q-6 1 -9 2v22h175l303 -363v262q0 47 -21 63t-64 16v22zM333 -58
q29 0 49 -22t20 -61q0 -55 -40 -107t-111 -71l-9 21q72 28 85 84q4 15 -2 23t-19 15q-36 21 -36 57q0 26 18.5 43.5t44.5 17.5z" />
    <glyph glyph-name="ntilde.sc" horiz-adv-x="649" 
d="M177 646h-21q-9 45 21.5 75.5t78.5 30.5q33 0 58.5 -18t48.5 -35.5t49 -17.5t41.5 14t15.5 30h21q9 -45 -21.5 -75.5t-78.5 -30.5q-42 0 -84 35.5t-72 35.5q-26 0 -41.5 -14t-15.5 -30zM418 530h206v-22q-40 0 -60 -16t-20 -63v-429h-45l-353 440v-339q0 -23 4 -37
t17.5 -22.5t21.5 -10.5t33 -7q6 -1 9 -2v-22h-206v22q48 10 60 20q20 17 20 59v328q0 23 -4 37t-16.5 22t-20.5 11t-30 7q-6 1 -9 2v22h175l303 -363v262q0 47 -21 63t-64 16v22z" />
    <glyph glyph-name="o.sc" horiz-adv-x="664" 
d="M330 -12q-129 0 -207 79.5t-78 194.5t79 197.5t210 82.5q129 0 207 -80t78 -195t-79 -197t-210 -82zM347 24q75 0 116 58t41 155q0 116 -50.5 192.5t-136.5 76.5q-75 0 -116 -58.5t-41 -155.5q0 -115 50.5 -191.5t136.5 -76.5z" />
    <glyph glyph-name="oacute.sc" horiz-adv-x="664" 
d="M325 600l-23 16q28 90 69 148q20 0 43.5 -17t30.5 -36q-50 -34 -120 -111zM330 -12q-129 0 -207 79.5t-78 194.5t79 197.5t210 82.5q129 0 207 -80t78 -195t-79 -197t-210 -82zM347 24q75 0 116 58t41 155q0 116 -50.5 192.5t-136.5 76.5q-75 0 -116 -58.5t-41 -155.5
q0 -115 50.5 -191.5t136.5 -76.5z" />
    <glyph glyph-name="ocircumflex.sc" horiz-adv-x="664" 
d="M330 777l138 -152l-13 -12l-125 91l-125 -91l-13 12zM330 -12q-129 0 -207 79.5t-78 194.5t79 197.5t210 82.5q129 0 207 -80t78 -195t-79 -197t-210 -82zM347 24q75 0 116 58t41 155q0 116 -50.5 192.5t-136.5 76.5q-75 0 -116 -58.5t-41 -155.5q0 -115 50.5 -191.5
t136.5 -76.5z" />
    <glyph glyph-name="odieresis.sc" horiz-adv-x="664" 
d="M233 660q-22 0 -36.5 14.5t-14.5 36.5t14.5 36.5t36.5 14.5t36.5 -14.5t14.5 -36.5t-14.5 -36.5t-36.5 -14.5zM431 660q-22 0 -36.5 14.5t-14.5 36.5t14.5 36.5t36.5 14.5t36.5 -14.5t14.5 -36.5t-14.5 -36.5t-36.5 -14.5zM330 -12q-129 0 -207 79.5t-78 194.5t79 197.5
t210 82.5q129 0 207 -80t78 -195t-79 -197t-210 -82zM347 24q75 0 116 58t41 155q0 116 -50.5 192.5t-136.5 76.5q-75 0 -116 -58.5t-41 -155.5q0 -115 50.5 -191.5t136.5 -76.5z" />
    <glyph glyph-name="ograve.sc" horiz-adv-x="664" 
d="M340 600q-70 77 -120 111q7 19 30.5 36t43.5 17q41 -58 69 -148zM330 -12q-129 0 -207 79.5t-78 194.5t79 197.5t210 82.5q129 0 207 -80t78 -195t-79 -197t-210 -82zM347 24q75 0 116 58t41 155q0 116 -50.5 192.5t-136.5 76.5q-75 0 -116 -58.5t-41 -155.5
q0 -115 50.5 -191.5t136.5 -76.5z" />
    <glyph glyph-name="ohungarumlaut.sc" horiz-adv-x="664" 
d="M223 600l-23 16q28 90 69 148q20 0 43.5 -17t30.5 -36q-50 -34 -120 -111zM380 600l-23 16q28 90 69 148q20 0 43.5 -17t30.5 -36q-50 -34 -120 -111zM330 -12q-129 0 -207 79.5t-78 194.5t79 197.5t210 82.5q129 0 207 -80t78 -195t-79 -197t-210 -82zM347 24
q75 0 116 58t41 155q0 116 -50.5 192.5t-136.5 76.5q-75 0 -116 -58.5t-41 -155.5q0 -115 50.5 -191.5t136.5 -76.5z" />
    <glyph glyph-name="omacron.sc" horiz-adv-x="664" 
d="M185 689l15 38h280l-15 -38h-280zM330 -12q-129 0 -207 79.5t-78 194.5t79 197.5t210 82.5q129 0 207 -80t78 -195t-79 -197t-210 -82zM347 24q75 0 116 58t41 155q0 116 -50.5 192.5t-136.5 76.5q-75 0 -116 -58.5t-41 -155.5q0 -115 50.5 -191.5t136.5 -76.5z" />
    <glyph glyph-name="oslash.sc" horiz-adv-x="664" 
d="M490 502q61 -37 95 -99t34 -136q0 -115 -79 -197t-210 -82q-78 0 -142 32l-43 -69l-20 13l43 68q-59 37 -91 97.5t-32 132.5q0 115 79 197.5t210 82.5q76 0 134 -29l51 81l20 -13zM160 292q0 -115 50 -192l222 356q-48 50 -115 50q-75 0 -116 -58.5t-41 -155.5zM347 24
q75 0 116 58t41 155q0 124 -55 199l-223 -356q50 -56 121 -56z" />
    <glyph glyph-name="otilde.sc" horiz-adv-x="664" 
d="M397 619q-27 0 -49 11t-35 24.5t-32 24.5t-40 11q-26 0 -41.5 -14t-15.5 -30h-21q-9 45 21.5 75.5t78.5 30.5q33 0 58.5 -18t48.5 -35.5t49 -17.5t41.5 14t15.5 30h21q9 -45 -21.5 -75.5t-78.5 -30.5zM330 -12q-129 0 -207 79.5t-78 194.5t79 197.5t210 82.5
q129 0 207 -80t78 -195t-79 -197t-210 -82zM347 24q75 0 116 58t41 155q0 116 -50.5 192.5t-136.5 76.5q-75 0 -116 -58.5t-41 -155.5q0 -115 50.5 -191.5t136.5 -76.5z" />
    <glyph glyph-name="oe.sc" horiz-adv-x="955" 
d="M925 140l-41 -140h-458q-42 -12 -96 -12q-129 0 -207 79.5t-78 194.5t79 197.5t210 82.5q54 0 95 -12h453l9 -132h-27q-7 50 -27 73t-71 23h-71q-59 0 -76.5 -13t-17.5 -63v-133h77q72 0 94 16t27 58h21v-182h-21q-5 42 -27 58t-94 16h-77v-139q0 -50 17.5 -63t76.5 -13
h50q58 0 91.5 23t61.5 81h27zM160 292q0 -115 50.5 -191.5t136.5 -76.5q74 0 110.5 57t36.5 156q0 117 -46 193t-131 76q-75 0 -116 -58.5t-41 -155.5z" />
    <glyph glyph-name="p.sc" horiz-adv-x="574" 
d="M25 0v22q47 10 59 20q19 16 19 59v328q0 23 -4 37t-16 22t-20 11t-29 7q-6 1 -9 2v22h248q122 0 193.5 -44.5t71.5 -140.5q0 -98 -75.5 -149t-207.5 -51q-12 0 -12 17t12 17q168 0 168 160q0 155 -144 155q-40 0 -54.5 -11t-14.5 -35v-347q0 -23 4 -37t16 -22t20 -11
t29 -7q6 -1 9 -2v-22h-263z" />
    <glyph glyph-name="q.sc" horiz-adv-x="693" 
d="M757 -84q16 -3 16 -20q-76 -71 -162 -71q-62 0 -128 40l-172 105q-26 16 -73 30q-90 27 -141.5 98.5t-51.5 163.5q0 115 79 197.5t210 82.5q129 0 207 -80t78 -195q0 -94 -54.5 -168.5t-148.5 -99.5q30 -8 60 -26l70 -44q70 -45 122 -45q45 0 89 32zM317 506
q-75 0 -116 -58.5t-41 -155.5q0 -115 50.5 -191.5t136.5 -76.5q75 0 116 58t41 155q0 116 -50.5 192.5t-136.5 76.5z" />
    <glyph glyph-name="r.sc" horiz-adv-x="602" 
d="M461 115q31 -50 61.5 -76.5t64.5 -15.5v-23q-22 -16 -65 -16q-56 0 -93.5 24t-69.5 77l-45 74q-22 36 -45.5 53t-58.5 22v-133q0 -23 4 -37t16 -22t20 -11t29 -7q6 -1 9 -2v-22h-263v22q47 10 59 20q19 16 19 59v328q0 23 -4 37t-16 22t-20 11t-29 7q-6 1 -9 2v22h246
q133 0 198.5 -32.5t65.5 -111.5q0 -64 -44 -98.5t-138 -45.5q40 -14 75 -72zM276 494q-38 0 -52 -11t-14 -35v-176h55q89 0 123.5 28.5t34.5 79.5q0 114 -147 114z" />
    <glyph glyph-name="racute.sc" horiz-adv-x="602" 
d="M406 711q-50 -34 -120 -111l-23 16q28 90 69 148q20 0 43.5 -17t30.5 -36zM461 115q31 -50 61.5 -76.5t64.5 -15.5v-23q-22 -16 -65 -16q-56 0 -93.5 24t-69.5 77l-45 74q-22 36 -45.5 53t-58.5 22v-133q0 -23 4 -37t16 -22t20 -11t29 -7q6 -1 9 -2v-22h-263v22
q47 10 59 20q19 16 19 59v328q0 23 -4 37t-16 22t-20 11t-29 7q-6 1 -9 2v22h246q133 0 198.5 -32.5t65.5 -111.5q0 -64 -44 -98.5t-138 -45.5q40 -14 75 -72zM276 494q-38 0 -52 -11t-14 -35v-176h55q89 0 123.5 28.5t34.5 79.5q0 114 -147 114z" />
    <glyph glyph-name="rcaron.sc" horiz-adv-x="602" 
d="M429 765l-138 -152l-138 152l13 12l125 -91l125 91zM461 115q31 -50 61.5 -76.5t64.5 -15.5v-23q-22 -16 -65 -16q-56 0 -93.5 24t-69.5 77l-45 74q-22 36 -45.5 53t-58.5 22v-133q0 -23 4 -37t16 -22t20 -11t29 -7q6 -1 9 -2v-22h-263v22q47 10 59 20q19 16 19 59v328
q0 23 -4 37t-16 22t-20 11t-29 7q-6 1 -9 2v22h246q133 0 198.5 -32.5t65.5 -111.5q0 -64 -44 -98.5t-138 -45.5q40 -14 75 -72zM276 494q-38 0 -52 -11t-14 -35v-176h55q89 0 123.5 28.5t34.5 79.5q0 114 -147 114z" />
    <glyph glyph-name="uni0157.sc" horiz-adv-x="602" 
d="M461 115q31 -50 61.5 -76.5t64.5 -15.5v-23q-22 -16 -65 -16q-56 0 -93.5 24t-69.5 77l-45 74q-22 36 -45.5 53t-58.5 22v-133q0 -23 4 -37t16 -22t20 -11t29 -7q6 -1 9 -2v-22h-263v22q47 10 59 20q19 16 19 59v328q0 23 -4 37t-16 22t-20 11t-29 7q-6 1 -9 2v22h246
q133 0 198.5 -32.5t65.5 -111.5q0 -64 -44 -98.5t-138 -45.5q40 -14 75 -72zM276 494q-38 0 -52 -11t-14 -35v-176h55q89 0 123.5 28.5t34.5 79.5q0 114 -147 114zM308 -58q29 0 49 -22t20 -61q0 -55 -40 -107t-111 -71l-9 21q72 28 85 84q4 15 -2 23t-19 15q-36 21 -36 57
q0 26 18.5 43.5t44.5 17.5z" />
    <glyph glyph-name="s.sc" horiz-adv-x="471" 
d="M226 -12q-96 0 -175 53l-6 109h25q18 -59 57 -94t93 -35q47 0 75 25t28 65q0 37 -27.5 63.5t-87.5 52.5q-76 33 -117.5 71t-41.5 103q0 63 48.5 102t134.5 39q22 0 42.5 -3t34 -6.5t30 -11t22.5 -10.5t19 -11.5t14 -8.5l3 -111h-25q-35 129 -133 129q-45 0 -67 -22
t-22 -55q0 -32 21.5 -54.5t79.5 -48.5q92 -42 122 -66q58 -47 58 -118t-57.5 -114t-147.5 -43z" />
    <glyph glyph-name="sacute.sc" horiz-adv-x="471" 
d="M224 600l-23 16q28 90 69 148q20 0 43.5 -17t30.5 -36q-50 -34 -120 -111zM226 -12q-96 0 -175 53l-6 109h25q18 -59 57 -94t93 -35q47 0 75 25t28 65q0 37 -27.5 63.5t-87.5 52.5q-76 33 -117.5 71t-41.5 103q0 63 48.5 102t134.5 39q22 0 42.5 -3t34 -6.5t30 -11
t22.5 -10.5t19 -11.5t14 -8.5l3 -111h-25q-35 129 -133 129q-45 0 -67 -22t-22 -55q0 -32 21.5 -54.5t79.5 -48.5q92 -42 122 -66q58 -47 58 -118t-57.5 -114t-147.5 -43z" />
    <glyph glyph-name="scaron.sc" horiz-adv-x="471" 
d="M229 613l-138 152l13 12l125 -91l125 91l13 -12zM226 -12q-96 0 -175 53l-6 109h25q18 -59 57 -94t93 -35q47 0 75 25t28 65q0 37 -27.5 63.5t-87.5 52.5q-76 33 -117.5 71t-41.5 103q0 63 48.5 102t134.5 39q22 0 42.5 -3t34 -6.5t30 -11t22.5 -10.5t19 -11.5t14 -8.5
l3 -111h-25q-35 129 -133 129q-45 0 -67 -22t-22 -55q0 -32 21.5 -54.5t79.5 -48.5q92 -42 122 -66q58 -47 58 -118t-57.5 -114t-147.5 -43z" />
    <glyph glyph-name="scedilla.sc" horiz-adv-x="471" 
d="M431 145q0 -64 -47.5 -105.5t-124.5 -49.5l-20 -39q44 0 74 -21t30 -57q0 -38 -38.5 -61.5t-119.5 -23.5l5 23q45 0 67.5 13t22.5 33q0 45 -109 45l44 86q-87 3 -164 53l-6 109h25q18 -59 57 -94t93 -35q47 0 75 25t28 65q0 37 -27.5 63.5t-87.5 52.5q-76 33 -117.5 71
t-41.5 103q0 63 48.5 102t134.5 39q22 0 42.5 -3t34 -6.5t30 -11t22.5 -10.5t19 -11.5t14 -8.5l3 -111h-25q-35 129 -133 129q-45 0 -67 -22t-22 -55q0 -32 21.5 -54.5t79.5 -48.5q92 -42 122 -66q58 -47 58 -118z" />
    <glyph glyph-name="uni0219.sc" horiz-adv-x="471" 
d="M226 -12q-96 0 -175 53l-6 109h25q18 -59 57 -94t93 -35q47 0 75 25t28 65q0 37 -27.5 63.5t-87.5 52.5q-76 33 -117.5 71t-41.5 103q0 63 48.5 102t134.5 39q22 0 42.5 -3t34 -6.5t30 -11t22.5 -10.5t19 -11.5t14 -8.5l3 -111h-25q-35 129 -133 129q-45 0 -67 -22
t-22 -55q0 -32 21.5 -54.5t79.5 -48.5q92 -42 122 -66q58 -47 58 -118t-57.5 -114t-147.5 -43zM162 -319l-9 21q72 28 85 84q4 15 -2 23t-19 15q-36 21 -36 57q0 26 18.5 43.5t44.5 17.5q29 0 49 -22t20 -61q0 -55 -40 -107t-111 -71z" />
    <glyph glyph-name="germandbls.sc" horiz-adv-x="705" 
d="M464 305q88 -10 144.5 -51t56.5 -107q0 -70 -60.5 -118.5t-155.5 -48.5q-73 0 -129 32q-2 55 -17 122h25q30 -71 56 -98.5t62 -27.5q45 0 78 33t33 83q0 68 -63.5 111t-169.5 43l165 204q-48 23 -108 23q-165 0 -165 -182v-222q0 -24 3 -38.5t15 -22.5t18 -10.5t28 -7.5
v-22h-255v22q51 10 64 20q19 16 19 59v219q0 63 21 108.5t57 69t76 34t87 10.5q125 0 257 -62z" />
    <glyph glyph-name="t.sc" horiz-adv-x="565" 
d="M532 540l8 -176h-21q-11 71 -39 102.5t-97 31.5h-47v-397q0 -24 4.5 -38.5t20.5 -22.5t26 -10.5t41 -7.5v-22h-291v22q31 5 41 7.5t26 10.5t20.5 22.5t4.5 38.5v397h-44q-71 0 -99.5 -31.5t-39.5 -102.5h-21l8 176l51 -10h397z" />
    <glyph glyph-name="tbar.sc" horiz-adv-x="565" 
d="M532 540l8 -176h-21q-11 71 -39 102.5t-97 31.5h-47v-236l112 3l-10 -36l-102 3v-131q0 -24 4.5 -38.5t20.5 -22.5t26 -10.5t41 -7.5v-22h-291v22q31 5 41 7.5t26 10.5t20.5 22.5t4.5 38.5v131l-111 -3l10 36l101 -3v236h-44q-71 0 -99.5 -31.5t-39.5 -102.5h-21l8 176
l51 -10h397z" />
    <glyph glyph-name="tcaron.sc" horiz-adv-x="565" 
d="M419 765l-138 -152l-138 152l13 12l125 -91l125 91zM532 540l8 -176h-21q-11 71 -39 102.5t-97 31.5h-47v-397q0 -24 4.5 -38.5t20.5 -22.5t26 -10.5t41 -7.5v-22h-291v22q31 5 41 7.5t26 10.5t20.5 22.5t4.5 38.5v397h-44q-71 0 -99.5 -31.5t-39.5 -102.5h-21l8 176
l51 -10h397z" />
    <glyph glyph-name="uni0163.sc" horiz-adv-x="565" 
d="M532 540l8 -176h-21q-11 71 -39 102.5t-97 31.5h-47v-397q0 -24 4.5 -38.5t20.5 -22.5t26 -10.5t41 -7.5v-22h-117l-25 -49q44 0 74 -21t30 -57q0 -38 -38.5 -61.5t-119.5 -23.5l5 23q45 0 67.5 13t22.5 33q0 45 -109 45l50 98h-131v22q31 5 41 7.5t26 10.5t20.5 22.5
t4.5 38.5v397h-44q-71 0 -99.5 -31.5t-39.5 -102.5h-21l8 176l51 -10h397z" />
    <glyph glyph-name="uni021B.sc" horiz-adv-x="565" 
d="M532 540l8 -176h-21q-11 71 -39 102.5t-97 31.5h-47v-397q0 -24 4.5 -38.5t20.5 -22.5t26 -10.5t41 -7.5v-22h-291v22q31 5 41 7.5t26 10.5t20.5 22.5t4.5 38.5v397h-44q-71 0 -99.5 -31.5t-39.5 -102.5h-21l8 176l51 -10h397zM291 -58q29 0 49 -22t20 -61
q0 -55 -40 -107t-111 -71l-9 21q72 28 85 84q4 15 -2 23t-19 15q-36 21 -36 57q0 26 18.5 43.5t44.5 17.5z" />
    <glyph glyph-name="u.sc" horiz-adv-x="678" 
d="M339 -12q-44 0 -81 10.5t-74.5 37t-59 81.5t-21.5 134v178q0 23 -4 37t-16 22t-20 11t-29 7q-6 1 -9 2v22h264v-22q-47 -10 -59 -20q-19 -16 -19 -59v-191q0 -207 153 -207q30 0 55.5 8t51 27.5t40.5 59.5t15 98v205q0 23 -4 37t-16.5 22t-20.5 11t-30 7q-6 1 -9 2v22
h207v-22q-52 -10 -65 -20q-20 -17 -20 -59v-185q0 -256 -229 -256z" />
    <glyph glyph-name="uacute.sc" horiz-adv-x="678" 
d="M332 607l-23 16q28 90 69 148q20 0 43.5 -17t30.5 -36q-50 -34 -120 -111zM339 -12q-44 0 -81 10.5t-74.5 37t-59 81.5t-21.5 134v178q0 23 -4 37t-16 22t-20 11t-29 7q-6 1 -9 2v22h264v-22q-47 -10 -59 -20q-19 -16 -19 -59v-191q0 -207 153 -207q30 0 55.5 8t51 27.5
t40.5 59.5t15 98v205q0 23 -4 37t-16.5 22t-20.5 11t-30 7q-6 1 -9 2v22h207v-22q-52 -10 -65 -20q-20 -17 -20 -59v-185q0 -256 -229 -256z" />
    <glyph glyph-name="ubreve.sc" horiz-adv-x="678" 
d="M339 645q-66 0 -102 36t-36 95h23q14 -66 115 -66t115 66h23q0 -59 -36 -95t-102 -36zM339 -12q-44 0 -81 10.5t-74.5 37t-59 81.5t-21.5 134v178q0 23 -4 37t-16 22t-20 11t-29 7q-6 1 -9 2v22h264v-22q-47 -10 -59 -20q-19 -16 -19 -59v-191q0 -207 153 -207
q30 0 55.5 8t51 27.5t40.5 59.5t15 98v205q0 23 -4 37t-16.5 22t-20.5 11t-30 7q-6 1 -9 2v22h207v-22q-52 -10 -65 -20q-20 -17 -20 -59v-185q0 -256 -229 -256z" />
    <glyph glyph-name="ucircumflex.sc" horiz-adv-x="678" 
d="M337 784l138 -152l-13 -12l-125 91l-125 -91l-13 12zM339 -12q-44 0 -81 10.5t-74.5 37t-59 81.5t-21.5 134v178q0 23 -4 37t-16 22t-20 11t-29 7q-6 1 -9 2v22h264v-22q-47 -10 -59 -20q-19 -16 -19 -59v-191q0 -207 153 -207q30 0 55.5 8t51 27.5t40.5 59.5t15 98v205
q0 23 -4 37t-16.5 22t-20.5 11t-30 7q-6 1 -9 2v22h207v-22q-52 -10 -65 -20q-20 -17 -20 -59v-185q0 -256 -229 -256z" />
    <glyph glyph-name="udieresis.sc" horiz-adv-x="678" 
d="M240 667q-22 0 -36.5 14.5t-14.5 36.5t14.5 36.5t36.5 14.5t36.5 -14.5t14.5 -36.5t-14.5 -36.5t-36.5 -14.5zM438 667q-22 0 -36.5 14.5t-14.5 36.5t14.5 36.5t36.5 14.5t36.5 -14.5t14.5 -36.5t-14.5 -36.5t-36.5 -14.5zM339 -12q-44 0 -81 10.5t-74.5 37t-59 81.5
t-21.5 134v178q0 23 -4 37t-16 22t-20 11t-29 7q-6 1 -9 2v22h264v-22q-47 -10 -59 -20q-19 -16 -19 -59v-191q0 -207 153 -207q30 0 55.5 8t51 27.5t40.5 59.5t15 98v205q0 23 -4 37t-16.5 22t-20.5 11t-30 7q-6 1 -9 2v22h207v-22q-52 -10 -65 -20q-20 -17 -20 -59v-185
q0 -256 -229 -256z" />
    <glyph glyph-name="ugrave.sc" horiz-adv-x="678" 
d="M347 607q-70 77 -120 111q7 19 30.5 36t43.5 17q41 -58 69 -148zM339 -12q-44 0 -81 10.5t-74.5 37t-59 81.5t-21.5 134v178q0 23 -4 37t-16 22t-20 11t-29 7q-6 1 -9 2v22h264v-22q-47 -10 -59 -20q-19 -16 -19 -59v-191q0 -207 153 -207q30 0 55.5 8t51 27.5t40.5 59.5
t15 98v205q0 23 -4 37t-16.5 22t-20.5 11t-30 7q-6 1 -9 2v22h207v-22q-52 -10 -65 -20q-20 -17 -20 -59v-185q0 -256 -229 -256z" />
    <glyph glyph-name="uhungarumlaut.sc" horiz-adv-x="678" 
d="M230 607l-23 16q28 90 69 148q20 0 43.5 -17t30.5 -36q-50 -34 -120 -111zM387 607l-23 16q28 90 69 148q20 0 43.5 -17t30.5 -36q-50 -34 -120 -111zM339 -12q-44 0 -81 10.5t-74.5 37t-59 81.5t-21.5 134v178q0 23 -4 37t-16 22t-20 11t-29 7q-6 1 -9 2v22h264v-22
q-47 -10 -59 -20q-19 -16 -19 -59v-191q0 -207 153 -207q30 0 55.5 8t51 27.5t40.5 59.5t15 98v205q0 23 -4 37t-16.5 22t-20.5 11t-30 7q-6 1 -9 2v22h207v-22q-52 -10 -65 -20q-20 -17 -20 -59v-185q0 -256 -229 -256z" />
    <glyph glyph-name="umacron.sc" horiz-adv-x="678" 
d="M192 696l15 38h280l-15 -38h-280zM339 -12q-44 0 -81 10.5t-74.5 37t-59 81.5t-21.5 134v178q0 23 -4 37t-16 22t-20 11t-29 7q-6 1 -9 2v22h264v-22q-47 -10 -59 -20q-19 -16 -19 -59v-191q0 -207 153 -207q30 0 55.5 8t51 27.5t40.5 59.5t15 98v205q0 23 -4 37
t-16.5 22t-20.5 11t-30 7q-6 1 -9 2v22h207v-22q-52 -10 -65 -20q-20 -17 -20 -59v-185q0 -256 -229 -256z" />
    <glyph glyph-name="uogonek.sc" horiz-adv-x="678" 
d="M446 530h207v-22q-52 -10 -65 -20q-20 -17 -20 -59v-185q0 -204 -146 -245q-44 -26 -64 -48t-20 -51q0 -26 14.5 -41t38.5 -15q19 0 45 10v-18q-35 -35 -87 -35q-41 0 -67.5 20.5t-26.5 62.5q0 32 21 60l66 44h-3q-44 0 -81 10.5t-74.5 37t-59 81.5t-21.5 134v178
q0 23 -4 37t-16 22t-20 11t-29 7q-6 1 -9 2v22h264v-22q-47 -10 -59 -20q-19 -16 -19 -59v-191q0 -207 153 -207q27 0 52 7l8 5v-3q102 35 102 184v205q0 23 -4 37t-16.5 22t-20.5 11t-30 7q-6 1 -9 2v22z" />
    <glyph glyph-name="uring.sc" horiz-adv-x="678" 
d="M339 630q-37 0 -63 25.5t-26 62.5t26 62.5t63 25.5t63 -25.5t26 -62.5t-26 -62.5t-63 -25.5zM339 671q20 0 33.5 13.5t13.5 33.5t-13.5 33.5t-33.5 13.5t-33.5 -13.5t-13.5 -33.5t13.5 -33.5t33.5 -13.5zM339 -12q-44 0 -81 10.5t-74.5 37t-59 81.5t-21.5 134v178
q0 23 -4 37t-16 22t-20 11t-29 7q-6 1 -9 2v22h264v-22q-47 -10 -59 -20q-19 -16 -19 -59v-191q0 -207 153 -207q30 0 55.5 8t51 27.5t40.5 59.5t15 98v205q0 23 -4 37t-16.5 22t-20.5 11t-30 7q-6 1 -9 2v22h207v-22q-52 -10 -65 -20q-20 -17 -20 -59v-185
q0 -256 -229 -256z" />
    <glyph glyph-name="v.sc" horiz-adv-x="598" 
d="M416 530h177v-22q-24 -5 -30.5 -6.5t-18 -7.5t-17 -15.5t-13.5 -26.5l-199 -452h-39l-194 451q-14 33 -26.5 41t-50.5 16v22h252v-22l-18 -4.5t-18.5 -5t-13 -5.5t-10.5 -9t-2 -13.5t5 -19.5l135 -317l137 318q4 9 5 16.5t-1.5 12.5t-5.5 8.5t-10.5 6.5t-12 4.5t-15.5 4
t-16 3.5v22z" />
    <glyph glyph-name="w.sc" horiz-adv-x="854" 
d="M257 0l-174 451q-13 32 -25.5 40.5t-52.5 16.5v22h249v-22q-4 -1 -13.5 -3.5t-13.5 -3.5t-11 -3.5t-10 -5t-6.5 -6.5t-4 -8.5t0 -11.5t3.5 -15l113 -309l79 221q19 48 1 90.5t-68 54.5v22h167q0 -39 36 -138l93 -249l94 264q20 57 2.5 74.5t-76.5 26.5v22h209v-22
q-29 -6 -39 -9.5t-20.5 -14t-18.5 -33.5l-166 -450h-40l-138 354l-130 -355h-40z" />
    <glyph glyph-name="wacute.sc" horiz-adv-x="854" 
d="M420 600l-23 16q28 90 69 148q20 0 43.5 -17t30.5 -36q-50 -34 -120 -111zM257 0l-174 451q-13 32 -25.5 40.5t-52.5 16.5v22h249v-22q-4 -1 -13.5 -3.5t-13.5 -3.5t-11 -3.5t-10 -5t-6.5 -6.5t-4 -8.5t0 -11.5t3.5 -15l113 -309l79 221q19 48 1 90.5t-68 54.5v22h167
q0 -39 36 -138l93 -249l94 264q20 57 2.5 74.5t-76.5 26.5v22h209v-22q-29 -6 -39 -9.5t-20.5 -14t-18.5 -33.5l-166 -450h-40l-138 354l-130 -355h-40z" />
    <glyph glyph-name="wcircumflex.sc" horiz-adv-x="854" 
d="M425 777l138 -152l-13 -12l-125 91l-125 -91l-13 12zM257 0l-174 451q-13 32 -25.5 40.5t-52.5 16.5v22h249v-22q-4 -1 -13.5 -3.5t-13.5 -3.5t-11 -3.5t-10 -5t-6.5 -6.5t-4 -8.5t0 -11.5t3.5 -15l113 -309l79 221q19 48 1 90.5t-68 54.5v22h167q0 -39 36 -138l93 -249
l94 264q20 57 2.5 74.5t-76.5 26.5v22h209v-22q-29 -6 -39 -9.5t-20.5 -14t-18.5 -33.5l-166 -450h-40l-138 354l-130 -355h-40z" />
    <glyph glyph-name="wdieresis.sc" horiz-adv-x="854" 
d="M328 660q-22 0 -36.5 14.5t-14.5 36.5t14.5 36.5t36.5 14.5t36.5 -14.5t14.5 -36.5t-14.5 -36.5t-36.5 -14.5zM526 660q-22 0 -36.5 14.5t-14.5 36.5t14.5 36.5t36.5 14.5t36.5 -14.5t14.5 -36.5t-14.5 -36.5t-36.5 -14.5zM257 0l-174 451q-13 32 -25.5 40.5t-52.5 16.5
v22h249v-22q-4 -1 -13.5 -3.5t-13.5 -3.5t-11 -3.5t-10 -5t-6.5 -6.5t-4 -8.5t0 -11.5t3.5 -15l113 -309l79 221q19 48 1 90.5t-68 54.5v22h167q0 -39 36 -138l93 -249l94 264q20 57 2.5 74.5t-76.5 26.5v22h209v-22q-29 -6 -39 -9.5t-20.5 -14t-18.5 -33.5l-166 -450h-40
l-138 354l-130 -355h-40z" />
    <glyph glyph-name="wgrave.sc" horiz-adv-x="854" 
d="M435 600q-70 77 -120 111q7 19 30.5 36t43.5 17q41 -58 69 -148zM257 0l-174 451q-13 32 -25.5 40.5t-52.5 16.5v22h249v-22q-4 -1 -13.5 -3.5t-13.5 -3.5t-11 -3.5t-10 -5t-6.5 -6.5t-4 -8.5t0 -11.5t3.5 -15l113 -309l79 221q19 48 1 90.5t-68 54.5v22h167
q0 -39 36 -138l93 -249l94 264q20 57 2.5 74.5t-76.5 26.5v22h209v-22q-29 -6 -39 -9.5t-20.5 -14t-18.5 -33.5l-166 -450h-40l-138 354l-130 -355h-40z" />
    <glyph glyph-name="x.sc" horiz-adv-x="638" 
d="M503 85q23 -34 45 -44.5t75 -18.5v-22h-284v22q23 5 31.5 7.5t17.5 9t5.5 17t-15.5 28.5l-95 140l-98 -137q-8 -11 -12 -19t-6.5 -13.5t0 -10.5t3 -7.5t8.5 -5t11 -3t15.5 -3t16.5 -3.5v-22h-206v22q5 1 18 3t16.5 2.5t13 2t12.5 3t10.5 4t11 5.5t9.5 7.5t10.5 9.5
t10.5 12t12 15l123 169l-126 184q-27 39 -47.5 50t-70.5 19v22h276v-22q-23 -5 -31.5 -7.5t-16.5 -10t-3.5 -19.5t18.5 -32l78 -114l85 116q10 13 15.5 22.5t3 16.5t-3 10.5t-13.5 7.5t-16.5 5t-22.5 5v22h200v-22q-50 -8 -70 -18.5t-49 -48.5l-108 -147z" />
    <glyph glyph-name="y.sc" horiz-adv-x="582" 
d="M385 530h187v-22q-36 -8 -48 -16.5t-35 -45.5l-140 -224v-121q0 -24 4.5 -38.5t20 -22.5t24.5 -10.5t39 -7.5v-22h-283v22q55 10 68 20q20 16 20 59v109l-150 236q-24 38 -35 46t-47 16v22h254v-22q-45 -12 -53 -20q-14 -14 4 -42l115 -187l114 187q5 8 8 15t2.5 12.5
t-1.5 9t-5.5 7t-8 5.5t-11.5 4t-12.5 3t-15 3t-15.5 3v22z" />
    <glyph glyph-name="yacute.sc" horiz-adv-x="582" 
d="M414 711q-50 -34 -120 -111l-23 16q28 90 69 148q20 0 43.5 -17t30.5 -36zM385 530h187v-22q-36 -8 -48 -16.5t-35 -45.5l-140 -224v-121q0 -24 4.5 -38.5t20 -22.5t24.5 -10.5t39 -7.5v-22h-283v22q55 10 68 20q20 16 20 59v109l-150 236q-24 38 -35 46t-47 16v22h254
v-22q-45 -12 -53 -20q-14 -14 4 -42l115 -187l114 187q5 8 8 15t2.5 12.5t-1.5 9t-5.5 7t-8 5.5t-11.5 4t-12.5 3t-15 3t-15.5 3v22z" />
    <glyph glyph-name="ycircumflex.sc" horiz-adv-x="582" 
d="M299 704l-125 -91l-13 12l138 152l138 -152l-13 -12zM385 530h187v-22q-36 -8 -48 -16.5t-35 -45.5l-140 -224v-121q0 -24 4.5 -38.5t20 -22.5t24.5 -10.5t39 -7.5v-22h-283v22q55 10 68 20q20 16 20 59v109l-150 236q-24 38 -35 46t-47 16v22h254v-22q-45 -12 -53 -20
q-14 -14 4 -42l115 -187l114 187q5 8 8 15t2.5 12.5t-1.5 9t-5.5 7t-8 5.5t-11.5 4t-12.5 3t-15 3t-15.5 3v22z" />
    <glyph glyph-name="ydieresis.sc" horiz-adv-x="582" 
d="M202 660q-22 0 -36.5 14.5t-14.5 36.5t14.5 36.5t36.5 14.5t36.5 -14.5t14.5 -36.5t-14.5 -36.5t-36.5 -14.5zM400 660q-22 0 -36.5 14.5t-14.5 36.5t14.5 36.5t36.5 14.5t36.5 -14.5t14.5 -36.5t-14.5 -36.5t-36.5 -14.5zM385 530h187v-22q-36 -8 -48 -16.5t-35 -45.5
l-140 -224v-121q0 -24 4.5 -38.5t20 -22.5t24.5 -10.5t39 -7.5v-22h-283v22q55 10 68 20q20 16 20 59v109l-150 236q-24 38 -35 46t-47 16v22h254v-22q-45 -12 -53 -20q-14 -14 4 -42l115 -187l114 187q5 8 8 15t2.5 12.5t-1.5 9t-5.5 7t-8 5.5t-11.5 4t-12.5 3t-15 3
t-15.5 3v22z" />
    <glyph glyph-name="ygrave.sc" horiz-adv-x="582" 
d="M309 600q-70 77 -120 111q7 19 30.5 36t43.5 17q41 -58 69 -148zM385 530h187v-22q-36 -8 -48 -16.5t-35 -45.5l-140 -224v-121q0 -24 4.5 -38.5t20 -22.5t24.5 -10.5t39 -7.5v-22h-283v22q55 10 68 20q20 16 20 59v109l-150 236q-24 38 -35 46t-47 16v22h254v-22
q-45 -12 -53 -20q-14 -14 4 -42l115 -187l114 187q5 8 8 15t2.5 12.5t-1.5 9t-5.5 7t-8 5.5t-11.5 4t-12.5 3t-15 3t-15.5 3v22z" />
    <glyph glyph-name="z.sc" horiz-adv-x="551" 
d="M36 0l-11 15l347 489l-161 -4q-72 -1 -100.5 -30.5t-33.5 -96.5h-25v163l59 -6h406l-356 -504l194 4q69 1 97 31t43 98h26q-19 -95 -19 -159h-466z" />
    <glyph glyph-name="zacute.sc" horiz-adv-x="551" 
d="M266 600l-23 16q28 90 69 148q20 0 43.5 -17t30.5 -36q-50 -34 -120 -111zM36 0l-11 15l347 489l-161 -4q-72 -1 -100.5 -30.5t-33.5 -96.5h-25v163l59 -6h406l-356 -504l194 4q69 1 97 31t43 98h26q-19 -95 -19 -159h-466z" />
    <glyph glyph-name="zcaron.sc" horiz-adv-x="551" 
d="M271 613l-138 152l13 12l125 -91l125 91l13 -12zM36 0l-11 15l347 489l-161 -4q-72 -1 -100.5 -30.5t-33.5 -96.5h-25v163l59 -6h406l-356 -504l194 4q69 1 97 31t43 98h26q-19 -95 -19 -159h-466z" />
    <glyph glyph-name="zdotaccent.sc" horiz-adv-x="551" 
d="M273 633q-24 0 -42 17t-18 41t18 41t42 17t42 -17t18 -41t-18 -41t-42 -17zM36 0l-11 15l347 489l-161 -4q-72 -1 -100.5 -30.5t-33.5 -96.5h-25v163l59 -6h406l-356 -504l194 4q69 1 97 31t43 98h26q-19 -95 -19 -159h-466z" />
    <glyph glyph-name="zero.lf" horiz-adv-x="612" 
d="M304 -9q-119 0 -188.5 90.5t-69.5 229.5q0 140 70.5 233t191.5 93q119 0 188.5 -91t69.5 -230t-70.5 -232t-191.5 -93zM321 26q63 0 97.5 69t34.5 191q0 140 -43.5 228t-118.5 88q-63 0 -97.5 -69t-34.5 -192q0 -140 43.5 -227.5t118.5 -87.5z" />
    <glyph glyph-name="one.lf" horiz-adv-x="372" 
d="M41 0v22q25 3 34.5 4.5t25 5t21 8.5t10 14t4.5 22v448q0 25 -9 32.5t-32 2.5l-50 -12v22l171 77l20 -16v-554q0 -30 20 -39t75 -15v-22h-290z" />
    <glyph glyph-name="two.lf" horiz-adv-x="557" 
d="M44 0l-8 23q15 13 69.5 59.5t73 64t61 57.5t60 62.5t41 56t32.5 62t9 57.5q0 52 -32.5 89t-95.5 37q-114 0 -170 -109l-28 15q29 78 95 120.5t143 42.5q87 0 144 -51t57 -128q0 -48 -24 -95t-67 -88.5t-84 -74.5t-93 -72t-77 -61h187q63 0 97 19t60 77h27l-50 -181h-27
l-2 18h-398z" />
    <glyph glyph-name="three.lf" horiz-adv-x="524" 
d="M195 -12q-64 0 -114 17.5t-50 54.5q0 18 12.5 27t28.5 9q21 0 41 -19t45.5 -38.5t59.5 -19.5q59 0 112 45t53 116q0 66 -47 99.5t-114 33.5q-45 0 -97 -18l-10 27l78 33q84 35 118.5 61.5t34.5 69.5q0 39 -28 62.5t-79 23.5q-106 0 -167 -71l-21 17q39 58 101 88.5
t129 30.5q74 0 117.5 -35t42.5 -92q-1 -48 -34.5 -82t-99.5 -65q75 -5 128 -42.5t53 -112.5q0 -95 -85 -157.5t-208 -62.5z" />
    <glyph glyph-name="four.lf" horiz-adv-x="527" 
d="M481 170h-85v-94q0 -30 18.5 -39t66.5 -15v-22h-270v22q34 5 47 7.5t25.5 14t12.5 32.5v94h-256l-14 20l340 450h30v-427h95zM80 213h216v288z" />
    <glyph glyph-name="five.lf" horiz-adv-x="504" 
d="M119 394q88 16 150.5 5.5t102.5 -43.5t58.5 -72.5t18.5 -81.5q0 -87 -73.5 -150.5t-181.5 -63.5q-57 0 -107.5 17.5t-50.5 54.5q0 18 12.5 27t28.5 9q21 0 40 -19t41.5 -38.5t53.5 -19.5q50 0 90 42.5t40 106.5q0 38 -15 72.5t-46.5 62t-79.5 35.5t-114 -8l-19 19
l100 281h169q36 0 52 1t32.5 7.5t27.5 20.5h20l-36 -112h-258z" />
    <glyph glyph-name="six.lf" horiz-adv-x="555" 
d="M283 -12q-114 0 -176.5 77t-61.5 192q1 154 114 263t252 117l15 -27q-51 -5 -99 -30.5t-88 -69.5t-64 -114.5t-24 -155.5q0 -98 35 -159t100 -61q61 0 94.5 51.5t33.5 125.5q0 87 -49.5 133.5t-150.5 25.5v25q55 26 110 23t98.5 -25t70.5 -67t27 -102q0 -94 -66 -158
t-171 -64z" />
    <glyph glyph-name="seven.lf" horiz-adv-x="502" 
d="M470 630l11 -15q-198 -303 -271 -615h-83q81 261 264 547h-210q-36 0 -52.5 -3t-36 -19t-35.5 -51h-21l53 173h21l2 -17h358z" />
    <glyph glyph-name="eight.lf" horiz-adv-x="553" 
d="M372 343q135 -54 135 -169q0 -81 -67 -135t-168 -54q-97 0 -161.5 49.5t-64.5 127.5q0 104 113 166q-73 54 -73 137q0 69 53 117t138 48q80 0 129.5 -44t49.5 -105q0 -78 -84 -138zM278 597q-51 0 -76 -30.5t-25 -71.5q0 -35 21.5 -66t65.5 -47l63 -22q58 47 58 117
q0 46 -26 83t-81 37zM281 19q62 0 94 33.5t32 89.5q0 52 -27.5 79.5t-91.5 50.5l-67 24l-22 9q-77 -50 -77 -137q0 -64 42.5 -106.5t116.5 -42.5z" />
    <glyph glyph-name="nine.lf" horiz-adv-x="555" 
d="M272 637q114 0 176.5 -77t61.5 -192q-1 -154 -114 -263t-252 -117l-15 27q51 5 99 30.5t88 69.5t64 114.5t24 155.5q0 98 -35 159t-100 61q-61 0 -94.5 -51.5t-33.5 -125.5q0 -87 49.5 -133.5t150.5 -25.5v-25q-55 -26 -110 -23t-98.5 25t-70.5 67t-27 102q0 94 66 158
t171 64z" />
    <glyph glyph-name="zero.tf" horiz-adv-x="592" 
d="M294 -9q-119 0 -188.5 90.5t-69.5 229.5q0 140 70.5 233t191.5 93q119 0 188.5 -91t69.5 -230t-70.5 -232t-191.5 -93zM311 26q63 0 97.5 69t34.5 191q0 140 -43.5 228t-118.5 88q-63 0 -97.5 -69t-34.5 -192q0 -140 43.5 -227.5t118.5 -87.5z" />
    <glyph glyph-name="one.tf" horiz-adv-x="592" 
d="M131 0v22q70 6 92.5 14.5t22.5 39.5v448q0 25 -9 32.5t-32 2.5l-70 -12v22l191 77l20 -16v-554q0 -31 22.5 -39.5t92.5 -14.5v-22h-330z" />
    <glyph glyph-name="two.tf" horiz-adv-x="592" 
d="M55 0l-8 23q15 13 69.5 59.5t73 64t61 57.5t60 62.5t41 56t32.5 62t9 57.5q0 52 -32.5 89t-95.5 37q-114 0 -170 -109l-28 15q29 78 95 120.5t143 42.5q87 0 144 -51t57 -128q0 -48 -24 -95t-67 -88.5t-84 -74.5t-93 -72t-77 -61h187q63 0 97 19t60 77h27l-50 -181h-27
l-2 18h-398z" />
    <glyph glyph-name="three.tf" horiz-adv-x="592" 
d="M236 -12q-64 0 -114 17.5t-50 54.5q0 18 12.5 27t28.5 9q21 0 41 -19t45.5 -38.5t59.5 -19.5q59 0 112 45t53 116q0 66 -47 99.5t-114 33.5q-45 0 -97 -18l-10 27l78 33q84 35 118.5 61.5t34.5 69.5q0 39 -28 62.5t-79 23.5q-106 0 -167 -71l-21 17q39 58 101 88.5
t129 30.5q74 0 117.5 -35t42.5 -92q-1 -48 -34.5 -82t-99.5 -65q75 -5 128 -42.5t53 -112.5q0 -95 -85 -157.5t-208 -62.5z" />
    <glyph glyph-name="four.tf" horiz-adv-x="592" 
d="M501 170h-85v-94q0 -30 18.5 -39t66.5 -15v-22h-270v22q34 5 47 7.5t25.5 14t12.5 32.5v94h-256l-14 20l340 450h30v-427h95zM100 213h216v288z" />
    <glyph glyph-name="five.tf" horiz-adv-x="592" 
d="M139 394q88 16 150.5 5.5t102.5 -43.5t58.5 -72.5t18.5 -81.5q0 -87 -73.5 -150.5t-181.5 -63.5q-57 0 -107.5 17.5t-50.5 54.5q0 18 12.5 27t28.5 9q21 0 40 -19t41.5 -38.5t53.5 -19.5q50 0 90 42.5t40 106.5q0 38 -15 72.5t-46.5 62t-79.5 35.5t-114 -8l-19 19
l100 281h169q36 0 52 1t32.5 7.5t27.5 20.5h20l-36 -112h-258z" />
    <glyph glyph-name="six.tf" horiz-adv-x="592" 
d="M293 -12q-114 0 -176.5 77t-61.5 192q1 154 114 263t252 117l15 -27q-51 -5 -99 -30.5t-88 -69.5t-64 -114.5t-24 -155.5q0 -98 35 -159t100 -61q61 0 94.5 51.5t33.5 125.5q0 87 -49.5 133.5t-150.5 25.5v25q55 26 110 23t98.5 -25t70.5 -67t27 -102q0 -94 -66 -158
t-171 -64z" />
    <glyph glyph-name="seven.tf" horiz-adv-x="592" 
d="M512 630l11 -15q-198 -303 -271 -615h-83q81 261 264 547h-210q-36 0 -52.5 -3t-36 -19t-35.5 -51h-21l53 173h21l2 -17h358z" />
    <glyph glyph-name="eight.tf" horiz-adv-x="592" 
d="M391 343q135 -54 135 -169q0 -81 -67 -135t-168 -54q-97 0 -161.5 49.5t-64.5 127.5q0 104 113 166q-73 54 -73 137q0 69 53 117t138 48q80 0 129.5 -44t49.5 -105q0 -78 -84 -138zM297 597q-51 0 -76 -30.5t-25 -71.5q0 -35 21.5 -66t65.5 -47l63 -22q58 47 58 117
q0 46 -26 83t-81 37zM300 19q62 0 94 33.5t32 89.5q0 52 -27.5 79.5t-91.5 50.5l-67 24l-22 9q-77 -50 -77 -137q0 -64 42.5 -106.5t116.5 -42.5z" />
    <glyph glyph-name="nine.tf" horiz-adv-x="592" 
d="M300 637q114 0 176.5 -77t61.5 -192q-1 -154 -114 -263t-252 -117l-15 27q51 5 99 30.5t88 69.5t64 114.5t24 155.5q0 98 -35 159t-100 61q-61 0 -94.5 -51.5t-33.5 -125.5q0 -87 49.5 -133.5t150.5 -25.5v-25q-55 -26 -110 -23t-98.5 25t-70.5 67t-27 102q0 94 66 158
t171 64z" />
    <glyph glyph-name="zero.dnom" horiz-adv-x="288" 
d="M143 -10q-48 0 -77.5 36t-29.5 91q0 56 30 93t79 37q48 0 77.5 -36t29.5 -92t-30 -92.5t-79 -36.5zM150 6q47 0 47 101q0 56 -15.5 90t-43.5 34q-47 0 -47 -102q0 -55 15.5 -89t43.5 -34z" />
    <glyph glyph-name="one.dnom" horiz-adv-x="207" 
d="M41 0v10q22 2 30 6t8 16v165q0 11 -4 14.5t-12 1.5l-20 -5v11l77 33l8 -6v-214q0 -12 8 -16t30 -6v-10h-125z" />
    <glyph glyph-name="two.dnom" horiz-adv-x="270" 
d="M39 0l-3 11q5 4 20 17t21 18t19 17t19.5 19t16.5 18t15 19t10.5 17.5t8 18.5t2.5 18q0 20 -12 34t-35 14q-41 0 -66 -42l-11 7q12 31 38.5 48.5t58.5 17.5q35 0 58 -20t23 -50q0 -23 -17 -48t-35 -40t-45.5 -35.5t-32.5 -24.5h66q27 0 40.5 6.5t22.5 29.5h13l-19 -70
h-176z" />
    <glyph glyph-name="three.dnom" horiz-adv-x="257" 
d="M105 -10q-27 0 -48 7.5t-21 22.5t17 15q9 0 25.5 -15.5t33.5 -15.5q23 0 42 16.5t19 44.5q0 27 -18 40.5t-45 13.5q-17 0 -36 -7l-5 12l31 12q32 12 45.5 22.5t13.5 28.5q0 32 -41 32t-64 -27l-10 8q32 47 92 47q29 0 47.5 -14t18.5 -37q0 -33 -56 -58q31 -2 53 -17
t22 -45q0 -37 -34 -61.5t-82 -24.5z" />
    <glyph glyph-name="four.dnom" horiz-adv-x="261" 
d="M188 32q0 -12 7.5 -16t29.5 -6v-10h-124v10q22 2 29.5 6t7.5 16v34h-108l-4 20l116 160h46v-160h37l-4 -20h-33v-34zM46 86h92v127z" />
    <glyph glyph-name="five.dnom" horiz-adv-x="257" 
d="M80 153q82 5 112 -18t30 -54q0 -39 -34 -65t-83 -26q-25 0 -47 7.5t-22 22.5t17 15q9 0 26 -15.5t35 -15.5q23 0 41 16.5t18 43.5q0 63 -113 56l-7 8l39 112h67q39 0 48 12h9l-17 -49h-102z" />
    <glyph glyph-name="six.dnom" horiz-adv-x="284" 
d="M147 -10q-47 0 -75 30t-27 76q1 62 48.5 105t104.5 46l7 -13q-44 -4 -76.5 -41.5t-32.5 -102.5q0 -38 14 -61.5t39 -23.5q24 0 36.5 19.5t12.5 49.5q0 73 -76 68v13q46 14 86.5 -7.5t40.5 -67.5q0 -39 -29 -64.5t-73 -25.5z" />
    <glyph glyph-name="seven.dnom" horiz-adv-x="234" 
d="M208 246l5 -6q-80 -122 -108 -240h-33q29 95 105 213h-83q-14 0 -20.5 -1.5t-14.5 -8t-14 -19.5h-9l21 66l18 -4h133z" />
    <glyph glyph-name="eight.dnom" horiz-adv-x="291" 
d="M191 132q54 -23 54 -67q0 -33 -28.5 -54t-73.5 -21q-42 0 -69.5 19t-27.5 51q0 41 44 63q-28 22 -28 54q0 28 23.5 47.5t60.5 19.5q35 0 56.5 -18t21.5 -42q0 -29 -33 -52zM146 227q-22 0 -32.5 -10.5t-10.5 -25.5q0 -28 43 -43l26 -9q21 17 21 44q0 18 -11.5 31
t-35.5 13zM146 7q52 0 52 43q0 17 -10 26t-39 20l-27 10q-10 3 -15 7q-29 -19 -29 -50q0 -25 18 -40.5t50 -15.5z" />
    <glyph glyph-name="nine.dnom" horiz-adv-x="284" 
d="M137 243q47 0 75 -30t27 -76q-1 -62 -48.5 -105t-104.5 -46l-7 13q44 4 76.5 41.5t32.5 102.5q0 38 -14 61.5t-39 23.5q-24 0 -36.5 -19.5t-12.5 -49.5q0 -73 76 -68v-13q-46 -14 -86.5 7.5t-40.5 67.5q0 39 29 64.5t73 25.5z" />
    <glyph glyph-name="zero.numr" horiz-adv-x="288" 
d="M143 389q-48 0 -77.5 36t-29.5 91q0 56 30 93t79 37q48 0 77.5 -36t29.5 -92t-30 -92.5t-79 -36.5zM150 405q47 0 47 101q0 56 -15.5 90t-43.5 34q-47 0 -47 -102q0 -55 15.5 -89t43.5 -34z" />
    <glyph glyph-name="one.numr" horiz-adv-x="207" 
d="M41 398v10q22 2 30 6t8 16v165q0 11 -4 14.5t-12 1.5l-20 -5v11l77 33l8 -6v-214q0 -12 8 -16t30 -6v-10h-125z" />
    <glyph glyph-name="two.numr" horiz-adv-x="270" 
d="M39 393l-3 11q5 4 20 17t21 18t19 17t19.5 19t16.5 18t15 19t10.5 17.5t8 18.5t2.5 18q0 20 -12 34t-35 14q-41 0 -66 -42l-11 7q12 31 38.5 48.5t58.5 17.5q35 0 58 -20t23 -50q0 -23 -17 -48t-35 -40t-45.5 -35.5t-32.5 -24.5h66q27 0 40.5 6.5t22.5 29.5h13l-19 -70
h-176z" />
    <glyph glyph-name="three.numr" horiz-adv-x="257" 
d="M105 384q-27 0 -48 7.5t-21 22.5t17 15q9 0 25.5 -15.5t33.5 -15.5q23 0 42 16.5t19 44.5q0 27 -18 40.5t-45 13.5q-17 0 -36 -7l-5 12l31 12q32 12 45.5 22.5t13.5 28.5q0 32 -41 32t-64 -27l-10 8q32 47 92 47q29 0 47.5 -14t18.5 -37q0 -33 -56 -58q31 -2 53 -17
t22 -45q0 -37 -34 -61.5t-82 -24.5z" />
    <glyph glyph-name="four.numr" horiz-adv-x="261" 
d="M188 423q0 -12 7.5 -16t29.5 -6v-10h-124v10q22 2 29.5 6t7.5 16v34h-108l-4 20l116 160h46v-160h37l-4 -20h-33v-34zM46 477h92v127z" />
    <glyph glyph-name="five.numr" horiz-adv-x="257" 
d="M80 553q82 5 112 -18t30 -54q0 -39 -34 -65t-83 -26q-25 0 -47 7.5t-22 22.5t17 15q9 0 26 -15.5t35 -15.5q23 0 41 16.5t18 43.5q0 63 -113 56l-7 8l39 112h67q39 0 48 12h9l-17 -49h-102z" />
    <glyph glyph-name="six.numr" horiz-adv-x="284" 
d="M147 383q-47 0 -75 30t-27 76q1 62 48.5 105t104.5 46l7 -13q-44 -4 -76.5 -41.5t-32.5 -102.5q0 -38 14 -61.5t39 -23.5q24 0 36.5 19.5t12.5 49.5q0 73 -76 68v13q46 14 86.5 -7.5t40.5 -67.5q0 -39 -29 -64.5t-73 -25.5z" />
    <glyph glyph-name="seven.numr" horiz-adv-x="234" 
d="M208 644l5 -6q-80 -122 -108 -240h-33q29 95 105 213h-83q-14 0 -20.5 -1.5t-14.5 -8t-14 -19.5h-9l21 66l18 -4h133z" />
    <glyph glyph-name="eight.numr" horiz-adv-x="291" 
d="M191 530q54 -23 54 -67q0 -33 -28.5 -54t-73.5 -21q-42 0 -69.5 19t-27.5 51q0 41 44 63q-28 22 -28 54q0 28 23.5 47.5t60.5 19.5q35 0 56.5 -18t21.5 -42q0 -29 -33 -52zM146 625q-22 0 -32.5 -10.5t-10.5 -25.5q0 -28 43 -43l26 -9q21 17 21 44q0 18 -11.5 31
t-35.5 13zM146 405q52 0 52 43q0 17 -10 26t-39 20l-27 10q-10 3 -15 7q-29 -19 -29 -50q0 -25 18 -40.5t50 -15.5z" />
    <glyph glyph-name="nine.numr" horiz-adv-x="284" 
d="M137 637q47 0 75 -30t27 -76q-1 -62 -48.5 -105t-104.5 -46l-7 13q44 4 76.5 41.5t32.5 102.5q0 38 -14 61.5t-39 23.5q-24 0 -36.5 -19.5t-12.5 -49.5q0 -73 76 -68v-13q-46 -14 -86.5 7.5t-40.5 67.5q0 39 29 64.5t73 25.5z" />
    </font>
</defs>
</svg>
