<svg xmlns="http://www.w3.org/2000/svg" width="89.987" height="59.995"><path data-name="Path 1" d="M89.987 29.995a2.006 2.006 0 0 1-2 2H6.817l24.59 24.59a2 2 0 0 1 0 2.83 2.067 2.067 0 0 1-1.42.58 1.993 1.993 0 0 1-1.41-.59l-28-28a1.885 1.885 0 0 1-.25-.31c-.03-.05-.05-.1-.08-.15s-.07-.12-.1-.19a1.519 1.519 0 0 1-.06-.2 1.093 1.093 0 0 1-.05-.17 2.047 2.047 0 0 1 0-.78 1.093 1.093 0 0 1 .05-.17c.02-.07.04-.14.06-.2s.07-.13.1-.19.05-.1.08-.15a2.424 2.424 0 0 1 .25-.31l28-28a2.001 2.001 0 1 1 2.83 2.83l-24.59 24.58h81.17a2.006 2.006 0 0 1 2 2z" fill="#f8ce1a"/></svg>