<svg xmlns="http://www.w3.org/2000/svg" width="48.071" height="48.073"><g data-name="Group 5"><g data-name="Group 2"><g data-name="Group 1"><path data-name="Path 1" d="M25.574 1.546A1.559 1.559 0 0 0 24.033.005a25.791 25.791 0 0 0-3.821.313A23.94 23.94 0 0 0 7.398 6.692 23.987 23.987 0 0 0 .154 26.686a24.842 24.842 0 0 0 2.044 7.39A24.023 24.023 0 0 0 32.975 46.34a25 25 0 0 0 6.435-3.84 23.989 23.989 0 0 0 3.785-32.956 24.842 24.842 0 0 0-5.351-5.177 23.784 23.784 0 0 0-6.44-3.215 24.23 24.23 0 0 0-7.37-1.15 1.541 1.541 0 1 0 0 3.081 23.326 23.326 0 0 1 2.994.2c-.139-.021-.272-.036-.411-.056a22.408 22.408 0 0 1 5.732 1.556l-.37-.154a22.488 22.488 0 0 1 3.359 1.762c.472.3.935.621 1.387.96.072.056.144.113.216.164-.406-.308-.185-.149-.1-.077.1.082.211.164.313.252.211.169.416.339.616.519a22.029 22.029 0 0 1 2.354 2.391c.185.221.37.447.55.678.169.216-.241-.318-.077-.1.041.051.082.108.123.159.082.108.164.216.241.324.329.457.642.924.935 1.4a22.85 22.85 0 0 1 1.546 3.015l-.154-.37a22.619 22.619 0 0 1 1.556 5.732c-.021-.139-.036-.272-.056-.411a22.917 22.917 0 0 1 0 5.988c.021-.139.036-.272.056-.411a22.408 22.408 0 0 1-1.556 5.732l.154-.37a22.486 22.486 0 0 1-1.762 3.359 21.837 21.837 0 0 1-1.124 1.603c.308-.406.149-.185.077-.1-.082.1-.164.211-.252.313-.169.211-.339.416-.519.616a22.029 22.029 0 0 1-2.393 2.352c-.221.185-.447.37-.678.55-.216.169.318-.241.1-.077-.051.041-.108.082-.159.123-.108.082-.216.164-.324.241a23.34 23.34 0 0 1-1.4.935 22.849 22.849 0 0 1-3.015 1.546l.37-.154a22.62 22.62 0 0 1-5.732 1.556c.139-.021.272-.036.411-.056a22.917 22.917 0 0 1-5.988 0c.139.021.272.036.411.056a22.408 22.408 0 0 1-5.732-1.556l.37.154a22.488 22.488 0 0 1-3.359-1.762c-.472-.3-.935-.621-1.387-.96-.072-.056-.144-.113-.216-.164.406.308.185.149.1.077-.1-.082-.211-.164-.313-.252a13.956 13.956 0 0 1-.616-.519 22.028 22.028 0 0 1-2.358-2.392c-.185-.221-.37-.447-.55-.678-.169-.216.241.318.077.1-.041-.051-.082-.108-.123-.159-.082-.108-.164-.216-.241-.324a23.34 23.34 0 0 1-.935-1.4 22.849 22.849 0 0 1-1.546-3.015l.154.37a22.619 22.619 0 0 1-1.556-5.732c.021.139.036.272.056.411a22.917 22.917 0 0 1 0-5.988c-.021.139-.036.272-.056.411a22.408 22.408 0 0 1 1.556-5.732l-.154.37a22.488 22.488 0 0 1 1.762-3.359c.3-.472.621-.935.96-1.387.056-.072.113-.144.164-.216-.308.406-.149.185-.077.1.082-.1.164-.211.252-.313.169-.211.339-.416.519-.616a22.028 22.028 0 0 1 2.393-2.352c.221-.185.447-.37.678-.55.216-.169-.318.241-.1.077.051-.041.108-.082.159-.123.108-.082.216-.164.324-.241a23.34 23.34 0 0 1 1.4-.935 22.849 22.849 0 0 1 3.015-1.546l-.37.154a22.619 22.619 0 0 1 5.739-1.562c-.139.021-.272.036-.411.056a23.326 23.326 0 0 1 2.994-.2 1.565 1.565 0 0 0 1.537-1.53z" fill="#d2d2d2"/></g></g><g data-name="Group 4"><g data-name="Group 3"><path data-name="Path 2" d="M28.338 15.045a1.545 1.545 0 0 0-2.183-2.188l-.067.067c-1.325 1.3-2.624 2.624-3.939 3.939l-4.73 4.73c-.144.144-.293.288-.437.437a2.826 2.826 0 0 0-.524 3.282 6.414 6.414 0 0 0 1.32 1.5l5.028 5.028 3.349 3.349a1.54 1.54 0 0 0 2.178-2.178l-1.171-1.171-5.048-5.048-2.167-2.167-.632-.632-.154-.154-.031-.031a.509.509 0 0 0-.051-.056c.231.18.18.262.092.1a1.514 1.514 0 0 1-.077-.159l.154.37a1.633 1.633 0 0 1-.072-.272c.021.139.036.272.056.411a1.325 1.325 0 0 1 0-.349c-.021.139-.036.272-.056.411a1.775 1.775 0 0 1 .072-.272l-.154.37a2.242 2.242 0 0 1 .113-.221c.087-.159-.277.3-.077.113l.005-.005.041-.041.2-.2.781-.781 4.992-4.992 3.189-3.189z" fill="#d2d2d2"/></g></g></g></svg>