<svg xmlns="http://www.w3.org/2000/svg" width="19.578" height="36"><g data-name="Group 4"><g data-name="Group 3"><path data-name="Path 2" d="M18.895 4.08A2.4 2.4 0 0 0 15.51.687l-.1.1c-2.055 2.015-4.07 4.07-6.109 6.109l-7.335 7.335c-.223.223-.454.446-.677.677a4.382 4.382 0 0 0-.812 5.089 9.947 9.947 0 0 0 2.047 2.326l7.8 7.8 5.193 5.193a2.388 2.388 0 0 0 3.377-3.377l-1.816-1.816-7.829-7.829-3.361-3.361-.98-.98-.239-.239-.048-.048a.787.787 0 0 0-.08-.088c.358.279.279.406.143.159a2.343 2.343 0 0 1-.12-.247l.239.573a2.536 2.536 0 0 1-.112-.422c.032.215.056.422.088.637a2.057 2.057 0 0 1 0-.542c-.032.215-.056.422-.088.637a2.756 2.756 0 0 1 .112-.422l-.239.573a3.48 3.48 0 0 1 .175-.342c.135-.247-.43.462-.12.175l.008-.008.064-.064.311-.311 1.211-1.211 7.736-7.735 4.946-4.946z" fill="#d2d2d2"/></g></g></svg>