<svg xmlns="http://www.w3.org/2000/svg" xmlns:xlink="http://www.w3.org/1999/xlink" width="226" height="60"><defs><path id="a" d="M.24.008h5.579v6.694H.239z"/><path id="c" d="M0 59.992h225.294V.284H0z"/></defs><g fill="none" fill-rule="evenodd"><path fill="#FFF" d="M0 26.394h9.447c-2.566-.818-3.161-1.637-3.161-4.873V5.603c0-3.236.595-4.054 3.161-4.873H0c2.566.819 3.162 1.637 3.162 4.873V21.52c0 3.236-.596 4.055-3.162 4.873"/><path fill="#00A2EA" d="M14.264 26.394h7.29c-2.307-1.079-3.422-2.009-3.757-10.6-.52 8.591-1.302 9.521-3.533 10.6"/><path fill="#FFF" d="M19.62 5.454l17.59 21.312h1.042v-3.943L19.805.731H13.52c2.529.743 4.165 2.38 6.1 4.723"/><path fill="#E50053" d="M38.03 11.368c.372-6.695.818-9.559 3.57-10.637h-7.29c2.939.892 3.348 3.979 3.72 10.637"/><path fill="#FFF" d="M59.175 21.558c0 2.009-1.19 4.352-3.459 5.17 3.496-.743 6.1-3.31 6.1-6.918 0-7.736-12.385-8.107-12.385-14.765 0-1.71 1.339-4.017 3.496-4.686-3.385.595-6.025 2.975-6.025 6.471 0 7.439 12.273 7.774 12.273 14.728m-12.348-2.454v6.285c1.45.707 3.757 1.34 5.988 1.488-3.235-1.19-4.723-3.384-5.988-7.773"/><g transform="translate(54.882 .277)"><mask id="b" fill="#fff"><use xlink:href="#a"/></mask><path fill="#FFF" d="M5.819 6.702V1.458C3.996.714 2.174.12.239.008c2.641.557 4.538 3.05 5.58 6.694" mask="url(#b)"/></g><path fill="#FFF" d="M67.559 26.394h9.447c-2.566-.818-3.161-1.637-3.161-4.873V5.603c0-3.236.595-4.054 3.161-4.873H67.56c2.566.819 3.161 1.637 3.161 4.873V21.52c0 3.236-.595 4.055-3.161 4.873m14.711.001h6.286V.73H82.27c2.566.819 3.161 1.637 3.161 5.059v15.546c0 3.422-.595 4.24-3.161 5.059m10.861 0h.26c8.555 0 14.543-4.798 14.543-13.241 0-8.257-6.471-12.423-14.17-12.423h-.335c7.364.856 10.897 6.286 10.897 12.572 0 6.657-3.719 12.274-11.195 13.092m35.498-20.419V.73h-6.026c2.901 1.04 4.39 2.752 6.026 5.244m-1.674 4.353c-1.525 1.45-3.161 2.305-5.914 2.789 2.753.595 4.389 1.525 5.914 2.938v-5.727zm-15.063 16.067h6.286V.73h-6.286c2.566.819 3.161 1.823 3.161 5.059v15.546c0 3.422-.595 4.24-3.161 5.059"/><path fill="#00A2EA" d="M123.273 26.394h6.434l.744-5.84c-2.603 3.422-3.83 4.538-7.178 5.84"/><mask id="d" fill="#fff"><use xlink:href="#c"/></mask><path fill="#FFF" d="M7.773 46.938H19.49v-1.19H7.773z" mask="url(#d)"/><path fill="#FFF" d="M6.286 54.637V38.718c0-3.236.595-4.054 3.161-4.872H0c2.566.818 3.161 1.636 3.161 4.872v15.919c0 3.235-.595 4.054-3.161 4.872h9.447c-2.566-.818-3.161-1.637-3.161-4.872m20.828-20.791h-9.447c2.566.818 3.161 1.636 3.161 4.872v15.919c0 3.235-.595 4.054-3.161 4.872h9.447c-2.566-.818-3.162-1.637-3.162-4.872V38.718c0-3.236.596-4.054 3.162-4.872m14.789 0h-9.447c2.566.818 3.161 1.636 3.161 4.872v15.919c0 3.235-.595 4.054-3.161 4.872h9.447c-2.566-.818-3.161-1.637-3.161-4.872V38.718c0-3.236.595-4.054 3.161-4.872" mask="url(#d)"/><path fill="#00AA61" d="M50.06 48.946c-1.041 7.401-1.636 9.633-4.314 10.563h7.476c-3.682-1.153-3.496-4.352-3.162-10.563" mask="url(#d)"/><path fill="#FFF" d="M75.872 51.624l-.78-11.38c-.075-.782-.075-1.451-.075-2.047 0-2.603.707-3.459 2.714-4.351h-5.02l-.893 2.566 1.004 15.733c.075 1.339.149 2.38.149 3.235 0 2.678-.52 3.348-2.715 4.129h8.778c-2.679-1.041-2.753-1.86-3.162-7.885M47.345 33.846c2.157.93 3.236 1.301 5.356 5.69l9.707 20.159h1.041l1.117-2.938-10.861-22.911h-6.36z" mask="url(#d)"/><path fill="#FFC200" d="M87.7 57.054c0-1.153.297-2.678.78-4.723-2.343 5.355-4.054 6.285-6.025 7.178h7.624c-1.71-.521-2.38-1.041-2.38-2.455" mask="url(#d)"/><path fill="#FFF" d="M102.428 49.467L96.7 33.585h-2.27l-.41 1.377 5.022 14.207h-9.558l-.372 1.079h10.34c1.301 3.682 2.008 5.765 2.008 7.067 0 1.301-.707 1.71-2.232 2.194h8.889c-2.232-.967-2.9-2.306-5.69-10.042m20.523 10.042h6.212l.744-5.84c-2.604 3.794-4.278 4.836-6.955 5.84m-8.071-20.791v15.919c0 3.05-.595 4.054-3.162 4.872h6.286v-20.79c0-3.05.595-4.055 3.161-4.873h-9.447c2.567.818 3.162 1.822 3.162 4.872m37.996 10.749l-5.727-15.882h-2.27l-.409 1.377 5.022 14.207h-9.559l-.372 1.079h10.34c1.302 3.682 2.008 5.765 2.008 7.067 0 1.301-.706 1.71-2.232 2.194h8.89c-2.232-.967-2.901-2.306-5.69-10.042" mask="url(#d)"/><path fill="#E50053" d="M138.148 57.054c0-1.153.297-2.678.78-4.723-2.342 5.355-4.053 6.285-6.024 7.178h7.624c-1.71-.521-2.38-1.041-2.38-2.455" mask="url(#d)"/><path fill="#FFF" d="M171.045 54.45v-6.248l-3.868-6.843c-1.748-3.124-2.492-4.798-2.492-5.84 0-.892.632-1.227 1.785-1.673h-8.629c1.637.52 2.865 1.376 6.324 7.624l3.756 6.806v6.175c0 3.05-.595 4.24-3.161 5.058h9.446c-2.566-.818-3.16-2.008-3.16-5.058" mask="url(#d)"/><path fill="#00AA61" d="M173.723 42.14c3.384-6.658 5.43-7.885 7.141-8.294h-7.252c3.495.744 1.859 3.793.111 8.294" mask="url(#d)"/><path fill="#FFF" d="M185.525 57.054c0-1.153.297-2.678.781-4.723-2.343 5.355-4.054 6.285-6.026 7.178h7.625c-1.71-.521-2.38-1.041-2.38-2.455m14.728-7.587l-5.728-15.882h-2.268l-.41 1.377 5.022 14.207h-9.559l-.372 1.079h10.34c1.302 3.682 2.008 5.765 2.008 7.067 0 1.301-.706 1.71-2.231 2.194h8.889c-2.232-.967-2.901-2.306-5.691-10.042" mask="url(#d)"/><path fill="#FFC200" d="M224.178 40.094V34.85c-1.822-.744-3.645-1.339-5.579-1.45 2.64.557 4.538 3.05 5.58 6.694" mask="url(#d)"/><path fill="#FFF" d="M210.305 52.219v6.286c1.45.706 3.757 1.339 5.988 1.487-3.235-1.19-4.723-3.384-5.988-7.773m2.604-14.059c0-1.71 1.339-4.017 3.496-4.686-3.385.595-6.025 2.975-6.025 6.471 0 7.44 12.273 7.774 12.273 14.729 0 2.008-1.19 4.351-3.458 5.17 3.495-.744 6.099-3.31 6.099-6.918 0-7.736-12.385-8.108-12.385-14.766" mask="url(#d)"/></g></svg>