<svg xmlns="http://www.w3.org/2000/svg" width="80" height="80"><g data-name="noun_New Window_299638"><g data-name="Group 2"><g data-name="Group 1"><path data-name="Path 1" d="M65.788 8L36.564 37.224a4.4 4.4 0 0 0 6.222 6.223L72 14.233V24a4 4 0 0 0 8 0V4a4 4 0 0 0-4-4H56a4 4 0 0 0 0 8zM80 48v22.03c0 5.506-3.967 9.97-8.867 9.97H8.867C3.97 80 0 75.527 0 70.03V9.97C0 4.464 3.967 0 8.867 0H32a4 4 0 0 1 0 8H10.278A2.487 2.487 0 0 0 8 10.669v58.662A2.513 2.513 0 0 0 10.278 72h59.444A2.487 2.487 0 0 0 72 69.331V48a4 4 0 0 1 8 0z" fill-rule="evenodd"/></g></g></g></svg>