<svg xmlns="http://www.w3.org/2000/svg" width="119" height="10"><path data-name="Fill 1" d="M73.082.351c-12.4 0-24.8-.1-37.188.034-8.827.1-17.637.455-26.443.788C5 1.343.96 2.965.166 4.7c-.885 1.935 1.9 3.051 5.138 4.014a16.077 16.077 0 0 0 3.8.731c5.948.235 12.11.829 17.84.414 7.382-.535 14.514-.3 21.774-.1 1.194.027 2.42.116 3.587.041 6.322-.392 12.622-.84 18.938-1.236 2.58-.162 5.2-.378 7.766-.326a223.083 223.083 0 0 0 23.81-.886c2.932-.253 5.932-.362 8.923-.483 3.558-.138 7.136-1.391 7.258-2.595.123-1.232-2.335-2.3-6.327-2.664-1.567-.146-3.182-.2-4.786-.264Q90.525.663 73.162 0l-.08.351" fill="#f8ce1a"/></svg>