<svg xmlns="http://www.w3.org/2000/svg" width="170" height="10"><path data-name="Fill 1" d="M104.4.351c-17.711 0-35.422-.1-53.126.034-12.61.1-25.2.455-37.775.788C7.141 1.344 1.369 2.965.235 4.698c-1.264 1.935 2.718 3.051 7.34 4.014a31.851 31.851 0 0 0 5.429.731c8.5.235 17.3.829 25.486.414 10.546-.535 20.734-.3 31.105-.1 1.705.029 3.459.118 5.127.043 9.031-.392 18.031-.84 27.054-1.236 3.685-.162 7.424-.378 11.094-.326 11.5.162 22.782-.2 34.014-.886 4.188-.253 8.475-.362 12.747-.483 5.079-.141 10.2-1.393 10.363-2.6.175-1.232-3.335-2.3-9.038-2.664-2.239-.146-4.546-.2-6.838-.264q-24.8-.683-49.6-1.346l-.118.356" fill="#f8ce1a"/></svg>