<svg xmlns="http://www.w3.org/2000/svg" width="144" height="10"><path data-name="Fill 1" d="M88.435.351c-15 0-30-.1-45 .034-10.681.1-21.343.455-32 .788C6.051 1.343 1.162 2.965.2 4.7-.871 6.635 2.5 7.751 6.418 8.714a23.113 23.113 0 0 0 4.6.731c7.2.235 14.654.829 21.588.414 8.933-.535 17.563-.3 26.348-.1 1.446.027 2.927.116 4.34.041 7.65-.392 15.273-.84 22.916-1.236 3.122-.162 6.289-.378 9.4-.326 9.739.162 19.3-.2 28.812-.886 3.547-.253 7.179-.362 10.8-.483 4.3-.141 8.636-1.393 8.778-2.6.143-1.227-2.83-2.29-7.661-2.659-1.9-.146-3.851-.2-5.792-.264Q109.547.663 88.532 0l-.1.351" fill="#f8ce1a"/></svg>